<?xml version="1.0" encoding="UTF-8" standalone="no"?>
<!DOCTYPE svg PUBLIC "-//W3C//DTD SVG 1.1//EN"
 "http://www.w3.org/Graphics/SVG/1.1/DTD/svg11.dtd">
<!-- Generated by graphviz version 2.36.0 (20140111.2315)
 -->
<!-- Title: viewcontroller.commands.UserDefinedVariablesViewController Pages: 1 -->
<svg width="814pt" height="87pt"
 viewBox="0.00 0.00 814.00 87.00" xmlns="http://www.w3.org/2000/svg" xmlns:xlink="http://www.w3.org/1999/xlink">
<g id="graph0" class="graph" transform="scale(1 1) rotate(0) translate(4 83)">
<title>viewcontroller.commands.UserDefinedVariablesViewController</title>
<polygon fill="white" stroke="none" points="-4,4 -4,-83 810,-83 810,4 -4,4"/>
<!-- Node1 -->
<g id="node1" class="node"><title>Node1</title>
<polygon fill="#bfbfbf" stroke="black" points="618,-24 618,-54 806,-54 806,-24 618,-24"/>
<text text-anchor="start" x="626" y="-42" font-family="Helvetica,sans-Serif" font-size="10.00">viewcontroller.commands.</text>
<text text-anchor="middle" x="712" y="-31" font-family="Helvetica,sans-Serif" font-size="10.00">UserDefinedVariablesViewController</text>
</g>
<!-- Node2 -->
<g id="node2" class="node"><title>Node2</title>
<g id="a_node2"><a xlink:href="../../d4/d3f/classviewcontroller_1_1commands_1_1_command_list_window_view_controller.html" target="_top" xlink:title="viewcontroller.commands.\lCommandListWindowViewController">
<polygon fill="white" stroke="black" points="394.5,-49 394.5,-79 581.5,-79 581.5,-49 394.5,-49"/>
<text text-anchor="start" x="402.5" y="-67" font-family="Helvetica,sans-Serif" font-size="10.00">viewcontroller.commands.</text>
<text text-anchor="middle" x="488" y="-56" font-family="Helvetica,sans-Serif" font-size="10.00">CommandListWindowViewController</text>
</a>
</g>
</g>
<!-- Node2&#45;&gt;Node1 -->
<g id="edge1" class="edge"><title>Node2&#45;&gt;Node1</title>
<path fill="none" stroke="midnightblue" d="M591.737,-52.4306C600.46,-51.4482 609.252,-50.4581 617.895,-49.4848"/>
<polygon fill="midnightblue" stroke="midnightblue" points="591.086,-48.9816 581.54,-53.5788 591.869,-55.9377 591.086,-48.9816"/>
</g>
<!-- Node3 -->
<g id="node3" class="node"><title>Node3</title>
<g id="a_node3"><a xlink:href="../../d8/d68/classviewcontroller_1_1commands_1_1_command_window_view_controller.html" target="_top" xlink:title="viewcontroller.commands.\lCommandWindowViewController">
<polygon fill="white" stroke="black" points="188,-49 188,-79 358,-79 358,-49 188,-49"/>
<text text-anchor="start" x="196" y="-67" font-family="Helvetica,sans-Serif" font-size="10.00">viewcontroller.commands.</text>
<text text-anchor="middle" x="273" y="-56" font-family="Helvetica,sans-Serif" font-size="10.00">CommandWindowViewController</text>
</a>
</g>
</g>
<!-- Node3&#45;&gt;Node2 -->
<g id="edge2" class="edge"><title>Node3&#45;&gt;Node2</title>
<path fill="none" stroke="midnightblue" d="M368.269,-64C376.915,-64 385.669,-64 394.301,-64"/>
<polygon fill="midnightblue" stroke="midnightblue" points="368.183,-60.5001 358.183,-64 368.183,-67.5001 368.183,-60.5001"/>
</g>
<!-- Node4 -->
<g id="node4" class="node"><title>Node4</title>
<g id="a_node4"><a xlink:href="../../d4/deb/interfaceviewcontroller_1_1_view_controller.html" target="_top" xlink:title="viewcontroller.ViewController">
<polygon fill="white" stroke="black" points="0,-54.5 0,-73.5 152,-73.5 152,-54.5 0,-54.5"/>
<text text-anchor="middle" x="76" y="-61.5" font-family="Helvetica,sans-Serif" font-size="10.00">viewcontroller.ViewController</text>
</a>
</g>
</g>
<!-- Node4&#45;&gt;Node3 -->
<g id="edge3" class="edge"><title>Node4&#45;&gt;Node3</title>
<path fill="none" stroke="midnightblue" d="M162.351,-64C170.809,-64 179.39,-64 187.836,-64"/>
<polygon fill="midnightblue" stroke="midnightblue" points="162.113,-60.5001 152.113,-64 162.113,-67.5001 162.113,-60.5001"/>
</g>
<!-- Node5 -->
<g id="node5" class="node"><title>Node5</title>
<g id="a_node5"><a xlink:href="../../d1/d41/interfaceviewcontroller_1_1_main_model_observer.html" target="_top" xlink:title="viewcontroller.MainModel\lObserver">
<polygon fill="white" stroke="black" points="420.5,-0 420.5,-30 555.5,-30 555.5,-0 420.5,-0"/>
<text text-anchor="start" x="428.5" y="-18" font-family="Helvetica,sans-Serif" font-size="10.00">viewcontroller.MainModel</text>
<text text-anchor="middle" x="488" y="-7" font-family="Helvetica,sans-Serif" font-size="10.00">Observer</text>
</a>
</g>
</g>
<!-- Node5&#45;&gt;Node1 -->
<g id="edge4" class="edge"><title>Node5&#45;&gt;Node1</title>
<path fill="none" stroke="midnightblue" d="M565.862,-23.3094C582.595,-25.1184 600.475,-27.0513 617.764,-28.9205"/>
<polygon fill="midnightblue" stroke="midnightblue" points="565.926,-19.796 555.607,-22.2008 565.173,-26.7554 565.926,-19.796"/>
</g>
</g>
</svg>
