<?xml version="1.0" encoding="UTF-8" standalone="no"?>
<!DOCTYPE svg PUBLIC "-//W3C//DTD SVG 1.1//EN"
 "http://www.w3.org/Graphics/SVG/1.1/DTD/svg11.dtd">
<!-- Generated by graphviz version 2.36.0 (20140111.2315)
 -->
<!-- Title: turtle.draw.LinearTransition.checkWrapping Pages: 1 -->
<!--zoomable 77 -->
<svg id="main" version="1.1" xmlns="http://www.w3.org/2000/svg" xmlns:xlink="http://www.w3.org/1999/xlink" xml:space="preserve" onload="init(evt)">
<style type="text/css"><![CDATA[
.edge:hover path { stroke: red; }
.edge:hover polygon { stroke: red; fill: red; }
]]></style>
<script type="text/javascript"><![CDATA[
var edges = document.getElementsByTagName('g');
if (edges && edges.length) {
  for (var i=0;i<edges.length;i++) {
    if (edges[i].id.substr(0,4)=='edge') {
      edges[i].setAttribute('class','edge');
    }
  }
}
]]></script>
        <defs>
                <circle id="rim" cx="0" cy="0" r="7"/>
                <circle id="rim2" cx="0" cy="0" r="3.5"/>
                <g id="zoomPlus">
                        <use xlink:href="#rim" fill="#404040">
                                <set attributeName="fill" to="#808080" begin="zoomplus.mouseover" end="zoomplus.mouseout"/>
                        </use>
                        <path d="M-4,0h8M0,-4v8" fill="none" stroke="white" stroke-width="1.5" pointer-events="none"/>
                </g>
                <g id="zoomMin">
                        <use xlink:href="#rim" fill="#404040">
                                <set attributeName="fill" to="#808080" begin="zoomminus.mouseover" end="zoomminus.mouseout"/>
                        </use>
                        <path d="M-4,0h8" fill="none" stroke="white" stroke-width="1.5" pointer-events="none"/>
                </g>
                <g id="dirArrow">
                        <path fill="none" stroke="white" stroke-width="1.5" d="M0,-3.0v7 M-2.5,-0.5L0,-3.0L2.5,-0.5"/>
                </g>
               <g id="resetDef">
                       <use xlink:href="#rim2" fill="#404040">
                               <set attributeName="fill" to="#808080" begin="reset.mouseover" end="reset.mouseout"/>
                       </use>
               </g>
        </defs>

<script type="text/javascript">
var viewWidth = 772;
var viewHeight = 77;
var sectionId = 'dynsection-2';
</script>
<script xlink:href="../../svgpan.js"/>
<svg id="graph" class="graph">
<g id="viewport">
<title>turtle.draw.LinearTransition.checkWrapping</title>
<polygon fill="white" stroke="none" points="-4,4 -4,-73 768,-73 768,4 -4,4"/>
<!-- Node1 -->
<g id="node1" class="node"><title>Node1</title>
<polygon fill="#bfbfbf" stroke="black" points="0.5,-22 0.5,-52 175.5,-52 175.5,-22 0.5,-22"/>
<text text-anchor="start" x="8.5" y="-40" font-family="Helvetica,sans-Serif" font-size="10.00">turtle.draw.LinearTransition.check</text>
<text text-anchor="middle" x="88" y="-29" font-family="Helvetica,sans-Serif" font-size="10.00">Wrapping</text>
</g>
<!-- Node2 -->
<g id="node2" class="node"><title>Node2</title>
<g id="a_node2"><a xlink:href="../../df/dcb/classturtle_1_1_turtle.html#a29ef6cfcd7794054df8ef83724022983" target="_top" xlink:title="turtle.Turtle.getTurtle">
<polygon fill="white" stroke="black" points="227.5,-47.5 227.5,-66.5 342.5,-66.5 342.5,-47.5 227.5,-47.5"/>
<text text-anchor="middle" x="285" y="-54.5" font-family="Helvetica,sans-Serif" font-size="10.00">turtle.Turtle.getTurtle</text>
</a>
</g>
</g>
<!-- Node1&#45;&gt;Node2 -->
<g id="edge1" class="edge"><title>Node1&#45;&gt;Node2</title>
<path fill="none" stroke="midnightblue" d="M175.665,-45.8888C189.607,-47.3187 203.848,-48.7793 217.229,-50.1517"/>
<polygon fill="midnightblue" stroke="midnightblue" points="216.97,-53.6434 227.275,-51.182 217.684,-46.6799 216.97,-53.6434"/>
</g>
<!-- Node4 -->
<g id="node4" class="node"><title>Node4</title>
<g id="a_node4"><a xlink:href="../../df/dcb/classturtle_1_1_turtle.html#a67e499a3b2c885a82659e2fe0f70b284" target="_top" xlink:title="turtle.Turtle.getTurtleRadius">
<polygon fill="white" stroke="black" points="212,-8.5 212,-27.5 358,-27.5 358,-8.5 212,-8.5"/>
<text text-anchor="middle" x="285" y="-15.5" font-family="Helvetica,sans-Serif" font-size="10.00">turtle.Turtle.getTurtleRadius</text>
</a>
</g>
</g>
<!-- Node1&#45;&gt;Node4 -->
<g id="edge3" class="edge"><title>Node1&#45;&gt;Node4</title>
<path fill="none" stroke="midnightblue" d="M175.665,-28.5557C184.366,-27.708 193.182,-26.8489 201.834,-26.006"/>
<polygon fill="midnightblue" stroke="midnightblue" points="202.283,-29.4788 211.897,-25.0254 201.604,-22.5118 202.283,-29.4788"/>
</g>
<!-- Node3 -->
<g id="node3" class="node"><title>Node3</title>
<g id="a_node3"><a xlink:href="../../d4/de5/classturtle_1_1_turtle_view_controller.html#a24215ad9dea4b06da7652230ac822973" target="_top" xlink:title="turtle.TurtleViewController.getNode">
<polygon fill="white" stroke="black" points="394,-49.5 394,-68.5 576,-68.5 576,-49.5 394,-49.5"/>
<text text-anchor="middle" x="485" y="-56.5" font-family="Helvetica,sans-Serif" font-size="10.00">turtle.TurtleViewController.getNode</text>
</a>
</g>
</g>
<!-- Node2&#45;&gt;Node3 -->
<g id="edge2" class="edge"><title>Node2&#45;&gt;Node3</title>
<path fill="none" stroke="midnightblue" d="M342.739,-57.5731C355.613,-57.7032 369.66,-57.8451 383.742,-57.9873"/>
<polygon fill="midnightblue" stroke="midnightblue" points="383.95,-61.4895 393.985,-58.0908 384.021,-54.4898 383.95,-61.4895"/>
</g>
<!-- Node5 -->
<g id="node5" class="node"><title>Node5</title>
<g id="a_node5"><a xlink:href="../../d4/de5/classturtle_1_1_turtle_view_controller.html#aa680f2bc84eb3e1a5d2225a7524738c2" target="_top" xlink:title="turtle.TurtleViewController.get\lRadius">
<polygon fill="white" stroke="black" points="406.5,-0 406.5,-30 563.5,-30 563.5,-0 406.5,-0"/>
<text text-anchor="start" x="414.5" y="-18" font-family="Helvetica,sans-Serif" font-size="10.00">turtle.TurtleViewController.get</text>
<text text-anchor="middle" x="485" y="-7" font-family="Helvetica,sans-Serif" font-size="10.00">Radius</text>
</a>
</g>
</g>
<!-- Node4&#45;&gt;Node5 -->
<g id="edge4" class="edge"><title>Node4&#45;&gt;Node5</title>
<path fill="none" stroke="midnightblue" d="M358.043,-16.9084C370.432,-16.7207 383.431,-16.5238 396.179,-16.3306"/>
<polygon fill="midnightblue" stroke="midnightblue" points="396.388,-19.828 406.333,-16.1768 396.281,-12.8288 396.388,-19.828"/>
</g>
<!-- Node6 -->
<g id="node6" class="node"><title>Node6</title>
<g id="a_node6"><a xlink:href="../../d8/d9e/classturtle_1_1_turtle_image.html#a0cca96e9e2285acda2ada49c6e0dea6d" target="_top" xlink:title="turtle.TurtleImage.getRadius">
<polygon fill="white" stroke="black" points="612.5,-5.5 612.5,-24.5 763.5,-24.5 763.5,-5.5 612.5,-5.5"/>
<text text-anchor="middle" x="688" y="-12.5" font-family="Helvetica,sans-Serif" font-size="10.00">turtle.TurtleImage.getRadius</text>
</a>
</g>
</g>
<!-- Node5&#45;&gt;Node6 -->
<g id="edge5" class="edge"><title>Node5&#45;&gt;Node6</title>
<path fill="none" stroke="midnightblue" d="M563.712,-15C576.351,-15 589.498,-15 602.295,-15"/>
<polygon fill="midnightblue" stroke="midnightblue" points="602.466,-18.5001 612.466,-15 602.466,-11.5001 602.466,-18.5001"/>
</g>
</g>
</svg>
        <g id="navigator" transform="translate(0 0)" fill="#404254">
                <rect fill="#f2f5e9" fill-opacity="0.5" stroke="#606060" stroke-width=".5" x="0" y="0" width="60" height="60"/>
                <use id="zoomplus" xlink:href="#zoomPlus" x="17" y="9" onmousedown="handleZoom(evt,'in')"/>
                <use id="zoomminus" xlink:href="#zoomMin" x="42" y="9" onmousedown="handleZoom(evt,'out')"/>
                <use id="reset" xlink:href="#resetDef" x="30" y="36" onmousedown="handleReset()"/>
                <g id="arrowUp" xlink:href="#dirArrow" transform="translate(30 24)" onmousedown="handlePan(0,-1)">
                  <use xlink:href="#rim" fill="#404040">
                        <set attributeName="fill" to="#808080" begin="arrowUp.mouseover" end="arrowUp.mouseout"/>
                  </use>
                  <path fill="none" stroke="white" stroke-width="1.5" d="M0,-3.0v7 M-2.5,-0.5L0,-3.0L2.5,-0.5"/>
                </g>
                <g id="arrowRight" xlink:href="#dirArrow" transform="rotate(90) translate(36 -43)" onmousedown="handlePan(1,0)">
                  <use xlink:href="#rim" fill="#404040">
                        <set attributeName="fill" to="#808080" begin="arrowRight.mouseover" end="arrowRight.mouseout"/>
                  </use>
                  <path fill="none" stroke="white" stroke-width="1.5" d="M0,-3.0v7 M-2.5,-0.5L0,-3.0L2.5,-0.5"/>
                </g>
                <g id="arrowDown" xlink:href="#dirArrow" transform="rotate(180) translate(-30 -48)" onmousedown="handlePan(0,1)">
                  <use xlink:href="#rim" fill="#404040">
                        <set attributeName="fill" to="#808080" begin="arrowDown.mouseover" end="arrowDown.mouseout"/>
                  </use>
                  <path fill="none" stroke="white" stroke-width="1.5" d="M0,-3.0v7 M-2.5,-0.5L0,-3.0L2.5,-0.5"/>
                </g>
                <g id="arrowLeft" xlink:href="#dirArrow" transform="rotate(270) translate(-36 17)" onmousedown="handlePan(-1,0)">
                  <use xlink:href="#rim" fill="#404040">
                        <set attributeName="fill" to="#808080" begin="arrowLeft.mouseover" end="arrowLeft.mouseout"/>
                  </use>
                  <path fill="none" stroke="white" stroke-width="1.5" d="M0,-3.0v7 M-2.5,-0.5L0,-3.0L2.5,-0.5"/>
                </g>
        </g>
        <svg viewBox="0 0 15 15" width="100%" height="30px" preserveAspectRatio="xMaxYMin meet">
         <g id="arrow_out" transform="scale(0.3 0.3)">
          <a xlink:href="classturtle_1_1draw_1_1_linear_transition_a147bb7b97f186ad172b2d71aec4e9e8e_cgraph_org.svg" target="_base">
           <rect id="button" ry="5" rx="5" y="6" x="6" height="38" width="38"
                fill="#f2f5e9" fill-opacity="0.5" stroke="#606060" stroke-width="1.0"/>
           <path id="arrow"
             d="M 11.500037,31.436501 C 11.940474,20.09759 22.043105,11.32322 32.158766,21.979434 L 37.068811,17.246167 C 37.068811,17.246167 37.088388,32 37.088388,32 L 22.160133,31.978069 C 22.160133,31.978069 26.997745,27.140456 26.997745,27.140456 C 18.528582,18.264221 13.291696,25.230495 11.500037,31.436501 z"
             style="fill:#404040;"/>
          </a>
         </g>
        </svg>
</svg>
