<?xml version="1.0" encoding="UTF-8" standalone="no"?>
<!DOCTYPE svg PUBLIC "-//W3C//DTD SVG 1.1//EN"
 "http://www.w3.org/Graphics/SVG/1.1/DTD/svg11.dtd">
<!-- Generated by graphviz version 2.36.0 (20140111.2315)
 -->
<!-- Title: turtle.draw.LinearTransition.setChanges Pages: 1 -->
<svg width="596pt" height="77pt"
 viewBox="0.00 0.00 596.00 77.00" xmlns="http://www.w3.org/2000/svg" xmlns:xlink="http://www.w3.org/1999/xlink">
<g id="graph0" class="graph" transform="scale(1 1) rotate(0) translate(4 73)">
<title>turtle.draw.LinearTransition.setChanges</title>
<polygon fill="white" stroke="none" points="-4,4 -4,-73 592,-73 592,4 -4,4"/>
<!-- Node1 -->
<g id="node1" class="node"><title>Node1</title>
<polygon fill="#bfbfbf" stroke="black" points="0,-22 0,-52 162,-52 162,-22 0,-22"/>
<text text-anchor="start" x="8" y="-40" font-family="Helvetica,sans-Serif" font-size="10.00">turtle.draw.LinearTransition.set</text>
<text text-anchor="middle" x="81" y="-29" font-family="Helvetica,sans-Serif" font-size="10.00">Changes</text>
</g>
<!-- Node2 -->
<g id="node2" class="node"><title>Node2</title>
<g id="a_node2"><a xlink:href="../../df/dcb/classturtle_1_1_turtle.html#a29ef6cfcd7794054df8ef83724022983" target="_top" xlink:title="turtle.Turtle.getTurtle">
<polygon fill="white" stroke="black" points="226.5,-49.5 226.5,-68.5 341.5,-68.5 341.5,-49.5 226.5,-49.5"/>
<text text-anchor="middle" x="284" y="-56.5" font-family="Helvetica,sans-Serif" font-size="10.00">turtle.Turtle.getTurtle</text>
</a>
</g>
</g>
<!-- Node1&#45;&gt;Node2 -->
<g id="edge1" class="edge"><title>Node1&#45;&gt;Node2</title>
<path fill="none" stroke="midnightblue" d="M162.018,-45.7582C180.047,-47.7315 198.994,-49.8053 216.403,-51.7108"/>
<polygon fill="midnightblue" stroke="midnightblue" points="216.136,-55.2024 226.458,-52.8113 216.898,-48.2439 216.136,-55.2024"/>
</g>
<!-- Node4 -->
<g id="node4" class="node"><title>Node4</title>
<g id="a_node4"><a xlink:href="../../de/de7/classturtle_1_1draw_1_1_linear_transition.html#a0ba027b048be20ab02f17787655e8e27" target="_top" xlink:title="turtle.draw.LinearTransition.scale\lRotation">
<polygon fill="white" stroke="black" points="198,-0 198,-30 370,-30 370,-0 198,-0"/>
<text text-anchor="start" x="206" y="-18" font-family="Helvetica,sans-Serif" font-size="10.00">turtle.draw.LinearTransition.scale</text>
<text text-anchor="middle" x="284" y="-7" font-family="Helvetica,sans-Serif" font-size="10.00">Rotation</text>
</a>
</g>
</g>
<!-- Node1&#45;&gt;Node4 -->
<g id="edge3" class="edge"><title>Node1&#45;&gt;Node4</title>
<path fill="none" stroke="midnightblue" d="M162.018,-28.2418C170.516,-27.3117 179.218,-26.3592 187.868,-25.4125"/>
<polygon fill="midnightblue" stroke="midnightblue" points="188.421,-28.8729 197.981,-24.3056 187.659,-21.9145 188.421,-28.8729"/>
</g>
<!-- Node3 -->
<g id="node3" class="node"><title>Node3</title>
<g id="a_node3"><a xlink:href="../../d4/de5/classturtle_1_1_turtle_view_controller.html#a24215ad9dea4b06da7652230ac822973" target="_top" xlink:title="turtle.TurtleViewController.getNode">
<polygon fill="white" stroke="black" points="406,-49.5 406,-68.5 588,-68.5 588,-49.5 406,-49.5"/>
<text text-anchor="middle" x="497" y="-56.5" font-family="Helvetica,sans-Serif" font-size="10.00">turtle.TurtleViewController.getNode</text>
</a>
</g>
</g>
<!-- Node2&#45;&gt;Node3 -->
<g id="edge2" class="edge"><title>Node2&#45;&gt;Node3</title>
<path fill="none" stroke="midnightblue" d="M341.544,-59C358.307,-59 377.189,-59 395.847,-59"/>
<polygon fill="midnightblue" stroke="midnightblue" points="395.872,-62.5001 405.871,-59 395.871,-55.5001 395.872,-62.5001"/>
</g>
</g>
</svg>
