<?xml version="1.0" encoding="UTF-8" standalone="no"?>
<!DOCTYPE svg PUBLIC "-//W3C//DTD SVG 1.1//EN"
 "http://www.w3.org/Graphics/SVG/1.1/DTD/svg11.dtd">
<!-- Generated by graphviz version 2.36.0 (20140111.2315)
 -->
<!-- Title: turtle.draw.LinearTransition.interpolate Pages: 1 -->
<svg width="1058pt" height="234pt"
 viewBox="0.00 0.00 1058.00 234.00" xmlns="http://www.w3.org/2000/svg" xmlns:xlink="http://www.w3.org/1999/xlink">
<g id="graph0" class="graph" transform="scale(1 1) rotate(0) translate(4 230)">
<title>turtle.draw.LinearTransition.interpolate</title>
<polygon fill="white" stroke="none" points="-4,4 -4,-230 1054,-230 1054,4 -4,4"/>
<!-- Node1 -->
<g id="node1" class="node"><title>Node1</title>
<polygon fill="#bfbfbf" stroke="black" points="0.5,-103.5 0.5,-122.5 199.5,-122.5 199.5,-103.5 0.5,-103.5"/>
<text text-anchor="middle" x="100" y="-110.5" font-family="Helvetica,sans-Serif" font-size="10.00">turtle.draw.LinearTransition.interpolate</text>
</g>
<!-- Node2 -->
<g id="node2" class="node"><title>Node2</title>
<g id="a_node2"><a xlink:href="../../de/de7/classturtle_1_1draw_1_1_linear_transition.html#a147bb7b97f186ad172b2d71aec4e9e8e" target="_top" xlink:title="turtle.draw.LinearTransition.check\lWrapping">
<polygon fill="white" stroke="black" points="248.5,-196 248.5,-226 423.5,-226 423.5,-196 248.5,-196"/>
<text text-anchor="start" x="256.5" y="-214" font-family="Helvetica,sans-Serif" font-size="10.00">turtle.draw.LinearTransition.check</text>
<text text-anchor="middle" x="336" y="-203" font-family="Helvetica,sans-Serif" font-size="10.00">Wrapping</text>
</a>
</g>
</g>
<!-- Node1&#45;&gt;Node2 -->
<g id="edge1" class="edge"><title>Node1&#45;&gt;Node2</title>
<path fill="none" stroke="midnightblue" d="M115.794,-122.601C140.022,-137.951 190.071,-168.105 236,-186 242.586,-188.566 249.523,-190.94 256.541,-193.118"/>
<polygon fill="midnightblue" stroke="midnightblue" points="255.553,-196.475 266.135,-195.967 257.545,-189.765 255.553,-196.475"/>
</g>
<!-- Node8 -->
<g id="node8" class="node"><title>Node8</title>
<g id="a_node8"><a xlink:href="../../de/de7/classturtle_1_1draw_1_1_linear_transition.html#a5e0eb9f275146d5c96fe7252a69a6a44" target="_top" xlink:title="turtle.draw.LinearTransition.interpolate\lChanges">
<polygon fill="white" stroke="black" points="236.5,-147 236.5,-177 435.5,-177 435.5,-147 236.5,-147"/>
<text text-anchor="start" x="244.5" y="-165" font-family="Helvetica,sans-Serif" font-size="10.00">turtle.draw.LinearTransition.interpolate</text>
<text text-anchor="middle" x="336" y="-154" font-family="Helvetica,sans-Serif" font-size="10.00">Changes</text>
</a>
</g>
</g>
<!-- Node1&#45;&gt;Node8 -->
<g id="edge7" class="edge"><title>Node1&#45;&gt;Node8</title>
<path fill="none" stroke="midnightblue" d="M146.395,-122.506C176.645,-128.84 217.271,-137.347 253.07,-144.844"/>
<polygon fill="midnightblue" stroke="midnightblue" points="252.522,-148.305 263.027,-146.929 253.957,-141.453 252.522,-148.305"/>
</g>
<!-- Node9 -->
<g id="node9" class="node"><title>Node9</title>
<g id="a_node9"><a xlink:href="../../de/de7/classturtle_1_1draw_1_1_linear_transition.html#a3f72f53d74de3ef3f52018ad439acf66" target="_top" xlink:title="turtle.draw.LinearTransition.perform\lWrappingChanges">
<polygon fill="white" stroke="black" points="243.5,-98 243.5,-128 428.5,-128 428.5,-98 243.5,-98"/>
<text text-anchor="start" x="251.5" y="-116" font-family="Helvetica,sans-Serif" font-size="10.00">turtle.draw.LinearTransition.perform</text>
<text text-anchor="middle" x="336" y="-105" font-family="Helvetica,sans-Serif" font-size="10.00">WrappingChanges</text>
</a>
</g>
</g>
<!-- Node1&#45;&gt;Node9 -->
<g id="edge8" class="edge"><title>Node1&#45;&gt;Node9</title>
<path fill="none" stroke="midnightblue" d="M199.559,-113C210.652,-113 221.972,-113 233.106,-113"/>
<polygon fill="midnightblue" stroke="midnightblue" points="233.267,-116.5 243.267,-113 233.267,-109.5 233.267,-116.5"/>
</g>
<!-- Node10 -->
<g id="node10" class="node"><title>Node10</title>
<g id="a_node10"><a xlink:href="../../de/de7/classturtle_1_1draw_1_1_linear_transition.html#a751fa70c3d2455c42073e665cde1a673" target="_top" xlink:title="turtle.draw.LinearTransition.set\lChanges">
<polygon fill="white" stroke="black" points="255,-49 255,-79 417,-79 417,-49 255,-49"/>
<text text-anchor="start" x="263" y="-67" font-family="Helvetica,sans-Serif" font-size="10.00">turtle.draw.LinearTransition.set</text>
<text text-anchor="middle" x="336" y="-56" font-family="Helvetica,sans-Serif" font-size="10.00">Changes</text>
</a>
</g>
</g>
<!-- Node1&#45;&gt;Node10 -->
<g id="edge9" class="edge"><title>Node1&#45;&gt;Node10</title>
<path fill="none" stroke="midnightblue" d="M146.395,-103.494C176.645,-97.1598 217.271,-88.6527 253.07,-81.1562"/>
<polygon fill="midnightblue" stroke="midnightblue" points="253.957,-84.5466 263.027,-79.0713 252.522,-77.6952 253.957,-84.5466"/>
</g>
<!-- Node12 -->
<g id="node12" class="node"><title>Node12</title>
<g id="a_node12"><a xlink:href="../../de/de7/classturtle_1_1draw_1_1_linear_transition.html#a8d2c9ebd25a1185b8aaa514b09e14653" target="_top" xlink:title="turtle.draw.LinearTransition.set\lStartPoint">
<polygon fill="white" stroke="black" points="255,-0 255,-30 417,-30 417,-0 255,-0"/>
<text text-anchor="start" x="263" y="-18" font-family="Helvetica,sans-Serif" font-size="10.00">turtle.draw.LinearTransition.set</text>
<text text-anchor="middle" x="336" y="-7" font-family="Helvetica,sans-Serif" font-size="10.00">StartPoint</text>
</a>
</g>
</g>
<!-- Node1&#45;&gt;Node12 -->
<g id="edge12" class="edge"><title>Node1&#45;&gt;Node12</title>
<path fill="none" stroke="midnightblue" d="M115.363,-103.456C139.384,-87.8859 189.644,-56.9599 236,-39 241.546,-36.8511 247.344,-34.8527 253.232,-33.0022"/>
<polygon fill="midnightblue" stroke="midnightblue" points="254.615,-36.2418 263.196,-30.0271 252.612,-29.5344 254.615,-36.2418"/>
</g>
<!-- Node3 -->
<g id="node3" class="node"><title>Node3</title>
<g id="a_node3"><a xlink:href="../../df/dcb/classturtle_1_1_turtle.html#a29ef6cfcd7794054df8ef83724022983" target="_top" xlink:title="turtle.Turtle.getTurtle">
<polygon fill="white" stroke="black" points="500.5,-127.5 500.5,-146.5 615.5,-146.5 615.5,-127.5 500.5,-127.5"/>
<text text-anchor="middle" x="558" y="-134.5" font-family="Helvetica,sans-Serif" font-size="10.00">turtle.Turtle.getTurtle</text>
</a>
</g>
</g>
<!-- Node2&#45;&gt;Node3 -->
<g id="edge2" class="edge"><title>Node2&#45;&gt;Node3</title>
<path fill="none" stroke="midnightblue" d="M401.805,-195.998C413.275,-192.956 425.048,-189.582 436,-186 467.429,-175.722 502.335,-161.244 526.547,-150.691"/>
<polygon fill="midnightblue" stroke="midnightblue" points="528.164,-153.804 535.909,-146.574 525.346,-147.396 528.164,-153.804"/>
</g>
<!-- Node5 -->
<g id="node5" class="node"><title>Node5</title>
<g id="a_node5"><a xlink:href="../../df/dcb/classturtle_1_1_turtle.html#a67e499a3b2c885a82659e2fe0f70b284" target="_top" xlink:title="turtle.Turtle.getTurtleRadius">
<polygon fill="white" stroke="black" points="485,-201.5 485,-220.5 631,-220.5 631,-201.5 485,-201.5"/>
<text text-anchor="middle" x="558" y="-208.5" font-family="Helvetica,sans-Serif" font-size="10.00">turtle.Turtle.getTurtleRadius</text>
</a>
</g>
</g>
<!-- Node2&#45;&gt;Node5 -->
<g id="edge4" class="edge"><title>Node2&#45;&gt;Node5</title>
<path fill="none" stroke="midnightblue" d="M423.634,-211C440.462,-211 458.056,-211 474.738,-211"/>
<polygon fill="midnightblue" stroke="midnightblue" points="474.993,-214.5 484.993,-211 474.993,-207.5 474.993,-214.5"/>
</g>
<!-- Node4 -->
<g id="node4" class="node"><title>Node4</title>
<g id="a_node4"><a xlink:href="../../d4/de5/classturtle_1_1_turtle_view_controller.html#a24215ad9dea4b06da7652230ac822973" target="_top" xlink:title="turtle.TurtleViewController.getNode">
<polygon fill="white" stroke="black" points="680,-127.5 680,-146.5 862,-146.5 862,-127.5 680,-127.5"/>
<text text-anchor="middle" x="771" y="-134.5" font-family="Helvetica,sans-Serif" font-size="10.00">turtle.TurtleViewController.getNode</text>
</a>
</g>
</g>
<!-- Node3&#45;&gt;Node4 -->
<g id="edge3" class="edge"><title>Node3&#45;&gt;Node4</title>
<path fill="none" stroke="midnightblue" d="M615.544,-137C632.307,-137 651.189,-137 669.847,-137"/>
<polygon fill="midnightblue" stroke="midnightblue" points="669.872,-140.5 679.871,-137 669.871,-133.5 669.872,-140.5"/>
</g>
<!-- Node6 -->
<g id="node6" class="node"><title>Node6</title>
<g id="a_node6"><a xlink:href="../../d4/de5/classturtle_1_1_turtle_view_controller.html#aa680f2bc84eb3e1a5d2225a7524738c2" target="_top" xlink:title="turtle.TurtleViewController.get\lRadius">
<polygon fill="white" stroke="black" points="692.5,-196 692.5,-226 849.5,-226 849.5,-196 692.5,-196"/>
<text text-anchor="start" x="700.5" y="-214" font-family="Helvetica,sans-Serif" font-size="10.00">turtle.TurtleViewController.get</text>
<text text-anchor="middle" x="771" y="-203" font-family="Helvetica,sans-Serif" font-size="10.00">Radius</text>
</a>
</g>
</g>
<!-- Node5&#45;&gt;Node6 -->
<g id="edge5" class="edge"><title>Node5&#45;&gt;Node6</title>
<path fill="none" stroke="midnightblue" d="M631.024,-211C647.337,-211 664.841,-211 681.739,-211"/>
<polygon fill="midnightblue" stroke="midnightblue" points="682.165,-214.5 692.165,-211 682.165,-207.5 682.165,-214.5"/>
</g>
<!-- Node7 -->
<g id="node7" class="node"><title>Node7</title>
<g id="a_node7"><a xlink:href="../../d8/d9e/classturtle_1_1_turtle_image.html#a0cca96e9e2285acda2ada49c6e0dea6d" target="_top" xlink:title="turtle.TurtleImage.getRadius">
<polygon fill="white" stroke="black" points="898.5,-201.5 898.5,-220.5 1049.5,-220.5 1049.5,-201.5 898.5,-201.5"/>
<text text-anchor="middle" x="974" y="-208.5" font-family="Helvetica,sans-Serif" font-size="10.00">turtle.TurtleImage.getRadius</text>
</a>
</g>
</g>
<!-- Node6&#45;&gt;Node7 -->
<g id="edge6" class="edge"><title>Node6&#45;&gt;Node7</title>
<path fill="none" stroke="midnightblue" d="M849.712,-211C862.351,-211 875.498,-211 888.295,-211"/>
<polygon fill="midnightblue" stroke="midnightblue" points="888.466,-214.5 898.466,-211 888.466,-207.5 888.466,-214.5"/>
</g>
<!-- Node10&#45;&gt;Node3 -->
<g id="edge11" class="edge"><title>Node10&#45;&gt;Node3</title>
<path fill="none" stroke="midnightblue" d="M404.737,-79.0162C415.274,-81.7555 425.983,-84.7769 436,-88 467.477,-98.1283 502.377,-112.627 526.574,-123.226"/>
<polygon fill="midnightblue" stroke="midnightblue" points="525.368,-126.519 535.929,-127.363 528.199,-120.117 525.368,-126.519"/>
</g>
<!-- Node11 -->
<g id="node11" class="node"><title>Node11</title>
<g id="a_node11"><a xlink:href="../../de/de7/classturtle_1_1draw_1_1_linear_transition.html#a0ba027b048be20ab02f17787655e8e27" target="_top" xlink:title="turtle.draw.LinearTransition.scale\lRotation">
<polygon fill="white" stroke="black" points="472,-49 472,-79 644,-79 644,-49 472,-49"/>
<text text-anchor="start" x="480" y="-67" font-family="Helvetica,sans-Serif" font-size="10.00">turtle.draw.LinearTransition.scale</text>
<text text-anchor="middle" x="558" y="-56" font-family="Helvetica,sans-Serif" font-size="10.00">Rotation</text>
</a>
</g>
</g>
<!-- Node10&#45;&gt;Node11 -->
<g id="edge10" class="edge"><title>Node10&#45;&gt;Node11</title>
<path fill="none" stroke="midnightblue" d="M417.047,-64C431.522,-64 446.745,-64 461.606,-64"/>
<polygon fill="midnightblue" stroke="midnightblue" points="461.823,-67.5001 471.823,-64 461.823,-60.5001 461.823,-67.5001"/>
</g>
</g>
</svg>
