<?xml version="1.0" encoding="UTF-8" standalone="no"?>
<!DOCTYPE svg PUBLIC "-//W3C//DTD SVG 1.1//EN"
 "http://www.w3.org/Graphics/SVG/1.1/DTD/svg11.dtd">
<!-- Generated by graphviz version 2.36.0 (20140111.2315)
 -->
<!-- Title: viewcontroller.GUIReferenceLibrary.getStringTranslation Pages: 1 -->
<svg width="1198pt" height="867pt"
 viewBox="0.00 0.00 1198.00 867.00" xmlns="http://www.w3.org/2000/svg" xmlns:xlink="http://www.w3.org/1999/xlink">
<g id="graph0" class="graph" transform="scale(1 1) rotate(0) translate(4 863)">
<title>viewcontroller.GUIReferenceLibrary.getStringTranslation</title>
<polygon fill="white" stroke="none" points="-4,4 -4,-863 1194,-863 1194,4 -4,4"/>
<!-- Node1 -->
<g id="node1" class="node"><title>Node1</title>
<polygon fill="#bfbfbf" stroke="black" points="0.5,-347 0.5,-377 149.5,-377 149.5,-347 0.5,-347"/>
<text text-anchor="start" x="8.5" y="-365" font-family="Helvetica,sans-Serif" font-size="10.00">viewcontroller.GUIReference</text>
<text text-anchor="middle" x="75" y="-354" font-family="Helvetica,sans-Serif" font-size="10.00">Library.getStringTranslation</text>
</g>
<!-- Node2 -->
<g id="node2" class="node"><title>Node2</title>
<g id="a_node2"><a xlink:href="../../da/d4e/classviewcontroller_1_1_view.html#ad16a35ae1b446b10bc9cc74395e0aeab" target="_top" xlink:title="viewcontroller.View.addWorkspace">
<polygon fill="white" stroke="black" points="205.5,-785.5 205.5,-804.5 382.5,-804.5 382.5,-785.5 205.5,-785.5"/>
<text text-anchor="middle" x="294" y="-792.5" font-family="Helvetica,sans-Serif" font-size="10.00">viewcontroller.View.addWorkspace</text>
</a>
</g>
</g>
<!-- Node1&#45;&gt;Node2 -->
<g id="edge1" class="edge"><title>Node1&#45;&gt;Node2</title>
<path fill="none" stroke="midnightblue" d="M79.5844,-387.136C91.3927,-466.553 131.455,-710.078 186,-765 195.38,-774.445 207.478,-780.979 220.145,-785.483"/>
<polygon fill="midnightblue" stroke="midnightblue" points="83.0202,-386.443 78.1071,-377.056 76.0942,-387.458 83.0202,-386.443"/>
</g>
<!-- Node4 -->
<g id="node4" class="node"><title>Node4</title>
<g id="a_node4"><a xlink:href="../../df/df9/classviewcontroller_1_1_s_logo_menu_bar.html#aea535ae86d7ac7a2fffe549d7bdf2a1d" target="_top" xlink:title="viewcontroller.SLogoMenu\lBar.initializeFileMenu">
<polygon fill="white" stroke="black" points="874,-736 874,-766 1014,-766 1014,-736 874,-736"/>
<text text-anchor="start" x="882" y="-754" font-family="Helvetica,sans-Serif" font-size="10.00">viewcontroller.SLogoMenu</text>
<text text-anchor="middle" x="944" y="-743" font-family="Helvetica,sans-Serif" font-size="10.00">Bar.initializeFileMenu</text>
</a>
</g>
</g>
<!-- Node1&#45;&gt;Node4 -->
<g id="edge27" class="edge"><title>Node1&#45;&gt;Node4</title>
<path fill="none" stroke="midnightblue" d="M76.0626,-387.359C77.731,-449.298 91.464,-608.569 186,-682 243.401,-726.587 765.806,-726.576 838,-735 849.63,-736.357 861.951,-738.025 873.905,-739.767"/>
<polygon fill="midnightblue" stroke="midnightblue" points="79.5609,-387.229 75.8777,-377.295 72.562,-387.358 79.5609,-387.229"/>
</g>
<!-- Node6 -->
<g id="node6" class="node"><title>Node6</title>
<g id="a_node6"><a xlink:href="../../da/d4e/classviewcontroller_1_1_view.html#ae0442fb812563b8647f9b9bdd32e0ee5" target="_top" xlink:title="viewcontroller.View.View">
<polygon fill="white" stroke="black" points="703,-744.5 703,-763.5 833,-763.5 833,-744.5 703,-744.5"/>
<text text-anchor="middle" x="768" y="-751.5" font-family="Helvetica,sans-Serif" font-size="10.00">viewcontroller.View.View</text>
</a>
</g>
</g>
<!-- Node1&#45;&gt;Node6 -->
<g id="edge34" class="edge"><title>Node1&#45;&gt;Node6</title>
<path fill="none" stroke="midnightblue" d="M79.7968,-387.251C91.6954,-462.708 130.782,-683.945 186,-727 264.785,-788.431 568.895,-771.027 702.93,-759.957"/>
<polygon fill="midnightblue" stroke="midnightblue" points="83.2315,-386.56 78.2398,-377.214 76.3142,-387.633 83.2315,-386.56"/>
</g>
<!-- Node9 -->
<g id="node9" class="node"><title>Node9</title>
<g id="a_node9"><a xlink:href="../../de/d01/classviewcontroller_1_1commands_1_1_user_defined_methods_view_controller.html#abb8bc5686a6e6ed6cb588bf9cae9acc9" target="_top" xlink:title="viewcontroller.commands.\lUserDefinedMethodsViewController.apply\lTranslations">
<polygon fill="white" stroke="black" points="187.5,-632.5 187.5,-673.5 400.5,-673.5 400.5,-632.5 187.5,-632.5"/>
<text text-anchor="start" x="195.5" y="-661.5" font-family="Helvetica,sans-Serif" font-size="10.00">viewcontroller.commands.</text>
<text text-anchor="start" x="195.5" y="-650.5" font-family="Helvetica,sans-Serif" font-size="10.00">UserDefinedMethodsViewController.apply</text>
<text text-anchor="middle" x="294" y="-639.5" font-family="Helvetica,sans-Serif" font-size="10.00">Translations</text>
</a>
</g>
</g>
<!-- Node1&#45;&gt;Node9 -->
<g id="edge9" class="edge"><title>Node1&#45;&gt;Node9</title>
<path fill="none" stroke="midnightblue" d="M81.5905,-387.22C93.2823,-434.689 124.481,-538.174 186,-601 198.933,-614.208 215.901,-624.536 232.502,-632.384"/>
<polygon fill="midnightblue" stroke="midnightblue" points="84.925,-386.113 79.2083,-377.193 78.1145,-387.731 84.925,-386.113"/>
</g>
<!-- Node11 -->
<g id="node11" class="node"><title>Node11</title>
<g id="a_node11"><a xlink:href="../../d4/dc8/classviewcontroller_1_1commands_1_1_user_defined_variables_view_controller.html#a5962ceec20262091c5eb4f03b5d50e0d" target="_top" xlink:title="viewcontroller.commands.\lUserDefinedVariablesViewController.apply\lTranslations">
<polygon fill="white" stroke="black" points="186.5,-551.5 186.5,-592.5 401.5,-592.5 401.5,-551.5 186.5,-551.5"/>
<text text-anchor="start" x="194.5" y="-580.5" font-family="Helvetica,sans-Serif" font-size="10.00">viewcontroller.commands.</text>
<text text-anchor="start" x="194.5" y="-569.5" font-family="Helvetica,sans-Serif" font-size="10.00">UserDefinedVariablesViewController.apply</text>
<text text-anchor="middle" x="294" y="-558.5" font-family="Helvetica,sans-Serif" font-size="10.00">Translations</text>
</a>
</g>
</g>
<!-- Node1&#45;&gt;Node11 -->
<g id="edge11" class="edge"><title>Node1&#45;&gt;Node11</title>
<path fill="none" stroke="midnightblue" d="M84.4173,-386.54C98.9543,-425.239 132.459,-500.223 186,-541 191.231,-544.984 196.96,-548.457 202.963,-551.484"/>
<polygon fill="midnightblue" stroke="midnightblue" points="87.6847,-385.284 80.9738,-377.085 81.1073,-387.679 87.6847,-385.284"/>
</g>
<!-- Node14 -->
<g id="node14" class="node"><title>Node14</title>
<g id="a_node14"><a xlink:href="../../d3/d76/classviewcontroller_1_1commands_1_1_command_history_view_controller.html#a168a40efa046c5e4007c30682b87bc54" target="_top" xlink:title="viewcontroller.commands.\lCommandHistoryViewController.apply\lTranslations">
<polygon fill="white" stroke="black" points="195.5,-491.5 195.5,-532.5 392.5,-532.5 392.5,-491.5 195.5,-491.5"/>
<text text-anchor="start" x="203.5" y="-520.5" font-family="Helvetica,sans-Serif" font-size="10.00">viewcontroller.commands.</text>
<text text-anchor="start" x="203.5" y="-509.5" font-family="Helvetica,sans-Serif" font-size="10.00">CommandHistoryViewController.apply</text>
<text text-anchor="middle" x="294" y="-498.5" font-family="Helvetica,sans-Serif" font-size="10.00">Translations</text>
</a>
</g>
</g>
<!-- Node1&#45;&gt;Node14 -->
<g id="edge14" class="edge"><title>Node1&#45;&gt;Node14</title>
<path fill="none" stroke="midnightblue" d="M91.8004,-385.708C110.978,-412.67 145.786,-456.159 186,-481 192.417,-484.964 199.362,-488.44 206.526,-491.484"/>
<polygon fill="midnightblue" stroke="midnightblue" points="94.4971,-383.456 85.9108,-377.249 88.7524,-387.456 94.4971,-383.456"/>
</g>
<!-- Node16 -->
<g id="node16" class="node"><title>Node16</title>
<g id="a_node16"><a xlink:href="../../d5/d37/classviewcontroller_1_1turtlegrid_1_1_turtle_status_view_controller.html#a0b886bc6624c6ffba2ad633b135544ba" target="_top" xlink:title="viewcontroller.turtlegrid.\lTurtleStatusViewController.apply\lTranslations">
<polygon fill="white" stroke="black" points="209,-431.5 209,-472.5 379,-472.5 379,-431.5 209,-431.5"/>
<text text-anchor="start" x="217" y="-460.5" font-family="Helvetica,sans-Serif" font-size="10.00">viewcontroller.turtlegrid.</text>
<text text-anchor="start" x="217" y="-449.5" font-family="Helvetica,sans-Serif" font-size="10.00">TurtleStatusViewController.apply</text>
<text text-anchor="middle" x="294" y="-438.5" font-family="Helvetica,sans-Serif" font-size="10.00">Translations</text>
</a>
</g>
</g>
<!-- Node1&#45;&gt;Node16 -->
<g id="edge16" class="edge"><title>Node1&#45;&gt;Node16</title>
<path fill="none" stroke="midnightblue" d="M109.296,-382.236C130.663,-394.618 159.311,-410.118 186,-421 195.223,-424.761 205.066,-428.263 214.905,-431.458"/>
<polygon fill="midnightblue" stroke="midnightblue" points="111.007,-379.182 100.611,-377.143 107.466,-385.221 111.007,-379.182"/>
</g>
<!-- Node18 -->
<g id="node18" class="node"><title>Node18</title>
<g id="a_node18"><a xlink:href="../../da/d40/classviewcontroller_1_1commands_1_1_command_status_view_controller.html#a0451e57d2995d441049468ef3e7120bf" target="_top" xlink:title="viewcontroller.commands.\lCommandStatusViewController.apply\lTranslations">
<polygon fill="white" stroke="black" points="197,-371.5 197,-412.5 391,-412.5 391,-371.5 197,-371.5"/>
<text text-anchor="start" x="205" y="-400.5" font-family="Helvetica,sans-Serif" font-size="10.00">viewcontroller.commands.</text>
<text text-anchor="start" x="205" y="-389.5" font-family="Helvetica,sans-Serif" font-size="10.00">CommandStatusViewController.apply</text>
<text text-anchor="middle" x="294" y="-378.5" font-family="Helvetica,sans-Serif" font-size="10.00">Translations</text>
</a>
</g>
</g>
<!-- Node1&#45;&gt;Node18 -->
<g id="edge18" class="edge"><title>Node1&#45;&gt;Node18</title>
<path fill="none" stroke="midnightblue" d="M159.817,-373.588C171.917,-375.26 184.449,-376.993 196.767,-378.696"/>
<polygon fill="midnightblue" stroke="midnightblue" points="160.154,-370.101 149.769,-372.198 159.196,-377.035 160.154,-370.101"/>
</g>
<!-- Node20 -->
<g id="node20" class="node"><title>Node20</title>
<g id="a_node20"><a xlink:href="../../de/d8d/classviewcontroller_1_1commands_1_1_command_prompt_view_controller.html#a3f0665f0e71c9fa44420fd5a18fe1756" target="_top" xlink:title="viewcontroller.commands.\lCommandPromptViewController.apply\lTranslations">
<polygon fill="white" stroke="black" points="195,-311.5 195,-352.5 393,-352.5 393,-311.5 195,-311.5"/>
<text text-anchor="start" x="203" y="-340.5" font-family="Helvetica,sans-Serif" font-size="10.00">viewcontroller.commands.</text>
<text text-anchor="start" x="203" y="-329.5" font-family="Helvetica,sans-Serif" font-size="10.00">CommandPromptViewController.apply</text>
<text text-anchor="middle" x="294" y="-318.5" font-family="Helvetica,sans-Serif" font-size="10.00">Translations</text>
</a>
</g>
</g>
<!-- Node1&#45;&gt;Node20 -->
<g id="edge20" class="edge"><title>Node1&#45;&gt;Node20</title>
<path fill="none" stroke="midnightblue" d="M159.752,-350.421C171.242,-348.833 183.124,-347.19 194.843,-345.57"/>
<polygon fill="midnightblue" stroke="midnightblue" points="159.196,-346.965 149.769,-351.802 160.154,-353.899 159.196,-346.965"/>
</g>
<!-- Node22 -->
<g id="node22" class="node"><title>Node22</title>
<g id="a_node22"><a xlink:href="../../d8/d90/classapplication_1_1_form.html#aacf42dc602edfa66ccacdf0941399abe" target="_top" xlink:title="application.Form.createSubmit\lButton">
<polygon fill="white" stroke="black" points="212,-263 212,-293 376,-293 376,-263 212,-263"/>
<text text-anchor="start" x="220" y="-281" font-family="Helvetica,sans-Serif" font-size="10.00">application.Form.createSubmit</text>
<text text-anchor="middle" x="294" y="-270" font-family="Helvetica,sans-Serif" font-size="10.00">Button</text>
</a>
</g>
</g>
<!-- Node1&#45;&gt;Node22 -->
<g id="edge22" class="edge"><title>Node1&#45;&gt;Node22</title>
<path fill="none" stroke="midnightblue" d="M107.776,-341.571C129.159,-328.614 158.388,-312.393 186,-302 194.998,-298.613 204.61,-295.629 214.243,-293.02"/>
<polygon fill="midnightblue" stroke="midnightblue" points="105.802,-338.676 99.12,-346.898 109.471,-344.638 105.802,-338.676"/>
</g>
<!-- Node24 -->
<g id="node24" class="node"><title>Node24</title>
<g id="a_node24"><a xlink:href="../../db/d5b/classviewcontroller_1_1turtlegrid_1_1_grid_button_bar.html#a7dbae351f26140e8e65d161f81b8bb38" target="_top" xlink:title="viewcontroller.turtlegrid.\lGridButtonBar.GridButtonBar">
<polygon fill="white" stroke="black" points="216.5,-214 216.5,-244 371.5,-244 371.5,-214 216.5,-214"/>
<text text-anchor="start" x="224.5" y="-232" font-family="Helvetica,sans-Serif" font-size="10.00">viewcontroller.turtlegrid.</text>
<text text-anchor="middle" x="294" y="-221" font-family="Helvetica,sans-Serif" font-size="10.00">GridButtonBar.GridButtonBar</text>
</a>
</g>
</g>
<!-- Node1&#45;&gt;Node24 -->
<g id="edge24" class="edge"><title>Node1&#45;&gt;Node24</title>
<path fill="none" stroke="midnightblue" d="M93.2947,-338.646C112.966,-313.805 147.403,-275.23 186,-254 195.36,-248.851 205.746,-244.759 216.26,-241.507"/>
<polygon fill="midnightblue" stroke="midnightblue" points="90.3282,-336.76 86.9699,-346.808 95.8616,-341.047 90.3282,-336.76"/>
</g>
<!-- Node25 -->
<g id="node25" class="node"><title>Node25</title>
<g id="a_node25"><a xlink:href="../../df/df9/classviewcontroller_1_1_s_logo_menu_bar.html#acdf079204224a9c0c24ce028f942e628" target="_top" xlink:title="viewcontroller.SLogoMenu\lBar.initializeEditMenu">
<polygon fill="white" stroke="black" points="874,-170 874,-200 1014,-200 1014,-170 874,-170"/>
<text text-anchor="start" x="882" y="-188" font-family="Helvetica,sans-Serif" font-size="10.00">viewcontroller.SLogoMenu</text>
<text text-anchor="middle" x="944" y="-177" font-family="Helvetica,sans-Serif" font-size="10.00">Bar.initializeEditMenu</text>
</a>
</g>
</g>
<!-- Node1&#45;&gt;Node25 -->
<g id="edge25" class="edge"><title>Node1&#45;&gt;Node25</title>
<path fill="none" stroke="midnightblue" d="M84.9094,-337.354C99.5918,-300.852 132.672,-233.652 186,-205 303.477,-141.882 710.173,-166.243 873.908,-179.072"/>
<polygon fill="midnightblue" stroke="midnightblue" points="81.6073,-336.189 81.2545,-346.778 88.1336,-338.72 81.6073,-336.189"/>
</g>
<!-- Node26 -->
<g id="node26" class="node"><title>Node26</title>
<g id="a_node26"><a xlink:href="../../df/df9/classviewcontroller_1_1_s_logo_menu_bar.html#a068f788551874f8c8862c10f8f0f6253" target="_top" xlink:title="viewcontroller.SLogoMenu\lBar.initializeGridMenu">
<polygon fill="white" stroke="black" points="698,-126 698,-156 838,-156 838,-126 698,-126"/>
<text text-anchor="start" x="706" y="-144" font-family="Helvetica,sans-Serif" font-size="10.00">viewcontroller.SLogoMenu</text>
<text text-anchor="middle" x="768" y="-133" font-family="Helvetica,sans-Serif" font-size="10.00">Bar.initializeGridMenu</text>
</a>
</g>
</g>
<!-- Node1&#45;&gt;Node26 -->
<g id="edge28" class="edge"><title>Node1&#45;&gt;Node26</title>
<path fill="none" stroke="midnightblue" d="M82.0791,-337.044C93.9231,-294.457 124.496,-208.702 186,-171 269.904,-119.566 562.741,-129.054 697.798,-136.517"/>
<polygon fill="midnightblue" stroke="midnightblue" points="78.6495,-336.323 79.464,-346.886 85.4148,-338.12 78.6495,-336.323"/>
</g>
<!-- Node27 -->
<g id="node27" class="node"><title>Node27</title>
<g id="a_node27"><a xlink:href="../../db/df2/classapplication_1_1_pen_form.html#a5832fa433c31798116c5a88b1d82d70f" target="_top" xlink:title="application.PenForm.initialize\lPenStyles">
<polygon fill="white" stroke="black" points="216.5,-88 216.5,-118 371.5,-118 371.5,-88 216.5,-88"/>
<text text-anchor="start" x="224.5" y="-106" font-family="Helvetica,sans-Serif" font-size="10.00">application.PenForm.initialize</text>
<text text-anchor="middle" x="294" y="-95" font-family="Helvetica,sans-Serif" font-size="10.00">PenStyles</text>
</a>
</g>
</g>
<!-- Node1&#45;&gt;Node27 -->
<g id="edge30" class="edge"><title>Node1&#45;&gt;Node27</title>
<path fill="none" stroke="midnightblue" d="M80.9409,-336.798C91.5361,-289.565 120.961,-187.579 186,-133 194.867,-125.559 205.455,-119.958 216.471,-115.743"/>
<polygon fill="midnightblue" stroke="midnightblue" points="77.4726,-336.28 78.7998,-346.791 84.3173,-337.746 77.4726,-336.28"/>
</g>
<!-- Node28 -->
<g id="node28" class="node"><title>Node28</title>
<g id="a_node28"><a xlink:href="../../db/df2/classapplication_1_1_pen_form.html#aeba613e21bc0ca960ebd31adfa466160" target="_top" xlink:title="application.PenForm.PenForm">
<polygon fill="white" stroke="black" points="470,-71.5 470,-90.5 630,-90.5 630,-71.5 470,-71.5"/>
<text text-anchor="middle" x="550" y="-78.5" font-family="Helvetica,sans-Serif" font-size="10.00">application.PenForm.PenForm</text>
</a>
</g>
</g>
<!-- Node1&#45;&gt;Node28 -->
<g id="edge32" class="edge"><title>Node1&#45;&gt;Node28</title>
<path fill="none" stroke="midnightblue" d="M76.9393,-336.746C80.6068,-279.229 98.5368,-138.842 186,-79 291.586,-6.75891 457.973,-50.3453 522.343,-71.4891"/>
<polygon fill="midnightblue" stroke="midnightblue" points="73.4413,-336.616 76.3931,-346.791 80.431,-336.996 73.4413,-336.616"/>
</g>
<!-- Node29 -->
<g id="node29" class="node"><title>Node29</title>
<g id="a_node29"><a xlink:href="../../de/d68/classapplication_1_1_pen_form_result.html#acb9e6451ef711a5168e969c7b4ca996a" target="_top" xlink:title="application.PenFormResult.\lPenFormResult">
<polygon fill="white" stroke="black" points="221,-0 221,-30 367,-30 367,-0 221,-0"/>
<text text-anchor="start" x="229" y="-18" font-family="Helvetica,sans-Serif" font-size="10.00">application.PenFormResult.</text>
<text text-anchor="middle" x="294" y="-7" font-family="Helvetica,sans-Serif" font-size="10.00">PenFormResult</text>
</a>
</g>
</g>
<!-- Node1&#45;&gt;Node29 -->
<g id="edge33" class="edge"><title>Node1&#45;&gt;Node29</title>
<path fill="none" stroke="midnightblue" d="M77.1551,-336.759C81.2854,-276.994 100.137,-125.807 186,-45 195.764,-35.8106 208.113,-29.3997 220.924,-24.9359"/>
<polygon fill="midnightblue" stroke="midnightblue" points="73.657,-336.622 76.5424,-346.816 80.6441,-337.048 73.657,-336.622"/>
</g>
<!-- Node3 -->
<g id="node3" class="node"><title>Node3</title>
<g id="a_node3"><a xlink:href="../../da/d4e/classviewcontroller_1_1_view.html#a64b659e383de6c070b48a80ddfa72668" target="_top" xlink:title="viewcontroller.View.addNew\lWorkspace">
<polygon fill="white" stroke="black" points="477,-780 477,-810 623,-810 623,-780 477,-780"/>
<text text-anchor="start" x="485" y="-798" font-family="Helvetica,sans-Serif" font-size="10.00">viewcontroller.View.addNew</text>
<text text-anchor="middle" x="550" y="-787" font-family="Helvetica,sans-Serif" font-size="10.00">Workspace</text>
</a>
</g>
</g>
<!-- Node2&#45;&gt;Node3 -->
<g id="edge2" class="edge"><title>Node2&#45;&gt;Node3</title>
<path fill="none" stroke="midnightblue" d="M392.948,-795C420.851,-795 450.731,-795 476.799,-795"/>
<polygon fill="midnightblue" stroke="midnightblue" points="392.768,-791.5 382.768,-795 392.768,-798.5 392.768,-791.5"/>
</g>
<!-- Node7 -->
<g id="node7" class="node"><title>Node7</title>
<g id="a_node7"><a xlink:href="../../da/d4e/classviewcontroller_1_1_view.html#a4b671855769c23246f5698d72dc12618" target="_top" xlink:title="viewcontroller.View.load\lSerialisedWorkspace">
<polygon fill="white" stroke="black" points="486,-829 486,-859 614,-859 614,-829 486,-829"/>
<text text-anchor="start" x="494" y="-847" font-family="Helvetica,sans-Serif" font-size="10.00">viewcontroller.View.load</text>
<text text-anchor="middle" x="550" y="-836" font-family="Helvetica,sans-Serif" font-size="10.00">SerialisedWorkspace</text>
</a>
</g>
</g>
<!-- Node2&#45;&gt;Node7 -->
<g id="edge6" class="edge"><title>Node2&#45;&gt;Node7</title>
<path fill="none" stroke="midnightblue" d="M354.291,-806.438C393.781,-814.056 445.615,-824.056 485.872,-831.822"/>
<polygon fill="midnightblue" stroke="midnightblue" points="354.757,-802.963 344.275,-804.506 353.431,-809.837 354.757,-802.963"/>
</g>
<!-- Node3&#45;&gt;Node4 -->
<g id="edge3" class="edge"><title>Node3&#45;&gt;Node4</title>
<path fill="none" stroke="midnightblue" d="M633.361,-791.532C690.9,-788.415 769.394,-782.775 838,-773 850.907,-771.161 864.606,-768.683 877.699,-766.053"/>
<polygon fill="midnightblue" stroke="midnightblue" points="633.032,-788.044 623.23,-792.066 633.401,-795.035 633.032,-788.044"/>
</g>
<!-- Node3&#45;&gt;Node6 -->
<g id="edge5" class="edge"><title>Node3&#45;&gt;Node6</title>
<path fill="none" stroke="midnightblue" d="M633.058,-779.424C661.188,-774.085 691.814,-768.271 716.672,-763.553"/>
<polygon fill="midnightblue" stroke="midnightblue" points="632.397,-775.987 623.225,-781.291 633.702,-782.864 632.397,-775.987"/>
</g>
<!-- Node5 -->
<g id="node5" class="node"><title>Node5</title>
<g id="a_node5"><a xlink:href="../../df/df9/classviewcontroller_1_1_s_logo_menu_bar.html#a75b45d0a4b08de5ff8588fc15b2f14fe" target="_top" xlink:title="viewcontroller.SLogoMenu\lBar.SLogoMenuBar">
<polygon fill="white" stroke="black" points="1050,-170 1050,-200 1190,-200 1190,-170 1050,-170"/>
<text text-anchor="start" x="1058" y="-188" font-family="Helvetica,sans-Serif" font-size="10.00">viewcontroller.SLogoMenu</text>
<text text-anchor="middle" x="1120" y="-177" font-family="Helvetica,sans-Serif" font-size="10.00">Bar.SLogoMenuBar</text>
</a>
</g>
</g>
<!-- Node4&#45;&gt;Node5 -->
<g id="edge4" class="edge"><title>Node4&#45;&gt;Node5</title>
<path fill="none" stroke="midnightblue" d="M952.675,-726.035C982.539,-628.889 1090.52,-277.65 1114.33,-200.186"/>
<polygon fill="midnightblue" stroke="midnightblue" points="949.247,-725.274 949.654,-735.861 955.938,-727.331 949.247,-725.274"/>
</g>
<!-- Node8 -->
<g id="node8" class="node"><title>Node8</title>
<g id="a_node8"><a xlink:href="../../da/d4e/classviewcontroller_1_1_view.html#a3ce37900baf65c2a31c0a2a7d5349aae" target="_top" xlink:title="viewcontroller.View.load\lWorkspace">
<polygon fill="white" stroke="black" points="704,-825 704,-855 832,-855 832,-825 704,-825"/>
<text text-anchor="start" x="712" y="-843" font-family="Helvetica,sans-Serif" font-size="10.00">viewcontroller.View.load</text>
<text text-anchor="middle" x="768" y="-832" font-family="Helvetica,sans-Serif" font-size="10.00">Workspace</text>
</a>
</g>
</g>
<!-- Node7&#45;&gt;Node8 -->
<g id="edge7" class="edge"><title>Node7&#45;&gt;Node8</title>
<path fill="none" stroke="midnightblue" d="M624.184,-842.645C650.051,-842.166 678.903,-841.631 703.865,-841.169"/>
<polygon fill="midnightblue" stroke="midnightblue" points="623.99,-839.148 614.057,-842.832 624.12,-846.146 623.99,-839.148"/>
</g>
<!-- Node8&#45;&gt;Node4 -->
<g id="edge8" class="edge"><title>Node8&#45;&gt;Node4</title>
<path fill="none" stroke="midnightblue" d="M810.66,-820.438C819.709,-816.088 829.205,-811.446 838,-807 864.551,-793.579 894.454,-777.538 915.538,-766.071"/>
<polygon fill="midnightblue" stroke="midnightblue" points="808.951,-817.375 801.438,-824.846 811.97,-823.691 808.951,-817.375"/>
</g>
<!-- Node10 -->
<g id="node10" class="node"><title>Node10</title>
<g id="a_node10"><a xlink:href="../../de/d01/classviewcontroller_1_1commands_1_1_user_defined_methods_view_controller.html#a6a921839af31a0929e156cbedb2c5133" target="_top" xlink:title="viewcontroller.commands.\lUserDefinedMethodsViewController.\lUserDefinedMethodsViewController">
<polygon fill="white" stroke="black" points="456,-643.5 456,-684.5 644,-684.5 644,-643.5 456,-643.5"/>
<text text-anchor="start" x="464" y="-672.5" font-family="Helvetica,sans-Serif" font-size="10.00">viewcontroller.commands.</text>
<text text-anchor="start" x="464" y="-661.5" font-family="Helvetica,sans-Serif" font-size="10.00">UserDefinedMethodsViewController.</text>
<text text-anchor="middle" x="550" y="-650.5" font-family="Helvetica,sans-Serif" font-size="10.00">UserDefinedMethodsViewController</text>
</a>
</g>
</g>
<!-- Node9&#45;&gt;Node10 -->
<g id="edge10" class="edge"><title>Node9&#45;&gt;Node10</title>
<path fill="none" stroke="midnightblue" d="M410.917,-658.02C426.011,-658.674 441.315,-659.336 455.968,-659.971"/>
<polygon fill="midnightblue" stroke="midnightblue" points="410.654,-654.505 400.512,-657.569 410.351,-661.499 410.654,-654.505"/>
</g>
<!-- Node12 -->
<g id="node12" class="node"><title>Node12</title>
<g id="a_node12"><a xlink:href="../../d4/dc8/classviewcontroller_1_1commands_1_1_user_defined_variables_view_controller.html#a2788ecdf0550c165712b8e2585bb1a0b" target="_top" xlink:title="viewcontroller.commands.\lUserDefinedVariablesViewController.\lUserDefinedVariablesViewController">
<polygon fill="white" stroke="black" points="455,-535.5 455,-576.5 645,-576.5 645,-535.5 455,-535.5"/>
<text text-anchor="start" x="463" y="-564.5" font-family="Helvetica,sans-Serif" font-size="10.00">viewcontroller.commands.</text>
<text text-anchor="start" x="463" y="-553.5" font-family="Helvetica,sans-Serif" font-size="10.00">UserDefinedVariablesViewController.</text>
<text text-anchor="middle" x="550" y="-542.5" font-family="Helvetica,sans-Serif" font-size="10.00">UserDefinedVariablesViewController</text>
</a>
</g>
</g>
<!-- Node11&#45;&gt;Node12 -->
<g id="edge12" class="edge"><title>Node11&#45;&gt;Node12</title>
<path fill="none" stroke="midnightblue" d="M412.007,-564.629C426.335,-563.727 440.834,-562.814 454.768,-561.936"/>
<polygon fill="midnightblue" stroke="midnightblue" points="411.375,-561.162 401.615,-565.284 411.815,-568.148 411.375,-561.162"/>
</g>
<!-- Node13 -->
<g id="node13" class="node"><title>Node13</title>
<g id="a_node13"><a xlink:href="../../d4/dc8/classviewcontroller_1_1commands_1_1_user_defined_variables_view_controller.html#a1e84f755902379519ddf5438bc2d27ee" target="_top" xlink:title="viewcontroller.commands.\lUserDefinedVariablesViewController.update">
<polygon fill="white" stroke="black" points="438,-595 438,-625 662,-625 662,-595 438,-595"/>
<text text-anchor="start" x="446" y="-613" font-family="Helvetica,sans-Serif" font-size="10.00">viewcontroller.commands.</text>
<text text-anchor="middle" x="550" y="-602" font-family="Helvetica,sans-Serif" font-size="10.00">UserDefinedVariablesViewController.update</text>
</a>
</g>
</g>
<!-- Node11&#45;&gt;Node13 -->
<g id="edge13" class="edge"><title>Node11&#45;&gt;Node13</title>
<path fill="none" stroke="midnightblue" d="M411.821,-589.477C424.018,-591.302 436.342,-593.146 448.337,-594.94"/>
<polygon fill="midnightblue" stroke="midnightblue" points="412.023,-585.968 401.615,-587.95 410.987,-592.891 412.023,-585.968"/>
</g>
<!-- Node15 -->
<g id="node15" class="node"><title>Node15</title>
<g id="a_node15"><a xlink:href="../../d3/d76/classviewcontroller_1_1commands_1_1_command_history_view_controller.html#a917d00668cf6b7386e39c033dac3ea85" target="_top" xlink:title="viewcontroller.commands.\lCommandHistoryViewController.\lCommandHistoryViewController">
<polygon fill="white" stroke="black" points="464.5,-475.5 464.5,-516.5 635.5,-516.5 635.5,-475.5 464.5,-475.5"/>
<text text-anchor="start" x="472.5" y="-504.5" font-family="Helvetica,sans-Serif" font-size="10.00">viewcontroller.commands.</text>
<text text-anchor="start" x="472.5" y="-493.5" font-family="Helvetica,sans-Serif" font-size="10.00">CommandHistoryViewController.</text>
<text text-anchor="middle" x="550" y="-482.5" font-family="Helvetica,sans-Serif" font-size="10.00">CommandHistoryViewController</text>
</a>
</g>
</g>
<!-- Node14&#45;&gt;Node15 -->
<g id="edge15" class="edge"><title>Node14&#45;&gt;Node15</title>
<path fill="none" stroke="midnightblue" d="M402.878,-505.205C423.459,-503.908 444.725,-502.568 464.449,-501.326"/>
<polygon fill="midnightblue" stroke="midnightblue" points="402.6,-501.715 392.84,-505.837 403.04,-508.701 402.6,-501.715"/>
</g>
<!-- Node17 -->
<g id="node17" class="node"><title>Node17</title>
<g id="a_node17"><a xlink:href="../../d5/d37/classviewcontroller_1_1turtlegrid_1_1_turtle_status_view_controller.html#a91a5194a988cb81a73ee772d09622b57" target="_top" xlink:title="viewcontroller.turtlegrid.\lTurtleStatusViewController.Turtle\lStatusViewController">
<polygon fill="white" stroke="black" points="465,-415.5 465,-456.5 635,-456.5 635,-415.5 465,-415.5"/>
<text text-anchor="start" x="473" y="-444.5" font-family="Helvetica,sans-Serif" font-size="10.00">viewcontroller.turtlegrid.</text>
<text text-anchor="start" x="473" y="-433.5" font-family="Helvetica,sans-Serif" font-size="10.00">TurtleStatusViewController.Turtle</text>
<text text-anchor="middle" x="550" y="-422.5" font-family="Helvetica,sans-Serif" font-size="10.00">StatusViewController</text>
</a>
</g>
</g>
<!-- Node16&#45;&gt;Node17 -->
<g id="edge17" class="edge"><title>Node16&#45;&gt;Node17</title>
<path fill="none" stroke="midnightblue" d="M389.315,-446.059C413.995,-444.504 440.441,-442.838 464.569,-441.318"/>
<polygon fill="midnightblue" stroke="midnightblue" points="388.986,-442.573 379.226,-446.694 389.426,-449.559 388.986,-442.573"/>
</g>
<!-- Node19 -->
<g id="node19" class="node"><title>Node19</title>
<g id="a_node19"><a xlink:href="../../da/d40/classviewcontroller_1_1commands_1_1_command_status_view_controller.html#ab706eb7ec2c4d7d3fa785d655fa83c2f" target="_top" xlink:title="viewcontroller.commands.\lCommandStatusViewController.\lCommandStatusViewController">
<polygon fill="white" stroke="black" points="465.5,-355.5 465.5,-396.5 634.5,-396.5 634.5,-355.5 465.5,-355.5"/>
<text text-anchor="start" x="473.5" y="-384.5" font-family="Helvetica,sans-Serif" font-size="10.00">viewcontroller.commands.</text>
<text text-anchor="start" x="473.5" y="-373.5" font-family="Helvetica,sans-Serif" font-size="10.00">CommandStatusViewController.</text>
<text text-anchor="middle" x="550" y="-362.5" font-family="Helvetica,sans-Serif" font-size="10.00">CommandStatusViewController</text>
</a>
</g>
</g>
<!-- Node18&#45;&gt;Node19 -->
<g id="edge19" class="edge"><title>Node18&#45;&gt;Node19</title>
<path fill="none" stroke="midnightblue" d="M401.134,-385.314C422.558,-383.965 444.796,-382.564 465.32,-381.271"/>
<polygon fill="midnightblue" stroke="midnightblue" points="400.787,-381.829 391.027,-385.951 401.227,-388.815 400.787,-381.829"/>
</g>
<!-- Node21 -->
<g id="node21" class="node"><title>Node21</title>
<g id="a_node21"><a xlink:href="../../de/d8d/classviewcontroller_1_1commands_1_1_command_prompt_view_controller.html#a7e92ce4136e77a153ee6ef862f99052a" target="_top" xlink:title="viewcontroller.commands.\lCommandPromptViewController.\lCommandPromptViewController">
<polygon fill="white" stroke="black" points="463.5,-295.5 463.5,-336.5 636.5,-336.5 636.5,-295.5 463.5,-295.5"/>
<text text-anchor="start" x="471.5" y="-324.5" font-family="Helvetica,sans-Serif" font-size="10.00">viewcontroller.commands.</text>
<text text-anchor="start" x="471.5" y="-313.5" font-family="Helvetica,sans-Serif" font-size="10.00">CommandPromptViewController.</text>
<text text-anchor="middle" x="550" y="-302.5" font-family="Helvetica,sans-Serif" font-size="10.00">CommandPromptViewController</text>
</a>
</g>
</g>
<!-- Node20&#45;&gt;Node21 -->
<g id="edge21" class="edge"><title>Node20&#45;&gt;Node21</title>
<path fill="none" stroke="midnightblue" d="M403.326,-325.176C423.425,-323.91 444.162,-322.604 463.464,-321.388"/>
<polygon fill="midnightblue" stroke="midnightblue" points="402.963,-321.692 393.203,-325.814 403.403,-328.678 402.963,-321.692"/>
</g>
<!-- Node23 -->
<g id="node23" class="node"><title>Node23</title>
<g id="a_node23"><a xlink:href="../../d8/d90/classapplication_1_1_form.html#a133dfc1675d000ff06e8bf240bed89d7" target="_top" xlink:title="application.Form.Form">
<polygon fill="white" stroke="black" points="488,-257.5 488,-276.5 612,-276.5 612,-257.5 488,-257.5"/>
<text text-anchor="middle" x="550" y="-264.5" font-family="Helvetica,sans-Serif" font-size="10.00">application.Form.Form</text>
</a>
</g>
</g>
<!-- Node22&#45;&gt;Node23 -->
<g id="edge23" class="edge"><title>Node22&#45;&gt;Node23</title>
<path fill="none" stroke="midnightblue" d="M386.373,-274.043C419.997,-272.587 457.247,-270.974 487.604,-269.659"/>
<polygon fill="midnightblue" stroke="midnightblue" points="385.905,-270.56 376.066,-274.489 386.208,-277.553 385.905,-270.56"/>
</g>
<!-- Node25&#45;&gt;Node5 -->
<g id="edge26" class="edge"><title>Node25&#45;&gt;Node5</title>
<path fill="none" stroke="midnightblue" d="M1024.03,-185C1032.62,-185 1041.32,-185 1049.78,-185"/>
<polygon fill="midnightblue" stroke="midnightblue" points="1024.02,-181.5 1014.02,-185 1024.02,-188.5 1024.02,-181.5"/>
</g>
<!-- Node26&#45;&gt;Node5 -->
<g id="edge29" class="edge"><title>Node26&#45;&gt;Node5</title>
<path fill="none" stroke="midnightblue" d="M848.261,-144.586C896.397,-147.479 958.972,-152.51 1014,-161 1029.06,-163.324 1045.18,-166.601 1060.14,-169.988"/>
<polygon fill="midnightblue" stroke="midnightblue" points="848.403,-141.089 838.216,-144.001 847.996,-148.077 848.403,-141.089"/>
</g>
<!-- Node27&#45;&gt;Node28 -->
<g id="edge31" class="edge"><title>Node27&#45;&gt;Node28</title>
<path fill="none" stroke="midnightblue" d="M381.547,-95.5038C410.195,-93.0224 441.91,-90.2755 469.965,-87.8456"/>
<polygon fill="midnightblue" stroke="midnightblue" points="381.213,-92.0195 371.553,-96.3694 381.818,-98.9934 381.213,-92.0195"/>
</g>
</g>
</svg>
