<?xml version="1.0" encoding="UTF-8" standalone="no"?>
<!DOCTYPE svg PUBLIC "-//W3C//DTD SVG 1.1//EN"
 "http://www.w3.org/Graphics/SVG/1.1/DTD/svg11.dtd">
<!-- Generated by graphviz version 2.36.0 (20140111.2315)
 -->
<!-- Title: model.ModelUpdater.updateModel Pages: 1 -->
<svg width="2330pt" height="207pt"
 viewBox="0.00 0.00 2330.00 207.00" xmlns="http://www.w3.org/2000/svg" xmlns:xlink="http://www.w3.org/1999/xlink">
<g id="graph0" class="graph" transform="scale(1 1) rotate(0) translate(4 203)">
<title>model.ModelUpdater.updateModel</title>
<polygon fill="white" stroke="none" points="-4,4 -4,-203 2326,-203 2326,4 -4,4"/>
<!-- Node1 -->
<g id="node1" class="node"><title>Node1</title>
<polygon fill="#bfbfbf" stroke="black" points="0.5,-100 0.5,-130 153.5,-130 153.5,-100 0.5,-100"/>
<text text-anchor="start" x="8.5" y="-118" font-family="Helvetica,sans-Serif" font-size="10.00">model.ModelUpdater.update</text>
<text text-anchor="middle" x="77" y="-107" font-family="Helvetica,sans-Serif" font-size="10.00">Model</text>
</g>
<!-- Node2 -->
<g id="node2" class="node"><title>Node2</title>
<g id="a_node2"><a xlink:href="../../de/d21/classmodel_1_1_main_model.html#a1863b9ce1cc6b16b0e03dbfc73f51314" target="_top" xlink:title="model.MainModel.updateModel">
<polygon fill="white" stroke="black" points="190,-105.5 190,-124.5 356,-124.5 356,-105.5 190,-105.5"/>
<text text-anchor="middle" x="273" y="-112.5" font-family="Helvetica,sans-Serif" font-size="10.00">model.MainModel.updateModel</text>
</a>
</g>
</g>
<!-- Node1&#45;&gt;Node2 -->
<g id="edge1" class="edge"><title>Node1&#45;&gt;Node2</title>
<path fill="none" stroke="midnightblue" d="M163.706,-115C172.41,-115 181.237,-115 189.902,-115"/>
<polygon fill="midnightblue" stroke="midnightblue" points="163.561,-111.5 153.561,-115 163.561,-118.5 163.561,-111.5"/>
</g>
<!-- Node3 -->
<g id="node3" class="node"><title>Node3</title>
<g id="a_node3"><a xlink:href="../../de/d21/classmodel_1_1_main_model.html#a96f4ff9f640f14d713c5d90ab5704884" target="_top" xlink:title="model.MainModel.interpret\lSLogoCommand">
<polygon fill="white" stroke="black" points="392.5,-100 392.5,-130 537.5,-130 537.5,-100 392.5,-100"/>
<text text-anchor="start" x="400.5" y="-118" font-family="Helvetica,sans-Serif" font-size="10.00">model.MainModel.interpret</text>
<text text-anchor="middle" x="465" y="-107" font-family="Helvetica,sans-Serif" font-size="10.00">SLogoCommand</text>
</a>
</g>
</g>
<!-- Node2&#45;&gt;Node3 -->
<g id="edge2" class="edge"><title>Node2&#45;&gt;Node3</title>
<path fill="none" stroke="midnightblue" d="M366.435,-115C375.153,-115 383.899,-115 392.381,-115"/>
<polygon fill="midnightblue" stroke="midnightblue" points="366.232,-111.5 356.232,-115 366.232,-118.5 366.232,-111.5"/>
</g>
<!-- Node4 -->
<g id="node4" class="node"><title>Node4</title>
<g id="a_node4"><a xlink:href="../../de/d21/classmodel_1_1_main_model.html#ab4985c9a187961a2d57a8a0a63ab3b18" target="_top" xlink:title="model.MainModel.interpret\lSLogoCommand">
<polygon fill="white" stroke="black" points="601.5,-125 601.5,-155 746.5,-155 746.5,-125 601.5,-125"/>
<text text-anchor="start" x="609.5" y="-143" font-family="Helvetica,sans-Serif" font-size="10.00">model.MainModel.interpret</text>
<text text-anchor="middle" x="674" y="-132" font-family="Helvetica,sans-Serif" font-size="10.00">SLogoCommand</text>
</a>
</g>
</g>
<!-- Node3&#45;&gt;Node4 -->
<g id="edge3" class="edge"><title>Node3&#45;&gt;Node4</title>
<path fill="none" stroke="midnightblue" d="M547.844,-124.885C565.568,-127.025 584.179,-129.273 601.47,-131.361"/>
<polygon fill="midnightblue" stroke="midnightblue" points="547.875,-121.363 537.528,-123.639 547.036,-128.312 547.875,-121.363"/>
</g>
<!-- Node5 -->
<g id="node5" class="node"><title>Node5</title>
<g id="a_node5"><a xlink:href="../../d3/d67/classviewcontroller_1_1_main_view_controller.html#a1b77a34d9385ff9296a9dc1db8c322cb" target="_top" xlink:title="viewcontroller.MainViewController.pass\lSLogoCommand">
<polygon fill="white" stroke="black" points="574,-76 574,-106 774,-106 774,-76 574,-76"/>
<text text-anchor="start" x="582" y="-94" font-family="Helvetica,sans-Serif" font-size="10.00">viewcontroller.MainViewController.pass</text>
<text text-anchor="middle" x="674" y="-83" font-family="Helvetica,sans-Serif" font-size="10.00">SLogoCommand</text>
</a>
</g>
</g>
<!-- Node3&#45;&gt;Node5 -->
<g id="edge4" class="edge"><title>Node3&#45;&gt;Node5</title>
<path fill="none" stroke="midnightblue" d="M547.516,-105.549C556.12,-104.551 564.937,-103.529 573.713,-102.512"/>
<polygon fill="midnightblue" stroke="midnightblue" points="547.058,-102.078 537.528,-106.707 547.864,-109.032 547.058,-102.078"/>
</g>
<!-- Node6 -->
<g id="node6" class="node"><title>Node6</title>
<g id="a_node6"><a xlink:href="../../d0/d7c/classviewcontroller_1_1commands_1_1_command_window_container_view_controller.html#a0d7c2e3db2080741b7b01b42a0294695" target="_top" xlink:title="viewcontroller.commands.\lCommandWindowContainerViewController.pass\lSLogoCommand">
<polygon fill="white" stroke="black" points="810,-100.5 810,-141.5 1052,-141.5 1052,-100.5 810,-100.5"/>
<text text-anchor="start" x="818" y="-129.5" font-family="Helvetica,sans-Serif" font-size="10.00">viewcontroller.commands.</text>
<text text-anchor="start" x="818" y="-118.5" font-family="Helvetica,sans-Serif" font-size="10.00">CommandWindowContainerViewController.pass</text>
<text text-anchor="middle" x="931" y="-107.5" font-family="Helvetica,sans-Serif" font-size="10.00">SLogoCommand</text>
</a>
</g>
</g>
<!-- Node5&#45;&gt;Node6 -->
<g id="edge5" class="edge"><title>Node5&#45;&gt;Node6</title>
<path fill="none" stroke="midnightblue" d="M784.458,-103.877C792.82,-104.861 801.288,-105.857 809.713,-106.849"/>
<polygon fill="midnightblue" stroke="midnightblue" points="784.66,-100.377 774.32,-102.685 783.842,-107.329 784.66,-100.377"/>
</g>
<!-- Node16 -->
<g id="node16" class="node"><title>Node16</title>
<g id="a_node16"><a xlink:href="../../d3/daf/classviewcontroller_1_1turtlegrid_1_1_turtle_window_view_controller.html#a0a65ca6c84f3f3e7bffa675df02c9166" target="_top" xlink:title="viewcontroller.turtlegrid.\lTurtleWindowViewController.pass\lSLogoCommand">
<polygon fill="white" stroke="black" points="846,-40.5 846,-81.5 1016,-81.5 1016,-40.5 846,-40.5"/>
<text text-anchor="start" x="854" y="-69.5" font-family="Helvetica,sans-Serif" font-size="10.00">viewcontroller.turtlegrid.</text>
<text text-anchor="start" x="854" y="-58.5" font-family="Helvetica,sans-Serif" font-size="10.00">TurtleWindowViewController.pass</text>
<text text-anchor="middle" x="931" y="-47.5" font-family="Helvetica,sans-Serif" font-size="10.00">SLogoCommand</text>
</a>
</g>
</g>
<!-- Node5&#45;&gt;Node16 -->
<g id="edge15" class="edge"><title>Node5&#45;&gt;Node16</title>
<path fill="none" stroke="midnightblue" d="M784.361,-78.134C804.941,-75.7128 826.164,-73.216 845.827,-70.9027"/>
<polygon fill="midnightblue" stroke="midnightblue" points="783.842,-74.6708 774.32,-79.3153 784.66,-81.6228 783.842,-74.6708"/>
</g>
<!-- Node7 -->
<g id="node7" class="node"><title>Node7</title>
<g id="a_node7"><a xlink:href="../../de/d8d/classviewcontroller_1_1commands_1_1_command_prompt_view_controller.html#afc397f419037ca0ec30bdc6e93667e86" target="_top" xlink:title="viewcontroller.commands.\lCommandPromptViewController.pass\lCommandToModel">
<polygon fill="white" stroke="black" points="1093.5,-157.5 1093.5,-198.5 1288.5,-198.5 1288.5,-157.5 1093.5,-157.5"/>
<text text-anchor="start" x="1101.5" y="-186.5" font-family="Helvetica,sans-Serif" font-size="10.00">viewcontroller.commands.</text>
<text text-anchor="start" x="1101.5" y="-175.5" font-family="Helvetica,sans-Serif" font-size="10.00">CommandPromptViewController.pass</text>
<text text-anchor="middle" x="1191" y="-164.5" font-family="Helvetica,sans-Serif" font-size="10.00">CommandToModel</text>
</a>
</g>
</g>
<!-- Node6&#45;&gt;Node7 -->
<g id="edge6" class="edge"><title>Node6&#45;&gt;Node7</title>
<path fill="none" stroke="midnightblue" d="M1035.1,-143.778C1055.55,-148.296 1076.9,-153.014 1096.99,-157.452"/>
<polygon fill="midnightblue" stroke="midnightblue" points="1035.66,-140.318 1025.14,-141.578 1034.15,-147.153 1035.66,-140.318"/>
</g>
<!-- Node11 -->
<g id="node11" class="node"><title>Node11</title>
<g id="a_node11"><a xlink:href="../../d4/dc8/classviewcontroller_1_1commands_1_1_user_defined_variables_view_controller.html#a14508efe9a049e27b8a7f4d0928b83cd" target="_top" xlink:title="viewcontroller.commands.\lUserDefinedVariablesViewController.key\lPressed">
<polygon fill="white" stroke="black" points="1088,-97.5 1088,-138.5 1294,-138.5 1294,-97.5 1088,-97.5"/>
<text text-anchor="start" x="1096" y="-126.5" font-family="Helvetica,sans-Serif" font-size="10.00">viewcontroller.commands.</text>
<text text-anchor="start" x="1096" y="-115.5" font-family="Helvetica,sans-Serif" font-size="10.00">UserDefinedVariablesViewController.key</text>
<text text-anchor="middle" x="1191" y="-104.5" font-family="Helvetica,sans-Serif" font-size="10.00">Pressed</text>
</a>
</g>
</g>
<!-- Node6&#45;&gt;Node11 -->
<g id="edge10" class="edge"><title>Node6&#45;&gt;Node11</title>
<path fill="none" stroke="midnightblue" d="M1062.58,-119.482C1071,-119.384 1079.42,-119.286 1087.68,-119.19"/>
<polygon fill="midnightblue" stroke="midnightblue" points="1062.27,-115.985 1052.31,-119.601 1062.35,-122.984 1062.27,-115.985"/>
</g>
<!-- Node8 -->
<g id="node8" class="node"><title>Node8</title>
<g id="a_node8"><a xlink:href="../../de/d8d/classviewcontroller_1_1commands_1_1_command_prompt_view_controller.html#a02e953379b9b8de02a4e15d94fe1c559" target="_top" xlink:title="viewcontroller.commands.\lCommandPromptViewController.set\lUpSubmitButton">
<polygon fill="white" stroke="black" points="1350,-157.5 1350,-198.5 1538,-198.5 1538,-157.5 1350,-157.5"/>
<text text-anchor="start" x="1358" y="-186.5" font-family="Helvetica,sans-Serif" font-size="10.00">viewcontroller.commands.</text>
<text text-anchor="start" x="1358" y="-175.5" font-family="Helvetica,sans-Serif" font-size="10.00">CommandPromptViewController.set</text>
<text text-anchor="middle" x="1444" y="-164.5" font-family="Helvetica,sans-Serif" font-size="10.00">UpSubmitButton</text>
</a>
</g>
</g>
<!-- Node7&#45;&gt;Node8 -->
<g id="edge7" class="edge"><title>Node7&#45;&gt;Node8</title>
<path fill="none" stroke="midnightblue" d="M1299.09,-178C1315.91,-178 1333.19,-178 1349.67,-178"/>
<polygon fill="midnightblue" stroke="midnightblue" points="1298.68,-174.5 1288.68,-178 1298.68,-181.5 1298.68,-174.5"/>
</g>
<!-- Node9 -->
<g id="node9" class="node"><title>Node9</title>
<g id="a_node9"><a xlink:href="../../de/d8d/classviewcontroller_1_1commands_1_1_command_prompt_view_controller.html#a6931239ae66e9bb6ebfa794b7dada7b5" target="_top" xlink:title="viewcontroller.commands.\lCommandPromptViewController.set\lUpCommandPromptHorizontalBox">
<polygon fill="white" stroke="black" points="1604,-157.5 1604,-198.5 1792,-198.5 1792,-157.5 1604,-157.5"/>
<text text-anchor="start" x="1612" y="-186.5" font-family="Helvetica,sans-Serif" font-size="10.00">viewcontroller.commands.</text>
<text text-anchor="start" x="1612" y="-175.5" font-family="Helvetica,sans-Serif" font-size="10.00">CommandPromptViewController.set</text>
<text text-anchor="middle" x="1698" y="-164.5" font-family="Helvetica,sans-Serif" font-size="10.00">UpCommandPromptHorizontalBox</text>
</a>
</g>
</g>
<!-- Node8&#45;&gt;Node9 -->
<g id="edge8" class="edge"><title>Node8&#45;&gt;Node9</title>
<path fill="none" stroke="midnightblue" d="M1548.26,-178C1566.67,-178 1585.74,-178 1603.84,-178"/>
<polygon fill="midnightblue" stroke="midnightblue" points="1548.12,-174.5 1538.12,-178 1548.12,-181.5 1548.12,-174.5"/>
</g>
<!-- Node10 -->
<g id="node10" class="node"><title>Node10</title>
<g id="a_node10"><a xlink:href="../../de/d8d/classviewcontroller_1_1commands_1_1_command_prompt_view_controller.html#a7e92ce4136e77a153ee6ef862f99052a" target="_top" xlink:title="viewcontroller.commands.\lCommandPromptViewController.\lCommandPromptViewController">
<polygon fill="white" stroke="black" points="1863.5,-157.5 1863.5,-198.5 2036.5,-198.5 2036.5,-157.5 1863.5,-157.5"/>
<text text-anchor="start" x="1871.5" y="-186.5" font-family="Helvetica,sans-Serif" font-size="10.00">viewcontroller.commands.</text>
<text text-anchor="start" x="1871.5" y="-175.5" font-family="Helvetica,sans-Serif" font-size="10.00">CommandPromptViewController.</text>
<text text-anchor="middle" x="1950" y="-164.5" font-family="Helvetica,sans-Serif" font-size="10.00">CommandPromptViewController</text>
</a>
</g>
</g>
<!-- Node9&#45;&gt;Node10 -->
<g id="edge9" class="edge"><title>Node9&#45;&gt;Node10</title>
<path fill="none" stroke="midnightblue" d="M1802.29,-178C1822.57,-178 1843.64,-178 1863.27,-178"/>
<polygon fill="midnightblue" stroke="midnightblue" points="1802.09,-174.5 1792.09,-178 1802.09,-181.5 1802.09,-174.5"/>
</g>
<!-- Node12 -->
<g id="node12" class="node"><title>Node12</title>
<g id="a_node12"><a xlink:href="../../d4/dc8/classviewcontroller_1_1commands_1_1_user_defined_variables_view_controller.html#acac3eb9c8c5f87e3ef36c56477a0cecc" target="_top" xlink:title="viewcontroller.commands.\lUserDefinedVariablesViewController.variable\lClicked">
<polygon fill="white" stroke="black" points="1330.5,-97.5 1330.5,-138.5 1557.5,-138.5 1557.5,-97.5 1330.5,-97.5"/>
<text text-anchor="start" x="1338.5" y="-126.5" font-family="Helvetica,sans-Serif" font-size="10.00">viewcontroller.commands.</text>
<text text-anchor="start" x="1338.5" y="-115.5" font-family="Helvetica,sans-Serif" font-size="10.00">UserDefinedVariablesViewController.variable</text>
<text text-anchor="middle" x="1444" y="-104.5" font-family="Helvetica,sans-Serif" font-size="10.00">Clicked</text>
</a>
</g>
</g>
<!-- Node11&#45;&gt;Node12 -->
<g id="edge11" class="edge"><title>Node11&#45;&gt;Node12</title>
<path fill="none" stroke="midnightblue" d="M1304.23,-118C1312.91,-118 1321.67,-118 1330.35,-118"/>
<polygon fill="midnightblue" stroke="midnightblue" points="1304.09,-114.5 1294.09,-118 1304.09,-121.5 1304.09,-114.5"/>
</g>
<!-- Node13 -->
<g id="node13" class="node"><title>Node13</title>
<g id="a_node13"><a xlink:href="../../d4/dc8/classviewcontroller_1_1commands_1_1_user_defined_variables_view_controller.html#a027a582fe22eab9a05fb0d723fbac644" target="_top" xlink:title="viewcontroller.commands.\lUserDefinedVariablesViewController.add\lVariableToList">
<polygon fill="white" stroke="black" points="1594,-97.5 1594,-138.5 1802,-138.5 1802,-97.5 1594,-97.5"/>
<text text-anchor="start" x="1602" y="-126.5" font-family="Helvetica,sans-Serif" font-size="10.00">viewcontroller.commands.</text>
<text text-anchor="start" x="1602" y="-115.5" font-family="Helvetica,sans-Serif" font-size="10.00">UserDefinedVariablesViewController.add</text>
<text text-anchor="middle" x="1698" y="-104.5" font-family="Helvetica,sans-Serif" font-size="10.00">VariableToList</text>
</a>
</g>
</g>
<!-- Node12&#45;&gt;Node13 -->
<g id="edge12" class="edge"><title>Node12&#45;&gt;Node13</title>
<path fill="none" stroke="midnightblue" d="M1567.93,-118C1576.64,-118 1585.37,-118 1593.95,-118"/>
<polygon fill="midnightblue" stroke="midnightblue" points="1567.73,-114.5 1557.73,-118 1567.73,-121.5 1567.73,-114.5"/>
</g>
<!-- Node14 -->
<g id="node14" class="node"><title>Node14</title>
<g id="a_node14"><a xlink:href="../../d4/dc8/classviewcontroller_1_1commands_1_1_user_defined_variables_view_controller.html#a12bbbabdbb3032751fe57b25e835eafc" target="_top" xlink:title="viewcontroller.commands.\lUserDefinedVariablesViewController.update\lVariableList">
<polygon fill="white" stroke="black" points="1838,-97.5 1838,-138.5 2062,-138.5 2062,-97.5 1838,-97.5"/>
<text text-anchor="start" x="1846" y="-126.5" font-family="Helvetica,sans-Serif" font-size="10.00">viewcontroller.commands.</text>
<text text-anchor="start" x="1846" y="-115.5" font-family="Helvetica,sans-Serif" font-size="10.00">UserDefinedVariablesViewController.update</text>
<text text-anchor="middle" x="1950" y="-104.5" font-family="Helvetica,sans-Serif" font-size="10.00">VariableList</text>
</a>
</g>
</g>
<!-- Node13&#45;&gt;Node14 -->
<g id="edge13" class="edge"><title>Node13&#45;&gt;Node14</title>
<path fill="none" stroke="midnightblue" d="M1812.33,-118C1820.73,-118 1829.21,-118 1837.6,-118"/>
<polygon fill="midnightblue" stroke="midnightblue" points="1812.13,-114.5 1802.13,-118 1812.13,-121.5 1812.13,-114.5"/>
</g>
<!-- Node15 -->
<g id="node15" class="node"><title>Node15</title>
<g id="a_node15"><a xlink:href="../../d4/dc8/classviewcontroller_1_1commands_1_1_user_defined_variables_view_controller.html#a1e84f755902379519ddf5438bc2d27ee" target="_top" xlink:title="viewcontroller.commands.\lUserDefinedVariablesViewController.update">
<polygon fill="white" stroke="black" points="2098,-103 2098,-133 2322,-133 2322,-103 2098,-103"/>
<text text-anchor="start" x="2106" y="-121" font-family="Helvetica,sans-Serif" font-size="10.00">viewcontroller.commands.</text>
<text text-anchor="middle" x="2210" y="-110" font-family="Helvetica,sans-Serif" font-size="10.00">UserDefinedVariablesViewController.update</text>
</a>
</g>
</g>
<!-- Node14&#45;&gt;Node15 -->
<g id="edge14" class="edge"><title>Node14&#45;&gt;Node15</title>
<path fill="none" stroke="midnightblue" d="M2072.5,-118C2080.9,-118 2089.33,-118 2097.67,-118"/>
<polygon fill="midnightblue" stroke="midnightblue" points="2072.29,-114.5 2062.29,-118 2072.29,-121.5 2072.29,-114.5"/>
</g>
<!-- Node17 -->
<g id="node17" class="node"><title>Node17</title>
<g id="a_node17"><a xlink:href="../../d5/dcc/classviewcontroller_1_1turtlegrid_1_1_grid_view_controller.html#a9b87e85ea14f3882c2fefa36ceb159cb" target="_top" xlink:title="viewcontroller.turtlegrid.\lGridViewController.forwardKeyPressed">
<polygon fill="white" stroke="black" points="1092.5,-49 1092.5,-79 1289.5,-79 1289.5,-49 1092.5,-49"/>
<text text-anchor="start" x="1100.5" y="-67" font-family="Helvetica,sans-Serif" font-size="10.00">viewcontroller.turtlegrid.</text>
<text text-anchor="middle" x="1191" y="-56" font-family="Helvetica,sans-Serif" font-size="10.00">GridViewController.forwardKeyPressed</text>
</a>
</g>
</g>
<!-- Node16&#45;&gt;Node17 -->
<g id="edge16" class="edge"><title>Node16&#45;&gt;Node17</title>
<path fill="none" stroke="midnightblue" d="M1026.2,-62.0953C1047.65,-62.3448 1070.49,-62.6103 1092.09,-62.8615"/>
<polygon fill="midnightblue" stroke="midnightblue" points="1026.16,-58.5948 1016.12,-61.9782 1026.08,-65.5943 1026.16,-58.5948"/>
</g>
<!-- Node19 -->
<g id="node19" class="node"><title>Node19</title>
<g id="a_node19"><a xlink:href="../../d5/dcc/classviewcontroller_1_1turtlegrid_1_1_grid_view_controller.html#a7562be13e46d86a1d5f9058462a6d189" target="_top" xlink:title="viewcontroller.turtlegrid.\lGridViewController.rightKeyPressed">
<polygon fill="white" stroke="black" points="1099.5,-0 1099.5,-30 1282.5,-30 1282.5,-0 1099.5,-0"/>
<text text-anchor="start" x="1107.5" y="-18" font-family="Helvetica,sans-Serif" font-size="10.00">viewcontroller.turtlegrid.</text>
<text text-anchor="middle" x="1191" y="-7" font-family="Helvetica,sans-Serif" font-size="10.00">GridViewController.rightKeyPressed</text>
</a>
</g>
</g>
<!-- Node16&#45;&gt;Node19 -->
<g id="edge18" class="edge"><title>Node16&#45;&gt;Node19</title>
<path fill="none" stroke="midnightblue" d="M1025.99,-44.2426C1052.02,-39.6018 1080.1,-34.5942 1105.55,-30.0568"/>
<polygon fill="midnightblue" stroke="midnightblue" points="1025.35,-40.8005 1016.12,-46.0015 1026.58,-47.6918 1025.35,-40.8005"/>
</g>
<!-- Node18 -->
<g id="node18" class="node"><title>Node18</title>
<g id="a_node18"><a xlink:href="../../d5/dcc/classviewcontroller_1_1turtlegrid_1_1_grid_view_controller.html#aacd51569d82b44633f519cc19ef5d937" target="_top" xlink:title="viewcontroller.turtlegrid.\lGridViewController.listenKeys">
<polygon fill="white" stroke="black" points="1367,-25 1367,-55 1521,-55 1521,-25 1367,-25"/>
<text text-anchor="start" x="1375" y="-43" font-family="Helvetica,sans-Serif" font-size="10.00">viewcontroller.turtlegrid.</text>
<text text-anchor="middle" x="1444" y="-32" font-family="Helvetica,sans-Serif" font-size="10.00">GridViewController.listenKeys</text>
</a>
</g>
</g>
<!-- Node17&#45;&gt;Node18 -->
<g id="edge17" class="edge"><title>Node17&#45;&gt;Node18</title>
<path fill="none" stroke="midnightblue" d="M1299.73,-53.6987C1322.33,-51.5377 1345.72,-49.3017 1366.88,-47.2787"/>
<polygon fill="midnightblue" stroke="midnightblue" points="1299.38,-50.2162 1289.76,-54.6523 1300.05,-57.1844 1299.38,-50.2162"/>
</g>
<!-- Node19&#45;&gt;Node18 -->
<g id="edge19" class="edge"><title>Node19&#45;&gt;Node18</title>
<path fill="none" stroke="midnightblue" d="M1292.76,-25.0362C1317.52,-27.5023 1343.62,-30.1015 1366.99,-32.4292"/>
<polygon fill="midnightblue" stroke="midnightblue" points="1292.91,-21.534 1282.62,-24.0256 1292.22,-28.4995 1292.91,-21.534"/>
</g>
</g>
</svg>
