<?xml version="1.0" encoding="UTF-8" standalone="no"?>
<!DOCTYPE svg PUBLIC "-//W3C//DTD SVG 1.1//EN"
 "http://www.w3.org/Graphics/SVG/1.1/DTD/svg11.dtd">
<!-- Generated by graphviz version 2.36.0 (20140111.2315)
 -->
<!-- Title: model.ModelUpdater.updateModel Pages: 1 -->
<svg width="564pt" height="38pt"
 viewBox="0.00 0.00 564.00 38.00" xmlns="http://www.w3.org/2000/svg" xmlns:xlink="http://www.w3.org/1999/xlink">
<g id="graph0" class="graph" transform="scale(1 1) rotate(0) translate(4 34)">
<title>model.ModelUpdater.updateModel</title>
<polygon fill="white" stroke="none" points="-4,4 -4,-34 560,-34 560,4 -4,4"/>
<!-- Node1 -->
<g id="node1" class="node"><title>Node1</title>
<polygon fill="#bfbfbf" stroke="black" points="0.5,-0 0.5,-30 153.5,-30 153.5,-0 0.5,-0"/>
<text text-anchor="start" x="8.5" y="-18" font-family="Helvetica,sans-Serif" font-size="10.00">model.ModelUpdater.update</text>
<text text-anchor="middle" x="77" y="-7" font-family="Helvetica,sans-Serif" font-size="10.00">Model</text>
</g>
<!-- Node2 -->
<g id="node2" class="node"><title>Node2</title>
<g id="a_node2"><a xlink:href="../../dd/d63/classmodel_1_1_model_updater.html#ad73b783b59545c68e1fb9123e44492d4" target="_top" xlink:title="model.ModelUpdater.create\lTurtleTransitionMapping">
<polygon fill="white" stroke="black" points="190,-0 190,-30 340,-30 340,-0 190,-0"/>
<text text-anchor="start" x="198" y="-18" font-family="Helvetica,sans-Serif" font-size="10.00">model.ModelUpdater.create</text>
<text text-anchor="middle" x="265" y="-7" font-family="Helvetica,sans-Serif" font-size="10.00">TurtleTransitionMapping</text>
</a>
</g>
</g>
<!-- Node1&#45;&gt;Node2 -->
<g id="edge1" class="edge"><title>Node1&#45;&gt;Node2</title>
<path fill="none" stroke="midnightblue" d="M153.653,-15C162.256,-15 171.063,-15 179.768,-15"/>
<polygon fill="midnightblue" stroke="midnightblue" points="179.92,-18.5001 189.92,-15 179.92,-11.5001 179.92,-18.5001"/>
</g>
<!-- Node3 -->
<g id="node3" class="node"><title>Node3</title>
<g id="a_node3"><a xlink:href="../../dd/d63/classmodel_1_1_model_updater.html#a44e91f3e31045ca0a067ffe9d270ab29" target="_top" xlink:title="model.ModelUpdater.findSelected\lTurtles">
<polygon fill="white" stroke="black" points="376.5,-0 376.5,-30 555.5,-30 555.5,-0 376.5,-0"/>
<text text-anchor="start" x="384.5" y="-18" font-family="Helvetica,sans-Serif" font-size="10.00">model.ModelUpdater.findSelected</text>
<text text-anchor="middle" x="466" y="-7" font-family="Helvetica,sans-Serif" font-size="10.00">Turtles</text>
</a>
</g>
</g>
<!-- Node2&#45;&gt;Node3 -->
<g id="edge2" class="edge"><title>Node2&#45;&gt;Node3</title>
<path fill="none" stroke="midnightblue" d="M340.1,-15C348.599,-15 357.362,-15 366.119,-15"/>
<polygon fill="midnightblue" stroke="midnightblue" points="366.38,-18.5001 376.38,-15 366.38,-11.5001 366.38,-18.5001"/>
</g>
</g>
</svg>
