<?xml version="1.0" encoding="UTF-8" standalone="no"?>
<!DOCTYPE svg PUBLIC "-//W3C//DTD SVG 1.1//EN"
 "http://www.w3.org/Graphics/SVG/1.1/DTD/svg11.dtd">
<!-- Generated by graphviz version 2.36.0 (20140111.2315)
 -->
<!-- Title: viewcontroller.MainViewController Pages: 1 -->
<svg width="313pt" height="96pt"
 viewBox="0.00 0.00 313.00 96.00" xmlns="http://www.w3.org/2000/svg" xmlns:xlink="http://www.w3.org/1999/xlink">
<g id="graph0" class="graph" transform="scale(1 1) rotate(0) translate(4 92)">
<title>viewcontroller.MainViewController</title>
<polygon fill="white" stroke="none" points="-4,4 -4,-92 309,-92 309,4 -4,4"/>
<!-- Node1 -->
<g id="node1" class="node"><title>Node1</title>
<polygon fill="#bfbfbf" stroke="black" points="69.5,-0.5 69.5,-19.5 244.5,-19.5 244.5,-0.5 69.5,-0.5"/>
<text text-anchor="middle" x="157" y="-7.5" font-family="Helvetica,sans-Serif" font-size="10.00">viewcontroller.MainViewController</text>
</g>
<!-- Node2 -->
<g id="node2" class="node"><title>Node2</title>
<g id="a_node2"><a xlink:href="../../d4/deb/interfaceviewcontroller_1_1_view_controller.html" target="_top" xlink:title="viewcontroller.ViewController">
<polygon fill="white" stroke="black" points="0,-62.5 0,-81.5 152,-81.5 152,-62.5 0,-62.5"/>
<text text-anchor="middle" x="76" y="-69.5" font-family="Helvetica,sans-Serif" font-size="10.00">viewcontroller.ViewController</text>
</a>
</g>
</g>
<!-- Node2&#45;&gt;Node1 -->
<g id="edge1" class="edge"><title>Node2&#45;&gt;Node1</title>
<path fill="none" stroke="midnightblue" d="M96.0202,-56.1702C111.558,-44.6608 132.553,-29.1086 145.416,-19.5806"/>
<polygon fill="midnightblue" stroke="midnightblue" points="93.5576,-53.6387 87.6053,-62.4035 97.7242,-59.2636 93.5576,-53.6387"/>
</g>
<!-- Node3 -->
<g id="node3" class="node"><title>Node3</title>
<g id="a_node3"><a xlink:href="../../d1/d41/interfaceviewcontroller_1_1_main_model_observer.html" target="_top" xlink:title="viewcontroller.MainModel\lObserver">
<polygon fill="white" stroke="black" points="170.5,-57 170.5,-87 305.5,-87 305.5,-57 170.5,-57"/>
<text text-anchor="start" x="178.5" y="-75" font-family="Helvetica,sans-Serif" font-size="10.00">viewcontroller.MainModel</text>
<text text-anchor="middle" x="238" y="-64" font-family="Helvetica,sans-Serif" font-size="10.00">Observer</text>
</a>
</g>
</g>
<!-- Node3&#45;&gt;Node1 -->
<g id="edge2" class="edge"><title>Node3&#45;&gt;Node1</title>
<path fill="none" stroke="midnightblue" d="M210.75,-50.8148C196.481,-40.245 179.746,-27.8485 168.786,-19.7305"/>
<polygon fill="midnightblue" stroke="midnightblue" points="208.685,-53.641 218.804,-56.7808 212.852,-48.0161 208.685,-53.641"/>
</g>
</g>
</svg>
