<?xml version="1.0" encoding="UTF-8" standalone="no"?>
<!DOCTYPE svg PUBLIC "-//W3C//DTD SVG 1.1//EN"
 "http://www.w3.org/Graphics/SVG/1.1/DTD/svg11.dtd">
<!-- Generated by graphviz version 2.36.0 (20140111.2315)
 -->
<!-- Title: turtle.TurtleViewController Pages: 1 -->
<svg width="439pt" height="164pt"
 viewBox="0.00 0.00 439.00 164.00" xmlns="http://www.w3.org/2000/svg" xmlns:xlink="http://www.w3.org/1999/xlink">
<g id="graph0" class="graph" transform="scale(1 1) rotate(0) translate(4 160)">
<title>turtle.TurtleViewController</title>
<polygon fill="white" stroke="none" points="-4,4 -4,-160 435,-160 435,4 -4,4"/>
<!-- Node1 -->
<g id="node1" class="node"><title>Node1</title>
<polygon fill="#bfbfbf" stroke="black" points="155.5,-0.5 155.5,-19.5 294.5,-19.5 294.5,-0.5 155.5,-0.5"/>
<text text-anchor="middle" x="225" y="-7.5" font-family="Helvetica,sans-Serif" font-size="10.00">turtle.TurtleViewController</text>
</g>
<!-- Node2 -->
<g id="node2" class="node"><title>Node2</title>
<g id="a_node2"><a xlink:href="../../d4/deb/interfaceviewcontroller_1_1_view_controller.html" target="_top" xlink:title="viewcontroller.ViewController">
<polygon fill="white" stroke="black" points="0,-68.5 0,-87.5 152,-87.5 152,-68.5 0,-68.5"/>
<text text-anchor="middle" x="76" y="-75.5" font-family="Helvetica,sans-Serif" font-size="10.00">viewcontroller.ViewController</text>
</a>
</g>
</g>
<!-- Node2&#45;&gt;Node1 -->
<g id="edge1" class="edge"><title>Node2&#45;&gt;Node1</title>
<path fill="none" stroke="midnightblue" d="M104.883,-64.2063C134.533,-51.0724 179.858,-30.9957 205.516,-19.6305"/>
<polygon fill="midnightblue" stroke="midnightblue" points="103.205,-61.1215 95.4791,-68.3717 106.04,-67.5217 103.205,-61.1215"/>
</g>
<!-- Node3 -->
<g id="node3" class="node"><title>Node3</title>
<g id="a_node3"><a xlink:href="../../d8/d9e/classturtle_1_1_turtle_image.html" target="_top" xlink:title="turtle.TurtleImage">
<polygon fill="white" stroke="black" points="254.5,-68.5 254.5,-87.5 355.5,-87.5 355.5,-68.5 254.5,-68.5"/>
<text text-anchor="middle" x="305" y="-75.5" font-family="Helvetica,sans-Serif" font-size="10.00">turtle.TurtleImage</text>
</a>
</g>
</g>
<!-- Node3&#45;&gt;Node1 -->
<g id="edge2" class="edge"><title>Node3&#45;&gt;Node1</title>
<path fill="none" stroke="#9a32cd" stroke-dasharray="5,2" d="M286.496,-61.7343C270.649,-48.6606 248.399,-30.3039 235.461,-19.6305"/>
<polygon fill="#9a32cd" stroke="#9a32cd" points="284.6,-64.7076 294.541,-68.3717 289.055,-59.308 284.6,-64.7076"/>
<text text-anchor="middle" x="310" y="-41.5" font-family="Helvetica,sans-Serif" font-size="10.00"> myTurtleImage</text>
</g>
<!-- Node4 -->
<g id="node4" class="node"><title>Node4</title>
<polygon fill="white" stroke="#bfbfbf" points="165,-136.5 165,-155.5 211,-155.5 211,-136.5 165,-136.5"/>
<text text-anchor="middle" x="188" y="-143.5" font-family="Helvetica,sans-Serif" font-size="10.00">Group</text>
</g>
<!-- Node4&#45;&gt;Node1 -->
<g id="edge7" class="edge"><title>Node4&#45;&gt;Node1</title>
<path fill="none" stroke="#9a32cd" stroke-dasharray="5,2" d="M188.422,-126.185C189.195,-110.372 191.308,-87.3234 197,-68 202.359,-49.8093 213.156,-30.3316 219.665,-19.5079"/>
<polygon fill="#9a32cd" stroke="#9a32cd" points="184.921,-126.145 188.064,-136.263 191.917,-126.394 184.921,-126.145"/>
<text text-anchor="middle" x="221" y="-75.5" font-family="Helvetica,sans-Serif" font-size="10.00"> myGroup</text>
</g>
<!-- Node4&#45;&gt;Node3 -->
<g id="edge3" class="edge"><title>Node4&#45;&gt;Node3</title>
<path fill="none" stroke="midnightblue" d="M207.158,-129.937C217.445,-122.235 230.542,-113.03 243,-106 255.576,-98.9031 270.38,-92.393 282.368,-87.544"/>
<polygon fill="midnightblue" stroke="midnightblue" points="204.749,-127.373 198.928,-136.226 208.999,-132.935 204.749,-127.373"/>
</g>
<!-- Node5 -->
<g id="node5" class="node"><title>Node5</title>
<polygon fill="white" stroke="#bfbfbf" points="352,-136.5 352,-155.5 420,-155.5 420,-136.5 352,-136.5"/>
<text text-anchor="middle" x="386" y="-143.5" font-family="Helvetica,sans-Serif" font-size="10.00">Dimension</text>
</g>
<!-- Node5&#45;&gt;Node1 -->
<g id="edge6" class="edge"><title>Node5&#45;&gt;Node1</title>
<path fill="none" stroke="#9a32cd" stroke-dasharray="5,2" d="M395.5,-126.905C397.807,-120.306 399.083,-112.798 397,-106 386.309,-71.1138 381.247,-58.4083 351,-38 334.402,-26.801 314.009,-20.1324 294.504,-16.1953"/>
<polygon fill="#9a32cd" stroke="#9a32cd" points="392.192,-125.731 391.359,-136.293 398.597,-128.556 392.192,-125.731"/>
<text text-anchor="middle" x="411.5" y="-75.5" font-family="Helvetica,sans-Serif" font-size="10.00"> mySize</text>
</g>
<!-- Node5&#45;&gt;Node3 -->
<g id="edge4" class="edge"><title>Node5&#45;&gt;Node3</title>
<path fill="none" stroke="#9a32cd" stroke-dasharray="5,2" d="M367.265,-129.734C351.22,-116.661 328.691,-98.3039 315.592,-87.6305"/>
<polygon fill="#9a32cd" stroke="#9a32cd" points="365.447,-132.768 375.411,-136.372 369.869,-127.342 365.447,-132.768"/>
<text text-anchor="middle" x="373" y="-109.5" font-family="Helvetica,sans-Serif" font-size="10.00"> ourSize</text>
</g>
<!-- Node6 -->
<g id="node6" class="node"><title>Node6</title>
<polygon fill="white" stroke="#bfbfbf" points="229.5,-136.5 229.5,-155.5 270.5,-155.5 270.5,-136.5 229.5,-136.5"/>
<text text-anchor="middle" x="250" y="-143.5" font-family="Helvetica,sans-Serif" font-size="10.00">Color</text>
</g>
<!-- Node6&#45;&gt;Node3 -->
<g id="edge5" class="edge"><title>Node6&#45;&gt;Node3</title>
<path fill="none" stroke="#9a32cd" stroke-dasharray="5,2" d="M246.62,-125.814C246.395,-119.092 247.321,-111.785 251,-106 256.399,-97.509 265.343,-91.5894 274.413,-87.5066"/>
<polygon fill="#9a32cd" stroke="#9a32cd" points="243.194,-126.66 247.803,-136.2 250.149,-125.868 243.194,-126.66"/>
<text text-anchor="middle" x="294" y="-109.5" font-family="Helvetica,sans-Serif" font-size="10.00"> ourSelectedColor</text>
</g>
</g>
</svg>
