<?xml version="1.0" encoding="UTF-8" standalone="no"?>
<!DOCTYPE svg PUBLIC "-//W3C//DTD SVG 1.1//EN"
 "http://www.w3.org/Graphics/SVG/1.1/DTD/svg11.dtd">
<!-- Generated by graphviz version 2.36.0 (20140111.2315)
 -->
<!-- Title: viewcontroller.turtlegrid.SLogoColorPicker.getColor Pages: 1 -->
<svg width="748pt" height="110pt"
 viewBox="0.00 0.00 748.00 110.00" xmlns="http://www.w3.org/2000/svg" xmlns:xlink="http://www.w3.org/1999/xlink">
<g id="graph0" class="graph" transform="scale(1 1) rotate(0) translate(4 106)">
<title>viewcontroller.turtlegrid.SLogoColorPicker.getColor</title>
<polygon fill="white" stroke="none" points="-4,4 -4,-106 744,-106 744,4 -4,4"/>
<!-- Node1 -->
<g id="node1" class="node"><title>Node1</title>
<polygon fill="#bfbfbf" stroke="black" points="0.5,-37 0.5,-67 143.5,-67 143.5,-37 0.5,-37"/>
<text text-anchor="start" x="8.5" y="-55" font-family="Helvetica,sans-Serif" font-size="10.00">viewcontroller.turtlegrid.</text>
<text text-anchor="middle" x="72" y="-44" font-family="Helvetica,sans-Serif" font-size="10.00">SLogoColorPicker.getColor</text>
</g>
<!-- Node2 -->
<g id="node2" class="node"><title>Node2</title>
<g id="a_node2"><a xlink:href="../../db/d5b/classviewcontroller_1_1turtlegrid_1_1_grid_button_bar.html#abcf833dea3b893c8fda4e482d8e082ff" target="_top" xlink:title="viewcontroller.turtlegrid.\lGridButtonBar.getGridColor">
<polygon fill="white" stroke="black" points="180.5,-63 180.5,-93 327.5,-93 327.5,-63 180.5,-63"/>
<text text-anchor="start" x="188.5" y="-81" font-family="Helvetica,sans-Serif" font-size="10.00">viewcontroller.turtlegrid.</text>
<text text-anchor="middle" x="254" y="-70" font-family="Helvetica,sans-Serif" font-size="10.00">GridButtonBar.getGridColor</text>
</a>
</g>
</g>
<!-- Node1&#45;&gt;Node2 -->
<g id="edge1" class="edge"><title>Node1&#45;&gt;Node2</title>
<path fill="none" stroke="midnightblue" d="M153.571,-63.638C162.444,-64.9197 171.441,-66.2192 180.211,-67.486"/>
<polygon fill="midnightblue" stroke="midnightblue" points="154.022,-60.1669 143.624,-62.2013 153.021,-67.095 154.022,-60.1669"/>
</g>
<!-- Node5 -->
<g id="node5" class="node"><title>Node5</title>
<g id="a_node5"><a xlink:href="../../db/d5b/classviewcontroller_1_1turtlegrid_1_1_grid_button_bar.html#aac1086f8c3fdafa48746685429e645c0" target="_top" xlink:title="viewcontroller.turtlegrid.\lGridButtonBar.getPenColor">
<polygon fill="white" stroke="black" points="181,-11 181,-41 327,-41 327,-11 181,-11"/>
<text text-anchor="start" x="189" y="-29" font-family="Helvetica,sans-Serif" font-size="10.00">viewcontroller.turtlegrid.</text>
<text text-anchor="middle" x="254" y="-18" font-family="Helvetica,sans-Serif" font-size="10.00">GridButtonBar.getPenColor</text>
</a>
</g>
</g>
<!-- Node1&#45;&gt;Node5 -->
<g id="edge4" class="edge"><title>Node1&#45;&gt;Node5</title>
<path fill="none" stroke="midnightblue" d="M153.735,-40.3383C162.755,-39.0354 171.901,-37.7143 180.804,-36.4283"/>
<polygon fill="midnightblue" stroke="midnightblue" points="153.021,-36.905 143.624,-41.7987 154.022,-43.8331 153.021,-36.905"/>
</g>
<!-- Node3 -->
<g id="node3" class="node"><title>Node3</title>
<g id="a_node3"><a xlink:href="../../d3/daf/classviewcontroller_1_1turtlegrid_1_1_turtle_window_view_controller.html#ad20e08a23f6390736b1de5252cd2a514" target="_top" xlink:title="viewcontroller.turtlegrid.\lTurtleWindowViewController.grid\lColorChanged">
<polygon fill="white" stroke="black" points="364,-60.5 364,-101.5 530,-101.5 530,-60.5 364,-60.5"/>
<text text-anchor="start" x="372" y="-89.5" font-family="Helvetica,sans-Serif" font-size="10.00">viewcontroller.turtlegrid.</text>
<text text-anchor="start" x="372" y="-78.5" font-family="Helvetica,sans-Serif" font-size="10.00">TurtleWindowViewController.grid</text>
<text text-anchor="middle" x="447" y="-67.5" font-family="Helvetica,sans-Serif" font-size="10.00">ColorChanged</text>
</a>
</g>
</g>
<!-- Node2&#45;&gt;Node3 -->
<g id="edge2" class="edge"><title>Node2&#45;&gt;Node3</title>
<path fill="none" stroke="midnightblue" d="M337.816,-79.3008C346.457,-79.4365 355.239,-79.5744 363.873,-79.71"/>
<polygon fill="midnightblue" stroke="midnightblue" points="337.808,-75.8003 327.754,-79.1427 337.698,-82.7994 337.808,-75.8003"/>
</g>
<!-- Node4 -->
<g id="node4" class="node"><title>Node4</title>
<g id="a_node4"><a xlink:href="../../d3/daf/classviewcontroller_1_1turtlegrid_1_1_turtle_window_view_controller.html#a732df23c6854ab63ebaac21d105c7072" target="_top" xlink:title="viewcontroller.turtlegrid.\lTurtleWindowViewController.Turtle\lWindowViewController">
<polygon fill="white" stroke="black" points="566.5,-30.5 566.5,-71.5 739.5,-71.5 739.5,-30.5 566.5,-30.5"/>
<text text-anchor="start" x="574.5" y="-59.5" font-family="Helvetica,sans-Serif" font-size="10.00">viewcontroller.turtlegrid.</text>
<text text-anchor="start" x="574.5" y="-48.5" font-family="Helvetica,sans-Serif" font-size="10.00">TurtleWindowViewController.Turtle</text>
<text text-anchor="middle" x="653" y="-37.5" font-family="Helvetica,sans-Serif" font-size="10.00">WindowViewController</text>
</a>
</g>
</g>
<!-- Node3&#45;&gt;Node4 -->
<g id="edge3" class="edge"><title>Node3&#45;&gt;Node4</title>
<path fill="none" stroke="midnightblue" d="M540.256,-67.4329C548.965,-66.1522 557.769,-64.8575 566.412,-63.5865"/>
<polygon fill="midnightblue" stroke="midnightblue" points="539.477,-64.0097 530.093,-68.9275 540.496,-70.9353 539.477,-64.0097"/>
</g>
<!-- Node6 -->
<g id="node6" class="node"><title>Node6</title>
<g id="a_node6"><a xlink:href="../../d3/daf/classviewcontroller_1_1turtlegrid_1_1_turtle_window_view_controller.html#a1b7bacbdd2f48f2b80c1ce40380b7602" target="_top" xlink:title="viewcontroller.turtlegrid.\lTurtleWindowViewController.pen\lColorChanged">
<polygon fill="white" stroke="black" points="364,-0.5 364,-41.5 530,-41.5 530,-0.5 364,-0.5"/>
<text text-anchor="start" x="372" y="-29.5" font-family="Helvetica,sans-Serif" font-size="10.00">viewcontroller.turtlegrid.</text>
<text text-anchor="start" x="372" y="-18.5" font-family="Helvetica,sans-Serif" font-size="10.00">TurtleWindowViewController.pen</text>
<text text-anchor="middle" x="447" y="-7.5" font-family="Helvetica,sans-Serif" font-size="10.00">ColorChanged</text>
</a>
</g>
</g>
<!-- Node5&#45;&gt;Node6 -->
<g id="edge5" class="edge"><title>Node5&#45;&gt;Node6</title>
<path fill="none" stroke="midnightblue" d="M337.386,-23.8433C346.129,-23.6144 355.021,-23.3816 363.763,-23.1528"/>
<polygon fill="midnightblue" stroke="midnightblue" points="337.114,-20.3491 327.209,-24.1097 337.297,-27.3467 337.114,-20.3491"/>
</g>
<!-- Node6&#45;&gt;Node4 -->
<g id="edge6" class="edge"><title>Node6&#45;&gt;Node4</title>
<path fill="none" stroke="midnightblue" d="M540.256,-34.5671C548.965,-35.8478 557.769,-37.1425 566.412,-38.4135"/>
<polygon fill="midnightblue" stroke="midnightblue" points="540.496,-31.0647 530.093,-33.0725 539.477,-37.9903 540.496,-31.0647"/>
</g>
</g>
</svg>
