<?xml version="1.0" encoding="UTF-8" standalone="no"?>
<!DOCTYPE svg PUBLIC "-//W3C//DTD SVG 1.1//EN"
 "http://www.w3.org/Graphics/SVG/1.1/DTD/svg11.dtd">
<!-- Generated by graphviz version 2.36.0 (20140111.2315)
 -->
<!-- Title: viewcontroller.turtlegrid.SLogoColorPicker.createColorPicker Pages: 1 -->
<svg width="416pt" height="38pt"
 viewBox="0.00 0.00 416.00 38.00" xmlns="http://www.w3.org/2000/svg" xmlns:xlink="http://www.w3.org/1999/xlink">
<g id="graph0" class="graph" transform="scale(1 1) rotate(0) translate(4 34)">
<title>viewcontroller.turtlegrid.SLogoColorPicker.createColorPicker</title>
<polygon fill="white" stroke="none" points="-4,4 -4,-34 412,-34 412,4 -4,4"/>
<!-- Node1 -->
<g id="node1" class="node"><title>Node1</title>
<polygon fill="#bfbfbf" stroke="black" points="0,-0 0,-30 186,-30 186,-0 0,-0"/>
<text text-anchor="start" x="8" y="-18" font-family="Helvetica,sans-Serif" font-size="10.00">viewcontroller.turtlegrid.</text>
<text text-anchor="middle" x="93" y="-7" font-family="Helvetica,sans-Serif" font-size="10.00">SLogoColorPicker.createColorPicker</text>
</g>
<!-- Node2 -->
<g id="node2" class="node"><title>Node2</title>
<g id="a_node2"><a xlink:href="../../db/dbf/classviewcontroller_1_1turtlegrid_1_1_s_logo_color_picker.html#a8d9b14306737c53021d4435a49d009dc" target="_top" xlink:title="viewcontroller.turtlegrid.\lSLogoColorPicker.SLogoColorPicker">
<polygon fill="white" stroke="black" points="222.5,-0 222.5,-30 407.5,-30 407.5,-0 222.5,-0"/>
<text text-anchor="start" x="230.5" y="-18" font-family="Helvetica,sans-Serif" font-size="10.00">viewcontroller.turtlegrid.</text>
<text text-anchor="middle" x="315" y="-7" font-family="Helvetica,sans-Serif" font-size="10.00">SLogoColorPicker.SLogoColorPicker</text>
</a>
</g>
</g>
<!-- Node1&#45;&gt;Node2 -->
<g id="edge1" class="edge"><title>Node1&#45;&gt;Node2</title>
<path fill="none" stroke="midnightblue" d="M196.215,-15C204.932,-15 213.715,-15 222.343,-15"/>
<polygon fill="midnightblue" stroke="midnightblue" points="196.025,-11.5001 186.025,-15 196.025,-18.5001 196.025,-11.5001"/>
</g>
</g>
</svg>
