<?xml version="1.0" encoding="UTF-8" standalone="no"?>
<!DOCTYPE svg PUBLIC "-//W3C//DTD SVG 1.1//EN"
 "http://www.w3.org/Graphics/SVG/1.1/DTD/svg11.dtd">
<!-- Generated by graphviz version 2.36.0 (20140111.2315)
 -->
<!-- Title: viewcontroller.turtlegrid.SLogoColorPicker.SLogoColorPicker Pages: 1 -->
<svg width="416pt" height="87pt"
 viewBox="0.00 0.00 416.00 87.00" xmlns="http://www.w3.org/2000/svg" xmlns:xlink="http://www.w3.org/1999/xlink">
<g id="graph0" class="graph" transform="scale(1 1) rotate(0) translate(4 83)">
<title>viewcontroller.turtlegrid.SLogoColorPicker.SLogoColorPicker</title>
<polygon fill="white" stroke="none" points="-4,4 -4,-83 412,-83 412,4 -4,4"/>
<!-- Node1 -->
<g id="node1" class="node"><title>Node1</title>
<polygon fill="#bfbfbf" stroke="black" points="0.5,-24 0.5,-54 185.5,-54 185.5,-24 0.5,-24"/>
<text text-anchor="start" x="8.5" y="-42" font-family="Helvetica,sans-Serif" font-size="10.00">viewcontroller.turtlegrid.</text>
<text text-anchor="middle" x="93" y="-31" font-family="Helvetica,sans-Serif" font-size="10.00">SLogoColorPicker.SLogoColorPicker</text>
</g>
<!-- Node2 -->
<g id="node2" class="node"><title>Node2</title>
<g id="a_node2"><a xlink:href="../../d7/d11/classviewcontroller_1_1turtlegrid_1_1_s_logo_labeled_container.html#a1876e878d5f309f6c588d39dbed53fca" target="_top" xlink:title="viewcontroller.turtlegrid.\lSLogoLabeledContainer.addNode">
<polygon fill="white" stroke="black" points="227,-49 227,-79 403,-79 403,-49 227,-49"/>
<text text-anchor="start" x="235" y="-67" font-family="Helvetica,sans-Serif" font-size="10.00">viewcontroller.turtlegrid.</text>
<text text-anchor="middle" x="315" y="-56" font-family="Helvetica,sans-Serif" font-size="10.00">SLogoLabeledContainer.addNode</text>
</a>
</g>
</g>
<!-- Node1&#45;&gt;Node2 -->
<g id="edge1" class="edge"><title>Node1&#45;&gt;Node2</title>
<path fill="none" stroke="midnightblue" d="M185.707,-49.4212C195.876,-50.5768 206.259,-51.7567 216.497,-52.9201"/>
<polygon fill="midnightblue" stroke="midnightblue" points="216.341,-56.4248 226.672,-54.0763 217.131,-49.4695 216.341,-56.4248"/>
</g>
<!-- Node3 -->
<g id="node3" class="node"><title>Node3</title>
<g id="a_node3"><a xlink:href="../../db/dbf/classviewcontroller_1_1turtlegrid_1_1_s_logo_color_picker.html#a0ac09599bbde8a80ef4d0719cfa999c7" target="_top" xlink:title="viewcontroller.turtlegrid.\lSLogoColorPicker.createColorPicker">
<polygon fill="white" stroke="black" points="222,-0 222,-30 408,-30 408,-0 222,-0"/>
<text text-anchor="start" x="230" y="-18" font-family="Helvetica,sans-Serif" font-size="10.00">viewcontroller.turtlegrid.</text>
<text text-anchor="middle" x="315" y="-7" font-family="Helvetica,sans-Serif" font-size="10.00">SLogoColorPicker.createColorPicker</text>
</a>
</g>
</g>
<!-- Node1&#45;&gt;Node3 -->
<g id="edge2" class="edge"><title>Node1&#45;&gt;Node3</title>
<path fill="none" stroke="midnightblue" d="M185.707,-28.9956C194.266,-28.0619 202.977,-27.1116 211.624,-26.1683"/>
<polygon fill="midnightblue" stroke="midnightblue" points="212.173,-29.6293 221.734,-25.0654 211.414,-22.6706 212.173,-29.6293"/>
</g>
</g>
</svg>
