<?xml version="1.0" encoding="UTF-8" standalone="no"?>
<!DOCTYPE svg PUBLIC "-//W3C//DTD SVG 1.1//EN"
 "http://www.w3.org/Graphics/SVG/1.1/DTD/svg11.dtd">
<!-- Generated by graphviz version 2.36.0 (20140111.2315)
 -->
<!-- Title: viewcontroller.SLogoMenuBar.initializeFileMenu Pages: 1 -->
<!--zoomable 539 -->
<svg id="main" version="1.1" xmlns="http://www.w3.org/2000/svg" xmlns:xlink="http://www.w3.org/1999/xlink" xml:space="preserve" onload="init(evt)">
<style type="text/css"><![CDATA[
.edge:hover path { stroke: red; }
.edge:hover polygon { stroke: red; fill: red; }
]]></style>
<script type="text/javascript"><![CDATA[
var edges = document.getElementsByTagName('g');
if (edges && edges.length) {
  for (var i=0;i<edges.length;i++) {
    if (edges[i].id.substr(0,4)=='edge') {
      edges[i].setAttribute('class','edge');
    }
  }
}
]]></script>
        <defs>
                <circle id="rim" cx="0" cy="0" r="7"/>
                <circle id="rim2" cx="0" cy="0" r="3.5"/>
                <g id="zoomPlus">
                        <use xlink:href="#rim" fill="#404040">
                                <set attributeName="fill" to="#808080" begin="zoomplus.mouseover" end="zoomplus.mouseout"/>
                        </use>
                        <path d="M-4,0h8M0,-4v8" fill="none" stroke="white" stroke-width="1.5" pointer-events="none"/>
                </g>
                <g id="zoomMin">
                        <use xlink:href="#rim" fill="#404040">
                                <set attributeName="fill" to="#808080" begin="zoomminus.mouseover" end="zoomminus.mouseout"/>
                        </use>
                        <path d="M-4,0h8" fill="none" stroke="white" stroke-width="1.5" pointer-events="none"/>
                </g>
                <g id="dirArrow">
                        <path fill="none" stroke="white" stroke-width="1.5" d="M0,-3.0v7 M-2.5,-0.5L0,-3.0L2.5,-0.5"/>
                </g>
               <g id="resetDef">
                       <use xlink:href="#rim2" fill="#404040">
                               <set attributeName="fill" to="#808080" begin="reset.mouseover" end="reset.mouseout"/>
                       </use>
               </g>
        </defs>

<script type="text/javascript">
var viewWidth = 1506;
var viewHeight = 539;
var sectionId = 'dynsection-6';
</script>
<script xlink:href="../../svgpan.js"/>
<svg id="graph" class="graph">
<g id="viewport">
<title>viewcontroller.SLogoMenuBar.initializeFileMenu</title>
<polygon fill="white" stroke="none" points="-4,4 -4,-535.198 1502,-535.198 1502,4 -4,4"/>
<!-- Node1 -->
<g id="node1" class="node"><title>Node1</title>
<polygon fill="#bfbfbf" stroke="black" points="0,-225 0,-255 140,-255 140,-225 0,-225"/>
<text text-anchor="start" x="8" y="-243" font-family="Helvetica,sans-Serif" font-size="10.00">viewcontroller.SLogoMenu</text>
<text text-anchor="middle" x="70" y="-232" font-family="Helvetica,sans-Serif" font-size="10.00">Bar.initializeFileMenu</text>
</g>
<!-- Node2 -->
<g id="node2" class="node"><title>Node2</title>
<g id="a_node2"><a xlink:href="../../da/d4e/classviewcontroller_1_1_view.html#a64b659e383de6c070b48a80ddfa72668" target="_top" xlink:title="viewcontroller.View.addNew\lWorkspace">
<polygon fill="white" stroke="black" points="180,-380 180,-410 326,-410 326,-380 180,-380"/>
<text text-anchor="start" x="188" y="-398" font-family="Helvetica,sans-Serif" font-size="10.00">viewcontroller.View.addNew</text>
<text text-anchor="middle" x="253" y="-387" font-family="Helvetica,sans-Serif" font-size="10.00">Workspace</text>
</a>
</g>
</g>
<!-- Node1&#45;&gt;Node2 -->
<g id="edge1" class="edge"><title>Node1&#45;&gt;Node2</title>
<path fill="none" stroke="midnightblue" d="M88.8303,-255.293C109.716,-273.205 145.361,-303.767 176,-330 192.803,-344.387 211.705,-360.553 226.455,-373.164"/>
<polygon fill="midnightblue" stroke="midnightblue" points="224.307,-375.933 234.182,-379.771 228.856,-370.612 224.307,-375.933"/>
</g>
<!-- Node4 -->
<g id="node4" class="node"><title>Node4</title>
<g id="a_node4"><a xlink:href="../../d9/dd7/classviewcontroller_1_1_g_u_i_reference_library.html#ac147f33c0bfa0252d247d7c0174ff688" target="_top" xlink:title="viewcontroller.GUIReference\lLibrary.getStringTranslation">
<polygon fill="white" stroke="black" points="910.5,-481 910.5,-511 1059.5,-511 1059.5,-481 910.5,-481"/>
<text text-anchor="start" x="918.5" y="-499" font-family="Helvetica,sans-Serif" font-size="10.00">viewcontroller.GUIReference</text>
<text text-anchor="middle" x="985" y="-488" font-family="Helvetica,sans-Serif" font-size="10.00">Library.getStringTranslation</text>
</a>
</g>
</g>
<!-- Node1&#45;&gt;Node4 -->
<g id="edge7" class="edge"><title>Node1&#45;&gt;Node4</title>
<path fill="none" stroke="midnightblue" d="M74.7808,-255.046C84.5894,-290.603 114.485,-379.774 176,-419 404.016,-564.397 744.246,-535.072 900.307,-511.276"/>
<polygon fill="midnightblue" stroke="midnightblue" points="900.974,-514.715 910.317,-509.719 899.897,-507.798 900.974,-514.715"/>
</g>
<!-- Node7 -->
<g id="node7" class="node"><title>Node7</title>
<g id="a_node7"><a xlink:href="../../df/df9/classviewcontroller_1_1_s_logo_menu_bar.html#a9528a27d87aa916a568a0aec28ddf8bd" target="_top" xlink:title="viewcontroller.SLogoMenu\lBar.createMenuItem">
<polygon fill="white" stroke="black" points="183,-88 183,-118 323,-118 323,-88 183,-88"/>
<text text-anchor="start" x="191" y="-106" font-family="Helvetica,sans-Serif" font-size="10.00">viewcontroller.SLogoMenu</text>
<text text-anchor="middle" x="253" y="-95" font-family="Helvetica,sans-Serif" font-size="10.00">Bar.createMenuItem</text>
</a>
</g>
</g>
<!-- Node1&#45;&gt;Node7 -->
<g id="edge6" class="edge"><title>Node1&#45;&gt;Node7</title>
<path fill="none" stroke="midnightblue" d="M81.0877,-224.857C97.9405,-200.702 134.129,-153.483 176,-127 178.606,-125.352 181.333,-123.809 184.142,-122.365"/>
<polygon fill="midnightblue" stroke="midnightblue" points="185.749,-125.478 193.339,-118.085 182.796,-119.131 185.749,-125.478"/>
</g>
<!-- Node8 -->
<g id="node8" class="node"><title>Node8</title>
<g id="a_node8"><a xlink:href="../../da/d4e/classviewcontroller_1_1_view.html#a1f7ce4457b38e302cf3a052c8d36a7a6" target="_top" xlink:title="viewcontroller.View.loadFile">
<polygon fill="white" stroke="black" points="181.5,-230.5 181.5,-249.5 324.5,-249.5 324.5,-230.5 181.5,-230.5"/>
<text text-anchor="middle" x="253" y="-237.5" font-family="Helvetica,sans-Serif" font-size="10.00">viewcontroller.View.loadFile</text>
</a>
</g>
</g>
<!-- Node1&#45;&gt;Node8 -->
<g id="edge8" class="edge"><title>Node1&#45;&gt;Node8</title>
<path fill="none" stroke="midnightblue" d="M140.203,-240C150.308,-240 160.788,-240 171.1,-240"/>
<polygon fill="midnightblue" stroke="midnightblue" points="171.336,-243.5 181.336,-240 171.336,-236.5 171.336,-243.5"/>
</g>
<!-- Node19 -->
<g id="node19" class="node"><title>Node19</title>
<g id="a_node19"><a xlink:href="../../da/d4e/classviewcontroller_1_1_view.html#a3ce37900baf65c2a31c0a2a7d5349aae" target="_top" xlink:title="viewcontroller.View.load\lWorkspace">
<polygon fill="white" stroke="black" points="189,-291 189,-321 317,-321 317,-291 189,-291"/>
<text text-anchor="start" x="197" y="-309" font-family="Helvetica,sans-Serif" font-size="10.00">viewcontroller.View.load</text>
<text text-anchor="middle" x="253" y="-298" font-family="Helvetica,sans-Serif" font-size="10.00">Workspace</text>
</a>
</g>
</g>
<!-- Node1&#45;&gt;Node19 -->
<g id="edge21" class="edge"><title>Node1&#45;&gt;Node19</title>
<path fill="none" stroke="midnightblue" d="M112.525,-255.142C138.853,-264.742 173.095,-277.228 201.061,-287.426"/>
<polygon fill="midnightblue" stroke="midnightblue" points="200.074,-290.791 210.668,-290.929 202.472,-284.215 200.074,-290.791"/>
</g>
<!-- Node27 -->
<g id="node27" class="node"><title>Node27</title>
<g id="a_node27"><a xlink:href="../../da/d4e/classviewcontroller_1_1_view.html#a6d302784ecfa68080791115cc18e308e" target="_top" xlink:title="viewcontroller.View.save\lWorkspace">
<polygon fill="white" stroke="black" points="187.5,-137 187.5,-167 318.5,-167 318.5,-137 187.5,-137"/>
<text text-anchor="start" x="195.5" y="-155" font-family="Helvetica,sans-Serif" font-size="10.00">viewcontroller.View.save</text>
<text text-anchor="middle" x="253" y="-144" font-family="Helvetica,sans-Serif" font-size="10.00">Workspace</text>
</a>
</g>
</g>
<!-- Node1&#45;&gt;Node27 -->
<g id="edge31" class="edge"><title>Node1&#45;&gt;Node27</title>
<path fill="none" stroke="midnightblue" d="M102.115,-224.872C132.381,-210.157 178.513,-187.729 211.6,-171.642"/>
<polygon fill="midnightblue" stroke="midnightblue" points="213.526,-174.598 220.989,-167.077 210.465,-168.302 213.526,-174.598"/>
</g>
<!-- Node30 -->
<g id="node30" class="node"><title>Node30</title>
<g id="a_node30"><a xlink:href="../../da/d4e/classviewcontroller_1_1_view.html#a8765e51b56decbfc5561bddba86a8ac3" target="_top" xlink:title="viewcontroller.View.showHelp">
<polygon fill="white" stroke="black" points="176,-27.5 176,-46.5 330,-46.5 330,-27.5 176,-27.5"/>
<text text-anchor="middle" x="253" y="-34.5" font-family="Helvetica,sans-Serif" font-size="10.00">viewcontroller.View.showHelp</text>
</a>
</g>
</g>
<!-- Node1&#45;&gt;Node30 -->
<g id="edge35" class="edge"><title>Node1&#45;&gt;Node30</title>
<path fill="none" stroke="midnightblue" d="M77.6437,-224.816C91.8202,-193.843 127.721,-122.548 176,-78 188.086,-66.8485 203.767,-57.7261 217.744,-50.9413"/>
<polygon fill="midnightblue" stroke="midnightblue" points="219.477,-53.9963 227.083,-46.6214 216.538,-47.6431 219.477,-53.9963"/>
</g>
<!-- Node3 -->
<g id="node3" class="node"><title>Node3</title>
<g id="a_node3"><a xlink:href="../../da/d4e/classviewcontroller_1_1_view.html#ad16a35ae1b446b10bc9cc74395e0aeab" target="_top" xlink:title="viewcontroller.View.addWorkspace">
<polygon fill="white" stroke="black" points="631.5,-400.5 631.5,-419.5 808.5,-419.5 808.5,-400.5 631.5,-400.5"/>
<text text-anchor="middle" x="720" y="-407.5" font-family="Helvetica,sans-Serif" font-size="10.00">viewcontroller.View.addWorkspace</text>
</a>
</g>
</g>
<!-- Node2&#45;&gt;Node3 -->
<g id="edge2" class="edge"><title>Node2&#45;&gt;Node3</title>
<path fill="none" stroke="midnightblue" d="M326.146,-397.327C405.362,-399.883 533,-404 621.183,-406.845"/>
<polygon fill="midnightblue" stroke="midnightblue" points="621.091,-410.343 631.198,-407.168 621.316,-403.347 621.091,-410.343"/>
</g>
<!-- Node3&#45;&gt;Node4 -->
<g id="edge3" class="edge"><title>Node3&#45;&gt;Node4</title>
<path fill="none" stroke="midnightblue" d="M757.234,-419.503C781.249,-426.372 813.156,-436.604 840,-449 857.024,-456.862 858.643,-463.906 876,-471 883.811,-474.193 892.114,-477.025 900.512,-479.527"/>
<polygon fill="midnightblue" stroke="midnightblue" points="899.815,-482.967 910.39,-482.313 901.716,-476.23 899.815,-482.967"/>
</g>
<!-- Node5 -->
<g id="node5" class="node"><title>Node5</title>
<g id="a_node5"><a xlink:href="../../d8/d3a/classviewcontroller_1_1_workspace.html#a27576951466201164923fcc7b190a42e" target="_top" xlink:title="viewcontroller.Workspace.get\lViewController">
<polygon fill="white" stroke="black" points="908,-393 908,-423 1062,-423 1062,-393 908,-393"/>
<text text-anchor="start" x="916" y="-411" font-family="Helvetica,sans-Serif" font-size="10.00">viewcontroller.Workspace.get</text>
<text text-anchor="middle" x="985" y="-400" font-family="Helvetica,sans-Serif" font-size="10.00">ViewController</text>
</a>
</g>
</g>
<!-- Node3&#45;&gt;Node5 -->
<g id="edge4" class="edge"><title>Node3&#45;&gt;Node5</title>
<path fill="none" stroke="midnightblue" d="M808.575,-409.334C837.188,-409.116 868.936,-408.875 897.471,-408.658"/>
<polygon fill="midnightblue" stroke="midnightblue" points="897.854,-412.155 907.827,-408.579 897.801,-405.155 897.854,-412.155"/>
</g>
<!-- Node6 -->
<g id="node6" class="node"><title>Node6</title>
<g id="a_node6"><a xlink:href="../../d3/d67/classviewcontroller_1_1_main_view_controller.html#ab2d2098053847d03306f31284a351b95" target="_top" xlink:title="viewcontroller.MainViewController.getNode">
<polygon fill="white" stroke="black" points="876,-442.5 876,-461.5 1094,-461.5 1094,-442.5 876,-442.5"/>
<text text-anchor="middle" x="985" y="-449.5" font-family="Helvetica,sans-Serif" font-size="10.00">viewcontroller.MainViewController.getNode</text>
</a>
</g>
</g>
<!-- Node3&#45;&gt;Node6 -->
<g id="edge5" class="edge"><title>Node3&#45;&gt;Node6</title>
<path fill="none" stroke="midnightblue" d="M780.679,-419.53C820.302,-425.858 872.474,-434.19 914.048,-440.829"/>
<polygon fill="midnightblue" stroke="midnightblue" points="913.676,-444.314 924.103,-442.435 914.78,-437.401 913.676,-444.314"/>
</g>
<!-- Node8&#45;&gt;Node5 -->
<g id="edge9" class="edge"><title>Node8&#45;&gt;Node5</title>
<path fill="none" stroke="midnightblue" d="M279.744,-249.648C295.767,-256.676 315.931,-267.504 330,-282 354.366,-307.104 336.909,-332.567 366,-352 453.884,-410.708 734.837,-380.469 840,-391 858.684,-392.871 878.706,-395.095 897.7,-397.307"/>
<polygon fill="midnightblue" stroke="midnightblue" points="897.487,-400.806 907.827,-398.497 898.304,-393.854 897.487,-400.806"/>
</g>
<!-- Node9 -->
<g id="node9" class="node"><title>Node9</title>
<g id="a_node9"><a xlink:href="../../d3/d67/classviewcontroller_1_1_main_view_controller.html#a29ed3b9e1441359bc7ffb6eea450c7e9" target="_top" xlink:title="viewcontroller.MainViewController.load\lScript">
<polygon fill="white" stroke="black" points="366.5,-225 366.5,-255 563.5,-255 563.5,-225 366.5,-225"/>
<text text-anchor="start" x="374.5" y="-243" font-family="Helvetica,sans-Serif" font-size="10.00">viewcontroller.MainViewController.load</text>
<text text-anchor="middle" x="465" y="-232" font-family="Helvetica,sans-Serif" font-size="10.00">Script</text>
</a>
</g>
</g>
<!-- Node8&#45;&gt;Node9 -->
<g id="edge10" class="edge"><title>Node8&#45;&gt;Node9</title>
<path fill="none" stroke="midnightblue" d="M324.511,-240C334.715,-240 345.407,-240 356.139,-240"/>
<polygon fill="midnightblue" stroke="midnightblue" points="356.427,-243.5 366.427,-240 356.427,-236.5 356.427,-243.5"/>
</g>
<!-- Node12 -->
<g id="node12" class="node"><title>Node12</title>
<g id="a_node12"><a xlink:href="../../da/d4e/classviewcontroller_1_1_view.html#a2cf38fe953a8a424eb5712b11ecbc57a" target="_top" xlink:title="viewcontroller.View.readFile">
<polygon fill="white" stroke="black" points="392.5,-274.5 392.5,-293.5 537.5,-293.5 537.5,-274.5 392.5,-274.5"/>
<text text-anchor="middle" x="465" y="-281.5" font-family="Helvetica,sans-Serif" font-size="10.00">viewcontroller.View.readFile</text>
</a>
</g>
</g>
<!-- Node8&#45;&gt;Node12 -->
<g id="edge13" class="edge"><title>Node8&#45;&gt;Node12</title>
<path fill="none" stroke="midnightblue" d="M297.862,-249.503C318.525,-253.953 343.518,-259.297 366,-264 379.138,-266.748 393.277,-269.66 406.614,-272.386"/>
<polygon fill="midnightblue" stroke="midnightblue" points="406.129,-275.86 416.627,-274.429 407.528,-269.001 406.129,-275.86"/>
</g>
<!-- Node13 -->
<g id="node13" class="node"><title>Node13</title>
<g id="a_node13"><a xlink:href="../../da/d4e/classviewcontroller_1_1_view.html#a98e7b6a5716e94a0052d7bb51dc3a404" target="_top" xlink:title="viewcontroller.View.show\lMessage">
<polygon fill="white" stroke="black" points="654,-146 654,-176 786,-176 786,-146 654,-146"/>
<text text-anchor="start" x="662" y="-164" font-family="Helvetica,sans-Serif" font-size="10.00">viewcontroller.View.show</text>
<text text-anchor="middle" x="720" y="-153" font-family="Helvetica,sans-Serif" font-size="10.00">Message</text>
</a>
</g>
</g>
<!-- Node8&#45;&gt;Node13 -->
<g id="edge14" class="edge"><title>Node8&#45;&gt;Node13</title>
<path fill="none" stroke="midnightblue" d="M293.518,-230.492C314.902,-225.521 341.818,-219.543 366,-215 461.244,-197.106 571.785,-180.932 643.432,-171.048"/>
<polygon fill="midnightblue" stroke="midnightblue" points="644.284,-174.464 653.715,-169.636 643.332,-167.529 644.284,-174.464"/>
</g>
<!-- Node18 -->
<g id="node18" class="node"><title>Node18</title>
<g id="a_node18"><a xlink:href="../../da/d4e/classviewcontroller_1_1_view.html#a9ad52fdebf34b834ab51d0a969833e75" target="_top" xlink:title="viewcontroller.View.noCurrent\lWorkspace">
<polygon fill="white" stroke="black" points="387,-137 387,-167 543,-167 543,-137 387,-137"/>
<text text-anchor="start" x="395" y="-155" font-family="Helvetica,sans-Serif" font-size="10.00">viewcontroller.View.noCurrent</text>
<text text-anchor="middle" x="465" y="-144" font-family="Helvetica,sans-Serif" font-size="10.00">Workspace</text>
</a>
</g>
</g>
<!-- Node8&#45;&gt;Node18 -->
<g id="edge19" class="edge"><title>Node8&#45;&gt;Node18</title>
<path fill="none" stroke="midnightblue" d="M270.254,-230.391C291.66,-218.017 330.723,-196.396 366,-182 376.512,-177.71 387.872,-173.695 399.005,-170.084"/>
<polygon fill="midnightblue" stroke="midnightblue" points="400.222,-173.37 408.702,-167.019 398.112,-166.696 400.222,-173.37"/>
</g>
<!-- Node10 -->
<g id="node10" class="node"><title>Node10</title>
<g id="a_node10"><a xlink:href="../../d0/d7c/classviewcontroller_1_1commands_1_1_command_window_container_view_controller.html#a855fafa32d3167f000f659fc3ae8bede" target="_top" xlink:title="viewcontroller.commands.\lCommandWindowContainerViewController.load\lScript">
<polygon fill="white" stroke="black" points="600.5,-203.5 600.5,-244.5 839.5,-244.5 839.5,-203.5 600.5,-203.5"/>
<text text-anchor="start" x="608.5" y="-232.5" font-family="Helvetica,sans-Serif" font-size="10.00">viewcontroller.commands.</text>
<text text-anchor="start" x="608.5" y="-221.5" font-family="Helvetica,sans-Serif" font-size="10.00">CommandWindowContainerViewController.load</text>
<text text-anchor="middle" x="720" y="-210.5" font-family="Helvetica,sans-Serif" font-size="10.00">Script</text>
</a>
</g>
</g>
<!-- Node9&#45;&gt;Node10 -->
<g id="edge11" class="edge"><title>Node9&#45;&gt;Node10</title>
<path fill="none" stroke="midnightblue" d="M563.816,-233.814C572.505,-233.265 581.384,-232.703 590.278,-232.141"/>
<polygon fill="midnightblue" stroke="midnightblue" points="590.557,-235.63 600.316,-231.506 590.115,-228.644 590.557,-235.63"/>
</g>
<!-- Node11 -->
<g id="node11" class="node"><title>Node11</title>
<g id="a_node11"><a xlink:href="../../de/d8d/classviewcontroller_1_1commands_1_1_command_prompt_view_controller.html#ac5b8ed43553efe6667328fe2d2d7130a" target="_top" xlink:title="viewcontroller.commands.\lCommandPromptViewController.set\lCommandPromptText">
<polygon fill="white" stroke="black" points="891,-88.5 891,-129.5 1079,-129.5 1079,-88.5 891,-88.5"/>
<text text-anchor="start" x="899" y="-117.5" font-family="Helvetica,sans-Serif" font-size="10.00">viewcontroller.commands.</text>
<text text-anchor="start" x="899" y="-106.5" font-family="Helvetica,sans-Serif" font-size="10.00">CommandPromptViewController.set</text>
<text text-anchor="middle" x="985" y="-95.5" font-family="Helvetica,sans-Serif" font-size="10.00">CommandPromptText</text>
</a>
</g>
</g>
<!-- Node10&#45;&gt;Node11 -->
<g id="edge12" class="edge"><title>Node10&#45;&gt;Node11</title>
<path fill="none" stroke="midnightblue" d="M805.364,-203.443C817.577,-198.493 829.537,-192.421 840,-185 861.462,-169.777 854.132,-152.634 876,-138 877.901,-136.728 879.856,-135.512 881.855,-134.348"/>
<polygon fill="midnightblue" stroke="midnightblue" points="883.673,-137.347 890.881,-129.582 880.404,-131.157 883.673,-137.347"/>
</g>
<!-- Node14 -->
<g id="node14" class="node"><title>Node14</title>
<g id="a_node14"><a xlink:href="../../d6/dd4/classapplication_1_1_message_box.html#a272fc424b595a91a6d2048981ac95e5b" target="_top" xlink:title="application.MessageBox.show">
<polygon fill="white" stroke="black" points="905.5,-50.5 905.5,-69.5 1064.5,-69.5 1064.5,-50.5 905.5,-50.5"/>
<text text-anchor="middle" x="985" y="-57.5" font-family="Helvetica,sans-Serif" font-size="10.00">application.MessageBox.show</text>
</a>
</g>
</g>
<!-- Node13&#45;&gt;Node14 -->
<g id="edge15" class="edge"><title>Node13&#45;&gt;Node14</title>
<path fill="none" stroke="midnightblue" d="M743.859,-145.957C773.218,-127.345 826.325,-96.0356 876,-79 884.178,-76.1955 892.852,-73.7882 901.59,-71.7253"/>
<polygon fill="midnightblue" stroke="midnightblue" points="902.453,-75.1191 911.46,-69.5398 900.94,-68.2847 902.453,-75.1191"/>
</g>
<!-- Node15 -->
<g id="node15" class="node"><title>Node15</title>
<g id="a_node15"><a xlink:href="../../d6/dd4/classapplication_1_1_message_box.html#a6c41f7d51b489df9b0a577d1a318c58d" target="_top" xlink:title="application.MessageBox.create\lMessageBox">
<polygon fill="white" stroke="black" points="1130,-45 1130,-75 1296,-75 1296,-45 1130,-45"/>
<text text-anchor="start" x="1138" y="-63" font-family="Helvetica,sans-Serif" font-size="10.00">application.MessageBox.create</text>
<text text-anchor="middle" x="1213" y="-52" font-family="Helvetica,sans-Serif" font-size="10.00">MessageBox</text>
</a>
</g>
</g>
<!-- Node14&#45;&gt;Node15 -->
<g id="edge16" class="edge"><title>Node14&#45;&gt;Node15</title>
<path fill="none" stroke="midnightblue" d="M1064.73,-60C1082.46,-60 1101.44,-60 1119.68,-60"/>
<polygon fill="midnightblue" stroke="midnightblue" points="1119.72,-63.5001 1129.72,-60 1119.72,-56.5001 1119.72,-63.5001"/>
</g>
<!-- Node16 -->
<g id="node16" class="node"><title>Node16</title>
<g id="a_node16"><a xlink:href="../../d6/dd4/classapplication_1_1_message_box.html#ac3b708a4c65b8243168425667649c221" target="_top" xlink:title="application.MessageBox.create\lMessageText">
<polygon fill="white" stroke="black" points="1332,-70 1332,-100 1498,-100 1498,-70 1332,-70"/>
<text text-anchor="start" x="1340" y="-88" font-family="Helvetica,sans-Serif" font-size="10.00">application.MessageBox.create</text>
<text text-anchor="middle" x="1415" y="-77" font-family="Helvetica,sans-Serif" font-size="10.00">MessageText</text>
</a>
</g>
</g>
<!-- Node15&#45;&gt;Node16 -->
<g id="edge17" class="edge"><title>Node15&#45;&gt;Node16</title>
<path fill="none" stroke="midnightblue" d="M1296.21,-70.2767C1304.65,-71.3318 1313.27,-72.4087 1321.81,-73.4761"/>
<polygon fill="midnightblue" stroke="midnightblue" points="1321.43,-76.9554 1331.78,-74.7228 1322.29,-70.0094 1321.43,-76.9554"/>
</g>
<!-- Node17 -->
<g id="node17" class="node"><title>Node17</title>
<g id="a_node17"><a xlink:href="../../d6/dd4/classapplication_1_1_message_box.html#a8e5e69eeb3a25bd743a9b376002f875e" target="_top" xlink:title="application.MessageBox.create\lOkayButton">
<polygon fill="white" stroke="black" points="1332,-21 1332,-51 1498,-51 1498,-21 1332,-21"/>
<text text-anchor="start" x="1340" y="-39" font-family="Helvetica,sans-Serif" font-size="10.00">application.MessageBox.create</text>
<text text-anchor="middle" x="1415" y="-28" font-family="Helvetica,sans-Serif" font-size="10.00">OkayButton</text>
</a>
</g>
</g>
<!-- Node15&#45;&gt;Node17 -->
<g id="edge18" class="edge"><title>Node15&#45;&gt;Node17</title>
<path fill="none" stroke="midnightblue" d="M1296.21,-50.1344C1304.65,-49.1215 1313.27,-48.0876 1321.81,-47.063"/>
<polygon fill="midnightblue" stroke="midnightblue" points="1322.27,-50.5327 1331.78,-45.8661 1321.44,-43.5826 1322.27,-50.5327"/>
</g>
<!-- Node18&#45;&gt;Node13 -->
<g id="edge20" class="edge"><title>Node18&#45;&gt;Node13</title>
<path fill="none" stroke="midnightblue" d="M543.283,-154.749C575.147,-155.883 611.946,-157.192 643.61,-158.318"/>
<polygon fill="midnightblue" stroke="midnightblue" points="643.579,-161.819 653.697,-158.677 643.828,-154.824 643.579,-161.819"/>
</g>
<!-- Node20 -->
<g id="node20" class="node"><title>Node20</title>
<g id="a_node20"><a xlink:href="../../da/d4e/classviewcontroller_1_1_view.html#a4b671855769c23246f5698d72dc12618" target="_top" xlink:title="viewcontroller.View.load\lSerialisedWorkspace">
<polygon fill="white" stroke="black" points="401,-313 401,-343 529,-343 529,-313 401,-313"/>
<text text-anchor="start" x="409" y="-331" font-family="Helvetica,sans-Serif" font-size="10.00">viewcontroller.View.load</text>
<text text-anchor="middle" x="465" y="-320" font-family="Helvetica,sans-Serif" font-size="10.00">SerialisedWorkspace</text>
</a>
</g>
</g>
<!-- Node19&#45;&gt;Node20 -->
<g id="edge22" class="edge"><title>Node19&#45;&gt;Node20</title>
<path fill="none" stroke="midnightblue" d="M317.007,-312.601C340.158,-315.026 366.57,-317.793 390.559,-320.306"/>
<polygon fill="midnightblue" stroke="midnightblue" points="390.365,-323.805 400.675,-321.366 391.094,-316.843 390.365,-323.805"/>
</g>
<!-- Node20&#45;&gt;Node3 -->
<g id="edge29" class="edge"><title>Node20&#45;&gt;Node3</title>
<path fill="none" stroke="midnightblue" d="M512.404,-343.04C560.414,-358.601 634.572,-382.636 679.759,-397.281"/>
<polygon fill="midnightblue" stroke="midnightblue" points="678.898,-400.682 689.49,-400.436 681.057,-394.023 678.898,-400.682"/>
</g>
<!-- Node20&#45;&gt;Node13 -->
<g id="edge30" class="edge"><title>Node20&#45;&gt;Node13</title>
<path fill="none" stroke="midnightblue" d="M529,-321.729C541.808,-317.928 554.307,-312.044 564,-303 601.302,-268.195 563.061,-229.19 600,-194 612.084,-182.488 627.822,-174.926 643.874,-169.976"/>
<polygon fill="midnightblue" stroke="midnightblue" points="645.169,-173.25 653.88,-167.22 643.31,-166.502 645.169,-173.25"/>
</g>
<!-- Node21 -->
<g id="node21" class="node"><title>Node21</title>
<g id="a_node21"><a xlink:href="../../d2/d33/classmodel_1_1_deserialiser.html#a2fbfdc424927c111f445271967687f28" target="_top" xlink:title="model.Deserialiser.deserialise">
<polygon fill="white" stroke="black" points="640.5,-267.5 640.5,-286.5 799.5,-286.5 799.5,-267.5 640.5,-267.5"/>
<text text-anchor="middle" x="720" y="-274.5" font-family="Helvetica,sans-Serif" font-size="10.00">model.Deserialiser.deserialise</text>
</a>
</g>
</g>
<!-- Node20&#45;&gt;Node21 -->
<g id="edge23" class="edge"><title>Node20&#45;&gt;Node21</title>
<path fill="none" stroke="midnightblue" d="M529.19,-315.262C569.851,-307.066 622.271,-296.499 661.717,-288.547"/>
<polygon fill="midnightblue" stroke="midnightblue" points="662.596,-291.94 671.707,-286.533 661.213,-285.079 662.596,-291.94"/>
</g>
<!-- Node22 -->
<g id="node22" class="node"><title>Node22</title>
<g id="a_node22"><a xlink:href="../../d3/d5e/classmodel_1_1_serialisable_model.html#acd6f583bd4760c71758447d8da52b957" target="_top" xlink:title="model.SerialisableModel.get\lBackGroundColorName">
<polygon fill="white" stroke="black" points="909,-344 909,-374 1061,-374 1061,-344 909,-344"/>
<text text-anchor="start" x="917" y="-362" font-family="Helvetica,sans-Serif" font-size="10.00">model.SerialisableModel.get</text>
<text text-anchor="middle" x="985" y="-351" font-family="Helvetica,sans-Serif" font-size="10.00">BackGroundColorName</text>
</a>
</g>
</g>
<!-- Node21&#45;&gt;Node22 -->
<g id="edge24" class="edge"><title>Node21&#45;&gt;Node22</title>
<path fill="none" stroke="midnightblue" d="M744.065,-286.513C774.081,-298.652 828.331,-319.778 876,-334 884.897,-336.654 894.276,-339.196 903.64,-341.573"/>
<polygon fill="midnightblue" stroke="midnightblue" points="902.822,-344.977 913.371,-343.989 904.509,-338.183 902.822,-344.977"/>
</g>
<!-- Node23 -->
<g id="node23" class="node"><title>Node23</title>
<g id="a_node23"><a xlink:href="../../d3/d5e/classmodel_1_1_serialisable_model.html#a95d6c1f18e7a764d9bd0b47d1606b3f2" target="_top" xlink:title="model.SerialisableModel.get\lMyCommandHistoryModel">
<polygon fill="white" stroke="black" points="909,-295 909,-325 1061,-325 1061,-295 909,-295"/>
<text text-anchor="start" x="917" y="-313" font-family="Helvetica,sans-Serif" font-size="10.00">model.SerialisableModel.get</text>
<text text-anchor="middle" x="985" y="-302" font-family="Helvetica,sans-Serif" font-size="10.00">MyCommandHistoryModel</text>
</a>
</g>
</g>
<!-- Node21&#45;&gt;Node23 -->
<g id="edge25" class="edge"><title>Node21&#45;&gt;Node23</title>
<path fill="none" stroke="midnightblue" d="M796.718,-286.501C828.623,-290.504 865.906,-295.182 898.77,-299.306"/>
<polygon fill="midnightblue" stroke="midnightblue" points="898.458,-302.794 908.816,-300.566 899.33,-295.848 898.458,-302.794"/>
</g>
<!-- Node24 -->
<g id="node24" class="node"><title>Node24</title>
<g id="a_node24"><a xlink:href="../../d3/d5e/classmodel_1_1_serialisable_model.html#acbeaa1958664dae32fb55d92a504854a" target="_top" xlink:title="model.SerialisableModel.get\lMyLanguage">
<polygon fill="white" stroke="black" points="909,-246 909,-276 1061,-276 1061,-246 909,-246"/>
<text text-anchor="start" x="917" y="-264" font-family="Helvetica,sans-Serif" font-size="10.00">model.SerialisableModel.get</text>
<text text-anchor="middle" x="985" y="-253" font-family="Helvetica,sans-Serif" font-size="10.00">MyLanguage</text>
</a>
</g>
</g>
<!-- Node21&#45;&gt;Node24 -->
<g id="edge26" class="edge"><title>Node21&#45;&gt;Node24</title>
<path fill="none" stroke="midnightblue" d="M799.552,-272.221C830.693,-270.327 866.589,-268.143 898.39,-266.208"/>
<polygon fill="midnightblue" stroke="midnightblue" points="898.791,-269.69 908.56,-265.589 898.366,-262.703 898.791,-269.69"/>
</g>
<!-- Node25 -->
<g id="node25" class="node"><title>Node25</title>
<g id="a_node25"><a xlink:href="../../d3/d5e/classmodel_1_1_serialisable_model.html#a3acb5ea4d85b1a7be0d34861be86d796" target="_top" xlink:title="model.SerialisableModel.get\lMyUserDefinedMethodsModel">
<polygon fill="white" stroke="black" points="905.5,-197 905.5,-227 1064.5,-227 1064.5,-197 905.5,-197"/>
<text text-anchor="start" x="913.5" y="-215" font-family="Helvetica,sans-Serif" font-size="10.00">model.SerialisableModel.get</text>
<text text-anchor="middle" x="985" y="-204" font-family="Helvetica,sans-Serif" font-size="10.00">MyUserDefinedMethodsModel</text>
</a>
</g>
</g>
<!-- Node21&#45;&gt;Node25 -->
<g id="edge27" class="edge"><title>Node21&#45;&gt;Node25</title>
<path fill="none" stroke="midnightblue" d="M782.892,-267.463C801.496,-263.812 821.795,-259.035 840,-253 856.795,-247.432 859.26,-241.732 876,-236 882.684,-233.711 889.676,-231.585 896.751,-229.621"/>
<polygon fill="midnightblue" stroke="midnightblue" points="897.665,-233 906.428,-227.044 895.864,-226.235 897.665,-233"/>
</g>
<!-- Node26 -->
<g id="node26" class="node"><title>Node26</title>
<g id="a_node26"><a xlink:href="../../d3/d5e/classmodel_1_1_serialisable_model.html#a530afce46890f6bd3aa9fb22dad28df6" target="_top" xlink:title="model.SerialisableModel.get\lMyUserDefinedVariablesModel">
<polygon fill="white" stroke="black" points="904.5,-148 904.5,-178 1065.5,-178 1065.5,-148 904.5,-148"/>
<text text-anchor="start" x="912.5" y="-166" font-family="Helvetica,sans-Serif" font-size="10.00">model.SerialisableModel.get</text>
<text text-anchor="middle" x="985" y="-155" font-family="Helvetica,sans-Serif" font-size="10.00">MyUserDefinedVariablesModel</text>
</a>
</g>
</g>
<!-- Node21&#45;&gt;Node26 -->
<g id="edge28" class="edge"><title>Node21&#45;&gt;Node26</title>
<path fill="none" stroke="midnightblue" d="M799.677,-271.185C814.05,-267.432 828.21,-261.691 840,-253 866.895,-233.174 849.301,-207.09 876,-187 881.803,-182.633 888.249,-179.033 895.02,-176.068"/>
<polygon fill="midnightblue" stroke="midnightblue" points="896.376,-179.296 904.425,-172.406 893.836,-172.773 896.376,-179.296"/>
</g>
<!-- Node27&#45;&gt;Node18 -->
<g id="edge34" class="edge"><title>Node27&#45;&gt;Node18</title>
<path fill="none" stroke="midnightblue" d="M318.72,-152C337.09,-152 357.399,-152 376.864,-152"/>
<polygon fill="midnightblue" stroke="midnightblue" points="376.951,-155.5 386.951,-152 376.951,-148.5 376.951,-155.5"/>
</g>
<!-- Node28 -->
<g id="node28" class="node"><title>Node28</title>
<g id="a_node28"><a xlink:href="../../dc/d7f/classmodel_1_1_serialiser.html#a501c0afddf519054e7d84e8f452824a6" target="_top" xlink:title="model.Serialiser.serialise">
<polygon fill="white" stroke="black" points="397.5,-49.5 397.5,-68.5 532.5,-68.5 532.5,-49.5 397.5,-49.5"/>
<text text-anchor="middle" x="465" y="-56.5" font-family="Helvetica,sans-Serif" font-size="10.00">model.Serialiser.serialise</text>
</a>
</g>
</g>
<!-- Node27&#45;&gt;Node28 -->
<g id="edge32" class="edge"><title>Node27&#45;&gt;Node28</title>
<path fill="none" stroke="midnightblue" d="M312.688,-136.882C318.809,-134.101 324.715,-130.833 330,-127 351.876,-111.134 343.167,-92.4536 366,-78 372.641,-73.7962 380.005,-70.4856 387.627,-67.8835"/>
<polygon fill="midnightblue" stroke="midnightblue" points="388.814,-71.1816 397.384,-64.9528 386.8,-64.4774 388.814,-71.1816"/>
</g>
<!-- Node29 -->
<g id="node29" class="node"><title>Node29</title>
<g id="a_node29"><a xlink:href="../../d8/d3a/classviewcontroller_1_1_workspace.html#a1b461756646e982d8efbb5a286576c7a" target="_top" xlink:title="viewcontroller.Workspace.get\lMainModel">
<polygon fill="white" stroke="black" points="388,-88 388,-118 542,-118 542,-88 388,-88"/>
<text text-anchor="start" x="396" y="-106" font-family="Helvetica,sans-Serif" font-size="10.00">viewcontroller.Workspace.get</text>
<text text-anchor="middle" x="465" y="-95" font-family="Helvetica,sans-Serif" font-size="10.00">MainModel</text>
</a>
</g>
</g>
<!-- Node27&#45;&gt;Node29 -->
<g id="edge33" class="edge"><title>Node27&#45;&gt;Node29</title>
<path fill="none" stroke="midnightblue" d="M318.434,-136.965C341.01,-131.698 366.543,-125.74 389.85,-120.302"/>
<polygon fill="midnightblue" stroke="midnightblue" points="390.745,-123.687 399.688,-118.006 389.154,-116.87 390.745,-123.687"/>
</g>
<!-- Node31 -->
<g id="node31" class="node"><title>Node31</title>
<g id="a_node31"><a xlink:href="../../d2/d70/classviewcontroller_1_1_help_dialog_box.html#a66212318db1ac171a11750c63a8d6e2e" target="_top" xlink:title="viewcontroller.HelpDialog\lBox.show">
<polygon fill="white" stroke="black" points="397,-0 397,-30 533,-30 533,-0 397,-0"/>
<text text-anchor="start" x="405" y="-18" font-family="Helvetica,sans-Serif" font-size="10.00">viewcontroller.HelpDialog</text>
<text text-anchor="middle" x="465" y="-7" font-family="Helvetica,sans-Serif" font-size="10.00">Box.show</text>
</a>
</g>
</g>
<!-- Node30&#45;&gt;Node31 -->
<g id="edge36" class="edge"><title>Node30&#45;&gt;Node31</title>
<path fill="none" stroke="midnightblue" d="M330.112,-29.0264C348.533,-27.0965 368.241,-25.0319 386.715,-23.0965"/>
<polygon fill="midnightblue" stroke="midnightblue" points="387.255,-26.5592 396.836,-22.0362 386.526,-19.5973 387.255,-26.5592"/>
</g>
<!-- Node32 -->
<g id="node32" class="node"><title>Node32</title>
<g id="a_node32"><a xlink:href="../../d2/d70/classviewcontroller_1_1_help_dialog_box.html#aaa0274fd659fdd6b1e788de2e76dfb03" target="_top" xlink:title="viewcontroller.HelpDialog\lBox.makePageDisplay">
<polygon fill="white" stroke="black" points="652,-0 652,-30 788,-30 788,-0 652,-0"/>
<text text-anchor="start" x="660" y="-18" font-family="Helvetica,sans-Serif" font-size="10.00">viewcontroller.HelpDialog</text>
<text text-anchor="middle" x="720" y="-7" font-family="Helvetica,sans-Serif" font-size="10.00">Box.makePageDisplay</text>
</a>
</g>
</g>
<!-- Node31&#45;&gt;Node32 -->
<g id="edge37" class="edge"><title>Node31&#45;&gt;Node32</title>
<path fill="none" stroke="midnightblue" d="M533.135,-15C566.578,-15 607.18,-15 641.895,-15"/>
<polygon fill="midnightblue" stroke="midnightblue" points="641.991,-18.5001 651.991,-15 641.99,-11.5001 641.991,-18.5001"/>
</g>
</g>
</svg>
        <g id="navigator" transform="translate(0 0)" fill="#404254">
                <rect fill="#f2f5e9" fill-opacity="0.5" stroke="#606060" stroke-width=".5" x="0" y="0" width="60" height="60"/>
                <use id="zoomplus" xlink:href="#zoomPlus" x="17" y="9" onmousedown="handleZoom(evt,'in')"/>
                <use id="zoomminus" xlink:href="#zoomMin" x="42" y="9" onmousedown="handleZoom(evt,'out')"/>
                <use id="reset" xlink:href="#resetDef" x="30" y="36" onmousedown="handleReset()"/>
                <g id="arrowUp" xlink:href="#dirArrow" transform="translate(30 24)" onmousedown="handlePan(0,-1)">
                  <use xlink:href="#rim" fill="#404040">
                        <set attributeName="fill" to="#808080" begin="arrowUp.mouseover" end="arrowUp.mouseout"/>
                  </use>
                  <path fill="none" stroke="white" stroke-width="1.5" d="M0,-3.0v7 M-2.5,-0.5L0,-3.0L2.5,-0.5"/>
                </g>
                <g id="arrowRight" xlink:href="#dirArrow" transform="rotate(90) translate(36 -43)" onmousedown="handlePan(1,0)">
                  <use xlink:href="#rim" fill="#404040">
                        <set attributeName="fill" to="#808080" begin="arrowRight.mouseover" end="arrowRight.mouseout"/>
                  </use>
                  <path fill="none" stroke="white" stroke-width="1.5" d="M0,-3.0v7 M-2.5,-0.5L0,-3.0L2.5,-0.5"/>
                </g>
                <g id="arrowDown" xlink:href="#dirArrow" transform="rotate(180) translate(-30 -48)" onmousedown="handlePan(0,1)">
                  <use xlink:href="#rim" fill="#404040">
                        <set attributeName="fill" to="#808080" begin="arrowDown.mouseover" end="arrowDown.mouseout"/>
                  </use>
                  <path fill="none" stroke="white" stroke-width="1.5" d="M0,-3.0v7 M-2.5,-0.5L0,-3.0L2.5,-0.5"/>
                </g>
                <g id="arrowLeft" xlink:href="#dirArrow" transform="rotate(270) translate(-36 17)" onmousedown="handlePan(-1,0)">
                  <use xlink:href="#rim" fill="#404040">
                        <set attributeName="fill" to="#808080" begin="arrowLeft.mouseover" end="arrowLeft.mouseout"/>
                  </use>
                  <path fill="none" stroke="white" stroke-width="1.5" d="M0,-3.0v7 M-2.5,-0.5L0,-3.0L2.5,-0.5"/>
                </g>
        </g>
        <svg viewBox="0 0 15 15" width="100%" height="30px" preserveAspectRatio="xMaxYMin meet">
         <g id="arrow_out" transform="scale(0.3 0.3)">
          <a xlink:href="classviewcontroller_1_1_s_logo_menu_bar_aea535ae86d7ac7a2fffe549d7bdf2a1d_cgraph_org.svg" target="_base">
           <rect id="button" ry="5" rx="5" y="6" x="6" height="38" width="38"
                fill="#f2f5e9" fill-opacity="0.5" stroke="#606060" stroke-width="1.0"/>
           <path id="arrow"
             d="M 11.500037,31.436501 C 11.940474,20.09759 22.043105,11.32322 32.158766,21.979434 L 37.068811,17.246167 C 37.068811,17.246167 37.088388,32 37.088388,32 L 22.160133,31.978069 C 22.160133,31.978069 26.997745,27.140456 26.997745,27.140456 C 18.528582,18.264221 13.291696,25.230495 11.500037,31.436501 z"
             style="fill:#404040;"/>
          </a>
         </g>
        </svg>
</svg>
