<?xml version="1.0" encoding="UTF-8" standalone="no"?>
<!DOCTYPE svg PUBLIC "-//W3C//DTD SVG 1.1//EN"
 "http://www.w3.org/Graphics/SVG/1.1/DTD/svg11.dtd">
<!-- Generated by graphviz version 2.36.0 (20140111.2315)
 -->
<!-- Title: viewcontroller.SLogoMenuBar.initializeGridMenu Pages: 1 -->
<!--zoomable 479 -->
<svg id="main" version="1.1" xmlns="http://www.w3.org/2000/svg" xmlns:xlink="http://www.w3.org/1999/xlink" xml:space="preserve" onload="init(evt)">
<style type="text/css"><![CDATA[
.edge:hover path { stroke: red; }
.edge:hover polygon { stroke: red; fill: red; }
]]></style>
<script type="text/javascript"><![CDATA[
var edges = document.getElementsByTagName('g');
if (edges && edges.length) {
  for (var i=0;i<edges.length;i++) {
    if (edges[i].id.substr(0,4)=='edge') {
      edges[i].setAttribute('class','edge');
    }
  }
}
]]></script>
        <defs>
                <circle id="rim" cx="0" cy="0" r="7"/>
                <circle id="rim2" cx="0" cy="0" r="3.5"/>
                <g id="zoomPlus">
                        <use xlink:href="#rim" fill="#404040">
                                <set attributeName="fill" to="#808080" begin="zoomplus.mouseover" end="zoomplus.mouseout"/>
                        </use>
                        <path d="M-4,0h8M0,-4v8" fill="none" stroke="white" stroke-width="1.5" pointer-events="none"/>
                </g>
                <g id="zoomMin">
                        <use xlink:href="#rim" fill="#404040">
                                <set attributeName="fill" to="#808080" begin="zoomminus.mouseover" end="zoomminus.mouseout"/>
                        </use>
                        <path d="M-4,0h8" fill="none" stroke="white" stroke-width="1.5" pointer-events="none"/>
                </g>
                <g id="dirArrow">
                        <path fill="none" stroke="white" stroke-width="1.5" d="M0,-3.0v7 M-2.5,-0.5L0,-3.0L2.5,-0.5"/>
                </g>
               <g id="resetDef">
                       <use xlink:href="#rim2" fill="#404040">
                               <set attributeName="fill" to="#808080" begin="reset.mouseover" end="reset.mouseout"/>
                       </use>
               </g>
        </defs>

<script type="text/javascript">
var viewWidth = 1438;
var viewHeight = 479;
var sectionId = 'dynsection-8';
</script>
<script xlink:href="../../svgpan.js"/>
<svg id="graph" class="graph">
<g id="viewport">
<title>viewcontroller.SLogoMenuBar.initializeGridMenu</title>
<polygon fill="white" stroke="none" points="-4,4 -4,-475 1434,-475 1434,4 -4,4"/>
<!-- Node1 -->
<g id="node1" class="node"><title>Node1</title>
<polygon fill="#bfbfbf" stroke="black" points="0,-180 0,-210 140,-210 140,-180 0,-180"/>
<text text-anchor="start" x="8" y="-198" font-family="Helvetica,sans-Serif" font-size="10.00">viewcontroller.SLogoMenu</text>
<text text-anchor="middle" x="70" y="-187" font-family="Helvetica,sans-Serif" font-size="10.00">Bar.initializeGridMenu</text>
</g>
<!-- Node2 -->
<g id="node2" class="node"><title>Node2</title>
<g id="a_node2"><a xlink:href="../../da/d4e/classviewcontroller_1_1_view.html#ad56492108159c72ac56423b7fabe3b81" target="_top" xlink:title="viewcontroller.View.addTurtle\lClicked">
<polygon fill="white" stroke="black" points="176,-376 176,-406 328,-406 328,-376 176,-376"/>
<text text-anchor="start" x="184" y="-394" font-family="Helvetica,sans-Serif" font-size="10.00">viewcontroller.View.addTurtle</text>
<text text-anchor="middle" x="252" y="-383" font-family="Helvetica,sans-Serif" font-size="10.00">Clicked</text>
</a>
</g>
</g>
<!-- Node1&#45;&gt;Node2 -->
<g id="edge1" class="edge"><title>Node1&#45;&gt;Node2</title>
<path fill="none" stroke="midnightblue" d="M78.7062,-210.432C93.9956,-239.875 130.641,-304.878 176,-347 185.776,-356.078 197.74,-364.133 209.217,-370.788"/>
<polygon fill="midnightblue" stroke="midnightblue" points="207.825,-374.018 218.266,-375.818 211.226,-367.9 207.825,-374.018"/>
</g>
<!-- Node12 -->
<g id="node12" class="node"><title>Node12</title>
<g id="a_node12"><a xlink:href="../../da/d4e/classviewcontroller_1_1_view.html#a89076f3aec0df7ef97f43fef2912e54f" target="_top" xlink:title="viewcontroller.View.change\lTurtleImages">
<polygon fill="white" stroke="black" points="180.5,-308 180.5,-338 323.5,-338 323.5,-308 180.5,-308"/>
<text text-anchor="start" x="188.5" y="-326" font-family="Helvetica,sans-Serif" font-size="10.00">viewcontroller.View.change</text>
<text text-anchor="middle" x="252" y="-315" font-family="Helvetica,sans-Serif" font-size="10.00">TurtleImages</text>
</a>
</g>
</g>
<!-- Node1&#45;&gt;Node12 -->
<g id="edge11" class="edge"><title>Node1&#45;&gt;Node12</title>
<path fill="none" stroke="midnightblue" d="M92.3552,-210.186C124.427,-232.992 185.131,-276.16 221.438,-301.978"/>
<polygon fill="midnightblue" stroke="midnightblue" points="219.495,-304.891 229.673,-307.834 223.551,-299.186 219.495,-304.891"/>
</g>
<!-- Node14 -->
<g id="node14" class="node"><title>Node14</title>
<g id="a_node14"><a xlink:href="../../df/df9/classviewcontroller_1_1_s_logo_menu_bar.html#a9528a27d87aa916a568a0aec28ddf8bd" target="_top" xlink:title="viewcontroller.SLogoMenu\lBar.createMenuItem">
<polygon fill="white" stroke="black" points="182,-96 182,-126 322,-126 322,-96 182,-96"/>
<text text-anchor="start" x="190" y="-114" font-family="Helvetica,sans-Serif" font-size="10.00">viewcontroller.SLogoMenu</text>
<text text-anchor="middle" x="252" y="-103" font-family="Helvetica,sans-Serif" font-size="10.00">Bar.createMenuItem</text>
</a>
</g>
</g>
<!-- Node1&#45;&gt;Node14 -->
<g id="edge15" class="edge"><title>Node1&#45;&gt;Node14</title>
<path fill="none" stroke="midnightblue" d="M94.035,-179.959C114.834,-166.84 146.596,-147.935 176,-135 180.309,-133.104 184.817,-131.284 189.391,-129.554"/>
<polygon fill="midnightblue" stroke="midnightblue" points="190.622,-132.831 198.83,-126.132 188.236,-126.25 190.622,-132.831"/>
</g>
<!-- Node15 -->
<g id="node15" class="node"><title>Node15</title>
<g id="a_node15"><a xlink:href="../../da/d4e/classviewcontroller_1_1_view.html#ae793d73f0dfef360d4908529d4f824a9" target="_top" xlink:title="viewcontroller.View.edit\lPenSettings">
<polygon fill="white" stroke="black" points="189,-145 189,-175 315,-175 315,-145 189,-145"/>
<text text-anchor="start" x="197" y="-163" font-family="Helvetica,sans-Serif" font-size="10.00">viewcontroller.View.edit</text>
<text text-anchor="middle" x="252" y="-152" font-family="Helvetica,sans-Serif" font-size="10.00">PenSettings</text>
</a>
</g>
</g>
<!-- Node1&#45;&gt;Node15 -->
<g id="edge16" class="edge"><title>Node1&#45;&gt;Node15</title>
<path fill="none" stroke="midnightblue" d="M140.078,-181.568C152.751,-179.104 166.01,-176.526 178.773,-174.044"/>
<polygon fill="midnightblue" stroke="midnightblue" points="179.733,-177.423 188.881,-172.079 178.397,-170.552 179.733,-177.423"/>
</g>
<!-- Node28 -->
<g id="node28" class="node"><title>Node28</title>
<g id="a_node28"><a xlink:href="../../d9/dd7/classviewcontroller_1_1_g_u_i_reference_library.html#ac147f33c0bfa0252d247d7c0174ff688" target="_top" xlink:title="viewcontroller.GUIReference\lLibrary.getStringTranslation">
<polygon fill="white" stroke="black" points="177.5,-47 177.5,-77 326.5,-77 326.5,-47 177.5,-47"/>
<text text-anchor="start" x="185.5" y="-65" font-family="Helvetica,sans-Serif" font-size="10.00">viewcontroller.GUIReference</text>
<text text-anchor="middle" x="252" y="-54" font-family="Helvetica,sans-Serif" font-size="10.00">Library.getStringTranslation</text>
</a>
</g>
</g>
<!-- Node1&#45;&gt;Node28 -->
<g id="edge30" class="edge"><title>Node1&#45;&gt;Node28</title>
<path fill="none" stroke="midnightblue" d="M81.7872,-179.665C99.0654,-156.194 135.181,-111.415 176,-86 178.642,-84.355 181.407,-82.8127 184.253,-81.368"/>
<polygon fill="midnightblue" stroke="midnightblue" points="185.944,-84.4424 193.563,-77.0792 183.015,-78.0846 185.944,-84.4424"/>
</g>
<!-- Node29 -->
<g id="node29" class="node"><title>Node29</title>
<g id="a_node29"><a xlink:href="../../da/d4e/classviewcontroller_1_1_view.html#a663f58ba5e84352186e4c332b407cd8e" target="_top" xlink:title="viewcontroller.View.toggle\lGridLines">
<polygon fill="white" stroke="black" points="183,-216 183,-246 321,-246 321,-216 183,-216"/>
<text text-anchor="start" x="191" y="-234" font-family="Helvetica,sans-Serif" font-size="10.00">viewcontroller.View.toggle</text>
<text text-anchor="middle" x="252" y="-223" font-family="Helvetica,sans-Serif" font-size="10.00">GridLines</text>
</a>
</g>
</g>
<!-- Node1&#45;&gt;Node29 -->
<g id="edge31" class="edge"><title>Node1&#45;&gt;Node29</title>
<path fill="none" stroke="midnightblue" d="M140.078,-208.816C150.857,-210.971 162.059,-213.212 173.019,-215.404"/>
<polygon fill="midnightblue" stroke="midnightblue" points="172.506,-218.87 182.998,-217.4 173.878,-212.006 172.506,-218.87"/>
</g>
<!-- Node3 -->
<g id="node3" class="node"><title>Node3</title>
<g id="a_node3"><a xlink:href="../../d8/d3a/classviewcontroller_1_1_workspace.html#a1b461756646e982d8efbb5a286576c7a" target="_top" xlink:title="viewcontroller.Workspace.get\lMainModel">
<polygon fill="white" stroke="black" points="621,-317 621,-347 775,-347 775,-317 621,-317"/>
<text text-anchor="start" x="629" y="-335" font-family="Helvetica,sans-Serif" font-size="10.00">viewcontroller.Workspace.get</text>
<text text-anchor="middle" x="698" y="-324" font-family="Helvetica,sans-Serif" font-size="10.00">MainModel</text>
</a>
</g>
</g>
<!-- Node2&#45;&gt;Node3 -->
<g id="edge2" class="edge"><title>Node2&#45;&gt;Node3</title>
<path fill="none" stroke="midnightblue" d="M300.468,-406.073C365.413,-423.844 483.939,-445.905 572,-403 595.338,-391.629 586.432,-371.45 608,-357 610.956,-355.019 614.068,-353.194 617.286,-351.513"/>
<polygon fill="midnightblue" stroke="midnightblue" points="619.031,-354.56 626.597,-347.143 616.057,-348.223 619.031,-354.56"/>
</g>
<!-- Node4 -->
<g id="node4" class="node"><title>Node4</title>
<g id="a_node4"><a xlink:href="../../de/d21/classmodel_1_1_main_model.html#ad72fa580bd0a6764968613507bae2155" target="_top" xlink:title="model.MainModel.addTurtle">
<polygon fill="white" stroke="black" points="394.5,-451.5 394.5,-470.5 541.5,-470.5 541.5,-451.5 394.5,-451.5"/>
<text text-anchor="middle" x="468" y="-458.5" font-family="Helvetica,sans-Serif" font-size="10.00">model.MainModel.addTurtle</text>
</a>
</g>
</g>
<!-- Node2&#45;&gt;Node4 -->
<g id="edge3" class="edge"><title>Node2&#45;&gt;Node4</title>
<path fill="none" stroke="midnightblue" d="M285.499,-406.126C307.351,-415.881 336.99,-428.321 364,-437 378.345,-441.609 394.077,-445.73 408.833,-449.201"/>
<polygon fill="midnightblue" stroke="midnightblue" points="408.335,-452.677 418.864,-451.499 409.898,-445.854 408.335,-452.677"/>
</g>
<!-- Node6 -->
<g id="node6" class="node"><title>Node6</title>
<g id="a_node6"><a xlink:href="../../da/d4e/classviewcontroller_1_1_view.html#a9ad52fdebf34b834ab51d0a969833e75" target="_top" xlink:title="viewcontroller.View.noCurrent\lWorkspace">
<polygon fill="white" stroke="black" points="390,-364 390,-394 546,-394 546,-364 390,-364"/>
<text text-anchor="start" x="398" y="-382" font-family="Helvetica,sans-Serif" font-size="10.00">viewcontroller.View.noCurrent</text>
<text text-anchor="middle" x="468" y="-371" font-family="Helvetica,sans-Serif" font-size="10.00">Workspace</text>
</a>
</g>
</g>
<!-- Node2&#45;&gt;Node6 -->
<g id="edge5" class="edge"><title>Node2&#45;&gt;Node6</title>
<path fill="none" stroke="midnightblue" d="M328.147,-386.786C344.86,-385.849 362.712,-384.848 379.86,-383.886"/>
<polygon fill="midnightblue" stroke="midnightblue" points="380.072,-387.38 389.86,-383.326 379.68,-380.391 380.072,-387.38"/>
</g>
<!-- Node5 -->
<g id="node5" class="node"><title>Node5</title>
<g id="a_node5"><a xlink:href="../../de/d21/classmodel_1_1_main_model.html#a81fd23aa152cf9311abb569fa3c656fb" target="_top" xlink:title="model.MainModel.notifyObservers">
<polygon fill="white" stroke="black" points="608.5,-451.5 608.5,-470.5 787.5,-470.5 787.5,-451.5 608.5,-451.5"/>
<text text-anchor="middle" x="698" y="-458.5" font-family="Helvetica,sans-Serif" font-size="10.00">model.MainModel.notifyObservers</text>
</a>
</g>
</g>
<!-- Node4&#45;&gt;Node5 -->
<g id="edge4" class="edge"><title>Node4&#45;&gt;Node5</title>
<path fill="none" stroke="midnightblue" d="M541.767,-461C559.664,-461 579.126,-461 598.028,-461"/>
<polygon fill="midnightblue" stroke="midnightblue" points="598.153,-464.5 608.153,-461 598.153,-457.5 598.153,-464.5"/>
</g>
<!-- Node7 -->
<g id="node7" class="node"><title>Node7</title>
<g id="a_node7"><a xlink:href="../../da/d4e/classviewcontroller_1_1_view.html#a98e7b6a5716e94a0052d7bb51dc3a404" target="_top" xlink:title="viewcontroller.View.show\lMessage">
<polygon fill="white" stroke="black" points="632,-366 632,-396 764,-396 764,-366 632,-366"/>
<text text-anchor="start" x="640" y="-384" font-family="Helvetica,sans-Serif" font-size="10.00">viewcontroller.View.show</text>
<text text-anchor="middle" x="698" y="-373" font-family="Helvetica,sans-Serif" font-size="10.00">Message</text>
</a>
</g>
</g>
<!-- Node6&#45;&gt;Node7 -->
<g id="edge6" class="edge"><title>Node6&#45;&gt;Node7</title>
<path fill="none" stroke="midnightblue" d="M546.19,-379.677C570.494,-379.89 597.298,-380.125 621.484,-380.338"/>
<polygon fill="midnightblue" stroke="midnightblue" points="621.644,-383.839 631.674,-380.427 621.705,-376.839 621.644,-383.839"/>
</g>
<!-- Node8 -->
<g id="node8" class="node"><title>Node8</title>
<g id="a_node8"><a xlink:href="../../d6/dd4/classapplication_1_1_message_box.html#a272fc424b595a91a6d2048981ac95e5b" target="_top" xlink:title="application.MessageBox.show">
<polygon fill="white" stroke="black" points="835.5,-371.5 835.5,-390.5 994.5,-390.5 994.5,-371.5 835.5,-371.5"/>
<text text-anchor="middle" x="915" y="-378.5" font-family="Helvetica,sans-Serif" font-size="10.00">application.MessageBox.show</text>
</a>
</g>
</g>
<!-- Node7&#45;&gt;Node8 -->
<g id="edge7" class="edge"><title>Node7&#45;&gt;Node8</title>
<path fill="none" stroke="midnightblue" d="M764.091,-381C783.334,-381 804.736,-381 825.204,-381"/>
<polygon fill="midnightblue" stroke="midnightblue" points="825.484,-384.5 835.484,-381 825.484,-377.5 825.484,-384.5"/>
</g>
<!-- Node9 -->
<g id="node9" class="node"><title>Node9</title>
<g id="a_node9"><a xlink:href="../../d6/dd4/classapplication_1_1_message_box.html#a6c41f7d51b489df9b0a577d1a318c58d" target="_top" xlink:title="application.MessageBox.create\lMessageBox">
<polygon fill="white" stroke="black" points="1052,-366 1052,-396 1218,-396 1218,-366 1052,-366"/>
<text text-anchor="start" x="1060" y="-384" font-family="Helvetica,sans-Serif" font-size="10.00">application.MessageBox.create</text>
<text text-anchor="middle" x="1135" y="-373" font-family="Helvetica,sans-Serif" font-size="10.00">MessageBox</text>
</a>
</g>
</g>
<!-- Node8&#45;&gt;Node9 -->
<g id="edge8" class="edge"><title>Node8&#45;&gt;Node9</title>
<path fill="none" stroke="midnightblue" d="M994.703,-381C1009.91,-381 1025.97,-381 1041.57,-381"/>
<polygon fill="midnightblue" stroke="midnightblue" points="1041.74,-384.5 1051.74,-381 1041.74,-377.5 1041.74,-384.5"/>
</g>
<!-- Node10 -->
<g id="node10" class="node"><title>Node10</title>
<g id="a_node10"><a xlink:href="../../d6/dd4/classapplication_1_1_message_box.html#ac3b708a4c65b8243168425667649c221" target="_top" xlink:title="application.MessageBox.create\lMessageText">
<polygon fill="white" stroke="black" points="1264,-391 1264,-421 1430,-421 1430,-391 1264,-391"/>
<text text-anchor="start" x="1272" y="-409" font-family="Helvetica,sans-Serif" font-size="10.00">application.MessageBox.create</text>
<text text-anchor="middle" x="1347" y="-398" font-family="Helvetica,sans-Serif" font-size="10.00">MessageText</text>
</a>
</g>
</g>
<!-- Node9&#45;&gt;Node10 -->
<g id="edge9" class="edge"><title>Node9&#45;&gt;Node10</title>
<path fill="none" stroke="midnightblue" d="M1218.09,-390.773C1229.87,-392.175 1242.04,-393.624 1253.99,-395.047"/>
<polygon fill="midnightblue" stroke="midnightblue" points="1253.62,-398.527 1263.96,-396.234 1254.45,-391.576 1253.62,-398.527"/>
</g>
<!-- Node11 -->
<g id="node11" class="node"><title>Node11</title>
<g id="a_node11"><a xlink:href="../../d6/dd4/classapplication_1_1_message_box.html#a8e5e69eeb3a25bd743a9b376002f875e" target="_top" xlink:title="application.MessageBox.create\lOkayButton">
<polygon fill="white" stroke="black" points="1264,-342 1264,-372 1430,-372 1430,-342 1264,-342"/>
<text text-anchor="start" x="1272" y="-360" font-family="Helvetica,sans-Serif" font-size="10.00">application.MessageBox.create</text>
<text text-anchor="middle" x="1347" y="-349" font-family="Helvetica,sans-Serif" font-size="10.00">OkayButton</text>
</a>
</g>
</g>
<!-- Node9&#45;&gt;Node11 -->
<g id="edge10" class="edge"><title>Node9&#45;&gt;Node11</title>
<path fill="none" stroke="midnightblue" d="M1218.09,-371.618C1229.87,-370.272 1242.04,-368.881 1253.99,-367.515"/>
<polygon fill="midnightblue" stroke="midnightblue" points="1254.43,-370.989 1263.96,-366.376 1253.63,-364.034 1254.43,-370.989"/>
</g>
<!-- Node12&#45;&gt;Node3 -->
<g id="edge12" class="edge"><title>Node12&#45;&gt;Node3</title>
<path fill="none" stroke="midnightblue" d="M323.844,-324.436C401.756,-326.015 526.971,-328.553 610.59,-330.248"/>
<polygon fill="midnightblue" stroke="midnightblue" points="610.76,-333.753 620.829,-330.456 610.902,-326.754 610.76,-333.753"/>
</g>
<!-- Node12&#45;&gt;Node6 -->
<g id="edge14" class="edge"><title>Node12&#45;&gt;Node6</title>
<path fill="none" stroke="midnightblue" d="M310.348,-338.007C337.814,-345.194 370.888,-353.849 399.554,-361.351"/>
<polygon fill="midnightblue" stroke="midnightblue" points="398.933,-364.806 409.494,-363.952 400.705,-358.034 398.933,-364.806"/>
</g>
<!-- Node13 -->
<g id="node13" class="node"><title>Node13</title>
<g id="a_node13"><a xlink:href="../../de/d21/classmodel_1_1_main_model.html#a2000a0ce9eabac7a21d93e46d51b10a4" target="_top" xlink:title="model.MainModel.changeTurtle\lImages">
<polygon fill="white" stroke="black" points="386,-276 386,-306 550,-306 550,-276 386,-276"/>
<text text-anchor="start" x="394" y="-294" font-family="Helvetica,sans-Serif" font-size="10.00">model.MainModel.changeTurtle</text>
<text text-anchor="middle" x="468" y="-283" font-family="Helvetica,sans-Serif" font-size="10.00">Images</text>
</a>
</g>
</g>
<!-- Node12&#45;&gt;Node13 -->
<g id="edge13" class="edge"><title>Node12&#45;&gt;Node13</title>
<path fill="none" stroke="midnightblue" d="M323.665,-312.433C340.253,-309.953 358.164,-307.274 375.519,-304.679"/>
<polygon fill="midnightblue" stroke="midnightblue" points="376.286,-308.104 385.658,-303.163 375.251,-301.181 376.286,-308.104"/>
</g>
<!-- Node16 -->
<g id="node16" class="node"><title>Node16</title>
<g id="a_node16"><a xlink:href="../../d8/d90/classapplication_1_1_form.html#aacd1275ca274fd1a1f8939de50213455" target="_top" xlink:title="application.Form.show">
<polygon fill="white" stroke="black" points="406.5,-63.5 406.5,-82.5 529.5,-82.5 529.5,-63.5 406.5,-63.5"/>
<text text-anchor="middle" x="468" y="-70.5" font-family="Helvetica,sans-Serif" font-size="10.00">application.Form.show</text>
</a>
</g>
</g>
<!-- Node15&#45;&gt;Node16 -->
<g id="edge17" class="edge"><title>Node15&#45;&gt;Node16</title>
<path fill="none" stroke="midnightblue" d="M309.515,-144.991C316.01,-142.169 322.327,-138.862 328,-135 348.603,-120.973 342.471,-104.559 364,-92 373.84,-86.2598 385.032,-82.1912 396.326,-79.3199"/>
<polygon fill="midnightblue" stroke="midnightblue" points="397.255,-82.6986 406.245,-77.0928 395.721,-75.8686 397.255,-82.6986"/>
</g>
<!-- Node17 -->
<g id="node17" class="node"><title>Node17</title>
<g id="a_node17"><a xlink:href="../../d8/d90/classapplication_1_1_form.html#ad5716e3cc82a48a9006aab860b862897" target="_top" xlink:title="application.Form.setOnSubmit">
<polygon fill="white" stroke="black" points="387,-101.5 387,-120.5 549,-120.5 549,-101.5 387,-101.5"/>
<text text-anchor="middle" x="468" y="-108.5" font-family="Helvetica,sans-Serif" font-size="10.00">application.Form.setOnSubmit</text>
</a>
</g>
</g>
<!-- Node15&#45;&gt;Node17 -->
<g id="edge18" class="edge"><title>Node15&#45;&gt;Node17</title>
<path fill="none" stroke="midnightblue" d="M305.293,-144.925C323.761,-139.852 344.728,-134.374 364,-130 375.776,-127.327 388.373,-124.763 400.573,-122.43"/>
<polygon fill="midnightblue" stroke="midnightblue" points="401.519,-125.814 410.701,-120.528 400.226,-118.934 401.519,-125.814"/>
</g>
<!-- Node18 -->
<g id="node18" class="node"><title>Node18</title>
<g id="a_node18"><a xlink:href="../../da/d4e/classviewcontroller_1_1_view.html#a1b997ccd3e893a7cab5228020c51b16e" target="_top" xlink:title="viewcontroller.View.shit">
<polygon fill="white" stroke="black" points="405.5,-139.5 405.5,-158.5 530.5,-158.5 530.5,-139.5 405.5,-139.5"/>
<text text-anchor="middle" x="468" y="-146.5" font-family="Helvetica,sans-Serif" font-size="10.00">viewcontroller.View.shit</text>
</a>
</g>
</g>
<!-- Node15&#45;&gt;Node18 -->
<g id="edge19" class="edge"><title>Node15&#45;&gt;Node18</title>
<path fill="none" stroke="midnightblue" d="M315.185,-156.804C340.242,-155.516 369.302,-154.022 395.248,-152.688"/>
<polygon fill="midnightblue" stroke="midnightblue" points="395.592,-156.175 405.4,-152.166 395.233,-149.184 395.592,-156.175"/>
</g>
<!-- Node18&#45;&gt;Node3 -->
<g id="edge21" class="edge"><title>Node18&#45;&gt;Node3</title>
<path fill="none" stroke="midnightblue" d="M530.521,-151.44C545.122,-154.329 559.942,-159.384 572,-168 598.554,-186.973 589.042,-205.435 608,-232 628.381,-260.559 655.673,-290.209 674.639,-309.733"/>
<polygon fill="midnightblue" stroke="midnightblue" points="672.214,-312.259 681.716,-316.947 677.211,-307.357 672.214,-312.259"/>
</g>
<!-- Node19 -->
<g id="node19" class="node"><title>Node19</title>
<g id="a_node19"><a xlink:href="../../d8/d90/classapplication_1_1_form.html#a1ac739cc4abecfc8d419d238fc4cb1b1" target="_top" xlink:title="application.Form.close">
<polygon fill="white" stroke="black" points="636,-139.5 636,-158.5 760,-158.5 760,-139.5 636,-139.5"/>
<text text-anchor="middle" x="698" y="-146.5" font-family="Helvetica,sans-Serif" font-size="10.00">application.Form.close</text>
</a>
</g>
</g>
<!-- Node18&#45;&gt;Node19 -->
<g id="edge20" class="edge"><title>Node18&#45;&gt;Node19</title>
<path fill="none" stroke="midnightblue" d="M530.7,-149C559.966,-149 595.104,-149 625.525,-149"/>
<polygon fill="midnightblue" stroke="midnightblue" points="625.646,-152.5 635.646,-149 625.646,-145.5 625.646,-152.5"/>
</g>
<!-- Node20 -->
<g id="node20" class="node"><title>Node20</title>
<g id="a_node20"><a xlink:href="../../de/d21/classmodel_1_1_main_model.html#a204ebf190cf6e56575b5d7ebf5691ad7" target="_top" xlink:title="model.MainModel.updatePen">
<polygon fill="white" stroke="black" points="620.5,-98.5 620.5,-117.5 775.5,-117.5 775.5,-98.5 620.5,-98.5"/>
<text text-anchor="middle" x="698" y="-105.5" font-family="Helvetica,sans-Serif" font-size="10.00">model.MainModel.updatePen</text>
</a>
</g>
</g>
<!-- Node18&#45;&gt;Node20 -->
<g id="edge22" class="edge"><title>Node18&#45;&gt;Node20</title>
<path fill="none" stroke="midnightblue" d="M521.881,-139.491C555.286,-133.484 598.631,-125.689 633.84,-119.358"/>
<polygon fill="midnightblue" stroke="midnightblue" points="634.789,-122.743 644.011,-117.529 633.55,-115.854 634.789,-122.743"/>
</g>
<!-- Node21 -->
<g id="node21" class="node"><title>Node21</title>
<g id="a_node21"><a xlink:href="../../de/d68/classapplication_1_1_pen_form_result.html#af1076dbdfbf821685beb0fbe8c83d9f4" target="_top" xlink:title="application.PenFormResult.get\lPenDash">
<polygon fill="white" stroke="black" points="834.5,-49 834.5,-79 995.5,-79 995.5,-49 834.5,-49"/>
<text text-anchor="start" x="842.5" y="-67" font-family="Helvetica,sans-Serif" font-size="10.00">application.PenFormResult.get</text>
<text text-anchor="middle" x="915" y="-56" font-family="Helvetica,sans-Serif" font-size="10.00">PenDash</text>
</a>
</g>
</g>
<!-- Node20&#45;&gt;Node21 -->
<g id="edge23" class="edge"><title>Node20&#45;&gt;Node21</title>
<path fill="none" stroke="midnightblue" d="M745.652,-98.4527C770.399,-93.3882 801.56,-87.011 830.325,-81.1242"/>
<polygon fill="midnightblue" stroke="midnightblue" points="831.29,-84.4993 840.385,-79.0654 829.886,-77.6415 831.29,-84.4993"/>
</g>
<!-- Node22 -->
<g id="node22" class="node"><title>Node22</title>
<g id="a_node22"><a xlink:href="../../de/d68/classapplication_1_1_pen_form_result.html#a7ebac34c61209dee90451ac962d16fd5" target="_top" xlink:title="application.PenFormResult.get\lPenUp">
<polygon fill="white" stroke="black" points="834.5,-0 834.5,-30 995.5,-30 995.5,-0 834.5,-0"/>
<text text-anchor="start" x="842.5" y="-18" font-family="Helvetica,sans-Serif" font-size="10.00">application.PenFormResult.get</text>
<text text-anchor="middle" x="915" y="-7" font-family="Helvetica,sans-Serif" font-size="10.00">PenUp</text>
</a>
</g>
</g>
<!-- Node20&#45;&gt;Node22 -->
<g id="edge24" class="edge"><title>Node20&#45;&gt;Node22</title>
<path fill="none" stroke="midnightblue" d="M713.43,-98.4979C736.124,-83.9149 781.916,-55.9306 824,-39 829.157,-36.9253 834.552,-34.975 840.028,-33.1532"/>
<polygon fill="midnightblue" stroke="midnightblue" points="841.462,-36.3703 849.938,-30.0134 839.348,-29.6973 841.462,-36.3703"/>
</g>
<!-- Node23 -->
<g id="node23" class="node"><title>Node23</title>
<g id="a_node23"><a xlink:href="../../de/d68/classapplication_1_1_pen_form_result.html#af6022e0a69d50a96ee78f27043646053" target="_top" xlink:title="application.PenFormResult.get\lPenWidth">
<polygon fill="white" stroke="black" points="834.5,-137 834.5,-167 995.5,-167 995.5,-137 834.5,-137"/>
<text text-anchor="start" x="842.5" y="-155" font-family="Helvetica,sans-Serif" font-size="10.00">application.PenFormResult.get</text>
<text text-anchor="middle" x="915" y="-144" font-family="Helvetica,sans-Serif" font-size="10.00">PenWidth</text>
</a>
</g>
</g>
<!-- Node20&#45;&gt;Node23 -->
<g id="edge25" class="edge"><title>Node20&#45;&gt;Node23</title>
<path fill="none" stroke="midnightblue" d="M745.652,-117.547C770.399,-122.612 801.56,-128.989 830.325,-134.876"/>
<polygon fill="midnightblue" stroke="midnightblue" points="829.886,-138.359 840.385,-136.935 831.29,-131.501 829.886,-138.359"/>
</g>
<!-- Node24 -->
<g id="node24" class="node"><title>Node24</title>
<g id="a_node24"><a xlink:href="../../db/df2/classapplication_1_1_pen_form.html#ac805fbb2e32beca643b8195164353c82" target="_top" xlink:title="application.PenForm.getResult">
<polygon fill="white" stroke="black" points="834.5,-98.5 834.5,-117.5 995.5,-117.5 995.5,-98.5 834.5,-98.5"/>
<text text-anchor="middle" x="915" y="-105.5" font-family="Helvetica,sans-Serif" font-size="10.00">application.PenForm.getResult</text>
</a>
</g>
</g>
<!-- Node20&#45;&gt;Node24 -->
<g id="edge26" class="edge"><title>Node20&#45;&gt;Node24</title>
<path fill="none" stroke="midnightblue" d="M775.709,-108C791.34,-108 807.918,-108 823.964,-108"/>
<polygon fill="midnightblue" stroke="midnightblue" points="824.416,-111.5 834.416,-108 824.416,-104.5 824.416,-111.5"/>
</g>
<!-- Node25 -->
<g id="node25" class="node"><title>Node25</title>
<g id="a_node25"><a xlink:href="../../da/da5/classapplication_1_1_drop_down_form_element.html#a4c3c66bc06516f9ff3466d4c08d37955" target="_top" xlink:title="application.DropDownForm\lElement.getSelectedValue">
<polygon fill="white" stroke="black" points="1062,-141 1062,-171 1208,-171 1208,-141 1062,-141"/>
<text text-anchor="start" x="1070" y="-159" font-family="Helvetica,sans-Serif" font-size="10.00">application.DropDownForm</text>
<text text-anchor="middle" x="1135" y="-148" font-family="Helvetica,sans-Serif" font-size="10.00">Element.getSelectedValue</text>
</a>
</g>
</g>
<!-- Node24&#45;&gt;Node25 -->
<g id="edge27" class="edge"><title>Node24&#45;&gt;Node25</title>
<path fill="none" stroke="midnightblue" d="M961.813,-117.535C975.988,-120.522 991.648,-123.859 1006,-127 1023.03,-130.726 1041.3,-134.814 1058.57,-138.715"/>
<polygon fill="midnightblue" stroke="midnightblue" points="1058.07,-142.191 1068.6,-140.987 1059.62,-135.364 1058.07,-142.191"/>
</g>
<!-- Node26 -->
<g id="node26" class="node"><title>Node26</title>
<g id="a_node26"><a xlink:href="../../d7/de6/classapplication_1_1_number_input_form_element.html#a4febe2c6736041a60d0515fad2036c52" target="_top" xlink:title="application.NumberInputForm\lElement.getSelectedValue">
<polygon fill="white" stroke="black" points="1055.5,-92 1055.5,-122 1214.5,-122 1214.5,-92 1055.5,-92"/>
<text text-anchor="start" x="1063.5" y="-110" font-family="Helvetica,sans-Serif" font-size="10.00">application.NumberInputForm</text>
<text text-anchor="middle" x="1135" y="-99" font-family="Helvetica,sans-Serif" font-size="10.00">Element.getSelectedValue</text>
</a>
</g>
</g>
<!-- Node24&#45;&gt;Node26 -->
<g id="edge28" class="edge"><title>Node24&#45;&gt;Node26</title>
<path fill="none" stroke="midnightblue" d="M995.628,-107.635C1011.74,-107.561 1028.79,-107.483 1045.2,-107.407"/>
<polygon fill="midnightblue" stroke="midnightblue" points="1045.33,-110.907 1055.32,-107.361 1045.3,-103.907 1045.33,-110.907"/>
</g>
<!-- Node27 -->
<g id="node27" class="node"><title>Node27</title>
<g id="a_node27"><a xlink:href="../../df/d65/classapplication_1_1_toggle_form_element.html#a181fba0f0737bc4f22baf061a0c2a956" target="_top" xlink:title="application.ToggleFormElement.get\lSelectedValue">
<polygon fill="white" stroke="black" points="1042.5,-43 1042.5,-73 1227.5,-73 1227.5,-43 1042.5,-43"/>
<text text-anchor="start" x="1050.5" y="-61" font-family="Helvetica,sans-Serif" font-size="10.00">application.ToggleFormElement.get</text>
<text text-anchor="middle" x="1135" y="-50" font-family="Helvetica,sans-Serif" font-size="10.00">SelectedValue</text>
</a>
</g>
</g>
<!-- Node24&#45;&gt;Node27 -->
<g id="edge29" class="edge"><title>Node24&#45;&gt;Node27</title>
<path fill="none" stroke="midnightblue" d="M959.511,-98.4372C974.276,-95.1638 990.863,-91.4555 1006,-88 1023.74,-83.9496 1042.85,-79.512 1060.75,-75.3213"/>
<polygon fill="midnightblue" stroke="midnightblue" points="1061.62,-78.713 1070.56,-73.0226 1060.02,-71.8978 1061.62,-78.713"/>
</g>
<!-- Node29&#45;&gt;Node6 -->
<g id="edge37" class="edge"><title>Node29&#45;&gt;Node6</title>
<path fill="none" stroke="midnightblue" d="M271.858,-246.113C293.633,-263.365 330.734,-292.149 364,-315 386.372,-330.368 412.333,-346.488 432.594,-358.706"/>
<polygon fill="midnightblue" stroke="midnightblue" points="430.809,-361.716 441.185,-363.859 434.41,-355.713 430.809,-361.716"/>
</g>
<!-- Node30 -->
<g id="node30" class="node"><title>Node30</title>
<g id="a_node30"><a xlink:href="../../d8/d3a/classviewcontroller_1_1_workspace.html#a27576951466201164923fcc7b190a42e" target="_top" xlink:title="viewcontroller.Workspace.get\lViewController">
<polygon fill="white" stroke="black" points="391,-227 391,-257 545,-257 545,-227 391,-227"/>
<text text-anchor="start" x="399" y="-245" font-family="Helvetica,sans-Serif" font-size="10.00">viewcontroller.Workspace.get</text>
<text text-anchor="middle" x="468" y="-234" font-family="Helvetica,sans-Serif" font-size="10.00">ViewController</text>
</a>
</g>
</g>
<!-- Node29&#45;&gt;Node30 -->
<g id="edge32" class="edge"><title>Node29&#45;&gt;Node30</title>
<path fill="none" stroke="midnightblue" d="M321.005,-234.496C340.06,-235.475 361.027,-236.553 380.98,-237.578"/>
<polygon fill="midnightblue" stroke="midnightblue" points="380.826,-241.075 390.993,-238.093 381.186,-234.084 380.826,-241.075"/>
</g>
<!-- Node31 -->
<g id="node31" class="node"><title>Node31</title>
<g id="a_node31"><a xlink:href="../../d3/d67/classviewcontroller_1_1_main_view_controller.html#add243b11d602448835e6422f377eb2f7" target="_top" xlink:title="viewcontroller.MainViewController.toggle\lGridLines">
<polygon fill="white" stroke="black" points="364.5,-178 364.5,-208 571.5,-208 571.5,-178 364.5,-178"/>
<text text-anchor="start" x="372.5" y="-196" font-family="Helvetica,sans-Serif" font-size="10.00">viewcontroller.MainViewController.toggle</text>
<text text-anchor="middle" x="468" y="-185" font-family="Helvetica,sans-Serif" font-size="10.00">GridLines</text>
</a>
</g>
</g>
<!-- Node29&#45;&gt;Node31 -->
<g id="edge33" class="edge"><title>Node29&#45;&gt;Node31</title>
<path fill="none" stroke="midnightblue" d="M321.005,-218.924C337.272,-216.036 354.932,-212.9 372.165,-209.84"/>
<polygon fill="midnightblue" stroke="midnightblue" points="373.015,-213.244 382.249,-208.049 371.791,-206.352 373.015,-213.244"/>
</g>
<!-- Node32 -->
<g id="node32" class="node"><title>Node32</title>
<g id="a_node32"><a xlink:href="../../d3/daf/classviewcontroller_1_1turtlegrid_1_1_turtle_window_view_controller.html#a5cb54632b9c42ee88e4e6d743fa0ea9f" target="_top" xlink:title="viewcontroller.turtlegrid.\lTurtleWindowViewController.toggle\lGridLines">
<polygon fill="white" stroke="black" points="609,-182.5 609,-223.5 787,-223.5 787,-182.5 609,-182.5"/>
<text text-anchor="start" x="617" y="-211.5" font-family="Helvetica,sans-Serif" font-size="10.00">viewcontroller.turtlegrid.</text>
<text text-anchor="start" x="617" y="-200.5" font-family="Helvetica,sans-Serif" font-size="10.00">TurtleWindowViewController.toggle</text>
<text text-anchor="middle" x="698" y="-189.5" font-family="Helvetica,sans-Serif" font-size="10.00">GridLines</text>
</a>
</g>
</g>
<!-- Node31&#45;&gt;Node32 -->
<g id="edge34" class="edge"><title>Node31&#45;&gt;Node32</title>
<path fill="none" stroke="midnightblue" d="M571.661,-197.503C580.678,-197.898 589.791,-198.298 598.771,-198.692"/>
<polygon fill="midnightblue" stroke="midnightblue" points="598.697,-202.192 608.84,-199.133 599.003,-195.198 598.697,-202.192"/>
</g>
<!-- Node33 -->
<g id="node33" class="node"><title>Node33</title>
<g id="a_node33"><a xlink:href="../../d5/dcc/classviewcontroller_1_1turtlegrid_1_1_grid_view_controller.html#a8edc5ad5113a176c219b079873081a11" target="_top" xlink:title="viewcontroller.turtlegrid.\lGridViewController.toggleGridLines">
<polygon fill="white" stroke="black" points="824.5,-189 824.5,-219 1005.5,-219 1005.5,-189 824.5,-189"/>
<text text-anchor="start" x="832.5" y="-207" font-family="Helvetica,sans-Serif" font-size="10.00">viewcontroller.turtlegrid.</text>
<text text-anchor="middle" x="915" y="-196" font-family="Helvetica,sans-Serif" font-size="10.00">GridViewController.toggleGridLines</text>
</a>
</g>
</g>
<!-- Node32&#45;&gt;Node33 -->
<g id="edge35" class="edge"><title>Node32&#45;&gt;Node33</title>
<path fill="none" stroke="midnightblue" d="M787.069,-203.41C796,-203.451 805.117,-203.494 814.16,-203.536"/>
<polygon fill="midnightblue" stroke="midnightblue" points="814.31,-207.036 824.326,-203.583 814.343,-200.036 814.31,-207.036"/>
</g>
<!-- Node34 -->
<g id="node34" class="node"><title>Node34</title>
<g id="a_node34"><a xlink:href="../../d4/d4e/classviewcontroller_1_1turtlegrid_1_1_grid_lines.html#a99fb48a214249e995686c10cd4c13dd0" target="_top" xlink:title="viewcontroller.turtlegrid.\lGridLines.toggle">
<polygon fill="white" stroke="black" points="1069.5,-190 1069.5,-220 1200.5,-220 1200.5,-190 1069.5,-190"/>
<text text-anchor="start" x="1077.5" y="-208" font-family="Helvetica,sans-Serif" font-size="10.00">viewcontroller.turtlegrid.</text>
<text text-anchor="middle" x="1135" y="-197" font-family="Helvetica,sans-Serif" font-size="10.00">GridLines.toggle</text>
</a>
</g>
</g>
<!-- Node33&#45;&gt;Node34 -->
<g id="edge36" class="edge"><title>Node33&#45;&gt;Node34</title>
<path fill="none" stroke="midnightblue" d="M1005.61,-204.411C1023.48,-204.493 1042.06,-204.578 1059.36,-204.658"/>
<polygon fill="midnightblue" stroke="midnightblue" points="1059.37,-208.158 1069.38,-204.704 1059.4,-201.158 1059.37,-208.158"/>
</g>
</g>
</svg>
        <g id="navigator" transform="translate(0 0)" fill="#404254">
                <rect fill="#f2f5e9" fill-opacity="0.5" stroke="#606060" stroke-width=".5" x="0" y="0" width="60" height="60"/>
                <use id="zoomplus" xlink:href="#zoomPlus" x="17" y="9" onmousedown="handleZoom(evt,'in')"/>
                <use id="zoomminus" xlink:href="#zoomMin" x="42" y="9" onmousedown="handleZoom(evt,'out')"/>
                <use id="reset" xlink:href="#resetDef" x="30" y="36" onmousedown="handleReset()"/>
                <g id="arrowUp" xlink:href="#dirArrow" transform="translate(30 24)" onmousedown="handlePan(0,-1)">
                  <use xlink:href="#rim" fill="#404040">
                        <set attributeName="fill" to="#808080" begin="arrowUp.mouseover" end="arrowUp.mouseout"/>
                  </use>
                  <path fill="none" stroke="white" stroke-width="1.5" d="M0,-3.0v7 M-2.5,-0.5L0,-3.0L2.5,-0.5"/>
                </g>
                <g id="arrowRight" xlink:href="#dirArrow" transform="rotate(90) translate(36 -43)" onmousedown="handlePan(1,0)">
                  <use xlink:href="#rim" fill="#404040">
                        <set attributeName="fill" to="#808080" begin="arrowRight.mouseover" end="arrowRight.mouseout"/>
                  </use>
                  <path fill="none" stroke="white" stroke-width="1.5" d="M0,-3.0v7 M-2.5,-0.5L0,-3.0L2.5,-0.5"/>
                </g>
                <g id="arrowDown" xlink:href="#dirArrow" transform="rotate(180) translate(-30 -48)" onmousedown="handlePan(0,1)">
                  <use xlink:href="#rim" fill="#404040">
                        <set attributeName="fill" to="#808080" begin="arrowDown.mouseover" end="arrowDown.mouseout"/>
                  </use>
                  <path fill="none" stroke="white" stroke-width="1.5" d="M0,-3.0v7 M-2.5,-0.5L0,-3.0L2.5,-0.5"/>
                </g>
                <g id="arrowLeft" xlink:href="#dirArrow" transform="rotate(270) translate(-36 17)" onmousedown="handlePan(-1,0)">
                  <use xlink:href="#rim" fill="#404040">
                        <set attributeName="fill" to="#808080" begin="arrowLeft.mouseover" end="arrowLeft.mouseout"/>
                  </use>
                  <path fill="none" stroke="white" stroke-width="1.5" d="M0,-3.0v7 M-2.5,-0.5L0,-3.0L2.5,-0.5"/>
                </g>
        </g>
        <svg viewBox="0 0 15 15" width="100%" height="30px" preserveAspectRatio="xMaxYMin meet">
         <g id="arrow_out" transform="scale(0.3 0.3)">
          <a xlink:href="classviewcontroller_1_1_s_logo_menu_bar_a068f788551874f8c8862c10f8f0f6253_cgraph_org.svg" target="_base">
           <rect id="button" ry="5" rx="5" y="6" x="6" height="38" width="38"
                fill="#f2f5e9" fill-opacity="0.5" stroke="#606060" stroke-width="1.0"/>
           <path id="arrow"
             d="M 11.500037,31.436501 C 11.940474,20.09759 22.043105,11.32322 32.158766,21.979434 L 37.068811,17.246167 C 37.068811,17.246167 37.088388,32 37.088388,32 L 22.160133,31.978069 C 22.160133,31.978069 26.997745,27.140456 26.997745,27.140456 C 18.528582,18.264221 13.291696,25.230495 11.500037,31.436501 z"
             style="fill:#404040;"/>
          </a>
         </g>
        </svg>
</svg>
