<?xml version="1.0" encoding="UTF-8" standalone="no"?>
<!DOCTYPE svg PUBLIC "-//W3C//DTD SVG 1.1//EN"
 "http://www.w3.org/Graphics/SVG/1.1/DTD/svg11.dtd">
<!-- Generated by graphviz version 2.36.0 (20140111.2315)
 -->
<!-- Title: model.UserDefinedCommandsModel.setVariablesForCommand Pages: 1 -->
<svg width="400pt" height="38pt"
 viewBox="0.00 0.00 400.00 38.00" xmlns="http://www.w3.org/2000/svg" xmlns:xlink="http://www.w3.org/1999/xlink">
<g id="graph0" class="graph" transform="scale(1 1) rotate(0) translate(4 34)">
<title>model.UserDefinedCommandsModel.setVariablesForCommand</title>
<polygon fill="white" stroke="none" points="-4,4 -4,-34 396,-34 396,4 -4,4"/>
<!-- Node1 -->
<g id="node1" class="node"><title>Node1</title>
<polygon fill="#bfbfbf" stroke="black" points="0,-0 0,-30 172,-30 172,-0 0,-0"/>
<text text-anchor="start" x="8" y="-18" font-family="Helvetica,sans-Serif" font-size="10.00">model.UserDefinedCommands</text>
<text text-anchor="middle" x="86" y="-7" font-family="Helvetica,sans-Serif" font-size="10.00">Model.setVariablesForCommand</text>
</g>
<!-- Node2 -->
<g id="node2" class="node"><title>Node2</title>
<g id="a_node2"><a xlink:href="../../d4/d9c/classinterpreter_1_1expression_1_1userdefined_1_1_make_user_instruction.html#af47e4795ba8563a914ab571eabe55595" target="_top" xlink:title="interpreter.expression.userdefined.\lMakeUserInstruction.evaluate">
<polygon fill="white" stroke="black" points="208,-0 208,-30 392,-30 392,-0 208,-0"/>
<text text-anchor="start" x="216" y="-18" font-family="Helvetica,sans-Serif" font-size="10.00">interpreter.expression.userdefined.</text>
<text text-anchor="middle" x="300" y="-7" font-family="Helvetica,sans-Serif" font-size="10.00">MakeUserInstruction.evaluate</text>
</a>
</g>
</g>
<!-- Node1&#45;&gt;Node2 -->
<g id="edge1" class="edge"><title>Node1&#45;&gt;Node2</title>
<path fill="none" stroke="midnightblue" d="M182.272,-15C190.736,-15 199.293,-15 207.723,-15"/>
<polygon fill="midnightblue" stroke="midnightblue" points="182.007,-11.5001 172.007,-15 182.007,-18.5001 182.007,-11.5001"/>
</g>
</g>
</svg>
