<?xml version="1.0" encoding="UTF-8" standalone="no"?>
<!DOCTYPE svg PUBLIC "-//W3C//DTD SVG 1.1//EN"
 "http://www.w3.org/Graphics/SVG/1.1/DTD/svg11.dtd">
<!-- Generated by graphviz version 2.36.0 (20140111.2315)
 -->
<!-- Title: model.UserDefinedCommandsModel.containsCommand Pages: 1 -->
<svg width="392pt" height="136pt"
 viewBox="0.00 0.00 392.00 136.00" xmlns="http://www.w3.org/2000/svg" xmlns:xlink="http://www.w3.org/1999/xlink">
<g id="graph0" class="graph" transform="scale(1 1) rotate(0) translate(4 132)">
<title>model.UserDefinedCommandsModel.containsCommand</title>
<polygon fill="white" stroke="none" points="-4,4 -4,-132 388,-132 388,4 -4,4"/>
<!-- Node1 -->
<g id="node1" class="node"><title>Node1</title>
<polygon fill="#bfbfbf" stroke="black" points="0,-49 0,-79 164,-79 164,-49 0,-49"/>
<text text-anchor="start" x="8" y="-67" font-family="Helvetica,sans-Serif" font-size="10.00">model.UserDefinedCommands</text>
<text text-anchor="middle" x="82" y="-56" font-family="Helvetica,sans-Serif" font-size="10.00">Model.containsCommand</text>
</g>
<!-- Node2 -->
<g id="node2" class="node"><title>Node2</title>
<g id="a_node2"><a xlink:href="../../d4/d9c/classinterpreter_1_1expression_1_1userdefined_1_1_make_user_instruction.html#af47e4795ba8563a914ab571eabe55595" target="_top" xlink:title="interpreter.expression.userdefined.\lMakeUserInstruction.evaluate">
<polygon fill="white" stroke="black" points="200,-98 200,-128 384,-128 384,-98 200,-98"/>
<text text-anchor="start" x="208" y="-116" font-family="Helvetica,sans-Serif" font-size="10.00">interpreter.expression.userdefined.</text>
<text text-anchor="middle" x="292" y="-105" font-family="Helvetica,sans-Serif" font-size="10.00">MakeUserInstruction.evaluate</text>
</a>
</g>
</g>
<!-- Node1&#45;&gt;Node2 -->
<g id="edge1" class="edge"><title>Node1&#45;&gt;Node2</title>
<path fill="none" stroke="midnightblue" d="M156.568,-81.3309C179.661,-86.7712 204.95,-92.7285 227.3,-97.9938"/>
<polygon fill="midnightblue" stroke="midnightblue" points="157.357,-77.9209 146.82,-79.0346 155.751,-84.7344 157.357,-77.9209"/>
</g>
<!-- Node3 -->
<g id="node3" class="node"><title>Node3</title>
<g id="a_node3"><a xlink:href="../../d3/de6/classinterpreter_1_1expression_1_1syntax_1_1_command.html#a6122e37c1c79a41ce734d9ecc07d51ba" target="_top" xlink:title="interpreter.expression.syntax.\lCommand.evaluate">
<polygon fill="white" stroke="black" points="212.5,-49 212.5,-79 371.5,-79 371.5,-49 212.5,-49"/>
<text text-anchor="start" x="220.5" y="-67" font-family="Helvetica,sans-Serif" font-size="10.00">interpreter.expression.syntax.</text>
<text text-anchor="middle" x="292" y="-56" font-family="Helvetica,sans-Serif" font-size="10.00">Command.evaluate</text>
</a>
</g>
</g>
<!-- Node1&#45;&gt;Node3 -->
<g id="edge2" class="edge"><title>Node1&#45;&gt;Node3</title>
<path fill="none" stroke="midnightblue" d="M174.133,-64C186.838,-64 199.804,-64 212.255,-64"/>
<polygon fill="midnightblue" stroke="midnightblue" points="174.014,-60.5001 164.014,-64 174.014,-67.5001 174.014,-60.5001"/>
</g>
<!-- Node4 -->
<g id="node4" class="node"><title>Node4</title>
<g id="a_node4"><a xlink:href="../../d3/de6/classinterpreter_1_1expression_1_1syntax_1_1_command.html#ad9a4da8f1b25c0de3e21d35e891053bc" target="_top" xlink:title="interpreter.expression.syntax.\lCommand.loadArguments">
<polygon fill="white" stroke="black" points="212.5,-0 212.5,-30 371.5,-30 371.5,-0 212.5,-0"/>
<text text-anchor="start" x="220.5" y="-18" font-family="Helvetica,sans-Serif" font-size="10.00">interpreter.expression.syntax.</text>
<text text-anchor="middle" x="292" y="-7" font-family="Helvetica,sans-Serif" font-size="10.00">Command.loadArguments</text>
</a>
</g>
</g>
<!-- Node1&#45;&gt;Node4 -->
<g id="edge3" class="edge"><title>Node1&#45;&gt;Node4</title>
<path fill="none" stroke="midnightblue" d="M156.568,-46.6691C179.661,-41.2288 204.95,-35.2715 227.3,-30.0062"/>
<polygon fill="midnightblue" stroke="midnightblue" points="155.751,-43.2656 146.82,-48.9654 157.357,-50.0791 155.751,-43.2656"/>
</g>
</g>
</svg>
