<?xml version="1.0" encoding="UTF-8" standalone="no"?>
<!DOCTYPE svg PUBLIC "-//W3C//DTD SVG 1.1//EN"
 "http://www.w3.org/Graphics/SVG/1.1/DTD/svg11.dtd">
<!-- Generated by graphviz version 2.36.0 (20140111.2315)
 -->
<!-- Title: model.UserDefinedCommandsModel.getVariablesForCommand Pages: 1 -->
<svg width="378pt" height="38pt"
 viewBox="0.00 0.00 378.00 38.00" xmlns="http://www.w3.org/2000/svg" xmlns:xlink="http://www.w3.org/1999/xlink">
<g id="graph0" class="graph" transform="scale(1 1) rotate(0) translate(4 34)">
<title>model.UserDefinedCommandsModel.getVariablesForCommand</title>
<polygon fill="white" stroke="none" points="-4,4 -4,-34 374,-34 374,4 -4,4"/>
<!-- Node1 -->
<g id="node1" class="node"><title>Node1</title>
<polygon fill="#bfbfbf" stroke="black" points="0.5,-0 0.5,-30 173.5,-30 173.5,-0 0.5,-0"/>
<text text-anchor="start" x="8.5" y="-18" font-family="Helvetica,sans-Serif" font-size="10.00">model.UserDefinedCommands</text>
<text text-anchor="middle" x="87" y="-7" font-family="Helvetica,sans-Serif" font-size="10.00">Model.getVariablesForCommand</text>
</g>
<!-- Node2 -->
<g id="node2" class="node"><title>Node2</title>
<g id="a_node2"><a xlink:href="../../d3/de6/classinterpreter_1_1expression_1_1syntax_1_1_command.html#ad9a4da8f1b25c0de3e21d35e891053bc" target="_top" xlink:title="interpreter.expression.syntax.\lCommand.loadArguments">
<polygon fill="white" stroke="black" points="210.5,-0 210.5,-30 369.5,-30 369.5,-0 210.5,-0"/>
<text text-anchor="start" x="218.5" y="-18" font-family="Helvetica,sans-Serif" font-size="10.00">interpreter.expression.syntax.</text>
<text text-anchor="middle" x="290" y="-7" font-family="Helvetica,sans-Serif" font-size="10.00">Command.loadArguments</text>
</a>
</g>
</g>
<!-- Node1&#45;&gt;Node2 -->
<g id="edge1" class="edge"><title>Node1&#45;&gt;Node2</title>
<path fill="none" stroke="midnightblue" d="M183.578,-15C192.507,-15 201.488,-15 210.239,-15"/>
<polygon fill="midnightblue" stroke="midnightblue" points="183.534,-11.5001 173.534,-15 183.534,-18.5001 183.534,-11.5001"/>
</g>
</g>
</svg>
