<?xml version="1.0" encoding="UTF-8" standalone="no"?>
<!DOCTYPE svg PUBLIC "-//W3C//DTD SVG 1.1//EN"
 "http://www.w3.org/Graphics/SVG/1.1/DTD/svg11.dtd">
<!-- Generated by graphviz version 2.36.0 (20140111.2315)
 -->
<!-- Title: viewcontroller.commands.UserDefinedVariablesViewController.update Pages: 1 -->
<!--zoomable 398 -->
<svg id="main" version="1.1" xmlns="http://www.w3.org/2000/svg" xmlns:xlink="http://www.w3.org/1999/xlink" xml:space="preserve" onload="init(evt)">
<style type="text/css"><![CDATA[
.edge:hover path { stroke: red; }
.edge:hover polygon { stroke: red; fill: red; }
]]></style>
<script type="text/javascript"><![CDATA[
var edges = document.getElementsByTagName('g');
if (edges && edges.length) {
  for (var i=0;i<edges.length;i++) {
    if (edges[i].id.substr(0,4)=='edge') {
      edges[i].setAttribute('class','edge');
    }
  }
}
]]></script>
        <defs>
                <circle id="rim" cx="0" cy="0" r="7"/>
                <circle id="rim2" cx="0" cy="0" r="3.5"/>
                <g id="zoomPlus">
                        <use xlink:href="#rim" fill="#404040">
                                <set attributeName="fill" to="#808080" begin="zoomplus.mouseover" end="zoomplus.mouseout"/>
                        </use>
                        <path d="M-4,0h8M0,-4v8" fill="none" stroke="white" stroke-width="1.5" pointer-events="none"/>
                </g>
                <g id="zoomMin">
                        <use xlink:href="#rim" fill="#404040">
                                <set attributeName="fill" to="#808080" begin="zoomminus.mouseover" end="zoomminus.mouseout"/>
                        </use>
                        <path d="M-4,0h8" fill="none" stroke="white" stroke-width="1.5" pointer-events="none"/>
                </g>
                <g id="dirArrow">
                        <path fill="none" stroke="white" stroke-width="1.5" d="M0,-3.0v7 M-2.5,-0.5L0,-3.0L2.5,-0.5"/>
                </g>
               <g id="resetDef">
                       <use xlink:href="#rim2" fill="#404040">
                               <set attributeName="fill" to="#808080" begin="reset.mouseover" end="reset.mouseout"/>
                       </use>
               </g>
        </defs>

<script type="text/javascript">
var viewWidth = 3450;
var viewHeight = 398;
var sectionId = 'dynsection-10';
</script>
<script xlink:href="../../svgpan.js"/>
<svg id="graph" class="graph">
<g id="viewport">
<title>viewcontroller.commands.UserDefinedVariablesViewController.update</title>
<polygon fill="white" stroke="none" points="-4,4 -4,-394 3446,-394 3446,4 -4,4"/>
<!-- Node1 -->
<g id="node1" class="node"><title>Node1</title>
<polygon fill="#bfbfbf" stroke="black" points="0,-253 0,-283 224,-283 224,-253 0,-253"/>
<text text-anchor="start" x="8" y="-271" font-family="Helvetica,sans-Serif" font-size="10.00">viewcontroller.commands.</text>
<text text-anchor="middle" x="112" y="-260" font-family="Helvetica,sans-Serif" font-size="10.00">UserDefinedVariablesViewController.update</text>
</g>
<!-- Node2 -->
<g id="node2" class="node"><title>Node2</title>
<g id="a_node2"><a xlink:href="../../d4/dc8/classviewcontroller_1_1commands_1_1_user_defined_variables_view_controller.html#a5962ceec20262091c5eb4f03b5d50e0d" target="_top" xlink:title="viewcontroller.commands.\lUserDefinedVariablesViewController.apply\lTranslations">
<polygon fill="white" stroke="black" points="264.5,-326.5 264.5,-367.5 479.5,-367.5 479.5,-326.5 264.5,-326.5"/>
<text text-anchor="start" x="272.5" y="-355.5" font-family="Helvetica,sans-Serif" font-size="10.00">viewcontroller.commands.</text>
<text text-anchor="start" x="272.5" y="-344.5" font-family="Helvetica,sans-Serif" font-size="10.00">UserDefinedVariablesViewController.apply</text>
<text text-anchor="middle" x="372" y="-333.5" font-family="Helvetica,sans-Serif" font-size="10.00">Translations</text>
</a>
</g>
</g>
<!-- Node1&#45;&gt;Node2 -->
<g id="edge1" class="edge"><title>Node1&#45;&gt;Node2</title>
<path fill="none" stroke="midnightblue" d="M155.887,-283.023C185.096,-293.075 224.714,-306.36 260,-317 267.391,-319.229 275.082,-321.469 282.814,-323.665"/>
<polygon fill="midnightblue" stroke="midnightblue" points="282.035,-327.082 292.61,-326.421 283.931,-320.344 282.035,-327.082"/>
</g>
<!-- Node4 -->
<g id="node4" class="node"><title>Node4</title>
<g id="a_node4"><a xlink:href="../../df/d55/classmodel_1_1_user_defined_variables_model.html#a34b0c7a9049a7256bd4afee2cbc6897e" target="_top" xlink:title="model.UserDefinedVariables\lModel.getAllVariables">
<polygon fill="white" stroke="black" points="296,-278 296,-308 448,-308 448,-278 296,-278"/>
<text text-anchor="start" x="304" y="-296" font-family="Helvetica,sans-Serif" font-size="10.00">model.UserDefinedVariables</text>
<text text-anchor="middle" x="372" y="-285" font-family="Helvetica,sans-Serif" font-size="10.00">Model.getAllVariables</text>
</a>
</g>
</g>
<!-- Node1&#45;&gt;Node4 -->
<g id="edge3" class="edge"><title>Node1&#45;&gt;Node4</title>
<path fill="none" stroke="midnightblue" d="M224.287,-278.784C244.844,-280.776 266.012,-282.827 285.65,-284.73"/>
<polygon fill="midnightblue" stroke="midnightblue" points="285.477,-288.229 295.768,-285.71 286.152,-281.262 285.477,-288.229"/>
</g>
<!-- Node5 -->
<g id="node5" class="node"><title>Node5</title>
<g id="a_node5"><a xlink:href="../../de/d21/classmodel_1_1_main_model.html#adbee6cf0e790fd4a478f969f14ef0dbd" target="_top" xlink:title="model.MainModel.getUserDefined\lVariables">
<polygon fill="white" stroke="black" points="282.5,-229 282.5,-259 461.5,-259 461.5,-229 282.5,-229"/>
<text text-anchor="start" x="290.5" y="-247" font-family="Helvetica,sans-Serif" font-size="10.00">model.MainModel.getUserDefined</text>
<text text-anchor="middle" x="372" y="-236" font-family="Helvetica,sans-Serif" font-size="10.00">Variables</text>
</a>
</g>
</g>
<!-- Node1&#45;&gt;Node5 -->
<g id="edge4" class="edge"><title>Node1&#45;&gt;Node5</title>
<path fill="none" stroke="midnightblue" d="M224.287,-257.648C240.174,-256.17 256.425,-254.658 272.054,-253.204"/>
<polygon fill="midnightblue" stroke="midnightblue" points="272.591,-256.67 282.224,-252.258 271.943,-249.7 272.591,-256.67"/>
</g>
<!-- Node6 -->
<g id="node6" class="node"><title>Node6</title>
<g id="a_node6"><a xlink:href="../../d4/dc8/classviewcontroller_1_1commands_1_1_user_defined_variables_view_controller.html#a12bbbabdbb3032751fe57b25e835eafc" target="_top" xlink:title="viewcontroller.commands.\lUserDefinedVariablesViewController.update\lVariableList">
<polygon fill="white" stroke="black" points="260,-169.5 260,-210.5 484,-210.5 484,-169.5 260,-169.5"/>
<text text-anchor="start" x="268" y="-198.5" font-family="Helvetica,sans-Serif" font-size="10.00">viewcontroller.commands.</text>
<text text-anchor="start" x="268" y="-187.5" font-family="Helvetica,sans-Serif" font-size="10.00">UserDefinedVariablesViewController.update</text>
<text text-anchor="middle" x="372" y="-176.5" font-family="Helvetica,sans-Serif" font-size="10.00">VariableList</text>
</a>
</g>
</g>
<!-- Node1&#45;&gt;Node6 -->
<g id="edge5" class="edge"><title>Node1&#45;&gt;Node6</title>
<path fill="none" stroke="midnightblue" d="M155.539,-252.991C184.765,-242.884 224.541,-229.529 260,-219 266.478,-217.076 273.189,-215.153 279.958,-213.264"/>
<polygon fill="midnightblue" stroke="midnightblue" points="281.184,-216.557 289.894,-210.525 279.324,-209.808 281.184,-216.557"/>
</g>
<!-- Node3 -->
<g id="node3" class="node"><title>Node3</title>
<g id="a_node3"><a xlink:href="../../d9/dd7/classviewcontroller_1_1_g_u_i_reference_library.html#ac147f33c0bfa0252d247d7c0174ff688" target="_top" xlink:title="viewcontroller.GUIReference\lLibrary.getStringTranslation">
<polygon fill="white" stroke="black" points="557.5,-332 557.5,-362 706.5,-362 706.5,-332 557.5,-332"/>
<text text-anchor="start" x="565.5" y="-350" font-family="Helvetica,sans-Serif" font-size="10.00">viewcontroller.GUIReference</text>
<text text-anchor="middle" x="632" y="-339" font-family="Helvetica,sans-Serif" font-size="10.00">Library.getStringTranslation</text>
</a>
</g>
</g>
<!-- Node2&#45;&gt;Node3 -->
<g id="edge2" class="edge"><title>Node2&#45;&gt;Node3</title>
<path fill="none" stroke="midnightblue" d="M479.801,-347C502.3,-347 525.727,-347 547.234,-347"/>
<polygon fill="midnightblue" stroke="midnightblue" points="547.297,-350.5 557.297,-347 547.297,-343.5 547.297,-350.5"/>
</g>
<!-- Node7 -->
<g id="node7" class="node"><title>Node7</title>
<g id="a_node7"><a xlink:href="../../d4/dc8/classviewcontroller_1_1commands_1_1_user_defined_variables_view_controller.html#a027a582fe22eab9a05fb0d723fbac644" target="_top" xlink:title="viewcontroller.commands.\lUserDefinedVariablesViewController.add\lVariableToList">
<polygon fill="white" stroke="black" points="528,-139.5 528,-180.5 736,-180.5 736,-139.5 528,-139.5"/>
<text text-anchor="start" x="536" y="-168.5" font-family="Helvetica,sans-Serif" font-size="10.00">viewcontroller.commands.</text>
<text text-anchor="start" x="536" y="-157.5" font-family="Helvetica,sans-Serif" font-size="10.00">UserDefinedVariablesViewController.add</text>
<text text-anchor="middle" x="632" y="-146.5" font-family="Helvetica,sans-Serif" font-size="10.00">VariableToList</text>
</a>
</g>
</g>
<!-- Node6&#45;&gt;Node7 -->
<g id="edge6" class="edge"><title>Node6&#45;&gt;Node7</title>
<path fill="none" stroke="midnightblue" d="M484.287,-177.06C495.355,-175.773 506.601,-174.465 517.69,-173.176"/>
<polygon fill="midnightblue" stroke="midnightblue" points="518.29,-176.629 527.819,-171.998 517.482,-169.676 518.29,-176.629"/>
</g>
<!-- Node43 -->
<g id="node43" class="node"><title>Node43</title>
<g id="a_node43"><a xlink:href="../../d4/d3f/classviewcontroller_1_1commands_1_1_command_list_window_view_controller.html#a606e37bfe6fc9ce9500c9a705e5f10ee" target="_top" xlink:title="viewcontroller.commands.\lCommandListWindowViewController.update\lScroller">
<polygon fill="white" stroke="black" points="520.5,-199.5 520.5,-240.5 743.5,-240.5 743.5,-199.5 520.5,-199.5"/>
<text text-anchor="start" x="528.5" y="-228.5" font-family="Helvetica,sans-Serif" font-size="10.00">viewcontroller.commands.</text>
<text text-anchor="start" x="528.5" y="-217.5" font-family="Helvetica,sans-Serif" font-size="10.00">CommandListWindowViewController.update</text>
<text text-anchor="middle" x="632" y="-206.5" font-family="Helvetica,sans-Serif" font-size="10.00">Scroller</text>
</a>
</g>
</g>
<!-- Node6&#45;&gt;Node43 -->
<g id="edge43" class="edge"><title>Node6&#45;&gt;Node43</title>
<path fill="none" stroke="midnightblue" d="M484.287,-202.94C492.913,-203.943 501.647,-204.959 510.331,-205.969"/>
<polygon fill="midnightblue" stroke="midnightblue" points="510.154,-209.472 520.491,-207.15 510.962,-202.518 510.154,-209.472"/>
</g>
<!-- Node8 -->
<g id="node8" class="node"><title>Node8</title>
<g id="a_node8"><a xlink:href="../../d4/dc8/classviewcontroller_1_1commands_1_1_user_defined_variables_view_controller.html#acac3eb9c8c5f87e3ef36c56477a0cecc" target="_top" xlink:title="viewcontroller.commands.\lUserDefinedVariablesViewController.variable\lClicked">
<polygon fill="white" stroke="black" points="780.5,-139.5 780.5,-180.5 1007.5,-180.5 1007.5,-139.5 780.5,-139.5"/>
<text text-anchor="start" x="788.5" y="-168.5" font-family="Helvetica,sans-Serif" font-size="10.00">viewcontroller.commands.</text>
<text text-anchor="start" x="788.5" y="-157.5" font-family="Helvetica,sans-Serif" font-size="10.00">UserDefinedVariablesViewController.variable</text>
<text text-anchor="middle" x="894" y="-146.5" font-family="Helvetica,sans-Serif" font-size="10.00">Clicked</text>
</a>
</g>
</g>
<!-- Node7&#45;&gt;Node8 -->
<g id="edge7" class="edge"><title>Node7&#45;&gt;Node8</title>
<path fill="none" stroke="midnightblue" d="M736.132,-160C747.204,-160 758.548,-160 769.823,-160"/>
<polygon fill="midnightblue" stroke="midnightblue" points="770.149,-163.5 780.149,-160 770.149,-156.5 770.149,-163.5"/>
</g>
<!-- Node9 -->
<g id="node9" class="node"><title>Node9</title>
<g id="a_node9"><a xlink:href="../../d4/dc8/classviewcontroller_1_1commands_1_1_user_defined_variables_view_controller.html#a14508efe9a049e27b8a7f4d0928b83cd" target="_top" xlink:title="viewcontroller.commands.\lUserDefinedVariablesViewController.key\lPressed">
<polygon fill="white" stroke="black" points="1044,-139.5 1044,-180.5 1250,-180.5 1250,-139.5 1044,-139.5"/>
<text text-anchor="start" x="1052" y="-168.5" font-family="Helvetica,sans-Serif" font-size="10.00">viewcontroller.commands.</text>
<text text-anchor="start" x="1052" y="-157.5" font-family="Helvetica,sans-Serif" font-size="10.00">UserDefinedVariablesViewController.key</text>
<text text-anchor="middle" x="1147" y="-146.5" font-family="Helvetica,sans-Serif" font-size="10.00">Pressed</text>
</a>
</g>
</g>
<!-- Node8&#45;&gt;Node9 -->
<g id="edge8" class="edge"><title>Node8&#45;&gt;Node9</title>
<path fill="none" stroke="midnightblue" d="M1007.65,-160C1016.27,-160 1024.97,-160 1033.58,-160"/>
<polygon fill="midnightblue" stroke="midnightblue" points="1033.65,-163.5 1043.65,-160 1033.65,-156.5 1033.65,-163.5"/>
</g>
<!-- Node10 -->
<g id="node10" class="node"><title>Node10</title>
<g id="a_node10"><a xlink:href="../../d0/d7c/classviewcontroller_1_1commands_1_1_command_window_container_view_controller.html#a0d7c2e3db2080741b7b01b42a0294695" target="_top" xlink:title="viewcontroller.commands.\lCommandWindowContainerViewController.pass\lSLogoCommand">
<polygon fill="white" stroke="black" points="1286,-139.5 1286,-180.5 1528,-180.5 1528,-139.5 1286,-139.5"/>
<text text-anchor="start" x="1294" y="-168.5" font-family="Helvetica,sans-Serif" font-size="10.00">viewcontroller.commands.</text>
<text text-anchor="start" x="1294" y="-157.5" font-family="Helvetica,sans-Serif" font-size="10.00">CommandWindowContainerViewController.pass</text>
<text text-anchor="middle" x="1407" y="-146.5" font-family="Helvetica,sans-Serif" font-size="10.00">SLogoCommand</text>
</a>
</g>
</g>
<!-- Node9&#45;&gt;Node10 -->
<g id="edge9" class="edge"><title>Node9&#45;&gt;Node10</title>
<path fill="none" stroke="midnightblue" d="M1250.34,-160C1258.73,-160 1267.28,-160 1275.84,-160"/>
<polygon fill="midnightblue" stroke="midnightblue" points="1275.88,-163.5 1285.88,-160 1275.88,-156.5 1275.88,-163.5"/>
</g>
<!-- Node11 -->
<g id="node11" class="node"><title>Node11</title>
<g id="a_node11"><a xlink:href="../../d3/d67/classviewcontroller_1_1_main_view_controller.html#a1b77a34d9385ff9296a9dc1db8c322cb" target="_top" xlink:title="viewcontroller.MainViewController.pass\lSLogoCommand">
<polygon fill="white" stroke="black" points="1564,-145 1564,-175 1764,-175 1764,-145 1564,-145"/>
<text text-anchor="start" x="1572" y="-163" font-family="Helvetica,sans-Serif" font-size="10.00">viewcontroller.MainViewController.pass</text>
<text text-anchor="middle" x="1664" y="-152" font-family="Helvetica,sans-Serif" font-size="10.00">SLogoCommand</text>
</a>
</g>
</g>
<!-- Node10&#45;&gt;Node11 -->
<g id="edge10" class="edge"><title>Node10&#45;&gt;Node11</title>
<path fill="none" stroke="midnightblue" d="M1528.03,-160C1536.57,-160 1545.16,-160 1553.64,-160"/>
<polygon fill="midnightblue" stroke="midnightblue" points="1553.91,-163.5 1563.91,-160 1553.91,-156.5 1553.91,-163.5"/>
</g>
<!-- Node12 -->
<g id="node12" class="node"><title>Node12</title>
<g id="a_node12"><a xlink:href="../../de/d21/classmodel_1_1_main_model.html#a96f4ff9f640f14d713c5d90ab5704884" target="_top" xlink:title="model.MainModel.interpret\lSLogoCommand">
<polygon fill="white" stroke="black" points="1800.5,-145 1800.5,-175 1945.5,-175 1945.5,-145 1800.5,-145"/>
<text text-anchor="start" x="1808.5" y="-163" font-family="Helvetica,sans-Serif" font-size="10.00">model.MainModel.interpret</text>
<text text-anchor="middle" x="1873" y="-152" font-family="Helvetica,sans-Serif" font-size="10.00">SLogoCommand</text>
</a>
</g>
</g>
<!-- Node11&#45;&gt;Node12 -->
<g id="edge11" class="edge"><title>Node11&#45;&gt;Node12</title>
<path fill="none" stroke="midnightblue" d="M1764.26,-160C1772.89,-160 1781.56,-160 1790.03,-160"/>
<polygon fill="midnightblue" stroke="midnightblue" points="1790.24,-163.5 1800.24,-160 1790.24,-156.5 1790.24,-163.5"/>
</g>
<!-- Node13 -->
<g id="node13" class="node"><title>Node13</title>
<g id="a_node13"><a xlink:href="../../db/d84/classmodel_1_1_command_history_model.html#a4587f5bb0678f50bfc8bc918d2f28241" target="_top" xlink:title="model.CommandHistoryModel.add\lCommand">
<polygon fill="white" stroke="black" points="1982.5,-238 1982.5,-268 2165.5,-268 2165.5,-238 1982.5,-238"/>
<text text-anchor="start" x="1990.5" y="-256" font-family="Helvetica,sans-Serif" font-size="10.00">model.CommandHistoryModel.add</text>
<text text-anchor="middle" x="2074" y="-245" font-family="Helvetica,sans-Serif" font-size="10.00">Command</text>
</a>
</g>
</g>
<!-- Node12&#45;&gt;Node13 -->
<g id="edge12" class="edge"><title>Node12&#45;&gt;Node13</title>
<path fill="none" stroke="midnightblue" d="M1894.09,-175.201C1915.06,-190.429 1949.36,-213.617 1982,-228 1987.47,-230.412 1993.24,-232.645 1999.1,-234.7"/>
<polygon fill="midnightblue" stroke="midnightblue" points="1998.42,-238.164 2009.02,-237.992 2000.63,-231.52 1998.42,-238.164"/>
</g>
<!-- Node14 -->
<g id="node14" class="node"><title>Node14</title>
<g id="a_node14"><a xlink:href="../../df/df6/classinterpreter_1_1result_1_1_s_logo_result.html#a6047e8ac53bae47b06b7f8daee701c43" target="_top" xlink:title="interpreter.result.SLogo\lResult.getHasError">
<polygon fill="white" stroke="black" points="2009,-189 2009,-219 2139,-219 2139,-189 2009,-189"/>
<text text-anchor="start" x="2017" y="-207" font-family="Helvetica,sans-Serif" font-size="10.00">interpreter.result.SLogo</text>
<text text-anchor="middle" x="2074" y="-196" font-family="Helvetica,sans-Serif" font-size="10.00">Result.getHasError</text>
</a>
</g>
</g>
<!-- Node12&#45;&gt;Node14 -->
<g id="edge13" class="edge"><title>Node12&#45;&gt;Node14</title>
<path fill="none" stroke="midnightblue" d="M1941.93,-175.019C1960.25,-179.071 1980.17,-183.475 1998.82,-187.598"/>
<polygon fill="midnightblue" stroke="midnightblue" points="1998.21,-191.049 2008.73,-189.79 1999.73,-184.214 1998.21,-191.049"/>
</g>
<!-- Node15 -->
<g id="node15" class="node"><title>Node15</title>
<g id="a_node15"><a xlink:href="../../d2/dc7/classinterpreter_1_1_interpreter.html#a2398aed9ce5fd0631e4a61eb0ae7e3eb" target="_top" xlink:title="interpreter.Interpreter.interpret">
<polygon fill="white" stroke="black" points="1992,-150.5 1992,-169.5 2156,-169.5 2156,-150.5 1992,-150.5"/>
<text text-anchor="middle" x="2074" y="-157.5" font-family="Helvetica,sans-Serif" font-size="10.00">interpreter.Interpreter.interpret</text>
</a>
</g>
</g>
<!-- Node12&#45;&gt;Node15 -->
<g id="edge14" class="edge"><title>Node12&#45;&gt;Node15</title>
<path fill="none" stroke="midnightblue" d="M1945.56,-160C1957.31,-160 1969.63,-160 1981.78,-160"/>
<polygon fill="midnightblue" stroke="midnightblue" points="1981.94,-163.5 1991.94,-160 1981.94,-156.5 1981.94,-163.5"/>
</g>
<!-- Node36 -->
<g id="node36" class="node"><title>Node36</title>
<g id="a_node36"><a xlink:href="../../de/d21/classmodel_1_1_main_model.html#a81fd23aa152cf9311abb569fa3c656fb" target="_top" xlink:title="model.MainModel.notifyObservers">
<polygon fill="white" stroke="black" points="1984.5,-112.5 1984.5,-131.5 2163.5,-131.5 2163.5,-112.5 1984.5,-112.5"/>
<text text-anchor="middle" x="2074" y="-119.5" font-family="Helvetica,sans-Serif" font-size="10.00">model.MainModel.notifyObservers</text>
</a>
</g>
</g>
<!-- Node12&#45;&gt;Node36 -->
<g id="edge35" class="edge"><title>Node12&#45;&gt;Node36</title>
<path fill="none" stroke="midnightblue" d="M1945.56,-146.335C1967.78,-142.092 1992.03,-137.462 2013.35,-133.391"/>
<polygon fill="midnightblue" stroke="midnightblue" points="2014.07,-136.816 2023.24,-131.503 2012.76,-129.94 2014.07,-136.816"/>
</g>
<!-- Node37 -->
<g id="node37" class="node"><title>Node37</title>
<g id="a_node37"><a xlink:href="../../de/d21/classmodel_1_1_main_model.html#a1863b9ce1cc6b16b0e03dbfc73f51314" target="_top" xlink:title="model.MainModel.updateModel">
<polygon fill="white" stroke="black" points="1991,-61.5 1991,-80.5 2157,-80.5 2157,-61.5 1991,-61.5"/>
<text text-anchor="middle" x="2074" y="-68.5" font-family="Helvetica,sans-Serif" font-size="10.00">model.MainModel.updateModel</text>
</a>
</g>
</g>
<!-- Node12&#45;&gt;Node37 -->
<g id="edge36" class="edge"><title>Node12&#45;&gt;Node37</title>
<path fill="none" stroke="midnightblue" d="M1900.09,-144.832C1921.64,-132.65 1953.25,-115.562 1982,-103 1998.27,-95.8933 2016.66,-89.1856 2032.64,-83.7648"/>
<polygon fill="midnightblue" stroke="midnightblue" points="2033.85,-87.0492 2042.23,-80.5638 2031.64,-80.4091 2033.85,-87.0492"/>
</g>
<!-- Node16 -->
<g id="node16" class="node"><title>Node16</title>
<g id="a_node16"><a xlink:href="../../da/de4/classinterpreter_1_1_expression_evaluator.html#a349369ee222f83e4370c70b449844139" target="_top" xlink:title="interpreter.ExpressionEvaluator.evaluate\lExpressionsAndMerge">
<polygon fill="white" stroke="black" points="2202,-145 2202,-175 2412,-175 2412,-145 2202,-145"/>
<text text-anchor="start" x="2210" y="-163" font-family="Helvetica,sans-Serif" font-size="10.00">interpreter.ExpressionEvaluator.evaluate</text>
<text text-anchor="middle" x="2307" y="-152" font-family="Helvetica,sans-Serif" font-size="10.00">ExpressionsAndMerge</text>
</a>
</g>
</g>
<!-- Node15&#45;&gt;Node16 -->
<g id="edge15" class="edge"><title>Node15&#45;&gt;Node16</title>
<path fill="none" stroke="midnightblue" d="M2156.12,-160C2167.7,-160 2179.78,-160 2191.85,-160"/>
<polygon fill="midnightblue" stroke="midnightblue" points="2191.97,-163.5 2201.97,-160 2191.97,-156.5 2191.97,-163.5"/>
</g>
<!-- Node22 -->
<g id="node22" class="node"><title>Node22</title>
<g id="a_node22"><a xlink:href="../../d3/da2/classinterpreter_1_1_parser.html#a27e67bfe24e33d6ac58aa3b482cd0f07" target="_top" xlink:title="interpreter.Parser.parse\lSLogoExpression">
<polygon fill="white" stroke="black" points="2242.5,-262 2242.5,-292 2371.5,-292 2371.5,-262 2242.5,-262"/>
<text text-anchor="start" x="2250.5" y="-280" font-family="Helvetica,sans-Serif" font-size="10.00">interpreter.Parser.parse</text>
<text text-anchor="middle" x="2307" y="-269" font-family="Helvetica,sans-Serif" font-size="10.00">SLogoExpression</text>
</a>
</g>
</g>
<!-- Node15&#45;&gt;Node22 -->
<g id="edge21" class="edge"><title>Node15&#45;&gt;Node22</title>
<path fill="none" stroke="midnightblue" d="M2137.72,-169.597C2147.39,-172.069 2157.11,-175.155 2166,-179 2210.42,-198.215 2255.07,-232.733 2281.63,-255.25"/>
<polygon fill="midnightblue" stroke="midnightblue" points="2279.41,-257.954 2289.27,-261.823 2283.97,-252.648 2279.41,-257.954"/>
</g>
<!-- Node17 -->
<g id="node17" class="node"><title>Node17</title>
<g id="a_node17"><a xlink:href="../../d6/d76/classinterpreter_1_1_s_logo_result_merger.html#a706aced67e4d219faa11f9821fef9000" target="_top" xlink:title="interpreter.SLogoResultMerger.append">
<polygon fill="white" stroke="black" points="2448,-125.5 2448,-144.5 2648,-144.5 2648,-125.5 2448,-125.5"/>
<text text-anchor="middle" x="2548" y="-132.5" font-family="Helvetica,sans-Serif" font-size="10.00">interpreter.SLogoResultMerger.append</text>
</a>
</g>
</g>
<!-- Node16&#45;&gt;Node17 -->
<g id="edge16" class="edge"><title>Node16&#45;&gt;Node17</title>
<path fill="none" stroke="midnightblue" d="M2412.13,-149.107C2423.31,-147.939 2434.66,-146.751 2445.8,-145.586"/>
<polygon fill="midnightblue" stroke="midnightblue" points="2446.37,-149.045 2455.95,-144.524 2445.64,-142.083 2446.37,-149.045"/>
</g>
<!-- Node18 -->
<g id="node18" class="node"><title>Node18</title>
<g id="a_node18"><a xlink:href="../../d6/d76/classinterpreter_1_1_s_logo_result_merger.html#a8c0879f8ab9d66e54b0317229ee6aa77" target="_top" xlink:title="interpreter.SLogoResultMerger.merge\lAndReturn">
<polygon fill="white" stroke="black" points="2450,-164 2450,-194 2646,-194 2646,-164 2450,-164"/>
<text text-anchor="start" x="2458" y="-182" font-family="Helvetica,sans-Serif" font-size="10.00">interpreter.SLogoResultMerger.merge</text>
<text text-anchor="middle" x="2548" y="-171" font-family="Helvetica,sans-Serif" font-size="10.00">AndReturn</text>
</a>
</g>
</g>
<!-- Node16&#45;&gt;Node18 -->
<g id="edge17" class="edge"><title>Node16&#45;&gt;Node18</title>
<path fill="none" stroke="midnightblue" d="M2412.13,-168.278C2421.37,-169.013 2430.73,-169.757 2440,-170.493"/>
<polygon fill="midnightblue" stroke="midnightblue" points="2439.75,-173.985 2449.99,-171.288 2440.3,-167.007 2439.75,-173.985"/>
</g>
<!-- Node19 -->
<g id="node19" class="node"><title>Node19</title>
<g id="a_node19"><a xlink:href="../../df/df6/classinterpreter_1_1result_1_1_s_logo_result.html#a11062748597af4f6622d9cbc92d4d9c0" target="_top" xlink:title="interpreter.result.SLogo\lResult.getTransition">
<polygon fill="white" stroke="black" points="2709,-57 2709,-87 2839,-87 2839,-57 2709,-57"/>
<text text-anchor="start" x="2717" y="-75" font-family="Helvetica,sans-Serif" font-size="10.00">interpreter.result.SLogo</text>
<text text-anchor="middle" x="2774" y="-64" font-family="Helvetica,sans-Serif" font-size="10.00">Result.getTransition</text>
</a>
</g>
</g>
<!-- Node18&#45;&gt;Node19 -->
<g id="edge18" class="edge"><title>Node18&#45;&gt;Node19</title>
<path fill="none" stroke="midnightblue" d="M2621.42,-163.951C2630.54,-161.118 2639.61,-157.819 2648,-154 2665.73,-145.93 2667.8,-139.81 2684,-129 2702.59,-116.6 2723.63,-103.1 2740.59,-92.3513"/>
<polygon fill="midnightblue" stroke="midnightblue" points="2742.46,-95.3047 2749.04,-87.0019 2738.72,-89.3883 2742.46,-95.3047"/>
</g>
<!-- Node20 -->
<g id="node20" class="node"><title>Node20</title>
<g id="a_node20"><a xlink:href="../../df/df6/classinterpreter_1_1result_1_1_s_logo_result.html#a7e050bbb65d7c7eb5e9b9970c6e2616f" target="_top" xlink:title="interpreter.result.SLogo\lResult.getValue">
<polygon fill="white" stroke="black" points="2709,-188 2709,-218 2839,-218 2839,-188 2709,-188"/>
<text text-anchor="start" x="2717" y="-206" font-family="Helvetica,sans-Serif" font-size="10.00">interpreter.result.SLogo</text>
<text text-anchor="middle" x="2774" y="-195" font-family="Helvetica,sans-Serif" font-size="10.00">Result.getValue</text>
</a>
</g>
</g>
<!-- Node18&#45;&gt;Node20 -->
<g id="edge19" class="edge"><title>Node18&#45;&gt;Node20</title>
<path fill="none" stroke="midnightblue" d="M2646.27,-189.422C2663.77,-191.297 2681.76,-193.225 2698.49,-195.017"/>
<polygon fill="midnightblue" stroke="midnightblue" points="2698.41,-198.529 2708.73,-196.114 2699.16,-191.568 2698.41,-198.529"/>
</g>
<!-- Node21 -->
<g id="node21" class="node"><title>Node21</title>
<g id="a_node21"><a xlink:href="../../df/df6/classinterpreter_1_1result_1_1_s_logo_result.html#ade0879b3224a3216bf17e17e25bfd4ca" target="_top" xlink:title="interpreter.result.SLogo\lResult.setValue">
<polygon fill="white" stroke="black" points="2709,-139 2709,-169 2839,-169 2839,-139 2709,-139"/>
<text text-anchor="start" x="2717" y="-157" font-family="Helvetica,sans-Serif" font-size="10.00">interpreter.result.SLogo</text>
<text text-anchor="middle" x="2774" y="-146" font-family="Helvetica,sans-Serif" font-size="10.00">Result.setValue</text>
</a>
</g>
</g>
<!-- Node18&#45;&gt;Node21 -->
<g id="edge20" class="edge"><title>Node18&#45;&gt;Node21</title>
<path fill="none" stroke="midnightblue" d="M2646.27,-168.144C2663.77,-166.19 2681.76,-164.183 2698.49,-162.316"/>
<polygon fill="midnightblue" stroke="midnightblue" points="2699.18,-165.761 2708.73,-161.173 2698.4,-158.804 2699.18,-165.761"/>
</g>
<!-- Node23 -->
<g id="node23" class="node"><title>Node23</title>
<g id="a_node23"><a xlink:href="../../d3/da2/classinterpreter_1_1_parser.html#aa6ccb9df4d2405de8b559ebf6fdf9c51" target="_top" xlink:title="interpreter.Parser.loadAll\lExpressionParameters">
<polygon fill="white" stroke="black" points="2481,-311 2481,-341 2615,-341 2615,-311 2481,-311"/>
<text text-anchor="start" x="2489" y="-329" font-family="Helvetica,sans-Serif" font-size="10.00">interpreter.Parser.loadAll</text>
<text text-anchor="middle" x="2548" y="-318" font-family="Helvetica,sans-Serif" font-size="10.00">ExpressionParameters</text>
</a>
</g>
</g>
<!-- Node22&#45;&gt;Node23 -->
<g id="edge22" class="edge"><title>Node22&#45;&gt;Node23</title>
<path fill="none" stroke="midnightblue" d="M2371.73,-290.067C2402.18,-296.309 2438.85,-303.827 2470.76,-310.37"/>
<polygon fill="midnightblue" stroke="midnightblue" points="2470.44,-313.877 2480.94,-312.457 2471.85,-307.02 2470.44,-313.877"/>
</g>
<!-- Node25 -->
<g id="node25" class="node"><title>Node25</title>
<g id="a_node25"><a xlink:href="../../d3/da2/classinterpreter_1_1_parser.html#a6ec7d578c175a308702b323914b4cfd0" target="_top" xlink:title="interpreter.Parser.makeExpressions\lFromInput">
<polygon fill="white" stroke="black" points="2455,-262 2455,-292 2641,-292 2641,-262 2455,-262"/>
<text text-anchor="start" x="2463" y="-280" font-family="Helvetica,sans-Serif" font-size="10.00">interpreter.Parser.makeExpressions</text>
<text text-anchor="middle" x="2548" y="-269" font-family="Helvetica,sans-Serif" font-size="10.00">FromInput</text>
</a>
</g>
</g>
<!-- Node22&#45;&gt;Node25 -->
<g id="edge24" class="edge"><title>Node22&#45;&gt;Node25</title>
<path fill="none" stroke="midnightblue" d="M2371.73,-277C2394.1,-277 2419.82,-277 2444.55,-277"/>
<polygon fill="midnightblue" stroke="midnightblue" points="2444.7,-280.5 2454.7,-277 2444.7,-273.5 2444.7,-280.5"/>
</g>
<!-- Node34 -->
<g id="node34" class="node"><title>Node34</title>
<g id="a_node34"><a xlink:href="../../d3/da2/classinterpreter_1_1_parser.html#ace7fbbc85fc2aad57bea2330b0476ef4" target="_top" xlink:title="interpreter.Parser.parse\lOutComments">
<polygon fill="white" stroke="black" points="2483.5,-213 2483.5,-243 2612.5,-243 2612.5,-213 2483.5,-213"/>
<text text-anchor="start" x="2491.5" y="-231" font-family="Helvetica,sans-Serif" font-size="10.00">interpreter.Parser.parse</text>
<text text-anchor="middle" x="2548" y="-220" font-family="Helvetica,sans-Serif" font-size="10.00">OutComments</text>
</a>
</g>
</g>
<!-- Node22&#45;&gt;Node34 -->
<g id="edge33" class="edge"><title>Node22&#45;&gt;Node34</title>
<path fill="none" stroke="midnightblue" d="M2371.73,-263.933C2403.06,-257.51 2440.98,-249.735 2473.53,-243.063"/>
<polygon fill="midnightblue" stroke="midnightblue" points="2474.35,-246.468 2483.44,-241.03 2472.94,-239.61 2474.35,-246.468"/>
</g>
<!-- Node35 -->
<g id="node35" class="node"><title>Node35</title>
<g id="a_node35"><a xlink:href="../../d3/da2/classinterpreter_1_1_parser.html#a2c8ee0acf938cac9cd22ef8fe5c77866" target="_top" xlink:title="interpreter.Parser.process\lInput">
<polygon fill="white" stroke="black" points="2478,-360 2478,-390 2618,-390 2618,-360 2478,-360"/>
<text text-anchor="start" x="2486" y="-378" font-family="Helvetica,sans-Serif" font-size="10.00">interpreter.Parser.process</text>
<text text-anchor="middle" x="2548" y="-367" font-family="Helvetica,sans-Serif" font-size="10.00">Input</text>
</a>
</g>
</g>
<!-- Node22&#45;&gt;Node35 -->
<g id="edge34" class="edge"><title>Node22&#45;&gt;Node35</title>
<path fill="none" stroke="midnightblue" d="M2332.47,-292.011C2359.79,-308.227 2405.73,-333.898 2448,-350 2454.72,-352.56 2461.79,-354.936 2468.95,-357.123"/>
<polygon fill="midnightblue" stroke="midnightblue" points="2468.13,-360.532 2478.71,-359.987 2470.1,-353.815 2468.13,-360.532"/>
</g>
<!-- Node24 -->
<g id="node24" class="node"><title>Node24</title>
<g id="a_node24"><a xlink:href="../../db/d09/interfaceinterpreter_1_1expression_1_1_s_logo_expression.html#a8bb3a17e57258a80b5becf128afaa04c" target="_top" xlink:title="interpreter.expression.SLogo\lExpression.loadArguments">
<polygon fill="white" stroke="black" points="2696.5,-311 2696.5,-341 2851.5,-341 2851.5,-311 2696.5,-311"/>
<text text-anchor="start" x="2704.5" y="-329" font-family="Helvetica,sans-Serif" font-size="10.00">interpreter.expression.SLogo</text>
<text text-anchor="middle" x="2774" y="-318" font-family="Helvetica,sans-Serif" font-size="10.00">Expression.loadArguments</text>
</a>
</g>
</g>
<!-- Node23&#45;&gt;Node24 -->
<g id="edge23" class="edge"><title>Node23&#45;&gt;Node24</title>
<path fill="none" stroke="midnightblue" d="M2615.3,-326C2637.44,-326 2662.45,-326 2685.93,-326"/>
<polygon fill="midnightblue" stroke="midnightblue" points="2686.23,-329.5 2696.23,-326 2686.23,-322.5 2686.23,-329.5"/>
</g>
<!-- Node26 -->
<g id="node26" class="node"><title>Node26</title>
<g id="a_node26"><a xlink:href="../../d8/daa/classinterpreter_1_1_s_logo_expression_factory.html#a50eb077dd9b57f111e60eb7b297b6d29" target="_top" xlink:title="interpreter.SLogoExpression\lFactory.createExpression">
<polygon fill="white" stroke="black" points="2698,-262 2698,-292 2850,-292 2850,-262 2698,-262"/>
<text text-anchor="start" x="2706" y="-280" font-family="Helvetica,sans-Serif" font-size="10.00">interpreter.SLogoExpression</text>
<text text-anchor="middle" x="2774" y="-269" font-family="Helvetica,sans-Serif" font-size="10.00">Factory.createExpression</text>
</a>
</g>
</g>
<!-- Node25&#45;&gt;Node26 -->
<g id="edge25" class="edge"><title>Node25&#45;&gt;Node26</title>
<path fill="none" stroke="midnightblue" d="M2641.08,-277C2656.37,-277 2672.18,-277 2687.31,-277"/>
<polygon fill="midnightblue" stroke="midnightblue" points="2687.66,-280.5 2697.66,-277 2687.66,-273.5 2687.66,-280.5"/>
</g>
<!-- Node27 -->
<g id="node27" class="node"><title>Node27</title>
<g id="a_node27"><a xlink:href="../../d8/daa/classinterpreter_1_1_s_logo_expression_factory.html#af866a871782317ae912240ad2e383bd9" target="_top" xlink:title="interpreter.SLogoExpression\lFactory.checkTypeAndInitialize">
<polygon fill="white" stroke="black" points="2900,-262 2900,-292 3058,-292 3058,-262 2900,-262"/>
<text text-anchor="start" x="2908" y="-280" font-family="Helvetica,sans-Serif" font-size="10.00">interpreter.SLogoExpression</text>
<text text-anchor="middle" x="2979" y="-269" font-family="Helvetica,sans-Serif" font-size="10.00">Factory.checkTypeAndInitialize</text>
</a>
</g>
</g>
<!-- Node26&#45;&gt;Node27 -->
<g id="edge26" class="edge"><title>Node26&#45;&gt;Node27</title>
<path fill="none" stroke="midnightblue" d="M2850.01,-277C2862.97,-277 2876.55,-277 2889.82,-277"/>
<polygon fill="midnightblue" stroke="midnightblue" points="2889.9,-280.5 2899.9,-277 2889.9,-273.5 2889.9,-280.5"/>
</g>
<!-- Node28 -->
<g id="node28" class="node"><title>Node28</title>
<g id="a_node28"><a xlink:href="../../d8/daa/classinterpreter_1_1_s_logo_expression_factory.html#aed195cb1e071e9e87792f7a51242f824" target="_top" xlink:title="interpreter.SLogoExpression\lFactory.initializeExpression">
<polygon fill="white" stroke="black" points="3096,-311 3096,-341 3248,-341 3248,-311 3096,-311"/>
<text text-anchor="start" x="3104" y="-329" font-family="Helvetica,sans-Serif" font-size="10.00">interpreter.SLogoExpression</text>
<text text-anchor="middle" x="3172" y="-318" font-family="Helvetica,sans-Serif" font-size="10.00">Factory.initializeExpression</text>
</a>
</g>
</g>
<!-- Node27&#45;&gt;Node28 -->
<g id="edge27" class="edge"><title>Node27&#45;&gt;Node28</title>
<path fill="none" stroke="midnightblue" d="M3038.6,-292.035C3058.86,-297.232 3081.74,-303.101 3102.71,-308.48"/>
<polygon fill="midnightblue" stroke="midnightblue" points="3101.95,-311.899 3112.51,-310.994 3103.69,-305.119 3101.95,-311.899"/>
</g>
<!-- Node32 -->
<g id="node32" class="node"><title>Node32</title>
<g id="a_node32"><a xlink:href="../../d8/daa/classinterpreter_1_1_s_logo_expression_factory.html#a67c690097a981fbc2bf840c1f619639a" target="_top" xlink:title="interpreter.SLogoExpression\lFactory.isMatch">
<polygon fill="white" stroke="black" points="3096,-262 3096,-292 3248,-292 3248,-262 3096,-262"/>
<text text-anchor="start" x="3104" y="-280" font-family="Helvetica,sans-Serif" font-size="10.00">interpreter.SLogoExpression</text>
<text text-anchor="middle" x="3172" y="-269" font-family="Helvetica,sans-Serif" font-size="10.00">Factory.isMatch</text>
</a>
</g>
</g>
<!-- Node27&#45;&gt;Node32 -->
<g id="edge31" class="edge"><title>Node27&#45;&gt;Node32</title>
<path fill="none" stroke="midnightblue" d="M3058.24,-277C3067.3,-277 3076.57,-277 3085.71,-277"/>
<polygon fill="midnightblue" stroke="midnightblue" points="3085.96,-280.5 3095.96,-277 3085.96,-273.5 3085.96,-280.5"/>
</g>
<!-- Node33 -->
<g id="node33" class="node"><title>Node33</title>
<g id="a_node33"><a xlink:href="../../db/d09/interfaceinterpreter_1_1expression_1_1_s_logo_expression.html#a035636bae1b48baf5732f091a85ca9b1" target="_top" xlink:title="interpreter.expression.SLogo\lExpression.setValue">
<polygon fill="white" stroke="black" points="3094.5,-213 3094.5,-243 3249.5,-243 3249.5,-213 3094.5,-213"/>
<text text-anchor="start" x="3102.5" y="-231" font-family="Helvetica,sans-Serif" font-size="10.00">interpreter.expression.SLogo</text>
<text text-anchor="middle" x="3172" y="-220" font-family="Helvetica,sans-Serif" font-size="10.00">Expression.setValue</text>
</a>
</g>
</g>
<!-- Node27&#45;&gt;Node33 -->
<g id="edge32" class="edge"><title>Node27&#45;&gt;Node33</title>
<path fill="none" stroke="midnightblue" d="M3038.6,-261.965C3058.86,-256.768 3081.74,-250.899 3102.71,-245.52"/>
<polygon fill="midnightblue" stroke="midnightblue" points="3103.69,-248.881 3112.51,-243.006 3101.95,-242.101 3103.69,-248.881"/>
</g>
<!-- Node29 -->
<g id="node29" class="node"><title>Node29</title>
<g id="a_node29"><a xlink:href="../../db/d09/interfaceinterpreter_1_1expression_1_1_s_logo_expression.html#a8dbb9bf4dced75bf7e423cb614958a15" target="_top" xlink:title="interpreter.expression.SLogo\lExpression.loadLibrary">
<polygon fill="white" stroke="black" points="3286.5,-360 3286.5,-390 3441.5,-390 3441.5,-360 3286.5,-360"/>
<text text-anchor="start" x="3294.5" y="-378" font-family="Helvetica,sans-Serif" font-size="10.00">interpreter.expression.SLogo</text>
<text text-anchor="middle" x="3364" y="-367" font-family="Helvetica,sans-Serif" font-size="10.00">Expression.loadLibrary</text>
</a>
</g>
</g>
<!-- Node28&#45;&gt;Node29 -->
<g id="edge28" class="edge"><title>Node28&#45;&gt;Node29</title>
<path fill="none" stroke="midnightblue" d="M3231.3,-341.035C3251.45,-346.232 3274.21,-352.101 3295.06,-357.48"/>
<polygon fill="midnightblue" stroke="midnightblue" points="3294.26,-360.886 3304.81,-359.994 3296,-354.107 3294.26,-360.886"/>
</g>
<!-- Node30 -->
<g id="node30" class="node"><title>Node30</title>
<g id="a_node30"><a xlink:href="../../db/d09/interfaceinterpreter_1_1expression_1_1_s_logo_expression.html#a85984c7b01a9e06a1f4c8d73f7752a48" target="_top" xlink:title="interpreter.expression.SLogo\lExpression.loadModel">
<polygon fill="white" stroke="black" points="3286.5,-311 3286.5,-341 3441.5,-341 3441.5,-311 3286.5,-311"/>
<text text-anchor="start" x="3294.5" y="-329" font-family="Helvetica,sans-Serif" font-size="10.00">interpreter.expression.SLogo</text>
<text text-anchor="middle" x="3364" y="-318" font-family="Helvetica,sans-Serif" font-size="10.00">Expression.loadModel</text>
</a>
</g>
</g>
<!-- Node28&#45;&gt;Node30 -->
<g id="edge29" class="edge"><title>Node28&#45;&gt;Node30</title>
<path fill="none" stroke="midnightblue" d="M3248.09,-326C3257.31,-326 3266.79,-326 3276.16,-326"/>
<polygon fill="midnightblue" stroke="midnightblue" points="3276.27,-329.5 3286.27,-326 3276.27,-322.5 3276.27,-329.5"/>
</g>
<!-- Node31 -->
<g id="node31" class="node"><title>Node31</title>
<g id="a_node31"><a xlink:href="../../db/d09/interfaceinterpreter_1_1expression_1_1_s_logo_expression.html#ae5647ebedeb07edc2902d7cf478107f7" target="_top" xlink:title="interpreter.expression.SLogo\lExpression.setNumArgs">
<polygon fill="white" stroke="black" points="3286.5,-262 3286.5,-292 3441.5,-292 3441.5,-262 3286.5,-262"/>
<text text-anchor="start" x="3294.5" y="-280" font-family="Helvetica,sans-Serif" font-size="10.00">interpreter.expression.SLogo</text>
<text text-anchor="middle" x="3364" y="-269" font-family="Helvetica,sans-Serif" font-size="10.00">Expression.setNumArgs</text>
</a>
</g>
</g>
<!-- Node28&#45;&gt;Node31 -->
<g id="edge30" class="edge"><title>Node28&#45;&gt;Node31</title>
<path fill="none" stroke="midnightblue" d="M3231.3,-310.965C3251.45,-305.768 3274.21,-299.899 3295.06,-294.52"/>
<polygon fill="midnightblue" stroke="midnightblue" points="3296,-297.893 3304.81,-292.006 3294.26,-291.114 3296,-297.893"/>
</g>
<!-- Node37&#45;&gt;Node19 -->
<g id="edge37" class="edge"><title>Node37&#45;&gt;Node19</title>
<path fill="none" stroke="midnightblue" d="M2157.12,-71.1177C2293.96,-71.3137 2566.58,-71.7043 2698.31,-71.893"/>
<polygon fill="midnightblue" stroke="midnightblue" points="2698.69,-75.3935 2708.7,-71.9079 2698.7,-68.3935 2698.69,-75.3935"/>
</g>
<!-- Node38 -->
<g id="node38" class="node"><title>Node38</title>
<g id="a_node38"><a xlink:href="../../de/d21/classmodel_1_1_main_model.html#aad9f626d0b472cbc3d57e8af0c4326cc" target="_top" xlink:title="model.MainModel.setMyAnimation">
<polygon fill="white" stroke="black" points="2216.5,-87.5 2216.5,-106.5 2397.5,-106.5 2397.5,-87.5 2216.5,-87.5"/>
<text text-anchor="middle" x="2307" y="-94.5" font-family="Helvetica,sans-Serif" font-size="10.00">model.MainModel.setMyAnimation</text>
</a>
</g>
</g>
<!-- Node37&#45;&gt;Node38 -->
<g id="edge38" class="edge"><title>Node37&#45;&gt;Node38</title>
<path fill="none" stroke="midnightblue" d="M2157.09,-80.2398C2174.71,-82.2226 2193.46,-84.3331 2211.5,-86.3639"/>
<polygon fill="midnightblue" stroke="midnightblue" points="2211.11,-89.8421 2221.44,-87.4826 2211.9,-82.886 2211.11,-89.8421"/>
</g>
<!-- Node40 -->
<g id="node40" class="node"><title>Node40</title>
<g id="a_node40"><a xlink:href="../../dd/d63/classmodel_1_1_model_updater.html#a08dce6edfc21ceba207d7a534d2bd71c" target="_top" xlink:title="model.ModelUpdater.update\lModel">
<polygon fill="white" stroke="black" points="2230.5,-0 2230.5,-30 2383.5,-30 2383.5,-0 2230.5,-0"/>
<text text-anchor="start" x="2238.5" y="-18" font-family="Helvetica,sans-Serif" font-size="10.00">model.ModelUpdater.update</text>
<text text-anchor="middle" x="2307" y="-7" font-family="Helvetica,sans-Serif" font-size="10.00">Model</text>
</a>
</g>
</g>
<!-- Node37&#45;&gt;Node40 -->
<g id="edge40" class="edge"><title>Node37&#45;&gt;Node40</title>
<path fill="none" stroke="midnightblue" d="M2114.45,-61.4369C2147.23,-53.4886 2194.74,-41.9721 2234.24,-32.3968"/>
<polygon fill="midnightblue" stroke="midnightblue" points="2235.2,-35.7651 2244.09,-30.0075 2233.55,-28.9621 2235.2,-35.7651"/>
</g>
<!-- Node39 -->
<g id="node39" class="node"><title>Node39</title>
<g id="a_node39"><a xlink:href="../../d4/d57/classturtle_1_1_turtle_list_history.html#a1d6e950f470e133d79684a9c3baf54b4" target="_top" xlink:title="turtle.TurtleListHistory.updateList">
<polygon fill="white" stroke="black" points="2461.5,-87.5 2461.5,-106.5 2634.5,-106.5 2634.5,-87.5 2461.5,-87.5"/>
<text text-anchor="middle" x="2548" y="-94.5" font-family="Helvetica,sans-Serif" font-size="10.00">turtle.TurtleListHistory.updateList</text>
</a>
</g>
</g>
<!-- Node38&#45;&gt;Node39 -->
<g id="edge39" class="edge"><title>Node38&#45;&gt;Node39</title>
<path fill="none" stroke="midnightblue" d="M2397.67,-97C2415.06,-97 2433.34,-97 2450.92,-97"/>
<polygon fill="midnightblue" stroke="midnightblue" points="2451.18,-100.5 2461.18,-97 2451.18,-93.5001 2451.18,-100.5"/>
</g>
<!-- Node41 -->
<g id="node41" class="node"><title>Node41</title>
<g id="a_node41"><a xlink:href="../../dd/d63/classmodel_1_1_model_updater.html#ad73b783b59545c68e1fb9123e44492d4" target="_top" xlink:title="model.ModelUpdater.create\lTurtleTransitionMapping">
<polygon fill="white" stroke="black" points="2473,-0 2473,-30 2623,-30 2623,-0 2473,-0"/>
<text text-anchor="start" x="2481" y="-18" font-family="Helvetica,sans-Serif" font-size="10.00">model.ModelUpdater.create</text>
<text text-anchor="middle" x="2548" y="-7" font-family="Helvetica,sans-Serif" font-size="10.00">TurtleTransitionMapping</text>
</a>
</g>
</g>
<!-- Node40&#45;&gt;Node41 -->
<g id="edge41" class="edge"><title>Node40&#45;&gt;Node41</title>
<path fill="none" stroke="midnightblue" d="M2383.62,-15C2408.73,-15 2436.85,-15 2462.58,-15"/>
<polygon fill="midnightblue" stroke="midnightblue" points="2462.69,-18.5001 2472.69,-15 2462.69,-11.5001 2462.69,-18.5001"/>
</g>
<!-- Node42 -->
<g id="node42" class="node"><title>Node42</title>
<g id="a_node42"><a xlink:href="../../dd/d63/classmodel_1_1_model_updater.html#a44e91f3e31045ca0a067ffe9d270ab29" target="_top" xlink:title="model.ModelUpdater.findSelected\lTurtles">
<polygon fill="white" stroke="black" points="2684.5,-0 2684.5,-30 2863.5,-30 2863.5,-0 2684.5,-0"/>
<text text-anchor="start" x="2692.5" y="-18" font-family="Helvetica,sans-Serif" font-size="10.00">model.ModelUpdater.findSelected</text>
<text text-anchor="middle" x="2774" y="-7" font-family="Helvetica,sans-Serif" font-size="10.00">Turtles</text>
</a>
</g>
</g>
<!-- Node41&#45;&gt;Node42 -->
<g id="edge42" class="edge"><title>Node41&#45;&gt;Node42</title>
<path fill="none" stroke="midnightblue" d="M2623.28,-15C2639.41,-15 2656.73,-15 2673.66,-15"/>
<polygon fill="midnightblue" stroke="midnightblue" points="2674.14,-18.5001 2684.14,-15 2674.14,-11.5001 2674.14,-18.5001"/>
</g>
</g>
</svg>
        <g id="navigator" transform="translate(0 0)" fill="#404254">
                <rect fill="#f2f5e9" fill-opacity="0.5" stroke="#606060" stroke-width=".5" x="0" y="0" width="60" height="60"/>
                <use id="zoomplus" xlink:href="#zoomPlus" x="17" y="9" onmousedown="handleZoom(evt,'in')"/>
                <use id="zoomminus" xlink:href="#zoomMin" x="42" y="9" onmousedown="handleZoom(evt,'out')"/>
                <use id="reset" xlink:href="#resetDef" x="30" y="36" onmousedown="handleReset()"/>
                <g id="arrowUp" xlink:href="#dirArrow" transform="translate(30 24)" onmousedown="handlePan(0,-1)">
                  <use xlink:href="#rim" fill="#404040">
                        <set attributeName="fill" to="#808080" begin="arrowUp.mouseover" end="arrowUp.mouseout"/>
                  </use>
                  <path fill="none" stroke="white" stroke-width="1.5" d="M0,-3.0v7 M-2.5,-0.5L0,-3.0L2.5,-0.5"/>
                </g>
                <g id="arrowRight" xlink:href="#dirArrow" transform="rotate(90) translate(36 -43)" onmousedown="handlePan(1,0)">
                  <use xlink:href="#rim" fill="#404040">
                        <set attributeName="fill" to="#808080" begin="arrowRight.mouseover" end="arrowRight.mouseout"/>
                  </use>
                  <path fill="none" stroke="white" stroke-width="1.5" d="M0,-3.0v7 M-2.5,-0.5L0,-3.0L2.5,-0.5"/>
                </g>
                <g id="arrowDown" xlink:href="#dirArrow" transform="rotate(180) translate(-30 -48)" onmousedown="handlePan(0,1)">
                  <use xlink:href="#rim" fill="#404040">
                        <set attributeName="fill" to="#808080" begin="arrowDown.mouseover" end="arrowDown.mouseout"/>
                  </use>
                  <path fill="none" stroke="white" stroke-width="1.5" d="M0,-3.0v7 M-2.5,-0.5L0,-3.0L2.5,-0.5"/>
                </g>
                <g id="arrowLeft" xlink:href="#dirArrow" transform="rotate(270) translate(-36 17)" onmousedown="handlePan(-1,0)">
                  <use xlink:href="#rim" fill="#404040">
                        <set attributeName="fill" to="#808080" begin="arrowLeft.mouseover" end="arrowLeft.mouseout"/>
                  </use>
                  <path fill="none" stroke="white" stroke-width="1.5" d="M0,-3.0v7 M-2.5,-0.5L0,-3.0L2.5,-0.5"/>
                </g>
        </g>
        <svg viewBox="0 0 15 15" width="100%" height="30px" preserveAspectRatio="xMaxYMin meet">
         <g id="arrow_out" transform="scale(0.3 0.3)">
          <a xlink:href="classviewcontroller_1_1commands_1_1_user_defined_variables_view_controller_a1e84f755902379519ddf5438bc2d27ee_cgraph_org.svg" target="_base">
           <rect id="button" ry="5" rx="5" y="6" x="6" height="38" width="38"
                fill="#f2f5e9" fill-opacity="0.5" stroke="#606060" stroke-width="1.0"/>
           <path id="arrow"
             d="M 11.500037,31.436501 C 11.940474,20.09759 22.043105,11.32322 32.158766,21.979434 L 37.068811,17.246167 C 37.068811,17.246167 37.088388,32 37.088388,32 L 22.160133,31.978069 C 22.160133,31.978069 26.997745,27.140456 26.997745,27.140456 C 18.528582,18.264221 13.291696,25.230495 11.500037,31.436501 z"
             style="fill:#404040;"/>
          </a>
         </g>
        </svg>
</svg>
