<?xml version="1.0" encoding="UTF-8" standalone="no"?>
<!DOCTYPE svg PUBLIC "-//W3C//DTD SVG 1.1//EN"
 "http://www.w3.org/Graphics/SVG/1.1/DTD/svg11.dtd">
<!-- Generated by graphviz version 2.36.0 (20140111.2315)
 -->
<!-- Title: viewcontroller.commands.UserDefinedVariablesViewController.keyPressed Pages: 1 -->
<svg width="2406pt" height="398pt"
 viewBox="0.00 0.00 2406.00 398.00" xmlns="http://www.w3.org/2000/svg" xmlns:xlink="http://www.w3.org/1999/xlink">
<g id="graph0" class="graph" transform="scale(1 1) rotate(0) translate(4 394)">
<title>viewcontroller.commands.UserDefinedVariablesViewController.keyPressed</title>
<polygon fill="white" stroke="none" points="-4,4 -4,-394 2402,-394 2402,4 -4,4"/>
<!-- Node1 -->
<g id="node1" class="node"><title>Node1</title>
<polygon fill="#bfbfbf" stroke="black" points="0,-139.5 0,-180.5 206,-180.5 206,-139.5 0,-139.5"/>
<text text-anchor="start" x="8" y="-168.5" font-family="Helvetica,sans-Serif" font-size="10.00">viewcontroller.commands.</text>
<text text-anchor="start" x="8" y="-157.5" font-family="Helvetica,sans-Serif" font-size="10.00">UserDefinedVariablesViewController.key</text>
<text text-anchor="middle" x="103" y="-146.5" font-family="Helvetica,sans-Serif" font-size="10.00">Pressed</text>
</g>
<!-- Node2 -->
<g id="node2" class="node"><title>Node2</title>
<g id="a_node2"><a xlink:href="../../d0/d7c/classviewcontroller_1_1commands_1_1_command_window_container_view_controller.html#a0d7c2e3db2080741b7b01b42a0294695" target="_top" xlink:title="viewcontroller.commands.\lCommandWindowContainerViewController.pass\lSLogoCommand">
<polygon fill="white" stroke="black" points="242,-139.5 242,-180.5 484,-180.5 484,-139.5 242,-139.5"/>
<text text-anchor="start" x="250" y="-168.5" font-family="Helvetica,sans-Serif" font-size="10.00">viewcontroller.commands.</text>
<text text-anchor="start" x="250" y="-157.5" font-family="Helvetica,sans-Serif" font-size="10.00">CommandWindowContainerViewController.pass</text>
<text text-anchor="middle" x="363" y="-146.5" font-family="Helvetica,sans-Serif" font-size="10.00">SLogoCommand</text>
</a>
</g>
</g>
<!-- Node1&#45;&gt;Node2 -->
<g id="edge1" class="edge"><title>Node1&#45;&gt;Node2</title>
<path fill="none" stroke="midnightblue" d="M206.339,-160C214.732,-160 223.282,-160 231.839,-160"/>
<polygon fill="midnightblue" stroke="midnightblue" points="231.879,-163.5 241.879,-160 231.879,-156.5 231.879,-163.5"/>
</g>
<!-- Node3 -->
<g id="node3" class="node"><title>Node3</title>
<g id="a_node3"><a xlink:href="../../d3/d67/classviewcontroller_1_1_main_view_controller.html#a1b77a34d9385ff9296a9dc1db8c322cb" target="_top" xlink:title="viewcontroller.MainViewController.pass\lSLogoCommand">
<polygon fill="white" stroke="black" points="520,-145 520,-175 720,-175 720,-145 520,-145"/>
<text text-anchor="start" x="528" y="-163" font-family="Helvetica,sans-Serif" font-size="10.00">viewcontroller.MainViewController.pass</text>
<text text-anchor="middle" x="620" y="-152" font-family="Helvetica,sans-Serif" font-size="10.00">SLogoCommand</text>
</a>
</g>
</g>
<!-- Node2&#45;&gt;Node3 -->
<g id="edge2" class="edge"><title>Node2&#45;&gt;Node3</title>
<path fill="none" stroke="midnightblue" d="M484.033,-160C492.574,-160 501.16,-160 509.636,-160"/>
<polygon fill="midnightblue" stroke="midnightblue" points="509.911,-163.5 519.911,-160 509.911,-156.5 509.911,-163.5"/>
</g>
<!-- Node4 -->
<g id="node4" class="node"><title>Node4</title>
<g id="a_node4"><a xlink:href="../../de/d21/classmodel_1_1_main_model.html#a96f4ff9f640f14d713c5d90ab5704884" target="_top" xlink:title="model.MainModel.interpret\lSLogoCommand">
<polygon fill="white" stroke="black" points="756.5,-145 756.5,-175 901.5,-175 901.5,-145 756.5,-145"/>
<text text-anchor="start" x="764.5" y="-163" font-family="Helvetica,sans-Serif" font-size="10.00">model.MainModel.interpret</text>
<text text-anchor="middle" x="829" y="-152" font-family="Helvetica,sans-Serif" font-size="10.00">SLogoCommand</text>
</a>
</g>
</g>
<!-- Node3&#45;&gt;Node4 -->
<g id="edge3" class="edge"><title>Node3&#45;&gt;Node4</title>
<path fill="none" stroke="midnightblue" d="M720.256,-160C728.887,-160 737.557,-160 746.026,-160"/>
<polygon fill="midnightblue" stroke="midnightblue" points="746.24,-163.5 756.24,-160 746.24,-156.5 746.24,-163.5"/>
</g>
<!-- Node5 -->
<g id="node5" class="node"><title>Node5</title>
<g id="a_node5"><a xlink:href="../../db/d84/classmodel_1_1_command_history_model.html#a4587f5bb0678f50bfc8bc918d2f28241" target="_top" xlink:title="model.CommandHistoryModel.add\lCommand">
<polygon fill="white" stroke="black" points="938.5,-238 938.5,-268 1121.5,-268 1121.5,-238 938.5,-238"/>
<text text-anchor="start" x="946.5" y="-256" font-family="Helvetica,sans-Serif" font-size="10.00">model.CommandHistoryModel.add</text>
<text text-anchor="middle" x="1030" y="-245" font-family="Helvetica,sans-Serif" font-size="10.00">Command</text>
</a>
</g>
</g>
<!-- Node4&#45;&gt;Node5 -->
<g id="edge4" class="edge"><title>Node4&#45;&gt;Node5</title>
<path fill="none" stroke="midnightblue" d="M850.093,-175.201C871.055,-190.429 905.355,-213.617 938,-228 943.475,-230.412 949.239,-232.645 955.099,-234.7"/>
<polygon fill="midnightblue" stroke="midnightblue" points="954.424,-238.164 965.017,-237.992 956.629,-231.52 954.424,-238.164"/>
</g>
<!-- Node6 -->
<g id="node6" class="node"><title>Node6</title>
<g id="a_node6"><a xlink:href="../../df/df6/classinterpreter_1_1result_1_1_s_logo_result.html#a6047e8ac53bae47b06b7f8daee701c43" target="_top" xlink:title="interpreter.result.SLogo\lResult.getHasError">
<polygon fill="white" stroke="black" points="965,-189 965,-219 1095,-219 1095,-189 965,-189"/>
<text text-anchor="start" x="973" y="-207" font-family="Helvetica,sans-Serif" font-size="10.00">interpreter.result.SLogo</text>
<text text-anchor="middle" x="1030" y="-196" font-family="Helvetica,sans-Serif" font-size="10.00">Result.getHasError</text>
</a>
</g>
</g>
<!-- Node4&#45;&gt;Node6 -->
<g id="edge5" class="edge"><title>Node4&#45;&gt;Node6</title>
<path fill="none" stroke="midnightblue" d="M897.928,-175.019C916.253,-179.071 936.172,-183.475 954.819,-187.598"/>
<polygon fill="midnightblue" stroke="midnightblue" points="954.214,-191.049 964.734,-189.79 955.725,-184.214 954.214,-191.049"/>
</g>
<!-- Node7 -->
<g id="node7" class="node"><title>Node7</title>
<g id="a_node7"><a xlink:href="../../d2/dc7/classinterpreter_1_1_interpreter.html#a2398aed9ce5fd0631e4a61eb0ae7e3eb" target="_top" xlink:title="interpreter.Interpreter.interpret">
<polygon fill="white" stroke="black" points="948,-150.5 948,-169.5 1112,-169.5 1112,-150.5 948,-150.5"/>
<text text-anchor="middle" x="1030" y="-157.5" font-family="Helvetica,sans-Serif" font-size="10.00">interpreter.Interpreter.interpret</text>
</a>
</g>
</g>
<!-- Node4&#45;&gt;Node7 -->
<g id="edge6" class="edge"><title>Node4&#45;&gt;Node7</title>
<path fill="none" stroke="midnightblue" d="M901.562,-160C913.315,-160 925.633,-160 937.785,-160"/>
<polygon fill="midnightblue" stroke="midnightblue" points="937.937,-163.5 947.937,-160 937.937,-156.5 937.937,-163.5"/>
</g>
<!-- Node28 -->
<g id="node28" class="node"><title>Node28</title>
<g id="a_node28"><a xlink:href="../../de/d21/classmodel_1_1_main_model.html#a81fd23aa152cf9311abb569fa3c656fb" target="_top" xlink:title="model.MainModel.notifyObservers">
<polygon fill="white" stroke="black" points="940.5,-112.5 940.5,-131.5 1119.5,-131.5 1119.5,-112.5 940.5,-112.5"/>
<text text-anchor="middle" x="1030" y="-119.5" font-family="Helvetica,sans-Serif" font-size="10.00">model.MainModel.notifyObservers</text>
</a>
</g>
</g>
<!-- Node4&#45;&gt;Node28 -->
<g id="edge27" class="edge"><title>Node4&#45;&gt;Node28</title>
<path fill="none" stroke="midnightblue" d="M901.562,-146.335C923.783,-142.092 948.027,-137.462 969.347,-133.391"/>
<polygon fill="midnightblue" stroke="midnightblue" points="970.071,-136.816 979.237,-131.503 968.758,-129.94 970.071,-136.816"/>
</g>
<!-- Node29 -->
<g id="node29" class="node"><title>Node29</title>
<g id="a_node29"><a xlink:href="../../de/d21/classmodel_1_1_main_model.html#a1863b9ce1cc6b16b0e03dbfc73f51314" target="_top" xlink:title="model.MainModel.updateModel">
<polygon fill="white" stroke="black" points="947,-61.5 947,-80.5 1113,-80.5 1113,-61.5 947,-61.5"/>
<text text-anchor="middle" x="1030" y="-68.5" font-family="Helvetica,sans-Serif" font-size="10.00">model.MainModel.updateModel</text>
</a>
</g>
</g>
<!-- Node4&#45;&gt;Node29 -->
<g id="edge28" class="edge"><title>Node4&#45;&gt;Node29</title>
<path fill="none" stroke="midnightblue" d="M856.094,-144.832C877.642,-132.65 909.246,-115.562 938,-103 954.267,-95.8933 972.665,-89.1856 988.64,-83.7648"/>
<polygon fill="midnightblue" stroke="midnightblue" points="989.855,-87.0492 998.233,-80.5638 987.639,-80.4091 989.855,-87.0492"/>
</g>
<!-- Node8 -->
<g id="node8" class="node"><title>Node8</title>
<g id="a_node8"><a xlink:href="../../da/de4/classinterpreter_1_1_expression_evaluator.html#a349369ee222f83e4370c70b449844139" target="_top" xlink:title="interpreter.ExpressionEvaluator.evaluate\lExpressionsAndMerge">
<polygon fill="white" stroke="black" points="1158,-145 1158,-175 1368,-175 1368,-145 1158,-145"/>
<text text-anchor="start" x="1166" y="-163" font-family="Helvetica,sans-Serif" font-size="10.00">interpreter.ExpressionEvaluator.evaluate</text>
<text text-anchor="middle" x="1263" y="-152" font-family="Helvetica,sans-Serif" font-size="10.00">ExpressionsAndMerge</text>
</a>
</g>
</g>
<!-- Node7&#45;&gt;Node8 -->
<g id="edge7" class="edge"><title>Node7&#45;&gt;Node8</title>
<path fill="none" stroke="midnightblue" d="M1112.12,-160C1123.7,-160 1135.78,-160 1147.85,-160"/>
<polygon fill="midnightblue" stroke="midnightblue" points="1147.97,-163.5 1157.97,-160 1147.97,-156.5 1147.97,-163.5"/>
</g>
<!-- Node14 -->
<g id="node14" class="node"><title>Node14</title>
<g id="a_node14"><a xlink:href="../../d3/da2/classinterpreter_1_1_parser.html#a27e67bfe24e33d6ac58aa3b482cd0f07" target="_top" xlink:title="interpreter.Parser.parse\lSLogoExpression">
<polygon fill="white" stroke="black" points="1198.5,-262 1198.5,-292 1327.5,-292 1327.5,-262 1198.5,-262"/>
<text text-anchor="start" x="1206.5" y="-280" font-family="Helvetica,sans-Serif" font-size="10.00">interpreter.Parser.parse</text>
<text text-anchor="middle" x="1263" y="-269" font-family="Helvetica,sans-Serif" font-size="10.00">SLogoExpression</text>
</a>
</g>
</g>
<!-- Node7&#45;&gt;Node14 -->
<g id="edge13" class="edge"><title>Node7&#45;&gt;Node14</title>
<path fill="none" stroke="midnightblue" d="M1093.72,-169.597C1103.39,-172.069 1113.11,-175.155 1122,-179 1166.42,-198.215 1211.07,-232.733 1237.63,-255.25"/>
<polygon fill="midnightblue" stroke="midnightblue" points="1235.41,-257.954 1245.27,-261.823 1239.97,-252.648 1235.41,-257.954"/>
</g>
<!-- Node9 -->
<g id="node9" class="node"><title>Node9</title>
<g id="a_node9"><a xlink:href="../../d6/d76/classinterpreter_1_1_s_logo_result_merger.html#a706aced67e4d219faa11f9821fef9000" target="_top" xlink:title="interpreter.SLogoResultMerger.append">
<polygon fill="white" stroke="black" points="1404,-125.5 1404,-144.5 1604,-144.5 1604,-125.5 1404,-125.5"/>
<text text-anchor="middle" x="1504" y="-132.5" font-family="Helvetica,sans-Serif" font-size="10.00">interpreter.SLogoResultMerger.append</text>
</a>
</g>
</g>
<!-- Node8&#45;&gt;Node9 -->
<g id="edge8" class="edge"><title>Node8&#45;&gt;Node9</title>
<path fill="none" stroke="midnightblue" d="M1368.13,-149.107C1379.31,-147.939 1390.66,-146.751 1401.8,-145.586"/>
<polygon fill="midnightblue" stroke="midnightblue" points="1402.37,-149.045 1411.95,-144.524 1401.64,-142.083 1402.37,-149.045"/>
</g>
<!-- Node10 -->
<g id="node10" class="node"><title>Node10</title>
<g id="a_node10"><a xlink:href="../../d6/d76/classinterpreter_1_1_s_logo_result_merger.html#a8c0879f8ab9d66e54b0317229ee6aa77" target="_top" xlink:title="interpreter.SLogoResultMerger.merge\lAndReturn">
<polygon fill="white" stroke="black" points="1406,-164 1406,-194 1602,-194 1602,-164 1406,-164"/>
<text text-anchor="start" x="1414" y="-182" font-family="Helvetica,sans-Serif" font-size="10.00">interpreter.SLogoResultMerger.merge</text>
<text text-anchor="middle" x="1504" y="-171" font-family="Helvetica,sans-Serif" font-size="10.00">AndReturn</text>
</a>
</g>
</g>
<!-- Node8&#45;&gt;Node10 -->
<g id="edge9" class="edge"><title>Node8&#45;&gt;Node10</title>
<path fill="none" stroke="midnightblue" d="M1368.13,-168.278C1377.37,-169.013 1386.73,-169.757 1396,-170.493"/>
<polygon fill="midnightblue" stroke="midnightblue" points="1395.75,-173.985 1405.99,-171.288 1396.3,-167.007 1395.75,-173.985"/>
</g>
<!-- Node11 -->
<g id="node11" class="node"><title>Node11</title>
<g id="a_node11"><a xlink:href="../../df/df6/classinterpreter_1_1result_1_1_s_logo_result.html#a11062748597af4f6622d9cbc92d4d9c0" target="_top" xlink:title="interpreter.result.SLogo\lResult.getTransition">
<polygon fill="white" stroke="black" points="1665,-57 1665,-87 1795,-87 1795,-57 1665,-57"/>
<text text-anchor="start" x="1673" y="-75" font-family="Helvetica,sans-Serif" font-size="10.00">interpreter.result.SLogo</text>
<text text-anchor="middle" x="1730" y="-64" font-family="Helvetica,sans-Serif" font-size="10.00">Result.getTransition</text>
</a>
</g>
</g>
<!-- Node10&#45;&gt;Node11 -->
<g id="edge10" class="edge"><title>Node10&#45;&gt;Node11</title>
<path fill="none" stroke="midnightblue" d="M1577.42,-163.951C1586.54,-161.118 1595.61,-157.819 1604,-154 1621.73,-145.93 1623.8,-139.81 1640,-129 1658.59,-116.6 1679.63,-103.1 1696.59,-92.3513"/>
<polygon fill="midnightblue" stroke="midnightblue" points="1698.46,-95.3047 1705.04,-87.0019 1694.72,-89.3883 1698.46,-95.3047"/>
</g>
<!-- Node12 -->
<g id="node12" class="node"><title>Node12</title>
<g id="a_node12"><a xlink:href="../../df/df6/classinterpreter_1_1result_1_1_s_logo_result.html#a7e050bbb65d7c7eb5e9b9970c6e2616f" target="_top" xlink:title="interpreter.result.SLogo\lResult.getValue">
<polygon fill="white" stroke="black" points="1665,-188 1665,-218 1795,-218 1795,-188 1665,-188"/>
<text text-anchor="start" x="1673" y="-206" font-family="Helvetica,sans-Serif" font-size="10.00">interpreter.result.SLogo</text>
<text text-anchor="middle" x="1730" y="-195" font-family="Helvetica,sans-Serif" font-size="10.00">Result.getValue</text>
</a>
</g>
</g>
<!-- Node10&#45;&gt;Node12 -->
<g id="edge11" class="edge"><title>Node10&#45;&gt;Node12</title>
<path fill="none" stroke="midnightblue" d="M1602.27,-189.422C1619.77,-191.297 1637.76,-193.225 1654.49,-195.017"/>
<polygon fill="midnightblue" stroke="midnightblue" points="1654.41,-198.529 1664.73,-196.114 1655.16,-191.568 1654.41,-198.529"/>
</g>
<!-- Node13 -->
<g id="node13" class="node"><title>Node13</title>
<g id="a_node13"><a xlink:href="../../df/df6/classinterpreter_1_1result_1_1_s_logo_result.html#ade0879b3224a3216bf17e17e25bfd4ca" target="_top" xlink:title="interpreter.result.SLogo\lResult.setValue">
<polygon fill="white" stroke="black" points="1665,-139 1665,-169 1795,-169 1795,-139 1665,-139"/>
<text text-anchor="start" x="1673" y="-157" font-family="Helvetica,sans-Serif" font-size="10.00">interpreter.result.SLogo</text>
<text text-anchor="middle" x="1730" y="-146" font-family="Helvetica,sans-Serif" font-size="10.00">Result.setValue</text>
</a>
</g>
</g>
<!-- Node10&#45;&gt;Node13 -->
<g id="edge12" class="edge"><title>Node10&#45;&gt;Node13</title>
<path fill="none" stroke="midnightblue" d="M1602.27,-168.144C1619.77,-166.19 1637.76,-164.183 1654.49,-162.316"/>
<polygon fill="midnightblue" stroke="midnightblue" points="1655.18,-165.761 1664.73,-161.173 1654.4,-158.804 1655.18,-165.761"/>
</g>
<!-- Node15 -->
<g id="node15" class="node"><title>Node15</title>
<g id="a_node15"><a xlink:href="../../d3/da2/classinterpreter_1_1_parser.html#aa6ccb9df4d2405de8b559ebf6fdf9c51" target="_top" xlink:title="interpreter.Parser.loadAll\lExpressionParameters">
<polygon fill="white" stroke="black" points="1437,-311 1437,-341 1571,-341 1571,-311 1437,-311"/>
<text text-anchor="start" x="1445" y="-329" font-family="Helvetica,sans-Serif" font-size="10.00">interpreter.Parser.loadAll</text>
<text text-anchor="middle" x="1504" y="-318" font-family="Helvetica,sans-Serif" font-size="10.00">ExpressionParameters</text>
</a>
</g>
</g>
<!-- Node14&#45;&gt;Node15 -->
<g id="edge14" class="edge"><title>Node14&#45;&gt;Node15</title>
<path fill="none" stroke="midnightblue" d="M1327.73,-290.067C1358.18,-296.309 1394.85,-303.827 1426.76,-310.37"/>
<polygon fill="midnightblue" stroke="midnightblue" points="1426.44,-313.877 1436.94,-312.457 1427.85,-307.02 1426.44,-313.877"/>
</g>
<!-- Node17 -->
<g id="node17" class="node"><title>Node17</title>
<g id="a_node17"><a xlink:href="../../d3/da2/classinterpreter_1_1_parser.html#a6ec7d578c175a308702b323914b4cfd0" target="_top" xlink:title="interpreter.Parser.makeExpressions\lFromInput">
<polygon fill="white" stroke="black" points="1411,-262 1411,-292 1597,-292 1597,-262 1411,-262"/>
<text text-anchor="start" x="1419" y="-280" font-family="Helvetica,sans-Serif" font-size="10.00">interpreter.Parser.makeExpressions</text>
<text text-anchor="middle" x="1504" y="-269" font-family="Helvetica,sans-Serif" font-size="10.00">FromInput</text>
</a>
</g>
</g>
<!-- Node14&#45;&gt;Node17 -->
<g id="edge16" class="edge"><title>Node14&#45;&gt;Node17</title>
<path fill="none" stroke="midnightblue" d="M1327.73,-277C1350.1,-277 1375.82,-277 1400.55,-277"/>
<polygon fill="midnightblue" stroke="midnightblue" points="1400.7,-280.5 1410.7,-277 1400.7,-273.5 1400.7,-280.5"/>
</g>
<!-- Node26 -->
<g id="node26" class="node"><title>Node26</title>
<g id="a_node26"><a xlink:href="../../d3/da2/classinterpreter_1_1_parser.html#ace7fbbc85fc2aad57bea2330b0476ef4" target="_top" xlink:title="interpreter.Parser.parse\lOutComments">
<polygon fill="white" stroke="black" points="1439.5,-213 1439.5,-243 1568.5,-243 1568.5,-213 1439.5,-213"/>
<text text-anchor="start" x="1447.5" y="-231" font-family="Helvetica,sans-Serif" font-size="10.00">interpreter.Parser.parse</text>
<text text-anchor="middle" x="1504" y="-220" font-family="Helvetica,sans-Serif" font-size="10.00">OutComments</text>
</a>
</g>
</g>
<!-- Node14&#45;&gt;Node26 -->
<g id="edge25" class="edge"><title>Node14&#45;&gt;Node26</title>
<path fill="none" stroke="midnightblue" d="M1327.73,-263.933C1359.06,-257.51 1396.98,-249.735 1429.53,-243.063"/>
<polygon fill="midnightblue" stroke="midnightblue" points="1430.35,-246.468 1439.44,-241.03 1428.94,-239.61 1430.35,-246.468"/>
</g>
<!-- Node27 -->
<g id="node27" class="node"><title>Node27</title>
<g id="a_node27"><a xlink:href="../../d3/da2/classinterpreter_1_1_parser.html#a2c8ee0acf938cac9cd22ef8fe5c77866" target="_top" xlink:title="interpreter.Parser.process\lInput">
<polygon fill="white" stroke="black" points="1434,-360 1434,-390 1574,-390 1574,-360 1434,-360"/>
<text text-anchor="start" x="1442" y="-378" font-family="Helvetica,sans-Serif" font-size="10.00">interpreter.Parser.process</text>
<text text-anchor="middle" x="1504" y="-367" font-family="Helvetica,sans-Serif" font-size="10.00">Input</text>
</a>
</g>
</g>
<!-- Node14&#45;&gt;Node27 -->
<g id="edge26" class="edge"><title>Node14&#45;&gt;Node27</title>
<path fill="none" stroke="midnightblue" d="M1288.47,-292.011C1315.79,-308.227 1361.73,-333.898 1404,-350 1410.72,-352.56 1417.79,-354.936 1424.95,-357.123"/>
<polygon fill="midnightblue" stroke="midnightblue" points="1424.13,-360.532 1434.71,-359.987 1426.1,-353.815 1424.13,-360.532"/>
</g>
<!-- Node16 -->
<g id="node16" class="node"><title>Node16</title>
<g id="a_node16"><a xlink:href="../../db/d09/interfaceinterpreter_1_1expression_1_1_s_logo_expression.html#a8bb3a17e57258a80b5becf128afaa04c" target="_top" xlink:title="interpreter.expression.SLogo\lExpression.loadArguments">
<polygon fill="white" stroke="black" points="1652.5,-311 1652.5,-341 1807.5,-341 1807.5,-311 1652.5,-311"/>
<text text-anchor="start" x="1660.5" y="-329" font-family="Helvetica,sans-Serif" font-size="10.00">interpreter.expression.SLogo</text>
<text text-anchor="middle" x="1730" y="-318" font-family="Helvetica,sans-Serif" font-size="10.00">Expression.loadArguments</text>
</a>
</g>
</g>
<!-- Node15&#45;&gt;Node16 -->
<g id="edge15" class="edge"><title>Node15&#45;&gt;Node16</title>
<path fill="none" stroke="midnightblue" d="M1571.3,-326C1593.44,-326 1618.45,-326 1641.93,-326"/>
<polygon fill="midnightblue" stroke="midnightblue" points="1642.23,-329.5 1652.23,-326 1642.23,-322.5 1642.23,-329.5"/>
</g>
<!-- Node18 -->
<g id="node18" class="node"><title>Node18</title>
<g id="a_node18"><a xlink:href="../../d8/daa/classinterpreter_1_1_s_logo_expression_factory.html#a50eb077dd9b57f111e60eb7b297b6d29" target="_top" xlink:title="interpreter.SLogoExpression\lFactory.createExpression">
<polygon fill="white" stroke="black" points="1654,-262 1654,-292 1806,-292 1806,-262 1654,-262"/>
<text text-anchor="start" x="1662" y="-280" font-family="Helvetica,sans-Serif" font-size="10.00">interpreter.SLogoExpression</text>
<text text-anchor="middle" x="1730" y="-269" font-family="Helvetica,sans-Serif" font-size="10.00">Factory.createExpression</text>
</a>
</g>
</g>
<!-- Node17&#45;&gt;Node18 -->
<g id="edge17" class="edge"><title>Node17&#45;&gt;Node18</title>
<path fill="none" stroke="midnightblue" d="M1597.08,-277C1612.37,-277 1628.18,-277 1643.31,-277"/>
<polygon fill="midnightblue" stroke="midnightblue" points="1643.66,-280.5 1653.66,-277 1643.66,-273.5 1643.66,-280.5"/>
</g>
<!-- Node19 -->
<g id="node19" class="node"><title>Node19</title>
<g id="a_node19"><a xlink:href="../../d8/daa/classinterpreter_1_1_s_logo_expression_factory.html#af866a871782317ae912240ad2e383bd9" target="_top" xlink:title="interpreter.SLogoExpression\lFactory.checkTypeAndInitialize">
<polygon fill="white" stroke="black" points="1856,-262 1856,-292 2014,-292 2014,-262 1856,-262"/>
<text text-anchor="start" x="1864" y="-280" font-family="Helvetica,sans-Serif" font-size="10.00">interpreter.SLogoExpression</text>
<text text-anchor="middle" x="1935" y="-269" font-family="Helvetica,sans-Serif" font-size="10.00">Factory.checkTypeAndInitialize</text>
</a>
</g>
</g>
<!-- Node18&#45;&gt;Node19 -->
<g id="edge18" class="edge"><title>Node18&#45;&gt;Node19</title>
<path fill="none" stroke="midnightblue" d="M1806.01,-277C1818.97,-277 1832.55,-277 1845.82,-277"/>
<polygon fill="midnightblue" stroke="midnightblue" points="1845.9,-280.5 1855.9,-277 1845.9,-273.5 1845.9,-280.5"/>
</g>
<!-- Node20 -->
<g id="node20" class="node"><title>Node20</title>
<g id="a_node20"><a xlink:href="../../d8/daa/classinterpreter_1_1_s_logo_expression_factory.html#aed195cb1e071e9e87792f7a51242f824" target="_top" xlink:title="interpreter.SLogoExpression\lFactory.initializeExpression">
<polygon fill="white" stroke="black" points="2052,-311 2052,-341 2204,-341 2204,-311 2052,-311"/>
<text text-anchor="start" x="2060" y="-329" font-family="Helvetica,sans-Serif" font-size="10.00">interpreter.SLogoExpression</text>
<text text-anchor="middle" x="2128" y="-318" font-family="Helvetica,sans-Serif" font-size="10.00">Factory.initializeExpression</text>
</a>
</g>
</g>
<!-- Node19&#45;&gt;Node20 -->
<g id="edge19" class="edge"><title>Node19&#45;&gt;Node20</title>
<path fill="none" stroke="midnightblue" d="M1994.6,-292.035C2014.86,-297.232 2037.74,-303.101 2058.71,-308.48"/>
<polygon fill="midnightblue" stroke="midnightblue" points="2057.95,-311.899 2068.51,-310.994 2059.69,-305.119 2057.95,-311.899"/>
</g>
<!-- Node24 -->
<g id="node24" class="node"><title>Node24</title>
<g id="a_node24"><a xlink:href="../../d8/daa/classinterpreter_1_1_s_logo_expression_factory.html#a67c690097a981fbc2bf840c1f619639a" target="_top" xlink:title="interpreter.SLogoExpression\lFactory.isMatch">
<polygon fill="white" stroke="black" points="2052,-262 2052,-292 2204,-292 2204,-262 2052,-262"/>
<text text-anchor="start" x="2060" y="-280" font-family="Helvetica,sans-Serif" font-size="10.00">interpreter.SLogoExpression</text>
<text text-anchor="middle" x="2128" y="-269" font-family="Helvetica,sans-Serif" font-size="10.00">Factory.isMatch</text>
</a>
</g>
</g>
<!-- Node19&#45;&gt;Node24 -->
<g id="edge23" class="edge"><title>Node19&#45;&gt;Node24</title>
<path fill="none" stroke="midnightblue" d="M2014.24,-277C2023.3,-277 2032.57,-277 2041.71,-277"/>
<polygon fill="midnightblue" stroke="midnightblue" points="2041.96,-280.5 2051.96,-277 2041.96,-273.5 2041.96,-280.5"/>
</g>
<!-- Node25 -->
<g id="node25" class="node"><title>Node25</title>
<g id="a_node25"><a xlink:href="../../db/d09/interfaceinterpreter_1_1expression_1_1_s_logo_expression.html#a035636bae1b48baf5732f091a85ca9b1" target="_top" xlink:title="interpreter.expression.SLogo\lExpression.setValue">
<polygon fill="white" stroke="black" points="2050.5,-213 2050.5,-243 2205.5,-243 2205.5,-213 2050.5,-213"/>
<text text-anchor="start" x="2058.5" y="-231" font-family="Helvetica,sans-Serif" font-size="10.00">interpreter.expression.SLogo</text>
<text text-anchor="middle" x="2128" y="-220" font-family="Helvetica,sans-Serif" font-size="10.00">Expression.setValue</text>
</a>
</g>
</g>
<!-- Node19&#45;&gt;Node25 -->
<g id="edge24" class="edge"><title>Node19&#45;&gt;Node25</title>
<path fill="none" stroke="midnightblue" d="M1994.6,-261.965C2014.86,-256.768 2037.74,-250.899 2058.71,-245.52"/>
<polygon fill="midnightblue" stroke="midnightblue" points="2059.69,-248.881 2068.51,-243.006 2057.95,-242.101 2059.69,-248.881"/>
</g>
<!-- Node21 -->
<g id="node21" class="node"><title>Node21</title>
<g id="a_node21"><a xlink:href="../../db/d09/interfaceinterpreter_1_1expression_1_1_s_logo_expression.html#a8dbb9bf4dced75bf7e423cb614958a15" target="_top" xlink:title="interpreter.expression.SLogo\lExpression.loadLibrary">
<polygon fill="white" stroke="black" points="2242.5,-360 2242.5,-390 2397.5,-390 2397.5,-360 2242.5,-360"/>
<text text-anchor="start" x="2250.5" y="-378" font-family="Helvetica,sans-Serif" font-size="10.00">interpreter.expression.SLogo</text>
<text text-anchor="middle" x="2320" y="-367" font-family="Helvetica,sans-Serif" font-size="10.00">Expression.loadLibrary</text>
</a>
</g>
</g>
<!-- Node20&#45;&gt;Node21 -->
<g id="edge20" class="edge"><title>Node20&#45;&gt;Node21</title>
<path fill="none" stroke="midnightblue" d="M2187.3,-341.035C2207.45,-346.232 2230.21,-352.101 2251.06,-357.48"/>
<polygon fill="midnightblue" stroke="midnightblue" points="2250.26,-360.886 2260.81,-359.994 2252,-354.107 2250.26,-360.886"/>
</g>
<!-- Node22 -->
<g id="node22" class="node"><title>Node22</title>
<g id="a_node22"><a xlink:href="../../db/d09/interfaceinterpreter_1_1expression_1_1_s_logo_expression.html#a85984c7b01a9e06a1f4c8d73f7752a48" target="_top" xlink:title="interpreter.expression.SLogo\lExpression.loadModel">
<polygon fill="white" stroke="black" points="2242.5,-311 2242.5,-341 2397.5,-341 2397.5,-311 2242.5,-311"/>
<text text-anchor="start" x="2250.5" y="-329" font-family="Helvetica,sans-Serif" font-size="10.00">interpreter.expression.SLogo</text>
<text text-anchor="middle" x="2320" y="-318" font-family="Helvetica,sans-Serif" font-size="10.00">Expression.loadModel</text>
</a>
</g>
</g>
<!-- Node20&#45;&gt;Node22 -->
<g id="edge21" class="edge"><title>Node20&#45;&gt;Node22</title>
<path fill="none" stroke="midnightblue" d="M2204.09,-326C2213.31,-326 2222.79,-326 2232.16,-326"/>
<polygon fill="midnightblue" stroke="midnightblue" points="2232.27,-329.5 2242.27,-326 2232.27,-322.5 2232.27,-329.5"/>
</g>
<!-- Node23 -->
<g id="node23" class="node"><title>Node23</title>
<g id="a_node23"><a xlink:href="../../db/d09/interfaceinterpreter_1_1expression_1_1_s_logo_expression.html#ae5647ebedeb07edc2902d7cf478107f7" target="_top" xlink:title="interpreter.expression.SLogo\lExpression.setNumArgs">
<polygon fill="white" stroke="black" points="2242.5,-262 2242.5,-292 2397.5,-292 2397.5,-262 2242.5,-262"/>
<text text-anchor="start" x="2250.5" y="-280" font-family="Helvetica,sans-Serif" font-size="10.00">interpreter.expression.SLogo</text>
<text text-anchor="middle" x="2320" y="-269" font-family="Helvetica,sans-Serif" font-size="10.00">Expression.setNumArgs</text>
</a>
</g>
</g>
<!-- Node20&#45;&gt;Node23 -->
<g id="edge22" class="edge"><title>Node20&#45;&gt;Node23</title>
<path fill="none" stroke="midnightblue" d="M2187.3,-310.965C2207.45,-305.768 2230.21,-299.899 2251.06,-294.52"/>
<polygon fill="midnightblue" stroke="midnightblue" points="2252,-297.893 2260.81,-292.006 2250.26,-291.114 2252,-297.893"/>
</g>
<!-- Node29&#45;&gt;Node11 -->
<g id="edge29" class="edge"><title>Node29&#45;&gt;Node11</title>
<path fill="none" stroke="midnightblue" d="M1113.12,-71.1177C1249.96,-71.3137 1522.58,-71.7043 1654.31,-71.893"/>
<polygon fill="midnightblue" stroke="midnightblue" points="1654.69,-75.3935 1664.7,-71.9079 1654.7,-68.3935 1654.69,-75.3935"/>
</g>
<!-- Node30 -->
<g id="node30" class="node"><title>Node30</title>
<g id="a_node30"><a xlink:href="../../de/d21/classmodel_1_1_main_model.html#aad9f626d0b472cbc3d57e8af0c4326cc" target="_top" xlink:title="model.MainModel.setMyAnimation">
<polygon fill="white" stroke="black" points="1172.5,-87.5 1172.5,-106.5 1353.5,-106.5 1353.5,-87.5 1172.5,-87.5"/>
<text text-anchor="middle" x="1263" y="-94.5" font-family="Helvetica,sans-Serif" font-size="10.00">model.MainModel.setMyAnimation</text>
</a>
</g>
</g>
<!-- Node29&#45;&gt;Node30 -->
<g id="edge30" class="edge"><title>Node29&#45;&gt;Node30</title>
<path fill="none" stroke="midnightblue" d="M1113.09,-80.2398C1130.71,-82.2226 1149.46,-84.3331 1167.5,-86.3639"/>
<polygon fill="midnightblue" stroke="midnightblue" points="1167.11,-89.8421 1177.44,-87.4826 1167.9,-82.886 1167.11,-89.8421"/>
</g>
<!-- Node32 -->
<g id="node32" class="node"><title>Node32</title>
<g id="a_node32"><a xlink:href="../../dd/d63/classmodel_1_1_model_updater.html#a08dce6edfc21ceba207d7a534d2bd71c" target="_top" xlink:title="model.ModelUpdater.update\lModel">
<polygon fill="white" stroke="black" points="1186.5,-0 1186.5,-30 1339.5,-30 1339.5,-0 1186.5,-0"/>
<text text-anchor="start" x="1194.5" y="-18" font-family="Helvetica,sans-Serif" font-size="10.00">model.ModelUpdater.update</text>
<text text-anchor="middle" x="1263" y="-7" font-family="Helvetica,sans-Serif" font-size="10.00">Model</text>
</a>
</g>
</g>
<!-- Node29&#45;&gt;Node32 -->
<g id="edge32" class="edge"><title>Node29&#45;&gt;Node32</title>
<path fill="none" stroke="midnightblue" d="M1070.45,-61.4369C1103.23,-53.4886 1150.74,-41.9721 1190.24,-32.3968"/>
<polygon fill="midnightblue" stroke="midnightblue" points="1191.2,-35.7651 1200.09,-30.0075 1189.55,-28.9621 1191.2,-35.7651"/>
</g>
<!-- Node31 -->
<g id="node31" class="node"><title>Node31</title>
<g id="a_node31"><a xlink:href="../../d4/d57/classturtle_1_1_turtle_list_history.html#a1d6e950f470e133d79684a9c3baf54b4" target="_top" xlink:title="turtle.TurtleListHistory.updateList">
<polygon fill="white" stroke="black" points="1417.5,-87.5 1417.5,-106.5 1590.5,-106.5 1590.5,-87.5 1417.5,-87.5"/>
<text text-anchor="middle" x="1504" y="-94.5" font-family="Helvetica,sans-Serif" font-size="10.00">turtle.TurtleListHistory.updateList</text>
</a>
</g>
</g>
<!-- Node30&#45;&gt;Node31 -->
<g id="edge31" class="edge"><title>Node30&#45;&gt;Node31</title>
<path fill="none" stroke="midnightblue" d="M1353.67,-97C1371.06,-97 1389.34,-97 1406.92,-97"/>
<polygon fill="midnightblue" stroke="midnightblue" points="1407.18,-100.5 1417.18,-97 1407.18,-93.5001 1407.18,-100.5"/>
</g>
<!-- Node33 -->
<g id="node33" class="node"><title>Node33</title>
<g id="a_node33"><a xlink:href="../../dd/d63/classmodel_1_1_model_updater.html#ad73b783b59545c68e1fb9123e44492d4" target="_top" xlink:title="model.ModelUpdater.create\lTurtleTransitionMapping">
<polygon fill="white" stroke="black" points="1429,-0 1429,-30 1579,-30 1579,-0 1429,-0"/>
<text text-anchor="start" x="1437" y="-18" font-family="Helvetica,sans-Serif" font-size="10.00">model.ModelUpdater.create</text>
<text text-anchor="middle" x="1504" y="-7" font-family="Helvetica,sans-Serif" font-size="10.00">TurtleTransitionMapping</text>
</a>
</g>
</g>
<!-- Node32&#45;&gt;Node33 -->
<g id="edge33" class="edge"><title>Node32&#45;&gt;Node33</title>
<path fill="none" stroke="midnightblue" d="M1339.62,-15C1364.73,-15 1392.85,-15 1418.58,-15"/>
<polygon fill="midnightblue" stroke="midnightblue" points="1418.69,-18.5001 1428.69,-15 1418.69,-11.5001 1418.69,-18.5001"/>
</g>
<!-- Node34 -->
<g id="node34" class="node"><title>Node34</title>
<g id="a_node34"><a xlink:href="../../dd/d63/classmodel_1_1_model_updater.html#a44e91f3e31045ca0a067ffe9d270ab29" target="_top" xlink:title="model.ModelUpdater.findSelected\lTurtles">
<polygon fill="white" stroke="black" points="1640.5,-0 1640.5,-30 1819.5,-30 1819.5,-0 1640.5,-0"/>
<text text-anchor="start" x="1648.5" y="-18" font-family="Helvetica,sans-Serif" font-size="10.00">model.ModelUpdater.findSelected</text>
<text text-anchor="middle" x="1730" y="-7" font-family="Helvetica,sans-Serif" font-size="10.00">Turtles</text>
</a>
</g>
</g>
<!-- Node33&#45;&gt;Node34 -->
<g id="edge34" class="edge"><title>Node33&#45;&gt;Node34</title>
<path fill="none" stroke="midnightblue" d="M1579.28,-15C1595.41,-15 1612.73,-15 1629.66,-15"/>
<polygon fill="midnightblue" stroke="midnightblue" points="1630.14,-18.5001 1640.14,-15 1630.14,-11.5001 1630.14,-18.5001"/>
</g>
</g>
</svg>
