<?xml version="1.0" encoding="UTF-8" standalone="no"?>
<!DOCTYPE svg PUBLIC "-//W3C//DTD SVG 1.1//EN"
 "http://www.w3.org/Graphics/SVG/1.1/DTD/svg11.dtd">
<!-- Generated by graphviz version 2.36.0 (20140111.2315)
 -->
<!-- Title: viewcontroller.commands.UserDefinedVariablesViewController.applyTranslations Pages: 1 -->
<svg width="484pt" height="97pt"
 viewBox="0.00 0.00 484.00 97.00" xmlns="http://www.w3.org/2000/svg" xmlns:xlink="http://www.w3.org/1999/xlink">
<g id="graph0" class="graph" transform="scale(1 1) rotate(0) translate(4 93)">
<title>viewcontroller.commands.UserDefinedVariablesViewController.applyTranslations</title>
<polygon fill="white" stroke="none" points="-4,4 -4,-93 480,-93 480,4 -4,4"/>
<!-- Node1 -->
<g id="node1" class="node"><title>Node1</title>
<polygon fill="#bfbfbf" stroke="black" points="0.5,-26.5 0.5,-67.5 215.5,-67.5 215.5,-26.5 0.5,-26.5"/>
<text text-anchor="start" x="8.5" y="-55.5" font-family="Helvetica,sans-Serif" font-size="10.00">viewcontroller.commands.</text>
<text text-anchor="start" x="8.5" y="-44.5" font-family="Helvetica,sans-Serif" font-size="10.00">UserDefinedVariablesViewController.apply</text>
<text text-anchor="middle" x="108" y="-33.5" font-family="Helvetica,sans-Serif" font-size="10.00">Translations</text>
</g>
<!-- Node2 -->
<g id="node2" class="node"><title>Node2</title>
<g id="a_node2"><a xlink:href="../../d4/dc8/classviewcontroller_1_1commands_1_1_user_defined_variables_view_controller.html#a1e84f755902379519ddf5438bc2d27ee" target="_top" xlink:title="viewcontroller.commands.\lUserDefinedVariablesViewController.update">
<polygon fill="white" stroke="black" points="252,-59 252,-89 476,-89 476,-59 252,-59"/>
<text text-anchor="start" x="260" y="-77" font-family="Helvetica,sans-Serif" font-size="10.00">viewcontroller.commands.</text>
<text text-anchor="middle" x="364" y="-66" font-family="Helvetica,sans-Serif" font-size="10.00">UserDefinedVariablesViewController.update</text>
</a>
</g>
</g>
<!-- Node1&#45;&gt;Node2 -->
<g id="edge1" class="edge"><title>Node1&#45;&gt;Node2</title>
<path fill="none" stroke="midnightblue" d="M225.744,-59.4098C234.406,-60.3306 243.132,-61.2581 251.759,-62.1752"/>
<polygon fill="midnightblue" stroke="midnightblue" points="225.929,-55.9098 215.615,-58.3331 225.189,-62.8706 225.929,-55.9098"/>
</g>
<!-- Node3 -->
<g id="node3" class="node"><title>Node3</title>
<g id="a_node3"><a xlink:href="../../d4/dc8/classviewcontroller_1_1commands_1_1_user_defined_variables_view_controller.html#a2788ecdf0550c165712b8e2585bb1a0b" target="_top" xlink:title="viewcontroller.commands.\lUserDefinedVariablesViewController.\lUserDefinedVariablesViewController">
<polygon fill="white" stroke="black" points="269,0.5 269,-40.5 459,-40.5 459,0.5 269,0.5"/>
<text text-anchor="start" x="277" y="-28.5" font-family="Helvetica,sans-Serif" font-size="10.00">viewcontroller.commands.</text>
<text text-anchor="start" x="277" y="-17.5" font-family="Helvetica,sans-Serif" font-size="10.00">UserDefinedVariablesViewController.</text>
<text text-anchor="middle" x="364" y="-6.5" font-family="Helvetica,sans-Serif" font-size="10.00">UserDefinedVariablesViewController</text>
</a>
</g>
</g>
<!-- Node1&#45;&gt;Node3 -->
<g id="edge2" class="edge"><title>Node1&#45;&gt;Node3</title>
<path fill="none" stroke="midnightblue" d="M225.59,-34.6066C240.054,-33.0691 254.699,-31.5123 268.768,-30.0168"/>
<polygon fill="midnightblue" stroke="midnightblue" points="225.189,-31.1294 215.615,-35.6669 225.929,-38.0902 225.189,-31.1294"/>
</g>
</g>
</svg>
