<?xml version="1.0" encoding="UTF-8" standalone="no"?>
<!DOCTYPE svg PUBLIC "-//W3C//DTD SVG 1.1//EN"
 "http://www.w3.org/Graphics/SVG/1.1/DTD/svg11.dtd">
<!-- Generated by graphviz version 2.36.0 (20140111.2315)
 -->
<!-- Title: viewcontroller.commands.UserDefinedVariablesViewController.getNode Pages: 1 -->
<svg width="1060pt" height="48pt"
 viewBox="0.00 0.00 1060.00 48.00" xmlns="http://www.w3.org/2000/svg" xmlns:xlink="http://www.w3.org/1999/xlink">
<g id="graph0" class="graph" transform="scale(1 1) rotate(0) translate(4 44)">
<title>viewcontroller.commands.UserDefinedVariablesViewController.getNode</title>
<polygon fill="white" stroke="none" points="-4,4 -4,-44 1056,-44 1056,4 -4,4"/>
<!-- Node1 -->
<g id="node1" class="node"><title>Node1</title>
<polygon fill="#bfbfbf" stroke="black" points="0.5,-5 0.5,-35 231.5,-35 231.5,-5 0.5,-5"/>
<text text-anchor="start" x="8.5" y="-23" font-family="Helvetica,sans-Serif" font-size="10.00">viewcontroller.commands.</text>
<text text-anchor="middle" x="116" y="-12" font-family="Helvetica,sans-Serif" font-size="10.00">UserDefinedVariablesViewController.getNode</text>
</g>
<!-- Node2 -->
<g id="node2" class="node"><title>Node2</title>
<g id="a_node2"><a xlink:href="../../d0/d7c/classviewcontroller_1_1commands_1_1_command_window_container_view_controller.html#a5e24d0ef1f59d052cb89152d23a6a1fe" target="_top" xlink:title="viewcontroller.commands.\lCommandWindowContainerViewController.place\lUserDefinedBoxes">
<polygon fill="white" stroke="black" points="268.5,0.5 268.5,-40.5 513.5,-40.5 513.5,0.5 268.5,0.5"/>
<text text-anchor="start" x="276.5" y="-28.5" font-family="Helvetica,sans-Serif" font-size="10.00">viewcontroller.commands.</text>
<text text-anchor="start" x="276.5" y="-17.5" font-family="Helvetica,sans-Serif" font-size="10.00">CommandWindowContainerViewController.place</text>
<text text-anchor="middle" x="391" y="-6.5" font-family="Helvetica,sans-Serif" font-size="10.00">UserDefinedBoxes</text>
</a>
</g>
</g>
<!-- Node1&#45;&gt;Node2 -->
<g id="edge1" class="edge"><title>Node1&#45;&gt;Node2</title>
<path fill="none" stroke="midnightblue" d="M241.856,-20C250.634,-20 259.477,-20 268.237,-20"/>
<polygon fill="midnightblue" stroke="midnightblue" points="241.59,-16.5001 231.59,-20 241.59,-23.5001 241.59,-16.5001"/>
</g>
<!-- Node3 -->
<g id="node3" class="node"><title>Node3</title>
<g id="a_node3"><a xlink:href="../../d0/d7c/classviewcontroller_1_1commands_1_1_command_window_container_view_controller.html#a4b22dc9a991f9a307ce4331ebc288f7f" target="_top" xlink:title="viewcontroller.commands.\lCommandWindowContainerViewController.place\lCommandWindows">
<polygon fill="white" stroke="black" points="550.5,0.5 550.5,-40.5 795.5,-40.5 795.5,0.5 550.5,0.5"/>
<text text-anchor="start" x="558.5" y="-28.5" font-family="Helvetica,sans-Serif" font-size="10.00">viewcontroller.commands.</text>
<text text-anchor="start" x="558.5" y="-17.5" font-family="Helvetica,sans-Serif" font-size="10.00">CommandWindowContainerViewController.place</text>
<text text-anchor="middle" x="673" y="-6.5" font-family="Helvetica,sans-Serif" font-size="10.00">CommandWindows</text>
</a>
</g>
</g>
<!-- Node2&#45;&gt;Node3 -->
<g id="edge2" class="edge"><title>Node2&#45;&gt;Node3</title>
<path fill="none" stroke="midnightblue" d="M523.838,-20C532.591,-20 541.386,-20 550.087,-20"/>
<polygon fill="midnightblue" stroke="midnightblue" points="523.591,-16.5001 513.59,-20 523.59,-23.5001 523.591,-16.5001"/>
</g>
<!-- Node4 -->
<g id="node4" class="node"><title>Node4</title>
<g id="a_node4"><a xlink:href="../../d0/d7c/classviewcontroller_1_1commands_1_1_command_window_container_view_controller.html#a00c0cfff2fbbb87ce16e3fa7f125277f" target="_top" xlink:title="viewcontroller.commands.\lCommandWindowContainerViewController.\lCommandWindowContainerViewController">
<polygon fill="white" stroke="black" points="832.5,0.5 832.5,-40.5 1051.5,-40.5 1051.5,0.5 832.5,0.5"/>
<text text-anchor="start" x="840.5" y="-28.5" font-family="Helvetica,sans-Serif" font-size="10.00">viewcontroller.commands.</text>
<text text-anchor="start" x="840.5" y="-17.5" font-family="Helvetica,sans-Serif" font-size="10.00">CommandWindowContainerViewController.</text>
<text text-anchor="middle" x="942" y="-6.5" font-family="Helvetica,sans-Serif" font-size="10.00">CommandWindowContainerViewController</text>
</a>
</g>
</g>
<!-- Node3&#45;&gt;Node4 -->
<g id="edge3" class="edge"><title>Node3&#45;&gt;Node4</title>
<path fill="none" stroke="midnightblue" d="M805.842,-20C814.766,-20 823.7,-20 832.484,-20"/>
<polygon fill="midnightblue" stroke="midnightblue" points="805.78,-16.5001 795.78,-20 805.78,-23.5001 805.78,-16.5001"/>
</g>
</g>
</svg>
