<?xml version="1.0" encoding="UTF-8" standalone="no"?>
<!DOCTYPE svg PUBLIC "-//W3C//DTD SVG 1.1//EN"
 "http://www.w3.org/Graphics/SVG/1.1/DTD/svg11.dtd">
<!-- Generated by graphviz version 2.36.0 (20140111.2315)
 -->
<!-- Title: viewcontroller.commands.UserDefinedVariablesViewController.UserDefinedVariablesViewController Pages: 1 -->
<svg width="636pt" height="98pt"
 viewBox="0.00 0.00 636.00 98.00" xmlns="http://www.w3.org/2000/svg" xmlns:xlink="http://www.w3.org/1999/xlink">
<g id="graph0" class="graph" transform="scale(1 1) rotate(0) translate(4 94)">
<title>viewcontroller.commands.UserDefinedVariablesViewController.UserDefinedVariablesViewController</title>
<polygon fill="white" stroke="none" points="-4,4 -4,-94 632,-94 632,4 -4,4"/>
<!-- Node1 -->
<g id="node1" class="node"><title>Node1</title>
<polygon fill="#bfbfbf" stroke="black" points="0,-21.5 0,-62.5 190,-62.5 190,-21.5 0,-21.5"/>
<text text-anchor="start" x="8" y="-50.5" font-family="Helvetica,sans-Serif" font-size="10.00">viewcontroller.commands.</text>
<text text-anchor="start" x="8" y="-39.5" font-family="Helvetica,sans-Serif" font-size="10.00">UserDefinedVariablesViewController.</text>
<text text-anchor="middle" x="95" y="-28.5" font-family="Helvetica,sans-Serif" font-size="10.00">UserDefinedVariablesViewController</text>
</g>
<!-- Node2 -->
<g id="node2" class="node"><title>Node2</title>
<g id="a_node2"><a xlink:href="../../d4/dc8/classviewcontroller_1_1commands_1_1_user_defined_variables_view_controller.html#a5962ceec20262091c5eb4f03b5d50e0d" target="_top" xlink:title="viewcontroller.commands.\lUserDefinedVariablesViewController.apply\lTranslations">
<polygon fill="white" stroke="black" points="226.5,-48.5 226.5,-89.5 441.5,-89.5 441.5,-48.5 226.5,-48.5"/>
<text text-anchor="start" x="234.5" y="-77.5" font-family="Helvetica,sans-Serif" font-size="10.00">viewcontroller.commands.</text>
<text text-anchor="start" x="234.5" y="-66.5" font-family="Helvetica,sans-Serif" font-size="10.00">UserDefinedVariablesViewController.apply</text>
<text text-anchor="middle" x="334" y="-55.5" font-family="Helvetica,sans-Serif" font-size="10.00">Translations</text>
</a>
</g>
</g>
<!-- Node1&#45;&gt;Node2 -->
<g id="edge1" class="edge"><title>Node1&#45;&gt;Node2</title>
<path fill="none" stroke="midnightblue" d="M190.009,-52.7099C198.555,-53.6835 207.278,-54.6773 215.991,-55.6699"/>
<polygon fill="midnightblue" stroke="midnightblue" points="215.871,-59.1787 226.203,-56.8332 216.663,-52.2237 215.871,-59.1787"/>
</g>
<!-- Node4 -->
<g id="node4" class="node"><title>Node4</title>
<g id="a_node4"><a xlink:href="../../d8/d68/classviewcontroller_1_1commands_1_1_command_window_view_controller.html#a62c54d52ea3c2f55be0a741a1c5fb240" target="_top" xlink:title="viewcontroller.commands.\lCommandWindowViewController.setTitle">
<polygon fill="white" stroke="black" points="230.5,-0 230.5,-30 437.5,-30 437.5,-0 230.5,-0"/>
<text text-anchor="start" x="238.5" y="-18" font-family="Helvetica,sans-Serif" font-size="10.00">viewcontroller.commands.</text>
<text text-anchor="middle" x="334" y="-7" font-family="Helvetica,sans-Serif" font-size="10.00">CommandWindowViewController.setTitle</text>
</a>
</g>
</g>
<!-- Node1&#45;&gt;Node4 -->
<g id="edge3" class="edge"><title>Node1&#45;&gt;Node4</title>
<path fill="none" stroke="midnightblue" d="M190.009,-31.2901C199.896,-30.1638 210.02,-29.0104 220.09,-27.8631"/>
<polygon fill="midnightblue" stroke="midnightblue" points="220.593,-31.3286 230.132,-26.7191 219.8,-24.3736 220.593,-31.3286"/>
</g>
<!-- Node3 -->
<g id="node3" class="node"><title>Node3</title>
<g id="a_node3"><a xlink:href="../../d9/dd7/classviewcontroller_1_1_g_u_i_reference_library.html#ac147f33c0bfa0252d247d7c0174ff688" target="_top" xlink:title="viewcontroller.GUIReference\lLibrary.getStringTranslation">
<polygon fill="white" stroke="black" points="478.5,-54 478.5,-84 627.5,-84 627.5,-54 478.5,-54"/>
<text text-anchor="start" x="486.5" y="-72" font-family="Helvetica,sans-Serif" font-size="10.00">viewcontroller.GUIReference</text>
<text text-anchor="middle" x="553" y="-61" font-family="Helvetica,sans-Serif" font-size="10.00">Library.getStringTranslation</text>
</a>
</g>
</g>
<!-- Node2&#45;&gt;Node3 -->
<g id="edge2" class="edge"><title>Node2&#45;&gt;Node3</title>
<path fill="none" stroke="midnightblue" d="M441.593,-69C450.529,-69 459.483,-69 468.211,-69"/>
<polygon fill="midnightblue" stroke="midnightblue" points="468.34,-72.5001 478.34,-69 468.34,-65.5001 468.34,-72.5001"/>
</g>
</g>
</svg>
