<?xml version="1.0" encoding="UTF-8" standalone="no"?>
<!DOCTYPE svg PUBLIC "-//W3C//DTD SVG 1.1//EN"
 "http://www.w3.org/Graphics/SVG/1.1/DTD/svg11.dtd">
<!-- Generated by graphviz version 2.36.0 (20140111.2315)
 -->
<!-- Title: model.CommandHistoryModel Pages: 1 -->
<svg width="206pt" height="96pt"
 viewBox="0.00 0.00 206.00 96.00" xmlns="http://www.w3.org/2000/svg" xmlns:xlink="http://www.w3.org/1999/xlink">
<g id="graph0" class="graph" transform="scale(1 1) rotate(0) translate(4 92)">
<title>model.CommandHistoryModel</title>
<polygon fill="white" stroke="none" points="-4,4 -4,-92 202,-92 202,4 -4,4"/>
<!-- Node1 -->
<g id="node1" class="node"><title>Node1</title>
<polygon fill="#bfbfbf" stroke="black" points="2,-0.5 2,-19.5 164,-19.5 164,-0.5 2,-0.5"/>
<text text-anchor="middle" x="83" y="-7.5" font-family="Helvetica,sans-Serif" font-size="10.00">model.CommandHistoryModel</text>
</g>
<!-- Node2 -->
<g id="node2" class="node"><title>Node2</title>
<polygon fill="white" stroke="#bfbfbf" points="-0.5,-68.5 -0.5,-87.5 70.5,-87.5 70.5,-68.5 -0.5,-68.5"/>
<text text-anchor="middle" x="35" y="-75.5" font-family="Helvetica,sans-Serif" font-size="10.00">Serializable</text>
</g>
<!-- Node2&#45;&gt;Node1 -->
<g id="edge1" class="edge"><title>Node2&#45;&gt;Node1</title>
<path fill="none" stroke="midnightblue" d="M47.4089,-59.9377C56.7368,-47.112 69.1388,-30.0591 76.5701,-19.8411"/>
<polygon fill="midnightblue" stroke="midnightblue" points="44.3263,-58.2257 41.2752,-68.3717 49.9875,-62.3429 44.3263,-58.2257"/>
</g>
<!-- Node3 -->
<g id="node3" class="node"><title>Node3</title>
<polygon fill="white" stroke="#bfbfbf" points="89,-68.5 89,-87.5 173,-87.5 173,-68.5 89,-68.5"/>
<text text-anchor="middle" x="131" y="-75.5" font-family="Helvetica,sans-Serif" font-size="10.00">List&lt; String &gt;</text>
</g>
<!-- Node3&#45;&gt;Node1 -->
<g id="edge2" class="edge"><title>Node3&#45;&gt;Node1</title>
<path fill="none" stroke="#9a32cd" stroke-dasharray="5,2" d="M118.591,-59.9377C109.263,-47.112 96.8612,-30.0591 89.4299,-19.8411"/>
<polygon fill="#9a32cd" stroke="#9a32cd" points="116.012,-62.3429 124.725,-68.3717 121.674,-58.2257 116.012,-62.3429"/>
<text text-anchor="middle" x="155" y="-41.5" font-family="Helvetica,sans-Serif" font-size="10.00"> commandHistory</text>
</g>
</g>
</svg>
