<?xml version="1.0" encoding="UTF-8" standalone="no"?>
<!DOCTYPE svg PUBLIC "-//W3C//DTD SVG 1.1//EN"
 "http://www.w3.org/Graphics/SVG/1.1/DTD/svg11.dtd">
<!-- Generated by graphviz version 2.36.0 (20140111.2315)
 -->
<!-- Title: viewcontroller.turtlegrid.TurtleStatusViewController.update Pages: 1 -->
<svg width="804pt" height="202pt"
 viewBox="0.00 0.00 804.00 202.00" xmlns="http://www.w3.org/2000/svg" xmlns:xlink="http://www.w3.org/1999/xlink">
<g id="graph0" class="graph" transform="scale(1 1) rotate(0) translate(4 198)">
<title>viewcontroller.turtlegrid.TurtleStatusViewController.update</title>
<polygon fill="white" stroke="none" points="-4,4 -4,-198 800,-198 800,4 -4,4"/>
<!-- Node1 -->
<g id="node1" class="node"><title>Node1</title>
<polygon fill="#bfbfbf" stroke="black" points="0,-82 0,-112 178,-112 178,-82 0,-82"/>
<text text-anchor="start" x="8" y="-100" font-family="Helvetica,sans-Serif" font-size="10.00">viewcontroller.turtlegrid.</text>
<text text-anchor="middle" x="89" y="-89" font-family="Helvetica,sans-Serif" font-size="10.00">TurtleStatusViewController.update</text>
</g>
<!-- Node2 -->
<g id="node2" class="node"><title>Node2</title>
<g id="a_node2"><a xlink:href="../../de/d21/classmodel_1_1_main_model.html#a74167dccd2ccca89988e6466376ea56d" target="_top" xlink:title="model.MainModel.getActive\lTurtle">
<polygon fill="white" stroke="black" points="245.5,-164 245.5,-194 394.5,-194 394.5,-164 245.5,-164"/>
<text text-anchor="start" x="253.5" y="-182" font-family="Helvetica,sans-Serif" font-size="10.00">model.MainModel.getActive</text>
<text text-anchor="middle" x="320" y="-171" font-family="Helvetica,sans-Serif" font-size="10.00">Turtle</text>
</a>
</g>
</g>
<!-- Node1&#45;&gt;Node2 -->
<g id="edge1" class="edge"><title>Node1&#45;&gt;Node2</title>
<path fill="none" stroke="midnightblue" d="M118.401,-112.011C143.116,-124.595 180.18,-142.329 214,-154 221.619,-156.629 229.642,-159.081 237.718,-161.34"/>
<polygon fill="midnightblue" stroke="midnightblue" points="237.004,-164.773 247.571,-164 238.829,-158.015 237.004,-164.773"/>
</g>
<!-- Node3 -->
<g id="node3" class="node"><title>Node3</title>
<g id="a_node3"><a xlink:href="../../df/dcb/classturtle_1_1_turtle.html#a3196d156c56093addee52593c5c53e0b" target="_top" xlink:title="turtle.Turtle.getId">
<polygon fill="white" stroke="black" points="271,-125.5 271,-144.5 369,-144.5 369,-125.5 271,-125.5"/>
<text text-anchor="middle" x="320" y="-132.5" font-family="Helvetica,sans-Serif" font-size="10.00">turtle.Turtle.getId</text>
</a>
</g>
</g>
<!-- Node1&#45;&gt;Node3 -->
<g id="edge2" class="edge"><title>Node1&#45;&gt;Node3</title>
<path fill="none" stroke="midnightblue" d="M178.21,-111.637C205.895,-116.231 235.747,-121.185 260.808,-125.344"/>
<polygon fill="midnightblue" stroke="midnightblue" points="260.437,-128.83 270.875,-127.014 261.583,-121.924 260.437,-128.83"/>
</g>
<!-- Node4 -->
<g id="node4" class="node"><title>Node4</title>
<g id="a_node4"><a xlink:href="../../df/dcb/classturtle_1_1_turtle.html#aa74144bda987a463827533ef432fede2" target="_top" xlink:title="turtle.Turtle.getX">
<polygon fill="white" stroke="black" points="272.5,-87.5 272.5,-106.5 367.5,-106.5 367.5,-87.5 272.5,-87.5"/>
<text text-anchor="middle" x="320" y="-94.5" font-family="Helvetica,sans-Serif" font-size="10.00">turtle.Turtle.getX</text>
</a>
</g>
</g>
<!-- Node1&#45;&gt;Node4 -->
<g id="edge3" class="edge"><title>Node1&#45;&gt;Node4</title>
<path fill="none" stroke="midnightblue" d="M178.21,-97C206.448,-97 236.942,-97 262.306,-97"/>
<polygon fill="midnightblue" stroke="midnightblue" points="262.478,-100.5 272.478,-97 262.478,-93.5001 262.478,-100.5"/>
</g>
<!-- Node7 -->
<g id="node7" class="node"><title>Node7</title>
<g id="a_node7"><a xlink:href="../../df/dcb/classturtle_1_1_turtle.html#a072c675b5b2da4989e217c155aae6994" target="_top" xlink:title="turtle.Turtle.getY">
<polygon fill="white" stroke="black" points="272.5,-49.5 272.5,-68.5 367.5,-68.5 367.5,-49.5 272.5,-49.5"/>
<text text-anchor="middle" x="320" y="-56.5" font-family="Helvetica,sans-Serif" font-size="10.00">turtle.Turtle.getY</text>
</a>
</g>
</g>
<!-- Node1&#45;&gt;Node7 -->
<g id="edge6" class="edge"><title>Node1&#45;&gt;Node7</title>
<path fill="none" stroke="midnightblue" d="M178.21,-82.3626C206.448,-77.6767 236.942,-72.6166 262.306,-68.4078"/>
<polygon fill="midnightblue" stroke="midnightblue" points="263.186,-71.8097 272.478,-66.7198 262.04,-64.9041 263.186,-71.8097"/>
</g>
<!-- Node8 -->
<g id="node8" class="node"><title>Node8</title>
<g id="a_node8"><a xlink:href="../../d5/d37/classviewcontroller_1_1turtlegrid_1_1_turtle_status_view_controller.html#a1a92ec1a1f94a80bc41be55562c44a72" target="_top" xlink:title="viewcontroller.turtlegrid.\lTurtleStatusViewController.populateHBox">
<polygon fill="white" stroke="black" points="214,-0 214,-30 426,-30 426,-0 214,-0"/>
<text text-anchor="start" x="222" y="-18" font-family="Helvetica,sans-Serif" font-size="10.00">viewcontroller.turtlegrid.</text>
<text text-anchor="middle" x="320" y="-7" font-family="Helvetica,sans-Serif" font-size="10.00">TurtleStatusViewController.populateHBox</text>
</a>
</g>
</g>
<!-- Node1&#45;&gt;Node8 -->
<g id="edge8" class="edge"><title>Node1&#45;&gt;Node8</title>
<path fill="none" stroke="midnightblue" d="M118.401,-81.9893C143.116,-69.4053 180.18,-51.6713 214,-40 221.619,-37.3707 229.642,-34.9191 237.718,-32.6599"/>
<polygon fill="midnightblue" stroke="midnightblue" points="238.829,-35.9854 247.571,-30.0005 237.004,-29.2272 238.829,-35.9854"/>
</g>
<!-- Node5 -->
<g id="node5" class="node"><title>Node5</title>
<g id="a_node5"><a xlink:href="../../df/dcb/classturtle_1_1_turtle.html#a29ef6cfcd7794054df8ef83724022983" target="_top" xlink:title="turtle.Turtle.getTurtle">
<polygon fill="white" stroke="black" points="462.5,-68.5 462.5,-87.5 577.5,-87.5 577.5,-68.5 462.5,-68.5"/>
<text text-anchor="middle" x="520" y="-75.5" font-family="Helvetica,sans-Serif" font-size="10.00">turtle.Turtle.getTurtle</text>
</a>
</g>
</g>
<!-- Node4&#45;&gt;Node5 -->
<g id="edge4" class="edge"><title>Node4&#45;&gt;Node5</title>
<path fill="none" stroke="midnightblue" d="M367.673,-92.5213C392.925,-90.0981 424.553,-87.0631 452.355,-84.3952"/>
<polygon fill="midnightblue" stroke="midnightblue" points="452.786,-87.87 462.406,-83.4307 452.117,-80.902 452.786,-87.87"/>
</g>
<!-- Node6 -->
<g id="node6" class="node"><title>Node6</title>
<g id="a_node6"><a xlink:href="../../d4/de5/classturtle_1_1_turtle_view_controller.html#a24215ad9dea4b06da7652230ac822973" target="_top" xlink:title="turtle.TurtleViewController.getNode">
<polygon fill="white" stroke="black" points="614,-68.5 614,-87.5 796,-87.5 796,-68.5 614,-68.5"/>
<text text-anchor="middle" x="705" y="-75.5" font-family="Helvetica,sans-Serif" font-size="10.00">turtle.TurtleViewController.getNode</text>
</a>
</g>
</g>
<!-- Node5&#45;&gt;Node6 -->
<g id="edge5" class="edge"><title>Node5&#45;&gt;Node6</title>
<path fill="none" stroke="midnightblue" d="M577.899,-78C586.209,-78 594.964,-78 603.83,-78"/>
<polygon fill="midnightblue" stroke="midnightblue" points="603.868,-81.5001 613.868,-78 603.867,-74.5001 603.868,-81.5001"/>
</g>
<!-- Node7&#45;&gt;Node5 -->
<g id="edge7" class="edge"><title>Node7&#45;&gt;Node5</title>
<path fill="none" stroke="midnightblue" d="M367.673,-63.4787C392.925,-65.9019 424.553,-68.9369 452.355,-71.6048"/>
<polygon fill="midnightblue" stroke="midnightblue" points="452.117,-75.098 462.406,-72.5693 452.786,-68.13 452.117,-75.098"/>
</g>
</g>
</svg>
