<?xml version="1.0" encoding="UTF-8" standalone="no"?>
<!DOCTYPE svg PUBLIC "-//W3C//DTD SVG 1.1//EN"
 "http://www.w3.org/Graphics/SVG/1.1/DTD/svg11.dtd">
<!-- Generated by graphviz version 2.36.0 (20140111.2315)
 -->
<!-- Title: viewcontroller.turtlegrid.TurtleStatusViewController.TurtleStatusViewController Pages: 1 -->
<svg width="632pt" height="110pt"
 viewBox="0.00 0.00 632.00 110.00" xmlns="http://www.w3.org/2000/svg" xmlns:xlink="http://www.w3.org/1999/xlink">
<g id="graph0" class="graph" transform="scale(1 1) rotate(0) translate(4 106)">
<title>viewcontroller.turtlegrid.TurtleStatusViewController.TurtleStatusViewController</title>
<polygon fill="white" stroke="none" points="-4,4 -4,-106 628,-106 628,4 -4,4"/>
<!-- Node1 -->
<g id="node1" class="node"><title>Node1</title>
<polygon fill="#bfbfbf" stroke="black" points="0,-30.5 0,-71.5 170,-71.5 170,-30.5 0,-30.5"/>
<text text-anchor="start" x="8" y="-59.5" font-family="Helvetica,sans-Serif" font-size="10.00">viewcontroller.turtlegrid.</text>
<text text-anchor="start" x="8" y="-48.5" font-family="Helvetica,sans-Serif" font-size="10.00">TurtleStatusViewController.Turtle</text>
<text text-anchor="middle" x="85" y="-37.5" font-family="Helvetica,sans-Serif" font-size="10.00">StatusViewController</text>
</g>
<!-- Node2 -->
<g id="node2" class="node"><title>Node2</title>
<g id="a_node2"><a xlink:href="../../d5/d37/classviewcontroller_1_1turtlegrid_1_1_turtle_status_view_controller.html#a0b886bc6624c6ffba2ad633b135544ba" target="_top" xlink:title="viewcontroller.turtlegrid.\lTurtleStatusViewController.apply\lTranslations">
<polygon fill="white" stroke="black" points="206,-60.5 206,-101.5 376,-101.5 376,-60.5 206,-60.5"/>
<text text-anchor="start" x="214" y="-89.5" font-family="Helvetica,sans-Serif" font-size="10.00">viewcontroller.turtlegrid.</text>
<text text-anchor="start" x="214" y="-78.5" font-family="Helvetica,sans-Serif" font-size="10.00">TurtleStatusViewController.apply</text>
<text text-anchor="middle" x="291" y="-67.5" font-family="Helvetica,sans-Serif" font-size="10.00">Translations</text>
</a>
</g>
</g>
<!-- Node1&#45;&gt;Node2 -->
<g id="edge1" class="edge"><title>Node1&#45;&gt;Node2</title>
<path fill="none" stroke="midnightblue" d="M170.152,-63.3754C178.593,-64.6166 187.202,-65.8827 195.739,-67.138"/>
<polygon fill="midnightblue" stroke="midnightblue" points="195.309,-70.6124 205.712,-68.6047 196.327,-63.6869 195.309,-70.6124"/>
</g>
<!-- Node4 -->
<g id="node4" class="node"><title>Node4</title>
<g id="a_node4"><a xlink:href="../../d5/d37/classviewcontroller_1_1turtlegrid_1_1_turtle_status_view_controller.html#ac2f96d649c49b8f4cc40b547f96e0c30" target="_top" xlink:title="viewcontroller.turtlegrid.\lTurtleStatusViewController.place\lVariableTable">
<polygon fill="white" stroke="black" points="206,-0.5 206,-41.5 376,-41.5 376,-0.5 206,-0.5"/>
<text text-anchor="start" x="214" y="-29.5" font-family="Helvetica,sans-Serif" font-size="10.00">viewcontroller.turtlegrid.</text>
<text text-anchor="start" x="214" y="-18.5" font-family="Helvetica,sans-Serif" font-size="10.00">TurtleStatusViewController.place</text>
<text text-anchor="middle" x="291" y="-7.5" font-family="Helvetica,sans-Serif" font-size="10.00">VariableTable</text>
</a>
</g>
</g>
<!-- Node1&#45;&gt;Node4 -->
<g id="edge3" class="edge"><title>Node1&#45;&gt;Node4</title>
<path fill="none" stroke="midnightblue" d="M170.152,-38.6246C178.593,-37.3834 187.202,-36.1173 195.739,-34.862"/>
<polygon fill="midnightblue" stroke="midnightblue" points="196.327,-38.3131 205.712,-33.3953 195.309,-31.3876 196.327,-38.3131"/>
</g>
<!-- Node3 -->
<g id="node3" class="node"><title>Node3</title>
<g id="a_node3"><a xlink:href="../../d9/dd7/classviewcontroller_1_1_g_u_i_reference_library.html#ac147f33c0bfa0252d247d7c0174ff688" target="_top" xlink:title="viewcontroller.GUIReference\lLibrary.getStringTranslation">
<polygon fill="white" stroke="black" points="443.5,-66 443.5,-96 592.5,-96 592.5,-66 443.5,-66"/>
<text text-anchor="start" x="451.5" y="-84" font-family="Helvetica,sans-Serif" font-size="10.00">viewcontroller.GUIReference</text>
<text text-anchor="middle" x="518" y="-73" font-family="Helvetica,sans-Serif" font-size="10.00">Library.getStringTranslation</text>
</a>
</g>
</g>
<!-- Node2&#45;&gt;Node3 -->
<g id="edge2" class="edge"><title>Node2&#45;&gt;Node3</title>
<path fill="none" stroke="midnightblue" d="M376.102,-81C394.743,-81 414.497,-81 433.129,-81"/>
<polygon fill="midnightblue" stroke="midnightblue" points="433.35,-84.5001 443.35,-81 433.35,-77.5001 433.35,-84.5001"/>
</g>
<!-- Node5 -->
<g id="node5" class="node"><title>Node5</title>
<g id="a_node5"><a xlink:href="../../d5/d37/classviewcontroller_1_1turtlegrid_1_1_turtle_status_view_controller.html#a1a92ec1a1f94a80bc41be55562c44a72" target="_top" xlink:title="viewcontroller.turtlegrid.\lTurtleStatusViewController.populateHBox">
<polygon fill="white" stroke="black" points="412,-6 412,-36 624,-36 624,-6 412,-6"/>
<text text-anchor="start" x="420" y="-24" font-family="Helvetica,sans-Serif" font-size="10.00">viewcontroller.turtlegrid.</text>
<text text-anchor="middle" x="518" y="-13" font-family="Helvetica,sans-Serif" font-size="10.00">TurtleStatusViewController.populateHBox</text>
</a>
</g>
</g>
<!-- Node4&#45;&gt;Node5 -->
<g id="edge4" class="edge"><title>Node4&#45;&gt;Node5</title>
<path fill="none" stroke="midnightblue" d="M376.102,-21C384.445,-21 393.012,-21 401.601,-21"/>
<polygon fill="midnightblue" stroke="midnightblue" points="401.682,-24.5001 411.682,-21 401.682,-17.5001 401.682,-24.5001"/>
</g>
</g>
</svg>
