<?xml version="1.0" encoding="UTF-8" standalone="no"?>
<!DOCTYPE svg PUBLIC "-//W3C//DTD SVG 1.1//EN"
 "http://www.w3.org/Graphics/SVG/1.1/DTD/svg11.dtd">
<!-- Generated by graphviz version 2.36.0 (20140111.2315)
 -->
<!-- Title: viewcontroller.turtlegrid.TurtleStatusViewController.placeVariableTable Pages: 1 -->
<svg width="426pt" height="48pt"
 viewBox="0.00 0.00 426.00 48.00" xmlns="http://www.w3.org/2000/svg" xmlns:xlink="http://www.w3.org/1999/xlink">
<g id="graph0" class="graph" transform="scale(1 1) rotate(0) translate(4 44)">
<title>viewcontroller.turtlegrid.TurtleStatusViewController.placeVariableTable</title>
<polygon fill="white" stroke="none" points="-4,4 -4,-44 422,-44 422,4 -4,4"/>
<!-- Node1 -->
<g id="node1" class="node"><title>Node1</title>
<polygon fill="#bfbfbf" stroke="black" points="0,0.5 0,-40.5 170,-40.5 170,0.5 0,0.5"/>
<text text-anchor="start" x="8" y="-28.5" font-family="Helvetica,sans-Serif" font-size="10.00">viewcontroller.turtlegrid.</text>
<text text-anchor="start" x="8" y="-17.5" font-family="Helvetica,sans-Serif" font-size="10.00">TurtleStatusViewController.place</text>
<text text-anchor="middle" x="85" y="-6.5" font-family="Helvetica,sans-Serif" font-size="10.00">VariableTable</text>
</g>
<!-- Node2 -->
<g id="node2" class="node"><title>Node2</title>
<g id="a_node2"><a xlink:href="../../d5/d37/classviewcontroller_1_1turtlegrid_1_1_turtle_status_view_controller.html#a1a92ec1a1f94a80bc41be55562c44a72" target="_top" xlink:title="viewcontroller.turtlegrid.\lTurtleStatusViewController.populateHBox">
<polygon fill="white" stroke="black" points="206,-5 206,-35 418,-35 418,-5 206,-5"/>
<text text-anchor="start" x="214" y="-23" font-family="Helvetica,sans-Serif" font-size="10.00">viewcontroller.turtlegrid.</text>
<text text-anchor="middle" x="312" y="-12" font-family="Helvetica,sans-Serif" font-size="10.00">TurtleStatusViewController.populateHBox</text>
</a>
</g>
</g>
<!-- Node1&#45;&gt;Node2 -->
<g id="edge1" class="edge"><title>Node1&#45;&gt;Node2</title>
<path fill="none" stroke="midnightblue" d="M170.102,-20C178.445,-20 187.012,-20 195.601,-20"/>
<polygon fill="midnightblue" stroke="midnightblue" points="195.682,-23.5001 205.682,-20 195.682,-16.5001 195.682,-23.5001"/>
</g>
</g>
</svg>
