<?xml version="1.0" encoding="UTF-8" standalone="no"?>
<!DOCTYPE svg PUBLIC "-//W3C//DTD SVG 1.1//EN"
 "http://www.w3.org/Graphics/SVG/1.1/DTD/svg11.dtd">
<!-- Generated by graphviz version 2.36.0 (20140111.2315)
 -->
<!-- Title: viewcontroller.turtlegrid.TurtleStatusViewController.populateHBox Pages: 1 -->
<svg width="640pt" height="98pt"
 viewBox="0.00 0.00 640.00 98.00" xmlns="http://www.w3.org/2000/svg" xmlns:xlink="http://www.w3.org/1999/xlink">
<g id="graph0" class="graph" transform="scale(1 1) rotate(0) translate(4 94)">
<title>viewcontroller.turtlegrid.TurtleStatusViewController.populateHBox</title>
<polygon fill="white" stroke="none" points="-4,4 -4,-94 636,-94 636,4 -4,4"/>
<!-- Node1 -->
<g id="node1" class="node"><title>Node1</title>
<polygon fill="#bfbfbf" stroke="black" points="0,-27 0,-57 212,-57 212,-27 0,-27"/>
<text text-anchor="start" x="8" y="-45" font-family="Helvetica,sans-Serif" font-size="10.00">viewcontroller.turtlegrid.</text>
<text text-anchor="middle" x="106" y="-34" font-family="Helvetica,sans-Serif" font-size="10.00">TurtleStatusViewController.populateHBox</text>
</g>
<!-- Node2 -->
<g id="node2" class="node"><title>Node2</title>
<g id="a_node2"><a xlink:href="../../d5/d37/classviewcontroller_1_1turtlegrid_1_1_turtle_status_view_controller.html#ac2f96d649c49b8f4cc40b547f96e0c30" target="_top" xlink:title="viewcontroller.turtlegrid.\lTurtleStatusViewController.place\lVariableTable">
<polygon fill="white" stroke="black" points="252,-48.5 252,-89.5 422,-89.5 422,-48.5 252,-48.5"/>
<text text-anchor="start" x="260" y="-77.5" font-family="Helvetica,sans-Serif" font-size="10.00">viewcontroller.turtlegrid.</text>
<text text-anchor="start" x="260" y="-66.5" font-family="Helvetica,sans-Serif" font-size="10.00">TurtleStatusViewController.place</text>
<text text-anchor="middle" x="337" y="-55.5" font-family="Helvetica,sans-Serif" font-size="10.00">VariableTable</text>
</a>
</g>
</g>
<!-- Node1&#45;&gt;Node2 -->
<g id="edge1" class="edge"><title>Node1&#45;&gt;Node2</title>
<path fill="none" stroke="midnightblue" d="M222.102,-55.571C232.097,-56.7494 242.085,-57.9271 251.763,-59.0681"/>
<polygon fill="midnightblue" stroke="midnightblue" points="222.458,-52.0888 212.117,-54.3937 221.638,-59.0406 222.458,-52.0888"/>
</g>
<!-- Node4 -->
<g id="node4" class="node"><title>Node4</title>
<g id="a_node4"><a xlink:href="../../d5/d37/classviewcontroller_1_1turtlegrid_1_1_turtle_status_view_controller.html#a9aa6bf28f45c6a12d0f8ab568ca43b70" target="_top" xlink:title="viewcontroller.turtlegrid.\lTurtleStatusViewController.update">
<polygon fill="white" stroke="black" points="248,-0 248,-30 426,-30 426,-0 248,-0"/>
<text text-anchor="start" x="256" y="-18" font-family="Helvetica,sans-Serif" font-size="10.00">viewcontroller.turtlegrid.</text>
<text text-anchor="middle" x="337" y="-7" font-family="Helvetica,sans-Serif" font-size="10.00">TurtleStatusViewController.update</text>
</a>
</g>
</g>
<!-- Node1&#45;&gt;Node4 -->
<g id="edge3" class="edge"><title>Node1&#45;&gt;Node4</title>
<path fill="none" stroke="midnightblue" d="M222.257,-28.4108C230.903,-27.3914 239.542,-26.3727 247.979,-25.378"/>
<polygon fill="midnightblue" stroke="midnightblue" points="221.638,-24.9594 212.117,-29.6063 222.458,-31.9112 221.638,-24.9594"/>
</g>
<!-- Node3 -->
<g id="node3" class="node"><title>Node3</title>
<g id="a_node3"><a xlink:href="../../d5/d37/classviewcontroller_1_1turtlegrid_1_1_turtle_status_view_controller.html#a91a5194a988cb81a73ee772d09622b57" target="_top" xlink:title="viewcontroller.turtlegrid.\lTurtleStatusViewController.Turtle\lStatusViewController">
<polygon fill="white" stroke="black" points="462,-48.5 462,-89.5 632,-89.5 632,-48.5 462,-48.5"/>
<text text-anchor="start" x="470" y="-77.5" font-family="Helvetica,sans-Serif" font-size="10.00">viewcontroller.turtlegrid.</text>
<text text-anchor="start" x="470" y="-66.5" font-family="Helvetica,sans-Serif" font-size="10.00">TurtleStatusViewController.Turtle</text>
<text text-anchor="middle" x="547" y="-55.5" font-family="Helvetica,sans-Serif" font-size="10.00">StatusViewController</text>
</a>
</g>
</g>
<!-- Node2&#45;&gt;Node3 -->
<g id="edge2" class="edge"><title>Node2&#45;&gt;Node3</title>
<path fill="none" stroke="midnightblue" d="M432.19,-69C442.022,-69 451.972,-69 461.684,-69"/>
<polygon fill="midnightblue" stroke="midnightblue" points="432.002,-65.5001 422.002,-69 432.002,-72.5001 432.002,-65.5001"/>
</g>
</g>
</svg>
