<?xml version="1.0" encoding="UTF-8" standalone="no"?>
<!DOCTYPE svg PUBLIC "-//W3C//DTD SVG 1.1//EN"
 "http://www.w3.org/Graphics/SVG/1.1/DTD/svg11.dtd">
<!-- Generated by graphviz version 2.36.0 (20140111.2315)
 -->
<!-- Title: turtle.TurtleImage.setSelection Pages: 1 -->
<svg width="542pt" height="77pt"
 viewBox="0.00 0.00 542.00 77.00" xmlns="http://www.w3.org/2000/svg" xmlns:xlink="http://www.w3.org/1999/xlink">
<g id="graph0" class="graph" transform="scale(1 1) rotate(0) translate(4 73)">
<title>turtle.TurtleImage.setSelection</title>
<polygon fill="white" stroke="none" points="-4,4 -4,-73 538,-73 538,4 -4,4"/>
<!-- Node1 -->
<g id="node1" class="node"><title>Node1</title>
<polygon fill="#bfbfbf" stroke="black" points="0.5,-27.5 0.5,-46.5 163.5,-46.5 163.5,-27.5 0.5,-27.5"/>
<text text-anchor="middle" x="82" y="-34.5" font-family="Helvetica,sans-Serif" font-size="10.00">turtle.TurtleImage.setSelection</text>
</g>
<!-- Node2 -->
<g id="node2" class="node"><title>Node2</title>
<g id="a_node2"><a xlink:href="../../d8/d9e/classturtle_1_1_turtle_image.html#a6587599d2f864c33ff6086cb9848eaf3" target="_top" xlink:title="turtle.TurtleImage.isSelected">
<polygon fill="white" stroke="black" points="200.5,-49.5 200.5,-68.5 353.5,-68.5 353.5,-49.5 200.5,-49.5"/>
<text text-anchor="middle" x="277" y="-56.5" font-family="Helvetica,sans-Serif" font-size="10.00">turtle.TurtleImage.isSelected</text>
</a>
</g>
</g>
<!-- Node1&#45;&gt;Node2 -->
<g id="edge1" class="edge"><title>Node1&#45;&gt;Node2</title>
<path fill="none" stroke="midnightblue" d="M163.731,-46.2025C172.418,-47.1927 181.279,-48.2028 190.024,-49.1997"/>
<polygon fill="midnightblue" stroke="midnightblue" points="189.887,-52.7066 200.219,-50.3618 190.68,-45.7516 189.887,-52.7066"/>
</g>
<!-- Node3 -->
<g id="node3" class="node"><title>Node3</title>
<g id="a_node3"><a xlink:href="../../d8/d9e/classturtle_1_1_turtle_image.html#a37880a06baff09a9c69d194cb4b33a33" target="_top" xlink:title="turtle.TurtleImage.toggle\lSelection">
<polygon fill="white" stroke="black" points="210,-0 210,-30 344,-30 344,-0 210,-0"/>
<text text-anchor="start" x="218" y="-18" font-family="Helvetica,sans-Serif" font-size="10.00">turtle.TurtleImage.toggle</text>
<text text-anchor="middle" x="277" y="-7" font-family="Helvetica,sans-Serif" font-size="10.00">Selection</text>
</a>
</g>
</g>
<!-- Node1&#45;&gt;Node3 -->
<g id="edge2" class="edge"><title>Node1&#45;&gt;Node3</title>
<path fill="none" stroke="midnightblue" d="M163.731,-27.7975C175.635,-26.4406 187.868,-25.0461 199.679,-23.6998"/>
<polygon fill="midnightblue" stroke="midnightblue" points="200.391,-27.1414 209.93,-22.5312 199.598,-20.1864 200.391,-27.1414"/>
</g>
<!-- Node4 -->
<g id="node4" class="node"><title>Node4</title>
<g id="a_node4"><a xlink:href="../../d8/d9e/classturtle_1_1_turtle_image.html#a33d0b969173e754935978dc2516f6477" target="_top" xlink:title="turtle.TurtleImage.selected\lChanged">
<polygon fill="white" stroke="black" points="390,-0 390,-30 534,-30 534,-0 390,-0"/>
<text text-anchor="start" x="398" y="-18" font-family="Helvetica,sans-Serif" font-size="10.00">turtle.TurtleImage.selected</text>
<text text-anchor="middle" x="462" y="-7" font-family="Helvetica,sans-Serif" font-size="10.00">Changed</text>
</a>
</g>
</g>
<!-- Node3&#45;&gt;Node4 -->
<g id="edge3" class="edge"><title>Node3&#45;&gt;Node4</title>
<path fill="none" stroke="midnightblue" d="M344.067,-15C355.549,-15 367.611,-15 379.448,-15"/>
<polygon fill="midnightblue" stroke="midnightblue" points="379.773,-18.5001 389.773,-15 379.773,-11.5001 379.773,-18.5001"/>
</g>
</g>
</svg>
