<?xml version="1.0" encoding="UTF-8" standalone="no"?>
<!DOCTYPE svg PUBLIC "-//W3C//DTD SVG 1.1//EN"
 "http://www.w3.org/Graphics/SVG/1.1/DTD/svg11.dtd">
<!-- Generated by graphviz version 2.36.0 (20140111.2315)
 -->
<!-- Title: turtle.TurtleImage.isSelected Pages: 1 -->
<svg width="540pt" height="131pt"
 viewBox="0.00 0.00 540.00 131.00" xmlns="http://www.w3.org/2000/svg" xmlns:xlink="http://www.w3.org/1999/xlink">
<g id="graph0" class="graph" transform="scale(1 1) rotate(0) translate(4 127)">
<title>turtle.TurtleImage.isSelected</title>
<polygon fill="white" stroke="none" points="-4,4 -4,-127 536,-127 536,4 -4,4"/>
<!-- Node1 -->
<g id="node1" class="node"><title>Node1</title>
<polygon fill="#bfbfbf" stroke="black" points="0.5,-49.5 0.5,-68.5 153.5,-68.5 153.5,-49.5 0.5,-49.5"/>
<text text-anchor="middle" x="77" y="-56.5" font-family="Helvetica,sans-Serif" font-size="10.00">turtle.TurtleImage.isSelected</text>
</g>
<!-- Node2 -->
<g id="node2" class="node"><title>Node2</title>
<g id="a_node2"><a xlink:href="../../d4/de5/classturtle_1_1_turtle_view_controller.html#a60ecfe51ec0df4524841d6516dc51c27" target="_top" xlink:title="turtle.TurtleViewController.is\lSelected">
<polygon fill="white" stroke="black" points="197.5,-93 197.5,-123 346.5,-123 346.5,-93 197.5,-93"/>
<text text-anchor="start" x="205.5" y="-111" font-family="Helvetica,sans-Serif" font-size="10.00">turtle.TurtleViewController.is</text>
<text text-anchor="middle" x="272" y="-100" font-family="Helvetica,sans-Serif" font-size="10.00">Selected</text>
</a>
</g>
</g>
<!-- Node1&#45;&gt;Node2 -->
<g id="edge1" class="edge"><title>Node1&#45;&gt;Node2</title>
<path fill="none" stroke="midnightblue" d="M125.666,-71.1018C151.686,-77.708 184.139,-85.9471 211.773,-92.963"/>
<polygon fill="midnightblue" stroke="midnightblue" points="126.224,-67.6325 115.671,-68.564 124.502,-74.4173 126.224,-67.6325"/>
</g>
<!-- Node4 -->
<g id="node4" class="node"><title>Node4</title>
<g id="a_node4"><a xlink:href="../../d4/de5/classturtle_1_1_turtle_view_controller.html#a21ae1ce645d890c4f39922d75b949c2c" target="_top" xlink:title="turtle.TurtleViewController.set\lImage">
<polygon fill="white" stroke="black" points="194,-44 194,-74 350,-74 350,-44 194,-44"/>
<text text-anchor="start" x="202" y="-62" font-family="Helvetica,sans-Serif" font-size="10.00">turtle.TurtleViewController.set</text>
<text text-anchor="middle" x="272" y="-51" font-family="Helvetica,sans-Serif" font-size="10.00">Image</text>
</a>
</g>
</g>
<!-- Node1&#45;&gt;Node4 -->
<g id="edge3" class="edge"><title>Node1&#45;&gt;Node4</title>
<path fill="none" stroke="midnightblue" d="M164.025,-59C173.979,-59 184.083,-59 193.908,-59"/>
<polygon fill="midnightblue" stroke="midnightblue" points="163.725,-55.5001 153.725,-59 163.725,-62.5001 163.725,-55.5001"/>
</g>
<!-- Node6 -->
<g id="node6" class="node"><title>Node6</title>
<g id="a_node6"><a xlink:href="../../d8/d9e/classturtle_1_1_turtle_image.html#a1fa056f0c9823f351e5ccdc769dcbf82" target="_top" xlink:title="turtle.TurtleImage.setSelection">
<polygon fill="white" stroke="black" points="190.5,-5.5 190.5,-24.5 353.5,-24.5 353.5,-5.5 190.5,-5.5"/>
<text text-anchor="middle" x="272" y="-12.5" font-family="Helvetica,sans-Serif" font-size="10.00">turtle.TurtleImage.setSelection</text>
</a>
</g>
</g>
<!-- Node1&#45;&gt;Node6 -->
<g id="edge5" class="edge"><title>Node1&#45;&gt;Node6</title>
<path fill="none" stroke="midnightblue" d="M129.689,-47.2159C160.845,-40.1131 200.011,-31.184 229.204,-24.5287"/>
<polygon fill="midnightblue" stroke="midnightblue" points="128.85,-43.8174 119.878,-49.4527 130.406,-50.6423 128.85,-43.8174"/>
</g>
<!-- Node3 -->
<g id="node3" class="node"><title>Node3</title>
<g id="a_node3"><a xlink:href="../../df/dcb/classturtle_1_1_turtle.html#abedd68e7eb0e7f6c4cd4c479e319a5d4" target="_top" xlink:title="turtle.Turtle.isSelected">
<polygon fill="white" stroke="black" points="399.5,-98.5 399.5,-117.5 522.5,-117.5 522.5,-98.5 399.5,-98.5"/>
<text text-anchor="middle" x="461" y="-105.5" font-family="Helvetica,sans-Serif" font-size="10.00">turtle.Turtle.isSelected</text>
</a>
</g>
</g>
<!-- Node2&#45;&gt;Node3 -->
<g id="edge2" class="edge"><title>Node2&#45;&gt;Node3</title>
<path fill="none" stroke="midnightblue" d="M356.971,-108C371.26,-108 385.849,-108 399.385,-108"/>
<polygon fill="midnightblue" stroke="midnightblue" points="356.639,-104.5 346.639,-108 356.639,-111.5 356.639,-104.5"/>
</g>
<!-- Node5 -->
<g id="node5" class="node"><title>Node5</title>
<g id="a_node5"><a xlink:href="../../df/dcb/classturtle_1_1_turtle.html#a5e3ccd6cb3579c216a87e3cbc3fa2f51" target="_top" xlink:title="turtle.Turtle.setImage">
<polygon fill="white" stroke="black" points="401.5,-49.5 401.5,-68.5 520.5,-68.5 520.5,-49.5 401.5,-49.5"/>
<text text-anchor="middle" x="461" y="-56.5" font-family="Helvetica,sans-Serif" font-size="10.00">turtle.Turtle.setImage</text>
</a>
</g>
</g>
<!-- Node4&#45;&gt;Node5 -->
<g id="edge4" class="edge"><title>Node4&#45;&gt;Node5</title>
<path fill="none" stroke="midnightblue" d="M360.23,-59C374.156,-59 388.269,-59 401.325,-59"/>
<polygon fill="midnightblue" stroke="midnightblue" points="360.14,-55.5001 350.14,-59 360.14,-62.5001 360.14,-55.5001"/>
</g>
<!-- Node7 -->
<g id="node7" class="node"><title>Node7</title>
<g id="a_node7"><a xlink:href="../../d4/de5/classturtle_1_1_turtle_view_controller.html#a8d91f2edeec5c28de92f2bec26d2f918" target="_top" xlink:title="turtle.TurtleViewController.\lTurtleViewController">
<polygon fill="white" stroke="black" points="390.5,-0 390.5,-30 531.5,-30 531.5,-0 390.5,-0"/>
<text text-anchor="start" x="398.5" y="-18" font-family="Helvetica,sans-Serif" font-size="10.00">turtle.TurtleViewController.</text>
<text text-anchor="middle" x="461" y="-7" font-family="Helvetica,sans-Serif" font-size="10.00">TurtleViewController</text>
</a>
</g>
</g>
<!-- Node6&#45;&gt;Node7 -->
<g id="edge6" class="edge"><title>Node6&#45;&gt;Node7</title>
<path fill="none" stroke="midnightblue" d="M363.766,-15C372.744,-15 381.756,-15 390.47,-15"/>
<polygon fill="midnightblue" stroke="midnightblue" points="363.662,-11.5001 353.662,-15 363.662,-18.5001 363.662,-11.5001"/>
</g>
</g>
</svg>
