<?xml version="1.0" encoding="UTF-8" standalone="no"?>
<!DOCTYPE svg PUBLIC "-//W3C//DTD SVG 1.1//EN"
 "http://www.w3.org/Graphics/SVG/1.1/DTD/svg11.dtd">
<!-- Generated by graphviz version 2.36.0 (20140111.2315)
 -->
<!-- Title: turtle.TurtleImage.toggleSelection Pages: 1 -->
<svg width="322pt" height="38pt"
 viewBox="0.00 0.00 322.00 38.00" xmlns="http://www.w3.org/2000/svg" xmlns:xlink="http://www.w3.org/1999/xlink">
<g id="graph0" class="graph" transform="scale(1 1) rotate(0) translate(4 34)">
<title>turtle.TurtleImage.toggleSelection</title>
<polygon fill="white" stroke="none" points="-4,4 -4,-34 318,-34 318,4 -4,4"/>
<!-- Node1 -->
<g id="node1" class="node"><title>Node1</title>
<polygon fill="#bfbfbf" stroke="black" points="0,-0 0,-30 134,-30 134,-0 0,-0"/>
<text text-anchor="start" x="8" y="-18" font-family="Helvetica,sans-Serif" font-size="10.00">turtle.TurtleImage.toggle</text>
<text text-anchor="middle" x="67" y="-7" font-family="Helvetica,sans-Serif" font-size="10.00">Selection</text>
</g>
<!-- Node2 -->
<g id="node2" class="node"><title>Node2</title>
<g id="a_node2"><a xlink:href="../../d8/d9e/classturtle_1_1_turtle_image.html#a33d0b969173e754935978dc2516f6477" target="_top" xlink:title="turtle.TurtleImage.selected\lChanged">
<polygon fill="white" stroke="black" points="170,-0 170,-30 314,-30 314,-0 170,-0"/>
<text text-anchor="start" x="178" y="-18" font-family="Helvetica,sans-Serif" font-size="10.00">turtle.TurtleImage.selected</text>
<text text-anchor="middle" x="242" y="-7" font-family="Helvetica,sans-Serif" font-size="10.00">Changed</text>
</a>
</g>
</g>
<!-- Node1&#45;&gt;Node2 -->
<g id="edge1" class="edge"><title>Node1&#45;&gt;Node2</title>
<path fill="none" stroke="midnightblue" d="M134.392,-15C142.656,-15 151.18,-15 159.638,-15"/>
<polygon fill="midnightblue" stroke="midnightblue" points="159.901,-18.5001 169.901,-15 159.901,-11.5001 159.901,-18.5001"/>
</g>
</g>
</svg>
