<?xml version="1.0" encoding="UTF-8" standalone="no"?>
<!DOCTYPE svg PUBLIC "-//W3C//DTD SVG 1.1//EN"
 "http://www.w3.org/Graphics/SVG/1.1/DTD/svg11.dtd">
<!-- Generated by graphviz version 2.36.0 (20140111.2315)
 -->
<!-- Title: turtle.TurtleImage.getRadius Pages: 1 -->
<svg width="984pt" height="38pt"
 viewBox="0.00 0.00 984.00 38.00" xmlns="http://www.w3.org/2000/svg" xmlns:xlink="http://www.w3.org/1999/xlink">
<g id="graph0" class="graph" transform="scale(1 1) rotate(0) translate(4 34)">
<title>turtle.TurtleImage.getRadius</title>
<polygon fill="white" stroke="none" points="-4,4 -4,-34 980,-34 980,4 -4,4"/>
<!-- Node1 -->
<g id="node1" class="node"><title>Node1</title>
<polygon fill="#bfbfbf" stroke="black" points="0.5,-5.5 0.5,-24.5 151.5,-24.5 151.5,-5.5 0.5,-5.5"/>
<text text-anchor="middle" x="76" y="-12.5" font-family="Helvetica,sans-Serif" font-size="10.00">turtle.TurtleImage.getRadius</text>
</g>
<!-- Node2 -->
<g id="node2" class="node"><title>Node2</title>
<g id="a_node2"><a xlink:href="../../d4/de5/classturtle_1_1_turtle_view_controller.html#aa680f2bc84eb3e1a5d2225a7524738c2" target="_top" xlink:title="turtle.TurtleViewController.get\lRadius">
<polygon fill="white" stroke="black" points="188.5,-0 188.5,-30 345.5,-30 345.5,-0 188.5,-0"/>
<text text-anchor="start" x="196.5" y="-18" font-family="Helvetica,sans-Serif" font-size="10.00">turtle.TurtleViewController.get</text>
<text text-anchor="middle" x="267" y="-7" font-family="Helvetica,sans-Serif" font-size="10.00">Radius</text>
</a>
</g>
</g>
<!-- Node1&#45;&gt;Node2 -->
<g id="edge1" class="edge"><title>Node1&#45;&gt;Node2</title>
<path fill="none" stroke="midnightblue" d="M161.972,-15C170.784,-15 179.708,-15 188.432,-15"/>
<polygon fill="midnightblue" stroke="midnightblue" points="161.698,-11.5001 151.698,-15 161.698,-18.5001 161.698,-11.5001"/>
</g>
<!-- Node3 -->
<g id="node3" class="node"><title>Node3</title>
<g id="a_node3"><a xlink:href="../../df/dcb/classturtle_1_1_turtle.html#a67e499a3b2c885a82659e2fe0f70b284" target="_top" xlink:title="turtle.Turtle.getTurtleRadius">
<polygon fill="white" stroke="black" points="382,-5.5 382,-24.5 528,-24.5 528,-5.5 382,-5.5"/>
<text text-anchor="middle" x="455" y="-12.5" font-family="Helvetica,sans-Serif" font-size="10.00">turtle.Turtle.getTurtleRadius</text>
</a>
</g>
</g>
<!-- Node2&#45;&gt;Node3 -->
<g id="edge2" class="edge"><title>Node2&#45;&gt;Node3</title>
<path fill="none" stroke="midnightblue" d="M355.777,-15C364.542,-15 373.37,-15 381.947,-15"/>
<polygon fill="midnightblue" stroke="midnightblue" points="355.534,-11.5001 345.534,-15 355.534,-18.5001 355.534,-11.5001"/>
</g>
<!-- Node4 -->
<g id="node4" class="node"><title>Node4</title>
<g id="a_node4"><a xlink:href="../../de/de7/classturtle_1_1draw_1_1_linear_transition.html#a147bb7b97f186ad172b2d71aec4e9e8e" target="_top" xlink:title="turtle.draw.LinearTransition.check\lWrapping">
<polygon fill="white" stroke="black" points="564.5,-0 564.5,-30 739.5,-30 739.5,-0 564.5,-0"/>
<text text-anchor="start" x="572.5" y="-18" font-family="Helvetica,sans-Serif" font-size="10.00">turtle.draw.LinearTransition.check</text>
<text text-anchor="middle" x="652" y="-7" font-family="Helvetica,sans-Serif" font-size="10.00">Wrapping</text>
</a>
</g>
</g>
<!-- Node3&#45;&gt;Node4 -->
<g id="edge3" class="edge"><title>Node3&#45;&gt;Node4</title>
<path fill="none" stroke="midnightblue" d="M538.145,-15C546.818,-15 555.658,-15 564.38,-15"/>
<polygon fill="midnightblue" stroke="midnightblue" points="538.057,-11.5001 528.057,-15 538.057,-18.5001 538.057,-11.5001"/>
</g>
<!-- Node5 -->
<g id="node5" class="node"><title>Node5</title>
<g id="a_node5"><a xlink:href="../../de/de7/classturtle_1_1draw_1_1_linear_transition.html#a799e134af5efa1d05033f88d131289d1" target="_top" xlink:title="turtle.draw.LinearTransition.interpolate">
<polygon fill="white" stroke="black" points="776.5,-5.5 776.5,-24.5 975.5,-24.5 975.5,-5.5 776.5,-5.5"/>
<text text-anchor="middle" x="876" y="-12.5" font-family="Helvetica,sans-Serif" font-size="10.00">turtle.draw.LinearTransition.interpolate</text>
</a>
</g>
</g>
<!-- Node4&#45;&gt;Node5 -->
<g id="edge4" class="edge"><title>Node4&#45;&gt;Node5</title>
<path fill="none" stroke="midnightblue" d="M750.024,-15C758.805,-15 767.704,-15 776.497,-15"/>
<polygon fill="midnightblue" stroke="midnightblue" points="749.785,-11.5001 739.785,-15 749.785,-18.5001 749.785,-11.5001"/>
</g>
</g>
</svg>
