<?xml version="1.0" encoding="UTF-8" standalone="no"?>
<!DOCTYPE svg PUBLIC "-//W3C//DTD SVG 1.1//EN"
 "http://www.w3.org/Graphics/SVG/1.1/DTD/svg11.dtd">
<!-- Generated by graphviz version 2.36.0 (20140111.2315)
 -->
<!-- Title: turtle.TurtleImage.updateVisible Pages: 1 -->
<svg width="1156pt" height="38pt"
 viewBox="0.00 0.00 1156.00 38.00" xmlns="http://www.w3.org/2000/svg" xmlns:xlink="http://www.w3.org/1999/xlink">
<g id="graph0" class="graph" transform="scale(1 1) rotate(0) translate(4 34)">
<title>turtle.TurtleImage.updateVisible</title>
<polygon fill="white" stroke="none" points="-4,4 -4,-34 1152,-34 1152,4 -4,4"/>
<!-- Node1 -->
<g id="node1" class="node"><title>Node1</title>
<polygon fill="#bfbfbf" stroke="black" points="0.5,-0 0.5,-30 137.5,-30 137.5,-0 0.5,-0"/>
<text text-anchor="start" x="8.5" y="-18" font-family="Helvetica,sans-Serif" font-size="10.00">turtle.TurtleImage.update</text>
<text text-anchor="middle" x="69" y="-7" font-family="Helvetica,sans-Serif" font-size="10.00">Visible</text>
</g>
<!-- Node2 -->
<g id="node2" class="node"><title>Node2</title>
<g id="a_node2"><a xlink:href="../../d4/de5/classturtle_1_1_turtle_view_controller.html#a27ab1368e9369b701b2d49ede5b2aaab" target="_top" xlink:title="turtle.TurtleViewController.update\lVisible">
<polygon fill="white" stroke="black" points="174.5,-0 174.5,-30 349.5,-30 349.5,-0 174.5,-0"/>
<text text-anchor="start" x="182.5" y="-18" font-family="Helvetica,sans-Serif" font-size="10.00">turtle.TurtleViewController.update</text>
<text text-anchor="middle" x="262" y="-7" font-family="Helvetica,sans-Serif" font-size="10.00">Visible</text>
</a>
</g>
</g>
<!-- Node1&#45;&gt;Node2 -->
<g id="edge1" class="edge"><title>Node1&#45;&gt;Node2</title>
<path fill="none" stroke="midnightblue" d="M147.791,-15C156.562,-15 165.539,-15 174.413,-15"/>
<polygon fill="midnightblue" stroke="midnightblue" points="147.608,-11.5001 137.608,-15 147.608,-18.5001 147.608,-11.5001"/>
</g>
<!-- Node3 -->
<g id="node3" class="node"><title>Node3</title>
<g id="a_node3"><a xlink:href="../../df/dcb/classturtle_1_1_turtle.html#a19d13fd5d60f50cdbcea2a4e4b4a533d" target="_top" xlink:title="turtle.Turtle.updateVisual\lState">
<polygon fill="white" stroke="black" points="386,-0 386,-30 522,-30 522,-0 386,-0"/>
<text text-anchor="start" x="394" y="-18" font-family="Helvetica,sans-Serif" font-size="10.00">turtle.Turtle.updateVisual</text>
<text text-anchor="middle" x="454" y="-7" font-family="Helvetica,sans-Serif" font-size="10.00">State</text>
</a>
</g>
</g>
<!-- Node2&#45;&gt;Node3 -->
<g id="edge2" class="edge"><title>Node2&#45;&gt;Node3</title>
<path fill="none" stroke="midnightblue" d="M359.925,-15C368.677,-15 377.406,-15 385.817,-15"/>
<polygon fill="midnightblue" stroke="midnightblue" points="359.66,-11.5001 349.66,-15 359.66,-18.5001 359.66,-11.5001"/>
</g>
<!-- Node4 -->
<g id="node4" class="node"><title>Node4</title>
<g id="a_node4"><a xlink:href="../../dc/d3e/classturtle_1_1draw_1_1_transition_factory.html#adb38be68a00bde2421dbdf0d55a93e54" target="_top" xlink:title="turtle.draw.TransitionFactory.create\lTurtleTransition">
<polygon fill="white" stroke="black" points="558,-0 558,-30 740,-30 740,-0 558,-0"/>
<text text-anchor="start" x="566" y="-18" font-family="Helvetica,sans-Serif" font-size="10.00">turtle.draw.TransitionFactory.create</text>
<text text-anchor="middle" x="649" y="-7" font-family="Helvetica,sans-Serif" font-size="10.00">TurtleTransition</text>
</a>
</g>
</g>
<!-- Node3&#45;&gt;Node4 -->
<g id="edge3" class="edge"><title>Node3&#45;&gt;Node4</title>
<path fill="none" stroke="midnightblue" d="M532.367,-15C540.774,-15 549.383,-15 557.924,-15"/>
<polygon fill="midnightblue" stroke="midnightblue" points="532.231,-11.5001 522.231,-15 532.231,-18.5001 532.231,-11.5001"/>
</g>
<!-- Node5 -->
<g id="node5" class="node"><title>Node5</title>
<g id="a_node5"><a xlink:href="../../dc/d3e/classturtle_1_1draw_1_1_transition_factory.html#a31b362130278174931595c1ce68c7ff5" target="_top" xlink:title="turtle.draw.TransitionFactory.create\lAnimation">
<polygon fill="white" stroke="black" points="776,-0 776,-30 958,-30 958,-0 776,-0"/>
<text text-anchor="start" x="784" y="-18" font-family="Helvetica,sans-Serif" font-size="10.00">turtle.draw.TransitionFactory.create</text>
<text text-anchor="middle" x="867" y="-7" font-family="Helvetica,sans-Serif" font-size="10.00">Animation</text>
</a>
</g>
</g>
<!-- Node4&#45;&gt;Node5 -->
<g id="edge4" class="edge"><title>Node4&#45;&gt;Node5</title>
<path fill="none" stroke="midnightblue" d="M750.059,-15C758.631,-15 767.27,-15 775.759,-15"/>
<polygon fill="midnightblue" stroke="midnightblue" points="750.039,-11.5001 740.039,-15 750.039,-18.5001 750.039,-11.5001"/>
</g>
<!-- Node6 -->
<g id="node6" class="node"><title>Node6</title>
<g id="a_node6"><a xlink:href="../../df/dcb/classturtle_1_1_turtle.html#a72a5d11b319fe2819a646569d5034557" target="_top" xlink:title="turtle.Turtle.createAnimation">
<polygon fill="white" stroke="black" points="994.5,-5.5 994.5,-24.5 1147.5,-24.5 1147.5,-5.5 994.5,-5.5"/>
<text text-anchor="middle" x="1071" y="-12.5" font-family="Helvetica,sans-Serif" font-size="10.00">turtle.Turtle.createAnimation</text>
</a>
</g>
</g>
<!-- Node5&#45;&gt;Node6 -->
<g id="edge5" class="edge"><title>Node5&#45;&gt;Node6</title>
<path fill="none" stroke="midnightblue" d="M968.314,-15C977.055,-15 985.804,-15 994.297,-15"/>
<polygon fill="midnightblue" stroke="midnightblue" points="968.071,-11.5001 958.071,-15 968.071,-18.5001 968.071,-11.5001"/>
</g>
</g>
</svg>
