<?xml version="1.0" encoding="UTF-8" standalone="no"?>
<!DOCTYPE svg PUBLIC "-//W3C//DTD SVG 1.1//EN"
 "http://www.w3.org/Graphics/SVG/1.1/DTD/svg11.dtd">
<!-- Generated by graphviz version 2.36.0 (20140111.2315)
 -->
<!-- Title: turtle.NullTurtleHistoryState Pages: 1 -->
<svg width="195pt" height="166pt"
 viewBox="0.00 0.00 195.00 166.00" xmlns="http://www.w3.org/2000/svg" xmlns:xlink="http://www.w3.org/1999/xlink">
<g id="graph0" class="graph" transform="scale(1 1) rotate(0) translate(4 162)">
<title>turtle.NullTurtleHistoryState</title>
<polygon fill="white" stroke="none" points="-4,4 -4,-162 191,-162 191,4 -4,4"/>
<!-- Node1 -->
<g id="node1" class="node"><title>Node1</title>
<polygon fill="#bfbfbf" stroke="black" points="37,-1 37,-31 159,-31 159,-1 37,-1"/>
<text text-anchor="start" x="45" y="-19" font-family="Helvetica,sans-Serif" font-size="10.00">turtle.NullTurtleHistory</text>
<text text-anchor="middle" x="98" y="-8" font-family="Helvetica,sans-Serif" font-size="10.00">State</text>
</g>
<!-- Node2 -->
<g id="node2" class="node"><title>Node2</title>
<g id="a_node2"><a xlink:href="../../d5/d4b/classturtle_1_1_turtle_history_state.html" target="_top" xlink:title="turtle.TurtleHistoryState">
<polygon fill="white" stroke="black" points="32.5,-70.5 32.5,-89.5 163.5,-89.5 163.5,-70.5 32.5,-70.5"/>
<text text-anchor="middle" x="98" y="-77.5" font-family="Helvetica,sans-Serif" font-size="10.00">turtle.TurtleHistoryState</text>
</a>
</g>
</g>
<!-- Node2&#45;&gt;Node1 -->
<g id="edge1" class="edge"><title>Node2&#45;&gt;Node1</title>
<path fill="none" stroke="midnightblue" d="M98,-60.1826C98,-50.8859 98,-39.8507 98,-31.263"/>
<polygon fill="midnightblue" stroke="midnightblue" points="94.5001,-60.3791 98,-70.3792 101.5,-60.3792 94.5001,-60.3791"/>
</g>
<!-- Node3 -->
<g id="node3" class="node"><title>Node3</title>
<polygon fill="white" stroke="#bfbfbf" points="-0.5,-138.5 -0.5,-157.5 94.5,-157.5 94.5,-138.5 -0.5,-138.5"/>
<text text-anchor="middle" x="47" y="-145.5" font-family="Helvetica,sans-Serif" font-size="10.00">ParallelTransition</text>
</g>
<!-- Node3&#45;&gt;Node2 -->
<g id="edge2" class="edge"><title>Node3&#45;&gt;Node2</title>
<path fill="none" stroke="#9a32cd" stroke-dasharray="5,2" d="M51.2238,-128.353C53.3847,-121.504 56.5304,-113.972 61,-108 66.6227,-100.488 74.9231,-94.1643 82.2381,-89.5299"/>
<polygon fill="#9a32cd" stroke="#9a32cd" points="47.7846,-127.666 48.5898,-138.231 54.5483,-129.47 47.7846,-127.666"/>
<text text-anchor="middle" x="94.5" y="-111.5" font-family="Helvetica,sans-Serif" font-size="10.00"> myAnimation</text>
</g>
<!-- Node4 -->
<g id="node4" class="node"><title>Node4</title>
<polygon fill="white" stroke="#bfbfbf" points="112.5,-138.5 112.5,-157.5 187.5,-157.5 187.5,-138.5 112.5,-138.5"/>
<text text-anchor="middle" x="150" y="-145.5" font-family="Helvetica,sans-Serif" font-size="10.00">Set&lt; Line &gt;</text>
</g>
<!-- Node4&#45;&gt;Node2 -->
<g id="edge3" class="edge"><title>Node4&#45;&gt;Node2</title>
<path fill="none" stroke="#9a32cd" stroke-dasharray="5,2" d="M141.517,-129.175C137.826,-122.244 133.162,-114.439 128,-108 122.565,-101.221 115.357,-94.6743 109.368,-89.7256"/>
<polygon fill="#9a32cd" stroke="#9a32cd" points="138.557,-131.079 146.174,-138.443 144.812,-127.936 138.557,-131.079"/>
<text text-anchor="middle" x="156.5" y="-111.5" font-family="Helvetica,sans-Serif" font-size="10.00"> myLines</text>
</g>
</g>
</svg>
