<?xml version="1.0" encoding="UTF-8" standalone="no"?>
<!DOCTYPE svg PUBLIC "-//W3C//DTD SVG 1.1//EN"
 "http://www.w3.org/Graphics/SVG/1.1/DTD/svg11.dtd">
<!-- Generated by graphviz version 2.36.0 (20140111.2315)
 -->
<!-- Title: turtle.draw.TurnTransition.setTurn Pages: 1 -->
<svg width="1024pt" height="38pt"
 viewBox="0.00 0.00 1024.00 38.00" xmlns="http://www.w3.org/2000/svg" xmlns:xlink="http://www.w3.org/1999/xlink">
<g id="graph0" class="graph" transform="scale(1 1) rotate(0) translate(4 34)">
<title>turtle.draw.TurnTransition.setTurn</title>
<polygon fill="white" stroke="none" points="-4,4 -4,-34 1020,-34 1020,4 -4,4"/>
<!-- Node1 -->
<g id="node1" class="node"><title>Node1</title>
<polygon fill="#bfbfbf" stroke="black" points="0,-5.5 0,-24.5 172,-24.5 172,-5.5 0,-5.5"/>
<text text-anchor="middle" x="86" y="-12.5" font-family="Helvetica,sans-Serif" font-size="10.00">turtle.draw.TurnTransition.setTurn</text>
</g>
<!-- Node2 -->
<g id="node2" class="node"><title>Node2</title>
<g id="a_node2"><a xlink:href="../../dc/d3e/classturtle_1_1draw_1_1_transition_factory.html#ac71cc2cb5d25b3db756926c69b2da8a6" target="_top" xlink:title="turtle.draw.TransitionFactory.create\lTurnTransition">
<polygon fill="white" stroke="black" points="208,-0 208,-30 390,-30 390,-0 208,-0"/>
<text text-anchor="start" x="216" y="-18" font-family="Helvetica,sans-Serif" font-size="10.00">turtle.draw.TransitionFactory.create</text>
<text text-anchor="middle" x="299" y="-7" font-family="Helvetica,sans-Serif" font-size="10.00">TurnTransition</text>
</a>
</g>
</g>
<!-- Node1&#45;&gt;Node2 -->
<g id="edge1" class="edge"><title>Node1&#45;&gt;Node2</title>
<path fill="none" stroke="midnightblue" d="M182.223,-15C190.797,-15 199.462,-15 207.99,-15"/>
<polygon fill="midnightblue" stroke="midnightblue" points="182.214,-11.5001 172.214,-15 182.214,-18.5001 182.214,-11.5001"/>
</g>
<!-- Node3 -->
<g id="node3" class="node"><title>Node3</title>
<g id="a_node3"><a xlink:href="../../dc/d3e/classturtle_1_1draw_1_1_transition_factory.html#adb38be68a00bde2421dbdf0d55a93e54" target="_top" xlink:title="turtle.draw.TransitionFactory.create\lTurtleTransition">
<polygon fill="white" stroke="black" points="426,-0 426,-30 608,-30 608,-0 426,-0"/>
<text text-anchor="start" x="434" y="-18" font-family="Helvetica,sans-Serif" font-size="10.00">turtle.draw.TransitionFactory.create</text>
<text text-anchor="middle" x="517" y="-7" font-family="Helvetica,sans-Serif" font-size="10.00">TurtleTransition</text>
</a>
</g>
</g>
<!-- Node2&#45;&gt;Node3 -->
<g id="edge2" class="edge"><title>Node2&#45;&gt;Node3</title>
<path fill="none" stroke="midnightblue" d="M400.059,-15C408.631,-15 417.27,-15 425.759,-15"/>
<polygon fill="midnightblue" stroke="midnightblue" points="400.039,-11.5001 390.039,-15 400.039,-18.5001 400.039,-11.5001"/>
</g>
<!-- Node4 -->
<g id="node4" class="node"><title>Node4</title>
<g id="a_node4"><a xlink:href="../../dc/d3e/classturtle_1_1draw_1_1_transition_factory.html#a31b362130278174931595c1ce68c7ff5" target="_top" xlink:title="turtle.draw.TransitionFactory.create\lAnimation">
<polygon fill="white" stroke="black" points="644,-0 644,-30 826,-30 826,-0 644,-0"/>
<text text-anchor="start" x="652" y="-18" font-family="Helvetica,sans-Serif" font-size="10.00">turtle.draw.TransitionFactory.create</text>
<text text-anchor="middle" x="735" y="-7" font-family="Helvetica,sans-Serif" font-size="10.00">Animation</text>
</a>
</g>
</g>
<!-- Node3&#45;&gt;Node4 -->
<g id="edge3" class="edge"><title>Node3&#45;&gt;Node4</title>
<path fill="none" stroke="midnightblue" d="M618.059,-15C626.631,-15 635.27,-15 643.759,-15"/>
<polygon fill="midnightblue" stroke="midnightblue" points="618.039,-11.5001 608.039,-15 618.039,-18.5001 618.039,-11.5001"/>
</g>
<!-- Node5 -->
<g id="node5" class="node"><title>Node5</title>
<g id="a_node5"><a xlink:href="../../df/dcb/classturtle_1_1_turtle.html#a72a5d11b319fe2819a646569d5034557" target="_top" xlink:title="turtle.Turtle.createAnimation">
<polygon fill="white" stroke="black" points="862.5,-5.5 862.5,-24.5 1015.5,-24.5 1015.5,-5.5 862.5,-5.5"/>
<text text-anchor="middle" x="939" y="-12.5" font-family="Helvetica,sans-Serif" font-size="10.00">turtle.Turtle.createAnimation</text>
</a>
</g>
</g>
<!-- Node4&#45;&gt;Node5 -->
<g id="edge4" class="edge"><title>Node4&#45;&gt;Node5</title>
<path fill="none" stroke="midnightblue" d="M836.314,-15C845.055,-15 853.804,-15 862.297,-15"/>
<polygon fill="midnightblue" stroke="midnightblue" points="836.071,-11.5001 826.071,-15 836.071,-18.5001 836.071,-11.5001"/>
</g>
</g>
</svg>
