<?xml version="1.0" encoding="UTF-8" standalone="no"?>
<!DOCTYPE svg PUBLIC "-//W3C//DTD SVG 1.1//EN"
 "http://www.w3.org/Graphics/SVG/1.1/DTD/svg11.dtd">
<!-- Generated by graphviz version 2.36.0 (20140111.2315)
 -->
<!-- Title: turtle.TurtleHistoryState.getAnimation Pages: 1 -->
<!--zoomable 160 -->
<svg id="main" version="1.1" xmlns="http://www.w3.org/2000/svg" xmlns:xlink="http://www.w3.org/1999/xlink" xml:space="preserve" onload="init(evt)">
<style type="text/css"><![CDATA[
.edge:hover path { stroke: red; }
.edge:hover polygon { stroke: red; fill: red; }
]]></style>
<script type="text/javascript"><![CDATA[
var edges = document.getElementsByTagName('g');
if (edges && edges.length) {
  for (var i=0;i<edges.length;i++) {
    if (edges[i].id.substr(0,4)=='edge') {
      edges[i].setAttribute('class','edge');
    }
  }
}
]]></script>
        <defs>
                <circle id="rim" cx="0" cy="0" r="7"/>
                <circle id="rim2" cx="0" cy="0" r="3.5"/>
                <g id="zoomPlus">
                        <use xlink:href="#rim" fill="#404040">
                                <set attributeName="fill" to="#808080" begin="zoomplus.mouseover" end="zoomplus.mouseout"/>
                        </use>
                        <path d="M-4,0h8M0,-4v8" fill="none" stroke="white" stroke-width="1.5" pointer-events="none"/>
                </g>
                <g id="zoomMin">
                        <use xlink:href="#rim" fill="#404040">
                                <set attributeName="fill" to="#808080" begin="zoomminus.mouseover" end="zoomminus.mouseout"/>
                        </use>
                        <path d="M-4,0h8" fill="none" stroke="white" stroke-width="1.5" pointer-events="none"/>
                </g>
                <g id="dirArrow">
                        <path fill="none" stroke="white" stroke-width="1.5" d="M0,-3.0v7 M-2.5,-0.5L0,-3.0L2.5,-0.5"/>
                </g>
               <g id="resetDef">
                       <use xlink:href="#rim2" fill="#404040">
                               <set attributeName="fill" to="#808080" begin="reset.mouseover" end="reset.mouseout"/>
                       </use>
               </g>
        </defs>

<script type="text/javascript">
var viewWidth = 1058;
var viewHeight = 160;
var sectionId = 'dynsection-2';
</script>
<script xlink:href="../../svgpan.js"/>
<svg id="graph" class="graph">
<g id="viewport">
<title>turtle.TurtleHistoryState.getAnimation</title>
<polygon fill="white" stroke="none" points="-4,4 -4,-156.268 1054,-156.268 1054,4 -4,4"/>
<!-- Node1 -->
<g id="node1" class="node"><title>Node1</title>
<polygon fill="#bfbfbf" stroke="black" points="0.5,-51.2678 0.5,-81.2678 149.5,-81.2678 149.5,-51.2678 0.5,-51.2678"/>
<text text-anchor="start" x="8.5" y="-69.2678" font-family="Helvetica,sans-Serif" font-size="10.00">turtle.TurtleHistoryState.get</text>
<text text-anchor="middle" x="75" y="-58.2678" font-family="Helvetica,sans-Serif" font-size="10.00">Animation</text>
</g>
<!-- Node2 -->
<g id="node2" class="node"><title>Node2</title>
<g id="a_node2"><a xlink:href="../../d4/d57/classturtle_1_1_turtle_list_history.html#a38bde8e8aef6a8454244e1014db8cb17" target="_top" xlink:title="turtle.TurtleListHistory.redo">
<polygon fill="white" stroke="black" points="187,-132.768 187,-151.768 331,-151.768 331,-132.768 187,-132.768"/>
<text text-anchor="middle" x="259" y="-139.768" font-family="Helvetica,sans-Serif" font-size="10.00">turtle.TurtleListHistory.redo</text>
</a>
</g>
</g>
<!-- Node1&#45;&gt;Node2 -->
<g id="edge1" class="edge"><title>Node1&#45;&gt;Node2</title>
<path fill="none" stroke="midnightblue" d="M114.625,-85.919C135.492,-96.1797 161.86,-108.579 186,-118.268 199.084,-123.519 213.809,-128.573 226.517,-132.678"/>
<polygon fill="midnightblue" stroke="midnightblue" points="115.966,-82.6776 105.452,-81.3726 112.858,-88.9495 115.966,-82.6776"/>
</g>
<!-- Node3 -->
<g id="node3" class="node"><title>Node3</title>
<g id="a_node3"><a xlink:href="../../de/d21/classmodel_1_1_main_model.html#a431f63b1432be07294d7fcf9980d8c8f" target="_top" xlink:title="model.MainModel.redoClicked">
<polygon fill="white" stroke="black" points="369.5,-94.7678 369.5,-113.768 528.5,-113.768 528.5,-94.7678 369.5,-94.7678"/>
<text text-anchor="middle" x="449" y="-101.768" font-family="Helvetica,sans-Serif" font-size="10.00">model.MainModel.redoClicked</text>
</a>
</g>
</g>
<!-- Node1&#45;&gt;Node3 -->
<g id="edge6" class="edge"><title>Node1&#45;&gt;Node3</title>
<path fill="none" stroke="midnightblue" d="M159.546,-81.5841C168.458,-82.9532 177.404,-84.2164 186,-85.2678 247.338,-92.7708 317.145,-97.6541 369.271,-100.589"/>
<polygon fill="midnightblue" stroke="midnightblue" points="159.942,-78.1033 149.518,-79.999 158.849,-85.0175 159.942,-78.1033"/>
</g>
<!-- Node7 -->
<g id="node7" class="node"><title>Node7</title>
<g id="a_node7"><a xlink:href="../../dd/d47/classturtle_1_1_turtle_history.html#a465fe45b2c6d45f83c2e894d1186f8e2" target="_top" xlink:title="turtle.TurtleHistory.undo">
<polygon fill="white" stroke="black" points="194,-56.7678 194,-75.7678 324,-75.7678 324,-56.7678 194,-56.7678"/>
<text text-anchor="middle" x="259" y="-63.7678" font-family="Helvetica,sans-Serif" font-size="10.00">turtle.TurtleHistory.undo</text>
</a>
</g>
</g>
<!-- Node1&#45;&gt;Node7 -->
<g id="edge7" class="edge"><title>Node1&#45;&gt;Node7</title>
<path fill="none" stroke="midnightblue" d="M159.572,-66.2678C171.099,-66.2678 182.786,-66.2678 193.887,-66.2678"/>
<polygon fill="midnightblue" stroke="midnightblue" points="159.502,-62.7679 149.502,-66.2678 159.502,-69.7679 159.502,-62.7679"/>
</g>
<!-- Node9 -->
<g id="node9" class="node"><title>Node9</title>
<g id="a_node9"><a xlink:href="../../d4/d57/classturtle_1_1_turtle_list_history.html#ad3969f3a8332ac512ce944d50d946fe7" target="_top" xlink:title="turtle.TurtleListHistory.undo">
<polygon fill="white" stroke="black" points="186,-18.7678 186,-37.7678 332,-37.7678 332,-18.7678 186,-18.7678"/>
<text text-anchor="middle" x="259" y="-25.7678" font-family="Helvetica,sans-Serif" font-size="10.00">turtle.TurtleListHistory.undo</text>
</a>
</g>
</g>
<!-- Node1&#45;&gt;Node9 -->
<g id="edge9" class="edge"><title>Node1&#45;&gt;Node9</title>
<path fill="none" stroke="midnightblue" d="M157.963,-49.1546C176.698,-45.243 195.948,-41.2238 212.496,-37.7687"/>
<polygon fill="midnightblue" stroke="midnightblue" points="157.005,-45.7792 147.931,-51.2492 158.435,-52.6314 157.005,-45.7792"/>
</g>
<!-- Node10 -->
<g id="node10" class="node"><title>Node10</title>
<g id="a_node10"><a xlink:href="../../de/d21/classmodel_1_1_main_model.html#a318dc67de322b0da955ea11eb79b843f" target="_top" xlink:title="model.MainModel.undoClicked">
<polygon fill="white" stroke="black" points="368.5,-18.7678 368.5,-37.7678 529.5,-37.7678 529.5,-18.7678 368.5,-18.7678"/>
<text text-anchor="middle" x="449" y="-25.7678" font-family="Helvetica,sans-Serif" font-size="10.00">model.MainModel.undoClicked</text>
</a>
</g>
</g>
<!-- Node1&#45;&gt;Node10 -->
<g id="edge13" class="edge"><title>Node1&#45;&gt;Node10</title>
<path fill="none" stroke="midnightblue" d="M106.071,-45.6525C127.342,-32.3683 157.11,-16.3085 186,-9.26781 264.87,9.95296 360.728,-6.74088 411.819,-18.698"/>
<polygon fill="midnightblue" stroke="midnightblue" points="104.035,-42.8002 97.5023,-51.1414 107.811,-48.6946 104.035,-42.8002"/>
</g>
<!-- Node2&#45;&gt;Node3 -->
<g id="edge2" class="edge"><title>Node2&#45;&gt;Node3</title>
<path fill="none" stroke="midnightblue" d="M317.437,-130.658C344.174,-125.254 375.588,-118.904 400.901,-113.788"/>
<polygon fill="midnightblue" stroke="midnightblue" points="316.549,-127.267 307.44,-132.679 317.936,-134.128 316.549,-127.267"/>
</g>
<!-- Node4 -->
<g id="node4" class="node"><title>Node4</title>
<g id="a_node4"><a xlink:href="../../da/d4e/classviewcontroller_1_1_view.html#a487061003bc9857296875d07d9b531cc" target="_top" xlink:title="viewcontroller.View.redo\lClicked">
<polygon fill="white" stroke="black" points="567,-82.2678 567,-112.268 697,-112.268 697,-82.2678 567,-82.2678"/>
<text text-anchor="start" x="575" y="-100.268" font-family="Helvetica,sans-Serif" font-size="10.00">viewcontroller.View.redo</text>
<text text-anchor="middle" x="632" y="-89.2678" font-family="Helvetica,sans-Serif" font-size="10.00">Clicked</text>
</a>
</g>
</g>
<!-- Node3&#45;&gt;Node4 -->
<g id="edge3" class="edge"><title>Node3&#45;&gt;Node4</title>
<path fill="none" stroke="midnightblue" d="M538.836,-100.832C548.296,-100.466 557.78,-100.1 566.875,-99.7478"/>
<polygon fill="midnightblue" stroke="midnightblue" points="538.457,-97.3441 528.6,-101.228 538.727,-104.339 538.457,-97.3441"/>
</g>
<!-- Node5 -->
<g id="node5" class="node"><title>Node5</title>
<g id="a_node5"><a xlink:href="../../df/df9/classviewcontroller_1_1_s_logo_menu_bar.html#acdf079204224a9c0c24ce028f942e628" target="_top" xlink:title="viewcontroller.SLogoMenu\lBar.initializeEditMenu">
<polygon fill="white" stroke="black" points="734,-54.2678 734,-84.2678 874,-84.2678 874,-54.2678 734,-54.2678"/>
<text text-anchor="start" x="742" y="-72.2678" font-family="Helvetica,sans-Serif" font-size="10.00">viewcontroller.SLogoMenu</text>
<text text-anchor="middle" x="804" y="-61.2678" font-family="Helvetica,sans-Serif" font-size="10.00">Bar.initializeEditMenu</text>
</a>
</g>
</g>
<!-- Node4&#45;&gt;Node5 -->
<g id="edge4" class="edge"><title>Node4&#45;&gt;Node5</title>
<path fill="none" stroke="midnightblue" d="M707.175,-85.0508C716.026,-83.5929 725.037,-82.1088 733.814,-80.6631"/>
<polygon fill="midnightblue" stroke="midnightblue" points="706.568,-81.6035 697.27,-86.6822 707.706,-88.5104 706.568,-81.6035"/>
</g>
<!-- Node6 -->
<g id="node6" class="node"><title>Node6</title>
<g id="a_node6"><a xlink:href="../../df/df9/classviewcontroller_1_1_s_logo_menu_bar.html#a75b45d0a4b08de5ff8588fc15b2f14fe" target="_top" xlink:title="viewcontroller.SLogoMenu\lBar.SLogoMenuBar">
<polygon fill="white" stroke="black" points="910,-54.2678 910,-84.2678 1050,-84.2678 1050,-54.2678 910,-54.2678"/>
<text text-anchor="start" x="918" y="-72.2678" font-family="Helvetica,sans-Serif" font-size="10.00">viewcontroller.SLogoMenu</text>
<text text-anchor="middle" x="980" y="-61.2678" font-family="Helvetica,sans-Serif" font-size="10.00">Bar.SLogoMenuBar</text>
</a>
</g>
</g>
<!-- Node5&#45;&gt;Node6 -->
<g id="edge5" class="edge"><title>Node5&#45;&gt;Node6</title>
<path fill="none" stroke="midnightblue" d="M884.035,-69.2678C892.625,-69.2678 901.319,-69.2678 909.779,-69.2678"/>
<polygon fill="midnightblue" stroke="midnightblue" points="884.019,-65.7679 874.019,-69.2678 884.019,-72.7679 884.019,-65.7679"/>
</g>
<!-- Node8 -->
<g id="node8" class="node"><title>Node8</title>
<g id="a_node8"><a xlink:href="../../df/dcb/classturtle_1_1_turtle.html#ac1b4788a144a1d4c74cbaa3e754d204e" target="_top" xlink:title="turtle.Turtle.undo">
<polygon fill="white" stroke="black" points="400,-56.7678 400,-75.7678 498,-75.7678 498,-56.7678 400,-56.7678"/>
<text text-anchor="middle" x="449" y="-63.7678" font-family="Helvetica,sans-Serif" font-size="10.00">turtle.Turtle.undo</text>
</a>
</g>
</g>
<!-- Node7&#45;&gt;Node8 -->
<g id="edge8" class="edge"><title>Node7&#45;&gt;Node8</title>
<path fill="none" stroke="midnightblue" d="M334.193,-66.2678C356.275,-66.2678 379.885,-66.2678 399.844,-66.2678"/>
<polygon fill="midnightblue" stroke="midnightblue" points="334.173,-62.7679 324.173,-66.2678 334.173,-69.7679 334.173,-62.7679"/>
</g>
<!-- Node9&#45;&gt;Node10 -->
<g id="edge10" class="edge"><title>Node9&#45;&gt;Node10</title>
<path fill="none" stroke="midnightblue" d="M342.206,-28.2678C350.842,-28.2678 359.612,-28.2678 368.22,-28.2678"/>
<polygon fill="midnightblue" stroke="midnightblue" points="342.148,-24.7679 332.148,-28.2678 342.148,-31.7679 342.148,-24.7679"/>
</g>
<!-- Node11 -->
<g id="node11" class="node"><title>Node11</title>
<g id="a_node11"><a xlink:href="../../da/d4e/classviewcontroller_1_1_view.html#ab0cf08da4f357ee008acc7c294930637" target="_top" xlink:title="viewcontroller.View.undo\lClicked">
<polygon fill="white" stroke="black" points="566,-26.2678 566,-56.2678 698,-56.2678 698,-26.2678 566,-26.2678"/>
<text text-anchor="start" x="574" y="-44.2678" font-family="Helvetica,sans-Serif" font-size="10.00">viewcontroller.View.undo</text>
<text text-anchor="middle" x="632" y="-33.2678" font-family="Helvetica,sans-Serif" font-size="10.00">Clicked</text>
</a>
</g>
</g>
<!-- Node10&#45;&gt;Node11 -->
<g id="edge11" class="edge"><title>Node10&#45;&gt;Node11</title>
<path fill="none" stroke="midnightblue" d="M539.652,-34.7069C548.529,-35.3445 557.417,-35.9829 565.974,-36.5975"/>
<polygon fill="midnightblue" stroke="midnightblue" points="539.878,-31.2142 529.653,-33.9887 539.376,-38.1962 539.878,-31.2142"/>
</g>
<!-- Node11&#45;&gt;Node5 -->
<g id="edge12" class="edge"><title>Node11&#45;&gt;Node5</title>
<path fill="none" stroke="midnightblue" d="M708.22,-53.657C716.792,-55.0689 725.499,-56.5029 733.985,-57.9006"/>
<polygon fill="midnightblue" stroke="midnightblue" points="708.676,-50.185 698.24,-52.0133 707.538,-57.092 708.676,-50.185"/>
</g>
</g>
</svg>
        <g id="navigator" transform="translate(0 0)" fill="#404254">
                <rect fill="#f2f5e9" fill-opacity="0.5" stroke="#606060" stroke-width=".5" x="0" y="0" width="60" height="60"/>
                <use id="zoomplus" xlink:href="#zoomPlus" x="17" y="9" onmousedown="handleZoom(evt,'in')"/>
                <use id="zoomminus" xlink:href="#zoomMin" x="42" y="9" onmousedown="handleZoom(evt,'out')"/>
                <use id="reset" xlink:href="#resetDef" x="30" y="36" onmousedown="handleReset()"/>
                <g id="arrowUp" xlink:href="#dirArrow" transform="translate(30 24)" onmousedown="handlePan(0,-1)">
                  <use xlink:href="#rim" fill="#404040">
                        <set attributeName="fill" to="#808080" begin="arrowUp.mouseover" end="arrowUp.mouseout"/>
                  </use>
                  <path fill="none" stroke="white" stroke-width="1.5" d="M0,-3.0v7 M-2.5,-0.5L0,-3.0L2.5,-0.5"/>
                </g>
                <g id="arrowRight" xlink:href="#dirArrow" transform="rotate(90) translate(36 -43)" onmousedown="handlePan(1,0)">
                  <use xlink:href="#rim" fill="#404040">
                        <set attributeName="fill" to="#808080" begin="arrowRight.mouseover" end="arrowRight.mouseout"/>
                  </use>
                  <path fill="none" stroke="white" stroke-width="1.5" d="M0,-3.0v7 M-2.5,-0.5L0,-3.0L2.5,-0.5"/>
                </g>
                <g id="arrowDown" xlink:href="#dirArrow" transform="rotate(180) translate(-30 -48)" onmousedown="handlePan(0,1)">
                  <use xlink:href="#rim" fill="#404040">
                        <set attributeName="fill" to="#808080" begin="arrowDown.mouseover" end="arrowDown.mouseout"/>
                  </use>
                  <path fill="none" stroke="white" stroke-width="1.5" d="M0,-3.0v7 M-2.5,-0.5L0,-3.0L2.5,-0.5"/>
                </g>
                <g id="arrowLeft" xlink:href="#dirArrow" transform="rotate(270) translate(-36 17)" onmousedown="handlePan(-1,0)">
                  <use xlink:href="#rim" fill="#404040">
                        <set attributeName="fill" to="#808080" begin="arrowLeft.mouseover" end="arrowLeft.mouseout"/>
                  </use>
                  <path fill="none" stroke="white" stroke-width="1.5" d="M0,-3.0v7 M-2.5,-0.5L0,-3.0L2.5,-0.5"/>
                </g>
        </g>
        <svg viewBox="0 0 15 15" width="100%" height="30px" preserveAspectRatio="xMaxYMin meet">
         <g id="arrow_out" transform="scale(0.3 0.3)">
          <a xlink:href="classturtle_1_1_turtle_history_state_a819af201b267b72af77d41bc672d60b7_icgraph_org.svg" target="_base">
           <rect id="button" ry="5" rx="5" y="6" x="6" height="38" width="38"
                fill="#f2f5e9" fill-opacity="0.5" stroke="#606060" stroke-width="1.0"/>
           <path id="arrow"
             d="M 11.500037,31.436501 C 11.940474,20.09759 22.043105,11.32322 32.158766,21.979434 L 37.068811,17.246167 C 37.068811,17.246167 37.088388,32 37.088388,32 L 22.160133,31.978069 C 22.160133,31.978069 26.997745,27.140456 26.997745,27.140456 C 18.528582,18.264221 13.291696,25.230495 11.500037,31.436501 z"
             style="fill:#404040;"/>
          </a>
         </g>
        </svg>
</svg>
