<?xml version="1.0" encoding="UTF-8" standalone="no"?>
<!DOCTYPE svg PUBLIC "-//W3C//DTD SVG 1.1//EN"
 "http://www.w3.org/Graphics/SVG/1.1/DTD/svg11.dtd">
<!-- Generated by graphviz version 2.36.0 (20140111.2315)
 -->
<!-- Title: turtle.TurtleHistoryState.getLines Pages: 1 -->
<svg width="1058pt" height="119pt"
 viewBox="0.00 0.00 1058.00 119.38" xmlns="http://www.w3.org/2000/svg" xmlns:xlink="http://www.w3.org/1999/xlink">
<g id="graph0" class="graph" transform="scale(1 1) rotate(0) translate(4 115.384)">
<title>turtle.TurtleHistoryState.getLines</title>
<polygon fill="white" stroke="none" points="-4,4 -4,-115.384 1054,-115.384 1054,4 -4,4"/>
<!-- Node1 -->
<g id="node1" class="node"><title>Node1</title>
<polygon fill="#bfbfbf" stroke="black" points="0.5,-29.3836 0.5,-59.3836 149.5,-59.3836 149.5,-29.3836 0.5,-29.3836"/>
<text text-anchor="start" x="8.5" y="-47.3836" font-family="Helvetica,sans-Serif" font-size="10.00">turtle.TurtleHistoryState.get</text>
<text text-anchor="middle" x="75" y="-36.3836" font-family="Helvetica,sans-Serif" font-size="10.00">Lines</text>
</g>
<!-- Node2 -->
<g id="node2" class="node"><title>Node2</title>
<g id="a_node2"><a xlink:href="../../d4/d57/classturtle_1_1_turtle_list_history.html#a38bde8e8aef6a8454244e1014db8cb17" target="_top" xlink:title="turtle.TurtleListHistory.redo">
<polygon fill="white" stroke="black" points="187,-91.8836 187,-110.884 331,-110.884 331,-91.8836 187,-91.8836"/>
<text text-anchor="middle" x="259" y="-98.8836" font-family="Helvetica,sans-Serif" font-size="10.00">turtle.TurtleListHistory.redo</text>
</a>
</g>
</g>
<!-- Node1&#45;&gt;Node2 -->
<g id="edge1" class="edge"><title>Node1&#45;&gt;Node2</title>
<path fill="none" stroke="midnightblue" d="M134.141,-62.5926C165.172,-72.3111 202.092,-83.8739 227.503,-91.8323"/>
<polygon fill="midnightblue" stroke="midnightblue" points="134.884,-59.1577 124.295,-59.5089 132.792,-65.8377 134.884,-59.1577"/>
</g>
<!-- Node3 -->
<g id="node3" class="node"><title>Node3</title>
<g id="a_node3"><a xlink:href="../../de/d21/classmodel_1_1_main_model.html#a431f63b1432be07294d7fcf9980d8c8f" target="_top" xlink:title="model.MainModel.redoClicked">
<polygon fill="white" stroke="black" points="369.5,-58.8836 369.5,-77.8836 528.5,-77.8836 528.5,-58.8836 369.5,-58.8836"/>
<text text-anchor="middle" x="449" y="-65.8836" font-family="Helvetica,sans-Serif" font-size="10.00">model.MainModel.redoClicked</text>
</a>
</g>
</g>
<!-- Node1&#45;&gt;Node3 -->
<g id="edge6" class="edge"><title>Node1&#45;&gt;Node3</title>
<path fill="none" stroke="midnightblue" d="M160.203,-49.8161C222.946,-53.864 308.023,-59.3528 369.384,-63.3116"/>
<polygon fill="midnightblue" stroke="midnightblue" points="160.145,-46.3051 149.94,-49.1539 159.694,-53.2906 160.145,-46.3051"/>
</g>
<!-- Node7 -->
<g id="node7" class="node"><title>Node7</title>
<g id="a_node7"><a xlink:href="../../d4/d57/classturtle_1_1_turtle_list_history.html#ad3969f3a8332ac512ce944d50d946fe7" target="_top" xlink:title="turtle.TurtleListHistory.undo">
<polygon fill="white" stroke="black" points="186,-15.8836 186,-34.8836 332,-34.8836 332,-15.8836 186,-15.8836"/>
<text text-anchor="middle" x="259" y="-22.8836" font-family="Helvetica,sans-Serif" font-size="10.00">turtle.TurtleListHistory.undo</text>
</a>
</g>
</g>
<!-- Node1&#45;&gt;Node7 -->
<g id="edge7" class="edge"><title>Node1&#45;&gt;Node7</title>
<path fill="none" stroke="midnightblue" d="M159.452,-35.6716C168.318,-34.7461 177.279,-33.8105 185.997,-32.9004"/>
<polygon fill="midnightblue" stroke="midnightblue" points="159.084,-32.1909 149.502,-36.7103 159.811,-39.153 159.084,-32.1909"/>
</g>
<!-- Node8 -->
<g id="node8" class="node"><title>Node8</title>
<g id="a_node8"><a xlink:href="../../de/d21/classmodel_1_1_main_model.html#a318dc67de322b0da955ea11eb79b843f" target="_top" xlink:title="model.MainModel.undoClicked">
<polygon fill="white" stroke="black" points="368.5,-9.8836 368.5,-28.8836 529.5,-28.8836 529.5,-9.8836 368.5,-9.8836"/>
<text text-anchor="middle" x="449" y="-16.8836" font-family="Helvetica,sans-Serif" font-size="10.00">model.MainModel.undoClicked</text>
</a>
</g>
</g>
<!-- Node1&#45;&gt;Node8 -->
<g id="edge11" class="edge"><title>Node1&#45;&gt;Node8</title>
<path fill="none" stroke="midnightblue" d="M119.316,-25.6852C139.226,-18.0708 163.397,-10.1778 186,-6.3836 256.851,5.50953 339.87,-2.191 393.156,-9.85355"/>
<polygon fill="midnightblue" stroke="midnightblue" points="117.937,-22.4666 109.91,-29.3815 120.497,-28.9816 117.937,-22.4666"/>
</g>
<!-- Node2&#45;&gt;Node3 -->
<g id="edge2" class="edge"><title>Node2&#45;&gt;Node3</title>
<path fill="none" stroke="midnightblue" d="M323.983,-90.1525C346.617,-86.1796 371.844,-81.7514 393.606,-77.9315"/>
<polygon fill="midnightblue" stroke="midnightblue" points="323.369,-86.7066 314.125,-91.8829 324.58,-93.6012 323.369,-86.7066"/>
</g>
<!-- Node4 -->
<g id="node4" class="node"><title>Node4</title>
<g id="a_node4"><a xlink:href="../../da/d4e/classviewcontroller_1_1_view.html#a487061003bc9857296875d07d9b531cc" target="_top" xlink:title="viewcontroller.View.redo\lClicked">
<polygon fill="white" stroke="black" points="567,-53.3836 567,-83.3836 697,-83.3836 697,-53.3836 567,-53.3836"/>
<text text-anchor="start" x="575" y="-71.3836" font-family="Helvetica,sans-Serif" font-size="10.00">viewcontroller.View.redo</text>
<text text-anchor="middle" x="632" y="-60.3836" font-family="Helvetica,sans-Serif" font-size="10.00">Clicked</text>
</a>
</g>
</g>
<!-- Node3&#45;&gt;Node4 -->
<g id="edge3" class="edge"><title>Node3&#45;&gt;Node4</title>
<path fill="none" stroke="midnightblue" d="M538.836,-68.3836C548.296,-68.3836 557.78,-68.3836 566.875,-68.3836"/>
<polygon fill="midnightblue" stroke="midnightblue" points="538.6,-64.8837 528.6,-68.3836 538.6,-71.8837 538.6,-64.8837"/>
</g>
<!-- Node5 -->
<g id="node5" class="node"><title>Node5</title>
<g id="a_node5"><a xlink:href="../../df/df9/classviewcontroller_1_1_s_logo_menu_bar.html#acdf079204224a9c0c24ce028f942e628" target="_top" xlink:title="viewcontroller.SLogoMenu\lBar.initializeEditMenu">
<polygon fill="white" stroke="black" points="734,-28.3836 734,-58.3836 874,-58.3836 874,-28.3836 734,-28.3836"/>
<text text-anchor="start" x="742" y="-46.3836" font-family="Helvetica,sans-Serif" font-size="10.00">viewcontroller.SLogoMenu</text>
<text text-anchor="middle" x="804" y="-35.3836" font-family="Helvetica,sans-Serif" font-size="10.00">Bar.initializeEditMenu</text>
</a>
</g>
</g>
<!-- Node4&#45;&gt;Node5 -->
<g id="edge4" class="edge"><title>Node4&#45;&gt;Node5</title>
<path fill="none" stroke="midnightblue" d="M707.175,-57.4756C716.026,-56.1739 725.037,-54.8488 733.814,-53.558"/>
<polygon fill="midnightblue" stroke="midnightblue" points="706.654,-54.0144 697.27,-58.9322 707.673,-60.9399 706.654,-54.0144"/>
</g>
<!-- Node6 -->
<g id="node6" class="node"><title>Node6</title>
<g id="a_node6"><a xlink:href="../../df/df9/classviewcontroller_1_1_s_logo_menu_bar.html#a75b45d0a4b08de5ff8588fc15b2f14fe" target="_top" xlink:title="viewcontroller.SLogoMenu\lBar.SLogoMenuBar">
<polygon fill="white" stroke="black" points="910,-28.3836 910,-58.3836 1050,-58.3836 1050,-28.3836 910,-28.3836"/>
<text text-anchor="start" x="918" y="-46.3836" font-family="Helvetica,sans-Serif" font-size="10.00">viewcontroller.SLogoMenu</text>
<text text-anchor="middle" x="980" y="-35.3836" font-family="Helvetica,sans-Serif" font-size="10.00">Bar.SLogoMenuBar</text>
</a>
</g>
</g>
<!-- Node5&#45;&gt;Node6 -->
<g id="edge5" class="edge"><title>Node5&#45;&gt;Node6</title>
<path fill="none" stroke="midnightblue" d="M884.035,-43.3836C892.625,-43.3836 901.319,-43.3836 909.779,-43.3836"/>
<polygon fill="midnightblue" stroke="midnightblue" points="884.019,-39.8837 874.019,-43.3836 884.019,-46.8837 884.019,-39.8837"/>
</g>
<!-- Node7&#45;&gt;Node8 -->
<g id="edge8" class="edge"><title>Node7&#45;&gt;Node8</title>
<path fill="none" stroke="midnightblue" d="M342.206,-22.76C350.842,-22.4844 359.612,-22.2045 368.22,-21.9298"/>
<polygon fill="midnightblue" stroke="midnightblue" points="342.031,-19.2637 332.148,-23.081 342.255,-26.2601 342.031,-19.2637"/>
</g>
<!-- Node9 -->
<g id="node9" class="node"><title>Node9</title>
<g id="a_node9"><a xlink:href="../../da/d4e/classviewcontroller_1_1_view.html#ab0cf08da4f357ee008acc7c294930637" target="_top" xlink:title="viewcontroller.View.undo\lClicked">
<polygon fill="white" stroke="black" points="566,-4.3836 566,-34.3836 698,-34.3836 698,-4.3836 566,-4.3836"/>
<text text-anchor="start" x="574" y="-22.3836" font-family="Helvetica,sans-Serif" font-size="10.00">viewcontroller.View.undo</text>
<text text-anchor="middle" x="632" y="-11.3836" font-family="Helvetica,sans-Serif" font-size="10.00">Clicked</text>
</a>
</g>
</g>
<!-- Node8&#45;&gt;Node9 -->
<g id="edge9" class="edge"><title>Node8&#45;&gt;Node9</title>
<path fill="none" stroke="midnightblue" d="M539.939,-19.3836C548.72,-19.3836 557.509,-19.3836 565.974,-19.3836"/>
<polygon fill="midnightblue" stroke="midnightblue" points="539.653,-15.8837 529.653,-19.3836 539.653,-22.8837 539.653,-15.8837"/>
</g>
<!-- Node9&#45;&gt;Node5 -->
<g id="edge10" class="edge"><title>Node9&#45;&gt;Node5</title>
<path fill="none" stroke="midnightblue" d="M708.22,-30.0029C716.792,-31.2131 725.499,-32.4422 733.985,-33.6403"/>
<polygon fill="midnightblue" stroke="midnightblue" points="708.631,-26.5263 698.24,-28.594 707.653,-33.4576 708.631,-26.5263"/>
</g>
</g>
</svg>
