<?xml version="1.0" encoding="UTF-8" standalone="no"?>
<!DOCTYPE svg PUBLIC "-//W3C//DTD SVG 1.1//EN"
 "http://www.w3.org/Graphics/SVG/1.1/DTD/svg11.dtd">
<!-- Generated by graphviz version 2.36.0 (20140111.2315)
 -->
<!-- Title: interpreter.expression.TurtleQueryExpression.evaluate Pages: 1 -->
<svg width="388pt" height="87pt"
 viewBox="0.00 0.00 388.00 87.00" xmlns="http://www.w3.org/2000/svg" xmlns:xlink="http://www.w3.org/1999/xlink">
<g id="graph0" class="graph" transform="scale(1 1) rotate(0) translate(4 83)">
<title>interpreter.expression.TurtleQueryExpression.evaluate</title>
<polygon fill="white" stroke="none" points="-4,4 -4,-83 384,-83 384,4 -4,4"/>
<!-- Node1 -->
<g id="node1" class="node"><title>Node1</title>
<polygon fill="#bfbfbf" stroke="black" points="0,-24 0,-54 150,-54 150,-24 0,-24"/>
<text text-anchor="start" x="8" y="-42" font-family="Helvetica,sans-Serif" font-size="10.00">interpreter.expression.Turtle</text>
<text text-anchor="middle" x="75" y="-31" font-family="Helvetica,sans-Serif" font-size="10.00">QueryExpression.evaluate</text>
</g>
<!-- Node2 -->
<g id="node2" class="node"><title>Node2</title>
<g id="a_node2"><a xlink:href="../../db/dfc/classinterpreter_1_1expression_1_1_turtle_query_expression.html#a7cb290ea0735efe49c229d8536910914" target="_top" xlink:title="interpreter.expression.Turtle\lQueryExpression.getValueFromModel">
<polygon fill="white" stroke="black" points="186,-49 186,-79 380,-79 380,-49 186,-49"/>
<text text-anchor="start" x="194" y="-67" font-family="Helvetica,sans-Serif" font-size="10.00">interpreter.expression.Turtle</text>
<text text-anchor="middle" x="283" y="-56" font-family="Helvetica,sans-Serif" font-size="10.00">QueryExpression.getValueFromModel</text>
</a>
</g>
</g>
<!-- Node1&#45;&gt;Node2 -->
<g id="edge1" class="edge"><title>Node1&#45;&gt;Node2</title>
<path fill="none" stroke="midnightblue" d="M150.08,-47.9903C158.453,-49.0065 167.104,-50.0563 175.786,-51.1099"/>
<polygon fill="midnightblue" stroke="midnightblue" points="175.627,-54.6163 185.976,-52.3466 176.471,-47.6673 175.627,-54.6163"/>
</g>
<!-- Node3 -->
<g id="node3" class="node"><title>Node3</title>
<g id="a_node3"><a xlink:href="../../df/df6/classinterpreter_1_1result_1_1_s_logo_result.html#ade0879b3224a3216bf17e17e25bfd4ca" target="_top" xlink:title="interpreter.result.SLogo\lResult.setValue">
<polygon fill="white" stroke="black" points="218,-0 218,-30 348,-30 348,-0 218,-0"/>
<text text-anchor="start" x="226" y="-18" font-family="Helvetica,sans-Serif" font-size="10.00">interpreter.result.SLogo</text>
<text text-anchor="middle" x="283" y="-7" font-family="Helvetica,sans-Serif" font-size="10.00">Result.setValue</text>
</a>
</g>
</g>
<!-- Node1&#45;&gt;Node3 -->
<g id="edge2" class="edge"><title>Node1&#45;&gt;Node3</title>
<path fill="none" stroke="midnightblue" d="M150.08,-30.3694C168.853,-28.1822 189.02,-25.8326 207.799,-23.6448"/>
<polygon fill="midnightblue" stroke="midnightblue" points="208.246,-27.1165 217.773,-22.4827 207.436,-20.1635 208.246,-27.1165"/>
</g>
</g>
</svg>
