<?xml version="1.0" encoding="UTF-8" standalone="no"?>
<!DOCTYPE svg PUBLIC "-//W3C//DTD SVG 1.1//EN"
 "http://www.w3.org/Graphics/SVG/1.1/DTD/svg11.dtd">
<!-- Generated by graphviz version 2.36.0 (20140111.2315)
 -->
<!-- Title: viewcontroller.commands.CommandClickableListWindowViewController.addCommand Pages: 1 -->
<svg width="448pt" height="87pt"
 viewBox="0.00 0.00 448.00 87.00" xmlns="http://www.w3.org/2000/svg" xmlns:xlink="http://www.w3.org/1999/xlink">
<g id="graph0" class="graph" transform="scale(1 1) rotate(0) translate(4 83)">
<title>viewcontroller.commands.CommandClickableListWindowViewController.addCommand</title>
<polygon fill="white" stroke="none" points="-4,4 -4,-83 444,-83 444,4 -4,4"/>
<!-- Node1 -->
<g id="node1" class="node"><title>Node1</title>
<polygon fill="#bfbfbf" stroke="black" points="0,-18.5 0,-59.5 182,-59.5 182,-18.5 0,-18.5"/>
<text text-anchor="start" x="8" y="-47.5" font-family="Helvetica,sans-Serif" font-size="10.00">viewcontroller.commands.</text>
<text text-anchor="start" x="8" y="-36.5" font-family="Helvetica,sans-Serif" font-size="10.00">CommandClickableListWindowView</text>
<text text-anchor="middle" x="91" y="-25.5" font-family="Helvetica,sans-Serif" font-size="10.00">Controller.addCommand</text>
</g>
<!-- Node2 -->
<g id="node2" class="node"><title>Node2</title>
<g id="a_node2"><a xlink:href="../../d3/d76/classviewcontroller_1_1commands_1_1_command_history_view_controller.html#af6c663c753d2fef3f99f4229395a0c7e" target="_top" xlink:title="viewcontroller.commands.\lCommandHistoryViewController.update">
<polygon fill="white" stroke="black" points="226.5,-49 226.5,-79 431.5,-79 431.5,-49 226.5,-49"/>
<text text-anchor="start" x="234.5" y="-67" font-family="Helvetica,sans-Serif" font-size="10.00">viewcontroller.commands.</text>
<text text-anchor="middle" x="329" y="-56" font-family="Helvetica,sans-Serif" font-size="10.00">CommandHistoryViewController.update</text>
</a>
</g>
</g>
<!-- Node1&#45;&gt;Node2 -->
<g id="edge1" class="edge"><title>Node1&#45;&gt;Node2</title>
<path fill="none" stroke="midnightblue" d="M192.472,-49.6433C203.703,-50.8329 215.15,-52.0455 226.395,-53.2367"/>
<polygon fill="midnightblue" stroke="midnightblue" points="192.545,-46.1314 182.232,-48.5584 191.807,-53.0925 192.545,-46.1314"/>
</g>
<!-- Node3 -->
<g id="node3" class="node"><title>Node3</title>
<g id="a_node3"><a xlink:href="../../de/d01/classviewcontroller_1_1commands_1_1_user_defined_methods_view_controller.html#a9bc55fe9c5120847c81fd12ec2182568" target="_top" xlink:title="viewcontroller.commands.\lUserDefinedMethodsViewController.update">
<polygon fill="white" stroke="black" points="218.5,-0 218.5,-30 439.5,-30 439.5,-0 218.5,-0"/>
<text text-anchor="start" x="226.5" y="-18" font-family="Helvetica,sans-Serif" font-size="10.00">viewcontroller.commands.</text>
<text text-anchor="middle" x="329" y="-7" font-family="Helvetica,sans-Serif" font-size="10.00">UserDefinedMethodsViewController.update</text>
</a>
</g>
</g>
<!-- Node1&#45;&gt;Node3 -->
<g id="edge2" class="edge"><title>Node1&#45;&gt;Node3</title>
<path fill="none" stroke="midnightblue" d="M192.305,-28.7995C200.947,-27.9207 209.718,-27.0287 218.428,-26.143"/>
<polygon fill="midnightblue" stroke="midnightblue" points="191.826,-25.33 182.232,-29.8239 192.534,-32.2941 191.826,-25.33"/>
</g>
</g>
</svg>
