<?xml version="1.0" encoding="UTF-8" standalone="no"?>
<!DOCTYPE svg PUBLIC "-//W3C//DTD SVG 1.1//EN"
 "http://www.w3.org/Graphics/SVG/1.1/DTD/svg11.dtd">
<!-- Generated by graphviz version 2.36.0 (20140111.2315)
 -->
<!-- Title: turtle.TurtleViewController.getNode Pages: 1 -->
<!--zoomable 475 -->
<svg id="main" version="1.1" xmlns="http://www.w3.org/2000/svg" xmlns:xlink="http://www.w3.org/1999/xlink" xml:space="preserve" onload="init(evt)">
<style type="text/css"><![CDATA[
.edge:hover path { stroke: red; }
.edge:hover polygon { stroke: red; fill: red; }
]]></style>
<script type="text/javascript"><![CDATA[
var edges = document.getElementsByTagName('g');
if (edges && edges.length) {
  for (var i=0;i<edges.length;i++) {
    if (edges[i].id.substr(0,4)=='edge') {
      edges[i].setAttribute('class','edge');
    }
  }
}
]]></script>
        <defs>
                <circle id="rim" cx="0" cy="0" r="7"/>
                <circle id="rim2" cx="0" cy="0" r="3.5"/>
                <g id="zoomPlus">
                        <use xlink:href="#rim" fill="#404040">
                                <set attributeName="fill" to="#808080" begin="zoomplus.mouseover" end="zoomplus.mouseout"/>
                        </use>
                        <path d="M-4,0h8M0,-4v8" fill="none" stroke="white" stroke-width="1.5" pointer-events="none"/>
                </g>
                <g id="zoomMin">
                        <use xlink:href="#rim" fill="#404040">
                                <set attributeName="fill" to="#808080" begin="zoomminus.mouseover" end="zoomminus.mouseout"/>
                        </use>
                        <path d="M-4,0h8" fill="none" stroke="white" stroke-width="1.5" pointer-events="none"/>
                </g>
                <g id="dirArrow">
                        <path fill="none" stroke="white" stroke-width="1.5" d="M0,-3.0v7 M-2.5,-0.5L0,-3.0L2.5,-0.5"/>
                </g>
               <g id="resetDef">
                       <use xlink:href="#rim2" fill="#404040">
                               <set attributeName="fill" to="#808080" begin="reset.mouseover" end="reset.mouseout"/>
                       </use>
               </g>
        </defs>

<script type="text/javascript">
var viewWidth = 1864;
var viewHeight = 475;
var sectionId = 'dynsection-3';
</script>
<script xlink:href="../../svgpan.js"/>
<svg id="graph" class="graph">
<g id="viewport">
<title>turtle.TurtleViewController.getNode</title>
<polygon fill="white" stroke="none" points="-4,4 -4,-471 1860,-471 1860,4 -4,4"/>
<!-- Node1 -->
<g id="node1" class="node"><title>Node1</title>
<polygon fill="#bfbfbf" stroke="black" points="0,-235.5 0,-254.5 182,-254.5 182,-235.5 0,-235.5"/>
<text text-anchor="middle" x="91" y="-242.5" font-family="Helvetica,sans-Serif" font-size="10.00">turtle.TurtleViewController.getNode</text>
</g>
<!-- Node2 -->
<g id="node2" class="node"><title>Node2</title>
<g id="a_node2"><a xlink:href="../../df/dcb/classturtle_1_1_turtle.html#a29ef6cfcd7794054df8ef83724022983" target="_top" xlink:title="turtle.Turtle.getTurtle">
<polygon fill="white" stroke="black" points="218.5,-235.5 218.5,-254.5 333.5,-254.5 333.5,-235.5 218.5,-235.5"/>
<text text-anchor="middle" x="276" y="-242.5" font-family="Helvetica,sans-Serif" font-size="10.00">turtle.Turtle.getTurtle</text>
</a>
</g>
</g>
<!-- Node1&#45;&gt;Node2 -->
<g id="edge1" class="edge"><title>Node1&#45;&gt;Node2</title>
<path fill="none" stroke="midnightblue" d="M192.288,-245C201.232,-245 210.063,-245 218.435,-245"/>
<polygon fill="midnightblue" stroke="midnightblue" points="192.16,-241.5 182.16,-245 192.16,-248.5 192.16,-241.5"/>
</g>
<!-- Node3 -->
<g id="node3" class="node"><title>Node3</title>
<g id="a_node3"><a xlink:href="../../de/de7/classturtle_1_1draw_1_1_linear_transition.html#a147bb7b97f186ad172b2d71aec4e9e8e" target="_top" xlink:title="turtle.draw.LinearTransition.check\lWrapping">
<polygon fill="white" stroke="black" points="380.5,-388 380.5,-418 555.5,-418 555.5,-388 380.5,-388"/>
<text text-anchor="start" x="388.5" y="-406" font-family="Helvetica,sans-Serif" font-size="10.00">turtle.draw.LinearTransition.check</text>
<text text-anchor="middle" x="468" y="-395" font-family="Helvetica,sans-Serif" font-size="10.00">Wrapping</text>
</a>
</g>
</g>
<!-- Node2&#45;&gt;Node3 -->
<g id="edge2" class="edge"><title>Node2&#45;&gt;Node3</title>
<path fill="none" stroke="midnightblue" d="M285.131,-264.31C298.449,-293.533 327.73,-348.682 370,-378 375.573,-381.865 381.699,-385.133 388.081,-387.896"/>
<polygon fill="midnightblue" stroke="midnightblue" points="288.183,-262.556 280.951,-254.813 281.776,-265.376 288.183,-262.556"/>
</g>
<!-- Node5 -->
<g id="node5" class="node"><title>Node5</title>
<g id="a_node5"><a xlink:href="../../df/dcb/classturtle_1_1_turtle.html#a4a3429238504006424e085c075908061" target="_top" xlink:title="turtle.Turtle.getHeading">
<polygon fill="white" stroke="black" points="403.5,-349.5 403.5,-368.5 532.5,-368.5 532.5,-349.5 403.5,-349.5"/>
<text text-anchor="middle" x="468" y="-356.5" font-family="Helvetica,sans-Serif" font-size="10.00">turtle.Turtle.getHeading</text>
</a>
</g>
</g>
<!-- Node2&#45;&gt;Node5 -->
<g id="edge4" class="edge"><title>Node2&#45;&gt;Node5</title>
<path fill="none" stroke="midnightblue" d="M289.322,-263.075C305.264,-284.958 335.163,-321.206 370,-340 380.194,-345.5 391.756,-349.42 403.256,-352.212"/>
<polygon fill="midnightblue" stroke="midnightblue" points="292.005,-260.809 283.37,-254.67 286.292,-264.854 292.005,-260.809"/>
</g>
<!-- Node8 -->
<g id="node8" class="node"><title>Node8</title>
<g id="a_node8"><a xlink:href="../../df/dcb/classturtle_1_1_turtle.html#aa74144bda987a463827533ef432fede2" target="_top" xlink:title="turtle.Turtle.getX">
<polygon fill="white" stroke="black" points="420.5,-273.5 420.5,-292.5 515.5,-292.5 515.5,-273.5 420.5,-273.5"/>
<text text-anchor="middle" x="468" y="-280.5" font-family="Helvetica,sans-Serif" font-size="10.00">turtle.Turtle.getX</text>
</a>
</g>
</g>
<!-- Node2&#45;&gt;Node8 -->
<g id="edge7" class="edge"><title>Node2&#45;&gt;Node8</title>
<path fill="none" stroke="midnightblue" d="M333.326,-256.584C345.422,-259.05 358.133,-261.626 370,-264 386.322,-267.266 404.201,-270.785 420.114,-273.896"/>
<polygon fill="midnightblue" stroke="midnightblue" points="333.842,-253.117 323.344,-254.545 332.441,-259.975 333.842,-253.117"/>
</g>
<!-- Node10 -->
<g id="node10" class="node"><title>Node10</title>
<g id="a_node10"><a xlink:href="../../df/dcb/classturtle_1_1_turtle.html#a072c675b5b2da4989e217c155aae6994" target="_top" xlink:title="turtle.Turtle.getY">
<polygon fill="white" stroke="black" points="420.5,-311.5 420.5,-330.5 515.5,-330.5 515.5,-311.5 420.5,-311.5"/>
<text text-anchor="middle" x="468" y="-318.5" font-family="Helvetica,sans-Serif" font-size="10.00">turtle.Turtle.getY</text>
</a>
</g>
</g>
<!-- Node2&#45;&gt;Node10 -->
<g id="edge10" class="edge"><title>Node2&#45;&gt;Node10</title>
<path fill="none" stroke="midnightblue" d="M297.565,-260.596C315.697,-273.591 343.313,-291.599 370,-302 385.829,-308.169 403.922,-312.409 420.16,-315.288"/>
<polygon fill="midnightblue" stroke="midnightblue" points="299.609,-257.754 289.472,-254.674 295.476,-263.404 299.609,-257.754"/>
</g>
<!-- Node11 -->
<g id="node11" class="node"><title>Node11</title>
<g id="a_node11"><a xlink:href="../../d3/d81/classturtle_1_1draw_1_1_turn_transition.html#a2e6c892343c04376fbf86a66843963f8" target="_top" xlink:title="turtle.draw.TurnTransition.interpolate">
<polygon fill="white" stroke="black" points="373.5,-235.5 373.5,-254.5 562.5,-254.5 562.5,-235.5 373.5,-235.5"/>
<text text-anchor="middle" x="468" y="-242.5" font-family="Helvetica,sans-Serif" font-size="10.00">turtle.draw.TurnTransition.interpolate</text>
</a>
</g>
</g>
<!-- Node2&#45;&gt;Node11 -->
<g id="edge13" class="edge"><title>Node2&#45;&gt;Node11</title>
<path fill="none" stroke="midnightblue" d="M343.885,-245C353.395,-245 363.318,-245 373.223,-245"/>
<polygon fill="midnightblue" stroke="midnightblue" points="343.749,-241.5 333.749,-245 343.749,-248.5 343.749,-241.5"/>
</g>
<!-- Node12 -->
<g id="node12" class="node"><title>Node12</title>
<g id="a_node12"><a xlink:href="../../de/d1a/classturtle_1_1draw_1_1_move_transition.html#acb8f7529e07a5e5a2483e232152d072d" target="_top" xlink:title="turtle.draw.MoveTransition.interpolate\lChanges">
<polygon fill="white" stroke="black" points="370.5,-186 370.5,-216 565.5,-216 565.5,-186 370.5,-186"/>
<text text-anchor="start" x="378.5" y="-204" font-family="Helvetica,sans-Serif" font-size="10.00">turtle.draw.MoveTransition.interpolate</text>
<text text-anchor="middle" x="468" y="-193" font-family="Helvetica,sans-Serif" font-size="10.00">Changes</text>
</a>
</g>
</g>
<!-- Node2&#45;&gt;Node12 -->
<g id="edge14" class="edge"><title>Node2&#45;&gt;Node12</title>
<path fill="none" stroke="midnightblue" d="M328.011,-233.187C350.741,-227.923 377.783,-221.661 401.945,-216.065"/>
<polygon fill="midnightblue" stroke="midnightblue" points="327.18,-229.787 318.227,-235.453 328.759,-236.606 327.18,-229.787"/>
</g>
<!-- Node13 -->
<g id="node13" class="node"><title>Node13</title>
<g id="a_node13"><a xlink:href="../../d1/ddd/classturtle_1_1_serialisable_turtle.html#a22aa2985b386b16ea3ef89aa09363551" target="_top" xlink:title="turtle.SerialisableTurtle.\lSerialisableTurtle">
<polygon fill="white" stroke="black" points="404,-137 404,-167 532,-167 532,-137 404,-137"/>
<text text-anchor="start" x="412" y="-155" font-family="Helvetica,sans-Serif" font-size="10.00">turtle.SerialisableTurtle.</text>
<text text-anchor="middle" x="468" y="-144" font-family="Helvetica,sans-Serif" font-size="10.00">SerialisableTurtle</text>
</a>
</g>
</g>
<!-- Node2&#45;&gt;Node13 -->
<g id="edge15" class="edge"><title>Node2&#45;&gt;Node13</title>
<path fill="none" stroke="midnightblue" d="M295.141,-228.459C312.969,-213.037 341.565,-190.449 370,-177 380.612,-171.981 392.371,-167.871 403.935,-164.539"/>
<polygon fill="midnightblue" stroke="midnightblue" points="292.48,-226.14 287.302,-235.383 297.114,-231.386 292.48,-226.14"/>
</g>
<!-- Node14 -->
<g id="node14" class="node"><title>Node14</title>
<g id="a_node14"><a xlink:href="../../de/de7/classturtle_1_1draw_1_1_linear_transition.html#a751fa70c3d2455c42073e665cde1a673" target="_top" xlink:title="turtle.draw.LinearTransition.set\lChanges">
<polygon fill="white" stroke="black" points="387,-437 387,-467 549,-467 549,-437 387,-437"/>
<text text-anchor="start" x="395" y="-455" font-family="Helvetica,sans-Serif" font-size="10.00">turtle.draw.LinearTransition.set</text>
<text text-anchor="middle" x="468" y="-444" font-family="Helvetica,sans-Serif" font-size="10.00">Changes</text>
</a>
</g>
</g>
<!-- Node2&#45;&gt;Node14 -->
<g id="edge16" class="edge"><title>Node2&#45;&gt;Node14</title>
<path fill="none" stroke="midnightblue" d="M281.409,-264.845C290.825,-302.458 316.54,-384.181 370,-427 375.158,-431.131 380.922,-434.587 386.998,-437.476"/>
<polygon fill="midnightblue" stroke="midnightblue" points="284.711,-263.602 278.997,-254.68 277.9,-265.218 284.711,-263.602"/>
</g>
<!-- Node15 -->
<g id="node15" class="node"><title>Node15</title>
<g id="a_node15"><a xlink:href="../../de/d1a/classturtle_1_1draw_1_1_move_transition.html#ac05b146ef3b464435449fd413e8468af" target="_top" xlink:title="turtle.draw.MoveTransition.set\lStartPoint">
<polygon fill="white" stroke="black" points="389,-88 389,-118 547,-118 547,-88 389,-88"/>
<text text-anchor="start" x="397" y="-106" font-family="Helvetica,sans-Serif" font-size="10.00">turtle.draw.MoveTransition.set</text>
<text text-anchor="middle" x="468" y="-95" font-family="Helvetica,sans-Serif" font-size="10.00">StartPoint</text>
</a>
</g>
</g>
<!-- Node2&#45;&gt;Node15 -->
<g id="edge18" class="edge"><title>Node2&#45;&gt;Node15</title>
<path fill="none" stroke="midnightblue" d="M286.577,-226.527C301.056,-200.476 331.015,-153.304 370,-128 375.981,-124.118 382.534,-120.838 389.323,-118.067"/>
<polygon fill="midnightblue" stroke="midnightblue" points="283.465,-224.925 281.8,-235.388 289.626,-228.247 283.465,-224.925"/>
</g>
<!-- Node22 -->
<g id="node22" class="node"><title>Node22</title>
<g id="a_node22"><a xlink:href="../../d8/dde/classturtle_1_1draw_1_1_pen_transition.html#ae64d711ec6faa3b5411bbfe70b68d365" target="_top" xlink:title="turtle.draw.PenTransition.set\lStartPoint">
<polygon fill="white" stroke="black" points="392.5,-39 392.5,-69 543.5,-69 543.5,-39 392.5,-39"/>
<text text-anchor="start" x="400.5" y="-57" font-family="Helvetica,sans-Serif" font-size="10.00">turtle.draw.PenTransition.set</text>
<text text-anchor="middle" x="468" y="-46" font-family="Helvetica,sans-Serif" font-size="10.00">StartPoint</text>
</a>
</g>
</g>
<!-- Node2&#45;&gt;Node22 -->
<g id="edge25" class="edge"><title>Node2&#45;&gt;Node22</title>
<path fill="none" stroke="midnightblue" d="M282.374,-225.442C293.017,-190.487 320.167,-117.372 370,-79 376.614,-73.9072 384.158,-69.8453 392.05,-66.6068"/>
<polygon fill="midnightblue" stroke="midnightblue" points="278.923,-224.778 279.491,-235.357 285.644,-226.732 278.923,-224.778"/>
</g>
<!-- Node26 -->
<g id="node26" class="node"><title>Node26</title>
<g id="a_node26"><a xlink:href="../../df/dcb/classturtle_1_1_turtle.html#a68c2855aeda249e719b5afc983967874" target="_top" xlink:title="turtle.Turtle.Turtle">
<polygon fill="white" stroke="black" points="418.5,-0.5 418.5,-19.5 517.5,-19.5 517.5,-0.5 418.5,-0.5"/>
<text text-anchor="middle" x="468" y="-7.5" font-family="Helvetica,sans-Serif" font-size="10.00">turtle.Turtle.Turtle</text>
</a>
</g>
</g>
<!-- Node2&#45;&gt;Node26 -->
<g id="edge31" class="edge"><title>Node2&#45;&gt;Node26</title>
<path fill="none" stroke="midnightblue" d="M279.355,-225.36C285.601,-182.443 306.701,-80.0652 370,-29 383.49,-18.1176 401.434,-12.8647 418.217,-10.4931"/>
<polygon fill="midnightblue" stroke="midnightblue" points="275.874,-224.986 278.016,-235.361 282.812,-225.914 275.874,-224.986"/>
</g>
<!-- Node4 -->
<g id="node4" class="node"><title>Node4</title>
<g id="a_node4"><a xlink:href="../../de/de7/classturtle_1_1draw_1_1_linear_transition.html#a799e134af5efa1d05033f88d131289d1" target="_top" xlink:title="turtle.draw.LinearTransition.interpolate">
<polygon fill="white" stroke="black" points="602.5,-428.5 602.5,-447.5 801.5,-447.5 801.5,-428.5 602.5,-428.5"/>
<text text-anchor="middle" x="702" y="-435.5" font-family="Helvetica,sans-Serif" font-size="10.00">turtle.draw.LinearTransition.interpolate</text>
</a>
</g>
</g>
<!-- Node3&#45;&gt;Node4 -->
<g id="edge3" class="edge"><title>Node3&#45;&gt;Node4</title>
<path fill="none" stroke="midnightblue" d="M565.72,-417.591C590.109,-421.271 615.667,-425.126 637.919,-428.483"/>
<polygon fill="midnightblue" stroke="midnightblue" points="566.128,-414.113 555.718,-416.082 565.084,-421.035 566.128,-414.113"/>
</g>
<!-- Node6 -->
<g id="node6" class="node"><title>Node6</title>
<g id="a_node6"><a xlink:href="../../db/d39/classinterpreter_1_1expression_1_1singleturtle_1_1_set_heading.html#a207b372efc689ebd78913d8e9014942e" target="_top" xlink:title="interpreter.expression.singleturtle.\lSetHeading.setNextTransition">
<polygon fill="white" stroke="black" points="611.5,-360 611.5,-390 792.5,-390 792.5,-360 611.5,-360"/>
<text text-anchor="start" x="619.5" y="-378" font-family="Helvetica,sans-Serif" font-size="10.00">interpreter.expression.singleturtle.</text>
<text text-anchor="middle" x="702" y="-367" font-family="Helvetica,sans-Serif" font-size="10.00">SetHeading.setNextTransition</text>
</a>
</g>
</g>
<!-- Node5&#45;&gt;Node6 -->
<g id="edge5" class="edge"><title>Node5&#45;&gt;Node6</title>
<path fill="none" stroke="midnightblue" d="M542.862,-364.094C564.642,-365.596 588.716,-367.256 611.372,-368.819"/>
<polygon fill="midnightblue" stroke="midnightblue" points="542.919,-360.59 532.702,-363.393 542.437,-367.573 542.919,-360.59"/>
</g>
<!-- Node7 -->
<g id="node7" class="node"><title>Node7</title>
<g id="a_node7"><a xlink:href="../../d0/d8c/classinterpreter_1_1expression_1_1singleturtle_1_1_set_position.html#a4f3ed8fd9fe9f9e8ef1204cd22a970ae" target="_top" xlink:title="interpreter.expression.singleturtle.\lSetPosition.setNextTransition">
<polygon fill="white" stroke="black" points="611.5,-311 611.5,-341 792.5,-341 792.5,-311 611.5,-311"/>
<text text-anchor="start" x="619.5" y="-329" font-family="Helvetica,sans-Serif" font-size="10.00">interpreter.expression.singleturtle.</text>
<text text-anchor="middle" x="702" y="-318" font-family="Helvetica,sans-Serif" font-size="10.00">SetPosition.setNextTransition</text>
</a>
</g>
</g>
<!-- Node5&#45;&gt;Node7 -->
<g id="edge6" class="edge"><title>Node5&#45;&gt;Node7</title>
<path fill="none" stroke="midnightblue" d="M542.862,-348.494C564.642,-345.396 588.716,-341.971 611.372,-338.749"/>
<polygon fill="midnightblue" stroke="midnightblue" points="542.109,-345.066 532.702,-349.939 543.095,-351.996 542.109,-345.066"/>
</g>
<!-- Node8&#45;&gt;Node7 -->
<g id="edge8" class="edge"><title>Node8&#45;&gt;Node7</title>
<path fill="none" stroke="midnightblue" d="M525.765,-293.521C554.005,-298.755 588.645,-305.176 619.65,-310.922"/>
<polygon fill="midnightblue" stroke="midnightblue" points="526.14,-290.031 515.67,-291.65 524.864,-296.914 526.14,-290.031"/>
</g>
<!-- Node9 -->
<g id="node9" class="node"><title>Node9</title>
<g id="a_node9"><a xlink:href="../../d5/d37/classviewcontroller_1_1turtlegrid_1_1_turtle_status_view_controller.html#a9aa6bf28f45c6a12d0f8ab568ca43b70" target="_top" xlink:title="viewcontroller.turtlegrid.\lTurtleStatusViewController.update">
<polygon fill="white" stroke="black" points="613,-262 613,-292 791,-292 791,-262 613,-262"/>
<text text-anchor="start" x="621" y="-280" font-family="Helvetica,sans-Serif" font-size="10.00">viewcontroller.turtlegrid.</text>
<text text-anchor="middle" x="702" y="-269" font-family="Helvetica,sans-Serif" font-size="10.00">TurtleStatusViewController.update</text>
</a>
</g>
</g>
<!-- Node8&#45;&gt;Node9 -->
<g id="edge9" class="edge"><title>Node8&#45;&gt;Node9</title>
<path fill="none" stroke="midnightblue" d="M525.765,-281.532C551.891,-280.856 583.495,-280.039 612.63,-279.285"/>
<polygon fill="midnightblue" stroke="midnightblue" points="525.576,-278.036 515.67,-281.793 525.757,-285.033 525.576,-278.036"/>
</g>
<!-- Node10&#45;&gt;Node7 -->
<g id="edge11" class="edge"><title>Node10&#45;&gt;Node7</title>
<path fill="none" stroke="midnightblue" d="M525.959,-322.228C551.623,-322.781 582.546,-323.447 611.214,-324.065"/>
<polygon fill="midnightblue" stroke="midnightblue" points="525.743,-318.722 515.67,-322.006 525.592,-325.721 525.743,-318.722"/>
</g>
<!-- Node10&#45;&gt;Node9 -->
<g id="edge12" class="edge"><title>Node10&#45;&gt;Node9</title>
<path fill="none" stroke="midnightblue" d="M525.572,-310.271C554.41,-304.802 589.96,-298.059 621.502,-292.077"/>
<polygon fill="midnightblue" stroke="midnightblue" points="524.842,-306.847 515.67,-312.149 526.147,-313.724 524.842,-306.847"/>
</g>
<!-- Node14&#45;&gt;Node4 -->
<g id="edge17" class="edge"><title>Node14&#45;&gt;Node4</title>
<path fill="none" stroke="midnightblue" d="M559.339,-446.548C573.458,-445.697 588.11,-444.812 602.402,-443.95"/>
<polygon fill="midnightblue" stroke="midnightblue" points="558.937,-443.066 549.166,-447.162 559.359,-450.054 558.937,-443.066"/>
</g>
<!-- Node16 -->
<g id="node16" class="node"><title>Node16</title>
<g id="a_node16"><a xlink:href="../../de/d1a/classturtle_1_1draw_1_1_move_transition.html#ad82006c1e8db96a8b9f1c68cdac07b88" target="_top" xlink:title="turtle.draw.MoveTransition.set\lTurtle">
<polygon fill="white" stroke="black" points="846,-125 846,-155 1004,-155 1004,-125 846,-125"/>
<text text-anchor="start" x="854" y="-143" font-family="Helvetica,sans-Serif" font-size="10.00">turtle.draw.MoveTransition.set</text>
<text text-anchor="middle" x="925" y="-132" font-family="Helvetica,sans-Serif" font-size="10.00">Turtle</text>
</a>
</g>
</g>
<!-- Node15&#45;&gt;Node16 -->
<g id="edge19" class="edge"><title>Node15&#45;&gt;Node16</title>
<path fill="none" stroke="midnightblue" d="M557.426,-118.314C572.272,-120.497 587.547,-122.504 602,-124 684.955,-132.585 780.426,-136.597 845.742,-138.451"/>
<polygon fill="midnightblue" stroke="midnightblue" points="557.642,-114.808 547.232,-116.78 556.6,-121.73 557.642,-114.808"/>
</g>
<!-- Node21 -->
<g id="node21" class="node"><title>Node21</title>
<g id="a_node21"><a xlink:href="../../de/d1a/classturtle_1_1draw_1_1_move_transition.html#ae6057f04c4fd8af3a81614aa870433d6" target="_top" xlink:title="turtle.draw.MoveTransition.perform\lWrappingChanges">
<polygon fill="white" stroke="black" points="611,-85 611,-115 793,-115 793,-85 611,-85"/>
<text text-anchor="start" x="619" y="-103" font-family="Helvetica,sans-Serif" font-size="10.00">turtle.draw.MoveTransition.perform</text>
<text text-anchor="middle" x="702" y="-92" font-family="Helvetica,sans-Serif" font-size="10.00">WrappingChanges</text>
</a>
</g>
</g>
<!-- Node15&#45;&gt;Node21 -->
<g id="edge24" class="edge"><title>Node15&#45;&gt;Node21</title>
<path fill="none" stroke="midnightblue" d="M557.385,-101.857C574.843,-101.631 593.187,-101.394 610.708,-101.168"/>
<polygon fill="midnightblue" stroke="midnightblue" points="557.175,-98.3594 547.221,-101.989 557.266,-105.359 557.175,-98.3594"/>
</g>
<!-- Node17 -->
<g id="node17" class="node"><title>Node17</title>
<g id="a_node17"><a xlink:href="../../dc/d3e/classturtle_1_1draw_1_1_transition_factory.html#a6ff1cfc7cfe2396040ddb55408ee854e" target="_top" xlink:title="turtle.draw.TransitionFactory.create\lForwardTransition">
<polygon fill="white" stroke="black" points="1048,-99 1048,-129 1230,-129 1230,-99 1048,-99"/>
<text text-anchor="start" x="1056" y="-117" font-family="Helvetica,sans-Serif" font-size="10.00">turtle.draw.TransitionFactory.create</text>
<text text-anchor="middle" x="1139" y="-106" font-family="Helvetica,sans-Serif" font-size="10.00">ForwardTransition</text>
</a>
</g>
</g>
<!-- Node16&#45;&gt;Node17 -->
<g id="edge20" class="edge"><title>Node16&#45;&gt;Node17</title>
<path fill="none" stroke="midnightblue" d="M1014.19,-129.185C1025.34,-127.817 1036.76,-126.416 1047.94,-125.045"/>
<polygon fill="midnightblue" stroke="midnightblue" points="1013.54,-125.738 1004.04,-130.429 1014.39,-132.686 1013.54,-125.738"/>
</g>
<!-- Node18 -->
<g id="node18" class="node"><title>Node18</title>
<g id="a_node18"><a xlink:href="../../dc/d3e/classturtle_1_1draw_1_1_transition_factory.html#adb38be68a00bde2421dbdf0d55a93e54" target="_top" xlink:title="turtle.draw.TransitionFactory.create\lTurtleTransition">
<polygon fill="white" stroke="black" points="1266,-99 1266,-129 1448,-129 1448,-99 1266,-99"/>
<text text-anchor="start" x="1274" y="-117" font-family="Helvetica,sans-Serif" font-size="10.00">turtle.draw.TransitionFactory.create</text>
<text text-anchor="middle" x="1357" y="-106" font-family="Helvetica,sans-Serif" font-size="10.00">TurtleTransition</text>
</a>
</g>
</g>
<!-- Node17&#45;&gt;Node18 -->
<g id="edge21" class="edge"><title>Node17&#45;&gt;Node18</title>
<path fill="none" stroke="midnightblue" d="M1240.06,-114C1248.63,-114 1257.27,-114 1265.76,-114"/>
<polygon fill="midnightblue" stroke="midnightblue" points="1240.04,-110.5 1230.04,-114 1240.04,-117.5 1240.04,-110.5"/>
</g>
<!-- Node19 -->
<g id="node19" class="node"><title>Node19</title>
<g id="a_node19"><a xlink:href="../../dc/d3e/classturtle_1_1draw_1_1_transition_factory.html#a31b362130278174931595c1ce68c7ff5" target="_top" xlink:title="turtle.draw.TransitionFactory.create\lAnimation">
<polygon fill="white" stroke="black" points="1484,-99 1484,-129 1666,-129 1666,-99 1484,-99"/>
<text text-anchor="start" x="1492" y="-117" font-family="Helvetica,sans-Serif" font-size="10.00">turtle.draw.TransitionFactory.create</text>
<text text-anchor="middle" x="1575" y="-106" font-family="Helvetica,sans-Serif" font-size="10.00">Animation</text>
</a>
</g>
</g>
<!-- Node18&#45;&gt;Node19 -->
<g id="edge22" class="edge"><title>Node18&#45;&gt;Node19</title>
<path fill="none" stroke="midnightblue" d="M1458.06,-114C1466.63,-114 1475.27,-114 1483.76,-114"/>
<polygon fill="midnightblue" stroke="midnightblue" points="1458.04,-110.5 1448.04,-114 1458.04,-117.5 1458.04,-110.5"/>
</g>
<!-- Node20 -->
<g id="node20" class="node"><title>Node20</title>
<g id="a_node20"><a xlink:href="../../df/dcb/classturtle_1_1_turtle.html#a72a5d11b319fe2819a646569d5034557" target="_top" xlink:title="turtle.Turtle.createAnimation">
<polygon fill="white" stroke="black" points="1702.5,-104.5 1702.5,-123.5 1855.5,-123.5 1855.5,-104.5 1702.5,-104.5"/>
<text text-anchor="middle" x="1779" y="-111.5" font-family="Helvetica,sans-Serif" font-size="10.00">turtle.Turtle.createAnimation</text>
</a>
</g>
</g>
<!-- Node19&#45;&gt;Node20 -->
<g id="edge23" class="edge"><title>Node19&#45;&gt;Node20</title>
<path fill="none" stroke="midnightblue" d="M1676.31,-114C1685.06,-114 1693.8,-114 1702.3,-114"/>
<polygon fill="midnightblue" stroke="midnightblue" points="1676.07,-110.5 1666.07,-114 1676.07,-117.5 1676.07,-110.5"/>
</g>
<!-- Node23 -->
<g id="node23" class="node"><title>Node23</title>
<g id="a_node23"><a xlink:href="../../d8/dde/classturtle_1_1draw_1_1_pen_transition.html#ae8155506993774930ffd88f222ee7398" target="_top" xlink:title="turtle.draw.PenTransition.createLine">
<polygon fill="white" stroke="black" points="609,-46.5 609,-65.5 795,-65.5 795,-46.5 609,-46.5"/>
<text text-anchor="middle" x="702" y="-53.5" font-family="Helvetica,sans-Serif" font-size="10.00">turtle.draw.PenTransition.createLine</text>
</a>
</g>
</g>
<!-- Node22&#45;&gt;Node23 -->
<g id="edge26" class="edge"><title>Node22&#45;&gt;Node23</title>
<path fill="none" stroke="midnightblue" d="M553.819,-54.7312C571.764,-54.8859 590.785,-55.0499 608.982,-55.2067"/>
<polygon fill="midnightblue" stroke="midnightblue" points="553.713,-51.2303 543.683,-54.6438 553.653,-58.23 553.713,-51.2303"/>
</g>
<!-- Node25 -->
<g id="node25" class="node"><title>Node25</title>
<g id="a_node25"><a xlink:href="../../d8/dde/classturtle_1_1draw_1_1_pen_transition.html#a7eaf834f0b2189acc2f53ca8f561b07d" target="_top" xlink:title="turtle.draw.PenTransition.perform\lWrappingChanges">
<polygon fill="white" stroke="black" points="838,-17 838,-47 1012,-47 1012,-17 838,-17"/>
<text text-anchor="start" x="846" y="-35" font-family="Helvetica,sans-Serif" font-size="10.00">turtle.draw.PenTransition.perform</text>
<text text-anchor="middle" x="925" y="-24" font-family="Helvetica,sans-Serif" font-size="10.00">WrappingChanges</text>
</a>
</g>
</g>
<!-- Node22&#45;&gt;Node25 -->
<g id="edge30" class="edge"><title>Node22&#45;&gt;Node25</title>
<path fill="none" stroke="midnightblue" d="M554.103,-41.6891C569.991,-39.7984 586.477,-38.1091 602,-37 681.747,-31.3021 772.875,-30.4097 837.785,-30.732"/>
<polygon fill="midnightblue" stroke="midnightblue" points="553.265,-38.2655 543.766,-42.9566 554.117,-45.2135 553.265,-38.2655"/>
</g>
<!-- Node24 -->
<g id="node24" class="node"><title>Node24</title>
<g id="a_node24"><a xlink:href="../../d8/dde/classturtle_1_1draw_1_1_pen_transition.html#aa0a682d77c6f7e56adb8a7cad589a140" target="_top" xlink:title="turtle.draw.PenTransition.set\lDistance">
<polygon fill="white" stroke="black" points="849.5,-73 849.5,-103 1000.5,-103 1000.5,-73 849.5,-73"/>
<text text-anchor="start" x="857.5" y="-91" font-family="Helvetica,sans-Serif" font-size="10.00">turtle.draw.PenTransition.set</text>
<text text-anchor="middle" x="925" y="-80" font-family="Helvetica,sans-Serif" font-size="10.00">Distance</text>
</a>
</g>
</g>
<!-- Node23&#45;&gt;Node24 -->
<g id="edge27" class="edge"><title>Node23&#45;&gt;Node24</title>
<path fill="none" stroke="midnightblue" d="M778.674,-66.9574C801.481,-70.2597 826.492,-73.8812 849.238,-77.1748"/>
<polygon fill="midnightblue" stroke="midnightblue" points="779.107,-63.4836 768.709,-65.5144 778.104,-70.4114 779.107,-63.4836"/>
</g>
<!-- Node23&#45;&gt;Node25 -->
<g id="edge29" class="edge"><title>Node23&#45;&gt;Node25</title>
<path fill="none" stroke="midnightblue" d="M800.941,-45.3638C813.253,-44.0268 825.776,-42.6668 837.888,-41.3516"/>
<polygon fill="midnightblue" stroke="midnightblue" points="800.226,-41.9208 790.662,-46.4801 800.982,-48.8799 800.226,-41.9208"/>
</g>
<!-- Node24&#45;&gt;Node17 -->
<g id="edge28" class="edge"><title>Node24&#45;&gt;Node17</title>
<path fill="none" stroke="midnightblue" d="M1010.88,-98.4096C1023.07,-99.9049 1035.65,-101.448 1047.94,-102.955"/>
<polygon fill="midnightblue" stroke="midnightblue" points="1011.09,-94.91 1000.74,-97.1666 1010.24,-101.858 1011.09,-94.91"/>
</g>
</g>
</svg>
        <g id="navigator" transform="translate(0 0)" fill="#404254">
                <rect fill="#f2f5e9" fill-opacity="0.5" stroke="#606060" stroke-width=".5" x="0" y="0" width="60" height="60"/>
                <use id="zoomplus" xlink:href="#zoomPlus" x="17" y="9" onmousedown="handleZoom(evt,'in')"/>
                <use id="zoomminus" xlink:href="#zoomMin" x="42" y="9" onmousedown="handleZoom(evt,'out')"/>
                <use id="reset" xlink:href="#resetDef" x="30" y="36" onmousedown="handleReset()"/>
                <g id="arrowUp" xlink:href="#dirArrow" transform="translate(30 24)" onmousedown="handlePan(0,-1)">
                  <use xlink:href="#rim" fill="#404040">
                        <set attributeName="fill" to="#808080" begin="arrowUp.mouseover" end="arrowUp.mouseout"/>
                  </use>
                  <path fill="none" stroke="white" stroke-width="1.5" d="M0,-3.0v7 M-2.5,-0.5L0,-3.0L2.5,-0.5"/>
                </g>
                <g id="arrowRight" xlink:href="#dirArrow" transform="rotate(90) translate(36 -43)" onmousedown="handlePan(1,0)">
                  <use xlink:href="#rim" fill="#404040">
                        <set attributeName="fill" to="#808080" begin="arrowRight.mouseover" end="arrowRight.mouseout"/>
                  </use>
                  <path fill="none" stroke="white" stroke-width="1.5" d="M0,-3.0v7 M-2.5,-0.5L0,-3.0L2.5,-0.5"/>
                </g>
                <g id="arrowDown" xlink:href="#dirArrow" transform="rotate(180) translate(-30 -48)" onmousedown="handlePan(0,1)">
                  <use xlink:href="#rim" fill="#404040">
                        <set attributeName="fill" to="#808080" begin="arrowDown.mouseover" end="arrowDown.mouseout"/>
                  </use>
                  <path fill="none" stroke="white" stroke-width="1.5" d="M0,-3.0v7 M-2.5,-0.5L0,-3.0L2.5,-0.5"/>
                </g>
                <g id="arrowLeft" xlink:href="#dirArrow" transform="rotate(270) translate(-36 17)" onmousedown="handlePan(-1,0)">
                  <use xlink:href="#rim" fill="#404040">
                        <set attributeName="fill" to="#808080" begin="arrowLeft.mouseover" end="arrowLeft.mouseout"/>
                  </use>
                  <path fill="none" stroke="white" stroke-width="1.5" d="M0,-3.0v7 M-2.5,-0.5L0,-3.0L2.5,-0.5"/>
                </g>
        </g>
        <svg viewBox="0 0 15 15" width="100%" height="30px" preserveAspectRatio="xMaxYMin meet">
         <g id="arrow_out" transform="scale(0.3 0.3)">
          <a xlink:href="classturtle_1_1_turtle_view_controller_a24215ad9dea4b06da7652230ac822973_icgraph_org.svg" target="_base">
           <rect id="button" ry="5" rx="5" y="6" x="6" height="38" width="38"
                fill="#f2f5e9" fill-opacity="0.5" stroke="#606060" stroke-width="1.0"/>
           <path id="arrow"
             d="M 11.500037,31.436501 C 11.940474,20.09759 22.043105,11.32322 32.158766,21.979434 L 37.068811,17.246167 C 37.068811,17.246167 37.088388,32 37.088388,32 L 22.160133,31.978069 C 22.160133,31.978069 26.997745,27.140456 26.997745,27.140456 C 18.528582,18.264221 13.291696,25.230495 11.500037,31.436501 z"
             style="fill:#404040;"/>
          </a>
         </g>
        </svg>
</svg>
