<?xml version="1.0" encoding="UTF-8" standalone="no"?>
<!DOCTYPE svg PUBLIC "-//W3C//DTD SVG 1.1//EN"
 "http://www.w3.org/Graphics/SVG/1.1/DTD/svg11.dtd">
<!-- Generated by graphviz version 2.36.0 (20140111.2315)
 -->
<!-- Title: turtle.TurtleViewController.updateVisible Pages: 1 -->
<svg width="358pt" height="38pt"
 viewBox="0.00 0.00 358.00 38.00" xmlns="http://www.w3.org/2000/svg" xmlns:xlink="http://www.w3.org/1999/xlink">
<g id="graph0" class="graph" transform="scale(1 1) rotate(0) translate(4 34)">
<title>turtle.TurtleViewController.updateVisible</title>
<polygon fill="white" stroke="none" points="-4,4 -4,-34 354,-34 354,4 -4,4"/>
<!-- Node1 -->
<g id="node1" class="node"><title>Node1</title>
<polygon fill="#bfbfbf" stroke="black" points="0.5,-0 0.5,-30 175.5,-30 175.5,-0 0.5,-0"/>
<text text-anchor="start" x="8.5" y="-18" font-family="Helvetica,sans-Serif" font-size="10.00">turtle.TurtleViewController.update</text>
<text text-anchor="middle" x="88" y="-7" font-family="Helvetica,sans-Serif" font-size="10.00">Visible</text>
</g>
<!-- Node2 -->
<g id="node2" class="node"><title>Node2</title>
<g id="a_node2"><a xlink:href="../../d8/d9e/classturtle_1_1_turtle_image.html#a003d507b71fbc99ec5a1cb53aef1b2ab" target="_top" xlink:title="turtle.TurtleImage.update\lVisible">
<polygon fill="white" stroke="black" points="212.5,-0 212.5,-30 349.5,-30 349.5,-0 212.5,-0"/>
<text text-anchor="start" x="220.5" y="-18" font-family="Helvetica,sans-Serif" font-size="10.00">turtle.TurtleImage.update</text>
<text text-anchor="middle" x="281" y="-7" font-family="Helvetica,sans-Serif" font-size="10.00">Visible</text>
</a>
</g>
</g>
<!-- Node1&#45;&gt;Node2 -->
<g id="edge1" class="edge"><title>Node1&#45;&gt;Node2</title>
<path fill="none" stroke="midnightblue" d="M175.559,-15C184.426,-15 193.398,-15 202.164,-15"/>
<polygon fill="midnightblue" stroke="midnightblue" points="202.341,-18.5001 212.341,-15 202.341,-11.5001 202.341,-18.5001"/>
</g>
</g>
</svg>
