<?xml version="1.0" encoding="UTF-8" standalone="no"?>
<!DOCTYPE svg PUBLIC "-//W3C//DTD SVG 1.1//EN"
 "http://www.w3.org/Graphics/SVG/1.1/DTD/svg11.dtd">
<!-- Generated by graphviz version 2.36.0 (20140111.2315)
 -->
<!-- Title: interpreter.expression.ConditionalExpression Pages: 1 -->
<svg width="612pt" height="263pt"
 viewBox="0.00 0.00 612.00 263.00" xmlns="http://www.w3.org/2000/svg" xmlns:xlink="http://www.w3.org/1999/xlink">
<g id="graph0" class="graph" transform="scale(1 1) rotate(0) translate(4 259)">
<title>interpreter.expression.ConditionalExpression</title>
<polygon fill="white" stroke="none" points="-4,4 -4,-259 608,-259 608,4 -4,4"/>
<!-- Node1 -->
<g id="node1" class="node"><title>Node1</title>
<polygon fill="#bfbfbf" stroke="black" points="192,-112 192,-142 370,-142 370,-112 192,-112"/>
<text text-anchor="start" x="200" y="-130" font-family="Helvetica,sans-Serif" font-size="10.00">interpreter.expression.Conditional</text>
<text text-anchor="middle" x="281" y="-119" font-family="Helvetica,sans-Serif" font-size="10.00">Expression</text>
</g>
<!-- Node3 -->
<g id="node3" class="node"><title>Node3</title>
<g id="a_node3"><a xlink:href="../../d9/d0d/classinterpreter_1_1expression_1_1conditional_1_1_and.html" target="_top" xlink:title="interpreter.expression.conditional.And">
<polygon fill="white" stroke="black" points="406,-235.5 406,-254.5 604,-254.5 604,-235.5 406,-235.5"/>
<text text-anchor="middle" x="505" y="-242.5" font-family="Helvetica,sans-Serif" font-size="10.00">interpreter.expression.conditional.And</text>
</a>
</g>
</g>
<!-- Node1&#45;&gt;Node3 -->
<g id="edge2" class="edge"><title>Node1&#45;&gt;Node3</title>
<path fill="none" stroke="midnightblue" d="M303.694,-149.476C326.876,-172.116 365.759,-206.297 406,-225 415.369,-229.355 425.677,-232.765 435.982,-235.436"/>
<polygon fill="midnightblue" stroke="midnightblue" points="306.014,-146.847 296.455,-142.279 301.079,-151.812 306.014,-146.847"/>
</g>
<!-- Node4 -->
<g id="node4" class="node"><title>Node4</title>
<g id="a_node4"><a xlink:href="../../d1/d9b/classinterpreter_1_1expression_1_1conditional_1_1_equal.html" target="_top" xlink:title="interpreter.expression.conditional.\lEqual">
<polygon fill="white" stroke="black" points="415.5,-186 415.5,-216 594.5,-216 594.5,-186 415.5,-186"/>
<text text-anchor="start" x="423.5" y="-204" font-family="Helvetica,sans-Serif" font-size="10.00">interpreter.expression.conditional.</text>
<text text-anchor="middle" x="505" y="-193" font-family="Helvetica,sans-Serif" font-size="10.00">Equal</text>
</a>
</g>
</g>
<!-- Node1&#45;&gt;Node4 -->
<g id="edge3" class="edge"><title>Node1&#45;&gt;Node4</title>
<path fill="none" stroke="midnightblue" d="M325.922,-145.928C349.418,-155.652 378.999,-167.26 406,-176 416.942,-179.542 428.7,-182.908 440.141,-185.956"/>
<polygon fill="midnightblue" stroke="midnightblue" points="327.157,-142.651 316.58,-142.029 324.46,-149.111 327.157,-142.651"/>
</g>
<!-- Node5 -->
<g id="node5" class="node"><title>Node5</title>
<g id="a_node5"><a xlink:href="../../d4/d41/classinterpreter_1_1expression_1_1conditional_1_1_greater_than.html" target="_top" xlink:title="interpreter.expression.conditional.\lGreaterThan">
<polygon fill="white" stroke="black" points="415.5,-137 415.5,-167 594.5,-167 594.5,-137 415.5,-137"/>
<text text-anchor="start" x="423.5" y="-155" font-family="Helvetica,sans-Serif" font-size="10.00">interpreter.expression.conditional.</text>
<text text-anchor="middle" x="505" y="-144" font-family="Helvetica,sans-Serif" font-size="10.00">GreaterThan</text>
</a>
</g>
</g>
<!-- Node1&#45;&gt;Node5 -->
<g id="edge4" class="edge"><title>Node1&#45;&gt;Node5</title>
<path fill="none" stroke="midnightblue" d="M380.255,-138.065C391.928,-139.379 403.792,-140.715 415.321,-142.014"/>
<polygon fill="midnightblue" stroke="midnightblue" points="380.388,-134.558 370.059,-136.917 379.605,-141.514 380.388,-134.558"/>
</g>
<!-- Node6 -->
<g id="node6" class="node"><title>Node6</title>
<g id="a_node6"><a xlink:href="../../d2/db2/classinterpreter_1_1expression_1_1conditional_1_1_less_than.html" target="_top" xlink:title="interpreter.expression.conditional.\lLessThan">
<polygon fill="white" stroke="black" points="415.5,-88 415.5,-118 594.5,-118 594.5,-88 415.5,-88"/>
<text text-anchor="start" x="423.5" y="-106" font-family="Helvetica,sans-Serif" font-size="10.00">interpreter.expression.conditional.</text>
<text text-anchor="middle" x="505" y="-95" font-family="Helvetica,sans-Serif" font-size="10.00">LessThan</text>
</a>
</g>
</g>
<!-- Node1&#45;&gt;Node6 -->
<g id="edge5" class="edge"><title>Node1&#45;&gt;Node6</title>
<path fill="none" stroke="midnightblue" d="M380.255,-116.378C391.928,-115.116 403.792,-113.833 415.321,-112.587"/>
<polygon fill="midnightblue" stroke="midnightblue" points="379.625,-112.925 370.059,-117.48 380.377,-119.885 379.625,-112.925"/>
</g>
<!-- Node7 -->
<g id="node7" class="node"><title>Node7</title>
<g id="a_node7"><a xlink:href="../../d2/d2c/classinterpreter_1_1expression_1_1conditional_1_1_not.html" target="_top" xlink:title="interpreter.expression.conditional.Not">
<polygon fill="white" stroke="black" points="406.5,-49.5 406.5,-68.5 603.5,-68.5 603.5,-49.5 406.5,-49.5"/>
<text text-anchor="middle" x="505" y="-56.5" font-family="Helvetica,sans-Serif" font-size="10.00">interpreter.expression.conditional.Not</text>
</a>
</g>
</g>
<!-- Node1&#45;&gt;Node7 -->
<g id="edge6" class="edge"><title>Node1&#45;&gt;Node7</title>
<path fill="none" stroke="midnightblue" d="M324.47,-107.959C348.103,-97.9404 378.267,-86.0924 406,-78 418.561,-74.3348 432.237,-71.1789 445.277,-68.5506"/>
<polygon fill="midnightblue" stroke="midnightblue" points="322.906,-104.821 315.097,-111.981 325.667,-111.254 322.906,-104.821"/>
</g>
<!-- Node8 -->
<g id="node8" class="node"><title>Node8</title>
<g id="a_node8"><a xlink:href="../../dd/d30/classinterpreter_1_1expression_1_1conditional_1_1_not_equal.html" target="_top" xlink:title="interpreter.expression.conditional.\lNotEqual">
<polygon fill="white" stroke="black" points="415.5,-0 415.5,-30 594.5,-30 594.5,-0 415.5,-0"/>
<text text-anchor="start" x="423.5" y="-18" font-family="Helvetica,sans-Serif" font-size="10.00">interpreter.expression.conditional.</text>
<text text-anchor="middle" x="505" y="-7" font-family="Helvetica,sans-Serif" font-size="10.00">NotEqual</text>
</a>
</g>
</g>
<!-- Node1&#45;&gt;Node8 -->
<g id="edge7" class="edge"><title>Node1&#45;&gt;Node8</title>
<path fill="none" stroke="midnightblue" d="M307.079,-105.255C331.003,-85.5617 368.807,-57.0929 406,-40 414.296,-36.1872 423.266,-32.8918 432.293,-30.061"/>
<polygon fill="midnightblue" stroke="midnightblue" points="304.649,-102.724 299.219,-111.821 309.137,-108.095 304.649,-102.724"/>
</g>
<!-- Node2 -->
<g id="node2" class="node"><title>Node2</title>
<g id="a_node2"><a xlink:href="../../db/d09/interfaceinterpreter_1_1expression_1_1_s_logo_expression.html" target="_top" xlink:title="interpreter.expression.SLogo\lExpression">
<polygon fill="white" stroke="black" points="0.5,-112 0.5,-142 155.5,-142 155.5,-112 0.5,-112"/>
<text text-anchor="start" x="8.5" y="-130" font-family="Helvetica,sans-Serif" font-size="10.00">interpreter.expression.SLogo</text>
<text text-anchor="middle" x="78" y="-119" font-family="Helvetica,sans-Serif" font-size="10.00">Expression</text>
</a>
</g>
</g>
<!-- Node2&#45;&gt;Node1 -->
<g id="edge1" class="edge"><title>Node2&#45;&gt;Node1</title>
<path fill="none" stroke="midnightblue" d="M165.675,-127C174.358,-127 183.181,-127 191.878,-127"/>
<polygon fill="midnightblue" stroke="midnightblue" points="165.563,-123.5 155.563,-127 165.563,-130.5 165.563,-123.5"/>
</g>
</g>
</svg>
