<?xml version="1.0" encoding="UTF-8" standalone="no"?>
<!DOCTYPE svg PUBLIC "-//W3C//DTD SVG 1.1//EN"
 "http://www.w3.org/Graphics/SVG/1.1/DTD/svg11.dtd">
<!-- Generated by graphviz version 2.36.0 (20140111.2315)
 -->
<!-- Title: application.Form Pages: 1 -->
<svg width="487pt" height="96pt"
 viewBox="0.00 0.00 487.00 96.00" xmlns="http://www.w3.org/2000/svg" xmlns:xlink="http://www.w3.org/1999/xlink">
<g id="graph0" class="graph" transform="scale(1 1) rotate(0) translate(4 92)">
<title>application.Form</title>
<polygon fill="white" stroke="none" points="-4,4 -4,-92 483,-92 483,4 -4,4"/>
<!-- Node1 -->
<g id="node1" class="node"><title>Node1</title>
<polygon fill="#bfbfbf" stroke="black" points="126,-0.5 126,-19.5 222,-19.5 222,-0.5 126,-0.5"/>
<text text-anchor="middle" x="174" y="-7.5" font-family="Helvetica,sans-Serif" font-size="10.00">application.Form</text>
</g>
<!-- Node2 -->
<g id="node2" class="node"><title>Node2</title>
<polygon fill="white" stroke="#bfbfbf" points="-0.5,-68.5 -0.5,-87.5 40.5,-87.5 40.5,-68.5 -0.5,-68.5"/>
<text text-anchor="middle" x="20" y="-75.5" font-family="Helvetica,sans-Serif" font-size="10.00">VBox</text>
</g>
<!-- Node2&#45;&gt;Node1 -->
<g id="edge1" class="edge"><title>Node2&#45;&gt;Node1</title>
<path fill="none" stroke="#9a32cd" stroke-dasharray="5,2" d="M29.0747,-59.6384C33.9761,-51.8902 40.7287,-43.3259 49,-38 71.7736,-23.3362 101.23,-16.5168 125.828,-13.3954"/>
<polygon fill="#9a32cd" stroke="#9a32cd" points="25.981,-57.9973 24.0363,-68.4122 32.0514,-61.4832 25.981,-57.9973"/>
<text text-anchor="middle" x="79.5" y="-41.5" font-family="Helvetica,sans-Serif" font-size="10.00"> myFormBox</text>
</g>
<!-- Node3 -->
<g id="node3" class="node"><title>Node3</title>
<polygon fill="white" stroke="#bfbfbf" points="81.5,-68.5 81.5,-87.5 126.5,-87.5 126.5,-68.5 81.5,-68.5"/>
<text text-anchor="middle" x="104" y="-75.5" font-family="Helvetica,sans-Serif" font-size="10.00">Stage</text>
</g>
<!-- Node3&#45;&gt;Node1 -->
<g id="edge2" class="edge"><title>Node3&#45;&gt;Node1</title>
<path fill="none" stroke="#9a32cd" stroke-dasharray="5,2" d="M109.556,-58.7092C112.404,-51.6045 116.465,-43.7988 122,-38 129.656,-29.9797 140.219,-23.8943 149.826,-19.5502"/>
<polygon fill="#9a32cd" stroke="#9a32cd" points="106.199,-57.7064 106.22,-68.3012 112.811,-60.0061 106.199,-57.7064"/>
<text text-anchor="middle" x="145.5" y="-41.5" font-family="Helvetica,sans-Serif" font-size="10.00"> myStage</text>
</g>
<!-- Node4 -->
<g id="node4" class="node"><title>Node4</title>
<polygon fill="white" stroke="#bfbfbf" points="146.5,-68.5 146.5,-87.5 195.5,-87.5 195.5,-68.5 146.5,-68.5"/>
<text text-anchor="middle" x="171" y="-75.5" font-family="Helvetica,sans-Serif" font-size="10.00">Button</text>
</g>
<!-- Node4&#45;&gt;Node1 -->
<g id="edge3" class="edge"><title>Node4&#45;&gt;Node1</title>
<path fill="none" stroke="#9a32cd" stroke-dasharray="5,2" d="M171.862,-58.0413C172.433,-45.4724 173.156,-29.5631 173.598,-19.8411"/>
<polygon fill="#9a32cd" stroke="#9a32cd" points="168.35,-58.223 171.392,-68.3717 175.343,-58.5409 168.35,-58.223"/>
<text text-anchor="middle" x="215.5" y="-41.5" font-family="Helvetica,sans-Serif" font-size="10.00"> mySubmitButton</text>
</g>
<!-- Node5 -->
<g id="node5" class="node"><title>Node5</title>
<polygon fill="white" stroke="#bfbfbf" points="213.5,-68.5 213.5,-87.5 388.5,-87.5 388.5,-68.5 213.5,-68.5"/>
<text text-anchor="middle" x="301" y="-75.5" font-family="Helvetica,sans-Serif" font-size="10.00">List&lt; application.FormElement &gt;</text>
</g>
<!-- Node5&#45;&gt;Node1 -->
<g id="edge4" class="edge"><title>Node5&#45;&gt;Node1</title>
<path fill="none" stroke="#9a32cd" stroke-dasharray="5,2" d="M287.831,-60.4871C280.873,-52.709 271.762,-43.872 262,-38 248.169,-29.6801 231.554,-23.7225 216.504,-19.5581"/>
<polygon fill="#9a32cd" stroke="#9a32cd" points="285.33,-62.9507 294.463,-68.321 290.673,-58.4275 285.33,-62.9507"/>
<text text-anchor="middle" x="322" y="-41.5" font-family="Helvetica,sans-Serif" font-size="10.00"> myFormElements</text>
</g>
<!-- Node6 -->
<g id="node6" class="node"><title>Node6</title>
<polygon fill="white" stroke="#bfbfbf" points="407,-68.5 407,-87.5 479,-87.5 479,-68.5 407,-68.5"/>
<text text-anchor="middle" x="443" y="-75.5" font-family="Helvetica,sans-Serif" font-size="10.00">BorderPane</text>
</g>
<!-- Node6&#45;&gt;Node1 -->
<g id="edge5" class="edge"><title>Node6&#45;&gt;Node1</title>
<path fill="none" stroke="#9a32cd" stroke-dasharray="5,2" d="M421.562,-62.9312C407.475,-54.3596 388.323,-43.9457 370,-38 321.155,-22.1499 262.516,-15.6042 222.18,-12.9011"/>
<polygon fill="#9a32cd" stroke="#9a32cd" points="420.102,-66.1468 430.434,-68.4936 423.821,-60.2161 420.102,-66.1468"/>
<text text-anchor="middle" x="419" y="-41.5" font-family="Helvetica,sans-Serif" font-size="10.00"> myPane</text>
</g>
</g>
</svg>
