<?xml version="1.0" encoding="UTF-8" standalone="no"?>
<!DOCTYPE svg PUBLIC "-//W3C//DTD SVG 1.1//EN"
 "http://www.w3.org/Graphics/SVG/1.1/DTD/svg11.dtd">
<!-- Generated by graphviz version 2.36.0 (20140111.2315)
 -->
<!-- Title: interpreter.CommandReferenceLibrary.CommandReferenceLibrary Pages: 1 -->
<svg width="614pt" height="185pt"
 viewBox="0.00 0.00 614.00 185.00" xmlns="http://www.w3.org/2000/svg" xmlns:xlink="http://www.w3.org/1999/xlink">
<g id="graph0" class="graph" transform="scale(1 1) rotate(0) translate(4 181)">
<title>interpreter.CommandReferenceLibrary.CommandReferenceLibrary</title>
<polygon fill="white" stroke="none" points="-4,4 -4,-181 610,-181 610,4 -4,4"/>
<!-- Node1 -->
<g id="node1" class="node"><title>Node1</title>
<polygon fill="#bfbfbf" stroke="black" points="0,-73 0,-103 180,-103 180,-73 0,-73"/>
<text text-anchor="start" x="8" y="-91" font-family="Helvetica,sans-Serif" font-size="10.00">interpreter.CommandReference</text>
<text text-anchor="middle" x="90" y="-80" font-family="Helvetica,sans-Serif" font-size="10.00">Library.CommandReferenceLibrary</text>
</g>
<!-- Node2 -->
<g id="node2" class="node"><title>Node2</title>
<g id="a_node2"><a xlink:href="../../d5/d09/classinterpreter_1_1_command_reference_library.html#a13f79754cc2dda992396a9d11401c0d1" target="_top" xlink:title="interpreter.CommandReference\lLibrary.initializeDirectoryReferences">
<polygon fill="white" stroke="black" points="216.5,-147 216.5,-177 401.5,-177 401.5,-147 216.5,-147"/>
<text text-anchor="start" x="224.5" y="-165" font-family="Helvetica,sans-Serif" font-size="10.00">interpreter.CommandReference</text>
<text text-anchor="middle" x="309" y="-154" font-family="Helvetica,sans-Serif" font-size="10.00">Library.initializeDirectoryReferences</text>
</a>
</g>
</g>
<!-- Node1&#45;&gt;Node2 -->
<g id="edge1" class="edge"><title>Node1&#45;&gt;Node2</title>
<path fill="none" stroke="midnightblue" d="M126.456,-103.084C151.277,-113.351 185.35,-126.861 216,-137 223.403,-139.449 231.196,-141.843 238.987,-144.12"/>
<polygon fill="midnightblue" stroke="midnightblue" points="238.245,-147.548 248.822,-146.936 240.172,-140.818 238.245,-147.548"/>
</g>
<!-- Node3 -->
<g id="node3" class="node"><title>Node3</title>
<g id="a_node3"><a xlink:href="../../d5/d09/classinterpreter_1_1_command_reference_library.html#a29499c54aab54280f55a41c9e1a886ee" target="_top" xlink:title="interpreter.CommandReference\lLibrary.initializeNumArgsMap">
<polygon fill="white" stroke="black" points="225.5,-98 225.5,-128 392.5,-128 392.5,-98 225.5,-98"/>
<text text-anchor="start" x="233.5" y="-116" font-family="Helvetica,sans-Serif" font-size="10.00">interpreter.CommandReference</text>
<text text-anchor="middle" x="309" y="-105" font-family="Helvetica,sans-Serif" font-size="10.00">Library.initializeNumArgsMap</text>
</a>
</g>
</g>
<!-- Node1&#45;&gt;Node3 -->
<g id="edge2" class="edge"><title>Node1&#45;&gt;Node3</title>
<path fill="none" stroke="midnightblue" d="M180.202,-98.2767C191.774,-99.61 203.65,-100.978 215.278,-102.318"/>
<polygon fill="midnightblue" stroke="midnightblue" points="215.085,-105.819 225.42,-103.486 215.886,-98.8646 215.085,-105.819"/>
</g>
<!-- Node4 -->
<g id="node4" class="node"><title>Node4</title>
<g id="a_node4"><a xlink:href="../../d5/d09/classinterpreter_1_1_command_reference_library.html#ad679725b6e0885cb819340a94727acbe" target="_top" xlink:title="interpreter.CommandReference\lLibrary.initializeSyntaxMap">
<polygon fill="white" stroke="black" points="225.5,-49 225.5,-79 392.5,-79 392.5,-49 225.5,-49"/>
<text text-anchor="start" x="233.5" y="-67" font-family="Helvetica,sans-Serif" font-size="10.00">interpreter.CommandReference</text>
<text text-anchor="middle" x="309" y="-56" font-family="Helvetica,sans-Serif" font-size="10.00">Library.initializeSyntaxMap</text>
</a>
</g>
</g>
<!-- Node1&#45;&gt;Node4 -->
<g id="edge3" class="edge"><title>Node1&#45;&gt;Node4</title>
<path fill="none" stroke="midnightblue" d="M180.202,-78.1344C191.774,-76.8544 203.65,-75.541 215.278,-74.2549"/>
<polygon fill="midnightblue" stroke="midnightblue" points="215.865,-77.7114 225.42,-73.1333 215.096,-70.7539 215.865,-77.7114"/>
</g>
<!-- Node5 -->
<g id="node5" class="node"><title>Node5</title>
<g id="a_node5"><a xlink:href="../../d5/d09/classinterpreter_1_1_command_reference_library.html#aa46bd6f45456f507c06e0ffffa7936a5" target="_top" xlink:title="interpreter.CommandReference\lLibrary.setLanguageAndReferences">
<polygon fill="white" stroke="black" points="217,-0 217,-30 401,-30 401,-0 217,-0"/>
<text text-anchor="start" x="225" y="-18" font-family="Helvetica,sans-Serif" font-size="10.00">interpreter.CommandReference</text>
<text text-anchor="middle" x="309" y="-7" font-family="Helvetica,sans-Serif" font-size="10.00">Library.setLanguageAndReferences</text>
</a>
</g>
</g>
<!-- Node1&#45;&gt;Node5 -->
<g id="edge4" class="edge"><title>Node1&#45;&gt;Node5</title>
<path fill="none" stroke="midnightblue" d="M127.296,-72.9425C152.059,-62.9477 185.729,-49.8967 216,-40 223.411,-37.577 231.21,-35.1991 239.003,-32.9319"/>
<polygon fill="midnightblue" stroke="midnightblue" points="240.186,-36.2341 248.842,-30.1241 238.265,-29.5028 240.186,-36.2341"/>
</g>
<!-- Node6 -->
<g id="node6" class="node"><title>Node6</title>
<g id="a_node6"><a xlink:href="../../d5/d09/classinterpreter_1_1_command_reference_library.html#a95b083104071662a1262813d84f71bdb" target="_top" xlink:title="interpreter.CommandReference\lLibrary.setCommandReference">
<polygon fill="white" stroke="black" points="438.5,-0 438.5,-30 605.5,-30 605.5,-0 438.5,-0"/>
<text text-anchor="start" x="446.5" y="-18" font-family="Helvetica,sans-Serif" font-size="10.00">interpreter.CommandReference</text>
<text text-anchor="middle" x="522" y="-7" font-family="Helvetica,sans-Serif" font-size="10.00">Library.setCommandReference</text>
</a>
</g>
</g>
<!-- Node5&#45;&gt;Node6 -->
<g id="edge5" class="edge"><title>Node5&#45;&gt;Node6</title>
<path fill="none" stroke="midnightblue" d="M401.014,-15C410.009,-15 419.148,-15 428.161,-15"/>
<polygon fill="midnightblue" stroke="midnightblue" points="428.27,-18.5001 438.27,-15 428.27,-11.5001 428.27,-18.5001"/>
</g>
</g>
</svg>
