<?xml version="1.0" encoding="UTF-8" standalone="no"?>
<!DOCTYPE svg PUBLIC "-//W3C//DTD SVG 1.1//EN"
 "http://www.w3.org/Graphics/SVG/1.1/DTD/svg11.dtd">
<!-- Generated by graphviz version 2.36.0 (20140111.2315)
 -->
<!-- Title: interpreter.CommandReferenceLibrary.setLanguageAndReferences Pages: 1 -->
<svg width="408pt" height="87pt"
 viewBox="0.00 0.00 408.00 87.00" xmlns="http://www.w3.org/2000/svg" xmlns:xlink="http://www.w3.org/1999/xlink">
<g id="graph0" class="graph" transform="scale(1 1) rotate(0) translate(4 83)">
<title>interpreter.CommandReferenceLibrary.setLanguageAndReferences</title>
<polygon fill="white" stroke="none" points="-4,4 -4,-83 404,-83 404,4 -4,4"/>
<!-- Node1 -->
<g id="node1" class="node"><title>Node1</title>
<polygon fill="#bfbfbf" stroke="black" points="0,-24 0,-54 184,-54 184,-24 0,-24"/>
<text text-anchor="start" x="8" y="-42" font-family="Helvetica,sans-Serif" font-size="10.00">interpreter.CommandReference</text>
<text text-anchor="middle" x="92" y="-31" font-family="Helvetica,sans-Serif" font-size="10.00">Library.setLanguageAndReferences</text>
</g>
<!-- Node2 -->
<g id="node2" class="node"><title>Node2</title>
<g id="a_node2"><a xlink:href="../../d5/d09/classinterpreter_1_1_command_reference_library.html#ad9f951d0e916480910f9c745b84632ad" target="_top" xlink:title="interpreter.CommandReference\lLibrary.CommandReferenceLibrary">
<polygon fill="white" stroke="black" points="220,-49 220,-79 400,-79 400,-49 220,-49"/>
<text text-anchor="start" x="228" y="-67" font-family="Helvetica,sans-Serif" font-size="10.00">interpreter.CommandReference</text>
<text text-anchor="middle" x="310" y="-56" font-family="Helvetica,sans-Serif" font-size="10.00">Library.CommandReferenceLibrary</text>
</a>
</g>
</g>
<!-- Node1&#45;&gt;Node2 -->
<g id="edge1" class="edge"><title>Node1&#45;&gt;Node2</title>
<path fill="none" stroke="midnightblue" d="M194.251,-50.7189C202.769,-51.7047 211.343,-52.6971 219.76,-53.6713"/>
<polygon fill="midnightblue" stroke="midnightblue" points="194.626,-47.239 184.29,-49.566 193.822,-54.1926 194.626,-47.239"/>
</g>
<!-- Node3 -->
<g id="node3" class="node"><title>Node3</title>
<g id="a_node3"><a xlink:href="../../d2/dc7/classinterpreter_1_1_interpreter.html#af2c68cd59d656c84629aa6a109f1f6ac" target="_top" xlink:title="interpreter.Interpreter.set\lLanguage">
<polygon fill="white" stroke="black" points="241,-0 241,-30 379,-30 379,-0 241,-0"/>
<text text-anchor="start" x="249" y="-18" font-family="Helvetica,sans-Serif" font-size="10.00">interpreter.Interpreter.set</text>
<text text-anchor="middle" x="310" y="-7" font-family="Helvetica,sans-Serif" font-size="10.00">Language</text>
</a>
</g>
</g>
<!-- Node1&#45;&gt;Node3 -->
<g id="edge2" class="edge"><title>Node1&#45;&gt;Node3</title>
<path fill="none" stroke="midnightblue" d="M194.586,-27.7127C210.314,-25.9651 226.225,-24.1973 240.976,-22.5582"/>
<polygon fill="midnightblue" stroke="midnightblue" points="193.843,-24.2736 184.29,-28.8566 194.616,-31.2308 193.843,-24.2736"/>
</g>
</g>
</svg>
