<?xml version="1.0" encoding="UTF-8" standalone="no"?>
<!DOCTYPE svg PUBLIC "-//W3C//DTD SVG 1.1//EN"
 "http://www.w3.org/Graphics/SVG/1.1/DTD/svg11.dtd">
<!-- Generated by graphviz version 2.36.0 (20140111.2315)
 -->
<!-- Title: interpreter.CommandReferenceLibrary.getCommandsToNumArgs Pages: 1 -->
<svg width="390pt" height="38pt"
 viewBox="0.00 0.00 390.00 38.00" xmlns="http://www.w3.org/2000/svg" xmlns:xlink="http://www.w3.org/1999/xlink">
<g id="graph0" class="graph" transform="scale(1 1) rotate(0) translate(4 34)">
<title>interpreter.CommandReferenceLibrary.getCommandsToNumArgs</title>
<polygon fill="white" stroke="none" points="-4,4 -4,-34 386,-34 386,4 -4,4"/>
<!-- Node1 -->
<g id="node1" class="node"><title>Node1</title>
<polygon fill="#bfbfbf" stroke="black" points="0,-0 0,-30 176,-30 176,-0 0,-0"/>
<text text-anchor="start" x="8" y="-18" font-family="Helvetica,sans-Serif" font-size="10.00">interpreter.CommandReference</text>
<text text-anchor="middle" x="88" y="-7" font-family="Helvetica,sans-Serif" font-size="10.00">Library.getCommandsToNumArgs</text>
</g>
<!-- Node2 -->
<g id="node2" class="node"><title>Node2</title>
<g id="a_node2"><a xlink:href="../../d8/daa/classinterpreter_1_1_s_logo_expression_factory.html#aa24753591f074461a31dddab150a7b69" target="_top" xlink:title="interpreter.SLogoExpression\lFactory.SLogoExpressionFactory">
<polygon fill="white" stroke="black" points="212.5,-0 212.5,-30 381.5,-30 381.5,-0 212.5,-0"/>
<text text-anchor="start" x="220.5" y="-18" font-family="Helvetica,sans-Serif" font-size="10.00">interpreter.SLogoExpression</text>
<text text-anchor="middle" x="297" y="-7" font-family="Helvetica,sans-Serif" font-size="10.00">Factory.SLogoExpressionFactory</text>
</a>
</g>
</g>
<!-- Node1&#45;&gt;Node2 -->
<g id="edge1" class="edge"><title>Node1&#45;&gt;Node2</title>
<path fill="none" stroke="midnightblue" d="M186.311,-15C194.971,-15 203.688,-15 212.22,-15"/>
<polygon fill="midnightblue" stroke="midnightblue" points="186.187,-11.5001 176.187,-15 186.187,-18.5001 186.187,-11.5001"/>
</g>
</g>
</svg>
