<?xml version="1.0" encoding="UTF-8" standalone="no"?>
<!DOCTYPE svg PUBLIC "-//W3C//DTD SVG 1.1//EN"
 "http://www.w3.org/Graphics/SVG/1.1/DTD/svg11.dtd">
<!-- Generated by graphviz version 2.36.0 (20140111.2315)
 -->
<!-- Title: interpreter.CommandReferenceLibrary.setCommandReference Pages: 1 -->
<svg width="612pt" height="87pt"
 viewBox="0.00 0.00 612.00 87.00" xmlns="http://www.w3.org/2000/svg" xmlns:xlink="http://www.w3.org/1999/xlink">
<g id="graph0" class="graph" transform="scale(1 1) rotate(0) translate(4 83)">
<title>interpreter.CommandReferenceLibrary.setCommandReference</title>
<polygon fill="white" stroke="none" points="-4,4 -4,-83 608,-83 608,4 -4,4"/>
<!-- Node1 -->
<g id="node1" class="node"><title>Node1</title>
<polygon fill="#bfbfbf" stroke="black" points="0.5,-24 0.5,-54 167.5,-54 167.5,-24 0.5,-24"/>
<text text-anchor="start" x="8.5" y="-42" font-family="Helvetica,sans-Serif" font-size="10.00">interpreter.CommandReference</text>
<text text-anchor="middle" x="84" y="-31" font-family="Helvetica,sans-Serif" font-size="10.00">Library.setCommandReference</text>
</g>
<!-- Node2 -->
<g id="node2" class="node"><title>Node2</title>
<g id="a_node2"><a xlink:href="../../d5/d09/classinterpreter_1_1_command_reference_library.html#aa46bd6f45456f507c06e0ffffa7936a5" target="_top" xlink:title="interpreter.CommandReference\lLibrary.setLanguageAndReferences">
<polygon fill="white" stroke="black" points="204,-24 204,-54 388,-54 388,-24 204,-24"/>
<text text-anchor="start" x="212" y="-42" font-family="Helvetica,sans-Serif" font-size="10.00">interpreter.CommandReference</text>
<text text-anchor="middle" x="296" y="-31" font-family="Helvetica,sans-Serif" font-size="10.00">Library.setLanguageAndReferences</text>
</a>
</g>
</g>
<!-- Node1&#45;&gt;Node2 -->
<g id="edge1" class="edge"><title>Node1&#45;&gt;Node2</title>
<path fill="none" stroke="midnightblue" d="M177.751,-39C186.371,-39 195.104,-39 203.711,-39"/>
<polygon fill="midnightblue" stroke="midnightblue" points="177.696,-35.5001 167.696,-39 177.696,-42.5001 177.696,-35.5001"/>
</g>
<!-- Node3 -->
<g id="node3" class="node"><title>Node3</title>
<g id="a_node3"><a xlink:href="../../d5/d09/classinterpreter_1_1_command_reference_library.html#ad9f951d0e916480910f9c745b84632ad" target="_top" xlink:title="interpreter.CommandReference\lLibrary.CommandReferenceLibrary">
<polygon fill="white" stroke="black" points="424,-49 424,-79 604,-79 604,-49 424,-49"/>
<text text-anchor="start" x="432" y="-67" font-family="Helvetica,sans-Serif" font-size="10.00">interpreter.CommandReference</text>
<text text-anchor="middle" x="514" y="-56" font-family="Helvetica,sans-Serif" font-size="10.00">Library.CommandReferenceLibrary</text>
</a>
</g>
</g>
<!-- Node2&#45;&gt;Node3 -->
<g id="edge2" class="edge"><title>Node2&#45;&gt;Node3</title>
<path fill="none" stroke="midnightblue" d="M398.251,-50.7189C406.769,-51.7047 415.343,-52.6971 423.76,-53.6713"/>
<polygon fill="midnightblue" stroke="midnightblue" points="398.626,-47.239 388.29,-49.566 397.822,-54.1926 398.626,-47.239"/>
</g>
<!-- Node4 -->
<g id="node4" class="node"><title>Node4</title>
<g id="a_node4"><a xlink:href="../../d2/dc7/classinterpreter_1_1_interpreter.html#af2c68cd59d656c84629aa6a109f1f6ac" target="_top" xlink:title="interpreter.Interpreter.set\lLanguage">
<polygon fill="white" stroke="black" points="445,-0 445,-30 583,-30 583,-0 445,-0"/>
<text text-anchor="start" x="453" y="-18" font-family="Helvetica,sans-Serif" font-size="10.00">interpreter.Interpreter.set</text>
<text text-anchor="middle" x="514" y="-7" font-family="Helvetica,sans-Serif" font-size="10.00">Language</text>
</a>
</g>
</g>
<!-- Node2&#45;&gt;Node4 -->
<g id="edge3" class="edge"><title>Node2&#45;&gt;Node4</title>
<path fill="none" stroke="midnightblue" d="M398.586,-27.7127C414.314,-25.9651 430.225,-24.1973 444.976,-22.5582"/>
<polygon fill="midnightblue" stroke="midnightblue" points="397.843,-24.2736 388.29,-28.8566 398.616,-31.2308 397.843,-24.2736"/>
</g>
</g>
</svg>
