<?xml version="1.0" encoding="UTF-8" standalone="no"?>
<!DOCTYPE svg PUBLIC "-//W3C//DTD SVG 1.1//EN"
 "http://www.w3.org/Graphics/SVG/1.1/DTD/svg11.dtd">
<!-- Generated by graphviz version 2.36.0 (20140111.2315)
 -->
<!-- Title: interpreter.expression.MathExpression.mergePreviousResults Pages: 1 -->
<svg width="596pt" height="38pt"
 viewBox="0.00 0.00 596.00 38.00" xmlns="http://www.w3.org/2000/svg" xmlns:xlink="http://www.w3.org/1999/xlink">
<g id="graph0" class="graph" transform="scale(1 1) rotate(0) translate(4 34)">
<title>interpreter.expression.MathExpression.mergePreviousResults</title>
<polygon fill="white" stroke="none" points="-4,4 -4,-34 592,-34 592,4 -4,4"/>
<!-- Node1 -->
<g id="node1" class="node"><title>Node1</title>
<polygon fill="#bfbfbf" stroke="black" points="0.5,-0 0.5,-30 177.5,-30 177.5,-0 0.5,-0"/>
<text text-anchor="start" x="8.5" y="-18" font-family="Helvetica,sans-Serif" font-size="10.00">interpreter.expression.Math</text>
<text text-anchor="middle" x="89" y="-7" font-family="Helvetica,sans-Serif" font-size="10.00">Expression.mergePreviousResults</text>
</g>
<!-- Node2 -->
<g id="node2" class="node"><title>Node2</title>
<g id="a_node2"><a xlink:href="../../da/da4/classinterpreter_1_1expression_1_1_math_expression.html#a64014232560c48c902ac5abe5a3f5086" target="_top" xlink:title="interpreter.expression.Math\lExpression.applyOperatorAndMerge">
<polygon fill="white" stroke="black" points="214,-0 214,-30 402,-30 402,-0 214,-0"/>
<text text-anchor="start" x="222" y="-18" font-family="Helvetica,sans-Serif" font-size="10.00">interpreter.expression.Math</text>
<text text-anchor="middle" x="308" y="-7" font-family="Helvetica,sans-Serif" font-size="10.00">Expression.applyOperatorAndMerge</text>
</a>
</g>
</g>
<!-- Node1&#45;&gt;Node2 -->
<g id="edge1" class="edge"><title>Node1&#45;&gt;Node2</title>
<path fill="none" stroke="midnightblue" d="M187.73,-15C196.375,-15 205.112,-15 213.719,-15"/>
<polygon fill="midnightblue" stroke="midnightblue" points="187.637,-11.5001 177.637,-15 187.637,-18.5001 187.637,-11.5001"/>
</g>
<!-- Node3 -->
<g id="node3" class="node"><title>Node3</title>
<g id="a_node3"><a xlink:href="../../da/da4/classinterpreter_1_1expression_1_1_math_expression.html#a9faf0f0f54e27a348a1a60f2b884d2a1" target="_top" xlink:title="interpreter.expression.Math\lExpression.evaluate">
<polygon fill="white" stroke="black" points="438.5,-0 438.5,-30 587.5,-30 587.5,-0 438.5,-0"/>
<text text-anchor="start" x="446.5" y="-18" font-family="Helvetica,sans-Serif" font-size="10.00">interpreter.expression.Math</text>
<text text-anchor="middle" x="513" y="-7" font-family="Helvetica,sans-Serif" font-size="10.00">Expression.evaluate</text>
</a>
</g>
</g>
<!-- Node2&#45;&gt;Node3 -->
<g id="edge2" class="edge"><title>Node2&#45;&gt;Node3</title>
<path fill="none" stroke="midnightblue" d="M412.406,-15C421.121,-15 429.817,-15 438.237,-15"/>
<polygon fill="midnightblue" stroke="midnightblue" points="412.182,-11.5001 402.182,-15 412.182,-18.5001 412.182,-11.5001"/>
</g>
</g>
</svg>
