<?xml version="1.0" encoding="UTF-8" standalone="no"?>
<!DOCTYPE svg PUBLIC "-//W3C//DTD SVG 1.1//EN"
 "http://www.w3.org/Graphics/SVG/1.1/DTD/svg11.dtd">
<!-- Generated by graphviz version 2.36.0 (20140111.2315)
 -->
<!-- Title: interpreter.expression.MathExpression.applyMath Pages: 1 -->
<svg width="568pt" height="38pt"
 viewBox="0.00 0.00 568.00 38.00" xmlns="http://www.w3.org/2000/svg" xmlns:xlink="http://www.w3.org/1999/xlink">
<g id="graph0" class="graph" transform="scale(1 1) rotate(0) translate(4 34)">
<title>interpreter.expression.MathExpression.applyMath</title>
<polygon fill="white" stroke="none" points="-4,4 -4,-34 564,-34 564,4 -4,4"/>
<!-- Node1 -->
<g id="node1" class="node"><title>Node1</title>
<polygon fill="#bfbfbf" stroke="black" points="0.5,-0 0.5,-30 149.5,-30 149.5,-0 0.5,-0"/>
<text text-anchor="start" x="8.5" y="-18" font-family="Helvetica,sans-Serif" font-size="10.00">interpreter.expression.Math</text>
<text text-anchor="middle" x="75" y="-7" font-family="Helvetica,sans-Serif" font-size="10.00">Expression.applyMath</text>
</g>
<!-- Node2 -->
<g id="node2" class="node"><title>Node2</title>
<g id="a_node2"><a xlink:href="../../da/da4/classinterpreter_1_1expression_1_1_math_expression.html#a64014232560c48c902ac5abe5a3f5086" target="_top" xlink:title="interpreter.expression.Math\lExpression.applyOperatorAndMerge">
<polygon fill="white" stroke="black" points="186,-0 186,-30 374,-30 374,-0 186,-0"/>
<text text-anchor="start" x="194" y="-18" font-family="Helvetica,sans-Serif" font-size="10.00">interpreter.expression.Math</text>
<text text-anchor="middle" x="280" y="-7" font-family="Helvetica,sans-Serif" font-size="10.00">Expression.applyOperatorAndMerge</text>
</a>
</g>
</g>
<!-- Node1&#45;&gt;Node2 -->
<g id="edge1" class="edge"><title>Node1&#45;&gt;Node2</title>
<path fill="none" stroke="midnightblue" d="M159.645,-15C168.307,-15 177.149,-15 185.906,-15"/>
<polygon fill="midnightblue" stroke="midnightblue" points="159.575,-11.5001 149.575,-15 159.575,-18.5001 159.575,-11.5001"/>
</g>
<!-- Node3 -->
<g id="node3" class="node"><title>Node3</title>
<g id="a_node3"><a xlink:href="../../da/da4/classinterpreter_1_1expression_1_1_math_expression.html#a9faf0f0f54e27a348a1a60f2b884d2a1" target="_top" xlink:title="interpreter.expression.Math\lExpression.evaluate">
<polygon fill="white" stroke="black" points="410.5,-0 410.5,-30 559.5,-30 559.5,-0 410.5,-0"/>
<text text-anchor="start" x="418.5" y="-18" font-family="Helvetica,sans-Serif" font-size="10.00">interpreter.expression.Math</text>
<text text-anchor="middle" x="485" y="-7" font-family="Helvetica,sans-Serif" font-size="10.00">Expression.evaluate</text>
</a>
</g>
</g>
<!-- Node2&#45;&gt;Node3 -->
<g id="edge2" class="edge"><title>Node2&#45;&gt;Node3</title>
<path fill="none" stroke="midnightblue" d="M384.406,-15C393.121,-15 401.817,-15 410.237,-15"/>
<polygon fill="midnightblue" stroke="midnightblue" points="384.182,-11.5001 374.182,-15 384.182,-18.5001 384.182,-11.5001"/>
</g>
</g>
</svg>
