<?xml version="1.0" encoding="UTF-8" standalone="no"?>
<!DOCTYPE svg PUBLIC "-//W3C//DTD SVG 1.1//EN"
 "http://www.w3.org/Graphics/SVG/1.1/DTD/svg11.dtd">
<!-- Generated by graphviz version 2.36.0 (20140111.2315)
 -->
<!-- Title: interpreter.expression.MathExpression.applyOperatorAndMerge Pages: 1 -->
<svg width="576pt" height="136pt"
 viewBox="0.00 0.00 576.00 136.00" xmlns="http://www.w3.org/2000/svg" xmlns:xlink="http://www.w3.org/1999/xlink">
<g id="graph0" class="graph" transform="scale(1 1) rotate(0) translate(4 132)">
<title>interpreter.expression.MathExpression.applyOperatorAndMerge</title>
<polygon fill="white" stroke="none" points="-4,4 -4,-132 572,-132 572,4 -4,4"/>
<!-- Node1 -->
<g id="node1" class="node"><title>Node1</title>
<polygon fill="#bfbfbf" stroke="black" points="0,-49 0,-79 188,-79 188,-49 0,-49"/>
<text text-anchor="start" x="8" y="-67" font-family="Helvetica,sans-Serif" font-size="10.00">interpreter.expression.Math</text>
<text text-anchor="middle" x="94" y="-56" font-family="Helvetica,sans-Serif" font-size="10.00">Expression.applyOperatorAndMerge</text>
</g>
<!-- Node2 -->
<g id="node2" class="node"><title>Node2</title>
<g id="a_node2"><a xlink:href="../../da/da4/classinterpreter_1_1expression_1_1_math_expression.html#aff0f6d9e45dd9c326149178b3dfd81cc" target="_top" xlink:title="interpreter.expression.Math\lExpression.applyMath">
<polygon fill="white" stroke="black" points="238.5,-98 238.5,-128 387.5,-128 387.5,-98 238.5,-98"/>
<text text-anchor="start" x="246.5" y="-116" font-family="Helvetica,sans-Serif" font-size="10.00">interpreter.expression.Math</text>
<text text-anchor="middle" x="313" y="-105" font-family="Helvetica,sans-Serif" font-size="10.00">Expression.applyMath</text>
</a>
</g>
</g>
<!-- Node1&#45;&gt;Node2 -->
<g id="edge1" class="edge"><title>Node1&#45;&gt;Node2</title>
<path fill="none" stroke="midnightblue" d="M161.582,-79.0346C185.015,-84.3259 211.53,-90.3133 235.701,-95.7712"/>
<polygon fill="midnightblue" stroke="midnightblue" points="235.019,-99.2052 245.544,-97.9938 236.561,-92.3771 235.019,-99.2052"/>
</g>
<!-- Node3 -->
<g id="node3" class="node"><title>Node3</title>
<g id="a_node3"><a xlink:href="../../da/da4/classinterpreter_1_1expression_1_1_math_expression.html#a01d7f3cfe3de99727323f6bfa2713fa5" target="_top" xlink:title="interpreter.expression.Math\lExpression.mergePreviousResults">
<polygon fill="white" stroke="black" points="224.5,-49 224.5,-79 401.5,-79 401.5,-49 224.5,-49"/>
<text text-anchor="start" x="232.5" y="-67" font-family="Helvetica,sans-Serif" font-size="10.00">interpreter.expression.Math</text>
<text text-anchor="middle" x="313" y="-56" font-family="Helvetica,sans-Serif" font-size="10.00">Expression.mergePreviousResults</text>
</a>
</g>
</g>
<!-- Node1&#45;&gt;Node3 -->
<g id="edge2" class="edge"><title>Node1&#45;&gt;Node3</title>
<path fill="none" stroke="midnightblue" d="M188.287,-64C196.874,-64 205.59,-64 214.215,-64"/>
<polygon fill="midnightblue" stroke="midnightblue" points="214.285,-67.5001 224.285,-64 214.285,-60.5001 214.285,-67.5001"/>
</g>
<!-- Node5 -->
<g id="node5" class="node"><title>Node5</title>
<g id="a_node5"><a xlink:href="../../df/df6/classinterpreter_1_1result_1_1_s_logo_result.html#ade0879b3224a3216bf17e17e25bfd4ca" target="_top" xlink:title="interpreter.result.SLogo\lResult.setValue">
<polygon fill="white" stroke="black" points="248,-0 248,-30 378,-30 378,-0 248,-0"/>
<text text-anchor="start" x="256" y="-18" font-family="Helvetica,sans-Serif" font-size="10.00">interpreter.result.SLogo</text>
<text text-anchor="middle" x="313" y="-7" font-family="Helvetica,sans-Serif" font-size="10.00">Result.setValue</text>
</a>
</g>
</g>
<!-- Node1&#45;&gt;Node5 -->
<g id="edge4" class="edge"><title>Node1&#45;&gt;Node5</title>
<path fill="none" stroke="midnightblue" d="M161.582,-48.9654C185.672,-43.5257 213.019,-37.3504 237.729,-31.771"/>
<polygon fill="midnightblue" stroke="midnightblue" points="238.792,-35.1189 247.776,-29.5022 237.251,-28.2909 238.792,-35.1189"/>
</g>
<!-- Node4 -->
<g id="node4" class="node"><title>Node4</title>
<g id="a_node4"><a xlink:href="../../df/df6/classinterpreter_1_1result_1_1_s_logo_result.html#a11062748597af4f6622d9cbc92d4d9c0" target="_top" xlink:title="interpreter.result.SLogo\lResult.getTransition">
<polygon fill="white" stroke="black" points="438,-49 438,-79 568,-79 568,-49 438,-49"/>
<text text-anchor="start" x="446" y="-67" font-family="Helvetica,sans-Serif" font-size="10.00">interpreter.result.SLogo</text>
<text text-anchor="middle" x="503" y="-56" font-family="Helvetica,sans-Serif" font-size="10.00">Result.getTransition</text>
</a>
</g>
</g>
<!-- Node3&#45;&gt;Node4 -->
<g id="edge3" class="edge"><title>Node3&#45;&gt;Node4</title>
<path fill="none" stroke="midnightblue" d="M401.67,-64C410.313,-64 419.028,-64 427.521,-64"/>
<polygon fill="midnightblue" stroke="midnightblue" points="427.749,-67.5001 437.749,-64 427.749,-60.5001 427.749,-67.5001"/>
</g>
</g>
</svg>
