<?xml version="1.0" encoding="UTF-8" standalone="no"?>
<!DOCTYPE svg PUBLIC "-//W3C//DTD SVG 1.1//EN"
 "http://www.w3.org/Graphics/SVG/1.1/DTD/svg11.dtd">
<!-- Generated by graphviz version 2.36.0 (20140111.2315)
 -->
<!-- Title: interpreter.expression.userdefined.If Pages: 1 -->
<svg width="196pt" height="164pt"
 viewBox="0.00 0.00 196.00 164.00" xmlns="http://www.w3.org/2000/svg" xmlns:xlink="http://www.w3.org/1999/xlink">
<g id="graph0" class="graph" transform="scale(1 1) rotate(0) translate(4 160)">
<title>interpreter.expression.userdefined.If</title>
<polygon fill="white" stroke="none" points="-4,4 -4,-160 192,-160 192,4 -4,4"/>
<!-- Node1 -->
<g id="node1" class="node"><title>Node1</title>
<polygon fill="#bfbfbf" stroke="black" points="-0.5,-0.5 -0.5,-19.5 188.5,-19.5 188.5,-0.5 -0.5,-0.5"/>
<text text-anchor="middle" x="94" y="-7.5" font-family="Helvetica,sans-Serif" font-size="10.00">interpreter.expression.userdefined.If</text>
</g>
<!-- Node2 -->
<g id="node2" class="node"><title>Node2</title>
<g id="a_node2"><a xlink:href="../../da/d94/classinterpreter_1_1expression_1_1_user_defined_expression.html" target="_top" xlink:title="interpreter.expression.User\lDefinedExpression">
<polygon fill="white" stroke="black" points="20.5,-57 20.5,-87 167.5,-87 167.5,-57 20.5,-57"/>
<text text-anchor="start" x="28.5" y="-75" font-family="Helvetica,sans-Serif" font-size="10.00">interpreter.expression.User</text>
<text text-anchor="middle" x="94" y="-64" font-family="Helvetica,sans-Serif" font-size="10.00">DefinedExpression</text>
</a>
</g>
</g>
<!-- Node2&#45;&gt;Node1 -->
<g id="edge1" class="edge"><title>Node2&#45;&gt;Node1</title>
<path fill="none" stroke="midnightblue" d="M94,-46.5858C94,-37.0743 94,-26.7864 94,-19.7305"/>
<polygon fill="midnightblue" stroke="midnightblue" points="90.5001,-46.7808 94,-56.7808 97.5001,-46.7809 90.5001,-46.7808"/>
</g>
<!-- Node3 -->
<g id="node3" class="node"><title>Node3</title>
<g id="a_node3"><a xlink:href="../../db/d09/interfaceinterpreter_1_1expression_1_1_s_logo_expression.html" target="_top" xlink:title="interpreter.expression.SLogo\lExpression">
<polygon fill="white" stroke="black" points="16.5,-125 16.5,-155 171.5,-155 171.5,-125 16.5,-125"/>
<text text-anchor="start" x="24.5" y="-143" font-family="Helvetica,sans-Serif" font-size="10.00">interpreter.expression.SLogo</text>
<text text-anchor="middle" x="94" y="-132" font-family="Helvetica,sans-Serif" font-size="10.00">Expression</text>
</a>
</g>
</g>
<!-- Node3&#45;&gt;Node2 -->
<g id="edge2" class="edge"><title>Node3&#45;&gt;Node2</title>
<path fill="none" stroke="midnightblue" d="M94,-114.532C94,-105.361 94,-95.2449 94,-87.2931"/>
<polygon fill="midnightblue" stroke="midnightblue" points="90.5001,-114.679 94,-124.679 97.5001,-114.679 90.5001,-114.679"/>
</g>
</g>
</svg>
