<?xml version="1.0" encoding="UTF-8" standalone="no"?>
<!DOCTYPE svg PUBLIC "-//W3C//DTD SVG 1.1//EN"
 "http://www.w3.org/Graphics/SVG/1.1/DTD/svg11.dtd">
<!-- Generated by graphviz version 2.36.0 (20140111.2315)
 -->
<!-- Title: application.FormElement Pages: 1 -->
<svg width="346pt" height="126pt"
 viewBox="0.00 0.00 346.00 126.00" xmlns="http://www.w3.org/2000/svg" xmlns:xlink="http://www.w3.org/1999/xlink">
<g id="graph0" class="graph" transform="scale(1 1) rotate(0) translate(4 122)">
<title>application.FormElement</title>
<polygon fill="white" stroke="none" points="-4,4 -4,-122 342,-122 342,4 -4,4"/>
<!-- Node1 -->
<g id="node1" class="node"><title>Node1</title>
<polygon fill="#bfbfbf" stroke="black" points="0,-44.5 0,-63.5 136,-63.5 136,-44.5 0,-44.5"/>
<text text-anchor="middle" x="68" y="-51.5" font-family="Helvetica,sans-Serif" font-size="10.00">application.FormElement</text>
</g>
<!-- Node2 -->
<g id="node2" class="node"><title>Node2</title>
<g id="a_node2"><a xlink:href="../../da/da5/classapplication_1_1_drop_down_form_element.html" target="_top" xlink:title="application.DropDownForm\lElement">
<polygon fill="white" stroke="black" points="182,-88 182,-118 328,-118 328,-88 182,-88"/>
<text text-anchor="start" x="190" y="-106" font-family="Helvetica,sans-Serif" font-size="10.00">application.DropDownForm</text>
<text text-anchor="middle" x="255" y="-95" font-family="Helvetica,sans-Serif" font-size="10.00">Element</text>
</a>
</g>
</g>
<!-- Node1&#45;&gt;Node2 -->
<g id="edge1" class="edge"><title>Node1&#45;&gt;Node2</title>
<path fill="none" stroke="midnightblue" d="M115.022,-66.1896C139.907,-72.7808 170.856,-80.9782 197.228,-87.963"/>
<polygon fill="midnightblue" stroke="midnightblue" points="115.672,-62.7411 105.109,-63.564 113.88,-69.5078 115.672,-62.7411"/>
</g>
<!-- Node3 -->
<g id="node3" class="node"><title>Node3</title>
<g id="a_node3"><a xlink:href="../../d7/de6/classapplication_1_1_number_input_form_element.html" target="_top" xlink:title="application.NumberInputForm\lElement">
<polygon fill="white" stroke="black" points="175.5,-39 175.5,-69 334.5,-69 334.5,-39 175.5,-39"/>
<text text-anchor="start" x="183.5" y="-57" font-family="Helvetica,sans-Serif" font-size="10.00">application.NumberInputForm</text>
<text text-anchor="middle" x="255" y="-46" font-family="Helvetica,sans-Serif" font-size="10.00">Element</text>
</a>
</g>
</g>
<!-- Node1&#45;&gt;Node3 -->
<g id="edge2" class="edge"><title>Node1&#45;&gt;Node3</title>
<path fill="none" stroke="midnightblue" d="M146.314,-54C155.87,-54 165.649,-54 175.227,-54"/>
<polygon fill="midnightblue" stroke="midnightblue" points="146.051,-50.5001 136.051,-54 146.051,-57.5001 146.051,-50.5001"/>
</g>
<!-- Node4 -->
<g id="node4" class="node"><title>Node4</title>
<g id="a_node4"><a xlink:href="../../df/d65/classapplication_1_1_toggle_form_element.html" target="_top" xlink:title="application.ToggleFormElement">
<polygon fill="white" stroke="black" points="172,-0.5 172,-19.5 338,-19.5 338,-0.5 172,-0.5"/>
<text text-anchor="middle" x="255" y="-7.5" font-family="Helvetica,sans-Serif" font-size="10.00">application.ToggleFormElement</text>
</a>
</g>
</g>
<!-- Node1&#45;&gt;Node4 -->
<g id="edge3" class="edge"><title>Node1&#45;&gt;Node4</title>
<path fill="none" stroke="midnightblue" d="M118.935,-42.1236C148.736,-35.0358 186.075,-26.1552 213.936,-19.5287"/>
<polygon fill="midnightblue" stroke="midnightblue" points="118.061,-38.7337 109.142,-44.4527 119.681,-45.5438 118.061,-38.7337"/>
</g>
</g>
</svg>
