<?xml version="1.0" encoding="UTF-8" standalone="no"?>
<!DOCTYPE svg PUBLIC "-//W3C//DTD SVG 1.1//EN"
 "http://www.w3.org/Graphics/SVG/1.1/DTD/svg11.dtd">
<!-- Generated by graphviz version 2.36.0 (20140111.2315)
 -->
<!-- Title: application.NumberInputFormElement Pages: 1 -->
<svg width="209pt" height="96pt"
 viewBox="0.00 0.00 209.00 96.00" xmlns="http://www.w3.org/2000/svg" xmlns:xlink="http://www.w3.org/1999/xlink">
<g id="graph0" class="graph" transform="scale(1 1) rotate(0) translate(4 92)">
<title>application.NumberInputFormElement</title>
<polygon fill="white" stroke="none" points="-4,4 -4,-92 205,-92 205,4 -4,4"/>
<!-- Node1 -->
<g id="node1" class="node"><title>Node1</title>
<polygon fill="#bfbfbf" stroke="black" points="-0.5,-1 -0.5,-31 158.5,-31 158.5,-1 -0.5,-1"/>
<text text-anchor="start" x="7.5" y="-19" font-family="Helvetica,sans-Serif" font-size="10.00">application.NumberInputForm</text>
<text text-anchor="middle" x="79" y="-8" font-family="Helvetica,sans-Serif" font-size="10.00">Element</text>
</g>
<!-- Node2 -->
<g id="node2" class="node"><title>Node2</title>
<polygon fill="white" stroke="#bfbfbf" points="5,-68.5 5,-87.5 47,-87.5 47,-68.5 5,-68.5"/>
<text text-anchor="middle" x="26" y="-75.5" font-family="Helvetica,sans-Serif" font-size="10.00">HBox</text>
</g>
<!-- Node2&#45;&gt;Node1 -->
<g id="edge1" class="edge"><title>Node2&#45;&gt;Node1</title>
<path fill="none" stroke="midnightblue" d="M40.4206,-60.6747C48.5819,-51.4355 58.6879,-39.9948 66.5089,-31.1408"/>
<polygon fill="midnightblue" stroke="midnightblue" points="37.5908,-58.5916 33.5936,-68.4035 42.8372,-63.2258 37.5908,-58.5916"/>
</g>
<!-- Node3 -->
<g id="node3" class="node"><title>Node3</title>
<g id="a_node3"><a xlink:href="../../d0/d1b/interfaceapplication_1_1_form_element.html" target="_top" xlink:title="application.FormElement">
<polygon fill="white" stroke="black" points="65,-68.5 65,-87.5 201,-87.5 201,-68.5 65,-68.5"/>
<text text-anchor="middle" x="133" y="-75.5" font-family="Helvetica,sans-Serif" font-size="10.00">application.FormElement</text>
</a>
</g>
</g>
<!-- Node3&#45;&gt;Node1 -->
<g id="edge2" class="edge"><title>Node3&#45;&gt;Node1</title>
<path fill="none" stroke="midnightblue" d="M118.561,-60.9569C110.202,-51.6693 99.7767,-40.0852 91.7267,-31.1408"/>
<polygon fill="midnightblue" stroke="midnightblue" points="115.972,-63.3119 125.263,-68.4035 121.175,-58.6291 115.972,-63.3119"/>
</g>
</g>
</svg>
