<?xml version="1.0" encoding="UTF-8" standalone="no"?>
<!DOCTYPE svg PUBLIC "-//W3C//DTD SVG 1.1//EN"
 "http://www.w3.org/Graphics/SVG/1.1/DTD/svg11.dtd">
<!-- Generated by graphviz version 2.36.0 (20140111.2315)
 -->
<!-- Title: model.SerialisableModel Pages: 1 -->
<svg width="870pt" height="392pt"
 viewBox="0.00 0.00 870.00 392.00" xmlns="http://www.w3.org/2000/svg" xmlns:xlink="http://www.w3.org/1999/xlink">
<g id="graph0" class="graph" transform="scale(1 1) rotate(0) translate(4 388)">
<title>model.SerialisableModel</title>
<polygon fill="white" stroke="none" points="-4,4 -4,-388 866,-388 866,4 -4,4"/>
<!-- Node1 -->
<g id="node1" class="node"><title>Node1</title>
<polygon fill="#bfbfbf" stroke="black" points="728.5,-196.5 728.5,-215.5 861.5,-215.5 861.5,-196.5 728.5,-196.5"/>
<text text-anchor="middle" x="795" y="-203.5" font-family="Helvetica,sans-Serif" font-size="10.00">model.SerialisableModel</text>
</g>
<!-- Node2 -->
<g id="node2" class="node"><title>Node2</title>
<polygon fill="white" stroke="#bfbfbf" points="60.5,-298.5 60.5,-317.5 131.5,-317.5 131.5,-298.5 60.5,-298.5"/>
<text text-anchor="middle" x="96" y="-305.5" font-family="Helvetica,sans-Serif" font-size="10.00">Serializable</text>
</g>
<!-- Node2&#45;&gt;Node1 -->
<g id="edge1" class="edge"><title>Node2&#45;&gt;Node1</title>
<path fill="none" stroke="midnightblue" d="M141.685,-312.869C162.432,-314.895 187.445,-317.004 210,-318 433.495,-327.87 501.248,-340.435 710,-260 738.311,-249.092 767.168,-227.863 782.596,-215.521"/>
<polygon fill="midnightblue" stroke="midnightblue" points="141.866,-309.37 131.567,-311.855 141.168,-316.335 141.866,-309.37"/>
</g>
<!-- Node3 -->
<g id="node3" class="node"><title>Node3</title>
<g id="a_node3"><a xlink:href="../../da/dee/classmodel_1_1_user_defined_commands_model.html" target="_top" xlink:title="model.UserDefinedCommands\lModel">
<polygon fill="white" stroke="black" points="378,-245 378,-275 542,-275 542,-245 378,-245"/>
<text text-anchor="start" x="386" y="-263" font-family="Helvetica,sans-Serif" font-size="10.00">model.UserDefinedCommands</text>
<text text-anchor="middle" x="460" y="-252" font-family="Helvetica,sans-Serif" font-size="10.00">Model</text>
</a>
</g>
</g>
<!-- Node2&#45;&gt;Node3 -->
<g id="edge3" class="edge"><title>Node2&#45;&gt;Node3</title>
<path fill="none" stroke="midnightblue" d="M141.926,-310.385C194.701,-312.21 284.625,-312.258 360,-297 383.019,-292.34 407.769,-283.09 426.765,-275.005"/>
<polygon fill="midnightblue" stroke="midnightblue" points="142.008,-306.886 131.881,-310 141.74,-313.881 142.008,-306.886"/>
</g>
<!-- Node7 -->
<g id="node7" class="node"><title>Node7</title>
<g id="a_node7"><a xlink:href="../../db/d84/classmodel_1_1_command_history_model.html" target="_top" xlink:title="model.CommandHistoryModel">
<polygon fill="white" stroke="black" points="379,-196.5 379,-215.5 541,-215.5 541,-196.5 379,-196.5"/>
<text text-anchor="middle" x="460" y="-203.5" font-family="Helvetica,sans-Serif" font-size="10.00">model.CommandHistoryModel</text>
</a>
</g>
</g>
<!-- Node2&#45;&gt;Node7 -->
<g id="edge8" class="edge"><title>Node2&#45;&gt;Node7</title>
<path fill="none" stroke="midnightblue" d="M141.939,-304.164C212.408,-297.806 342.695,-284.538 360,-272 374.808,-261.27 364.384,-247.208 378,-235 387.898,-226.126 400.704,-219.917 413.199,-215.593"/>
<polygon fill="midnightblue" stroke="midnightblue" points="141.232,-300.713 131.583,-305.087 141.854,-307.685 141.232,-300.713"/>
</g>
<!-- Node9 -->
<g id="node9" class="node"><title>Node9</title>
<g id="a_node9"><a xlink:href="../../df/d55/classmodel_1_1_user_defined_variables_model.html" target="_top" xlink:title="model.UserDefinedVariables\lModel">
<polygon fill="white" stroke="black" points="384,-128 384,-158 536,-158 536,-128 384,-128"/>
<text text-anchor="start" x="392" y="-146" font-family="Helvetica,sans-Serif" font-size="10.00">model.UserDefinedVariables</text>
<text text-anchor="middle" x="460" y="-135" font-family="Helvetica,sans-Serif" font-size="10.00">Model</text>
</a>
</g>
</g>
<!-- Node2&#45;&gt;Node9 -->
<g id="edge11" class="edge"><title>Node2&#45;&gt;Node9</title>
<path fill="none" stroke="midnightblue" d="M141.898,-306.472C159.676,-303.601 178.945,-297.289 192,-284 216.629,-258.929 184.595,-231.285 210,-207 259.024,-160.139 294.579,-196.871 360,-179 380.818,-173.313 403.478,-165.22 421.859,-158.148"/>
<polygon fill="midnightblue" stroke="midnightblue" points="141.131,-303.042 131.66,-307.792 142.026,-309.985 141.131,-303.042"/>
</g>
<!-- Node3&#45;&gt;Node1 -->
<g id="edge2" class="edge"><title>Node3&#45;&gt;Node1</title>
<path fill="none" stroke="#9a32cd" stroke-dasharray="5,2" d="M551.983,-246.226C599.171,-238.962 657.725,-229.76 710,-221 720.227,-219.286 731.142,-217.388 741.604,-215.535"/>
<polygon fill="#9a32cd" stroke="#9a32cd" points="551.445,-242.768 542.093,-247.746 552.508,-249.687 551.445,-242.768"/>
<text text-anchor="middle" x="635" y="-248" font-family="Helvetica,sans-Serif" font-size="10.00"> myUserDefinedMethodsModel</text>
</g>
<!-- Node4 -->
<g id="node4" class="node"><title>Node4</title>
<polygon fill="white" stroke="#bfbfbf" points="42.5,-354 42.5,-384 149.5,-384 149.5,-354 42.5,-354"/>
<text text-anchor="start" x="50.5" y="-372" font-family="Helvetica,sans-Serif" font-size="10.00">Map&lt; String, List&lt;</text>
<text text-anchor="middle" x="96" y="-361" font-family="Helvetica,sans-Serif" font-size="10.00"> String &gt; &gt;</text>
</g>
<!-- Node4&#45;&gt;Node3 -->
<g id="edge4" class="edge"><title>Node4&#45;&gt;Node3</title>
<path fill="none" stroke="#9a32cd" stroke-dasharray="5,2" d="M159.751,-362.875C214.081,-356.164 294.078,-342.869 360,-318 388.702,-307.172 418.698,-288.382 438.044,-275.129"/>
<polygon fill="#9a32cd" stroke="#9a32cd" points="159.09,-359.429 149.576,-364.092 159.921,-366.379 159.09,-359.429"/>
<text text-anchor="middle" x="285" y="-358" font-family="Helvetica,sans-Serif" font-size="10.00"> myDefinedCommandVariables</text>
</g>
<!-- Node5 -->
<g id="node5" class="node"><title>Node5</title>
<polygon fill="white" stroke="#bfbfbf" points="54,-125.5 54,-144.5 138,-144.5 138,-125.5 54,-125.5"/>
<text text-anchor="middle" x="96" y="-132.5" font-family="Helvetica,sans-Serif" font-size="10.00">Set&lt; String &gt;</text>
</g>
<!-- Node5&#45;&gt;Node3 -->
<g id="edge5" class="edge"><title>Node5&#45;&gt;Node3</title>
<path fill="none" stroke="#9a32cd" stroke-dasharray="5,2" d="M148.427,-135.769C163.919,-138.337 179.981,-143.641 192,-154 209.891,-169.419 192.294,-188.369 210,-204 222.768,-215.271 310.014,-233.203 377.673,-245.73"/>
<polygon fill="#9a32cd" stroke="#9a32cd" points="148.747,-132.281 138.377,-134.45 147.837,-139.221 148.747,-132.281"/>
<text text-anchor="middle" x="285" y="-245" font-family="Helvetica,sans-Serif" font-size="10.00"> myCommands</text>
</g>
<!-- Node5&#45;&gt;Node9 -->
<g id="edge12" class="edge"><title>Node5&#45;&gt;Node9</title>
<path fill="none" stroke="#9a32cd" stroke-dasharray="5,2" d="M148.187,-133.319C201.209,-131.927 286.449,-130.664 360,-134 367.758,-134.352 375.848,-134.858 383.913,-135.454"/>
<polygon fill="#9a32cd" stroke="#9a32cd" points="147.926,-129.825 138.025,-133.598 148.118,-136.822 147.926,-129.825"/>
<text text-anchor="middle" x="285" y="-137" font-family="Helvetica,sans-Serif" font-size="10.00"> myVariables</text>
</g>
<!-- Node6 -->
<g id="node6" class="node"><title>Node6</title>
<polygon fill="white" stroke="#bfbfbf" points="0.5,-245 0.5,-275 191.5,-275 191.5,-245 0.5,-245"/>
<text text-anchor="start" x="8.5" y="-263" font-family="Helvetica,sans-Serif" font-size="10.00">Map&lt; String, interpreter.expression.</text>
<text text-anchor="middle" x="96" y="-252" font-family="Helvetica,sans-Serif" font-size="10.00">SLogoExpression &gt;</text>
</g>
<!-- Node6&#45;&gt;Node3 -->
<g id="edge6" class="edge"><title>Node6&#45;&gt;Node3</title>
<path fill="none" stroke="#9a32cd" stroke-dasharray="5,2" d="M201.953,-260C257.97,-260 325.865,-260 377.806,-260"/>
<polygon fill="#9a32cd" stroke="#9a32cd" points="201.638,-256.5 191.638,-260 201.638,-263.5 201.638,-256.5"/>
<text text-anchor="middle" x="285" y="-263" font-family="Helvetica,sans-Serif" font-size="10.00"> myDefinedCommands</text>
</g>
<!-- Node7&#45;&gt;Node1 -->
<g id="edge7" class="edge"><title>Node7&#45;&gt;Node1</title>
<path fill="none" stroke="#9a32cd" stroke-dasharray="5,2" d="M551.453,-206C607.392,-206 677.917,-206 728.479,-206"/>
<polygon fill="#9a32cd" stroke="#9a32cd" points="551.186,-202.5 541.186,-206 551.186,-209.5 551.186,-202.5"/>
<text text-anchor="middle" x="635" y="-209" font-family="Helvetica,sans-Serif" font-size="10.00"> myCommandHistoryModel</text>
</g>
<!-- Node8 -->
<g id="node8" class="node"><title>Node8</title>
<polygon fill="white" stroke="#bfbfbf" points="54,-163.5 54,-182.5 138,-182.5 138,-163.5 54,-163.5"/>
<text text-anchor="middle" x="96" y="-170.5" font-family="Helvetica,sans-Serif" font-size="10.00">List&lt; String &gt;</text>
</g>
<!-- Node8&#45;&gt;Node7 -->
<g id="edge9" class="edge"><title>Node8&#45;&gt;Node7</title>
<path fill="none" stroke="#9a32cd" stroke-dasharray="5,2" d="M148.23,-176.064C201.287,-179.432 286.554,-185.391 360,-193 369.828,-194.018 380.188,-195.228 390.355,-196.492"/>
<polygon fill="#9a32cd" stroke="#9a32cd" points="148.261,-172.559 138.062,-175.425 147.822,-179.545 148.261,-172.559"/>
<text text-anchor="middle" x="285" y="-196" font-family="Helvetica,sans-Serif" font-size="10.00"> commandHistory</text>
</g>
<!-- Node9&#45;&gt;Node1 -->
<g id="edge10" class="edge"><title>Node9&#45;&gt;Node1</title>
<path fill="none" stroke="#9a32cd" stroke-dasharray="5,2" d="M545.995,-159.08C608.496,-170.905 691.337,-186.577 743.665,-196.477"/>
<polygon fill="#9a32cd" stroke="#9a32cd" points="546.623,-155.637 536.147,-157.217 545.322,-162.515 546.623,-155.637"/>
<text text-anchor="middle" x="635" y="-193" font-family="Helvetica,sans-Serif" font-size="10.00"> myUserDefinedVariablesModel</text>
</g>
<!-- Node10 -->
<g id="node10" class="node"><title>Node10</title>
<polygon fill="white" stroke="#bfbfbf" points="32,-87.5 32,-106.5 160,-106.5 160,-87.5 32,-87.5"/>
<text text-anchor="middle" x="96" y="-94.5" font-family="Helvetica,sans-Serif" font-size="10.00">Map&lt; String, Double &gt;</text>
</g>
<!-- Node10&#45;&gt;Node9 -->
<g id="edge13" class="edge"><title>Node10&#45;&gt;Node9</title>
<path fill="none" stroke="#9a32cd" stroke-dasharray="5,2" d="M170.411,-99.0275C223.399,-101.353 296.495,-106.337 360,-117 376.123,-119.707 393.443,-123.827 409.018,-127.993"/>
<polygon fill="#9a32cd" stroke="#9a32cd" points="170.228,-95.5169 160.09,-98.5969 169.936,-102.511 170.228,-95.5169"/>
<text text-anchor="middle" x="285" y="-120" font-family="Helvetica,sans-Serif" font-size="10.00"> myDefinedVariables</text>
</g>
<!-- Node11 -->
<g id="node11" class="node"><title>Node11</title>
<g id="a_node11"><a xlink:href="../../df/df6/classinterpreter_1_1result_1_1_s_logo_result.html" target="_top" xlink:title="interpreter.result.SLogo\lResult">
<polygon fill="white" stroke="black" points="395,-44 395,-74 525,-74 525,-44 395,-44"/>
<text text-anchor="start" x="403" y="-62" font-family="Helvetica,sans-Serif" font-size="10.00">interpreter.result.SLogo</text>
<text text-anchor="middle" x="460" y="-51" font-family="Helvetica,sans-Serif" font-size="10.00">Result</text>
</a>
</g>
</g>
<!-- Node11&#45;&gt;Node1 -->
<g id="edge14" class="edge"><title>Node11&#45;&gt;Node1</title>
<path fill="none" stroke="#9a32cd" stroke-dasharray="5,2" d="M524.235,-77.0509C575.676,-92.8583 649.408,-118.106 710,-149 737.319,-162.929 766.307,-184.256 782.075,-196.489"/>
<polygon fill="#9a32cd" stroke="#9a32cd" points="525.162,-73.6746 514.577,-74.1133 523.126,-80.3717 525.162,-73.6746"/>
<text text-anchor="middle" x="635" y="-152" font-family="Helvetica,sans-Serif" font-size="10.00"> mySLogoResult</text>
</g>
<!-- Node12 -->
<g id="node12" class="node"><title>Node12</title>
<polygon fill="white" stroke="#bfbfbf" points="49.5,-49.5 49.5,-68.5 142.5,-68.5 142.5,-49.5 49.5,-49.5"/>
<text text-anchor="middle" x="96" y="-56.5" font-family="Helvetica,sans-Serif" font-size="10.00">ResourceBundle</text>
</g>
<!-- Node12&#45;&gt;Node11 -->
<g id="edge15" class="edge"><title>Node12&#45;&gt;Node11</title>
<path fill="none" stroke="#9a32cd" stroke-dasharray="5,2" d="M152.962,-59C218.339,-59 326.279,-59 394.948,-59"/>
<polygon fill="#9a32cd" stroke="#9a32cd" points="152.848,-55.5001 142.848,-59 152.848,-62.5001 152.848,-55.5001"/>
<text text-anchor="middle" x="285" y="-62" font-family="Helvetica,sans-Serif" font-size="10.00"> myProperties</text>
</g>
<!-- Node13 -->
<g id="node13" class="node"><title>Node13</title>
<polygon fill="white" stroke="#bfbfbf" points="15,-0 15,-30 177,-30 177,-0 15,-0"/>
<text text-anchor="start" x="23" y="-18" font-family="Helvetica,sans-Serif" font-size="10.00">List&lt; transitionstate.Transition</text>
<text text-anchor="middle" x="96" y="-7" font-family="Helvetica,sans-Serif" font-size="10.00">State &gt;</text>
</g>
<!-- Node13&#45;&gt;Node11 -->
<g id="edge16" class="edge"><title>Node13&#45;&gt;Node11</title>
<path fill="none" stroke="#9a32cd" stroke-dasharray="5,2" d="M187.07,-24.019C237.905,-29.3381 302.566,-36.4856 360,-44 371.29,-45.4771 383.284,-47.1804 394.882,-48.8973"/>
<polygon fill="#9a32cd" stroke="#9a32cd" points="187.402,-20.5348 177.093,-22.98 186.677,-27.4971 187.402,-20.5348"/>
<text text-anchor="middle" x="285" y="-47" font-family="Helvetica,sans-Serif" font-size="10.00"> myTransitionStates</text>
</g>
</g>
</svg>
