<?xml version="1.0" encoding="UTF-8" standalone="no"?>
<!DOCTYPE svg PUBLIC "-//W3C//DTD SVG 1.1//EN"
 "http://www.w3.org/Graphics/SVG/1.1/DTD/svg11.dtd">
<!-- Generated by graphviz version 2.36.0 (20140111.2315)
 -->
<!-- Title: viewcontroller.commands.CommandHistoryViewController.applyTranslations Pages: 1 -->
<svg width="414pt" height="48pt"
 viewBox="0.00 0.00 414.00 48.00" xmlns="http://www.w3.org/2000/svg" xmlns:xlink="http://www.w3.org/1999/xlink">
<g id="graph0" class="graph" transform="scale(1 1) rotate(0) translate(4 44)">
<title>viewcontroller.commands.CommandHistoryViewController.applyTranslations</title>
<polygon fill="white" stroke="none" points="-4,4 -4,-44 410,-44 410,4 -4,4"/>
<!-- Node1 -->
<g id="node1" class="node"><title>Node1</title>
<polygon fill="#bfbfbf" stroke="black" points="0.5,0.5 0.5,-40.5 197.5,-40.5 197.5,0.5 0.5,0.5"/>
<text text-anchor="start" x="8.5" y="-28.5" font-family="Helvetica,sans-Serif" font-size="10.00">viewcontroller.commands.</text>
<text text-anchor="start" x="8.5" y="-17.5" font-family="Helvetica,sans-Serif" font-size="10.00">CommandHistoryViewController.apply</text>
<text text-anchor="middle" x="99" y="-6.5" font-family="Helvetica,sans-Serif" font-size="10.00">Translations</text>
</g>
<!-- Node2 -->
<g id="node2" class="node"><title>Node2</title>
<g id="a_node2"><a xlink:href="../../d3/d76/classviewcontroller_1_1commands_1_1_command_history_view_controller.html#a917d00668cf6b7386e39c033dac3ea85" target="_top" xlink:title="viewcontroller.commands.\lCommandHistoryViewController.\lCommandHistoryViewController">
<polygon fill="white" stroke="black" points="234.5,0.5 234.5,-40.5 405.5,-40.5 405.5,0.5 234.5,0.5"/>
<text text-anchor="start" x="242.5" y="-28.5" font-family="Helvetica,sans-Serif" font-size="10.00">viewcontroller.commands.</text>
<text text-anchor="start" x="242.5" y="-17.5" font-family="Helvetica,sans-Serif" font-size="10.00">CommandHistoryViewController.</text>
<text text-anchor="middle" x="320" y="-6.5" font-family="Helvetica,sans-Serif" font-size="10.00">CommandHistoryViewController</text>
</a>
</g>
</g>
<!-- Node1&#45;&gt;Node2 -->
<g id="edge1" class="edge"><title>Node1&#45;&gt;Node2</title>
<path fill="none" stroke="midnightblue" d="M207.695,-20C216.608,-20 225.536,-20 234.245,-20"/>
<polygon fill="midnightblue" stroke="midnightblue" points="207.651,-16.5001 197.651,-20 207.651,-23.5001 207.651,-16.5001"/>
</g>
</g>
</svg>
