<?xml version="1.0" encoding="UTF-8" standalone="no"?>
<!DOCTYPE svg PUBLIC "-//W3C//DTD SVG 1.1//EN"
 "http://www.w3.org/Graphics/SVG/1.1/DTD/svg11.dtd">
<!-- Generated by graphviz version 2.36.0 (20140111.2315)
 -->
<!-- Title: viewcontroller.commands.CommandHistoryViewController.getNode Pages: 1 -->
<svg width="758pt" height="48pt"
 viewBox="0.00 0.00 758.00 48.00" xmlns="http://www.w3.org/2000/svg" xmlns:xlink="http://www.w3.org/1999/xlink">
<g id="graph0" class="graph" transform="scale(1 1) rotate(0) translate(4 44)">
<title>viewcontroller.commands.CommandHistoryViewController.getNode</title>
<polygon fill="white" stroke="none" points="-4,4 -4,-44 754,-44 754,4 -4,4"/>
<!-- Node1 -->
<g id="node1" class="node"><title>Node1</title>
<polygon fill="#bfbfbf" stroke="black" points="0,-5 0,-35 212,-35 212,-5 0,-5"/>
<text text-anchor="start" x="8" y="-23" font-family="Helvetica,sans-Serif" font-size="10.00">viewcontroller.commands.</text>
<text text-anchor="middle" x="106" y="-12" font-family="Helvetica,sans-Serif" font-size="10.00">CommandHistoryViewController.getNode</text>
</g>
<!-- Node2 -->
<g id="node2" class="node"><title>Node2</title>
<g id="a_node2"><a xlink:href="../../d0/d7c/classviewcontroller_1_1commands_1_1_command_window_container_view_controller.html#a4b22dc9a991f9a307ce4331ebc288f7f" target="_top" xlink:title="viewcontroller.commands.\lCommandWindowContainerViewController.place\lCommandWindows">
<polygon fill="white" stroke="black" points="248.5,0.5 248.5,-40.5 493.5,-40.5 493.5,0.5 248.5,0.5"/>
<text text-anchor="start" x="256.5" y="-28.5" font-family="Helvetica,sans-Serif" font-size="10.00">viewcontroller.commands.</text>
<text text-anchor="start" x="256.5" y="-17.5" font-family="Helvetica,sans-Serif" font-size="10.00">CommandWindowContainerViewController.place</text>
<text text-anchor="middle" x="371" y="-6.5" font-family="Helvetica,sans-Serif" font-size="10.00">CommandWindows</text>
</a>
</g>
</g>
<!-- Node1&#45;&gt;Node2 -->
<g id="edge1" class="edge"><title>Node1&#45;&gt;Node2</title>
<path fill="none" stroke="midnightblue" d="M222.16,-20C230.794,-20 239.523,-20 248.195,-20"/>
<polygon fill="midnightblue" stroke="midnightblue" points="222.078,-16.5001 212.078,-20 222.078,-23.5001 222.078,-16.5001"/>
</g>
<!-- Node3 -->
<g id="node3" class="node"><title>Node3</title>
<g id="a_node3"><a xlink:href="../../d0/d7c/classviewcontroller_1_1commands_1_1_command_window_container_view_controller.html#a00c0cfff2fbbb87ce16e3fa7f125277f" target="_top" xlink:title="viewcontroller.commands.\lCommandWindowContainerViewController.\lCommandWindowContainerViewController">
<polygon fill="white" stroke="black" points="530.5,0.5 530.5,-40.5 749.5,-40.5 749.5,0.5 530.5,0.5"/>
<text text-anchor="start" x="538.5" y="-28.5" font-family="Helvetica,sans-Serif" font-size="10.00">viewcontroller.commands.</text>
<text text-anchor="start" x="538.5" y="-17.5" font-family="Helvetica,sans-Serif" font-size="10.00">CommandWindowContainerViewController.</text>
<text text-anchor="middle" x="640" y="-6.5" font-family="Helvetica,sans-Serif" font-size="10.00">CommandWindowContainerViewController</text>
</a>
</g>
</g>
<!-- Node2&#45;&gt;Node3 -->
<g id="edge2" class="edge"><title>Node2&#45;&gt;Node3</title>
<path fill="none" stroke="midnightblue" d="M503.842,-20C512.766,-20 521.7,-20 530.484,-20"/>
<polygon fill="midnightblue" stroke="midnightblue" points="503.78,-16.5001 493.78,-20 503.78,-23.5001 503.78,-16.5001"/>
</g>
</g>
</svg>
