<?xml version="1.0" encoding="UTF-8" standalone="no"?>
<!DOCTYPE svg PUBLIC "-//W3C//DTD SVG 1.1//EN"
 "http://www.w3.org/Graphics/SVG/1.1/DTD/svg11.dtd">
<!-- Generated by graphviz version 2.36.0 (20140111.2315)
 -->
<!-- Title: viewcontroller.commands.CommandHistoryViewController.CommandHistoryViewController Pages: 1 -->
<svg width="610pt" height="98pt"
 viewBox="0.00 0.00 610.00 98.00" xmlns="http://www.w3.org/2000/svg" xmlns:xlink="http://www.w3.org/1999/xlink">
<g id="graph0" class="graph" transform="scale(1 1) rotate(0) translate(4 94)">
<title>viewcontroller.commands.CommandHistoryViewController.CommandHistoryViewController</title>
<polygon fill="white" stroke="none" points="-4,4 -4,-94 606,-94 606,4 -4,4"/>
<!-- Node1 -->
<g id="node1" class="node"><title>Node1</title>
<polygon fill="#bfbfbf" stroke="black" points="0.5,-21.5 0.5,-62.5 171.5,-62.5 171.5,-21.5 0.5,-21.5"/>
<text text-anchor="start" x="8.5" y="-50.5" font-family="Helvetica,sans-Serif" font-size="10.00">viewcontroller.commands.</text>
<text text-anchor="start" x="8.5" y="-39.5" font-family="Helvetica,sans-Serif" font-size="10.00">CommandHistoryViewController.</text>
<text text-anchor="middle" x="86" y="-28.5" font-family="Helvetica,sans-Serif" font-size="10.00">CommandHistoryViewController</text>
</g>
<!-- Node2 -->
<g id="node2" class="node"><title>Node2</title>
<g id="a_node2"><a xlink:href="../../d3/d76/classviewcontroller_1_1commands_1_1_command_history_view_controller.html#a168a40efa046c5e4007c30682b87bc54" target="_top" xlink:title="viewcontroller.commands.\lCommandHistoryViewController.apply\lTranslations">
<polygon fill="white" stroke="black" points="213.5,-48.5 213.5,-89.5 410.5,-89.5 410.5,-48.5 213.5,-48.5"/>
<text text-anchor="start" x="221.5" y="-77.5" font-family="Helvetica,sans-Serif" font-size="10.00">viewcontroller.commands.</text>
<text text-anchor="start" x="221.5" y="-66.5" font-family="Helvetica,sans-Serif" font-size="10.00">CommandHistoryViewController.apply</text>
<text text-anchor="middle" x="312" y="-55.5" font-family="Helvetica,sans-Serif" font-size="10.00">Translations</text>
</a>
</g>
</g>
<!-- Node1&#45;&gt;Node2 -->
<g id="edge1" class="edge"><title>Node1&#45;&gt;Node2</title>
<path fill="none" stroke="midnightblue" d="M171.685,-52.2075C182.012,-53.4524 192.67,-54.737 203.276,-56.0155"/>
<polygon fill="midnightblue" stroke="midnightblue" points="203.07,-59.5159 213.417,-57.2378 203.908,-52.5662 203.07,-59.5159"/>
</g>
<!-- Node4 -->
<g id="node4" class="node"><title>Node4</title>
<g id="a_node4"><a xlink:href="../../d8/d68/classviewcontroller_1_1commands_1_1_command_window_view_controller.html#a62c54d52ea3c2f55be0a741a1c5fb240" target="_top" xlink:title="viewcontroller.commands.\lCommandWindowViewController.setTitle">
<polygon fill="white" stroke="black" points="208.5,-0 208.5,-30 415.5,-30 415.5,-0 208.5,-0"/>
<text text-anchor="start" x="216.5" y="-18" font-family="Helvetica,sans-Serif" font-size="10.00">viewcontroller.commands.</text>
<text text-anchor="middle" x="312" y="-7" font-family="Helvetica,sans-Serif" font-size="10.00">CommandWindowViewController.setTitle</text>
</a>
</g>
</g>
<!-- Node1&#45;&gt;Node4 -->
<g id="edge3" class="edge"><title>Node1&#45;&gt;Node4</title>
<path fill="none" stroke="midnightblue" d="M171.685,-31.7925C180.416,-30.74 189.384,-29.6591 198.357,-28.5776"/>
<polygon fill="midnightblue" stroke="midnightblue" points="198.968,-32.0293 208.477,-27.3576 198.13,-25.0796 198.968,-32.0293"/>
</g>
<!-- Node3 -->
<g id="node3" class="node"><title>Node3</title>
<g id="a_node3"><a xlink:href="../../d9/dd7/classviewcontroller_1_1_g_u_i_reference_library.html#ac147f33c0bfa0252d247d7c0174ff688" target="_top" xlink:title="viewcontroller.GUIReference\lLibrary.getStringTranslation">
<polygon fill="white" stroke="black" points="452.5,-54 452.5,-84 601.5,-84 601.5,-54 452.5,-54"/>
<text text-anchor="start" x="460.5" y="-72" font-family="Helvetica,sans-Serif" font-size="10.00">viewcontroller.GUIReference</text>
<text text-anchor="middle" x="527" y="-61" font-family="Helvetica,sans-Serif" font-size="10.00">Library.getStringTranslation</text>
</a>
</g>
</g>
<!-- Node2&#45;&gt;Node3 -->
<g id="edge2" class="edge"><title>Node2&#45;&gt;Node3</title>
<path fill="none" stroke="midnightblue" d="M410.772,-69C421.271,-69 431.884,-69 442.199,-69"/>
<polygon fill="midnightblue" stroke="midnightblue" points="442.399,-72.5001 452.399,-69 442.399,-65.5001 442.399,-72.5001"/>
</g>
</g>
</svg>
