<?xml version="1.0" encoding="UTF-8" standalone="no"?>
<!DOCTYPE svg PUBLIC "-//W3C//DTD SVG 1.1//EN"
 "http://www.w3.org/Graphics/SVG/1.1/DTD/svg11.dtd">
<!-- Generated by graphviz version 2.36.0 (20140111.2315)
 -->
<!-- Title: viewcontroller.commands.CommandHistoryViewController.update Pages: 1 -->
<svg width="938pt" height="177pt"
 viewBox="0.00 0.00 938.00 177.00" xmlns="http://www.w3.org/2000/svg" xmlns:xlink="http://www.w3.org/1999/xlink">
<g id="graph0" class="graph" transform="scale(1 1) rotate(0) translate(4 173)">
<title>viewcontroller.commands.CommandHistoryViewController.update</title>
<polygon fill="white" stroke="none" points="-4,4 -4,-173 934,-173 934,4 -4,4"/>
<!-- Node1 -->
<g id="node1" class="node"><title>Node1</title>
<polygon fill="#bfbfbf" stroke="black" points="0.5,-49 0.5,-79 205.5,-79 205.5,-49 0.5,-49"/>
<text text-anchor="start" x="8.5" y="-67" font-family="Helvetica,sans-Serif" font-size="10.00">viewcontroller.commands.</text>
<text text-anchor="middle" x="103" y="-56" font-family="Helvetica,sans-Serif" font-size="10.00">CommandHistoryViewController.update</text>
</g>
<!-- Node2 -->
<g id="node2" class="node"><title>Node2</title>
<g id="a_node2"><a xlink:href="../../d1/dfa/classviewcontroller_1_1commands_1_1_command_clickable_list_window_view_controller.html#a2ed6fe1ba70171aa8c3bbf512c6d3f14" target="_top" xlink:title="viewcontroller.commands.\lCommandClickableListWindowView\lController.addCommand">
<polygon fill="white" stroke="black" points="242,-97.5 242,-138.5 424,-138.5 424,-97.5 242,-97.5"/>
<text text-anchor="start" x="250" y="-126.5" font-family="Helvetica,sans-Serif" font-size="10.00">viewcontroller.commands.</text>
<text text-anchor="start" x="250" y="-115.5" font-family="Helvetica,sans-Serif" font-size="10.00">CommandClickableListWindowView</text>
<text text-anchor="middle" x="333" y="-104.5" font-family="Helvetica,sans-Serif" font-size="10.00">Controller.addCommand</text>
</a>
</g>
</g>
<!-- Node1&#45;&gt;Node2 -->
<g id="edge1" class="edge"><title>Node1&#45;&gt;Node2</title>
<path fill="none" stroke="midnightblue" d="M167.511,-79.042C188.609,-84.0391 212.6,-89.721 235.609,-95.1706"/>
<polygon fill="midnightblue" stroke="midnightblue" points="234.862,-98.5903 245.399,-97.4893 236.475,-91.7787 234.862,-98.5903"/>
</g>
<!-- Node6 -->
<g id="node6" class="node"><title>Node6</title>
<g id="a_node6"><a xlink:href="../../de/d21/classmodel_1_1_main_model.html#a34d537c868eba4e59604f4353cc7e1ad" target="_top" xlink:title="model.MainModel.getCommand\lHistory">
<polygon fill="white" stroke="black" points="248,-49 248,-79 418,-79 418,-49 248,-49"/>
<text text-anchor="start" x="256" y="-67" font-family="Helvetica,sans-Serif" font-size="10.00">model.MainModel.getCommand</text>
<text text-anchor="middle" x="333" y="-56" font-family="Helvetica,sans-Serif" font-size="10.00">History</text>
</a>
</g>
</g>
<!-- Node1&#45;&gt;Node6 -->
<g id="edge5" class="edge"><title>Node1&#45;&gt;Node6</title>
<path fill="none" stroke="midnightblue" d="M205.664,-64C216.373,-64 227.229,-64 237.847,-64"/>
<polygon fill="midnightblue" stroke="midnightblue" points="237.943,-67.5001 247.943,-64 237.943,-60.5001 237.943,-67.5001"/>
</g>
<!-- Node7 -->
<g id="node7" class="node"><title>Node7</title>
<g id="a_node7"><a xlink:href="../../db/d84/classmodel_1_1_command_history_model.html#a2da5eaccedbd853d7c7e6f3123454f1d" target="_top" xlink:title="model.CommandHistoryModel.get\lHistory">
<polygon fill="white" stroke="black" points="242.5,-0 242.5,-30 423.5,-30 423.5,-0 242.5,-0"/>
<text text-anchor="start" x="250.5" y="-18" font-family="Helvetica,sans-Serif" font-size="10.00">model.CommandHistoryModel.get</text>
<text text-anchor="middle" x="333" y="-7" font-family="Helvetica,sans-Serif" font-size="10.00">History</text>
</a>
</g>
</g>
<!-- Node1&#45;&gt;Node7 -->
<g id="edge6" class="edge"><title>Node1&#45;&gt;Node7</title>
<path fill="none" stroke="midnightblue" d="M173.957,-48.9654C198.687,-43.6506 226.685,-37.6335 252.172,-32.156"/>
<polygon fill="midnightblue" stroke="midnightblue" points="253.134,-35.5293 262.175,-30.0062 251.663,-28.6855 253.134,-35.5293"/>
</g>
<!-- Node3 -->
<g id="node3" class="node"><title>Node3</title>
<g id="a_node3"><a xlink:href="../../d0/d7c/classviewcontroller_1_1commands_1_1_command_window_container_view_controller.html#ae3ec4d2b2cfd7d931ed2da8328e13f31" target="_top" xlink:title="viewcontroller.commands.\lCommandWindowContainerViewController.move\lCommandTextToPromptWindow">
<polygon fill="white" stroke="black" points="460,-127.5 460,-168.5 706,-168.5 706,-127.5 460,-127.5"/>
<text text-anchor="start" x="468" y="-156.5" font-family="Helvetica,sans-Serif" font-size="10.00">viewcontroller.commands.</text>
<text text-anchor="start" x="468" y="-145.5" font-family="Helvetica,sans-Serif" font-size="10.00">CommandWindowContainerViewController.move</text>
<text text-anchor="middle" x="583" y="-134.5" font-family="Helvetica,sans-Serif" font-size="10.00">CommandTextToPromptWindow</text>
</a>
</g>
</g>
<!-- Node2&#45;&gt;Node3 -->
<g id="edge2" class="edge"><title>Node2&#45;&gt;Node3</title>
<path fill="none" stroke="midnightblue" d="M424.235,-128.916C432.597,-129.927 441.18,-130.965 449.817,-132.01"/>
<polygon fill="midnightblue" stroke="midnightblue" points="449.622,-135.512 459.97,-133.238 450.462,-128.563 449.622,-135.512"/>
</g>
<!-- Node5 -->
<g id="node5" class="node"><title>Node5</title>
<g id="a_node5"><a xlink:href="../../d4/d3f/classviewcontroller_1_1commands_1_1_command_list_window_view_controller.html#a606e37bfe6fc9ce9500c9a705e5f10ee" target="_top" xlink:title="viewcontroller.commands.\lCommandListWindowViewController.update\lScroller">
<polygon fill="white" stroke="black" points="471.5,-67.5 471.5,-108.5 694.5,-108.5 694.5,-67.5 471.5,-67.5"/>
<text text-anchor="start" x="479.5" y="-96.5" font-family="Helvetica,sans-Serif" font-size="10.00">viewcontroller.commands.</text>
<text text-anchor="start" x="479.5" y="-85.5" font-family="Helvetica,sans-Serif" font-size="10.00">CommandListWindowViewController.update</text>
<text text-anchor="middle" x="583" y="-74.5" font-family="Helvetica,sans-Serif" font-size="10.00">Scroller</text>
</a>
</g>
</g>
<!-- Node2&#45;&gt;Node5 -->
<g id="edge4" class="edge"><title>Node2&#45;&gt;Node5</title>
<path fill="none" stroke="midnightblue" d="M424.235,-107.084C436.256,-105.63 448.735,-104.121 461.172,-102.616"/>
<polygon fill="midnightblue" stroke="midnightblue" points="461.62,-106.088 471.127,-101.412 460.779,-99.1384 461.62,-106.088"/>
</g>
<!-- Node4 -->
<g id="node4" class="node"><title>Node4</title>
<g id="a_node4"><a xlink:href="../../de/d8d/classviewcontroller_1_1commands_1_1_command_prompt_view_controller.html#ac5b8ed43553efe6667328fe2d2d7130a" target="_top" xlink:title="viewcontroller.commands.\lCommandPromptViewController.set\lCommandPromptText">
<polygon fill="white" stroke="black" points="742,-127.5 742,-168.5 930,-168.5 930,-127.5 742,-127.5"/>
<text text-anchor="start" x="750" y="-156.5" font-family="Helvetica,sans-Serif" font-size="10.00">viewcontroller.commands.</text>
<text text-anchor="start" x="750" y="-145.5" font-family="Helvetica,sans-Serif" font-size="10.00">CommandPromptViewController.set</text>
<text text-anchor="middle" x="836" y="-134.5" font-family="Helvetica,sans-Serif" font-size="10.00">CommandPromptText</text>
</a>
</g>
</g>
<!-- Node3&#45;&gt;Node4 -->
<g id="edge3" class="edge"><title>Node3&#45;&gt;Node4</title>
<path fill="none" stroke="midnightblue" d="M706.191,-148C714.7,-148 723.23,-148 731.623,-148"/>
<polygon fill="midnightblue" stroke="midnightblue" points="731.782,-151.5 741.782,-148 731.782,-144.5 731.782,-151.5"/>
</g>
</g>
</svg>
