<?xml version="1.0" encoding="UTF-8" standalone="no"?>
<!DOCTYPE svg PUBLIC "-//W3C//DTD SVG 1.1//EN"
 "http://www.w3.org/Graphics/SVG/1.1/DTD/svg11.dtd">
<!-- Generated by graphviz version 2.36.0 (20140111.2315)
 -->
<!-- Title: model.UserDefinedCommandsModel Pages: 1 -->
<svg width="550pt" height="165pt"
 viewBox="0.00 0.00 550.00 165.00" xmlns="http://www.w3.org/2000/svg" xmlns:xlink="http://www.w3.org/1999/xlink">
<g id="graph0" class="graph" transform="scale(1 1) rotate(0) translate(4 161)">
<title>model.UserDefinedCommandsModel</title>
<polygon fill="white" stroke="none" points="-4,4 -4,-161 546,-161 546,4 -4,4"/>
<!-- Node1 -->
<g id="node1" class="node"><title>Node1</title>
<polygon fill="#bfbfbf" stroke="black" points="378,-66 378,-96 542,-96 542,-66 378,-66"/>
<text text-anchor="start" x="386" y="-84" font-family="Helvetica,sans-Serif" font-size="10.00">model.UserDefinedCommands</text>
<text text-anchor="middle" x="460" y="-73" font-family="Helvetica,sans-Serif" font-size="10.00">Model</text>
</g>
<!-- Node2 -->
<g id="node2" class="node"><title>Node2</title>
<polygon fill="white" stroke="#bfbfbf" points="60.5,-137.5 60.5,-156.5 131.5,-156.5 131.5,-137.5 60.5,-137.5"/>
<text text-anchor="middle" x="96" y="-144.5" font-family="Helvetica,sans-Serif" font-size="10.00">Serializable</text>
</g>
<!-- Node2&#45;&gt;Node1 -->
<g id="edge1" class="edge"><title>Node2&#45;&gt;Node1</title>
<path fill="none" stroke="midnightblue" d="M141.788,-143.048C194.434,-137.902 284.235,-127.556 360,-111 378.072,-107.051 397.627,-101.423 414.548,-96.107"/>
<polygon fill="midnightblue" stroke="midnightblue" points="141.39,-139.57 131.77,-144.008 142.058,-146.538 141.39,-139.57"/>
</g>
<!-- Node3 -->
<g id="node3" class="node"><title>Node3</title>
<polygon fill="white" stroke="#bfbfbf" points="42.5,-88 42.5,-118 149.5,-118 149.5,-88 42.5,-88"/>
<text text-anchor="start" x="50.5" y="-106" font-family="Helvetica,sans-Serif" font-size="10.00">Map&lt; String, List&lt;</text>
<text text-anchor="middle" x="96" y="-95" font-family="Helvetica,sans-Serif" font-size="10.00"> String &gt; &gt;</text>
</g>
<!-- Node3&#45;&gt;Node1 -->
<g id="edge2" class="edge"><title>Node3&#45;&gt;Node1</title>
<path fill="none" stroke="#9a32cd" stroke-dasharray="5,2" d="M159.802,-99.1833C220.238,-95.5104 311.917,-89.9388 377.858,-85.9313"/>
<polygon fill="#9a32cd" stroke="#9a32cd" points="159.407,-95.7007 149.638,-99.801 159.832,-102.688 159.407,-95.7007"/>
<text text-anchor="middle" x="285" y="-99" font-family="Helvetica,sans-Serif" font-size="10.00"> myDefinedCommandVariables</text>
</g>
<!-- Node4 -->
<g id="node4" class="node"><title>Node4</title>
<polygon fill="white" stroke="#bfbfbf" points="54,-49.5 54,-68.5 138,-68.5 138,-49.5 54,-49.5"/>
<text text-anchor="middle" x="96" y="-56.5" font-family="Helvetica,sans-Serif" font-size="10.00">Set&lt; String &gt;</text>
</g>
<!-- Node4&#45;&gt;Node1 -->
<g id="edge3" class="edge"><title>Node4&#45;&gt;Node1</title>
<path fill="none" stroke="#9a32cd" stroke-dasharray="5,2" d="M148.181,-61.308C201.198,-63.7965 286.434,-68.0706 360,-73 365.85,-73.392 371.892,-73.8209 377.972,-74.2702"/>
<polygon fill="#9a32cd" stroke="#9a32cd" points="148.173,-57.8039 138.02,-60.8344 147.847,-64.7963 148.173,-57.8039"/>
<text text-anchor="middle" x="285" y="-76" font-family="Helvetica,sans-Serif" font-size="10.00"> myCommands</text>
</g>
<!-- Node5 -->
<g id="node5" class="node"><title>Node5</title>
<polygon fill="white" stroke="#bfbfbf" points="0.5,-0 0.5,-30 191.5,-30 191.5,-0 0.5,-0"/>
<text text-anchor="start" x="8.5" y="-18" font-family="Helvetica,sans-Serif" font-size="10.00">Map&lt; String, interpreter.expression.</text>
<text text-anchor="middle" x="96" y="-7" font-family="Helvetica,sans-Serif" font-size="10.00">SLogoExpression &gt;</text>
</g>
<!-- Node5&#45;&gt;Node1 -->
<g id="edge4" class="edge"><title>Node5&#45;&gt;Node1</title>
<path fill="none" stroke="#9a32cd" stroke-dasharray="5,2" d="M201.904,-24.7947C250.362,-30.3812 308.461,-38.5895 360,-50 378.816,-54.1657 399.198,-60.2647 416.55,-65.9533"/>
<polygon fill="#9a32cd" stroke="#9a32cd" points="202.046,-21.2885 191.716,-23.6421 201.259,-28.2441 202.046,-21.2885"/>
<text text-anchor="middle" x="285" y="-53" font-family="Helvetica,sans-Serif" font-size="10.00"> myDefinedCommands</text>
</g>
</g>
</svg>
