<?xml version="1.0" encoding="UTF-8" standalone="no"?>
<!DOCTYPE svg PUBLIC "-//W3C//DTD SVG 1.1//EN"
 "http://www.w3.org/Graphics/SVG/1.1/DTD/svg11.dtd">
<!-- Generated by graphviz version 2.36.0 (20140111.2315)
 -->
<!-- Title: interpreter.expression.conditional.ConditionalResult Pages: 1 -->
<svg width="186pt" height="108pt"
 viewBox="0.00 0.00 186.00 108.00" xmlns="http://www.w3.org/2000/svg" xmlns:xlink="http://www.w3.org/1999/xlink">
<g id="graph0" class="graph" transform="scale(1 1) rotate(0) translate(4 104)">
<title>interpreter.expression.conditional.ConditionalResult</title>
<polygon fill="white" stroke="none" points="-4,4 -4,-104 182,-104 182,4 -4,4"/>
<!-- Node1 -->
<g id="node1" class="node"><title>Node1</title>
<polygon fill="#bfbfbf" stroke="black" points="-0.5,-1 -0.5,-31 178.5,-31 178.5,-1 -0.5,-1"/>
<text text-anchor="start" x="7.5" y="-19" font-family="Helvetica,sans-Serif" font-size="10.00">interpreter.expression.conditional.</text>
<text text-anchor="middle" x="89" y="-8" font-family="Helvetica,sans-Serif" font-size="10.00">ConditionalResult</text>
</g>
<!-- Node2 -->
<g id="node2" class="node"><title>Node2</title>
<g id="a_node2"><a xlink:href="../../df/df6/classinterpreter_1_1result_1_1_s_logo_result.html" target="_top" xlink:title="interpreter.result.SLogo\lResult">
<polygon fill="white" stroke="black" points="24,-69 24,-99 154,-99 154,-69 24,-69"/>
<text text-anchor="start" x="32" y="-87" font-family="Helvetica,sans-Serif" font-size="10.00">interpreter.result.SLogo</text>
<text text-anchor="middle" x="89" y="-76" font-family="Helvetica,sans-Serif" font-size="10.00">Result</text>
</a>
</g>
</g>
<!-- Node2&#45;&gt;Node1 -->
<g id="edge1" class="edge"><title>Node2&#45;&gt;Node1</title>
<path fill="none" stroke="midnightblue" d="M89,-58.5322C89,-49.3606 89,-39.2449 89,-31.2931"/>
<polygon fill="midnightblue" stroke="midnightblue" points="85.5001,-58.6789 89,-68.679 92.5001,-58.679 85.5001,-58.6789"/>
</g>
</g>
</svg>
