<?xml version="1.0" encoding="UTF-8" standalone="no"?>
<!DOCTYPE svg PUBLIC "-//W3C//DTD SVG 1.1//EN"
 "http://www.w3.org/Graphics/SVG/1.1/DTD/svg11.dtd">
<!-- Generated by graphviz version 2.36.0 (20140111.2315)
 -->
<!-- Title: turtle.draw.Pen Pages: 1 -->
<svg width="472pt" height="106pt"
 viewBox="0.00 0.00 472.00 106.00" xmlns="http://www.w3.org/2000/svg" xmlns:xlink="http://www.w3.org/1999/xlink">
<g id="graph0" class="graph" transform="scale(1 1) rotate(0) translate(4 102)">
<title>turtle.draw.Pen</title>
<polygon fill="white" stroke="none" points="-4,4 -4,-102 468,-102 468,4 -4,4"/>
<!-- Node1 -->
<g id="node1" class="node"><title>Node1</title>
<polygon fill="#bfbfbf" stroke="black" points="196,-0.5 196,-19.5 284,-19.5 284,-0.5 196,-0.5"/>
<text text-anchor="middle" x="240" y="-7.5" font-family="Helvetica,sans-Serif" font-size="10.00">turtle.draw.Pen</text>
</g>
<!-- Node2 -->
<g id="node2" class="node"><title>Node2</title>
<polygon fill="white" stroke="#bfbfbf" points="-0.5,-78.5 -0.5,-97.5 88.5,-97.5 88.5,-78.5 -0.5,-78.5"/>
<text text-anchor="middle" x="44" y="-85.5" font-family="Helvetica,sans-Serif" font-size="10.00">List&lt; Double &gt;</text>
</g>
<!-- Node2&#45;&gt;Node1 -->
<g id="edge1" class="edge"><title>Node2&#45;&gt;Node1</title>
<path fill="none" stroke="#9a32cd" stroke-dasharray="5,2" d="M58.9902,-70.8693C70.0945,-59.9116 86.1632,-46.0053 103,-38 132.228,-24.1032 168.229,-17.3578 195.99,-14.0843"/>
<polygon fill="#9a32cd" stroke="#9a32cd" points="56.3172,-68.5973 51.842,-78.2006 61.3292,-73.4841 56.3172,-68.5973"/>
<text text-anchor="middle" x="124.5" y="-46.5" font-family="Helvetica,sans-Serif" font-size="10.00"> myDash</text>
</g>
<!-- Node3 -->
<g id="node3" class="node"><title>Node3</title>
<polygon fill="white" stroke="#bfbfbf" points="106.5,-78.5 106.5,-97.5 181.5,-97.5 181.5,-78.5 106.5,-78.5"/>
<text text-anchor="middle" x="144" y="-85.5" font-family="Helvetica,sans-Serif" font-size="10.00">List&lt; Line &gt;</text>
</g>
<!-- Node3&#45;&gt;Node1 -->
<g id="edge2" class="edge"><title>Node3&#45;&gt;Node1</title>
<path fill="none" stroke="#9a32cd" stroke-dasharray="5,2" d="M147.312,-68.1865C149.984,-58.05 154.719,-46.0152 163,-38 171.958,-29.3302 183.856,-23.4304 195.614,-19.4208"/>
<polygon fill="#9a32cd" stroke="#9a32cd" points="143.848,-67.6463 145.152,-78.1605 150.689,-69.1278 143.848,-67.6463"/>
<text text-anchor="middle" x="199.5" y="-46.5" font-family="Helvetica,sans-Serif" font-size="10.00"> myDrawnLines</text>
</g>
<!-- Node4 -->
<g id="node4" class="node"><title>Node4</title>
<polygon fill="white" stroke="#bfbfbf" points="219,-78.5 219,-97.5 261,-97.5 261,-78.5 219,-78.5"/>
<text text-anchor="middle" x="240" y="-85.5" font-family="Helvetica,sans-Serif" font-size="10.00">Node</text>
</g>
<!-- Node4&#45;&gt;Node1 -->
<g id="edge3" class="edge"><title>Node4&#45;&gt;Node1</title>
<path fill="none" stroke="#9a32cd" stroke-dasharray="5,2" d="M240,-68.2239C240,-52.6974 240,-31.3582 240,-19.6165"/>
<polygon fill="#9a32cd" stroke="#9a32cd" points="236.5,-68.2818 240,-78.2818 243.5,-68.2819 236.5,-68.2818"/>
<text text-anchor="middle" x="275" y="-46.5" font-family="Helvetica,sans-Serif" font-size="10.00"> myTurtleNode</text>
</g>
<!-- Node5 -->
<g id="node5" class="node"><title>Node5</title>
<polygon fill="white" stroke="#bfbfbf" points="310,-78.5 310,-97.5 356,-97.5 356,-78.5 310,-78.5"/>
<text text-anchor="middle" x="333" y="-85.5" font-family="Helvetica,sans-Serif" font-size="10.00">Group</text>
</g>
<!-- Node5&#45;&gt;Node1 -->
<g id="edge4" class="edge"><title>Node5&#45;&gt;Node1</title>
<path fill="none" stroke="#9a32cd" stroke-dasharray="5,2" d="M328.486,-68.5596C325.154,-58.3734 319.66,-46.1671 311,-38 301.981,-29.4951 290.013,-23.5956 278.477,-19.535"/>
<polygon fill="#9a32cd" stroke="#9a32cd" points="325.121,-69.5242 331.217,-78.1895 331.856,-67.614 325.121,-69.5242"/>
<text text-anchor="middle" x="345" y="-46.5" font-family="Helvetica,sans-Serif" font-size="10.00"> myGrid</text>
</g>
<!-- Node6 -->
<g id="node6" class="node"><title>Node6</title>
<polygon fill="white" stroke="#bfbfbf" points="374.5,-78.5 374.5,-97.5 415.5,-97.5 415.5,-78.5 374.5,-78.5"/>
<text text-anchor="middle" x="395" y="-85.5" font-family="Helvetica,sans-Serif" font-size="10.00">Color</text>
</g>
<!-- Node6&#45;&gt;Node1 -->
<g id="edge5" class="edge"><title>Node6&#45;&gt;Node1</title>
<path fill="none" stroke="#9a32cd" stroke-dasharray="5,2" d="M389.239,-68.6572C385.003,-58.1304 378.186,-45.5445 368,-38 343.91,-20.1562 310.632,-13.5354 284.045,-11.3079"/>
<polygon fill="#9a32cd" stroke="#9a32cd" points="385.996,-69.985 392.644,-78.2347 392.592,-67.64 385.996,-69.985"/>
<text text-anchor="middle" x="424.5" y="-52" font-family="Helvetica,sans-Serif" font-size="10.00"> ourDefaultColor</text>
<text text-anchor="middle" x="424.5" y="-41" font-family="Helvetica,sans-Serif" font-size="10.00">myColor</text>
</g>
</g>
</svg>
