<?xml version="1.0" encoding="UTF-8" standalone="no"?>
<!DOCTYPE svg PUBLIC "-//W3C//DTD SVG 1.1//EN"
 "http://www.w3.org/Graphics/SVG/1.1/DTD/svg11.dtd">
<!-- Generated by graphviz version 2.36.0 (20140111.2315)
 -->
<!-- Title: interpreter.expression.singleturtle.Home Pages: 1 -->
<svg width="218pt" height="164pt"
 viewBox="0.00 0.00 218.00 164.00" xmlns="http://www.w3.org/2000/svg" xmlns:xlink="http://www.w3.org/1999/xlink">
<g id="graph0" class="graph" transform="scale(1 1) rotate(0) translate(4 160)">
<title>interpreter.expression.singleturtle.Home</title>
<polygon fill="white" stroke="none" points="-4,4 -4,-160 214,-160 214,4 -4,4"/>
<!-- Node1 -->
<g id="node1" class="node"><title>Node1</title>
<polygon fill="#bfbfbf" stroke="black" points="0,-0.5 0,-19.5 210,-19.5 210,-0.5 0,-0.5"/>
<text text-anchor="middle" x="105" y="-7.5" font-family="Helvetica,sans-Serif" font-size="10.00">interpreter.expression.singleturtle.Home</text>
</g>
<!-- Node2 -->
<g id="node2" class="node"><title>Node2</title>
<g id="a_node2"><a xlink:href="../../d8/ddb/classinterpreter_1_1expression_1_1_turtle_command_expression.html" target="_top" xlink:title="interpreter.expression.Turtle\lCommandExpression">
<polygon fill="white" stroke="black" points="30,-57 30,-87 180,-87 180,-57 30,-57"/>
<text text-anchor="start" x="38" y="-75" font-family="Helvetica,sans-Serif" font-size="10.00">interpreter.expression.Turtle</text>
<text text-anchor="middle" x="105" y="-64" font-family="Helvetica,sans-Serif" font-size="10.00">CommandExpression</text>
</a>
</g>
</g>
<!-- Node2&#45;&gt;Node1 -->
<g id="edge1" class="edge"><title>Node2&#45;&gt;Node1</title>
<path fill="none" stroke="midnightblue" d="M105,-46.5858C105,-37.0743 105,-26.7864 105,-19.7305"/>
<polygon fill="midnightblue" stroke="midnightblue" points="101.5,-46.7808 105,-56.7808 108.5,-46.7809 101.5,-46.7808"/>
</g>
<!-- Node3 -->
<g id="node3" class="node"><title>Node3</title>
<g id="a_node3"><a xlink:href="../../db/d09/interfaceinterpreter_1_1expression_1_1_s_logo_expression.html" target="_top" xlink:title="interpreter.expression.SLogo\lExpression">
<polygon fill="white" stroke="black" points="27.5,-125 27.5,-155 182.5,-155 182.5,-125 27.5,-125"/>
<text text-anchor="start" x="35.5" y="-143" font-family="Helvetica,sans-Serif" font-size="10.00">interpreter.expression.SLogo</text>
<text text-anchor="middle" x="105" y="-132" font-family="Helvetica,sans-Serif" font-size="10.00">Expression</text>
</a>
</g>
</g>
<!-- Node3&#45;&gt;Node2 -->
<g id="edge2" class="edge"><title>Node3&#45;&gt;Node2</title>
<path fill="none" stroke="midnightblue" d="M105,-114.532C105,-105.361 105,-95.2449 105,-87.2931"/>
<polygon fill="midnightblue" stroke="midnightblue" points="101.5,-114.679 105,-124.679 108.5,-114.679 101.5,-114.679"/>
</g>
</g>
</svg>
