<?xml version="1.0" encoding="UTF-8" standalone="no"?>
<!DOCTYPE svg PUBLIC "-//W3C//DTD SVG 1.1//EN"
 "http://www.w3.org/Graphics/SVG/1.1/DTD/svg11.dtd">
<!-- Generated by graphviz version 2.36.0 (20140111.2315)
 -->
<!-- Title: turtle.TurtleHistoryState Pages: 1 -->
<svg width="195pt" height="96pt"
 viewBox="0.00 0.00 195.00 96.00" xmlns="http://www.w3.org/2000/svg" xmlns:xlink="http://www.w3.org/1999/xlink">
<g id="graph0" class="graph" transform="scale(1 1) rotate(0) translate(4 92)">
<title>turtle.TurtleHistoryState</title>
<polygon fill="white" stroke="none" points="-4,4 -4,-92 191,-92 191,4 -4,4"/>
<!-- Node1 -->
<g id="node1" class="node"><title>Node1</title>
<polygon fill="#bfbfbf" stroke="black" points="32.5,-0.5 32.5,-19.5 163.5,-19.5 163.5,-0.5 32.5,-0.5"/>
<text text-anchor="middle" x="98" y="-7.5" font-family="Helvetica,sans-Serif" font-size="10.00">turtle.TurtleHistoryState</text>
</g>
<!-- Node2 -->
<g id="node2" class="node"><title>Node2</title>
<polygon fill="white" stroke="#bfbfbf" points="-0.5,-68.5 -0.5,-87.5 94.5,-87.5 94.5,-68.5 -0.5,-68.5"/>
<text text-anchor="middle" x="47" y="-75.5" font-family="Helvetica,sans-Serif" font-size="10.00">ParallelTransition</text>
</g>
<!-- Node2&#45;&gt;Node1 -->
<g id="edge1" class="edge"><title>Node2&#45;&gt;Node1</title>
<path fill="none" stroke="#9a32cd" stroke-dasharray="5,2" d="M51.2238,-58.3528C53.3847,-51.5039 56.5304,-43.9717 61,-38 66.6227,-30.4877 74.9231,-24.1643 82.2381,-19.5299"/>
<polygon fill="#9a32cd" stroke="#9a32cd" points="47.7846,-57.6663 48.5898,-68.2305 54.5483,-59.47 47.7846,-57.6663"/>
<text text-anchor="middle" x="94.5" y="-41.5" font-family="Helvetica,sans-Serif" font-size="10.00"> myAnimation</text>
</g>
<!-- Node3 -->
<g id="node3" class="node"><title>Node3</title>
<polygon fill="white" stroke="#bfbfbf" points="112.5,-68.5 112.5,-87.5 187.5,-87.5 187.5,-68.5 112.5,-68.5"/>
<text text-anchor="middle" x="150" y="-75.5" font-family="Helvetica,sans-Serif" font-size="10.00">Set&lt; Line &gt;</text>
</g>
<!-- Node3&#45;&gt;Node1 -->
<g id="edge2" class="edge"><title>Node3&#45;&gt;Node1</title>
<path fill="none" stroke="#9a32cd" stroke-dasharray="5,2" d="M141.517,-59.1746C137.826,-52.2436 133.162,-44.4386 128,-38 122.565,-31.2209 115.357,-24.6743 109.368,-19.7256"/>
<polygon fill="#9a32cd" stroke="#9a32cd" points="138.557,-61.0789 146.174,-68.443 144.812,-57.9361 138.557,-61.0789"/>
<text text-anchor="middle" x="156.5" y="-41.5" font-family="Helvetica,sans-Serif" font-size="10.00"> myLines</text>
</g>
</g>
</svg>
