<?xml version="1.0" encoding="UTF-8" standalone="no"?>
<!DOCTYPE svg PUBLIC "-//W3C//DTD SVG 1.1//EN"
 "http://www.w3.org/Graphics/SVG/1.1/DTD/svg11.dtd">
<!-- Generated by graphviz version 2.36.0 (20140111.2315)
 -->
<!-- Title: application.DropDownFormElement Pages: 1 -->
<svg width="288pt" height="108pt"
 viewBox="0.00 0.00 288.00 108.00" xmlns="http://www.w3.org/2000/svg" xmlns:xlink="http://www.w3.org/1999/xlink">
<g id="graph0" class="graph" transform="scale(1 1) rotate(0) translate(4 104)">
<title>application.DropDownFormElement</title>
<polygon fill="white" stroke="none" points="-4,4 -4,-104 284,-104 284,4 -4,4"/>
<!-- Node1 -->
<g id="node1" class="node"><title>Node1</title>
<polygon fill="#bfbfbf" stroke="black" points="64,-1 64,-31 210,-31 210,-1 64,-1"/>
<text text-anchor="start" x="72" y="-19" font-family="Helvetica,sans-Serif" font-size="10.00">application.DropDownForm</text>
<text text-anchor="middle" x="137" y="-8" font-family="Helvetica,sans-Serif" font-size="10.00">Element</text>
</g>
<!-- Node2 -->
<g id="node2" class="node"><title>Node2</title>
<polygon fill="white" stroke="#bfbfbf" points="0,-69 0,-99 126,-99 126,-69 0,-69"/>
<text text-anchor="start" x="8" y="-87" font-family="Helvetica,sans-Serif" font-size="10.00">javafx::scene::control</text>
<text text-anchor="middle" x="63" y="-76" font-family="Helvetica,sans-Serif" font-size="10.00">::ComboBox&lt; String &gt;</text>
</g>
<!-- Node2&#45;&gt;Node1 -->
<g id="edge1" class="edge"><title>Node2&#45;&gt;Node1</title>
<path fill="none" stroke="midnightblue" d="M86.5248,-62.0184C97.8534,-51.9145 111.134,-40.0696 121.229,-31.0663"/>
<polygon fill="midnightblue" stroke="midnightblue" points="84.1902,-59.4108 79.0569,-68.679 88.8495,-64.6348 84.1902,-59.4108"/>
</g>
<!-- Node3 -->
<g id="node3" class="node"><title>Node3</title>
<g id="a_node3"><a xlink:href="../../d0/d1b/interfaceapplication_1_1_form_element.html" target="_top" xlink:title="application.FormElement">
<polygon fill="white" stroke="black" points="144,-74.5 144,-93.5 280,-93.5 280,-74.5 144,-74.5"/>
<text text-anchor="middle" x="212" y="-81.5" font-family="Helvetica,sans-Serif" font-size="10.00">application.FormElement</text>
</a>
</g>
</g>
<!-- Node3&#45;&gt;Node1 -->
<g id="edge2" class="edge"><title>Node3&#45;&gt;Node1</title>
<path fill="none" stroke="midnightblue" d="M194.673,-67.7524C182.149,-56.7313 165.351,-41.9489 153.115,-31.1815"/>
<polygon fill="midnightblue" stroke="midnightblue" points="192.376,-70.3928 202.195,-74.3717 197,-65.1378 192.376,-70.3928"/>
</g>
</g>
</svg>
