<?xml version="1.0" encoding="UTF-8" standalone="no"?>
<!DOCTYPE svg PUBLIC "-//W3C//DTD SVG 1.1//EN"
 "http://www.w3.org/Graphics/SVG/1.1/DTD/svg11.dtd">
<!-- Generated by graphviz version 2.36.0 (20140111.2315)
 -->
<!-- Title: turtle.DefaultTurtleImage.getRadius Pages: 1 -->
<svg width="758pt" height="87pt"
 viewBox="0.00 0.00 758.00 87.00" xmlns="http://www.w3.org/2000/svg" xmlns:xlink="http://www.w3.org/1999/xlink">
<g id="graph0" class="graph" transform="scale(1 1) rotate(0) translate(4 83)">
<title>turtle.DefaultTurtleImage.getRadius</title>
<polygon fill="white" stroke="none" points="-4,4 -4,-83 754,-83 754,4 -4,4"/>
<!-- Node1 -->
<g id="node1" class="node"><title>Node1</title>
<polygon fill="#bfbfbf" stroke="black" points="0,-24 0,-54 154,-54 154,-24 0,-24"/>
<text text-anchor="start" x="8" y="-42" font-family="Helvetica,sans-Serif" font-size="10.00">turtle.DefaultTurtleImage.get</text>
<text text-anchor="middle" x="77" y="-31" font-family="Helvetica,sans-Serif" font-size="10.00">Radius</text>
</g>
<!-- Node2 -->
<g id="node2" class="node"><title>Node2</title>
<g id="a_node2"><a xlink:href="../../d2/d10/classturtle_1_1_default_turtle_image.html#a763b233e09895258bed5228ddc8f8a06" target="_top" xlink:title="turtle.DefaultTurtleImage.create\lHeadBodyTail">
<polygon fill="white" stroke="black" points="195.5,-49 195.5,-79 364.5,-79 364.5,-49 195.5,-49"/>
<text text-anchor="start" x="203.5" y="-67" font-family="Helvetica,sans-Serif" font-size="10.00">turtle.DefaultTurtleImage.create</text>
<text text-anchor="middle" x="280" y="-56" font-family="Helvetica,sans-Serif" font-size="10.00">HeadBodyTail</text>
</a>
</g>
</g>
<!-- Node1&#45;&gt;Node2 -->
<g id="edge1" class="edge"><title>Node1&#45;&gt;Node2</title>
<path fill="none" stroke="midnightblue" d="M164.453,-49.7529C174.714,-51.029 185.173,-52.33 195.392,-53.601"/>
<polygon fill="midnightblue" stroke="midnightblue" points="164.632,-46.2482 154.276,-48.4871 163.768,-53.1947 164.632,-46.2482"/>
</g>
<!-- Node5 -->
<g id="node5" class="node"><title>Node5</title>
<g id="a_node5"><a xlink:href="../../d2/d10/classturtle_1_1_default_turtle_image.html#aa5f75ea924ed0723c39e8f3c9c8ed038" target="_top" xlink:title="turtle.DefaultTurtleImage.selected\lChanged">
<polygon fill="white" stroke="black" points="190.5,-0 190.5,-30 369.5,-30 369.5,-0 190.5,-0"/>
<text text-anchor="start" x="198.5" y="-18" font-family="Helvetica,sans-Serif" font-size="10.00">turtle.DefaultTurtleImage.selected</text>
<text text-anchor="middle" x="280" y="-7" font-family="Helvetica,sans-Serif" font-size="10.00">Changed</text>
</a>
</g>
</g>
<!-- Node1&#45;&gt;Node5 -->
<g id="edge4" class="edge"><title>Node1&#45;&gt;Node5</title>
<path fill="none" stroke="midnightblue" d="M164.305,-28.6949C172.917,-27.6666 181.671,-26.6214 190.307,-25.5902"/>
<polygon fill="midnightblue" stroke="midnightblue" points="163.791,-25.2314 154.276,-29.8924 164.621,-32.182 163.791,-25.2314"/>
</g>
<!-- Node3 -->
<g id="node3" class="node"><title>Node3</title>
<g id="a_node3"><a xlink:href="../../d2/d10/classturtle_1_1_default_turtle_image.html#a818cd3f69559f9383ef7215303aa421a" target="_top" xlink:title="turtle.DefaultTurtleImage.create\lTurtle">
<polygon fill="white" stroke="black" points="406.5,-49 406.5,-79 575.5,-79 575.5,-49 406.5,-49"/>
<text text-anchor="start" x="414.5" y="-67" font-family="Helvetica,sans-Serif" font-size="10.00">turtle.DefaultTurtleImage.create</text>
<text text-anchor="middle" x="491" y="-56" font-family="Helvetica,sans-Serif" font-size="10.00">Turtle</text>
</a>
</g>
</g>
<!-- Node2&#45;&gt;Node3 -->
<g id="edge2" class="edge"><title>Node2&#45;&gt;Node3</title>
<path fill="none" stroke="midnightblue" d="M374.574,-64C385.141,-64 395.859,-64 406.288,-64"/>
<polygon fill="midnightblue" stroke="midnightblue" points="374.503,-60.5001 364.503,-64 374.503,-67.5001 374.503,-60.5001"/>
</g>
<!-- Node4 -->
<g id="node4" class="node"><title>Node4</title>
<g id="a_node4"><a xlink:href="../../d2/d10/classturtle_1_1_default_turtle_image.html#a266806322fad2605ab03e5ee1bef0f55" target="_top" xlink:title="turtle.DefaultTurtleImage.\lDefaultTurtleImage">
<polygon fill="white" stroke="black" points="612,-49 612,-79 750,-79 750,-49 612,-49"/>
<text text-anchor="start" x="620" y="-67" font-family="Helvetica,sans-Serif" font-size="10.00">turtle.DefaultTurtleImage.</text>
<text text-anchor="middle" x="681" y="-56" font-family="Helvetica,sans-Serif" font-size="10.00">DefaultTurtleImage</text>
</a>
</g>
</g>
<!-- Node3&#45;&gt;Node4 -->
<g id="edge3" class="edge"><title>Node3&#45;&gt;Node4</title>
<path fill="none" stroke="midnightblue" d="M585.566,-64C594.45,-64 603.339,-64 611.916,-64"/>
<polygon fill="midnightblue" stroke="midnightblue" points="585.554,-60.5001 575.554,-64 585.554,-67.5001 585.554,-60.5001"/>
</g>
</g>
</svg>
