<?xml version="1.0" encoding="UTF-8" standalone="no"?>
<!DOCTYPE svg PUBLIC "-//W3C//DTD SVG 1.1//EN"
 "http://www.w3.org/Graphics/SVG/1.1/DTD/svg11.dtd">
<!-- Generated by graphviz version 2.36.0 (20140111.2315)
 -->
<!-- Title: turtle.DefaultTurtleImage.DefaultTurtleImage Pages: 1 -->
<!--zoomable 175 -->
<svg id="main" version="1.1" xmlns="http://www.w3.org/2000/svg" xmlns:xlink="http://www.w3.org/1999/xlink" xml:space="preserve" onload="init(evt)">
<style type="text/css"><![CDATA[
.edge:hover path { stroke: red; }
.edge:hover polygon { stroke: red; fill: red; }
]]></style>
<script type="text/javascript"><![CDATA[
var edges = document.getElementsByTagName('g');
if (edges && edges.length) {
  for (var i=0;i<edges.length;i++) {
    if (edges[i].id.substr(0,4)=='edge') {
      edges[i].setAttribute('class','edge');
    }
  }
}
]]></script>
        <defs>
                <circle id="rim" cx="0" cy="0" r="7"/>
                <circle id="rim2" cx="0" cy="0" r="3.5"/>
                <g id="zoomPlus">
                        <use xlink:href="#rim" fill="#404040">
                                <set attributeName="fill" to="#808080" begin="zoomplus.mouseover" end="zoomplus.mouseout"/>
                        </use>
                        <path d="M-4,0h8M0,-4v8" fill="none" stroke="white" stroke-width="1.5" pointer-events="none"/>
                </g>
                <g id="zoomMin">
                        <use xlink:href="#rim" fill="#404040">
                                <set attributeName="fill" to="#808080" begin="zoomminus.mouseover" end="zoomminus.mouseout"/>
                        </use>
                        <path d="M-4,0h8" fill="none" stroke="white" stroke-width="1.5" pointer-events="none"/>
                </g>
                <g id="dirArrow">
                        <path fill="none" stroke="white" stroke-width="1.5" d="M0,-3.0v7 M-2.5,-0.5L0,-3.0L2.5,-0.5"/>
                </g>
               <g id="resetDef">
                       <use xlink:href="#rim2" fill="#404040">
                               <set attributeName="fill" to="#808080" begin="reset.mouseover" end="reset.mouseout"/>
                       </use>
               </g>
        </defs>

<script type="text/javascript">
var viewWidth = 778;
var viewHeight = 175;
var sectionId = 'dynsection-2';
</script>
<script xlink:href="../../svgpan.js"/>
<svg id="graph" class="graph">
<g id="viewport">
<title>turtle.DefaultTurtleImage.DefaultTurtleImage</title>
<polygon fill="white" stroke="none" points="-4,4 -4,-171 774,-171 774,4 -4,4"/>
<!-- Node1 -->
<g id="node1" class="node"><title>Node1</title>
<polygon fill="#bfbfbf" stroke="black" points="0,-93 0,-123 138,-123 138,-93 0,-93"/>
<text text-anchor="start" x="8" y="-111" font-family="Helvetica,sans-Serif" font-size="10.00">turtle.DefaultTurtleImage.</text>
<text text-anchor="middle" x="69" y="-100" font-family="Helvetica,sans-Serif" font-size="10.00">DefaultTurtleImage</text>
</g>
<!-- Node2 -->
<g id="node2" class="node"><title>Node2</title>
<g id="a_node2"><a xlink:href="../../d2/d10/classturtle_1_1_default_turtle_image.html#addda03506a2a25fc1a19e9d9ff772b38" target="_top" xlink:title="turtle.DefaultTurtleImage.animate">
<polygon fill="white" stroke="black" points="174,-131.5 174,-150.5 352,-150.5 352,-131.5 174,-131.5"/>
<text text-anchor="middle" x="263" y="-138.5" font-family="Helvetica,sans-Serif" font-size="10.00">turtle.DefaultTurtleImage.animate</text>
</a>
</g>
</g>
<!-- Node1&#45;&gt;Node2 -->
<g id="edge1" class="edge"><title>Node1&#45;&gt;Node2</title>
<path fill="none" stroke="midnightblue" d="M138.233,-119.727C157.237,-122.994 177.829,-126.533 196.662,-129.77"/>
<polygon fill="midnightblue" stroke="midnightblue" points="196.178,-133.238 206.627,-131.483 197.364,-126.339 196.178,-133.238"/>
</g>
<!-- Node4 -->
<g id="node4" class="node"><title>Node4</title>
<g id="a_node4"><a xlink:href="../../d2/d10/classturtle_1_1_default_turtle_image.html#a818cd3f69559f9383ef7215303aa421a" target="_top" xlink:title="turtle.DefaultTurtleImage.create\lTurtle">
<polygon fill="white" stroke="black" points="178.5,-60 178.5,-90 347.5,-90 347.5,-60 178.5,-60"/>
<text text-anchor="start" x="186.5" y="-78" font-family="Helvetica,sans-Serif" font-size="10.00">turtle.DefaultTurtleImage.create</text>
<text text-anchor="middle" x="263" y="-67" font-family="Helvetica,sans-Serif" font-size="10.00">Turtle</text>
</a>
</g>
</g>
<!-- Node1&#45;&gt;Node4 -->
<g id="edge3" class="edge"><title>Node1&#45;&gt;Node4</title>
<path fill="none" stroke="midnightblue" d="M138.233,-96.2725C147.933,-94.6052 158.048,-92.8668 168.131,-91.1337"/>
<polygon fill="midnightblue" stroke="midnightblue" points="168.925,-94.5487 178.187,-89.4053 167.739,-87.6498 168.925,-94.5487"/>
</g>
<!-- Node3 -->
<g id="node3" class="node"><title>Node3</title>
<g id="a_node3"><a xlink:href="../../d2/d10/classturtle_1_1_default_turtle_image.html#a4e763f3c0ed87e8b7e5443e9977e9778" target="_top" xlink:title="turtle.DefaultTurtleImage.animate\lTurtle">
<polygon fill="white" stroke="black" points="395,-137 395,-167 573,-167 573,-137 395,-137"/>
<text text-anchor="start" x="403" y="-155" font-family="Helvetica,sans-Serif" font-size="10.00">turtle.DefaultTurtleImage.animate</text>
<text text-anchor="middle" x="484" y="-144" font-family="Helvetica,sans-Serif" font-size="10.00">Turtle</text>
</a>
</g>
</g>
<!-- Node2&#45;&gt;Node3 -->
<g id="edge2" class="edge"><title>Node2&#45;&gt;Node3</title>
<path fill="none" stroke="midnightblue" d="M352.129,-145.427C362.757,-145.96 373.665,-146.508 384.431,-147.049"/>
<polygon fill="midnightblue" stroke="midnightblue" points="384.532,-150.558 394.695,-147.565 384.883,-143.567 384.532,-150.558"/>
</g>
<!-- Node5 -->
<g id="node5" class="node"><title>Node5</title>
<g id="a_node5"><a xlink:href="../../d2/d10/classturtle_1_1_default_turtle_image.html#a4ccf2f3277710dbc6817ddb9afb12d91" target="_top" xlink:title="turtle.DefaultTurtleImage.createLegs">
<polygon fill="white" stroke="black" points="388.5,-98.5 388.5,-117.5 579.5,-117.5 579.5,-98.5 388.5,-98.5"/>
<text text-anchor="middle" x="484" y="-105.5" font-family="Helvetica,sans-Serif" font-size="10.00">turtle.DefaultTurtleImage.createLegs</text>
</a>
</g>
</g>
<!-- Node4&#45;&gt;Node5 -->
<g id="edge4" class="edge"><title>Node4&#45;&gt;Node5</title>
<path fill="none" stroke="midnightblue" d="M347.732,-87.6171C368.185,-90.6991 389.91,-93.9727 409.826,-96.9738"/>
<polygon fill="midnightblue" stroke="midnightblue" points="409.342,-100.44 419.751,-98.4694 410.385,-93.5184 409.342,-100.44"/>
</g>
<!-- Node6 -->
<g id="node6" class="node"><title>Node6</title>
<g id="a_node6"><a xlink:href="../../d2/d10/classturtle_1_1_default_turtle_image.html#a763b233e09895258bed5228ddc8f8a06" target="_top" xlink:title="turtle.DefaultTurtleImage.create\lHeadBodyTail">
<polygon fill="white" stroke="black" points="399.5,-49 399.5,-79 568.5,-79 568.5,-49 399.5,-49"/>
<text text-anchor="start" x="407.5" y="-67" font-family="Helvetica,sans-Serif" font-size="10.00">turtle.DefaultTurtleImage.create</text>
<text text-anchor="middle" x="484" y="-56" font-family="Helvetica,sans-Serif" font-size="10.00">HeadBodyTail</text>
</a>
</g>
</g>
<!-- Node4&#45;&gt;Node6 -->
<g id="edge5" class="edge"><title>Node4&#45;&gt;Node6</title>
<path fill="none" stroke="midnightblue" d="M347.732,-70.7943C361.335,-70.111 375.501,-69.3995 389.323,-68.7052"/>
<polygon fill="midnightblue" stroke="midnightblue" points="389.503,-72.2007 399.315,-68.2034 389.151,-65.2095 389.503,-72.2007"/>
</g>
<!-- Node8 -->
<g id="node8" class="node"><title>Node8</title>
<g id="a_node8"><a xlink:href="../../d2/d10/classturtle_1_1_default_turtle_image.html#aca1cbe82d8aa0991c2e2fb1660d62b80" target="_top" xlink:title="turtle.DefaultTurtleImage.color\lTurtle">
<polygon fill="white" stroke="black" points="403.5,-0 403.5,-30 564.5,-30 564.5,-0 403.5,-0"/>
<text text-anchor="start" x="411.5" y="-18" font-family="Helvetica,sans-Serif" font-size="10.00">turtle.DefaultTurtleImage.color</text>
<text text-anchor="middle" x="484" y="-7" font-family="Helvetica,sans-Serif" font-size="10.00">Turtle</text>
</a>
</g>
</g>
<!-- Node4&#45;&gt;Node8 -->
<g id="edge7" class="edge"><title>Node4&#45;&gt;Node8</title>
<path fill="none" stroke="midnightblue" d="M314.264,-59.9727C336.768,-53.3573 363.662,-45.6051 388,-39 395.82,-36.8777 404.019,-34.7143 412.185,-32.5986"/>
<polygon fill="midnightblue" stroke="midnightblue" points="413.289,-35.9286 422.102,-30.0475 411.545,-29.1493 413.289,-35.9286"/>
</g>
<!-- Node7 -->
<g id="node7" class="node"><title>Node7</title>
<g id="a_node7"><a xlink:href="../../d2/d10/classturtle_1_1_default_turtle_image.html#a90df67ba036f05186bf298a4fe54a339" target="_top" xlink:title="turtle.DefaultTurtleImage.get\lRadius">
<polygon fill="white" stroke="black" points="616,-49 616,-79 770,-79 770,-49 616,-49"/>
<text text-anchor="start" x="624" y="-67" font-family="Helvetica,sans-Serif" font-size="10.00">turtle.DefaultTurtleImage.get</text>
<text text-anchor="middle" x="693" y="-56" font-family="Helvetica,sans-Serif" font-size="10.00">Radius</text>
</a>
</g>
</g>
<!-- Node6&#45;&gt;Node7 -->
<g id="edge6" class="edge"><title>Node6&#45;&gt;Node7</title>
<path fill="none" stroke="midnightblue" d="M568.598,-64C580.783,-64 593.351,-64 605.59,-64"/>
<polygon fill="midnightblue" stroke="midnightblue" points="605.779,-67.5001 615.779,-64 605.779,-60.5001 605.779,-67.5001"/>
</g>
</g>
</svg>
        <g id="navigator" transform="translate(0 0)" fill="#404254">
                <rect fill="#f2f5e9" fill-opacity="0.5" stroke="#606060" stroke-width=".5" x="0" y="0" width="60" height="60"/>
                <use id="zoomplus" xlink:href="#zoomPlus" x="17" y="9" onmousedown="handleZoom(evt,'in')"/>
                <use id="zoomminus" xlink:href="#zoomMin" x="42" y="9" onmousedown="handleZoom(evt,'out')"/>
                <use id="reset" xlink:href="#resetDef" x="30" y="36" onmousedown="handleReset()"/>
                <g id="arrowUp" xlink:href="#dirArrow" transform="translate(30 24)" onmousedown="handlePan(0,-1)">
                  <use xlink:href="#rim" fill="#404040">
                        <set attributeName="fill" to="#808080" begin="arrowUp.mouseover" end="arrowUp.mouseout"/>
                  </use>
                  <path fill="none" stroke="white" stroke-width="1.5" d="M0,-3.0v7 M-2.5,-0.5L0,-3.0L2.5,-0.5"/>
                </g>
                <g id="arrowRight" xlink:href="#dirArrow" transform="rotate(90) translate(36 -43)" onmousedown="handlePan(1,0)">
                  <use xlink:href="#rim" fill="#404040">
                        <set attributeName="fill" to="#808080" begin="arrowRight.mouseover" end="arrowRight.mouseout"/>
                  </use>
                  <path fill="none" stroke="white" stroke-width="1.5" d="M0,-3.0v7 M-2.5,-0.5L0,-3.0L2.5,-0.5"/>
                </g>
                <g id="arrowDown" xlink:href="#dirArrow" transform="rotate(180) translate(-30 -48)" onmousedown="handlePan(0,1)">
                  <use xlink:href="#rim" fill="#404040">
                        <set attributeName="fill" to="#808080" begin="arrowDown.mouseover" end="arrowDown.mouseout"/>
                  </use>
                  <path fill="none" stroke="white" stroke-width="1.5" d="M0,-3.0v7 M-2.5,-0.5L0,-3.0L2.5,-0.5"/>
                </g>
                <g id="arrowLeft" xlink:href="#dirArrow" transform="rotate(270) translate(-36 17)" onmousedown="handlePan(-1,0)">
                  <use xlink:href="#rim" fill="#404040">
                        <set attributeName="fill" to="#808080" begin="arrowLeft.mouseover" end="arrowLeft.mouseout"/>
                  </use>
                  <path fill="none" stroke="white" stroke-width="1.5" d="M0,-3.0v7 M-2.5,-0.5L0,-3.0L2.5,-0.5"/>
                </g>
        </g>
        <svg viewBox="0 0 15 15" width="100%" height="30px" preserveAspectRatio="xMaxYMin meet">
         <g id="arrow_out" transform="scale(0.3 0.3)">
          <a xlink:href="classturtle_1_1_default_turtle_image_a266806322fad2605ab03e5ee1bef0f55_cgraph_org.svg" target="_base">
           <rect id="button" ry="5" rx="5" y="6" x="6" height="38" width="38"
                fill="#f2f5e9" fill-opacity="0.5" stroke="#606060" stroke-width="1.0"/>
           <path id="arrow"
             d="M 11.500037,31.436501 C 11.940474,20.09759 22.043105,11.32322 32.158766,21.979434 L 37.068811,17.246167 C 37.068811,17.246167 37.088388,32 37.088388,32 L 22.160133,31.978069 C 22.160133,31.978069 26.997745,27.140456 26.997745,27.140456 C 18.528582,18.264221 13.291696,25.230495 11.500037,31.436501 z"
             style="fill:#404040;"/>
          </a>
         </g>
        </svg>
</svg>
