<?xml version="1.0" encoding="UTF-8" standalone="no"?>
<!DOCTYPE svg PUBLIC "-//W3C//DTD SVG 1.1//EN"
 "http://www.w3.org/Graphics/SVG/1.1/DTD/svg11.dtd">
<!-- Generated by graphviz version 2.36.0 (20140111.2315)
 -->
<!-- Title: turtle.DefaultTurtleImage.colorTurtle Pages: 1 -->
<svg width="550pt" height="38pt"
 viewBox="0.00 0.00 550.00 38.00" xmlns="http://www.w3.org/2000/svg" xmlns:xlink="http://www.w3.org/1999/xlink">
<g id="graph0" class="graph" transform="scale(1 1) rotate(0) translate(4 34)">
<title>turtle.DefaultTurtleImage.colorTurtle</title>
<polygon fill="white" stroke="none" points="-4,4 -4,-34 546,-34 546,4 -4,4"/>
<!-- Node1 -->
<g id="node1" class="node"><title>Node1</title>
<polygon fill="#bfbfbf" stroke="black" points="0.5,-0 0.5,-30 161.5,-30 161.5,-0 0.5,-0"/>
<text text-anchor="start" x="8.5" y="-18" font-family="Helvetica,sans-Serif" font-size="10.00">turtle.DefaultTurtleImage.color</text>
<text text-anchor="middle" x="81" y="-7" font-family="Helvetica,sans-Serif" font-size="10.00">Turtle</text>
</g>
<!-- Node2 -->
<g id="node2" class="node"><title>Node2</title>
<g id="a_node2"><a xlink:href="../../d2/d10/classturtle_1_1_default_turtle_image.html#a818cd3f69559f9383ef7215303aa421a" target="_top" xlink:title="turtle.DefaultTurtleImage.create\lTurtle">
<polygon fill="white" stroke="black" points="198.5,-0 198.5,-30 367.5,-30 367.5,-0 198.5,-0"/>
<text text-anchor="start" x="206.5" y="-18" font-family="Helvetica,sans-Serif" font-size="10.00">turtle.DefaultTurtleImage.create</text>
<text text-anchor="middle" x="283" y="-7" font-family="Helvetica,sans-Serif" font-size="10.00">Turtle</text>
</a>
</g>
</g>
<!-- Node1&#45;&gt;Node2 -->
<g id="edge1" class="edge"><title>Node1&#45;&gt;Node2</title>
<path fill="none" stroke="midnightblue" d="M171.904,-15C180.72,-15 189.642,-15 198.392,-15"/>
<polygon fill="midnightblue" stroke="midnightblue" points="171.62,-11.5001 161.62,-15 171.62,-18.5001 171.62,-11.5001"/>
</g>
<!-- Node3 -->
<g id="node3" class="node"><title>Node3</title>
<g id="a_node3"><a xlink:href="../../d2/d10/classturtle_1_1_default_turtle_image.html#a266806322fad2605ab03e5ee1bef0f55" target="_top" xlink:title="turtle.DefaultTurtleImage.\lDefaultTurtleImage">
<polygon fill="white" stroke="black" points="404,-0 404,-30 542,-30 542,-0 404,-0"/>
<text text-anchor="start" x="412" y="-18" font-family="Helvetica,sans-Serif" font-size="10.00">turtle.DefaultTurtleImage.</text>
<text text-anchor="middle" x="473" y="-7" font-family="Helvetica,sans-Serif" font-size="10.00">DefaultTurtleImage</text>
</a>
</g>
</g>
<!-- Node2&#45;&gt;Node3 -->
<g id="edge2" class="edge"><title>Node2&#45;&gt;Node3</title>
<path fill="none" stroke="midnightblue" d="M377.566,-15C386.45,-15 395.339,-15 403.916,-15"/>
<polygon fill="midnightblue" stroke="midnightblue" points="377.554,-11.5001 367.554,-15 377.554,-18.5001 377.554,-11.5001"/>
</g>
</g>
</svg>
