<?xml version="1.0" encoding="UTF-8" standalone="no"?>
<!DOCTYPE svg PUBLIC "-//W3C//DTD SVG 1.1//EN"
 "http://www.w3.org/Graphics/SVG/1.1/DTD/svg11.dtd">
<!-- Generated by graphviz version 2.36.0 (20140111.2315)
 -->
<!-- Title: turtle.draw.LinearTransition Pages: 1 -->
<svg width="299pt" height="196pt"
 viewBox="0.00 0.00 299.00 196.00" xmlns="http://www.w3.org/2000/svg" xmlns:xlink="http://www.w3.org/1999/xlink">
<g id="graph0" class="graph" transform="scale(1 1) rotate(0) translate(4 192)">
<title>turtle.draw.LinearTransition</title>
<polygon fill="white" stroke="none" points="-4,4 -4,-192 295,-192 295,4 -4,4"/>
<!-- Node1 -->
<g id="node1" class="node"><title>Node1</title>
<polygon fill="#bfbfbf" stroke="black" points="75,-56.5 75,-75.5 219,-75.5 219,-56.5 75,-56.5"/>
<text text-anchor="middle" x="147" y="-63.5" font-family="Helvetica,sans-Serif" font-size="10.00">turtle.draw.LinearTransition</text>
</g>
<!-- Node4 -->
<g id="node4" class="node"><title>Node4</title>
<g id="a_node4"><a xlink:href="../../de/d1a/classturtle_1_1draw_1_1_move_transition.html" target="_top" xlink:title="turtle.draw.MoveTransition">
<polygon fill="white" stroke="black" points="0,-0.5 0,-19.5 140,-19.5 140,-0.5 0,-0.5"/>
<text text-anchor="middle" x="70" y="-7.5" font-family="Helvetica,sans-Serif" font-size="10.00">turtle.draw.MoveTransition</text>
</a>
</g>
</g>
<!-- Node1&#45;&gt;Node4 -->
<g id="edge3" class="edge"><title>Node1&#45;&gt;Node4</title>
<path fill="none" stroke="midnightblue" d="M126.099,-50.3422C112.089,-40.5169 94.117,-27.9132 82.3407,-19.6545"/>
<polygon fill="midnightblue" stroke="midnightblue" points="124.432,-53.4477 134.629,-56.324 128.451,-47.7166 124.432,-53.4477"/>
</g>
<!-- Node5 -->
<g id="node5" class="node"><title>Node5</title>
<g id="a_node5"><a xlink:href="../../d8/dde/classturtle_1_1draw_1_1_pen_transition.html" target="_top" xlink:title="turtle.draw.PenTransition">
<polygon fill="white" stroke="black" points="158.5,-0.5 158.5,-19.5 291.5,-19.5 291.5,-0.5 158.5,-0.5"/>
<text text-anchor="middle" x="225" y="-7.5" font-family="Helvetica,sans-Serif" font-size="10.00">turtle.draw.PenTransition</text>
</a>
</g>
</g>
<!-- Node1&#45;&gt;Node5 -->
<g id="edge4" class="edge"><title>Node1&#45;&gt;Node5</title>
<path fill="none" stroke="midnightblue" d="M167.768,-50.6221C182.017,-40.7574 200.456,-27.9919 212.499,-19.6545"/>
<polygon fill="midnightblue" stroke="midnightblue" points="165.762,-47.7541 159.532,-56.324 169.746,-53.5095 165.762,-47.7541"/>
</g>
<!-- Node2 -->
<g id="node2" class="node"><title>Node2</title>
<g id="a_node2"><a xlink:href="../../dd/d1d/classturtle_1_1draw_1_1_s_logo_transition.html" target="_top" xlink:title="turtle.draw.SLogoTransition">
<polygon fill="white" stroke="black" points="74.5,-112.5 74.5,-131.5 219.5,-131.5 219.5,-112.5 74.5,-112.5"/>
<text text-anchor="middle" x="147" y="-119.5" font-family="Helvetica,sans-Serif" font-size="10.00">turtle.draw.SLogoTransition</text>
</a>
</g>
</g>
<!-- Node2&#45;&gt;Node1 -->
<g id="edge1" class="edge"><title>Node2&#45;&gt;Node1</title>
<path fill="none" stroke="midnightblue" d="M147,-101.805C147,-92.9102 147,-82.7798 147,-75.7511"/>
<polygon fill="midnightblue" stroke="midnightblue" points="143.5,-102.083 147,-112.083 150.5,-102.083 143.5,-102.083"/>
</g>
<!-- Node3 -->
<g id="node3" class="node"><title>Node3</title>
<polygon fill="white" stroke="#bfbfbf" points="116,-168.5 116,-187.5 178,-187.5 178,-168.5 116,-168.5"/>
<text text-anchor="middle" x="147" y="-175.5" font-family="Helvetica,sans-Serif" font-size="10.00">Transition</text>
</g>
<!-- Node3&#45;&gt;Node2 -->
<g id="edge2" class="edge"><title>Node3&#45;&gt;Node2</title>
<path fill="none" stroke="midnightblue" d="M147,-157.805C147,-148.91 147,-138.78 147,-131.751"/>
<polygon fill="midnightblue" stroke="midnightblue" points="143.5,-158.083 147,-168.083 150.5,-158.083 143.5,-158.083"/>
</g>
</g>
</svg>
