<?xml version="1.0" encoding="UTF-8" standalone="no"?>
<!DOCTYPE svg PUBLIC "-//W3C//DTD SVG 1.1//EN"
 "http://www.w3.org/Graphics/SVG/1.1/DTD/svg11.dtd">
<!-- Generated by graphviz version 2.36.0 (20140111.2315)
 -->
<!-- Title: viewcontroller.turtlegrid.GridButtonBar.getAnimationSpeed Pages: 1 -->
<svg width="358pt" height="38pt"
 viewBox="0.00 0.00 358.00 38.00" xmlns="http://www.w3.org/2000/svg" xmlns:xlink="http://www.w3.org/1999/xlink">
<g id="graph0" class="graph" transform="scale(1 1) rotate(0) translate(4 34)">
<title>viewcontroller.turtlegrid.GridButtonBar.getAnimationSpeed</title>
<polygon fill="white" stroke="none" points="-4,4 -4,-34 354,-34 354,4 -4,4"/>
<!-- Node1 -->
<g id="node1" class="node"><title>Node1</title>
<polygon fill="#bfbfbf" stroke="black" points="0,-0 0,-30 182,-30 182,-0 0,-0"/>
<text text-anchor="start" x="8" y="-18" font-family="Helvetica,sans-Serif" font-size="10.00">viewcontroller.turtlegrid.</text>
<text text-anchor="middle" x="91" y="-7" font-family="Helvetica,sans-Serif" font-size="10.00">GridButtonBar.getAnimationSpeed</text>
</g>
<!-- Node2 -->
<g id="node2" class="node"><title>Node2</title>
<g id="a_node2"><a xlink:href="../../d4/d7d/classviewcontroller_1_1turtlegrid_1_1_s_logo_slider.html#a5c5bbec0999c6615e3beeffcf67ae067" target="_top" xlink:title="viewcontroller.turtlegrid.\lSLogoSlider.getValue">
<polygon fill="white" stroke="black" points="218.5,-0 218.5,-30 349.5,-30 349.5,-0 218.5,-0"/>
<text text-anchor="start" x="226.5" y="-18" font-family="Helvetica,sans-Serif" font-size="10.00">viewcontroller.turtlegrid.</text>
<text text-anchor="middle" x="284" y="-7" font-family="Helvetica,sans-Serif" font-size="10.00">SLogoSlider.getValue</text>
</a>
</g>
</g>
<!-- Node1&#45;&gt;Node2 -->
<g id="edge1" class="edge"><title>Node1&#45;&gt;Node2</title>
<path fill="none" stroke="midnightblue" d="M182.187,-15C190.839,-15 199.549,-15 208.033,-15"/>
<polygon fill="midnightblue" stroke="midnightblue" points="208.25,-18.5001 218.25,-15 208.25,-11.5001 208.25,-18.5001"/>
</g>
</g>
</svg>
