<?xml version="1.0" encoding="UTF-8" standalone="no"?>
<!DOCTYPE svg PUBLIC "-//W3C//DTD SVG 1.1//EN"
 "http://www.w3.org/Graphics/SVG/1.1/DTD/svg11.dtd">
<!-- Generated by graphviz version 2.36.0 (20140111.2315)
 -->
<!-- Title: viewcontroller.turtlegrid.GridButtonBar.getPenColor Pages: 1 -->
<svg width="334pt" height="38pt"
 viewBox="0.00 0.00 334.00 38.00" xmlns="http://www.w3.org/2000/svg" xmlns:xlink="http://www.w3.org/1999/xlink">
<g id="graph0" class="graph" transform="scale(1 1) rotate(0) translate(4 34)">
<title>viewcontroller.turtlegrid.GridButtonBar.getPenColor</title>
<polygon fill="white" stroke="none" points="-4,4 -4,-34 330,-34 330,4 -4,4"/>
<!-- Node1 -->
<g id="node1" class="node"><title>Node1</title>
<polygon fill="#bfbfbf" stroke="black" points="0,-0 0,-30 146,-30 146,-0 0,-0"/>
<text text-anchor="start" x="8" y="-18" font-family="Helvetica,sans-Serif" font-size="10.00">viewcontroller.turtlegrid.</text>
<text text-anchor="middle" x="73" y="-7" font-family="Helvetica,sans-Serif" font-size="10.00">GridButtonBar.getPenColor</text>
</g>
<!-- Node2 -->
<g id="node2" class="node"><title>Node2</title>
<g id="a_node2"><a xlink:href="../../db/dbf/classviewcontroller_1_1turtlegrid_1_1_s_logo_color_picker.html#a24bb9b34500f114e800eb96d04fa91ab" target="_top" xlink:title="viewcontroller.turtlegrid.\lSLogoColorPicker.getColor">
<polygon fill="white" stroke="black" points="182.5,-0 182.5,-30 325.5,-30 325.5,-0 182.5,-0"/>
<text text-anchor="start" x="190.5" y="-18" font-family="Helvetica,sans-Serif" font-size="10.00">viewcontroller.turtlegrid.</text>
<text text-anchor="middle" x="254" y="-7" font-family="Helvetica,sans-Serif" font-size="10.00">SLogoColorPicker.getColor</text>
</a>
</g>
</g>
<!-- Node1&#45;&gt;Node2 -->
<g id="edge1" class="edge"><title>Node1&#45;&gt;Node2</title>
<path fill="none" stroke="midnightblue" d="M146.032,-15C154.621,-15 163.433,-15 172.134,-15"/>
<polygon fill="midnightblue" stroke="midnightblue" points="172.279,-18.5001 182.279,-15 172.279,-11.5001 172.279,-18.5001"/>
</g>
</g>
</svg>
