<?xml version="1.0" encoding="UTF-8" standalone="no"?>
<!DOCTYPE svg PUBLIC "-//W3C//DTD SVG 1.1//EN"
 "http://www.w3.org/Graphics/SVG/1.1/DTD/svg11.dtd">
<!-- Generated by graphviz version 2.36.0 (20140111.2315)
 -->
<!-- Title: application.Form.createSubmitButton Pages: 1 -->
<svg width="358pt" height="77pt"
 viewBox="0.00 0.00 358.00 77.00" xmlns="http://www.w3.org/2000/svg" xmlns:xlink="http://www.w3.org/1999/xlink">
<g id="graph0" class="graph" transform="scale(1 1) rotate(0) translate(4 73)">
<title>application.Form.createSubmitButton</title>
<polygon fill="white" stroke="none" points="-4,4 -4,-73 354,-73 354,4 -4,4"/>
<!-- Node1 -->
<g id="node1" class="node"><title>Node1</title>
<polygon fill="#bfbfbf" stroke="black" points="0,-22 0,-52 164,-52 164,-22 0,-22"/>
<text text-anchor="start" x="8" y="-40" font-family="Helvetica,sans-Serif" font-size="10.00">application.Form.createSubmit</text>
<text text-anchor="middle" x="82" y="-29" font-family="Helvetica,sans-Serif" font-size="10.00">Button</text>
</g>
<!-- Node2 -->
<g id="node2" class="node"><title>Node2</title>
<g id="a_node2"><a xlink:href="../../d8/d90/classapplication_1_1_form.html#a1ac739cc4abecfc8d419d238fc4cb1b1" target="_top" xlink:title="application.Form.close">
<polygon fill="white" stroke="black" points="213,-49.5 213,-68.5 337,-68.5 337,-49.5 213,-49.5"/>
<text text-anchor="middle" x="275" y="-56.5" font-family="Helvetica,sans-Serif" font-size="10.00">application.Form.close</text>
</a>
</g>
</g>
<!-- Node1&#45;&gt;Node2 -->
<g id="edge1" class="edge"><title>Node1&#45;&gt;Node2</title>
<path fill="none" stroke="midnightblue" d="M164.001,-46.33C176.918,-47.8178 190.197,-49.3473 202.863,-50.8062"/>
<polygon fill="midnightblue" stroke="midnightblue" points="202.536,-54.2916 212.871,-51.9589 203.337,-47.3376 202.536,-54.2916"/>
</g>
<!-- Node3 -->
<g id="node3" class="node"><title>Node3</title>
<g id="a_node3"><a xlink:href="../../d9/dd7/classviewcontroller_1_1_g_u_i_reference_library.html#ac147f33c0bfa0252d247d7c0174ff688" target="_top" xlink:title="viewcontroller.GUIReference\lLibrary.getStringTranslation">
<polygon fill="white" stroke="black" points="200.5,-0 200.5,-30 349.5,-30 349.5,-0 200.5,-0"/>
<text text-anchor="start" x="208.5" y="-18" font-family="Helvetica,sans-Serif" font-size="10.00">viewcontroller.GUIReference</text>
<text text-anchor="middle" x="275" y="-7" font-family="Helvetica,sans-Serif" font-size="10.00">Library.getStringTranslation</text>
</a>
</g>
</g>
<!-- Node1&#45;&gt;Node3 -->
<g id="edge2" class="edge"><title>Node1&#45;&gt;Node3</title>
<path fill="none" stroke="midnightblue" d="M164.001,-27.67C172.697,-26.6684 181.558,-25.6478 190.285,-24.6425"/>
<polygon fill="midnightblue" stroke="midnightblue" points="190.917,-28.093 200.451,-23.4716 190.116,-21.1389 190.917,-28.093"/>
</g>
</g>
</svg>
