<?xml version="1.0" encoding="UTF-8" standalone="no"?>
<!DOCTYPE svg PUBLIC "-//W3C//DTD SVG 1.1//EN"
 "http://www.w3.org/Graphics/SVG/1.1/DTD/svg11.dtd">
<!-- Generated by graphviz version 2.36.0 (20140111.2315)
 -->
<!-- Title: application.Form.Form Pages: 1 -->
<svg width="528pt" height="116pt"
 viewBox="0.00 0.00 528.00 116.00" xmlns="http://www.w3.org/2000/svg" xmlns:xlink="http://www.w3.org/1999/xlink">
<g id="graph0" class="graph" transform="scale(1 1) rotate(0) translate(4 112)">
<title>application.Form.Form</title>
<polygon fill="white" stroke="none" points="-4,4 -4,-112 524,-112 524,4 -4,4"/>
<!-- Node1 -->
<g id="node1" class="node"><title>Node1</title>
<polygon fill="#bfbfbf" stroke="black" points="0,-44.5 0,-63.5 124,-63.5 124,-44.5 0,-44.5"/>
<text text-anchor="middle" x="62" y="-51.5" font-family="Helvetica,sans-Serif" font-size="10.00">application.Form.Form</text>
</g>
<!-- Node2 -->
<g id="node2" class="node"><title>Node2</title>
<g id="a_node2"><a xlink:href="../../d8/d90/classapplication_1_1_form.html#a175fe4a109d736690e967bc2a8f4896a" target="_top" xlink:title="application.Form.createFormBox">
<polygon fill="white" stroke="black" points="160.5,-88.5 160.5,-107.5 333.5,-107.5 333.5,-88.5 160.5,-88.5"/>
<text text-anchor="middle" x="247" y="-95.5" font-family="Helvetica,sans-Serif" font-size="10.00">application.Form.createFormBox</text>
</a>
</g>
</g>
<!-- Node1&#45;&gt;Node2 -->
<g id="edge1" class="edge"><title>Node1&#45;&gt;Node2</title>
<path fill="none" stroke="midnightblue" d="M101.208,-63.585C119.056,-68.0286 140.6,-73.3445 160,-78 171.183,-80.6836 183.197,-83.512 194.595,-86.1698"/>
<polygon fill="midnightblue" stroke="midnightblue" points="193.884,-89.5977 204.417,-88.4537 195.469,-82.7796 193.884,-89.5977"/>
</g>
<!-- Node3 -->
<g id="node3" class="node"><title>Node3</title>
<g id="a_node3"><a xlink:href="../../d8/d90/classapplication_1_1_form.html#aacf42dc602edfa66ccacdf0941399abe" target="_top" xlink:title="application.Form.createSubmit\lButton">
<polygon fill="white" stroke="black" points="165,-39 165,-69 329,-69 329,-39 165,-39"/>
<text text-anchor="start" x="173" y="-57" font-family="Helvetica,sans-Serif" font-size="10.00">application.Form.createSubmit</text>
<text text-anchor="middle" x="247" y="-46" font-family="Helvetica,sans-Serif" font-size="10.00">Button</text>
</a>
</g>
</g>
<!-- Node1&#45;&gt;Node3 -->
<g id="edge2" class="edge"><title>Node1&#45;&gt;Node3</title>
<path fill="none" stroke="midnightblue" d="M124.191,-54C133.932,-54 144.19,-54 154.448,-54"/>
<polygon fill="midnightblue" stroke="midnightblue" points="154.688,-57.5001 164.688,-54 154.688,-50.5001 154.688,-57.5001"/>
</g>
<!-- Node6 -->
<g id="node6" class="node"><title>Node6</title>
<g id="a_node6"><a xlink:href="../../d8/d90/classapplication_1_1_form.html#a0fefe994c100ebb549e03cd745e13690" target="_top" xlink:title="application.Form.createTitle">
<polygon fill="white" stroke="black" points="172.5,-0.5 172.5,-19.5 321.5,-19.5 321.5,-0.5 172.5,-0.5"/>
<text text-anchor="middle" x="247" y="-7.5" font-family="Helvetica,sans-Serif" font-size="10.00">application.Form.createTitle</text>
</a>
</g>
</g>
<!-- Node1&#45;&gt;Node6 -->
<g id="edge5" class="edge"><title>Node1&#45;&gt;Node6</title>
<path fill="none" stroke="midnightblue" d="M101.208,-44.415C119.056,-39.9714 140.6,-34.6555 160,-30 171.183,-27.3164 183.197,-24.488 194.595,-21.8302"/>
<polygon fill="midnightblue" stroke="midnightblue" points="195.469,-25.2204 204.417,-19.5463 193.884,-18.4023 195.469,-25.2204"/>
</g>
<!-- Node4 -->
<g id="node4" class="node"><title>Node4</title>
<g id="a_node4"><a xlink:href="../../d9/dd7/classviewcontroller_1_1_g_u_i_reference_library.html#ac147f33c0bfa0252d247d7c0174ff688" target="_top" xlink:title="viewcontroller.GUIReference\lLibrary.getStringTranslation">
<polygon fill="white" stroke="black" points="370.5,-61 370.5,-91 519.5,-91 519.5,-61 370.5,-61"/>
<text text-anchor="start" x="378.5" y="-79" font-family="Helvetica,sans-Serif" font-size="10.00">viewcontroller.GUIReference</text>
<text text-anchor="middle" x="445" y="-68" font-family="Helvetica,sans-Serif" font-size="10.00">Library.getStringTranslation</text>
</a>
</g>
</g>
<!-- Node3&#45;&gt;Node4 -->
<g id="edge3" class="edge"><title>Node3&#45;&gt;Node4</title>
<path fill="none" stroke="midnightblue" d="M329.136,-63.107C339.404,-64.2596 349.926,-65.4407 360.235,-66.5978"/>
<polygon fill="midnightblue" stroke="midnightblue" points="360.126,-70.1074 370.454,-67.7448 360.907,-63.1511 360.126,-70.1074"/>
</g>
<!-- Node5 -->
<g id="node5" class="node"><title>Node5</title>
<g id="a_node5"><a xlink:href="../../d8/d90/classapplication_1_1_form.html#a1ac739cc4abecfc8d419d238fc4cb1b1" target="_top" xlink:title="application.Form.close">
<polygon fill="white" stroke="black" points="383,-22.5 383,-41.5 507,-41.5 507,-22.5 383,-22.5"/>
<text text-anchor="middle" x="445" y="-29.5" font-family="Helvetica,sans-Serif" font-size="10.00">application.Form.close</text>
</a>
</g>
</g>
<!-- Node3&#45;&gt;Node5 -->
<g id="edge4" class="edge"><title>Node3&#45;&gt;Node5</title>
<path fill="none" stroke="midnightblue" d="M329.136,-44.893C343.627,-43.2664 358.626,-41.5828 372.812,-39.9905"/>
<polygon fill="midnightblue" stroke="midnightblue" points="373.433,-43.4429 382.98,-38.8492 372.652,-36.4866 373.433,-43.4429"/>
</g>
</g>
</svg>
