<?xml version="1.0" encoding="UTF-8" standalone="no"?>
<!DOCTYPE svg PUBLIC "-//W3C//DTD SVG 1.1//EN"
 "http://www.w3.org/Graphics/SVG/1.1/DTD/svg11.dtd">
<!-- Generated by graphviz version 2.36.0 (20140111.2315)
 -->
<!-- Title: viewcontroller.turtlegrid.SLogoSlider Pages: 1 -->
<svg width="217pt" height="178pt"
 viewBox="0.00 0.00 217.00 178.00" xmlns="http://www.w3.org/2000/svg" xmlns:xlink="http://www.w3.org/1999/xlink">
<g id="graph0" class="graph" transform="scale(1 1) rotate(0) translate(4 174)">
<title>viewcontroller.turtlegrid.SLogoSlider</title>
<polygon fill="white" stroke="none" points="-4,4 -4,-174 213,-174 213,4 -4,4"/>
<!-- Node1 -->
<g id="node1" class="node"><title>Node1</title>
<polygon fill="#bfbfbf" stroke="black" points="78.5,-1 78.5,-31 209.5,-31 209.5,-1 78.5,-1"/>
<text text-anchor="start" x="86.5" y="-19" font-family="Helvetica,sans-Serif" font-size="10.00">viewcontroller.turtlegrid.</text>
<text text-anchor="middle" x="144" y="-8" font-family="Helvetica,sans-Serif" font-size="10.00">SLogoSlider</text>
</g>
<!-- Node2 -->
<g id="node2" class="node"><title>Node2</title>
<g id="a_node2"><a xlink:href="../../d7/d11/classviewcontroller_1_1turtlegrid_1_1_s_logo_labeled_container.html" target="_top" xlink:title="viewcontroller.turtlegrid.\lSLogoLabeledContainer">
<polygon fill="white" stroke="black" points="-0.5,-81 -0.5,-111 130.5,-111 130.5,-81 -0.5,-81"/>
<text text-anchor="start" x="7.5" y="-99" font-family="Helvetica,sans-Serif" font-size="10.00">viewcontroller.turtlegrid.</text>
<text text-anchor="middle" x="65" y="-88" font-family="Helvetica,sans-Serif" font-size="10.00">SLogoLabeledContainer</text>
</a>
</g>
</g>
<!-- Node2&#45;&gt;Node1 -->
<g id="edge1" class="edge"><title>Node2&#45;&gt;Node1</title>
<path fill="none" stroke="midnightblue" d="M86.6557,-73.6185C100.324,-60.123 117.602,-43.0639 129.602,-31.2157"/>
<polygon fill="midnightblue" stroke="midnightblue" points="84.1467,-71.1771 79.4898,-80.6936 89.0649,-76.1583 84.1467,-71.1771"/>
</g>
<!-- Node3 -->
<g id="node3" class="node"><title>Node3</title>
<polygon fill="white" stroke="#bfbfbf" points="44,-150.5 44,-169.5 86,-169.5 86,-150.5 44,-150.5"/>
<text text-anchor="middle" x="65" y="-157.5" font-family="Helvetica,sans-Serif" font-size="10.00">HBox</text>
</g>
<!-- Node3&#45;&gt;Node2 -->
<g id="edge2" class="edge"><title>Node3&#45;&gt;Node2</title>
<path fill="none" stroke="midnightblue" d="M65,-140.183C65,-130.886 65,-119.851 65,-111.263"/>
<polygon fill="midnightblue" stroke="midnightblue" points="61.5001,-140.379 65,-150.379 68.5001,-140.379 61.5001,-140.379"/>
</g>
<!-- Node4 -->
<g id="node4" class="node"><title>Node4</title>
<polygon fill="white" stroke="#bfbfbf" points="149,-86.5 149,-105.5 193,-105.5 193,-86.5 149,-86.5"/>
<text text-anchor="middle" x="171" y="-93.5" font-family="Helvetica,sans-Serif" font-size="10.00">Slider</text>
</g>
<!-- Node4&#45;&gt;Node1 -->
<g id="edge3" class="edge"><title>Node4&#45;&gt;Node1</title>
<path fill="none" stroke="#9a32cd" stroke-dasharray="5,2" d="M164.73,-76.8856C159.917,-62.9816 153.365,-44.054 148.925,-31.227"/>
<polygon fill="#9a32cd" stroke="#9a32cd" points="161.429,-78.0497 168.007,-86.3546 168.044,-75.7598 161.429,-78.0497"/>
<text text-anchor="middle" x="183" y="-53.5" font-family="Helvetica,sans-Serif" font-size="10.00"> mySlider</text>
</g>
</g>
</svg>
