<?xml version="1.0" encoding="UTF-8" standalone="no"?>
<!DOCTYPE svg PUBLIC "-//W3C//DTD SVG 1.1//EN"
 "http://www.w3.org/Graphics/SVG/1.1/DTD/svg11.dtd">
<!-- Generated by graphviz version 2.36.0 (20140111.2315)
 -->
<!-- Title: viewcontroller.turtlegrid.TurtleStatusViewController Pages: 1 -->
<!--zoomable 188 -->
<svg id="main" version="1.1" xmlns="http://www.w3.org/2000/svg" xmlns:xlink="http://www.w3.org/1999/xlink" xml:space="preserve" onload="init(evt)">
<style type="text/css"><![CDATA[
.edge:hover path { stroke: red; }
.edge:hover polygon { stroke: red; fill: red; }
]]></style>
<script type="text/javascript"><![CDATA[
var edges = document.getElementsByTagName('g');
if (edges && edges.length) {
  for (var i=0;i<edges.length;i++) {
    if (edges[i].id.substr(0,4)=='edge') {
      edges[i].setAttribute('class','edge');
    }
  }
}
]]></script>
        <defs>
                <circle id="rim" cx="0" cy="0" r="7"/>
                <circle id="rim2" cx="0" cy="0" r="3.5"/>
                <g id="zoomPlus">
                        <use xlink:href="#rim" fill="#404040">
                                <set attributeName="fill" to="#808080" begin="zoomplus.mouseover" end="zoomplus.mouseout"/>
                        </use>
                        <path d="M-4,0h8M0,-4v8" fill="none" stroke="white" stroke-width="1.5" pointer-events="none"/>
                </g>
                <g id="zoomMin">
                        <use xlink:href="#rim" fill="#404040">
                                <set attributeName="fill" to="#808080" begin="zoomminus.mouseover" end="zoomminus.mouseout"/>
                        </use>
                        <path d="M-4,0h8" fill="none" stroke="white" stroke-width="1.5" pointer-events="none"/>
                </g>
                <g id="dirArrow">
                        <path fill="none" stroke="white" stroke-width="1.5" d="M0,-3.0v7 M-2.5,-0.5L0,-3.0L2.5,-0.5"/>
                </g>
               <g id="resetDef">
                       <use xlink:href="#rim2" fill="#404040">
                               <set attributeName="fill" to="#808080" begin="reset.mouseover" end="reset.mouseout"/>
                       </use>
               </g>
        </defs>

<script type="text/javascript">
var viewWidth = 782;
var viewHeight = 188;
var sectionId = 'dynsection-1';
</script>
<script xlink:href="../../svgpan.js"/>
<svg id="graph" class="graph">
<g id="viewport">
<title>viewcontroller.turtlegrid.TurtleStatusViewController</title>
<polygon fill="white" stroke="none" points="-4,4 -4,-184 778,-184 778,4 -4,4"/>
<!-- Node1 -->
<g id="node1" class="node"><title>Node1</title>
<polygon fill="#bfbfbf" stroke="black" points="632,-57 632,-87 774,-87 774,-57 632,-57"/>
<text text-anchor="start" x="640" y="-75" font-family="Helvetica,sans-Serif" font-size="10.00">viewcontroller.turtlegrid.</text>
<text text-anchor="middle" x="703" y="-64" font-family="Helvetica,sans-Serif" font-size="10.00">TurtleStatusViewController</text>
</g>
<!-- Node2 -->
<g id="node2" class="node"><title>Node2</title>
<g id="a_node2"><a xlink:href="../../d8/d68/classviewcontroller_1_1commands_1_1_command_window_view_controller.html" target="_top" xlink:title="viewcontroller.commands.\lCommandWindowViewController">
<polygon fill="white" stroke="black" points="346,-88 346,-118 516,-118 516,-88 346,-88"/>
<text text-anchor="start" x="354" y="-106" font-family="Helvetica,sans-Serif" font-size="10.00">viewcontroller.commands.</text>
<text text-anchor="middle" x="431" y="-95" font-family="Helvetica,sans-Serif" font-size="10.00">CommandWindowViewController</text>
</a>
</g>
</g>
<!-- Node2&#45;&gt;Node1 -->
<g id="edge1" class="edge"><title>Node2&#45;&gt;Node1</title>
<path fill="none" stroke="midnightblue" d="M526.463,-92.1542C561.139,-88.1729 599.749,-83.74 631.908,-80.0476"/>
<polygon fill="midnightblue" stroke="midnightblue" points="525.855,-88.701 516.319,-93.3189 526.653,-95.6553 525.855,-88.701"/>
</g>
<!-- Node3 -->
<g id="node3" class="node"><title>Node3</title>
<g id="a_node3"><a xlink:href="../../d4/deb/interfaceviewcontroller_1_1_view_controller.html" target="_top" xlink:title="viewcontroller.ViewController">
<polygon fill="white" stroke="black" points="0,-118.5 0,-137.5 152,-137.5 152,-118.5 0,-118.5"/>
<text text-anchor="middle" x="76" y="-125.5" font-family="Helvetica,sans-Serif" font-size="10.00">viewcontroller.ViewController</text>
</a>
</g>
</g>
<!-- Node3&#45;&gt;Node2 -->
<g id="edge2" class="edge"><title>Node3&#45;&gt;Node2</title>
<path fill="none" stroke="midnightblue" d="M162.488,-121.946C218.157,-118.003 290.455,-112.883 345.854,-108.959"/>
<polygon fill="midnightblue" stroke="midnightblue" points="162.022,-118.47 152.294,-122.668 162.517,-125.452 162.022,-118.47"/>
</g>
<!-- Node4 -->
<g id="node4" class="node"><title>Node4</title>
<polygon fill="white" stroke="#bfbfbf" points="55.5,-160.5 55.5,-179.5 96.5,-179.5 96.5,-160.5 55.5,-160.5"/>
<text text-anchor="middle" x="76" y="-167.5" font-family="Helvetica,sans-Serif" font-size="10.00">VBox</text>
</g>
<!-- Node4&#45;&gt;Node1 -->
<g id="edge8" class="edge"><title>Node4&#45;&gt;Node1</title>
<path fill="none" stroke="#9a32cd" stroke-dasharray="5,2" d="M106.702,-170.306C153.78,-170.483 248.364,-169.584 328,-161 412.422,-151.9 433.032,-145.061 516,-127 559.922,-117.439 570.916,-114.818 614,-102 629.162,-97.4894 645.611,-92.0358 660.141,-87.0223"/>
<polygon fill="#9a32cd" stroke="#9a32cd" points="106.615,-166.806 96.5953,-170.248 106.575,-173.806 106.615,-166.806"/>
<text text-anchor="middle" x="431" y="-162" font-family="Helvetica,sans-Serif" font-size="10.00"> myListVerticalBox</text>
</g>
<!-- Node4&#45;&gt;Node2 -->
<g id="edge3" class="edge"><title>Node4&#45;&gt;Node2</title>
<path fill="none" stroke="#9a32cd" stroke-dasharray="5,2" d="M106.28,-163.175C124.543,-159.049 148.569,-153.86 170,-150 239.839,-137.422 258.286,-140.25 328,-127 341.672,-124.401 356.281,-121.213 370.047,-118.019"/>
<polygon fill="#9a32cd" stroke="#9a32cd" points="105.49,-159.765 96.5189,-165.402 107.047,-166.59 105.49,-159.765"/>
<text text-anchor="middle" x="249" y="-153" font-family="Helvetica,sans-Serif" font-size="10.00"> myCommandWindowVerticalBox</text>
</g>
<!-- Node5 -->
<g id="node5" class="node"><title>Node5</title>
<polygon fill="white" stroke="#bfbfbf" points="55,-42.5 55,-61.5 97,-61.5 97,-42.5 55,-42.5"/>
<text text-anchor="middle" x="76" y="-49.5" font-family="Helvetica,sans-Serif" font-size="10.00">Label</text>
</g>
<!-- Node5&#45;&gt;Node2 -->
<g id="edge4" class="edge"><title>Node5&#45;&gt;Node2</title>
<path fill="none" stroke="#9a32cd" stroke-dasharray="5,2" d="M107.224,-52.5578C154.642,-53.8737 249.241,-58.2805 328,-73 330.846,-73.532 355.416,-80.7522 379.725,-87.9753"/>
<polygon fill="#9a32cd" stroke="#9a32cd" points="107.116,-49.0541 97.0315,-52.3031 106.941,-56.0519 107.116,-49.0541"/>
<text text-anchor="middle" x="249" y="-76" font-family="Helvetica,sans-Serif" font-size="10.00"> myTitleLabel</text>
</g>
<!-- Node6 -->
<g id="node6" class="node"><title>Node6</title>
<polygon fill="white" stroke="#bfbfbf" points="42,-4.5 42,-23.5 110,-23.5 110,-4.5 42,-4.5"/>
<text text-anchor="middle" x="76" y="-11.5" font-family="Helvetica,sans-Serif" font-size="10.00">Dimension</text>
</g>
<!-- Node6&#45;&gt;Node2 -->
<g id="edge5" class="edge"><title>Node6&#45;&gt;Node2</title>
<path fill="none" stroke="#9a32cd" stroke-dasharray="5,2" d="M120.387,-6.81651C174.186,-0.367818 266.313,2.35254 328,-41 342.962,-51.5149 332.056,-66.1682 346,-78 350.525,-81.8393 355.62,-85.0891 361.008,-87.8398"/>
<polygon fill="#9a32cd" stroke="#9a32cd" points="119.626,-3.38592 110.159,-8.14342 120.526,-10.3277 119.626,-3.38592"/>
<text text-anchor="middle" x="249" y="-44" font-family="Helvetica,sans-Serif" font-size="10.00"> SIZE</text>
</g>
<!-- Node7 -->
<g id="node7" class="node"><title>Node7</title>
<polygon fill="white" stroke="#bfbfbf" points="40,-80.5 40,-99.5 112,-99.5 112,-80.5 40,-80.5"/>
<text text-anchor="middle" x="76" y="-87.5" font-family="Helvetica,sans-Serif" font-size="10.00">BorderPane</text>
</g>
<!-- Node7&#45;&gt;Node2 -->
<g id="edge6" class="edge"><title>Node7&#45;&gt;Node2</title>
<path fill="none" stroke="#9a32cd" stroke-dasharray="5,2" d="M122.596,-88.6354C172.929,-87.4892 256.326,-86.6551 328,-91 333.784,-91.3506 339.744,-91.8057 345.741,-92.3329"/>
<polygon fill="#9a32cd" stroke="#9a32cd" points="122.285,-85.1418 112.373,-88.8829 122.455,-92.1397 122.285,-85.1418"/>
<text text-anchor="middle" x="249" y="-94" font-family="Helvetica,sans-Serif" font-size="10.00"> myPane</text>
</g>
<!-- Node8 -->
<g id="node8" class="node"><title>Node8</title>
<g id="a_node8"><a xlink:href="../../d1/d41/interfaceviewcontroller_1_1_main_model_observer.html" target="_top" xlink:title="viewcontroller.MainModel\lObserver">
<polygon fill="white" stroke="black" points="363.5,-39 363.5,-69 498.5,-69 498.5,-39 363.5,-39"/>
<text text-anchor="start" x="371.5" y="-57" font-family="Helvetica,sans-Serif" font-size="10.00">viewcontroller.MainModel</text>
<text text-anchor="middle" x="431" y="-46" font-family="Helvetica,sans-Serif" font-size="10.00">Observer</text>
</a>
</g>
</g>
<!-- Node8&#45;&gt;Node1 -->
<g id="edge7" class="edge"><title>Node8&#45;&gt;Node1</title>
<path fill="none" stroke="midnightblue" d="M508.907,-59.1271C547.572,-61.7048 594.094,-64.8063 631.785,-67.319"/>
<polygon fill="midnightblue" stroke="midnightblue" points="508.952,-55.6225 498.742,-58.4494 508.487,-62.607 508.952,-55.6225"/>
</g>
<!-- Node9 -->
<g id="node9" class="node"><title>Node9</title>
<polygon fill="white" stroke="#bfbfbf" points="410,-0.5 410,-19.5 452,-19.5 452,-0.5 410,-0.5"/>
<text text-anchor="middle" x="431" y="-7.5" font-family="Helvetica,sans-Serif" font-size="10.00">HBox</text>
</g>
<!-- Node9&#45;&gt;Node1 -->
<g id="edge9" class="edge"><title>Node9&#45;&gt;Node1</title>
<path fill="none" stroke="#9a32cd" stroke-dasharray="5,2" d="M461.985,-11.7114C498.458,-14.3402 561.644,-20.6643 614,-35 633.821,-40.4273 655.087,-49.2778 671.748,-56.9619"/>
<polygon fill="#9a32cd" stroke="#9a32cd" points="462.214,-8.21896 452.001,-11.0367 461.742,-15.203 462.214,-8.21896"/>
<text text-anchor="middle" x="574" y="-49" font-family="Helvetica,sans-Serif" font-size="10.00"> myColumnTitles</text>
<text text-anchor="middle" x="574" y="-38" font-family="Helvetica,sans-Serif" font-size="10.00">myTurtleData</text>
</g>
</g>
</svg>
        <g id="navigator" transform="translate(0 0)" fill="#404254">
                <rect fill="#f2f5e9" fill-opacity="0.5" stroke="#606060" stroke-width=".5" x="0" y="0" width="60" height="60"/>
                <use id="zoomplus" xlink:href="#zoomPlus" x="17" y="9" onmousedown="handleZoom(evt,'in')"/>
                <use id="zoomminus" xlink:href="#zoomMin" x="42" y="9" onmousedown="handleZoom(evt,'out')"/>
                <use id="reset" xlink:href="#resetDef" x="30" y="36" onmousedown="handleReset()"/>
                <g id="arrowUp" xlink:href="#dirArrow" transform="translate(30 24)" onmousedown="handlePan(0,-1)">
                  <use xlink:href="#rim" fill="#404040">
                        <set attributeName="fill" to="#808080" begin="arrowUp.mouseover" end="arrowUp.mouseout"/>
                  </use>
                  <path fill="none" stroke="white" stroke-width="1.5" d="M0,-3.0v7 M-2.5,-0.5L0,-3.0L2.5,-0.5"/>
                </g>
                <g id="arrowRight" xlink:href="#dirArrow" transform="rotate(90) translate(36 -43)" onmousedown="handlePan(1,0)">
                  <use xlink:href="#rim" fill="#404040">
                        <set attributeName="fill" to="#808080" begin="arrowRight.mouseover" end="arrowRight.mouseout"/>
                  </use>
                  <path fill="none" stroke="white" stroke-width="1.5" d="M0,-3.0v7 M-2.5,-0.5L0,-3.0L2.5,-0.5"/>
                </g>
                <g id="arrowDown" xlink:href="#dirArrow" transform="rotate(180) translate(-30 -48)" onmousedown="handlePan(0,1)">
                  <use xlink:href="#rim" fill="#404040">
                        <set attributeName="fill" to="#808080" begin="arrowDown.mouseover" end="arrowDown.mouseout"/>
                  </use>
                  <path fill="none" stroke="white" stroke-width="1.5" d="M0,-3.0v7 M-2.5,-0.5L0,-3.0L2.5,-0.5"/>
                </g>
                <g id="arrowLeft" xlink:href="#dirArrow" transform="rotate(270) translate(-36 17)" onmousedown="handlePan(-1,0)">
                  <use xlink:href="#rim" fill="#404040">
                        <set attributeName="fill" to="#808080" begin="arrowLeft.mouseover" end="arrowLeft.mouseout"/>
                  </use>
                  <path fill="none" stroke="white" stroke-width="1.5" d="M0,-3.0v7 M-2.5,-0.5L0,-3.0L2.5,-0.5"/>
                </g>
        </g>
        <svg viewBox="0 0 15 15" width="100%" height="30px" preserveAspectRatio="xMaxYMin meet">
         <g id="arrow_out" transform="scale(0.3 0.3)">
          <a xlink:href="classviewcontroller_1_1turtlegrid_1_1_turtle_status_view_controller__coll__graph_org.svg" target="_base">
           <rect id="button" ry="5" rx="5" y="6" x="6" height="38" width="38"
                fill="#f2f5e9" fill-opacity="0.5" stroke="#606060" stroke-width="1.0"/>
           <path id="arrow"
             d="M 11.500037,31.436501 C 11.940474,20.09759 22.043105,11.32322 32.158766,21.979434 L 37.068811,17.246167 C 37.068811,17.246167 37.088388,32 37.088388,32 L 22.160133,31.978069 C 22.160133,31.978069 26.997745,27.140456 26.997745,27.140456 C 18.528582,18.264221 13.291696,25.230495 11.500037,31.436501 z"
             style="fill:#404040;"/>
          </a>
         </g>
        </svg>
</svg>
