<?xml version="1.0" encoding="UTF-8" standalone="no"?>
<!DOCTYPE svg PUBLIC "-//W3C//DTD SVG 1.1//EN"
 "http://www.w3.org/Graphics/SVG/1.1/DTD/svg11.dtd">
<!-- Generated by graphviz version 2.36.0 (20140111.2315)
 -->
<!-- Title: interpreter.expression.TurtleCommandExpression Pages: 1 -->
<svg width="596pt" height="556pt"
 viewBox="0.00 0.00 596.00 556.00" xmlns="http://www.w3.org/2000/svg" xmlns:xlink="http://www.w3.org/1999/xlink">
<g id="graph0" class="graph" transform="scale(1 1) rotate(0) translate(4 552)">
<title>interpreter.expression.TurtleCommandExpression</title>
<polygon fill="white" stroke="none" points="-4,4 -4,-552 592,-552 592,4 -4,4"/>
<!-- Node1 -->
<g id="node1" class="node"><title>Node1</title>
<polygon fill="#bfbfbf" stroke="black" points="192,-269 192,-299 342,-299 342,-269 192,-269"/>
<text text-anchor="start" x="200" y="-287" font-family="Helvetica,sans-Serif" font-size="10.00">interpreter.expression.Turtle</text>
<text text-anchor="middle" x="267" y="-276" font-family="Helvetica,sans-Serif" font-size="10.00">CommandExpression</text>
</g>
<!-- Node3 -->
<g id="node3" class="node"><title>Node3</title>
<g id="a_node3"><a xlink:href="../../d2/d45/classinterpreter_1_1expression_1_1singleturtle_1_1_backward.html" target="_top" xlink:title="interpreter.expression.singleturtle.\lBackward">
<polygon fill="white" stroke="black" points="392.5,-518 392.5,-548 573.5,-548 573.5,-518 392.5,-518"/>
<text text-anchor="start" x="400.5" y="-536" font-family="Helvetica,sans-Serif" font-size="10.00">interpreter.expression.singleturtle.</text>
<text text-anchor="middle" x="483" y="-525" font-family="Helvetica,sans-Serif" font-size="10.00">Backward</text>
</a>
</g>
</g>
<!-- Node1&#45;&gt;Node3 -->
<g id="edge2" class="edge"><title>Node1&#45;&gt;Node3</title>
<path fill="none" stroke="midnightblue" d="M272.928,-308.884C283.502,-355.479 312.893,-455.875 378,-508 382.856,-511.888 388.222,-515.187 393.882,-517.983"/>
<polygon fill="midnightblue" stroke="midnightblue" points="276.33,-308.056 270.792,-299.023 269.489,-309.538 276.33,-308.056"/>
</g>
<!-- Node4 -->
<g id="node4" class="node"><title>Node4</title>
<g id="a_node4"><a xlink:href="../../db/dc9/classinterpreter_1_1expression_1_1singleturtle_1_1_forward.html" target="_top" xlink:title="interpreter.expression.singleturtle.\lForward">
<polygon fill="white" stroke="black" points="392.5,-469 392.5,-499 573.5,-499 573.5,-469 392.5,-469"/>
<text text-anchor="start" x="400.5" y="-487" font-family="Helvetica,sans-Serif" font-size="10.00">interpreter.expression.singleturtle.</text>
<text text-anchor="middle" x="483" y="-476" font-family="Helvetica,sans-Serif" font-size="10.00">Forward</text>
</a>
</g>
</g>
<!-- Node1&#45;&gt;Node4 -->
<g id="edge3" class="edge"><title>Node1&#45;&gt;Node4</title>
<path fill="none" stroke="midnightblue" d="M276.656,-309.06C291.27,-347.514 324.58,-420.639 378,-459 383.43,-462.899 389.39,-466.196 395.622,-468.983"/>
<polygon fill="midnightblue" stroke="midnightblue" points="279.763,-307.37 273.028,-299.192 273.193,-309.785 279.763,-307.37"/>
</g>
<!-- Node5 -->
<g id="node5" class="node"><title>Node5</title>
<g id="a_node5"><a xlink:href="../../db/d12/classinterpreter_1_1expression_1_1singleturtle_1_1_hide_turtle.html" target="_top" xlink:title="interpreter.expression.singleturtle.\lHideTurtle">
<polygon fill="white" stroke="black" points="392.5,-420 392.5,-450 573.5,-450 573.5,-420 392.5,-420"/>
<text text-anchor="start" x="400.5" y="-438" font-family="Helvetica,sans-Serif" font-size="10.00">interpreter.expression.singleturtle.</text>
<text text-anchor="middle" x="483" y="-427" font-family="Helvetica,sans-Serif" font-size="10.00">HideTurtle</text>
</a>
</g>
</g>
<!-- Node1&#45;&gt;Node5 -->
<g id="edge4" class="edge"><title>Node1&#45;&gt;Node5</title>
<path fill="none" stroke="midnightblue" d="M282.136,-307.717C300.533,-336.453 335.415,-384.212 378,-410 384.433,-413.896 391.434,-417.184 398.661,-419.961"/>
<polygon fill="midnightblue" stroke="midnightblue" points="285.023,-305.731 276.754,-299.108 279.087,-309.442 285.023,-305.731"/>
</g>
<!-- Node6 -->
<g id="node6" class="node"><title>Node6</title>
<g id="a_node6"><a xlink:href="../../d9/da5/classinterpreter_1_1expression_1_1singleturtle_1_1_home.html" target="_top" xlink:title="interpreter.expression.singleturtle.Home">
<polygon fill="white" stroke="black" points="378,-381.5 378,-400.5 588,-400.5 588,-381.5 378,-381.5"/>
<text text-anchor="middle" x="483" y="-388.5" font-family="Helvetica,sans-Serif" font-size="10.00">interpreter.expression.singleturtle.Home</text>
</a>
</g>
</g>
<!-- Node1&#45;&gt;Node6 -->
<g id="edge5" class="edge"><title>Node1&#45;&gt;Node6</title>
<path fill="none" stroke="midnightblue" d="M289.325,-306.524C310.005,-326.935 343.271,-356.168 378,-372 386.517,-375.883 395.769,-378.973 405.124,-381.431"/>
<polygon fill="midnightblue" stroke="midnightblue" points="291.566,-303.814 282.038,-299.179 286.597,-308.744 291.566,-303.814"/>
</g>
<!-- Node7 -->
<g id="node7" class="node"><title>Node7</title>
<g id="a_node7"><a xlink:href="../../d3/d94/classinterpreter_1_1expression_1_1singleturtle_1_1_left.html" target="_top" xlink:title="interpreter.expression.singleturtle.Left">
<polygon fill="white" stroke="black" points="383.5,-343.5 383.5,-362.5 582.5,-362.5 582.5,-343.5 383.5,-343.5"/>
<text text-anchor="middle" x="483" y="-350.5" font-family="Helvetica,sans-Serif" font-size="10.00">interpreter.expression.singleturtle.Left</text>
</a>
</g>
</g>
<!-- Node1&#45;&gt;Node7 -->
<g id="edge6" class="edge"><title>Node1&#45;&gt;Node7</title>
<path fill="none" stroke="midnightblue" d="M306.286,-303.657C327.056,-313.65 353.44,-325.281 378,-333 391.331,-337.19 405.912,-340.655 419.827,-343.456"/>
<polygon fill="midnightblue" stroke="midnightblue" points="307.686,-300.446 297.164,-299.201 304.613,-306.735 307.686,-300.446"/>
</g>
<!-- Node8 -->
<g id="node8" class="node"><title>Node8</title>
<g id="a_node8"><a xlink:href="../../d8/dee/classinterpreter_1_1expression_1_1singleturtle_1_1_pen_down.html" target="_top" xlink:title="interpreter.expression.singleturtle.\lPenDown">
<polygon fill="white" stroke="black" points="392.5,-294 392.5,-324 573.5,-324 573.5,-294 392.5,-294"/>
<text text-anchor="start" x="400.5" y="-312" font-family="Helvetica,sans-Serif" font-size="10.00">interpreter.expression.singleturtle.</text>
<text text-anchor="middle" x="483" y="-301" font-family="Helvetica,sans-Serif" font-size="10.00">PenDown</text>
</a>
</g>
</g>
<!-- Node1&#45;&gt;Node8 -->
<g id="edge7" class="edge"><title>Node1&#45;&gt;Node8</title>
<path fill="none" stroke="midnightblue" d="M352.226,-293.84C365.419,-295.381 379.097,-296.979 392.405,-298.533"/>
<polygon fill="midnightblue" stroke="midnightblue" points="352.585,-290.358 342.246,-292.674 351.773,-297.31 352.585,-290.358"/>
</g>
<!-- Node9 -->
<g id="node9" class="node"><title>Node9</title>
<g id="a_node9"><a xlink:href="../../d1/de9/classinterpreter_1_1expression_1_1singleturtle_1_1_pen_up.html" target="_top" xlink:title="interpreter.expression.singleturtle.\lPenUp">
<polygon fill="white" stroke="black" points="392.5,-245 392.5,-275 573.5,-275 573.5,-245 392.5,-245"/>
<text text-anchor="start" x="400.5" y="-263" font-family="Helvetica,sans-Serif" font-size="10.00">interpreter.expression.singleturtle.</text>
<text text-anchor="middle" x="483" y="-252" font-family="Helvetica,sans-Serif" font-size="10.00">PenUp</text>
</a>
</g>
</g>
<!-- Node1&#45;&gt;Node9 -->
<g id="edge8" class="edge"><title>Node1&#45;&gt;Node9</title>
<path fill="none" stroke="midnightblue" d="M352.226,-274.554C365.419,-273.074 379.097,-271.541 392.405,-270.048"/>
<polygon fill="midnightblue" stroke="midnightblue" points="351.794,-271.081 342.246,-275.673 352.574,-278.037 351.794,-271.081"/>
</g>
<!-- Node10 -->
<g id="node10" class="node"><title>Node10</title>
<g id="a_node10"><a xlink:href="../../d5/d31/classinterpreter_1_1expression_1_1singleturtle_1_1_right.html" target="_top" xlink:title="interpreter.expression.singleturtle.\lRight">
<polygon fill="white" stroke="black" points="392.5,-196 392.5,-226 573.5,-226 573.5,-196 392.5,-196"/>
<text text-anchor="start" x="400.5" y="-214" font-family="Helvetica,sans-Serif" font-size="10.00">interpreter.expression.singleturtle.</text>
<text text-anchor="middle" x="483" y="-203" font-family="Helvetica,sans-Serif" font-size="10.00">Right</text>
</a>
</g>
</g>
<!-- Node1&#45;&gt;Node10 -->
<g id="edge9" class="edge"><title>Node1&#45;&gt;Node10</title>
<path fill="none" stroke="midnightblue" d="M306.844,-264.498C327.58,-254.654 353.759,-243.112 378,-235 387.84,-231.707 398.352,-228.706 408.771,-226.027"/>
<polygon fill="midnightblue" stroke="midnightblue" points="305.222,-261.394 297.727,-268.883 308.256,-267.703 305.222,-261.394"/>
</g>
<!-- Node11 -->
<g id="node11" class="node"><title>Node11</title>
<g id="a_node11"><a xlink:href="../../db/d39/classinterpreter_1_1expression_1_1singleturtle_1_1_set_heading.html" target="_top" xlink:title="interpreter.expression.singleturtle.\lSetHeading">
<polygon fill="white" stroke="black" points="392.5,-147 392.5,-177 573.5,-177 573.5,-147 392.5,-147"/>
<text text-anchor="start" x="400.5" y="-165" font-family="Helvetica,sans-Serif" font-size="10.00">interpreter.expression.singleturtle.</text>
<text text-anchor="middle" x="483" y="-154" font-family="Helvetica,sans-Serif" font-size="10.00">SetHeading</text>
</a>
</g>
</g>
<!-- Node1&#45;&gt;Node11 -->
<g id="edge10" class="edge"><title>Node1&#45;&gt;Node11</title>
<path fill="none" stroke="midnightblue" d="M287.351,-261.055C307.637,-238.512 341.579,-204.835 378,-186 384.666,-182.553 391.826,-179.595 399.156,-177.059"/>
<polygon fill="midnightblue" stroke="midnightblue" points="284.503,-258.993 280.516,-268.808 289.754,-263.622 284.503,-258.993"/>
</g>
<!-- Node12 -->
<g id="node12" class="node"><title>Node12</title>
<g id="a_node12"><a xlink:href="../../d0/d8c/classinterpreter_1_1expression_1_1singleturtle_1_1_set_position.html" target="_top" xlink:title="interpreter.expression.singleturtle.\lSetPosition">
<polygon fill="white" stroke="black" points="392.5,-98 392.5,-128 573.5,-128 573.5,-98 392.5,-98"/>
<text text-anchor="start" x="400.5" y="-116" font-family="Helvetica,sans-Serif" font-size="10.00">interpreter.expression.singleturtle.</text>
<text text-anchor="middle" x="483" y="-105" font-family="Helvetica,sans-Serif" font-size="10.00">SetPosition</text>
</a>
</g>
</g>
<!-- Node1&#45;&gt;Node12 -->
<g id="edge11" class="edge"><title>Node1&#45;&gt;Node12</title>
<path fill="none" stroke="midnightblue" d="M279.321,-259.714C296.056,-226.602 330.605,-167.889 378,-137 383.278,-133.56 388.989,-130.61 394.924,-128.082"/>
<polygon fill="midnightblue" stroke="midnightblue" points="276.164,-258.201 274.89,-268.719 282.445,-261.291 276.164,-258.201"/>
</g>
<!-- Node13 -->
<g id="node13" class="node"><title>Node13</title>
<g id="a_node13"><a xlink:href="../../d5/dd9/classinterpreter_1_1expression_1_1singleturtle_1_1_set_towards.html" target="_top" xlink:title="interpreter.expression.singleturtle.\lSetTowards">
<polygon fill="white" stroke="black" points="392.5,-49 392.5,-79 573.5,-79 573.5,-49 392.5,-49"/>
<text text-anchor="start" x="400.5" y="-67" font-family="Helvetica,sans-Serif" font-size="10.00">interpreter.expression.singleturtle.</text>
<text text-anchor="middle" x="483" y="-56" font-family="Helvetica,sans-Serif" font-size="10.00">SetTowards</text>
</a>
</g>
</g>
<!-- Node1&#45;&gt;Node13 -->
<g id="edge12" class="edge"><title>Node1&#45;&gt;Node13</title>
<path fill="none" stroke="midnightblue" d="M274.722,-259.213C287.468,-217.131 319.276,-132.005 378,-88 382.597,-84.5553 387.605,-81.5929 392.859,-79.0466"/>
<polygon fill="midnightblue" stroke="midnightblue" points="271.327,-258.353 271.887,-268.933 278.047,-260.313 271.327,-258.353"/>
</g>
<!-- Node14 -->
<g id="node14" class="node"><title>Node14</title>
<g id="a_node14"><a xlink:href="../../d8/d3a/classinterpreter_1_1expression_1_1singleturtle_1_1_show_turtle.html" target="_top" xlink:title="interpreter.expression.singleturtle.\lShowTurtle">
<polygon fill="white" stroke="black" points="392.5,-0 392.5,-30 573.5,-30 573.5,-0 392.5,-0"/>
<text text-anchor="start" x="400.5" y="-18" font-family="Helvetica,sans-Serif" font-size="10.00">interpreter.expression.singleturtle.</text>
<text text-anchor="middle" x="483" y="-7" font-family="Helvetica,sans-Serif" font-size="10.00">ShowTurtle</text>
</a>
</g>
</g>
<!-- Node1&#45;&gt;Node14 -->
<g id="edge13" class="edge"><title>Node1&#45;&gt;Node14</title>
<path fill="none" stroke="midnightblue" d="M271.77,-258.866C280.649,-208.865 307.687,-96.7715 378,-39 382.438,-35.3533 387.327,-32.2379 392.491,-29.5785"/>
<polygon fill="midnightblue" stroke="midnightblue" points="268.302,-258.383 270.099,-268.824 275.206,-259.541 268.302,-258.383"/>
</g>
<!-- Node2 -->
<g id="node2" class="node"><title>Node2</title>
<g id="a_node2"><a xlink:href="../../db/d09/interfaceinterpreter_1_1expression_1_1_s_logo_expression.html" target="_top" xlink:title="interpreter.expression.SLogo\lExpression">
<polygon fill="white" stroke="black" points="0.5,-269 0.5,-299 155.5,-299 155.5,-269 0.5,-269"/>
<text text-anchor="start" x="8.5" y="-287" font-family="Helvetica,sans-Serif" font-size="10.00">interpreter.expression.SLogo</text>
<text text-anchor="middle" x="78" y="-276" font-family="Helvetica,sans-Serif" font-size="10.00">Expression</text>
</a>
</g>
</g>
<!-- Node2&#45;&gt;Node1 -->
<g id="edge1" class="edge"><title>Node2&#45;&gt;Node1</title>
<path fill="none" stroke="midnightblue" d="M165.8,-284C174.535,-284 183.349,-284 191.934,-284"/>
<polygon fill="midnightblue" stroke="midnightblue" points="165.6,-280.5 155.6,-284 165.6,-287.5 165.6,-280.5"/>
</g>
</g>
</svg>
