<?xml version="1.0" encoding="UTF-8" standalone="no"?>
<!DOCTYPE svg PUBLIC "-//W3C//DTD SVG 1.1//EN"
 "http://www.w3.org/Graphics/SVG/1.1/DTD/svg11.dtd">
<!-- Generated by graphviz version 2.36.0 (20140111.2315)
 -->
<!-- Title: application.StartMenu Pages: 1 -->
<svg width="481pt" height="96pt"
 viewBox="0.00 0.00 481.00 96.00" xmlns="http://www.w3.org/2000/svg" xmlns:xlink="http://www.w3.org/1999/xlink">
<g id="graph0" class="graph" transform="scale(1 1) rotate(0) translate(4 92)">
<title>application.StartMenu</title>
<polygon fill="white" stroke="none" points="-4,4 -4,-92 477,-92 477,4 -4,4"/>
<!-- Node1 -->
<g id="node1" class="node"><title>Node1</title>
<polygon fill="#bfbfbf" stroke="black" points="191,-0.5 191,-19.5 313,-19.5 313,-0.5 191,-0.5"/>
<text text-anchor="middle" x="252" y="-7.5" font-family="Helvetica,sans-Serif" font-size="10.00">application.StartMenu</text>
</g>
<!-- Node2 -->
<g id="node2" class="node"><title>Node2</title>
<polygon fill="white" stroke="#bfbfbf" points="-0.5,-68.5 -0.5,-87.5 44.5,-87.5 44.5,-68.5 -0.5,-68.5"/>
<text text-anchor="middle" x="22" y="-75.5" font-family="Helvetica,sans-Serif" font-size="10.00">Stage</text>
</g>
<!-- Node2&#45;&gt;Node1 -->
<g id="edge1" class="edge"><title>Node2&#45;&gt;Node1</title>
<path fill="none" stroke="#9a32cd" stroke-dasharray="5,2" d="M40.4964,-62.0527C51.8266,-53.6699 66.9931,-43.7679 82,-38 116.589,-24.7057 157.555,-17.9556 190.605,-14.529"/>
<polygon fill="#9a32cd" stroke="#9a32cd" points="38.1071,-59.4746 32.3087,-68.3418 42.3712,-65.026 38.1071,-59.4746"/>
<text text-anchor="middle" x="105.5" y="-41.5" font-family="Helvetica,sans-Serif" font-size="10.00"> myStage</text>
</g>
<!-- Node3 -->
<g id="node3" class="node"><title>Node3</title>
<polygon fill="white" stroke="#bfbfbf" points="63,-68.5 63,-87.5 183,-87.5 183,-68.5 63,-68.5"/>
<text text-anchor="middle" x="123" y="-75.5" font-family="Helvetica,sans-Serif" font-size="10.00">ComboBox&lt; String &gt;</text>
</g>
<!-- Node3&#45;&gt;Node1 -->
<g id="edge2" class="edge"><title>Node3&#45;&gt;Node1</title>
<path fill="none" stroke="#9a32cd" stroke-dasharray="5,2" d="M128.191,-58.5131C131.13,-51.1516 135.547,-43.2086 142,-38 155.848,-26.8228 173.652,-20.1739 190.885,-16.2486"/>
<polygon fill="#9a32cd" stroke="#9a32cd" points="124.809,-57.5927 124.964,-68.1864 131.449,-59.8084 124.809,-57.5927"/>
<text text-anchor="middle" x="195" y="-41.5" font-family="Helvetica,sans-Serif" font-size="10.00"> myLanguageChooser</text>
</g>
<!-- Node4 -->
<g id="node4" class="node"><title>Node4</title>
<polygon fill="white" stroke="#bfbfbf" points="227.5,-68.5 227.5,-87.5 276.5,-87.5 276.5,-68.5 227.5,-68.5"/>
<text text-anchor="middle" x="252" y="-75.5" font-family="Helvetica,sans-Serif" font-size="10.00">Button</text>
</g>
<!-- Node4&#45;&gt;Node1 -->
<g id="edge3" class="edge"><title>Node4&#45;&gt;Node1</title>
<path fill="none" stroke="#9a32cd" stroke-dasharray="5,2" d="M252,-58.0413C252,-45.4724 252,-29.5631 252,-19.8411"/>
<polygon fill="#9a32cd" stroke="#9a32cd" points="248.5,-58.3716 252,-68.3717 255.5,-58.3717 248.5,-58.3716"/>
<text text-anchor="middle" x="289.5" y="-41.5" font-family="Helvetica,sans-Serif" font-size="10.00"> myOkayButton</text>
</g>
<!-- Node5 -->
<g id="node5" class="node"><title>Node5</title>
<polygon fill="white" stroke="#bfbfbf" points="329,-68.5 329,-87.5 371,-87.5 371,-68.5 329,-68.5"/>
<text text-anchor="middle" x="350" y="-75.5" font-family="Helvetica,sans-Serif" font-size="10.00">Label</text>
</g>
<!-- Node5&#45;&gt;Node1 -->
<g id="edge4" class="edge"><title>Node5&#45;&gt;Node1</title>
<path fill="none" stroke="#9a32cd" stroke-dasharray="5,2" d="M343.213,-59.0582C339.651,-51.6785 334.626,-43.5729 328,-38 317.927,-29.528 305.004,-23.6373 292.683,-19.5745"/>
<polygon fill="#9a32cd" stroke="#9a32cd" points="340.039,-60.5372 347.178,-68.3655 346.479,-57.7938 340.039,-60.5372"/>
<text text-anchor="middle" x="370" y="-41.5" font-family="Helvetica,sans-Serif" font-size="10.00"> myTitleLabel</text>
</g>
<!-- Node6 -->
<g id="node6" class="node"><title>Node6</title>
<polygon fill="white" stroke="#bfbfbf" points="401,-68.5 401,-87.5 473,-87.5 473,-68.5 401,-68.5"/>
<text text-anchor="middle" x="437" y="-75.5" font-family="Helvetica,sans-Serif" font-size="10.00">BorderPane</text>
</g>
<!-- Node6&#45;&gt;Node1 -->
<g id="edge5" class="edge"><title>Node6&#45;&gt;Node1</title>
<path fill="none" stroke="#9a32cd" stroke-dasharray="5,2" d="M427.318,-59.7413C422.029,-51.8907 414.764,-43.21 406,-38 378.235,-21.4933 343.006,-14.4985 313.253,-11.7393"/>
<polygon fill="#9a32cd" stroke="#9a32cd" points="424.372,-61.632 432.591,-68.3182 430.336,-57.9661 424.372,-61.632"/>
<text text-anchor="middle" x="441" y="-41.5" font-family="Helvetica,sans-Serif" font-size="10.00"> myPane</text>
</g>
</g>
</svg>
