<?xml version="1.0" encoding="UTF-8" standalone="no"?>
<!DOCTYPE svg PUBLIC "-//W3C//DTD SVG 1.1//EN"
 "http://www.w3.org/Graphics/SVG/1.1/DTD/svg11.dtd">
<!-- Generated by graphviz version 2.36.0 (20140111.2315)
 -->
<!-- Title: interpreter.expression.ConditionalExpression.evaluate Pages: 1 -->
<svg width="624pt" height="136pt"
 viewBox="0.00 0.00 624.00 136.00" xmlns="http://www.w3.org/2000/svg" xmlns:xlink="http://www.w3.org/1999/xlink">
<g id="graph0" class="graph" transform="scale(1 1) rotate(0) translate(4 132)">
<title>interpreter.expression.ConditionalExpression.evaluate</title>
<polygon fill="white" stroke="none" points="-4,4 -4,-132 620,-132 620,4 -4,4"/>
<!-- Node1 -->
<g id="node1" class="node"><title>Node1</title>
<polygon fill="#bfbfbf" stroke="black" points="0,-49 0,-79 178,-79 178,-49 0,-49"/>
<text text-anchor="start" x="8" y="-67" font-family="Helvetica,sans-Serif" font-size="10.00">interpreter.expression.Conditional</text>
<text text-anchor="middle" x="89" y="-56" font-family="Helvetica,sans-Serif" font-size="10.00">Expression.evaluate</text>
</g>
<!-- Node2 -->
<g id="node2" class="node"><title>Node2</title>
<g id="a_node2"><a xlink:href="../../db/da4/classinterpreter_1_1expression_1_1_conditional_expression.html#af82e4d2336040e0bdaae8feb50311880" target="_top" xlink:title="interpreter.expression.Conditional\lExpression.applyOperatorAndMerge">
<polygon fill="white" stroke="black" points="214,-49 214,-79 402,-79 402,-49 214,-49"/>
<text text-anchor="start" x="222" y="-67" font-family="Helvetica,sans-Serif" font-size="10.00">interpreter.expression.Conditional</text>
<text text-anchor="middle" x="308" y="-56" font-family="Helvetica,sans-Serif" font-size="10.00">Expression.applyOperatorAndMerge</text>
</a>
</g>
</g>
<!-- Node1&#45;&gt;Node2 -->
<g id="edge1" class="edge"><title>Node1&#45;&gt;Node2</title>
<path fill="none" stroke="midnightblue" d="M178.262,-64C186.696,-64 195.299,-64 203.857,-64"/>
<polygon fill="midnightblue" stroke="midnightblue" points="203.871,-67.5001 213.871,-64 203.871,-60.5001 203.871,-67.5001"/>
</g>
<!-- Node3 -->
<g id="node3" class="node"><title>Node3</title>
<g id="a_node3"><a xlink:href="../../df/df6/classinterpreter_1_1result_1_1_s_logo_result.html#a11062748597af4f6622d9cbc92d4d9c0" target="_top" xlink:title="interpreter.result.SLogo\lResult.getTransition">
<polygon fill="white" stroke="black" points="462,-98 462,-128 592,-128 592,-98 462,-98"/>
<text text-anchor="start" x="470" y="-116" font-family="Helvetica,sans-Serif" font-size="10.00">interpreter.result.SLogo</text>
<text text-anchor="middle" x="527" y="-105" font-family="Helvetica,sans-Serif" font-size="10.00">Result.getTransition</text>
</a>
</g>
</g>
<!-- Node2&#45;&gt;Node3 -->
<g id="edge2" class="edge"><title>Node2&#45;&gt;Node3</title>
<path fill="none" stroke="midnightblue" d="M375.582,-79.0346C399.672,-84.4743 427.019,-90.6496 451.729,-96.229"/>
<polygon fill="midnightblue" stroke="midnightblue" points="451.251,-99.7091 461.776,-98.4978 452.792,-92.8811 451.251,-99.7091"/>
</g>
<!-- Node4 -->
<g id="node4" class="node"><title>Node4</title>
<g id="a_node4"><a xlink:href="../../db/da4/classinterpreter_1_1expression_1_1_conditional_expression.html#aeeab84d6be4be6ef757ef1677dbecf05" target="_top" xlink:title="interpreter.expression.Conditional\lExpression.hasSatisfiedCondition">
<polygon fill="white" stroke="black" points="438,-49 438,-79 616,-79 616,-49 438,-49"/>
<text text-anchor="start" x="446" y="-67" font-family="Helvetica,sans-Serif" font-size="10.00">interpreter.expression.Conditional</text>
<text text-anchor="middle" x="527" y="-56" font-family="Helvetica,sans-Serif" font-size="10.00">Expression.hasSatisfiedCondition</text>
</a>
</g>
</g>
<!-- Node2&#45;&gt;Node4 -->
<g id="edge3" class="edge"><title>Node2&#45;&gt;Node4</title>
<path fill="none" stroke="midnightblue" d="M402.287,-64C410.699,-64 419.235,-64 427.688,-64"/>
<polygon fill="midnightblue" stroke="midnightblue" points="427.943,-67.5001 437.943,-64 427.943,-60.5001 427.943,-67.5001"/>
</g>
<!-- Node5 -->
<g id="node5" class="node"><title>Node5</title>
<g id="a_node5"><a xlink:href="../../df/df6/classinterpreter_1_1result_1_1_s_logo_result.html#ade0879b3224a3216bf17e17e25bfd4ca" target="_top" xlink:title="interpreter.result.SLogo\lResult.setValue">
<polygon fill="white" stroke="black" points="462,-0 462,-30 592,-30 592,-0 462,-0"/>
<text text-anchor="start" x="470" y="-18" font-family="Helvetica,sans-Serif" font-size="10.00">interpreter.result.SLogo</text>
<text text-anchor="middle" x="527" y="-7" font-family="Helvetica,sans-Serif" font-size="10.00">Result.setValue</text>
</a>
</g>
</g>
<!-- Node2&#45;&gt;Node5 -->
<g id="edge4" class="edge"><title>Node2&#45;&gt;Node5</title>
<path fill="none" stroke="midnightblue" d="M375.582,-48.9654C399.672,-43.5257 427.019,-37.3504 451.729,-31.771"/>
<polygon fill="midnightblue" stroke="midnightblue" points="452.792,-35.1189 461.776,-29.5022 451.251,-28.2909 452.792,-35.1189"/>
</g>
</g>
</svg>
