<?xml version="1.0" encoding="UTF-8" standalone="no"?>
<!DOCTYPE svg PUBLIC "-//W3C//DTD SVG 1.1//EN"
 "http://www.w3.org/Graphics/SVG/1.1/DTD/svg11.dtd">
<!-- Generated by graphviz version 2.36.0 (20140111.2315)
 -->
<!-- Title: interpreter.expression.ConditionalExpression.applyOperatorAndMerge Pages: 1 -->
<svg width="410pt" height="38pt"
 viewBox="0.00 0.00 410.00 38.00" xmlns="http://www.w3.org/2000/svg" xmlns:xlink="http://www.w3.org/1999/xlink">
<g id="graph0" class="graph" transform="scale(1 1) rotate(0) translate(4 34)">
<title>interpreter.expression.ConditionalExpression.applyOperatorAndMerge</title>
<polygon fill="white" stroke="none" points="-4,4 -4,-34 406,-34 406,4 -4,4"/>
<!-- Node1 -->
<g id="node1" class="node"><title>Node1</title>
<polygon fill="#bfbfbf" stroke="black" points="0,-0 0,-30 188,-30 188,-0 0,-0"/>
<text text-anchor="start" x="8" y="-18" font-family="Helvetica,sans-Serif" font-size="10.00">interpreter.expression.Conditional</text>
<text text-anchor="middle" x="94" y="-7" font-family="Helvetica,sans-Serif" font-size="10.00">Expression.applyOperatorAndMerge</text>
</g>
<!-- Node2 -->
<g id="node2" class="node"><title>Node2</title>
<g id="a_node2"><a xlink:href="../../db/da4/classinterpreter_1_1expression_1_1_conditional_expression.html#a4d552b08966f005196dc2870400bac67" target="_top" xlink:title="interpreter.expression.Conditional\lExpression.evaluate">
<polygon fill="white" stroke="black" points="224,-0 224,-30 402,-30 402,-0 224,-0"/>
<text text-anchor="start" x="232" y="-18" font-family="Helvetica,sans-Serif" font-size="10.00">interpreter.expression.Conditional</text>
<text text-anchor="middle" x="313" y="-7" font-family="Helvetica,sans-Serif" font-size="10.00">Expression.evaluate</text>
</a>
</g>
</g>
<!-- Node1&#45;&gt;Node2 -->
<g id="edge1" class="edge"><title>Node1&#45;&gt;Node2</title>
<path fill="none" stroke="midnightblue" d="M198.316,-15C206.886,-15 215.5,-15 223.943,-15"/>
<polygon fill="midnightblue" stroke="midnightblue" points="198.287,-11.5001 188.287,-15 198.287,-18.5001 198.287,-11.5001"/>
</g>
</g>
</svg>
