<?xml version="1.0" encoding="UTF-8" standalone="no"?>
<!DOCTYPE svg PUBLIC "-//W3C//DTD SVG 1.1//EN"
 "http://www.w3.org/Graphics/SVG/1.1/DTD/svg11.dtd">
<!-- Generated by graphviz version 2.36.0 (20140111.2315)
 -->
<!-- Title: viewcontroller.turtlegrid.GridLines.GridLines Pages: 1 -->
<svg width="728pt" height="160pt"
 viewBox="0.00 0.00 728.00 160.00" xmlns="http://www.w3.org/2000/svg" xmlns:xlink="http://www.w3.org/1999/xlink">
<g id="graph0" class="graph" transform="scale(1 1) rotate(0) translate(4 156)">
<title>viewcontroller.turtlegrid.GridLines.GridLines</title>
<polygon fill="white" stroke="none" points="-4,4 -4,-156 724,-156 724,4 -4,4"/>
<!-- Node1 -->
<g id="node1" class="node"><title>Node1</title>
<polygon fill="#bfbfbf" stroke="black" points="0.5,-49 0.5,-79 131.5,-79 131.5,-49 0.5,-49"/>
<text text-anchor="start" x="8.5" y="-67" font-family="Helvetica,sans-Serif" font-size="10.00">viewcontroller.turtlegrid.</text>
<text text-anchor="middle" x="66" y="-56" font-family="Helvetica,sans-Serif" font-size="10.00">GridLines.GridLines</text>
</g>
<!-- Node2 -->
<g id="node2" class="node"><title>Node2</title>
<g id="a_node2"><a xlink:href="../../d4/d4e/classviewcontroller_1_1turtlegrid_1_1_grid_lines.html#af24232825b9201fa4f5e911db2402cff" target="_top" xlink:title="viewcontroller.turtlegrid.\lGridLines.createGridLines">
<polygon fill="white" stroke="black" points="203.5,-98 203.5,-128 342.5,-128 342.5,-98 203.5,-98"/>
<text text-anchor="start" x="211.5" y="-116" font-family="Helvetica,sans-Serif" font-size="10.00">viewcontroller.turtlegrid.</text>
<text text-anchor="middle" x="273" y="-105" font-family="Helvetica,sans-Serif" font-size="10.00">GridLines.createGridLines</text>
</a>
</g>
</g>
<!-- Node1&#45;&gt;Node2 -->
<g id="edge1" class="edge"><title>Node1&#45;&gt;Node2</title>
<path fill="none" stroke="midnightblue" d="M129.9,-79.0346C151.84,-84.2789 176.641,-90.2069 199.311,-95.6255"/>
<polygon fill="midnightblue" stroke="midnightblue" points="198.679,-99.0731 209.219,-97.9938 200.307,-92.2649 198.679,-99.0731"/>
</g>
<!-- Node7 -->
<g id="node7" class="node"><title>Node7</title>
<g id="a_node7"><a xlink:href="../../d4/d4e/classviewcontroller_1_1turtlegrid_1_1_grid_lines.html#a856cb7111ee5e931c8db06b91dec5def" target="_top" xlink:title="viewcontroller.turtlegrid.\lGridLines.setNumRowsAndNumColumns">
<polygon fill="white" stroke="black" points="168.5,-49 168.5,-79 377.5,-79 377.5,-49 168.5,-49"/>
<text text-anchor="start" x="176.5" y="-67" font-family="Helvetica,sans-Serif" font-size="10.00">viewcontroller.turtlegrid.</text>
<text text-anchor="middle" x="273" y="-56" font-family="Helvetica,sans-Serif" font-size="10.00">GridLines.setNumRowsAndNumColumns</text>
</a>
</g>
</g>
<!-- Node1&#45;&gt;Node7 -->
<g id="edge6" class="edge"><title>Node1&#45;&gt;Node7</title>
<path fill="none" stroke="midnightblue" d="M131.582,-64C140.109,-64 149.044,-64 158.099,-64"/>
<polygon fill="midnightblue" stroke="midnightblue" points="158.358,-67.5001 168.358,-64 158.357,-60.5001 158.358,-67.5001"/>
</g>
<!-- Node8 -->
<g id="node8" class="node"><title>Node8</title>
<g id="a_node8"><a xlink:href="../../d4/d4e/classviewcontroller_1_1turtlegrid_1_1_grid_lines.html#abd846b3ddf23c1d45ed8fd2ba3775ee4" target="_top" xlink:title="viewcontroller.turtlegrid.\lGridLines.styleLines">
<polygon fill="white" stroke="black" points="207.5,-0 207.5,-30 338.5,-30 338.5,-0 207.5,-0"/>
<text text-anchor="start" x="215.5" y="-18" font-family="Helvetica,sans-Serif" font-size="10.00">viewcontroller.turtlegrid.</text>
<text text-anchor="middle" x="273" y="-7" font-family="Helvetica,sans-Serif" font-size="10.00">GridLines.styleLines</text>
</a>
</g>
</g>
<!-- Node1&#45;&gt;Node8 -->
<g id="edge7" class="edge"><title>Node1&#45;&gt;Node8</title>
<path fill="none" stroke="midnightblue" d="M129.9,-48.9654C151.84,-43.7211 176.641,-37.7931 199.311,-32.3745"/>
<polygon fill="midnightblue" stroke="midnightblue" points="200.307,-35.7351 209.219,-30.0062 198.679,-28.9269 200.307,-35.7351"/>
</g>
<!-- Node3 -->
<g id="node3" class="node"><title>Node3</title>
<g id="a_node3"><a xlink:href="../../d4/d4e/classviewcontroller_1_1turtlegrid_1_1_grid_lines.html#a64fd5bd88db3100f4a4308b270438158" target="_top" xlink:title="viewcontroller.turtlegrid.\lGridLines.createRows">
<polygon fill="white" stroke="black" points="417.5,-122 417.5,-152 548.5,-152 548.5,-122 417.5,-122"/>
<text text-anchor="start" x="425.5" y="-140" font-family="Helvetica,sans-Serif" font-size="10.00">viewcontroller.turtlegrid.</text>
<text text-anchor="middle" x="483" y="-129" font-family="Helvetica,sans-Serif" font-size="10.00">GridLines.createRows</text>
</a>
</g>
</g>
<!-- Node2&#45;&gt;Node3 -->
<g id="edge2" class="edge"><title>Node2&#45;&gt;Node3</title>
<path fill="none" stroke="midnightblue" d="M342.683,-120.925C363.327,-123.307 386.077,-125.932 407.101,-128.358"/>
<polygon fill="midnightblue" stroke="midnightblue" points="406.931,-131.861 417.267,-129.531 407.734,-124.907 406.931,-131.861"/>
</g>
<!-- Node5 -->
<g id="node5" class="node"><title>Node5</title>
<g id="a_node5"><a xlink:href="../../d4/d4e/classviewcontroller_1_1turtlegrid_1_1_grid_lines.html#a6bd666dc845cbc177abc1ef9628d0af6" target="_top" xlink:title="viewcontroller.turtlegrid.\lGridLines.createColumns">
<polygon fill="white" stroke="black" points="414.5,-73 414.5,-103 551.5,-103 551.5,-73 414.5,-73"/>
<text text-anchor="start" x="422.5" y="-91" font-family="Helvetica,sans-Serif" font-size="10.00">viewcontroller.turtlegrid.</text>
<text text-anchor="middle" x="483" y="-80" font-family="Helvetica,sans-Serif" font-size="10.00">GridLines.createColumns</text>
</a>
</g>
</g>
<!-- Node2&#45;&gt;Node5 -->
<g id="edge4" class="edge"><title>Node2&#45;&gt;Node5</title>
<path fill="none" stroke="midnightblue" d="M342.683,-104.745C362.423,-102.372 384.089,-99.7682 404.33,-97.3353"/>
<polygon fill="midnightblue" stroke="midnightblue" points="404.941,-100.787 414.452,-96.1188 404.105,-93.8372 404.941,-100.787"/>
</g>
<!-- Node4 -->
<g id="node4" class="node"><title>Node4</title>
<g id="a_node4"><a xlink:href="../../d4/d4e/classviewcontroller_1_1turtlegrid_1_1_grid_lines.html#a27dc0c3932d0ee505524b2570b9b563a" target="_top" xlink:title="viewcontroller.turtlegrid.\lGridLines.createRow">
<polygon fill="white" stroke="black" points="588.5,-122 588.5,-152 719.5,-152 719.5,-122 588.5,-122"/>
<text text-anchor="start" x="596.5" y="-140" font-family="Helvetica,sans-Serif" font-size="10.00">viewcontroller.turtlegrid.</text>
<text text-anchor="middle" x="654" y="-129" font-family="Helvetica,sans-Serif" font-size="10.00">GridLines.createRow</text>
</a>
</g>
</g>
<!-- Node3&#45;&gt;Node4 -->
<g id="edge3" class="edge"><title>Node3&#45;&gt;Node4</title>
<path fill="none" stroke="midnightblue" d="M548.856,-137C558.459,-137 568.421,-137 578.206,-137"/>
<polygon fill="midnightblue" stroke="midnightblue" points="578.317,-140.5 588.317,-137 578.317,-133.5 578.317,-140.5"/>
</g>
<!-- Node6 -->
<g id="node6" class="node"><title>Node6</title>
<g id="a_node6"><a xlink:href="../../d4/d4e/classviewcontroller_1_1turtlegrid_1_1_grid_lines.html#ab69813081e93a5ca22a6f5de2542f90c" target="_top" xlink:title="viewcontroller.turtlegrid.\lGridLines.createColumn">
<polygon fill="white" stroke="black" points="588.5,-73 588.5,-103 719.5,-103 719.5,-73 588.5,-73"/>
<text text-anchor="start" x="596.5" y="-91" font-family="Helvetica,sans-Serif" font-size="10.00">viewcontroller.turtlegrid.</text>
<text text-anchor="middle" x="654" y="-80" font-family="Helvetica,sans-Serif" font-size="10.00">GridLines.createColumn</text>
</a>
</g>
</g>
<!-- Node5&#45;&gt;Node6 -->
<g id="edge5" class="edge"><title>Node5&#45;&gt;Node6</title>
<path fill="none" stroke="midnightblue" d="M551.765,-88C560.411,-88 569.301,-88 578.053,-88"/>
<polygon fill="midnightblue" stroke="midnightblue" points="578.24,-91.5001 588.24,-88 578.24,-84.5001 578.24,-91.5001"/>
</g>
</g>
</svg>
