<?xml version="1.0" encoding="UTF-8" standalone="no"?>
<!DOCTYPE svg PUBLIC "-//W3C//DTD SVG 1.1//EN"
 "http://www.w3.org/Graphics/SVG/1.1/DTD/svg11.dtd">
<!-- Generated by graphviz version 2.36.0 (20140111.2315)
 -->
<!-- Title: viewcontroller.turtlegrid.GridLines.createGridLines Pages: 1 -->
<svg width="930pt" height="87pt"
 viewBox="0.00 0.00 930.00 87.00" xmlns="http://www.w3.org/2000/svg" xmlns:xlink="http://www.w3.org/1999/xlink">
<g id="graph0" class="graph" transform="scale(1 1) rotate(0) translate(4 83)">
<title>viewcontroller.turtlegrid.GridLines.createGridLines</title>
<polygon fill="white" stroke="none" points="-4,4 -4,-83 926,-83 926,4 -4,4"/>
<!-- Node1 -->
<g id="node1" class="node"><title>Node1</title>
<polygon fill="#bfbfbf" stroke="black" points="0.5,-24 0.5,-54 139.5,-54 139.5,-24 0.5,-24"/>
<text text-anchor="start" x="8.5" y="-42" font-family="Helvetica,sans-Serif" font-size="10.00">viewcontroller.turtlegrid.</text>
<text text-anchor="middle" x="70" y="-31" font-family="Helvetica,sans-Serif" font-size="10.00">GridLines.createGridLines</text>
</g>
<!-- Node2 -->
<g id="node2" class="node"><title>Node2</title>
<g id="a_node2"><a xlink:href="../../d4/d4e/classviewcontroller_1_1turtlegrid_1_1_grid_lines.html#a1cb8b04bbce74da615655b6f87d560e8" target="_top" xlink:title="viewcontroller.turtlegrid.\lGridLines.changeSize">
<polygon fill="white" stroke="black" points="176.5,-49 176.5,-79 307.5,-79 307.5,-49 176.5,-49"/>
<text text-anchor="start" x="184.5" y="-67" font-family="Helvetica,sans-Serif" font-size="10.00">viewcontroller.turtlegrid.</text>
<text text-anchor="middle" x="242" y="-56" font-family="Helvetica,sans-Serif" font-size="10.00">GridLines.changeSize</text>
</a>
</g>
</g>
<!-- Node1&#45;&gt;Node2 -->
<g id="edge1" class="edge"><title>Node1&#45;&gt;Node2</title>
<path fill="none" stroke="midnightblue" d="M149.716,-50.5759C158.682,-51.8944 167.741,-53.2266 176.492,-54.5135"/>
<polygon fill="midnightblue" stroke="midnightblue" points="150.058,-47.0887 139.655,-49.0964 149.04,-54.0142 150.058,-47.0887"/>
</g>
<!-- Node6 -->
<g id="node6" class="node"><title>Node6</title>
<g id="a_node6"><a xlink:href="../../d4/d4e/classviewcontroller_1_1turtlegrid_1_1_grid_lines.html#ab274bdf8fe3c7748ee28f43252677d7f" target="_top" xlink:title="viewcontroller.turtlegrid.\lGridLines.GridLines">
<polygon fill="white" stroke="black" points="176.5,-0 176.5,-30 307.5,-30 307.5,-0 176.5,-0"/>
<text text-anchor="start" x="184.5" y="-18" font-family="Helvetica,sans-Serif" font-size="10.00">viewcontroller.turtlegrid.</text>
<text text-anchor="middle" x="242" y="-7" font-family="Helvetica,sans-Serif" font-size="10.00">GridLines.GridLines</text>
</a>
</g>
</g>
<!-- Node1&#45;&gt;Node6 -->
<g id="edge5" class="edge"><title>Node1&#45;&gt;Node6</title>
<path fill="none" stroke="midnightblue" d="M149.716,-27.8871C158.682,-26.6214 167.741,-25.3425 176.492,-24.1071"/>
<polygon fill="midnightblue" stroke="midnightblue" points="149.068,-24.4438 139.655,-29.3075 150.047,-31.3751 149.068,-24.4438"/>
</g>
<!-- Node3 -->
<g id="node3" class="node"><title>Node3</title>
<g id="a_node3"><a xlink:href="../../d5/dcc/classviewcontroller_1_1turtlegrid_1_1_grid_view_controller.html#ad47f1eb64161a940fffabaa00b1e19f0" target="_top" xlink:title="viewcontroller.turtlegrid.\lGridViewController.fixGridBackground">
<polygon fill="white" stroke="black" points="344,-49 344,-79 538,-79 538,-49 344,-49"/>
<text text-anchor="start" x="352" y="-67" font-family="Helvetica,sans-Serif" font-size="10.00">viewcontroller.turtlegrid.</text>
<text text-anchor="middle" x="441" y="-56" font-family="Helvetica,sans-Serif" font-size="10.00">GridViewController.fixGridBackground</text>
</a>
</g>
</g>
<!-- Node2&#45;&gt;Node3 -->
<g id="edge2" class="edge"><title>Node2&#45;&gt;Node3</title>
<path fill="none" stroke="midnightblue" d="M317.507,-64C326.144,-64 335.043,-64 343.917,-64"/>
<polygon fill="midnightblue" stroke="midnightblue" points="317.505,-60.5001 307.505,-64 317.505,-67.5001 317.505,-60.5001"/>
</g>
<!-- Node4 -->
<g id="node4" class="node"><title>Node4</title>
<g id="a_node4"><a xlink:href="../../d5/dcc/classviewcontroller_1_1turtlegrid_1_1_grid_view_controller.html#a58f23297f6cf137808ab6d7196416e06" target="_top" xlink:title="viewcontroller.turtlegrid.\lGridViewController.updateTurtles">
<polygon fill="white" stroke="black" points="574.5,-49 574.5,-79 745.5,-79 745.5,-49 574.5,-49"/>
<text text-anchor="start" x="582.5" y="-67" font-family="Helvetica,sans-Serif" font-size="10.00">viewcontroller.turtlegrid.</text>
<text text-anchor="middle" x="660" y="-56" font-family="Helvetica,sans-Serif" font-size="10.00">GridViewController.updateTurtles</text>
</a>
</g>
</g>
<!-- Node3&#45;&gt;Node4 -->
<g id="edge3" class="edge"><title>Node3&#45;&gt;Node4</title>
<path fill="none" stroke="midnightblue" d="M548.302,-64C556.987,-64 565.692,-64 574.193,-64"/>
<polygon fill="midnightblue" stroke="midnightblue" points="548.127,-60.5001 538.127,-64 548.127,-67.5001 548.127,-60.5001"/>
</g>
<!-- Node5 -->
<g id="node5" class="node"><title>Node5</title>
<g id="a_node5"><a xlink:href="../../d5/dcc/classviewcontroller_1_1turtlegrid_1_1_grid_view_controller.html#ac4cf56a8a55a4d56d47a946719dfbc8e" target="_top" xlink:title="viewcontroller.turtlegrid.\lGridViewController.update">
<polygon fill="white" stroke="black" points="782,-49 782,-79 922,-79 922,-49 782,-49"/>
<text text-anchor="start" x="790" y="-67" font-family="Helvetica,sans-Serif" font-size="10.00">viewcontroller.turtlegrid.</text>
<text text-anchor="middle" x="852" y="-56" font-family="Helvetica,sans-Serif" font-size="10.00">GridViewController.update</text>
</a>
</g>
</g>
<!-- Node4&#45;&gt;Node5 -->
<g id="edge4" class="edge"><title>Node4&#45;&gt;Node5</title>
<path fill="none" stroke="midnightblue" d="M755.942,-64C764.665,-64 773.389,-64 781.819,-64"/>
<polygon fill="midnightblue" stroke="midnightblue" points="755.72,-60.5001 745.72,-64 755.72,-67.5001 755.72,-60.5001"/>
</g>
</g>
</svg>
