<?xml version="1.0" encoding="UTF-8" standalone="no"?>
<!DOCTYPE svg PUBLIC "-//W3C//DTD SVG 1.1//EN"
 "http://www.w3.org/Graphics/SVG/1.1/DTD/svg11.dtd">
<!-- Generated by graphviz version 2.36.0 (20140111.2315)
 -->
<!-- Title: viewcontroller.turtlegrid.GridLines.createGridLines Pages: 1 -->
<svg width="490pt" height="87pt"
 viewBox="0.00 0.00 490.00 87.00" xmlns="http://www.w3.org/2000/svg" xmlns:xlink="http://www.w3.org/1999/xlink">
<g id="graph0" class="graph" transform="scale(1 1) rotate(0) translate(4 83)">
<title>viewcontroller.turtlegrid.GridLines.createGridLines</title>
<polygon fill="white" stroke="none" points="-4,4 -4,-83 486,-83 486,4 -4,4"/>
<!-- Node1 -->
<g id="node1" class="node"><title>Node1</title>
<polygon fill="#bfbfbf" stroke="black" points="0.5,-24 0.5,-54 139.5,-54 139.5,-24 0.5,-24"/>
<text text-anchor="start" x="8.5" y="-42" font-family="Helvetica,sans-Serif" font-size="10.00">viewcontroller.turtlegrid.</text>
<text text-anchor="middle" x="70" y="-31" font-family="Helvetica,sans-Serif" font-size="10.00">GridLines.createGridLines</text>
</g>
<!-- Node2 -->
<g id="node2" class="node"><title>Node2</title>
<g id="a_node2"><a xlink:href="../../d4/d4e/classviewcontroller_1_1turtlegrid_1_1_grid_lines.html#a6bd666dc845cbc177abc1ef9628d0af6" target="_top" xlink:title="viewcontroller.turtlegrid.\lGridLines.createColumns">
<polygon fill="white" stroke="black" points="176.5,-49 176.5,-79 313.5,-79 313.5,-49 176.5,-49"/>
<text text-anchor="start" x="184.5" y="-67" font-family="Helvetica,sans-Serif" font-size="10.00">viewcontroller.turtlegrid.</text>
<text text-anchor="middle" x="245" y="-56" font-family="Helvetica,sans-Serif" font-size="10.00">GridLines.createColumns</text>
</a>
</g>
</g>
<!-- Node1&#45;&gt;Node2 -->
<g id="edge1" class="edge"><title>Node1&#45;&gt;Node2</title>
<path fill="none" stroke="midnightblue" d="M139.871,-48.9525C148.634,-50.2188 157.65,-51.5216 166.536,-52.8058"/>
<polygon fill="midnightblue" stroke="midnightblue" points="166.097,-56.2786 176.494,-54.2449 167.098,-49.3505 166.097,-56.2786"/>
</g>
<!-- Node4 -->
<g id="node4" class="node"><title>Node4</title>
<g id="a_node4"><a xlink:href="../../d4/d4e/classviewcontroller_1_1turtlegrid_1_1_grid_lines.html#a64fd5bd88db3100f4a4308b270438158" target="_top" xlink:title="viewcontroller.turtlegrid.\lGridLines.createRows">
<polygon fill="white" stroke="black" points="179.5,-0 179.5,-30 310.5,-30 310.5,-0 179.5,-0"/>
<text text-anchor="start" x="187.5" y="-18" font-family="Helvetica,sans-Serif" font-size="10.00">viewcontroller.turtlegrid.</text>
<text text-anchor="middle" x="245" y="-7" font-family="Helvetica,sans-Serif" font-size="10.00">GridLines.createRows</text>
</a>
</g>
</g>
<!-- Node1&#45;&gt;Node4 -->
<g id="edge3" class="edge"><title>Node1&#45;&gt;Node4</title>
<path fill="none" stroke="midnightblue" d="M139.871,-29.4456C149.522,-28.1068 159.479,-26.7255 169.233,-25.3723"/>
<polygon fill="midnightblue" stroke="midnightblue" points="169.878,-28.8164 179.302,-23.9754 168.916,-21.8828 169.878,-28.8164"/>
</g>
<!-- Node3 -->
<g id="node3" class="node"><title>Node3</title>
<g id="a_node3"><a xlink:href="../../d4/d4e/classviewcontroller_1_1turtlegrid_1_1_grid_lines.html#ab69813081e93a5ca22a6f5de2542f90c" target="_top" xlink:title="viewcontroller.turtlegrid.\lGridLines.createColumn">
<polygon fill="white" stroke="black" points="350.5,-49 350.5,-79 481.5,-79 481.5,-49 350.5,-49"/>
<text text-anchor="start" x="358.5" y="-67" font-family="Helvetica,sans-Serif" font-size="10.00">viewcontroller.turtlegrid.</text>
<text text-anchor="middle" x="416" y="-56" font-family="Helvetica,sans-Serif" font-size="10.00">GridLines.createColumn</text>
</a>
</g>
</g>
<!-- Node2&#45;&gt;Node3 -->
<g id="edge2" class="edge"><title>Node2&#45;&gt;Node3</title>
<path fill="none" stroke="midnightblue" d="M313.765,-64C322.411,-64 331.301,-64 340.053,-64"/>
<polygon fill="midnightblue" stroke="midnightblue" points="340.24,-67.5001 350.24,-64 340.24,-60.5001 340.24,-67.5001"/>
</g>
<!-- Node5 -->
<g id="node5" class="node"><title>Node5</title>
<g id="a_node5"><a xlink:href="../../d4/d4e/classviewcontroller_1_1turtlegrid_1_1_grid_lines.html#a27dc0c3932d0ee505524b2570b9b563a" target="_top" xlink:title="viewcontroller.turtlegrid.\lGridLines.createRow">
<polygon fill="white" stroke="black" points="350.5,-0 350.5,-30 481.5,-30 481.5,-0 350.5,-0"/>
<text text-anchor="start" x="358.5" y="-18" font-family="Helvetica,sans-Serif" font-size="10.00">viewcontroller.turtlegrid.</text>
<text text-anchor="middle" x="416" y="-7" font-family="Helvetica,sans-Serif" font-size="10.00">GridLines.createRow</text>
</a>
</g>
</g>
<!-- Node4&#45;&gt;Node5 -->
<g id="edge4" class="edge"><title>Node4&#45;&gt;Node5</title>
<path fill="none" stroke="midnightblue" d="M310.856,-15C320.459,-15 330.421,-15 340.206,-15"/>
<polygon fill="midnightblue" stroke="midnightblue" points="340.317,-18.5001 350.317,-15 340.317,-11.5001 340.317,-18.5001"/>
</g>
</g>
</svg>
