<?xml version="1.0" encoding="UTF-8" standalone="no"?>
<!DOCTYPE svg PUBLIC "-//W3C//DTD SVG 1.1//EN"
 "http://www.w3.org/Graphics/SVG/1.1/DTD/svg11.dtd">
<!-- Generated by graphviz version 2.36.0 (20140111.2315)
 -->
<!-- Title: viewcontroller.turtlegrid.GridLines.createRows Pages: 1 -->
<svg width="1098pt" height="87pt"
 viewBox="0.00 0.00 1098.00 87.00" xmlns="http://www.w3.org/2000/svg" xmlns:xlink="http://www.w3.org/1999/xlink">
<g id="graph0" class="graph" transform="scale(1 1) rotate(0) translate(4 83)">
<title>viewcontroller.turtlegrid.GridLines.createRows</title>
<polygon fill="white" stroke="none" points="-4,4 -4,-83 1094,-83 1094,4 -4,4"/>
<!-- Node1 -->
<g id="node1" class="node"><title>Node1</title>
<polygon fill="#bfbfbf" stroke="black" points="0.5,-24 0.5,-54 131.5,-54 131.5,-24 0.5,-24"/>
<text text-anchor="start" x="8.5" y="-42" font-family="Helvetica,sans-Serif" font-size="10.00">viewcontroller.turtlegrid.</text>
<text text-anchor="middle" x="66" y="-31" font-family="Helvetica,sans-Serif" font-size="10.00">GridLines.createRows</text>
</g>
<!-- Node2 -->
<g id="node2" class="node"><title>Node2</title>
<g id="a_node2"><a xlink:href="../../d4/d4e/classviewcontroller_1_1turtlegrid_1_1_grid_lines.html#af24232825b9201fa4f5e911db2402cff" target="_top" xlink:title="viewcontroller.turtlegrid.\lGridLines.createGridLines">
<polygon fill="white" stroke="black" points="168.5,-24 168.5,-54 307.5,-54 307.5,-24 168.5,-24"/>
<text text-anchor="start" x="176.5" y="-42" font-family="Helvetica,sans-Serif" font-size="10.00">viewcontroller.turtlegrid.</text>
<text text-anchor="middle" x="238" y="-31" font-family="Helvetica,sans-Serif" font-size="10.00">GridLines.createGridLines</text>
</a>
</g>
</g>
<!-- Node1&#45;&gt;Node2 -->
<g id="edge1" class="edge"><title>Node1&#45;&gt;Node2</title>
<path fill="none" stroke="midnightblue" d="M142.001,-39C150.806,-39 159.757,-39 168.467,-39"/>
<polygon fill="midnightblue" stroke="midnightblue" points="141.755,-35.5001 131.755,-39 141.755,-42.5001 141.755,-35.5001"/>
</g>
<!-- Node3 -->
<g id="node3" class="node"><title>Node3</title>
<g id="a_node3"><a xlink:href="../../d4/d4e/classviewcontroller_1_1turtlegrid_1_1_grid_lines.html#a1cb8b04bbce74da615655b6f87d560e8" target="_top" xlink:title="viewcontroller.turtlegrid.\lGridLines.changeSize">
<polygon fill="white" stroke="black" points="344.5,-49 344.5,-79 475.5,-79 475.5,-49 344.5,-49"/>
<text text-anchor="start" x="352.5" y="-67" font-family="Helvetica,sans-Serif" font-size="10.00">viewcontroller.turtlegrid.</text>
<text text-anchor="middle" x="410" y="-56" font-family="Helvetica,sans-Serif" font-size="10.00">GridLines.changeSize</text>
</a>
</g>
</g>
<!-- Node2&#45;&gt;Node3 -->
<g id="edge2" class="edge"><title>Node2&#45;&gt;Node3</title>
<path fill="none" stroke="midnightblue" d="M317.716,-50.5759C326.682,-51.8944 335.741,-53.2266 344.492,-54.5135"/>
<polygon fill="midnightblue" stroke="midnightblue" points="318.058,-47.0887 307.655,-49.0964 317.04,-54.0142 318.058,-47.0887"/>
</g>
<!-- Node7 -->
<g id="node7" class="node"><title>Node7</title>
<g id="a_node7"><a xlink:href="../../d4/d4e/classviewcontroller_1_1turtlegrid_1_1_grid_lines.html#ab274bdf8fe3c7748ee28f43252677d7f" target="_top" xlink:title="viewcontroller.turtlegrid.\lGridLines.GridLines">
<polygon fill="white" stroke="black" points="344.5,-0 344.5,-30 475.5,-30 475.5,-0 344.5,-0"/>
<text text-anchor="start" x="352.5" y="-18" font-family="Helvetica,sans-Serif" font-size="10.00">viewcontroller.turtlegrid.</text>
<text text-anchor="middle" x="410" y="-7" font-family="Helvetica,sans-Serif" font-size="10.00">GridLines.GridLines</text>
</a>
</g>
</g>
<!-- Node2&#45;&gt;Node7 -->
<g id="edge6" class="edge"><title>Node2&#45;&gt;Node7</title>
<path fill="none" stroke="midnightblue" d="M317.716,-27.8871C326.682,-26.6214 335.741,-25.3425 344.492,-24.1071"/>
<polygon fill="midnightblue" stroke="midnightblue" points="317.068,-24.4438 307.655,-29.3075 318.047,-31.3751 317.068,-24.4438"/>
</g>
<!-- Node4 -->
<g id="node4" class="node"><title>Node4</title>
<g id="a_node4"><a xlink:href="../../d5/dcc/classviewcontroller_1_1turtlegrid_1_1_grid_view_controller.html#ad47f1eb64161a940fffabaa00b1e19f0" target="_top" xlink:title="viewcontroller.turtlegrid.\lGridViewController.fixGridBackground">
<polygon fill="white" stroke="black" points="512,-49 512,-79 706,-79 706,-49 512,-49"/>
<text text-anchor="start" x="520" y="-67" font-family="Helvetica,sans-Serif" font-size="10.00">viewcontroller.turtlegrid.</text>
<text text-anchor="middle" x="609" y="-56" font-family="Helvetica,sans-Serif" font-size="10.00">GridViewController.fixGridBackground</text>
</a>
</g>
</g>
<!-- Node3&#45;&gt;Node4 -->
<g id="edge3" class="edge"><title>Node3&#45;&gt;Node4</title>
<path fill="none" stroke="midnightblue" d="M485.507,-64C494.144,-64 503.043,-64 511.917,-64"/>
<polygon fill="midnightblue" stroke="midnightblue" points="485.505,-60.5001 475.505,-64 485.505,-67.5001 485.505,-60.5001"/>
</g>
<!-- Node5 -->
<g id="node5" class="node"><title>Node5</title>
<g id="a_node5"><a xlink:href="../../d5/dcc/classviewcontroller_1_1turtlegrid_1_1_grid_view_controller.html#a58f23297f6cf137808ab6d7196416e06" target="_top" xlink:title="viewcontroller.turtlegrid.\lGridViewController.updateTurtles">
<polygon fill="white" stroke="black" points="742.5,-49 742.5,-79 913.5,-79 913.5,-49 742.5,-49"/>
<text text-anchor="start" x="750.5" y="-67" font-family="Helvetica,sans-Serif" font-size="10.00">viewcontroller.turtlegrid.</text>
<text text-anchor="middle" x="828" y="-56" font-family="Helvetica,sans-Serif" font-size="10.00">GridViewController.updateTurtles</text>
</a>
</g>
</g>
<!-- Node4&#45;&gt;Node5 -->
<g id="edge4" class="edge"><title>Node4&#45;&gt;Node5</title>
<path fill="none" stroke="midnightblue" d="M716.302,-64C724.987,-64 733.692,-64 742.193,-64"/>
<polygon fill="midnightblue" stroke="midnightblue" points="716.127,-60.5001 706.127,-64 716.127,-67.5001 716.127,-60.5001"/>
</g>
<!-- Node6 -->
<g id="node6" class="node"><title>Node6</title>
<g id="a_node6"><a xlink:href="../../d5/dcc/classviewcontroller_1_1turtlegrid_1_1_grid_view_controller.html#ac4cf56a8a55a4d56d47a946719dfbc8e" target="_top" xlink:title="viewcontroller.turtlegrid.\lGridViewController.update">
<polygon fill="white" stroke="black" points="950,-49 950,-79 1090,-79 1090,-49 950,-49"/>
<text text-anchor="start" x="958" y="-67" font-family="Helvetica,sans-Serif" font-size="10.00">viewcontroller.turtlegrid.</text>
<text text-anchor="middle" x="1020" y="-56" font-family="Helvetica,sans-Serif" font-size="10.00">GridViewController.update</text>
</a>
</g>
</g>
<!-- Node5&#45;&gt;Node6 -->
<g id="edge5" class="edge"><title>Node5&#45;&gt;Node6</title>
<path fill="none" stroke="midnightblue" d="M923.942,-64C932.665,-64 941.389,-64 949.819,-64"/>
<polygon fill="midnightblue" stroke="midnightblue" points="923.72,-60.5001 913.72,-64 923.72,-67.5001 923.72,-60.5001"/>
</g>
</g>
</svg>
