<?xml version="1.0" encoding="UTF-8" standalone="no"?>
<!DOCTYPE svg PUBLIC "-//W3C//DTD SVG 1.1//EN"
 "http://www.w3.org/Graphics/SVG/1.1/DTD/svg11.dtd">
<!-- Generated by graphviz version 2.36.0 (20140111.2315)
 -->
<!-- Title: viewcontroller.turtlegrid.GridLines.createColumn Pages: 1 -->
<svg width="1272pt" height="87pt"
 viewBox="0.00 0.00 1272.00 87.00" xmlns="http://www.w3.org/2000/svg" xmlns:xlink="http://www.w3.org/1999/xlink">
<g id="graph0" class="graph" transform="scale(1 1) rotate(0) translate(4 83)">
<title>viewcontroller.turtlegrid.GridLines.createColumn</title>
<polygon fill="white" stroke="none" points="-4,4 -4,-83 1268,-83 1268,4 -4,4"/>
<!-- Node1 -->
<g id="node1" class="node"><title>Node1</title>
<polygon fill="#bfbfbf" stroke="black" points="0.5,-24 0.5,-54 131.5,-54 131.5,-24 0.5,-24"/>
<text text-anchor="start" x="8.5" y="-42" font-family="Helvetica,sans-Serif" font-size="10.00">viewcontroller.turtlegrid.</text>
<text text-anchor="middle" x="66" y="-31" font-family="Helvetica,sans-Serif" font-size="10.00">GridLines.createColumn</text>
</g>
<!-- Node2 -->
<g id="node2" class="node"><title>Node2</title>
<g id="a_node2"><a xlink:href="../../d4/d4e/classviewcontroller_1_1turtlegrid_1_1_grid_lines.html#a6bd666dc845cbc177abc1ef9628d0af6" target="_top" xlink:title="viewcontroller.turtlegrid.\lGridLines.createColumns">
<polygon fill="white" stroke="black" points="168.5,-24 168.5,-54 305.5,-54 305.5,-24 168.5,-24"/>
<text text-anchor="start" x="176.5" y="-42" font-family="Helvetica,sans-Serif" font-size="10.00">viewcontroller.turtlegrid.</text>
<text text-anchor="middle" x="237" y="-31" font-family="Helvetica,sans-Serif" font-size="10.00">GridLines.createColumns</text>
</a>
</g>
</g>
<!-- Node1&#45;&gt;Node2 -->
<g id="edge1" class="edge"><title>Node1&#45;&gt;Node2</title>
<path fill="none" stroke="midnightblue" d="M142.018,-39C150.746,-39 159.612,-39 168.235,-39"/>
<polygon fill="midnightblue" stroke="midnightblue" points="141.857,-35.5001 131.856,-39 141.856,-42.5001 141.857,-35.5001"/>
</g>
<!-- Node3 -->
<g id="node3" class="node"><title>Node3</title>
<g id="a_node3"><a xlink:href="../../d4/d4e/classviewcontroller_1_1turtlegrid_1_1_grid_lines.html#af24232825b9201fa4f5e911db2402cff" target="_top" xlink:title="viewcontroller.turtlegrid.\lGridLines.createGridLines">
<polygon fill="white" stroke="black" points="342.5,-24 342.5,-54 481.5,-54 481.5,-24 342.5,-24"/>
<text text-anchor="start" x="350.5" y="-42" font-family="Helvetica,sans-Serif" font-size="10.00">viewcontroller.turtlegrid.</text>
<text text-anchor="middle" x="412" y="-31" font-family="Helvetica,sans-Serif" font-size="10.00">GridLines.createGridLines</text>
</a>
</g>
</g>
<!-- Node2&#45;&gt;Node3 -->
<g id="edge2" class="edge"><title>Node2&#45;&gt;Node3</title>
<path fill="none" stroke="midnightblue" d="M316.119,-39C324.907,-39 333.812,-39 342.466,-39"/>
<polygon fill="midnightblue" stroke="midnightblue" points="315.878,-35.5001 305.878,-39 315.878,-42.5001 315.878,-35.5001"/>
</g>
<!-- Node4 -->
<g id="node4" class="node"><title>Node4</title>
<g id="a_node4"><a xlink:href="../../d4/d4e/classviewcontroller_1_1turtlegrid_1_1_grid_lines.html#ab274bdf8fe3c7748ee28f43252677d7f" target="_top" xlink:title="viewcontroller.turtlegrid.\lGridLines.GridLines">
<polygon fill="white" stroke="black" points="518.5,-49 518.5,-79 649.5,-79 649.5,-49 518.5,-49"/>
<text text-anchor="start" x="526.5" y="-67" font-family="Helvetica,sans-Serif" font-size="10.00">viewcontroller.turtlegrid.</text>
<text text-anchor="middle" x="584" y="-56" font-family="Helvetica,sans-Serif" font-size="10.00">GridLines.GridLines</text>
</a>
</g>
</g>
<!-- Node3&#45;&gt;Node4 -->
<g id="edge3" class="edge"><title>Node3&#45;&gt;Node4</title>
<path fill="none" stroke="midnightblue" d="M491.716,-50.5759C500.682,-51.8944 509.741,-53.2266 518.492,-54.5135"/>
<polygon fill="midnightblue" stroke="midnightblue" points="492.058,-47.0887 481.655,-49.0964 491.04,-54.0142 492.058,-47.0887"/>
</g>
<!-- Node5 -->
<g id="node5" class="node"><title>Node5</title>
<g id="a_node5"><a xlink:href="../../d4/d4e/classviewcontroller_1_1turtlegrid_1_1_grid_lines.html#a1cb8b04bbce74da615655b6f87d560e8" target="_top" xlink:title="viewcontroller.turtlegrid.\lGridLines.changeSize">
<polygon fill="white" stroke="black" points="518.5,-0 518.5,-30 649.5,-30 649.5,-0 518.5,-0"/>
<text text-anchor="start" x="526.5" y="-18" font-family="Helvetica,sans-Serif" font-size="10.00">viewcontroller.turtlegrid.</text>
<text text-anchor="middle" x="584" y="-7" font-family="Helvetica,sans-Serif" font-size="10.00">GridLines.changeSize</text>
</a>
</g>
</g>
<!-- Node3&#45;&gt;Node5 -->
<g id="edge4" class="edge"><title>Node3&#45;&gt;Node5</title>
<path fill="none" stroke="midnightblue" d="M491.716,-27.8871C500.682,-26.6214 509.741,-25.3425 518.492,-24.1071"/>
<polygon fill="midnightblue" stroke="midnightblue" points="491.068,-24.4438 481.655,-29.3075 492.047,-31.3751 491.068,-24.4438"/>
</g>
<!-- Node6 -->
<g id="node6" class="node"><title>Node6</title>
<g id="a_node6"><a xlink:href="../../d5/dcc/classviewcontroller_1_1turtlegrid_1_1_grid_view_controller.html#ad47f1eb64161a940fffabaa00b1e19f0" target="_top" xlink:title="viewcontroller.turtlegrid.\lGridViewController.fixGridBackground">
<polygon fill="white" stroke="black" points="686,-0 686,-30 880,-30 880,-0 686,-0"/>
<text text-anchor="start" x="694" y="-18" font-family="Helvetica,sans-Serif" font-size="10.00">viewcontroller.turtlegrid.</text>
<text text-anchor="middle" x="783" y="-7" font-family="Helvetica,sans-Serif" font-size="10.00">GridViewController.fixGridBackground</text>
</a>
</g>
</g>
<!-- Node5&#45;&gt;Node6 -->
<g id="edge5" class="edge"><title>Node5&#45;&gt;Node6</title>
<path fill="none" stroke="midnightblue" d="M659.507,-15C668.144,-15 677.043,-15 685.917,-15"/>
<polygon fill="midnightblue" stroke="midnightblue" points="659.505,-11.5001 649.505,-15 659.505,-18.5001 659.505,-11.5001"/>
</g>
<!-- Node7 -->
<g id="node7" class="node"><title>Node7</title>
<g id="a_node7"><a xlink:href="../../d5/dcc/classviewcontroller_1_1turtlegrid_1_1_grid_view_controller.html#a58f23297f6cf137808ab6d7196416e06" target="_top" xlink:title="viewcontroller.turtlegrid.\lGridViewController.updateTurtles">
<polygon fill="white" stroke="black" points="916.5,-0 916.5,-30 1087.5,-30 1087.5,-0 916.5,-0"/>
<text text-anchor="start" x="924.5" y="-18" font-family="Helvetica,sans-Serif" font-size="10.00">viewcontroller.turtlegrid.</text>
<text text-anchor="middle" x="1002" y="-7" font-family="Helvetica,sans-Serif" font-size="10.00">GridViewController.updateTurtles</text>
</a>
</g>
</g>
<!-- Node6&#45;&gt;Node7 -->
<g id="edge6" class="edge"><title>Node6&#45;&gt;Node7</title>
<path fill="none" stroke="midnightblue" d="M890.302,-15C898.987,-15 907.692,-15 916.193,-15"/>
<polygon fill="midnightblue" stroke="midnightblue" points="890.127,-11.5001 880.127,-15 890.127,-18.5001 890.127,-11.5001"/>
</g>
<!-- Node8 -->
<g id="node8" class="node"><title>Node8</title>
<g id="a_node8"><a xlink:href="../../d5/dcc/classviewcontroller_1_1turtlegrid_1_1_grid_view_controller.html#ac4cf56a8a55a4d56d47a946719dfbc8e" target="_top" xlink:title="viewcontroller.turtlegrid.\lGridViewController.update">
<polygon fill="white" stroke="black" points="1124,-0 1124,-30 1264,-30 1264,-0 1124,-0"/>
<text text-anchor="start" x="1132" y="-18" font-family="Helvetica,sans-Serif" font-size="10.00">viewcontroller.turtlegrid.</text>
<text text-anchor="middle" x="1194" y="-7" font-family="Helvetica,sans-Serif" font-size="10.00">GridViewController.update</text>
</a>
</g>
</g>
<!-- Node7&#45;&gt;Node8 -->
<g id="edge7" class="edge"><title>Node7&#45;&gt;Node8</title>
<path fill="none" stroke="midnightblue" d="M1097.94,-15C1106.67,-15 1115.39,-15 1123.82,-15"/>
<polygon fill="midnightblue" stroke="midnightblue" points="1097.72,-11.5001 1087.72,-15 1097.72,-18.5001 1097.72,-11.5001"/>
</g>
</g>
</svg>
