<?xml version="1.0" encoding="UTF-8" standalone="no"?>
<!DOCTYPE svg PUBLIC "-//W3C//DTD SVG 1.1//EN"
 "http://www.w3.org/Graphics/SVG/1.1/DTD/svg11.dtd">
<!-- Generated by graphviz version 2.36.0 (20140111.2315)
 -->
<!-- Title: viewcontroller.turtlegrid.GridLines.toggle Pages: 1 -->
<svg width="1342pt" height="48pt"
 viewBox="0.00 0.00 1342.00 48.00" xmlns="http://www.w3.org/2000/svg" xmlns:xlink="http://www.w3.org/1999/xlink">
<g id="graph0" class="graph" transform="scale(1 1) rotate(0) translate(4 44)">
<title>viewcontroller.turtlegrid.GridLines.toggle</title>
<polygon fill="white" stroke="none" points="-4,4 -4,-44 1338,-44 1338,4 -4,4"/>
<!-- Node1 -->
<g id="node1" class="node"><title>Node1</title>
<polygon fill="#bfbfbf" stroke="black" points="0.5,-5 0.5,-35 131.5,-35 131.5,-5 0.5,-5"/>
<text text-anchor="start" x="8.5" y="-23" font-family="Helvetica,sans-Serif" font-size="10.00">viewcontroller.turtlegrid.</text>
<text text-anchor="middle" x="66" y="-12" font-family="Helvetica,sans-Serif" font-size="10.00">GridLines.toggle</text>
</g>
<!-- Node2 -->
<g id="node2" class="node"><title>Node2</title>
<g id="a_node2"><a xlink:href="../../d5/dcc/classviewcontroller_1_1turtlegrid_1_1_grid_view_controller.html#a8edc5ad5113a176c219b079873081a11" target="_top" xlink:title="viewcontroller.turtlegrid.\lGridViewController.toggleGridLines">
<polygon fill="white" stroke="black" points="168.5,-5 168.5,-35 349.5,-35 349.5,-5 168.5,-5"/>
<text text-anchor="start" x="176.5" y="-23" font-family="Helvetica,sans-Serif" font-size="10.00">viewcontroller.turtlegrid.</text>
<text text-anchor="middle" x="259" y="-12" font-family="Helvetica,sans-Serif" font-size="10.00">GridViewController.toggleGridLines</text>
</a>
</g>
</g>
<!-- Node1&#45;&gt;Node2 -->
<g id="edge1" class="edge"><title>Node1&#45;&gt;Node2</title>
<path fill="none" stroke="midnightblue" d="M141.765,-20C150.481,-20 159.439,-20 168.329,-20"/>
<polygon fill="midnightblue" stroke="midnightblue" points="141.664,-16.5001 131.664,-20 141.664,-23.5001 141.664,-16.5001"/>
</g>
<!-- Node3 -->
<g id="node3" class="node"><title>Node3</title>
<g id="a_node3"><a xlink:href="../../d3/daf/classviewcontroller_1_1turtlegrid_1_1_turtle_window_view_controller.html#a5cb54632b9c42ee88e4e6d743fa0ea9f" target="_top" xlink:title="viewcontroller.turtlegrid.\lTurtleWindowViewController.toggle\lGridLines">
<polygon fill="white" stroke="black" points="386,0.5 386,-40.5 564,-40.5 564,0.5 386,0.5"/>
<text text-anchor="start" x="394" y="-28.5" font-family="Helvetica,sans-Serif" font-size="10.00">viewcontroller.turtlegrid.</text>
<text text-anchor="start" x="394" y="-17.5" font-family="Helvetica,sans-Serif" font-size="10.00">TurtleWindowViewController.toggle</text>
<text text-anchor="middle" x="475" y="-6.5" font-family="Helvetica,sans-Serif" font-size="10.00">GridLines</text>
</a>
</g>
</g>
<!-- Node2&#45;&gt;Node3 -->
<g id="edge2" class="edge"><title>Node2&#45;&gt;Node3</title>
<path fill="none" stroke="midnightblue" d="M359.72,-20C368.451,-20 377.246,-20 385.872,-20"/>
<polygon fill="midnightblue" stroke="midnightblue" points="359.515,-16.5001 349.515,-20 359.515,-23.5001 359.515,-16.5001"/>
</g>
<!-- Node4 -->
<g id="node4" class="node"><title>Node4</title>
<g id="a_node4"><a xlink:href="../../d3/d67/classviewcontroller_1_1_main_view_controller.html#add243b11d602448835e6422f377eb2f7" target="_top" xlink:title="viewcontroller.MainViewController.toggle\lGridLines">
<polygon fill="white" stroke="black" points="600.5,-5 600.5,-35 807.5,-35 807.5,-5 600.5,-5"/>
<text text-anchor="start" x="608.5" y="-23" font-family="Helvetica,sans-Serif" font-size="10.00">viewcontroller.MainViewController.toggle</text>
<text text-anchor="middle" x="704" y="-12" font-family="Helvetica,sans-Serif" font-size="10.00">GridLines</text>
</a>
</g>
</g>
<!-- Node3&#45;&gt;Node4 -->
<g id="edge3" class="edge"><title>Node3&#45;&gt;Node4</title>
<path fill="none" stroke="midnightblue" d="M574.159,-20C582.794,-20 591.55,-20 600.222,-20"/>
<polygon fill="midnightblue" stroke="midnightblue" points="574.089,-16.5001 564.089,-20 574.089,-23.5001 574.089,-16.5001"/>
</g>
<!-- Node5 -->
<g id="node5" class="node"><title>Node5</title>
<g id="a_node5"><a xlink:href="../../da/d4e/classviewcontroller_1_1_view.html#a663f58ba5e84352186e4c332b407cd8e" target="_top" xlink:title="viewcontroller.View.toggle\lGridLines">
<polygon fill="white" stroke="black" points="844,-5 844,-35 982,-35 982,-5 844,-5"/>
<text text-anchor="start" x="852" y="-23" font-family="Helvetica,sans-Serif" font-size="10.00">viewcontroller.View.toggle</text>
<text text-anchor="middle" x="913" y="-12" font-family="Helvetica,sans-Serif" font-size="10.00">GridLines</text>
</a>
</g>
</g>
<!-- Node4&#45;&gt;Node5 -->
<g id="edge4" class="edge"><title>Node4&#45;&gt;Node5</title>
<path fill="none" stroke="midnightblue" d="M817.671,-20C826.577,-20 835.393,-20 843.85,-20"/>
<polygon fill="midnightblue" stroke="midnightblue" points="817.59,-16.5001 807.59,-20 817.59,-23.5001 817.59,-16.5001"/>
</g>
<!-- Node6 -->
<g id="node6" class="node"><title>Node6</title>
<g id="a_node6"><a xlink:href="../../df/df9/classviewcontroller_1_1_s_logo_menu_bar.html#a068f788551874f8c8862c10f8f0f6253" target="_top" xlink:title="viewcontroller.SLogoMenu\lBar.initializeGridMenu">
<polygon fill="white" stroke="black" points="1018,-5 1018,-35 1158,-35 1158,-5 1018,-5"/>
<text text-anchor="start" x="1026" y="-23" font-family="Helvetica,sans-Serif" font-size="10.00">viewcontroller.SLogoMenu</text>
<text text-anchor="middle" x="1088" y="-12" font-family="Helvetica,sans-Serif" font-size="10.00">Bar.initializeGridMenu</text>
</a>
</g>
</g>
<!-- Node5&#45;&gt;Node6 -->
<g id="edge5" class="edge"><title>Node5&#45;&gt;Node6</title>
<path fill="none" stroke="midnightblue" d="M992.624,-20C1001.09,-20 1009.65,-20 1017.99,-20"/>
<polygon fill="midnightblue" stroke="midnightblue" points="992.374,-16.5001 982.374,-20 992.374,-23.5001 992.374,-16.5001"/>
</g>
<!-- Node7 -->
<g id="node7" class="node"><title>Node7</title>
<g id="a_node7"><a xlink:href="../../df/df9/classviewcontroller_1_1_s_logo_menu_bar.html#a75b45d0a4b08de5ff8588fc15b2f14fe" target="_top" xlink:title="viewcontroller.SLogoMenu\lBar.SLogoMenuBar">
<polygon fill="white" stroke="black" points="1194,-5 1194,-35 1334,-35 1334,-5 1194,-5"/>
<text text-anchor="start" x="1202" y="-23" font-family="Helvetica,sans-Serif" font-size="10.00">viewcontroller.SLogoMenu</text>
<text text-anchor="middle" x="1264" y="-12" font-family="Helvetica,sans-Serif" font-size="10.00">Bar.SLogoMenuBar</text>
</a>
</g>
</g>
<!-- Node6&#45;&gt;Node7 -->
<g id="edge6" class="edge"><title>Node6&#45;&gt;Node7</title>
<path fill="none" stroke="midnightblue" d="M1168.03,-20C1176.62,-20 1185.32,-20 1193.78,-20"/>
<polygon fill="midnightblue" stroke="midnightblue" points="1168.02,-16.5001 1158.02,-20 1168.02,-23.5001 1168.02,-16.5001"/>
</g>
</g>
</svg>
