<?xml version="1.0" encoding="UTF-8" standalone="no"?>
<!DOCTYPE svg PUBLIC "-//W3C//DTD SVG 1.1//EN"
 "http://www.w3.org/Graphics/SVG/1.1/DTD/svg11.dtd">
<!-- Generated by graphviz version 2.36.0 (20140111.2315)
 -->
<!-- Title: viewcontroller.turtlegrid.GridLines.createColumns Pages: 1 -->
<svg width="314pt" height="38pt"
 viewBox="0.00 0.00 314.00 38.00" xmlns="http://www.w3.org/2000/svg" xmlns:xlink="http://www.w3.org/1999/xlink">
<g id="graph0" class="graph" transform="scale(1 1) rotate(0) translate(4 34)">
<title>viewcontroller.turtlegrid.GridLines.createColumns</title>
<polygon fill="white" stroke="none" points="-4,4 -4,-34 310,-34 310,4 -4,4"/>
<!-- Node1 -->
<g id="node1" class="node"><title>Node1</title>
<polygon fill="#bfbfbf" stroke="black" points="0.5,-0 0.5,-30 137.5,-30 137.5,-0 0.5,-0"/>
<text text-anchor="start" x="8.5" y="-18" font-family="Helvetica,sans-Serif" font-size="10.00">viewcontroller.turtlegrid.</text>
<text text-anchor="middle" x="69" y="-7" font-family="Helvetica,sans-Serif" font-size="10.00">GridLines.createColumns</text>
</g>
<!-- Node2 -->
<g id="node2" class="node"><title>Node2</title>
<g id="a_node2"><a xlink:href="../../d4/d4e/classviewcontroller_1_1turtlegrid_1_1_grid_lines.html#ab69813081e93a5ca22a6f5de2542f90c" target="_top" xlink:title="viewcontroller.turtlegrid.\lGridLines.createColumn">
<polygon fill="white" stroke="black" points="174.5,-0 174.5,-30 305.5,-30 305.5,-0 174.5,-0"/>
<text text-anchor="start" x="182.5" y="-18" font-family="Helvetica,sans-Serif" font-size="10.00">viewcontroller.turtlegrid.</text>
<text text-anchor="middle" x="240" y="-7" font-family="Helvetica,sans-Serif" font-size="10.00">GridLines.createColumn</text>
</a>
</g>
</g>
<!-- Node1&#45;&gt;Node2 -->
<g id="edge1" class="edge"><title>Node1&#45;&gt;Node2</title>
<path fill="none" stroke="midnightblue" d="M137.765,-15C146.411,-15 155.301,-15 164.053,-15"/>
<polygon fill="midnightblue" stroke="midnightblue" points="164.24,-18.5001 174.24,-15 164.24,-11.5001 164.24,-18.5001"/>
</g>
</g>
</svg>
