<?xml version="1.0" encoding="UTF-8" standalone="no"?>
<!DOCTYPE svg PUBLIC "-//W3C//DTD SVG 1.1//EN"
 "http://www.w3.org/Graphics/SVG/1.1/DTD/svg11.dtd">
<!-- Generated by graphviz version 2.36.0 (20140111.2315)
 -->
<!-- Title: viewcontroller.turtlegrid.GridLines.createColumns Pages: 1 -->
<!--zoomable 87 -->
<svg id="main" version="1.1" xmlns="http://www.w3.org/2000/svg" xmlns:xlink="http://www.w3.org/1999/xlink" xml:space="preserve" onload="init(evt)">
<style type="text/css"><![CDATA[
.edge:hover path { stroke: red; }
.edge:hover polygon { stroke: red; fill: red; }
]]></style>
<script type="text/javascript"><![CDATA[
var edges = document.getElementsByTagName('g');
if (edges && edges.length) {
  for (var i=0;i<edges.length;i++) {
    if (edges[i].id.substr(0,4)=='edge') {
      edges[i].setAttribute('class','edge');
    }
  }
}
]]></script>
        <defs>
                <circle id="rim" cx="0" cy="0" r="7"/>
                <circle id="rim2" cx="0" cy="0" r="3.5"/>
                <g id="zoomPlus">
                        <use xlink:href="#rim" fill="#404040">
                                <set attributeName="fill" to="#808080" begin="zoomplus.mouseover" end="zoomplus.mouseout"/>
                        </use>
                        <path d="M-4,0h8M0,-4v8" fill="none" stroke="white" stroke-width="1.5" pointer-events="none"/>
                </g>
                <g id="zoomMin">
                        <use xlink:href="#rim" fill="#404040">
                                <set attributeName="fill" to="#808080" begin="zoomminus.mouseover" end="zoomminus.mouseout"/>
                        </use>
                        <path d="M-4,0h8" fill="none" stroke="white" stroke-width="1.5" pointer-events="none"/>
                </g>
                <g id="dirArrow">
                        <path fill="none" stroke="white" stroke-width="1.5" d="M0,-3.0v7 M-2.5,-0.5L0,-3.0L2.5,-0.5"/>
                </g>
               <g id="resetDef">
                       <use xlink:href="#rim2" fill="#404040">
                               <set attributeName="fill" to="#808080" begin="reset.mouseover" end="reset.mouseout"/>
                       </use>
               </g>
        </defs>

<script type="text/javascript">
var viewWidth = 1104;
var viewHeight = 87;
var sectionId = 'dynsection-7';
</script>
<script xlink:href="../../svgpan.js"/>
<svg id="graph" class="graph">
<g id="viewport">
<title>viewcontroller.turtlegrid.GridLines.createColumns</title>
<polygon fill="white" stroke="none" points="-4,4 -4,-83 1100,-83 1100,4 -4,4"/>
<!-- Node1 -->
<g id="node1" class="node"><title>Node1</title>
<polygon fill="#bfbfbf" stroke="black" points="0.5,-24 0.5,-54 137.5,-54 137.5,-24 0.5,-24"/>
<text text-anchor="start" x="8.5" y="-42" font-family="Helvetica,sans-Serif" font-size="10.00">viewcontroller.turtlegrid.</text>
<text text-anchor="middle" x="69" y="-31" font-family="Helvetica,sans-Serif" font-size="10.00">GridLines.createColumns</text>
</g>
<!-- Node2 -->
<g id="node2" class="node"><title>Node2</title>
<g id="a_node2"><a xlink:href="../../d4/d4e/classviewcontroller_1_1turtlegrid_1_1_grid_lines.html#af24232825b9201fa4f5e911db2402cff" target="_top" xlink:title="viewcontroller.turtlegrid.\lGridLines.createGridLines">
<polygon fill="white" stroke="black" points="174.5,-24 174.5,-54 313.5,-54 313.5,-24 174.5,-24"/>
<text text-anchor="start" x="182.5" y="-42" font-family="Helvetica,sans-Serif" font-size="10.00">viewcontroller.turtlegrid.</text>
<text text-anchor="middle" x="244" y="-31" font-family="Helvetica,sans-Serif" font-size="10.00">GridLines.createGridLines</text>
</a>
</g>
</g>
<!-- Node1&#45;&gt;Node2 -->
<g id="edge1" class="edge"><title>Node1&#45;&gt;Node2</title>
<path fill="none" stroke="midnightblue" d="M148.119,-39C156.907,-39 165.812,-39 174.466,-39"/>
<polygon fill="midnightblue" stroke="midnightblue" points="147.878,-35.5001 137.878,-39 147.878,-42.5001 147.878,-35.5001"/>
</g>
<!-- Node3 -->
<g id="node3" class="node"><title>Node3</title>
<g id="a_node3"><a xlink:href="../../d4/d4e/classviewcontroller_1_1turtlegrid_1_1_grid_lines.html#ab274bdf8fe3c7748ee28f43252677d7f" target="_top" xlink:title="viewcontroller.turtlegrid.\lGridLines.GridLines">
<polygon fill="white" stroke="black" points="350.5,-49 350.5,-79 481.5,-79 481.5,-49 350.5,-49"/>
<text text-anchor="start" x="358.5" y="-67" font-family="Helvetica,sans-Serif" font-size="10.00">viewcontroller.turtlegrid.</text>
<text text-anchor="middle" x="416" y="-56" font-family="Helvetica,sans-Serif" font-size="10.00">GridLines.GridLines</text>
</a>
</g>
</g>
<!-- Node2&#45;&gt;Node3 -->
<g id="edge2" class="edge"><title>Node2&#45;&gt;Node3</title>
<path fill="none" stroke="midnightblue" d="M323.716,-50.5759C332.682,-51.8944 341.741,-53.2266 350.492,-54.5135"/>
<polygon fill="midnightblue" stroke="midnightblue" points="324.058,-47.0887 313.655,-49.0964 323.04,-54.0142 324.058,-47.0887"/>
</g>
<!-- Node4 -->
<g id="node4" class="node"><title>Node4</title>
<g id="a_node4"><a xlink:href="../../d4/d4e/classviewcontroller_1_1turtlegrid_1_1_grid_lines.html#a1cb8b04bbce74da615655b6f87d560e8" target="_top" xlink:title="viewcontroller.turtlegrid.\lGridLines.changeSize">
<polygon fill="white" stroke="black" points="350.5,-0 350.5,-30 481.5,-30 481.5,-0 350.5,-0"/>
<text text-anchor="start" x="358.5" y="-18" font-family="Helvetica,sans-Serif" font-size="10.00">viewcontroller.turtlegrid.</text>
<text text-anchor="middle" x="416" y="-7" font-family="Helvetica,sans-Serif" font-size="10.00">GridLines.changeSize</text>
</a>
</g>
</g>
<!-- Node2&#45;&gt;Node4 -->
<g id="edge3" class="edge"><title>Node2&#45;&gt;Node4</title>
<path fill="none" stroke="midnightblue" d="M323.716,-27.8871C332.682,-26.6214 341.741,-25.3425 350.492,-24.1071"/>
<polygon fill="midnightblue" stroke="midnightblue" points="323.068,-24.4438 313.655,-29.3075 324.047,-31.3751 323.068,-24.4438"/>
</g>
<!-- Node5 -->
<g id="node5" class="node"><title>Node5</title>
<g id="a_node5"><a xlink:href="../../d5/dcc/classviewcontroller_1_1turtlegrid_1_1_grid_view_controller.html#ad47f1eb64161a940fffabaa00b1e19f0" target="_top" xlink:title="viewcontroller.turtlegrid.\lGridViewController.fixGridBackground">
<polygon fill="white" stroke="black" points="518,-0 518,-30 712,-30 712,-0 518,-0"/>
<text text-anchor="start" x="526" y="-18" font-family="Helvetica,sans-Serif" font-size="10.00">viewcontroller.turtlegrid.</text>
<text text-anchor="middle" x="615" y="-7" font-family="Helvetica,sans-Serif" font-size="10.00">GridViewController.fixGridBackground</text>
</a>
</g>
</g>
<!-- Node4&#45;&gt;Node5 -->
<g id="edge4" class="edge"><title>Node4&#45;&gt;Node5</title>
<path fill="none" stroke="midnightblue" d="M491.507,-15C500.144,-15 509.043,-15 517.917,-15"/>
<polygon fill="midnightblue" stroke="midnightblue" points="491.505,-11.5001 481.505,-15 491.505,-18.5001 491.505,-11.5001"/>
</g>
<!-- Node6 -->
<g id="node6" class="node"><title>Node6</title>
<g id="a_node6"><a xlink:href="../../d5/dcc/classviewcontroller_1_1turtlegrid_1_1_grid_view_controller.html#a58f23297f6cf137808ab6d7196416e06" target="_top" xlink:title="viewcontroller.turtlegrid.\lGridViewController.updateTurtles">
<polygon fill="white" stroke="black" points="748.5,-0 748.5,-30 919.5,-30 919.5,-0 748.5,-0"/>
<text text-anchor="start" x="756.5" y="-18" font-family="Helvetica,sans-Serif" font-size="10.00">viewcontroller.turtlegrid.</text>
<text text-anchor="middle" x="834" y="-7" font-family="Helvetica,sans-Serif" font-size="10.00">GridViewController.updateTurtles</text>
</a>
</g>
</g>
<!-- Node5&#45;&gt;Node6 -->
<g id="edge5" class="edge"><title>Node5&#45;&gt;Node6</title>
<path fill="none" stroke="midnightblue" d="M722.302,-15C730.987,-15 739.692,-15 748.193,-15"/>
<polygon fill="midnightblue" stroke="midnightblue" points="722.127,-11.5001 712.127,-15 722.127,-18.5001 722.127,-11.5001"/>
</g>
<!-- Node7 -->
<g id="node7" class="node"><title>Node7</title>
<g id="a_node7"><a xlink:href="../../d5/dcc/classviewcontroller_1_1turtlegrid_1_1_grid_view_controller.html#ac4cf56a8a55a4d56d47a946719dfbc8e" target="_top" xlink:title="viewcontroller.turtlegrid.\lGridViewController.update">
<polygon fill="white" stroke="black" points="956,-0 956,-30 1096,-30 1096,-0 956,-0"/>
<text text-anchor="start" x="964" y="-18" font-family="Helvetica,sans-Serif" font-size="10.00">viewcontroller.turtlegrid.</text>
<text text-anchor="middle" x="1026" y="-7" font-family="Helvetica,sans-Serif" font-size="10.00">GridViewController.update</text>
</a>
</g>
</g>
<!-- Node6&#45;&gt;Node7 -->
<g id="edge6" class="edge"><title>Node6&#45;&gt;Node7</title>
<path fill="none" stroke="midnightblue" d="M929.942,-15C938.665,-15 947.389,-15 955.819,-15"/>
<polygon fill="midnightblue" stroke="midnightblue" points="929.72,-11.5001 919.72,-15 929.72,-18.5001 929.72,-11.5001"/>
</g>
</g>
</svg>
        <g id="navigator" transform="translate(0 0)" fill="#404254">
                <rect fill="#f2f5e9" fill-opacity="0.5" stroke="#606060" stroke-width=".5" x="0" y="0" width="60" height="60"/>
                <use id="zoomplus" xlink:href="#zoomPlus" x="17" y="9" onmousedown="handleZoom(evt,'in')"/>
                <use id="zoomminus" xlink:href="#zoomMin" x="42" y="9" onmousedown="handleZoom(evt,'out')"/>
                <use id="reset" xlink:href="#resetDef" x="30" y="36" onmousedown="handleReset()"/>
                <g id="arrowUp" xlink:href="#dirArrow" transform="translate(30 24)" onmousedown="handlePan(0,-1)">
                  <use xlink:href="#rim" fill="#404040">
                        <set attributeName="fill" to="#808080" begin="arrowUp.mouseover" end="arrowUp.mouseout"/>
                  </use>
                  <path fill="none" stroke="white" stroke-width="1.5" d="M0,-3.0v7 M-2.5,-0.5L0,-3.0L2.5,-0.5"/>
                </g>
                <g id="arrowRight" xlink:href="#dirArrow" transform="rotate(90) translate(36 -43)" onmousedown="handlePan(1,0)">
                  <use xlink:href="#rim" fill="#404040">
                        <set attributeName="fill" to="#808080" begin="arrowRight.mouseover" end="arrowRight.mouseout"/>
                  </use>
                  <path fill="none" stroke="white" stroke-width="1.5" d="M0,-3.0v7 M-2.5,-0.5L0,-3.0L2.5,-0.5"/>
                </g>
                <g id="arrowDown" xlink:href="#dirArrow" transform="rotate(180) translate(-30 -48)" onmousedown="handlePan(0,1)">
                  <use xlink:href="#rim" fill="#404040">
                        <set attributeName="fill" to="#808080" begin="arrowDown.mouseover" end="arrowDown.mouseout"/>
                  </use>
                  <path fill="none" stroke="white" stroke-width="1.5" d="M0,-3.0v7 M-2.5,-0.5L0,-3.0L2.5,-0.5"/>
                </g>
                <g id="arrowLeft" xlink:href="#dirArrow" transform="rotate(270) translate(-36 17)" onmousedown="handlePan(-1,0)">
                  <use xlink:href="#rim" fill="#404040">
                        <set attributeName="fill" to="#808080" begin="arrowLeft.mouseover" end="arrowLeft.mouseout"/>
                  </use>
                  <path fill="none" stroke="white" stroke-width="1.5" d="M0,-3.0v7 M-2.5,-0.5L0,-3.0L2.5,-0.5"/>
                </g>
        </g>
        <svg viewBox="0 0 15 15" width="100%" height="30px" preserveAspectRatio="xMaxYMin meet">
         <g id="arrow_out" transform="scale(0.3 0.3)">
          <a xlink:href="classviewcontroller_1_1turtlegrid_1_1_grid_lines_a6bd666dc845cbc177abc1ef9628d0af6_icgraph_org.svg" target="_base">
           <rect id="button" ry="5" rx="5" y="6" x="6" height="38" width="38"
                fill="#f2f5e9" fill-opacity="0.5" stroke="#606060" stroke-width="1.0"/>
           <path id="arrow"
             d="M 11.500037,31.436501 C 11.940474,20.09759 22.043105,11.32322 32.158766,21.979434 L 37.068811,17.246167 C 37.068811,17.246167 37.088388,32 37.088388,32 L 22.160133,31.978069 C 22.160133,31.978069 26.997745,27.140456 26.997745,27.140456 C 18.528582,18.264221 13.291696,25.230495 11.500037,31.436501 z"
             style="fill:#404040;"/>
          </a>
         </g>
        </svg>
</svg>
