<?xml version="1.0" encoding="UTF-8" standalone="no"?>
<!DOCTYPE svg PUBLIC "-//W3C//DTD SVG 1.1//EN"
 "http://www.w3.org/Graphics/SVG/1.1/DTD/svg11.dtd">
<!-- Generated by graphviz version 2.36.0 (20140111.2315)
 -->
<!-- Title: application.PenForm Pages: 1 -->
<svg width="770pt" height="402pt"
 viewBox="0.00 0.00 770.00 402.00" xmlns="http://www.w3.org/2000/svg" xmlns:xlink="http://www.w3.org/1999/xlink">
<g id="graph0" class="graph" transform="scale(1 1) rotate(0) translate(4 398)">
<title>application.PenForm</title>
<polygon fill="white" stroke="none" points="-4,4 -4,-398 766,-398 766,4 -4,4"/>
<!-- Node1 -->
<g id="node1" class="node"><title>Node1</title>
<polygon fill="#bfbfbf" stroke="black" points="648,-96.5 648,-115.5 762,-115.5 762,-96.5 648,-96.5"/>
<text text-anchor="middle" x="705" y="-103.5" font-family="Helvetica,sans-Serif" font-size="10.00">application.PenForm</text>
</g>
<!-- Node2 -->
<g id="node2" class="node"><title>Node2</title>
<g id="a_node2"><a xlink:href="../../d8/d90/classapplication_1_1_form.html" target="_top" xlink:title="application.Form">
<polygon fill="white" stroke="black" points="335,-279.5 335,-298.5 431,-298.5 431,-279.5 335,-279.5"/>
<text text-anchor="middle" x="383" y="-286.5" font-family="Helvetica,sans-Serif" font-size="10.00">application.Form</text>
</a>
</g>
</g>
<!-- Node2&#45;&gt;Node1 -->
<g id="edge1" class="edge"><title>Node2&#45;&gt;Node1</title>
<path fill="none" stroke="midnightblue" d="M413.555,-274.998C460.478,-252.412 554.439,-205.727 630,-159 652.579,-145.037 677.393,-126.575 691.783,-115.533"/>
<polygon fill="midnightblue" stroke="midnightblue" points="411.785,-271.965 404.28,-279.443 414.81,-278.278 411.785,-271.965"/>
</g>
<!-- Node3 -->
<g id="node3" class="node"><title>Node3</title>
<polygon fill="white" stroke="#bfbfbf" points="67.5,-336.5 67.5,-355.5 108.5,-355.5 108.5,-336.5 67.5,-336.5"/>
<text text-anchor="middle" x="88" y="-343.5" font-family="Helvetica,sans-Serif" font-size="10.00">VBox</text>
</g>
<!-- Node3&#45;&gt;Node2 -->
<g id="edge2" class="edge"><title>Node3&#45;&gt;Node2</title>
<path fill="none" stroke="#9a32cd" stroke-dasharray="5,2" d="M118.958,-342.378C157.061,-337.534 224.787,-328.132 282,-316 305.045,-311.113 330.691,-304.158 350.241,-298.53"/>
<polygon fill="#9a32cd" stroke="#9a32cd" points="118.067,-338.962 108.579,-343.677 118.936,-345.908 118.067,-338.962"/>
<text text-anchor="middle" x="238" y="-335" font-family="Helvetica,sans-Serif" font-size="10.00"> myFormBox</text>
</g>
<!-- Node4 -->
<g id="node4" class="node"><title>Node4</title>
<polygon fill="white" stroke="#bfbfbf" points="65.5,-298.5 65.5,-317.5 110.5,-317.5 110.5,-298.5 65.5,-298.5"/>
<text text-anchor="middle" x="88" y="-305.5" font-family="Helvetica,sans-Serif" font-size="10.00">Stage</text>
</g>
<!-- Node4&#45;&gt;Node2 -->
<g id="edge3" class="edge"><title>Node4&#45;&gt;Node2</title>
<path fill="none" stroke="#9a32cd" stroke-dasharray="5,2" d="M120.755,-305.941C172.369,-302.594 274.729,-295.956 334.858,-292.057"/>
<polygon fill="#9a32cd" stroke="#9a32cd" points="120.298,-302.463 110.545,-306.603 120.751,-309.448 120.298,-302.463"/>
<text text-anchor="middle" x="238" y="-304" font-family="Helvetica,sans-Serif" font-size="10.00"> myStage</text>
</g>
<!-- Node5 -->
<g id="node5" class="node"><title>Node5</title>
<polygon fill="white" stroke="#bfbfbf" points="63.5,-260.5 63.5,-279.5 112.5,-279.5 112.5,-260.5 63.5,-260.5"/>
<text text-anchor="middle" x="88" y="-267.5" font-family="Helvetica,sans-Serif" font-size="10.00">Button</text>
</g>
<!-- Node5&#45;&gt;Node2 -->
<g id="edge4" class="edge"><title>Node5&#45;&gt;Node2</title>
<path fill="none" stroke="#9a32cd" stroke-dasharray="5,2" d="M122.931,-271.698C161.488,-273.683 226.298,-277.185 282,-281 299.289,-282.184 318.245,-283.656 334.961,-285.014"/>
<polygon fill="#9a32cd" stroke="#9a32cd" points="122.946,-268.195 112.781,-271.18 122.589,-275.186 122.946,-268.195"/>
<text text-anchor="middle" x="238" y="-284" font-family="Helvetica,sans-Serif" font-size="10.00"> mySubmitButton</text>
</g>
<!-- Node6 -->
<g id="node6" class="node"><title>Node6</title>
<polygon fill="white" stroke="#bfbfbf" points="0.5,-222.5 0.5,-241.5 175.5,-241.5 175.5,-222.5 0.5,-222.5"/>
<text text-anchor="middle" x="88" y="-229.5" font-family="Helvetica,sans-Serif" font-size="10.00">List&lt; application.FormElement &gt;</text>
</g>
<!-- Node6&#45;&gt;Node2 -->
<g id="edge5" class="edge"><title>Node6&#45;&gt;Node2</title>
<path fill="none" stroke="#9a32cd" stroke-dasharray="5,2" d="M177.418,-242.94C210.404,-247.636 248.072,-253.73 282,-261 305.622,-266.062 331.914,-273.496 351.608,-279.432"/>
<polygon fill="#9a32cd" stroke="#9a32cd" points="177.729,-239.45 167.34,-241.528 176.758,-246.382 177.729,-239.45"/>
<text text-anchor="middle" x="238" y="-264" font-family="Helvetica,sans-Serif" font-size="10.00"> myFormElements</text>
</g>
<!-- Node7 -->
<g id="node7" class="node"><title>Node7</title>
<polygon fill="white" stroke="#bfbfbf" points="52,-374.5 52,-393.5 124,-393.5 124,-374.5 52,-374.5"/>
<text text-anchor="middle" x="88" y="-381.5" font-family="Helvetica,sans-Serif" font-size="10.00">BorderPane</text>
</g>
<!-- Node7&#45;&gt;Node2 -->
<g id="edge6" class="edge"><title>Node7&#45;&gt;Node2</title>
<path fill="none" stroke="#9a32cd" stroke-dasharray="5,2" d="M134.07,-379.694C173.941,-374.878 233.195,-365.231 282,-347 315.278,-334.569 350.343,-311.601 368.816,-298.61"/>
<polygon fill="#9a32cd" stroke="#9a32cd" points="133.65,-376.219 124.118,-380.845 134.454,-383.173 133.65,-376.219"/>
<text text-anchor="middle" x="238" y="-372" font-family="Helvetica,sans-Serif" font-size="10.00"> myPane</text>
</g>
<!-- Node8 -->
<g id="node8" class="node"><title>Node8</title>
<g id="a_node8"><a xlink:href="../../d7/de6/classapplication_1_1_number_input_form_element.html" target="_top" xlink:title="application.NumberInputForm\lElement">
<polygon fill="white" stroke="black" points="303.5,-143 303.5,-173 462.5,-173 462.5,-143 303.5,-143"/>
<text text-anchor="start" x="311.5" y="-161" font-family="Helvetica,sans-Serif" font-size="10.00">application.NumberInputForm</text>
<text text-anchor="middle" x="383" y="-150" font-family="Helvetica,sans-Serif" font-size="10.00">Element</text>
</a>
</g>
</g>
<!-- Node8&#45;&gt;Node1 -->
<g id="edge7" class="edge"><title>Node8&#45;&gt;Node1</title>
<path fill="none" stroke="#9a32cd" stroke-dasharray="5,2" d="M472.672,-145.771C519.544,-139.028 577.993,-130.176 630,-121 639.295,-119.36 649.214,-117.456 658.673,-115.566"/>
<polygon fill="#9a32cd" stroke="#9a32cd" points="471.951,-142.339 462.548,-147.221 472.943,-149.268 471.951,-142.339"/>
<text text-anchor="middle" x="557" y="-147" font-family="Helvetica,sans-Serif" font-size="10.00"> myPenWidthFormElement</text>
</g>
<!-- Node9 -->
<g id="node9" class="node"><title>Node9</title>
<polygon fill="white" stroke="#bfbfbf" points="67,-184.5 67,-203.5 109,-203.5 109,-184.5 67,-184.5"/>
<text text-anchor="middle" x="88" y="-191.5" font-family="Helvetica,sans-Serif" font-size="10.00">HBox</text>
</g>
<!-- Node9&#45;&gt;Node8 -->
<g id="edge8" class="edge"><title>Node9&#45;&gt;Node8</title>
<path fill="none" stroke="midnightblue" d="M119.421,-191.074C157.488,-187.325 224.652,-180.418 282,-173 288.964,-172.099 296.193,-171.114 303.435,-170.092"/>
<polygon fill="midnightblue" stroke="midnightblue" points="118.648,-187.633 109.036,-192.09 119.329,-194.6 118.648,-187.633"/>
</g>
<!-- Node10 -->
<g id="node10" class="node"><title>Node10</title>
<g id="a_node10"><a xlink:href="../../d0/d1b/interfaceapplication_1_1_form_element.html" target="_top" xlink:title="application.FormElement">
<polygon fill="white" stroke="black" points="20,-94.5 20,-113.5 156,-113.5 156,-94.5 20,-94.5"/>
<text text-anchor="middle" x="88" y="-101.5" font-family="Helvetica,sans-Serif" font-size="10.00">application.FormElement</text>
</a>
</g>
</g>
<!-- Node10&#45;&gt;Node8 -->
<g id="edge9" class="edge"><title>Node10&#45;&gt;Node8</title>
<path fill="none" stroke="midnightblue" d="M150.782,-115.386C195.178,-123.569 255.389,-134.665 303.238,-143.484"/>
<polygon fill="midnightblue" stroke="midnightblue" points="151.177,-111.9 140.708,-113.53 149.908,-118.784 151.177,-111.9"/>
</g>
<!-- Node12 -->
<g id="node12" class="node"><title>Node12</title>
<g id="a_node12"><a xlink:href="../../da/da5/classapplication_1_1_drop_down_form_element.html" target="_top" xlink:title="application.DropDownForm\lElement">
<polygon fill="white" stroke="black" points="310,-91 310,-121 456,-121 456,-91 310,-91"/>
<text text-anchor="start" x="318" y="-109" font-family="Helvetica,sans-Serif" font-size="10.00">application.DropDownForm</text>
<text text-anchor="middle" x="383" y="-98" font-family="Helvetica,sans-Serif" font-size="10.00">Element</text>
</a>
</g>
</g>
<!-- Node10&#45;&gt;Node12 -->
<g id="edge13" class="edge"><title>Node10&#45;&gt;Node12</title>
<path fill="none" stroke="midnightblue" d="M166.406,-104.528C210.897,-104.832 266.417,-105.211 309.972,-105.508"/>
<polygon fill="midnightblue" stroke="midnightblue" points="166.244,-101.027 156.22,-104.459 166.196,-108.027 166.244,-101.027"/>
</g>
<!-- Node15 -->
<g id="node15" class="node"><title>Node15</title>
<g id="a_node15"><a xlink:href="../../df/d65/classapplication_1_1_toggle_form_element.html" target="_top" xlink:title="application.ToggleFormElement">
<polygon fill="white" stroke="black" points="300,-14.5 300,-33.5 466,-33.5 466,-14.5 300,-14.5"/>
<text text-anchor="middle" x="383" y="-21.5" font-family="Helvetica,sans-Serif" font-size="10.00">application.ToggleFormElement</text>
</a>
</g>
</g>
<!-- Node10&#45;&gt;Node15 -->
<g id="edge17" class="edge"><title>Node10&#45;&gt;Node15</title>
<path fill="none" stroke="midnightblue" d="M131.119,-91.5324C182.972,-76.2344 268.084,-51.3045 300,-43 312.587,-39.7249 326.333,-36.4306 338.91,-33.5263"/>
<polygon fill="midnightblue" stroke="midnightblue" points="129.817,-88.2673 121.217,-94.4558 131.799,-94.9809 129.817,-88.2673"/>
</g>
<!-- Node11 -->
<g id="node11" class="node"><title>Node11</title>
<polygon fill="white" stroke="#bfbfbf" points="60,-146.5 60,-165.5 116,-165.5 116,-146.5 60,-146.5"/>
<text text-anchor="middle" x="88" y="-153.5" font-family="Helvetica,sans-Serif" font-size="10.00">TextField</text>
</g>
<!-- Node11&#45;&gt;Node8 -->
<g id="edge10" class="edge"><title>Node11&#45;&gt;Node8</title>
<path fill="none" stroke="#9a32cd" stroke-dasharray="5,2" d="M126.073,-156.253C170.386,-156.556 245.759,-157.07 303.265,-157.463"/>
<polygon fill="#9a32cd" stroke="#9a32cd" points="126.063,-152.753 116.04,-156.185 126.015,-159.753 126.063,-152.753"/>
<text text-anchor="middle" x="238" y="-161" font-family="Helvetica,sans-Serif" font-size="10.00"> myNumberField</text>
</g>
<!-- Node12&#45;&gt;Node1 -->
<g id="edge11" class="edge"><title>Node12&#45;&gt;Node1</title>
<path fill="none" stroke="#9a32cd" stroke-dasharray="5,2" d="M466.286,-106C523.301,-106 597.705,-106 647.968,-106"/>
<polygon fill="#9a32cd" stroke="#9a32cd" points="466.213,-102.5 456.213,-106 466.213,-109.5 466.213,-102.5"/>
<text text-anchor="middle" x="557" y="-109" font-family="Helvetica,sans-Serif" font-size="10.00"> myPenStyleFormElement</text>
</g>
<!-- Node13 -->
<g id="node13" class="node"><title>Node13</title>
<polygon fill="white" stroke="#bfbfbf" points="25,-39 25,-69 151,-69 151,-39 25,-39"/>
<text text-anchor="start" x="33" y="-57" font-family="Helvetica,sans-Serif" font-size="10.00">javafx::scene::control</text>
<text text-anchor="middle" x="88" y="-46" font-family="Helvetica,sans-Serif" font-size="10.00">::ComboBox&lt; String &gt;</text>
</g>
<!-- Node13&#45;&gt;Node12 -->
<g id="edge12" class="edge"><title>Node13&#45;&gt;Node12</title>
<path fill="none" stroke="midnightblue" d="M161.179,-66.8099C206.457,-74.8455 264.618,-85.1678 309.884,-93.2013"/>
<polygon fill="midnightblue" stroke="midnightblue" points="161.596,-63.3292 151.138,-65.0279 160.372,-70.2215 161.596,-63.3292"/>
</g>
<!-- Node14 -->
<g id="node14" class="node"><title>Node14</title>
<polygon fill="white" stroke="#bfbfbf" points="341,-52.5 341,-71.5 425,-71.5 425,-52.5 341,-52.5"/>
<text text-anchor="middle" x="383" y="-59.5" font-family="Helvetica,sans-Serif" font-size="10.00">List&lt; String &gt;</text>
</g>
<!-- Node14&#45;&gt;Node1 -->
<g id="edge14" class="edge"><title>Node14&#45;&gt;Node1</title>
<path fill="none" stroke="#9a32cd" stroke-dasharray="5,2" d="M435.264,-66.7968C485.145,-71.7578 563.002,-80.2793 630,-91 639.708,-92.5534 650.079,-94.4841 659.892,-96.4376"/>
<polygon fill="#9a32cd" stroke="#9a32cd" points="435.353,-63.2888 425.059,-65.7927 434.668,-70.2551 435.353,-63.2888"/>
<text text-anchor="middle" x="557" y="-94" font-family="Helvetica,sans-Serif" font-size="10.00"> myPenStyles</text>
</g>
<!-- Node15&#45;&gt;Node1 -->
<g id="edge15" class="edge"><title>Node15&#45;&gt;Node1</title>
<path fill="none" stroke="#9a32cd" stroke-dasharray="5,2" d="M476.223,-26.5542C523.451,-30.2856 581.14,-38.6585 630,-57 654.523,-66.2059 679.109,-84.7932 692.86,-96.2426"/>
<polygon fill="#9a32cd" stroke="#9a32cd" points="476.232,-23.0456 466.003,-25.8057 475.721,-30.0269 476.232,-23.0456"/>
<text text-anchor="middle" x="557" y="-60" font-family="Helvetica,sans-Serif" font-size="10.00"> myPenUpToggleFormElement</text>
</g>
<!-- Node16 -->
<g id="node16" class="node"><title>Node16</title>
<polygon fill="white" stroke="#bfbfbf" points="48.5,-0.5 48.5,-19.5 127.5,-19.5 127.5,-0.5 48.5,-0.5"/>
<text text-anchor="middle" x="88" y="-7.5" font-family="Helvetica,sans-Serif" font-size="10.00">ToggleButton</text>
</g>
<!-- Node16&#45;&gt;Node15 -->
<g id="edge16" class="edge"><title>Node16&#45;&gt;Node15</title>
<path fill="none" stroke="midnightblue" d="M137.765,-12.3301C181.822,-14.4352 247.56,-17.5762 299.74,-20.0695"/>
<polygon fill="midnightblue" stroke="midnightblue" points="137.762,-8.82601 127.606,-11.8447 137.427,-15.818 137.762,-8.82601"/>
</g>
</g>
</svg>
