<?xml version="1.0" encoding="UTF-8" standalone="no"?>
<!DOCTYPE svg PUBLIC "-//W3C//DTD SVG 1.1//EN"
 "http://www.w3.org/Graphics/SVG/1.1/DTD/svg11.dtd">
<!-- Generated by graphviz version 2.36.0 (20140111.2315)
 -->
<!-- Title: interpreter.expression.userdefined.DoTimes.evaluate Pages: 1 -->
<svg width="398pt" height="185pt"
 viewBox="0.00 0.00 398.00 185.00" xmlns="http://www.w3.org/2000/svg" xmlns:xlink="http://www.w3.org/1999/xlink">
<g id="graph0" class="graph" transform="scale(1 1) rotate(0) translate(4 181)">
<title>interpreter.expression.userdefined.DoTimes.evaluate</title>
<polygon fill="white" stroke="none" points="-4,4 -4,-181 394,-181 394,4 -4,4"/>
<!-- Node1 -->
<g id="node1" class="node"><title>Node1</title>
<polygon fill="#bfbfbf" stroke="black" points="0,-73 0,-103 184,-103 184,-73 0,-73"/>
<text text-anchor="start" x="8" y="-91" font-family="Helvetica,sans-Serif" font-size="10.00">interpreter.expression.userdefined.</text>
<text text-anchor="middle" x="92" y="-80" font-family="Helvetica,sans-Serif" font-size="10.00">DoTimes.evaluate</text>
</g>
<!-- Node2 -->
<g id="node2" class="node"><title>Node2</title>
<g id="a_node2"><a xlink:href="../../db/d09/interfaceinterpreter_1_1expression_1_1_s_logo_expression.html#a33b4dd877541ab4da1b4bbe087925a15" target="_top" xlink:title="interpreter.expression.SLogo\lExpression.evaluate">
<polygon fill="white" stroke="black" points="227.5,-147 227.5,-177 382.5,-177 382.5,-147 227.5,-147"/>
<text text-anchor="start" x="235.5" y="-165" font-family="Helvetica,sans-Serif" font-size="10.00">interpreter.expression.SLogo</text>
<text text-anchor="middle" x="305" y="-154" font-family="Helvetica,sans-Serif" font-size="10.00">Expression.evaluate</text>
</a>
</g>
</g>
<!-- Node1&#45;&gt;Node2 -->
<g id="edge1" class="edge"><title>Node1&#45;&gt;Node2</title>
<path fill="none" stroke="midnightblue" d="M129.674,-103.034C154.89,-113.151 189.245,-126.509 220,-137 226.831,-139.33 234.015,-141.655 241.186,-143.897"/>
<polygon fill="midnightblue" stroke="midnightblue" points="240.336,-147.298 250.923,-146.895 242.396,-140.608 240.336,-147.298"/>
</g>
<!-- Node3 -->
<g id="node3" class="node"><title>Node3</title>
<g id="a_node3"><a xlink:href="../../df/df6/classinterpreter_1_1result_1_1_s_logo_result.html#a11062748597af4f6622d9cbc92d4d9c0" target="_top" xlink:title="interpreter.result.SLogo\lResult.getTransition">
<polygon fill="white" stroke="black" points="240,-98 240,-128 370,-128 370,-98 240,-98"/>
<text text-anchor="start" x="248" y="-116" font-family="Helvetica,sans-Serif" font-size="10.00">interpreter.result.SLogo</text>
<text text-anchor="middle" x="305" y="-105" font-family="Helvetica,sans-Serif" font-size="10.00">Result.getTransition</text>
</a>
</g>
</g>
<!-- Node1&#45;&gt;Node3 -->
<g id="edge2" class="edge"><title>Node1&#45;&gt;Node3</title>
<path fill="none" stroke="midnightblue" d="M184.014,-98.7836C199.329,-100.598 215.06,-102.462 229.881,-104.218"/>
<polygon fill="midnightblue" stroke="midnightblue" points="229.639,-107.714 239.981,-105.415 230.462,-100.762 229.639,-107.714"/>
</g>
<!-- Node4 -->
<g id="node4" class="node"><title>Node4</title>
<g id="a_node4"><a xlink:href="../../d5/d09/classinterpreter_1_1_command_reference_library.html#a342d174c5d09ce98ba6313d032030131" target="_top" xlink:title="interpreter.CommandReference\lLibrary.getUserDefinedVariables">
<polygon fill="white" stroke="black" points="220.5,-49 220.5,-79 389.5,-79 389.5,-49 220.5,-49"/>
<text text-anchor="start" x="228.5" y="-67" font-family="Helvetica,sans-Serif" font-size="10.00">interpreter.CommandReference</text>
<text text-anchor="middle" x="305" y="-56" font-family="Helvetica,sans-Serif" font-size="10.00">Library.getUserDefinedVariables</text>
</a>
</g>
</g>
<!-- Node1&#45;&gt;Node4 -->
<g id="edge3" class="edge"><title>Node1&#45;&gt;Node4</title>
<path fill="none" stroke="midnightblue" d="M184.014,-77.6477C192.672,-76.6629 201.463,-75.663 210.147,-74.6752"/>
<polygon fill="midnightblue" stroke="midnightblue" points="210.738,-78.1307 220.278,-73.5229 209.947,-71.1755 210.738,-78.1307"/>
</g>
<!-- Node5 -->
<g id="node5" class="node"><title>Node5</title>
<g id="a_node5"><a xlink:href="../../df/df6/classinterpreter_1_1result_1_1_s_logo_result.html#ade0879b3224a3216bf17e17e25bfd4ca" target="_top" xlink:title="interpreter.result.SLogo\lResult.setValue">
<polygon fill="white" stroke="black" points="240,-0 240,-30 370,-30 370,-0 240,-0"/>
<text text-anchor="start" x="248" y="-18" font-family="Helvetica,sans-Serif" font-size="10.00">interpreter.result.SLogo</text>
<text text-anchor="middle" x="305" y="-7" font-family="Helvetica,sans-Serif" font-size="10.00">Result.setValue</text>
</a>
</g>
</g>
<!-- Node1&#45;&gt;Node5 -->
<g id="edge4" class="edge"><title>Node1&#45;&gt;Node5</title>
<path fill="none" stroke="midnightblue" d="M130.81,-72.8919C155.93,-63.0571 189.737,-50.2078 220,-40 226.938,-37.6597 234.237,-35.3158 241.514,-33.0524"/>
<polygon fill="midnightblue" stroke="midnightblue" points="242.856,-36.302 251.39,-30.0236 240.803,-29.6097 242.856,-36.302"/>
</g>
</g>
</svg>
