<?xml version="1.0" encoding="UTF-8" standalone="no"?>
<!DOCTYPE svg PUBLIC "-//W3C//DTD SVG 1.1//EN"
 "http://www.w3.org/Graphics/SVG/1.1/DTD/svg11.dtd">
<!-- Generated by graphviz version 2.36.0 (20140111.2315)
 -->
<!-- Title: interpreter.expression.DisplayExpression Pages: 1 -->
<svg width="556pt" height="430pt"
 viewBox="0.00 0.00 556.00 430.00" xmlns="http://www.w3.org/2000/svg" xmlns:xlink="http://www.w3.org/1999/xlink">
<g id="graph0" class="graph" transform="scale(1 1) rotate(0) translate(4 426)">
<title>interpreter.expression.DisplayExpression</title>
<polygon fill="white" stroke="none" points="-4,4 -4,-426 552,-426 552,4 -4,4"/>
<!-- Node1 -->
<g id="node1" class="node"><title>Node1</title>
<polygon fill="#bfbfbf" stroke="black" points="192.5,-196 192.5,-226 351.5,-226 351.5,-196 192.5,-196"/>
<text text-anchor="start" x="200.5" y="-214" font-family="Helvetica,sans-Serif" font-size="10.00">interpreter.expression.Display</text>
<text text-anchor="middle" x="272" y="-203" font-family="Helvetica,sans-Serif" font-size="10.00">Expression</text>
</g>
<!-- Node3 -->
<g id="node3" class="node"><title>Node3</title>
<g id="a_node3"><a xlink:href="../../dd/d0f/classinterpreter_1_1expression_1_1display_1_1_clear_stamps.html" target="_top" xlink:title="interpreter.expression.display.\lClearStamps">
<polygon fill="white" stroke="black" points="388.5,-392 388.5,-422 547.5,-422 547.5,-392 388.5,-392"/>
<text text-anchor="start" x="396.5" y="-410" font-family="Helvetica,sans-Serif" font-size="10.00">interpreter.expression.display.</text>
<text text-anchor="middle" x="468" y="-399" font-family="Helvetica,sans-Serif" font-size="10.00">ClearStamps</text>
</a>
</g>
</g>
<!-- Node1&#45;&gt;Node3 -->
<g id="edge2" class="edge"><title>Node1&#45;&gt;Node3</title>
<path fill="none" stroke="midnightblue" d="M283.109,-235.605C299.599,-272.738 335.773,-342.902 388,-382 393.182,-385.88 398.984,-389.168 405.026,-391.952"/>
<polygon fill="midnightblue" stroke="midnightblue" points="286.164,-233.851 278.983,-226.061 279.739,-236.629 286.164,-233.851"/>
</g>
<!-- Node4 -->
<g id="node4" class="node"><title>Node4</title>
<g id="a_node4"><a xlink:href="../../d4/daf/classinterpreter_1_1expression_1_1display_1_1_get_pen_color.html" target="_top" xlink:title="interpreter.expression.display.\lGetPenColor">
<polygon fill="white" stroke="black" points="388.5,-343 388.5,-373 547.5,-373 547.5,-343 388.5,-343"/>
<text text-anchor="start" x="396.5" y="-361" font-family="Helvetica,sans-Serif" font-size="10.00">interpreter.expression.display.</text>
<text text-anchor="middle" x="468" y="-350" font-family="Helvetica,sans-Serif" font-size="10.00">GetPenColor</text>
</a>
</g>
</g>
<!-- Node1&#45;&gt;Node4 -->
<g id="edge3" class="edge"><title>Node1&#45;&gt;Node4</title>
<path fill="none" stroke="midnightblue" d="M289.155,-234.319C309.288,-261.712 346.183,-306.742 388,-333 394.091,-336.825 400.817,-340.11 407.697,-342.919"/>
<polygon fill="midnightblue" stroke="midnightblue" points="291.91,-232.155 283.222,-226.091 286.232,-236.25 291.91,-232.155"/>
</g>
<!-- Node5 -->
<g id="node5" class="node"><title>Node5</title>
<g id="a_node5"><a xlink:href="../../d9/d4f/classinterpreter_1_1expression_1_1display_1_1_get_shape.html" target="_top" xlink:title="interpreter.expression.display.\lGetShape">
<polygon fill="white" stroke="black" points="388.5,-294 388.5,-324 547.5,-324 547.5,-294 388.5,-294"/>
<text text-anchor="start" x="396.5" y="-312" font-family="Helvetica,sans-Serif" font-size="10.00">interpreter.expression.display.</text>
<text text-anchor="middle" x="468" y="-301" font-family="Helvetica,sans-Serif" font-size="10.00">GetShape</text>
</a>
</g>
</g>
<!-- Node1&#45;&gt;Node5 -->
<g id="edge4" class="edge"><title>Node1&#45;&gt;Node5</title>
<path fill="none" stroke="midnightblue" d="M301.684,-232.175C324.252,-248.086 356.966,-269.539 388,-284 395.824,-287.646 404.32,-290.956 412.743,-293.887"/>
<polygon fill="midnightblue" stroke="midnightblue" points="303.434,-229.123 293.261,-226.161 299.366,-234.82 303.434,-229.123"/>
</g>
<!-- Node6 -->
<g id="node6" class="node"><title>Node6</title>
<g id="a_node6"><a xlink:href="../../d8/d75/classinterpreter_1_1expression_1_1display_1_1_set_background.html" target="_top" xlink:title="interpreter.expression.display.\lSetBackground">
<polygon fill="white" stroke="black" points="388.5,-245 388.5,-275 547.5,-275 547.5,-245 388.5,-245"/>
<text text-anchor="start" x="396.5" y="-263" font-family="Helvetica,sans-Serif" font-size="10.00">interpreter.expression.display.</text>
<text text-anchor="middle" x="468" y="-252" font-family="Helvetica,sans-Serif" font-size="10.00">SetBackground</text>
</a>
</g>
</g>
<!-- Node1&#45;&gt;Node6 -->
<g id="edge5" class="edge"><title>Node1&#45;&gt;Node6</title>
<path fill="none" stroke="midnightblue" d="M342.483,-228.55C363.787,-233.931 387.021,-239.799 407.588,-244.994"/>
<polygon fill="midnightblue" stroke="midnightblue" points="343.077,-225.09 332.525,-226.035 341.363,-231.877 343.077,-225.09"/>
</g>
<!-- Node7 -->
<g id="node7" class="node"><title>Node7</title>
<g id="a_node7"><a xlink:href="../../da/d5a/classinterpreter_1_1expression_1_1display_1_1_set_palette.html" target="_top" xlink:title="interpreter.expression.display.\lSetPalette">
<polygon fill="white" stroke="black" points="388.5,-196 388.5,-226 547.5,-226 547.5,-196 388.5,-196"/>
<text text-anchor="start" x="396.5" y="-214" font-family="Helvetica,sans-Serif" font-size="10.00">interpreter.expression.display.</text>
<text text-anchor="middle" x="468" y="-203" font-family="Helvetica,sans-Serif" font-size="10.00">SetPalette</text>
</a>
</g>
</g>
<!-- Node1&#45;&gt;Node7 -->
<g id="edge6" class="edge"><title>Node1&#45;&gt;Node7</title>
<path fill="none" stroke="midnightblue" d="M361.895,-211C370.691,-211 379.577,-211 388.26,-211"/>
<polygon fill="midnightblue" stroke="midnightblue" points="361.628,-207.5 351.628,-211 361.628,-214.5 361.628,-207.5"/>
</g>
<!-- Node8 -->
<g id="node8" class="node"><title>Node8</title>
<g id="a_node8"><a xlink:href="../../d6/d1d/classinterpreter_1_1expression_1_1display_1_1_set_pen_color.html" target="_top" xlink:title="interpreter.expression.display.\lSetPenColor">
<polygon fill="white" stroke="black" points="388.5,-147 388.5,-177 547.5,-177 547.5,-147 388.5,-147"/>
<text text-anchor="start" x="396.5" y="-165" font-family="Helvetica,sans-Serif" font-size="10.00">interpreter.expression.display.</text>
<text text-anchor="middle" x="468" y="-154" font-family="Helvetica,sans-Serif" font-size="10.00">SetPenColor</text>
</a>
</g>
</g>
<!-- Node1&#45;&gt;Node8 -->
<g id="edge7" class="edge"><title>Node1&#45;&gt;Node8</title>
<path fill="none" stroke="midnightblue" d="M342.483,-193.45C363.787,-188.069 387.021,-182.201 407.588,-177.006"/>
<polygon fill="midnightblue" stroke="midnightblue" points="341.363,-190.123 332.525,-195.965 343.077,-196.91 341.363,-190.123"/>
</g>
<!-- Node9 -->
<g id="node9" class="node"><title>Node9</title>
<g id="a_node9"><a xlink:href="../../d2/d0f/classinterpreter_1_1expression_1_1display_1_1_set_pen_size.html" target="_top" xlink:title="interpreter.expression.display.\lSetPenSize">
<polygon fill="white" stroke="black" points="388.5,-98 388.5,-128 547.5,-128 547.5,-98 388.5,-98"/>
<text text-anchor="start" x="396.5" y="-116" font-family="Helvetica,sans-Serif" font-size="10.00">interpreter.expression.display.</text>
<text text-anchor="middle" x="468" y="-105" font-family="Helvetica,sans-Serif" font-size="10.00">SetPenSize</text>
</a>
</g>
</g>
<!-- Node1&#45;&gt;Node9 -->
<g id="edge8" class="edge"><title>Node1&#45;&gt;Node9</title>
<path fill="none" stroke="midnightblue" d="M300.884,-189.918C323.421,-173.671 356.475,-151.586 388,-137 395.155,-133.689 402.882,-130.694 410.605,-128.03"/>
<polygon fill="midnightblue" stroke="midnightblue" points="298.798,-187.108 292.786,-195.832 302.926,-192.761 298.798,-187.108"/>
</g>
<!-- Node10 -->
<g id="node10" class="node"><title>Node10</title>
<g id="a_node10"><a xlink:href="../../de/dd3/classinterpreter_1_1expression_1_1display_1_1_set_shape.html" target="_top" xlink:title="interpreter.expression.display.\lSetShape">
<polygon fill="white" stroke="black" points="388.5,-49 388.5,-79 547.5,-79 547.5,-49 388.5,-49"/>
<text text-anchor="start" x="396.5" y="-67" font-family="Helvetica,sans-Serif" font-size="10.00">interpreter.expression.display.</text>
<text text-anchor="middle" x="468" y="-56" font-family="Helvetica,sans-Serif" font-size="10.00">SetShape</text>
</a>
</g>
</g>
<!-- Node1&#45;&gt;Node10 -->
<g id="edge9" class="edge"><title>Node1&#45;&gt;Node10</title>
<path fill="none" stroke="midnightblue" d="M289.059,-187.402C309.099,-159.698 345.903,-114.215 388,-88 393.475,-84.5902 399.467,-81.6376 405.624,-79.0868"/>
<polygon fill="midnightblue" stroke="midnightblue" points="286.087,-185.543 283.156,-195.725 291.796,-189.593 286.087,-185.543"/>
</g>
<!-- Node11 -->
<g id="node11" class="node"><title>Node11</title>
<g id="a_node11"><a xlink:href="../../df/d70/classinterpreter_1_1expression_1_1display_1_1_stamp.html" target="_top" xlink:title="interpreter.expression.display.\lStamp">
<polygon fill="white" stroke="black" points="388.5,-0 388.5,-30 547.5,-30 547.5,-0 388.5,-0"/>
<text text-anchor="start" x="396.5" y="-18" font-family="Helvetica,sans-Serif" font-size="10.00">interpreter.expression.display.</text>
<text text-anchor="middle" x="468" y="-7" font-family="Helvetica,sans-Serif" font-size="10.00">Stamp</text>
</a>
</g>
</g>
<!-- Node1&#45;&gt;Node11 -->
<g id="edge10" class="edge"><title>Node1&#45;&gt;Node11</title>
<path fill="none" stroke="midnightblue" d="M283.014,-186.176C299.379,-148.726 335.389,-78.0234 388,-39 392.605,-35.5842 397.7,-32.6499 403.019,-30.13"/>
<polygon fill="midnightblue" stroke="midnightblue" points="279.613,-185.23 278.922,-195.802 286.055,-187.969 279.613,-185.23"/>
</g>
<!-- Node2 -->
<g id="node2" class="node"><title>Node2</title>
<g id="a_node2"><a xlink:href="../../db/d09/interfaceinterpreter_1_1expression_1_1_s_logo_expression.html" target="_top" xlink:title="interpreter.expression.SLogo\lExpression">
<polygon fill="white" stroke="black" points="0.5,-196 0.5,-226 155.5,-226 155.5,-196 0.5,-196"/>
<text text-anchor="start" x="8.5" y="-214" font-family="Helvetica,sans-Serif" font-size="10.00">interpreter.expression.SLogo</text>
<text text-anchor="middle" x="78" y="-203" font-family="Helvetica,sans-Serif" font-size="10.00">Expression</text>
</a>
</g>
</g>
<!-- Node2&#45;&gt;Node1 -->
<g id="edge1" class="edge"><title>Node2&#45;&gt;Node1</title>
<path fill="none" stroke="midnightblue" d="M165.928,-211C174.687,-211 183.547,-211 192.213,-211"/>
<polygon fill="midnightblue" stroke="midnightblue" points="165.711,-207.5 155.711,-211 165.711,-214.5 165.711,-207.5"/>
</g>
</g>
</svg>
