<?xml version="1.0" encoding="UTF-8" standalone="no"?>
<!DOCTYPE svg PUBLIC "-//W3C//DTD SVG 1.1//EN"
 "http://www.w3.org/Graphics/SVG/1.1/DTD/svg11.dtd">
<!-- Generated by graphviz version 2.36.0 (20140111.2315)
 -->
<!-- Title: turtle.Turtle.getTurtleRadius Pages: 1 -->
<svg width="536pt" height="38pt"
 viewBox="0.00 0.00 536.00 38.00" xmlns="http://www.w3.org/2000/svg" xmlns:xlink="http://www.w3.org/1999/xlink">
<g id="graph0" class="graph" transform="scale(1 1) rotate(0) translate(4 34)">
<title>turtle.Turtle.getTurtleRadius</title>
<polygon fill="white" stroke="none" points="-4,4 -4,-34 532,-34 532,4 -4,4"/>
<!-- Node1 -->
<g id="node1" class="node"><title>Node1</title>
<polygon fill="#bfbfbf" stroke="black" points="0,-5.5 0,-24.5 146,-24.5 146,-5.5 0,-5.5"/>
<text text-anchor="middle" x="73" y="-12.5" font-family="Helvetica,sans-Serif" font-size="10.00">turtle.Turtle.getTurtleRadius</text>
</g>
<!-- Node2 -->
<g id="node2" class="node"><title>Node2</title>
<g id="a_node2"><a xlink:href="../../d4/de5/classturtle_1_1_turtle_view_controller.html#aa680f2bc84eb3e1a5d2225a7524738c2" target="_top" xlink:title="turtle.TurtleViewController.get\lRadius">
<polygon fill="white" stroke="black" points="182.5,-0 182.5,-30 339.5,-30 339.5,-0 182.5,-0"/>
<text text-anchor="start" x="190.5" y="-18" font-family="Helvetica,sans-Serif" font-size="10.00">turtle.TurtleViewController.get</text>
<text text-anchor="middle" x="261" y="-7" font-family="Helvetica,sans-Serif" font-size="10.00">Radius</text>
</a>
</g>
</g>
<!-- Node1&#45;&gt;Node2 -->
<g id="edge1" class="edge"><title>Node1&#45;&gt;Node2</title>
<path fill="none" stroke="midnightblue" d="M146.179,-15C154.693,-15 163.452,-15 172.151,-15"/>
<polygon fill="midnightblue" stroke="midnightblue" points="172.317,-18.5001 182.317,-15 172.317,-11.5001 172.317,-18.5001"/>
</g>
<!-- Node3 -->
<g id="node3" class="node"><title>Node3</title>
<g id="a_node3"><a xlink:href="../../d8/d9e/classturtle_1_1_turtle_image.html#a0cca96e9e2285acda2ada49c6e0dea6d" target="_top" xlink:title="turtle.TurtleImage.getRadius">
<polygon fill="white" stroke="black" points="376.5,-5.5 376.5,-24.5 527.5,-24.5 527.5,-5.5 376.5,-5.5"/>
<text text-anchor="middle" x="452" y="-12.5" font-family="Helvetica,sans-Serif" font-size="10.00">turtle.TurtleImage.getRadius</text>
</a>
</g>
</g>
<!-- Node2&#45;&gt;Node3 -->
<g id="edge2" class="edge"><title>Node2&#45;&gt;Node3</title>
<path fill="none" stroke="midnightblue" d="M339.692,-15C348.4,-15 357.305,-15 366.098,-15"/>
<polygon fill="midnightblue" stroke="midnightblue" points="366.35,-18.5001 376.35,-15 366.35,-11.5001 366.35,-18.5001"/>
</g>
</g>
</svg>
