<?xml version="1.0" encoding="UTF-8" standalone="no"?>
<!DOCTYPE svg PUBLIC "-//W3C//DTD SVG 1.1//EN"
 "http://www.w3.org/Graphics/SVG/1.1/DTD/svg11.dtd">
<!-- Generated by graphviz version 2.36.0 (20140111.2315)
 -->
<!-- Title: turtle.Turtle.getTurtleRadius Pages: 1 -->
<svg width="602pt" height="38pt"
 viewBox="0.00 0.00 602.00 38.00" xmlns="http://www.w3.org/2000/svg" xmlns:xlink="http://www.w3.org/1999/xlink">
<g id="graph0" class="graph" transform="scale(1 1) rotate(0) translate(4 34)">
<title>turtle.Turtle.getTurtleRadius</title>
<polygon fill="white" stroke="none" points="-4,4 -4,-34 598,-34 598,4 -4,4"/>
<!-- Node1 -->
<g id="node1" class="node"><title>Node1</title>
<polygon fill="#bfbfbf" stroke="black" points="0,-5.5 0,-24.5 146,-24.5 146,-5.5 0,-5.5"/>
<text text-anchor="middle" x="73" y="-12.5" font-family="Helvetica,sans-Serif" font-size="10.00">turtle.Turtle.getTurtleRadius</text>
</g>
<!-- Node2 -->
<g id="node2" class="node"><title>Node2</title>
<g id="a_node2"><a xlink:href="../../de/de7/classturtle_1_1draw_1_1_linear_transition.html#a147bb7b97f186ad172b2d71aec4e9e8e" target="_top" xlink:title="turtle.draw.LinearTransition.check\lWrapping">
<polygon fill="white" stroke="black" points="182.5,-0 182.5,-30 357.5,-30 357.5,-0 182.5,-0"/>
<text text-anchor="start" x="190.5" y="-18" font-family="Helvetica,sans-Serif" font-size="10.00">turtle.draw.LinearTransition.check</text>
<text text-anchor="middle" x="270" y="-7" font-family="Helvetica,sans-Serif" font-size="10.00">Wrapping</text>
</a>
</g>
</g>
<!-- Node1&#45;&gt;Node2 -->
<g id="edge1" class="edge"><title>Node1&#45;&gt;Node2</title>
<path fill="none" stroke="midnightblue" d="M156.145,-15C164.818,-15 173.658,-15 182.38,-15"/>
<polygon fill="midnightblue" stroke="midnightblue" points="156.057,-11.5001 146.057,-15 156.057,-18.5001 156.057,-11.5001"/>
</g>
<!-- Node3 -->
<g id="node3" class="node"><title>Node3</title>
<g id="a_node3"><a xlink:href="../../de/de7/classturtle_1_1draw_1_1_linear_transition.html#a799e134af5efa1d05033f88d131289d1" target="_top" xlink:title="turtle.draw.LinearTransition.interpolate">
<polygon fill="white" stroke="black" points="394.5,-5.5 394.5,-24.5 593.5,-24.5 593.5,-5.5 394.5,-5.5"/>
<text text-anchor="middle" x="494" y="-12.5" font-family="Helvetica,sans-Serif" font-size="10.00">turtle.draw.LinearTransition.interpolate</text>
</a>
</g>
</g>
<!-- Node2&#45;&gt;Node3 -->
<g id="edge2" class="edge"><title>Node2&#45;&gt;Node3</title>
<path fill="none" stroke="midnightblue" d="M368.024,-15C376.805,-15 385.704,-15 394.497,-15"/>
<polygon fill="midnightblue" stroke="midnightblue" points="367.785,-11.5001 357.785,-15 367.785,-18.5001 367.785,-11.5001"/>
</g>
</g>
</svg>
