<?xml version="1.0" encoding="UTF-8" standalone="no"?>
<!DOCTYPE svg PUBLIC "-//W3C//DTD SVG 1.1//EN"
 "http://www.w3.org/Graphics/SVG/1.1/DTD/svg11.dtd">
<!-- Generated by graphviz version 2.36.0 (20140111.2315)
 -->
<!-- Title: turtle.Turtle.getId Pages: 1 -->
<svg width="320pt" height="87pt"
 viewBox="0.00 0.00 320.00 87.00" xmlns="http://www.w3.org/2000/svg" xmlns:xlink="http://www.w3.org/1999/xlink">
<g id="graph0" class="graph" transform="scale(1 1) rotate(0) translate(4 83)">
<title>turtle.Turtle.getId</title>
<polygon fill="white" stroke="none" points="-4,4 -4,-83 316,-83 316,4 -4,4"/>
<!-- Node1 -->
<g id="node1" class="node"><title>Node1</title>
<polygon fill="#bfbfbf" stroke="black" points="0,-29.5 0,-48.5 98,-48.5 98,-29.5 0,-29.5"/>
<text text-anchor="middle" x="49" y="-36.5" font-family="Helvetica,sans-Serif" font-size="10.00">turtle.Turtle.getId</text>
</g>
<!-- Node2 -->
<g id="node2" class="node"><title>Node2</title>
<g id="a_node2"><a xlink:href="../../d1/ddd/classturtle_1_1_serialisable_turtle.html#a22aa2985b386b16ea3ef89aa09363551" target="_top" xlink:title="turtle.SerialisableTurtle.\lSerialisableTurtle">
<polygon fill="white" stroke="black" points="159,-49 159,-79 287,-79 287,-49 159,-49"/>
<text text-anchor="start" x="167" y="-67" font-family="Helvetica,sans-Serif" font-size="10.00">turtle.SerialisableTurtle.</text>
<text text-anchor="middle" x="223" y="-56" font-family="Helvetica,sans-Serif" font-size="10.00">SerialisableTurtle</text>
</a>
</g>
</g>
<!-- Node1&#45;&gt;Node2 -->
<g id="edge1" class="edge"><title>Node1&#45;&gt;Node2</title>
<path fill="none" stroke="midnightblue" d="M108.293,-47.4728C124.577,-49.8396 142.345,-52.4222 158.893,-54.8275"/>
<polygon fill="midnightblue" stroke="midnightblue" points="108.769,-44.0053 98.3693,-46.0304 107.762,-50.9325 108.769,-44.0053"/>
</g>
<!-- Node3 -->
<g id="node3" class="node"><title>Node3</title>
<g id="a_node3"><a xlink:href="../../d5/d37/classviewcontroller_1_1turtlegrid_1_1_turtle_status_view_controller.html#a9aa6bf28f45c6a12d0f8ab568ca43b70" target="_top" xlink:title="viewcontroller.turtlegrid.\lTurtleStatusViewController.update">
<polygon fill="white" stroke="black" points="134,-0 134,-30 312,-30 312,-0 134,-0"/>
<text text-anchor="start" x="142" y="-18" font-family="Helvetica,sans-Serif" font-size="10.00">viewcontroller.turtlegrid.</text>
<text text-anchor="middle" x="223" y="-7" font-family="Helvetica,sans-Serif" font-size="10.00">TurtleStatusViewController.update</text>
</a>
</g>
</g>
<!-- Node1&#45;&gt;Node3 -->
<g id="edge2" class="edge"><title>Node1&#45;&gt;Node3</title>
<path fill="none" stroke="midnightblue" d="M108.532,-30.8328C116.732,-29.6885 125.305,-28.4923 133.906,-27.2922"/>
<polygon fill="midnightblue" stroke="midnightblue" points="107.79,-27.4023 98.3693,-32.2508 108.757,-34.3352 107.79,-27.4023"/>
</g>
</g>
</svg>
