<?xml version="1.0" encoding="UTF-8" standalone="no"?>
<!DOCTYPE svg PUBLIC "-//W3C//DTD SVG 1.1//EN"
 "http://www.w3.org/Graphics/SVG/1.1/DTD/svg11.dtd">
<!-- Generated by graphviz version 2.36.0 (20140111.2315)
 -->
<!-- Title: turtle.Turtle.getY Pages: 1 -->
<svg width="322pt" height="87pt"
 viewBox="0.00 0.00 322.00 87.00" xmlns="http://www.w3.org/2000/svg" xmlns:xlink="http://www.w3.org/1999/xlink">
<g id="graph0" class="graph" transform="scale(1 1) rotate(0) translate(4 83)">
<title>turtle.Turtle.getY</title>
<polygon fill="white" stroke="none" points="-4,4 -4,-83 318,-83 318,4 -4,4"/>
<!-- Node1 -->
<g id="node1" class="node"><title>Node1</title>
<polygon fill="#bfbfbf" stroke="black" points="0.5,-29.5 0.5,-48.5 95.5,-48.5 95.5,-29.5 0.5,-29.5"/>
<text text-anchor="middle" x="48" y="-36.5" font-family="Helvetica,sans-Serif" font-size="10.00">turtle.Turtle.getY</text>
</g>
<!-- Node2 -->
<g id="node2" class="node"><title>Node2</title>
<g id="a_node2"><a xlink:href="../../d0/d8c/classinterpreter_1_1expression_1_1singleturtle_1_1_set_position.html#a4f3ed8fd9fe9f9e8ef1204cd22a970ae" target="_top" xlink:title="interpreter.expression.singleturtle.\lSetPosition.setNextTransition">
<polygon fill="white" stroke="black" points="132.5,-49 132.5,-79 313.5,-79 313.5,-49 132.5,-49"/>
<text text-anchor="start" x="140.5" y="-67" font-family="Helvetica,sans-Serif" font-size="10.00">interpreter.expression.singleturtle.</text>
<text text-anchor="middle" x="223" y="-56" font-family="Helvetica,sans-Serif" font-size="10.00">SetPosition.setNextTransition</text>
</a>
</g>
</g>
<!-- Node1&#45;&gt;Node2 -->
<g id="edge1" class="edge"><title>Node1&#45;&gt;Node2</title>
<path fill="none" stroke="midnightblue" d="M105.977,-47.2337C114.506,-48.4662 123.47,-49.7615 132.477,-51.0632"/>
<polygon fill="midnightblue" stroke="midnightblue" points="106.214,-43.7317 95.8163,-45.7654 105.213,-50.6597 106.214,-43.7317"/>
</g>
<!-- Node3 -->
<g id="node3" class="node"><title>Node3</title>
<g id="a_node3"><a xlink:href="../../d5/d37/classviewcontroller_1_1turtlegrid_1_1_turtle_status_view_controller.html#a9aa6bf28f45c6a12d0f8ab568ca43b70" target="_top" xlink:title="viewcontroller.turtlegrid.\lTurtleStatusViewController.update">
<polygon fill="white" stroke="black" points="134,-0 134,-30 312,-30 312,-0 134,-0"/>
<text text-anchor="start" x="142" y="-18" font-family="Helvetica,sans-Serif" font-size="10.00">viewcontroller.turtlegrid.</text>
<text text-anchor="middle" x="223" y="-7" font-family="Helvetica,sans-Serif" font-size="10.00">TurtleStatusViewController.update</text>
</a>
</g>
</g>
<!-- Node1&#45;&gt;Node3 -->
<g id="edge2" class="edge"><title>Node1&#45;&gt;Node3</title>
<path fill="none" stroke="midnightblue" d="M105.76,-31.1257C114.775,-29.8752 124.279,-28.5566 133.811,-27.2343"/>
<polygon fill="midnightblue" stroke="midnightblue" points="105.24,-27.6642 95.8163,-32.5053 106.202,-34.5978 105.24,-27.6642"/>
</g>
</g>
</svg>
