<?xml version="1.0" encoding="UTF-8" standalone="no"?>
<!DOCTYPE svg PUBLIC "-//W3C//DTD SVG 1.1//EN"
 "http://www.w3.org/Graphics/SVG/1.1/DTD/svg11.dtd">
<!-- Generated by graphviz version 2.36.0 (20140111.2315)
 -->
<!-- Title: turtle.Turtle.getPen Pages: 1 -->
<svg width="1616pt" height="136pt"
 viewBox="0.00 0.00 1616.00 136.00" xmlns="http://www.w3.org/2000/svg" xmlns:xlink="http://www.w3.org/1999/xlink">
<g id="graph0" class="graph" transform="scale(1 1) rotate(0) translate(4 132)">
<title>turtle.Turtle.getPen</title>
<polygon fill="white" stroke="none" points="-4,4 -4,-132 1612,-132 1612,4 -4,4"/>
<!-- Node1 -->
<g id="node1" class="node"><title>Node1</title>
<polygon fill="#bfbfbf" stroke="black" points="0.5,-68.5 0.5,-87.5 107.5,-87.5 107.5,-68.5 0.5,-68.5"/>
<text text-anchor="middle" x="54" y="-75.5" font-family="Helvetica,sans-Serif" font-size="10.00">turtle.Turtle.getPen</text>
</g>
<!-- Node2 -->
<g id="node2" class="node"><title>Node2</title>
<g id="a_node2"><a xlink:href="../../dc/d3e/classturtle_1_1draw_1_1_transition_factory.html#a6ff1cfc7cfe2396040ddb55408ee854e" target="_top" xlink:title="turtle.draw.TransitionFactory.create\lForwardTransition">
<polygon fill="white" stroke="black" points="800,-98 800,-128 982,-128 982,-98 800,-98"/>
<text text-anchor="start" x="808" y="-116" font-family="Helvetica,sans-Serif" font-size="10.00">turtle.draw.TransitionFactory.create</text>
<text text-anchor="middle" x="891" y="-105" font-family="Helvetica,sans-Serif" font-size="10.00">ForwardTransition</text>
</a>
</g>
</g>
<!-- Node1&#45;&gt;Node2 -->
<g id="edge1" class="edge"><title>Node1&#45;&gt;Node2</title>
<path fill="none" stroke="midnightblue" d="M80.6371,-92.233C97.9498,-101.007 121.64,-111.426 144,-116 153.735,-117.991 428.729,-118.049 764,-115 775.595,-114.895 787.789,-114.747 799.838,-114.579"/>
<polygon fill="midnightblue" stroke="midnightblue" points="82.208,-89.1048 71.724,-87.5757 78.9661,-95.3089 82.208,-89.1048"/>
</g>
<!-- Node6 -->
<g id="node6" class="node"><title>Node6</title>
<g id="a_node6"><a xlink:href="../../d8/dde/classturtle_1_1draw_1_1_pen_transition.html#a431676c45414059317fdf53c2e5d539f" target="_top" xlink:title="turtle.draw.PenTransition.drawLine">
<polygon fill="white" stroke="black" points="149,-87.5 149,-106.5 327,-106.5 327,-87.5 149,-87.5"/>
<text text-anchor="middle" x="238" y="-94.5" font-family="Helvetica,sans-Serif" font-size="10.00">turtle.draw.PenTransition.drawLine</text>
</a>
</g>
</g>
<!-- Node1&#45;&gt;Node6 -->
<g id="edge5" class="edge"><title>Node1&#45;&gt;Node6</title>
<path fill="none" stroke="midnightblue" d="M117.858,-84.5621C127.858,-85.606 138.36,-86.7024 148.813,-87.7937"/>
<polygon fill="midnightblue" stroke="midnightblue" points="117.951,-81.0529 107.642,-83.4956 117.224,-88.0151 117.951,-81.0529"/>
</g>
<!-- Node10 -->
<g id="node10" class="node"><title>Node10</title>
<g id="a_node10"><a xlink:href="../../d8/dde/classturtle_1_1draw_1_1_pen_transition.html#a819420d27f897da865421a925d845f0d" target="_top" xlink:title="turtle.draw.PenTransition.formatLine">
<polygon fill="white" stroke="black" points="144,-49.5 144,-68.5 332,-68.5 332,-49.5 144,-49.5"/>
<text text-anchor="middle" x="238" y="-56.5" font-family="Helvetica,sans-Serif" font-size="10.00">turtle.draw.PenTransition.formatLine</text>
</a>
</g>
</g>
<!-- Node1&#45;&gt;Node10 -->
<g id="edge10" class="edge"><title>Node1&#45;&gt;Node10</title>
<path fill="none" stroke="midnightblue" d="M117.681,-71.4564C126.748,-70.5098 136.233,-69.5197 145.721,-68.5291"/>
<polygon fill="midnightblue" stroke="midnightblue" points="117.224,-67.9849 107.642,-72.5044 117.951,-74.9471 117.224,-67.9849"/>
</g>
<!-- Node11 -->
<g id="node11" class="node"><title>Node11</title>
<g id="a_node11"><a xlink:href="../../d1/ddd/classturtle_1_1_serialisable_turtle.html#a22aa2985b386b16ea3ef89aa09363551" target="_top" xlink:title="turtle.SerialisableTurtle.\lSerialisableTurtle">
<polygon fill="white" stroke="black" points="174,-0 174,-30 302,-30 302,-0 174,-0"/>
<text text-anchor="start" x="182" y="-18" font-family="Helvetica,sans-Serif" font-size="10.00">turtle.SerialisableTurtle.</text>
<text text-anchor="middle" x="238" y="-7" font-family="Helvetica,sans-Serif" font-size="10.00">SerialisableTurtle</text>
</a>
</g>
</g>
<!-- Node1&#45;&gt;Node11 -->
<g id="edge12" class="edge"><title>Node1&#45;&gt;Node11</title>
<path fill="none" stroke="midnightblue" d="M84.6356,-64.1029C101.753,-56.392 123.826,-46.9795 144,-40 154.27,-36.4469 165.321,-33.0865 176.093,-30.0498"/>
<polygon fill="midnightblue" stroke="midnightblue" points="82.8277,-61.0806 75.182,-68.415 85.7327,-67.4493 82.8277,-61.0806"/>
</g>
<!-- Node3 -->
<g id="node3" class="node"><title>Node3</title>
<g id="a_node3"><a xlink:href="../../dc/d3e/classturtle_1_1draw_1_1_transition_factory.html#adb38be68a00bde2421dbdf0d55a93e54" target="_top" xlink:title="turtle.draw.TransitionFactory.create\lTurtleTransition">
<polygon fill="white" stroke="black" points="1018,-98 1018,-128 1200,-128 1200,-98 1018,-98"/>
<text text-anchor="start" x="1026" y="-116" font-family="Helvetica,sans-Serif" font-size="10.00">turtle.draw.TransitionFactory.create</text>
<text text-anchor="middle" x="1109" y="-105" font-family="Helvetica,sans-Serif" font-size="10.00">TurtleTransition</text>
</a>
</g>
</g>
<!-- Node2&#45;&gt;Node3 -->
<g id="edge2" class="edge"><title>Node2&#45;&gt;Node3</title>
<path fill="none" stroke="midnightblue" d="M992.059,-113C1000.63,-113 1009.27,-113 1017.76,-113"/>
<polygon fill="midnightblue" stroke="midnightblue" points="992.039,-109.5 982.039,-113 992.039,-116.5 992.039,-109.5"/>
</g>
<!-- Node4 -->
<g id="node4" class="node"><title>Node4</title>
<g id="a_node4"><a xlink:href="../../dc/d3e/classturtle_1_1draw_1_1_transition_factory.html#a31b362130278174931595c1ce68c7ff5" target="_top" xlink:title="turtle.draw.TransitionFactory.create\lAnimation">
<polygon fill="white" stroke="black" points="1236,-98 1236,-128 1418,-128 1418,-98 1236,-98"/>
<text text-anchor="start" x="1244" y="-116" font-family="Helvetica,sans-Serif" font-size="10.00">turtle.draw.TransitionFactory.create</text>
<text text-anchor="middle" x="1327" y="-105" font-family="Helvetica,sans-Serif" font-size="10.00">Animation</text>
</a>
</g>
</g>
<!-- Node3&#45;&gt;Node4 -->
<g id="edge3" class="edge"><title>Node3&#45;&gt;Node4</title>
<path fill="none" stroke="midnightblue" d="M1210.06,-113C1218.63,-113 1227.27,-113 1235.76,-113"/>
<polygon fill="midnightblue" stroke="midnightblue" points="1210.04,-109.5 1200.04,-113 1210.04,-116.5 1210.04,-109.5"/>
</g>
<!-- Node5 -->
<g id="node5" class="node"><title>Node5</title>
<g id="a_node5"><a xlink:href="../../df/dcb/classturtle_1_1_turtle.html#a72a5d11b319fe2819a646569d5034557" target="_top" xlink:title="turtle.Turtle.createAnimation">
<polygon fill="white" stroke="black" points="1454.5,-103.5 1454.5,-122.5 1607.5,-122.5 1607.5,-103.5 1454.5,-103.5"/>
<text text-anchor="middle" x="1531" y="-110.5" font-family="Helvetica,sans-Serif" font-size="10.00">turtle.Turtle.createAnimation</text>
</a>
</g>
</g>
<!-- Node4&#45;&gt;Node5 -->
<g id="edge4" class="edge"><title>Node4&#45;&gt;Node5</title>
<path fill="none" stroke="midnightblue" d="M1428.31,-113C1437.06,-113 1445.8,-113 1454.3,-113"/>
<polygon fill="midnightblue" stroke="midnightblue" points="1428.07,-109.5 1418.07,-113 1428.07,-116.5 1428.07,-109.5"/>
</g>
<!-- Node7 -->
<g id="node7" class="node"><title>Node7</title>
<g id="a_node7"><a xlink:href="../../d8/dde/classturtle_1_1draw_1_1_pen_transition.html#ae8155506993774930ffd88f222ee7398" target="_top" xlink:title="turtle.draw.PenTransition.createLine">
<polygon fill="white" stroke="black" points="368,-65.5 368,-84.5 554,-84.5 554,-65.5 368,-65.5"/>
<text text-anchor="middle" x="461" y="-72.5" font-family="Helvetica,sans-Serif" font-size="10.00">turtle.draw.PenTransition.createLine</text>
</a>
</g>
</g>
<!-- Node6&#45;&gt;Node7 -->
<g id="edge6" class="edge"><title>Node6&#45;&gt;Node7</title>
<path fill="none" stroke="midnightblue" d="M337.379,-87.2067C347.518,-86.1973 357.795,-85.1742 367.863,-84.172"/>
<polygon fill="midnightblue" stroke="midnightblue" points="336.902,-83.7367 327.298,-88.2102 337.595,-90.7023 336.902,-83.7367"/>
</g>
<!-- Node8 -->
<g id="node8" class="node"><title>Node8</title>
<g id="a_node8"><a xlink:href="../../d8/dde/classturtle_1_1draw_1_1_pen_transition.html#aa0a682d77c6f7e56adb8a7cad589a140" target="_top" xlink:title="turtle.draw.PenTransition.set\lDistance">
<polygon fill="white" stroke="black" points="601.5,-76 601.5,-106 752.5,-106 752.5,-76 601.5,-76"/>
<text text-anchor="start" x="609.5" y="-94" font-family="Helvetica,sans-Serif" font-size="10.00">turtle.draw.PenTransition.set</text>
<text text-anchor="middle" x="677" y="-83" font-family="Helvetica,sans-Serif" font-size="10.00">Distance</text>
</a>
</g>
</g>
<!-- Node7&#45;&gt;Node8 -->
<g id="edge7" class="edge"><title>Node7&#45;&gt;Node8</title>
<path fill="none" stroke="midnightblue" d="M564.303,-82.6488C576.805,-83.5835 589.393,-84.5247 601.381,-85.421"/>
<polygon fill="midnightblue" stroke="midnightblue" points="564.541,-79.1569 554.308,-81.9015 564.019,-86.1375 564.541,-79.1569"/>
</g>
<!-- Node9 -->
<g id="node9" class="node"><title>Node9</title>
<g id="a_node9"><a xlink:href="../../d8/dde/classturtle_1_1draw_1_1_pen_transition.html#a7eaf834f0b2189acc2f53ca8f561b07d" target="_top" xlink:title="turtle.draw.PenTransition.perform\lWrappingChanges">
<polygon fill="white" stroke="black" points="590,-27 590,-57 764,-57 764,-27 590,-27"/>
<text text-anchor="start" x="598" y="-45" font-family="Helvetica,sans-Serif" font-size="10.00">turtle.draw.PenTransition.perform</text>
<text text-anchor="middle" x="677" y="-34" font-family="Helvetica,sans-Serif" font-size="10.00">WrappingChanges</text>
</a>
</g>
</g>
<!-- Node7&#45;&gt;Node9 -->
<g id="edge9" class="edge"><title>Node7&#45;&gt;Node9</title>
<path fill="none" stroke="midnightblue" d="M533.714,-63.9413C551.689,-61.1695 571.159,-58.167 589.76,-55.2987"/>
<polygon fill="midnightblue" stroke="midnightblue" points="532.96,-60.5161 523.611,-65.4993 534.027,-67.4343 532.96,-60.5161"/>
</g>
<!-- Node8&#45;&gt;Node2 -->
<g id="edge8" class="edge"><title>Node8&#45;&gt;Node2</title>
<path fill="none" stroke="midnightblue" d="M762.878,-99.8081C775.07,-101.073 787.651,-102.379 799.939,-103.654"/>
<polygon fill="midnightblue" stroke="midnightblue" points="763.051,-96.3074 752.743,-98.7564 762.329,-103.27 763.051,-96.3074"/>
</g>
<!-- Node10&#45;&gt;Node7 -->
<g id="edge11" class="edge"><title>Node10&#45;&gt;Node7</title>
<path fill="none" stroke="midnightblue" d="M342.089,-66.4634C350.646,-67.0829 359.262,-67.7068 367.732,-68.3199"/>
<polygon fill="midnightblue" stroke="midnightblue" points="342.31,-62.9704 332.083,-65.7391 341.805,-69.9521 342.31,-62.9704"/>
</g>
</g>
</svg>
