<?xml version="1.0" encoding="UTF-8" standalone="no"?>
<!DOCTYPE svg PUBLIC "-//W3C//DTD SVG 1.1//EN"
 "http://www.w3.org/Graphics/SVG/1.1/DTD/svg11.dtd">
<!-- Generated by graphviz version 2.36.0 (20140111.2315)
 -->
<!-- Title: turtle.Turtle.createAnimation Pages: 1 -->
<!--zoomable 738 -->
<svg id="main" version="1.1" xmlns="http://www.w3.org/2000/svg" xmlns:xlink="http://www.w3.org/1999/xlink" xml:space="preserve" onload="init(evt)">
<style type="text/css"><![CDATA[
.edge:hover path { stroke: red; }
.edge:hover polygon { stroke: red; fill: red; }
]]></style>
<script type="text/javascript"><![CDATA[
var edges = document.getElementsByTagName('g');
if (edges && edges.length) {
  for (var i=0;i<edges.length;i++) {
    if (edges[i].id.substr(0,4)=='edge') {
      edges[i].setAttribute('class','edge');
    }
  }
}
]]></script>
        <defs>
                <circle id="rim" cx="0" cy="0" r="7"/>
                <circle id="rim2" cx="0" cy="0" r="3.5"/>
                <g id="zoomPlus">
                        <use xlink:href="#rim" fill="#404040">
                                <set attributeName="fill" to="#808080" begin="zoomplus.mouseover" end="zoomplus.mouseout"/>
                        </use>
                        <path d="M-4,0h8M0,-4v8" fill="none" stroke="white" stroke-width="1.5" pointer-events="none"/>
                </g>
                <g id="zoomMin">
                        <use xlink:href="#rim" fill="#404040">
                                <set attributeName="fill" to="#808080" begin="zoomminus.mouseover" end="zoomminus.mouseout"/>
                        </use>
                        <path d="M-4,0h8" fill="none" stroke="white" stroke-width="1.5" pointer-events="none"/>
                </g>
                <g id="dirArrow">
                        <path fill="none" stroke="white" stroke-width="1.5" d="M0,-3.0v7 M-2.5,-0.5L0,-3.0L2.5,-0.5"/>
                </g>
               <g id="resetDef">
                       <use xlink:href="#rim2" fill="#404040">
                               <set attributeName="fill" to="#808080" begin="reset.mouseover" end="reset.mouseout"/>
                       </use>
               </g>
        </defs>

<script type="text/javascript">
var viewWidth = 1862;
var viewHeight = 738;
var sectionId = 'dynsection-2';
</script>
<script xlink:href="../../svgpan.js"/>
<svg id="graph" class="graph">
<g id="viewport">
<title>turtle.Turtle.createAnimation</title>
<polygon fill="white" stroke="none" points="-4,4 -4,-734 1858,-734 1858,4 -4,4"/>
<!-- Node1 -->
<g id="node1" class="node"><title>Node1</title>
<polygon fill="#bfbfbf" stroke="black" points="0.5,-406.5 0.5,-425.5 153.5,-425.5 153.5,-406.5 0.5,-406.5"/>
<text text-anchor="middle" x="77" y="-413.5" font-family="Helvetica,sans-Serif" font-size="10.00">turtle.Turtle.createAnimation</text>
</g>
<!-- Node2 -->
<g id="node2" class="node"><title>Node2</title>
<g id="a_node2"><a xlink:href="../../dc/d3e/classturtle_1_1draw_1_1_transition_factory.html#a31b362130278174931595c1ce68c7ff5" target="_top" xlink:title="turtle.draw.TransitionFactory.create\lAnimation">
<polygon fill="white" stroke="black" points="190,-401 190,-431 372,-431 372,-401 190,-401"/>
<text text-anchor="start" x="198" y="-419" font-family="Helvetica,sans-Serif" font-size="10.00">turtle.draw.TransitionFactory.create</text>
<text text-anchor="middle" x="281" y="-408" font-family="Helvetica,sans-Serif" font-size="10.00">Animation</text>
</a>
</g>
</g>
<!-- Node1&#45;&gt;Node2 -->
<g id="edge1" class="edge"><title>Node1&#45;&gt;Node2</title>
<path fill="none" stroke="midnightblue" d="M153.505,-416C162.135,-416 171.031,-416 179.918,-416"/>
<polygon fill="midnightblue" stroke="midnightblue" points="179.933,-419.5 189.933,-416 179.933,-412.5 179.933,-419.5"/>
</g>
<!-- Node3 -->
<g id="node3" class="node"><title>Node3</title>
<g id="a_node3"><a xlink:href="../../dc/d3e/classturtle_1_1draw_1_1_transition_factory.html#adb38be68a00bde2421dbdf0d55a93e54" target="_top" xlink:title="turtle.draw.TransitionFactory.create\lTurtleTransition">
<polygon fill="white" stroke="black" points="408,-401 408,-431 590,-431 590,-401 408,-401"/>
<text text-anchor="start" x="416" y="-419" font-family="Helvetica,sans-Serif" font-size="10.00">turtle.draw.TransitionFactory.create</text>
<text text-anchor="middle" x="499" y="-408" font-family="Helvetica,sans-Serif" font-size="10.00">TurtleTransition</text>
</a>
</g>
</g>
<!-- Node2&#45;&gt;Node3 -->
<g id="edge2" class="edge"><title>Node2&#45;&gt;Node3</title>
<path fill="none" stroke="midnightblue" d="M372.039,-416C380.526,-416 389.165,-416 397.738,-416"/>
<polygon fill="midnightblue" stroke="midnightblue" points="397.759,-419.5 407.759,-416 397.759,-412.5 397.759,-419.5"/>
</g>
<!-- Node4 -->
<g id="node4" class="node"><title>Node4</title>
<g id="a_node4"><a xlink:href="../../df/dcb/classturtle_1_1_turtle.html#a19d13fd5d60f50cdbcea2a4e4b4a533d" target="_top" xlink:title="turtle.Turtle.updateVisual\lState">
<polygon fill="white" stroke="black" points="649,-590 649,-620 785,-620 785,-590 649,-590"/>
<text text-anchor="start" x="657" y="-608" font-family="Helvetica,sans-Serif" font-size="10.00">turtle.Turtle.updateVisual</text>
<text text-anchor="middle" x="717" y="-597" font-family="Helvetica,sans-Serif" font-size="10.00">State</text>
</a>
</g>
</g>
<!-- Node3&#45;&gt;Node4 -->
<g id="edge3" class="edge"><title>Node3&#45;&gt;Node4</title>
<path fill="none" stroke="midnightblue" d="M517.311,-431.147C555.385,-464.462 646.53,-544.214 690.891,-583.03"/>
<polygon fill="midnightblue" stroke="midnightblue" points="688.776,-585.83 698.606,-589.781 693.385,-580.562 688.776,-585.83"/>
</g>
<!-- Node11 -->
<g id="node11" class="node"><title>Node11</title>
<g id="a_node11"><a xlink:href="../../dc/d3e/classturtle_1_1draw_1_1_transition_factory.html#ac71cc2cb5d25b3db756926c69b2da8a6" target="_top" xlink:title="turtle.draw.TransitionFactory.create\lTurnTransition">
<polygon fill="white" stroke="black" points="626,-401 626,-431 808,-431 808,-401 626,-401"/>
<text text-anchor="start" x="634" y="-419" font-family="Helvetica,sans-Serif" font-size="10.00">turtle.draw.TransitionFactory.create</text>
<text text-anchor="middle" x="717" y="-408" font-family="Helvetica,sans-Serif" font-size="10.00">TurnTransition</text>
</a>
</g>
</g>
<!-- Node3&#45;&gt;Node11 -->
<g id="edge10" class="edge"><title>Node3&#45;&gt;Node11</title>
<path fill="none" stroke="midnightblue" d="M590.039,-416C598.526,-416 607.165,-416 615.738,-416"/>
<polygon fill="midnightblue" stroke="midnightblue" points="615.759,-419.5 625.759,-416 615.759,-412.5 615.759,-419.5"/>
</g>
<!-- Node16 -->
<g id="node16" class="node"><title>Node16</title>
<g id="a_node16"><a xlink:href="../../dc/d3e/classturtle_1_1draw_1_1_transition_factory.html#a6ff1cfc7cfe2396040ddb55408ee854e" target="_top" xlink:title="turtle.draw.TransitionFactory.create\lForwardTransition">
<polygon fill="white" stroke="black" points="626,-178 626,-208 808,-208 808,-178 626,-178"/>
<text text-anchor="start" x="634" y="-196" font-family="Helvetica,sans-Serif" font-size="10.00">turtle.draw.TransitionFactory.create</text>
<text text-anchor="middle" x="717" y="-185" font-family="Helvetica,sans-Serif" font-size="10.00">ForwardTransition</text>
</a>
</g>
</g>
<!-- Node3&#45;&gt;Node16 -->
<g id="edge15" class="edge"><title>Node3&#45;&gt;Node16</title>
<path fill="none" stroke="midnightblue" d="M514.847,-400.672C552.239,-362.069 650.425,-260.7 694.29,-215.414"/>
<polygon fill="midnightblue" stroke="midnightblue" points="696.892,-217.758 701.335,-208.14 691.864,-212.888 696.892,-217.758"/>
</g>
<!-- Node5 -->
<g id="node5" class="node"><title>Node5</title>
<g id="a_node5"><a xlink:href="../../dd/da0/classturtle_1_1draw_1_1_pen.html#adaf88ea81215149c382ba56b9c4894eb" target="_top" xlink:title="turtle.draw.Pen.update">
<polygon fill="white" stroke="black" points="869.5,-661.5 869.5,-680.5 994.5,-680.5 994.5,-661.5 869.5,-661.5"/>
<text text-anchor="middle" x="932" y="-668.5" font-family="Helvetica,sans-Serif" font-size="10.00">turtle.draw.Pen.update</text>
</a>
</g>
</g>
<!-- Node4&#45;&gt;Node5 -->
<g id="edge4" class="edge"><title>Node4&#45;&gt;Node5</title>
<path fill="none" stroke="midnightblue" d="M755.36,-620.024C780.219,-629.675 813.745,-642.037 844,-651 853.91,-653.936 864.56,-656.699 874.893,-659.181"/>
<polygon fill="midnightblue" stroke="midnightblue" points="874.133,-662.597 884.668,-661.47 875.73,-655.782 874.133,-662.597"/>
</g>
<!-- Node6 -->
<g id="node6" class="node"><title>Node6</title>
<g id="a_node6"><a xlink:href="../../d0/dce/classtransitionstate_1_1_transition_state.html#ab51672ddfecc15b6a4abf25362625c53" target="_top" xlink:title="transitionstate.Transition\lState.getPenChange">
<polygon fill="white" stroke="black" points="865,-612 865,-642 999,-642 999,-612 865,-612"/>
<text text-anchor="start" x="873" y="-630" font-family="Helvetica,sans-Serif" font-size="10.00">transitionstate.Transition</text>
<text text-anchor="middle" x="932" y="-619" font-family="Helvetica,sans-Serif" font-size="10.00">State.getPenChange</text>
</a>
</g>
</g>
<!-- Node4&#45;&gt;Node6 -->
<g id="edge5" class="edge"><title>Node4&#45;&gt;Node6</title>
<path fill="none" stroke="midnightblue" d="M785.102,-611.931C807.303,-614.224 832.162,-616.791 854.983,-619.148"/>
<polygon fill="midnightblue" stroke="midnightblue" points="854.658,-622.633 864.965,-620.179 855.377,-615.67 854.658,-622.633"/>
</g>
<!-- Node7 -->
<g id="node7" class="node"><title>Node7</title>
<g id="a_node7"><a xlink:href="../../df/dcb/classturtle_1_1_turtle.html#ae874771e2fd28fce250e1de7f9d9647d" target="_top" xlink:title="turtle.Turtle.updateVisible">
<polygon fill="white" stroke="black" points="863,-573.5 863,-592.5 1001,-592.5 1001,-573.5 863,-573.5"/>
<text text-anchor="middle" x="932" y="-580.5" font-family="Helvetica,sans-Serif" font-size="10.00">turtle.Turtle.updateVisible</text>
</a>
</g>
</g>
<!-- Node4&#45;&gt;Node7 -->
<g id="edge6" class="edge"><title>Node4&#45;&gt;Node7</title>
<path fill="none" stroke="midnightblue" d="M785.102,-598.069C806.569,-595.852 830.521,-593.378 852.713,-591.086"/>
<polygon fill="midnightblue" stroke="midnightblue" points="853.182,-594.556 862.77,-590.047 852.463,-587.593 853.182,-594.556"/>
</g>
<!-- Node8 -->
<g id="node8" class="node"><title>Node8</title>
<g id="a_node8"><a xlink:href="../../d0/dce/classtransitionstate_1_1_transition_state.html#aa7fbf8e1c635fcfab8abdc3944db35af" target="_top" xlink:title="transitionstate.Transition\lState.getVisibleChange">
<polygon fill="white" stroke="black" points="865,-524 865,-554 999,-554 999,-524 865,-524"/>
<text text-anchor="start" x="873" y="-542" font-family="Helvetica,sans-Serif" font-size="10.00">transitionstate.Transition</text>
<text text-anchor="middle" x="932" y="-531" font-family="Helvetica,sans-Serif" font-size="10.00">State.getVisibleChange</text>
</a>
</g>
</g>
<!-- Node4&#45;&gt;Node8 -->
<g id="edge7" class="edge"><title>Node4&#45;&gt;Node8</title>
<path fill="none" stroke="midnightblue" d="M763.076,-589.912C787.047,-581.995 817.056,-572.252 844,-564 851.692,-561.644 859.786,-559.231 867.814,-556.878"/>
<polygon fill="midnightblue" stroke="midnightblue" points="868.919,-560.201 877.542,-554.044 866.962,-553.48 868.919,-560.201"/>
</g>
<!-- Node9 -->
<g id="node9" class="node"><title>Node9</title>
<g id="a_node9"><a xlink:href="../../d4/de5/classturtle_1_1_turtle_view_controller.html#a27ab1368e9369b701b2d49ede5b2aaab" target="_top" xlink:title="turtle.TurtleViewController.update\lVisible">
<polygon fill="white" stroke="black" points="844.5,-700 844.5,-730 1019.5,-730 1019.5,-700 844.5,-700"/>
<text text-anchor="start" x="852.5" y="-718" font-family="Helvetica,sans-Serif" font-size="10.00">turtle.TurtleViewController.update</text>
<text text-anchor="middle" x="932" y="-707" font-family="Helvetica,sans-Serif" font-size="10.00">Visible</text>
</a>
</g>
</g>
<!-- Node4&#45;&gt;Node9 -->
<g id="edge8" class="edge"><title>Node4&#45;&gt;Node9</title>
<path fill="none" stroke="midnightblue" d="M736.511,-620.25C760.132,-639.034 802.872,-670.806 844,-690 848.984,-692.326 854.232,-694.484 859.578,-696.475"/>
<polygon fill="midnightblue" stroke="midnightblue" points="858.676,-699.868 869.27,-699.88 860.996,-693.263 858.676,-699.868"/>
</g>
<!-- Node10 -->
<g id="node10" class="node"><title>Node10</title>
<g id="a_node10"><a xlink:href="../../d8/d9e/classturtle_1_1_turtle_image.html#a003d507b71fbc99ec5a1cb53aef1b2ab" target="_top" xlink:title="turtle.TurtleImage.update\lVisible">
<polygon fill="white" stroke="black" points="1080.5,-700 1080.5,-730 1217.5,-730 1217.5,-700 1080.5,-700"/>
<text text-anchor="start" x="1088.5" y="-718" font-family="Helvetica,sans-Serif" font-size="10.00">turtle.TurtleImage.update</text>
<text text-anchor="middle" x="1149" y="-707" font-family="Helvetica,sans-Serif" font-size="10.00">Visible</text>
</a>
</g>
</g>
<!-- Node9&#45;&gt;Node10 -->
<g id="edge9" class="edge"><title>Node9&#45;&gt;Node10</title>
<path fill="none" stroke="midnightblue" d="M1019.52,-715C1036.33,-715 1053.86,-715 1070.36,-715"/>
<polygon fill="midnightblue" stroke="midnightblue" points="1070.49,-718.5 1080.49,-715 1070.49,-711.5 1070.49,-718.5"/>
</g>
<!-- Node12 -->
<g id="node12" class="node"><title>Node12</title>
<g id="a_node12"><a xlink:href="../../d0/dce/classtransitionstate_1_1_transition_state.html#a9fc8106774dd937fd3e8cb2e920d7560" target="_top" xlink:title="transitionstate.Transition\lState.getRotateClockwise">
<polygon fill="white" stroke="black" points="863,-475 863,-505 1001,-505 1001,-475 863,-475"/>
<text text-anchor="start" x="871" y="-493" font-family="Helvetica,sans-Serif" font-size="10.00">transitionstate.Transition</text>
<text text-anchor="middle" x="932" y="-482" font-family="Helvetica,sans-Serif" font-size="10.00">State.getRotateClockwise</text>
</a>
</g>
</g>
<!-- Node11&#45;&gt;Node12 -->
<g id="edge11" class="edge"><title>Node11&#45;&gt;Node12</title>
<path fill="none" stroke="midnightblue" d="M754.07,-431.036C779.093,-441.217 813.309,-454.647 844,-465 850.962,-467.348 858.282,-469.673 865.598,-471.904"/>
<polygon fill="midnightblue" stroke="midnightblue" points="864.953,-475.364 875.537,-474.881 866.962,-468.659 864.953,-475.364"/>
</g>
<!-- Node13 -->
<g id="node13" class="node"><title>Node13</title>
<g id="a_node13"><a xlink:href="../../d0/dce/classtransitionstate_1_1_transition_state.html#af00a0805dcd030e8b847cfcafef1ba57" target="_top" xlink:title="transitionstate.Transition\lState.getRotateCounterClockwise">
<polygon fill="white" stroke="black" points="844,-426 844,-456 1020,-456 1020,-426 844,-426"/>
<text text-anchor="start" x="852" y="-444" font-family="Helvetica,sans-Serif" font-size="10.00">transitionstate.Transition</text>
<text text-anchor="middle" x="932" y="-433" font-family="Helvetica,sans-Serif" font-size="10.00">State.getRotateCounterClockwise</text>
</a>
</g>
</g>
<!-- Node11&#45;&gt;Node13 -->
<g id="edge12" class="edge"><title>Node11&#45;&gt;Node13</title>
<path fill="none" stroke="midnightblue" d="M808.022,-426.566C816.51,-427.562 825.14,-428.575 833.69,-429.579"/>
<polygon fill="midnightblue" stroke="midnightblue" points="833.338,-433.061 843.678,-430.751 834.154,-426.109 833.338,-433.061"/>
</g>
<!-- Node14 -->
<g id="node14" class="node"><title>Node14</title>
<g id="a_node14"><a xlink:href="../../dd/d1d/classturtle_1_1draw_1_1_s_logo_transition.html#a81120dd28c65f306eb2d0b39006acfa9" target="_top" xlink:title="turtle.draw.SLogoTransition.set\lTurtle">
<polygon fill="white" stroke="black" points="850.5,-377 850.5,-407 1013.5,-407 1013.5,-377 850.5,-377"/>
<text text-anchor="start" x="858.5" y="-395" font-family="Helvetica,sans-Serif" font-size="10.00">turtle.draw.SLogoTransition.set</text>
<text text-anchor="middle" x="932" y="-384" font-family="Helvetica,sans-Serif" font-size="10.00">Turtle</text>
</a>
</g>
</g>
<!-- Node11&#45;&gt;Node14 -->
<g id="edge13" class="edge"><title>Node11&#45;&gt;Node14</title>
<path fill="none" stroke="midnightblue" d="M808.022,-405.857C818.692,-404.654 829.587,-403.427 840.266,-402.224"/>
<polygon fill="midnightblue" stroke="midnightblue" points="840.879,-405.677 850.424,-401.079 840.095,-398.721 840.879,-405.677"/>
</g>
<!-- Node15 -->
<g id="node15" class="node"><title>Node15</title>
<g id="a_node15"><a xlink:href="../../d3/d81/classturtle_1_1draw_1_1_turn_transition.html#a014d4a0a31bc28434424963bb2da76a8" target="_top" xlink:title="turtle.draw.TurnTransition.setTurn">
<polygon fill="white" stroke="black" points="846,-338.5 846,-357.5 1018,-357.5 1018,-338.5 846,-338.5"/>
<text text-anchor="middle" x="932" y="-345.5" font-family="Helvetica,sans-Serif" font-size="10.00">turtle.draw.TurnTransition.setTurn</text>
</a>
</g>
</g>
<!-- Node11&#45;&gt;Node15 -->
<g id="edge14" class="edge"><title>Node11&#45;&gt;Node15</title>
<path fill="none" stroke="midnightblue" d="M753.66,-400.903C778.644,-390.701 812.979,-377.425 844,-368 853.676,-365.06 864.071,-362.32 874.191,-359.868"/>
<polygon fill="midnightblue" stroke="midnightblue" points="875.25,-363.214 884.181,-357.516 873.645,-356.401 875.25,-363.214"/>
</g>
<!-- Node17 -->
<g id="node17" class="node"><title>Node17</title>
<g id="a_node17"><a xlink:href="../../de/d1a/classturtle_1_1draw_1_1_move_transition.html#ad82006c1e8db96a8b9f1c68cdac07b88" target="_top" xlink:title="turtle.draw.MoveTransition.set\lTurtle">
<polygon fill="white" stroke="black" points="853,-202 853,-232 1011,-232 1011,-202 853,-202"/>
<text text-anchor="start" x="861" y="-220" font-family="Helvetica,sans-Serif" font-size="10.00">turtle.draw.MoveTransition.set</text>
<text text-anchor="middle" x="932" y="-209" font-family="Helvetica,sans-Serif" font-size="10.00">Turtle</text>
</a>
</g>
</g>
<!-- Node16&#45;&gt;Node17 -->
<g id="edge16" class="edge"><title>Node16&#45;&gt;Node17</title>
<path fill="none" stroke="midnightblue" d="M808.022,-203.143C819.526,-204.44 831.293,-205.765 842.768,-207.058"/>
<polygon fill="midnightblue" stroke="midnightblue" points="842.434,-210.543 852.763,-208.185 843.218,-203.587 842.434,-210.543"/>
</g>
<!-- Node21 -->
<g id="node21" class="node"><title>Node21</title>
<g id="a_node21"><a xlink:href="../../de/de7/classturtle_1_1draw_1_1_linear_transition.html#ac957ebacdb11c8535b6f67ea19c310cd" target="_top" xlink:title="turtle.draw.LinearTransition.set\lDistance">
<polygon fill="white" stroke="black" points="851,-65 851,-95 1013,-95 1013,-65 851,-65"/>
<text text-anchor="start" x="859" y="-83" font-family="Helvetica,sans-Serif" font-size="10.00">turtle.draw.LinearTransition.set</text>
<text text-anchor="middle" x="932" y="-72" font-family="Helvetica,sans-Serif" font-size="10.00">Distance</text>
</a>
</g>
</g>
<!-- Node16&#45;&gt;Node21 -->
<g id="edge20" class="edge"><title>Node16&#45;&gt;Node21</title>
<path fill="none" stroke="midnightblue" d="M737.578,-177.849C761.591,-159.811 804.044,-129.66 844,-110 852.512,-105.812 861.755,-101.953 870.933,-98.4949"/>
<polygon fill="midnightblue" stroke="midnightblue" points="872.237,-101.745 880.44,-95.0403 869.846,-95.1661 872.237,-101.745"/>
</g>
<!-- Node22 -->
<g id="node22" class="node"><title>Node22</title>
<g id="a_node22"><a xlink:href="../../d0/dce/classtransitionstate_1_1_transition_state.html#ad269e6af5090eaf593a366df31d9cc58" target="_top" xlink:title="transitionstate.Transition\lState.getMove">
<polygon fill="white" stroke="black" points="865,-16 865,-46 999,-46 999,-16 865,-16"/>
<text text-anchor="start" x="873" y="-34" font-family="Helvetica,sans-Serif" font-size="10.00">transitionstate.Transition</text>
<text text-anchor="middle" x="932" y="-23" font-family="Helvetica,sans-Serif" font-size="10.00">State.getMove</text>
</a>
</g>
</g>
<!-- Node16&#45;&gt;Node22 -->
<g id="edge21" class="edge"><title>Node16&#45;&gt;Node22</title>
<path fill="none" stroke="midnightblue" d="M727.438,-177.987C746.112,-149.544 790.62,-87.7273 844,-55 847.607,-52.7888 851.42,-50.7771 855.357,-48.9473"/>
<polygon fill="midnightblue" stroke="midnightblue" points="856.87,-52.1078 864.727,-44.9999 854.153,-45.6569 856.87,-52.1078"/>
</g>
<!-- Node23 -->
<g id="node23" class="node"><title>Node23</title>
<g id="a_node23"><a xlink:href="../../df/dcb/classturtle_1_1_turtle.html#a0b8bdf8fc097cab5bf51d46567c2d749" target="_top" xlink:title="turtle.Turtle.getPen">
<polygon fill="white" stroke="black" points="1515.5,-114.5 1515.5,-133.5 1622.5,-133.5 1622.5,-114.5 1515.5,-114.5"/>
<text text-anchor="middle" x="1569" y="-121.5" font-family="Helvetica,sans-Serif" font-size="10.00">turtle.Turtle.getPen</text>
</a>
</g>
</g>
<!-- Node16&#45;&gt;Node23 -->
<g id="edge22" class="edge"><title>Node16&#45;&gt;Node23</title>
<path fill="none" stroke="midnightblue" d="M747.921,-177.985C772.909,-166.282 809.835,-150.899 844,-144 1084.07,-95.5221 1377.94,-109.234 1504.77,-118.566"/>
<polygon fill="midnightblue" stroke="midnightblue" points="1504.83,-122.081 1515.06,-119.341 1505.35,-115.1 1504.83,-122.081"/>
</g>
<!-- Node24 -->
<g id="node24" class="node"><title>Node24</title>
<g id="a_node24"><a xlink:href="../../dd/da0/classturtle_1_1draw_1_1_pen.html#aeb5df1ca76663eb6043d2c885063aeb6" target="_top" xlink:title="turtle.draw.Pen.getPenDown">
<polygon fill="white" stroke="black" points="856.5,-300.5 856.5,-319.5 1007.5,-319.5 1007.5,-300.5 856.5,-300.5"/>
<text text-anchor="middle" x="932" y="-307.5" font-family="Helvetica,sans-Serif" font-size="10.00">turtle.draw.Pen.getPenDown</text>
</a>
</g>
</g>
<!-- Node16&#45;&gt;Node24 -->
<g id="edge23" class="edge"><title>Node16&#45;&gt;Node24</title>
<path fill="none" stroke="midnightblue" d="M733.212,-208.323C755.516,-229.887 799.313,-268.906 844,-290 850.121,-292.889 856.685,-295.375 863.363,-297.51"/>
<polygon fill="midnightblue" stroke="midnightblue" points="862.61,-300.937 873.191,-300.394 864.582,-294.22 862.61,-300.937"/>
</g>
<!-- Node25 -->
<g id="node25" class="node"><title>Node25</title>
<g id="a_node25"><a xlink:href="../../d8/dde/classturtle_1_1draw_1_1_pen_transition.html#a8f10c259f449c09a922a2c26d9712c8d" target="_top" xlink:title="turtle.draw.PenTransition.set\lTurtle">
<polygon fill="white" stroke="black" points="856.5,-251 856.5,-281 1007.5,-281 1007.5,-251 856.5,-251"/>
<text text-anchor="start" x="864.5" y="-269" font-family="Helvetica,sans-Serif" font-size="10.00">turtle.draw.PenTransition.set</text>
<text text-anchor="middle" x="932" y="-258" font-family="Helvetica,sans-Serif" font-size="10.00">Turtle</text>
</a>
</g>
</g>
<!-- Node16&#45;&gt;Node25 -->
<g id="edge24" class="edge"><title>Node16&#45;&gt;Node25</title>
<path fill="none" stroke="midnightblue" d="M754.919,-208.005C779.879,-217.916 813.689,-230.891 844,-241 851.152,-243.385 858.68,-245.755 866.19,-248.03"/>
<polygon fill="midnightblue" stroke="midnightblue" points="865.437,-251.458 876.02,-250.961 867.437,-244.75 865.437,-251.458"/>
</g>
<!-- Node26 -->
<g id="node26" class="node"><title>Node26</title>
<g id="a_node26"><a xlink:href="../../d8/dde/classturtle_1_1draw_1_1_pen_transition.html#aa0a682d77c6f7e56adb8a7cad589a140" target="_top" xlink:title="turtle.draw.PenTransition.set\lDistance">
<polygon fill="white" stroke="black" points="856.5,-153 856.5,-183 1007.5,-183 1007.5,-153 856.5,-153"/>
<text text-anchor="start" x="864.5" y="-171" font-family="Helvetica,sans-Serif" font-size="10.00">turtle.draw.PenTransition.set</text>
<text text-anchor="middle" x="932" y="-160" font-family="Helvetica,sans-Serif" font-size="10.00">Distance</text>
</a>
</g>
</g>
<!-- Node16&#45;&gt;Node26 -->
<g id="edge25" class="edge"><title>Node16&#45;&gt;Node26</title>
<path fill="none" stroke="midnightblue" d="M808.022,-182.434C820.744,-180.941 833.788,-179.41 846.402,-177.929"/>
<polygon fill="midnightblue" stroke="midnightblue" points="846.889,-181.396 856.413,-176.754 846.073,-174.444 846.889,-181.396"/>
</g>
<!-- Node18 -->
<g id="node18" class="node"><title>Node18</title>
<g id="a_node18"><a xlink:href="../../de/d1a/classturtle_1_1draw_1_1_move_transition.html#ac05b146ef3b464435449fd413e8468af" target="_top" xlink:title="turtle.draw.MoveTransition.set\lStartPoint">
<polygon fill="white" stroke="black" points="1293,-240 1293,-270 1451,-270 1451,-240 1293,-240"/>
<text text-anchor="start" x="1301" y="-258" font-family="Helvetica,sans-Serif" font-size="10.00">turtle.draw.MoveTransition.set</text>
<text text-anchor="middle" x="1372" y="-247" font-family="Helvetica,sans-Serif" font-size="10.00">StartPoint</text>
</a>
</g>
</g>
<!-- Node17&#45;&gt;Node18 -->
<g id="edge17" class="edge"><title>Node17&#45;&gt;Node18</title>
<path fill="none" stroke="midnightblue" d="M1011.05,-225.559C1025.97,-227.107 1041.46,-228.655 1056,-230 1132.45,-237.073 1219.46,-243.885 1282.63,-248.606"/>
<polygon fill="midnightblue" stroke="midnightblue" points="1282.72,-252.123 1292.96,-249.375 1283.24,-245.142 1282.72,-252.123"/>
</g>
<!-- Node19 -->
<g id="node19" class="node"><title>Node19</title>
<g id="a_node19"><a xlink:href="../../df/dcb/classturtle_1_1_turtle.html#a29ef6cfcd7794054df8ef83724022983" target="_top" xlink:title="turtle.Turtle.getTurtle">
<polygon fill="white" stroke="black" points="1511.5,-220.5 1511.5,-239.5 1626.5,-239.5 1626.5,-220.5 1511.5,-220.5"/>
<text text-anchor="middle" x="1569" y="-227.5" font-family="Helvetica,sans-Serif" font-size="10.00">turtle.Turtle.getTurtle</text>
</a>
</g>
</g>
<!-- Node18&#45;&gt;Node19 -->
<g id="edge18" class="edge"><title>Node18&#45;&gt;Node19</title>
<path fill="none" stroke="midnightblue" d="M1451.19,-244.976C1467.7,-242.858 1484.99,-240.642 1501.04,-238.584"/>
<polygon fill="midnightblue" stroke="midnightblue" points="1501.92,-242 1511.4,-237.257 1501.03,-235.057 1501.92,-242"/>
</g>
<!-- Node20 -->
<g id="node20" class="node"><title>Node20</title>
<g id="a_node20"><a xlink:href="../../d4/de5/classturtle_1_1_turtle_view_controller.html#a24215ad9dea4b06da7652230ac822973" target="_top" xlink:title="turtle.TurtleViewController.getNode">
<polygon fill="white" stroke="black" points="1672,-220.5 1672,-239.5 1854,-239.5 1854,-220.5 1672,-220.5"/>
<text text-anchor="middle" x="1763" y="-227.5" font-family="Helvetica,sans-Serif" font-size="10.00">turtle.TurtleViewController.getNode</text>
</a>
</g>
</g>
<!-- Node19&#45;&gt;Node20 -->
<g id="edge19" class="edge"><title>Node19&#45;&gt;Node20</title>
<path fill="none" stroke="midnightblue" d="M1626.57,-230C1637.72,-230 1649.72,-230 1661.82,-230"/>
<polygon fill="midnightblue" stroke="midnightblue" points="1661.98,-233.5 1671.98,-230 1661.98,-226.5 1661.98,-233.5"/>
</g>
<!-- Node27 -->
<g id="node27" class="node"><title>Node27</title>
<g id="a_node27"><a xlink:href="../../d8/dde/classturtle_1_1draw_1_1_pen_transition.html#ae8155506993774930ffd88f222ee7398" target="_top" xlink:title="turtle.draw.PenTransition.createLine">
<polygon fill="white" stroke="black" points="1056,-152.5 1056,-171.5 1242,-171.5 1242,-152.5 1056,-152.5"/>
<text text-anchor="middle" x="1149" y="-159.5" font-family="Helvetica,sans-Serif" font-size="10.00">turtle.draw.PenTransition.createLine</text>
</a>
</g>
</g>
<!-- Node26&#45;&gt;Node27 -->
<g id="edge26" class="edge"><title>Node26&#45;&gt;Node27</title>
<path fill="none" stroke="midnightblue" d="M1007.59,-165.918C1019.84,-165.576 1032.72,-165.217 1045.51,-164.86"/>
<polygon fill="midnightblue" stroke="midnightblue" points="1045.83,-168.353 1055.73,-164.575 1045.64,-161.355 1045.83,-168.353"/>
</g>
<!-- Node35 -->
<g id="node35" class="node"><title>Node35</title>
<g id="a_node35"><a xlink:href="../../d8/dde/classturtle_1_1draw_1_1_pen_transition.html#a5c823b5721d6767fb73c7f690ddff65a" target="_top" xlink:title="turtle.draw.PenTransition.set\lEndPoint">
<polygon fill="white" stroke="black" points="1073.5,-191 1073.5,-221 1224.5,-221 1224.5,-191 1073.5,-191"/>
<text text-anchor="start" x="1081.5" y="-209" font-family="Helvetica,sans-Serif" font-size="10.00">turtle.draw.PenTransition.set</text>
<text text-anchor="middle" x="1149" y="-198" font-family="Helvetica,sans-Serif" font-size="10.00">EndPoint</text>
</a>
</g>
</g>
<!-- Node26&#45;&gt;Node35 -->
<g id="edge37" class="edge"><title>Node26&#45;&gt;Node35</title>
<path fill="none" stroke="midnightblue" d="M1007.59,-181.184C1025.5,-184.349 1044.76,-187.753 1063.1,-190.994"/>
<polygon fill="midnightblue" stroke="midnightblue" points="1062.72,-194.481 1073.17,-192.775 1063.94,-187.588 1062.72,-194.481"/>
</g>
<!-- Node28 -->
<g id="node28" class="node"><title>Node28</title>
<g id="a_node28"><a xlink:href="../../d8/dde/classturtle_1_1draw_1_1_pen_transition.html#ae64d711ec6faa3b5411bbfe70b68d365" target="_top" xlink:title="turtle.draw.PenTransition.set\lStartPoint">
<polygon fill="white" stroke="black" points="1296.5,-191 1296.5,-221 1447.5,-221 1447.5,-191 1296.5,-191"/>
<text text-anchor="start" x="1304.5" y="-209" font-family="Helvetica,sans-Serif" font-size="10.00">turtle.draw.PenTransition.set</text>
<text text-anchor="middle" x="1372" y="-198" font-family="Helvetica,sans-Serif" font-size="10.00">StartPoint</text>
</a>
</g>
</g>
<!-- Node27&#45;&gt;Node28 -->
<g id="edge27" class="edge"><title>Node27&#45;&gt;Node28</title>
<path fill="none" stroke="midnightblue" d="M1197.95,-171.547C1223.73,-176.679 1256.28,-183.159 1286.17,-189.111"/>
<polygon fill="midnightblue" stroke="midnightblue" points="1285.7,-192.586 1296.19,-191.106 1287.07,-185.721 1285.7,-192.586"/>
</g>
<!-- Node29 -->
<g id="node29" class="node"><title>Node29</title>
<g id="a_node29"><a xlink:href="../../d8/dde/classturtle_1_1draw_1_1_pen_transition.html#a819420d27f897da865421a925d845f0d" target="_top" xlink:title="turtle.draw.PenTransition.formatLine">
<polygon fill="white" stroke="black" points="1278,-76.5 1278,-95.5 1466,-95.5 1466,-76.5 1278,-76.5"/>
<text text-anchor="middle" x="1372" y="-83.5" font-family="Helvetica,sans-Serif" font-size="10.00">turtle.draw.PenTransition.formatLine</text>
</a>
</g>
</g>
<!-- Node27&#45;&gt;Node29 -->
<g id="edge29" class="edge"><title>Node27&#45;&gt;Node29</title>
<path fill="none" stroke="midnightblue" d="M1177.99,-152.375C1217.51,-138.784 1289.75,-113.942 1333.76,-98.8058"/>
<polygon fill="midnightblue" stroke="midnightblue" points="1334.92,-102.109 1343.24,-95.5473 1332.64,-95.4896 1334.92,-102.109"/>
</g>
<!-- Node33 -->
<g id="node33" class="node"><title>Node33</title>
<g id="a_node33"><a xlink:href="../../d8/dde/classturtle_1_1draw_1_1_pen_transition.html#a431676c45414059317fdf53c2e5d539f" target="_top" xlink:title="turtle.draw.PenTransition.drawLine">
<polygon fill="white" stroke="black" points="1283,-152.5 1283,-171.5 1461,-171.5 1461,-152.5 1283,-152.5"/>
<text text-anchor="middle" x="1372" y="-159.5" font-family="Helvetica,sans-Serif" font-size="10.00">turtle.draw.PenTransition.drawLine</text>
</a>
</g>
</g>
<!-- Node27&#45;&gt;Node33 -->
<g id="edge34" class="edge"><title>Node27&#45;&gt;Node33</title>
<path fill="none" stroke="midnightblue" d="M1242.12,-162C1252.25,-162 1262.59,-162 1272.79,-162"/>
<polygon fill="midnightblue" stroke="midnightblue" points="1272.92,-165.5 1282.92,-162 1272.92,-158.5 1272.92,-165.5"/>
</g>
<!-- Node28&#45;&gt;Node19 -->
<g id="edge28" class="edge"><title>Node28&#45;&gt;Node19</title>
<path fill="none" stroke="midnightblue" d="M1447.56,-215.176C1465.26,-217.355 1484.04,-219.666 1501.36,-221.799"/>
<polygon fill="midnightblue" stroke="midnightblue" points="1501.03,-225.283 1511.38,-223.031 1501.88,-218.336 1501.03,-225.283"/>
</g>
<!-- Node29&#45;&gt;Node23 -->
<g id="edge30" class="edge"><title>Node29&#45;&gt;Node23</title>
<path fill="none" stroke="midnightblue" d="M1421.96,-95.54C1448.38,-100.69 1481.19,-107.084 1509.02,-112.506"/>
<polygon fill="midnightblue" stroke="midnightblue" points="1508.54,-115.979 1519.02,-114.456 1509.88,-109.108 1508.54,-115.979"/>
</g>
<!-- Node30 -->
<g id="node30" class="node"><title>Node30</title>
<g id="a_node30"><a xlink:href="../../dd/da0/classturtle_1_1draw_1_1_pen.html#aa1cfa7c148b990a796edcdce0c1ef4dc" target="_top" xlink:title="turtle.draw.Pen.getColor">
<polygon fill="white" stroke="black" points="1503.5,-0.5 1503.5,-19.5 1634.5,-19.5 1634.5,-0.5 1503.5,-0.5"/>
<text text-anchor="middle" x="1569" y="-7.5" font-family="Helvetica,sans-Serif" font-size="10.00">turtle.draw.Pen.getColor</text>
</a>
</g>
</g>
<!-- Node29&#45;&gt;Node30 -->
<g id="edge31" class="edge"><title>Node29&#45;&gt;Node30</title>
<path fill="none" stroke="midnightblue" d="M1392.33,-76.4677C1417.27,-64.4022 1462.18,-43.4523 1502,-29 1508.33,-26.704 1515.07,-24.4969 1521.74,-22.4511"/>
<polygon fill="midnightblue" stroke="midnightblue" points="1522.82,-25.7826 1531.4,-19.5776 1520.82,-19.073 1522.82,-25.7826"/>
</g>
<!-- Node31 -->
<g id="node31" class="node"><title>Node31</title>
<g id="a_node31"><a xlink:href="../../dd/da0/classturtle_1_1draw_1_1_pen.html#a94bdbfaa93c36af4f16c5f43364abb07" target="_top" xlink:title="turtle.draw.Pen.getWidth">
<polygon fill="white" stroke="black" points="1502.5,-76.5 1502.5,-95.5 1635.5,-95.5 1635.5,-76.5 1502.5,-76.5"/>
<text text-anchor="middle" x="1569" y="-83.5" font-family="Helvetica,sans-Serif" font-size="10.00">turtle.draw.Pen.getWidth</text>
</a>
</g>
</g>
<!-- Node29&#45;&gt;Node31 -->
<g id="edge32" class="edge"><title>Node29&#45;&gt;Node31</title>
<path fill="none" stroke="midnightblue" d="M1466.22,-86C1474.92,-86 1483.67,-86 1492.18,-86"/>
<polygon fill="midnightblue" stroke="midnightblue" points="1492.43,-89.5001 1502.43,-86 1492.43,-82.5001 1492.43,-89.5001"/>
</g>
<!-- Node32 -->
<g id="node32" class="node"><title>Node32</title>
<g id="a_node32"><a xlink:href="../../dd/da0/classturtle_1_1draw_1_1_pen.html#acd8614ebe09681bbd4ac2ac5e4108d17" target="_top" xlink:title="turtle.draw.Pen.getDash">
<polygon fill="white" stroke="black" points="1503.5,-38.5 1503.5,-57.5 1634.5,-57.5 1634.5,-38.5 1503.5,-38.5"/>
<text text-anchor="middle" x="1569" y="-45.5" font-family="Helvetica,sans-Serif" font-size="10.00">turtle.draw.Pen.getDash</text>
</a>
</g>
</g>
<!-- Node29&#45;&gt;Node32 -->
<g id="edge33" class="edge"><title>Node29&#45;&gt;Node32</title>
<path fill="none" stroke="midnightblue" d="M1421.96,-76.46C1448.38,-71.3104 1481.19,-64.916 1509.02,-59.4935"/>
<polygon fill="midnightblue" stroke="midnightblue" points="1509.88,-62.8921 1519.02,-57.5439 1508.54,-56.0213 1509.88,-62.8921"/>
</g>
<!-- Node33&#45;&gt;Node23 -->
<g id="edge35" class="edge"><title>Node33&#45;&gt;Node23</title>
<path fill="none" stroke="midnightblue" d="M1421.96,-152.46C1448.38,-147.31 1481.19,-140.916 1509.02,-135.494"/>
<polygon fill="midnightblue" stroke="midnightblue" points="1509.88,-138.892 1519.02,-133.544 1508.54,-132.021 1509.88,-138.892"/>
</g>
<!-- Node34 -->
<g id="node34" class="node"><title>Node34</title>
<g id="a_node34"><a xlink:href="../../dd/da0/classturtle_1_1draw_1_1_pen.html#aef480a23bb1a70267119d54c79d1f31c" target="_top" xlink:title="turtle.draw.Pen.drawLine">
<polygon fill="white" stroke="black" points="1502.5,-152.5 1502.5,-171.5 1635.5,-171.5 1635.5,-152.5 1502.5,-152.5"/>
<text text-anchor="middle" x="1569" y="-159.5" font-family="Helvetica,sans-Serif" font-size="10.00">turtle.draw.Pen.drawLine</text>
</a>
</g>
</g>
<!-- Node33&#45;&gt;Node34 -->
<g id="edge36" class="edge"><title>Node33&#45;&gt;Node34</title>
<path fill="none" stroke="midnightblue" d="M1461.09,-162C1471.53,-162 1482.12,-162 1492.38,-162"/>
<polygon fill="midnightblue" stroke="midnightblue" points="1492.5,-165.5 1502.5,-162 1492.5,-158.5 1492.5,-165.5"/>
</g>
</g>
</svg>
        <g id="navigator" transform="translate(0 0)" fill="#404254">
                <rect fill="#f2f5e9" fill-opacity="0.5" stroke="#606060" stroke-width=".5" x="0" y="0" width="60" height="60"/>
                <use id="zoomplus" xlink:href="#zoomPlus" x="17" y="9" onmousedown="handleZoom(evt,'in')"/>
                <use id="zoomminus" xlink:href="#zoomMin" x="42" y="9" onmousedown="handleZoom(evt,'out')"/>
                <use id="reset" xlink:href="#resetDef" x="30" y="36" onmousedown="handleReset()"/>
                <g id="arrowUp" xlink:href="#dirArrow" transform="translate(30 24)" onmousedown="handlePan(0,-1)">
                  <use xlink:href="#rim" fill="#404040">
                        <set attributeName="fill" to="#808080" begin="arrowUp.mouseover" end="arrowUp.mouseout"/>
                  </use>
                  <path fill="none" stroke="white" stroke-width="1.5" d="M0,-3.0v7 M-2.5,-0.5L0,-3.0L2.5,-0.5"/>
                </g>
                <g id="arrowRight" xlink:href="#dirArrow" transform="rotate(90) translate(36 -43)" onmousedown="handlePan(1,0)">
                  <use xlink:href="#rim" fill="#404040">
                        <set attributeName="fill" to="#808080" begin="arrowRight.mouseover" end="arrowRight.mouseout"/>
                  </use>
                  <path fill="none" stroke="white" stroke-width="1.5" d="M0,-3.0v7 M-2.5,-0.5L0,-3.0L2.5,-0.5"/>
                </g>
                <g id="arrowDown" xlink:href="#dirArrow" transform="rotate(180) translate(-30 -48)" onmousedown="handlePan(0,1)">
                  <use xlink:href="#rim" fill="#404040">
                        <set attributeName="fill" to="#808080" begin="arrowDown.mouseover" end="arrowDown.mouseout"/>
                  </use>
                  <path fill="none" stroke="white" stroke-width="1.5" d="M0,-3.0v7 M-2.5,-0.5L0,-3.0L2.5,-0.5"/>
                </g>
                <g id="arrowLeft" xlink:href="#dirArrow" transform="rotate(270) translate(-36 17)" onmousedown="handlePan(-1,0)">
                  <use xlink:href="#rim" fill="#404040">
                        <set attributeName="fill" to="#808080" begin="arrowLeft.mouseover" end="arrowLeft.mouseout"/>
                  </use>
                  <path fill="none" stroke="white" stroke-width="1.5" d="M0,-3.0v7 M-2.5,-0.5L0,-3.0L2.5,-0.5"/>
                </g>
        </g>
        <svg viewBox="0 0 15 15" width="100%" height="30px" preserveAspectRatio="xMaxYMin meet">
         <g id="arrow_out" transform="scale(0.3 0.3)">
          <a xlink:href="classturtle_1_1_turtle_a72a5d11b319fe2819a646569d5034557_cgraph_org.svg" target="_base">
           <rect id="button" ry="5" rx="5" y="6" x="6" height="38" width="38"
                fill="#f2f5e9" fill-opacity="0.5" stroke="#606060" stroke-width="1.0"/>
           <path id="arrow"
             d="M 11.500037,31.436501 C 11.940474,20.09759 22.043105,11.32322 32.158766,21.979434 L 37.068811,17.246167 C 37.068811,17.246167 37.088388,32 37.088388,32 L 22.160133,31.978069 C 22.160133,31.978069 26.997745,27.140456 26.997745,27.140456 C 18.528582,18.264221 13.291696,25.230495 11.500037,31.436501 z"
             style="fill:#404040;"/>
          </a>
         </g>
        </svg>
</svg>
