<?xml version="1.0" encoding="UTF-8" standalone="no"?>
<!DOCTYPE svg PUBLIC "-//W3C//DTD SVG 1.1//EN"
 "http://www.w3.org/Graphics/SVG/1.1/DTD/svg11.dtd">
<!-- Generated by graphviz version 2.36.0 (20140111.2315)
 -->
<!-- Title: turtle.Turtle.isSelected Pages: 1 -->
<svg width="508pt" height="38pt"
 viewBox="0.00 0.00 508.00 38.00" xmlns="http://www.w3.org/2000/svg" xmlns:xlink="http://www.w3.org/1999/xlink">
<g id="graph0" class="graph" transform="scale(1 1) rotate(0) translate(4 34)">
<title>turtle.Turtle.isSelected</title>
<polygon fill="white" stroke="none" points="-4,4 -4,-34 504,-34 504,4 -4,4"/>
<!-- Node1 -->
<g id="node1" class="node"><title>Node1</title>
<polygon fill="#bfbfbf" stroke="black" points="0.5,-5.5 0.5,-24.5 123.5,-24.5 123.5,-5.5 0.5,-5.5"/>
<text text-anchor="middle" x="62" y="-12.5" font-family="Helvetica,sans-Serif" font-size="10.00">turtle.Turtle.isSelected</text>
</g>
<!-- Node2 -->
<g id="node2" class="node"><title>Node2</title>
<g id="a_node2"><a xlink:href="../../d4/de5/classturtle_1_1_turtle_view_controller.html#a60ecfe51ec0df4524841d6516dc51c27" target="_top" xlink:title="turtle.TurtleViewController.is\lSelected">
<polygon fill="white" stroke="black" points="160.5,-0 160.5,-30 309.5,-30 309.5,-0 160.5,-0"/>
<text text-anchor="start" x="168.5" y="-18" font-family="Helvetica,sans-Serif" font-size="10.00">turtle.TurtleViewController.is</text>
<text text-anchor="middle" x="235" y="-7" font-family="Helvetica,sans-Serif" font-size="10.00">Selected</text>
</a>
</g>
</g>
<!-- Node1&#45;&gt;Node2 -->
<g id="edge1" class="edge"><title>Node1&#45;&gt;Node2</title>
<path fill="none" stroke="midnightblue" d="M123.77,-15C132.349,-15 141.291,-15 150.209,-15"/>
<polygon fill="midnightblue" stroke="midnightblue" points="150.246,-18.5001 160.246,-15 150.246,-11.5001 150.246,-18.5001"/>
</g>
<!-- Node3 -->
<g id="node3" class="node"><title>Node3</title>
<g id="a_node3"><a xlink:href="../../d8/d9e/classturtle_1_1_turtle_image.html#a6587599d2f864c33ff6086cb9848eaf3" target="_top" xlink:title="turtle.TurtleImage.isSelected">
<polygon fill="white" stroke="black" points="346.5,-5.5 346.5,-24.5 499.5,-24.5 499.5,-5.5 346.5,-5.5"/>
<text text-anchor="middle" x="423" y="-12.5" font-family="Helvetica,sans-Serif" font-size="10.00">turtle.TurtleImage.isSelected</text>
</a>
</g>
</g>
<!-- Node2&#45;&gt;Node3 -->
<g id="edge2" class="edge"><title>Node2&#45;&gt;Node3</title>
<path fill="none" stroke="midnightblue" d="M309.512,-15C318.292,-15 327.314,-15 336.246,-15"/>
<polygon fill="midnightblue" stroke="midnightblue" points="336.275,-18.5001 346.275,-15 336.275,-11.5001 336.275,-18.5001"/>
</g>
</g>
</svg>
