<?xml version="1.0" encoding="UTF-8" standalone="no"?>
<!DOCTYPE svg PUBLIC "-//W3C//DTD SVG 1.1//EN"
 "http://www.w3.org/Graphics/SVG/1.1/DTD/svg11.dtd">
<!-- Generated by graphviz version 2.36.0 (20140111.2315)
 -->
<!-- Title: turtle.Turtle.getTurtle Pages: 1 -->
<svg width="1646pt" height="475pt"
 viewBox="0.00 0.00 1646.00 475.00" xmlns="http://www.w3.org/2000/svg" xmlns:xlink="http://www.w3.org/1999/xlink">
<g id="graph0" class="graph" transform="scale(1 1) rotate(0) translate(4 471)">
<title>turtle.Turtle.getTurtle</title>
<polygon fill="white" stroke="none" points="-4,4 -4,-471 1642,-471 1642,4 -4,4"/>
<!-- Node1 -->
<g id="node1" class="node"><title>Node1</title>
<polygon fill="#bfbfbf" stroke="black" points="0.5,-235.5 0.5,-254.5 115.5,-254.5 115.5,-235.5 0.5,-235.5"/>
<text text-anchor="middle" x="58" y="-242.5" font-family="Helvetica,sans-Serif" font-size="10.00">turtle.Turtle.getTurtle</text>
</g>
<!-- Node2 -->
<g id="node2" class="node"><title>Node2</title>
<g id="a_node2"><a xlink:href="../../de/de7/classturtle_1_1draw_1_1_linear_transition.html#a147bb7b97f186ad172b2d71aec4e9e8e" target="_top" xlink:title="turtle.draw.LinearTransition.check\lWrapping">
<polygon fill="white" stroke="black" points="162.5,-388 162.5,-418 337.5,-418 337.5,-388 162.5,-388"/>
<text text-anchor="start" x="170.5" y="-406" font-family="Helvetica,sans-Serif" font-size="10.00">turtle.draw.LinearTransition.check</text>
<text text-anchor="middle" x="250" y="-395" font-family="Helvetica,sans-Serif" font-size="10.00">Wrapping</text>
</a>
</g>
</g>
<!-- Node1&#45;&gt;Node2 -->
<g id="edge1" class="edge"><title>Node1&#45;&gt;Node2</title>
<path fill="none" stroke="midnightblue" d="M67.1306,-264.31C80.4494,-293.533 109.73,-348.682 152,-378 157.573,-381.865 163.699,-385.133 170.081,-387.896"/>
<polygon fill="midnightblue" stroke="midnightblue" points="70.1828,-262.556 62.9515,-254.813 63.7756,-265.376 70.1828,-262.556"/>
</g>
<!-- Node4 -->
<g id="node4" class="node"><title>Node4</title>
<g id="a_node4"><a xlink:href="../../df/dcb/classturtle_1_1_turtle.html#a4a3429238504006424e085c075908061" target="_top" xlink:title="turtle.Turtle.getHeading">
<polygon fill="white" stroke="black" points="185.5,-349.5 185.5,-368.5 314.5,-368.5 314.5,-349.5 185.5,-349.5"/>
<text text-anchor="middle" x="250" y="-356.5" font-family="Helvetica,sans-Serif" font-size="10.00">turtle.Turtle.getHeading</text>
</a>
</g>
</g>
<!-- Node1&#45;&gt;Node4 -->
<g id="edge3" class="edge"><title>Node1&#45;&gt;Node4</title>
<path fill="none" stroke="midnightblue" d="M71.3219,-263.075C87.2643,-284.958 117.163,-321.206 152,-340 162.194,-345.5 173.756,-349.42 185.256,-352.212"/>
<polygon fill="midnightblue" stroke="midnightblue" points="74.0053,-260.809 65.3702,-254.67 68.2924,-264.854 74.0053,-260.809"/>
</g>
<!-- Node7 -->
<g id="node7" class="node"><title>Node7</title>
<g id="a_node7"><a xlink:href="../../df/dcb/classturtle_1_1_turtle.html#aa74144bda987a463827533ef432fede2" target="_top" xlink:title="turtle.Turtle.getX">
<polygon fill="white" stroke="black" points="202.5,-273.5 202.5,-292.5 297.5,-292.5 297.5,-273.5 202.5,-273.5"/>
<text text-anchor="middle" x="250" y="-280.5" font-family="Helvetica,sans-Serif" font-size="10.00">turtle.Turtle.getX</text>
</a>
</g>
</g>
<!-- Node1&#45;&gt;Node7 -->
<g id="edge6" class="edge"><title>Node1&#45;&gt;Node7</title>
<path fill="none" stroke="midnightblue" d="M115.326,-256.584C127.422,-259.05 140.133,-261.626 152,-264 168.322,-267.266 186.201,-270.785 202.114,-273.896"/>
<polygon fill="midnightblue" stroke="midnightblue" points="115.842,-253.117 105.344,-254.545 114.441,-259.975 115.842,-253.117"/>
</g>
<!-- Node9 -->
<g id="node9" class="node"><title>Node9</title>
<g id="a_node9"><a xlink:href="../../df/dcb/classturtle_1_1_turtle.html#a072c675b5b2da4989e217c155aae6994" target="_top" xlink:title="turtle.Turtle.getY">
<polygon fill="white" stroke="black" points="202.5,-311.5 202.5,-330.5 297.5,-330.5 297.5,-311.5 202.5,-311.5"/>
<text text-anchor="middle" x="250" y="-318.5" font-family="Helvetica,sans-Serif" font-size="10.00">turtle.Turtle.getY</text>
</a>
</g>
</g>
<!-- Node1&#45;&gt;Node9 -->
<g id="edge9" class="edge"><title>Node1&#45;&gt;Node9</title>
<path fill="none" stroke="midnightblue" d="M79.5654,-260.596C97.697,-273.591 125.313,-291.599 152,-302 167.829,-308.169 185.922,-312.409 202.16,-315.288"/>
<polygon fill="midnightblue" stroke="midnightblue" points="81.6092,-257.754 71.472,-254.674 77.4758,-263.404 81.6092,-257.754"/>
</g>
<!-- Node10 -->
<g id="node10" class="node"><title>Node10</title>
<g id="a_node10"><a xlink:href="../../d3/d81/classturtle_1_1draw_1_1_turn_transition.html#a2e6c892343c04376fbf86a66843963f8" target="_top" xlink:title="turtle.draw.TurnTransition.interpolate">
<polygon fill="white" stroke="black" points="155.5,-235.5 155.5,-254.5 344.5,-254.5 344.5,-235.5 155.5,-235.5"/>
<text text-anchor="middle" x="250" y="-242.5" font-family="Helvetica,sans-Serif" font-size="10.00">turtle.draw.TurnTransition.interpolate</text>
</a>
</g>
</g>
<!-- Node1&#45;&gt;Node10 -->
<g id="edge12" class="edge"><title>Node1&#45;&gt;Node10</title>
<path fill="none" stroke="midnightblue" d="M125.885,-245C135.395,-245 145.318,-245 155.223,-245"/>
<polygon fill="midnightblue" stroke="midnightblue" points="125.749,-241.5 115.749,-245 125.749,-248.5 125.749,-241.5"/>
</g>
<!-- Node11 -->
<g id="node11" class="node"><title>Node11</title>
<g id="a_node11"><a xlink:href="../../de/d1a/classturtle_1_1draw_1_1_move_transition.html#acb8f7529e07a5e5a2483e232152d072d" target="_top" xlink:title="turtle.draw.MoveTransition.interpolate\lChanges">
<polygon fill="white" stroke="black" points="152.5,-186 152.5,-216 347.5,-216 347.5,-186 152.5,-186"/>
<text text-anchor="start" x="160.5" y="-204" font-family="Helvetica,sans-Serif" font-size="10.00">turtle.draw.MoveTransition.interpolate</text>
<text text-anchor="middle" x="250" y="-193" font-family="Helvetica,sans-Serif" font-size="10.00">Changes</text>
</a>
</g>
</g>
<!-- Node1&#45;&gt;Node11 -->
<g id="edge13" class="edge"><title>Node1&#45;&gt;Node11</title>
<path fill="none" stroke="midnightblue" d="M110.011,-233.187C132.741,-227.923 159.783,-221.661 183.945,-216.065"/>
<polygon fill="midnightblue" stroke="midnightblue" points="109.18,-229.787 100.227,-235.453 110.759,-236.606 109.18,-229.787"/>
</g>
<!-- Node12 -->
<g id="node12" class="node"><title>Node12</title>
<g id="a_node12"><a xlink:href="../../d1/ddd/classturtle_1_1_serialisable_turtle.html#a22aa2985b386b16ea3ef89aa09363551" target="_top" xlink:title="turtle.SerialisableTurtle.\lSerialisableTurtle">
<polygon fill="white" stroke="black" points="186,-137 186,-167 314,-167 314,-137 186,-137"/>
<text text-anchor="start" x="194" y="-155" font-family="Helvetica,sans-Serif" font-size="10.00">turtle.SerialisableTurtle.</text>
<text text-anchor="middle" x="250" y="-144" font-family="Helvetica,sans-Serif" font-size="10.00">SerialisableTurtle</text>
</a>
</g>
</g>
<!-- Node1&#45;&gt;Node12 -->
<g id="edge14" class="edge"><title>Node1&#45;&gt;Node12</title>
<path fill="none" stroke="midnightblue" d="M77.1412,-228.459C94.9691,-213.037 123.565,-190.449 152,-177 162.612,-171.981 174.371,-167.871 185.935,-164.539"/>
<polygon fill="midnightblue" stroke="midnightblue" points="74.4801,-226.14 69.3022,-235.383 79.1142,-231.386 74.4801,-226.14"/>
</g>
<!-- Node13 -->
<g id="node13" class="node"><title>Node13</title>
<g id="a_node13"><a xlink:href="../../de/de7/classturtle_1_1draw_1_1_linear_transition.html#a751fa70c3d2455c42073e665cde1a673" target="_top" xlink:title="turtle.draw.LinearTransition.set\lChanges">
<polygon fill="white" stroke="black" points="169,-437 169,-467 331,-467 331,-437 169,-437"/>
<text text-anchor="start" x="177" y="-455" font-family="Helvetica,sans-Serif" font-size="10.00">turtle.draw.LinearTransition.set</text>
<text text-anchor="middle" x="250" y="-444" font-family="Helvetica,sans-Serif" font-size="10.00">Changes</text>
</a>
</g>
</g>
<!-- Node1&#45;&gt;Node13 -->
<g id="edge15" class="edge"><title>Node1&#45;&gt;Node13</title>
<path fill="none" stroke="midnightblue" d="M63.4087,-264.845C72.8247,-302.458 98.5399,-384.181 152,-427 157.158,-431.131 162.922,-434.587 168.998,-437.476"/>
<polygon fill="midnightblue" stroke="midnightblue" points="66.7111,-263.602 60.9971,-254.68 59.9001,-265.218 66.7111,-263.602"/>
</g>
<!-- Node14 -->
<g id="node14" class="node"><title>Node14</title>
<g id="a_node14"><a xlink:href="../../de/d1a/classturtle_1_1draw_1_1_move_transition.html#ac05b146ef3b464435449fd413e8468af" target="_top" xlink:title="turtle.draw.MoveTransition.set\lStartPoint">
<polygon fill="white" stroke="black" points="171,-88 171,-118 329,-118 329,-88 171,-88"/>
<text text-anchor="start" x="179" y="-106" font-family="Helvetica,sans-Serif" font-size="10.00">turtle.draw.MoveTransition.set</text>
<text text-anchor="middle" x="250" y="-95" font-family="Helvetica,sans-Serif" font-size="10.00">StartPoint</text>
</a>
</g>
</g>
<!-- Node1&#45;&gt;Node14 -->
<g id="edge17" class="edge"><title>Node1&#45;&gt;Node14</title>
<path fill="none" stroke="midnightblue" d="M68.5773,-226.527C83.0559,-200.476 113.015,-153.304 152,-128 157.981,-124.118 164.534,-120.838 171.323,-118.067"/>
<polygon fill="midnightblue" stroke="midnightblue" points="65.465,-224.925 63.7996,-235.388 71.6264,-228.247 65.465,-224.925"/>
</g>
<!-- Node21 -->
<g id="node21" class="node"><title>Node21</title>
<g id="a_node21"><a xlink:href="../../d8/dde/classturtle_1_1draw_1_1_pen_transition.html#ae64d711ec6faa3b5411bbfe70b68d365" target="_top" xlink:title="turtle.draw.PenTransition.set\lStartPoint">
<polygon fill="white" stroke="black" points="174.5,-39 174.5,-69 325.5,-69 325.5,-39 174.5,-39"/>
<text text-anchor="start" x="182.5" y="-57" font-family="Helvetica,sans-Serif" font-size="10.00">turtle.draw.PenTransition.set</text>
<text text-anchor="middle" x="250" y="-46" font-family="Helvetica,sans-Serif" font-size="10.00">StartPoint</text>
</a>
</g>
</g>
<!-- Node1&#45;&gt;Node21 -->
<g id="edge24" class="edge"><title>Node1&#45;&gt;Node21</title>
<path fill="none" stroke="midnightblue" d="M64.3744,-225.442C75.017,-190.487 102.167,-117.372 152,-79 158.614,-73.9072 166.158,-69.8453 174.05,-66.6068"/>
<polygon fill="midnightblue" stroke="midnightblue" points="60.9226,-224.778 61.4912,-235.357 67.6442,-226.732 60.9226,-224.778"/>
</g>
<!-- Node25 -->
<g id="node25" class="node"><title>Node25</title>
<g id="a_node25"><a xlink:href="../../df/dcb/classturtle_1_1_turtle.html#a68c2855aeda249e719b5afc983967874" target="_top" xlink:title="turtle.Turtle.Turtle">
<polygon fill="white" stroke="black" points="200.5,-0.5 200.5,-19.5 299.5,-19.5 299.5,-0.5 200.5,-0.5"/>
<text text-anchor="middle" x="250" y="-7.5" font-family="Helvetica,sans-Serif" font-size="10.00">turtle.Turtle.Turtle</text>
</a>
</g>
</g>
<!-- Node1&#45;&gt;Node25 -->
<g id="edge30" class="edge"><title>Node1&#45;&gt;Node25</title>
<path fill="none" stroke="midnightblue" d="M61.3548,-225.36C67.6015,-182.443 88.7006,-80.0652 152,-29 165.49,-18.1176 183.434,-12.8647 200.217,-10.4931"/>
<polygon fill="midnightblue" stroke="midnightblue" points="57.8737,-224.986 60.0165,-235.361 64.8119,-225.914 57.8737,-224.986"/>
</g>
<!-- Node3 -->
<g id="node3" class="node"><title>Node3</title>
<g id="a_node3"><a xlink:href="../../de/de7/classturtle_1_1draw_1_1_linear_transition.html#a799e134af5efa1d05033f88d131289d1" target="_top" xlink:title="turtle.draw.LinearTransition.interpolate">
<polygon fill="white" stroke="black" points="384.5,-428.5 384.5,-447.5 583.5,-447.5 583.5,-428.5 384.5,-428.5"/>
<text text-anchor="middle" x="484" y="-435.5" font-family="Helvetica,sans-Serif" font-size="10.00">turtle.draw.LinearTransition.interpolate</text>
</a>
</g>
</g>
<!-- Node2&#45;&gt;Node3 -->
<g id="edge2" class="edge"><title>Node2&#45;&gt;Node3</title>
<path fill="none" stroke="midnightblue" d="M347.72,-417.591C372.109,-421.271 397.667,-425.126 419.919,-428.483"/>
<polygon fill="midnightblue" stroke="midnightblue" points="348.128,-414.113 337.718,-416.082 347.084,-421.035 348.128,-414.113"/>
</g>
<!-- Node5 -->
<g id="node5" class="node"><title>Node5</title>
<g id="a_node5"><a xlink:href="../../db/d39/classinterpreter_1_1expression_1_1singleturtle_1_1_set_heading.html#a207b372efc689ebd78913d8e9014942e" target="_top" xlink:title="interpreter.expression.singleturtle.\lSetHeading.setNextTransition">
<polygon fill="white" stroke="black" points="393.5,-360 393.5,-390 574.5,-390 574.5,-360 393.5,-360"/>
<text text-anchor="start" x="401.5" y="-378" font-family="Helvetica,sans-Serif" font-size="10.00">interpreter.expression.singleturtle.</text>
<text text-anchor="middle" x="484" y="-367" font-family="Helvetica,sans-Serif" font-size="10.00">SetHeading.setNextTransition</text>
</a>
</g>
</g>
<!-- Node4&#45;&gt;Node5 -->
<g id="edge4" class="edge"><title>Node4&#45;&gt;Node5</title>
<path fill="none" stroke="midnightblue" d="M324.862,-364.094C346.642,-365.596 370.716,-367.256 393.372,-368.819"/>
<polygon fill="midnightblue" stroke="midnightblue" points="324.919,-360.59 314.702,-363.393 324.437,-367.573 324.919,-360.59"/>
</g>
<!-- Node6 -->
<g id="node6" class="node"><title>Node6</title>
<g id="a_node6"><a xlink:href="../../d0/d8c/classinterpreter_1_1expression_1_1singleturtle_1_1_set_position.html#a4f3ed8fd9fe9f9e8ef1204cd22a970ae" target="_top" xlink:title="interpreter.expression.singleturtle.\lSetPosition.setNextTransition">
<polygon fill="white" stroke="black" points="393.5,-311 393.5,-341 574.5,-341 574.5,-311 393.5,-311"/>
<text text-anchor="start" x="401.5" y="-329" font-family="Helvetica,sans-Serif" font-size="10.00">interpreter.expression.singleturtle.</text>
<text text-anchor="middle" x="484" y="-318" font-family="Helvetica,sans-Serif" font-size="10.00">SetPosition.setNextTransition</text>
</a>
</g>
</g>
<!-- Node4&#45;&gt;Node6 -->
<g id="edge5" class="edge"><title>Node4&#45;&gt;Node6</title>
<path fill="none" stroke="midnightblue" d="M324.862,-348.494C346.642,-345.396 370.716,-341.971 393.372,-338.749"/>
<polygon fill="midnightblue" stroke="midnightblue" points="324.109,-345.066 314.702,-349.939 325.095,-351.996 324.109,-345.066"/>
</g>
<!-- Node7&#45;&gt;Node6 -->
<g id="edge7" class="edge"><title>Node7&#45;&gt;Node6</title>
<path fill="none" stroke="midnightblue" d="M307.765,-293.521C336.005,-298.755 370.645,-305.176 401.65,-310.922"/>
<polygon fill="midnightblue" stroke="midnightblue" points="308.14,-290.031 297.67,-291.65 306.864,-296.914 308.14,-290.031"/>
</g>
<!-- Node8 -->
<g id="node8" class="node"><title>Node8</title>
<g id="a_node8"><a xlink:href="../../d5/d37/classviewcontroller_1_1turtlegrid_1_1_turtle_status_view_controller.html#a9aa6bf28f45c6a12d0f8ab568ca43b70" target="_top" xlink:title="viewcontroller.turtlegrid.\lTurtleStatusViewController.update">
<polygon fill="white" stroke="black" points="395,-262 395,-292 573,-292 573,-262 395,-262"/>
<text text-anchor="start" x="403" y="-280" font-family="Helvetica,sans-Serif" font-size="10.00">viewcontroller.turtlegrid.</text>
<text text-anchor="middle" x="484" y="-269" font-family="Helvetica,sans-Serif" font-size="10.00">TurtleStatusViewController.update</text>
</a>
</g>
</g>
<!-- Node7&#45;&gt;Node8 -->
<g id="edge8" class="edge"><title>Node7&#45;&gt;Node8</title>
<path fill="none" stroke="midnightblue" d="M307.765,-281.532C333.891,-280.856 365.495,-280.039 394.63,-279.285"/>
<polygon fill="midnightblue" stroke="midnightblue" points="307.576,-278.036 297.67,-281.793 307.757,-285.033 307.576,-278.036"/>
</g>
<!-- Node9&#45;&gt;Node6 -->
<g id="edge10" class="edge"><title>Node9&#45;&gt;Node6</title>
<path fill="none" stroke="midnightblue" d="M307.959,-322.228C333.623,-322.781 364.546,-323.447 393.214,-324.065"/>
<polygon fill="midnightblue" stroke="midnightblue" points="307.743,-318.722 297.67,-322.006 307.592,-325.721 307.743,-318.722"/>
</g>
<!-- Node9&#45;&gt;Node8 -->
<g id="edge11" class="edge"><title>Node9&#45;&gt;Node8</title>
<path fill="none" stroke="midnightblue" d="M307.572,-310.271C336.41,-304.802 371.96,-298.059 403.502,-292.077"/>
<polygon fill="midnightblue" stroke="midnightblue" points="306.842,-306.847 297.67,-312.149 308.147,-313.724 306.842,-306.847"/>
</g>
<!-- Node13&#45;&gt;Node3 -->
<g id="edge16" class="edge"><title>Node13&#45;&gt;Node3</title>
<path fill="none" stroke="midnightblue" d="M341.339,-446.548C355.458,-445.697 370.11,-444.812 384.402,-443.95"/>
<polygon fill="midnightblue" stroke="midnightblue" points="340.937,-443.066 331.166,-447.162 341.359,-450.054 340.937,-443.066"/>
</g>
<!-- Node15 -->
<g id="node15" class="node"><title>Node15</title>
<g id="a_node15"><a xlink:href="../../de/d1a/classturtle_1_1draw_1_1_move_transition.html#ad82006c1e8db96a8b9f1c68cdac07b88" target="_top" xlink:title="turtle.draw.MoveTransition.set\lTurtle">
<polygon fill="white" stroke="black" points="628,-125 628,-155 786,-155 786,-125 628,-125"/>
<text text-anchor="start" x="636" y="-143" font-family="Helvetica,sans-Serif" font-size="10.00">turtle.draw.MoveTransition.set</text>
<text text-anchor="middle" x="707" y="-132" font-family="Helvetica,sans-Serif" font-size="10.00">Turtle</text>
</a>
</g>
</g>
<!-- Node14&#45;&gt;Node15 -->
<g id="edge18" class="edge"><title>Node14&#45;&gt;Node15</title>
<path fill="none" stroke="midnightblue" d="M339.426,-118.314C354.272,-120.497 369.547,-122.504 384,-124 466.955,-132.585 562.426,-136.597 627.742,-138.451"/>
<polygon fill="midnightblue" stroke="midnightblue" points="339.642,-114.808 329.232,-116.78 338.6,-121.73 339.642,-114.808"/>
</g>
<!-- Node20 -->
<g id="node20" class="node"><title>Node20</title>
<g id="a_node20"><a xlink:href="../../de/d1a/classturtle_1_1draw_1_1_move_transition.html#ae6057f04c4fd8af3a81614aa870433d6" target="_top" xlink:title="turtle.draw.MoveTransition.perform\lWrappingChanges">
<polygon fill="white" stroke="black" points="393,-85 393,-115 575,-115 575,-85 393,-85"/>
<text text-anchor="start" x="401" y="-103" font-family="Helvetica,sans-Serif" font-size="10.00">turtle.draw.MoveTransition.perform</text>
<text text-anchor="middle" x="484" y="-92" font-family="Helvetica,sans-Serif" font-size="10.00">WrappingChanges</text>
</a>
</g>
</g>
<!-- Node14&#45;&gt;Node20 -->
<g id="edge23" class="edge"><title>Node14&#45;&gt;Node20</title>
<path fill="none" stroke="midnightblue" d="M339.385,-101.857C356.843,-101.631 375.187,-101.394 392.708,-101.168"/>
<polygon fill="midnightblue" stroke="midnightblue" points="339.175,-98.3594 329.221,-101.989 339.266,-105.359 339.175,-98.3594"/>
</g>
<!-- Node16 -->
<g id="node16" class="node"><title>Node16</title>
<g id="a_node16"><a xlink:href="../../dc/d3e/classturtle_1_1draw_1_1_transition_factory.html#a6ff1cfc7cfe2396040ddb55408ee854e" target="_top" xlink:title="turtle.draw.TransitionFactory.create\lForwardTransition">
<polygon fill="white" stroke="black" points="830,-99 830,-129 1012,-129 1012,-99 830,-99"/>
<text text-anchor="start" x="838" y="-117" font-family="Helvetica,sans-Serif" font-size="10.00">turtle.draw.TransitionFactory.create</text>
<text text-anchor="middle" x="921" y="-106" font-family="Helvetica,sans-Serif" font-size="10.00">ForwardTransition</text>
</a>
</g>
</g>
<!-- Node15&#45;&gt;Node16 -->
<g id="edge19" class="edge"><title>Node15&#45;&gt;Node16</title>
<path fill="none" stroke="midnightblue" d="M796.188,-129.185C807.339,-127.817 818.761,-126.416 829.941,-125.045"/>
<polygon fill="midnightblue" stroke="midnightblue" points="795.537,-125.738 786.038,-130.429 796.39,-132.686 795.537,-125.738"/>
</g>
<!-- Node17 -->
<g id="node17" class="node"><title>Node17</title>
<g id="a_node17"><a xlink:href="../../dc/d3e/classturtle_1_1draw_1_1_transition_factory.html#adb38be68a00bde2421dbdf0d55a93e54" target="_top" xlink:title="turtle.draw.TransitionFactory.create\lTurtleTransition">
<polygon fill="white" stroke="black" points="1048,-99 1048,-129 1230,-129 1230,-99 1048,-99"/>
<text text-anchor="start" x="1056" y="-117" font-family="Helvetica,sans-Serif" font-size="10.00">turtle.draw.TransitionFactory.create</text>
<text text-anchor="middle" x="1139" y="-106" font-family="Helvetica,sans-Serif" font-size="10.00">TurtleTransition</text>
</a>
</g>
</g>
<!-- Node16&#45;&gt;Node17 -->
<g id="edge20" class="edge"><title>Node16&#45;&gt;Node17</title>
<path fill="none" stroke="midnightblue" d="M1022.06,-114C1030.63,-114 1039.27,-114 1047.76,-114"/>
<polygon fill="midnightblue" stroke="midnightblue" points="1022.04,-110.5 1012.04,-114 1022.04,-117.5 1022.04,-110.5"/>
</g>
<!-- Node18 -->
<g id="node18" class="node"><title>Node18</title>
<g id="a_node18"><a xlink:href="../../dc/d3e/classturtle_1_1draw_1_1_transition_factory.html#a31b362130278174931595c1ce68c7ff5" target="_top" xlink:title="turtle.draw.TransitionFactory.create\lAnimation">
<polygon fill="white" stroke="black" points="1266,-99 1266,-129 1448,-129 1448,-99 1266,-99"/>
<text text-anchor="start" x="1274" y="-117" font-family="Helvetica,sans-Serif" font-size="10.00">turtle.draw.TransitionFactory.create</text>
<text text-anchor="middle" x="1357" y="-106" font-family="Helvetica,sans-Serif" font-size="10.00">Animation</text>
</a>
</g>
</g>
<!-- Node17&#45;&gt;Node18 -->
<g id="edge21" class="edge"><title>Node17&#45;&gt;Node18</title>
<path fill="none" stroke="midnightblue" d="M1240.06,-114C1248.63,-114 1257.27,-114 1265.76,-114"/>
<polygon fill="midnightblue" stroke="midnightblue" points="1240.04,-110.5 1230.04,-114 1240.04,-117.5 1240.04,-110.5"/>
</g>
<!-- Node19 -->
<g id="node19" class="node"><title>Node19</title>
<g id="a_node19"><a xlink:href="../../df/dcb/classturtle_1_1_turtle.html#a72a5d11b319fe2819a646569d5034557" target="_top" xlink:title="turtle.Turtle.createAnimation">
<polygon fill="white" stroke="black" points="1484.5,-104.5 1484.5,-123.5 1637.5,-123.5 1637.5,-104.5 1484.5,-104.5"/>
<text text-anchor="middle" x="1561" y="-111.5" font-family="Helvetica,sans-Serif" font-size="10.00">turtle.Turtle.createAnimation</text>
</a>
</g>
</g>
<!-- Node18&#45;&gt;Node19 -->
<g id="edge22" class="edge"><title>Node18&#45;&gt;Node19</title>
<path fill="none" stroke="midnightblue" d="M1458.31,-114C1467.06,-114 1475.8,-114 1484.3,-114"/>
<polygon fill="midnightblue" stroke="midnightblue" points="1458.07,-110.5 1448.07,-114 1458.07,-117.5 1458.07,-110.5"/>
</g>
<!-- Node22 -->
<g id="node22" class="node"><title>Node22</title>
<g id="a_node22"><a xlink:href="../../d8/dde/classturtle_1_1draw_1_1_pen_transition.html#ae8155506993774930ffd88f222ee7398" target="_top" xlink:title="turtle.draw.PenTransition.createLine">
<polygon fill="white" stroke="black" points="391,-46.5 391,-65.5 577,-65.5 577,-46.5 391,-46.5"/>
<text text-anchor="middle" x="484" y="-53.5" font-family="Helvetica,sans-Serif" font-size="10.00">turtle.draw.PenTransition.createLine</text>
</a>
</g>
</g>
<!-- Node21&#45;&gt;Node22 -->
<g id="edge25" class="edge"><title>Node21&#45;&gt;Node22</title>
<path fill="none" stroke="midnightblue" d="M335.819,-54.7312C353.764,-54.8859 372.785,-55.0499 390.982,-55.2067"/>
<polygon fill="midnightblue" stroke="midnightblue" points="335.713,-51.2303 325.683,-54.6438 335.653,-58.23 335.713,-51.2303"/>
</g>
<!-- Node24 -->
<g id="node24" class="node"><title>Node24</title>
<g id="a_node24"><a xlink:href="../../d8/dde/classturtle_1_1draw_1_1_pen_transition.html#a7eaf834f0b2189acc2f53ca8f561b07d" target="_top" xlink:title="turtle.draw.PenTransition.perform\lWrappingChanges">
<polygon fill="white" stroke="black" points="620,-17 620,-47 794,-47 794,-17 620,-17"/>
<text text-anchor="start" x="628" y="-35" font-family="Helvetica,sans-Serif" font-size="10.00">turtle.draw.PenTransition.perform</text>
<text text-anchor="middle" x="707" y="-24" font-family="Helvetica,sans-Serif" font-size="10.00">WrappingChanges</text>
</a>
</g>
</g>
<!-- Node21&#45;&gt;Node24 -->
<g id="edge29" class="edge"><title>Node21&#45;&gt;Node24</title>
<path fill="none" stroke="midnightblue" d="M336.103,-41.6891C351.991,-39.7984 368.477,-38.1091 384,-37 463.747,-31.3021 554.875,-30.4097 619.785,-30.732"/>
<polygon fill="midnightblue" stroke="midnightblue" points="335.265,-38.2655 325.766,-42.9566 336.117,-45.2135 335.265,-38.2655"/>
</g>
<!-- Node23 -->
<g id="node23" class="node"><title>Node23</title>
<g id="a_node23"><a xlink:href="../../d8/dde/classturtle_1_1draw_1_1_pen_transition.html#aa0a682d77c6f7e56adb8a7cad589a140" target="_top" xlink:title="turtle.draw.PenTransition.set\lDistance">
<polygon fill="white" stroke="black" points="631.5,-73 631.5,-103 782.5,-103 782.5,-73 631.5,-73"/>
<text text-anchor="start" x="639.5" y="-91" font-family="Helvetica,sans-Serif" font-size="10.00">turtle.draw.PenTransition.set</text>
<text text-anchor="middle" x="707" y="-80" font-family="Helvetica,sans-Serif" font-size="10.00">Distance</text>
</a>
</g>
</g>
<!-- Node22&#45;&gt;Node23 -->
<g id="edge26" class="edge"><title>Node22&#45;&gt;Node23</title>
<path fill="none" stroke="midnightblue" d="M560.674,-66.9574C583.481,-70.2597 608.492,-73.8812 631.238,-77.1748"/>
<polygon fill="midnightblue" stroke="midnightblue" points="561.107,-63.4836 550.709,-65.5144 560.104,-70.4114 561.107,-63.4836"/>
</g>
<!-- Node22&#45;&gt;Node24 -->
<g id="edge28" class="edge"><title>Node22&#45;&gt;Node24</title>
<path fill="none" stroke="midnightblue" d="M582.941,-45.3638C595.253,-44.0268 607.776,-42.6668 619.888,-41.3516"/>
<polygon fill="midnightblue" stroke="midnightblue" points="582.226,-41.9208 572.662,-46.4801 582.982,-48.8799 582.226,-41.9208"/>
</g>
<!-- Node23&#45;&gt;Node16 -->
<g id="edge27" class="edge"><title>Node23&#45;&gt;Node16</title>
<path fill="none" stroke="midnightblue" d="M792.878,-98.4096C805.07,-99.9049 817.651,-101.448 829.939,-102.955"/>
<polygon fill="midnightblue" stroke="midnightblue" points="793.095,-94.91 782.743,-97.1666 792.243,-101.858 793.095,-94.91"/>
</g>
</g>
</svg>
