<?xml version="1.0" encoding="UTF-8" standalone="no"?>
<!DOCTYPE svg PUBLIC "-//W3C//DTD SVG 1.1//EN"
 "http://www.w3.org/Graphics/SVG/1.1/DTD/svg11.dtd">
<!-- Generated by graphviz version 2.36.0 (20140111.2315)
 -->
<!-- Title: turtle.Turtle.updateVisualState Pages: 1 -->
<svg width="530pt" height="214pt"
 viewBox="0.00 0.00 530.00 214.00" xmlns="http://www.w3.org/2000/svg" xmlns:xlink="http://www.w3.org/1999/xlink">
<g id="graph0" class="graph" transform="scale(1 1) rotate(0) translate(4 210)">
<title>turtle.Turtle.updateVisualState</title>
<polygon fill="white" stroke="none" points="-4,4 -4,-210 526,-210 526,4 -4,4"/>
<!-- Node1 -->
<g id="node1" class="node"><title>Node1</title>
<polygon fill="#bfbfbf" stroke="black" points="0,-83 0,-113 136,-113 136,-83 0,-83"/>
<text text-anchor="start" x="8" y="-101" font-family="Helvetica,sans-Serif" font-size="10.00">turtle.Turtle.updateVisual</text>
<text text-anchor="middle" x="68" y="-90" font-family="Helvetica,sans-Serif" font-size="10.00">State</text>
</g>
<!-- Node2 -->
<g id="node2" class="node"><title>Node2</title>
<g id="a_node2"><a xlink:href="../../d0/dce/classtransitionstate_1_1_transition_state.html#ab51672ddfecc15b6a4abf25362625c53" target="_top" xlink:title="transitionstate.Transition\lState.getPenChange">
<polygon fill="white" stroke="black" points="193,-176 193,-206 327,-206 327,-176 193,-176"/>
<text text-anchor="start" x="201" y="-194" font-family="Helvetica,sans-Serif" font-size="10.00">transitionstate.Transition</text>
<text text-anchor="middle" x="260" y="-183" font-family="Helvetica,sans-Serif" font-size="10.00">State.getPenChange</text>
</a>
</g>
</g>
<!-- Node1&#45;&gt;Node2 -->
<g id="edge1" class="edge"><title>Node1&#45;&gt;Node2</title>
<path fill="none" stroke="midnightblue" d="M88.0803,-113.18C108.006,-128.392 140.666,-151.567 172,-166 177.212,-168.401 182.708,-170.626 188.299,-172.675"/>
<polygon fill="midnightblue" stroke="midnightblue" points="187.173,-175.989 197.768,-175.96 189.467,-169.376 187.173,-175.989"/>
</g>
<!-- Node3 -->
<g id="node3" class="node"><title>Node3</title>
<g id="a_node3"><a xlink:href="../../d0/dce/classtransitionstate_1_1_transition_state.html#aa7fbf8e1c635fcfab8abdc3944db35af" target="_top" xlink:title="transitionstate.Transition\lState.getVisibleChange">
<polygon fill="white" stroke="black" points="193,-127 193,-157 327,-157 327,-127 193,-127"/>
<text text-anchor="start" x="201" y="-145" font-family="Helvetica,sans-Serif" font-size="10.00">transitionstate.Transition</text>
<text text-anchor="middle" x="260" y="-134" font-family="Helvetica,sans-Serif" font-size="10.00">State.getVisibleChange</text>
</a>
</g>
</g>
<!-- Node1&#45;&gt;Node3 -->
<g id="edge2" class="edge"><title>Node1&#45;&gt;Node3</title>
<path fill="none" stroke="midnightblue" d="M133.856,-113.019C149.97,-116.751 167.374,-120.781 183.933,-124.616"/>
<polygon fill="midnightblue" stroke="midnightblue" points="183.582,-128.127 194.114,-126.974 185.162,-121.308 183.582,-128.127"/>
</g>
<!-- Node4 -->
<g id="node4" class="node"><title>Node4</title>
<g id="a_node4"><a xlink:href="../../dd/da0/classturtle_1_1draw_1_1_pen.html#adaf88ea81215149c382ba56b9c4894eb" target="_top" xlink:title="turtle.draw.Pen.update">
<polygon fill="white" stroke="black" points="197.5,-88.5 197.5,-107.5 322.5,-107.5 322.5,-88.5 197.5,-88.5"/>
<text text-anchor="middle" x="260" y="-95.5" font-family="Helvetica,sans-Serif" font-size="10.00">turtle.draw.Pen.update</text>
</a>
</g>
</g>
<!-- Node1&#45;&gt;Node4 -->
<g id="edge3" class="edge"><title>Node1&#45;&gt;Node4</title>
<path fill="none" stroke="midnightblue" d="M136.254,-98C152.697,-98 170.356,-98 187.011,-98"/>
<polygon fill="midnightblue" stroke="midnightblue" points="187.231,-101.5 197.231,-98 187.231,-94.5001 187.231,-101.5"/>
</g>
<!-- Node5 -->
<g id="node5" class="node"><title>Node5</title>
<g id="a_node5"><a xlink:href="../../d4/de5/classturtle_1_1_turtle_view_controller.html#a27ab1368e9369b701b2d49ede5b2aaab" target="_top" xlink:title="turtle.TurtleViewController.update\lVisible">
<polygon fill="white" stroke="black" points="172.5,-39 172.5,-69 347.5,-69 347.5,-39 172.5,-39"/>
<text text-anchor="start" x="180.5" y="-57" font-family="Helvetica,sans-Serif" font-size="10.00">turtle.TurtleViewController.update</text>
<text text-anchor="middle" x="260" y="-46" font-family="Helvetica,sans-Serif" font-size="10.00">Visible</text>
</a>
</g>
</g>
<!-- Node1&#45;&gt;Node5 -->
<g id="edge4" class="edge"><title>Node1&#45;&gt;Node5</title>
<path fill="none" stroke="midnightblue" d="M133.856,-82.9808C149.97,-79.2492 167.374,-75.2186 183.933,-71.384"/>
<polygon fill="midnightblue" stroke="midnightblue" points="185.162,-74.6921 194.114,-69.0262 183.582,-67.8726 185.162,-74.6921"/>
</g>
<!-- Node7 -->
<g id="node7" class="node"><title>Node7</title>
<g id="a_node7"><a xlink:href="../../df/dcb/classturtle_1_1_turtle.html#ae874771e2fd28fce250e1de7f9d9647d" target="_top" xlink:title="turtle.Turtle.updateVisible">
<polygon fill="white" stroke="black" points="191,-0.5 191,-19.5 329,-19.5 329,-0.5 191,-0.5"/>
<text text-anchor="middle" x="260" y="-7.5" font-family="Helvetica,sans-Serif" font-size="10.00">turtle.Turtle.updateVisible</text>
</a>
</g>
</g>
<!-- Node1&#45;&gt;Node7 -->
<g id="edge6" class="edge"><title>Node1&#45;&gt;Node7</title>
<path fill="none" stroke="midnightblue" d="M87.5569,-82.757C107.321,-67.2688 140.092,-43.6689 172,-30 178.934,-27.0297 186.376,-24.4659 193.882,-22.2614"/>
<polygon fill="midnightblue" stroke="midnightblue" points="195.025,-25.5774 203.75,-19.5663 193.181,-18.8247 195.025,-25.5774"/>
</g>
<!-- Node6 -->
<g id="node6" class="node"><title>Node6</title>
<g id="a_node6"><a xlink:href="../../d8/d9e/classturtle_1_1_turtle_image.html#a003d507b71fbc99ec5a1cb53aef1b2ab" target="_top" xlink:title="turtle.TurtleImage.update\lVisible">
<polygon fill="white" stroke="black" points="384.5,-39 384.5,-69 521.5,-69 521.5,-39 384.5,-39"/>
<text text-anchor="start" x="392.5" y="-57" font-family="Helvetica,sans-Serif" font-size="10.00">turtle.TurtleImage.update</text>
<text text-anchor="middle" x="453" y="-46" font-family="Helvetica,sans-Serif" font-size="10.00">Visible</text>
</a>
</g>
</g>
<!-- Node5&#45;&gt;Node6 -->
<g id="edge5" class="edge"><title>Node5&#45;&gt;Node6</title>
<path fill="none" stroke="midnightblue" d="M347.559,-54C356.426,-54 365.398,-54 374.164,-54"/>
<polygon fill="midnightblue" stroke="midnightblue" points="374.341,-57.5001 384.341,-54 374.341,-50.5001 374.341,-57.5001"/>
</g>
</g>
</svg>
