<?xml version="1.0" encoding="UTF-8" standalone="no"?>
<!DOCTYPE svg PUBLIC "-//W3C//DTD SVG 1.1//EN"
 "http://www.w3.org/Graphics/SVG/1.1/DTD/svg11.dtd">
<!-- Generated by graphviz version 2.36.0 (20140111.2315)
 -->
<!-- Title: turtle.TurtleImage Pages: 1 -->
<svg width="319pt" height="140pt"
 viewBox="0.00 0.00 319.00 140.00" xmlns="http://www.w3.org/2000/svg" xmlns:xlink="http://www.w3.org/1999/xlink">
<g id="graph0" class="graph" transform="scale(1 1) rotate(0) translate(4 136)">
<title>turtle.TurtleImage</title>
<polygon fill="white" stroke="none" points="-4,4 -4,-136 315,-136 315,4 -4,4"/>
<!-- Node1 -->
<g id="node1" class="node"><title>Node1</title>
<polygon fill="#bfbfbf" stroke="black" points="98.5,-56.5 98.5,-75.5 199.5,-75.5 199.5,-56.5 98.5,-56.5"/>
<text text-anchor="middle" x="149" y="-63.5" font-family="Helvetica,sans-Serif" font-size="10.00">turtle.TurtleImage</text>
</g>
<!-- Node3 -->
<g id="node3" class="node"><title>Node3</title>
<g id="a_node3"><a xlink:href="../../d2/d10/classturtle_1_1_default_turtle_image.html" target="_top" xlink:title="turtle.DefaultTurtleImage">
<polygon fill="white" stroke="black" points="-0.5,-0.5 -0.5,-19.5 134.5,-19.5 134.5,-0.5 -0.5,-0.5"/>
<text text-anchor="middle" x="67" y="-7.5" font-family="Helvetica,sans-Serif" font-size="10.00">turtle.DefaultTurtleImage</text>
</a>
</g>
</g>
<!-- Node1&#45;&gt;Node3 -->
<g id="edge2" class="edge"><title>Node1&#45;&gt;Node3</title>
<path fill="none" stroke="midnightblue" d="M127.167,-50.6221C112.187,-40.7574 92.8025,-27.9919 80.142,-19.6545"/>
<polygon fill="midnightblue" stroke="midnightblue" points="125.549,-53.7471 135.825,-56.324 129.399,-47.9009 125.549,-53.7471"/>
</g>
<!-- Node4 -->
<g id="node4" class="node"><title>Node4</title>
<g id="a_node4"><a xlink:href="../../d7/da7/classturtle_1_1_user_chosen_turtle_image.html" target="_top" xlink:title="turtle.UserChosenTurtleImage">
<polygon fill="white" stroke="black" points="152.5,-0.5 152.5,-19.5 311.5,-19.5 311.5,-0.5 152.5,-0.5"/>
<text text-anchor="middle" x="232" y="-7.5" font-family="Helvetica,sans-Serif" font-size="10.00">turtle.UserChosenTurtleImage</text>
</a>
</g>
</g>
<!-- Node1&#45;&gt;Node4 -->
<g id="edge3" class="edge"><title>Node1&#45;&gt;Node4</title>
<path fill="none" stroke="midnightblue" d="M171.099,-50.6221C186.262,-40.7574 205.883,-27.9919 218.698,-19.6545"/>
<polygon fill="midnightblue" stroke="midnightblue" points="168.809,-47.9367 162.335,-56.324 172.626,-53.8042 168.809,-47.9367"/>
</g>
<!-- Node2 -->
<g id="node2" class="node"><title>Node2</title>
<polygon fill="white" stroke="#bfbfbf" points="126,-112.5 126,-131.5 172,-131.5 172,-112.5 126,-112.5"/>
<text text-anchor="middle" x="149" y="-119.5" font-family="Helvetica,sans-Serif" font-size="10.00">Group</text>
</g>
<!-- Node2&#45;&gt;Node1 -->
<g id="edge1" class="edge"><title>Node2&#45;&gt;Node1</title>
<path fill="none" stroke="midnightblue" d="M149,-101.805C149,-92.9102 149,-82.7798 149,-75.7511"/>
<polygon fill="midnightblue" stroke="midnightblue" points="145.5,-102.083 149,-112.083 152.5,-102.083 145.5,-102.083"/>
</g>
</g>
</svg>
