<?xml version="1.0" encoding="UTF-8" standalone="no"?>
<!DOCTYPE svg PUBLIC "-//W3C//DTD SVG 1.1//EN"
 "http://www.w3.org/Graphics/SVG/1.1/DTD/svg11.dtd">
<!-- Generated by graphviz version 2.36.0 (20140111.2315)
 -->
<!-- Title: viewcontroller.commands.CommandPromptViewController.CommandPromptViewController Pages: 1 -->
<svg width="3074pt" height="398pt"
 viewBox="0.00 0.00 3074.00 398.00" xmlns="http://www.w3.org/2000/svg" xmlns:xlink="http://www.w3.org/1999/xlink">
<g id="graph0" class="graph" transform="scale(1 1) rotate(0) translate(4 394)">
<title>viewcontroller.commands.CommandPromptViewController.CommandPromptViewController</title>
<polygon fill="white" stroke="none" points="-4,4 -4,-394 3070,-394 3070,4 -4,4"/>
<!-- Node1 -->
<g id="node1" class="node"><title>Node1</title>
<polygon fill="#bfbfbf" stroke="black" points="0.5,-166.5 0.5,-207.5 173.5,-207.5 173.5,-166.5 0.5,-166.5"/>
<text text-anchor="start" x="8.5" y="-195.5" font-family="Helvetica,sans-Serif" font-size="10.00">viewcontroller.commands.</text>
<text text-anchor="start" x="8.5" y="-184.5" font-family="Helvetica,sans-Serif" font-size="10.00">CommandPromptViewController.</text>
<text text-anchor="middle" x="87" y="-173.5" font-family="Helvetica,sans-Serif" font-size="10.00">CommandPromptViewController</text>
</g>
<!-- Node2 -->
<g id="node2" class="node"><title>Node2</title>
<g id="a_node2"><a xlink:href="../../de/d8d/classviewcontroller_1_1commands_1_1_command_prompt_view_controller.html#a3f0665f0e71c9fa44420fd5a18fe1756" target="_top" xlink:title="viewcontroller.commands.\lCommandPromptViewController.apply\lTranslations">
<polygon fill="white" stroke="black" points="215,-220.5 215,-261.5 413,-261.5 413,-220.5 215,-220.5"/>
<text text-anchor="start" x="223" y="-249.5" font-family="Helvetica,sans-Serif" font-size="10.00">viewcontroller.commands.</text>
<text text-anchor="start" x="223" y="-238.5" font-family="Helvetica,sans-Serif" font-size="10.00">CommandPromptViewController.apply</text>
<text text-anchor="middle" x="314" y="-227.5" font-family="Helvetica,sans-Serif" font-size="10.00">Translations</text>
</a>
</g>
</g>
<!-- Node1&#45;&gt;Node2 -->
<g id="edge1" class="edge"><title>Node1&#45;&gt;Node2</title>
<path fill="none" stroke="midnightblue" d="M173.705,-207.569C188.033,-211.008 202.977,-214.595 217.532,-218.088"/>
<polygon fill="midnightblue" stroke="midnightblue" points="216.993,-221.558 227.534,-220.488 218.627,-214.751 216.993,-221.558"/>
</g>
<!-- Node4 -->
<g id="node4" class="node"><title>Node4</title>
<g id="a_node4"><a xlink:href="../../d8/d68/classviewcontroller_1_1commands_1_1_command_window_view_controller.html#a62c54d52ea3c2f55be0a741a1c5fb240" target="_top" xlink:title="viewcontroller.commands.\lCommandWindowViewController.setTitle">
<polygon fill="white" stroke="black" points="210.5,-172 210.5,-202 417.5,-202 417.5,-172 210.5,-172"/>
<text text-anchor="start" x="218.5" y="-190" font-family="Helvetica,sans-Serif" font-size="10.00">viewcontroller.commands.</text>
<text text-anchor="middle" x="314" y="-179" font-family="Helvetica,sans-Serif" font-size="10.00">CommandWindowViewController.setTitle</text>
</a>
</g>
</g>
<!-- Node1&#45;&gt;Node4 -->
<g id="edge3" class="edge"><title>Node1&#45;&gt;Node4</title>
<path fill="none" stroke="midnightblue" d="M173.705,-187C182.367,-187 191.254,-187 200.144,-187"/>
<polygon fill="midnightblue" stroke="midnightblue" points="200.171,-190.5 210.171,-187 200.171,-183.5 200.171,-190.5"/>
</g>
<!-- Node5 -->
<g id="node5" class="node"><title>Node5</title>
<g id="a_node5"><a xlink:href="../../de/d8d/classviewcontroller_1_1commands_1_1_command_prompt_view_controller.html#a6931239ae66e9bb6ebfa794b7dada7b5" target="_top" xlink:title="viewcontroller.commands.\lCommandPromptViewController.set\lUpCommandPromptHorizontalBox">
<polygon fill="white" stroke="black" points="220,-112.5 220,-153.5 408,-153.5 408,-112.5 220,-112.5"/>
<text text-anchor="start" x="228" y="-141.5" font-family="Helvetica,sans-Serif" font-size="10.00">viewcontroller.commands.</text>
<text text-anchor="start" x="228" y="-130.5" font-family="Helvetica,sans-Serif" font-size="10.00">CommandPromptViewController.set</text>
<text text-anchor="middle" x="314" y="-119.5" font-family="Helvetica,sans-Serif" font-size="10.00">UpCommandPromptHorizontalBox</text>
</a>
</g>
</g>
<!-- Node1&#45;&gt;Node5 -->
<g id="edge4" class="edge"><title>Node1&#45;&gt;Node5</title>
<path fill="none" stroke="midnightblue" d="M173.705,-166.431C188.033,-162.992 202.977,-159.405 217.532,-155.912"/>
<polygon fill="midnightblue" stroke="midnightblue" points="218.627,-159.249 227.534,-153.512 216.993,-152.442 218.627,-159.249"/>
</g>
<!-- Node3 -->
<g id="node3" class="node"><title>Node3</title>
<g id="a_node3"><a xlink:href="../../d9/dd7/classviewcontroller_1_1_g_u_i_reference_library.html#ac147f33c0bfa0252d247d7c0174ff688" target="_top" xlink:title="viewcontroller.GUIReference\lLibrary.getStringTranslation">
<polygon fill="white" stroke="black" points="473.5,-226 473.5,-256 622.5,-256 622.5,-226 473.5,-226"/>
<text text-anchor="start" x="481.5" y="-244" font-family="Helvetica,sans-Serif" font-size="10.00">viewcontroller.GUIReference</text>
<text text-anchor="middle" x="548" y="-233" font-family="Helvetica,sans-Serif" font-size="10.00">Library.getStringTranslation</text>
</a>
</g>
</g>
<!-- Node2&#45;&gt;Node3 -->
<g id="edge2" class="edge"><title>Node2&#45;&gt;Node3</title>
<path fill="none" stroke="midnightblue" d="M413.053,-241C429.746,-241 446.947,-241 463.229,-241"/>
<polygon fill="midnightblue" stroke="midnightblue" points="463.235,-244.5 473.234,-241 463.234,-237.5 463.235,-244.5"/>
</g>
<!-- Node6 -->
<g id="node6" class="node"><title>Node6</title>
<g id="a_node6"><a xlink:href="../../de/d8d/classviewcontroller_1_1commands_1_1_command_prompt_view_controller.html#ac3d5e7c8e756a748c20677a99e805507" target="_top" xlink:title="viewcontroller.commands.\lCommandPromptViewController.set\lUpCommandPrompt">
<polygon fill="white" stroke="black" points="454,-79.5 454,-120.5 642,-120.5 642,-79.5 454,-79.5"/>
<text text-anchor="start" x="462" y="-108.5" font-family="Helvetica,sans-Serif" font-size="10.00">viewcontroller.commands.</text>
<text text-anchor="start" x="462" y="-97.5" font-family="Helvetica,sans-Serif" font-size="10.00">CommandPromptViewController.set</text>
<text text-anchor="middle" x="548" y="-86.5" font-family="Helvetica,sans-Serif" font-size="10.00">UpCommandPrompt</text>
</a>
</g>
</g>
<!-- Node5&#45;&gt;Node6 -->
<g id="edge5" class="edge"><title>Node5&#45;&gt;Node6</title>
<path fill="none" stroke="midnightblue" d="M408.027,-119.768C419.845,-118.087 431.995,-116.359 443.958,-114.657"/>
<polygon fill="midnightblue" stroke="midnightblue" points="444.545,-118.109 453.953,-113.235 443.559,-111.178 444.545,-118.109"/>
</g>
<!-- Node7 -->
<g id="node7" class="node"><title>Node7</title>
<g id="a_node7"><a xlink:href="../../de/d8d/classviewcontroller_1_1commands_1_1_command_prompt_view_controller.html#a02e953379b9b8de02a4e15d94fe1c559" target="_top" xlink:title="viewcontroller.commands.\lCommandPromptViewController.set\lUpSubmitButton">
<polygon fill="white" stroke="black" points="454,-139.5 454,-180.5 642,-180.5 642,-139.5 454,-139.5"/>
<text text-anchor="start" x="462" y="-168.5" font-family="Helvetica,sans-Serif" font-size="10.00">viewcontroller.commands.</text>
<text text-anchor="start" x="462" y="-157.5" font-family="Helvetica,sans-Serif" font-size="10.00">CommandPromptViewController.set</text>
<text text-anchor="middle" x="548" y="-146.5" font-family="Helvetica,sans-Serif" font-size="10.00">UpSubmitButton</text>
</a>
</g>
</g>
<!-- Node5&#45;&gt;Node7 -->
<g id="edge6" class="edge"><title>Node5&#45;&gt;Node7</title>
<path fill="none" stroke="midnightblue" d="M408.027,-143.826C419.845,-145.202 431.995,-146.616 443.958,-148.008"/>
<polygon fill="midnightblue" stroke="midnightblue" points="443.615,-151.492 453.953,-149.171 444.424,-144.539 443.615,-151.492"/>
</g>
<!-- Node8 -->
<g id="node8" class="node"><title>Node8</title>
<g id="a_node8"><a xlink:href="../../de/d8d/classviewcontroller_1_1commands_1_1_command_prompt_view_controller.html#afc397f419037ca0ec30bdc6e93667e86" target="_top" xlink:title="viewcontroller.commands.\lCommandPromptViewController.pass\lCommandToModel">
<polygon fill="white" stroke="black" points="678.5,-139.5 678.5,-180.5 873.5,-180.5 873.5,-139.5 678.5,-139.5"/>
<text text-anchor="start" x="686.5" y="-168.5" font-family="Helvetica,sans-Serif" font-size="10.00">viewcontroller.commands.</text>
<text text-anchor="start" x="686.5" y="-157.5" font-family="Helvetica,sans-Serif" font-size="10.00">CommandPromptViewController.pass</text>
<text text-anchor="middle" x="776" y="-146.5" font-family="Helvetica,sans-Serif" font-size="10.00">CommandToModel</text>
</a>
</g>
</g>
<!-- Node7&#45;&gt;Node8 -->
<g id="edge7" class="edge"><title>Node7&#45;&gt;Node8</title>
<path fill="none" stroke="midnightblue" d="M642.228,-160C650.792,-160 659.513,-160 668.185,-160"/>
<polygon fill="midnightblue" stroke="midnightblue" points="668.331,-163.5 678.331,-160 668.331,-156.5 668.331,-163.5"/>
</g>
<!-- Node9 -->
<g id="node9" class="node"><title>Node9</title>
<g id="a_node9"><a xlink:href="../../d0/d7c/classviewcontroller_1_1commands_1_1_command_window_container_view_controller.html#a0d7c2e3db2080741b7b01b42a0294695" target="_top" xlink:title="viewcontroller.commands.\lCommandWindowContainerViewController.pass\lSLogoCommand">
<polygon fill="white" stroke="black" points="910,-139.5 910,-180.5 1152,-180.5 1152,-139.5 910,-139.5"/>
<text text-anchor="start" x="918" y="-168.5" font-family="Helvetica,sans-Serif" font-size="10.00">viewcontroller.commands.</text>
<text text-anchor="start" x="918" y="-157.5" font-family="Helvetica,sans-Serif" font-size="10.00">CommandWindowContainerViewController.pass</text>
<text text-anchor="middle" x="1031" y="-146.5" font-family="Helvetica,sans-Serif" font-size="10.00">SLogoCommand</text>
</a>
</g>
</g>
<!-- Node8&#45;&gt;Node9 -->
<g id="edge8" class="edge"><title>Node8&#45;&gt;Node9</title>
<path fill="none" stroke="midnightblue" d="M873.731,-160C882.254,-160 890.967,-160 899.705,-160"/>
<polygon fill="midnightblue" stroke="midnightblue" points="899.964,-163.5 909.964,-160 899.964,-156.5 899.964,-163.5"/>
</g>
<!-- Node10 -->
<g id="node10" class="node"><title>Node10</title>
<g id="a_node10"><a xlink:href="../../d3/d67/classviewcontroller_1_1_main_view_controller.html#a1b77a34d9385ff9296a9dc1db8c322cb" target="_top" xlink:title="viewcontroller.MainViewController.pass\lSLogoCommand">
<polygon fill="white" stroke="black" points="1188,-145 1188,-175 1388,-175 1388,-145 1188,-145"/>
<text text-anchor="start" x="1196" y="-163" font-family="Helvetica,sans-Serif" font-size="10.00">viewcontroller.MainViewController.pass</text>
<text text-anchor="middle" x="1288" y="-152" font-family="Helvetica,sans-Serif" font-size="10.00">SLogoCommand</text>
</a>
</g>
</g>
<!-- Node9&#45;&gt;Node10 -->
<g id="edge9" class="edge"><title>Node9&#45;&gt;Node10</title>
<path fill="none" stroke="midnightblue" d="M1152.03,-160C1160.57,-160 1169.16,-160 1177.64,-160"/>
<polygon fill="midnightblue" stroke="midnightblue" points="1177.91,-163.5 1187.91,-160 1177.91,-156.5 1177.91,-163.5"/>
</g>
<!-- Node11 -->
<g id="node11" class="node"><title>Node11</title>
<g id="a_node11"><a xlink:href="../../de/d21/classmodel_1_1_main_model.html#a96f4ff9f640f14d713c5d90ab5704884" target="_top" xlink:title="model.MainModel.interpret\lSLogoCommand">
<polygon fill="white" stroke="black" points="1424.5,-145 1424.5,-175 1569.5,-175 1569.5,-145 1424.5,-145"/>
<text text-anchor="start" x="1432.5" y="-163" font-family="Helvetica,sans-Serif" font-size="10.00">model.MainModel.interpret</text>
<text text-anchor="middle" x="1497" y="-152" font-family="Helvetica,sans-Serif" font-size="10.00">SLogoCommand</text>
</a>
</g>
</g>
<!-- Node10&#45;&gt;Node11 -->
<g id="edge10" class="edge"><title>Node10&#45;&gt;Node11</title>
<path fill="none" stroke="midnightblue" d="M1388.26,-160C1396.89,-160 1405.56,-160 1414.03,-160"/>
<polygon fill="midnightblue" stroke="midnightblue" points="1414.24,-163.5 1424.24,-160 1414.24,-156.5 1414.24,-163.5"/>
</g>
<!-- Node12 -->
<g id="node12" class="node"><title>Node12</title>
<g id="a_node12"><a xlink:href="../../db/d84/classmodel_1_1_command_history_model.html#a4587f5bb0678f50bfc8bc918d2f28241" target="_top" xlink:title="model.CommandHistoryModel.add\lCommand">
<polygon fill="white" stroke="black" points="1606.5,-238 1606.5,-268 1789.5,-268 1789.5,-238 1606.5,-238"/>
<text text-anchor="start" x="1614.5" y="-256" font-family="Helvetica,sans-Serif" font-size="10.00">model.CommandHistoryModel.add</text>
<text text-anchor="middle" x="1698" y="-245" font-family="Helvetica,sans-Serif" font-size="10.00">Command</text>
</a>
</g>
</g>
<!-- Node11&#45;&gt;Node12 -->
<g id="edge11" class="edge"><title>Node11&#45;&gt;Node12</title>
<path fill="none" stroke="midnightblue" d="M1518.09,-175.201C1539.06,-190.429 1573.36,-213.617 1606,-228 1611.47,-230.412 1617.24,-232.645 1623.1,-234.7"/>
<polygon fill="midnightblue" stroke="midnightblue" points="1622.42,-238.164 1633.02,-237.992 1624.63,-231.52 1622.42,-238.164"/>
</g>
<!-- Node13 -->
<g id="node13" class="node"><title>Node13</title>
<g id="a_node13"><a xlink:href="../../df/df6/classinterpreter_1_1result_1_1_s_logo_result.html#a6047e8ac53bae47b06b7f8daee701c43" target="_top" xlink:title="interpreter.result.SLogo\lResult.getHasError">
<polygon fill="white" stroke="black" points="1633,-189 1633,-219 1763,-219 1763,-189 1633,-189"/>
<text text-anchor="start" x="1641" y="-207" font-family="Helvetica,sans-Serif" font-size="10.00">interpreter.result.SLogo</text>
<text text-anchor="middle" x="1698" y="-196" font-family="Helvetica,sans-Serif" font-size="10.00">Result.getHasError</text>
</a>
</g>
</g>
<!-- Node11&#45;&gt;Node13 -->
<g id="edge12" class="edge"><title>Node11&#45;&gt;Node13</title>
<path fill="none" stroke="midnightblue" d="M1565.93,-175.019C1584.25,-179.071 1604.17,-183.475 1622.82,-187.598"/>
<polygon fill="midnightblue" stroke="midnightblue" points="1622.21,-191.049 1632.73,-189.79 1623.73,-184.214 1622.21,-191.049"/>
</g>
<!-- Node14 -->
<g id="node14" class="node"><title>Node14</title>
<g id="a_node14"><a xlink:href="../../d2/dc7/classinterpreter_1_1_interpreter.html#a2398aed9ce5fd0631e4a61eb0ae7e3eb" target="_top" xlink:title="interpreter.Interpreter.interpret">
<polygon fill="white" stroke="black" points="1616,-150.5 1616,-169.5 1780,-169.5 1780,-150.5 1616,-150.5"/>
<text text-anchor="middle" x="1698" y="-157.5" font-family="Helvetica,sans-Serif" font-size="10.00">interpreter.Interpreter.interpret</text>
</a>
</g>
</g>
<!-- Node11&#45;&gt;Node14 -->
<g id="edge13" class="edge"><title>Node11&#45;&gt;Node14</title>
<path fill="none" stroke="midnightblue" d="M1569.56,-160C1581.31,-160 1593.63,-160 1605.78,-160"/>
<polygon fill="midnightblue" stroke="midnightblue" points="1605.94,-163.5 1615.94,-160 1605.94,-156.5 1605.94,-163.5"/>
</g>
<!-- Node35 -->
<g id="node35" class="node"><title>Node35</title>
<g id="a_node35"><a xlink:href="../../de/d21/classmodel_1_1_main_model.html#a81fd23aa152cf9311abb569fa3c656fb" target="_top" xlink:title="model.MainModel.notifyObservers">
<polygon fill="white" stroke="black" points="1608.5,-112.5 1608.5,-131.5 1787.5,-131.5 1787.5,-112.5 1608.5,-112.5"/>
<text text-anchor="middle" x="1698" y="-119.5" font-family="Helvetica,sans-Serif" font-size="10.00">model.MainModel.notifyObservers</text>
</a>
</g>
</g>
<!-- Node11&#45;&gt;Node35 -->
<g id="edge34" class="edge"><title>Node11&#45;&gt;Node35</title>
<path fill="none" stroke="midnightblue" d="M1569.56,-146.335C1591.78,-142.092 1616.03,-137.462 1637.35,-133.391"/>
<polygon fill="midnightblue" stroke="midnightblue" points="1638.07,-136.816 1647.24,-131.503 1636.76,-129.94 1638.07,-136.816"/>
</g>
<!-- Node36 -->
<g id="node36" class="node"><title>Node36</title>
<g id="a_node36"><a xlink:href="../../de/d21/classmodel_1_1_main_model.html#a1863b9ce1cc6b16b0e03dbfc73f51314" target="_top" xlink:title="model.MainModel.updateModel">
<polygon fill="white" stroke="black" points="1615,-61.5 1615,-80.5 1781,-80.5 1781,-61.5 1615,-61.5"/>
<text text-anchor="middle" x="1698" y="-68.5" font-family="Helvetica,sans-Serif" font-size="10.00">model.MainModel.updateModel</text>
</a>
</g>
</g>
<!-- Node11&#45;&gt;Node36 -->
<g id="edge35" class="edge"><title>Node11&#45;&gt;Node36</title>
<path fill="none" stroke="midnightblue" d="M1524.09,-144.832C1545.64,-132.65 1577.25,-115.562 1606,-103 1622.27,-95.8933 1640.66,-89.1856 1656.64,-83.7648"/>
<polygon fill="midnightblue" stroke="midnightblue" points="1657.85,-87.0492 1666.23,-80.5638 1655.64,-80.4091 1657.85,-87.0492"/>
</g>
<!-- Node15 -->
<g id="node15" class="node"><title>Node15</title>
<g id="a_node15"><a xlink:href="../../da/de4/classinterpreter_1_1_expression_evaluator.html#a349369ee222f83e4370c70b449844139" target="_top" xlink:title="interpreter.ExpressionEvaluator.evaluate\lExpressionsAndMerge">
<polygon fill="white" stroke="black" points="1826,-145 1826,-175 2036,-175 2036,-145 1826,-145"/>
<text text-anchor="start" x="1834" y="-163" font-family="Helvetica,sans-Serif" font-size="10.00">interpreter.ExpressionEvaluator.evaluate</text>
<text text-anchor="middle" x="1931" y="-152" font-family="Helvetica,sans-Serif" font-size="10.00">ExpressionsAndMerge</text>
</a>
</g>
</g>
<!-- Node14&#45;&gt;Node15 -->
<g id="edge14" class="edge"><title>Node14&#45;&gt;Node15</title>
<path fill="none" stroke="midnightblue" d="M1780.12,-160C1791.7,-160 1803.78,-160 1815.85,-160"/>
<polygon fill="midnightblue" stroke="midnightblue" points="1815.97,-163.5 1825.97,-160 1815.97,-156.5 1815.97,-163.5"/>
</g>
<!-- Node21 -->
<g id="node21" class="node"><title>Node21</title>
<g id="a_node21"><a xlink:href="../../d3/da2/classinterpreter_1_1_parser.html#a27e67bfe24e33d6ac58aa3b482cd0f07" target="_top" xlink:title="interpreter.Parser.parse\lSLogoExpression">
<polygon fill="white" stroke="black" points="1866.5,-262 1866.5,-292 1995.5,-292 1995.5,-262 1866.5,-262"/>
<text text-anchor="start" x="1874.5" y="-280" font-family="Helvetica,sans-Serif" font-size="10.00">interpreter.Parser.parse</text>
<text text-anchor="middle" x="1931" y="-269" font-family="Helvetica,sans-Serif" font-size="10.00">SLogoExpression</text>
</a>
</g>
</g>
<!-- Node14&#45;&gt;Node21 -->
<g id="edge20" class="edge"><title>Node14&#45;&gt;Node21</title>
<path fill="none" stroke="midnightblue" d="M1758.32,-169.525C1769.1,-172.235 1780.07,-175.669 1790,-180 1833.97,-199.17 1878.43,-232.994 1905.1,-255.203"/>
<polygon fill="midnightblue" stroke="midnightblue" points="1902.89,-257.916 1912.79,-261.694 1907.41,-252.568 1902.89,-257.916"/>
</g>
<!-- Node16 -->
<g id="node16" class="node"><title>Node16</title>
<g id="a_node16"><a xlink:href="../../d6/d76/classinterpreter_1_1_s_logo_result_merger.html#a706aced67e4d219faa11f9821fef9000" target="_top" xlink:title="interpreter.SLogoResultMerger.append">
<polygon fill="white" stroke="black" points="2072,-125.5 2072,-144.5 2272,-144.5 2272,-125.5 2072,-125.5"/>
<text text-anchor="middle" x="2172" y="-132.5" font-family="Helvetica,sans-Serif" font-size="10.00">interpreter.SLogoResultMerger.append</text>
</a>
</g>
</g>
<!-- Node15&#45;&gt;Node16 -->
<g id="edge15" class="edge"><title>Node15&#45;&gt;Node16</title>
<path fill="none" stroke="midnightblue" d="M2036.13,-149.107C2047.31,-147.939 2058.66,-146.751 2069.8,-145.586"/>
<polygon fill="midnightblue" stroke="midnightblue" points="2070.37,-149.045 2079.95,-144.524 2069.64,-142.083 2070.37,-149.045"/>
</g>
<!-- Node17 -->
<g id="node17" class="node"><title>Node17</title>
<g id="a_node17"><a xlink:href="../../d6/d76/classinterpreter_1_1_s_logo_result_merger.html#a8c0879f8ab9d66e54b0317229ee6aa77" target="_top" xlink:title="interpreter.SLogoResultMerger.merge\lAndReturn">
<polygon fill="white" stroke="black" points="2074,-164 2074,-194 2270,-194 2270,-164 2074,-164"/>
<text text-anchor="start" x="2082" y="-182" font-family="Helvetica,sans-Serif" font-size="10.00">interpreter.SLogoResultMerger.merge</text>
<text text-anchor="middle" x="2172" y="-171" font-family="Helvetica,sans-Serif" font-size="10.00">AndReturn</text>
</a>
</g>
</g>
<!-- Node15&#45;&gt;Node17 -->
<g id="edge16" class="edge"><title>Node15&#45;&gt;Node17</title>
<path fill="none" stroke="midnightblue" d="M2036.13,-168.278C2045.37,-169.013 2054.73,-169.757 2064,-170.493"/>
<polygon fill="midnightblue" stroke="midnightblue" points="2063.75,-173.985 2073.99,-171.288 2064.3,-167.007 2063.75,-173.985"/>
</g>
<!-- Node18 -->
<g id="node18" class="node"><title>Node18</title>
<g id="a_node18"><a xlink:href="../../df/df6/classinterpreter_1_1result_1_1_s_logo_result.html#a11062748597af4f6622d9cbc92d4d9c0" target="_top" xlink:title="interpreter.result.SLogo\lResult.getTransition">
<polygon fill="white" stroke="black" points="2333,-57 2333,-87 2463,-87 2463,-57 2333,-57"/>
<text text-anchor="start" x="2341" y="-75" font-family="Helvetica,sans-Serif" font-size="10.00">interpreter.result.SLogo</text>
<text text-anchor="middle" x="2398" y="-64" font-family="Helvetica,sans-Serif" font-size="10.00">Result.getTransition</text>
</a>
</g>
</g>
<!-- Node17&#45;&gt;Node18 -->
<g id="edge17" class="edge"><title>Node17&#45;&gt;Node18</title>
<path fill="none" stroke="midnightblue" d="M2244.83,-163.96C2254.14,-161.116 2263.41,-157.811 2272,-154 2289.58,-146.2 2291.94,-140.583 2308,-130 2326.88,-117.554 2348.1,-103.723 2365.07,-92.6903"/>
<polygon fill="midnightblue" stroke="midnightblue" points="2367.05,-95.5796 2373.53,-87.198 2363.24,-89.7087 2367.05,-95.5796"/>
</g>
<!-- Node19 -->
<g id="node19" class="node"><title>Node19</title>
<g id="a_node19"><a xlink:href="../../df/df6/classinterpreter_1_1result_1_1_s_logo_result.html#a7e050bbb65d7c7eb5e9b9970c6e2616f" target="_top" xlink:title="interpreter.result.SLogo\lResult.getValue">
<polygon fill="white" stroke="black" points="2333,-188 2333,-218 2463,-218 2463,-188 2333,-188"/>
<text text-anchor="start" x="2341" y="-206" font-family="Helvetica,sans-Serif" font-size="10.00">interpreter.result.SLogo</text>
<text text-anchor="middle" x="2398" y="-195" font-family="Helvetica,sans-Serif" font-size="10.00">Result.getValue</text>
</a>
</g>
</g>
<!-- Node17&#45;&gt;Node19 -->
<g id="edge18" class="edge"><title>Node17&#45;&gt;Node19</title>
<path fill="none" stroke="midnightblue" d="M2270.27,-189.422C2287.77,-191.297 2305.76,-193.225 2322.49,-195.017"/>
<polygon fill="midnightblue" stroke="midnightblue" points="2322.41,-198.529 2332.73,-196.114 2323.16,-191.568 2322.41,-198.529"/>
</g>
<!-- Node20 -->
<g id="node20" class="node"><title>Node20</title>
<g id="a_node20"><a xlink:href="../../df/df6/classinterpreter_1_1result_1_1_s_logo_result.html#ade0879b3224a3216bf17e17e25bfd4ca" target="_top" xlink:title="interpreter.result.SLogo\lResult.setValue">
<polygon fill="white" stroke="black" points="2333,-139 2333,-169 2463,-169 2463,-139 2333,-139"/>
<text text-anchor="start" x="2341" y="-157" font-family="Helvetica,sans-Serif" font-size="10.00">interpreter.result.SLogo</text>
<text text-anchor="middle" x="2398" y="-146" font-family="Helvetica,sans-Serif" font-size="10.00">Result.setValue</text>
</a>
</g>
</g>
<!-- Node17&#45;&gt;Node20 -->
<g id="edge19" class="edge"><title>Node17&#45;&gt;Node20</title>
<path fill="none" stroke="midnightblue" d="M2270.27,-168.144C2287.77,-166.19 2305.76,-164.183 2322.49,-162.316"/>
<polygon fill="midnightblue" stroke="midnightblue" points="2323.18,-165.761 2332.73,-161.173 2322.4,-158.804 2323.18,-165.761"/>
</g>
<!-- Node22 -->
<g id="node22" class="node"><title>Node22</title>
<g id="a_node22"><a xlink:href="../../d3/da2/classinterpreter_1_1_parser.html#aa6ccb9df4d2405de8b559ebf6fdf9c51" target="_top" xlink:title="interpreter.Parser.loadAll\lExpressionParameters">
<polygon fill="white" stroke="black" points="2105,-311 2105,-341 2239,-341 2239,-311 2105,-311"/>
<text text-anchor="start" x="2113" y="-329" font-family="Helvetica,sans-Serif" font-size="10.00">interpreter.Parser.loadAll</text>
<text text-anchor="middle" x="2172" y="-318" font-family="Helvetica,sans-Serif" font-size="10.00">ExpressionParameters</text>
</a>
</g>
</g>
<!-- Node21&#45;&gt;Node22 -->
<g id="edge21" class="edge"><title>Node21&#45;&gt;Node22</title>
<path fill="none" stroke="midnightblue" d="M1995.73,-290.067C2026.18,-296.309 2062.85,-303.827 2094.76,-310.37"/>
<polygon fill="midnightblue" stroke="midnightblue" points="2094.44,-313.877 2104.94,-312.457 2095.85,-307.02 2094.44,-313.877"/>
</g>
<!-- Node24 -->
<g id="node24" class="node"><title>Node24</title>
<g id="a_node24"><a xlink:href="../../d3/da2/classinterpreter_1_1_parser.html#a6ec7d578c175a308702b323914b4cfd0" target="_top" xlink:title="interpreter.Parser.makeExpressions\lFromInput">
<polygon fill="white" stroke="black" points="2079,-262 2079,-292 2265,-292 2265,-262 2079,-262"/>
<text text-anchor="start" x="2087" y="-280" font-family="Helvetica,sans-Serif" font-size="10.00">interpreter.Parser.makeExpressions</text>
<text text-anchor="middle" x="2172" y="-269" font-family="Helvetica,sans-Serif" font-size="10.00">FromInput</text>
</a>
</g>
</g>
<!-- Node21&#45;&gt;Node24 -->
<g id="edge23" class="edge"><title>Node21&#45;&gt;Node24</title>
<path fill="none" stroke="midnightblue" d="M1995.73,-277C2018.1,-277 2043.82,-277 2068.55,-277"/>
<polygon fill="midnightblue" stroke="midnightblue" points="2068.7,-280.5 2078.7,-277 2068.7,-273.5 2068.7,-280.5"/>
</g>
<!-- Node33 -->
<g id="node33" class="node"><title>Node33</title>
<g id="a_node33"><a xlink:href="../../d3/da2/classinterpreter_1_1_parser.html#ace7fbbc85fc2aad57bea2330b0476ef4" target="_top" xlink:title="interpreter.Parser.parse\lOutComments">
<polygon fill="white" stroke="black" points="2107.5,-213 2107.5,-243 2236.5,-243 2236.5,-213 2107.5,-213"/>
<text text-anchor="start" x="2115.5" y="-231" font-family="Helvetica,sans-Serif" font-size="10.00">interpreter.Parser.parse</text>
<text text-anchor="middle" x="2172" y="-220" font-family="Helvetica,sans-Serif" font-size="10.00">OutComments</text>
</a>
</g>
</g>
<!-- Node21&#45;&gt;Node33 -->
<g id="edge32" class="edge"><title>Node21&#45;&gt;Node33</title>
<path fill="none" stroke="midnightblue" d="M1995.73,-263.933C2027.06,-257.51 2064.98,-249.735 2097.53,-243.063"/>
<polygon fill="midnightblue" stroke="midnightblue" points="2098.35,-246.468 2107.44,-241.03 2096.94,-239.61 2098.35,-246.468"/>
</g>
<!-- Node34 -->
<g id="node34" class="node"><title>Node34</title>
<g id="a_node34"><a xlink:href="../../d3/da2/classinterpreter_1_1_parser.html#a2c8ee0acf938cac9cd22ef8fe5c77866" target="_top" xlink:title="interpreter.Parser.process\lInput">
<polygon fill="white" stroke="black" points="2102,-360 2102,-390 2242,-390 2242,-360 2102,-360"/>
<text text-anchor="start" x="2110" y="-378" font-family="Helvetica,sans-Serif" font-size="10.00">interpreter.Parser.process</text>
<text text-anchor="middle" x="2172" y="-367" font-family="Helvetica,sans-Serif" font-size="10.00">Input</text>
</a>
</g>
</g>
<!-- Node21&#45;&gt;Node34 -->
<g id="edge33" class="edge"><title>Node21&#45;&gt;Node34</title>
<path fill="none" stroke="midnightblue" d="M1956.47,-292.011C1983.79,-308.227 2029.73,-333.898 2072,-350 2078.72,-352.56 2085.79,-354.936 2092.95,-357.123"/>
<polygon fill="midnightblue" stroke="midnightblue" points="2092.13,-360.532 2102.71,-359.987 2094.1,-353.815 2092.13,-360.532"/>
</g>
<!-- Node23 -->
<g id="node23" class="node"><title>Node23</title>
<g id="a_node23"><a xlink:href="../../db/d09/interfaceinterpreter_1_1expression_1_1_s_logo_expression.html#a8bb3a17e57258a80b5becf128afaa04c" target="_top" xlink:title="interpreter.expression.SLogo\lExpression.loadArguments">
<polygon fill="white" stroke="black" points="2320.5,-311 2320.5,-341 2475.5,-341 2475.5,-311 2320.5,-311"/>
<text text-anchor="start" x="2328.5" y="-329" font-family="Helvetica,sans-Serif" font-size="10.00">interpreter.expression.SLogo</text>
<text text-anchor="middle" x="2398" y="-318" font-family="Helvetica,sans-Serif" font-size="10.00">Expression.loadArguments</text>
</a>
</g>
</g>
<!-- Node22&#45;&gt;Node23 -->
<g id="edge22" class="edge"><title>Node22&#45;&gt;Node23</title>
<path fill="none" stroke="midnightblue" d="M2239.3,-326C2261.44,-326 2286.45,-326 2309.93,-326"/>
<polygon fill="midnightblue" stroke="midnightblue" points="2310.23,-329.5 2320.23,-326 2310.23,-322.5 2310.23,-329.5"/>
</g>
<!-- Node25 -->
<g id="node25" class="node"><title>Node25</title>
<g id="a_node25"><a xlink:href="../../d8/daa/classinterpreter_1_1_s_logo_expression_factory.html#a50eb077dd9b57f111e60eb7b297b6d29" target="_top" xlink:title="interpreter.SLogoExpression\lFactory.createExpression">
<polygon fill="white" stroke="black" points="2322,-262 2322,-292 2474,-292 2474,-262 2322,-262"/>
<text text-anchor="start" x="2330" y="-280" font-family="Helvetica,sans-Serif" font-size="10.00">interpreter.SLogoExpression</text>
<text text-anchor="middle" x="2398" y="-269" font-family="Helvetica,sans-Serif" font-size="10.00">Factory.createExpression</text>
</a>
</g>
</g>
<!-- Node24&#45;&gt;Node25 -->
<g id="edge24" class="edge"><title>Node24&#45;&gt;Node25</title>
<path fill="none" stroke="midnightblue" d="M2265.08,-277C2280.37,-277 2296.18,-277 2311.31,-277"/>
<polygon fill="midnightblue" stroke="midnightblue" points="2311.66,-280.5 2321.66,-277 2311.66,-273.5 2311.66,-280.5"/>
</g>
<!-- Node26 -->
<g id="node26" class="node"><title>Node26</title>
<g id="a_node26"><a xlink:href="../../d8/daa/classinterpreter_1_1_s_logo_expression_factory.html#af866a871782317ae912240ad2e383bd9" target="_top" xlink:title="interpreter.SLogoExpression\lFactory.checkTypeAndInitialize">
<polygon fill="white" stroke="black" points="2524,-262 2524,-292 2682,-292 2682,-262 2524,-262"/>
<text text-anchor="start" x="2532" y="-280" font-family="Helvetica,sans-Serif" font-size="10.00">interpreter.SLogoExpression</text>
<text text-anchor="middle" x="2603" y="-269" font-family="Helvetica,sans-Serif" font-size="10.00">Factory.checkTypeAndInitialize</text>
</a>
</g>
</g>
<!-- Node25&#45;&gt;Node26 -->
<g id="edge25" class="edge"><title>Node25&#45;&gt;Node26</title>
<path fill="none" stroke="midnightblue" d="M2474.01,-277C2486.97,-277 2500.55,-277 2513.82,-277"/>
<polygon fill="midnightblue" stroke="midnightblue" points="2513.9,-280.5 2523.9,-277 2513.9,-273.5 2513.9,-280.5"/>
</g>
<!-- Node27 -->
<g id="node27" class="node"><title>Node27</title>
<g id="a_node27"><a xlink:href="../../d8/daa/classinterpreter_1_1_s_logo_expression_factory.html#aed195cb1e071e9e87792f7a51242f824" target="_top" xlink:title="interpreter.SLogoExpression\lFactory.initializeExpression">
<polygon fill="white" stroke="black" points="2720,-311 2720,-341 2872,-341 2872,-311 2720,-311"/>
<text text-anchor="start" x="2728" y="-329" font-family="Helvetica,sans-Serif" font-size="10.00">interpreter.SLogoExpression</text>
<text text-anchor="middle" x="2796" y="-318" font-family="Helvetica,sans-Serif" font-size="10.00">Factory.initializeExpression</text>
</a>
</g>
</g>
<!-- Node26&#45;&gt;Node27 -->
<g id="edge26" class="edge"><title>Node26&#45;&gt;Node27</title>
<path fill="none" stroke="midnightblue" d="M2662.6,-292.035C2682.86,-297.232 2705.74,-303.101 2726.71,-308.48"/>
<polygon fill="midnightblue" stroke="midnightblue" points="2725.95,-311.899 2736.51,-310.994 2727.69,-305.119 2725.95,-311.899"/>
</g>
<!-- Node31 -->
<g id="node31" class="node"><title>Node31</title>
<g id="a_node31"><a xlink:href="../../d8/daa/classinterpreter_1_1_s_logo_expression_factory.html#a67c690097a981fbc2bf840c1f619639a" target="_top" xlink:title="interpreter.SLogoExpression\lFactory.isMatch">
<polygon fill="white" stroke="black" points="2720,-262 2720,-292 2872,-292 2872,-262 2720,-262"/>
<text text-anchor="start" x="2728" y="-280" font-family="Helvetica,sans-Serif" font-size="10.00">interpreter.SLogoExpression</text>
<text text-anchor="middle" x="2796" y="-269" font-family="Helvetica,sans-Serif" font-size="10.00">Factory.isMatch</text>
</a>
</g>
</g>
<!-- Node26&#45;&gt;Node31 -->
<g id="edge30" class="edge"><title>Node26&#45;&gt;Node31</title>
<path fill="none" stroke="midnightblue" d="M2682.24,-277C2691.3,-277 2700.57,-277 2709.71,-277"/>
<polygon fill="midnightblue" stroke="midnightblue" points="2709.96,-280.5 2719.96,-277 2709.96,-273.5 2709.96,-280.5"/>
</g>
<!-- Node32 -->
<g id="node32" class="node"><title>Node32</title>
<g id="a_node32"><a xlink:href="../../db/d09/interfaceinterpreter_1_1expression_1_1_s_logo_expression.html#a035636bae1b48baf5732f091a85ca9b1" target="_top" xlink:title="interpreter.expression.SLogo\lExpression.setValue">
<polygon fill="white" stroke="black" points="2718.5,-213 2718.5,-243 2873.5,-243 2873.5,-213 2718.5,-213"/>
<text text-anchor="start" x="2726.5" y="-231" font-family="Helvetica,sans-Serif" font-size="10.00">interpreter.expression.SLogo</text>
<text text-anchor="middle" x="2796" y="-220" font-family="Helvetica,sans-Serif" font-size="10.00">Expression.setValue</text>
</a>
</g>
</g>
<!-- Node26&#45;&gt;Node32 -->
<g id="edge31" class="edge"><title>Node26&#45;&gt;Node32</title>
<path fill="none" stroke="midnightblue" d="M2662.6,-261.965C2682.86,-256.768 2705.74,-250.899 2726.71,-245.52"/>
<polygon fill="midnightblue" stroke="midnightblue" points="2727.69,-248.881 2736.51,-243.006 2725.95,-242.101 2727.69,-248.881"/>
</g>
<!-- Node28 -->
<g id="node28" class="node"><title>Node28</title>
<g id="a_node28"><a xlink:href="../../db/d09/interfaceinterpreter_1_1expression_1_1_s_logo_expression.html#a8dbb9bf4dced75bf7e423cb614958a15" target="_top" xlink:title="interpreter.expression.SLogo\lExpression.loadLibrary">
<polygon fill="white" stroke="black" points="2910.5,-360 2910.5,-390 3065.5,-390 3065.5,-360 2910.5,-360"/>
<text text-anchor="start" x="2918.5" y="-378" font-family="Helvetica,sans-Serif" font-size="10.00">interpreter.expression.SLogo</text>
<text text-anchor="middle" x="2988" y="-367" font-family="Helvetica,sans-Serif" font-size="10.00">Expression.loadLibrary</text>
</a>
</g>
</g>
<!-- Node27&#45;&gt;Node28 -->
<g id="edge27" class="edge"><title>Node27&#45;&gt;Node28</title>
<path fill="none" stroke="midnightblue" d="M2855.3,-341.035C2875.45,-346.232 2898.21,-352.101 2919.06,-357.48"/>
<polygon fill="midnightblue" stroke="midnightblue" points="2918.26,-360.886 2928.81,-359.994 2920,-354.107 2918.26,-360.886"/>
</g>
<!-- Node29 -->
<g id="node29" class="node"><title>Node29</title>
<g id="a_node29"><a xlink:href="../../db/d09/interfaceinterpreter_1_1expression_1_1_s_logo_expression.html#a85984c7b01a9e06a1f4c8d73f7752a48" target="_top" xlink:title="interpreter.expression.SLogo\lExpression.loadModel">
<polygon fill="white" stroke="black" points="2910.5,-311 2910.5,-341 3065.5,-341 3065.5,-311 2910.5,-311"/>
<text text-anchor="start" x="2918.5" y="-329" font-family="Helvetica,sans-Serif" font-size="10.00">interpreter.expression.SLogo</text>
<text text-anchor="middle" x="2988" y="-318" font-family="Helvetica,sans-Serif" font-size="10.00">Expression.loadModel</text>
</a>
</g>
</g>
<!-- Node27&#45;&gt;Node29 -->
<g id="edge28" class="edge"><title>Node27&#45;&gt;Node29</title>
<path fill="none" stroke="midnightblue" d="M2872.09,-326C2881.31,-326 2890.79,-326 2900.16,-326"/>
<polygon fill="midnightblue" stroke="midnightblue" points="2900.27,-329.5 2910.27,-326 2900.27,-322.5 2900.27,-329.5"/>
</g>
<!-- Node30 -->
<g id="node30" class="node"><title>Node30</title>
<g id="a_node30"><a xlink:href="../../db/d09/interfaceinterpreter_1_1expression_1_1_s_logo_expression.html#ae5647ebedeb07edc2902d7cf478107f7" target="_top" xlink:title="interpreter.expression.SLogo\lExpression.setNumArgs">
<polygon fill="white" stroke="black" points="2910.5,-262 2910.5,-292 3065.5,-292 3065.5,-262 2910.5,-262"/>
<text text-anchor="start" x="2918.5" y="-280" font-family="Helvetica,sans-Serif" font-size="10.00">interpreter.expression.SLogo</text>
<text text-anchor="middle" x="2988" y="-269" font-family="Helvetica,sans-Serif" font-size="10.00">Expression.setNumArgs</text>
</a>
</g>
</g>
<!-- Node27&#45;&gt;Node30 -->
<g id="edge29" class="edge"><title>Node27&#45;&gt;Node30</title>
<path fill="none" stroke="midnightblue" d="M2855.3,-310.965C2875.45,-305.768 2898.21,-299.899 2919.06,-294.52"/>
<polygon fill="midnightblue" stroke="midnightblue" points="2920,-297.893 2928.81,-292.006 2918.26,-291.114 2920,-297.893"/>
</g>
<!-- Node36&#45;&gt;Node18 -->
<g id="edge36" class="edge"><title>Node36&#45;&gt;Node18</title>
<path fill="none" stroke="midnightblue" d="M1781.12,-71.1177C1917.96,-71.3137 2190.58,-71.7043 2322.31,-71.893"/>
<polygon fill="midnightblue" stroke="midnightblue" points="2322.69,-75.3935 2332.7,-71.9079 2322.7,-68.3935 2322.69,-75.3935"/>
</g>
<!-- Node37 -->
<g id="node37" class="node"><title>Node37</title>
<g id="a_node37"><a xlink:href="../../de/d21/classmodel_1_1_main_model.html#aad9f626d0b472cbc3d57e8af0c4326cc" target="_top" xlink:title="model.MainModel.setMyAnimation">
<polygon fill="white" stroke="black" points="1840.5,-87.5 1840.5,-106.5 2021.5,-106.5 2021.5,-87.5 1840.5,-87.5"/>
<text text-anchor="middle" x="1931" y="-94.5" font-family="Helvetica,sans-Serif" font-size="10.00">model.MainModel.setMyAnimation</text>
</a>
</g>
</g>
<!-- Node36&#45;&gt;Node37 -->
<g id="edge37" class="edge"><title>Node36&#45;&gt;Node37</title>
<path fill="none" stroke="midnightblue" d="M1781.09,-80.2398C1798.71,-82.2226 1817.46,-84.3331 1835.5,-86.3639"/>
<polygon fill="midnightblue" stroke="midnightblue" points="1835.11,-89.8421 1845.44,-87.4826 1835.9,-82.886 1835.11,-89.8421"/>
</g>
<!-- Node39 -->
<g id="node39" class="node"><title>Node39</title>
<g id="a_node39"><a xlink:href="../../dd/d63/classmodel_1_1_model_updater.html#a08dce6edfc21ceba207d7a534d2bd71c" target="_top" xlink:title="model.ModelUpdater.update\lModel">
<polygon fill="white" stroke="black" points="1854.5,-0 1854.5,-30 2007.5,-30 2007.5,-0 1854.5,-0"/>
<text text-anchor="start" x="1862.5" y="-18" font-family="Helvetica,sans-Serif" font-size="10.00">model.ModelUpdater.update</text>
<text text-anchor="middle" x="1931" y="-7" font-family="Helvetica,sans-Serif" font-size="10.00">Model</text>
</a>
</g>
</g>
<!-- Node36&#45;&gt;Node39 -->
<g id="edge39" class="edge"><title>Node36&#45;&gt;Node39</title>
<path fill="none" stroke="midnightblue" d="M1738.45,-61.4369C1771.23,-53.4886 1818.74,-41.9721 1858.24,-32.3968"/>
<polygon fill="midnightblue" stroke="midnightblue" points="1859.2,-35.7651 1868.09,-30.0075 1857.55,-28.9621 1859.2,-35.7651"/>
</g>
<!-- Node38 -->
<g id="node38" class="node"><title>Node38</title>
<g id="a_node38"><a xlink:href="../../d4/d57/classturtle_1_1_turtle_list_history.html#a1d6e950f470e133d79684a9c3baf54b4" target="_top" xlink:title="turtle.TurtleListHistory.updateList">
<polygon fill="white" stroke="black" points="2085.5,-87.5 2085.5,-106.5 2258.5,-106.5 2258.5,-87.5 2085.5,-87.5"/>
<text text-anchor="middle" x="2172" y="-94.5" font-family="Helvetica,sans-Serif" font-size="10.00">turtle.TurtleListHistory.updateList</text>
</a>
</g>
</g>
<!-- Node37&#45;&gt;Node38 -->
<g id="edge38" class="edge"><title>Node37&#45;&gt;Node38</title>
<path fill="none" stroke="midnightblue" d="M2021.67,-97C2039.06,-97 2057.34,-97 2074.92,-97"/>
<polygon fill="midnightblue" stroke="midnightblue" points="2075.18,-100.5 2085.18,-97 2075.18,-93.5001 2075.18,-100.5"/>
</g>
<!-- Node40 -->
<g id="node40" class="node"><title>Node40</title>
<g id="a_node40"><a xlink:href="../../dd/d63/classmodel_1_1_model_updater.html#ad73b783b59545c68e1fb9123e44492d4" target="_top" xlink:title="model.ModelUpdater.create\lTurtleTransitionMapping">
<polygon fill="white" stroke="black" points="2097,-0 2097,-30 2247,-30 2247,-0 2097,-0"/>
<text text-anchor="start" x="2105" y="-18" font-family="Helvetica,sans-Serif" font-size="10.00">model.ModelUpdater.create</text>
<text text-anchor="middle" x="2172" y="-7" font-family="Helvetica,sans-Serif" font-size="10.00">TurtleTransitionMapping</text>
</a>
</g>
</g>
<!-- Node39&#45;&gt;Node40 -->
<g id="edge40" class="edge"><title>Node39&#45;&gt;Node40</title>
<path fill="none" stroke="midnightblue" d="M2007.62,-15C2032.73,-15 2060.85,-15 2086.58,-15"/>
<polygon fill="midnightblue" stroke="midnightblue" points="2086.69,-18.5001 2096.69,-15 2086.69,-11.5001 2086.69,-18.5001"/>
</g>
<!-- Node41 -->
<g id="node41" class="node"><title>Node41</title>
<g id="a_node41"><a xlink:href="../../dd/d63/classmodel_1_1_model_updater.html#a44e91f3e31045ca0a067ffe9d270ab29" target="_top" xlink:title="model.ModelUpdater.findSelected\lTurtles">
<polygon fill="white" stroke="black" points="2308.5,-0 2308.5,-30 2487.5,-30 2487.5,-0 2308.5,-0"/>
<text text-anchor="start" x="2316.5" y="-18" font-family="Helvetica,sans-Serif" font-size="10.00">model.ModelUpdater.findSelected</text>
<text text-anchor="middle" x="2398" y="-7" font-family="Helvetica,sans-Serif" font-size="10.00">Turtles</text>
</a>
</g>
</g>
<!-- Node40&#45;&gt;Node41 -->
<g id="edge41" class="edge"><title>Node40&#45;&gt;Node41</title>
<path fill="none" stroke="midnightblue" d="M2247.28,-15C2263.41,-15 2280.73,-15 2297.66,-15"/>
<polygon fill="midnightblue" stroke="midnightblue" points="2298.14,-18.5001 2308.14,-15 2298.14,-11.5001 2298.14,-18.5001"/>
</g>
</g>
</svg>
