<?xml version="1.0" encoding="UTF-8" standalone="no"?>
<!DOCTYPE svg PUBLIC "-//W3C//DTD SVG 1.1//EN"
 "http://www.w3.org/Graphics/SVG/1.1/DTD/svg11.dtd">
<!-- Generated by graphviz version 2.36.0 (20140111.2315)
 -->
<!-- Title: viewcontroller.commands.CommandPromptViewController.setCommandPromptText Pages: 1 -->
<svg width="1322pt" height="176pt"
 viewBox="0.00 0.00 1322.00 176.00" xmlns="http://www.w3.org/2000/svg" xmlns:xlink="http://www.w3.org/1999/xlink">
<g id="graph0" class="graph" transform="scale(1 1) rotate(0) translate(4 172)">
<title>viewcontroller.commands.CommandPromptViewController.setCommandPromptText</title>
<polygon fill="white" stroke="none" points="-4,4 -4,-172 1318,-172 1318,4 -4,4"/>
<!-- Node1 -->
<g id="node1" class="node"><title>Node1</title>
<polygon fill="#bfbfbf" stroke="black" points="0,-96.5 0,-137.5 188,-137.5 188,-96.5 0,-96.5"/>
<text text-anchor="start" x="8" y="-125.5" font-family="Helvetica,sans-Serif" font-size="10.00">viewcontroller.commands.</text>
<text text-anchor="start" x="8" y="-114.5" font-family="Helvetica,sans-Serif" font-size="10.00">CommandPromptViewController.set</text>
<text text-anchor="middle" x="94" y="-103.5" font-family="Helvetica,sans-Serif" font-size="10.00">CommandPromptText</text>
</g>
<!-- Node2 -->
<g id="node2" class="node"><title>Node2</title>
<g id="a_node2"><a xlink:href="../../d0/d7c/classviewcontroller_1_1commands_1_1_command_window_container_view_controller.html#a855fafa32d3167f000f659fc3ae8bede" target="_top" xlink:title="viewcontroller.commands.\lCommandWindowContainerViewController.load\lScript">
<polygon fill="white" stroke="black" points="227.5,-126.5 227.5,-167.5 466.5,-167.5 466.5,-126.5 227.5,-126.5"/>
<text text-anchor="start" x="235.5" y="-155.5" font-family="Helvetica,sans-Serif" font-size="10.00">viewcontroller.commands.</text>
<text text-anchor="start" x="235.5" y="-144.5" font-family="Helvetica,sans-Serif" font-size="10.00">CommandWindowContainerViewController.load</text>
<text text-anchor="middle" x="347" y="-133.5" font-family="Helvetica,sans-Serif" font-size="10.00">Script</text>
</a>
</g>
</g>
<!-- Node1&#45;&gt;Node2 -->
<g id="edge1" class="edge"><title>Node1&#45;&gt;Node2</title>
<path fill="none" stroke="midnightblue" d="M198.121,-129.325C207.804,-130.482 217.67,-131.662 227.48,-132.834"/>
<polygon fill="midnightblue" stroke="midnightblue" points="198.451,-125.84 188.106,-128.128 197.62,-132.79 198.451,-125.84"/>
</g>
<!-- Node7 -->
<g id="node7" class="node"><title>Node7</title>
<g id="a_node7"><a xlink:href="../../d0/d7c/classviewcontroller_1_1commands_1_1_command_window_container_view_controller.html#ae3ec4d2b2cfd7d931ed2da8328e13f31" target="_top" xlink:title="viewcontroller.commands.\lCommandWindowContainerViewController.move\lCommandTextToPromptWindow">
<polygon fill="white" stroke="black" points="224,-66.5 224,-107.5 470,-107.5 470,-66.5 224,-66.5"/>
<text text-anchor="start" x="232" y="-95.5" font-family="Helvetica,sans-Serif" font-size="10.00">viewcontroller.commands.</text>
<text text-anchor="start" x="232" y="-84.5" font-family="Helvetica,sans-Serif" font-size="10.00">CommandWindowContainerViewController.move</text>
<text text-anchor="middle" x="347" y="-73.5" font-family="Helvetica,sans-Serif" font-size="10.00">CommandTextToPromptWindow</text>
</a>
</g>
</g>
<!-- Node1&#45;&gt;Node7 -->
<g id="edge6" class="edge"><title>Node1&#45;&gt;Node7</title>
<path fill="none" stroke="midnightblue" d="M198.237,-104.661C206.606,-103.661 215.112,-102.644 223.598,-101.63"/>
<polygon fill="midnightblue" stroke="midnightblue" points="197.62,-101.21 188.106,-105.872 198.451,-108.16 197.62,-101.21"/>
</g>
<!-- Node3 -->
<g id="node3" class="node"><title>Node3</title>
<g id="a_node3"><a xlink:href="../../d3/d67/classviewcontroller_1_1_main_view_controller.html#a29ed3b9e1441359bc7ffb6eea450c7e9" target="_top" xlink:title="viewcontroller.MainViewController.load\lScript">
<polygon fill="white" stroke="black" points="506.5,-132 506.5,-162 703.5,-162 703.5,-132 506.5,-132"/>
<text text-anchor="start" x="514.5" y="-150" font-family="Helvetica,sans-Serif" font-size="10.00">viewcontroller.MainViewController.load</text>
<text text-anchor="middle" x="605" y="-139" font-family="Helvetica,sans-Serif" font-size="10.00">Script</text>
</a>
</g>
</g>
<!-- Node2&#45;&gt;Node3 -->
<g id="edge2" class="edge"><title>Node2&#45;&gt;Node3</title>
<path fill="none" stroke="midnightblue" d="M476.654,-147C486.684,-147 496.708,-147 506.48,-147"/>
<polygon fill="midnightblue" stroke="midnightblue" points="476.632,-143.5 466.632,-147 476.632,-150.5 476.632,-143.5"/>
</g>
<!-- Node4 -->
<g id="node4" class="node"><title>Node4</title>
<g id="a_node4"><a xlink:href="../../da/d4e/classviewcontroller_1_1_view.html#a1f7ce4457b38e302cf3a052c8d36a7a6" target="_top" xlink:title="viewcontroller.View.loadFile">
<polygon fill="white" stroke="black" points="779.5,-137.5 779.5,-156.5 922.5,-156.5 922.5,-137.5 779.5,-137.5"/>
<text text-anchor="middle" x="851" y="-144.5" font-family="Helvetica,sans-Serif" font-size="10.00">viewcontroller.View.loadFile</text>
</a>
</g>
</g>
<!-- Node3&#45;&gt;Node4 -->
<g id="edge3" class="edge"><title>Node3&#45;&gt;Node4</title>
<path fill="none" stroke="midnightblue" d="M713.94,-147C736.046,-147 758.776,-147 779.174,-147"/>
<polygon fill="midnightblue" stroke="midnightblue" points="713.838,-143.5 703.838,-147 713.838,-150.5 713.838,-143.5"/>
</g>
<!-- Node5 -->
<g id="node5" class="node"><title>Node5</title>
<g id="a_node5"><a xlink:href="../../df/df9/classviewcontroller_1_1_s_logo_menu_bar.html#aea535ae86d7ac7a2fffe549d7bdf2a1d" target="_top" xlink:title="viewcontroller.SLogoMenu\lBar.initializeFileMenu">
<polygon fill="white" stroke="black" points="998,-132 998,-162 1138,-162 1138,-132 998,-132"/>
<text text-anchor="start" x="1006" y="-150" font-family="Helvetica,sans-Serif" font-size="10.00">viewcontroller.SLogoMenu</text>
<text text-anchor="middle" x="1068" y="-139" font-family="Helvetica,sans-Serif" font-size="10.00">Bar.initializeFileMenu</text>
</a>
</g>
</g>
<!-- Node4&#45;&gt;Node5 -->
<g id="edge4" class="edge"><title>Node4&#45;&gt;Node5</title>
<path fill="none" stroke="midnightblue" d="M932.729,-147C954.114,-147 977.009,-147 997.726,-147"/>
<polygon fill="midnightblue" stroke="midnightblue" points="932.697,-143.5 922.697,-147 932.697,-150.5 932.697,-143.5"/>
</g>
<!-- Node6 -->
<g id="node6" class="node"><title>Node6</title>
<g id="a_node6"><a xlink:href="../../df/df9/classviewcontroller_1_1_s_logo_menu_bar.html#a75b45d0a4b08de5ff8588fc15b2f14fe" target="_top" xlink:title="viewcontroller.SLogoMenu\lBar.SLogoMenuBar">
<polygon fill="white" stroke="black" points="1174,-132 1174,-162 1314,-162 1314,-132 1174,-132"/>
<text text-anchor="start" x="1182" y="-150" font-family="Helvetica,sans-Serif" font-size="10.00">viewcontroller.SLogoMenu</text>
<text text-anchor="middle" x="1244" y="-139" font-family="Helvetica,sans-Serif" font-size="10.00">Bar.SLogoMenuBar</text>
</a>
</g>
</g>
<!-- Node5&#45;&gt;Node6 -->
<g id="edge5" class="edge"><title>Node5&#45;&gt;Node6</title>
<path fill="none" stroke="midnightblue" d="M1148.03,-147C1156.62,-147 1165.32,-147 1173.78,-147"/>
<polygon fill="midnightblue" stroke="midnightblue" points="1148.02,-143.5 1138.02,-147 1148.02,-150.5 1148.02,-143.5"/>
</g>
<!-- Node8 -->
<g id="node8" class="node"><title>Node8</title>
<g id="a_node8"><a xlink:href="../../d8/d97/classunittest_1_1_command_prompt_text_test.html#ab38f5219e36c87838ae14692e2aa01ac" target="_top" xlink:title="unittest.CommandPromptText\lTest.testTransferOfString">
<polygon fill="white" stroke="black" points="524.5,-78 524.5,-108 685.5,-108 685.5,-78 524.5,-78"/>
<text text-anchor="start" x="532.5" y="-96" font-family="Helvetica,sans-Serif" font-size="10.00">unittest.CommandPromptText</text>
<text text-anchor="middle" x="605" y="-85" font-family="Helvetica,sans-Serif" font-size="10.00">Test.testTransferOfString</text>
</a>
</g>
</g>
<!-- Node7&#45;&gt;Node8 -->
<g id="edge7" class="edge"><title>Node7&#45;&gt;Node8</title>
<path fill="none" stroke="midnightblue" d="M480.368,-90.1024C495.338,-90.4532 510.227,-90.8022 524.217,-91.1301"/>
<polygon fill="midnightblue" stroke="midnightblue" points="480.081,-86.5948 470.002,-89.8594 479.917,-93.5929 480.081,-86.5948"/>
</g>
<!-- Node9 -->
<g id="node9" class="node"><title>Node9</title>
<g id="a_node9"><a xlink:href="../../d1/dfa/classviewcontroller_1_1commands_1_1_command_clickable_list_window_view_controller.html#a2ed6fe1ba70171aa8c3bbf512c6d3f14" target="_top" xlink:title="viewcontroller.commands.\lCommandClickableListWindowView\lController.addCommand">
<polygon fill="white" stroke="black" points="514,-18.5 514,-59.5 696,-59.5 696,-18.5 514,-18.5"/>
<text text-anchor="start" x="522" y="-47.5" font-family="Helvetica,sans-Serif" font-size="10.00">viewcontroller.commands.</text>
<text text-anchor="start" x="522" y="-36.5" font-family="Helvetica,sans-Serif" font-size="10.00">CommandClickableListWindowView</text>
<text text-anchor="middle" x="605" y="-25.5" font-family="Helvetica,sans-Serif" font-size="10.00">Controller.addCommand</text>
</a>
</g>
</g>
<!-- Node7&#45;&gt;Node9 -->
<g id="edge8" class="edge"><title>Node7&#45;&gt;Node9</title>
<path fill="none" stroke="midnightblue" d="M467.819,-64.534C483.295,-61.6322 498.932,-58.7003 513.819,-55.909"/>
<polygon fill="midnightblue" stroke="midnightblue" points="466.865,-61.1518 457.681,-66.4348 468.155,-68.0319 466.865,-61.1518"/>
</g>
<!-- Node10 -->
<g id="node10" class="node"><title>Node10</title>
<g id="a_node10"><a xlink:href="../../d3/d76/classviewcontroller_1_1commands_1_1_command_history_view_controller.html#af6c663c753d2fef3f99f4229395a0c7e" target="_top" xlink:title="viewcontroller.commands.\lCommandHistoryViewController.update">
<polygon fill="white" stroke="black" points="748.5,-49 748.5,-79 953.5,-79 953.5,-49 748.5,-49"/>
<text text-anchor="start" x="756.5" y="-67" font-family="Helvetica,sans-Serif" font-size="10.00">viewcontroller.commands.</text>
<text text-anchor="middle" x="851" y="-56" font-family="Helvetica,sans-Serif" font-size="10.00">CommandHistoryViewController.update</text>
</a>
</g>
</g>
<!-- Node9&#45;&gt;Node10 -->
<g id="edge9" class="edge"><title>Node9&#45;&gt;Node10</title>
<path fill="none" stroke="midnightblue" d="M706.197,-49.2661C720.085,-50.6891 734.363,-52.152 748.279,-53.5778"/>
<polygon fill="midnightblue" stroke="midnightblue" points="706.468,-45.7756 696.163,-48.238 705.755,-52.7392 706.468,-45.7756"/>
</g>
<!-- Node11 -->
<g id="node11" class="node"><title>Node11</title>
<g id="a_node11"><a xlink:href="../../de/d01/classviewcontroller_1_1commands_1_1_user_defined_methods_view_controller.html#a9bc55fe9c5120847c81fd12ec2182568" target="_top" xlink:title="viewcontroller.commands.\lUserDefinedMethodsViewController.update">
<polygon fill="white" stroke="black" points="740.5,-0 740.5,-30 961.5,-30 961.5,-0 740.5,-0"/>
<text text-anchor="start" x="748.5" y="-18" font-family="Helvetica,sans-Serif" font-size="10.00">viewcontroller.commands.</text>
<text text-anchor="middle" x="851" y="-7" font-family="Helvetica,sans-Serif" font-size="10.00">UserDefinedMethodsViewController.update</text>
</a>
</g>
</g>
<!-- Node9&#45;&gt;Node11 -->
<g id="edge10" class="edge"><title>Node9&#45;&gt;Node11</title>
<path fill="none" stroke="midnightblue" d="M706.375,-29.1271C717.583,-28.0246 729.043,-26.8974 740.36,-25.7843"/>
<polygon fill="midnightblue" stroke="midnightblue" points="705.773,-25.6693 696.163,-30.1315 706.458,-32.6357 705.773,-25.6693"/>
</g>
</g>
</svg>
