<?xml version="1.0" encoding="UTF-8" standalone="no"?>
<!DOCTYPE svg PUBLIC "-//W3C//DTD SVG 1.1//EN"
 "http://www.w3.org/Graphics/SVG/1.1/DTD/svg11.dtd">
<!-- Generated by graphviz version 2.36.0 (20140111.2315)
 -->
<!-- Title: viewcontroller.commands.CommandPromptViewController.setUpCommandPromptHorizontalBox Pages: 1 -->
<svg width="2844pt" height="398pt"
 viewBox="0.00 0.00 2844.00 398.00" xmlns="http://www.w3.org/2000/svg" xmlns:xlink="http://www.w3.org/1999/xlink">
<g id="graph0" class="graph" transform="scale(1 1) rotate(0) translate(4 394)">
<title>viewcontroller.commands.CommandPromptViewController.setUpCommandPromptHorizontalBox</title>
<polygon fill="white" stroke="none" points="-4,4 -4,-394 2840,-394 2840,4 -4,4"/>
<!-- Node1 -->
<g id="node1" class="node"><title>Node1</title>
<polygon fill="#bfbfbf" stroke="black" points="0,-169.5 0,-210.5 188,-210.5 188,-169.5 0,-169.5"/>
<text text-anchor="start" x="8" y="-198.5" font-family="Helvetica,sans-Serif" font-size="10.00">viewcontroller.commands.</text>
<text text-anchor="start" x="8" y="-187.5" font-family="Helvetica,sans-Serif" font-size="10.00">CommandPromptViewController.set</text>
<text text-anchor="middle" x="94" y="-176.5" font-family="Helvetica,sans-Serif" font-size="10.00">UpCommandPromptHorizontalBox</text>
</g>
<!-- Node2 -->
<g id="node2" class="node"><title>Node2</title>
<g id="a_node2"><a xlink:href="../../de/d8d/classviewcontroller_1_1commands_1_1_command_prompt_view_controller.html#ac3d5e7c8e756a748c20677a99e805507" target="_top" xlink:title="viewcontroller.commands.\lCommandPromptViewController.set\lUpCommandPrompt">
<polygon fill="white" stroke="black" points="224,-199.5 224,-240.5 412,-240.5 412,-199.5 224,-199.5"/>
<text text-anchor="start" x="232" y="-228.5" font-family="Helvetica,sans-Serif" font-size="10.00">viewcontroller.commands.</text>
<text text-anchor="start" x="232" y="-217.5" font-family="Helvetica,sans-Serif" font-size="10.00">CommandPromptViewController.set</text>
<text text-anchor="middle" x="318" y="-206.5" font-family="Helvetica,sans-Serif" font-size="10.00">UpCommandPrompt</text>
</a>
</g>
</g>
<!-- Node1&#45;&gt;Node2 -->
<g id="edge1" class="edge"><title>Node1&#45;&gt;Node2</title>
<path fill="none" stroke="midnightblue" d="M188.183,-202.592C196.626,-203.733 205.211,-204.893 213.734,-206.045"/>
<polygon fill="midnightblue" stroke="midnightblue" points="213.321,-209.521 223.7,-207.392 214.258,-202.584 213.321,-209.521"/>
</g>
<!-- Node3 -->
<g id="node3" class="node"><title>Node3</title>
<g id="a_node3"><a xlink:href="../../de/d8d/classviewcontroller_1_1commands_1_1_command_prompt_view_controller.html#a02e953379b9b8de02a4e15d94fe1c559" target="_top" xlink:title="viewcontroller.commands.\lCommandPromptViewController.set\lUpSubmitButton">
<polygon fill="white" stroke="black" points="224,-139.5 224,-180.5 412,-180.5 412,-139.5 224,-139.5"/>
<text text-anchor="start" x="232" y="-168.5" font-family="Helvetica,sans-Serif" font-size="10.00">viewcontroller.commands.</text>
<text text-anchor="start" x="232" y="-157.5" font-family="Helvetica,sans-Serif" font-size="10.00">CommandPromptViewController.set</text>
<text text-anchor="middle" x="318" y="-146.5" font-family="Helvetica,sans-Serif" font-size="10.00">UpSubmitButton</text>
</a>
</g>
</g>
<!-- Node1&#45;&gt;Node3 -->
<g id="edge2" class="edge"><title>Node1&#45;&gt;Node3</title>
<path fill="none" stroke="midnightblue" d="M188.183,-177.408C196.626,-176.267 205.211,-175.107 213.734,-173.955"/>
<polygon fill="midnightblue" stroke="midnightblue" points="214.258,-177.416 223.7,-172.608 213.321,-170.479 214.258,-177.416"/>
</g>
<!-- Node4 -->
<g id="node4" class="node"><title>Node4</title>
<g id="a_node4"><a xlink:href="../../de/d8d/classviewcontroller_1_1commands_1_1_command_prompt_view_controller.html#afc397f419037ca0ec30bdc6e93667e86" target="_top" xlink:title="viewcontroller.commands.\lCommandPromptViewController.pass\lCommandToModel">
<polygon fill="white" stroke="black" points="448.5,-139.5 448.5,-180.5 643.5,-180.5 643.5,-139.5 448.5,-139.5"/>
<text text-anchor="start" x="456.5" y="-168.5" font-family="Helvetica,sans-Serif" font-size="10.00">viewcontroller.commands.</text>
<text text-anchor="start" x="456.5" y="-157.5" font-family="Helvetica,sans-Serif" font-size="10.00">CommandPromptViewController.pass</text>
<text text-anchor="middle" x="546" y="-146.5" font-family="Helvetica,sans-Serif" font-size="10.00">CommandToModel</text>
</a>
</g>
</g>
<!-- Node3&#45;&gt;Node4 -->
<g id="edge3" class="edge"><title>Node3&#45;&gt;Node4</title>
<path fill="none" stroke="midnightblue" d="M412.228,-160C420.792,-160 429.513,-160 438.185,-160"/>
<polygon fill="midnightblue" stroke="midnightblue" points="438.331,-163.5 448.331,-160 438.331,-156.5 438.331,-163.5"/>
</g>
<!-- Node5 -->
<g id="node5" class="node"><title>Node5</title>
<g id="a_node5"><a xlink:href="../../d0/d7c/classviewcontroller_1_1commands_1_1_command_window_container_view_controller.html#a0d7c2e3db2080741b7b01b42a0294695" target="_top" xlink:title="viewcontroller.commands.\lCommandWindowContainerViewController.pass\lSLogoCommand">
<polygon fill="white" stroke="black" points="680,-139.5 680,-180.5 922,-180.5 922,-139.5 680,-139.5"/>
<text text-anchor="start" x="688" y="-168.5" font-family="Helvetica,sans-Serif" font-size="10.00">viewcontroller.commands.</text>
<text text-anchor="start" x="688" y="-157.5" font-family="Helvetica,sans-Serif" font-size="10.00">CommandWindowContainerViewController.pass</text>
<text text-anchor="middle" x="801" y="-146.5" font-family="Helvetica,sans-Serif" font-size="10.00">SLogoCommand</text>
</a>
</g>
</g>
<!-- Node4&#45;&gt;Node5 -->
<g id="edge4" class="edge"><title>Node4&#45;&gt;Node5</title>
<path fill="none" stroke="midnightblue" d="M643.731,-160C652.254,-160 660.967,-160 669.705,-160"/>
<polygon fill="midnightblue" stroke="midnightblue" points="669.964,-163.5 679.964,-160 669.964,-156.5 669.964,-163.5"/>
</g>
<!-- Node6 -->
<g id="node6" class="node"><title>Node6</title>
<g id="a_node6"><a xlink:href="../../d3/d67/classviewcontroller_1_1_main_view_controller.html#a1b77a34d9385ff9296a9dc1db8c322cb" target="_top" xlink:title="viewcontroller.MainViewController.pass\lSLogoCommand">
<polygon fill="white" stroke="black" points="958,-145 958,-175 1158,-175 1158,-145 958,-145"/>
<text text-anchor="start" x="966" y="-163" font-family="Helvetica,sans-Serif" font-size="10.00">viewcontroller.MainViewController.pass</text>
<text text-anchor="middle" x="1058" y="-152" font-family="Helvetica,sans-Serif" font-size="10.00">SLogoCommand</text>
</a>
</g>
</g>
<!-- Node5&#45;&gt;Node6 -->
<g id="edge5" class="edge"><title>Node5&#45;&gt;Node6</title>
<path fill="none" stroke="midnightblue" d="M922.033,-160C930.574,-160 939.16,-160 947.636,-160"/>
<polygon fill="midnightblue" stroke="midnightblue" points="947.911,-163.5 957.911,-160 947.911,-156.5 947.911,-163.5"/>
</g>
<!-- Node7 -->
<g id="node7" class="node"><title>Node7</title>
<g id="a_node7"><a xlink:href="../../de/d21/classmodel_1_1_main_model.html#a96f4ff9f640f14d713c5d90ab5704884" target="_top" xlink:title="model.MainModel.interpret\lSLogoCommand">
<polygon fill="white" stroke="black" points="1194.5,-145 1194.5,-175 1339.5,-175 1339.5,-145 1194.5,-145"/>
<text text-anchor="start" x="1202.5" y="-163" font-family="Helvetica,sans-Serif" font-size="10.00">model.MainModel.interpret</text>
<text text-anchor="middle" x="1267" y="-152" font-family="Helvetica,sans-Serif" font-size="10.00">SLogoCommand</text>
</a>
</g>
</g>
<!-- Node6&#45;&gt;Node7 -->
<g id="edge6" class="edge"><title>Node6&#45;&gt;Node7</title>
<path fill="none" stroke="midnightblue" d="M1158.26,-160C1166.89,-160 1175.56,-160 1184.03,-160"/>
<polygon fill="midnightblue" stroke="midnightblue" points="1184.24,-163.5 1194.24,-160 1184.24,-156.5 1184.24,-163.5"/>
</g>
<!-- Node8 -->
<g id="node8" class="node"><title>Node8</title>
<g id="a_node8"><a xlink:href="../../db/d84/classmodel_1_1_command_history_model.html#a4587f5bb0678f50bfc8bc918d2f28241" target="_top" xlink:title="model.CommandHistoryModel.add\lCommand">
<polygon fill="white" stroke="black" points="1376.5,-238 1376.5,-268 1559.5,-268 1559.5,-238 1376.5,-238"/>
<text text-anchor="start" x="1384.5" y="-256" font-family="Helvetica,sans-Serif" font-size="10.00">model.CommandHistoryModel.add</text>
<text text-anchor="middle" x="1468" y="-245" font-family="Helvetica,sans-Serif" font-size="10.00">Command</text>
</a>
</g>
</g>
<!-- Node7&#45;&gt;Node8 -->
<g id="edge7" class="edge"><title>Node7&#45;&gt;Node8</title>
<path fill="none" stroke="midnightblue" d="M1288.09,-175.201C1309.06,-190.429 1343.36,-213.617 1376,-228 1381.47,-230.412 1387.24,-232.645 1393.1,-234.7"/>
<polygon fill="midnightblue" stroke="midnightblue" points="1392.42,-238.164 1403.02,-237.992 1394.63,-231.52 1392.42,-238.164"/>
</g>
<!-- Node9 -->
<g id="node9" class="node"><title>Node9</title>
<g id="a_node9"><a xlink:href="../../df/df6/classinterpreter_1_1result_1_1_s_logo_result.html#a6047e8ac53bae47b06b7f8daee701c43" target="_top" xlink:title="interpreter.result.SLogo\lResult.getHasError">
<polygon fill="white" stroke="black" points="1403,-189 1403,-219 1533,-219 1533,-189 1403,-189"/>
<text text-anchor="start" x="1411" y="-207" font-family="Helvetica,sans-Serif" font-size="10.00">interpreter.result.SLogo</text>
<text text-anchor="middle" x="1468" y="-196" font-family="Helvetica,sans-Serif" font-size="10.00">Result.getHasError</text>
</a>
</g>
</g>
<!-- Node7&#45;&gt;Node9 -->
<g id="edge8" class="edge"><title>Node7&#45;&gt;Node9</title>
<path fill="none" stroke="midnightblue" d="M1335.93,-175.019C1354.25,-179.071 1374.17,-183.475 1392.82,-187.598"/>
<polygon fill="midnightblue" stroke="midnightblue" points="1392.21,-191.049 1402.73,-189.79 1393.73,-184.214 1392.21,-191.049"/>
</g>
<!-- Node10 -->
<g id="node10" class="node"><title>Node10</title>
<g id="a_node10"><a xlink:href="../../d2/dc7/classinterpreter_1_1_interpreter.html#a2398aed9ce5fd0631e4a61eb0ae7e3eb" target="_top" xlink:title="interpreter.Interpreter.interpret">
<polygon fill="white" stroke="black" points="1386,-150.5 1386,-169.5 1550,-169.5 1550,-150.5 1386,-150.5"/>
<text text-anchor="middle" x="1468" y="-157.5" font-family="Helvetica,sans-Serif" font-size="10.00">interpreter.Interpreter.interpret</text>
</a>
</g>
</g>
<!-- Node7&#45;&gt;Node10 -->
<g id="edge9" class="edge"><title>Node7&#45;&gt;Node10</title>
<path fill="none" stroke="midnightblue" d="M1339.56,-160C1351.31,-160 1363.63,-160 1375.78,-160"/>
<polygon fill="midnightblue" stroke="midnightblue" points="1375.94,-163.5 1385.94,-160 1375.94,-156.5 1375.94,-163.5"/>
</g>
<!-- Node31 -->
<g id="node31" class="node"><title>Node31</title>
<g id="a_node31"><a xlink:href="../../de/d21/classmodel_1_1_main_model.html#a81fd23aa152cf9311abb569fa3c656fb" target="_top" xlink:title="model.MainModel.notifyObservers">
<polygon fill="white" stroke="black" points="1378.5,-112.5 1378.5,-131.5 1557.5,-131.5 1557.5,-112.5 1378.5,-112.5"/>
<text text-anchor="middle" x="1468" y="-119.5" font-family="Helvetica,sans-Serif" font-size="10.00">model.MainModel.notifyObservers</text>
</a>
</g>
</g>
<!-- Node7&#45;&gt;Node31 -->
<g id="edge30" class="edge"><title>Node7&#45;&gt;Node31</title>
<path fill="none" stroke="midnightblue" d="M1339.56,-146.335C1361.78,-142.092 1386.03,-137.462 1407.35,-133.391"/>
<polygon fill="midnightblue" stroke="midnightblue" points="1408.07,-136.816 1417.24,-131.503 1406.76,-129.94 1408.07,-136.816"/>
</g>
<!-- Node32 -->
<g id="node32" class="node"><title>Node32</title>
<g id="a_node32"><a xlink:href="../../de/d21/classmodel_1_1_main_model.html#a1863b9ce1cc6b16b0e03dbfc73f51314" target="_top" xlink:title="model.MainModel.updateModel">
<polygon fill="white" stroke="black" points="1385,-61.5 1385,-80.5 1551,-80.5 1551,-61.5 1385,-61.5"/>
<text text-anchor="middle" x="1468" y="-68.5" font-family="Helvetica,sans-Serif" font-size="10.00">model.MainModel.updateModel</text>
</a>
</g>
</g>
<!-- Node7&#45;&gt;Node32 -->
<g id="edge31" class="edge"><title>Node7&#45;&gt;Node32</title>
<path fill="none" stroke="midnightblue" d="M1294.09,-144.832C1315.64,-132.65 1347.25,-115.562 1376,-103 1392.27,-95.8933 1410.66,-89.1856 1426.64,-83.7648"/>
<polygon fill="midnightblue" stroke="midnightblue" points="1427.85,-87.0492 1436.23,-80.5638 1425.64,-80.4091 1427.85,-87.0492"/>
</g>
<!-- Node11 -->
<g id="node11" class="node"><title>Node11</title>
<g id="a_node11"><a xlink:href="../../da/de4/classinterpreter_1_1_expression_evaluator.html#a349369ee222f83e4370c70b449844139" target="_top" xlink:title="interpreter.ExpressionEvaluator.evaluate\lExpressionsAndMerge">
<polygon fill="white" stroke="black" points="1596,-145 1596,-175 1806,-175 1806,-145 1596,-145"/>
<text text-anchor="start" x="1604" y="-163" font-family="Helvetica,sans-Serif" font-size="10.00">interpreter.ExpressionEvaluator.evaluate</text>
<text text-anchor="middle" x="1701" y="-152" font-family="Helvetica,sans-Serif" font-size="10.00">ExpressionsAndMerge</text>
</a>
</g>
</g>
<!-- Node10&#45;&gt;Node11 -->
<g id="edge10" class="edge"><title>Node10&#45;&gt;Node11</title>
<path fill="none" stroke="midnightblue" d="M1550.12,-160C1561.7,-160 1573.78,-160 1585.85,-160"/>
<polygon fill="midnightblue" stroke="midnightblue" points="1585.97,-163.5 1595.97,-160 1585.97,-156.5 1585.97,-163.5"/>
</g>
<!-- Node17 -->
<g id="node17" class="node"><title>Node17</title>
<g id="a_node17"><a xlink:href="../../d3/da2/classinterpreter_1_1_parser.html#a27e67bfe24e33d6ac58aa3b482cd0f07" target="_top" xlink:title="interpreter.Parser.parse\lSLogoExpression">
<polygon fill="white" stroke="black" points="1636.5,-262 1636.5,-292 1765.5,-292 1765.5,-262 1636.5,-262"/>
<text text-anchor="start" x="1644.5" y="-280" font-family="Helvetica,sans-Serif" font-size="10.00">interpreter.Parser.parse</text>
<text text-anchor="middle" x="1701" y="-269" font-family="Helvetica,sans-Serif" font-size="10.00">SLogoExpression</text>
</a>
</g>
</g>
<!-- Node10&#45;&gt;Node17 -->
<g id="edge16" class="edge"><title>Node10&#45;&gt;Node17</title>
<path fill="none" stroke="midnightblue" d="M1531.72,-169.597C1541.39,-172.069 1551.11,-175.155 1560,-179 1604.42,-198.215 1649.07,-232.733 1675.63,-255.25"/>
<polygon fill="midnightblue" stroke="midnightblue" points="1673.41,-257.954 1683.27,-261.823 1677.97,-252.648 1673.41,-257.954"/>
</g>
<!-- Node12 -->
<g id="node12" class="node"><title>Node12</title>
<g id="a_node12"><a xlink:href="../../d6/d76/classinterpreter_1_1_s_logo_result_merger.html#a706aced67e4d219faa11f9821fef9000" target="_top" xlink:title="interpreter.SLogoResultMerger.append">
<polygon fill="white" stroke="black" points="1842,-125.5 1842,-144.5 2042,-144.5 2042,-125.5 1842,-125.5"/>
<text text-anchor="middle" x="1942" y="-132.5" font-family="Helvetica,sans-Serif" font-size="10.00">interpreter.SLogoResultMerger.append</text>
</a>
</g>
</g>
<!-- Node11&#45;&gt;Node12 -->
<g id="edge11" class="edge"><title>Node11&#45;&gt;Node12</title>
<path fill="none" stroke="midnightblue" d="M1806.13,-149.107C1817.31,-147.939 1828.66,-146.751 1839.8,-145.586"/>
<polygon fill="midnightblue" stroke="midnightblue" points="1840.37,-149.045 1849.95,-144.524 1839.64,-142.083 1840.37,-149.045"/>
</g>
<!-- Node13 -->
<g id="node13" class="node"><title>Node13</title>
<g id="a_node13"><a xlink:href="../../d6/d76/classinterpreter_1_1_s_logo_result_merger.html#a8c0879f8ab9d66e54b0317229ee6aa77" target="_top" xlink:title="interpreter.SLogoResultMerger.merge\lAndReturn">
<polygon fill="white" stroke="black" points="1844,-164 1844,-194 2040,-194 2040,-164 1844,-164"/>
<text text-anchor="start" x="1852" y="-182" font-family="Helvetica,sans-Serif" font-size="10.00">interpreter.SLogoResultMerger.merge</text>
<text text-anchor="middle" x="1942" y="-171" font-family="Helvetica,sans-Serif" font-size="10.00">AndReturn</text>
</a>
</g>
</g>
<!-- Node11&#45;&gt;Node13 -->
<g id="edge12" class="edge"><title>Node11&#45;&gt;Node13</title>
<path fill="none" stroke="midnightblue" d="M1806.13,-168.278C1815.37,-169.013 1824.73,-169.757 1834,-170.493"/>
<polygon fill="midnightblue" stroke="midnightblue" points="1833.75,-173.985 1843.99,-171.288 1834.3,-167.007 1833.75,-173.985"/>
</g>
<!-- Node14 -->
<g id="node14" class="node"><title>Node14</title>
<g id="a_node14"><a xlink:href="../../df/df6/classinterpreter_1_1result_1_1_s_logo_result.html#a11062748597af4f6622d9cbc92d4d9c0" target="_top" xlink:title="interpreter.result.SLogo\lResult.getTransition">
<polygon fill="white" stroke="black" points="2103,-57 2103,-87 2233,-87 2233,-57 2103,-57"/>
<text text-anchor="start" x="2111" y="-75" font-family="Helvetica,sans-Serif" font-size="10.00">interpreter.result.SLogo</text>
<text text-anchor="middle" x="2168" y="-64" font-family="Helvetica,sans-Serif" font-size="10.00">Result.getTransition</text>
</a>
</g>
</g>
<!-- Node13&#45;&gt;Node14 -->
<g id="edge13" class="edge"><title>Node13&#45;&gt;Node14</title>
<path fill="none" stroke="midnightblue" d="M2015.42,-163.951C2024.54,-161.118 2033.61,-157.819 2042,-154 2059.73,-145.93 2061.8,-139.81 2078,-129 2096.59,-116.6 2117.63,-103.1 2134.59,-92.3513"/>
<polygon fill="midnightblue" stroke="midnightblue" points="2136.46,-95.3047 2143.04,-87.0019 2132.72,-89.3883 2136.46,-95.3047"/>
</g>
<!-- Node15 -->
<g id="node15" class="node"><title>Node15</title>
<g id="a_node15"><a xlink:href="../../df/df6/classinterpreter_1_1result_1_1_s_logo_result.html#a7e050bbb65d7c7eb5e9b9970c6e2616f" target="_top" xlink:title="interpreter.result.SLogo\lResult.getValue">
<polygon fill="white" stroke="black" points="2103,-188 2103,-218 2233,-218 2233,-188 2103,-188"/>
<text text-anchor="start" x="2111" y="-206" font-family="Helvetica,sans-Serif" font-size="10.00">interpreter.result.SLogo</text>
<text text-anchor="middle" x="2168" y="-195" font-family="Helvetica,sans-Serif" font-size="10.00">Result.getValue</text>
</a>
</g>
</g>
<!-- Node13&#45;&gt;Node15 -->
<g id="edge14" class="edge"><title>Node13&#45;&gt;Node15</title>
<path fill="none" stroke="midnightblue" d="M2040.27,-189.422C2057.77,-191.297 2075.76,-193.225 2092.49,-195.017"/>
<polygon fill="midnightblue" stroke="midnightblue" points="2092.41,-198.529 2102.73,-196.114 2093.16,-191.568 2092.41,-198.529"/>
</g>
<!-- Node16 -->
<g id="node16" class="node"><title>Node16</title>
<g id="a_node16"><a xlink:href="../../df/df6/classinterpreter_1_1result_1_1_s_logo_result.html#ade0879b3224a3216bf17e17e25bfd4ca" target="_top" xlink:title="interpreter.result.SLogo\lResult.setValue">
<polygon fill="white" stroke="black" points="2103,-139 2103,-169 2233,-169 2233,-139 2103,-139"/>
<text text-anchor="start" x="2111" y="-157" font-family="Helvetica,sans-Serif" font-size="10.00">interpreter.result.SLogo</text>
<text text-anchor="middle" x="2168" y="-146" font-family="Helvetica,sans-Serif" font-size="10.00">Result.setValue</text>
</a>
</g>
</g>
<!-- Node13&#45;&gt;Node16 -->
<g id="edge15" class="edge"><title>Node13&#45;&gt;Node16</title>
<path fill="none" stroke="midnightblue" d="M2040.27,-168.144C2057.77,-166.19 2075.76,-164.183 2092.49,-162.316"/>
<polygon fill="midnightblue" stroke="midnightblue" points="2093.18,-165.761 2102.73,-161.173 2092.4,-158.804 2093.18,-165.761"/>
</g>
<!-- Node18 -->
<g id="node18" class="node"><title>Node18</title>
<g id="a_node18"><a xlink:href="../../d3/da2/classinterpreter_1_1_parser.html#aa6ccb9df4d2405de8b559ebf6fdf9c51" target="_top" xlink:title="interpreter.Parser.loadAll\lExpressionParameters">
<polygon fill="white" stroke="black" points="1875,-311 1875,-341 2009,-341 2009,-311 1875,-311"/>
<text text-anchor="start" x="1883" y="-329" font-family="Helvetica,sans-Serif" font-size="10.00">interpreter.Parser.loadAll</text>
<text text-anchor="middle" x="1942" y="-318" font-family="Helvetica,sans-Serif" font-size="10.00">ExpressionParameters</text>
</a>
</g>
</g>
<!-- Node17&#45;&gt;Node18 -->
<g id="edge17" class="edge"><title>Node17&#45;&gt;Node18</title>
<path fill="none" stroke="midnightblue" d="M1765.73,-290.067C1796.18,-296.309 1832.85,-303.827 1864.76,-310.37"/>
<polygon fill="midnightblue" stroke="midnightblue" points="1864.44,-313.877 1874.94,-312.457 1865.85,-307.02 1864.44,-313.877"/>
</g>
<!-- Node20 -->
<g id="node20" class="node"><title>Node20</title>
<g id="a_node20"><a xlink:href="../../d3/da2/classinterpreter_1_1_parser.html#a6ec7d578c175a308702b323914b4cfd0" target="_top" xlink:title="interpreter.Parser.makeExpressions\lFromInput">
<polygon fill="white" stroke="black" points="1849,-262 1849,-292 2035,-292 2035,-262 1849,-262"/>
<text text-anchor="start" x="1857" y="-280" font-family="Helvetica,sans-Serif" font-size="10.00">interpreter.Parser.makeExpressions</text>
<text text-anchor="middle" x="1942" y="-269" font-family="Helvetica,sans-Serif" font-size="10.00">FromInput</text>
</a>
</g>
</g>
<!-- Node17&#45;&gt;Node20 -->
<g id="edge19" class="edge"><title>Node17&#45;&gt;Node20</title>
<path fill="none" stroke="midnightblue" d="M1765.73,-277C1788.1,-277 1813.82,-277 1838.55,-277"/>
<polygon fill="midnightblue" stroke="midnightblue" points="1838.7,-280.5 1848.7,-277 1838.7,-273.5 1838.7,-280.5"/>
</g>
<!-- Node29 -->
<g id="node29" class="node"><title>Node29</title>
<g id="a_node29"><a xlink:href="../../d3/da2/classinterpreter_1_1_parser.html#ace7fbbc85fc2aad57bea2330b0476ef4" target="_top" xlink:title="interpreter.Parser.parse\lOutComments">
<polygon fill="white" stroke="black" points="1877.5,-213 1877.5,-243 2006.5,-243 2006.5,-213 1877.5,-213"/>
<text text-anchor="start" x="1885.5" y="-231" font-family="Helvetica,sans-Serif" font-size="10.00">interpreter.Parser.parse</text>
<text text-anchor="middle" x="1942" y="-220" font-family="Helvetica,sans-Serif" font-size="10.00">OutComments</text>
</a>
</g>
</g>
<!-- Node17&#45;&gt;Node29 -->
<g id="edge28" class="edge"><title>Node17&#45;&gt;Node29</title>
<path fill="none" stroke="midnightblue" d="M1765.73,-263.933C1797.06,-257.51 1834.98,-249.735 1867.53,-243.063"/>
<polygon fill="midnightblue" stroke="midnightblue" points="1868.35,-246.468 1877.44,-241.03 1866.94,-239.61 1868.35,-246.468"/>
</g>
<!-- Node30 -->
<g id="node30" class="node"><title>Node30</title>
<g id="a_node30"><a xlink:href="../../d3/da2/classinterpreter_1_1_parser.html#a2c8ee0acf938cac9cd22ef8fe5c77866" target="_top" xlink:title="interpreter.Parser.process\lInput">
<polygon fill="white" stroke="black" points="1872,-360 1872,-390 2012,-390 2012,-360 1872,-360"/>
<text text-anchor="start" x="1880" y="-378" font-family="Helvetica,sans-Serif" font-size="10.00">interpreter.Parser.process</text>
<text text-anchor="middle" x="1942" y="-367" font-family="Helvetica,sans-Serif" font-size="10.00">Input</text>
</a>
</g>
</g>
<!-- Node17&#45;&gt;Node30 -->
<g id="edge29" class="edge"><title>Node17&#45;&gt;Node30</title>
<path fill="none" stroke="midnightblue" d="M1726.47,-292.011C1753.79,-308.227 1799.73,-333.898 1842,-350 1848.72,-352.56 1855.79,-354.936 1862.95,-357.123"/>
<polygon fill="midnightblue" stroke="midnightblue" points="1862.13,-360.532 1872.71,-359.987 1864.1,-353.815 1862.13,-360.532"/>
</g>
<!-- Node19 -->
<g id="node19" class="node"><title>Node19</title>
<g id="a_node19"><a xlink:href="../../db/d09/interfaceinterpreter_1_1expression_1_1_s_logo_expression.html#a8bb3a17e57258a80b5becf128afaa04c" target="_top" xlink:title="interpreter.expression.SLogo\lExpression.loadArguments">
<polygon fill="white" stroke="black" points="2090.5,-311 2090.5,-341 2245.5,-341 2245.5,-311 2090.5,-311"/>
<text text-anchor="start" x="2098.5" y="-329" font-family="Helvetica,sans-Serif" font-size="10.00">interpreter.expression.SLogo</text>
<text text-anchor="middle" x="2168" y="-318" font-family="Helvetica,sans-Serif" font-size="10.00">Expression.loadArguments</text>
</a>
</g>
</g>
<!-- Node18&#45;&gt;Node19 -->
<g id="edge18" class="edge"><title>Node18&#45;&gt;Node19</title>
<path fill="none" stroke="midnightblue" d="M2009.3,-326C2031.44,-326 2056.45,-326 2079.93,-326"/>
<polygon fill="midnightblue" stroke="midnightblue" points="2080.23,-329.5 2090.23,-326 2080.23,-322.5 2080.23,-329.5"/>
</g>
<!-- Node21 -->
<g id="node21" class="node"><title>Node21</title>
<g id="a_node21"><a xlink:href="../../d8/daa/classinterpreter_1_1_s_logo_expression_factory.html#a50eb077dd9b57f111e60eb7b297b6d29" target="_top" xlink:title="interpreter.SLogoExpression\lFactory.createExpression">
<polygon fill="white" stroke="black" points="2092,-262 2092,-292 2244,-292 2244,-262 2092,-262"/>
<text text-anchor="start" x="2100" y="-280" font-family="Helvetica,sans-Serif" font-size="10.00">interpreter.SLogoExpression</text>
<text text-anchor="middle" x="2168" y="-269" font-family="Helvetica,sans-Serif" font-size="10.00">Factory.createExpression</text>
</a>
</g>
</g>
<!-- Node20&#45;&gt;Node21 -->
<g id="edge20" class="edge"><title>Node20&#45;&gt;Node21</title>
<path fill="none" stroke="midnightblue" d="M2035.08,-277C2050.37,-277 2066.18,-277 2081.31,-277"/>
<polygon fill="midnightblue" stroke="midnightblue" points="2081.66,-280.5 2091.66,-277 2081.66,-273.5 2081.66,-280.5"/>
</g>
<!-- Node22 -->
<g id="node22" class="node"><title>Node22</title>
<g id="a_node22"><a xlink:href="../../d8/daa/classinterpreter_1_1_s_logo_expression_factory.html#af866a871782317ae912240ad2e383bd9" target="_top" xlink:title="interpreter.SLogoExpression\lFactory.checkTypeAndInitialize">
<polygon fill="white" stroke="black" points="2294,-262 2294,-292 2452,-292 2452,-262 2294,-262"/>
<text text-anchor="start" x="2302" y="-280" font-family="Helvetica,sans-Serif" font-size="10.00">interpreter.SLogoExpression</text>
<text text-anchor="middle" x="2373" y="-269" font-family="Helvetica,sans-Serif" font-size="10.00">Factory.checkTypeAndInitialize</text>
</a>
</g>
</g>
<!-- Node21&#45;&gt;Node22 -->
<g id="edge21" class="edge"><title>Node21&#45;&gt;Node22</title>
<path fill="none" stroke="midnightblue" d="M2244.01,-277C2256.97,-277 2270.55,-277 2283.82,-277"/>
<polygon fill="midnightblue" stroke="midnightblue" points="2283.9,-280.5 2293.9,-277 2283.9,-273.5 2283.9,-280.5"/>
</g>
<!-- Node23 -->
<g id="node23" class="node"><title>Node23</title>
<g id="a_node23"><a xlink:href="../../d8/daa/classinterpreter_1_1_s_logo_expression_factory.html#aed195cb1e071e9e87792f7a51242f824" target="_top" xlink:title="interpreter.SLogoExpression\lFactory.initializeExpression">
<polygon fill="white" stroke="black" points="2490,-311 2490,-341 2642,-341 2642,-311 2490,-311"/>
<text text-anchor="start" x="2498" y="-329" font-family="Helvetica,sans-Serif" font-size="10.00">interpreter.SLogoExpression</text>
<text text-anchor="middle" x="2566" y="-318" font-family="Helvetica,sans-Serif" font-size="10.00">Factory.initializeExpression</text>
</a>
</g>
</g>
<!-- Node22&#45;&gt;Node23 -->
<g id="edge22" class="edge"><title>Node22&#45;&gt;Node23</title>
<path fill="none" stroke="midnightblue" d="M2432.6,-292.035C2452.86,-297.232 2475.74,-303.101 2496.71,-308.48"/>
<polygon fill="midnightblue" stroke="midnightblue" points="2495.95,-311.899 2506.51,-310.994 2497.69,-305.119 2495.95,-311.899"/>
</g>
<!-- Node27 -->
<g id="node27" class="node"><title>Node27</title>
<g id="a_node27"><a xlink:href="../../d8/daa/classinterpreter_1_1_s_logo_expression_factory.html#a67c690097a981fbc2bf840c1f619639a" target="_top" xlink:title="interpreter.SLogoExpression\lFactory.isMatch">
<polygon fill="white" stroke="black" points="2490,-262 2490,-292 2642,-292 2642,-262 2490,-262"/>
<text text-anchor="start" x="2498" y="-280" font-family="Helvetica,sans-Serif" font-size="10.00">interpreter.SLogoExpression</text>
<text text-anchor="middle" x="2566" y="-269" font-family="Helvetica,sans-Serif" font-size="10.00">Factory.isMatch</text>
</a>
</g>
</g>
<!-- Node22&#45;&gt;Node27 -->
<g id="edge26" class="edge"><title>Node22&#45;&gt;Node27</title>
<path fill="none" stroke="midnightblue" d="M2452.24,-277C2461.3,-277 2470.57,-277 2479.71,-277"/>
<polygon fill="midnightblue" stroke="midnightblue" points="2479.96,-280.5 2489.96,-277 2479.96,-273.5 2479.96,-280.5"/>
</g>
<!-- Node28 -->
<g id="node28" class="node"><title>Node28</title>
<g id="a_node28"><a xlink:href="../../db/d09/interfaceinterpreter_1_1expression_1_1_s_logo_expression.html#a035636bae1b48baf5732f091a85ca9b1" target="_top" xlink:title="interpreter.expression.SLogo\lExpression.setValue">
<polygon fill="white" stroke="black" points="2488.5,-213 2488.5,-243 2643.5,-243 2643.5,-213 2488.5,-213"/>
<text text-anchor="start" x="2496.5" y="-231" font-family="Helvetica,sans-Serif" font-size="10.00">interpreter.expression.SLogo</text>
<text text-anchor="middle" x="2566" y="-220" font-family="Helvetica,sans-Serif" font-size="10.00">Expression.setValue</text>
</a>
</g>
</g>
<!-- Node22&#45;&gt;Node28 -->
<g id="edge27" class="edge"><title>Node22&#45;&gt;Node28</title>
<path fill="none" stroke="midnightblue" d="M2432.6,-261.965C2452.86,-256.768 2475.74,-250.899 2496.71,-245.52"/>
<polygon fill="midnightblue" stroke="midnightblue" points="2497.69,-248.881 2506.51,-243.006 2495.95,-242.101 2497.69,-248.881"/>
</g>
<!-- Node24 -->
<g id="node24" class="node"><title>Node24</title>
<g id="a_node24"><a xlink:href="../../db/d09/interfaceinterpreter_1_1expression_1_1_s_logo_expression.html#a8dbb9bf4dced75bf7e423cb614958a15" target="_top" xlink:title="interpreter.expression.SLogo\lExpression.loadLibrary">
<polygon fill="white" stroke="black" points="2680.5,-360 2680.5,-390 2835.5,-390 2835.5,-360 2680.5,-360"/>
<text text-anchor="start" x="2688.5" y="-378" font-family="Helvetica,sans-Serif" font-size="10.00">interpreter.expression.SLogo</text>
<text text-anchor="middle" x="2758" y="-367" font-family="Helvetica,sans-Serif" font-size="10.00">Expression.loadLibrary</text>
</a>
</g>
</g>
<!-- Node23&#45;&gt;Node24 -->
<g id="edge23" class="edge"><title>Node23&#45;&gt;Node24</title>
<path fill="none" stroke="midnightblue" d="M2625.3,-341.035C2645.45,-346.232 2668.21,-352.101 2689.06,-357.48"/>
<polygon fill="midnightblue" stroke="midnightblue" points="2688.26,-360.886 2698.81,-359.994 2690,-354.107 2688.26,-360.886"/>
</g>
<!-- Node25 -->
<g id="node25" class="node"><title>Node25</title>
<g id="a_node25"><a xlink:href="../../db/d09/interfaceinterpreter_1_1expression_1_1_s_logo_expression.html#a85984c7b01a9e06a1f4c8d73f7752a48" target="_top" xlink:title="interpreter.expression.SLogo\lExpression.loadModel">
<polygon fill="white" stroke="black" points="2680.5,-311 2680.5,-341 2835.5,-341 2835.5,-311 2680.5,-311"/>
<text text-anchor="start" x="2688.5" y="-329" font-family="Helvetica,sans-Serif" font-size="10.00">interpreter.expression.SLogo</text>
<text text-anchor="middle" x="2758" y="-318" font-family="Helvetica,sans-Serif" font-size="10.00">Expression.loadModel</text>
</a>
</g>
</g>
<!-- Node23&#45;&gt;Node25 -->
<g id="edge24" class="edge"><title>Node23&#45;&gt;Node25</title>
<path fill="none" stroke="midnightblue" d="M2642.09,-326C2651.31,-326 2660.79,-326 2670.16,-326"/>
<polygon fill="midnightblue" stroke="midnightblue" points="2670.27,-329.5 2680.27,-326 2670.27,-322.5 2670.27,-329.5"/>
</g>
<!-- Node26 -->
<g id="node26" class="node"><title>Node26</title>
<g id="a_node26"><a xlink:href="../../db/d09/interfaceinterpreter_1_1expression_1_1_s_logo_expression.html#ae5647ebedeb07edc2902d7cf478107f7" target="_top" xlink:title="interpreter.expression.SLogo\lExpression.setNumArgs">
<polygon fill="white" stroke="black" points="2680.5,-262 2680.5,-292 2835.5,-292 2835.5,-262 2680.5,-262"/>
<text text-anchor="start" x="2688.5" y="-280" font-family="Helvetica,sans-Serif" font-size="10.00">interpreter.expression.SLogo</text>
<text text-anchor="middle" x="2758" y="-269" font-family="Helvetica,sans-Serif" font-size="10.00">Expression.setNumArgs</text>
</a>
</g>
</g>
<!-- Node23&#45;&gt;Node26 -->
<g id="edge25" class="edge"><title>Node23&#45;&gt;Node26</title>
<path fill="none" stroke="midnightblue" d="M2625.3,-310.965C2645.45,-305.768 2668.21,-299.899 2689.06,-294.52"/>
<polygon fill="midnightblue" stroke="midnightblue" points="2690,-297.893 2698.81,-292.006 2688.26,-291.114 2690,-297.893"/>
</g>
<!-- Node32&#45;&gt;Node14 -->
<g id="edge32" class="edge"><title>Node32&#45;&gt;Node14</title>
<path fill="none" stroke="midnightblue" d="M1551.12,-71.1177C1687.96,-71.3137 1960.58,-71.7043 2092.31,-71.893"/>
<polygon fill="midnightblue" stroke="midnightblue" points="2092.69,-75.3935 2102.7,-71.9079 2092.7,-68.3935 2092.69,-75.3935"/>
</g>
<!-- Node33 -->
<g id="node33" class="node"><title>Node33</title>
<g id="a_node33"><a xlink:href="../../de/d21/classmodel_1_1_main_model.html#aad9f626d0b472cbc3d57e8af0c4326cc" target="_top" xlink:title="model.MainModel.setMyAnimation">
<polygon fill="white" stroke="black" points="1610.5,-87.5 1610.5,-106.5 1791.5,-106.5 1791.5,-87.5 1610.5,-87.5"/>
<text text-anchor="middle" x="1701" y="-94.5" font-family="Helvetica,sans-Serif" font-size="10.00">model.MainModel.setMyAnimation</text>
</a>
</g>
</g>
<!-- Node32&#45;&gt;Node33 -->
<g id="edge33" class="edge"><title>Node32&#45;&gt;Node33</title>
<path fill="none" stroke="midnightblue" d="M1551.09,-80.2398C1568.71,-82.2226 1587.46,-84.3331 1605.5,-86.3639"/>
<polygon fill="midnightblue" stroke="midnightblue" points="1605.11,-89.8421 1615.44,-87.4826 1605.9,-82.886 1605.11,-89.8421"/>
</g>
<!-- Node35 -->
<g id="node35" class="node"><title>Node35</title>
<g id="a_node35"><a xlink:href="../../dd/d63/classmodel_1_1_model_updater.html#a08dce6edfc21ceba207d7a534d2bd71c" target="_top" xlink:title="model.ModelUpdater.update\lModel">
<polygon fill="white" stroke="black" points="1624.5,-0 1624.5,-30 1777.5,-30 1777.5,-0 1624.5,-0"/>
<text text-anchor="start" x="1632.5" y="-18" font-family="Helvetica,sans-Serif" font-size="10.00">model.ModelUpdater.update</text>
<text text-anchor="middle" x="1701" y="-7" font-family="Helvetica,sans-Serif" font-size="10.00">Model</text>
</a>
</g>
</g>
<!-- Node32&#45;&gt;Node35 -->
<g id="edge35" class="edge"><title>Node32&#45;&gt;Node35</title>
<path fill="none" stroke="midnightblue" d="M1508.45,-61.4369C1541.23,-53.4886 1588.74,-41.9721 1628.24,-32.3968"/>
<polygon fill="midnightblue" stroke="midnightblue" points="1629.2,-35.7651 1638.09,-30.0075 1627.55,-28.9621 1629.2,-35.7651"/>
</g>
<!-- Node34 -->
<g id="node34" class="node"><title>Node34</title>
<g id="a_node34"><a xlink:href="../../d4/d57/classturtle_1_1_turtle_list_history.html#a1d6e950f470e133d79684a9c3baf54b4" target="_top" xlink:title="turtle.TurtleListHistory.updateList">
<polygon fill="white" stroke="black" points="1855.5,-87.5 1855.5,-106.5 2028.5,-106.5 2028.5,-87.5 1855.5,-87.5"/>
<text text-anchor="middle" x="1942" y="-94.5" font-family="Helvetica,sans-Serif" font-size="10.00">turtle.TurtleListHistory.updateList</text>
</a>
</g>
</g>
<!-- Node33&#45;&gt;Node34 -->
<g id="edge34" class="edge"><title>Node33&#45;&gt;Node34</title>
<path fill="none" stroke="midnightblue" d="M1791.67,-97C1809.06,-97 1827.34,-97 1844.92,-97"/>
<polygon fill="midnightblue" stroke="midnightblue" points="1845.18,-100.5 1855.18,-97 1845.18,-93.5001 1845.18,-100.5"/>
</g>
<!-- Node36 -->
<g id="node36" class="node"><title>Node36</title>
<g id="a_node36"><a xlink:href="../../dd/d63/classmodel_1_1_model_updater.html#ad73b783b59545c68e1fb9123e44492d4" target="_top" xlink:title="model.ModelUpdater.create\lTurtleTransitionMapping">
<polygon fill="white" stroke="black" points="1867,-0 1867,-30 2017,-30 2017,-0 1867,-0"/>
<text text-anchor="start" x="1875" y="-18" font-family="Helvetica,sans-Serif" font-size="10.00">model.ModelUpdater.create</text>
<text text-anchor="middle" x="1942" y="-7" font-family="Helvetica,sans-Serif" font-size="10.00">TurtleTransitionMapping</text>
</a>
</g>
</g>
<!-- Node35&#45;&gt;Node36 -->
<g id="edge36" class="edge"><title>Node35&#45;&gt;Node36</title>
<path fill="none" stroke="midnightblue" d="M1777.62,-15C1802.73,-15 1830.85,-15 1856.58,-15"/>
<polygon fill="midnightblue" stroke="midnightblue" points="1856.69,-18.5001 1866.69,-15 1856.69,-11.5001 1856.69,-18.5001"/>
</g>
<!-- Node37 -->
<g id="node37" class="node"><title>Node37</title>
<g id="a_node37"><a xlink:href="../../dd/d63/classmodel_1_1_model_updater.html#a44e91f3e31045ca0a067ffe9d270ab29" target="_top" xlink:title="model.ModelUpdater.findSelected\lTurtles">
<polygon fill="white" stroke="black" points="2078.5,-0 2078.5,-30 2257.5,-30 2257.5,-0 2078.5,-0"/>
<text text-anchor="start" x="2086.5" y="-18" font-family="Helvetica,sans-Serif" font-size="10.00">model.ModelUpdater.findSelected</text>
<text text-anchor="middle" x="2168" y="-7" font-family="Helvetica,sans-Serif" font-size="10.00">Turtles</text>
</a>
</g>
</g>
<!-- Node36&#45;&gt;Node37 -->
<g id="edge37" class="edge"><title>Node36&#45;&gt;Node37</title>
<path fill="none" stroke="midnightblue" d="M2017.28,-15C2033.41,-15 2050.73,-15 2067.66,-15"/>
<polygon fill="midnightblue" stroke="midnightblue" points="2068.14,-18.5001 2078.14,-15 2068.14,-11.5001 2068.14,-18.5001"/>
</g>
</g>
</svg>
