<?xml version="1.0" encoding="UTF-8" standalone="no"?>
<!DOCTYPE svg PUBLIC "-//W3C//DTD SVG 1.1//EN"
 "http://www.w3.org/Graphics/SVG/1.1/DTD/svg11.dtd">
<!-- Generated by graphviz version 2.36.0 (20140111.2315)
 -->
<!-- Title: viewcontroller.commands.CommandPromptViewController.applyTranslations Pages: 1 -->
<svg width="416pt" height="48pt"
 viewBox="0.00 0.00 416.00 48.00" xmlns="http://www.w3.org/2000/svg" xmlns:xlink="http://www.w3.org/1999/xlink">
<g id="graph0" class="graph" transform="scale(1 1) rotate(0) translate(4 44)">
<title>viewcontroller.commands.CommandPromptViewController.applyTranslations</title>
<polygon fill="white" stroke="none" points="-4,4 -4,-44 412,-44 412,4 -4,4"/>
<!-- Node1 -->
<g id="node1" class="node"><title>Node1</title>
<polygon fill="#bfbfbf" stroke="black" points="0,0.5 0,-40.5 198,-40.5 198,0.5 0,0.5"/>
<text text-anchor="start" x="8" y="-28.5" font-family="Helvetica,sans-Serif" font-size="10.00">viewcontroller.commands.</text>
<text text-anchor="start" x="8" y="-17.5" font-family="Helvetica,sans-Serif" font-size="10.00">CommandPromptViewController.apply</text>
<text text-anchor="middle" x="99" y="-6.5" font-family="Helvetica,sans-Serif" font-size="10.00">Translations</text>
</g>
<!-- Node2 -->
<g id="node2" class="node"><title>Node2</title>
<g id="a_node2"><a xlink:href="../../de/d8d/classviewcontroller_1_1commands_1_1_command_prompt_view_controller.html#a7e92ce4136e77a153ee6ef862f99052a" target="_top" xlink:title="viewcontroller.commands.\lCommandPromptViewController.\lCommandPromptViewController">
<polygon fill="white" stroke="black" points="234.5,0.5 234.5,-40.5 407.5,-40.5 407.5,0.5 234.5,0.5"/>
<text text-anchor="start" x="242.5" y="-28.5" font-family="Helvetica,sans-Serif" font-size="10.00">viewcontroller.commands.</text>
<text text-anchor="start" x="242.5" y="-17.5" font-family="Helvetica,sans-Serif" font-size="10.00">CommandPromptViewController.</text>
<text text-anchor="middle" x="321" y="-6.5" font-family="Helvetica,sans-Serif" font-size="10.00">CommandPromptViewController</text>
</a>
</g>
</g>
<!-- Node1&#45;&gt;Node2 -->
<g id="edge1" class="edge"><title>Node1&#45;&gt;Node2</title>
<path fill="none" stroke="midnightblue" d="M208.281,-20C216.973,-20 225.679,-20 234.182,-20"/>
<polygon fill="midnightblue" stroke="midnightblue" points="208.097,-16.5001 198.097,-20 208.097,-23.5001 208.097,-16.5001"/>
</g>
</g>
</svg>
