<?xml version="1.0" encoding="UTF-8" standalone="no"?>
<!DOCTYPE svg PUBLIC "-//W3C//DTD SVG 1.1//EN"
 "http://www.w3.org/Graphics/SVG/1.1/DTD/svg11.dtd">
<!-- Generated by graphviz version 2.36.0 (20140111.2315)
 -->
<!-- Title: viewcontroller.commands.CommandPromptViewController.getNode Pages: 1 -->
<svg width="760pt" height="48pt"
 viewBox="0.00 0.00 760.00 48.00" xmlns="http://www.w3.org/2000/svg" xmlns:xlink="http://www.w3.org/1999/xlink">
<g id="graph0" class="graph" transform="scale(1 1) rotate(0) translate(4 44)">
<title>viewcontroller.commands.CommandPromptViewController.getNode</title>
<polygon fill="white" stroke="none" points="-4,4 -4,-44 756,-44 756,4 -4,4"/>
<!-- Node1 -->
<g id="node1" class="node"><title>Node1</title>
<polygon fill="#bfbfbf" stroke="black" points="0,-5 0,-35 214,-35 214,-5 0,-5"/>
<text text-anchor="start" x="8" y="-23" font-family="Helvetica,sans-Serif" font-size="10.00">viewcontroller.commands.</text>
<text text-anchor="middle" x="107" y="-12" font-family="Helvetica,sans-Serif" font-size="10.00">CommandPromptViewController.getNode</text>
</g>
<!-- Node2 -->
<g id="node2" class="node"><title>Node2</title>
<g id="a_node2"><a xlink:href="../../d0/d7c/classviewcontroller_1_1commands_1_1_command_window_container_view_controller.html#a4b22dc9a991f9a307ce4331ebc288f7f" target="_top" xlink:title="viewcontroller.commands.\lCommandWindowContainerViewController.place\lCommandWindows">
<polygon fill="white" stroke="black" points="250.5,0.5 250.5,-40.5 495.5,-40.5 495.5,0.5 250.5,0.5"/>
<text text-anchor="start" x="258.5" y="-28.5" font-family="Helvetica,sans-Serif" font-size="10.00">viewcontroller.commands.</text>
<text text-anchor="start" x="258.5" y="-17.5" font-family="Helvetica,sans-Serif" font-size="10.00">CommandWindowContainerViewController.place</text>
<text text-anchor="middle" x="373" y="-6.5" font-family="Helvetica,sans-Serif" font-size="10.00">CommandWindows</text>
</a>
</g>
</g>
<!-- Node1&#45;&gt;Node2 -->
<g id="edge1" class="edge"><title>Node1&#45;&gt;Node2</title>
<path fill="none" stroke="midnightblue" d="M224.332,-20C232.973,-20 241.706,-20 250.378,-20"/>
<polygon fill="midnightblue" stroke="midnightblue" points="224.238,-16.5001 214.238,-20 224.238,-23.5001 224.238,-16.5001"/>
</g>
<!-- Node3 -->
<g id="node3" class="node"><title>Node3</title>
<g id="a_node3"><a xlink:href="../../d0/d7c/classviewcontroller_1_1commands_1_1_command_window_container_view_controller.html#a00c0cfff2fbbb87ce16e3fa7f125277f" target="_top" xlink:title="viewcontroller.commands.\lCommandWindowContainerViewController.\lCommandWindowContainerViewController">
<polygon fill="white" stroke="black" points="532.5,0.5 532.5,-40.5 751.5,-40.5 751.5,0.5 532.5,0.5"/>
<text text-anchor="start" x="540.5" y="-28.5" font-family="Helvetica,sans-Serif" font-size="10.00">viewcontroller.commands.</text>
<text text-anchor="start" x="540.5" y="-17.5" font-family="Helvetica,sans-Serif" font-size="10.00">CommandWindowContainerViewController.</text>
<text text-anchor="middle" x="642" y="-6.5" font-family="Helvetica,sans-Serif" font-size="10.00">CommandWindowContainerViewController</text>
</a>
</g>
</g>
<!-- Node2&#45;&gt;Node3 -->
<g id="edge2" class="edge"><title>Node2&#45;&gt;Node3</title>
<path fill="none" stroke="midnightblue" d="M505.842,-20C514.766,-20 523.7,-20 532.484,-20"/>
<polygon fill="midnightblue" stroke="midnightblue" points="505.78,-16.5001 495.78,-20 505.78,-23.5001 505.78,-16.5001"/>
</g>
</g>
</svg>
