<?xml version="1.0" encoding="UTF-8" standalone="no"?>
<!DOCTYPE svg PUBLIC "-//W3C//DTD SVG 1.1//EN"
 "http://www.w3.org/Graphics/SVG/1.1/DTD/svg11.dtd">
<!-- Generated by graphviz version 2.36.0 (20140111.2315)
 -->
<!-- Title: viewcontroller.commands.CommandPromptViewController.setUpSubmitButton Pages: 1 -->
<svg width="630pt" height="48pt"
 viewBox="0.00 0.00 630.00 48.00" xmlns="http://www.w3.org/2000/svg" xmlns:xlink="http://www.w3.org/1999/xlink">
<g id="graph0" class="graph" transform="scale(1 1) rotate(0) translate(4 44)">
<title>viewcontroller.commands.CommandPromptViewController.setUpSubmitButton</title>
<polygon fill="white" stroke="none" points="-4,4 -4,-44 626,-44 626,4 -4,4"/>
<!-- Node1 -->
<g id="node1" class="node"><title>Node1</title>
<polygon fill="#bfbfbf" stroke="black" points="0,0.5 0,-40.5 188,-40.5 188,0.5 0,0.5"/>
<text text-anchor="start" x="8" y="-28.5" font-family="Helvetica,sans-Serif" font-size="10.00">viewcontroller.commands.</text>
<text text-anchor="start" x="8" y="-17.5" font-family="Helvetica,sans-Serif" font-size="10.00">CommandPromptViewController.set</text>
<text text-anchor="middle" x="94" y="-6.5" font-family="Helvetica,sans-Serif" font-size="10.00">UpSubmitButton</text>
</g>
<!-- Node2 -->
<g id="node2" class="node"><title>Node2</title>
<g id="a_node2"><a xlink:href="../../de/d8d/classviewcontroller_1_1commands_1_1_command_prompt_view_controller.html#a6931239ae66e9bb6ebfa794b7dada7b5" target="_top" xlink:title="viewcontroller.commands.\lCommandPromptViewController.set\lUpCommandPromptHorizontalBox">
<polygon fill="white" stroke="black" points="224,0.5 224,-40.5 412,-40.5 412,0.5 224,0.5"/>
<text text-anchor="start" x="232" y="-28.5" font-family="Helvetica,sans-Serif" font-size="10.00">viewcontroller.commands.</text>
<text text-anchor="start" x="232" y="-17.5" font-family="Helvetica,sans-Serif" font-size="10.00">CommandPromptViewController.set</text>
<text text-anchor="middle" x="318" y="-6.5" font-family="Helvetica,sans-Serif" font-size="10.00">UpCommandPromptHorizontalBox</text>
</a>
</g>
</g>
<!-- Node1&#45;&gt;Node2 -->
<g id="edge1" class="edge"><title>Node1&#45;&gt;Node2</title>
<path fill="none" stroke="midnightblue" d="M198.425,-20C206.857,-20 215.347,-20 223.7,-20"/>
<polygon fill="midnightblue" stroke="midnightblue" points="198.183,-16.5001 188.183,-20 198.183,-23.5001 198.183,-16.5001"/>
</g>
<!-- Node3 -->
<g id="node3" class="node"><title>Node3</title>
<g id="a_node3"><a xlink:href="../../de/d8d/classviewcontroller_1_1commands_1_1_command_prompt_view_controller.html#a7e92ce4136e77a153ee6ef862f99052a" target="_top" xlink:title="viewcontroller.commands.\lCommandPromptViewController.\lCommandPromptViewController">
<polygon fill="white" stroke="black" points="448.5,0.5 448.5,-40.5 621.5,-40.5 621.5,0.5 448.5,0.5"/>
<text text-anchor="start" x="456.5" y="-28.5" font-family="Helvetica,sans-Serif" font-size="10.00">viewcontroller.commands.</text>
<text text-anchor="start" x="456.5" y="-17.5" font-family="Helvetica,sans-Serif" font-size="10.00">CommandPromptViewController.</text>
<text text-anchor="middle" x="535" y="-6.5" font-family="Helvetica,sans-Serif" font-size="10.00">CommandPromptViewController</text>
</a>
</g>
</g>
<!-- Node2&#45;&gt;Node3 -->
<g id="edge2" class="edge"><title>Node2&#45;&gt;Node3</title>
<path fill="none" stroke="midnightblue" d="M422.246,-20C430.957,-20 439.705,-20 448.261,-20"/>
<polygon fill="midnightblue" stroke="midnightblue" points="422.052,-16.5001 412.052,-20 422.052,-23.5001 422.052,-16.5001"/>
</g>
</g>
</svg>
