<?xml version="1.0" encoding="UTF-8" standalone="no"?>
<!DOCTYPE svg PUBLIC "-//W3C//DTD SVG 1.1//EN"
 "http://www.w3.org/Graphics/SVG/1.1/DTD/svg11.dtd">
<!-- Generated by graphviz version 2.36.0 (20140111.2315)
 -->
<!-- Title: model.UserDefinedVariablesModel.remove Pages: 1 -->
<svg width="356pt" height="38pt"
 viewBox="0.00 0.00 356.00 38.00" xmlns="http://www.w3.org/2000/svg" xmlns:xlink="http://www.w3.org/1999/xlink">
<g id="graph0" class="graph" transform="scale(1 1) rotate(0) translate(4 34)">
<title>model.UserDefinedVariablesModel.remove</title>
<polygon fill="white" stroke="none" points="-4,4 -4,-34 352,-34 352,4 -4,4"/>
<!-- Node1 -->
<g id="node1" class="node"><title>Node1</title>
<polygon fill="#bfbfbf" stroke="black" points="0,-0 0,-30 152,-30 152,-0 0,-0"/>
<text text-anchor="start" x="8" y="-18" font-family="Helvetica,sans-Serif" font-size="10.00">model.UserDefinedVariables</text>
<text text-anchor="middle" x="76" y="-7" font-family="Helvetica,sans-Serif" font-size="10.00">Model.remove</text>
</g>
<!-- Node2 -->
<g id="node2" class="node"><title>Node2</title>
<g id="a_node2"><a xlink:href="../../d3/de6/classinterpreter_1_1expression_1_1syntax_1_1_command.html#a6122e37c1c79a41ce734d9ecc07d51ba" target="_top" xlink:title="interpreter.expression.syntax.\lCommand.evaluate">
<polygon fill="white" stroke="black" points="188.5,-0 188.5,-30 347.5,-30 347.5,-0 188.5,-0"/>
<text text-anchor="start" x="196.5" y="-18" font-family="Helvetica,sans-Serif" font-size="10.00">interpreter.expression.syntax.</text>
<text text-anchor="middle" x="268" y="-7" font-family="Helvetica,sans-Serif" font-size="10.00">Command.evaluate</text>
</a>
</g>
</g>
<!-- Node1&#45;&gt;Node2 -->
<g id="edge1" class="edge"><title>Node1&#45;&gt;Node2</title>
<path fill="none" stroke="midnightblue" d="M162.244,-15C170.95,-15 179.766,-15 188.395,-15"/>
<polygon fill="midnightblue" stroke="midnightblue" points="162.093,-11.5001 152.093,-15 162.093,-18.5001 162.093,-11.5001"/>
</g>
</g>
</svg>
