<?xml version="1.0" encoding="UTF-8" standalone="no"?>
<!DOCTYPE svg PUBLIC "-//W3C//DTD SVG 1.1//EN"
 "http://www.w3.org/Graphics/SVG/1.1/DTD/svg11.dtd">
<!-- Generated by graphviz version 2.36.0 (20140111.2315)
 -->
<!-- Title: interpreter.expression.singleturtle.SetPosition.setNextTransition Pages: 1 -->
<!--zoomable 339 -->
<svg id="main" version="1.1" xmlns="http://www.w3.org/2000/svg" xmlns:xlink="http://www.w3.org/1999/xlink" xml:space="preserve" onload="init(evt)">
<style type="text/css"><![CDATA[
.edge:hover path { stroke: red; }
.edge:hover polygon { stroke: red; fill: red; }
]]></style>
<script type="text/javascript"><![CDATA[
var edges = document.getElementsByTagName('g');
if (edges && edges.length) {
  for (var i=0;i<edges.length;i++) {
    if (edges[i].id.substr(0,4)=='edge') {
      edges[i].setAttribute('class','edge');
    }
  }
}
]]></script>
        <defs>
                <circle id="rim" cx="0" cy="0" r="7"/>
                <circle id="rim2" cx="0" cy="0" r="3.5"/>
                <g id="zoomPlus">
                        <use xlink:href="#rim" fill="#404040">
                                <set attributeName="fill" to="#808080" begin="zoomplus.mouseover" end="zoomplus.mouseout"/>
                        </use>
                        <path d="M-4,0h8M0,-4v8" fill="none" stroke="white" stroke-width="1.5" pointer-events="none"/>
                </g>
                <g id="zoomMin">
                        <use xlink:href="#rim" fill="#404040">
                                <set attributeName="fill" to="#808080" begin="zoomminus.mouseover" end="zoomminus.mouseout"/>
                        </use>
                        <path d="M-4,0h8" fill="none" stroke="white" stroke-width="1.5" pointer-events="none"/>
                </g>
                <g id="dirArrow">
                        <path fill="none" stroke="white" stroke-width="1.5" d="M0,-3.0v7 M-2.5,-0.5L0,-3.0L2.5,-0.5"/>
                </g>
               <g id="resetDef">
                       <use xlink:href="#rim2" fill="#404040">
                               <set attributeName="fill" to="#808080" begin="reset.mouseover" end="reset.mouseout"/>
                       </use>
               </g>
        </defs>

<script type="text/javascript">
var viewWidth = 778;
var viewHeight = 339;
var sectionId = 'dynsection-4';
</script>
<script xlink:href="../../svgpan.js"/>
<svg id="graph" class="graph">
<g id="viewport">
<title>interpreter.expression.singleturtle.SetPosition.setNextTransition</title>
<polygon fill="white" stroke="none" points="-4,4 -4,-335 774,-335 774,4 -4,4"/>
<!-- Node1 -->
<g id="node1" class="node"><title>Node1</title>
<polygon fill="#bfbfbf" stroke="black" points="0.5,-150 0.5,-180 181.5,-180 181.5,-150 0.5,-150"/>
<text text-anchor="start" x="8.5" y="-168" font-family="Helvetica,sans-Serif" font-size="10.00">interpreter.expression.singleturtle.</text>
<text text-anchor="middle" x="91" y="-157" font-family="Helvetica,sans-Serif" font-size="10.00">SetPosition.setNextTransition</text>
</g>
<!-- Node2 -->
<g id="node2" class="node"><title>Node2</title>
<g id="a_node2"><a xlink:href="../../df/dcb/classturtle_1_1_turtle.html#a4a3429238504006424e085c075908061" target="_top" xlink:title="turtle.Turtle.getHeading">
<polygon fill="white" stroke="black" points="244.5,-311.5 244.5,-330.5 373.5,-330.5 373.5,-311.5 244.5,-311.5"/>
<text text-anchor="middle" x="309" y="-318.5" font-family="Helvetica,sans-Serif" font-size="10.00">turtle.Turtle.getHeading</text>
</a>
</g>
</g>
<!-- Node1&#45;&gt;Node2 -->
<g id="edge1" class="edge"><title>Node1&#45;&gt;Node2</title>
<path fill="none" stroke="midnightblue" d="M101.348,-180.037C119.868,-208.479 164.125,-270.074 218,-301 223.158,-303.961 228.714,-306.483 234.445,-308.633"/>
<polygon fill="midnightblue" stroke="midnightblue" points="233.621,-312.048 244.215,-311.909 235.847,-305.411 233.621,-312.048"/>
</g>
<!-- Node5 -->
<g id="node5" class="node"><title>Node5</title>
<g id="a_node5"><a xlink:href="../../d0/d8c/classinterpreter_1_1expression_1_1singleturtle_1_1_set_position.html#a1504585852a4cb7cb58251bb8b9c7460" target="_top" xlink:title="interpreter.expression.singleturtle.\lSetPosition.getThetaValue">
<polygon fill="white" stroke="black" points="218.5,-262 218.5,-292 399.5,-292 399.5,-262 218.5,-262"/>
<text text-anchor="start" x="226.5" y="-280" font-family="Helvetica,sans-Serif" font-size="10.00">interpreter.expression.singleturtle.</text>
<text text-anchor="middle" x="309" y="-269" font-family="Helvetica,sans-Serif" font-size="10.00">SetPosition.getThetaValue</text>
</a>
</g>
</g>
<!-- Node1&#45;&gt;Node5 -->
<g id="edge4" class="edge"><title>Node1&#45;&gt;Node5</title>
<path fill="none" stroke="midnightblue" d="M109.606,-180.027C132.952,-199.251 176.105,-232.398 218,-252 223.049,-254.362 228.365,-256.541 233.785,-258.543"/>
<polygon fill="midnightblue" stroke="midnightblue" points="233.023,-261.983 243.618,-261.956 235.319,-255.371 233.023,-261.983"/>
</g>
<!-- Node6 -->
<g id="node6" class="node"><title>Node6</title>
<g id="a_node6"><a xlink:href="../../df/df6/classinterpreter_1_1result_1_1_s_logo_result.html#a11062748597af4f6622d9cbc92d4d9c0" target="_top" xlink:title="interpreter.result.SLogo\lResult.getTransition">
<polygon fill="white" stroke="black" points="244,-213 244,-243 374,-243 374,-213 244,-213"/>
<text text-anchor="start" x="252" y="-231" font-family="Helvetica,sans-Serif" font-size="10.00">interpreter.result.SLogo</text>
<text text-anchor="middle" x="309" y="-220" font-family="Helvetica,sans-Serif" font-size="10.00">Result.getTransition</text>
</a>
</g>
</g>
<!-- Node1&#45;&gt;Node6 -->
<g id="edge5" class="edge"><title>Node1&#45;&gt;Node6</title>
<path fill="none" stroke="midnightblue" d="M140.993,-180.048C164.285,-187.133 192.542,-195.626 218,-203 226.262,-205.393 234.963,-207.867 243.568,-210.287"/>
<polygon fill="midnightblue" stroke="midnightblue" points="242.639,-213.662 253.213,-212.988 244.527,-206.921 242.639,-213.662"/>
</g>
<!-- Node7 -->
<g id="node7" class="node"><title>Node7</title>
<g id="a_node7"><a xlink:href="../../de/d21/classmodel_1_1_main_model.html#a71bb008e7ce1ebe1a072adc180d28e18" target="_top" xlink:title="model.MainModel.getTurtles">
<polygon fill="white" stroke="black" points="234,-174.5 234,-193.5 384,-193.5 384,-174.5 234,-174.5"/>
<text text-anchor="middle" x="309" y="-181.5" font-family="Helvetica,sans-Serif" font-size="10.00">model.MainModel.getTurtles</text>
</a>
</g>
</g>
<!-- Node1&#45;&gt;Node7 -->
<g id="edge6" class="edge"><title>Node1&#45;&gt;Node7</title>
<path fill="none" stroke="midnightblue" d="M181.727,-172.893C195.718,-174.123 210.13,-175.391 223.987,-176.61"/>
<polygon fill="midnightblue" stroke="midnightblue" points="223.697,-180.098 233.965,-177.488 224.31,-173.125 223.697,-180.098"/>
</g>
<!-- Node8 -->
<g id="node8" class="node"><title>Node8</title>
<g id="a_node8"><a xlink:href="../../df/dcb/classturtle_1_1_turtle.html#aa74144bda987a463827533ef432fede2" target="_top" xlink:title="turtle.Turtle.getX">
<polygon fill="white" stroke="black" points="261.5,-136.5 261.5,-155.5 356.5,-155.5 356.5,-136.5 261.5,-136.5"/>
<text text-anchor="middle" x="309" y="-143.5" font-family="Helvetica,sans-Serif" font-size="10.00">turtle.Turtle.getX</text>
</a>
</g>
</g>
<!-- Node1&#45;&gt;Node8 -->
<g id="edge7" class="edge"><title>Node1&#45;&gt;Node8</title>
<path fill="none" stroke="midnightblue" d="M181.727,-157.107C205.235,-155.04 229.932,-152.867 251.188,-150.997"/>
<polygon fill="midnightblue" stroke="midnightblue" points="251.672,-154.468 261.327,-150.106 251.058,-147.495 251.672,-154.468"/>
</g>
<!-- Node9 -->
<g id="node9" class="node"><title>Node9</title>
<g id="a_node9"><a xlink:href="../../df/dcb/classturtle_1_1_turtle.html#a072c675b5b2da4989e217c155aae6994" target="_top" xlink:title="turtle.Turtle.getY">
<polygon fill="white" stroke="black" points="261.5,-98.5 261.5,-117.5 356.5,-117.5 356.5,-98.5 261.5,-98.5"/>
<text text-anchor="middle" x="309" y="-105.5" font-family="Helvetica,sans-Serif" font-size="10.00">turtle.Turtle.getY</text>
</a>
</g>
</g>
<!-- Node1&#45;&gt;Node9 -->
<g id="edge9" class="edge"><title>Node1&#45;&gt;Node9</title>
<path fill="none" stroke="midnightblue" d="M138.409,-149.975C162.092,-142.571 191.438,-133.796 218,-127 228.661,-124.272 240.103,-121.637 251.133,-119.241"/>
<polygon fill="midnightblue" stroke="midnightblue" points="252.063,-122.621 261.113,-117.112 250.603,-115.775 252.063,-122.621"/>
</g>
<!-- Node10 -->
<g id="node10" class="node"><title>Node10</title>
<g id="a_node10"><a xlink:href="../../d0/d8c/classinterpreter_1_1expression_1_1singleturtle_1_1_set_position.html#a12d240cdfb738e8fdb8761fa4506ba97" target="_top" xlink:title="interpreter.expression.singleturtle.\lSetPosition.pythagoreanTheorem">
<polygon fill="white" stroke="black" points="218.5,-49 218.5,-79 399.5,-79 399.5,-49 218.5,-49"/>
<text text-anchor="start" x="226.5" y="-67" font-family="Helvetica,sans-Serif" font-size="10.00">interpreter.expression.singleturtle.</text>
<text text-anchor="middle" x="309" y="-56" font-family="Helvetica,sans-Serif" font-size="10.00">SetPosition.pythagoreanTheorem</text>
</a>
</g>
</g>
<!-- Node1&#45;&gt;Node10 -->
<g id="edge11" class="edge"><title>Node1&#45;&gt;Node10</title>
<path fill="none" stroke="midnightblue" d="M112.892,-149.951C137.138,-133.08 178.82,-105.882 218,-89 223.669,-86.5575 229.641,-84.2886 235.702,-82.1957"/>
<polygon fill="midnightblue" stroke="midnightblue" points="236.86,-85.4993 245.268,-79.0522 234.675,-78.8492 236.86,-85.4993"/>
</g>
<!-- Node11 -->
<g id="node11" class="node"><title>Node11</title>
<g id="a_node11"><a xlink:href="../../df/df6/classinterpreter_1_1result_1_1_s_logo_result.html#ade0879b3224a3216bf17e17e25bfd4ca" target="_top" xlink:title="interpreter.result.SLogo\lResult.setValue">
<polygon fill="white" stroke="black" points="244,-0 244,-30 374,-30 374,-0 244,-0"/>
<text text-anchor="start" x="252" y="-18" font-family="Helvetica,sans-Serif" font-size="10.00">interpreter.result.SLogo</text>
<text text-anchor="middle" x="309" y="-7" font-family="Helvetica,sans-Serif" font-size="10.00">Result.setValue</text>
</a>
</g>
</g>
<!-- Node1&#45;&gt;Node11 -->
<g id="edge12" class="edge"><title>Node1&#45;&gt;Node11</title>
<path fill="none" stroke="midnightblue" d="M103.026,-149.806C122.962,-123.442 167.64,-69.2488 218,-40 223.121,-37.026 228.612,-34.3917 234.263,-32.0608"/>
<polygon fill="midnightblue" stroke="midnightblue" points="235.775,-35.2311 243.888,-28.4181 233.297,-28.6842 235.775,-35.2311"/>
</g>
<!-- Node3 -->
<g id="node3" class="node"><title>Node3</title>
<g id="a_node3"><a xlink:href="../../df/dcb/classturtle_1_1_turtle.html#a29ef6cfcd7794054df8ef83724022983" target="_top" xlink:title="turtle.Turtle.getTurtle">
<polygon fill="white" stroke="black" points="436.5,-136.5 436.5,-155.5 551.5,-155.5 551.5,-136.5 436.5,-136.5"/>
<text text-anchor="middle" x="494" y="-143.5" font-family="Helvetica,sans-Serif" font-size="10.00">turtle.Turtle.getTurtle</text>
</a>
</g>
</g>
<!-- Node2&#45;&gt;Node3 -->
<g id="edge2" class="edge"><title>Node2&#45;&gt;Node3</title>
<path fill="none" stroke="midnightblue" d="M373.785,-313.656C383.126,-310.697 392.209,-306.615 400,-301 447.804,-266.545 475.515,-199.244 486.89,-165.818"/>
<polygon fill="midnightblue" stroke="midnightblue" points="490.359,-166.47 490.127,-155.877 483.703,-164.302 490.359,-166.47"/>
</g>
<!-- Node4 -->
<g id="node4" class="node"><title>Node4</title>
<g id="a_node4"><a xlink:href="../../d4/de5/classturtle_1_1_turtle_view_controller.html#a24215ad9dea4b06da7652230ac822973" target="_top" xlink:title="turtle.TurtleViewController.getNode">
<polygon fill="white" stroke="black" points="588,-136.5 588,-155.5 770,-155.5 770,-136.5 588,-136.5"/>
<text text-anchor="middle" x="679" y="-143.5" font-family="Helvetica,sans-Serif" font-size="10.00">turtle.TurtleViewController.getNode</text>
</a>
</g>
</g>
<!-- Node3&#45;&gt;Node4 -->
<g id="edge3" class="edge"><title>Node3&#45;&gt;Node4</title>
<path fill="none" stroke="midnightblue" d="M551.899,-146C560.209,-146 568.964,-146 577.83,-146"/>
<polygon fill="midnightblue" stroke="midnightblue" points="577.868,-149.5 587.868,-146 577.867,-142.5 577.868,-149.5"/>
</g>
<!-- Node8&#45;&gt;Node3 -->
<g id="edge8" class="edge"><title>Node8&#45;&gt;Node3</title>
<path fill="none" stroke="midnightblue" d="M356.652,-146C377.776,-146 403.137,-146 426.227,-146"/>
<polygon fill="midnightblue" stroke="midnightblue" points="426.307,-149.5 436.307,-146 426.307,-142.5 426.307,-149.5"/>
</g>
<!-- Node9&#45;&gt;Node3 -->
<g id="edge10" class="edge"><title>Node9&#45;&gt;Node3</title>
<path fill="none" stroke="midnightblue" d="M356.179,-117.589C380.763,-122.694 411.186,-129.011 437.097,-134.392"/>
<polygon fill="midnightblue" stroke="midnightblue" points="436.651,-137.874 447.153,-136.48 438.074,-131.02 436.651,-137.874"/>
</g>
</g>
</svg>
        <g id="navigator" transform="translate(0 0)" fill="#404254">
                <rect fill="#f2f5e9" fill-opacity="0.5" stroke="#606060" stroke-width=".5" x="0" y="0" width="60" height="60"/>
                <use id="zoomplus" xlink:href="#zoomPlus" x="17" y="9" onmousedown="handleZoom(evt,'in')"/>
                <use id="zoomminus" xlink:href="#zoomMin" x="42" y="9" onmousedown="handleZoom(evt,'out')"/>
                <use id="reset" xlink:href="#resetDef" x="30" y="36" onmousedown="handleReset()"/>
                <g id="arrowUp" xlink:href="#dirArrow" transform="translate(30 24)" onmousedown="handlePan(0,-1)">
                  <use xlink:href="#rim" fill="#404040">
                        <set attributeName="fill" to="#808080" begin="arrowUp.mouseover" end="arrowUp.mouseout"/>
                  </use>
                  <path fill="none" stroke="white" stroke-width="1.5" d="M0,-3.0v7 M-2.5,-0.5L0,-3.0L2.5,-0.5"/>
                </g>
                <g id="arrowRight" xlink:href="#dirArrow" transform="rotate(90) translate(36 -43)" onmousedown="handlePan(1,0)">
                  <use xlink:href="#rim" fill="#404040">
                        <set attributeName="fill" to="#808080" begin="arrowRight.mouseover" end="arrowRight.mouseout"/>
                  </use>
                  <path fill="none" stroke="white" stroke-width="1.5" d="M0,-3.0v7 M-2.5,-0.5L0,-3.0L2.5,-0.5"/>
                </g>
                <g id="arrowDown" xlink:href="#dirArrow" transform="rotate(180) translate(-30 -48)" onmousedown="handlePan(0,1)">
                  <use xlink:href="#rim" fill="#404040">
                        <set attributeName="fill" to="#808080" begin="arrowDown.mouseover" end="arrowDown.mouseout"/>
                  </use>
                  <path fill="none" stroke="white" stroke-width="1.5" d="M0,-3.0v7 M-2.5,-0.5L0,-3.0L2.5,-0.5"/>
                </g>
                <g id="arrowLeft" xlink:href="#dirArrow" transform="rotate(270) translate(-36 17)" onmousedown="handlePan(-1,0)">
                  <use xlink:href="#rim" fill="#404040">
                        <set attributeName="fill" to="#808080" begin="arrowLeft.mouseover" end="arrowLeft.mouseout"/>
                  </use>
                  <path fill="none" stroke="white" stroke-width="1.5" d="M0,-3.0v7 M-2.5,-0.5L0,-3.0L2.5,-0.5"/>
                </g>
        </g>
        <svg viewBox="0 0 15 15" width="100%" height="30px" preserveAspectRatio="xMaxYMin meet">
         <g id="arrow_out" transform="scale(0.3 0.3)">
          <a xlink:href="classinterpreter_1_1expression_1_1singleturtle_1_1_set_position_a4f3ed8fd9fe9f9e8ef1204cd22a970ae_cgraph_org.svg" target="_base">
           <rect id="button" ry="5" rx="5" y="6" x="6" height="38" width="38"
                fill="#f2f5e9" fill-opacity="0.5" stroke="#606060" stroke-width="1.0"/>
           <path id="arrow"
             d="M 11.500037,31.436501 C 11.940474,20.09759 22.043105,11.32322 32.158766,21.979434 L 37.068811,17.246167 C 37.068811,17.246167 37.088388,32 37.088388,32 L 22.160133,31.978069 C 22.160133,31.978069 26.997745,27.140456 26.997745,27.140456 C 18.528582,18.264221 13.291696,25.230495 11.500037,31.436501 z"
             style="fill:#404040;"/>
          </a>
         </g>
        </svg>
</svg>
