<?xml version="1.0" encoding="UTF-8" standalone="no"?>
<!DOCTYPE svg PUBLIC "-//W3C//DTD SVG 1.1//EN"
 "http://www.w3.org/Graphics/SVG/1.1/DTD/svg11.dtd">
<!-- Generated by graphviz version 2.36.0 (20140111.2315)
 -->
<!-- Title: turtle.SerialisableTurtle.SerialisableTurtle Pages: 1 -->
<svg width="542pt" height="230pt"
 viewBox="0.00 0.00 542.00 230.00" xmlns="http://www.w3.org/2000/svg" xmlns:xlink="http://www.w3.org/1999/xlink">
<g id="graph0" class="graph" transform="scale(1 1) rotate(0) translate(4 226)">
<title>turtle.SerialisableTurtle.SerialisableTurtle</title>
<polygon fill="white" stroke="none" points="-4,4 -4,-226 538,-226 538,4 -4,4"/>
<!-- Node1 -->
<g id="node1" class="node"><title>Node1</title>
<polygon fill="#bfbfbf" stroke="black" points="0,-90 0,-120 128,-120 128,-90 0,-90"/>
<text text-anchor="start" x="8" y="-108" font-family="Helvetica,sans-Serif" font-size="10.00">turtle.SerialisableTurtle.</text>
<text text-anchor="middle" x="64" y="-97" font-family="Helvetica,sans-Serif" font-size="10.00">SerialisableTurtle</text>
</g>
<!-- Node2 -->
<g id="node2" class="node"><title>Node2</title>
<g id="a_node2"><a xlink:href="../../dd/da0/classturtle_1_1draw_1_1_pen.html#aa1cfa7c148b990a796edcdce0c1ef4dc" target="_top" xlink:title="turtle.draw.Pen.getColor">
<polygon fill="white" stroke="black" points="174.5,-202.5 174.5,-221.5 305.5,-221.5 305.5,-202.5 174.5,-202.5"/>
<text text-anchor="middle" x="240" y="-209.5" font-family="Helvetica,sans-Serif" font-size="10.00">turtle.draw.Pen.getColor</text>
</a>
</g>
</g>
<!-- Node1&#45;&gt;Node2 -->
<g id="edge1" class="edge"><title>Node1&#45;&gt;Node2</title>
<path fill="none" stroke="midnightblue" d="M78.1571,-120.284C95.7697,-139.787 128.886,-173.235 164,-192 169.177,-194.767 174.765,-197.171 180.472,-199.256"/>
<polygon fill="midnightblue" stroke="midnightblue" points="179.546,-202.637 190.14,-202.471 181.755,-195.994 179.546,-202.637"/>
</g>
<!-- Node3 -->
<g id="node3" class="node"><title>Node3</title>
<g id="a_node3"><a xlink:href="../../dd/da0/classturtle_1_1draw_1_1_pen.html#a4b37d6e4ace1be3dd8f4bcc840f8cf28" target="_top" xlink:title="turtle.draw.Pen.getDrawn\lLines">
<polygon fill="white" stroke="black" points="171.5,-153 171.5,-183 308.5,-183 308.5,-153 171.5,-153"/>
<text text-anchor="start" x="179.5" y="-171" font-family="Helvetica,sans-Serif" font-size="10.00">turtle.draw.Pen.getDrawn</text>
<text text-anchor="middle" x="240" y="-160" font-family="Helvetica,sans-Serif" font-size="10.00">Lines</text>
</a>
</g>
</g>
<!-- Node1&#45;&gt;Node3 -->
<g id="edge2" class="edge"><title>Node1&#45;&gt;Node3</title>
<path fill="none" stroke="midnightblue" d="M102.931,-120.016C121.302,-127.171 143.723,-135.733 164,-143 170.25,-145.24 176.816,-147.526 183.356,-149.761"/>
<polygon fill="midnightblue" stroke="midnightblue" points="182.284,-153.093 192.878,-152.987 184.53,-146.463 182.284,-153.093"/>
</g>
<!-- Node4 -->
<g id="node4" class="node"><title>Node4</title>
<g id="a_node4"><a xlink:href="../../df/dcb/classturtle_1_1_turtle.html#a3196d156c56093addee52593c5c53e0b" target="_top" xlink:title="turtle.Turtle.getId">
<polygon fill="white" stroke="black" points="191,-114.5 191,-133.5 289,-133.5 289,-114.5 191,-114.5"/>
<text text-anchor="middle" x="240" y="-121.5" font-family="Helvetica,sans-Serif" font-size="10.00">turtle.Turtle.getId</text>
</a>
</g>
</g>
<!-- Node1&#45;&gt;Node4 -->
<g id="edge3" class="edge"><title>Node1&#45;&gt;Node4</title>
<path fill="none" stroke="midnightblue" d="M128.31,-111.913C145.37,-113.776 163.744,-115.782 180.527,-117.615"/>
<polygon fill="midnightblue" stroke="midnightblue" points="180.423,-121.124 190.744,-118.731 181.183,-114.166 180.423,-121.124"/>
</g>
<!-- Node5 -->
<g id="node5" class="node"><title>Node5</title>
<g id="a_node5"><a xlink:href="../../df/dcb/classturtle_1_1_turtle.html#a0b8bdf8fc097cab5bf51d46567c2d749" target="_top" xlink:title="turtle.Turtle.getPen">
<polygon fill="white" stroke="black" points="186.5,-76.5 186.5,-95.5 293.5,-95.5 293.5,-76.5 186.5,-76.5"/>
<text text-anchor="middle" x="240" y="-83.5" font-family="Helvetica,sans-Serif" font-size="10.00">turtle.Turtle.getPen</text>
</a>
</g>
</g>
<!-- Node1&#45;&gt;Node5 -->
<g id="edge4" class="edge"><title>Node1&#45;&gt;Node5</title>
<path fill="none" stroke="midnightblue" d="M128.31,-98.0868C143.933,-96.3808 160.66,-94.5544 176.256,-92.8514"/>
<polygon fill="midnightblue" stroke="midnightblue" points="176.757,-96.3175 186.318,-91.7526 175.998,-89.3589 176.757,-96.3175"/>
</g>
<!-- Node6 -->
<g id="node6" class="node"><title>Node6</title>
<g id="a_node6"><a xlink:href="../../dd/da0/classturtle_1_1draw_1_1_pen.html#aeb5df1ca76663eb6043d2c885063aeb6" target="_top" xlink:title="turtle.draw.Pen.getPenDown">
<polygon fill="white" stroke="black" points="164.5,-38.5 164.5,-57.5 315.5,-57.5 315.5,-38.5 164.5,-38.5"/>
<text text-anchor="middle" x="240" y="-45.5" font-family="Helvetica,sans-Serif" font-size="10.00">turtle.draw.Pen.getPenDown</text>
</a>
</g>
</g>
<!-- Node1&#45;&gt;Node6 -->
<g id="edge5" class="edge"><title>Node1&#45;&gt;Node6</title>
<path fill="none" stroke="midnightblue" d="M101.306,-89.8792C119.874,-82.45 142.943,-73.6827 164,-67 171.562,-64.6002 179.626,-62.2964 187.559,-60.1721"/>
<polygon fill="midnightblue" stroke="midnightblue" points="188.696,-63.4928 197.49,-57.5834 186.93,-56.7192 188.696,-63.4928"/>
</g>
<!-- Node7 -->
<g id="node7" class="node"><title>Node7</title>
<g id="a_node7"><a xlink:href="../../df/dcb/classturtle_1_1_turtle.html#a29ef6cfcd7794054df8ef83724022983" target="_top" xlink:title="turtle.Turtle.getTurtle">
<polygon fill="white" stroke="black" points="182.5,-0.5 182.5,-19.5 297.5,-19.5 297.5,-0.5 182.5,-0.5"/>
<text text-anchor="middle" x="240" y="-7.5" font-family="Helvetica,sans-Serif" font-size="10.00">turtle.Turtle.getTurtle</text>
</a>
</g>
</g>
<!-- Node1&#45;&gt;Node7 -->
<g id="edge6" class="edge"><title>Node1&#45;&gt;Node7</title>
<path fill="none" stroke="midnightblue" d="M80.4405,-89.8621C98.8446,-72.6481 131.244,-44.8801 164,-29 168.91,-26.6195 174.151,-24.5161 179.493,-22.6617"/>
<polygon fill="midnightblue" stroke="midnightblue" points="180.699,-25.9509 189.17,-19.5868 178.579,-19.2796 180.699,-25.9509"/>
</g>
<!-- Node8 -->
<g id="node8" class="node"><title>Node8</title>
<g id="a_node8"><a xlink:href="../../d4/de5/classturtle_1_1_turtle_view_controller.html#a24215ad9dea4b06da7652230ac822973" target="_top" xlink:title="turtle.TurtleViewController.getNode">
<polygon fill="white" stroke="black" points="352,-0.5 352,-19.5 534,-19.5 534,-0.5 352,-0.5"/>
<text text-anchor="middle" x="443" y="-7.5" font-family="Helvetica,sans-Serif" font-size="10.00">turtle.TurtleViewController.getNode</text>
</a>
</g>
</g>
<!-- Node7&#45;&gt;Node8 -->
<g id="edge7" class="edge"><title>Node7&#45;&gt;Node8</title>
<path fill="none" stroke="midnightblue" d="M297.525,-10C311.204,-10 326.238,-10 341.279,-10"/>
<polygon fill="midnightblue" stroke="midnightblue" points="341.676,-13.5001 351.676,-10 341.676,-6.5001 341.676,-13.5001"/>
</g>
</g>
</svg>
