<?xml version="1.0" encoding="UTF-8" standalone="no"?>
<!DOCTYPE svg PUBLIC "-//W3C//DTD SVG 1.1//EN"
 "http://www.w3.org/Graphics/SVG/1.1/DTD/svg11.dtd">
<!-- Generated by graphviz version 2.36.0 (20140111.2315)
 -->
<!-- Title: viewcontroller.turtlegrid.TurtleWindowViewController.gridColorChanged Pages: 1 -->
<svg width="834pt" height="87pt"
 viewBox="0.00 0.00 834.00 87.00" xmlns="http://www.w3.org/2000/svg" xmlns:xlink="http://www.w3.org/1999/xlink">
<g id="graph0" class="graph" transform="scale(1 1) rotate(0) translate(4 83)">
<title>viewcontroller.turtlegrid.TurtleWindowViewController.gridColorChanged</title>
<polygon fill="white" stroke="none" points="-4,4 -4,-83 830,-83 830,4 -4,4"/>
<!-- Node1 -->
<g id="node1" class="node"><title>Node1</title>
<polygon fill="#bfbfbf" stroke="black" points="0,-18.5 0,-59.5 166,-59.5 166,-18.5 0,-18.5"/>
<text text-anchor="start" x="8" y="-47.5" font-family="Helvetica,sans-Serif" font-size="10.00">viewcontroller.turtlegrid.</text>
<text text-anchor="start" x="8" y="-36.5" font-family="Helvetica,sans-Serif" font-size="10.00">TurtleWindowViewController.grid</text>
<text text-anchor="middle" x="83" y="-25.5" font-family="Helvetica,sans-Serif" font-size="10.00">ColorChanged</text>
</g>
<!-- Node2 -->
<g id="node2" class="node"><title>Node2</title>
<g id="a_node2"><a xlink:href="../../db/d5b/classviewcontroller_1_1turtlegrid_1_1_grid_button_bar.html#abcf833dea3b893c8fda4e482d8e082ff" target="_top" xlink:title="viewcontroller.turtlegrid.\lGridButtonBar.getGridColor">
<polygon fill="white" stroke="black" points="226.5,-49 226.5,-79 373.5,-79 373.5,-49 226.5,-49"/>
<text text-anchor="start" x="234.5" y="-67" font-family="Helvetica,sans-Serif" font-size="10.00">viewcontroller.turtlegrid.</text>
<text text-anchor="middle" x="300" y="-56" font-family="Helvetica,sans-Serif" font-size="10.00">GridButtonBar.getGridColor</text>
</a>
</g>
</g>
<!-- Node1&#45;&gt;Node2 -->
<g id="edge1" class="edge"><title>Node1&#45;&gt;Node2</title>
<path fill="none" stroke="midnightblue" d="M166.203,-48.5584C182.597,-50.4648 199.824,-52.4679 216.237,-54.3764"/>
<polygon fill="midnightblue" stroke="midnightblue" points="215.999,-57.8723 226.337,-55.5508 216.808,-50.9191 215.999,-57.8723"/>
</g>
<!-- Node4 -->
<g id="node4" class="node"><title>Node4</title>
<g id="a_node4"><a xlink:href="../../d3/d67/classviewcontroller_1_1_main_view_controller.html#ad838f61ff54b140140b60dfe625a269a" target="_top" xlink:title="viewcontroller.MainViewController.grid\lColorChanged">
<polygon fill="white" stroke="black" points="202.5,-0 202.5,-30 397.5,-30 397.5,-0 202.5,-0"/>
<text text-anchor="start" x="210.5" y="-18" font-family="Helvetica,sans-Serif" font-size="10.00">viewcontroller.MainViewController.grid</text>
<text text-anchor="middle" x="300" y="-7" font-family="Helvetica,sans-Serif" font-size="10.00">ColorChanged</text>
</a>
</g>
</g>
<!-- Node1&#45;&gt;Node4 -->
<g id="edge3" class="edge"><title>Node1&#45;&gt;Node4</title>
<path fill="none" stroke="midnightblue" d="M166.203,-29.8239C174.816,-28.8624 183.658,-27.8753 192.492,-26.8892"/>
<polygon fill="midnightblue" stroke="midnightblue" points="192.899,-30.3656 202.449,-25.7777 192.123,-23.4088 192.899,-30.3656"/>
</g>
<!-- Node3 -->
<g id="node3" class="node"><title>Node3</title>
<g id="a_node3"><a xlink:href="../../db/dbf/classviewcontroller_1_1turtlegrid_1_1_s_logo_color_picker.html#a24bb9b34500f114e800eb96d04fa91ab" target="_top" xlink:title="viewcontroller.turtlegrid.\lSLogoColorPicker.getColor">
<polygon fill="white" stroke="black" points="450.5,-49 450.5,-79 593.5,-79 593.5,-49 450.5,-49"/>
<text text-anchor="start" x="458.5" y="-67" font-family="Helvetica,sans-Serif" font-size="10.00">viewcontroller.turtlegrid.</text>
<text text-anchor="middle" x="522" y="-56" font-family="Helvetica,sans-Serif" font-size="10.00">SLogoColorPicker.getColor</text>
</a>
</g>
</g>
<!-- Node2&#45;&gt;Node3 -->
<g id="edge2" class="edge"><title>Node2&#45;&gt;Node3</title>
<path fill="none" stroke="midnightblue" d="M373.646,-64C394.931,-64 418.334,-64 440.099,-64"/>
<polygon fill="midnightblue" stroke="midnightblue" points="440.302,-67.5001 450.302,-64 440.302,-60.5001 440.302,-67.5001"/>
</g>
<!-- Node5 -->
<g id="node5" class="node"><title>Node5</title>
<g id="a_node5"><a xlink:href="../../de/d21/classmodel_1_1_main_model.html#a4018fb674a6db15b5972b96ce05e2393" target="_top" xlink:title="model.MainModel.setBackground\lColor">
<polygon fill="white" stroke="black" points="434,-0 434,-30 610,-30 610,-0 434,-0"/>
<text text-anchor="start" x="442" y="-18" font-family="Helvetica,sans-Serif" font-size="10.00">model.MainModel.setBackground</text>
<text text-anchor="middle" x="522" y="-7" font-family="Helvetica,sans-Serif" font-size="10.00">Color</text>
</a>
</g>
</g>
<!-- Node4&#45;&gt;Node5 -->
<g id="edge4" class="edge"><title>Node4&#45;&gt;Node5</title>
<path fill="none" stroke="midnightblue" d="M397.815,-15C406.433,-15 415.159,-15 423.78,-15"/>
<polygon fill="midnightblue" stroke="midnightblue" points="423.838,-18.5001 433.838,-15 423.838,-11.5001 423.838,-18.5001"/>
</g>
<!-- Node6 -->
<g id="node6" class="node"><title>Node6</title>
<g id="a_node6"><a xlink:href="../../de/d21/classmodel_1_1_main_model.html#a81fd23aa152cf9311abb569fa3c656fb" target="_top" xlink:title="model.MainModel.notifyObservers">
<polygon fill="white" stroke="black" points="646.5,-5.5 646.5,-24.5 825.5,-24.5 825.5,-5.5 646.5,-5.5"/>
<text text-anchor="middle" x="736" y="-12.5" font-family="Helvetica,sans-Serif" font-size="10.00">model.MainModel.notifyObservers</text>
</a>
</g>
</g>
<!-- Node5&#45;&gt;Node6 -->
<g id="edge5" class="edge"><title>Node5&#45;&gt;Node6</title>
<path fill="none" stroke="midnightblue" d="M610.146,-15C618.765,-15 627.556,-15 636.28,-15"/>
<polygon fill="midnightblue" stroke="midnightblue" points="636.478,-18.5001 646.478,-15 636.478,-11.5001 636.478,-18.5001"/>
</g>
</g>
</svg>
