<?xml version="1.0" encoding="UTF-8" standalone="no"?>
<!DOCTYPE svg PUBLIC "-//W3C//DTD SVG 1.1//EN"
 "http://www.w3.org/Graphics/SVG/1.1/DTD/svg11.dtd">
<!-- Generated by graphviz version 2.36.0 (20140111.2315)
 -->
<!-- Title: viewcontroller.turtlegrid.TurtleWindowViewController.passSLogoCommand Pages: 1 -->
<svg width="2092pt" height="398pt"
 viewBox="0.00 0.00 2092.00 398.00" xmlns="http://www.w3.org/2000/svg" xmlns:xlink="http://www.w3.org/1999/xlink">
<g id="graph0" class="graph" transform="scale(1 1) rotate(0) translate(4 394)">
<title>viewcontroller.turtlegrid.TurtleWindowViewController.passSLogoCommand</title>
<polygon fill="white" stroke="none" points="-4,4 -4,-394 2088,-394 2088,4 -4,4"/>
<!-- Node1 -->
<g id="node1" class="node"><title>Node1</title>
<polygon fill="#bfbfbf" stroke="black" points="0,-139.5 0,-180.5 170,-180.5 170,-139.5 0,-139.5"/>
<text text-anchor="start" x="8" y="-168.5" font-family="Helvetica,sans-Serif" font-size="10.00">viewcontroller.turtlegrid.</text>
<text text-anchor="start" x="8" y="-157.5" font-family="Helvetica,sans-Serif" font-size="10.00">TurtleWindowViewController.pass</text>
<text text-anchor="middle" x="85" y="-146.5" font-family="Helvetica,sans-Serif" font-size="10.00">SLogoCommand</text>
</g>
<!-- Node2 -->
<g id="node2" class="node"><title>Node2</title>
<g id="a_node2"><a xlink:href="../../d3/d67/classviewcontroller_1_1_main_view_controller.html#a1b77a34d9385ff9296a9dc1db8c322cb" target="_top" xlink:title="viewcontroller.MainViewController.pass\lSLogoCommand">
<polygon fill="white" stroke="black" points="206,-145 206,-175 406,-175 406,-145 206,-145"/>
<text text-anchor="start" x="214" y="-163" font-family="Helvetica,sans-Serif" font-size="10.00">viewcontroller.MainViewController.pass</text>
<text text-anchor="middle" x="306" y="-152" font-family="Helvetica,sans-Serif" font-size="10.00">SLogoCommand</text>
</a>
</g>
</g>
<!-- Node1&#45;&gt;Node2 -->
<g id="edge1" class="edge"><title>Node1&#45;&gt;Node2</title>
<path fill="none" stroke="midnightblue" d="M170.045,-160C178.455,-160 187.076,-160 195.696,-160"/>
<polygon fill="midnightblue" stroke="midnightblue" points="195.802,-163.5 205.802,-160 195.802,-156.5 195.802,-163.5"/>
</g>
<!-- Node3 -->
<g id="node3" class="node"><title>Node3</title>
<g id="a_node3"><a xlink:href="../../de/d21/classmodel_1_1_main_model.html#a96f4ff9f640f14d713c5d90ab5704884" target="_top" xlink:title="model.MainModel.interpret\lSLogoCommand">
<polygon fill="white" stroke="black" points="442.5,-145 442.5,-175 587.5,-175 587.5,-145 442.5,-145"/>
<text text-anchor="start" x="450.5" y="-163" font-family="Helvetica,sans-Serif" font-size="10.00">model.MainModel.interpret</text>
<text text-anchor="middle" x="515" y="-152" font-family="Helvetica,sans-Serif" font-size="10.00">SLogoCommand</text>
</a>
</g>
</g>
<!-- Node2&#45;&gt;Node3 -->
<g id="edge2" class="edge"><title>Node2&#45;&gt;Node3</title>
<path fill="none" stroke="midnightblue" d="M406.256,-160C414.887,-160 423.557,-160 432.026,-160"/>
<polygon fill="midnightblue" stroke="midnightblue" points="432.24,-163.5 442.24,-160 432.24,-156.5 432.24,-163.5"/>
</g>
<!-- Node4 -->
<g id="node4" class="node"><title>Node4</title>
<g id="a_node4"><a xlink:href="../../db/d84/classmodel_1_1_command_history_model.html#a4587f5bb0678f50bfc8bc918d2f28241" target="_top" xlink:title="model.CommandHistoryModel.add\lCommand">
<polygon fill="white" stroke="black" points="624.5,-238 624.5,-268 807.5,-268 807.5,-238 624.5,-238"/>
<text text-anchor="start" x="632.5" y="-256" font-family="Helvetica,sans-Serif" font-size="10.00">model.CommandHistoryModel.add</text>
<text text-anchor="middle" x="716" y="-245" font-family="Helvetica,sans-Serif" font-size="10.00">Command</text>
</a>
</g>
</g>
<!-- Node3&#45;&gt;Node4 -->
<g id="edge3" class="edge"><title>Node3&#45;&gt;Node4</title>
<path fill="none" stroke="midnightblue" d="M536.093,-175.201C557.055,-190.429 591.355,-213.617 624,-228 629.475,-230.412 635.239,-232.645 641.099,-234.7"/>
<polygon fill="midnightblue" stroke="midnightblue" points="640.424,-238.164 651.017,-237.992 642.629,-231.52 640.424,-238.164"/>
</g>
<!-- Node5 -->
<g id="node5" class="node"><title>Node5</title>
<g id="a_node5"><a xlink:href="../../df/df6/classinterpreter_1_1result_1_1_s_logo_result.html#a6047e8ac53bae47b06b7f8daee701c43" target="_top" xlink:title="interpreter.result.SLogo\lResult.getHasError">
<polygon fill="white" stroke="black" points="651,-189 651,-219 781,-219 781,-189 651,-189"/>
<text text-anchor="start" x="659" y="-207" font-family="Helvetica,sans-Serif" font-size="10.00">interpreter.result.SLogo</text>
<text text-anchor="middle" x="716" y="-196" font-family="Helvetica,sans-Serif" font-size="10.00">Result.getHasError</text>
</a>
</g>
</g>
<!-- Node3&#45;&gt;Node5 -->
<g id="edge4" class="edge"><title>Node3&#45;&gt;Node5</title>
<path fill="none" stroke="midnightblue" d="M583.928,-175.019C602.253,-179.071 622.172,-183.475 640.819,-187.598"/>
<polygon fill="midnightblue" stroke="midnightblue" points="640.214,-191.049 650.734,-189.79 641.725,-184.214 640.214,-191.049"/>
</g>
<!-- Node6 -->
<g id="node6" class="node"><title>Node6</title>
<g id="a_node6"><a xlink:href="../../d2/dc7/classinterpreter_1_1_interpreter.html#a2398aed9ce5fd0631e4a61eb0ae7e3eb" target="_top" xlink:title="interpreter.Interpreter.interpret">
<polygon fill="white" stroke="black" points="634,-150.5 634,-169.5 798,-169.5 798,-150.5 634,-150.5"/>
<text text-anchor="middle" x="716" y="-157.5" font-family="Helvetica,sans-Serif" font-size="10.00">interpreter.Interpreter.interpret</text>
</a>
</g>
</g>
<!-- Node3&#45;&gt;Node6 -->
<g id="edge5" class="edge"><title>Node3&#45;&gt;Node6</title>
<path fill="none" stroke="midnightblue" d="M587.562,-160C599.315,-160 611.633,-160 623.785,-160"/>
<polygon fill="midnightblue" stroke="midnightblue" points="623.937,-163.5 633.937,-160 623.937,-156.5 623.937,-163.5"/>
</g>
<!-- Node27 -->
<g id="node27" class="node"><title>Node27</title>
<g id="a_node27"><a xlink:href="../../de/d21/classmodel_1_1_main_model.html#a81fd23aa152cf9311abb569fa3c656fb" target="_top" xlink:title="model.MainModel.notifyObservers">
<polygon fill="white" stroke="black" points="626.5,-112.5 626.5,-131.5 805.5,-131.5 805.5,-112.5 626.5,-112.5"/>
<text text-anchor="middle" x="716" y="-119.5" font-family="Helvetica,sans-Serif" font-size="10.00">model.MainModel.notifyObservers</text>
</a>
</g>
</g>
<!-- Node3&#45;&gt;Node27 -->
<g id="edge26" class="edge"><title>Node3&#45;&gt;Node27</title>
<path fill="none" stroke="midnightblue" d="M587.562,-146.335C609.783,-142.092 634.027,-137.462 655.347,-133.391"/>
<polygon fill="midnightblue" stroke="midnightblue" points="656.071,-136.816 665.237,-131.503 654.758,-129.94 656.071,-136.816"/>
</g>
<!-- Node28 -->
<g id="node28" class="node"><title>Node28</title>
<g id="a_node28"><a xlink:href="../../de/d21/classmodel_1_1_main_model.html#a1863b9ce1cc6b16b0e03dbfc73f51314" target="_top" xlink:title="model.MainModel.updateModel">
<polygon fill="white" stroke="black" points="633,-61.5 633,-80.5 799,-80.5 799,-61.5 633,-61.5"/>
<text text-anchor="middle" x="716" y="-68.5" font-family="Helvetica,sans-Serif" font-size="10.00">model.MainModel.updateModel</text>
</a>
</g>
</g>
<!-- Node3&#45;&gt;Node28 -->
<g id="edge27" class="edge"><title>Node3&#45;&gt;Node28</title>
<path fill="none" stroke="midnightblue" d="M542.094,-144.832C563.642,-132.65 595.246,-115.562 624,-103 640.267,-95.8933 658.665,-89.1856 674.64,-83.7648"/>
<polygon fill="midnightblue" stroke="midnightblue" points="675.855,-87.0492 684.233,-80.5638 673.639,-80.4091 675.855,-87.0492"/>
</g>
<!-- Node7 -->
<g id="node7" class="node"><title>Node7</title>
<g id="a_node7"><a xlink:href="../../da/de4/classinterpreter_1_1_expression_evaluator.html#a349369ee222f83e4370c70b449844139" target="_top" xlink:title="interpreter.ExpressionEvaluator.evaluate\lExpressionsAndMerge">
<polygon fill="white" stroke="black" points="844,-145 844,-175 1054,-175 1054,-145 844,-145"/>
<text text-anchor="start" x="852" y="-163" font-family="Helvetica,sans-Serif" font-size="10.00">interpreter.ExpressionEvaluator.evaluate</text>
<text text-anchor="middle" x="949" y="-152" font-family="Helvetica,sans-Serif" font-size="10.00">ExpressionsAndMerge</text>
</a>
</g>
</g>
<!-- Node6&#45;&gt;Node7 -->
<g id="edge6" class="edge"><title>Node6&#45;&gt;Node7</title>
<path fill="none" stroke="midnightblue" d="M798.117,-160C809.695,-160 821.781,-160 833.847,-160"/>
<polygon fill="midnightblue" stroke="midnightblue" points="833.966,-163.5 843.966,-160 833.966,-156.5 833.966,-163.5"/>
</g>
<!-- Node13 -->
<g id="node13" class="node"><title>Node13</title>
<g id="a_node13"><a xlink:href="../../d3/da2/classinterpreter_1_1_parser.html#a27e67bfe24e33d6ac58aa3b482cd0f07" target="_top" xlink:title="interpreter.Parser.parse\lSLogoExpression">
<polygon fill="white" stroke="black" points="884.5,-262 884.5,-292 1013.5,-292 1013.5,-262 884.5,-262"/>
<text text-anchor="start" x="892.5" y="-280" font-family="Helvetica,sans-Serif" font-size="10.00">interpreter.Parser.parse</text>
<text text-anchor="middle" x="949" y="-269" font-family="Helvetica,sans-Serif" font-size="10.00">SLogoExpression</text>
</a>
</g>
</g>
<!-- Node6&#45;&gt;Node13 -->
<g id="edge12" class="edge"><title>Node6&#45;&gt;Node13</title>
<path fill="none" stroke="midnightblue" d="M779.718,-169.597C789.392,-172.069 799.112,-175.155 808,-179 852.419,-198.215 897.074,-232.733 923.629,-255.25"/>
<polygon fill="midnightblue" stroke="midnightblue" points="921.406,-257.954 931.269,-261.823 925.971,-252.648 921.406,-257.954"/>
</g>
<!-- Node8 -->
<g id="node8" class="node"><title>Node8</title>
<g id="a_node8"><a xlink:href="../../d6/d76/classinterpreter_1_1_s_logo_result_merger.html#a706aced67e4d219faa11f9821fef9000" target="_top" xlink:title="interpreter.SLogoResultMerger.append">
<polygon fill="white" stroke="black" points="1090,-125.5 1090,-144.5 1290,-144.5 1290,-125.5 1090,-125.5"/>
<text text-anchor="middle" x="1190" y="-132.5" font-family="Helvetica,sans-Serif" font-size="10.00">interpreter.SLogoResultMerger.append</text>
</a>
</g>
</g>
<!-- Node7&#45;&gt;Node8 -->
<g id="edge7" class="edge"><title>Node7&#45;&gt;Node8</title>
<path fill="none" stroke="midnightblue" d="M1054.13,-149.107C1065.31,-147.939 1076.66,-146.751 1087.8,-145.586"/>
<polygon fill="midnightblue" stroke="midnightblue" points="1088.37,-149.045 1097.95,-144.524 1087.64,-142.083 1088.37,-149.045"/>
</g>
<!-- Node9 -->
<g id="node9" class="node"><title>Node9</title>
<g id="a_node9"><a xlink:href="../../d6/d76/classinterpreter_1_1_s_logo_result_merger.html#a8c0879f8ab9d66e54b0317229ee6aa77" target="_top" xlink:title="interpreter.SLogoResultMerger.merge\lAndReturn">
<polygon fill="white" stroke="black" points="1092,-164 1092,-194 1288,-194 1288,-164 1092,-164"/>
<text text-anchor="start" x="1100" y="-182" font-family="Helvetica,sans-Serif" font-size="10.00">interpreter.SLogoResultMerger.merge</text>
<text text-anchor="middle" x="1190" y="-171" font-family="Helvetica,sans-Serif" font-size="10.00">AndReturn</text>
</a>
</g>
</g>
<!-- Node7&#45;&gt;Node9 -->
<g id="edge8" class="edge"><title>Node7&#45;&gt;Node9</title>
<path fill="none" stroke="midnightblue" d="M1054.13,-168.278C1063.37,-169.013 1072.73,-169.757 1082,-170.493"/>
<polygon fill="midnightblue" stroke="midnightblue" points="1081.75,-173.985 1091.99,-171.288 1082.3,-167.007 1081.75,-173.985"/>
</g>
<!-- Node10 -->
<g id="node10" class="node"><title>Node10</title>
<g id="a_node10"><a xlink:href="../../df/df6/classinterpreter_1_1result_1_1_s_logo_result.html#a11062748597af4f6622d9cbc92d4d9c0" target="_top" xlink:title="interpreter.result.SLogo\lResult.getTransition">
<polygon fill="white" stroke="black" points="1351,-57 1351,-87 1481,-87 1481,-57 1351,-57"/>
<text text-anchor="start" x="1359" y="-75" font-family="Helvetica,sans-Serif" font-size="10.00">interpreter.result.SLogo</text>
<text text-anchor="middle" x="1416" y="-64" font-family="Helvetica,sans-Serif" font-size="10.00">Result.getTransition</text>
</a>
</g>
</g>
<!-- Node9&#45;&gt;Node10 -->
<g id="edge9" class="edge"><title>Node9&#45;&gt;Node10</title>
<path fill="none" stroke="midnightblue" d="M1263.42,-163.951C1272.54,-161.118 1281.61,-157.819 1290,-154 1307.73,-145.93 1309.8,-139.81 1326,-129 1344.59,-116.6 1365.63,-103.1 1382.59,-92.3513"/>
<polygon fill="midnightblue" stroke="midnightblue" points="1384.46,-95.3047 1391.04,-87.0019 1380.72,-89.3883 1384.46,-95.3047"/>
</g>
<!-- Node11 -->
<g id="node11" class="node"><title>Node11</title>
<g id="a_node11"><a xlink:href="../../df/df6/classinterpreter_1_1result_1_1_s_logo_result.html#a7e050bbb65d7c7eb5e9b9970c6e2616f" target="_top" xlink:title="interpreter.result.SLogo\lResult.getValue">
<polygon fill="white" stroke="black" points="1351,-188 1351,-218 1481,-218 1481,-188 1351,-188"/>
<text text-anchor="start" x="1359" y="-206" font-family="Helvetica,sans-Serif" font-size="10.00">interpreter.result.SLogo</text>
<text text-anchor="middle" x="1416" y="-195" font-family="Helvetica,sans-Serif" font-size="10.00">Result.getValue</text>
</a>
</g>
</g>
<!-- Node9&#45;&gt;Node11 -->
<g id="edge10" class="edge"><title>Node9&#45;&gt;Node11</title>
<path fill="none" stroke="midnightblue" d="M1288.27,-189.422C1305.77,-191.297 1323.76,-193.225 1340.49,-195.017"/>
<polygon fill="midnightblue" stroke="midnightblue" points="1340.41,-198.529 1350.73,-196.114 1341.16,-191.568 1340.41,-198.529"/>
</g>
<!-- Node12 -->
<g id="node12" class="node"><title>Node12</title>
<g id="a_node12"><a xlink:href="../../df/df6/classinterpreter_1_1result_1_1_s_logo_result.html#ade0879b3224a3216bf17e17e25bfd4ca" target="_top" xlink:title="interpreter.result.SLogo\lResult.setValue">
<polygon fill="white" stroke="black" points="1351,-139 1351,-169 1481,-169 1481,-139 1351,-139"/>
<text text-anchor="start" x="1359" y="-157" font-family="Helvetica,sans-Serif" font-size="10.00">interpreter.result.SLogo</text>
<text text-anchor="middle" x="1416" y="-146" font-family="Helvetica,sans-Serif" font-size="10.00">Result.setValue</text>
</a>
</g>
</g>
<!-- Node9&#45;&gt;Node12 -->
<g id="edge11" class="edge"><title>Node9&#45;&gt;Node12</title>
<path fill="none" stroke="midnightblue" d="M1288.27,-168.144C1305.77,-166.19 1323.76,-164.183 1340.49,-162.316"/>
<polygon fill="midnightblue" stroke="midnightblue" points="1341.18,-165.761 1350.73,-161.173 1340.4,-158.804 1341.18,-165.761"/>
</g>
<!-- Node14 -->
<g id="node14" class="node"><title>Node14</title>
<g id="a_node14"><a xlink:href="../../d3/da2/classinterpreter_1_1_parser.html#aa6ccb9df4d2405de8b559ebf6fdf9c51" target="_top" xlink:title="interpreter.Parser.loadAll\lExpressionParameters">
<polygon fill="white" stroke="black" points="1123,-311 1123,-341 1257,-341 1257,-311 1123,-311"/>
<text text-anchor="start" x="1131" y="-329" font-family="Helvetica,sans-Serif" font-size="10.00">interpreter.Parser.loadAll</text>
<text text-anchor="middle" x="1190" y="-318" font-family="Helvetica,sans-Serif" font-size="10.00">ExpressionParameters</text>
</a>
</g>
</g>
<!-- Node13&#45;&gt;Node14 -->
<g id="edge13" class="edge"><title>Node13&#45;&gt;Node14</title>
<path fill="none" stroke="midnightblue" d="M1013.73,-290.067C1044.18,-296.309 1080.85,-303.827 1112.76,-310.37"/>
<polygon fill="midnightblue" stroke="midnightblue" points="1112.44,-313.877 1122.94,-312.457 1113.85,-307.02 1112.44,-313.877"/>
</g>
<!-- Node16 -->
<g id="node16" class="node"><title>Node16</title>
<g id="a_node16"><a xlink:href="../../d3/da2/classinterpreter_1_1_parser.html#a6ec7d578c175a308702b323914b4cfd0" target="_top" xlink:title="interpreter.Parser.makeExpressions\lFromInput">
<polygon fill="white" stroke="black" points="1097,-262 1097,-292 1283,-292 1283,-262 1097,-262"/>
<text text-anchor="start" x="1105" y="-280" font-family="Helvetica,sans-Serif" font-size="10.00">interpreter.Parser.makeExpressions</text>
<text text-anchor="middle" x="1190" y="-269" font-family="Helvetica,sans-Serif" font-size="10.00">FromInput</text>
</a>
</g>
</g>
<!-- Node13&#45;&gt;Node16 -->
<g id="edge15" class="edge"><title>Node13&#45;&gt;Node16</title>
<path fill="none" stroke="midnightblue" d="M1013.73,-277C1036.1,-277 1061.82,-277 1086.55,-277"/>
<polygon fill="midnightblue" stroke="midnightblue" points="1086.7,-280.5 1096.7,-277 1086.7,-273.5 1086.7,-280.5"/>
</g>
<!-- Node25 -->
<g id="node25" class="node"><title>Node25</title>
<g id="a_node25"><a xlink:href="../../d3/da2/classinterpreter_1_1_parser.html#ace7fbbc85fc2aad57bea2330b0476ef4" target="_top" xlink:title="interpreter.Parser.parse\lOutComments">
<polygon fill="white" stroke="black" points="1125.5,-213 1125.5,-243 1254.5,-243 1254.5,-213 1125.5,-213"/>
<text text-anchor="start" x="1133.5" y="-231" font-family="Helvetica,sans-Serif" font-size="10.00">interpreter.Parser.parse</text>
<text text-anchor="middle" x="1190" y="-220" font-family="Helvetica,sans-Serif" font-size="10.00">OutComments</text>
</a>
</g>
</g>
<!-- Node13&#45;&gt;Node25 -->
<g id="edge24" class="edge"><title>Node13&#45;&gt;Node25</title>
<path fill="none" stroke="midnightblue" d="M1013.73,-263.933C1045.06,-257.51 1082.98,-249.735 1115.53,-243.063"/>
<polygon fill="midnightblue" stroke="midnightblue" points="1116.35,-246.468 1125.44,-241.03 1114.94,-239.61 1116.35,-246.468"/>
</g>
<!-- Node26 -->
<g id="node26" class="node"><title>Node26</title>
<g id="a_node26"><a xlink:href="../../d3/da2/classinterpreter_1_1_parser.html#a2c8ee0acf938cac9cd22ef8fe5c77866" target="_top" xlink:title="interpreter.Parser.process\lInput">
<polygon fill="white" stroke="black" points="1120,-360 1120,-390 1260,-390 1260,-360 1120,-360"/>
<text text-anchor="start" x="1128" y="-378" font-family="Helvetica,sans-Serif" font-size="10.00">interpreter.Parser.process</text>
<text text-anchor="middle" x="1190" y="-367" font-family="Helvetica,sans-Serif" font-size="10.00">Input</text>
</a>
</g>
</g>
<!-- Node13&#45;&gt;Node26 -->
<g id="edge25" class="edge"><title>Node13&#45;&gt;Node26</title>
<path fill="none" stroke="midnightblue" d="M974.472,-292.011C1001.79,-308.227 1047.73,-333.898 1090,-350 1096.72,-352.56 1103.79,-354.936 1110.95,-357.123"/>
<polygon fill="midnightblue" stroke="midnightblue" points="1110.13,-360.532 1120.71,-359.987 1112.1,-353.815 1110.13,-360.532"/>
</g>
<!-- Node15 -->
<g id="node15" class="node"><title>Node15</title>
<g id="a_node15"><a xlink:href="../../db/d09/interfaceinterpreter_1_1expression_1_1_s_logo_expression.html#a8bb3a17e57258a80b5becf128afaa04c" target="_top" xlink:title="interpreter.expression.SLogo\lExpression.loadArguments">
<polygon fill="white" stroke="black" points="1338.5,-311 1338.5,-341 1493.5,-341 1493.5,-311 1338.5,-311"/>
<text text-anchor="start" x="1346.5" y="-329" font-family="Helvetica,sans-Serif" font-size="10.00">interpreter.expression.SLogo</text>
<text text-anchor="middle" x="1416" y="-318" font-family="Helvetica,sans-Serif" font-size="10.00">Expression.loadArguments</text>
</a>
</g>
</g>
<!-- Node14&#45;&gt;Node15 -->
<g id="edge14" class="edge"><title>Node14&#45;&gt;Node15</title>
<path fill="none" stroke="midnightblue" d="M1257.3,-326C1279.44,-326 1304.45,-326 1327.93,-326"/>
<polygon fill="midnightblue" stroke="midnightblue" points="1328.23,-329.5 1338.23,-326 1328.23,-322.5 1328.23,-329.5"/>
</g>
<!-- Node17 -->
<g id="node17" class="node"><title>Node17</title>
<g id="a_node17"><a xlink:href="../../d8/daa/classinterpreter_1_1_s_logo_expression_factory.html#a50eb077dd9b57f111e60eb7b297b6d29" target="_top" xlink:title="interpreter.SLogoExpression\lFactory.createExpression">
<polygon fill="white" stroke="black" points="1340,-262 1340,-292 1492,-292 1492,-262 1340,-262"/>
<text text-anchor="start" x="1348" y="-280" font-family="Helvetica,sans-Serif" font-size="10.00">interpreter.SLogoExpression</text>
<text text-anchor="middle" x="1416" y="-269" font-family="Helvetica,sans-Serif" font-size="10.00">Factory.createExpression</text>
</a>
</g>
</g>
<!-- Node16&#45;&gt;Node17 -->
<g id="edge16" class="edge"><title>Node16&#45;&gt;Node17</title>
<path fill="none" stroke="midnightblue" d="M1283.08,-277C1298.37,-277 1314.18,-277 1329.31,-277"/>
<polygon fill="midnightblue" stroke="midnightblue" points="1329.66,-280.5 1339.66,-277 1329.66,-273.5 1329.66,-280.5"/>
</g>
<!-- Node18 -->
<g id="node18" class="node"><title>Node18</title>
<g id="a_node18"><a xlink:href="../../d8/daa/classinterpreter_1_1_s_logo_expression_factory.html#af866a871782317ae912240ad2e383bd9" target="_top" xlink:title="interpreter.SLogoExpression\lFactory.checkTypeAndInitialize">
<polygon fill="white" stroke="black" points="1542,-262 1542,-292 1700,-292 1700,-262 1542,-262"/>
<text text-anchor="start" x="1550" y="-280" font-family="Helvetica,sans-Serif" font-size="10.00">interpreter.SLogoExpression</text>
<text text-anchor="middle" x="1621" y="-269" font-family="Helvetica,sans-Serif" font-size="10.00">Factory.checkTypeAndInitialize</text>
</a>
</g>
</g>
<!-- Node17&#45;&gt;Node18 -->
<g id="edge17" class="edge"><title>Node17&#45;&gt;Node18</title>
<path fill="none" stroke="midnightblue" d="M1492.01,-277C1504.97,-277 1518.55,-277 1531.82,-277"/>
<polygon fill="midnightblue" stroke="midnightblue" points="1531.9,-280.5 1541.9,-277 1531.9,-273.5 1531.9,-280.5"/>
</g>
<!-- Node19 -->
<g id="node19" class="node"><title>Node19</title>
<g id="a_node19"><a xlink:href="../../d8/daa/classinterpreter_1_1_s_logo_expression_factory.html#aed195cb1e071e9e87792f7a51242f824" target="_top" xlink:title="interpreter.SLogoExpression\lFactory.initializeExpression">
<polygon fill="white" stroke="black" points="1738,-311 1738,-341 1890,-341 1890,-311 1738,-311"/>
<text text-anchor="start" x="1746" y="-329" font-family="Helvetica,sans-Serif" font-size="10.00">interpreter.SLogoExpression</text>
<text text-anchor="middle" x="1814" y="-318" font-family="Helvetica,sans-Serif" font-size="10.00">Factory.initializeExpression</text>
</a>
</g>
</g>
<!-- Node18&#45;&gt;Node19 -->
<g id="edge18" class="edge"><title>Node18&#45;&gt;Node19</title>
<path fill="none" stroke="midnightblue" d="M1680.6,-292.035C1700.86,-297.232 1723.74,-303.101 1744.71,-308.48"/>
<polygon fill="midnightblue" stroke="midnightblue" points="1743.95,-311.899 1754.51,-310.994 1745.69,-305.119 1743.95,-311.899"/>
</g>
<!-- Node23 -->
<g id="node23" class="node"><title>Node23</title>
<g id="a_node23"><a xlink:href="../../d8/daa/classinterpreter_1_1_s_logo_expression_factory.html#a67c690097a981fbc2bf840c1f619639a" target="_top" xlink:title="interpreter.SLogoExpression\lFactory.isMatch">
<polygon fill="white" stroke="black" points="1738,-262 1738,-292 1890,-292 1890,-262 1738,-262"/>
<text text-anchor="start" x="1746" y="-280" font-family="Helvetica,sans-Serif" font-size="10.00">interpreter.SLogoExpression</text>
<text text-anchor="middle" x="1814" y="-269" font-family="Helvetica,sans-Serif" font-size="10.00">Factory.isMatch</text>
</a>
</g>
</g>
<!-- Node18&#45;&gt;Node23 -->
<g id="edge22" class="edge"><title>Node18&#45;&gt;Node23</title>
<path fill="none" stroke="midnightblue" d="M1700.24,-277C1709.3,-277 1718.57,-277 1727.71,-277"/>
<polygon fill="midnightblue" stroke="midnightblue" points="1727.96,-280.5 1737.96,-277 1727.96,-273.5 1727.96,-280.5"/>
</g>
<!-- Node24 -->
<g id="node24" class="node"><title>Node24</title>
<g id="a_node24"><a xlink:href="../../db/d09/interfaceinterpreter_1_1expression_1_1_s_logo_expression.html#a035636bae1b48baf5732f091a85ca9b1" target="_top" xlink:title="interpreter.expression.SLogo\lExpression.setValue">
<polygon fill="white" stroke="black" points="1736.5,-213 1736.5,-243 1891.5,-243 1891.5,-213 1736.5,-213"/>
<text text-anchor="start" x="1744.5" y="-231" font-family="Helvetica,sans-Serif" font-size="10.00">interpreter.expression.SLogo</text>
<text text-anchor="middle" x="1814" y="-220" font-family="Helvetica,sans-Serif" font-size="10.00">Expression.setValue</text>
</a>
</g>
</g>
<!-- Node18&#45;&gt;Node24 -->
<g id="edge23" class="edge"><title>Node18&#45;&gt;Node24</title>
<path fill="none" stroke="midnightblue" d="M1680.6,-261.965C1700.86,-256.768 1723.74,-250.899 1744.71,-245.52"/>
<polygon fill="midnightblue" stroke="midnightblue" points="1745.69,-248.881 1754.51,-243.006 1743.95,-242.101 1745.69,-248.881"/>
</g>
<!-- Node20 -->
<g id="node20" class="node"><title>Node20</title>
<g id="a_node20"><a xlink:href="../../db/d09/interfaceinterpreter_1_1expression_1_1_s_logo_expression.html#a8dbb9bf4dced75bf7e423cb614958a15" target="_top" xlink:title="interpreter.expression.SLogo\lExpression.loadLibrary">
<polygon fill="white" stroke="black" points="1928.5,-360 1928.5,-390 2083.5,-390 2083.5,-360 1928.5,-360"/>
<text text-anchor="start" x="1936.5" y="-378" font-family="Helvetica,sans-Serif" font-size="10.00">interpreter.expression.SLogo</text>
<text text-anchor="middle" x="2006" y="-367" font-family="Helvetica,sans-Serif" font-size="10.00">Expression.loadLibrary</text>
</a>
</g>
</g>
<!-- Node19&#45;&gt;Node20 -->
<g id="edge19" class="edge"><title>Node19&#45;&gt;Node20</title>
<path fill="none" stroke="midnightblue" d="M1873.3,-341.035C1893.45,-346.232 1916.21,-352.101 1937.06,-357.48"/>
<polygon fill="midnightblue" stroke="midnightblue" points="1936.26,-360.886 1946.81,-359.994 1938,-354.107 1936.26,-360.886"/>
</g>
<!-- Node21 -->
<g id="node21" class="node"><title>Node21</title>
<g id="a_node21"><a xlink:href="../../db/d09/interfaceinterpreter_1_1expression_1_1_s_logo_expression.html#a85984c7b01a9e06a1f4c8d73f7752a48" target="_top" xlink:title="interpreter.expression.SLogo\lExpression.loadModel">
<polygon fill="white" stroke="black" points="1928.5,-311 1928.5,-341 2083.5,-341 2083.5,-311 1928.5,-311"/>
<text text-anchor="start" x="1936.5" y="-329" font-family="Helvetica,sans-Serif" font-size="10.00">interpreter.expression.SLogo</text>
<text text-anchor="middle" x="2006" y="-318" font-family="Helvetica,sans-Serif" font-size="10.00">Expression.loadModel</text>
</a>
</g>
</g>
<!-- Node19&#45;&gt;Node21 -->
<g id="edge20" class="edge"><title>Node19&#45;&gt;Node21</title>
<path fill="none" stroke="midnightblue" d="M1890.09,-326C1899.31,-326 1908.79,-326 1918.16,-326"/>
<polygon fill="midnightblue" stroke="midnightblue" points="1918.27,-329.5 1928.27,-326 1918.27,-322.5 1918.27,-329.5"/>
</g>
<!-- Node22 -->
<g id="node22" class="node"><title>Node22</title>
<g id="a_node22"><a xlink:href="../../db/d09/interfaceinterpreter_1_1expression_1_1_s_logo_expression.html#ae5647ebedeb07edc2902d7cf478107f7" target="_top" xlink:title="interpreter.expression.SLogo\lExpression.setNumArgs">
<polygon fill="white" stroke="black" points="1928.5,-262 1928.5,-292 2083.5,-292 2083.5,-262 1928.5,-262"/>
<text text-anchor="start" x="1936.5" y="-280" font-family="Helvetica,sans-Serif" font-size="10.00">interpreter.expression.SLogo</text>
<text text-anchor="middle" x="2006" y="-269" font-family="Helvetica,sans-Serif" font-size="10.00">Expression.setNumArgs</text>
</a>
</g>
</g>
<!-- Node19&#45;&gt;Node22 -->
<g id="edge21" class="edge"><title>Node19&#45;&gt;Node22</title>
<path fill="none" stroke="midnightblue" d="M1873.3,-310.965C1893.45,-305.768 1916.21,-299.899 1937.06,-294.52"/>
<polygon fill="midnightblue" stroke="midnightblue" points="1938,-297.893 1946.81,-292.006 1936.26,-291.114 1938,-297.893"/>
</g>
<!-- Node28&#45;&gt;Node10 -->
<g id="edge28" class="edge"><title>Node28&#45;&gt;Node10</title>
<path fill="none" stroke="midnightblue" d="M799.122,-71.1177C935.961,-71.3137 1208.58,-71.7043 1340.31,-71.893"/>
<polygon fill="midnightblue" stroke="midnightblue" points="1340.69,-75.3935 1350.7,-71.9079 1340.7,-68.3935 1340.69,-75.3935"/>
</g>
<!-- Node29 -->
<g id="node29" class="node"><title>Node29</title>
<g id="a_node29"><a xlink:href="../../de/d21/classmodel_1_1_main_model.html#aad9f626d0b472cbc3d57e8af0c4326cc" target="_top" xlink:title="model.MainModel.setMyAnimation">
<polygon fill="white" stroke="black" points="858.5,-87.5 858.5,-106.5 1039.5,-106.5 1039.5,-87.5 858.5,-87.5"/>
<text text-anchor="middle" x="949" y="-94.5" font-family="Helvetica,sans-Serif" font-size="10.00">model.MainModel.setMyAnimation</text>
</a>
</g>
</g>
<!-- Node28&#45;&gt;Node29 -->
<g id="edge29" class="edge"><title>Node28&#45;&gt;Node29</title>
<path fill="none" stroke="midnightblue" d="M799.092,-80.2398C816.709,-82.2226 835.459,-84.3331 853.502,-86.3639"/>
<polygon fill="midnightblue" stroke="midnightblue" points="853.113,-89.8421 863.442,-87.4826 853.896,-82.886 853.113,-89.8421"/>
</g>
<!-- Node31 -->
<g id="node31" class="node"><title>Node31</title>
<g id="a_node31"><a xlink:href="../../dd/d63/classmodel_1_1_model_updater.html#a08dce6edfc21ceba207d7a534d2bd71c" target="_top" xlink:title="model.ModelUpdater.update\lModel">
<polygon fill="white" stroke="black" points="872.5,-0 872.5,-30 1025.5,-30 1025.5,-0 872.5,-0"/>
<text text-anchor="start" x="880.5" y="-18" font-family="Helvetica,sans-Serif" font-size="10.00">model.ModelUpdater.update</text>
<text text-anchor="middle" x="949" y="-7" font-family="Helvetica,sans-Serif" font-size="10.00">Model</text>
</a>
</g>
</g>
<!-- Node28&#45;&gt;Node31 -->
<g id="edge31" class="edge"><title>Node28&#45;&gt;Node31</title>
<path fill="none" stroke="midnightblue" d="M756.448,-61.4369C789.235,-53.4886 836.74,-41.9721 876.238,-32.3968"/>
<polygon fill="midnightblue" stroke="midnightblue" points="877.2,-35.7651 886.094,-30.0075 875.551,-28.9621 877.2,-35.7651"/>
</g>
<!-- Node30 -->
<g id="node30" class="node"><title>Node30</title>
<g id="a_node30"><a xlink:href="../../d4/d57/classturtle_1_1_turtle_list_history.html#a1d6e950f470e133d79684a9c3baf54b4" target="_top" xlink:title="turtle.TurtleListHistory.updateList">
<polygon fill="white" stroke="black" points="1103.5,-87.5 1103.5,-106.5 1276.5,-106.5 1276.5,-87.5 1103.5,-87.5"/>
<text text-anchor="middle" x="1190" y="-94.5" font-family="Helvetica,sans-Serif" font-size="10.00">turtle.TurtleListHistory.updateList</text>
</a>
</g>
</g>
<!-- Node29&#45;&gt;Node30 -->
<g id="edge30" class="edge"><title>Node29&#45;&gt;Node30</title>
<path fill="none" stroke="midnightblue" d="M1039.67,-97C1057.06,-97 1075.34,-97 1092.92,-97"/>
<polygon fill="midnightblue" stroke="midnightblue" points="1093.18,-100.5 1103.18,-97 1093.18,-93.5001 1093.18,-100.5"/>
</g>
<!-- Node32 -->
<g id="node32" class="node"><title>Node32</title>
<g id="a_node32"><a xlink:href="../../dd/d63/classmodel_1_1_model_updater.html#ad73b783b59545c68e1fb9123e44492d4" target="_top" xlink:title="model.ModelUpdater.create\lTurtleTransitionMapping">
<polygon fill="white" stroke="black" points="1115,-0 1115,-30 1265,-30 1265,-0 1115,-0"/>
<text text-anchor="start" x="1123" y="-18" font-family="Helvetica,sans-Serif" font-size="10.00">model.ModelUpdater.create</text>
<text text-anchor="middle" x="1190" y="-7" font-family="Helvetica,sans-Serif" font-size="10.00">TurtleTransitionMapping</text>
</a>
</g>
</g>
<!-- Node31&#45;&gt;Node32 -->
<g id="edge32" class="edge"><title>Node31&#45;&gt;Node32</title>
<path fill="none" stroke="midnightblue" d="M1025.62,-15C1050.73,-15 1078.85,-15 1104.58,-15"/>
<polygon fill="midnightblue" stroke="midnightblue" points="1104.69,-18.5001 1114.69,-15 1104.69,-11.5001 1104.69,-18.5001"/>
</g>
<!-- Node33 -->
<g id="node33" class="node"><title>Node33</title>
<g id="a_node33"><a xlink:href="../../dd/d63/classmodel_1_1_model_updater.html#a44e91f3e31045ca0a067ffe9d270ab29" target="_top" xlink:title="model.ModelUpdater.findSelected\lTurtles">
<polygon fill="white" stroke="black" points="1326.5,-0 1326.5,-30 1505.5,-30 1505.5,-0 1326.5,-0"/>
<text text-anchor="start" x="1334.5" y="-18" font-family="Helvetica,sans-Serif" font-size="10.00">model.ModelUpdater.findSelected</text>
<text text-anchor="middle" x="1416" y="-7" font-family="Helvetica,sans-Serif" font-size="10.00">Turtles</text>
</a>
</g>
</g>
<!-- Node32&#45;&gt;Node33 -->
<g id="edge33" class="edge"><title>Node32&#45;&gt;Node33</title>
<path fill="none" stroke="midnightblue" d="M1265.28,-15C1281.41,-15 1298.73,-15 1315.66,-15"/>
<polygon fill="midnightblue" stroke="midnightblue" points="1316.14,-18.5001 1326.14,-15 1316.14,-11.5001 1316.14,-18.5001"/>
</g>
</g>
</svg>
