<?xml version="1.0" encoding="UTF-8" standalone="no"?>
<!DOCTYPE svg PUBLIC "-//W3C//DTD SVG 1.1//EN"
 "http://www.w3.org/Graphics/SVG/1.1/DTD/svg11.dtd">
<!-- Generated by graphviz version 2.36.0 (20140111.2315)
 -->
<!-- Title: viewcontroller.turtlegrid.TurtleWindowViewController.animationSpeedChanged Pages: 1 -->
<svg width="688pt" height="48pt"
 viewBox="0.00 0.00 688.00 48.00" xmlns="http://www.w3.org/2000/svg" xmlns:xlink="http://www.w3.org/1999/xlink">
<g id="graph0" class="graph" transform="scale(1 1) rotate(0) translate(4 44)">
<title>viewcontroller.turtlegrid.TurtleWindowViewController.animationSpeedChanged</title>
<polygon fill="white" stroke="none" points="-4,4 -4,-44 684,-44 684,4 -4,4"/>
<!-- Node1 -->
<g id="node1" class="node"><title>Node1</title>
<polygon fill="#bfbfbf" stroke="black" points="0,0.5 0,-40.5 196,-40.5 196,0.5 0,0.5"/>
<text text-anchor="start" x="8" y="-28.5" font-family="Helvetica,sans-Serif" font-size="10.00">viewcontroller.turtlegrid.</text>
<text text-anchor="start" x="8" y="-17.5" font-family="Helvetica,sans-Serif" font-size="10.00">TurtleWindowViewController.animation</text>
<text text-anchor="middle" x="98" y="-6.5" font-family="Helvetica,sans-Serif" font-size="10.00">SpeedChanged</text>
</g>
<!-- Node2 -->
<g id="node2" class="node"><title>Node2</title>
<g id="a_node2"><a xlink:href="../../d3/d67/classviewcontroller_1_1_main_view_controller.html#a5cdd7f7ddd825dd463f57d193943fd58" target="_top" xlink:title="viewcontroller.MainViewController.animation\lSpeedChanged">
<polygon fill="white" stroke="black" points="232.5,-5 232.5,-35 457.5,-35 457.5,-5 232.5,-5"/>
<text text-anchor="start" x="240.5" y="-23" font-family="Helvetica,sans-Serif" font-size="10.00">viewcontroller.MainViewController.animation</text>
<text text-anchor="middle" x="345" y="-12" font-family="Helvetica,sans-Serif" font-size="10.00">SpeedChanged</text>
</a>
</g>
</g>
<!-- Node1&#45;&gt;Node2 -->
<g id="edge1" class="edge"><title>Node1&#45;&gt;Node2</title>
<path fill="none" stroke="midnightblue" d="M196.182,-20C204.729,-20 213.447,-20 222.16,-20"/>
<polygon fill="midnightblue" stroke="midnightblue" points="222.377,-23.5001 232.377,-20 222.376,-16.5001 222.377,-23.5001"/>
</g>
<!-- Node3 -->
<g id="node3" class="node"><title>Node3</title>
<g id="a_node3"><a xlink:href="../../de/d21/classmodel_1_1_main_model.html#a0d346bcf3c1f0d9babcc257e63042f64" target="_top" xlink:title="model.MainModel.updateAnimation\lSpeed">
<polygon fill="white" stroke="black" points="494,-5 494,-35 680,-35 680,-5 494,-5"/>
<text text-anchor="start" x="502" y="-23" font-family="Helvetica,sans-Serif" font-size="10.00">model.MainModel.updateAnimation</text>
<text text-anchor="middle" x="587" y="-12" font-family="Helvetica,sans-Serif" font-size="10.00">Speed</text>
</a>
</g>
</g>
<!-- Node2&#45;&gt;Node3 -->
<g id="edge2" class="edge"><title>Node2&#45;&gt;Node3</title>
<path fill="none" stroke="midnightblue" d="M457.569,-20C466.279,-20 475.049,-20 483.693,-20"/>
<polygon fill="midnightblue" stroke="midnightblue" points="483.773,-23.5001 493.773,-20 483.773,-16.5001 483.773,-23.5001"/>
</g>
</g>
</svg>
