<?xml version="1.0" encoding="UTF-8" standalone="no"?>
<!DOCTYPE svg PUBLIC "-//W3C//DTD SVG 1.1//EN"
 "http://www.w3.org/Graphics/SVG/1.1/DTD/svg11.dtd">
<!-- Generated by graphviz version 2.36.0 (20140111.2315)
 -->
<!-- Title: viewcontroller.turtlegrid.TurtleWindowViewController.TurtleWindowViewController Pages: 1 -->
<svg width="1114pt" height="382pt"
 viewBox="0.00 0.00 1114.00 382.00" xmlns="http://www.w3.org/2000/svg" xmlns:xlink="http://www.w3.org/1999/xlink">
<g id="graph0" class="graph" transform="scale(1 1) rotate(0) translate(4 378)">
<title>viewcontroller.turtlegrid.TurtleWindowViewController.TurtleWindowViewController</title>
<polygon fill="white" stroke="none" points="-4,4 -4,-378 1110,-378 1110,4 -4,4"/>
<!-- Node1 -->
<g id="node1" class="node"><title>Node1</title>
<polygon fill="#bfbfbf" stroke="black" points="0.5,-165.5 0.5,-206.5 173.5,-206.5 173.5,-165.5 0.5,-165.5"/>
<text text-anchor="start" x="8.5" y="-194.5" font-family="Helvetica,sans-Serif" font-size="10.00">viewcontroller.turtlegrid.</text>
<text text-anchor="start" x="8.5" y="-183.5" font-family="Helvetica,sans-Serif" font-size="10.00">TurtleWindowViewController.Turtle</text>
<text text-anchor="middle" x="87" y="-172.5" font-family="Helvetica,sans-Serif" font-size="10.00">WindowViewController</text>
</g>
<!-- Node2 -->
<g id="node2" class="node"><title>Node2</title>
<g id="a_node2"><a xlink:href="../../d3/daf/classviewcontroller_1_1turtlegrid_1_1_turtle_window_view_controller.html#ad20747828f10e957b0439e77cf253dc6" target="_top" xlink:title="viewcontroller.turtlegrid.\lTurtleWindowViewController.animation\lSpeedChanged">
<polygon fill="white" stroke="black" points="210,-332.5 210,-373.5 406,-373.5 406,-332.5 210,-332.5"/>
<text text-anchor="start" x="218" y="-361.5" font-family="Helvetica,sans-Serif" font-size="10.00">viewcontroller.turtlegrid.</text>
<text text-anchor="start" x="218" y="-350.5" font-family="Helvetica,sans-Serif" font-size="10.00">TurtleWindowViewController.animation</text>
<text text-anchor="middle" x="308" y="-339.5" font-family="Helvetica,sans-Serif" font-size="10.00">SpeedChanged</text>
</a>
</g>
</g>
<!-- Node1&#45;&gt;Node2 -->
<g id="edge1" class="edge"><title>Node1&#45;&gt;Node2</title>
<path fill="none" stroke="midnightblue" d="M103.27,-206.576C124.547,-234.03 165.537,-282.692 210,-313 218.297,-318.656 227.519,-323.731 236.882,-328.212"/>
<polygon fill="midnightblue" stroke="midnightblue" points="235.713,-331.526 246.263,-332.496 238.621,-325.158 235.713,-331.526"/>
</g>
<!-- Node5 -->
<g id="node5" class="node"><title>Node5</title>
<g id="a_node5"><a xlink:href="../../db/d5b/classviewcontroller_1_1turtlegrid_1_1_grid_button_bar.html#a01a5fe39af7ffdb337bf1ceab23d460d" target="_top" xlink:title="viewcontroller.turtlegrid.\lGridButtonBar.getAnimationSpeed">
<polygon fill="white" stroke="black" points="217,-274 217,-304 399,-304 399,-274 217,-274"/>
<text text-anchor="start" x="225" y="-292" font-family="Helvetica,sans-Serif" font-size="10.00">viewcontroller.turtlegrid.</text>
<text text-anchor="middle" x="308" y="-281" font-family="Helvetica,sans-Serif" font-size="10.00">GridButtonBar.getAnimationSpeed</text>
</a>
</g>
</g>
<!-- Node1&#45;&gt;Node5 -->
<g id="edge4" class="edge"><title>Node1&#45;&gt;Node5</title>
<path fill="none" stroke="midnightblue" d="M129.943,-206.598C153.42,-218.049 183.262,-232.473 210,-245 227.497,-253.198 246.871,-262.034 263.675,-269.622"/>
<polygon fill="midnightblue" stroke="midnightblue" points="262.683,-273.014 273.238,-273.931 265.559,-266.631 262.683,-273.014"/>
</g>
<!-- Node7 -->
<g id="node7" class="node"><title>Node7</title>
<g id="a_node7"><a xlink:href="../../d3/daf/classviewcontroller_1_1turtlegrid_1_1_turtle_window_view_controller.html#ad20e08a23f6390736b1de5252cd2a514" target="_top" xlink:title="viewcontroller.turtlegrid.\lTurtleWindowViewController.grid\lColorChanged">
<polygon fill="white" stroke="black" points="225,-195.5 225,-236.5 391,-236.5 391,-195.5 225,-195.5"/>
<text text-anchor="start" x="233" y="-224.5" font-family="Helvetica,sans-Serif" font-size="10.00">viewcontroller.turtlegrid.</text>
<text text-anchor="start" x="233" y="-213.5" font-family="Helvetica,sans-Serif" font-size="10.00">TurtleWindowViewController.grid</text>
<text text-anchor="middle" x="308" y="-202.5" font-family="Helvetica,sans-Serif" font-size="10.00">ColorChanged</text>
</a>
</g>
</g>
<!-- Node1&#45;&gt;Node7 -->
<g id="edge6" class="edge"><title>Node1&#45;&gt;Node7</title>
<path fill="none" stroke="midnightblue" d="M173.612,-197.728C186.996,-199.561 200.88,-201.463 214.411,-203.317"/>
<polygon fill="midnightblue" stroke="midnightblue" points="214.293,-206.833 224.676,-204.723 215.244,-199.898 214.293,-206.833"/>
</g>
<!-- Node13 -->
<g id="node13" class="node"><title>Node13</title>
<g id="a_node13"><a xlink:href="../../d3/daf/classviewcontroller_1_1turtlegrid_1_1_turtle_window_view_controller.html#a1b7bacbdd2f48f2b80c1ce40380b7602" target="_top" xlink:title="viewcontroller.turtlegrid.\lTurtleWindowViewController.pen\lColorChanged">
<polygon fill="white" stroke="black" points="225,-135.5 225,-176.5 391,-176.5 391,-135.5 225,-135.5"/>
<text text-anchor="start" x="233" y="-164.5" font-family="Helvetica,sans-Serif" font-size="10.00">viewcontroller.turtlegrid.</text>
<text text-anchor="start" x="233" y="-153.5" font-family="Helvetica,sans-Serif" font-size="10.00">TurtleWindowViewController.pen</text>
<text text-anchor="middle" x="308" y="-142.5" font-family="Helvetica,sans-Serif" font-size="10.00">ColorChanged</text>
</a>
</g>
</g>
<!-- Node1&#45;&gt;Node13 -->
<g id="edge12" class="edge"><title>Node1&#45;&gt;Node13</title>
<path fill="none" stroke="midnightblue" d="M173.612,-174.272C186.996,-172.439 200.88,-170.537 214.411,-168.683"/>
<polygon fill="midnightblue" stroke="midnightblue" points="215.244,-172.102 224.676,-167.277 214.293,-165.167 215.244,-172.102"/>
</g>
<!-- Node17 -->
<g id="node17" class="node"><title>Node17</title>
<g id="a_node17"><a xlink:href="../../d3/daf/classviewcontroller_1_1turtlegrid_1_1_turtle_window_view_controller.html#a332a656caa3ad18a8893689e54f393bb" target="_top" xlink:title="viewcontroller.turtlegrid.\lTurtleWindowViewController.place\lGridView">
<polygon fill="white" stroke="black" points="221.5,-71.5 221.5,-112.5 394.5,-112.5 394.5,-71.5 221.5,-71.5"/>
<text text-anchor="start" x="229.5" y="-100.5" font-family="Helvetica,sans-Serif" font-size="10.00">viewcontroller.turtlegrid.</text>
<text text-anchor="start" x="229.5" y="-89.5" font-family="Helvetica,sans-Serif" font-size="10.00">TurtleWindowViewController.place</text>
<text text-anchor="middle" x="308" y="-78.5" font-family="Helvetica,sans-Serif" font-size="10.00">GridView</text>
</a>
</g>
</g>
<!-- Node1&#45;&gt;Node17 -->
<g id="edge17" class="edge"><title>Node1&#45;&gt;Node17</title>
<path fill="none" stroke="midnightblue" d="M126.733,-165.468C150.446,-153.272 181.594,-137.913 210,-126 218.071,-122.615 226.609,-119.28 235.14,-116.098"/>
<polygon fill="midnightblue" stroke="midnightblue" points="236.558,-119.306 244.742,-112.578 234.149,-112.734 236.558,-119.306"/>
</g>
<!-- Node19 -->
<g id="node19" class="node"><title>Node19</title>
<g id="a_node19"><a xlink:href="../../d3/daf/classviewcontroller_1_1turtlegrid_1_1_turtle_window_view_controller.html#a27f0a71de331d445d72ee678989d79b8" target="_top" xlink:title="viewcontroller.turtlegrid.\lTurtleWindowViewController.place\lStatusView">
<polygon fill="white" stroke="black" points="221.5,-3.5 221.5,-44.5 394.5,-44.5 394.5,-3.5 221.5,-3.5"/>
<text text-anchor="start" x="229.5" y="-32.5" font-family="Helvetica,sans-Serif" font-size="10.00">viewcontroller.turtlegrid.</text>
<text text-anchor="start" x="229.5" y="-21.5" font-family="Helvetica,sans-Serif" font-size="10.00">TurtleWindowViewController.place</text>
<text text-anchor="middle" x="308" y="-10.5" font-family="Helvetica,sans-Serif" font-size="10.00">StatusView</text>
</a>
</g>
</g>
<!-- Node1&#45;&gt;Node19 -->
<g id="edge19" class="edge"><title>Node1&#45;&gt;Node19</title>
<path fill="none" stroke="midnightblue" d="M103.665,-165.358C125.078,-138.37 165.893,-91.1158 210,-62 217.482,-57.0608 225.704,-52.6097 234.098,-48.6427"/>
<polygon fill="midnightblue" stroke="midnightblue" points="235.563,-51.8217 243.247,-44.528 232.691,-45.4376 235.563,-51.8217"/>
</g>
<!-- Node3 -->
<g id="node3" class="node"><title>Node3</title>
<g id="a_node3"><a xlink:href="../../d3/d67/classviewcontroller_1_1_main_view_controller.html#a5cdd7f7ddd825dd463f57d193943fd58" target="_top" xlink:title="viewcontroller.MainViewController.animation\lSpeedChanged">
<polygon fill="white" stroke="black" points="442.5,-343 442.5,-373 667.5,-373 667.5,-343 442.5,-343"/>
<text text-anchor="start" x="450.5" y="-361" font-family="Helvetica,sans-Serif" font-size="10.00">viewcontroller.MainViewController.animation</text>
<text text-anchor="middle" x="555" y="-350" font-family="Helvetica,sans-Serif" font-size="10.00">SpeedChanged</text>
</a>
</g>
</g>
<!-- Node2&#45;&gt;Node3 -->
<g id="edge2" class="edge"><title>Node2&#45;&gt;Node3</title>
<path fill="none" stroke="midnightblue" d="M406.182,-354.983C414.729,-355.158 423.447,-355.336 432.16,-355.513"/>
<polygon fill="midnightblue" stroke="midnightblue" points="432.307,-359.017 442.377,-355.722 432.45,-352.019 432.307,-359.017"/>
</g>
<!-- Node4 -->
<g id="node4" class="node"><title>Node4</title>
<g id="a_node4"><a xlink:href="../../de/d21/classmodel_1_1_main_model.html#a0d346bcf3c1f0d9babcc257e63042f64" target="_top" xlink:title="model.MainModel.updateAnimation\lSpeed">
<polygon fill="white" stroke="black" points="704,-343 704,-373 890,-373 890,-343 704,-343"/>
<text text-anchor="start" x="712" y="-361" font-family="Helvetica,sans-Serif" font-size="10.00">model.MainModel.updateAnimation</text>
<text text-anchor="middle" x="797" y="-350" font-family="Helvetica,sans-Serif" font-size="10.00">Speed</text>
</a>
</g>
</g>
<!-- Node3&#45;&gt;Node4 -->
<g id="edge3" class="edge"><title>Node3&#45;&gt;Node4</title>
<path fill="none" stroke="midnightblue" d="M667.569,-358C676.279,-358 685.049,-358 693.693,-358"/>
<polygon fill="midnightblue" stroke="midnightblue" points="693.773,-361.5 703.773,-358 693.773,-354.5 693.773,-361.5"/>
</g>
<!-- Node6 -->
<g id="node6" class="node"><title>Node6</title>
<g id="a_node6"><a xlink:href="../../d4/d7d/classviewcontroller_1_1turtlegrid_1_1_s_logo_slider.html#a5c5bbec0999c6615e3beeffcf67ae067" target="_top" xlink:title="viewcontroller.turtlegrid.\lSLogoSlider.getValue">
<polygon fill="white" stroke="black" points="489.5,-294 489.5,-324 620.5,-324 620.5,-294 489.5,-294"/>
<text text-anchor="start" x="497.5" y="-312" font-family="Helvetica,sans-Serif" font-size="10.00">viewcontroller.turtlegrid.</text>
<text text-anchor="middle" x="555" y="-301" font-family="Helvetica,sans-Serif" font-size="10.00">SLogoSlider.getValue</text>
</a>
</g>
</g>
<!-- Node5&#45;&gt;Node6 -->
<g id="edge5" class="edge"><title>Node5&#45;&gt;Node6</title>
<path fill="none" stroke="midnightblue" d="M399.185,-296.362C425.447,-298.506 453.843,-300.824 479.058,-302.882"/>
<polygon fill="midnightblue" stroke="midnightblue" points="479.033,-306.392 489.284,-303.717 479.602,-299.415 479.033,-306.392"/>
</g>
<!-- Node8 -->
<g id="node8" class="node"><title>Node8</title>
<g id="a_node8"><a xlink:href="../../d3/d67/classviewcontroller_1_1_main_view_controller.html#ad838f61ff54b140140b60dfe625a269a" target="_top" xlink:title="viewcontroller.MainViewController.grid\lColorChanged">
<polygon fill="white" stroke="black" points="457.5,-245 457.5,-275 652.5,-275 652.5,-245 457.5,-245"/>
<text text-anchor="start" x="465.5" y="-263" font-family="Helvetica,sans-Serif" font-size="10.00">viewcontroller.MainViewController.grid</text>
<text text-anchor="middle" x="555" y="-252" font-family="Helvetica,sans-Serif" font-size="10.00">ColorChanged</text>
</a>
</g>
</g>
<!-- Node7&#45;&gt;Node8 -->
<g id="edge7" class="edge"><title>Node7&#45;&gt;Node8</title>
<path fill="none" stroke="midnightblue" d="M391.263,-230.774C413.423,-234.754 437.56,-239.088 460.294,-243.171"/>
<polygon fill="midnightblue" stroke="midnightblue" points="459.822,-246.642 470.283,-244.965 461.059,-239.753 459.822,-246.642"/>
</g>
<!-- Node11 -->
<g id="node11" class="node"><title>Node11</title>
<g id="a_node11"><a xlink:href="../../db/d5b/classviewcontroller_1_1turtlegrid_1_1_grid_button_bar.html#abcf833dea3b893c8fda4e482d8e082ff" target="_top" xlink:title="viewcontroller.turtlegrid.\lGridButtonBar.getGridColor">
<polygon fill="white" stroke="black" points="481.5,-196 481.5,-226 628.5,-226 628.5,-196 481.5,-196"/>
<text text-anchor="start" x="489.5" y="-214" font-family="Helvetica,sans-Serif" font-size="10.00">viewcontroller.turtlegrid.</text>
<text text-anchor="middle" x="555" y="-203" font-family="Helvetica,sans-Serif" font-size="10.00">GridButtonBar.getGridColor</text>
</a>
</g>
</g>
<!-- Node7&#45;&gt;Node11 -->
<g id="edge10" class="edge"><title>Node7&#45;&gt;Node11</title>
<path fill="none" stroke="midnightblue" d="M391.263,-214.321C417.035,-213.795 445.48,-213.215 471.283,-212.688"/>
<polygon fill="midnightblue" stroke="midnightblue" points="471.48,-216.185 481.406,-212.482 471.337,-209.186 471.48,-216.185"/>
</g>
<!-- Node9 -->
<g id="node9" class="node"><title>Node9</title>
<g id="a_node9"><a xlink:href="../../de/d21/classmodel_1_1_main_model.html#a4018fb674a6db15b5972b96ce05e2393" target="_top" xlink:title="model.MainModel.setBackground\lColor">
<polygon fill="white" stroke="black" points="709,-245 709,-275 885,-275 885,-245 709,-245"/>
<text text-anchor="start" x="717" y="-263" font-family="Helvetica,sans-Serif" font-size="10.00">model.MainModel.setBackground</text>
<text text-anchor="middle" x="797" y="-252" font-family="Helvetica,sans-Serif" font-size="10.00">Color</text>
</a>
</g>
</g>
<!-- Node8&#45;&gt;Node9 -->
<g id="edge8" class="edge"><title>Node8&#45;&gt;Node9</title>
<path fill="none" stroke="midnightblue" d="M652.58,-260C667.714,-260 683.364,-260 698.518,-260"/>
<polygon fill="midnightblue" stroke="midnightblue" points="698.918,-263.5 708.918,-260 698.918,-256.5 698.918,-263.5"/>
</g>
<!-- Node10 -->
<g id="node10" class="node"><title>Node10</title>
<g id="a_node10"><a xlink:href="../../de/d21/classmodel_1_1_main_model.html#a81fd23aa152cf9311abb569fa3c656fb" target="_top" xlink:title="model.MainModel.notifyObservers">
<polygon fill="white" stroke="black" points="926.5,-250.5 926.5,-269.5 1105.5,-269.5 1105.5,-250.5 926.5,-250.5"/>
<text text-anchor="middle" x="1016" y="-257.5" font-family="Helvetica,sans-Serif" font-size="10.00">model.MainModel.notifyObservers</text>
</a>
</g>
</g>
<!-- Node9&#45;&gt;Node10 -->
<g id="edge9" class="edge"><title>Node9&#45;&gt;Node10</title>
<path fill="none" stroke="midnightblue" d="M885.012,-260C895.182,-260 905.614,-260 915.932,-260"/>
<polygon fill="midnightblue" stroke="midnightblue" points="916.197,-263.5 926.197,-260 916.197,-256.5 916.197,-263.5"/>
</g>
<!-- Node12 -->
<g id="node12" class="node"><title>Node12</title>
<g id="a_node12"><a xlink:href="../../db/dbf/classviewcontroller_1_1turtlegrid_1_1_s_logo_color_picker.html#a24bb9b34500f114e800eb96d04fa91ab" target="_top" xlink:title="viewcontroller.turtlegrid.\lSLogoColorPicker.getColor">
<polygon fill="white" stroke="black" points="725.5,-171 725.5,-201 868.5,-201 868.5,-171 725.5,-171"/>
<text text-anchor="start" x="733.5" y="-189" font-family="Helvetica,sans-Serif" font-size="10.00">viewcontroller.turtlegrid.</text>
<text text-anchor="middle" x="797" y="-178" font-family="Helvetica,sans-Serif" font-size="10.00">SLogoColorPicker.getColor</text>
</a>
</g>
</g>
<!-- Node11&#45;&gt;Node12 -->
<g id="edge11" class="edge"><title>Node11&#45;&gt;Node12</title>
<path fill="none" stroke="midnightblue" d="M628.659,-203.431C655.938,-200.59 687.103,-197.343 715.085,-194.429"/>
<polygon fill="midnightblue" stroke="midnightblue" points="715.654,-197.888 725.237,-193.371 714.928,-190.926 715.654,-197.888"/>
</g>
<!-- Node14 -->
<g id="node14" class="node"><title>Node14</title>
<g id="a_node14"><a xlink:href="../../d3/d67/classviewcontroller_1_1_main_view_controller.html#acdf600eb8fbec8c663ae15d9d88e9882" target="_top" xlink:title="viewcontroller.MainViewController.pen\lColorChanged">
<polygon fill="white" stroke="black" points="457.5,-98 457.5,-128 652.5,-128 652.5,-98 457.5,-98"/>
<text text-anchor="start" x="465.5" y="-116" font-family="Helvetica,sans-Serif" font-size="10.00">viewcontroller.MainViewController.pen</text>
<text text-anchor="middle" x="555" y="-105" font-family="Helvetica,sans-Serif" font-size="10.00">ColorChanged</text>
</a>
</g>
</g>
<!-- Node13&#45;&gt;Node14 -->
<g id="edge13" class="edge"><title>Node13&#45;&gt;Node14</title>
<path fill="none" stroke="midnightblue" d="M391.263,-141.562C412.721,-137.796 436.032,-133.705 458.129,-129.826"/>
<polygon fill="midnightblue" stroke="midnightblue" points="458.94,-133.238 468.185,-128.061 457.73,-126.343 458.94,-133.238"/>
</g>
<!-- Node16 -->
<g id="node16" class="node"><title>Node16</title>
<g id="a_node16"><a xlink:href="../../db/d5b/classviewcontroller_1_1turtlegrid_1_1_grid_button_bar.html#aac1086f8c3fdafa48746685429e645c0" target="_top" xlink:title="viewcontroller.turtlegrid.\lGridButtonBar.getPenColor">
<polygon fill="white" stroke="black" points="482,-147 482,-177 628,-177 628,-147 482,-147"/>
<text text-anchor="start" x="490" y="-165" font-family="Helvetica,sans-Serif" font-size="10.00">viewcontroller.turtlegrid.</text>
<text text-anchor="middle" x="555" y="-154" font-family="Helvetica,sans-Serif" font-size="10.00">GridButtonBar.getPenColor</text>
</a>
</g>
</g>
<!-- Node13&#45;&gt;Node16 -->
<g id="edge15" class="edge"><title>Node13&#45;&gt;Node16</title>
<path fill="none" stroke="midnightblue" d="M391.263,-158.015C417.158,-158.649 445.751,-159.349 471.651,-159.983"/>
<polygon fill="midnightblue" stroke="midnightblue" points="471.728,-163.486 481.811,-160.232 471.899,-156.488 471.728,-163.486"/>
</g>
<!-- Node15 -->
<g id="node15" class="node"><title>Node15</title>
<g id="a_node15"><a xlink:href="../../de/d21/classmodel_1_1_main_model.html#a381912d7b438ad1e2e100f86e91ffd23" target="_top" xlink:title="model.MainModel.updatePen\lColor">
<polygon fill="white" stroke="black" points="719.5,-98 719.5,-128 874.5,-128 874.5,-98 719.5,-98"/>
<text text-anchor="start" x="727.5" y="-116" font-family="Helvetica,sans-Serif" font-size="10.00">model.MainModel.updatePen</text>
<text text-anchor="middle" x="797" y="-105" font-family="Helvetica,sans-Serif" font-size="10.00">Color</text>
</a>
</g>
</g>
<!-- Node14&#45;&gt;Node15 -->
<g id="edge14" class="edge"><title>Node14&#45;&gt;Node15</title>
<path fill="none" stroke="midnightblue" d="M652.58,-113C671.263,-113 690.734,-113 709.086,-113"/>
<polygon fill="midnightblue" stroke="midnightblue" points="709.154,-116.5 719.154,-113 709.154,-109.5 709.154,-116.5"/>
</g>
<!-- Node16&#45;&gt;Node12 -->
<g id="edge16" class="edge"><title>Node16&#45;&gt;Node12</title>
<path fill="none" stroke="midnightblue" d="M628.008,-169.201C655.431,-171.943 686.857,-175.086 715.054,-177.905"/>
<polygon fill="midnightblue" stroke="midnightblue" points="714.984,-181.416 725.283,-178.928 715.68,-174.451 714.984,-181.416"/>
</g>
<!-- Node18 -->
<g id="node18" class="node"><title>Node18</title>
<g id="a_node18"><a xlink:href="../../d5/dcc/classviewcontroller_1_1turtlegrid_1_1_grid_view_controller.html#adae34922b237c2c42181f89c75ba42fd" target="_top" xlink:title="viewcontroller.turtlegrid.\lGridViewController.getNode">
<polygon fill="white" stroke="black" points="481,-49 481,-79 629,-79 629,-49 481,-49"/>
<text text-anchor="start" x="489" y="-67" font-family="Helvetica,sans-Serif" font-size="10.00">viewcontroller.turtlegrid.</text>
<text text-anchor="middle" x="555" y="-56" font-family="Helvetica,sans-Serif" font-size="10.00">GridViewController.getNode</text>
</a>
</g>
</g>
<!-- Node17&#45;&gt;Node18 -->
<g id="edge18" class="edge"><title>Node17&#45;&gt;Node18</title>
<path fill="none" stroke="midnightblue" d="M394.689,-82.207C419.43,-79.3794 446.38,-76.2994 470.957,-73.4906"/>
<polygon fill="midnightblue" stroke="midnightblue" points="471.431,-76.9593 480.969,-72.3464 470.636,-70.0046 471.431,-76.9593"/>
</g>
<!-- Node20 -->
<g id="node20" class="node"><title>Node20</title>
<g id="a_node20"><a xlink:href="../../d5/d37/classviewcontroller_1_1turtlegrid_1_1_turtle_status_view_controller.html#af2ddc30812cf887aa6187de8d4ed2710" target="_top" xlink:title="viewcontroller.turtlegrid.\lTurtleStatusViewController.getNode">
<polygon fill="white" stroke="black" points="462.5,-0 462.5,-30 647.5,-30 647.5,-0 462.5,-0"/>
<text text-anchor="start" x="470.5" y="-18" font-family="Helvetica,sans-Serif" font-size="10.00">viewcontroller.turtlegrid.</text>
<text text-anchor="middle" x="555" y="-7" font-family="Helvetica,sans-Serif" font-size="10.00">TurtleStatusViewController.getNode</text>
</a>
</g>
</g>
<!-- Node19&#45;&gt;Node20 -->
<g id="edge20" class="edge"><title>Node19&#45;&gt;Node20</title>
<path fill="none" stroke="midnightblue" d="M394.689,-20.8522C413.17,-20.1733 432.883,-19.4492 451.92,-18.7499"/>
<polygon fill="midnightblue" stroke="midnightblue" points="452.242,-22.2405 462.107,-18.3757 451.985,-15.2452 452.242,-22.2405"/>
</g>
</g>
</svg>
