<?xml version="1.0" encoding="UTF-8" standalone="no"?>
<!DOCTYPE svg PUBLIC "-//W3C//DTD SVG 1.1//EN"
 "http://www.w3.org/Graphics/SVG/1.1/DTD/svg11.dtd">
<!-- Generated by graphviz version 2.36.0 (20140111.2315)
 -->
<!-- Title: viewcontroller.turtlegrid.TurtleWindowViewController.placeGridView Pages: 1 -->
<svg width="366pt" height="48pt"
 viewBox="0.00 0.00 366.00 48.00" xmlns="http://www.w3.org/2000/svg" xmlns:xlink="http://www.w3.org/1999/xlink">
<g id="graph0" class="graph" transform="scale(1 1) rotate(0) translate(4 44)">
<title>viewcontroller.turtlegrid.TurtleWindowViewController.placeGridView</title>
<polygon fill="white" stroke="none" points="-4,4 -4,-44 362,-44 362,4 -4,4"/>
<!-- Node1 -->
<g id="node1" class="node"><title>Node1</title>
<polygon fill="#bfbfbf" stroke="black" points="0.5,0.5 0.5,-40.5 173.5,-40.5 173.5,0.5 0.5,0.5"/>
<text text-anchor="start" x="8.5" y="-28.5" font-family="Helvetica,sans-Serif" font-size="10.00">viewcontroller.turtlegrid.</text>
<text text-anchor="start" x="8.5" y="-17.5" font-family="Helvetica,sans-Serif" font-size="10.00">TurtleWindowViewController.place</text>
<text text-anchor="middle" x="87" y="-6.5" font-family="Helvetica,sans-Serif" font-size="10.00">GridView</text>
</g>
<!-- Node2 -->
<g id="node2" class="node"><title>Node2</title>
<g id="a_node2"><a xlink:href="../../d5/dcc/classviewcontroller_1_1turtlegrid_1_1_grid_view_controller.html#adae34922b237c2c42181f89c75ba42fd" target="_top" xlink:title="viewcontroller.turtlegrid.\lGridViewController.getNode">
<polygon fill="white" stroke="black" points="210,-5 210,-35 358,-35 358,-5 210,-5"/>
<text text-anchor="start" x="218" y="-23" font-family="Helvetica,sans-Serif" font-size="10.00">viewcontroller.turtlegrid.</text>
<text text-anchor="middle" x="284" y="-12" font-family="Helvetica,sans-Serif" font-size="10.00">GridViewController.getNode</text>
</a>
</g>
</g>
<!-- Node1&#45;&gt;Node2 -->
<g id="edge1" class="edge"><title>Node1&#45;&gt;Node2</title>
<path fill="none" stroke="midnightblue" d="M173.53,-20C182.209,-20 191.016,-20 199.672,-20"/>
<polygon fill="midnightblue" stroke="midnightblue" points="199.746,-23.5001 209.745,-20 199.745,-16.5001 199.746,-23.5001"/>
</g>
</g>
</svg>
