<?xml version="1.0" encoding="UTF-8" standalone="no"?>
<!DOCTYPE svg PUBLIC "-//W3C//DTD SVG 1.1//EN"
 "http://www.w3.org/Graphics/SVG/1.1/DTD/svg11.dtd">
<!-- Generated by graphviz version 2.36.0 (20140111.2315)
 -->
<!-- Title: application.PenFormResult.getPenDash Pages: 1 -->
<svg width="1038pt" height="38pt"
 viewBox="0.00 0.00 1038.00 38.00" xmlns="http://www.w3.org/2000/svg" xmlns:xlink="http://www.w3.org/1999/xlink">
<g id="graph0" class="graph" transform="scale(1 1) rotate(0) translate(4 34)">
<title>application.PenFormResult.getPenDash</title>
<polygon fill="white" stroke="none" points="-4,4 -4,-34 1034,-34 1034,4 -4,4"/>
<!-- Node1 -->
<g id="node1" class="node"><title>Node1</title>
<polygon fill="#bfbfbf" stroke="black" points="0.5,-0 0.5,-30 161.5,-30 161.5,-0 0.5,-0"/>
<text text-anchor="start" x="8.5" y="-18" font-family="Helvetica,sans-Serif" font-size="10.00">application.PenFormResult.get</text>
<text text-anchor="middle" x="81" y="-7" font-family="Helvetica,sans-Serif" font-size="10.00">PenDash</text>
</g>
<!-- Node2 -->
<g id="node2" class="node"><title>Node2</title>
<g id="a_node2"><a xlink:href="../../de/d21/classmodel_1_1_main_model.html#a204ebf190cf6e56575b5d7ebf5691ad7" target="_top" xlink:title="model.MainModel.updatePen">
<polygon fill="white" stroke="black" points="198.5,-5.5 198.5,-24.5 353.5,-24.5 353.5,-5.5 198.5,-5.5"/>
<text text-anchor="middle" x="276" y="-12.5" font-family="Helvetica,sans-Serif" font-size="10.00">model.MainModel.updatePen</text>
</a>
</g>
</g>
<!-- Node1&#45;&gt;Node2 -->
<g id="edge1" class="edge"><title>Node1&#45;&gt;Node2</title>
<path fill="none" stroke="midnightblue" d="M171.647,-15C180.577,-15 189.585,-15 198.364,-15"/>
<polygon fill="midnightblue" stroke="midnightblue" points="171.615,-11.5001 161.615,-15 171.615,-18.5001 171.615,-11.5001"/>
</g>
<!-- Node3 -->
<g id="node3" class="node"><title>Node3</title>
<g id="a_node3"><a xlink:href="../../da/d4e/classviewcontroller_1_1_view.html#a1b997ccd3e893a7cab5228020c51b16e" target="_top" xlink:title="viewcontroller.View.shit">
<polygon fill="white" stroke="black" points="390.5,-5.5 390.5,-24.5 515.5,-24.5 515.5,-5.5 390.5,-5.5"/>
<text text-anchor="middle" x="453" y="-12.5" font-family="Helvetica,sans-Serif" font-size="10.00">viewcontroller.View.shit</text>
</a>
</g>
</g>
<!-- Node2&#45;&gt;Node3 -->
<g id="edge2" class="edge"><title>Node2&#45;&gt;Node3</title>
<path fill="none" stroke="midnightblue" d="M363.659,-15C372.676,-15 381.706,-15 390.364,-15"/>
<polygon fill="midnightblue" stroke="midnightblue" points="363.503,-11.5001 353.503,-15 363.503,-18.5001 363.503,-11.5001"/>
</g>
<!-- Node4 -->
<g id="node4" class="node"><title>Node4</title>
<g id="a_node4"><a xlink:href="../../da/d4e/classviewcontroller_1_1_view.html#ae793d73f0dfef360d4908529d4f824a9" target="_top" xlink:title="viewcontroller.View.edit\lPenSettings">
<polygon fill="white" stroke="black" points="552,-0 552,-30 678,-30 678,-0 552,-0"/>
<text text-anchor="start" x="560" y="-18" font-family="Helvetica,sans-Serif" font-size="10.00">viewcontroller.View.edit</text>
<text text-anchor="middle" x="615" y="-7" font-family="Helvetica,sans-Serif" font-size="10.00">PenSettings</text>
</a>
</g>
</g>
<!-- Node3&#45;&gt;Node4 -->
<g id="edge3" class="edge"><title>Node3&#45;&gt;Node4</title>
<path fill="none" stroke="midnightblue" d="M525.91,-15C534.541,-15 543.299,-15 551.777,-15"/>
<polygon fill="midnightblue" stroke="midnightblue" points="525.86,-11.5001 515.86,-15 525.86,-18.5001 525.86,-11.5001"/>
</g>
<!-- Node5 -->
<g id="node5" class="node"><title>Node5</title>
<g id="a_node5"><a xlink:href="../../df/df9/classviewcontroller_1_1_s_logo_menu_bar.html#a068f788551874f8c8862c10f8f0f6253" target="_top" xlink:title="viewcontroller.SLogoMenu\lBar.initializeGridMenu">
<polygon fill="white" stroke="black" points="714,-0 714,-30 854,-30 854,-0 714,-0"/>
<text text-anchor="start" x="722" y="-18" font-family="Helvetica,sans-Serif" font-size="10.00">viewcontroller.SLogoMenu</text>
<text text-anchor="middle" x="784" y="-7" font-family="Helvetica,sans-Serif" font-size="10.00">Bar.initializeGridMenu</text>
</a>
</g>
</g>
<!-- Node4&#45;&gt;Node5 -->
<g id="edge4" class="edge"><title>Node4&#45;&gt;Node5</title>
<path fill="none" stroke="midnightblue" d="M688.361,-15C696.785,-15 705.364,-15 713.745,-15"/>
<polygon fill="midnightblue" stroke="midnightblue" points="688.185,-11.5001 678.185,-15 688.185,-18.5001 688.185,-11.5001"/>
</g>
<!-- Node6 -->
<g id="node6" class="node"><title>Node6</title>
<g id="a_node6"><a xlink:href="../../df/df9/classviewcontroller_1_1_s_logo_menu_bar.html#a75b45d0a4b08de5ff8588fc15b2f14fe" target="_top" xlink:title="viewcontroller.SLogoMenu\lBar.SLogoMenuBar">
<polygon fill="white" stroke="black" points="890,-0 890,-30 1030,-30 1030,-0 890,-0"/>
<text text-anchor="start" x="898" y="-18" font-family="Helvetica,sans-Serif" font-size="10.00">viewcontroller.SLogoMenu</text>
<text text-anchor="middle" x="960" y="-7" font-family="Helvetica,sans-Serif" font-size="10.00">Bar.SLogoMenuBar</text>
</a>
</g>
</g>
<!-- Node5&#45;&gt;Node6 -->
<g id="edge5" class="edge"><title>Node5&#45;&gt;Node6</title>
<path fill="none" stroke="midnightblue" d="M864.035,-15C872.625,-15 881.319,-15 889.779,-15"/>
<polygon fill="midnightblue" stroke="midnightblue" points="864.019,-11.5001 854.019,-15 864.019,-18.5001 864.019,-11.5001"/>
</g>
</g>
</svg>
