<?xml version="1.0" encoding="UTF-8" standalone="no"?>
<!DOCTYPE svg PUBLIC "-//W3C//DTD SVG 1.1//EN"
 "http://www.w3.org/Graphics/SVG/1.1/DTD/svg11.dtd">
<!-- Generated by graphviz version 2.36.0 (20140111.2315)
 -->
<!-- Title: interpreter.expression.userdefined.Repeat.evaluate Pages: 1 -->
<svg width="398pt" height="234pt"
 viewBox="0.00 0.00 398.00 234.00" xmlns="http://www.w3.org/2000/svg" xmlns:xlink="http://www.w3.org/1999/xlink">
<g id="graph0" class="graph" transform="scale(1 1) rotate(0) translate(4 230)">
<title>interpreter.expression.userdefined.Repeat.evaluate</title>
<polygon fill="white" stroke="none" points="-4,4 -4,-230 394,-230 394,4 -4,4"/>
<!-- Node1 -->
<g id="node1" class="node"><title>Node1</title>
<polygon fill="#bfbfbf" stroke="black" points="0,-98 0,-128 184,-128 184,-98 0,-98"/>
<text text-anchor="start" x="8" y="-116" font-family="Helvetica,sans-Serif" font-size="10.00">interpreter.expression.userdefined.</text>
<text text-anchor="middle" x="92" y="-105" font-family="Helvetica,sans-Serif" font-size="10.00">Repeat.evaluate</text>
</g>
<!-- Node2 -->
<g id="node2" class="node"><title>Node2</title>
<g id="a_node2"><a xlink:href="../../db/d09/interfaceinterpreter_1_1expression_1_1_s_logo_expression.html#a33b4dd877541ab4da1b4bbe087925a15" target="_top" xlink:title="interpreter.expression.SLogo\lExpression.evaluate">
<polygon fill="white" stroke="black" points="227.5,-196 227.5,-226 382.5,-226 382.5,-196 227.5,-196"/>
<text text-anchor="start" x="235.5" y="-214" font-family="Helvetica,sans-Serif" font-size="10.00">interpreter.expression.SLogo</text>
<text text-anchor="middle" x="305" y="-203" font-family="Helvetica,sans-Serif" font-size="10.00">Expression.evaluate</text>
</a>
</g>
</g>
<!-- Node1&#45;&gt;Node2 -->
<g id="edge1" class="edge"><title>Node1&#45;&gt;Node2</title>
<path fill="none" stroke="midnightblue" d="M115.568,-128.133C140.333,-144.216 181.674,-169.548 220,-186 225.464,-188.345 231.217,-190.557 237.044,-192.622"/>
<polygon fill="midnightblue" stroke="midnightblue" points="236.287,-196.061 246.881,-195.955 238.533,-189.431 236.287,-196.061"/>
</g>
<!-- Node3 -->
<g id="node3" class="node"><title>Node3</title>
<g id="a_node3"><a xlink:href="../../df/df6/classinterpreter_1_1result_1_1_s_logo_result.html#a11062748597af4f6622d9cbc92d4d9c0" target="_top" xlink:title="interpreter.result.SLogo\lResult.getTransition">
<polygon fill="white" stroke="black" points="240,-147 240,-177 370,-177 370,-147 240,-147"/>
<text text-anchor="start" x="248" y="-165" font-family="Helvetica,sans-Serif" font-size="10.00">interpreter.result.SLogo</text>
<text text-anchor="middle" x="305" y="-154" font-family="Helvetica,sans-Serif" font-size="10.00">Result.getTransition</text>
</a>
</g>
</g>
<!-- Node1&#45;&gt;Node3 -->
<g id="edge2" class="edge"><title>Node1&#45;&gt;Node3</title>
<path fill="none" stroke="midnightblue" d="M157.741,-128.035C180.531,-133.327 206.319,-139.316 229.825,-144.775"/>
<polygon fill="midnightblue" stroke="midnightblue" points="229.212,-148.225 239.745,-147.078 230.795,-141.407 229.212,-148.225"/>
</g>
<!-- Node4 -->
<g id="node4" class="node"><title>Node4</title>
<g id="a_node4"><a xlink:href="../../d5/d09/classinterpreter_1_1_command_reference_library.html#a342d174c5d09ce98ba6313d032030131" target="_top" xlink:title="interpreter.CommandReference\lLibrary.getUserDefinedVariables">
<polygon fill="white" stroke="black" points="220.5,-98 220.5,-128 389.5,-128 389.5,-98 220.5,-98"/>
<text text-anchor="start" x="228.5" y="-116" font-family="Helvetica,sans-Serif" font-size="10.00">interpreter.CommandReference</text>
<text text-anchor="middle" x="305" y="-105" font-family="Helvetica,sans-Serif" font-size="10.00">Library.getUserDefinedVariables</text>
</a>
</g>
</g>
<!-- Node1&#45;&gt;Node4 -->
<g id="edge3" class="edge"><title>Node1&#45;&gt;Node4</title>
<path fill="none" stroke="midnightblue" d="M184.014,-113C192.672,-113 201.463,-113 210.147,-113"/>
<polygon fill="midnightblue" stroke="midnightblue" points="210.278,-116.5 220.278,-113 210.278,-109.5 210.278,-116.5"/>
</g>
<!-- Node5 -->
<g id="node5" class="node"><title>Node5</title>
<g id="a_node5"><a xlink:href="../../df/df6/classinterpreter_1_1result_1_1_s_logo_result.html#a7e050bbb65d7c7eb5e9b9970c6e2616f" target="_top" xlink:title="interpreter.result.SLogo\lResult.getValue">
<polygon fill="white" stroke="black" points="240,-49 240,-79 370,-79 370,-49 240,-49"/>
<text text-anchor="start" x="248" y="-67" font-family="Helvetica,sans-Serif" font-size="10.00">interpreter.result.SLogo</text>
<text text-anchor="middle" x="305" y="-56" font-family="Helvetica,sans-Serif" font-size="10.00">Result.getValue</text>
</a>
</g>
</g>
<!-- Node1&#45;&gt;Node5 -->
<g id="edge4" class="edge"><title>Node1&#45;&gt;Node5</title>
<path fill="none" stroke="midnightblue" d="M157.741,-97.9654C180.531,-92.673 206.319,-86.6842 229.825,-81.2254"/>
<polygon fill="midnightblue" stroke="midnightblue" points="230.795,-84.5933 239.745,-78.9219 229.212,-77.7748 230.795,-84.5933"/>
</g>
<!-- Node6 -->
<g id="node6" class="node"><title>Node6</title>
<g id="a_node6"><a xlink:href="../../df/df6/classinterpreter_1_1result_1_1_s_logo_result.html#ade0879b3224a3216bf17e17e25bfd4ca" target="_top" xlink:title="interpreter.result.SLogo\lResult.setValue">
<polygon fill="white" stroke="black" points="240,-0 240,-30 370,-30 370,-0 240,-0"/>
<text text-anchor="start" x="248" y="-18" font-family="Helvetica,sans-Serif" font-size="10.00">interpreter.result.SLogo</text>
<text text-anchor="middle" x="305" y="-7" font-family="Helvetica,sans-Serif" font-size="10.00">Result.setValue</text>
</a>
</g>
</g>
<!-- Node1&#45;&gt;Node6 -->
<g id="edge5" class="edge"><title>Node1&#45;&gt;Node6</title>
<path fill="none" stroke="midnightblue" d="M115.568,-97.8668C140.333,-81.7841 181.674,-56.452 220,-40 225.464,-37.6546 231.217,-35.4427 237.044,-33.3781"/>
<polygon fill="midnightblue" stroke="midnightblue" points="238.533,-36.5691 246.881,-30.0453 236.287,-29.9392 238.533,-36.5691"/>
</g>
</g>
</svg>
