<?xml version="1.0" encoding="UTF-8" standalone="no"?>
<!DOCTYPE svg PUBLIC "-//W3C//DTD SVG 1.1//EN"
 "http://www.w3.org/Graphics/SVG/1.1/DTD/svg11.dtd">
<!-- Generated by graphviz version 2.36.0 (20140111.2315)
 -->
<!-- Title: turtle.draw.MoveTransition Pages: 1 -->
<svg width="1428pt" height="378pt"
 viewBox="0.00 0.00 1428.00 378.00" xmlns="http://www.w3.org/2000/svg" xmlns:xlink="http://www.w3.org/1999/xlink">
<g id="graph0" class="graph" transform="scale(1 1) rotate(0) translate(4 374)">
<title>turtle.draw.MoveTransition</title>
<polygon fill="white" stroke="none" points="-4,4 -4,-374 1424,-374 1424,4 -4,4"/>
<!-- Node1 -->
<g id="node1" class="node"><title>Node1</title>
<polygon fill="#bfbfbf" stroke="black" points="1280,-284.5 1280,-303.5 1420,-303.5 1420,-284.5 1280,-284.5"/>
<text text-anchor="middle" x="1350" y="-291.5" font-family="Helvetica,sans-Serif" font-size="10.00">turtle.draw.MoveTransition</text>
</g>
<!-- Node2 -->
<g id="node2" class="node"><title>Node2</title>
<g id="a_node2"><a xlink:href="../../de/de7/classturtle_1_1draw_1_1_linear_transition.html" target="_top" xlink:title="turtle.draw.LinearTransition">
<polygon fill="white" stroke="black" points="1098,-284.5 1098,-303.5 1242,-303.5 1242,-284.5 1098,-284.5"/>
<text text-anchor="middle" x="1170" y="-291.5" font-family="Helvetica,sans-Serif" font-size="10.00">turtle.draw.LinearTransition</text>
</a>
</g>
</g>
<!-- Node2&#45;&gt;Node1 -->
<g id="edge1" class="edge"><title>Node2&#45;&gt;Node1</title>
<path fill="none" stroke="midnightblue" d="M1252.37,-294C1261.52,-294 1270.77,-294 1279.73,-294"/>
<polygon fill="midnightblue" stroke="midnightblue" points="1252.12,-290.5 1242.12,-294 1252.12,-297.5 1252.12,-290.5"/>
</g>
<!-- Node3 -->
<g id="node3" class="node"><title>Node3</title>
<g id="a_node3"><a xlink:href="../../dd/d1d/classturtle_1_1draw_1_1_s_logo_transition.html" target="_top" xlink:title="turtle.draw.SLogoTransition">
<polygon fill="white" stroke="black" points="914.5,-284.5 914.5,-303.5 1059.5,-303.5 1059.5,-284.5 914.5,-284.5"/>
<text text-anchor="middle" x="987" y="-291.5" font-family="Helvetica,sans-Serif" font-size="10.00">turtle.draw.SLogoTransition</text>
</a>
</g>
</g>
<!-- Node3&#45;&gt;Node2 -->
<g id="edge2" class="edge"><title>Node3&#45;&gt;Node2</title>
<path fill="none" stroke="midnightblue" d="M1069.7,-294C1079.14,-294 1088.71,-294 1097.98,-294"/>
<polygon fill="midnightblue" stroke="midnightblue" points="1069.54,-290.5 1059.54,-294 1069.54,-297.5 1069.54,-290.5"/>
</g>
<!-- Node4 -->
<g id="node4" class="node"><title>Node4</title>
<polygon fill="white" stroke="#bfbfbf" points="767,-300.5 767,-319.5 829,-319.5 829,-300.5 767,-300.5"/>
<text text-anchor="middle" x="798" y="-307.5" font-family="Helvetica,sans-Serif" font-size="10.00">Transition</text>
</g>
<!-- Node4&#45;&gt;Node3 -->
<g id="edge3" class="edge"><title>Node4&#45;&gt;Node3</title>
<path fill="none" stroke="midnightblue" d="M839.299,-306.552C861.215,-304.677 888.977,-302.301 914.438,-300.123"/>
<polygon fill="midnightblue" stroke="midnightblue" points="838.71,-303.089 829.045,-307.429 839.307,-310.064 838.71,-303.089"/>
</g>
<!-- Node5 -->
<g id="node5" class="node"><title>Node5</title>
<g id="a_node5"><a xlink:href="../../df/dcb/classturtle_1_1_turtle.html" target="_top" xlink:title="turtle.Turtle">
<polygon fill="white" stroke="black" points="762.5,-262.5 762.5,-281.5 833.5,-281.5 833.5,-262.5 762.5,-262.5"/>
<text text-anchor="middle" x="798" y="-269.5" font-family="Helvetica,sans-Serif" font-size="10.00">turtle.Turtle</text>
</a>
</g>
</g>
<!-- Node5&#45;&gt;Node3 -->
<g id="edge4" class="edge"><title>Node5&#45;&gt;Node3</title>
<path fill="none" stroke="#9a32cd" stroke-dasharray="5,2" d="M843.699,-277.259C864.81,-279.742 890.532,-282.768 914.271,-285.561"/>
<polygon fill="#9a32cd" stroke="#9a32cd" points="844.075,-273.779 833.735,-276.086 843.258,-280.731 844.075,-273.779"/>
<text text-anchor="middle" x="874" y="-286" font-family="Helvetica,sans-Serif" font-size="10.00"> myTurtle</text>
</g>
<!-- Node6 -->
<g id="node6" class="node"><title>Node6</title>
<g id="a_node6"><a xlink:href="../../dd/d47/classturtle_1_1_turtle_history.html" target="_top" xlink:title="turtle.TurtleHistory">
<polygon fill="white" stroke="black" points="492,-303.5 492,-322.5 596,-322.5 596,-303.5 492,-303.5"/>
<text text-anchor="middle" x="544" y="-310.5" font-family="Helvetica,sans-Serif" font-size="10.00">turtle.TurtleHistory</text>
</a>
</g>
</g>
<!-- Node6&#45;&gt;Node5 -->
<g id="edge5" class="edge"><title>Node6&#45;&gt;Node5</title>
<path fill="none" stroke="#9a32cd" stroke-dasharray="5,2" d="M606.424,-306.649C645.923,-302.078 698.232,-295.114 744,-286 750.347,-284.736 757.062,-283.156 763.501,-281.517"/>
<polygon fill="#9a32cd" stroke="#9a32cd" points="605.954,-303.18 596.413,-307.789 606.745,-310.135 605.954,-303.18"/>
<text text-anchor="middle" x="688" y="-306" font-family="Helvetica,sans-Serif" font-size="10.00"> myTurtleHistory</text>
</g>
<!-- Node7 -->
<g id="node7" class="node"><title>Node7</title>
<polygon fill="white" stroke="#bfbfbf" points="222,-301 222,-331 354,-331 354,-301 222,-301"/>
<text text-anchor="start" x="230" y="-319" font-family="Helvetica,sans-Serif" font-size="10.00">List&lt; turtle.TurtleHistory</text>
<text text-anchor="middle" x="288" y="-308" font-family="Helvetica,sans-Serif" font-size="10.00">State &gt;</text>
</g>
<!-- Node7&#45;&gt;Node6 -->
<g id="edge6" class="edge"><title>Node7&#45;&gt;Node6</title>
<path fill="none" stroke="#9a32cd" stroke-dasharray="5,2" d="M364.32,-315.11C405.381,-314.625 455.132,-314.038 491.699,-313.606"/>
<polygon fill="#9a32cd" stroke="#9a32cd" points="364.039,-311.613 354.081,-315.231 364.122,-318.613 364.039,-311.613"/>
<text text-anchor="middle" x="419" y="-317" font-family="Helvetica,sans-Serif" font-size="10.00"> myStates</text>
</g>
<!-- Node8 -->
<g id="node8" class="node"><title>Node8</title>
<g id="a_node8"><a xlink:href="../../dd/da0/classturtle_1_1draw_1_1_pen.html" target="_top" xlink:title="turtle.draw.Pen">
<polygon fill="white" stroke="black" points="244,-262.5 244,-281.5 332,-281.5 332,-262.5 244,-262.5"/>
<text text-anchor="middle" x="288" y="-269.5" font-family="Helvetica,sans-Serif" font-size="10.00">turtle.draw.Pen</text>
</a>
</g>
</g>
<!-- Node8&#45;&gt;Node5 -->
<g id="edge7" class="edge"><title>Node8&#45;&gt;Node5</title>
<path fill="none" stroke="#9a32cd" stroke-dasharray="5,2" d="M342.314,-272C446.671,-272 675.307,-272 762.386,-272"/>
<polygon fill="#9a32cd" stroke="#9a32cd" points="342.312,-268.5 332.312,-272 342.312,-275.5 342.312,-268.5"/>
<text text-anchor="middle" x="544" y="-275" font-family="Helvetica,sans-Serif" font-size="10.00"> myPen</text>
</g>
<!-- Node9 -->
<g id="node9" class="node"><title>Node9</title>
<polygon fill="white" stroke="#bfbfbf" points="0.5,-350.5 0.5,-369.5 89.5,-369.5 89.5,-350.5 0.5,-350.5"/>
<text text-anchor="middle" x="45" y="-357.5" font-family="Helvetica,sans-Serif" font-size="10.00">List&lt; Double &gt;</text>
</g>
<!-- Node9&#45;&gt;Node8 -->
<g id="edge8" class="edge"><title>Node9&#45;&gt;Node8</title>
<path fill="none" stroke="#9a32cd" stroke-dasharray="5,2" d="M99.5881,-358.452C129.959,-355.116 167.135,-346.629 194,-326 207.561,-315.586 198.622,-302.648 212,-292 221.068,-284.783 232.507,-280.158 243.701,-277.197"/>
<polygon fill="#9a32cd" stroke="#9a32cd" points="99.2012,-354.973 89.5738,-359.396 99.8582,-361.942 99.2012,-354.973"/>
<text text-anchor="middle" x="151" y="-359" font-family="Helvetica,sans-Serif" font-size="10.00"> myDash</text>
</g>
<!-- Node10 -->
<g id="node10" class="node"><title>Node10</title>
<polygon fill="white" stroke="#bfbfbf" points="7.5,-312.5 7.5,-331.5 82.5,-331.5 82.5,-312.5 7.5,-312.5"/>
<text text-anchor="middle" x="45" y="-319.5" font-family="Helvetica,sans-Serif" font-size="10.00">List&lt; Line &gt;</text>
</g>
<!-- Node10&#45;&gt;Node8 -->
<g id="edge9" class="edge"><title>Node10&#45;&gt;Node8</title>
<path fill="none" stroke="#9a32cd" stroke-dasharray="5,2" d="M92.5842,-314.781C121.82,-310.012 160.244,-303.309 194,-296 213.557,-291.766 235.213,-286.228 252.704,-281.538"/>
<polygon fill="#9a32cd" stroke="#9a32cd" points="91.9633,-311.335 82.649,-316.385 93.079,-318.246 91.9633,-311.335"/>
<text text-anchor="middle" x="151" y="-314" font-family="Helvetica,sans-Serif" font-size="10.00"> myDrawnLines</text>
</g>
<!-- Node11 -->
<g id="node11" class="node"><title>Node11</title>
<polygon fill="white" stroke="#bfbfbf" points="24,-274.5 24,-293.5 66,-293.5 66,-274.5 24,-274.5"/>
<text text-anchor="middle" x="45" y="-281.5" font-family="Helvetica,sans-Serif" font-size="10.00">Node</text>
</g>
<!-- Node11&#45;&gt;Node8 -->
<g id="edge10" class="edge"><title>Node11&#45;&gt;Node8</title>
<path fill="none" stroke="#9a32cd" stroke-dasharray="5,2" d="M76.3523,-282.489C118.658,-280.382 195.576,-276.552 243.836,-274.149"/>
<polygon fill="#9a32cd" stroke="#9a32cd" points="75.9465,-279.004 66.133,-282.998 76.2947,-285.996 75.9465,-279.004"/>
<text text-anchor="middle" x="151" y="-284" font-family="Helvetica,sans-Serif" font-size="10.00"> myTurtleNode</text>
</g>
<!-- Node12 -->
<g id="node12" class="node"><title>Node12</title>
<polygon fill="white" stroke="#bfbfbf" points="22,-209.5 22,-228.5 68,-228.5 68,-209.5 22,-209.5"/>
<text text-anchor="middle" x="45" y="-216.5" font-family="Helvetica,sans-Serif" font-size="10.00">Group</text>
</g>
<!-- Node12&#45;&gt;Node8 -->
<g id="edge11" class="edge"><title>Node12&#45;&gt;Node8</title>
<path fill="none" stroke="#9a32cd" stroke-dasharray="5,2" d="M78.0858,-226.056C120.733,-235.435 196.237,-252.04 243.845,-262.509"/>
<polygon fill="#9a32cd" stroke="#9a32cd" points="78.7591,-222.621 68.2407,-223.891 77.2556,-229.457 78.7591,-222.621"/>
<text text-anchor="middle" x="151" y="-254" font-family="Helvetica,sans-Serif" font-size="10.00"> myGrid</text>
</g>
<!-- Node14 -->
<g id="node14" class="node"><title>Node14</title>
<g id="a_node14"><a xlink:href="../../d4/de5/classturtle_1_1_turtle_view_controller.html" target="_top" xlink:title="turtle.TurtleViewController">
<polygon fill="white" stroke="black" points="474.5,-113.5 474.5,-132.5 613.5,-132.5 613.5,-113.5 474.5,-113.5"/>
<text text-anchor="middle" x="544" y="-120.5" font-family="Helvetica,sans-Serif" font-size="10.00">turtle.TurtleViewController</text>
</a>
</g>
</g>
<!-- Node12&#45;&gt;Node14 -->
<g id="edge20" class="edge"><title>Node12&#45;&gt;Node14</title>
<path fill="none" stroke="#9a32cd" stroke-dasharray="5,2" d="M78.5171,-217.204C108.613,-215.239 154.531,-211.472 194,-205 311.005,-185.812 447.131,-149.774 509.129,-132.589"/>
<polygon fill="#9a32cd" stroke="#9a32cd" points="77.949,-213.732 68.1862,-217.848 78.3846,-220.719 77.949,-213.732"/>
<text text-anchor="middle" x="288" y="-205" font-family="Helvetica,sans-Serif" font-size="10.00"> myGroup</text>
</g>
<!-- Node16 -->
<g id="node16" class="node"><title>Node16</title>
<g id="a_node16"><a xlink:href="../../d8/d9e/classturtle_1_1_turtle_image.html" target="_top" xlink:title="turtle.TurtleImage">
<polygon fill="white" stroke="black" points="237.5,-113.5 237.5,-132.5 338.5,-132.5 338.5,-113.5 237.5,-113.5"/>
<text text-anchor="middle" x="288" y="-120.5" font-family="Helvetica,sans-Serif" font-size="10.00">turtle.TurtleImage</text>
</a>
</g>
</g>
<!-- Node12&#45;&gt;Node16 -->
<g id="edge16" class="edge"><title>Node12&#45;&gt;Node16</title>
<path fill="none" stroke="midnightblue" d="M60.4739,-201.83C72.0588,-189.199 89.3987,-172.618 108,-163 130.204,-151.519 192.498,-139.075 237.357,-131.168"/>
<polygon fill="midnightblue" stroke="midnightblue" points="57.7403,-199.638 53.7365,-209.447 62.9835,-204.275 57.7403,-199.638"/>
</g>
<!-- Node13 -->
<g id="node13" class="node"><title>Node13</title>
<polygon fill="white" stroke="#bfbfbf" points="24.5,-122.5 24.5,-141.5 65.5,-141.5 65.5,-122.5 24.5,-122.5"/>
<text text-anchor="middle" x="45" y="-129.5" font-family="Helvetica,sans-Serif" font-size="10.00">Color</text>
</g>
<!-- Node13&#45;&gt;Node8 -->
<g id="edge12" class="edge"><title>Node13&#45;&gt;Node8</title>
<path fill="none" stroke="#9a32cd" stroke-dasharray="5,2" d="M75.1488,-142.044C106.961,-154.056 158.136,-176.556 194,-208 204.568,-217.266 201.407,-224.763 212,-234 226.192,-246.375 245.125,-255.927 260.418,-262.36"/>
<polygon fill="#9a32cd" stroke="#9a32cd" points="76.1381,-138.679 65.5445,-138.515 73.7235,-145.249 76.1381,-138.679"/>
<text text-anchor="middle" x="151" y="-222" font-family="Helvetica,sans-Serif" font-size="10.00"> ourDefaultColor</text>
<text text-anchor="middle" x="151" y="-211" font-family="Helvetica,sans-Serif" font-size="10.00">myColor</text>
</g>
<!-- Node13&#45;&gt;Node16 -->
<g id="edge18" class="edge"><title>Node13&#45;&gt;Node16</title>
<path fill="none" stroke="#9a32cd" stroke-dasharray="5,2" d="M75.8144,-127.4C85.9973,-126.03 97.4715,-124.706 108,-124 151.565,-121.079 201.228,-121.063 237.173,-121.643"/>
<polygon fill="#9a32cd" stroke="#9a32cd" points="75.1754,-123.955 65.7639,-128.821 76.1555,-130.886 75.1754,-123.955"/>
<text text-anchor="middle" x="151" y="-127" font-family="Helvetica,sans-Serif" font-size="10.00"> ourSelectedColor</text>
</g>
<!-- Node14&#45;&gt;Node5 -->
<g id="edge13" class="edge"><title>Node14&#45;&gt;Node5</title>
<path fill="none" stroke="#9a32cd" stroke-dasharray="5,2" d="M569.951,-137.753C621.325,-168.129 737.695,-236.935 780.661,-262.339"/>
<polygon fill="#9a32cd" stroke="#9a32cd" points="571.536,-134.624 561.147,-132.547 567.974,-140.65 571.536,-134.624"/>
<text text-anchor="middle" x="688" y="-243" font-family="Helvetica,sans-Serif" font-size="10.00"> myTurtleViewController</text>
</g>
<!-- Node15 -->
<g id="node15" class="node"><title>Node15</title>
<g id="a_node15"><a xlink:href="../../d4/deb/interfaceviewcontroller_1_1_view_controller.html" target="_top" xlink:title="viewcontroller.ViewController">
<polygon fill="white" stroke="black" points="212,-0.5 212,-19.5 364,-19.5 364,-0.5 212,-0.5"/>
<text text-anchor="middle" x="288" y="-7.5" font-family="Helvetica,sans-Serif" font-size="10.00">viewcontroller.ViewController</text>
</a>
</g>
</g>
<!-- Node15&#45;&gt;Node14 -->
<g id="edge14" class="edge"><title>Node15&#45;&gt;Node14</title>
<path fill="none" stroke="midnightblue" d="M374.145,-16.951C401.361,-21.5853 430.912,-29.2716 456,-42 491.152,-59.8341 522.279,-96.1455 535.82,-113.435"/>
<polygon fill="midnightblue" stroke="midnightblue" points="374.662,-13.4892 364.237,-15.378 373.564,-20.4027 374.662,-13.4892"/>
</g>
<!-- Node16&#45;&gt;Node14 -->
<g id="edge15" class="edge"><title>Node16&#45;&gt;Node14</title>
<path fill="none" stroke="#9a32cd" stroke-dasharray="5,2" d="M348.878,-123C386.5,-123 435.148,-123 474.332,-123"/>
<polygon fill="#9a32cd" stroke="#9a32cd" points="348.577,-119.5 338.577,-123 348.577,-126.5 348.577,-119.5"/>
<text text-anchor="middle" x="419" y="-126" font-family="Helvetica,sans-Serif" font-size="10.00"> myTurtleImage</text>
</g>
<!-- Node17 -->
<g id="node17" class="node"><title>Node17</title>
<polygon fill="white" stroke="#bfbfbf" points="11,-70.5 11,-89.5 79,-89.5 79,-70.5 11,-70.5"/>
<text text-anchor="middle" x="45" y="-77.5" font-family="Helvetica,sans-Serif" font-size="10.00">Dimension</text>
</g>
<!-- Node17&#45;&gt;Node14 -->
<g id="edge19" class="edge"><title>Node17&#45;&gt;Node14</title>
<path fill="none" stroke="#9a32cd" stroke-dasharray="5,2" d="M89.1317,-80.0548C150.398,-80.5206 266.068,-82.832 364,-93 409.132,-97.6859 460.127,-106.592 496.109,-113.489"/>
<polygon fill="#9a32cd" stroke="#9a32cd" points="89.0808,-76.5545 79.0589,-79.9914 89.0366,-83.5544 89.0808,-76.5545"/>
<text text-anchor="middle" x="288" y="-96" font-family="Helvetica,sans-Serif" font-size="10.00"> mySize</text>
</g>
<!-- Node17&#45;&gt;Node16 -->
<g id="edge17" class="edge"><title>Node17&#45;&gt;Node16</title>
<path fill="none" stroke="#9a32cd" stroke-dasharray="5,2" d="M89.0913,-87.6885C130.669,-95.1069 193.567,-106.329 237.253,-114.124"/>
<polygon fill="#9a32cd" stroke="#9a32cd" points="89.464,-84.1998 79.0047,-85.8888 88.2344,-91.091 89.464,-84.1998"/>
<text text-anchor="middle" x="151" y="-109" font-family="Helvetica,sans-Serif" font-size="10.00"> ourSize</text>
</g>
</g>
</svg>
