<?xml version="1.0" encoding="UTF-8" standalone="no"?>
<!DOCTYPE svg PUBLIC "-//W3C//DTD SVG 1.1//EN"
 "http://www.w3.org/Graphics/SVG/1.1/DTD/svg11.dtd">
<!-- Generated by graphviz version 2.36.0 (20140111.2315)
 -->
<!-- Title: interpreter.expression.DisplayExpression.evaluate Pages: 1 -->
<svg width="558pt" height="87pt"
 viewBox="0.00 0.00 558.00 87.00" xmlns="http://www.w3.org/2000/svg" xmlns:xlink="http://www.w3.org/1999/xlink">
<g id="graph0" class="graph" transform="scale(1 1) rotate(0) translate(4 83)">
<title>interpreter.expression.DisplayExpression.evaluate</title>
<polygon fill="white" stroke="none" points="-4,4 -4,-83 554,-83 554,4 -4,4"/>
<!-- Node1 -->
<g id="node1" class="node"><title>Node1</title>
<polygon fill="#bfbfbf" stroke="black" points="0.5,-24 0.5,-54 159.5,-54 159.5,-24 0.5,-24"/>
<text text-anchor="start" x="8.5" y="-42" font-family="Helvetica,sans-Serif" font-size="10.00">interpreter.expression.Display</text>
<text text-anchor="middle" x="80" y="-31" font-family="Helvetica,sans-Serif" font-size="10.00">Expression.evaluate</text>
</g>
<!-- Node2 -->
<g id="node2" class="node"><title>Node2</title>
<g id="a_node2"><a xlink:href="../../d0/d93/classinterpreter_1_1expression_1_1_display_expression.html#afb77dbbe4a835dc3a9b6fb413e9236ff" target="_top" xlink:title="interpreter.expression.Display\lExpression.applyOperatorAndMerge">
<polygon fill="white" stroke="black" points="196,-24 196,-54 384,-54 384,-24 196,-24"/>
<text text-anchor="start" x="204" y="-42" font-family="Helvetica,sans-Serif" font-size="10.00">interpreter.expression.Display</text>
<text text-anchor="middle" x="290" y="-31" font-family="Helvetica,sans-Serif" font-size="10.00">Expression.applyOperatorAndMerge</text>
</a>
</g>
</g>
<!-- Node1&#45;&gt;Node2 -->
<g id="edge1" class="edge"><title>Node1&#45;&gt;Node2</title>
<path fill="none" stroke="midnightblue" d="M159.636,-39C168.153,-39 176.911,-39 185.663,-39"/>
<polygon fill="midnightblue" stroke="midnightblue" points="185.92,-42.5001 195.92,-39 185.92,-35.5001 185.92,-42.5001"/>
</g>
<!-- Node3 -->
<g id="node3" class="node"><title>Node3</title>
<g id="a_node3"><a xlink:href="../../df/df6/classinterpreter_1_1result_1_1_s_logo_result.html#a11062748597af4f6622d9cbc92d4d9c0" target="_top" xlink:title="interpreter.result.SLogo\lResult.getTransition">
<polygon fill="white" stroke="black" points="420,-49 420,-79 550,-79 550,-49 420,-49"/>
<text text-anchor="start" x="428" y="-67" font-family="Helvetica,sans-Serif" font-size="10.00">interpreter.result.SLogo</text>
<text text-anchor="middle" x="485" y="-56" font-family="Helvetica,sans-Serif" font-size="10.00">Result.getTransition</text>
</a>
</g>
</g>
<!-- Node2&#45;&gt;Node3 -->
<g id="edge2" class="edge"><title>Node2&#45;&gt;Node3</title>
<path fill="none" stroke="midnightblue" d="M384.108,-51.0606C392.743,-52.1791 401.414,-53.3023 409.844,-54.3943"/>
<polygon fill="midnightblue" stroke="midnightblue" points="409.623,-57.8948 419.989,-55.7085 410.522,-50.9528 409.623,-57.8948"/>
</g>
<!-- Node4 -->
<g id="node4" class="node"><title>Node4</title>
<g id="a_node4"><a xlink:href="../../df/df6/classinterpreter_1_1result_1_1_s_logo_result.html#ade0879b3224a3216bf17e17e25bfd4ca" target="_top" xlink:title="interpreter.result.SLogo\lResult.setValue">
<polygon fill="white" stroke="black" points="420,-0 420,-30 550,-30 550,-0 420,-0"/>
<text text-anchor="start" x="428" y="-18" font-family="Helvetica,sans-Serif" font-size="10.00">interpreter.result.SLogo</text>
<text text-anchor="middle" x="485" y="-7" font-family="Helvetica,sans-Serif" font-size="10.00">Result.setValue</text>
</a>
</g>
</g>
<!-- Node2&#45;&gt;Node4 -->
<g id="edge3" class="edge"><title>Node2&#45;&gt;Node4</title>
<path fill="none" stroke="midnightblue" d="M384.108,-27.4218C392.743,-26.348 401.414,-25.2698 409.844,-24.2214"/>
<polygon fill="midnightblue" stroke="midnightblue" points="410.498,-27.6672 419.989,-22.9599 409.634,-20.7207 410.498,-27.6672"/>
</g>
</g>
</svg>
