<?xml version="1.0" encoding="UTF-8" standalone="no"?>
<!DOCTYPE svg PUBLIC "-//W3C//DTD SVG 1.1//EN"
 "http://www.w3.org/Graphics/SVG/1.1/DTD/svg11.dtd">
<!-- Generated by graphviz version 2.36.0 (20140111.2315)
 -->
<!-- Title: turtle.TurtleListHistory.undo Pages: 1 -->
<svg width="340pt" height="87pt"
 viewBox="0.00 0.00 340.00 87.00" xmlns="http://www.w3.org/2000/svg" xmlns:xlink="http://www.w3.org/1999/xlink">
<g id="graph0" class="graph" transform="scale(1 1) rotate(0) translate(4 83)">
<title>turtle.TurtleListHistory.undo</title>
<polygon fill="white" stroke="none" points="-4,4 -4,-83 336,-83 336,4 -4,4"/>
<!-- Node1 -->
<g id="node1" class="node"><title>Node1</title>
<polygon fill="#bfbfbf" stroke="black" points="0,-29.5 0,-48.5 146,-48.5 146,-29.5 0,-29.5"/>
<text text-anchor="middle" x="73" y="-36.5" font-family="Helvetica,sans-Serif" font-size="10.00">turtle.TurtleListHistory.undo</text>
</g>
<!-- Node2 -->
<g id="node2" class="node"><title>Node2</title>
<g id="a_node2"><a xlink:href="../../d5/d4b/classturtle_1_1_turtle_history_state.html#a819af201b267b72af77d41bc672d60b7" target="_top" xlink:title="turtle.TurtleHistoryState.get\lAnimation">
<polygon fill="white" stroke="black" points="182.5,-49 182.5,-79 331.5,-79 331.5,-49 182.5,-49"/>
<text text-anchor="start" x="190.5" y="-67" font-family="Helvetica,sans-Serif" font-size="10.00">turtle.TurtleHistoryState.get</text>
<text text-anchor="middle" x="257" y="-56" font-family="Helvetica,sans-Serif" font-size="10.00">Animation</text>
</a>
</g>
</g>
<!-- Node1&#45;&gt;Node2 -->
<g id="edge1" class="edge"><title>Node1&#45;&gt;Node2</title>
<path fill="none" stroke="midnightblue" d="M143.326,-48.5227C152.794,-49.8234 162.595,-51.1697 172.286,-52.5008"/>
<polygon fill="midnightblue" stroke="midnightblue" points="171.942,-55.9863 182.325,-53.8798 172.894,-49.0515 171.942,-55.9863"/>
</g>
<!-- Node3 -->
<g id="node3" class="node"><title>Node3</title>
<g id="a_node3"><a xlink:href="../../d5/d4b/classturtle_1_1_turtle_history_state.html#a6ef2f21cc6638628e67e324582883428" target="_top" xlink:title="turtle.TurtleHistoryState.get\lLines">
<polygon fill="white" stroke="black" points="182.5,-0 182.5,-30 331.5,-30 331.5,-0 182.5,-0"/>
<text text-anchor="start" x="190.5" y="-18" font-family="Helvetica,sans-Serif" font-size="10.00">turtle.TurtleHistoryState.get</text>
<text text-anchor="middle" x="257" y="-7" font-family="Helvetica,sans-Serif" font-size="10.00">Lines</text>
</a>
</g>
</g>
<!-- Node1&#45;&gt;Node3 -->
<g id="edge2" class="edge"><title>Node1&#45;&gt;Node3</title>
<path fill="none" stroke="midnightblue" d="M146.193,-29.4801C154.752,-28.3513 163.544,-27.1919 172.248,-26.0443"/>
<polygon fill="midnightblue" stroke="midnightblue" points="172.947,-29.4824 182.404,-24.705 172.032,-22.5425 172.947,-29.4824"/>
</g>
</g>
</svg>
