<?xml version="1.0" encoding="UTF-8" standalone="no"?>
<!DOCTYPE svg PUBLIC "-//W3C//DTD SVG 1.1//EN"
 "http://www.w3.org/Graphics/SVG/1.1/DTD/svg11.dtd">
<!-- Generated by graphviz version 2.36.0 (20140111.2315)
 -->
<!-- Title: turtle.TurtleListHistory.redo Pages: 1 -->
<svg width="338pt" height="87pt"
 viewBox="0.00 0.00 338.00 87.00" xmlns="http://www.w3.org/2000/svg" xmlns:xlink="http://www.w3.org/1999/xlink">
<g id="graph0" class="graph" transform="scale(1 1) rotate(0) translate(4 83)">
<title>turtle.TurtleListHistory.redo</title>
<polygon fill="white" stroke="none" points="-4,4 -4,-83 334,-83 334,4 -4,4"/>
<!-- Node1 -->
<g id="node1" class="node"><title>Node1</title>
<polygon fill="#bfbfbf" stroke="black" points="0,-29.5 0,-48.5 144,-48.5 144,-29.5 0,-29.5"/>
<text text-anchor="middle" x="72" y="-36.5" font-family="Helvetica,sans-Serif" font-size="10.00">turtle.TurtleListHistory.redo</text>
</g>
<!-- Node2 -->
<g id="node2" class="node"><title>Node2</title>
<g id="a_node2"><a xlink:href="../../d5/d4b/classturtle_1_1_turtle_history_state.html#a819af201b267b72af77d41bc672d60b7" target="_top" xlink:title="turtle.TurtleHistoryState.get\lAnimation">
<polygon fill="white" stroke="black" points="180.5,-49 180.5,-79 329.5,-79 329.5,-49 180.5,-49"/>
<text text-anchor="start" x="188.5" y="-67" font-family="Helvetica,sans-Serif" font-size="10.00">turtle.TurtleHistoryState.get</text>
<text text-anchor="middle" x="255" y="-56" font-family="Helvetica,sans-Serif" font-size="10.00">Animation</text>
</a>
</g>
</g>
<!-- Node1&#45;&gt;Node2 -->
<g id="edge1" class="edge"><title>Node1&#45;&gt;Node2</title>
<path fill="none" stroke="midnightblue" d="M141.945,-48.5227C151.287,-49.8131 160.955,-51.1485 170.518,-52.4693"/>
<polygon fill="midnightblue" stroke="midnightblue" points="170.042,-55.9368 180.427,-53.838 171,-49.0026 170.042,-55.9368"/>
</g>
<!-- Node3 -->
<g id="node3" class="node"><title>Node3</title>
<g id="a_node3"><a xlink:href="../../d5/d4b/classturtle_1_1_turtle_history_state.html#a6ef2f21cc6638628e67e324582883428" target="_top" xlink:title="turtle.TurtleHistoryState.get\lLines">
<polygon fill="white" stroke="black" points="180.5,-0 180.5,-30 329.5,-30 329.5,-0 180.5,-0"/>
<text text-anchor="start" x="188.5" y="-18" font-family="Helvetica,sans-Serif" font-size="10.00">turtle.TurtleHistoryState.get</text>
<text text-anchor="middle" x="255" y="-7" font-family="Helvetica,sans-Serif" font-size="10.00">Lines</text>
</a>
</g>
</g>
<!-- Node1&#45;&gt;Node3 -->
<g id="edge2" class="edge"><title>Node1&#45;&gt;Node3</title>
<path fill="none" stroke="midnightblue" d="M144.016,-29.5834C152.559,-28.4508 161.344,-27.2859 170.048,-26.1318"/>
<polygon fill="midnightblue" stroke="midnightblue" points="170.756,-29.5686 180.209,-24.7844 169.836,-22.6293 170.756,-29.5686"/>
</g>
</g>
</svg>
