<?xml version="1.0" encoding="UTF-8" standalone="no"?>
<!DOCTYPE svg PUBLIC "-//W3C//DTD SVG 1.1//EN"
 "http://www.w3.org/Graphics/SVG/1.1/DTD/svg11.dtd">
<!-- Generated by graphviz version 2.36.0 (20140111.2315)
 -->
<!-- Title: turtle.TurtleListHistory.updateList Pages: 1 -->
<svg width="2568pt" height="207pt"
 viewBox="0.00 0.00 2568.00 207.00" xmlns="http://www.w3.org/2000/svg" xmlns:xlink="http://www.w3.org/1999/xlink">
<g id="graph0" class="graph" transform="scale(1 1) rotate(0) translate(4 203)">
<title>turtle.TurtleListHistory.updateList</title>
<polygon fill="white" stroke="none" points="-4,4 -4,-203 2564,-203 2564,4 -4,4"/>
<!-- Node1 -->
<g id="node1" class="node"><title>Node1</title>
<polygon fill="#bfbfbf" stroke="black" points="0.5,-105.5 0.5,-124.5 173.5,-124.5 173.5,-105.5 0.5,-105.5"/>
<text text-anchor="middle" x="87" y="-112.5" font-family="Helvetica,sans-Serif" font-size="10.00">turtle.TurtleListHistory.updateList</text>
</g>
<!-- Node2 -->
<g id="node2" class="node"><title>Node2</title>
<g id="a_node2"><a xlink:href="../../de/d21/classmodel_1_1_main_model.html#aad9f626d0b472cbc3d57e8af0c4326cc" target="_top" xlink:title="model.MainModel.setMyAnimation">
<polygon fill="white" stroke="black" points="210.5,-105.5 210.5,-124.5 391.5,-124.5 391.5,-105.5 210.5,-105.5"/>
<text text-anchor="middle" x="301" y="-112.5" font-family="Helvetica,sans-Serif" font-size="10.00">model.MainModel.setMyAnimation</text>
</a>
</g>
</g>
<!-- Node1&#45;&gt;Node2 -->
<g id="edge1" class="edge"><title>Node1&#45;&gt;Node2</title>
<path fill="none" stroke="midnightblue" d="M183.871,-115C192.654,-115 201.531,-115 210.257,-115"/>
<polygon fill="midnightblue" stroke="midnightblue" points="183.617,-111.5 173.617,-115 183.617,-118.5 183.617,-111.5"/>
</g>
<!-- Node3 -->
<g id="node3" class="node"><title>Node3</title>
<g id="a_node3"><a xlink:href="../../de/d21/classmodel_1_1_main_model.html#a1863b9ce1cc6b16b0e03dbfc73f51314" target="_top" xlink:title="model.MainModel.updateModel">
<polygon fill="white" stroke="black" points="428,-105.5 428,-124.5 594,-124.5 594,-105.5 428,-105.5"/>
<text text-anchor="middle" x="511" y="-112.5" font-family="Helvetica,sans-Serif" font-size="10.00">model.MainModel.updateModel</text>
</a>
</g>
</g>
<!-- Node2&#45;&gt;Node3 -->
<g id="edge2" class="edge"><title>Node2&#45;&gt;Node3</title>
<path fill="none" stroke="midnightblue" d="M401.879,-115C410.56,-115 419.279,-115 427.795,-115"/>
<polygon fill="midnightblue" stroke="midnightblue" points="401.72,-111.5 391.72,-115 401.72,-118.5 401.72,-111.5"/>
</g>
<!-- Node4 -->
<g id="node4" class="node"><title>Node4</title>
<g id="a_node4"><a xlink:href="../../de/d21/classmodel_1_1_main_model.html#a96f4ff9f640f14d713c5d90ab5704884" target="_top" xlink:title="model.MainModel.interpret\lSLogoCommand">
<polygon fill="white" stroke="black" points="630.5,-100 630.5,-130 775.5,-130 775.5,-100 630.5,-100"/>
<text text-anchor="start" x="638.5" y="-118" font-family="Helvetica,sans-Serif" font-size="10.00">model.MainModel.interpret</text>
<text text-anchor="middle" x="703" y="-107" font-family="Helvetica,sans-Serif" font-size="10.00">SLogoCommand</text>
</a>
</g>
</g>
<!-- Node3&#45;&gt;Node4 -->
<g id="edge3" class="edge"><title>Node3&#45;&gt;Node4</title>
<path fill="none" stroke="midnightblue" d="M604.435,-115C613.153,-115 621.899,-115 630.381,-115"/>
<polygon fill="midnightblue" stroke="midnightblue" points="604.232,-111.5 594.232,-115 604.232,-118.5 604.232,-111.5"/>
</g>
<!-- Node5 -->
<g id="node5" class="node"><title>Node5</title>
<g id="a_node5"><a xlink:href="../../de/d21/classmodel_1_1_main_model.html#ab4985c9a187961a2d57a8a0a63ab3b18" target="_top" xlink:title="model.MainModel.interpret\lSLogoCommand">
<polygon fill="white" stroke="black" points="839.5,-125 839.5,-155 984.5,-155 984.5,-125 839.5,-125"/>
<text text-anchor="start" x="847.5" y="-143" font-family="Helvetica,sans-Serif" font-size="10.00">model.MainModel.interpret</text>
<text text-anchor="middle" x="912" y="-132" font-family="Helvetica,sans-Serif" font-size="10.00">SLogoCommand</text>
</a>
</g>
</g>
<!-- Node4&#45;&gt;Node5 -->
<g id="edge4" class="edge"><title>Node4&#45;&gt;Node5</title>
<path fill="none" stroke="midnightblue" d="M785.844,-124.885C803.568,-127.025 822.179,-129.273 839.47,-131.361"/>
<polygon fill="midnightblue" stroke="midnightblue" points="785.875,-121.363 775.528,-123.639 785.036,-128.312 785.875,-121.363"/>
</g>
<!-- Node6 -->
<g id="node6" class="node"><title>Node6</title>
<g id="a_node6"><a xlink:href="../../d3/d67/classviewcontroller_1_1_main_view_controller.html#a1b77a34d9385ff9296a9dc1db8c322cb" target="_top" xlink:title="viewcontroller.MainViewController.pass\lSLogoCommand">
<polygon fill="white" stroke="black" points="812,-76 812,-106 1012,-106 1012,-76 812,-76"/>
<text text-anchor="start" x="820" y="-94" font-family="Helvetica,sans-Serif" font-size="10.00">viewcontroller.MainViewController.pass</text>
<text text-anchor="middle" x="912" y="-83" font-family="Helvetica,sans-Serif" font-size="10.00">SLogoCommand</text>
</a>
</g>
</g>
<!-- Node4&#45;&gt;Node6 -->
<g id="edge5" class="edge"><title>Node4&#45;&gt;Node6</title>
<path fill="none" stroke="midnightblue" d="M785.516,-105.549C794.12,-104.551 802.937,-103.529 811.713,-102.512"/>
<polygon fill="midnightblue" stroke="midnightblue" points="785.058,-102.078 775.528,-106.707 785.864,-109.032 785.058,-102.078"/>
</g>
<!-- Node7 -->
<g id="node7" class="node"><title>Node7</title>
<g id="a_node7"><a xlink:href="../../d0/d7c/classviewcontroller_1_1commands_1_1_command_window_container_view_controller.html#a0d7c2e3db2080741b7b01b42a0294695" target="_top" xlink:title="viewcontroller.commands.\lCommandWindowContainerViewController.pass\lSLogoCommand">
<polygon fill="white" stroke="black" points="1048,-100.5 1048,-141.5 1290,-141.5 1290,-100.5 1048,-100.5"/>
<text text-anchor="start" x="1056" y="-129.5" font-family="Helvetica,sans-Serif" font-size="10.00">viewcontroller.commands.</text>
<text text-anchor="start" x="1056" y="-118.5" font-family="Helvetica,sans-Serif" font-size="10.00">CommandWindowContainerViewController.pass</text>
<text text-anchor="middle" x="1169" y="-107.5" font-family="Helvetica,sans-Serif" font-size="10.00">SLogoCommand</text>
</a>
</g>
</g>
<!-- Node6&#45;&gt;Node7 -->
<g id="edge6" class="edge"><title>Node6&#45;&gt;Node7</title>
<path fill="none" stroke="midnightblue" d="M1022.46,-103.877C1030.82,-104.861 1039.29,-105.857 1047.71,-106.849"/>
<polygon fill="midnightblue" stroke="midnightblue" points="1022.66,-100.377 1012.32,-102.685 1021.84,-107.329 1022.66,-100.377"/>
</g>
<!-- Node17 -->
<g id="node17" class="node"><title>Node17</title>
<g id="a_node17"><a xlink:href="../../d3/daf/classviewcontroller_1_1turtlegrid_1_1_turtle_window_view_controller.html#a0a65ca6c84f3f3e7bffa675df02c9166" target="_top" xlink:title="viewcontroller.turtlegrid.\lTurtleWindowViewController.pass\lSLogoCommand">
<polygon fill="white" stroke="black" points="1084,-40.5 1084,-81.5 1254,-81.5 1254,-40.5 1084,-40.5"/>
<text text-anchor="start" x="1092" y="-69.5" font-family="Helvetica,sans-Serif" font-size="10.00">viewcontroller.turtlegrid.</text>
<text text-anchor="start" x="1092" y="-58.5" font-family="Helvetica,sans-Serif" font-size="10.00">TurtleWindowViewController.pass</text>
<text text-anchor="middle" x="1169" y="-47.5" font-family="Helvetica,sans-Serif" font-size="10.00">SLogoCommand</text>
</a>
</g>
</g>
<!-- Node6&#45;&gt;Node17 -->
<g id="edge16" class="edge"><title>Node6&#45;&gt;Node17</title>
<path fill="none" stroke="midnightblue" d="M1022.36,-78.134C1042.94,-75.7128 1064.16,-73.216 1083.83,-70.9027"/>
<polygon fill="midnightblue" stroke="midnightblue" points="1021.84,-74.6708 1012.32,-79.3153 1022.66,-81.6228 1021.84,-74.6708"/>
</g>
<!-- Node8 -->
<g id="node8" class="node"><title>Node8</title>
<g id="a_node8"><a xlink:href="../../de/d8d/classviewcontroller_1_1commands_1_1_command_prompt_view_controller.html#afc397f419037ca0ec30bdc6e93667e86" target="_top" xlink:title="viewcontroller.commands.\lCommandPromptViewController.pass\lCommandToModel">
<polygon fill="white" stroke="black" points="1331.5,-157.5 1331.5,-198.5 1526.5,-198.5 1526.5,-157.5 1331.5,-157.5"/>
<text text-anchor="start" x="1339.5" y="-186.5" font-family="Helvetica,sans-Serif" font-size="10.00">viewcontroller.commands.</text>
<text text-anchor="start" x="1339.5" y="-175.5" font-family="Helvetica,sans-Serif" font-size="10.00">CommandPromptViewController.pass</text>
<text text-anchor="middle" x="1429" y="-164.5" font-family="Helvetica,sans-Serif" font-size="10.00">CommandToModel</text>
</a>
</g>
</g>
<!-- Node7&#45;&gt;Node8 -->
<g id="edge7" class="edge"><title>Node7&#45;&gt;Node8</title>
<path fill="none" stroke="midnightblue" d="M1273.1,-143.778C1293.55,-148.296 1314.9,-153.014 1334.99,-157.452"/>
<polygon fill="midnightblue" stroke="midnightblue" points="1273.66,-140.318 1263.14,-141.578 1272.15,-147.153 1273.66,-140.318"/>
</g>
<!-- Node12 -->
<g id="node12" class="node"><title>Node12</title>
<g id="a_node12"><a xlink:href="../../d4/dc8/classviewcontroller_1_1commands_1_1_user_defined_variables_view_controller.html#a14508efe9a049e27b8a7f4d0928b83cd" target="_top" xlink:title="viewcontroller.commands.\lUserDefinedVariablesViewController.key\lPressed">
<polygon fill="white" stroke="black" points="1326,-97.5 1326,-138.5 1532,-138.5 1532,-97.5 1326,-97.5"/>
<text text-anchor="start" x="1334" y="-126.5" font-family="Helvetica,sans-Serif" font-size="10.00">viewcontroller.commands.</text>
<text text-anchor="start" x="1334" y="-115.5" font-family="Helvetica,sans-Serif" font-size="10.00">UserDefinedVariablesViewController.key</text>
<text text-anchor="middle" x="1429" y="-104.5" font-family="Helvetica,sans-Serif" font-size="10.00">Pressed</text>
</a>
</g>
</g>
<!-- Node7&#45;&gt;Node12 -->
<g id="edge11" class="edge"><title>Node7&#45;&gt;Node12</title>
<path fill="none" stroke="midnightblue" d="M1300.58,-119.482C1309,-119.384 1317.42,-119.286 1325.68,-119.19"/>
<polygon fill="midnightblue" stroke="midnightblue" points="1300.27,-115.985 1290.31,-119.601 1300.35,-122.984 1300.27,-115.985"/>
</g>
<!-- Node9 -->
<g id="node9" class="node"><title>Node9</title>
<g id="a_node9"><a xlink:href="../../de/d8d/classviewcontroller_1_1commands_1_1_command_prompt_view_controller.html#a02e953379b9b8de02a4e15d94fe1c559" target="_top" xlink:title="viewcontroller.commands.\lCommandPromptViewController.set\lUpSubmitButton">
<polygon fill="white" stroke="black" points="1588,-157.5 1588,-198.5 1776,-198.5 1776,-157.5 1588,-157.5"/>
<text text-anchor="start" x="1596" y="-186.5" font-family="Helvetica,sans-Serif" font-size="10.00">viewcontroller.commands.</text>
<text text-anchor="start" x="1596" y="-175.5" font-family="Helvetica,sans-Serif" font-size="10.00">CommandPromptViewController.set</text>
<text text-anchor="middle" x="1682" y="-164.5" font-family="Helvetica,sans-Serif" font-size="10.00">UpSubmitButton</text>
</a>
</g>
</g>
<!-- Node8&#45;&gt;Node9 -->
<g id="edge8" class="edge"><title>Node8&#45;&gt;Node9</title>
<path fill="none" stroke="midnightblue" d="M1537.09,-178C1553.91,-178 1571.19,-178 1587.67,-178"/>
<polygon fill="midnightblue" stroke="midnightblue" points="1536.68,-174.5 1526.68,-178 1536.68,-181.5 1536.68,-174.5"/>
</g>
<!-- Node10 -->
<g id="node10" class="node"><title>Node10</title>
<g id="a_node10"><a xlink:href="../../de/d8d/classviewcontroller_1_1commands_1_1_command_prompt_view_controller.html#a6931239ae66e9bb6ebfa794b7dada7b5" target="_top" xlink:title="viewcontroller.commands.\lCommandPromptViewController.set\lUpCommandPromptHorizontalBox">
<polygon fill="white" stroke="black" points="1842,-157.5 1842,-198.5 2030,-198.5 2030,-157.5 1842,-157.5"/>
<text text-anchor="start" x="1850" y="-186.5" font-family="Helvetica,sans-Serif" font-size="10.00">viewcontroller.commands.</text>
<text text-anchor="start" x="1850" y="-175.5" font-family="Helvetica,sans-Serif" font-size="10.00">CommandPromptViewController.set</text>
<text text-anchor="middle" x="1936" y="-164.5" font-family="Helvetica,sans-Serif" font-size="10.00">UpCommandPromptHorizontalBox</text>
</a>
</g>
</g>
<!-- Node9&#45;&gt;Node10 -->
<g id="edge9" class="edge"><title>Node9&#45;&gt;Node10</title>
<path fill="none" stroke="midnightblue" d="M1786.26,-178C1804.67,-178 1823.74,-178 1841.84,-178"/>
<polygon fill="midnightblue" stroke="midnightblue" points="1786.12,-174.5 1776.12,-178 1786.12,-181.5 1786.12,-174.5"/>
</g>
<!-- Node11 -->
<g id="node11" class="node"><title>Node11</title>
<g id="a_node11"><a xlink:href="../../de/d8d/classviewcontroller_1_1commands_1_1_command_prompt_view_controller.html#a7e92ce4136e77a153ee6ef862f99052a" target="_top" xlink:title="viewcontroller.commands.\lCommandPromptViewController.\lCommandPromptViewController">
<polygon fill="white" stroke="black" points="2101.5,-157.5 2101.5,-198.5 2274.5,-198.5 2274.5,-157.5 2101.5,-157.5"/>
<text text-anchor="start" x="2109.5" y="-186.5" font-family="Helvetica,sans-Serif" font-size="10.00">viewcontroller.commands.</text>
<text text-anchor="start" x="2109.5" y="-175.5" font-family="Helvetica,sans-Serif" font-size="10.00">CommandPromptViewController.</text>
<text text-anchor="middle" x="2188" y="-164.5" font-family="Helvetica,sans-Serif" font-size="10.00">CommandPromptViewController</text>
</a>
</g>
</g>
<!-- Node10&#45;&gt;Node11 -->
<g id="edge10" class="edge"><title>Node10&#45;&gt;Node11</title>
<path fill="none" stroke="midnightblue" d="M2040.29,-178C2060.57,-178 2081.64,-178 2101.27,-178"/>
<polygon fill="midnightblue" stroke="midnightblue" points="2040.09,-174.5 2030.09,-178 2040.09,-181.5 2040.09,-174.5"/>
</g>
<!-- Node13 -->
<g id="node13" class="node"><title>Node13</title>
<g id="a_node13"><a xlink:href="../../d4/dc8/classviewcontroller_1_1commands_1_1_user_defined_variables_view_controller.html#acac3eb9c8c5f87e3ef36c56477a0cecc" target="_top" xlink:title="viewcontroller.commands.\lUserDefinedVariablesViewController.variable\lClicked">
<polygon fill="white" stroke="black" points="1568.5,-97.5 1568.5,-138.5 1795.5,-138.5 1795.5,-97.5 1568.5,-97.5"/>
<text text-anchor="start" x="1576.5" y="-126.5" font-family="Helvetica,sans-Serif" font-size="10.00">viewcontroller.commands.</text>
<text text-anchor="start" x="1576.5" y="-115.5" font-family="Helvetica,sans-Serif" font-size="10.00">UserDefinedVariablesViewController.variable</text>
<text text-anchor="middle" x="1682" y="-104.5" font-family="Helvetica,sans-Serif" font-size="10.00">Clicked</text>
</a>
</g>
</g>
<!-- Node12&#45;&gt;Node13 -->
<g id="edge12" class="edge"><title>Node12&#45;&gt;Node13</title>
<path fill="none" stroke="midnightblue" d="M1542.23,-118C1550.91,-118 1559.67,-118 1568.35,-118"/>
<polygon fill="midnightblue" stroke="midnightblue" points="1542.09,-114.5 1532.09,-118 1542.09,-121.5 1542.09,-114.5"/>
</g>
<!-- Node14 -->
<g id="node14" class="node"><title>Node14</title>
<g id="a_node14"><a xlink:href="../../d4/dc8/classviewcontroller_1_1commands_1_1_user_defined_variables_view_controller.html#a027a582fe22eab9a05fb0d723fbac644" target="_top" xlink:title="viewcontroller.commands.\lUserDefinedVariablesViewController.add\lVariableToList">
<polygon fill="white" stroke="black" points="1832,-97.5 1832,-138.5 2040,-138.5 2040,-97.5 1832,-97.5"/>
<text text-anchor="start" x="1840" y="-126.5" font-family="Helvetica,sans-Serif" font-size="10.00">viewcontroller.commands.</text>
<text text-anchor="start" x="1840" y="-115.5" font-family="Helvetica,sans-Serif" font-size="10.00">UserDefinedVariablesViewController.add</text>
<text text-anchor="middle" x="1936" y="-104.5" font-family="Helvetica,sans-Serif" font-size="10.00">VariableToList</text>
</a>
</g>
</g>
<!-- Node13&#45;&gt;Node14 -->
<g id="edge13" class="edge"><title>Node13&#45;&gt;Node14</title>
<path fill="none" stroke="midnightblue" d="M1805.93,-118C1814.64,-118 1823.37,-118 1831.95,-118"/>
<polygon fill="midnightblue" stroke="midnightblue" points="1805.73,-114.5 1795.73,-118 1805.73,-121.5 1805.73,-114.5"/>
</g>
<!-- Node15 -->
<g id="node15" class="node"><title>Node15</title>
<g id="a_node15"><a xlink:href="../../d4/dc8/classviewcontroller_1_1commands_1_1_user_defined_variables_view_controller.html#a12bbbabdbb3032751fe57b25e835eafc" target="_top" xlink:title="viewcontroller.commands.\lUserDefinedVariablesViewController.update\lVariableList">
<polygon fill="white" stroke="black" points="2076,-97.5 2076,-138.5 2300,-138.5 2300,-97.5 2076,-97.5"/>
<text text-anchor="start" x="2084" y="-126.5" font-family="Helvetica,sans-Serif" font-size="10.00">viewcontroller.commands.</text>
<text text-anchor="start" x="2084" y="-115.5" font-family="Helvetica,sans-Serif" font-size="10.00">UserDefinedVariablesViewController.update</text>
<text text-anchor="middle" x="2188" y="-104.5" font-family="Helvetica,sans-Serif" font-size="10.00">VariableList</text>
</a>
</g>
</g>
<!-- Node14&#45;&gt;Node15 -->
<g id="edge14" class="edge"><title>Node14&#45;&gt;Node15</title>
<path fill="none" stroke="midnightblue" d="M2050.33,-118C2058.73,-118 2067.21,-118 2075.6,-118"/>
<polygon fill="midnightblue" stroke="midnightblue" points="2050.13,-114.5 2040.13,-118 2050.13,-121.5 2050.13,-114.5"/>
</g>
<!-- Node16 -->
<g id="node16" class="node"><title>Node16</title>
<g id="a_node16"><a xlink:href="../../d4/dc8/classviewcontroller_1_1commands_1_1_user_defined_variables_view_controller.html#a1e84f755902379519ddf5438bc2d27ee" target="_top" xlink:title="viewcontroller.commands.\lUserDefinedVariablesViewController.update">
<polygon fill="white" stroke="black" points="2336,-103 2336,-133 2560,-133 2560,-103 2336,-103"/>
<text text-anchor="start" x="2344" y="-121" font-family="Helvetica,sans-Serif" font-size="10.00">viewcontroller.commands.</text>
<text text-anchor="middle" x="2448" y="-110" font-family="Helvetica,sans-Serif" font-size="10.00">UserDefinedVariablesViewController.update</text>
</a>
</g>
</g>
<!-- Node15&#45;&gt;Node16 -->
<g id="edge15" class="edge"><title>Node15&#45;&gt;Node16</title>
<path fill="none" stroke="midnightblue" d="M2310.5,-118C2318.9,-118 2327.33,-118 2335.67,-118"/>
<polygon fill="midnightblue" stroke="midnightblue" points="2310.29,-114.5 2300.29,-118 2310.29,-121.5 2310.29,-114.5"/>
</g>
<!-- Node18 -->
<g id="node18" class="node"><title>Node18</title>
<g id="a_node18"><a xlink:href="../../d5/dcc/classviewcontroller_1_1turtlegrid_1_1_grid_view_controller.html#a9b87e85ea14f3882c2fefa36ceb159cb" target="_top" xlink:title="viewcontroller.turtlegrid.\lGridViewController.forwardKeyPressed">
<polygon fill="white" stroke="black" points="1330.5,-49 1330.5,-79 1527.5,-79 1527.5,-49 1330.5,-49"/>
<text text-anchor="start" x="1338.5" y="-67" font-family="Helvetica,sans-Serif" font-size="10.00">viewcontroller.turtlegrid.</text>
<text text-anchor="middle" x="1429" y="-56" font-family="Helvetica,sans-Serif" font-size="10.00">GridViewController.forwardKeyPressed</text>
</a>
</g>
</g>
<!-- Node17&#45;&gt;Node18 -->
<g id="edge17" class="edge"><title>Node17&#45;&gt;Node18</title>
<path fill="none" stroke="midnightblue" d="M1264.2,-62.0953C1285.65,-62.3448 1308.49,-62.6103 1330.09,-62.8615"/>
<polygon fill="midnightblue" stroke="midnightblue" points="1264.16,-58.5948 1254.12,-61.9782 1264.08,-65.5943 1264.16,-58.5948"/>
</g>
<!-- Node20 -->
<g id="node20" class="node"><title>Node20</title>
<g id="a_node20"><a xlink:href="../../d5/dcc/classviewcontroller_1_1turtlegrid_1_1_grid_view_controller.html#a7562be13e46d86a1d5f9058462a6d189" target="_top" xlink:title="viewcontroller.turtlegrid.\lGridViewController.rightKeyPressed">
<polygon fill="white" stroke="black" points="1337.5,-0 1337.5,-30 1520.5,-30 1520.5,-0 1337.5,-0"/>
<text text-anchor="start" x="1345.5" y="-18" font-family="Helvetica,sans-Serif" font-size="10.00">viewcontroller.turtlegrid.</text>
<text text-anchor="middle" x="1429" y="-7" font-family="Helvetica,sans-Serif" font-size="10.00">GridViewController.rightKeyPressed</text>
</a>
</g>
</g>
<!-- Node17&#45;&gt;Node20 -->
<g id="edge19" class="edge"><title>Node17&#45;&gt;Node20</title>
<path fill="none" stroke="midnightblue" d="M1263.99,-44.2426C1290.02,-39.6018 1318.1,-34.5942 1343.55,-30.0568"/>
<polygon fill="midnightblue" stroke="midnightblue" points="1263.35,-40.8005 1254.12,-46.0015 1264.58,-47.6918 1263.35,-40.8005"/>
</g>
<!-- Node19 -->
<g id="node19" class="node"><title>Node19</title>
<g id="a_node19"><a xlink:href="../../d5/dcc/classviewcontroller_1_1turtlegrid_1_1_grid_view_controller.html#aacd51569d82b44633f519cc19ef5d937" target="_top" xlink:title="viewcontroller.turtlegrid.\lGridViewController.listenKeys">
<polygon fill="white" stroke="black" points="1605,-25 1605,-55 1759,-55 1759,-25 1605,-25"/>
<text text-anchor="start" x="1613" y="-43" font-family="Helvetica,sans-Serif" font-size="10.00">viewcontroller.turtlegrid.</text>
<text text-anchor="middle" x="1682" y="-32" font-family="Helvetica,sans-Serif" font-size="10.00">GridViewController.listenKeys</text>
</a>
</g>
</g>
<!-- Node18&#45;&gt;Node19 -->
<g id="edge18" class="edge"><title>Node18&#45;&gt;Node19</title>
<path fill="none" stroke="midnightblue" d="M1537.73,-53.6987C1560.33,-51.5377 1583.72,-49.3017 1604.88,-47.2787"/>
<polygon fill="midnightblue" stroke="midnightblue" points="1537.38,-50.2162 1527.76,-54.6523 1538.05,-57.1844 1537.38,-50.2162"/>
</g>
<!-- Node20&#45;&gt;Node19 -->
<g id="edge20" class="edge"><title>Node20&#45;&gt;Node19</title>
<path fill="none" stroke="midnightblue" d="M1530.76,-25.0362C1555.52,-27.5023 1581.62,-30.1015 1604.99,-32.4292"/>
<polygon fill="midnightblue" stroke="midnightblue" points="1530.91,-21.534 1520.62,-24.0256 1530.22,-28.4995 1530.91,-21.534"/>
</g>
</g>
</svg>
