<?xml version="1.0" encoding="UTF-8" standalone="no"?>
<!DOCTYPE svg PUBLIC "-//W3C//DTD SVG 1.1//EN"
 "http://www.w3.org/Graphics/SVG/1.1/DTD/svg11.dtd">
<!-- Generated by graphviz version 2.36.0 (20140111.2315)
 -->
<!-- Title: turtle.DefaultTurtleImage Pages: 1 -->
<!--zoomable 218 -->
<svg id="main" version="1.1" xmlns="http://www.w3.org/2000/svg" xmlns:xlink="http://www.w3.org/1999/xlink" xml:space="preserve" onload="init(evt)">
<style type="text/css"><![CDATA[
.edge:hover path { stroke: red; }
.edge:hover polygon { stroke: red; fill: red; }
]]></style>
<script type="text/javascript"><![CDATA[
var edges = document.getElementsByTagName('g');
if (edges && edges.length) {
  for (var i=0;i<edges.length;i++) {
    if (edges[i].id.substr(0,4)=='edge') {
      edges[i].setAttribute('class','edge');
    }
  }
}
]]></script>
        <defs>
                <circle id="rim" cx="0" cy="0" r="7"/>
                <circle id="rim2" cx="0" cy="0" r="3.5"/>
                <g id="zoomPlus">
                        <use xlink:href="#rim" fill="#404040">
                                <set attributeName="fill" to="#808080" begin="zoomplus.mouseover" end="zoomplus.mouseout"/>
                        </use>
                        <path d="M-4,0h8M0,-4v8" fill="none" stroke="white" stroke-width="1.5" pointer-events="none"/>
                </g>
                <g id="zoomMin">
                        <use xlink:href="#rim" fill="#404040">
                                <set attributeName="fill" to="#808080" begin="zoomminus.mouseover" end="zoomminus.mouseout"/>
                        </use>
                        <path d="M-4,0h8" fill="none" stroke="white" stroke-width="1.5" pointer-events="none"/>
                </g>
                <g id="dirArrow">
                        <path fill="none" stroke="white" stroke-width="1.5" d="M0,-3.0v7 M-2.5,-0.5L0,-3.0L2.5,-0.5"/>
                </g>
               <g id="resetDef">
                       <use xlink:href="#rim2" fill="#404040">
                               <set attributeName="fill" to="#808080" begin="reset.mouseover" end="reset.mouseout"/>
                       </use>
               </g>
        </defs>

<script type="text/javascript">
var viewWidth = 578;
var viewHeight = 218;
var sectionId = 'dynsection-1';
</script>
<script xlink:href="../../svgpan.js"/>
<svg id="graph" class="graph">
<g id="viewport">
<title>turtle.DefaultTurtleImage</title>
<polygon fill="white" stroke="none" points="-4,4 -4,-214 574,-214 574,4 -4,4"/>
<!-- Node1 -->
<g id="node1" class="node"><title>Node1</title>
<polygon fill="#bfbfbf" stroke="black" points="257.5,-0.5 257.5,-19.5 392.5,-19.5 392.5,-0.5 257.5,-0.5"/>
<text text-anchor="middle" x="325" y="-7.5" font-family="Helvetica,sans-Serif" font-size="10.00">turtle.DefaultTurtleImage</text>
</g>
<!-- Node2 -->
<g id="node2" class="node"><title>Node2</title>
<g id="a_node2"><a xlink:href="../../d8/d9e/classturtle_1_1_turtle_image.html" target="_top" xlink:title="turtle.TurtleImage">
<polygon fill="white" stroke="black" points="47.5,-122.5 47.5,-141.5 148.5,-141.5 148.5,-122.5 47.5,-122.5"/>
<text text-anchor="middle" x="98" y="-129.5" font-family="Helvetica,sans-Serif" font-size="10.00">turtle.TurtleImage</text>
</a>
</g>
</g>
<!-- Node2&#45;&gt;Node1 -->
<g id="edge1" class="edge"><title>Node2&#45;&gt;Node1</title>
<path fill="none" stroke="midnightblue" d="M112.132,-114.447C131.079,-93.3596 166.782,-57.3371 205,-38 221.958,-29.4197 241.629,-23.542 260.076,-19.5249"/>
<polygon fill="midnightblue" stroke="midnightblue" points="109.265,-112.408 105.292,-122.23 114.523,-117.029 109.265,-112.408"/>
</g>
<!-- Node3 -->
<g id="node3" class="node"><title>Node3</title>
<polygon fill="white" stroke="#bfbfbf" points="0,-190.5 0,-209.5 46,-209.5 46,-190.5 0,-190.5"/>
<text text-anchor="middle" x="23" y="-197.5" font-family="Helvetica,sans-Serif" font-size="10.00">Group</text>
</g>
<!-- Node3&#45;&gt;Node2 -->
<g id="edge2" class="edge"><title>Node3&#45;&gt;Node2</title>
<path fill="none" stroke="midnightblue" d="M40.7134,-183.412C55.4469,-170.447 75.891,-152.456 87.9533,-141.841"/>
<polygon fill="midnightblue" stroke="midnightblue" points="37.9999,-181.138 32.8049,-190.372 42.6243,-186.393 37.9999,-181.138"/>
</g>
<!-- Node4 -->
<g id="node4" class="node"><title>Node4</title>
<polygon fill="white" stroke="#bfbfbf" points="64,-190.5 64,-209.5 132,-209.5 132,-190.5 64,-190.5"/>
<text text-anchor="middle" x="98" y="-197.5" font-family="Helvetica,sans-Serif" font-size="10.00">Dimension</text>
</g>
<!-- Node4&#45;&gt;Node2 -->
<g id="edge3" class="edge"><title>Node4&#45;&gt;Node2</title>
<path fill="none" stroke="#9a32cd" stroke-dasharray="5,2" d="M98,-180.041C98,-167.472 98,-151.563 98,-141.841"/>
<polygon fill="#9a32cd" stroke="#9a32cd" points="94.5001,-180.372 98,-190.372 101.5,-180.372 94.5001,-180.372"/>
<text text-anchor="middle" x="118" y="-163.5" font-family="Helvetica,sans-Serif" font-size="10.00"> ourSize</text>
</g>
<!-- Node5 -->
<g id="node5" class="node"><title>Node5</title>
<polygon fill="white" stroke="#bfbfbf" points="150.5,-190.5 150.5,-209.5 191.5,-209.5 191.5,-190.5 150.5,-190.5"/>
<text text-anchor="middle" x="171" y="-197.5" font-family="Helvetica,sans-Serif" font-size="10.00">Color</text>
</g>
<!-- Node5&#45;&gt;Node2 -->
<g id="edge4" class="edge"><title>Node5&#45;&gt;Node2</title>
<path fill="none" stroke="#9a32cd" stroke-dasharray="5,2" d="M160.292,-181.74C155.291,-174.507 148.916,-166.327 142,-160 134.064,-152.741 123.9,-146.355 115.341,-141.618"/>
<polygon fill="#9a32cd" stroke="#9a32cd" points="157.419,-183.742 165.829,-190.186 163.273,-179.904 157.419,-183.742"/>
<text text-anchor="middle" x="196" y="-163.5" font-family="Helvetica,sans-Serif" font-size="10.00"> ourSelectedColor</text>
</g>
<!-- Node6 -->
<g id="node6" class="node"><title>Node6</title>
<polygon fill="white" stroke="#bfbfbf" points="167,-122.5 167,-141.5 253,-141.5 253,-122.5 167,-122.5"/>
<text text-anchor="middle" x="210" y="-129.5" font-family="Helvetica,sans-Serif" font-size="10.00">List&lt; Shape &gt;</text>
</g>
<!-- Node6&#45;&gt;Node1 -->
<g id="edge5" class="edge"><title>Node6&#45;&gt;Node1</title>
<path fill="none" stroke="#9a32cd" stroke-dasharray="5,2" d="M208.489,-112.109C207.907,-91.277 210.347,-58.0594 229,-38 236.899,-29.5052 247.239,-23.6075 258.202,-19.5293"/>
<polygon fill="#9a32cd" stroke="#9a32cd" points="205.002,-112.451 209.04,-122.246 211.992,-112.071 205.002,-112.451"/>
<text text-anchor="middle" x="275" y="-68.5" font-family="Helvetica,sans-Serif" font-size="10.00"> myTurtleBodyParts</text>
</g>
<!-- Node7 -->
<g id="node7" class="node"><title>Node7</title>
<polygon fill="white" stroke="#bfbfbf" points="297,-122.5 297,-141.5 353,-141.5 353,-122.5 297,-122.5"/>
<text text-anchor="middle" x="325" y="-129.5" font-family="Helvetica,sans-Serif" font-size="10.00">Timeline</text>
</g>
<!-- Node7&#45;&gt;Node1 -->
<g id="edge6" class="edge"><title>Node7&#45;&gt;Node1</title>
<path fill="none" stroke="#9a32cd" stroke-dasharray="5,2" d="M325,-112.145C325,-85.7231 325,-38.7637 325,-19.5519"/>
<polygon fill="#9a32cd" stroke="#9a32cd" points="321.5,-112.37 325,-122.37 328.5,-112.37 321.5,-112.37"/>
<text text-anchor="middle" x="358.5" y="-68.5" font-family="Helvetica,sans-Serif" font-size="10.00"> myAnimation</text>
</g>
<!-- Node8 -->
<g id="node8" class="node"><title>Node8</title>
<polygon fill="white" stroke="#bfbfbf" points="391.5,-122.5 391.5,-141.5 438.5,-141.5 438.5,-122.5 391.5,-122.5"/>
<text text-anchor="middle" x="415" y="-129.5" font-family="Helvetica,sans-Serif" font-size="10.00">Ellipse</text>
</g>
<!-- Node8&#45;&gt;Node1 -->
<g id="edge7" class="edge"><title>Node8&#45;&gt;Node1</title>
<path fill="none" stroke="#9a32cd" stroke-dasharray="5,2" d="M415.426,-112.121C414.885,-91.5391 410.946,-58.7715 393,-38 385.609,-29.4457 375.138,-23.5759 364.623,-19.5581"/>
<polygon fill="#9a32cd" stroke="#9a32cd" points="411.926,-112.403 415.438,-122.399 418.926,-112.394 411.926,-112.403"/>
<text text-anchor="middle" x="460" y="-96" font-family="Helvetica,sans-Serif" font-size="10.00"> myFrontRightFoot</text>
<text text-anchor="middle" x="460" y="-85" font-family="Helvetica,sans-Serif" font-size="10.00">myFrontLeftFoot</text>
<text text-anchor="middle" x="460" y="-74" font-family="Helvetica,sans-Serif" font-size="10.00">myBackLeftFoot</text>
<text text-anchor="middle" x="460" y="-63" font-family="Helvetica,sans-Serif" font-size="10.00">myHead</text>
<text text-anchor="middle" x="460" y="-52" font-family="Helvetica,sans-Serif" font-size="10.00">myTail</text>
<text text-anchor="middle" x="460" y="-41" font-family="Helvetica,sans-Serif" font-size="10.00">myBackRightFoot</text>
</g>
<!-- Node9 -->
<g id="node9" class="node"><title>Node9</title>
<polygon fill="white" stroke="#bfbfbf" points="504.5,-122.5 504.5,-141.5 547.5,-141.5 547.5,-122.5 504.5,-122.5"/>
<text text-anchor="middle" x="526" y="-129.5" font-family="Helvetica,sans-Serif" font-size="10.00">Circle</text>
</g>
<!-- Node9&#45;&gt;Node1 -->
<g id="edge8" class="edge"><title>Node9&#45;&gt;Node1</title>
<path fill="none" stroke="#9a32cd" stroke-dasharray="5,2" d="M527.259,-112.218C527.567,-90.9646 524.486,-56.8608 504,-38 487.931,-23.2058 436.54,-16.5172 392.922,-13.4935"/>
<polygon fill="#9a32cd" stroke="#9a32cd" points="523.759,-112.133 526.846,-122.268 530.753,-112.42 523.759,-112.133"/>
<text text-anchor="middle" x="548.5" y="-68.5" font-family="Helvetica,sans-Serif" font-size="10.00"> myBody</text>
</g>
</g>
</svg>
        <g id="navigator" transform="translate(0 0)" fill="#404254">
                <rect fill="#f2f5e9" fill-opacity="0.5" stroke="#606060" stroke-width=".5" x="0" y="0" width="60" height="60"/>
                <use id="zoomplus" xlink:href="#zoomPlus" x="17" y="9" onmousedown="handleZoom(evt,'in')"/>
                <use id="zoomminus" xlink:href="#zoomMin" x="42" y="9" onmousedown="handleZoom(evt,'out')"/>
                <use id="reset" xlink:href="#resetDef" x="30" y="36" onmousedown="handleReset()"/>
                <g id="arrowUp" xlink:href="#dirArrow" transform="translate(30 24)" onmousedown="handlePan(0,-1)">
                  <use xlink:href="#rim" fill="#404040">
                        <set attributeName="fill" to="#808080" begin="arrowUp.mouseover" end="arrowUp.mouseout"/>
                  </use>
                  <path fill="none" stroke="white" stroke-width="1.5" d="M0,-3.0v7 M-2.5,-0.5L0,-3.0L2.5,-0.5"/>
                </g>
                <g id="arrowRight" xlink:href="#dirArrow" transform="rotate(90) translate(36 -43)" onmousedown="handlePan(1,0)">
                  <use xlink:href="#rim" fill="#404040">
                        <set attributeName="fill" to="#808080" begin="arrowRight.mouseover" end="arrowRight.mouseout"/>
                  </use>
                  <path fill="none" stroke="white" stroke-width="1.5" d="M0,-3.0v7 M-2.5,-0.5L0,-3.0L2.5,-0.5"/>
                </g>
                <g id="arrowDown" xlink:href="#dirArrow" transform="rotate(180) translate(-30 -48)" onmousedown="handlePan(0,1)">
                  <use xlink:href="#rim" fill="#404040">
                        <set attributeName="fill" to="#808080" begin="arrowDown.mouseover" end="arrowDown.mouseout"/>
                  </use>
                  <path fill="none" stroke="white" stroke-width="1.5" d="M0,-3.0v7 M-2.5,-0.5L0,-3.0L2.5,-0.5"/>
                </g>
                <g id="arrowLeft" xlink:href="#dirArrow" transform="rotate(270) translate(-36 17)" onmousedown="handlePan(-1,0)">
                  <use xlink:href="#rim" fill="#404040">
                        <set attributeName="fill" to="#808080" begin="arrowLeft.mouseover" end="arrowLeft.mouseout"/>
                  </use>
                  <path fill="none" stroke="white" stroke-width="1.5" d="M0,-3.0v7 M-2.5,-0.5L0,-3.0L2.5,-0.5"/>
                </g>
        </g>
        <svg viewBox="0 0 15 15" width="100%" height="30px" preserveAspectRatio="xMaxYMin meet">
         <g id="arrow_out" transform="scale(0.3 0.3)">
          <a xlink:href="classturtle_1_1_default_turtle_image__coll__graph_org.svg" target="_base">
           <rect id="button" ry="5" rx="5" y="6" x="6" height="38" width="38"
                fill="#f2f5e9" fill-opacity="0.5" stroke="#606060" stroke-width="1.0"/>
           <path id="arrow"
             d="M 11.500037,31.436501 C 11.940474,20.09759 22.043105,11.32322 32.158766,21.979434 L 37.068811,17.246167 C 37.068811,17.246167 37.088388,32 37.088388,32 L 22.160133,31.978069 C 22.160133,31.978069 26.997745,27.140456 26.997745,27.140456 C 18.528582,18.264221 13.291696,25.230495 11.500037,31.436501 z"
             style="fill:#404040;"/>
          </a>
         </g>
        </svg>
</svg>
