<?xml version="1.0" encoding="UTF-8" standalone="no"?>
<!DOCTYPE svg PUBLIC "-//W3C//DTD SVG 1.1//EN"
 "http://www.w3.org/Graphics/SVG/1.1/DTD/svg11.dtd">
<!-- Generated by graphviz version 2.36.0 (20140111.2315)
 -->
<!-- Title: application.PenForm.PenForm Pages: 1 -->
<!--zoomable 273 -->
<svg id="main" version="1.1" xmlns="http://www.w3.org/2000/svg" xmlns:xlink="http://www.w3.org/1999/xlink" xml:space="preserve" onload="init(evt)">
<style type="text/css"><![CDATA[
.edge:hover path { stroke: red; }
.edge:hover polygon { stroke: red; fill: red; }
]]></style>
<script type="text/javascript"><![CDATA[
var edges = document.getElementsByTagName('g');
if (edges && edges.length) {
  for (var i=0;i<edges.length;i++) {
    if (edges[i].id.substr(0,4)=='edge') {
      edges[i].setAttribute('class','edge');
    }
  }
}
]]></script>
        <defs>
                <circle id="rim" cx="0" cy="0" r="7"/>
                <circle id="rim2" cx="0" cy="0" r="3.5"/>
                <g id="zoomPlus">
                        <use xlink:href="#rim" fill="#404040">
                                <set attributeName="fill" to="#808080" begin="zoomplus.mouseover" end="zoomplus.mouseout"/>
                        </use>
                        <path d="M-4,0h8M0,-4v8" fill="none" stroke="white" stroke-width="1.5" pointer-events="none"/>
                </g>
                <g id="zoomMin">
                        <use xlink:href="#rim" fill="#404040">
                                <set attributeName="fill" to="#808080" begin="zoomminus.mouseover" end="zoomminus.mouseout"/>
                        </use>
                        <path d="M-4,0h8" fill="none" stroke="white" stroke-width="1.5" pointer-events="none"/>
                </g>
                <g id="dirArrow">
                        <path fill="none" stroke="white" stroke-width="1.5" d="M0,-3.0v7 M-2.5,-0.5L0,-3.0L2.5,-0.5"/>
                </g>
               <g id="resetDef">
                       <use xlink:href="#rim2" fill="#404040">
                               <set attributeName="fill" to="#808080" begin="reset.mouseover" end="reset.mouseout"/>
                       </use>
               </g>
        </defs>

<script type="text/javascript">
var viewWidth = 604;
var viewHeight = 273;
var sectionId = 'dynsection-2';
</script>
<script xlink:href="../../svgpan.js"/>
<svg id="graph" class="graph">
<g id="viewport">
<title>application.PenForm.PenForm</title>
<polygon fill="white" stroke="none" points="-4,4 -4,-269 600,-269 600,4 -4,4"/>
<!-- Node1 -->
<g id="node1" class="node"><title>Node1</title>
<polygon fill="#bfbfbf" stroke="black" points="0,-127.5 0,-146.5 160,-146.5 160,-127.5 0,-127.5"/>
<text text-anchor="middle" x="80" y="-134.5" font-family="Helvetica,sans-Serif" font-size="10.00">application.PenForm.PenForm</text>
</g>
<!-- Node2 -->
<g id="node2" class="node"><title>Node2</title>
<g id="a_node2"><a xlink:href="../../d8/d90/classapplication_1_1_form.html#a1d01c2e77c80067edf5247f5858e3100" target="_top" xlink:title="application.Form.addForm\lElement">
<polygon fill="white" stroke="black" points="217,-235 217,-265 359,-265 359,-235 217,-235"/>
<text text-anchor="start" x="225" y="-253" font-family="Helvetica,sans-Serif" font-size="10.00">application.Form.addForm</text>
<text text-anchor="middle" x="288" y="-242" font-family="Helvetica,sans-Serif" font-size="10.00">Element</text>
</a>
</g>
</g>
<!-- Node1&#45;&gt;Node2 -->
<g id="edge1" class="edge"><title>Node1&#45;&gt;Node2</title>
<path fill="none" stroke="midnightblue" d="M91.9903,-146.734C111.621,-163.689 154.548,-198.849 196,-220 204.358,-224.265 213.451,-228.106 222.549,-231.505"/>
<polygon fill="midnightblue" stroke="midnightblue" points="221.406,-234.813 232.001,-234.884 223.763,-228.222 221.406,-234.813"/>
</g>
<!-- Node4 -->
<g id="node4" class="node"><title>Node4</title>
<g id="a_node4"><a xlink:href="../../d9/dd7/classviewcontroller_1_1_g_u_i_reference_library.html#ac147f33c0bfa0252d247d7c0174ff688" target="_top" xlink:title="viewcontroller.GUIReference\lLibrary.getStringTranslation">
<polygon fill="white" stroke="black" points="431.5,-169 431.5,-199 580.5,-199 580.5,-169 431.5,-169"/>
<text text-anchor="start" x="439.5" y="-187" font-family="Helvetica,sans-Serif" font-size="10.00">viewcontroller.GUIReference</text>
<text text-anchor="middle" x="506" y="-176" font-family="Helvetica,sans-Serif" font-size="10.00">Library.getStringTranslation</text>
</a>
</g>
</g>
<!-- Node1&#45;&gt;Node4 -->
<g id="edge3" class="edge"><title>Node1&#45;&gt;Node4</title>
<path fill="none" stroke="midnightblue" d="M97.4502,-146.536C119.171,-158.524 159.002,-178.446 196,-186 271.06,-201.324 358.528,-198.93 421.206,-193.816"/>
<polygon fill="midnightblue" stroke="midnightblue" points="421.773,-197.281 431.437,-192.94 421.175,-190.306 421.773,-197.281"/>
</g>
<!-- Node5 -->
<g id="node5" class="node"><title>Node5</title>
<g id="a_node5"><a xlink:href="../../db/df2/classapplication_1_1_pen_form.html#a5832fa433c31798116c5a88b1d82d70f" target="_top" xlink:title="application.PenForm.initialize\lPenStyles">
<polygon fill="white" stroke="black" points="210.5,-147 210.5,-177 365.5,-177 365.5,-147 210.5,-147"/>
<text text-anchor="start" x="218.5" y="-165" font-family="Helvetica,sans-Serif" font-size="10.00">application.PenForm.initialize</text>
<text text-anchor="middle" x="288" y="-154" font-family="Helvetica,sans-Serif" font-size="10.00">PenStyles</text>
</a>
</g>
</g>
<!-- Node1&#45;&gt;Node5 -->
<g id="edge4" class="edge"><title>Node1&#45;&gt;Node5</title>
<path fill="none" stroke="midnightblue" d="M159.467,-146.523C172.787,-148.139 186.687,-149.826 200.205,-151.467"/>
<polygon fill="midnightblue" stroke="midnightblue" points="200.103,-154.98 210.452,-152.71 200.947,-148.031 200.103,-154.98"/>
</g>
<!-- Node6 -->
<g id="node6" class="node"><title>Node6</title>
<g id="a_node6"><a xlink:href="../../da/da5/classapplication_1_1_drop_down_form_element.html#aa886e8e7d0fd6d800b39c9a8a95d168e" target="_top" xlink:title="application.DropDownForm\lElement.setInitialValue">
<polygon fill="white" stroke="black" points="215,-98 215,-128 361,-128 361,-98 215,-98"/>
<text text-anchor="start" x="223" y="-116" font-family="Helvetica,sans-Serif" font-size="10.00">application.DropDownForm</text>
<text text-anchor="middle" x="288" y="-105" font-family="Helvetica,sans-Serif" font-size="10.00">Element.setInitialValue</text>
</a>
</g>
</g>
<!-- Node1&#45;&gt;Node6 -->
<g id="edge6" class="edge"><title>Node1&#45;&gt;Node6</title>
<path fill="none" stroke="midnightblue" d="M160.056,-127.79C174.714,-126.082 190.057,-124.294 204.806,-122.576"/>
<polygon fill="midnightblue" stroke="midnightblue" points="205.378,-126.033 214.906,-121.399 204.568,-119.08 205.378,-126.033"/>
</g>
<!-- Node7 -->
<g id="node7" class="node"><title>Node7</title>
<g id="a_node7"><a xlink:href="../../d7/de6/classapplication_1_1_number_input_form_element.html#aa71e58632faca0ee3cb60c2c966d536d" target="_top" xlink:title="application.NumberInputForm\lElement.setInitialValue">
<polygon fill="white" stroke="black" points="208.5,-49 208.5,-79 367.5,-79 367.5,-49 208.5,-49"/>
<text text-anchor="start" x="216.5" y="-67" font-family="Helvetica,sans-Serif" font-size="10.00">application.NumberInputForm</text>
<text text-anchor="middle" x="288" y="-56" font-family="Helvetica,sans-Serif" font-size="10.00">Element.setInitialValue</text>
</a>
</g>
</g>
<!-- Node1&#45;&gt;Node7 -->
<g id="edge7" class="edge"><title>Node1&#45;&gt;Node7</title>
<path fill="none" stroke="midnightblue" d="M101.884,-127.336C124.693,-117.005 162.454,-100.556 196,-89 203.109,-86.5511 210.593,-84.1768 218.09,-81.9291"/>
<polygon fill="midnightblue" stroke="midnightblue" points="219.308,-85.2196 227.922,-79.0515 217.341,-78.5014 219.308,-85.2196"/>
</g>
<!-- Node8 -->
<g id="node8" class="node"><title>Node8</title>
<g id="a_node8"><a xlink:href="../../df/d65/classapplication_1_1_toggle_form_element.html#a0da52996e2bc83476f576ce9b9e98fe2" target="_top" xlink:title="application.ToggleFormElement.set\lInitialValue">
<polygon fill="white" stroke="black" points="196,-0 196,-30 380,-30 380,-0 196,-0"/>
<text text-anchor="start" x="204" y="-18" font-family="Helvetica,sans-Serif" font-size="10.00">application.ToggleFormElement.set</text>
<text text-anchor="middle" x="288" y="-7" font-family="Helvetica,sans-Serif" font-size="10.00">InitialValue</text>
</a>
</g>
</g>
<!-- Node1&#45;&gt;Node8 -->
<g id="edge8" class="edge"><title>Node1&#45;&gt;Node8</title>
<path fill="none" stroke="midnightblue" d="M89.5244,-127.441C107.353,-108.035 150.696,-63.8398 196,-40 200.304,-37.7349 204.834,-35.659 209.479,-33.7588"/>
<polygon fill="midnightblue" stroke="midnightblue" points="211.028,-36.9151 219.141,-30.1009 208.549,-30.3685 211.028,-36.9151"/>
</g>
<!-- Node3 -->
<g id="node3" class="node"><title>Node3</title>
<g id="a_node3"><a xlink:href="../../d0/d1b/interfaceapplication_1_1_form_element.html#a388bbc27c5cb0a017dbfd36d50b518f7" target="_top" xlink:title="application.FormElement.getNode">
<polygon fill="white" stroke="black" points="416,-240.5 416,-259.5 596,-259.5 596,-240.5 416,-240.5"/>
<text text-anchor="middle" x="506" y="-247.5" font-family="Helvetica,sans-Serif" font-size="10.00">application.FormElement.getNode</text>
</a>
</g>
</g>
<!-- Node2&#45;&gt;Node3 -->
<g id="edge2" class="edge"><title>Node2&#45;&gt;Node3</title>
<path fill="none" stroke="midnightblue" d="M359.129,-250C373.983,-250 389.932,-250 405.636,-250"/>
<polygon fill="midnightblue" stroke="midnightblue" points="405.906,-253.5 415.906,-250 405.906,-246.5 405.906,-253.5"/>
</g>
<!-- Node5&#45;&gt;Node4 -->
<g id="edge5" class="edge"><title>Node5&#45;&gt;Node4</title>
<path fill="none" stroke="midnightblue" d="M365.762,-169.818C383.769,-171.652 403.043,-173.616 421.335,-175.479"/>
<polygon fill="midnightblue" stroke="midnightblue" points="421.079,-178.971 431.382,-176.502 421.788,-172.007 421.079,-178.971"/>
</g>
</g>
</svg>
        <g id="navigator" transform="translate(0 0)" fill="#404254">
                <rect fill="#f2f5e9" fill-opacity="0.5" stroke="#606060" stroke-width=".5" x="0" y="0" width="60" height="60"/>
                <use id="zoomplus" xlink:href="#zoomPlus" x="17" y="9" onmousedown="handleZoom(evt,'in')"/>
                <use id="zoomminus" xlink:href="#zoomMin" x="42" y="9" onmousedown="handleZoom(evt,'out')"/>
                <use id="reset" xlink:href="#resetDef" x="30" y="36" onmousedown="handleReset()"/>
                <g id="arrowUp" xlink:href="#dirArrow" transform="translate(30 24)" onmousedown="handlePan(0,-1)">
                  <use xlink:href="#rim" fill="#404040">
                        <set attributeName="fill" to="#808080" begin="arrowUp.mouseover" end="arrowUp.mouseout"/>
                  </use>
                  <path fill="none" stroke="white" stroke-width="1.5" d="M0,-3.0v7 M-2.5,-0.5L0,-3.0L2.5,-0.5"/>
                </g>
                <g id="arrowRight" xlink:href="#dirArrow" transform="rotate(90) translate(36 -43)" onmousedown="handlePan(1,0)">
                  <use xlink:href="#rim" fill="#404040">
                        <set attributeName="fill" to="#808080" begin="arrowRight.mouseover" end="arrowRight.mouseout"/>
                  </use>
                  <path fill="none" stroke="white" stroke-width="1.5" d="M0,-3.0v7 M-2.5,-0.5L0,-3.0L2.5,-0.5"/>
                </g>
                <g id="arrowDown" xlink:href="#dirArrow" transform="rotate(180) translate(-30 -48)" onmousedown="handlePan(0,1)">
                  <use xlink:href="#rim" fill="#404040">
                        <set attributeName="fill" to="#808080" begin="arrowDown.mouseover" end="arrowDown.mouseout"/>
                  </use>
                  <path fill="none" stroke="white" stroke-width="1.5" d="M0,-3.0v7 M-2.5,-0.5L0,-3.0L2.5,-0.5"/>
                </g>
                <g id="arrowLeft" xlink:href="#dirArrow" transform="rotate(270) translate(-36 17)" onmousedown="handlePan(-1,0)">
                  <use xlink:href="#rim" fill="#404040">
                        <set attributeName="fill" to="#808080" begin="arrowLeft.mouseover" end="arrowLeft.mouseout"/>
                  </use>
                  <path fill="none" stroke="white" stroke-width="1.5" d="M0,-3.0v7 M-2.5,-0.5L0,-3.0L2.5,-0.5"/>
                </g>
        </g>
        <svg viewBox="0 0 15 15" width="100%" height="30px" preserveAspectRatio="xMaxYMin meet">
         <g id="arrow_out" transform="scale(0.3 0.3)">
          <a xlink:href="classapplication_1_1_pen_form_aeba613e21bc0ca960ebd31adfa466160_cgraph_org.svg" target="_base">
           <rect id="button" ry="5" rx="5" y="6" x="6" height="38" width="38"
                fill="#f2f5e9" fill-opacity="0.5" stroke="#606060" stroke-width="1.0"/>
           <path id="arrow"
             d="M 11.500037,31.436501 C 11.940474,20.09759 22.043105,11.32322 32.158766,21.979434 L 37.068811,17.246167 C 37.068811,17.246167 37.088388,32 37.088388,32 L 22.160133,31.978069 C 22.160133,31.978069 26.997745,27.140456 26.997745,27.140456 C 18.528582,18.264221 13.291696,25.230495 11.500037,31.436501 z"
             style="fill:#404040;"/>
          </a>
         </g>
        </svg>
</svg>
