<?xml version="1.0" encoding="UTF-8" standalone="no"?>
<!DOCTYPE svg PUBLIC "-//W3C//DTD SVG 1.1//EN"
 "http://www.w3.org/Graphics/SVG/1.1/DTD/svg11.dtd">
<!-- Generated by graphviz version 2.36.0 (20140111.2315)
 -->
<!-- Title: application.PenForm.getResult Pages: 1 -->
<svg width="392pt" height="136pt"
 viewBox="0.00 0.00 392.00 136.00" xmlns="http://www.w3.org/2000/svg" xmlns:xlink="http://www.w3.org/1999/xlink">
<g id="graph0" class="graph" transform="scale(1 1) rotate(0) translate(4 132)">
<title>application.PenForm.getResult</title>
<polygon fill="white" stroke="none" points="-4,4 -4,-132 388,-132 388,4 -4,4"/>
<!-- Node1 -->
<g id="node1" class="node"><title>Node1</title>
<polygon fill="#bfbfbf" stroke="black" points="0.5,-54.5 0.5,-73.5 161.5,-73.5 161.5,-54.5 0.5,-54.5"/>
<text text-anchor="middle" x="81" y="-61.5" font-family="Helvetica,sans-Serif" font-size="10.00">application.PenForm.getResult</text>
</g>
<!-- Node2 -->
<g id="node2" class="node"><title>Node2</title>
<g id="a_node2"><a xlink:href="../../da/da5/classapplication_1_1_drop_down_form_element.html#a4c3c66bc06516f9ff3466d4c08d37955" target="_top" xlink:title="application.DropDownForm\lElement.getSelectedValue">
<polygon fill="white" stroke="black" points="218,-98 218,-128 364,-128 364,-98 218,-98"/>
<text text-anchor="start" x="226" y="-116" font-family="Helvetica,sans-Serif" font-size="10.00">application.DropDownForm</text>
<text text-anchor="middle" x="291" y="-105" font-family="Helvetica,sans-Serif" font-size="10.00">Element.getSelectedValue</text>
</a>
</g>
</g>
<!-- Node1&#45;&gt;Node2 -->
<g id="edge1" class="edge"><title>Node1&#45;&gt;Node2</title>
<path fill="none" stroke="midnightblue" d="M122.598,-73.564C149.162,-79.8218 184.649,-88.1817 216.112,-95.5937"/>
<polygon fill="midnightblue" stroke="midnightblue" points="215.633,-99.0767 226.17,-97.963 217.239,-92.2632 215.633,-99.0767"/>
</g>
<!-- Node3 -->
<g id="node3" class="node"><title>Node3</title>
<g id="a_node3"><a xlink:href="../../d7/de6/classapplication_1_1_number_input_form_element.html#a4febe2c6736041a60d0515fad2036c52" target="_top" xlink:title="application.NumberInputForm\lElement.getSelectedValue">
<polygon fill="white" stroke="black" points="211.5,-49 211.5,-79 370.5,-79 370.5,-49 211.5,-49"/>
<text text-anchor="start" x="219.5" y="-67" font-family="Helvetica,sans-Serif" font-size="10.00">application.NumberInputForm</text>
<text text-anchor="middle" x="291" y="-56" font-family="Helvetica,sans-Serif" font-size="10.00">Element.getSelectedValue</text>
</a>
</g>
</g>
<!-- Node1&#45;&gt;Node3 -->
<g id="edge2" class="edge"><title>Node1&#45;&gt;Node3</title>
<path fill="none" stroke="midnightblue" d="M161.526,-64C174.504,-64 188.02,-64 201.203,-64"/>
<polygon fill="midnightblue" stroke="midnightblue" points="201.205,-67.5001 211.205,-64 201.205,-60.5001 201.205,-67.5001"/>
</g>
<!-- Node4 -->
<g id="node4" class="node"><title>Node4</title>
<g id="a_node4"><a xlink:href="../../df/d65/classapplication_1_1_toggle_form_element.html#a181fba0f0737bc4f22baf061a0c2a956" target="_top" xlink:title="application.ToggleFormElement.get\lSelectedValue">
<polygon fill="white" stroke="black" points="198.5,-0 198.5,-30 383.5,-30 383.5,-0 198.5,-0"/>
<text text-anchor="start" x="206.5" y="-18" font-family="Helvetica,sans-Serif" font-size="10.00">application.ToggleFormElement.get</text>
<text text-anchor="middle" x="291" y="-7" font-family="Helvetica,sans-Serif" font-size="10.00">SelectedValue</text>
</a>
</g>
</g>
<!-- Node1&#45;&gt;Node4 -->
<g id="edge3" class="edge"><title>Node1&#45;&gt;Node4</title>
<path fill="none" stroke="midnightblue" d="M122.598,-54.436C149.162,-48.1782 184.649,-39.8183 216.112,-32.4063"/>
<polygon fill="midnightblue" stroke="midnightblue" points="217.239,-35.7368 226.17,-30.037 215.633,-28.9233 217.239,-35.7368"/>
</g>
</g>
</svg>
