<?xml version="1.0" encoding="UTF-8" standalone="no"?>
<!DOCTYPE svg PUBLIC "-//W3C//DTD SVG 1.1//EN"
 "http://www.w3.org/Graphics/SVG/1.1/DTD/svg11.dtd">
<!-- Generated by graphviz version 2.36.0 (20140111.2315)
 -->
<!-- Title: turtle.SerialisableTurtle Pages: 1 -->
<svg width="226pt" height="96pt"
 viewBox="0.00 0.00 226.00 96.00" xmlns="http://www.w3.org/2000/svg" xmlns:xlink="http://www.w3.org/1999/xlink">
<g id="graph0" class="graph" transform="scale(1 1) rotate(0) translate(4 92)">
<title>turtle.SerialisableTurtle</title>
<polygon fill="white" stroke="none" points="-4,4 -4,-92 222,-92 222,4 -4,4"/>
<!-- Node1 -->
<g id="node1" class="node"><title>Node1</title>
<polygon fill="#bfbfbf" stroke="black" points="63.5,-0.5 63.5,-19.5 188.5,-19.5 188.5,-0.5 63.5,-0.5"/>
<text text-anchor="middle" x="126" y="-7.5" font-family="Helvetica,sans-Serif" font-size="10.00">turtle.SerialisableTurtle</text>
</g>
<!-- Node2 -->
<g id="node2" class="node"><title>Node2</title>
<polygon fill="white" stroke="#bfbfbf" points="-0.5,-68.5 -0.5,-87.5 70.5,-87.5 70.5,-68.5 -0.5,-68.5"/>
<text text-anchor="middle" x="35" y="-75.5" font-family="Helvetica,sans-Serif" font-size="10.00">Serializable</text>
</g>
<!-- Node2&#45;&gt;Node1 -->
<g id="edge1" class="edge"><title>Node2&#45;&gt;Node1</title>
<path fill="none" stroke="midnightblue" d="M55.0543,-62.4551C73.133,-49.3431 99.1114,-30.5016 114.1,-19.6305"/>
<polygon fill="midnightblue" stroke="midnightblue" points="52.9368,-59.6672 46.8967,-68.3717 57.0466,-65.3338 52.9368,-59.6672"/>
</g>
<!-- Node3 -->
<g id="node3" class="node"><title>Node3</title>
<polygon fill="white" stroke="#bfbfbf" points="88.5,-68.5 88.5,-87.5 163.5,-87.5 163.5,-68.5 88.5,-68.5"/>
<text text-anchor="middle" x="126" y="-75.5" font-family="Helvetica,sans-Serif" font-size="10.00">List&lt; Line &gt;</text>
</g>
<!-- Node3&#45;&gt;Node1 -->
<g id="edge2" class="edge"><title>Node3&#45;&gt;Node1</title>
<path fill="none" stroke="#9a32cd" stroke-dasharray="5,2" d="M126,-58.0413C126,-45.4724 126,-29.5631 126,-19.8411"/>
<polygon fill="#9a32cd" stroke="#9a32cd" points="122.5,-58.3716 126,-68.3717 129.5,-58.3717 122.5,-58.3716"/>
<text text-anchor="middle" x="138.5" y="-41.5" font-family="Helvetica,sans-Serif" font-size="10.00"> lines</text>
</g>
<!-- Node4 -->
<g id="node4" class="node"><title>Node4</title>
<polygon fill="white" stroke="#bfbfbf" points="182,-68.5 182,-87.5 214,-87.5 214,-68.5 182,-68.5"/>
<text text-anchor="middle" x="198" y="-75.5" font-family="Helvetica,sans-Serif" font-size="10.00">File</text>
</g>
<!-- Node4&#45;&gt;Node1 -->
<g id="edge3" class="edge"><title>Node4&#45;&gt;Node1</title>
<path fill="none" stroke="#9a32cd" stroke-dasharray="5,2" d="M180.995,-61.4122C166.851,-48.4468 147.225,-30.4559 135.645,-19.8411"/>
<polygon fill="#9a32cd" stroke="#9a32cd" points="178.851,-64.1944 188.587,-68.3717 183.581,-59.0343 178.851,-64.1944"/>
<text text-anchor="middle" x="193.5" y="-41.5" font-family="Helvetica,sans-Serif" font-size="10.00"> imageFile</text>
</g>
</g>
</svg>
