<?xml version="1.0" encoding="UTF-8" standalone="no"?>
<!DOCTYPE svg PUBLIC "-//W3C//DTD SVG 1.1//EN"
 "http://www.w3.org/Graphics/SVG/1.1/DTD/svg11.dtd">
<!-- Generated by graphviz version 2.36.0 (20140111.2315)
 -->
<!-- Title: interpreter.result.ErrorResult Pages: 1 -->
<svg width="452pt" height="200pt"
 viewBox="0.00 0.00 452.00 200.00" xmlns="http://www.w3.org/2000/svg" xmlns:xlink="http://www.w3.org/1999/xlink">
<g id="graph0" class="graph" transform="scale(1 1) rotate(0) translate(4 196)">
<title>interpreter.result.ErrorResult</title>
<polygon fill="white" stroke="none" points="-4,4 -4,-196 448,-196 448,4 -4,4"/>
<!-- Node1 -->
<g id="node1" class="node"><title>Node1</title>
<polygon fill="#bfbfbf" stroke="black" points="212.5,-1 212.5,-31 335.5,-31 335.5,-1 212.5,-1"/>
<text text-anchor="start" x="220.5" y="-19" font-family="Helvetica,sans-Serif" font-size="10.00">interpreter.result.Error</text>
<text text-anchor="middle" x="274" y="-8" font-family="Helvetica,sans-Serif" font-size="10.00">Result</text>
</g>
<!-- Node2 -->
<g id="node2" class="node"><title>Node2</title>
<g id="a_node2"><a xlink:href="../../df/df6/classinterpreter_1_1result_1_1_s_logo_result.html" target="_top" xlink:title="interpreter.result.SLogo\lResult">
<polygon fill="white" stroke="black" points="105,-81 105,-111 235,-111 235,-81 105,-81"/>
<text text-anchor="start" x="113" y="-99" font-family="Helvetica,sans-Serif" font-size="10.00">interpreter.result.SLogo</text>
<text text-anchor="middle" x="170" y="-88" font-family="Helvetica,sans-Serif" font-size="10.00">Result</text>
</a>
</g>
</g>
<!-- Node2&#45;&gt;Node1 -->
<g id="edge1" class="edge"><title>Node2&#45;&gt;Node1</title>
<path fill="none" stroke="midnightblue" d="M197.514,-74.3645C215.658,-60.7566 238.956,-43.2833 255.046,-31.2157"/>
<polygon fill="midnightblue" stroke="midnightblue" points="194.975,-71.8936 189.075,-80.6936 199.175,-77.4936 194.975,-71.8936"/>
</g>
<!-- Node3 -->
<g id="node3" class="node"><title>Node3</title>
<polygon fill="white" stroke="#bfbfbf" points="-0.5,-166.5 -0.5,-185.5 92.5,-185.5 92.5,-166.5 -0.5,-166.5"/>
<text text-anchor="middle" x="46" y="-173.5" font-family="Helvetica,sans-Serif" font-size="10.00">ResourceBundle</text>
</g>
<!-- Node3&#45;&gt;Node2 -->
<g id="edge2" class="edge"><title>Node3&#45;&gt;Node2</title>
<path fill="none" stroke="#9a32cd" stroke-dasharray="5,2" d="M65.4393,-160.161C77.6779,-151.06 93.9532,-139.393 109,-130 119.622,-123.369 131.681,-116.679 142.257,-111.073"/>
<polygon fill="#9a32cd" stroke="#9a32cd" points="63.2084,-157.459 57.3164,-166.265 67.4135,-163.055 63.2084,-157.459"/>
<text text-anchor="middle" x="142.5" y="-133.5" font-family="Helvetica,sans-Serif" font-size="10.00"> myProperties</text>
</g>
<!-- Node4 -->
<g id="node4" class="node"><title>Node4</title>
<polygon fill="white" stroke="#bfbfbf" points="111,-161 111,-191 273,-191 273,-161 111,-161"/>
<text text-anchor="start" x="119" y="-179" font-family="Helvetica,sans-Serif" font-size="10.00">List&lt; transitionstate.Transition</text>
<text text-anchor="middle" x="192" y="-168" font-family="Helvetica,sans-Serif" font-size="10.00">State &gt;</text>
</g>
<!-- Node4&#45;&gt;Node2 -->
<g id="edge3" class="edge"><title>Node4&#45;&gt;Node2</title>
<path fill="none" stroke="#9a32cd" stroke-dasharray="5,2" d="M185.217,-150.952C181.545,-137.934 177.135,-122.296 174.01,-111.216"/>
<polygon fill="#9a32cd" stroke="#9a32cd" points="181.882,-152.019 187.965,-160.694 188.619,-150.119 181.882,-152.019"/>
<text text-anchor="middle" x="230.5" y="-133.5" font-family="Helvetica,sans-Serif" font-size="10.00"> myTransitionStates</text>
</g>
<!-- Node5 -->
<g id="node5" class="node"><title>Node5</title>
<g id="a_node5"><a xlink:href="../../d4/dd1/classexceptions_1_1_s_logo_parsing_exception.html" target="_top" xlink:title="exceptions.SLogoParsingException">
<polygon fill="white" stroke="black" points="253,-86.5 253,-105.5 435,-105.5 435,-86.5 253,-86.5"/>
<text text-anchor="middle" x="344" y="-93.5" font-family="Helvetica,sans-Serif" font-size="10.00">exceptions.SLogoParsingException</text>
</a>
</g>
</g>
<!-- Node5&#45;&gt;Node1 -->
<g id="edge4" class="edge"><title>Node5&#45;&gt;Node1</title>
<path fill="none" stroke="#9a32cd" stroke-dasharray="5,2" d="M329.545,-78.8928C316.944,-64.8519 298.843,-44.6827 286.768,-31.227"/>
<polygon fill="#9a32cd" stroke="#9a32cd" points="326.957,-81.2499 336.241,-86.3546 332.167,-76.5745 326.957,-81.2499"/>
<text text-anchor="middle" x="379" y="-53.5" font-family="Helvetica,sans-Serif" font-size="10.00"> mySLogoParsingException</text>
</g>
<!-- Node6 -->
<g id="node6" class="node"><title>Node6</title>
<polygon fill="white" stroke="#bfbfbf" points="312.5,-166.5 312.5,-185.5 375.5,-185.5 375.5,-166.5 312.5,-166.5"/>
<text text-anchor="middle" x="344" y="-173.5" font-family="Helvetica,sans-Serif" font-size="10.00">Exception</text>
</g>
<!-- Node6&#45;&gt;Node5 -->
<g id="edge5" class="edge"><title>Node6&#45;&gt;Node5</title>
<path fill="none" stroke="midnightblue" d="M344,-156.072C344,-140.145 344,-118.078 344,-105.924"/>
<polygon fill="midnightblue" stroke="midnightblue" points="340.5,-156.355 344,-166.355 347.5,-156.355 340.5,-156.355"/>
</g>
</g>
</svg>
