<?xml version="1.0" encoding="UTF-8" standalone="no"?>
<!DOCTYPE svg PUBLIC "-//W3C//DTD SVG 1.1//EN"
 "http://www.w3.org/Graphics/SVG/1.1/DTD/svg11.dtd">
<!-- Generated by graphviz version 2.36.0 (20140111.2315)
 -->
<!-- Title: interpreter.result.SyntaxResult.setGroupedExpressions Pages: 1 -->
<svg width="562pt" height="38pt"
 viewBox="0.00 0.00 562.00 38.00" xmlns="http://www.w3.org/2000/svg" xmlns:xlink="http://www.w3.org/1999/xlink">
<g id="graph0" class="graph" transform="scale(1 1) rotate(0) translate(4 34)">
<title>interpreter.result.SyntaxResult.setGroupedExpressions</title>
<polygon fill="white" stroke="none" points="-4,4 -4,-34 558,-34 558,4 -4,4"/>
<!-- Node1 -->
<g id="node1" class="node"><title>Node1</title>
<polygon fill="#bfbfbf" stroke="black" points="0.5,-0 0.5,-30 161.5,-30 161.5,-0 0.5,-0"/>
<text text-anchor="start" x="8.5" y="-18" font-family="Helvetica,sans-Serif" font-size="10.00">interpreter.result.Syntax</text>
<text text-anchor="middle" x="81" y="-7" font-family="Helvetica,sans-Serif" font-size="10.00">Result.setGroupedExpressions</text>
</g>
<!-- Node2 -->
<g id="node2" class="node"><title>Node2</title>
<g id="a_node2"><a xlink:href="../../d2/db8/classinterpreter_1_1expression_1_1syntax_1_1_list_start.html#a2f9bda199353dd1db201371d2b4d3265" target="_top" xlink:title="interpreter.expression.syntax.\lListStart.merge">
<polygon fill="white" stroke="black" points="198.5,-0 198.5,-30 357.5,-30 357.5,-0 198.5,-0"/>
<text text-anchor="start" x="206.5" y="-18" font-family="Helvetica,sans-Serif" font-size="10.00">interpreter.expression.syntax.</text>
<text text-anchor="middle" x="278" y="-7" font-family="Helvetica,sans-Serif" font-size="10.00">ListStart.merge</text>
</a>
</g>
</g>
<!-- Node1&#45;&gt;Node2 -->
<g id="edge1" class="edge"><title>Node1&#45;&gt;Node2</title>
<path fill="none" stroke="midnightblue" d="M171.6,-15C180.508,-15 189.505,-15 198.29,-15"/>
<polygon fill="midnightblue" stroke="midnightblue" points="171.595,-11.5001 161.595,-15 171.595,-18.5001 171.595,-11.5001"/>
</g>
<!-- Node3 -->
<g id="node3" class="node"><title>Node3</title>
<g id="a_node3"><a xlink:href="../../d2/db8/classinterpreter_1_1expression_1_1syntax_1_1_list_start.html#afb7f9c7e9eb3bbd7edaad2131ed1039a" target="_top" xlink:title="interpreter.expression.syntax.\lListStart.evaluate">
<polygon fill="white" stroke="black" points="394.5,-0 394.5,-30 553.5,-30 553.5,-0 394.5,-0"/>
<text text-anchor="start" x="402.5" y="-18" font-family="Helvetica,sans-Serif" font-size="10.00">interpreter.expression.syntax.</text>
<text text-anchor="middle" x="474" y="-7" font-family="Helvetica,sans-Serif" font-size="10.00">ListStart.evaluate</text>
</a>
</g>
</g>
<!-- Node2&#45;&gt;Node3 -->
<g id="edge2" class="edge"><title>Node2&#45;&gt;Node3</title>
<path fill="none" stroke="midnightblue" d="M367.895,-15C376.691,-15 385.577,-15 394.26,-15"/>
<polygon fill="midnightblue" stroke="midnightblue" points="367.628,-11.5001 357.628,-15 367.628,-18.5001 367.628,-11.5001"/>
</g>
</g>
</svg>
