<?xml version="1.0" encoding="UTF-8" standalone="no"?>
<!DOCTYPE svg PUBLIC "-//W3C//DTD SVG 1.1//EN"
 "http://www.w3.org/Graphics/SVG/1.1/DTD/svg11.dtd">
<!-- Generated by graphviz version 2.36.0 (20140111.2315)
 -->
<!-- Title: interpreter.expression.conditional.Equal.hasSatisfiedCondition Pages: 1 -->
<svg width="354pt" height="38pt"
 viewBox="0.00 0.00 354.00 38.00" xmlns="http://www.w3.org/2000/svg" xmlns:xlink="http://www.w3.org/1999/xlink">
<g id="graph0" class="graph" transform="scale(1 1) rotate(0) translate(4 34)">
<title>interpreter.expression.conditional.Equal.hasSatisfiedCondition</title>
<polygon fill="white" stroke="none" points="-4,4 -4,-34 350,-34 350,4 -4,4"/>
<!-- Node1 -->
<g id="node1" class="node"><title>Node1</title>
<polygon fill="#bfbfbf" stroke="black" points="0.5,-0 0.5,-30 179.5,-30 179.5,-0 0.5,-0"/>
<text text-anchor="start" x="8.5" y="-18" font-family="Helvetica,sans-Serif" font-size="10.00">interpreter.expression.conditional.</text>
<text text-anchor="middle" x="90" y="-7" font-family="Helvetica,sans-Serif" font-size="10.00">Equal.hasSatisfiedCondition</text>
</g>
<!-- Node2 -->
<g id="node2" class="node"><title>Node2</title>
<g id="a_node2"><a xlink:href="../../df/df6/classinterpreter_1_1result_1_1_s_logo_result.html#a7e050bbb65d7c7eb5e9b9970c6e2616f" target="_top" xlink:title="interpreter.result.SLogo\lResult.getValue">
<polygon fill="white" stroke="black" points="216,-0 216,-30 346,-30 346,-0 216,-0"/>
<text text-anchor="start" x="224" y="-18" font-family="Helvetica,sans-Serif" font-size="10.00">interpreter.result.SLogo</text>
<text text-anchor="middle" x="281" y="-7" font-family="Helvetica,sans-Serif" font-size="10.00">Result.getValue</text>
</a>
</g>
</g>
<!-- Node1&#45;&gt;Node2 -->
<g id="edge1" class="edge"><title>Node1&#45;&gt;Node2</title>
<path fill="none" stroke="midnightblue" d="M179.689,-15C188.349,-15 197.074,-15 205.571,-15"/>
<polygon fill="midnightblue" stroke="midnightblue" points="205.805,-18.5001 215.805,-15 205.805,-11.5001 205.805,-18.5001"/>
</g>
</g>
</svg>
