<?xml version="1.0" encoding="UTF-8" standalone="no"?>
<!DOCTYPE svg PUBLIC "-//W3C//DTD SVG 1.1//EN"
 "http://www.w3.org/Graphics/SVG/1.1/DTD/svg11.dtd">
<!-- Generated by graphviz version 2.36.0 (20140111.2315)
 -->
<!-- Title: interpreter.expression.SyntaxExpression Pages: 1 -->
<svg width="554pt" height="234pt"
 viewBox="0.00 0.00 554.00 234.00" xmlns="http://www.w3.org/2000/svg" xmlns:xlink="http://www.w3.org/1999/xlink">
<g id="graph0" class="graph" transform="scale(1 1) rotate(0) translate(4 230)">
<title>interpreter.expression.SyntaxExpression</title>
<polygon fill="white" stroke="none" points="-4,4 -4,-230 550,-230 550,4 -4,4"/>
<!-- Node1 -->
<g id="node1" class="node"><title>Node1</title>
<polygon fill="#bfbfbf" stroke="black" points="192,-98 192,-128 350,-128 350,-98 192,-98"/>
<text text-anchor="start" x="200" y="-116" font-family="Helvetica,sans-Serif" font-size="10.00">interpreter.expression.Syntax</text>
<text text-anchor="middle" x="271" y="-105" font-family="Helvetica,sans-Serif" font-size="10.00">Expression</text>
</g>
<!-- Node3 -->
<g id="node3" class="node"><title>Node3</title>
<g id="a_node3"><a xlink:href="../../d3/de6/classinterpreter_1_1expression_1_1syntax_1_1_command.html" target="_top" xlink:title="interpreter.expression.syntax.\lCommand">
<polygon fill="white" stroke="black" points="386.5,-196 386.5,-226 545.5,-226 545.5,-196 386.5,-196"/>
<text text-anchor="start" x="394.5" y="-214" font-family="Helvetica,sans-Serif" font-size="10.00">interpreter.expression.syntax.</text>
<text text-anchor="middle" x="466" y="-203" font-family="Helvetica,sans-Serif" font-size="10.00">Command</text>
</a>
</g>
</g>
<!-- Node1&#45;&gt;Node3 -->
<g id="edge2" class="edge"><title>Node1&#45;&gt;Node3</title>
<path fill="none" stroke="midnightblue" d="M300.407,-134.191C322.763,-150.111 355.186,-171.568 386,-186 393.817,-189.661 402.309,-192.979 410.73,-195.914"/>
<polygon fill="midnightblue" stroke="midnightblue" points="302.222,-131.185 292.064,-128.174 298.127,-136.862 302.222,-131.185"/>
</g>
<!-- Node4 -->
<g id="node4" class="node"><title>Node4</title>
<g id="a_node4"><a xlink:href="../../da/ded/classinterpreter_1_1expression_1_1syntax_1_1_constant.html" target="_top" xlink:title="interpreter.expression.syntax.\lConstant">
<polygon fill="white" stroke="black" points="386.5,-147 386.5,-177 545.5,-177 545.5,-147 386.5,-147"/>
<text text-anchor="start" x="394.5" y="-165" font-family="Helvetica,sans-Serif" font-size="10.00">interpreter.expression.syntax.</text>
<text text-anchor="middle" x="466" y="-154" font-family="Helvetica,sans-Serif" font-size="10.00">Constant</text>
</a>
</g>
</g>
<!-- Node1&#45;&gt;Node4 -->
<g id="edge3" class="edge"><title>Node1&#45;&gt;Node4</title>
<path fill="none" stroke="midnightblue" d="M341.125,-130.55C362.319,-135.931 385.433,-141.799 405.894,-146.994"/>
<polygon fill="midnightblue" stroke="midnightblue" points="341.772,-127.103 331.218,-128.035 340.049,-133.888 341.772,-127.103"/>
</g>
<!-- Node5 -->
<g id="node5" class="node"><title>Node5</title>
<g id="a_node5"><a xlink:href="../../da/d39/classinterpreter_1_1expression_1_1syntax_1_1_list_end.html" target="_top" xlink:title="interpreter.expression.syntax.\lListEnd">
<polygon fill="white" stroke="black" points="386.5,-98 386.5,-128 545.5,-128 545.5,-98 386.5,-98"/>
<text text-anchor="start" x="394.5" y="-116" font-family="Helvetica,sans-Serif" font-size="10.00">interpreter.expression.syntax.</text>
<text text-anchor="middle" x="466" y="-105" font-family="Helvetica,sans-Serif" font-size="10.00">ListEnd</text>
</a>
</g>
</g>
<!-- Node1&#45;&gt;Node5 -->
<g id="edge4" class="edge"><title>Node1&#45;&gt;Node5</title>
<path fill="none" stroke="midnightblue" d="M360.347,-113C369.022,-113 377.785,-113 386.353,-113"/>
<polygon fill="midnightblue" stroke="midnightblue" points="360.222,-109.5 350.222,-113 360.222,-116.5 360.222,-109.5"/>
</g>
<!-- Node6 -->
<g id="node6" class="node"><title>Node6</title>
<g id="a_node6"><a xlink:href="../../d2/db8/classinterpreter_1_1expression_1_1syntax_1_1_list_start.html" target="_top" xlink:title="interpreter.expression.syntax.\lListStart">
<polygon fill="white" stroke="black" points="386.5,-49 386.5,-79 545.5,-79 545.5,-49 386.5,-49"/>
<text text-anchor="start" x="394.5" y="-67" font-family="Helvetica,sans-Serif" font-size="10.00">interpreter.expression.syntax.</text>
<text text-anchor="middle" x="466" y="-56" font-family="Helvetica,sans-Serif" font-size="10.00">ListStart</text>
</a>
</g>
</g>
<!-- Node1&#45;&gt;Node6 -->
<g id="edge5" class="edge"><title>Node1&#45;&gt;Node6</title>
<path fill="none" stroke="midnightblue" d="M341.125,-95.4502C362.319,-90.0694 385.433,-84.201 405.894,-79.0062"/>
<polygon fill="midnightblue" stroke="midnightblue" points="340.049,-92.1121 331.218,-97.9654 341.772,-98.8969 340.049,-92.1121"/>
</g>
<!-- Node7 -->
<g id="node7" class="node"><title>Node7</title>
<g id="a_node7"><a xlink:href="../../d4/dd6/classinterpreter_1_1expression_1_1syntax_1_1_variable.html" target="_top" xlink:title="interpreter.expression.syntax.\lVariable">
<polygon fill="white" stroke="black" points="386.5,-0 386.5,-30 545.5,-30 545.5,-0 386.5,-0"/>
<text text-anchor="start" x="394.5" y="-18" font-family="Helvetica,sans-Serif" font-size="10.00">interpreter.expression.syntax.</text>
<text text-anchor="middle" x="466" y="-7" font-family="Helvetica,sans-Serif" font-size="10.00">Variable</text>
</a>
</g>
</g>
<!-- Node1&#45;&gt;Node7 -->
<g id="edge6" class="edge"><title>Node1&#45;&gt;Node7</title>
<path fill="none" stroke="midnightblue" d="M299.908,-91.6882C322.227,-75.453 354.835,-53.495 386,-39 393.148,-35.6752 400.872,-32.6712 408.593,-30.0037"/>
<polygon fill="midnightblue" stroke="midnightblue" points="297.563,-89.0686 291.592,-97.8202 301.717,-94.7028 297.563,-89.0686"/>
</g>
<!-- Node2 -->
<g id="node2" class="node"><title>Node2</title>
<g id="a_node2"><a xlink:href="../../db/d09/interfaceinterpreter_1_1expression_1_1_s_logo_expression.html" target="_top" xlink:title="interpreter.expression.SLogo\lExpression">
<polygon fill="white" stroke="black" points="0.5,-98 0.5,-128 155.5,-128 155.5,-98 0.5,-98"/>
<text text-anchor="start" x="8.5" y="-116" font-family="Helvetica,sans-Serif" font-size="10.00">interpreter.expression.SLogo</text>
<text text-anchor="middle" x="78" y="-105" font-family="Helvetica,sans-Serif" font-size="10.00">Expression</text>
</a>
</g>
</g>
<!-- Node2&#45;&gt;Node1 -->
<g id="edge1" class="edge"><title>Node2&#45;&gt;Node1</title>
<path fill="none" stroke="midnightblue" d="M165.737,-113C174.436,-113 183.234,-113 191.837,-113"/>
<polygon fill="midnightblue" stroke="midnightblue" points="165.587,-109.5 155.586,-113 165.586,-116.5 165.587,-109.5"/>
</g>
</g>
</svg>
