<?xml version="1.0" encoding="UTF-8" standalone="no"?>
<!DOCTYPE svg PUBLIC "-//W3C//DTD SVG 1.1//EN"
 "http://www.w3.org/Graphics/SVG/1.1/DTD/svg11.dtd">
<!-- Generated by graphviz version 2.36.0 (20140111.2315)
 -->
<!-- Title: viewcontroller.turtlegrid.SLogoSlider.getValue Pages: 1 -->
<svg width="568pt" height="48pt"
 viewBox="0.00 0.00 568.00 48.00" xmlns="http://www.w3.org/2000/svg" xmlns:xlink="http://www.w3.org/1999/xlink">
<g id="graph0" class="graph" transform="scale(1 1) rotate(0) translate(4 44)">
<title>viewcontroller.turtlegrid.SLogoSlider.getValue</title>
<polygon fill="white" stroke="none" points="-4,4 -4,-44 564,-44 564,4 -4,4"/>
<!-- Node1 -->
<g id="node1" class="node"><title>Node1</title>
<polygon fill="#bfbfbf" stroke="black" points="0.5,-5 0.5,-35 131.5,-35 131.5,-5 0.5,-5"/>
<text text-anchor="start" x="8.5" y="-23" font-family="Helvetica,sans-Serif" font-size="10.00">viewcontroller.turtlegrid.</text>
<text text-anchor="middle" x="66" y="-12" font-family="Helvetica,sans-Serif" font-size="10.00">SLogoSlider.getValue</text>
</g>
<!-- Node2 -->
<g id="node2" class="node"><title>Node2</title>
<g id="a_node2"><a xlink:href="../../db/d5b/classviewcontroller_1_1turtlegrid_1_1_grid_button_bar.html#a01a5fe39af7ffdb337bf1ceab23d460d" target="_top" xlink:title="viewcontroller.turtlegrid.\lGridButtonBar.getAnimationSpeed">
<polygon fill="white" stroke="black" points="168,-5 168,-35 350,-35 350,-5 168,-5"/>
<text text-anchor="start" x="176" y="-23" font-family="Helvetica,sans-Serif" font-size="10.00">viewcontroller.turtlegrid.</text>
<text text-anchor="middle" x="259" y="-12" font-family="Helvetica,sans-Serif" font-size="10.00">GridButtonBar.getAnimationSpeed</text>
</a>
</g>
</g>
<!-- Node1&#45;&gt;Node2 -->
<g id="edge1" class="edge"><title>Node1&#45;&gt;Node2</title>
<path fill="none" stroke="midnightblue" d="M141.672,-20C150.305,-20 159.178,-20 167.988,-20"/>
<polygon fill="midnightblue" stroke="midnightblue" points="141.664,-16.5001 131.664,-20 141.664,-23.5001 141.664,-16.5001"/>
</g>
<!-- Node3 -->
<g id="node3" class="node"><title>Node3</title>
<g id="a_node3"><a xlink:href="../../d3/daf/classviewcontroller_1_1turtlegrid_1_1_turtle_window_view_controller.html#a732df23c6854ab63ebaac21d105c7072" target="_top" xlink:title="viewcontroller.turtlegrid.\lTurtleWindowViewController.Turtle\lWindowViewController">
<polygon fill="white" stroke="black" points="386.5,0.5 386.5,-40.5 559.5,-40.5 559.5,0.5 386.5,0.5"/>
<text text-anchor="start" x="394.5" y="-28.5" font-family="Helvetica,sans-Serif" font-size="10.00">viewcontroller.turtlegrid.</text>
<text text-anchor="start" x="394.5" y="-17.5" font-family="Helvetica,sans-Serif" font-size="10.00">TurtleWindowViewController.Turtle</text>
<text text-anchor="middle" x="473" y="-6.5" font-family="Helvetica,sans-Serif" font-size="10.00">WindowViewController</text>
</a>
</g>
</g>
<!-- Node2&#45;&gt;Node3 -->
<g id="edge2" class="edge"><title>Node2&#45;&gt;Node3</title>
<path fill="none" stroke="midnightblue" d="M360.345,-20C369.006,-20 377.718,-20 386.248,-20"/>
<polygon fill="midnightblue" stroke="midnightblue" points="360.215,-16.5001 350.214,-20 360.214,-23.5001 360.215,-16.5001"/>
</g>
</g>
</svg>
