<?xml version="1.0" encoding="UTF-8" standalone="no"?>
<!DOCTYPE svg PUBLIC "-//W3C//DTD SVG 1.1//EN"
 "http://www.w3.org/Graphics/SVG/1.1/DTD/svg11.dtd">
<!-- Generated by graphviz version 2.36.0 (20140111.2315)
 -->
<!-- Title: model.MainModel Pages: 1 -->
<svg width="1738pt" height="657pt"
 viewBox="0.00 0.00 1738.00 657.00" xmlns="http://www.w3.org/2000/svg" xmlns:xlink="http://www.w3.org/1999/xlink">
<g id="graph0" class="graph" transform="scale(1 1) rotate(0) translate(4 653)">
<title>model.MainModel</title>
<polygon fill="white" stroke="none" points="-4,4 -4,-653 1734,-653 1734,4 -4,4"/>
<!-- Node1 -->
<g id="node1" class="node"><title>Node1</title>
<polygon fill="#bfbfbf" stroke="black" points="761.5,-376.5 761.5,-395.5 862.5,-395.5 862.5,-376.5 761.5,-376.5"/>
<text text-anchor="middle" x="812" y="-383.5" font-family="Helvetica,sans-Serif" font-size="10.00">model.MainModel</text>
</g>
<!-- Node19 -->
<g id="node19" class="node"><title>Node19</title>
<g id="a_node19"><a xlink:href="../../d2/dc7/classinterpreter_1_1_interpreter.html" target="_top" xlink:title="interpreter.Interpreter">
<polygon fill="white" stroke="black" points="1608.5,-257.5 1608.5,-276.5 1729.5,-276.5 1729.5,-257.5 1608.5,-257.5"/>
<text text-anchor="middle" x="1669" y="-264.5" font-family="Helvetica,sans-Serif" font-size="10.00">interpreter.Interpreter</text>
</a>
</g>
</g>
<!-- Node1&#45;&gt;Node19 -->
<g id="edge22" class="edge"><title>Node1&#45;&gt;Node19</title>
<path fill="none" stroke="#9a32cd" stroke-dasharray="5,2" d="M872.921,-384.256C993.952,-379.888 1275.82,-365.426 1508,-321 1544.84,-313.95 1554.45,-312.983 1590,-301 1610.44,-294.11 1632.93,-284.02 1648.49,-276.622"/>
<polygon fill="#9a32cd" stroke="#9a32cd" points="872.625,-380.764 862.754,-384.613 872.87,-387.76 872.625,-380.764"/>
<text text-anchor="middle" x="1266" y="-364" font-family="Helvetica,sans-Serif" font-size="10.00"> myModel</text>
</g>
<!-- Node25 -->
<g id="node25" class="node"><title>Node25</title>
<g id="a_node25"><a xlink:href="../../d8/daa/classinterpreter_1_1_s_logo_expression_factory.html" target="_top" xlink:title="interpreter.SLogoExpression\lFactory">
<polygon fill="white" stroke="black" points="1032,-166 1032,-196 1184,-196 1184,-166 1032,-166"/>
<text text-anchor="start" x="1040" y="-184" font-family="Helvetica,sans-Serif" font-size="10.00">interpreter.SLogoExpression</text>
<text text-anchor="middle" x="1108" y="-173" font-family="Helvetica,sans-Serif" font-size="10.00">Factory</text>
</a>
</g>
</g>
<!-- Node1&#45;&gt;Node25 -->
<g id="edge29" class="edge"><title>Node1&#45;&gt;Node25</title>
<path fill="none" stroke="#9a32cd" stroke-dasharray="5,2" d="M834.665,-370.512C854.685,-356.579 885.546,-336.046 914,-321 953.26,-300.24 973.276,-312.025 1006,-282 1018.6,-270.44 1013.13,-261.195 1024,-248 1041.08,-227.278 1065.44,-208.536 1083.35,-196.178"/>
<polygon fill="#9a32cd" stroke="#9a32cd" points="832.447,-367.793 826.277,-376.406 836.471,-373.521 832.447,-367.793"/>
<text text-anchor="middle" x="960" y="-324" font-family="Helvetica,sans-Serif" font-size="10.00"> myModel</text>
</g>
<!-- Node2 -->
<g id="node2" class="node"><title>Node2</title>
<g id="a_node2"><a xlink:href="../../da/dee/classmodel_1_1_user_defined_commands_model.html" target="_top" xlink:title="model.UserDefinedCommands\lModel">
<polygon fill="white" stroke="black" points="378,-236 378,-266 542,-266 542,-236 378,-236"/>
<text text-anchor="start" x="386" y="-254" font-family="Helvetica,sans-Serif" font-size="10.00">model.UserDefinedCommands</text>
<text text-anchor="middle" x="460" y="-243" font-family="Helvetica,sans-Serif" font-size="10.00">Model</text>
</a>
</g>
</g>
<!-- Node2&#45;&gt;Node1 -->
<g id="edge1" class="edge"><title>Node2&#45;&gt;Node1</title>
<path fill="none" stroke="#9a32cd" stroke-dasharray="5,2" d="M551.94,-262.713C600.495,-271.274 660.316,-285.603 710,-309 747.502,-326.661 784.393,-359.909 801.345,-376.326"/>
<polygon fill="#9a32cd" stroke="#9a32cd" points="552.519,-259.261 542.072,-261.024 551.339,-266.161 552.519,-259.261"/>
<text text-anchor="middle" x="635" y="-312" font-family="Helvetica,sans-Serif" font-size="10.00"> myUserDefinedMethodsModel</text>
</g>
<!-- Node28 -->
<g id="node28" class="node"><title>Node28</title>
<g id="a_node28"><a xlink:href="../../d5/d09/classinterpreter_1_1_command_reference_library.html" target="_top" xlink:title="interpreter.CommandReference\lLibrary">
<polygon fill="white" stroke="black" points="728.5,-166 728.5,-196 895.5,-196 895.5,-166 728.5,-166"/>
<text text-anchor="start" x="736.5" y="-184" font-family="Helvetica,sans-Serif" font-size="10.00">interpreter.CommandReference</text>
<text text-anchor="middle" x="812" y="-173" font-family="Helvetica,sans-Serif" font-size="10.00">Library</text>
</a>
</g>
</g>
<!-- Node2&#45;&gt;Node28 -->
<g id="edge33" class="edge"><title>Node2&#45;&gt;Node28</title>
<path fill="none" stroke="#9a32cd" stroke-dasharray="5,2" d="M552.101,-249.43C599.805,-246.81 658.792,-240.717 710,-227 736.428,-219.92 764.613,-206.542 784.475,-196.03"/>
<polygon fill="#9a32cd" stroke="#9a32cd" points="551.909,-245.935 542.099,-249.938 552.264,-252.926 551.909,-245.935"/>
<text text-anchor="middle" x="635" y="-252" font-family="Helvetica,sans-Serif" font-size="10.00"> myDefinedCommands</text>
</g>
<!-- Node3 -->
<g id="node3" class="node"><title>Node3</title>
<polygon fill="white" stroke="#bfbfbf" points="60.5,-208.5 60.5,-227.5 131.5,-227.5 131.5,-208.5 60.5,-208.5"/>
<text text-anchor="middle" x="96" y="-215.5" font-family="Helvetica,sans-Serif" font-size="10.00">Serializable</text>
</g>
<!-- Node3&#45;&gt;Node2 -->
<g id="edge2" class="edge"><title>Node3&#45;&gt;Node2</title>
<path fill="none" stroke="midnightblue" d="M141.885,-218.883C194.356,-220.303 283.737,-223.927 360,-233 367.026,-233.836 374.306,-234.858 381.585,-235.986"/>
<polygon fill="midnightblue" stroke="midnightblue" points="141.668,-215.376 131.582,-218.62 141.489,-222.374 141.668,-215.376"/>
</g>
<!-- Node9 -->
<g id="node9" class="node"><title>Node9</title>
<g id="a_node9"><a xlink:href="../../db/d84/classmodel_1_1_command_history_model.html" target="_top" xlink:title="model.CommandHistoryModel">
<polygon fill="white" stroke="black" points="379,-287.5 379,-306.5 541,-306.5 541,-287.5 379,-287.5"/>
<text text-anchor="middle" x="460" y="-294.5" font-family="Helvetica,sans-Serif" font-size="10.00">model.CommandHistoryModel</text>
</a>
</g>
</g>
<!-- Node3&#45;&gt;Node9 -->
<g id="edge9" class="edge"><title>Node3&#45;&gt;Node9</title>
<path fill="none" stroke="midnightblue" d="M142.035,-223.362C212,-231.915 340.802,-248.634 360,-258 369.89,-262.825 368.402,-269.618 378,-275 387.406,-280.274 398.142,-284.337 408.653,-287.449"/>
<polygon fill="midnightblue" stroke="midnightblue" points="142.097,-219.844 131.748,-222.112 141.252,-226.793 142.097,-219.844"/>
</g>
<!-- Node12 -->
<g id="node12" class="node"><title>Node12</title>
<g id="a_node12"><a xlink:href="../../df/d55/classmodel_1_1_user_defined_variables_model.html" target="_top" xlink:title="model.UserDefinedVariables\lModel">
<polygon fill="white" stroke="black" points="384,-166 384,-196 536,-196 536,-166 384,-166"/>
<text text-anchor="start" x="392" y="-184" font-family="Helvetica,sans-Serif" font-size="10.00">model.UserDefinedVariables</text>
<text text-anchor="middle" x="460" y="-173" font-family="Helvetica,sans-Serif" font-size="10.00">Model</text>
</a>
</g>
</g>
<!-- Node3&#45;&gt;Node12 -->
<g id="edge13" class="edge"><title>Node3&#45;&gt;Node12</title>
<path fill="none" stroke="midnightblue" d="M141.706,-213.431C202.187,-207.249 310.9,-196.137 383.999,-188.666"/>
<polygon fill="midnightblue" stroke="midnightblue" points="141.302,-209.954 131.71,-214.452 142.014,-216.917 141.302,-209.954"/>
</g>
<!-- Node4 -->
<g id="node4" class="node"><title>Node4</title>
<polygon fill="white" stroke="#bfbfbf" points="42.5,-296 42.5,-326 149.5,-326 149.5,-296 42.5,-296"/>
<text text-anchor="start" x="50.5" y="-314" font-family="Helvetica,sans-Serif" font-size="10.00">Map&lt; String, List&lt;</text>
<text text-anchor="middle" x="96" y="-303" font-family="Helvetica,sans-Serif" font-size="10.00"> String &gt; &gt;</text>
</g>
<!-- Node4&#45;&gt;Node2 -->
<g id="edge3" class="edge"><title>Node4&#45;&gt;Node2</title>
<path fill="none" stroke="#9a32cd" stroke-dasharray="5,2" d="M159.624,-303.773C213.069,-297.227 291.862,-286.682 360,-274 372.403,-271.691 385.601,-268.878 398.182,-266.022"/>
<polygon fill="#9a32cd" stroke="#9a32cd" points="159.122,-300.308 149.617,-304.988 159.966,-307.257 159.122,-300.308"/>
<text text-anchor="middle" x="285" y="-301" font-family="Helvetica,sans-Serif" font-size="10.00"> myDefinedCommandVariables</text>
</g>
<!-- Node5 -->
<g id="node5" class="node"><title>Node5</title>
<polygon fill="white" stroke="#bfbfbf" points="54,-90.5 54,-109.5 138,-109.5 138,-90.5 54,-90.5"/>
<text text-anchor="middle" x="96" y="-97.5" font-family="Helvetica,sans-Serif" font-size="10.00">Set&lt; String &gt;</text>
</g>
<!-- Node5&#45;&gt;Node2 -->
<g id="edge4" class="edge"><title>Node5&#45;&gt;Node2</title>
<path fill="none" stroke="#9a32cd" stroke-dasharray="5,2" d="M148.447,-107.141C220.443,-117.559 344.257,-137.184 360,-151 379.014,-167.687 361.935,-185.457 378,-205 388.988,-218.367 404.942,-228.596 419.79,-235.976"/>
<polygon fill="#9a32cd" stroke="#9a32cd" points="148.616,-103.63 138.22,-105.673 147.621,-110.559 148.616,-103.63"/>
<text text-anchor="middle" x="285" y="-154" font-family="Helvetica,sans-Serif" font-size="10.00"> myCommands</text>
</g>
<!-- Node5&#45;&gt;Node12 -->
<g id="edge14" class="edge"><title>Node5&#45;&gt;Node12</title>
<path fill="none" stroke="#9a32cd" stroke-dasharray="5,2" d="M148.273,-93.8501C214.763,-86.9387 326.226,-79.2995 360,-101 376.061,-111.319 364.747,-126.259 378,-140 388.613,-151.004 402.813,-159.556 416.357,-165.933"/>
<polygon fill="#9a32cd" stroke="#9a32cd" points="147.578,-90.4045 138.007,-94.9485 148.322,-97.3648 147.578,-90.4045"/>
<text text-anchor="middle" x="285" y="-104" font-family="Helvetica,sans-Serif" font-size="10.00"> myVariables</text>
</g>
<!-- Node5&#45;&gt;Node28 -->
<g id="edge36" class="edge"><title>Node5&#45;&gt;Node28</title>
<path fill="none" stroke="#9a32cd" stroke-dasharray="5,2" d="M148.251,-90.6356C167.538,-87.5482 189.709,-84.5178 210,-83 276.481,-78.0272 293.852,-74.699 360,-83 451.019,-94.4222 470.426,-114.214 560,-134 615.953,-146.359 679.388,-158.219 728.487,-166.933"/>
<polygon fill="#9a32cd" stroke="#9a32cd" points="147.458,-87.219 138.159,-92.2973 148.595,-94.126 147.458,-87.219"/>
<text text-anchor="middle" x="460" y="-144" font-family="Helvetica,sans-Serif" font-size="10.00"> myCommandSet</text>
<text text-anchor="middle" x="460" y="-133" font-family="Helvetica,sans-Serif" font-size="10.00">myDirectorySet</text>
</g>
<!-- Node6 -->
<g id="node6" class="node"><title>Node6</title>
<polygon fill="white" stroke="#bfbfbf" points="0.5,-247 0.5,-277 191.5,-277 191.5,-247 0.5,-247"/>
<text text-anchor="start" x="8.5" y="-265" font-family="Helvetica,sans-Serif" font-size="10.00">Map&lt; String, interpreter.expression.</text>
<text text-anchor="middle" x="96" y="-254" font-family="Helvetica,sans-Serif" font-size="10.00">SLogoExpression &gt;</text>
</g>
<!-- Node6&#45;&gt;Node2 -->
<g id="edge5" class="edge"><title>Node6&#45;&gt;Node2</title>
<path fill="none" stroke="#9a32cd" stroke-dasharray="5,2" d="M201.953,-258.811C257.97,-257.109 325.865,-255.046 377.806,-253.467"/>
<polygon fill="#9a32cd" stroke="#9a32cd" points="201.527,-255.322 191.638,-259.124 201.74,-262.319 201.527,-255.322"/>
<text text-anchor="middle" x="285" y="-262" font-family="Helvetica,sans-Serif" font-size="10.00"> myDefinedCommands</text>
</g>
<!-- Node7 -->
<g id="node7" class="node"><title>Node7</title>
<g id="a_node7"><a xlink:href="../../d4/d57/classturtle_1_1_turtle_list_history.html" target="_top" xlink:title="turtle.TurtleListHistory">
<polygon fill="white" stroke="black" points="399.5,-455.5 399.5,-474.5 520.5,-474.5 520.5,-455.5 399.5,-455.5"/>
<text text-anchor="middle" x="460" y="-462.5" font-family="Helvetica,sans-Serif" font-size="10.00">turtle.TurtleListHistory</text>
</a>
</g>
</g>
<!-- Node7&#45;&gt;Node1 -->
<g id="edge6" class="edge"><title>Node7&#45;&gt;Node1</title>
<path fill="none" stroke="#9a32cd" stroke-dasharray="5,2" d="M530.698,-454.673C580.922,-446.615 650.116,-434.242 710,-419 735.922,-412.402 764.881,-402.691 785.121,-395.511"/>
<polygon fill="#9a32cd" stroke="#9a32cd" points="529.924,-451.252 520.597,-456.277 531.022,-458.166 529.924,-451.252"/>
<text text-anchor="middle" x="635" y="-452" font-family="Helvetica,sans-Serif" font-size="10.00"> myTurtleListHistory</text>
</g>
<!-- Node8 -->
<g id="node8" class="node"><title>Node8</title>
<polygon fill="white" stroke="#bfbfbf" points="21.5,-472.5 21.5,-491.5 170.5,-491.5 170.5,-472.5 21.5,-472.5"/>
<text text-anchor="middle" x="96" y="-479.5" font-family="Helvetica,sans-Serif" font-size="10.00">List&lt; Set&lt; turtle.Turtle &gt; &gt;</text>
</g>
<!-- Node8&#45;&gt;Node7 -->
<g id="edge7" class="edge"><title>Node8&#45;&gt;Node7</title>
<path fill="none" stroke="#9a32cd" stroke-dasharray="5,2" d="M180.795,-478.065C247.737,-474.921 339.9,-470.593 399.468,-467.796"/>
<polygon fill="#9a32cd" stroke="#9a32cd" points="180.517,-474.574 170.692,-478.539 180.846,-481.566 180.517,-474.574"/>
<text text-anchor="middle" x="285" y="-479" font-family="Helvetica,sans-Serif" font-size="10.00"> myMovedTurtlesHistory</text>
</g>
<!-- Node9&#45;&gt;Node1 -->
<g id="edge8" class="edge"><title>Node9&#45;&gt;Node1</title>
<path fill="none" stroke="#9a32cd" stroke-dasharray="5,2" d="M508.385,-309.049C578.748,-326.942 709.429,-360.172 773.549,-376.477"/>
<polygon fill="#9a32cd" stroke="#9a32cd" points="509.01,-305.597 498.456,-306.525 507.285,-312.381 509.01,-305.597"/>
<text text-anchor="middle" x="635" y="-362" font-family="Helvetica,sans-Serif" font-size="10.00"> myCommandHistoryModel</text>
</g>
<!-- Node10 -->
<g id="node10" class="node"><title>Node10</title>
<polygon fill="white" stroke="#bfbfbf" points="54,-345.5 54,-364.5 138,-364.5 138,-345.5 54,-345.5"/>
<text text-anchor="middle" x="96" y="-352.5" font-family="Helvetica,sans-Serif" font-size="10.00">List&lt; String &gt;</text>
</g>
<!-- Node10&#45;&gt;Node9 -->
<g id="edge10" class="edge"><title>Node10&#45;&gt;Node9</title>
<path fill="none" stroke="#9a32cd" stroke-dasharray="5,2" d="M148.476,-350.819C201.729,-346.008 287.151,-336.931 360,-323 382.69,-318.661 407.865,-312.024 427.15,-306.542"/>
<polygon fill="#9a32cd" stroke="#9a32cd" points="147.919,-347.355 138.267,-351.725 148.537,-354.327 147.919,-347.355"/>
<text text-anchor="middle" x="285" y="-347" font-family="Helvetica,sans-Serif" font-size="10.00"> commandHistory</text>
</g>
<!-- Node11 -->
<g id="node11" class="node"><title>Node11</title>
<polygon fill="white" stroke="#bfbfbf" points="412.5,-619.5 412.5,-638.5 507.5,-638.5 507.5,-619.5 412.5,-619.5"/>
<text text-anchor="middle" x="460" y="-626.5" font-family="Helvetica,sans-Serif" font-size="10.00">ParallelTransition</text>
</g>
<!-- Node11&#45;&gt;Node1 -->
<g id="edge11" class="edge"><title>Node11&#45;&gt;Node1</title>
<path fill="none" stroke="#9a32cd" stroke-dasharray="5,2" d="M517.671,-637.114C572.082,-641.766 654.045,-640.191 710,-600 782.407,-547.992 804.632,-430.39 809.723,-395.766"/>
<polygon fill="#9a32cd" stroke="#9a32cd" points="517.795,-633.61 507.508,-636.146 517.131,-640.579 517.795,-633.61"/>
<text text-anchor="middle" x="635" y="-641" font-family="Helvetica,sans-Serif" font-size="10.00"> myAnimation</text>
</g>
<!-- Node12&#45;&gt;Node1 -->
<g id="edge12" class="edge"><title>Node12&#45;&gt;Node1</title>
<path fill="none" stroke="#9a32cd" stroke-dasharray="5,2" d="M546.014,-191.701C617.529,-200.789 708.436,-212.582 710,-214 736.037,-237.606 711.962,-259.728 728,-291 746.489,-327.053 781.601,-360.61 799.655,-376.451"/>
<polygon fill="#9a32cd" stroke="#9a32cd" points="546.424,-188.225 536.063,-190.438 545.543,-195.169 546.424,-188.225"/>
<text text-anchor="middle" x="635" y="-217" font-family="Helvetica,sans-Serif" font-size="10.00"> myUserDefinedVariablesModel</text>
</g>
<!-- Node12&#45;&gt;Node28 -->
<g id="edge37" class="edge"><title>Node12&#45;&gt;Node28</title>
<path fill="none" stroke="#9a32cd" stroke-dasharray="5,2" d="M546.23,-181C601.639,-181 673.513,-181 728.392,-181"/>
<polygon fill="#9a32cd" stroke="#9a32cd" points="546.084,-177.5 536.084,-181 546.084,-184.5 546.084,-177.5"/>
<text text-anchor="middle" x="635" y="-184" font-family="Helvetica,sans-Serif" font-size="10.00"> myDefinedVariables</text>
</g>
<!-- Node13 -->
<g id="node13" class="node"><title>Node13</title>
<polygon fill="white" stroke="#bfbfbf" points="32,-158.5 32,-177.5 160,-177.5 160,-158.5 32,-158.5"/>
<text text-anchor="middle" x="96" y="-165.5" font-family="Helvetica,sans-Serif" font-size="10.00">Map&lt; String, Double &gt;</text>
</g>
<!-- Node13&#45;&gt;Node12 -->
<g id="edge15" class="edge"><title>Node13&#45;&gt;Node12</title>
<path fill="none" stroke="#9a32cd" stroke-dasharray="5,2" d="M170.322,-165.989C223.119,-165.1 296.022,-165.015 360,-169 367.776,-169.484 375.877,-170.169 383.949,-170.969"/>
<polygon fill="#9a32cd" stroke="#9a32cd" points="169.973,-162.495 160.039,-166.177 170.101,-169.494 169.973,-162.495"/>
<text text-anchor="middle" x="285" y="-172" font-family="Helvetica,sans-Serif" font-size="10.00"> myDefinedVariables</text>
</g>
<!-- Node14 -->
<g id="node14" class="node"><title>Node14</title>
<polygon fill="white" stroke="#bfbfbf" points="393,-570 393,-600 527,-600 527,-570 393,-570"/>
<text text-anchor="start" x="401" y="-588" font-family="Helvetica,sans-Serif" font-size="10.00">List&lt; viewcontroller.Main</text>
<text text-anchor="middle" x="460" y="-577" font-family="Helvetica,sans-Serif" font-size="10.00">ModelObserver &gt;</text>
</g>
<!-- Node14&#45;&gt;Node1 -->
<g id="edge16" class="edge"><title>Node14&#45;&gt;Node1</title>
<path fill="none" stroke="#9a32cd" stroke-dasharray="5,2" d="M537.396,-585.87C599.877,-585.21 682.272,-580.78 710,-563 773.437,-522.321 801.231,-426.802 808.778,-395.861"/>
<polygon fill="#9a32cd" stroke="#9a32cd" points="537.132,-582.372 527.159,-585.947 537.185,-589.371 537.132,-582.372"/>
<text text-anchor="middle" x="635" y="-588" font-family="Helvetica,sans-Serif" font-size="10.00"> myObservers</text>
</g>
<!-- Node15 -->
<g id="node15" class="node"><title>Node15</title>
<polygon fill="white" stroke="#bfbfbf" points="405,-531.5 405,-550.5 515,-550.5 515,-531.5 405,-531.5"/>
<text text-anchor="middle" x="460" y="-538.5" font-family="Helvetica,sans-Serif" font-size="10.00">List&lt; turtle.Turtle &gt;</text>
</g>
<!-- Node15&#45;&gt;Node1 -->
<g id="edge17" class="edge"><title>Node15&#45;&gt;Node1</title>
<path fill="none" stroke="#9a32cd" stroke-dasharray="5,2" d="M525.406,-549.066C578.272,-552.593 653.377,-550.281 710,-519 762.533,-489.978 796.147,-420.932 807.09,-395.563"/>
<polygon fill="#9a32cd" stroke="#9a32cd" points="525.377,-545.554 515.142,-548.289 524.849,-552.534 525.377,-545.554"/>
<text text-anchor="middle" x="635" y="-553" font-family="Helvetica,sans-Serif" font-size="10.00"> myTurtles</text>
</g>
<!-- Node16 -->
<g id="node16" class="node"><title>Node16</title>
<g id="a_node16"><a xlink:href="../../df/df6/classinterpreter_1_1result_1_1_s_logo_result.html" target="_top" xlink:title="interpreter.result.SLogo\lResult">
<polygon fill="white" stroke="black" points="395,-406 395,-436 525,-436 525,-406 395,-406"/>
<text text-anchor="start" x="403" y="-424" font-family="Helvetica,sans-Serif" font-size="10.00">interpreter.result.SLogo</text>
<text text-anchor="middle" x="460" y="-413" font-family="Helvetica,sans-Serif" font-size="10.00">Result</text>
</a>
</g>
</g>
<!-- Node16&#45;&gt;Node1 -->
<g id="edge18" class="edge"><title>Node16&#45;&gt;Node1</title>
<path fill="none" stroke="#9a32cd" stroke-dasharray="5,2" d="M535.253,-410.897C543.595,-409.867 551.976,-408.878 560,-408 629.792,-400.363 710.732,-393.654 761.408,-389.712"/>
<polygon fill="#9a32cd" stroke="#9a32cd" points="534.609,-407.45 525.123,-412.169 535.481,-414.396 534.609,-407.45"/>
<text text-anchor="middle" x="635" y="-411" font-family="Helvetica,sans-Serif" font-size="10.00"> mySLogoResult</text>
</g>
<!-- Node17 -->
<g id="node17" class="node"><title>Node17</title>
<polygon fill="white" stroke="#bfbfbf" points="49.5,-384.5 49.5,-403.5 142.5,-403.5 142.5,-384.5 49.5,-384.5"/>
<text text-anchor="middle" x="96" y="-391.5" font-family="Helvetica,sans-Serif" font-size="10.00">ResourceBundle</text>
</g>
<!-- Node17&#45;&gt;Node16 -->
<g id="edge19" class="edge"><title>Node17&#45;&gt;Node16</title>
<path fill="none" stroke="#9a32cd" stroke-dasharray="5,2" d="M152.902,-397.027C206.172,-400.05 288.609,-405.089 360,-411 371.277,-411.934 383.264,-413.044 394.859,-414.18"/>
<polygon fill="#9a32cd" stroke="#9a32cd" points="152.829,-393.517 142.648,-396.449 152.436,-400.506 152.829,-393.517"/>
<text text-anchor="middle" x="285" y="-414" font-family="Helvetica,sans-Serif" font-size="10.00"> myProperties</text>
</g>
<!-- Node17&#45;&gt;Node28 -->
<g id="edge34" class="edge"><title>Node17&#45;&gt;Node28</title>
<path fill="none" stroke="#9a32cd" stroke-dasharray="5,2" d="M152.73,-387.455C206.106,-380.881 288.818,-369.895 360,-357 368.064,-355.539 369.891,-354.188 378,-353 414.595,-347.641 682.181,-353.373 710,-329 739.699,-302.98 706.675,-275.232 728,-242 740.748,-222.133 762.417,-206.536 780.418,-196.087"/>
<polygon fill="#9a32cd" stroke="#9a32cd" points="152.288,-383.983 142.787,-388.671 153.137,-390.931 152.288,-383.983"/>
<text text-anchor="middle" x="460" y="-389" font-family="Helvetica,sans-Serif" font-size="10.00"> myCommandReference</text>
<text text-anchor="middle" x="460" y="-378" font-family="Helvetica,sans-Serif" font-size="10.00">myDirectoryListing</text>
<text text-anchor="middle" x="460" y="-367" font-family="Helvetica,sans-Serif" font-size="10.00">myNumberArguments</text>
<text text-anchor="middle" x="460" y="-356" font-family="Helvetica,sans-Serif" font-size="10.00">mySyntaxReference</text>
</g>
<!-- Node18 -->
<g id="node18" class="node"><title>Node18</title>
<polygon fill="white" stroke="#bfbfbf" points="15,-423 15,-453 177,-453 177,-423 15,-423"/>
<text text-anchor="start" x="23" y="-441" font-family="Helvetica,sans-Serif" font-size="10.00">List&lt; transitionstate.Transition</text>
<text text-anchor="middle" x="96" y="-430" font-family="Helvetica,sans-Serif" font-size="10.00">State &gt;</text>
</g>
<!-- Node18&#45;&gt;Node16 -->
<g id="edge20" class="edge"><title>Node18&#45;&gt;Node16</title>
<path fill="none" stroke="#9a32cd" stroke-dasharray="5,2" d="M187.512,-433.749C252.043,-430.719 337.235,-426.718 394.845,-424.013"/>
<polygon fill="#9a32cd" stroke="#9a32cd" points="187.164,-430.262 177.34,-434.227 187.493,-437.254 187.164,-430.262"/>
<text text-anchor="middle" x="285" y="-435" font-family="Helvetica,sans-Serif" font-size="10.00"> myTransitionStates</text>
</g>
<!-- Node19&#45;&gt;Node1 -->
<g id="edge21" class="edge"><title>Node19&#45;&gt;Node1</title>
<path fill="none" stroke="#9a32cd" stroke-dasharray="5,2" d="M1610.87,-278.398C1603.85,-279.677 1596.77,-280.91 1590,-282 1290.88,-330.186 1213.87,-326.738 914,-370 897.219,-372.421 878.903,-375.262 862.532,-377.873"/>
<polygon fill="#9a32cd" stroke="#9a32cd" points="1611.87,-281.773 1621.06,-276.504 1610.59,-274.89 1611.87,-281.773"/>
<text text-anchor="middle" x="1266" y="-335" font-family="Helvetica,sans-Serif" font-size="10.00"> myInterpreter</text>
</g>
<!-- Node20 -->
<g id="node20" class="node"><title>Node20</title>
<g id="a_node20"><a xlink:href="../../da/de4/classinterpreter_1_1_expression_evaluator.html" target="_top" xlink:title="interpreter.ExpressionEvaluator">
<polygon fill="white" stroke="black" points="1340.5,-257.5 1340.5,-276.5 1507.5,-276.5 1507.5,-257.5 1340.5,-257.5"/>
<text text-anchor="middle" x="1424" y="-264.5" font-family="Helvetica,sans-Serif" font-size="10.00">interpreter.ExpressionEvaluator</text>
</a>
</g>
</g>
<!-- Node20&#45;&gt;Node19 -->
<g id="edge23" class="edge"><title>Node20&#45;&gt;Node19</title>
<path fill="none" stroke="#9a32cd" stroke-dasharray="5,2" d="M1517.79,-267C1548.14,-267 1581.01,-267 1608.25,-267"/>
<polygon fill="#9a32cd" stroke="#9a32cd" points="1517.61,-263.5 1507.61,-267 1517.61,-270.5 1517.61,-263.5"/>
<text text-anchor="middle" x="1558" y="-270" font-family="Helvetica,sans-Serif" font-size="10.00"> myEvaluator</text>
</g>
<!-- Node21 -->
<g id="node21" class="node"><title>Node21</title>
<g id="a_node21"><a xlink:href="../../d6/d76/classinterpreter_1_1_s_logo_result_merger.html" target="_top" xlink:title="interpreter.SLogoResultMerger">
<polygon fill="white" stroke="black" points="1027,-257.5 1027,-276.5 1189,-276.5 1189,-257.5 1027,-257.5"/>
<text text-anchor="middle" x="1108" y="-264.5" font-family="Helvetica,sans-Serif" font-size="10.00">interpreter.SLogoResultMerger</text>
</a>
</g>
</g>
<!-- Node21&#45;&gt;Node20 -->
<g id="edge24" class="edge"><title>Node21&#45;&gt;Node20</title>
<path fill="none" stroke="#9a32cd" stroke-dasharray="5,2" d="M1199.27,-267C1243.74,-267 1296.97,-267 1340.36,-267"/>
<polygon fill="#9a32cd" stroke="#9a32cd" points="1199.05,-263.5 1189.05,-267 1199.05,-270.5 1199.05,-263.5"/>
<text text-anchor="middle" x="1266" y="-270" font-family="Helvetica,sans-Serif" font-size="10.00"> myResultMerger</text>
</g>
<!-- Node22 -->
<g id="node22" class="node"><title>Node22</title>
<polygon fill="white" stroke="#bfbfbf" points="740.5,-252 740.5,-282 883.5,-282 883.5,-252 740.5,-252"/>
<text text-anchor="start" x="748.5" y="-270" font-family="Helvetica,sans-Serif" font-size="10.00">Deque&lt; interpreter.result.</text>
<text text-anchor="middle" x="812" y="-259" font-family="Helvetica,sans-Serif" font-size="10.00">SLogoResult &gt;</text>
</g>
<!-- Node22&#45;&gt;Node21 -->
<g id="edge25" class="edge"><title>Node22&#45;&gt;Node21</title>
<path fill="none" stroke="#9a32cd" stroke-dasharray="5,2" d="M893.857,-267C935.311,-267 985.63,-267 1026.97,-267"/>
<polygon fill="#9a32cd" stroke="#9a32cd" points="893.794,-263.5 883.794,-267 893.794,-270.5 893.794,-263.5"/>
<text text-anchor="middle" x="960" y="-270" font-family="Helvetica,sans-Serif" font-size="10.00"> myResultsToMerge</text>
</g>
<!-- Node23 -->
<g id="node23" class="node"><title>Node23</title>
<g id="a_node23"><a xlink:href="../../d3/da2/classinterpreter_1_1_parser.html" target="_top" xlink:title="interpreter.Parser">
<polygon fill="white" stroke="black" points="1374,-171.5 1374,-190.5 1474,-190.5 1474,-171.5 1374,-171.5"/>
<text text-anchor="middle" x="1424" y="-178.5" font-family="Helvetica,sans-Serif" font-size="10.00">interpreter.Parser</text>
</a>
</g>
</g>
<!-- Node23&#45;&gt;Node19 -->
<g id="edge26" class="edge"><title>Node23&#45;&gt;Node19</title>
<path fill="none" stroke="#9a32cd" stroke-dasharray="5,2" d="M1484.39,-181.08C1516.77,-183.026 1556.87,-188.609 1590,-203 1619.24,-215.703 1646.33,-242.692 1659.55,-257.233"/>
<polygon fill="#9a32cd" stroke="#9a32cd" points="1484.33,-177.573 1474.17,-180.57 1483.98,-184.564 1484.33,-177.573"/>
<text text-anchor="middle" x="1558" y="-206" font-family="Helvetica,sans-Serif" font-size="10.00"> myParser</text>
</g>
<!-- Node24 -->
<g id="node24" class="node"><title>Node24</title>
<polygon fill="white" stroke="#bfbfbf" points="1024.5,-117 1024.5,-147 1191.5,-147 1191.5,-117 1024.5,-117"/>
<text text-anchor="start" x="1032.5" y="-135" font-family="Helvetica,sans-Serif" font-size="10.00">Deque&lt; interpreter.expression.</text>
<text text-anchor="middle" x="1108" y="-124" font-family="Helvetica,sans-Serif" font-size="10.00">SLogoExpression &gt;</text>
</g>
<!-- Node24&#45;&gt;Node23 -->
<g id="edge27" class="edge"><title>Node24&#45;&gt;Node23</title>
<path fill="none" stroke="#9a32cd" stroke-dasharray="5,2" d="M1201.98,-139.102C1239.44,-142.726 1282.95,-147.903 1322,-155 1345.34,-159.241 1371.24,-165.95 1390.97,-171.49"/>
<polygon fill="#9a32cd" stroke="#9a32cd" points="1201.87,-135.576 1191.58,-138.121 1201.21,-142.545 1201.87,-135.576"/>
<text text-anchor="middle" x="1266" y="-169" font-family="Helvetica,sans-Serif" font-size="10.00"> myLoadedExpressions</text>
<text text-anchor="middle" x="1266" y="-158" font-family="Helvetica,sans-Serif" font-size="10.00">myParameterStack</text>
</g>
<!-- Node25&#45;&gt;Node23 -->
<g id="edge28" class="edge"><title>Node25&#45;&gt;Node23</title>
<path fill="none" stroke="#9a32cd" stroke-dasharray="5,2" d="M1194.39,-181C1251.97,-181 1325.88,-181 1373.84,-181"/>
<polygon fill="#9a32cd" stroke="#9a32cd" points="1194.21,-177.5 1184.21,-181 1194.21,-184.5 1194.21,-177.5"/>
<text text-anchor="middle" x="1266" y="-184" font-family="Helvetica,sans-Serif" font-size="10.00"> myFactory</text>
</g>
<!-- Node26 -->
<g id="node26" class="node"><title>Node26</title>
<polygon fill="white" stroke="#bfbfbf" points="396,-0.5 396,-19.5 524,-19.5 524,-0.5 396,-0.5"/>
<text text-anchor="middle" x="460" y="-7.5" font-family="Helvetica,sans-Serif" font-size="10.00">Map&lt; String, Integer &gt;</text>
</g>
<!-- Node26&#45;&gt;Node25 -->
<g id="edge30" class="edge"><title>Node26&#45;&gt;Node25</title>
<path fill="none" stroke="#9a32cd" stroke-dasharray="5,2" d="M534.241,-7.77544C584.008,-7.23979 651.22,-8.42345 710,-16 794.251,-26.8597 816.993,-28.7904 896,-60 948.399,-80.6988 966.578,-82.7503 1006,-123 1017.69,-134.935 1011.03,-145.469 1024,-156 1028.79,-159.889 1034.17,-163.174 1039.84,-165.948"/>
<polygon fill="#9a32cd" stroke="#9a32cd" points="534.164,-4.27605 524.212,-7.9091 534.257,-11.2754 534.164,-4.27605"/>
<text text-anchor="middle" x="812" y="-63" font-family="Helvetica,sans-Serif" font-size="10.00"> myCommandToNumArgsMap</text>
</g>
<!-- Node26&#45;&gt;Node28 -->
<g id="edge35" class="edge"><title>Node26&#45;&gt;Node28</title>
<path fill="none" stroke="#9a32cd" stroke-dasharray="5,2" d="M534.079,-16.2033C597.367,-22.8665 682.892,-35.3775 710,-56 724.554,-67.0722 717.607,-77.9533 728,-93 747.455,-121.166 775.784,-149.141 793.8,-165.749"/>
<polygon fill="#9a32cd" stroke="#9a32cd" points="534.429,-12.7209 524.125,-15.1837 533.716,-19.6845 534.429,-12.7209"/>
<text text-anchor="middle" x="635" y="-59" font-family="Helvetica,sans-Serif" font-size="10.00"> myCommandToNumArgsMap</text>
</g>
<!-- Node27 -->
<g id="node27" class="node"><title>Node27</title>
<polygon fill="white" stroke="#bfbfbf" points="399,-52.5 399,-71.5 521,-71.5 521,-52.5 399,-52.5"/>
<text text-anchor="middle" x="460" y="-59.5" font-family="Helvetica,sans-Serif" font-size="10.00">Map&lt; String, String &gt;</text>
</g>
<!-- Node27&#45;&gt;Node25 -->
<g id="edge31" class="edge"><title>Node27&#45;&gt;Node25</title>
<path fill="none" stroke="#9a32cd" stroke-dasharray="5,2" d="M531.323,-59.7763C581.425,-59.281 650.208,-60.8179 710,-70 744.485,-75.2957 956.78,-136.928 1055.99,-165.998"/>
<polygon fill="#9a32cd" stroke="#9a32cd" points="531.198,-56.2776 521.243,-59.9058 531.288,-63.277 531.198,-56.2776"/>
<text text-anchor="middle" x="812" y="-145" font-family="Helvetica,sans-Serif" font-size="10.00"> myReverseSyntaxMap</text>
<text text-anchor="middle" x="812" y="-134" font-family="Helvetica,sans-Serif" font-size="10.00">myCommandToDirectoryMap</text>
<text text-anchor="middle" x="812" y="-123" font-family="Helvetica,sans-Serif" font-size="10.00">myReferenceToCommandMap</text>
</g>
<!-- Node27&#45;&gt;Node28 -->
<g id="edge38" class="edge"><title>Node27&#45;&gt;Node28</title>
<path fill="none" stroke="#9a32cd" stroke-dasharray="5,2" d="M531.241,-67.6884C599.122,-73.5418 693.986,-82.7971 710,-90 748.53,-107.33 782.558,-144.916 799.542,-165.958"/>
<polygon fill="#9a32cd" stroke="#9a32cd" points="531.276,-64.1787 521.014,-66.8146 530.68,-71.1533 531.276,-64.1787"/>
<text text-anchor="middle" x="635" y="-126" font-family="Helvetica,sans-Serif" font-size="10.00"> myReverseSyntaxMap</text>
<text text-anchor="middle" x="635" y="-115" font-family="Helvetica,sans-Serif" font-size="10.00">myCommandToDirectoryMap</text>
<text text-anchor="middle" x="635" y="-104" font-family="Helvetica,sans-Serif" font-size="10.00">mySyntaxMap</text>
<text text-anchor="middle" x="635" y="-93" font-family="Helvetica,sans-Serif" font-size="10.00">myReferenceToCommandMap</text>
</g>
<!-- Node28&#45;&gt;Node19 -->
<g id="edge39" class="edge"><title>Node28&#45;&gt;Node19</title>
<path fill="none" stroke="#9a32cd" stroke-dasharray="5,2" d="M905.76,-194.996C908.536,-195.345 911.288,-195.68 914,-196 1177.19,-227.035 1244.39,-220.816 1508,-248 1541.25,-251.429 1578.32,-255.797 1608.4,-259.48"/>
<polygon fill="#9a32cd" stroke="#9a32cd" points="905.991,-191.497 895.625,-193.684 905.092,-198.439 905.991,-191.497"/>
<text text-anchor="middle" x="1266" y="-235" font-family="Helvetica,sans-Serif" font-size="10.00"> myLibrary</text>
</g>
<!-- Node28&#45;&gt;Node25 -->
<g id="edge32" class="edge"><title>Node28&#45;&gt;Node25</title>
<path fill="none" stroke="#9a32cd" stroke-dasharray="5,2" d="M905.866,-181C946.518,-181 993.591,-181 1031.97,-181"/>
<polygon fill="#9a32cd" stroke="#9a32cd" points="905.678,-177.5 895.678,-181 905.678,-184.5 905.678,-177.5"/>
<text text-anchor="middle" x="960" y="-184" font-family="Helvetica,sans-Serif" font-size="10.00"> myLibrary</text>
</g>
<!-- Node29 -->
<g id="node29" class="node"><title>Node29</title>
<polygon fill="white" stroke="#bfbfbf" points="439.5,-493.5 439.5,-512.5 480.5,-512.5 480.5,-493.5 439.5,-493.5"/>
<text text-anchor="middle" x="460" y="-500.5" font-family="Helvetica,sans-Serif" font-size="10.00">Color</text>
</g>
<!-- Node29&#45;&gt;Node1 -->
<g id="edge40" class="edge"><title>Node29&#45;&gt;Node1</title>
<path fill="none" stroke="#9a32cd" stroke-dasharray="5,2" d="M490.597,-497.775C510.259,-494.339 536.655,-489.794 560,-486 626.572,-475.181 647.925,-489.374 710,-463 748.355,-446.704 785.127,-412.501 801.748,-395.713"/>
<polygon fill="#9a32cd" stroke="#9a32cd" points="489.951,-494.335 480.705,-499.509 491.159,-501.23 489.951,-494.335"/>
<text text-anchor="middle" x="635" y="-511" font-family="Helvetica,sans-Serif" font-size="10.00"> myBackgroundColor</text>
<text text-anchor="start" x="576.5" y="-500" font-family="Helvetica,sans-Serif" font-size="10.00">DEFAULT_BACKGROUND</text>
<text text-anchor="middle" x="635" y="-489" font-family="Helvetica,sans-Serif" font-size="10.00">_COLOR</text>
</g>
</g>
</svg>
