<?xml version="1.0" encoding="UTF-8" standalone="no"?>
<!DOCTYPE svg PUBLIC "-//W3C//DTD SVG 1.1//EN"
 "http://www.w3.org/Graphics/SVG/1.1/DTD/svg11.dtd">
<!-- Generated by graphviz version 2.36.0 (20140111.2315)
 -->
<!-- Title: model.SerialisableModel.SerialisableModel Pages: 1 -->
<svg width="360pt" height="224pt"
 viewBox="0.00 0.00 360.00 224.00" xmlns="http://www.w3.org/2000/svg" xmlns:xlink="http://www.w3.org/1999/xlink">
<g id="graph0" class="graph" transform="scale(1 1) rotate(0) translate(4 220)">
<title>model.SerialisableModel.SerialisableModel</title>
<polygon fill="white" stroke="none" points="-4,4 -4,-220 356,-220 356,4 -4,4"/>
<!-- Node1 -->
<g id="node1" class="node"><title>Node1</title>
<polygon fill="#bfbfbf" stroke="black" points="0,-93 0,-123 136,-123 136,-93 0,-93"/>
<text text-anchor="start" x="8" y="-111" font-family="Helvetica,sans-Serif" font-size="10.00">model.SerialisableModel.</text>
<text text-anchor="middle" x="68" y="-100" font-family="Helvetica,sans-Serif" font-size="10.00">SerialisableModel</text>
</g>
<!-- Node2 -->
<g id="node2" class="node"><title>Node2</title>
<g id="a_node2"><a xlink:href="../../de/d21/classmodel_1_1_main_model.html#a71b1668d1f70c70cfe1f1e20e6fe7dc3" target="_top" xlink:title="model.MainModel.getBackground\lColorName">
<polygon fill="white" stroke="black" points="174,-186 174,-216 350,-216 350,-186 174,-186"/>
<text text-anchor="start" x="182" y="-204" font-family="Helvetica,sans-Serif" font-size="10.00">model.MainModel.getBackground</text>
<text text-anchor="middle" x="262" y="-193" font-family="Helvetica,sans-Serif" font-size="10.00">ColorName</text>
</a>
</g>
</g>
<!-- Node1&#45;&gt;Node2 -->
<g id="edge1" class="edge"><title>Node1&#45;&gt;Node2</title>
<path fill="none" stroke="midnightblue" d="M88.0625,-123.219C107.974,-138.462 140.623,-161.66 172,-176 177.237,-178.393 182.754,-180.607 188.369,-182.644"/>
<polygon fill="midnightblue" stroke="midnightblue" points="187.286,-185.973 197.881,-185.906 189.557,-179.351 187.286,-185.973"/>
</g>
<!-- Node3 -->
<g id="node3" class="node"><title>Node3</title>
<g id="a_node3"><a xlink:href="../../de/d21/classmodel_1_1_main_model.html#a34d537c868eba4e59604f4353cc7e1ad" target="_top" xlink:title="model.MainModel.getCommand\lHistory">
<polygon fill="white" stroke="black" points="177,-137 177,-167 347,-167 347,-137 177,-137"/>
<text text-anchor="start" x="185" y="-155" font-family="Helvetica,sans-Serif" font-size="10.00">model.MainModel.getCommand</text>
<text text-anchor="middle" x="262" y="-144" font-family="Helvetica,sans-Serif" font-size="10.00">History</text>
</a>
</g>
</g>
<!-- Node1&#45;&gt;Node3 -->
<g id="edge2" class="edge"><title>Node1&#45;&gt;Node3</title>
<path fill="none" stroke="midnightblue" d="M134.539,-123.019C150.975,-126.786 168.741,-130.857 185.616,-134.724"/>
<polygon fill="midnightblue" stroke="midnightblue" points="184.902,-138.152 195.431,-136.974 186.466,-131.328 184.902,-138.152"/>
</g>
<!-- Node4 -->
<g id="node4" class="node"><title>Node4</title>
<g id="a_node4"><a xlink:href="../../de/d21/classmodel_1_1_main_model.html#ad956188c0d7384b45a1fc36e6f283f88" target="_top" xlink:title="model.MainModel.getLanguage">
<polygon fill="white" stroke="black" points="178.5,-98.5 178.5,-117.5 345.5,-117.5 345.5,-98.5 178.5,-98.5"/>
<text text-anchor="middle" x="262" y="-105.5" font-family="Helvetica,sans-Serif" font-size="10.00">model.MainModel.getLanguage</text>
</a>
</g>
</g>
<!-- Node1&#45;&gt;Node4 -->
<g id="edge3" class="edge"><title>Node1&#45;&gt;Node4</title>
<path fill="none" stroke="midnightblue" d="M136.152,-108C146.478,-108 157.294,-108 168.059,-108"/>
<polygon fill="midnightblue" stroke="midnightblue" points="168.347,-111.5 178.347,-108 168.347,-104.5 168.347,-111.5"/>
</g>
<!-- Node5 -->
<g id="node5" class="node"><title>Node5</title>
<g id="a_node5"><a xlink:href="../../de/d21/classmodel_1_1_main_model.html#ad7dab4717c031b1d8b2f88e671bb98cd" target="_top" xlink:title="model.MainModel.getUserDefined\lMethods">
<polygon fill="white" stroke="black" points="172.5,-49 172.5,-79 351.5,-79 351.5,-49 172.5,-49"/>
<text text-anchor="start" x="180.5" y="-67" font-family="Helvetica,sans-Serif" font-size="10.00">model.MainModel.getUserDefined</text>
<text text-anchor="middle" x="262" y="-56" font-family="Helvetica,sans-Serif" font-size="10.00">Methods</text>
</a>
</g>
</g>
<!-- Node1&#45;&gt;Node5 -->
<g id="edge4" class="edge"><title>Node1&#45;&gt;Node5</title>
<path fill="none" stroke="midnightblue" d="M134.539,-92.9808C150.975,-89.214 168.741,-85.1426 185.616,-81.2756"/>
<polygon fill="midnightblue" stroke="midnightblue" points="186.466,-84.6716 195.431,-79.0262 184.902,-77.8485 186.466,-84.6716"/>
</g>
<!-- Node6 -->
<g id="node6" class="node"><title>Node6</title>
<g id="a_node6"><a xlink:href="../../de/d21/classmodel_1_1_main_model.html#adbee6cf0e790fd4a478f969f14ef0dbd" target="_top" xlink:title="model.MainModel.getUserDefined\lVariables">
<polygon fill="white" stroke="black" points="172.5,-0 172.5,-30 351.5,-30 351.5,-0 172.5,-0"/>
<text text-anchor="start" x="180.5" y="-18" font-family="Helvetica,sans-Serif" font-size="10.00">model.MainModel.getUserDefined</text>
<text text-anchor="middle" x="262" y="-7" font-family="Helvetica,sans-Serif" font-size="10.00">Variables</text>
</a>
</g>
</g>
<!-- Node1&#45;&gt;Node6 -->
<g id="edge5" class="edge"><title>Node1&#45;&gt;Node6</title>
<path fill="none" stroke="midnightblue" d="M88.0625,-92.7813C107.974,-77.5383 140.623,-54.3397 172,-40 177.237,-37.6067 182.754,-35.3932 188.369,-33.3562"/>
<polygon fill="midnightblue" stroke="midnightblue" points="189.557,-36.6489 197.881,-30.0939 187.286,-30.0275 189.557,-36.6489"/>
</g>
</g>
</svg>
