<?xml version="1.0" encoding="UTF-8" standalone="no"?>
<!DOCTYPE svg PUBLIC "-//W3C//DTD SVG 1.1//EN"
 "http://www.w3.org/Graphics/SVG/1.1/DTD/svg11.dtd">
<!-- Generated by graphviz version 2.36.0 (20140111.2315)
 -->
<!-- Title: viewcontroller.MainViewController.MainViewController Pages: 1 -->
<svg width="722pt" height="126pt"
 viewBox="0.00 0.00 722.00 126.00" xmlns="http://www.w3.org/2000/svg" xmlns:xlink="http://www.w3.org/1999/xlink">
<g id="graph0" class="graph" transform="scale(1 1) rotate(0) translate(4 122)">
<title>viewcontroller.MainViewController.MainViewController</title>
<polygon fill="white" stroke="none" points="-4,4 -4,-122 718,-122 718,4 -4,4"/>
<!-- Node1 -->
<g id="node1" class="node"><title>Node1</title>
<polygon fill="#bfbfbf" stroke="black" points="0.5,-49 0.5,-79 177.5,-79 177.5,-49 0.5,-49"/>
<text text-anchor="start" x="8.5" y="-67" font-family="Helvetica,sans-Serif" font-size="10.00">viewcontroller.MainViewController.</text>
<text text-anchor="middle" x="89" y="-56" font-family="Helvetica,sans-Serif" font-size="10.00">MainViewController</text>
</g>
<!-- Node2 -->
<g id="node2" class="node"><title>Node2</title>
<g id="a_node2"><a xlink:href="../../de/d21/classmodel_1_1_main_model.html#a8019cab5cb64b5856e5d15e526a55c1f" target="_top" xlink:title="model.MainModel.attachObserver">
<polygon fill="white" stroke="black" points="227,-98.5 227,-117.5 405,-117.5 405,-98.5 227,-98.5"/>
<text text-anchor="middle" x="316" y="-105.5" font-family="Helvetica,sans-Serif" font-size="10.00">model.MainModel.attachObserver</text>
</a>
</g>
</g>
<!-- Node1&#45;&gt;Node2 -->
<g id="edge1" class="edge"><title>Node1&#45;&gt;Node2</title>
<path fill="none" stroke="midnightblue" d="M166.803,-79.0192C196.169,-84.7619 229.155,-91.2125 256.539,-96.5676"/>
<polygon fill="midnightblue" stroke="midnightblue" points="255.871,-100.003 266.357,-98.4876 257.215,-93.1334 255.871,-100.003"/>
</g>
<!-- Node3 -->
<g id="node3" class="node"><title>Node3</title>
<g id="a_node3"><a xlink:href="../../d3/d67/classviewcontroller_1_1_main_view_controller.html#a47ad1be50a2765da27846b026f53147a" target="_top" xlink:title="viewcontroller.MainViewController.place\lCommandWindowView">
<polygon fill="white" stroke="black" points="214.5,-0 214.5,-30 417.5,-30 417.5,-0 214.5,-0"/>
<text text-anchor="start" x="222.5" y="-18" font-family="Helvetica,sans-Serif" font-size="10.00">viewcontroller.MainViewController.place</text>
<text text-anchor="middle" x="316" y="-7" font-family="Helvetica,sans-Serif" font-size="10.00">CommandWindowView</text>
</a>
</g>
</g>
<!-- Node1&#45;&gt;Node3 -->
<g id="edge2" class="edge"><title>Node1&#45;&gt;Node3</title>
<path fill="none" stroke="midnightblue" d="M159.037,-48.9654C183.441,-43.6506 211.071,-37.6335 236.222,-32.156"/>
<polygon fill="midnightblue" stroke="midnightblue" points="237.068,-35.554 246.094,-30.0062 235.578,-28.7143 237.068,-35.554"/>
</g>
<!-- Node6 -->
<g id="node6" class="node"><title>Node6</title>
<g id="a_node6"><a xlink:href="../../d3/d67/classviewcontroller_1_1_main_view_controller.html#a035c3c8e42cfd71088138196cf3e8f1c" target="_top" xlink:title="viewcontroller.MainViewController.place\lTurtleWindowView">
<polygon fill="white" stroke="black" points="214.5,-49 214.5,-79 417.5,-79 417.5,-49 214.5,-49"/>
<text text-anchor="start" x="222.5" y="-67" font-family="Helvetica,sans-Serif" font-size="10.00">viewcontroller.MainViewController.place</text>
<text text-anchor="middle" x="316" y="-56" font-family="Helvetica,sans-Serif" font-size="10.00">TurtleWindowView</text>
</a>
</g>
</g>
<!-- Node1&#45;&gt;Node6 -->
<g id="edge5" class="edge"><title>Node1&#45;&gt;Node6</title>
<path fill="none" stroke="midnightblue" d="M177.635,-64C186.331,-64 195.236,-64 204.127,-64"/>
<polygon fill="midnightblue" stroke="midnightblue" points="204.148,-67.5001 214.148,-64 204.148,-60.5001 204.148,-67.5001"/>
</g>
<!-- Node4 -->
<g id="node4" class="node"><title>Node4</title>
<g id="a_node4"><a xlink:href="../../d3/daf/classviewcontroller_1_1turtlegrid_1_1_turtle_window_view_controller.html#ad58a94777cb799134577243c0b6eb9d9" target="_top" xlink:title="viewcontroller.turtlegrid.\lTurtleWindowViewController.getNode">
<polygon fill="white" stroke="black" points="489.5,-49 489.5,-79 678.5,-79 678.5,-49 489.5,-49"/>
<text text-anchor="start" x="497.5" y="-67" font-family="Helvetica,sans-Serif" font-size="10.00">viewcontroller.turtlegrid.</text>
<text text-anchor="middle" x="584" y="-56" font-family="Helvetica,sans-Serif" font-size="10.00">TurtleWindowViewController.getNode</text>
</a>
</g>
</g>
<!-- Node3&#45;&gt;Node4 -->
<g id="edge3" class="edge"><title>Node3&#45;&gt;Node4</title>
<path fill="none" stroke="midnightblue" d="M398.616,-30.0346C427.979,-35.4435 461.29,-41.5797 491.443,-47.1343"/>
<polygon fill="midnightblue" stroke="midnightblue" points="491.069,-50.6242 501.538,-48.9938 492.337,-43.74 491.069,-50.6242"/>
</g>
<!-- Node5 -->
<g id="node5" class="node"><title>Node5</title>
<g id="a_node5"><a xlink:href="../../d0/d7c/classviewcontroller_1_1commands_1_1_command_window_container_view_controller.html#ade851955a9a3301301afb8fbc4814a17" target="_top" xlink:title="viewcontroller.commands.\lCommandWindowContainerViewController.getNode">
<polygon fill="white" stroke="black" points="454,-0 454,-30 714,-30 714,-0 454,-0"/>
<text text-anchor="start" x="462" y="-18" font-family="Helvetica,sans-Serif" font-size="10.00">viewcontroller.commands.</text>
<text text-anchor="middle" x="584" y="-7" font-family="Helvetica,sans-Serif" font-size="10.00">CommandWindowContainerViewController.getNode</text>
</a>
</g>
</g>
<!-- Node3&#45;&gt;Node5 -->
<g id="edge4" class="edge"><title>Node3&#45;&gt;Node5</title>
<path fill="none" stroke="midnightblue" d="M417.563,-15C426.023,-15 434.669,-15 443.353,-15"/>
<polygon fill="midnightblue" stroke="midnightblue" points="443.555,-18.5001 453.555,-15 443.555,-11.5001 443.555,-18.5001"/>
</g>
<!-- Node6&#45;&gt;Node4 -->
<g id="edge6" class="edge"><title>Node6&#45;&gt;Node4</title>
<path fill="none" stroke="midnightblue" d="M417.563,-64C437.701,-64 458.894,-64 479.141,-64"/>
<polygon fill="midnightblue" stroke="midnightblue" points="479.312,-67.5001 489.312,-64 479.312,-60.5001 479.312,-67.5001"/>
</g>
</g>
</svg>
