<?xml version="1.0" encoding="UTF-8" standalone="no"?>
<!DOCTYPE svg PUBLIC "-//W3C//DTD SVG 1.1//EN"
 "http://www.w3.org/Graphics/SVG/1.1/DTD/svg11.dtd">
<!-- Generated by graphviz version 2.36.0 (20140111.2315)
 -->
<!-- Title: viewcontroller.MainViewController.animationSpeedChanged Pages: 1 -->
<svg width="676pt" height="48pt"
 viewBox="0.00 0.00 676.00 48.00" xmlns="http://www.w3.org/2000/svg" xmlns:xlink="http://www.w3.org/1999/xlink">
<g id="graph0" class="graph" transform="scale(1 1) rotate(0) translate(4 44)">
<title>viewcontroller.MainViewController.animationSpeedChanged</title>
<polygon fill="white" stroke="none" points="-4,4 -4,-44 672,-44 672,4 -4,4"/>
<!-- Node1 -->
<g id="node1" class="node"><title>Node1</title>
<polygon fill="#bfbfbf" stroke="black" points="0.5,-5 0.5,-35 225.5,-35 225.5,-5 0.5,-5"/>
<text text-anchor="start" x="8.5" y="-23" font-family="Helvetica,sans-Serif" font-size="10.00">viewcontroller.MainViewController.animation</text>
<text text-anchor="middle" x="113" y="-12" font-family="Helvetica,sans-Serif" font-size="10.00">SpeedChanged</text>
</g>
<!-- Node2 -->
<g id="node2" class="node"><title>Node2</title>
<g id="a_node2"><a xlink:href="../../d3/daf/classviewcontroller_1_1turtlegrid_1_1_turtle_window_view_controller.html#ad20747828f10e957b0439e77cf253dc6" target="_top" xlink:title="viewcontroller.turtlegrid.\lTurtleWindowViewController.animation\lSpeedChanged">
<polygon fill="white" stroke="black" points="262,0.5 262,-40.5 458,-40.5 458,0.5 262,0.5"/>
<text text-anchor="start" x="270" y="-28.5" font-family="Helvetica,sans-Serif" font-size="10.00">viewcontroller.turtlegrid.</text>
<text text-anchor="start" x="270" y="-17.5" font-family="Helvetica,sans-Serif" font-size="10.00">TurtleWindowViewController.animation</text>
<text text-anchor="middle" x="360" y="-6.5" font-family="Helvetica,sans-Serif" font-size="10.00">SpeedChanged</text>
</a>
</g>
</g>
<!-- Node1&#45;&gt;Node2 -->
<g id="edge1" class="edge"><title>Node1&#45;&gt;Node2</title>
<path fill="none" stroke="midnightblue" d="M235.884,-20C244.531,-20 253.182,-20 261.665,-20"/>
<polygon fill="midnightblue" stroke="midnightblue" points="235.746,-16.5001 225.746,-20 235.746,-23.5001 235.746,-16.5001"/>
</g>
<!-- Node3 -->
<g id="node3" class="node"><title>Node3</title>
<g id="a_node3"><a xlink:href="../../d3/daf/classviewcontroller_1_1turtlegrid_1_1_turtle_window_view_controller.html#a732df23c6854ab63ebaac21d105c7072" target="_top" xlink:title="viewcontroller.turtlegrid.\lTurtleWindowViewController.Turtle\lWindowViewController">
<polygon fill="white" stroke="black" points="494.5,0.5 494.5,-40.5 667.5,-40.5 667.5,0.5 494.5,0.5"/>
<text text-anchor="start" x="502.5" y="-28.5" font-family="Helvetica,sans-Serif" font-size="10.00">viewcontroller.turtlegrid.</text>
<text text-anchor="start" x="502.5" y="-17.5" font-family="Helvetica,sans-Serif" font-size="10.00">TurtleWindowViewController.Turtle</text>
<text text-anchor="middle" x="581" y="-6.5" font-family="Helvetica,sans-Serif" font-size="10.00">WindowViewController</text>
</a>
</g>
</g>
<!-- Node2&#45;&gt;Node3 -->
<g id="edge2" class="edge"><title>Node2&#45;&gt;Node3</title>
<path fill="none" stroke="midnightblue" d="M468.281,-20C477.047,-20 485.832,-20 494.411,-20"/>
<polygon fill="midnightblue" stroke="midnightblue" points="468.013,-16.5001 458.013,-20 468.013,-23.5001 468.013,-16.5001"/>
</g>
</g>
</svg>
