<?xml version="1.0" encoding="UTF-8" standalone="no"?>
<!DOCTYPE svg PUBLIC "-//W3C//DTD SVG 1.1//EN"
 "http://www.w3.org/Graphics/SVG/1.1/DTD/svg11.dtd">
<!-- Generated by graphviz version 2.36.0 (20140111.2315)
 -->
<!-- Title: viewcontroller.MainViewController.loadScript Pages: 1 -->
<svg width="738pt" height="38pt"
 viewBox="0.00 0.00 738.00 38.00" xmlns="http://www.w3.org/2000/svg" xmlns:xlink="http://www.w3.org/1999/xlink">
<g id="graph0" class="graph" transform="scale(1 1) rotate(0) translate(4 34)">
<title>viewcontroller.MainViewController.loadScript</title>
<polygon fill="white" stroke="none" points="-4,4 -4,-34 734,-34 734,4 -4,4"/>
<!-- Node1 -->
<g id="node1" class="node"><title>Node1</title>
<polygon fill="#bfbfbf" stroke="black" points="0.5,-0 0.5,-30 197.5,-30 197.5,-0 0.5,-0"/>
<text text-anchor="start" x="8.5" y="-18" font-family="Helvetica,sans-Serif" font-size="10.00">viewcontroller.MainViewController.load</text>
<text text-anchor="middle" x="99" y="-7" font-family="Helvetica,sans-Serif" font-size="10.00">Script</text>
</g>
<!-- Node2 -->
<g id="node2" class="node"><title>Node2</title>
<g id="a_node2"><a xlink:href="../../da/d4e/classviewcontroller_1_1_view.html#a1f7ce4457b38e302cf3a052c8d36a7a6" target="_top" xlink:title="viewcontroller.View.loadFile">
<polygon fill="white" stroke="black" points="234.5,-5.5 234.5,-24.5 377.5,-24.5 377.5,-5.5 234.5,-5.5"/>
<text text-anchor="middle" x="306" y="-12.5" font-family="Helvetica,sans-Serif" font-size="10.00">viewcontroller.View.loadFile</text>
</a>
</g>
</g>
<!-- Node1&#45;&gt;Node2 -->
<g id="edge1" class="edge"><title>Node1&#45;&gt;Node2</title>
<path fill="none" stroke="midnightblue" d="M207.854,-15C216.843,-15 225.777,-15 234.379,-15"/>
<polygon fill="midnightblue" stroke="midnightblue" points="207.697,-11.5001 197.697,-15 207.697,-18.5001 207.697,-11.5001"/>
</g>
<!-- Node3 -->
<g id="node3" class="node"><title>Node3</title>
<g id="a_node3"><a xlink:href="../../df/df9/classviewcontroller_1_1_s_logo_menu_bar.html#aea535ae86d7ac7a2fffe549d7bdf2a1d" target="_top" xlink:title="viewcontroller.SLogoMenu\lBar.initializeFileMenu">
<polygon fill="white" stroke="black" points="414,-0 414,-30 554,-30 554,-0 414,-0"/>
<text text-anchor="start" x="422" y="-18" font-family="Helvetica,sans-Serif" font-size="10.00">viewcontroller.SLogoMenu</text>
<text text-anchor="middle" x="484" y="-7" font-family="Helvetica,sans-Serif" font-size="10.00">Bar.initializeFileMenu</text>
</a>
</g>
</g>
<!-- Node2&#45;&gt;Node3 -->
<g id="edge2" class="edge"><title>Node2&#45;&gt;Node3</title>
<path fill="none" stroke="midnightblue" d="M387.744,-15C396.463,-15 405.279,-15 413.845,-15"/>
<polygon fill="midnightblue" stroke="midnightblue" points="387.572,-11.5001 377.572,-15 387.572,-18.5001 387.572,-11.5001"/>
</g>
<!-- Node4 -->
<g id="node4" class="node"><title>Node4</title>
<g id="a_node4"><a xlink:href="../../df/df9/classviewcontroller_1_1_s_logo_menu_bar.html#a75b45d0a4b08de5ff8588fc15b2f14fe" target="_top" xlink:title="viewcontroller.SLogoMenu\lBar.SLogoMenuBar">
<polygon fill="white" stroke="black" points="590,-0 590,-30 730,-30 730,-0 590,-0"/>
<text text-anchor="start" x="598" y="-18" font-family="Helvetica,sans-Serif" font-size="10.00">viewcontroller.SLogoMenu</text>
<text text-anchor="middle" x="660" y="-7" font-family="Helvetica,sans-Serif" font-size="10.00">Bar.SLogoMenuBar</text>
</a>
</g>
</g>
<!-- Node3&#45;&gt;Node4 -->
<g id="edge3" class="edge"><title>Node3&#45;&gt;Node4</title>
<path fill="none" stroke="midnightblue" d="M564.035,-15C572.625,-15 581.319,-15 589.779,-15"/>
<polygon fill="midnightblue" stroke="midnightblue" points="564.019,-11.5001 554.019,-15 564.019,-18.5001 564.019,-11.5001"/>
</g>
</g>
</svg>
