<?xml version="1.0" encoding="UTF-8" standalone="no"?>
<!DOCTYPE svg PUBLIC "-//W3C//DTD SVG 1.1//EN"
 "http://www.w3.org/Graphics/SVG/1.1/DTD/svg11.dtd">
<!-- Generated by graphviz version 2.36.0 (20140111.2315)
 -->
<!-- Title: viewcontroller.MainViewController.getNode Pages: 1 -->
<svg width="1140pt" height="90pt"
 viewBox="0.00 0.00 1140.00 89.91" xmlns="http://www.w3.org/2000/svg" xmlns:xlink="http://www.w3.org/1999/xlink">
<g id="graph0" class="graph" transform="scale(1 1) rotate(0) translate(4 85.9084)">
<title>viewcontroller.MainViewController.getNode</title>
<polygon fill="white" stroke="none" points="-4,4 -4,-85.9084 1136,-85.9084 1136,4 -4,4"/>
<!-- Node1 -->
<g id="node1" class="node"><title>Node1</title>
<polygon fill="#bfbfbf" stroke="black" points="0,-29.5 0,-48.5 218,-48.5 218,-29.5 0,-29.5"/>
<text text-anchor="middle" x="109" y="-36.5" font-family="Helvetica,sans-Serif" font-size="10.00">viewcontroller.MainViewController.getNode</text>
</g>
<!-- Node2 -->
<g id="node2" class="node"><title>Node2</title>
<g id="a_node2"><a xlink:href="../../da/d4e/classviewcontroller_1_1_view.html#ad16a35ae1b446b10bc9cc74395e0aeab" target="_top" xlink:title="viewcontroller.View.addWorkspace">
<polygon fill="white" stroke="black" points="254.5,-29.5 254.5,-48.5 431.5,-48.5 431.5,-29.5 254.5,-29.5"/>
<text text-anchor="middle" x="343" y="-36.5" font-family="Helvetica,sans-Serif" font-size="10.00">viewcontroller.View.addWorkspace</text>
</a>
</g>
</g>
<!-- Node1&#45;&gt;Node2 -->
<g id="edge1" class="edge"><title>Node1&#45;&gt;Node2</title>
<path fill="none" stroke="midnightblue" d="M228.471,-39C237.232,-39 245.974,-39 254.498,-39"/>
<polygon fill="midnightblue" stroke="midnightblue" points="228.189,-35.5001 218.189,-39 228.189,-42.5001 228.189,-35.5001"/>
</g>
<!-- Node3 -->
<g id="node3" class="node"><title>Node3</title>
<g id="a_node3"><a xlink:href="../../da/d4e/classviewcontroller_1_1_view.html#a64b659e383de6c070b48a80ddfa72668" target="_top" xlink:title="viewcontroller.View.addNew\lWorkspace">
<polygon fill="white" stroke="black" points="468,-49 468,-79 614,-79 614,-49 468,-49"/>
<text text-anchor="start" x="476" y="-67" font-family="Helvetica,sans-Serif" font-size="10.00">viewcontroller.View.addNew</text>
<text text-anchor="middle" x="541" y="-56" font-family="Helvetica,sans-Serif" font-size="10.00">Workspace</text>
</a>
</g>
</g>
<!-- Node2&#45;&gt;Node3 -->
<g id="edge2" class="edge"><title>Node2&#45;&gt;Node3</title>
<path fill="none" stroke="midnightblue" d="M428.96,-49.8368C441.911,-51.4887 455.171,-53.18 467.814,-54.7926"/>
<polygon fill="midnightblue" stroke="midnightblue" points="429.021,-46.3162 418.658,-48.5227 428.135,-53.26 429.021,-46.3162"/>
</g>
<!-- Node7 -->
<g id="node7" class="node"><title>Node7</title>
<g id="a_node7"><a xlink:href="../../da/d4e/classviewcontroller_1_1_view.html#a4b671855769c23246f5698d72dc12618" target="_top" xlink:title="viewcontroller.View.load\lSerialisedWorkspace">
<polygon fill="white" stroke="black" points="477,-0 477,-30 605,-30 605,-0 477,-0"/>
<text text-anchor="start" x="485" y="-18" font-family="Helvetica,sans-Serif" font-size="10.00">viewcontroller.View.load</text>
<text text-anchor="middle" x="541" y="-7" font-family="Helvetica,sans-Serif" font-size="10.00">SerialisedWorkspace</text>
</a>
</g>
</g>
<!-- Node2&#45;&gt;Node7 -->
<g id="edge6" class="edge"><title>Node2&#45;&gt;Node7</title>
<path fill="none" stroke="midnightblue" d="M431.678,-28.264C446.888,-26.4015 462.434,-24.4979 476.828,-22.7354"/>
<polygon fill="midnightblue" stroke="midnightblue" points="431.246,-24.7905 421.746,-29.4801 432.097,-31.7386 431.246,-24.7905"/>
</g>
<!-- Node4 -->
<g id="node4" class="node"><title>Node4</title>
<g id="a_node4"><a xlink:href="../../df/df9/classviewcontroller_1_1_s_logo_menu_bar.html#aea535ae86d7ac7a2fffe549d7bdf2a1d" target="_top" xlink:title="viewcontroller.SLogoMenu\lBar.initializeFileMenu">
<polygon fill="white" stroke="black" points="816,-41 816,-71 956,-71 956,-41 816,-41"/>
<text text-anchor="start" x="824" y="-59" font-family="Helvetica,sans-Serif" font-size="10.00">viewcontroller.SLogoMenu</text>
<text text-anchor="middle" x="886" y="-48" font-family="Helvetica,sans-Serif" font-size="10.00">Bar.initializeFileMenu</text>
</a>
</g>
</g>
<!-- Node3&#45;&gt;Node4 -->
<g id="edge3" class="edge"><title>Node3&#45;&gt;Node4</title>
<path fill="none" stroke="midnightblue" d="M624.326,-75.7866C632.98,-76.6919 641.66,-77.4617 650,-78 707.658,-81.7215 722.53,-83.956 780,-78 794.357,-76.512 809.645,-73.9087 823.984,-71.0018"/>
<polygon fill="midnightblue" stroke="midnightblue" points="624.526,-72.2874 614.202,-74.6673 623.756,-79.245 624.526,-72.2874"/>
</g>
<!-- Node6 -->
<g id="node6" class="node"><title>Node6</title>
<g id="a_node6"><a xlink:href="../../da/d4e/classviewcontroller_1_1_view.html#ae0442fb812563b8647f9b9bdd32e0ee5" target="_top" xlink:title="viewcontroller.View.View">
<polygon fill="white" stroke="black" points="650,-49.5 650,-68.5 780,-68.5 780,-49.5 650,-49.5"/>
<text text-anchor="middle" x="715" y="-56.5" font-family="Helvetica,sans-Serif" font-size="10.00">viewcontroller.View.View</text>
</a>
</g>
</g>
<!-- Node3&#45;&gt;Node6 -->
<g id="edge5" class="edge"><title>Node3&#45;&gt;Node6</title>
<path fill="none" stroke="midnightblue" d="M624.701,-61.5959C633.144,-61.3505 641.629,-61.1038 649.831,-60.8654"/>
<polygon fill="midnightblue" stroke="midnightblue" points="624.339,-58.1048 614.445,-61.894 624.542,-65.1019 624.339,-58.1048"/>
</g>
<!-- Node5 -->
<g id="node5" class="node"><title>Node5</title>
<g id="a_node5"><a xlink:href="../../df/df9/classviewcontroller_1_1_s_logo_menu_bar.html#a75b45d0a4b08de5ff8588fc15b2f14fe" target="_top" xlink:title="viewcontroller.SLogoMenu\lBar.SLogoMenuBar">
<polygon fill="white" stroke="black" points="992,-41 992,-71 1132,-71 1132,-41 992,-41"/>
<text text-anchor="start" x="1000" y="-59" font-family="Helvetica,sans-Serif" font-size="10.00">viewcontroller.SLogoMenu</text>
<text text-anchor="middle" x="1062" y="-48" font-family="Helvetica,sans-Serif" font-size="10.00">Bar.SLogoMenuBar</text>
</a>
</g>
</g>
<!-- Node4&#45;&gt;Node5 -->
<g id="edge4" class="edge"><title>Node4&#45;&gt;Node5</title>
<path fill="none" stroke="midnightblue" d="M966.035,-56C974.625,-56 983.319,-56 991.779,-56"/>
<polygon fill="midnightblue" stroke="midnightblue" points="966.019,-52.5001 956.019,-56 966.019,-59.5001 966.019,-52.5001"/>
</g>
<!-- Node8 -->
<g id="node8" class="node"><title>Node8</title>
<g id="a_node8"><a xlink:href="../../da/d4e/classviewcontroller_1_1_view.html#a3ce37900baf65c2a31c0a2a7d5349aae" target="_top" xlink:title="viewcontroller.View.load\lWorkspace">
<polygon fill="white" stroke="black" points="651,-0 651,-30 779,-30 779,-0 651,-0"/>
<text text-anchor="start" x="659" y="-18" font-family="Helvetica,sans-Serif" font-size="10.00">viewcontroller.View.load</text>
<text text-anchor="middle" x="715" y="-7" font-family="Helvetica,sans-Serif" font-size="10.00">Workspace</text>
</a>
</g>
</g>
<!-- Node7&#45;&gt;Node8 -->
<g id="edge7" class="edge"><title>Node7&#45;&gt;Node8</title>
<path fill="none" stroke="midnightblue" d="M615.366,-15C627.205,-15 639.37,-15 650.938,-15"/>
<polygon fill="midnightblue" stroke="midnightblue" points="615.07,-11.5001 605.07,-15 615.07,-18.5001 615.07,-11.5001"/>
</g>
<!-- Node8&#45;&gt;Node4 -->
<g id="edge8" class="edge"><title>Node8&#45;&gt;Node4</title>
<path fill="none" stroke="midnightblue" d="M787.734,-32.403C799.477,-35.2519 811.557,-38.1824 823.038,-40.9677"/>
<polygon fill="midnightblue" stroke="midnightblue" points="788.513,-28.9905 777.97,-30.0341 786.863,-35.7931 788.513,-28.9905"/>
</g>
</g>
</svg>
