<?xml version="1.0" encoding="UTF-8" standalone="no"?>
<!DOCTYPE svg PUBLIC "-//W3C//DTD SVG 1.1//EN"
 "http://www.w3.org/Graphics/SVG/1.1/DTD/svg11.dtd">
<!-- Generated by graphviz version 2.36.0 (20140111.2315)
 -->
<!-- Title: viewcontroller.MainViewController.loadScript Pages: 1 -->
<svg width="706pt" height="48pt"
 viewBox="0.00 0.00 706.00 48.00" xmlns="http://www.w3.org/2000/svg" xmlns:xlink="http://www.w3.org/1999/xlink">
<g id="graph0" class="graph" transform="scale(1 1) rotate(0) translate(4 44)">
<title>viewcontroller.MainViewController.loadScript</title>
<polygon fill="white" stroke="none" points="-4,4 -4,-44 702,-44 702,4 -4,4"/>
<!-- Node1 -->
<g id="node1" class="node"><title>Node1</title>
<polygon fill="#bfbfbf" stroke="black" points="0.5,-5 0.5,-35 197.5,-35 197.5,-5 0.5,-5"/>
<text text-anchor="start" x="8.5" y="-23" font-family="Helvetica,sans-Serif" font-size="10.00">viewcontroller.MainViewController.load</text>
<text text-anchor="middle" x="99" y="-12" font-family="Helvetica,sans-Serif" font-size="10.00">Script</text>
</g>
<!-- Node2 -->
<g id="node2" class="node"><title>Node2</title>
<g id="a_node2"><a xlink:href="../../d0/d7c/classviewcontroller_1_1commands_1_1_command_window_container_view_controller.html#a855fafa32d3167f000f659fc3ae8bede" target="_top" xlink:title="viewcontroller.commands.\lCommandWindowContainerViewController.load\lScript">
<polygon fill="white" stroke="black" points="234.5,0.5 234.5,-40.5 473.5,-40.5 473.5,0.5 234.5,0.5"/>
<text text-anchor="start" x="242.5" y="-28.5" font-family="Helvetica,sans-Serif" font-size="10.00">viewcontroller.commands.</text>
<text text-anchor="start" x="242.5" y="-17.5" font-family="Helvetica,sans-Serif" font-size="10.00">CommandWindowContainerViewController.load</text>
<text text-anchor="middle" x="354" y="-6.5" font-family="Helvetica,sans-Serif" font-size="10.00">Script</text>
</a>
</g>
</g>
<!-- Node1&#45;&gt;Node2 -->
<g id="edge1" class="edge"><title>Node1&#45;&gt;Node2</title>
<path fill="none" stroke="midnightblue" d="M197.816,-20C206.505,-20 215.384,-20 224.278,-20"/>
<polygon fill="midnightblue" stroke="midnightblue" points="224.316,-23.5001 234.316,-20 224.316,-16.5001 224.316,-23.5001"/>
</g>
<!-- Node3 -->
<g id="node3" class="node"><title>Node3</title>
<g id="a_node3"><a xlink:href="../../de/d8d/classviewcontroller_1_1commands_1_1_command_prompt_view_controller.html#ac5b8ed43553efe6667328fe2d2d7130a" target="_top" xlink:title="viewcontroller.commands.\lCommandPromptViewController.set\lCommandPromptText">
<polygon fill="white" stroke="black" points="510,0.5 510,-40.5 698,-40.5 698,0.5 510,0.5"/>
<text text-anchor="start" x="518" y="-28.5" font-family="Helvetica,sans-Serif" font-size="10.00">viewcontroller.commands.</text>
<text text-anchor="start" x="518" y="-17.5" font-family="Helvetica,sans-Serif" font-size="10.00">CommandPromptViewController.set</text>
<text text-anchor="middle" x="604" y="-6.5" font-family="Helvetica,sans-Serif" font-size="10.00">CommandPromptText</text>
</a>
</g>
</g>
<!-- Node2&#45;&gt;Node3 -->
<g id="edge2" class="edge"><title>Node2&#45;&gt;Node3</title>
<path fill="none" stroke="midnightblue" d="M473.552,-20C482.324,-20 491.133,-20 499.801,-20"/>
<polygon fill="midnightblue" stroke="midnightblue" points="499.903,-23.5001 509.903,-20 499.903,-16.5001 499.903,-23.5001"/>
</g>
</g>
</svg>
