<?xml version="1.0" encoding="UTF-8" standalone="no"?>
<!DOCTYPE svg PUBLIC "-//W3C//DTD SVG 1.1//EN"
 "http://www.w3.org/Graphics/SVG/1.1/DTD/svg11.dtd">
<!-- Generated by graphviz version 2.36.0 (20140111.2315)
 -->
<!-- Title: viewcontroller.MainViewController.toggleGridLines Pages: 1 -->
<svg width="816pt" height="48pt"
 viewBox="0.00 0.00 816.00 48.00" xmlns="http://www.w3.org/2000/svg" xmlns:xlink="http://www.w3.org/1999/xlink">
<g id="graph0" class="graph" transform="scale(1 1) rotate(0) translate(4 44)">
<title>viewcontroller.MainViewController.toggleGridLines</title>
<polygon fill="white" stroke="none" points="-4,4 -4,-44 812,-44 812,4 -4,4"/>
<!-- Node1 -->
<g id="node1" class="node"><title>Node1</title>
<polygon fill="#bfbfbf" stroke="black" points="0.5,-5 0.5,-35 207.5,-35 207.5,-5 0.5,-5"/>
<text text-anchor="start" x="8.5" y="-23" font-family="Helvetica,sans-Serif" font-size="10.00">viewcontroller.MainViewController.toggle</text>
<text text-anchor="middle" x="104" y="-12" font-family="Helvetica,sans-Serif" font-size="10.00">GridLines</text>
</g>
<!-- Node2 -->
<g id="node2" class="node"><title>Node2</title>
<g id="a_node2"><a xlink:href="../../d3/daf/classviewcontroller_1_1turtlegrid_1_1_turtle_window_view_controller.html#a5cb54632b9c42ee88e4e6d743fa0ea9f" target="_top" xlink:title="viewcontroller.turtlegrid.\lTurtleWindowViewController.toggle\lGridLines">
<polygon fill="white" stroke="black" points="244,0.5 244,-40.5 422,-40.5 422,0.5 244,0.5"/>
<text text-anchor="start" x="252" y="-28.5" font-family="Helvetica,sans-Serif" font-size="10.00">viewcontroller.turtlegrid.</text>
<text text-anchor="start" x="252" y="-17.5" font-family="Helvetica,sans-Serif" font-size="10.00">TurtleWindowViewController.toggle</text>
<text text-anchor="middle" x="333" y="-6.5" font-family="Helvetica,sans-Serif" font-size="10.00">GridLines</text>
</a>
</g>
</g>
<!-- Node1&#45;&gt;Node2 -->
<g id="edge1" class="edge"><title>Node1&#45;&gt;Node2</title>
<path fill="none" stroke="midnightblue" d="M207.542,-20C216.24,-20 225.025,-20 233.69,-20"/>
<polygon fill="midnightblue" stroke="midnightblue" points="233.794,-23.5001 243.794,-20 233.793,-16.5001 233.794,-23.5001"/>
</g>
<!-- Node3 -->
<g id="node3" class="node"><title>Node3</title>
<g id="a_node3"><a xlink:href="../../d5/dcc/classviewcontroller_1_1turtlegrid_1_1_grid_view_controller.html#a8edc5ad5113a176c219b079873081a11" target="_top" xlink:title="viewcontroller.turtlegrid.\lGridViewController.toggleGridLines">
<polygon fill="white" stroke="black" points="458.5,-5 458.5,-35 639.5,-35 639.5,-5 458.5,-5"/>
<text text-anchor="start" x="466.5" y="-23" font-family="Helvetica,sans-Serif" font-size="10.00">viewcontroller.turtlegrid.</text>
<text text-anchor="middle" x="549" y="-12" font-family="Helvetica,sans-Serif" font-size="10.00">GridViewController.toggleGridLines</text>
</a>
</g>
</g>
<!-- Node2&#45;&gt;Node3 -->
<g id="edge2" class="edge"><title>Node2&#45;&gt;Node3</title>
<path fill="none" stroke="midnightblue" d="M422.278,-20C430.801,-20 439.488,-20 448.113,-20"/>
<polygon fill="midnightblue" stroke="midnightblue" points="448.197,-23.5001 458.197,-20 448.197,-16.5001 448.197,-23.5001"/>
</g>
<!-- Node4 -->
<g id="node4" class="node"><title>Node4</title>
<g id="a_node4"><a xlink:href="../../d4/d4e/classviewcontroller_1_1turtlegrid_1_1_grid_lines.html#a99fb48a214249e995686c10cd4c13dd0" target="_top" xlink:title="viewcontroller.turtlegrid.\lGridLines.toggle">
<polygon fill="white" stroke="black" points="676.5,-5 676.5,-35 807.5,-35 807.5,-5 676.5,-5"/>
<text text-anchor="start" x="684.5" y="-23" font-family="Helvetica,sans-Serif" font-size="10.00">viewcontroller.turtlegrid.</text>
<text text-anchor="middle" x="742" y="-12" font-family="Helvetica,sans-Serif" font-size="10.00">GridLines.toggle</text>
</a>
</g>
</g>
<!-- Node3&#45;&gt;Node4 -->
<g id="edge3" class="edge"><title>Node3&#45;&gt;Node4</title>
<path fill="none" stroke="midnightblue" d="M639.628,-20C648.545,-20 657.53,-20 666.272,-20"/>
<polygon fill="midnightblue" stroke="midnightblue" points="666.403,-23.5001 676.403,-20 666.403,-16.5001 666.403,-23.5001"/>
</g>
</g>
</svg>
