<?xml version="1.0" encoding="UTF-8" standalone="no"?>
<!DOCTYPE svg PUBLIC "-//W3C//DTD SVG 1.1//EN"
 "http://www.w3.org/Graphics/SVG/1.1/DTD/svg11.dtd">
<!-- Generated by graphviz version 2.36.0 (20140111.2315)
 -->
<!-- Title: interpreter.SLogoResultMerger.mergeAndReturn Pages: 1 -->
<!--zoomable 207 -->
<svg id="main" version="1.1" xmlns="http://www.w3.org/2000/svg" xmlns:xlink="http://www.w3.org/1999/xlink" xml:space="preserve" onload="init(evt)">
<style type="text/css"><![CDATA[
.edge:hover path { stroke: red; }
.edge:hover polygon { stroke: red; fill: red; }
]]></style>
<script type="text/javascript"><![CDATA[
var edges = document.getElementsByTagName('g');
if (edges && edges.length) {
  for (var i=0;i<edges.length;i++) {
    if (edges[i].id.substr(0,4)=='edge') {
      edges[i].setAttribute('class','edge');
    }
  }
}
]]></script>
        <defs>
                <circle id="rim" cx="0" cy="0" r="7"/>
                <circle id="rim2" cx="0" cy="0" r="3.5"/>
                <g id="zoomPlus">
                        <use xlink:href="#rim" fill="#404040">
                                <set attributeName="fill" to="#808080" begin="zoomplus.mouseover" end="zoomplus.mouseout"/>
                        </use>
                        <path d="M-4,0h8M0,-4v8" fill="none" stroke="white" stroke-width="1.5" pointer-events="none"/>
                </g>
                <g id="zoomMin">
                        <use xlink:href="#rim" fill="#404040">
                                <set attributeName="fill" to="#808080" begin="zoomminus.mouseover" end="zoomminus.mouseout"/>
                        </use>
                        <path d="M-4,0h8" fill="none" stroke="white" stroke-width="1.5" pointer-events="none"/>
                </g>
                <g id="dirArrow">
                        <path fill="none" stroke="white" stroke-width="1.5" d="M0,-3.0v7 M-2.5,-0.5L0,-3.0L2.5,-0.5"/>
                </g>
               <g id="resetDef">
                       <use xlink:href="#rim2" fill="#404040">
                               <set attributeName="fill" to="#808080" begin="reset.mouseover" end="reset.mouseout"/>
                       </use>
               </g>
        </defs>

<script type="text/javascript">
var viewWidth = 2656;
var viewHeight = 207;
var sectionId = 'dynsection-3';
</script>
<script xlink:href="../../svgpan.js"/>
<svg id="graph" class="graph">
<g id="viewport">
<title>interpreter.SLogoResultMerger.mergeAndReturn</title>
<polygon fill="white" stroke="none" points="-4,4 -4,-203 2652,-203 2652,4 -4,4"/>
<!-- Node1 -->
<g id="node1" class="node"><title>Node1</title>
<polygon fill="#bfbfbf" stroke="black" points="0,-100 0,-130 196,-130 196,-100 0,-100"/>
<text text-anchor="start" x="8" y="-118" font-family="Helvetica,sans-Serif" font-size="10.00">interpreter.SLogoResultMerger.merge</text>
<text text-anchor="middle" x="98" y="-107" font-family="Helvetica,sans-Serif" font-size="10.00">AndReturn</text>
</g>
<!-- Node2 -->
<g id="node2" class="node"><title>Node2</title>
<g id="a_node2"><a xlink:href="../../da/de4/classinterpreter_1_1_expression_evaluator.html#a349369ee222f83e4370c70b449844139" target="_top" xlink:title="interpreter.ExpressionEvaluator.evaluate\lExpressionsAndMerge">
<polygon fill="white" stroke="black" points="232,-100 232,-130 442,-130 442,-100 232,-100"/>
<text text-anchor="start" x="240" y="-118" font-family="Helvetica,sans-Serif" font-size="10.00">interpreter.ExpressionEvaluator.evaluate</text>
<text text-anchor="middle" x="337" y="-107" font-family="Helvetica,sans-Serif" font-size="10.00">ExpressionsAndMerge</text>
</a>
</g>
</g>
<!-- Node1&#45;&gt;Node2 -->
<g id="edge1" class="edge"><title>Node1&#45;&gt;Node2</title>
<path fill="none" stroke="midnightblue" d="M206.341,-115C214.793,-115 223.321,-115 231.752,-115"/>
<polygon fill="midnightblue" stroke="midnightblue" points="206.081,-111.5 196.081,-115 206.081,-118.5 206.081,-111.5"/>
</g>
<!-- Node3 -->
<g id="node3" class="node"><title>Node3</title>
<g id="a_node3"><a xlink:href="../../d2/dc7/classinterpreter_1_1_interpreter.html#a2398aed9ce5fd0631e4a61eb0ae7e3eb" target="_top" xlink:title="interpreter.Interpreter.interpret">
<polygon fill="white" stroke="black" points="478,-105.5 478,-124.5 642,-124.5 642,-105.5 478,-105.5"/>
<text text-anchor="middle" x="560" y="-112.5" font-family="Helvetica,sans-Serif" font-size="10.00">interpreter.Interpreter.interpret</text>
</a>
</g>
</g>
<!-- Node2&#45;&gt;Node3 -->
<g id="edge2" class="edge"><title>Node2&#45;&gt;Node3</title>
<path fill="none" stroke="midnightblue" d="M452.148,-115C460.767,-115 469.356,-115 477.706,-115"/>
<polygon fill="midnightblue" stroke="midnightblue" points="452.029,-111.5 442.029,-115 452.029,-118.5 452.029,-111.5"/>
</g>
<!-- Node4 -->
<g id="node4" class="node"><title>Node4</title>
<g id="a_node4"><a xlink:href="../../d7/d98/classtest_1_1_math_expression_tester.html#a74350214f5fc67a0e3bcfe4b17c60b32" target="_top" xlink:title="test.MathExpressionTester.arc\lTanTest">
<polygon fill="white" stroke="black" points="691,-149 691,-179 851,-179 851,-149 691,-149"/>
<text text-anchor="start" x="699" y="-167" font-family="Helvetica,sans-Serif" font-size="10.00">test.MathExpressionTester.arc</text>
<text text-anchor="middle" x="771" y="-156" font-family="Helvetica,sans-Serif" font-size="10.00">TanTest</text>
</a>
</g>
</g>
<!-- Node3&#45;&gt;Node4 -->
<g id="edge3" class="edge"><title>Node3&#45;&gt;Node4</title>
<path fill="none" stroke="midnightblue" d="M611.871,-126.927C640.173,-133.562 675.673,-141.885 705.863,-148.963"/>
<polygon fill="midnightblue" stroke="midnightblue" points="612.328,-123.439 601.793,-124.564 610.731,-130.254 612.328,-123.439"/>
</g>
<!-- Node5 -->
<g id="node5" class="node"><title>Node5</title>
<g id="a_node5"><a xlink:href="../../de/d21/classmodel_1_1_main_model.html#a96f4ff9f640f14d713c5d90ab5704884" target="_top" xlink:title="model.MainModel.interpret\lSLogoCommand">
<polygon fill="white" stroke="black" points="698.5,-100 698.5,-130 843.5,-130 843.5,-100 698.5,-100"/>
<text text-anchor="start" x="706.5" y="-118" font-family="Helvetica,sans-Serif" font-size="10.00">model.MainModel.interpret</text>
<text text-anchor="middle" x="771" y="-107" font-family="Helvetica,sans-Serif" font-size="10.00">SLogoCommand</text>
</a>
</g>
</g>
<!-- Node3&#45;&gt;Node5 -->
<g id="edge4" class="edge"><title>Node3&#45;&gt;Node5</title>
<path fill="none" stroke="midnightblue" d="M652.211,-115C667.699,-115 683.583,-115 698.473,-115"/>
<polygon fill="midnightblue" stroke="midnightblue" points="652.104,-111.5 642.104,-115 652.104,-118.5 652.104,-111.5"/>
</g>
<!-- Node22 -->
<g id="node22" class="node"><title>Node22</title>
<g id="a_node22"><a xlink:href="../../d7/d98/classtest_1_1_math_expression_tester.html#a782c9fa3f42b7a7ac8b5eb42794c4011" target="_top" xlink:title="test.MathExpressionTester.sumTest">
<polygon fill="white" stroke="black" points="678.5,-61.5 678.5,-80.5 863.5,-80.5 863.5,-61.5 678.5,-61.5"/>
<text text-anchor="middle" x="771" y="-68.5" font-family="Helvetica,sans-Serif" font-size="10.00">test.MathExpressionTester.sumTest</text>
</a>
</g>
</g>
<!-- Node3&#45;&gt;Node22 -->
<g id="edge22" class="edge"><title>Node3&#45;&gt;Node22</title>
<path fill="none" stroke="midnightblue" d="M614.937,-103.394C634.761,-99.1501 657.394,-94.3293 678,-90 692.844,-86.8814 709.044,-83.5212 723.656,-80.5065"/>
<polygon fill="midnightblue" stroke="midnightblue" points="614.198,-99.973 605.154,-105.491 615.665,-106.818 614.198,-99.973"/>
</g>
<!-- Node6 -->
<g id="node6" class="node"><title>Node6</title>
<g id="a_node6"><a xlink:href="../../de/d21/classmodel_1_1_main_model.html#ab4985c9a187961a2d57a8a0a63ab3b18" target="_top" xlink:title="model.MainModel.interpret\lSLogoCommand">
<polygon fill="white" stroke="black" points="927.5,-125 927.5,-155 1072.5,-155 1072.5,-125 927.5,-125"/>
<text text-anchor="start" x="935.5" y="-143" font-family="Helvetica,sans-Serif" font-size="10.00">model.MainModel.interpret</text>
<text text-anchor="middle" x="1000" y="-132" font-family="Helvetica,sans-Serif" font-size="10.00">SLogoCommand</text>
</a>
</g>
</g>
<!-- Node5&#45;&gt;Node6 -->
<g id="edge5" class="edge"><title>Node5&#45;&gt;Node6</title>
<path fill="none" stroke="midnightblue" d="M853.708,-123.999C877.827,-126.655 904.03,-129.541 927.457,-132.121"/>
<polygon fill="midnightblue" stroke="midnightblue" points="853.836,-120.492 843.513,-122.876 853.069,-127.45 853.836,-120.492"/>
</g>
<!-- Node7 -->
<g id="node7" class="node"><title>Node7</title>
<g id="a_node7"><a xlink:href="../../d3/d67/classviewcontroller_1_1_main_view_controller.html#a1b77a34d9385ff9296a9dc1db8c322cb" target="_top" xlink:title="viewcontroller.MainViewController.pass\lSLogoCommand">
<polygon fill="white" stroke="black" points="900,-76 900,-106 1100,-106 1100,-76 900,-76"/>
<text text-anchor="start" x="908" y="-94" font-family="Helvetica,sans-Serif" font-size="10.00">viewcontroller.MainViewController.pass</text>
<text text-anchor="middle" x="1000" y="-83" font-family="Helvetica,sans-Serif" font-size="10.00">SLogoCommand</text>
</a>
</g>
</g>
<!-- Node5&#45;&gt;Node7 -->
<g id="edge6" class="edge"><title>Node5&#45;&gt;Node7</title>
<path fill="none" stroke="midnightblue" d="M853.683,-106.364C868.576,-104.789 884.266,-103.131 899.605,-101.509"/>
<polygon fill="midnightblue" stroke="midnightblue" points="853.089,-102.907 843.513,-107.439 853.825,-109.868 853.089,-102.907"/>
</g>
<!-- Node8 -->
<g id="node8" class="node"><title>Node8</title>
<g id="a_node8"><a xlink:href="../../d0/d7c/classviewcontroller_1_1commands_1_1_command_window_container_view_controller.html#a0d7c2e3db2080741b7b01b42a0294695" target="_top" xlink:title="viewcontroller.commands.\lCommandWindowContainerViewController.pass\lSLogoCommand">
<polygon fill="white" stroke="black" points="1136,-100.5 1136,-141.5 1378,-141.5 1378,-100.5 1136,-100.5"/>
<text text-anchor="start" x="1144" y="-129.5" font-family="Helvetica,sans-Serif" font-size="10.00">viewcontroller.commands.</text>
<text text-anchor="start" x="1144" y="-118.5" font-family="Helvetica,sans-Serif" font-size="10.00">CommandWindowContainerViewController.pass</text>
<text text-anchor="middle" x="1257" y="-107.5" font-family="Helvetica,sans-Serif" font-size="10.00">SLogoCommand</text>
</a>
</g>
</g>
<!-- Node7&#45;&gt;Node8 -->
<g id="edge7" class="edge"><title>Node7&#45;&gt;Node8</title>
<path fill="none" stroke="midnightblue" d="M1110.46,-103.877C1118.82,-104.861 1127.29,-105.857 1135.71,-106.849"/>
<polygon fill="midnightblue" stroke="midnightblue" points="1110.66,-100.377 1100.32,-102.685 1109.84,-107.329 1110.66,-100.377"/>
</g>
<!-- Node18 -->
<g id="node18" class="node"><title>Node18</title>
<g id="a_node18"><a xlink:href="../../d3/daf/classviewcontroller_1_1turtlegrid_1_1_turtle_window_view_controller.html#a0a65ca6c84f3f3e7bffa675df02c9166" target="_top" xlink:title="viewcontroller.turtlegrid.\lTurtleWindowViewController.pass\lSLogoCommand">
<polygon fill="white" stroke="black" points="1172,-40.5 1172,-81.5 1342,-81.5 1342,-40.5 1172,-40.5"/>
<text text-anchor="start" x="1180" y="-69.5" font-family="Helvetica,sans-Serif" font-size="10.00">viewcontroller.turtlegrid.</text>
<text text-anchor="start" x="1180" y="-58.5" font-family="Helvetica,sans-Serif" font-size="10.00">TurtleWindowViewController.pass</text>
<text text-anchor="middle" x="1257" y="-47.5" font-family="Helvetica,sans-Serif" font-size="10.00">SLogoCommand</text>
</a>
</g>
</g>
<!-- Node7&#45;&gt;Node18 -->
<g id="edge17" class="edge"><title>Node7&#45;&gt;Node18</title>
<path fill="none" stroke="midnightblue" d="M1110.36,-78.134C1130.94,-75.7128 1152.16,-73.216 1171.83,-70.9027"/>
<polygon fill="midnightblue" stroke="midnightblue" points="1109.84,-74.6708 1100.32,-79.3153 1110.66,-81.6228 1109.84,-74.6708"/>
</g>
<!-- Node9 -->
<g id="node9" class="node"><title>Node9</title>
<g id="a_node9"><a xlink:href="../../de/d8d/classviewcontroller_1_1commands_1_1_command_prompt_view_controller.html#afc397f419037ca0ec30bdc6e93667e86" target="_top" xlink:title="viewcontroller.commands.\lCommandPromptViewController.pass\lCommandToModel">
<polygon fill="white" stroke="black" points="1419.5,-157.5 1419.5,-198.5 1614.5,-198.5 1614.5,-157.5 1419.5,-157.5"/>
<text text-anchor="start" x="1427.5" y="-186.5" font-family="Helvetica,sans-Serif" font-size="10.00">viewcontroller.commands.</text>
<text text-anchor="start" x="1427.5" y="-175.5" font-family="Helvetica,sans-Serif" font-size="10.00">CommandPromptViewController.pass</text>
<text text-anchor="middle" x="1517" y="-164.5" font-family="Helvetica,sans-Serif" font-size="10.00">CommandToModel</text>
</a>
</g>
</g>
<!-- Node8&#45;&gt;Node9 -->
<g id="edge8" class="edge"><title>Node8&#45;&gt;Node9</title>
<path fill="none" stroke="midnightblue" d="M1361.1,-143.778C1381.55,-148.296 1402.9,-153.014 1422.99,-157.452"/>
<polygon fill="midnightblue" stroke="midnightblue" points="1361.66,-140.318 1351.14,-141.578 1360.15,-147.153 1361.66,-140.318"/>
</g>
<!-- Node13 -->
<g id="node13" class="node"><title>Node13</title>
<g id="a_node13"><a xlink:href="../../d4/dc8/classviewcontroller_1_1commands_1_1_user_defined_variables_view_controller.html#a14508efe9a049e27b8a7f4d0928b83cd" target="_top" xlink:title="viewcontroller.commands.\lUserDefinedVariablesViewController.key\lPressed">
<polygon fill="white" stroke="black" points="1414,-97.5 1414,-138.5 1620,-138.5 1620,-97.5 1414,-97.5"/>
<text text-anchor="start" x="1422" y="-126.5" font-family="Helvetica,sans-Serif" font-size="10.00">viewcontroller.commands.</text>
<text text-anchor="start" x="1422" y="-115.5" font-family="Helvetica,sans-Serif" font-size="10.00">UserDefinedVariablesViewController.key</text>
<text text-anchor="middle" x="1517" y="-104.5" font-family="Helvetica,sans-Serif" font-size="10.00">Pressed</text>
</a>
</g>
</g>
<!-- Node8&#45;&gt;Node13 -->
<g id="edge12" class="edge"><title>Node8&#45;&gt;Node13</title>
<path fill="none" stroke="midnightblue" d="M1388.58,-119.482C1397,-119.384 1405.42,-119.286 1413.68,-119.19"/>
<polygon fill="midnightblue" stroke="midnightblue" points="1388.27,-115.985 1378.31,-119.601 1388.35,-122.984 1388.27,-115.985"/>
</g>
<!-- Node10 -->
<g id="node10" class="node"><title>Node10</title>
<g id="a_node10"><a xlink:href="../../de/d8d/classviewcontroller_1_1commands_1_1_command_prompt_view_controller.html#a02e953379b9b8de02a4e15d94fe1c559" target="_top" xlink:title="viewcontroller.commands.\lCommandPromptViewController.set\lUpSubmitButton">
<polygon fill="white" stroke="black" points="1676,-157.5 1676,-198.5 1864,-198.5 1864,-157.5 1676,-157.5"/>
<text text-anchor="start" x="1684" y="-186.5" font-family="Helvetica,sans-Serif" font-size="10.00">viewcontroller.commands.</text>
<text text-anchor="start" x="1684" y="-175.5" font-family="Helvetica,sans-Serif" font-size="10.00">CommandPromptViewController.set</text>
<text text-anchor="middle" x="1770" y="-164.5" font-family="Helvetica,sans-Serif" font-size="10.00">UpSubmitButton</text>
</a>
</g>
</g>
<!-- Node9&#45;&gt;Node10 -->
<g id="edge9" class="edge"><title>Node9&#45;&gt;Node10</title>
<path fill="none" stroke="midnightblue" d="M1625.09,-178C1641.91,-178 1659.19,-178 1675.67,-178"/>
<polygon fill="midnightblue" stroke="midnightblue" points="1624.68,-174.5 1614.68,-178 1624.68,-181.5 1624.68,-174.5"/>
</g>
<!-- Node11 -->
<g id="node11" class="node"><title>Node11</title>
<g id="a_node11"><a xlink:href="../../de/d8d/classviewcontroller_1_1commands_1_1_command_prompt_view_controller.html#a6931239ae66e9bb6ebfa794b7dada7b5" target="_top" xlink:title="viewcontroller.commands.\lCommandPromptViewController.set\lUpCommandPromptHorizontalBox">
<polygon fill="white" stroke="black" points="1930,-157.5 1930,-198.5 2118,-198.5 2118,-157.5 1930,-157.5"/>
<text text-anchor="start" x="1938" y="-186.5" font-family="Helvetica,sans-Serif" font-size="10.00">viewcontroller.commands.</text>
<text text-anchor="start" x="1938" y="-175.5" font-family="Helvetica,sans-Serif" font-size="10.00">CommandPromptViewController.set</text>
<text text-anchor="middle" x="2024" y="-164.5" font-family="Helvetica,sans-Serif" font-size="10.00">UpCommandPromptHorizontalBox</text>
</a>
</g>
</g>
<!-- Node10&#45;&gt;Node11 -->
<g id="edge10" class="edge"><title>Node10&#45;&gt;Node11</title>
<path fill="none" stroke="midnightblue" d="M1874.26,-178C1892.67,-178 1911.74,-178 1929.84,-178"/>
<polygon fill="midnightblue" stroke="midnightblue" points="1874.12,-174.5 1864.12,-178 1874.12,-181.5 1874.12,-174.5"/>
</g>
<!-- Node12 -->
<g id="node12" class="node"><title>Node12</title>
<g id="a_node12"><a xlink:href="../../de/d8d/classviewcontroller_1_1commands_1_1_command_prompt_view_controller.html#a7e92ce4136e77a153ee6ef862f99052a" target="_top" xlink:title="viewcontroller.commands.\lCommandPromptViewController.\lCommandPromptViewController">
<polygon fill="white" stroke="black" points="2189.5,-157.5 2189.5,-198.5 2362.5,-198.5 2362.5,-157.5 2189.5,-157.5"/>
<text text-anchor="start" x="2197.5" y="-186.5" font-family="Helvetica,sans-Serif" font-size="10.00">viewcontroller.commands.</text>
<text text-anchor="start" x="2197.5" y="-175.5" font-family="Helvetica,sans-Serif" font-size="10.00">CommandPromptViewController.</text>
<text text-anchor="middle" x="2276" y="-164.5" font-family="Helvetica,sans-Serif" font-size="10.00">CommandPromptViewController</text>
</a>
</g>
</g>
<!-- Node11&#45;&gt;Node12 -->
<g id="edge11" class="edge"><title>Node11&#45;&gt;Node12</title>
<path fill="none" stroke="midnightblue" d="M2128.29,-178C2148.57,-178 2169.64,-178 2189.27,-178"/>
<polygon fill="midnightblue" stroke="midnightblue" points="2128.09,-174.5 2118.09,-178 2128.09,-181.5 2128.09,-174.5"/>
</g>
<!-- Node14 -->
<g id="node14" class="node"><title>Node14</title>
<g id="a_node14"><a xlink:href="../../d4/dc8/classviewcontroller_1_1commands_1_1_user_defined_variables_view_controller.html#acac3eb9c8c5f87e3ef36c56477a0cecc" target="_top" xlink:title="viewcontroller.commands.\lUserDefinedVariablesViewController.variable\lClicked">
<polygon fill="white" stroke="black" points="1656.5,-97.5 1656.5,-138.5 1883.5,-138.5 1883.5,-97.5 1656.5,-97.5"/>
<text text-anchor="start" x="1664.5" y="-126.5" font-family="Helvetica,sans-Serif" font-size="10.00">viewcontroller.commands.</text>
<text text-anchor="start" x="1664.5" y="-115.5" font-family="Helvetica,sans-Serif" font-size="10.00">UserDefinedVariablesViewController.variable</text>
<text text-anchor="middle" x="1770" y="-104.5" font-family="Helvetica,sans-Serif" font-size="10.00">Clicked</text>
</a>
</g>
</g>
<!-- Node13&#45;&gt;Node14 -->
<g id="edge13" class="edge"><title>Node13&#45;&gt;Node14</title>
<path fill="none" stroke="midnightblue" d="M1630.23,-118C1638.91,-118 1647.67,-118 1656.35,-118"/>
<polygon fill="midnightblue" stroke="midnightblue" points="1630.09,-114.5 1620.09,-118 1630.09,-121.5 1630.09,-114.5"/>
</g>
<!-- Node15 -->
<g id="node15" class="node"><title>Node15</title>
<g id="a_node15"><a xlink:href="../../d4/dc8/classviewcontroller_1_1commands_1_1_user_defined_variables_view_controller.html#a027a582fe22eab9a05fb0d723fbac644" target="_top" xlink:title="viewcontroller.commands.\lUserDefinedVariablesViewController.add\lVariableToList">
<polygon fill="white" stroke="black" points="1920,-97.5 1920,-138.5 2128,-138.5 2128,-97.5 1920,-97.5"/>
<text text-anchor="start" x="1928" y="-126.5" font-family="Helvetica,sans-Serif" font-size="10.00">viewcontroller.commands.</text>
<text text-anchor="start" x="1928" y="-115.5" font-family="Helvetica,sans-Serif" font-size="10.00">UserDefinedVariablesViewController.add</text>
<text text-anchor="middle" x="2024" y="-104.5" font-family="Helvetica,sans-Serif" font-size="10.00">VariableToList</text>
</a>
</g>
</g>
<!-- Node14&#45;&gt;Node15 -->
<g id="edge14" class="edge"><title>Node14&#45;&gt;Node15</title>
<path fill="none" stroke="midnightblue" d="M1893.93,-118C1902.64,-118 1911.37,-118 1919.95,-118"/>
<polygon fill="midnightblue" stroke="midnightblue" points="1893.73,-114.5 1883.73,-118 1893.73,-121.5 1893.73,-114.5"/>
</g>
<!-- Node16 -->
<g id="node16" class="node"><title>Node16</title>
<g id="a_node16"><a xlink:href="../../d4/dc8/classviewcontroller_1_1commands_1_1_user_defined_variables_view_controller.html#a12bbbabdbb3032751fe57b25e835eafc" target="_top" xlink:title="viewcontroller.commands.\lUserDefinedVariablesViewController.update\lVariableList">
<polygon fill="white" stroke="black" points="2164,-97.5 2164,-138.5 2388,-138.5 2388,-97.5 2164,-97.5"/>
<text text-anchor="start" x="2172" y="-126.5" font-family="Helvetica,sans-Serif" font-size="10.00">viewcontroller.commands.</text>
<text text-anchor="start" x="2172" y="-115.5" font-family="Helvetica,sans-Serif" font-size="10.00">UserDefinedVariablesViewController.update</text>
<text text-anchor="middle" x="2276" y="-104.5" font-family="Helvetica,sans-Serif" font-size="10.00">VariableList</text>
</a>
</g>
</g>
<!-- Node15&#45;&gt;Node16 -->
<g id="edge15" class="edge"><title>Node15&#45;&gt;Node16</title>
<path fill="none" stroke="midnightblue" d="M2138.33,-118C2146.73,-118 2155.21,-118 2163.6,-118"/>
<polygon fill="midnightblue" stroke="midnightblue" points="2138.13,-114.5 2128.13,-118 2138.13,-121.5 2138.13,-114.5"/>
</g>
<!-- Node17 -->
<g id="node17" class="node"><title>Node17</title>
<g id="a_node17"><a xlink:href="../../d4/dc8/classviewcontroller_1_1commands_1_1_user_defined_variables_view_controller.html#a1e84f755902379519ddf5438bc2d27ee" target="_top" xlink:title="viewcontroller.commands.\lUserDefinedVariablesViewController.update">
<polygon fill="white" stroke="black" points="2424,-103 2424,-133 2648,-133 2648,-103 2424,-103"/>
<text text-anchor="start" x="2432" y="-121" font-family="Helvetica,sans-Serif" font-size="10.00">viewcontroller.commands.</text>
<text text-anchor="middle" x="2536" y="-110" font-family="Helvetica,sans-Serif" font-size="10.00">UserDefinedVariablesViewController.update</text>
</a>
</g>
</g>
<!-- Node16&#45;&gt;Node17 -->
<g id="edge16" class="edge"><title>Node16&#45;&gt;Node17</title>
<path fill="none" stroke="midnightblue" d="M2398.5,-118C2406.9,-118 2415.33,-118 2423.67,-118"/>
<polygon fill="midnightblue" stroke="midnightblue" points="2398.29,-114.5 2388.29,-118 2398.29,-121.5 2398.29,-114.5"/>
</g>
<!-- Node19 -->
<g id="node19" class="node"><title>Node19</title>
<g id="a_node19"><a xlink:href="../../d5/dcc/classviewcontroller_1_1turtlegrid_1_1_grid_view_controller.html#a9b87e85ea14f3882c2fefa36ceb159cb" target="_top" xlink:title="viewcontroller.turtlegrid.\lGridViewController.forwardKeyPressed">
<polygon fill="white" stroke="black" points="1418.5,-49 1418.5,-79 1615.5,-79 1615.5,-49 1418.5,-49"/>
<text text-anchor="start" x="1426.5" y="-67" font-family="Helvetica,sans-Serif" font-size="10.00">viewcontroller.turtlegrid.</text>
<text text-anchor="middle" x="1517" y="-56" font-family="Helvetica,sans-Serif" font-size="10.00">GridViewController.forwardKeyPressed</text>
</a>
</g>
</g>
<!-- Node18&#45;&gt;Node19 -->
<g id="edge18" class="edge"><title>Node18&#45;&gt;Node19</title>
<path fill="none" stroke="midnightblue" d="M1352.2,-62.0953C1373.65,-62.3448 1396.49,-62.6103 1418.09,-62.8615"/>
<polygon fill="midnightblue" stroke="midnightblue" points="1352.16,-58.5948 1342.12,-61.9782 1352.08,-65.5943 1352.16,-58.5948"/>
</g>
<!-- Node21 -->
<g id="node21" class="node"><title>Node21</title>
<g id="a_node21"><a xlink:href="../../d5/dcc/classviewcontroller_1_1turtlegrid_1_1_grid_view_controller.html#a7562be13e46d86a1d5f9058462a6d189" target="_top" xlink:title="viewcontroller.turtlegrid.\lGridViewController.rightKeyPressed">
<polygon fill="white" stroke="black" points="1425.5,-0 1425.5,-30 1608.5,-30 1608.5,-0 1425.5,-0"/>
<text text-anchor="start" x="1433.5" y="-18" font-family="Helvetica,sans-Serif" font-size="10.00">viewcontroller.turtlegrid.</text>
<text text-anchor="middle" x="1517" y="-7" font-family="Helvetica,sans-Serif" font-size="10.00">GridViewController.rightKeyPressed</text>
</a>
</g>
</g>
<!-- Node18&#45;&gt;Node21 -->
<g id="edge20" class="edge"><title>Node18&#45;&gt;Node21</title>
<path fill="none" stroke="midnightblue" d="M1351.99,-44.2426C1378.02,-39.6018 1406.1,-34.5942 1431.55,-30.0568"/>
<polygon fill="midnightblue" stroke="midnightblue" points="1351.35,-40.8005 1342.12,-46.0015 1352.58,-47.6918 1351.35,-40.8005"/>
</g>
<!-- Node20 -->
<g id="node20" class="node"><title>Node20</title>
<g id="a_node20"><a xlink:href="../../d5/dcc/classviewcontroller_1_1turtlegrid_1_1_grid_view_controller.html#aacd51569d82b44633f519cc19ef5d937" target="_top" xlink:title="viewcontroller.turtlegrid.\lGridViewController.listenKeys">
<polygon fill="white" stroke="black" points="1693,-25 1693,-55 1847,-55 1847,-25 1693,-25"/>
<text text-anchor="start" x="1701" y="-43" font-family="Helvetica,sans-Serif" font-size="10.00">viewcontroller.turtlegrid.</text>
<text text-anchor="middle" x="1770" y="-32" font-family="Helvetica,sans-Serif" font-size="10.00">GridViewController.listenKeys</text>
</a>
</g>
</g>
<!-- Node19&#45;&gt;Node20 -->
<g id="edge19" class="edge"><title>Node19&#45;&gt;Node20</title>
<path fill="none" stroke="midnightblue" d="M1625.73,-53.6987C1648.33,-51.5377 1671.72,-49.3017 1692.88,-47.2787"/>
<polygon fill="midnightblue" stroke="midnightblue" points="1625.38,-50.2162 1615.76,-54.6523 1626.05,-57.1844 1625.38,-50.2162"/>
</g>
<!-- Node21&#45;&gt;Node20 -->
<g id="edge21" class="edge"><title>Node21&#45;&gt;Node20</title>
<path fill="none" stroke="midnightblue" d="M1618.76,-25.0362C1643.52,-27.5023 1669.62,-30.1015 1692.99,-32.4292"/>
<polygon fill="midnightblue" stroke="midnightblue" points="1618.91,-21.534 1608.62,-24.0256 1618.22,-28.4995 1618.91,-21.534"/>
</g>
</g>
</svg>
        <g id="navigator" transform="translate(0 0)" fill="#404254">
                <rect fill="#f2f5e9" fill-opacity="0.5" stroke="#606060" stroke-width=".5" x="0" y="0" width="60" height="60"/>
                <use id="zoomplus" xlink:href="#zoomPlus" x="17" y="9" onmousedown="handleZoom(evt,'in')"/>
                <use id="zoomminus" xlink:href="#zoomMin" x="42" y="9" onmousedown="handleZoom(evt,'out')"/>
                <use id="reset" xlink:href="#resetDef" x="30" y="36" onmousedown="handleReset()"/>
                <g id="arrowUp" xlink:href="#dirArrow" transform="translate(30 24)" onmousedown="handlePan(0,-1)">
                  <use xlink:href="#rim" fill="#404040">
                        <set attributeName="fill" to="#808080" begin="arrowUp.mouseover" end="arrowUp.mouseout"/>
                  </use>
                  <path fill="none" stroke="white" stroke-width="1.5" d="M0,-3.0v7 M-2.5,-0.5L0,-3.0L2.5,-0.5"/>
                </g>
                <g id="arrowRight" xlink:href="#dirArrow" transform="rotate(90) translate(36 -43)" onmousedown="handlePan(1,0)">
                  <use xlink:href="#rim" fill="#404040">
                        <set attributeName="fill" to="#808080" begin="arrowRight.mouseover" end="arrowRight.mouseout"/>
                  </use>
                  <path fill="none" stroke="white" stroke-width="1.5" d="M0,-3.0v7 M-2.5,-0.5L0,-3.0L2.5,-0.5"/>
                </g>
                <g id="arrowDown" xlink:href="#dirArrow" transform="rotate(180) translate(-30 -48)" onmousedown="handlePan(0,1)">
                  <use xlink:href="#rim" fill="#404040">
                        <set attributeName="fill" to="#808080" begin="arrowDown.mouseover" end="arrowDown.mouseout"/>
                  </use>
                  <path fill="none" stroke="white" stroke-width="1.5" d="M0,-3.0v7 M-2.5,-0.5L0,-3.0L2.5,-0.5"/>
                </g>
                <g id="arrowLeft" xlink:href="#dirArrow" transform="rotate(270) translate(-36 17)" onmousedown="handlePan(-1,0)">
                  <use xlink:href="#rim" fill="#404040">
                        <set attributeName="fill" to="#808080" begin="arrowLeft.mouseover" end="arrowLeft.mouseout"/>
                  </use>
                  <path fill="none" stroke="white" stroke-width="1.5" d="M0,-3.0v7 M-2.5,-0.5L0,-3.0L2.5,-0.5"/>
                </g>
        </g>
        <svg viewBox="0 0 15 15" width="100%" height="30px" preserveAspectRatio="xMaxYMin meet">
         <g id="arrow_out" transform="scale(0.3 0.3)">
          <a xlink:href="classinterpreter_1_1_s_logo_result_merger_a8c0879f8ab9d66e54b0317229ee6aa77_icgraph_org.svg" target="_base">
           <rect id="button" ry="5" rx="5" y="6" x="6" height="38" width="38"
                fill="#f2f5e9" fill-opacity="0.5" stroke="#606060" stroke-width="1.0"/>
           <path id="arrow"
             d="M 11.500037,31.436501 C 11.940474,20.09759 22.043105,11.32322 32.158766,21.979434 L 37.068811,17.246167 C 37.068811,17.246167 37.088388,32 37.088388,32 L 22.160133,31.978069 C 22.160133,31.978069 26.997745,27.140456 26.997745,27.140456 C 18.528582,18.264221 13.291696,25.230495 11.500037,31.436501 z"
             style="fill:#404040;"/>
          </a>
         </g>
        </svg>
</svg>
