<?xml version="1.0" encoding="UTF-8" standalone="no"?>
<!DOCTYPE svg PUBLIC "-//W3C//DTD SVG 1.1//EN"
 "http://www.w3.org/Graphics/SVG/1.1/DTD/svg11.dtd">
<!-- Generated by graphviz version 2.36.0 (20140111.2315)
 -->
<!-- Title: viewcontroller.View.loadSerialisedWorkspace Pages: 1 -->
<svg width="652pt" height="38pt"
 viewBox="0.00 0.00 652.00 38.00" xmlns="http://www.w3.org/2000/svg" xmlns:xlink="http://www.w3.org/1999/xlink">
<g id="graph0" class="graph" transform="scale(1 1) rotate(0) translate(4 34)">
<title>viewcontroller.View.loadSerialisedWorkspace</title>
<polygon fill="white" stroke="none" points="-4,4 -4,-34 648,-34 648,4 -4,4"/>
<!-- Node1 -->
<g id="node1" class="node"><title>Node1</title>
<polygon fill="#bfbfbf" stroke="black" points="0,-0 0,-30 128,-30 128,-0 0,-0"/>
<text text-anchor="start" x="8" y="-18" font-family="Helvetica,sans-Serif" font-size="10.00">viewcontroller.View.load</text>
<text text-anchor="middle" x="64" y="-7" font-family="Helvetica,sans-Serif" font-size="10.00">SerialisedWorkspace</text>
</g>
<!-- Node2 -->
<g id="node2" class="node"><title>Node2</title>
<g id="a_node2"><a xlink:href="../../da/d4e/classviewcontroller_1_1_view.html#a3ce37900baf65c2a31c0a2a7d5349aae" target="_top" xlink:title="viewcontroller.View.load\lWorkspace">
<polygon fill="white" stroke="black" points="164,-0 164,-30 292,-30 292,-0 164,-0"/>
<text text-anchor="start" x="172" y="-18" font-family="Helvetica,sans-Serif" font-size="10.00">viewcontroller.View.load</text>
<text text-anchor="middle" x="228" y="-7" font-family="Helvetica,sans-Serif" font-size="10.00">Workspace</text>
</a>
</g>
</g>
<!-- Node1&#45;&gt;Node2 -->
<g id="edge1" class="edge"><title>Node1&#45;&gt;Node2</title>
<path fill="none" stroke="midnightblue" d="M138.374,-15C146.865,-15 155.469,-15 163.808,-15"/>
<polygon fill="midnightblue" stroke="midnightblue" points="138.097,-11.5001 128.097,-15 138.097,-18.5001 138.097,-11.5001"/>
</g>
<!-- Node3 -->
<g id="node3" class="node"><title>Node3</title>
<g id="a_node3"><a xlink:href="../../df/df9/classviewcontroller_1_1_s_logo_menu_bar.html#aea535ae86d7ac7a2fffe549d7bdf2a1d" target="_top" xlink:title="viewcontroller.SLogoMenu\lBar.initializeFileMenu">
<polygon fill="white" stroke="black" points="328,-0 328,-30 468,-30 468,-0 328,-0"/>
<text text-anchor="start" x="336" y="-18" font-family="Helvetica,sans-Serif" font-size="10.00">viewcontroller.SLogoMenu</text>
<text text-anchor="middle" x="398" y="-7" font-family="Helvetica,sans-Serif" font-size="10.00">Bar.initializeFileMenu</text>
</a>
</g>
</g>
<!-- Node2&#45;&gt;Node3 -->
<g id="edge2" class="edge"><title>Node2&#45;&gt;Node3</title>
<path fill="none" stroke="midnightblue" d="M302.05,-15C310.66,-15 319.428,-15 327.98,-15"/>
<polygon fill="midnightblue" stroke="midnightblue" points="302.035,-11.5001 292.035,-15 302.035,-18.5001 302.035,-11.5001"/>
</g>
<!-- Node4 -->
<g id="node4" class="node"><title>Node4</title>
<g id="a_node4"><a xlink:href="../../df/df9/classviewcontroller_1_1_s_logo_menu_bar.html#a75b45d0a4b08de5ff8588fc15b2f14fe" target="_top" xlink:title="viewcontroller.SLogoMenu\lBar.SLogoMenuBar">
<polygon fill="white" stroke="black" points="504,-0 504,-30 644,-30 644,-0 504,-0"/>
<text text-anchor="start" x="512" y="-18" font-family="Helvetica,sans-Serif" font-size="10.00">viewcontroller.SLogoMenu</text>
<text text-anchor="middle" x="574" y="-7" font-family="Helvetica,sans-Serif" font-size="10.00">Bar.SLogoMenuBar</text>
</a>
</g>
</g>
<!-- Node3&#45;&gt;Node4 -->
<g id="edge3" class="edge"><title>Node3&#45;&gt;Node4</title>
<path fill="none" stroke="midnightblue" d="M478.035,-15C486.625,-15 495.319,-15 503.779,-15"/>
<polygon fill="midnightblue" stroke="midnightblue" points="478.019,-11.5001 468.019,-15 478.019,-18.5001 478.019,-11.5001"/>
</g>
</g>
</svg>
