<?xml version="1.0" encoding="UTF-8" standalone="no"?>
<!DOCTYPE svg PUBLIC "-//W3C//DTD SVG 1.1//EN"
 "http://www.w3.org/Graphics/SVG/1.1/DTD/svg11.dtd">
<!-- Generated by graphviz version 2.36.0 (20140111.2315)
 -->
<!-- Title: viewcontroller.View.addNewWorkspace Pages: 1 -->
<svg width="622pt" height="126pt"
 viewBox="0.00 0.00 622.00 126.00" xmlns="http://www.w3.org/2000/svg" xmlns:xlink="http://www.w3.org/1999/xlink">
<g id="graph0" class="graph" transform="scale(1 1) rotate(0) translate(4 122)">
<title>viewcontroller.View.addNewWorkspace</title>
<polygon fill="white" stroke="none" points="-4,4 -4,-122 618,-122 618,4 -4,4"/>
<!-- Node1 -->
<g id="node1" class="node"><title>Node1</title>
<polygon fill="#bfbfbf" stroke="black" points="0,-39 0,-69 146,-69 146,-39 0,-39"/>
<text text-anchor="start" x="8" y="-57" font-family="Helvetica,sans-Serif" font-size="10.00">viewcontroller.View.addNew</text>
<text text-anchor="middle" x="73" y="-46" font-family="Helvetica,sans-Serif" font-size="10.00">Workspace</text>
</g>
<!-- Node2 -->
<g id="node2" class="node"><title>Node2</title>
<g id="a_node2"><a xlink:href="../../da/d4e/classviewcontroller_1_1_view.html#ad16a35ae1b446b10bc9cc74395e0aeab" target="_top" xlink:title="viewcontroller.View.addWorkspace">
<polygon fill="white" stroke="black" points="182.5,-44.5 182.5,-63.5 359.5,-63.5 359.5,-44.5 182.5,-44.5"/>
<text text-anchor="middle" x="271" y="-51.5" font-family="Helvetica,sans-Serif" font-size="10.00">viewcontroller.View.addWorkspace</text>
</a>
</g>
</g>
<!-- Node1&#45;&gt;Node2 -->
<g id="edge1" class="edge"><title>Node1&#45;&gt;Node2</title>
<path fill="none" stroke="midnightblue" d="M146.148,-54C154.621,-54 163.372,-54 172.121,-54"/>
<polygon fill="midnightblue" stroke="midnightblue" points="172.375,-57.5001 182.375,-54 172.375,-50.5001 172.375,-57.5001"/>
</g>
<!-- Node3 -->
<g id="node3" class="node"><title>Node3</title>
<g id="a_node3"><a xlink:href="../../d9/dd7/classviewcontroller_1_1_g_u_i_reference_library.html#ac147f33c0bfa0252d247d7c0174ff688" target="_top" xlink:title="viewcontroller.GUIReference\lLibrary.getStringTranslation">
<polygon fill="white" stroke="black" points="430.5,-88 430.5,-118 579.5,-118 579.5,-88 430.5,-88"/>
<text text-anchor="start" x="438.5" y="-106" font-family="Helvetica,sans-Serif" font-size="10.00">viewcontroller.GUIReference</text>
<text text-anchor="middle" x="505" y="-95" font-family="Helvetica,sans-Serif" font-size="10.00">Library.getStringTranslation</text>
</a>
</g>
</g>
<!-- Node2&#45;&gt;Node3 -->
<g id="edge2" class="edge"><title>Node2&#45;&gt;Node3</title>
<path fill="none" stroke="midnightblue" d="M317.007,-63.5058C346.998,-69.8402 387.277,-78.3473 422.771,-85.8438"/>
<polygon fill="midnightblue" stroke="midnightblue" points="422.135,-89.2866 432.642,-87.9287 423.581,-82.4377 422.135,-89.2866"/>
</g>
<!-- Node4 -->
<g id="node4" class="node"><title>Node4</title>
<g id="a_node4"><a xlink:href="../../d8/d3a/classviewcontroller_1_1_workspace.html#a27576951466201164923fcc7b190a42e" target="_top" xlink:title="viewcontroller.Workspace.get\lViewController">
<polygon fill="white" stroke="black" points="428,-39 428,-69 582,-69 582,-39 428,-39"/>
<text text-anchor="start" x="436" y="-57" font-family="Helvetica,sans-Serif" font-size="10.00">viewcontroller.Workspace.get</text>
<text text-anchor="middle" x="505" y="-46" font-family="Helvetica,sans-Serif" font-size="10.00">ViewController</text>
</a>
</g>
</g>
<!-- Node2&#45;&gt;Node4 -->
<g id="edge3" class="edge"><title>Node2&#45;&gt;Node4</title>
<path fill="none" stroke="midnightblue" d="M359.709,-54C378.744,-54 398.861,-54 417.835,-54"/>
<polygon fill="midnightblue" stroke="midnightblue" points="417.942,-57.5001 427.942,-54 417.942,-50.5001 417.942,-57.5001"/>
</g>
<!-- Node5 -->
<g id="node5" class="node"><title>Node5</title>
<g id="a_node5"><a xlink:href="../../d3/d67/classviewcontroller_1_1_main_view_controller.html#ab2d2098053847d03306f31284a351b95" target="_top" xlink:title="viewcontroller.MainViewController.getNode">
<polygon fill="white" stroke="black" points="396,-0.5 396,-19.5 614,-19.5 614,-0.5 396,-0.5"/>
<text text-anchor="middle" x="505" y="-7.5" font-family="Helvetica,sans-Serif" font-size="10.00">viewcontroller.MainViewController.getNode</text>
</a>
</g>
</g>
<!-- Node2&#45;&gt;Node5 -->
<g id="edge4" class="edge"><title>Node2&#45;&gt;Node5</title>
<path fill="none" stroke="midnightblue" d="M320.865,-44.448C343.685,-40.0113 371.224,-34.6917 396,-30 410.842,-27.1894 426.841,-24.2031 441.858,-21.419"/>
<polygon fill="midnightblue" stroke="midnightblue" points="442.876,-24.7901 452.072,-19.5285 441.602,-17.907 442.876,-24.7901"/>
</g>
</g>
</svg>
