<?xml version="1.0" encoding="UTF-8" standalone="no"?>
<!DOCTYPE svg PUBLIC "-//W3C//DTD SVG 1.1//EN"
 "http://www.w3.org/Graphics/SVG/1.1/DTD/svg11.dtd">
<!-- Generated by graphviz version 2.36.0 (20140111.2315)
 -->
<!-- Title: viewcontroller.View.changeTurtleImages Pages: 1 -->
<!--zoomable 160 -->
<svg id="main" version="1.1" xmlns="http://www.w3.org/2000/svg" xmlns:xlink="http://www.w3.org/1999/xlink" xml:space="preserve" onload="init(evt)">
<style type="text/css"><![CDATA[
.edge:hover path { stroke: red; }
.edge:hover polygon { stroke: red; fill: red; }
]]></style>
<script type="text/javascript"><![CDATA[
var edges = document.getElementsByTagName('g');
if (edges && edges.length) {
  for (var i=0;i<edges.length;i++) {
    if (edges[i].id.substr(0,4)=='edge') {
      edges[i].setAttribute('class','edge');
    }
  }
}
]]></script>
        <defs>
                <circle id="rim" cx="0" cy="0" r="7"/>
                <circle id="rim2" cx="0" cy="0" r="3.5"/>
                <g id="zoomPlus">
                        <use xlink:href="#rim" fill="#404040">
                                <set attributeName="fill" to="#808080" begin="zoomplus.mouseover" end="zoomplus.mouseout"/>
                        </use>
                        <path d="M-4,0h8M0,-4v8" fill="none" stroke="white" stroke-width="1.5" pointer-events="none"/>
                </g>
                <g id="zoomMin">
                        <use xlink:href="#rim" fill="#404040">
                                <set attributeName="fill" to="#808080" begin="zoomminus.mouseover" end="zoomminus.mouseout"/>
                        </use>
                        <path d="M-4,0h8" fill="none" stroke="white" stroke-width="1.5" pointer-events="none"/>
                </g>
                <g id="dirArrow">
                        <path fill="none" stroke="white" stroke-width="1.5" d="M0,-3.0v7 M-2.5,-0.5L0,-3.0L2.5,-0.5"/>
                </g>
               <g id="resetDef">
                       <use xlink:href="#rim2" fill="#404040">
                               <set attributeName="fill" to="#808080" begin="reset.mouseover" end="reset.mouseout"/>
                       </use>
               </g>
        </defs>

<script type="text/javascript">
var viewWidth = 1120;
var viewHeight = 160;
var sectionId = 'dynsection-8';
</script>
<script xlink:href="../../svgpan.js"/>
<svg id="graph" class="graph">
<g id="viewport">
<title>viewcontroller.View.changeTurtleImages</title>
<polygon fill="white" stroke="none" points="-4,4 -4,-156 1116,-156 1116,4 -4,4"/>
<!-- Node1 -->
<g id="node1" class="node"><title>Node1</title>
<polygon fill="#bfbfbf" stroke="black" points="0.5,-73 0.5,-103 143.5,-103 143.5,-73 0.5,-73"/>
<text text-anchor="start" x="8.5" y="-91" font-family="Helvetica,sans-Serif" font-size="10.00">viewcontroller.View.change</text>
<text text-anchor="middle" x="72" y="-80" font-family="Helvetica,sans-Serif" font-size="10.00">TurtleImages</text>
</g>
<!-- Node2 -->
<g id="node2" class="node"><title>Node2</title>
<g id="a_node2"><a xlink:href="../../de/d21/classmodel_1_1_main_model.html#a2000a0ce9eabac7a21d93e46d51b10a4" target="_top" xlink:title="model.MainModel.changeTurtle\lImages">
<polygon fill="white" stroke="black" points="180,-122 180,-152 344,-152 344,-122 180,-122"/>
<text text-anchor="start" x="188" y="-140" font-family="Helvetica,sans-Serif" font-size="10.00">model.MainModel.changeTurtle</text>
<text text-anchor="middle" x="262" y="-129" font-family="Helvetica,sans-Serif" font-size="10.00">Images</text>
</a>
</g>
</g>
<!-- Node1&#45;&gt;Node2 -->
<g id="edge1" class="edge"><title>Node1&#45;&gt;Node2</title>
<path fill="none" stroke="midnightblue" d="M130.684,-103.035C150.534,-108.208 172.937,-114.048 193.499,-119.407"/>
<polygon fill="midnightblue" stroke="midnightblue" points="192.866,-122.858 203.425,-121.994 194.631,-116.085 192.866,-122.858"/>
</g>
<!-- Node3 -->
<g id="node3" class="node"><title>Node3</title>
<g id="a_node3"><a xlink:href="../../d8/d3a/classviewcontroller_1_1_workspace.html#a1b461756646e982d8efbb5a286576c7a" target="_top" xlink:title="viewcontroller.Workspace.get\lMainModel">
<polygon fill="white" stroke="black" points="185,-73 185,-103 339,-103 339,-73 185,-73"/>
<text text-anchor="start" x="193" y="-91" font-family="Helvetica,sans-Serif" font-size="10.00">viewcontroller.Workspace.get</text>
<text text-anchor="middle" x="262" y="-80" font-family="Helvetica,sans-Serif" font-size="10.00">MainModel</text>
</a>
</g>
</g>
<!-- Node1&#45;&gt;Node3 -->
<g id="edge2" class="edge"><title>Node1&#45;&gt;Node3</title>
<path fill="none" stroke="midnightblue" d="M143.539,-88C153.62,-88 164.085,-88 174.429,-88"/>
<polygon fill="midnightblue" stroke="midnightblue" points="174.714,-91.5001 184.714,-88 174.714,-84.5001 174.714,-91.5001"/>
</g>
<!-- Node4 -->
<g id="node4" class="node"><title>Node4</title>
<g id="a_node4"><a xlink:href="../../da/d4e/classviewcontroller_1_1_view.html#a9ad52fdebf34b834ab51d0a969833e75" target="_top" xlink:title="viewcontroller.View.noCurrent\lWorkspace">
<polygon fill="white" stroke="black" points="184,-24 184,-54 340,-54 340,-24 184,-24"/>
<text text-anchor="start" x="192" y="-42" font-family="Helvetica,sans-Serif" font-size="10.00">viewcontroller.View.noCurrent</text>
<text text-anchor="middle" x="262" y="-31" font-family="Helvetica,sans-Serif" font-size="10.00">Workspace</text>
</a>
</g>
</g>
<!-- Node1&#45;&gt;Node4 -->
<g id="edge3" class="edge"><title>Node1&#45;&gt;Node4</title>
<path fill="none" stroke="midnightblue" d="M130.684,-72.9654C150.534,-67.7917 172.937,-61.9525 193.499,-56.5934"/>
<polygon fill="midnightblue" stroke="midnightblue" points="194.631,-59.9152 203.425,-54.0062 192.866,-53.1415 194.631,-59.9152"/>
</g>
<!-- Node5 -->
<g id="node5" class="node"><title>Node5</title>
<g id="a_node5"><a xlink:href="../../da/d4e/classviewcontroller_1_1_view.html#a98e7b6a5716e94a0052d7bb51dc3a404" target="_top" xlink:title="viewcontroller.View.show\lMessage">
<polygon fill="white" stroke="black" points="380,-24 380,-54 512,-54 512,-24 380,-24"/>
<text text-anchor="start" x="388" y="-42" font-family="Helvetica,sans-Serif" font-size="10.00">viewcontroller.View.show</text>
<text text-anchor="middle" x="446" y="-31" font-family="Helvetica,sans-Serif" font-size="10.00">Message</text>
</a>
</g>
</g>
<!-- Node4&#45;&gt;Node5 -->
<g id="edge4" class="edge"><title>Node4&#45;&gt;Node5</title>
<path fill="none" stroke="midnightblue" d="M340.184,-39C349.964,-39 359.961,-39 369.71,-39"/>
<polygon fill="midnightblue" stroke="midnightblue" points="369.76,-42.5001 379.76,-39 369.76,-35.5001 369.76,-42.5001"/>
</g>
<!-- Node6 -->
<g id="node6" class="node"><title>Node6</title>
<g id="a_node6"><a xlink:href="../../d6/dd4/classapplication_1_1_message_box.html#a272fc424b595a91a6d2048981ac95e5b" target="_top" xlink:title="application.MessageBox.show">
<polygon fill="white" stroke="black" points="548.5,-29.5 548.5,-48.5 707.5,-48.5 707.5,-29.5 548.5,-29.5"/>
<text text-anchor="middle" x="628" y="-36.5" font-family="Helvetica,sans-Serif" font-size="10.00">application.MessageBox.show</text>
</a>
</g>
</g>
<!-- Node5&#45;&gt;Node6 -->
<g id="edge5" class="edge"><title>Node5&#45;&gt;Node6</title>
<path fill="none" stroke="midnightblue" d="M512.239,-39C520.699,-39 529.477,-39 538.238,-39"/>
<polygon fill="midnightblue" stroke="midnightblue" points="538.497,-42.5001 548.497,-39 538.497,-35.5001 538.497,-42.5001"/>
</g>
<!-- Node7 -->
<g id="node7" class="node"><title>Node7</title>
<g id="a_node7"><a xlink:href="../../d6/dd4/classapplication_1_1_message_box.html#a6c41f7d51b489df9b0a577d1a318c58d" target="_top" xlink:title="application.MessageBox.create\lMessageBox">
<polygon fill="white" stroke="black" points="744,-24 744,-54 910,-54 910,-24 744,-24"/>
<text text-anchor="start" x="752" y="-42" font-family="Helvetica,sans-Serif" font-size="10.00">application.MessageBox.create</text>
<text text-anchor="middle" x="827" y="-31" font-family="Helvetica,sans-Serif" font-size="10.00">MessageBox</text>
</a>
</g>
</g>
<!-- Node6&#45;&gt;Node7 -->
<g id="edge6" class="edge"><title>Node6&#45;&gt;Node7</title>
<path fill="none" stroke="midnightblue" d="M707.709,-39C716.259,-39 725.017,-39 733.71,-39"/>
<polygon fill="midnightblue" stroke="midnightblue" points="733.869,-42.5001 743.869,-39 733.869,-35.5001 733.869,-42.5001"/>
</g>
<!-- Node8 -->
<g id="node8" class="node"><title>Node8</title>
<g id="a_node8"><a xlink:href="../../d6/dd4/classapplication_1_1_message_box.html#ac3b708a4c65b8243168425667649c221" target="_top" xlink:title="application.MessageBox.create\lMessageText">
<polygon fill="white" stroke="black" points="946,-49 946,-79 1112,-79 1112,-49 946,-49"/>
<text text-anchor="start" x="954" y="-67" font-family="Helvetica,sans-Serif" font-size="10.00">application.MessageBox.create</text>
<text text-anchor="middle" x="1029" y="-56" font-family="Helvetica,sans-Serif" font-size="10.00">MessageText</text>
</a>
</g>
</g>
<!-- Node7&#45;&gt;Node8 -->
<g id="edge7" class="edge"><title>Node7&#45;&gt;Node8</title>
<path fill="none" stroke="midnightblue" d="M910.213,-49.2767C918.654,-50.3318 927.27,-51.4087 935.809,-52.4761"/>
<polygon fill="midnightblue" stroke="midnightblue" points="935.426,-55.9554 945.783,-53.7228 936.294,-49.0094 935.426,-55.9554"/>
</g>
<!-- Node9 -->
<g id="node9" class="node"><title>Node9</title>
<g id="a_node9"><a xlink:href="../../d6/dd4/classapplication_1_1_message_box.html#a8e5e69eeb3a25bd743a9b376002f875e" target="_top" xlink:title="application.MessageBox.create\lOkayButton">
<polygon fill="white" stroke="black" points="946,-0 946,-30 1112,-30 1112,-0 946,-0"/>
<text text-anchor="start" x="954" y="-18" font-family="Helvetica,sans-Serif" font-size="10.00">application.MessageBox.create</text>
<text text-anchor="middle" x="1029" y="-7" font-family="Helvetica,sans-Serif" font-size="10.00">OkayButton</text>
</a>
</g>
</g>
<!-- Node7&#45;&gt;Node9 -->
<g id="edge8" class="edge"><title>Node7&#45;&gt;Node9</title>
<path fill="none" stroke="midnightblue" d="M910.213,-29.1344C918.654,-28.1215 927.27,-27.0876 935.809,-26.063"/>
<polygon fill="midnightblue" stroke="midnightblue" points="936.271,-29.5327 945.783,-24.8661 935.437,-22.5826 936.271,-29.5327"/>
</g>
</g>
</svg>
        <g id="navigator" transform="translate(0 0)" fill="#404254">
                <rect fill="#f2f5e9" fill-opacity="0.5" stroke="#606060" stroke-width=".5" x="0" y="0" width="60" height="60"/>
                <use id="zoomplus" xlink:href="#zoomPlus" x="17" y="9" onmousedown="handleZoom(evt,'in')"/>
                <use id="zoomminus" xlink:href="#zoomMin" x="42" y="9" onmousedown="handleZoom(evt,'out')"/>
                <use id="reset" xlink:href="#resetDef" x="30" y="36" onmousedown="handleReset()"/>
                <g id="arrowUp" xlink:href="#dirArrow" transform="translate(30 24)" onmousedown="handlePan(0,-1)">
                  <use xlink:href="#rim" fill="#404040">
                        <set attributeName="fill" to="#808080" begin="arrowUp.mouseover" end="arrowUp.mouseout"/>
                  </use>
                  <path fill="none" stroke="white" stroke-width="1.5" d="M0,-3.0v7 M-2.5,-0.5L0,-3.0L2.5,-0.5"/>
                </g>
                <g id="arrowRight" xlink:href="#dirArrow" transform="rotate(90) translate(36 -43)" onmousedown="handlePan(1,0)">
                  <use xlink:href="#rim" fill="#404040">
                        <set attributeName="fill" to="#808080" begin="arrowRight.mouseover" end="arrowRight.mouseout"/>
                  </use>
                  <path fill="none" stroke="white" stroke-width="1.5" d="M0,-3.0v7 M-2.5,-0.5L0,-3.0L2.5,-0.5"/>
                </g>
                <g id="arrowDown" xlink:href="#dirArrow" transform="rotate(180) translate(-30 -48)" onmousedown="handlePan(0,1)">
                  <use xlink:href="#rim" fill="#404040">
                        <set attributeName="fill" to="#808080" begin="arrowDown.mouseover" end="arrowDown.mouseout"/>
                  </use>
                  <path fill="none" stroke="white" stroke-width="1.5" d="M0,-3.0v7 M-2.5,-0.5L0,-3.0L2.5,-0.5"/>
                </g>
                <g id="arrowLeft" xlink:href="#dirArrow" transform="rotate(270) translate(-36 17)" onmousedown="handlePan(-1,0)">
                  <use xlink:href="#rim" fill="#404040">
                        <set attributeName="fill" to="#808080" begin="arrowLeft.mouseover" end="arrowLeft.mouseout"/>
                  </use>
                  <path fill="none" stroke="white" stroke-width="1.5" d="M0,-3.0v7 M-2.5,-0.5L0,-3.0L2.5,-0.5"/>
                </g>
        </g>
        <svg viewBox="0 0 15 15" width="100%" height="30px" preserveAspectRatio="xMaxYMin meet">
         <g id="arrow_out" transform="scale(0.3 0.3)">
          <a xlink:href="classviewcontroller_1_1_view_a89076f3aec0df7ef97f43fef2912e54f_cgraph_org.svg" target="_base">
           <rect id="button" ry="5" rx="5" y="6" x="6" height="38" width="38"
                fill="#f2f5e9" fill-opacity="0.5" stroke="#606060" stroke-width="1.0"/>
           <path id="arrow"
             d="M 11.500037,31.436501 C 11.940474,20.09759 22.043105,11.32322 32.158766,21.979434 L 37.068811,17.246167 C 37.068811,17.246167 37.088388,32 37.088388,32 L 22.160133,31.978069 C 22.160133,31.978069 26.997745,27.140456 26.997745,27.140456 C 18.528582,18.264221 13.291696,25.230495 11.500037,31.436501 z"
             style="fill:#404040;"/>
          </a>
         </g>
        </svg>
</svg>
