<?xml version="1.0" encoding="UTF-8" standalone="no"?>
<!DOCTYPE svg PUBLIC "-//W3C//DTD SVG 1.1//EN"
 "http://www.w3.org/Graphics/SVG/1.1/DTD/svg11.dtd">
<!-- Generated by graphviz version 2.36.0 (20140111.2315)
 -->
<!-- Title: viewcontroller.View.init Pages: 1 -->
<svg width="534pt" height="38pt"
 viewBox="0.00 0.00 534.00 38.00" xmlns="http://www.w3.org/2000/svg" xmlns:xlink="http://www.w3.org/1999/xlink">
<g id="graph0" class="graph" transform="scale(1 1) rotate(0) translate(4 34)">
<title>viewcontroller.View.init</title>
<polygon fill="white" stroke="none" points="-4,4 -4,-34 530,-34 530,4 -4,4"/>
<!-- Node1 -->
<g id="node1" class="node"><title>Node1</title>
<polygon fill="#bfbfbf" stroke="black" points="0,-5.5 0,-24.5 122,-24.5 122,-5.5 0,-5.5"/>
<text text-anchor="middle" x="61" y="-12.5" font-family="Helvetica,sans-Serif" font-size="10.00">viewcontroller.View.init</text>
</g>
<!-- Node2 -->
<g id="node2" class="node"><title>Node2</title>
<g id="a_node2"><a xlink:href="../../d2/d5b/classapplication_1_1_start_menu.html#a087587d7e5be9ed034756043019f7291" target="_top" xlink:title="application.StartMenu.create\lOkayButton">
<polygon fill="white" stroke="black" points="158.5,-0 158.5,-30 313.5,-30 313.5,-0 158.5,-0"/>
<text text-anchor="start" x="166.5" y="-18" font-family="Helvetica,sans-Serif" font-size="10.00">application.StartMenu.create</text>
<text text-anchor="middle" x="236" y="-7" font-family="Helvetica,sans-Serif" font-size="10.00">OkayButton</text>
</a>
</g>
</g>
<!-- Node1&#45;&gt;Node2 -->
<g id="edge1" class="edge"><title>Node1&#45;&gt;Node2</title>
<path fill="none" stroke="midnightblue" d="M132.051,-15C140.702,-15 149.581,-15 158.325,-15"/>
<polygon fill="midnightblue" stroke="midnightblue" points="132.022,-11.5001 122.021,-15 132.021,-18.5001 132.022,-11.5001"/>
</g>
<!-- Node3 -->
<g id="node3" class="node"><title>Node3</title>
<g id="a_node3"><a xlink:href="../../d2/d5b/classapplication_1_1_start_menu.html#abab4304b82e2ece96cc971c81695e16e" target="_top" xlink:title="application.StartMenu.StartMenu">
<polygon fill="white" stroke="black" points="350.5,-5.5 350.5,-24.5 525.5,-24.5 525.5,-5.5 350.5,-5.5"/>
<text text-anchor="middle" x="438" y="-12.5" font-family="Helvetica,sans-Serif" font-size="10.00">application.StartMenu.StartMenu</text>
</a>
</g>
</g>
<!-- Node2&#45;&gt;Node3 -->
<g id="edge2" class="edge"><title>Node2&#45;&gt;Node3</title>
<path fill="none" stroke="midnightblue" d="M323.98,-15C332.759,-15 341.675,-15 350.449,-15"/>
<polygon fill="midnightblue" stroke="midnightblue" points="323.753,-11.5001 313.753,-15 323.753,-18.5001 323.753,-11.5001"/>
</g>
</g>
</svg>
