<?xml version="1.0" encoding="UTF-8" standalone="no"?>
<!DOCTYPE svg PUBLIC "-//W3C//DTD SVG 1.1//EN"
 "http://www.w3.org/Graphics/SVG/1.1/DTD/svg11.dtd">
<!-- Generated by graphviz version 2.36.0 (20140111.2315)
 -->
<!-- Title: viewcontroller.View.shit Pages: 1 -->
<svg width="746pt" height="238pt"
 viewBox="0.00 0.00 746.00 238.00" xmlns="http://www.w3.org/2000/svg" xmlns:xlink="http://www.w3.org/1999/xlink">
<g id="graph0" class="graph" transform="scale(1 1) rotate(0) translate(4 234)">
<title>viewcontroller.View.shit</title>
<polygon fill="white" stroke="none" points="-4,4 -4,-234 742,-234 742,4 -4,4"/>
<!-- Node1 -->
<g id="node1" class="node"><title>Node1</title>
<polygon fill="#bfbfbf" stroke="black" points="0.5,-166.5 0.5,-185.5 125.5,-185.5 125.5,-166.5 0.5,-166.5"/>
<text text-anchor="middle" x="63" y="-173.5" font-family="Helvetica,sans-Serif" font-size="10.00">viewcontroller.View.shit</text>
</g>
<!-- Node2 -->
<g id="node2" class="node"><title>Node2</title>
<g id="a_node2"><a xlink:href="../../d8/d90/classapplication_1_1_form.html#a1ac739cc4abecfc8d419d238fc4cb1b1" target="_top" xlink:title="application.Form.close">
<polygon fill="white" stroke="black" points="178,-210.5 178,-229.5 302,-229.5 302,-210.5 178,-210.5"/>
<text text-anchor="middle" x="240" y="-217.5" font-family="Helvetica,sans-Serif" font-size="10.00">application.Form.close</text>
</a>
</g>
</g>
<!-- Node1&#45;&gt;Node2 -->
<g id="edge1" class="edge"><title>Node1&#45;&gt;Node2</title>
<path fill="none" stroke="midnightblue" d="M101.972,-185.547C128.115,-192.12 163.053,-200.905 191.107,-207.958"/>
<polygon fill="midnightblue" stroke="midnightblue" points="190.55,-211.427 201.102,-210.471 192.257,-204.638 190.55,-211.427"/>
</g>
<!-- Node3 -->
<g id="node3" class="node"><title>Node3</title>
<g id="a_node3"><a xlink:href="../../d8/d3a/classviewcontroller_1_1_workspace.html#a1b461756646e982d8efbb5a286576c7a" target="_top" xlink:title="viewcontroller.Workspace.get\lMainModel">
<polygon fill="white" stroke="black" points="163,-161 163,-191 317,-191 317,-161 163,-161"/>
<text text-anchor="start" x="171" y="-179" font-family="Helvetica,sans-Serif" font-size="10.00">viewcontroller.Workspace.get</text>
<text text-anchor="middle" x="240" y="-168" font-family="Helvetica,sans-Serif" font-size="10.00">MainModel</text>
</a>
</g>
</g>
<!-- Node1&#45;&gt;Node3 -->
<g id="edge2" class="edge"><title>Node1&#45;&gt;Node3</title>
<path fill="none" stroke="midnightblue" d="M125.698,-176C134.421,-176 143.52,-176 152.602,-176"/>
<polygon fill="midnightblue" stroke="midnightblue" points="152.829,-179.5 162.829,-176 152.829,-172.5 152.829,-179.5"/>
</g>
<!-- Node4 -->
<g id="node4" class="node"><title>Node4</title>
<g id="a_node4"><a xlink:href="../../de/d21/classmodel_1_1_main_model.html#a204ebf190cf6e56575b5d7ebf5691ad7" target="_top" xlink:title="model.MainModel.updatePen">
<polygon fill="white" stroke="black" points="162.5,-122.5 162.5,-141.5 317.5,-141.5 317.5,-122.5 162.5,-122.5"/>
<text text-anchor="middle" x="240" y="-129.5" font-family="Helvetica,sans-Serif" font-size="10.00">model.MainModel.updatePen</text>
</a>
</g>
</g>
<!-- Node1&#45;&gt;Node4 -->
<g id="edge3" class="edge"><title>Node1&#45;&gt;Node4</title>
<path fill="none" stroke="midnightblue" d="M101.972,-166.453C128.115,-159.88 163.053,-151.095 191.107,-144.042"/>
<polygon fill="midnightblue" stroke="midnightblue" points="192.257,-147.362 201.102,-141.529 190.55,-140.573 192.257,-147.362"/>
</g>
<!-- Node5 -->
<g id="node5" class="node"><title>Node5</title>
<g id="a_node5"><a xlink:href="../../de/d68/classapplication_1_1_pen_form_result.html#af1076dbdfbf821685beb0fbe8c83d9f4" target="_top" xlink:title="application.PenFormResult.get\lPenDash">
<polygon fill="white" stroke="black" points="354.5,-191 354.5,-221 515.5,-221 515.5,-191 354.5,-191"/>
<text text-anchor="start" x="362.5" y="-209" font-family="Helvetica,sans-Serif" font-size="10.00">application.PenFormResult.get</text>
<text text-anchor="middle" x="435" y="-198" font-family="Helvetica,sans-Serif" font-size="10.00">PenDash</text>
</a>
</g>
</g>
<!-- Node4&#45;&gt;Node5 -->
<g id="edge4" class="edge"><title>Node4&#45;&gt;Node5</title>
<path fill="none" stroke="midnightblue" d="M290.606,-141.568C299.969,-144.29 309.487,-147.717 318,-152 336.354,-161.234 335.877,-171.322 354,-181 358.192,-183.238 362.616,-185.313 367.145,-187.228"/>
<polygon fill="midnightblue" stroke="midnightblue" points="365.961,-190.523 376.547,-190.938 368.53,-184.012 365.961,-190.523"/>
</g>
<!-- Node6 -->
<g id="node6" class="node"><title>Node6</title>
<g id="a_node6"><a xlink:href="../../de/d68/classapplication_1_1_pen_form_result.html#a7ebac34c61209dee90451ac962d16fd5" target="_top" xlink:title="application.PenFormResult.get\lPenUp">
<polygon fill="white" stroke="black" points="354.5,-142 354.5,-172 515.5,-172 515.5,-142 354.5,-142"/>
<text text-anchor="start" x="362.5" y="-160" font-family="Helvetica,sans-Serif" font-size="10.00">application.PenFormResult.get</text>
<text text-anchor="middle" x="435" y="-149" font-family="Helvetica,sans-Serif" font-size="10.00">PenUp</text>
</a>
</g>
</g>
<!-- Node4&#45;&gt;Node6 -->
<g id="edge5" class="edge"><title>Node4&#45;&gt;Node6</title>
<path fill="none" stroke="midnightblue" d="M314.516,-141.523C324.263,-142.785 334.342,-144.091 344.324,-145.384"/>
<polygon fill="midnightblue" stroke="midnightblue" points="343.89,-148.857 354.257,-146.671 344.789,-141.915 343.89,-148.857"/>
</g>
<!-- Node7 -->
<g id="node7" class="node"><title>Node7</title>
<g id="a_node7"><a xlink:href="../../de/d68/classapplication_1_1_pen_form_result.html#af6022e0a69d50a96ee78f27043646053" target="_top" xlink:title="application.PenFormResult.get\lPenWidth">
<polygon fill="white" stroke="black" points="354.5,-93 354.5,-123 515.5,-123 515.5,-93 354.5,-93"/>
<text text-anchor="start" x="362.5" y="-111" font-family="Helvetica,sans-Serif" font-size="10.00">application.PenFormResult.get</text>
<text text-anchor="middle" x="435" y="-100" font-family="Helvetica,sans-Serif" font-size="10.00">PenWidth</text>
</a>
</g>
</g>
<!-- Node4&#45;&gt;Node7 -->
<g id="edge6" class="edge"><title>Node4&#45;&gt;Node7</title>
<path fill="none" stroke="midnightblue" d="M317.556,-122.48C326.349,-121.387 335.374,-120.264 344.32,-119.152"/>
<polygon fill="midnightblue" stroke="midnightblue" points="344.879,-122.609 354.371,-117.902 344.015,-115.663 344.879,-122.609"/>
</g>
<!-- Node8 -->
<g id="node8" class="node"><title>Node8</title>
<g id="a_node8"><a xlink:href="../../db/df2/classapplication_1_1_pen_form.html#ac805fbb2e32beca643b8195164353c82" target="_top" xlink:title="application.PenForm.getResult">
<polygon fill="white" stroke="black" points="354.5,-54.5 354.5,-73.5 515.5,-73.5 515.5,-54.5 354.5,-54.5"/>
<text text-anchor="middle" x="435" y="-61.5" font-family="Helvetica,sans-Serif" font-size="10.00">application.PenForm.getResult</text>
</a>
</g>
</g>
<!-- Node4&#45;&gt;Node8 -->
<g id="edge7" class="edge"><title>Node4&#45;&gt;Node8</title>
<path fill="none" stroke="midnightblue" d="M261.043,-122.352C283.35,-111.884 320.653,-95.1742 354,-84 362.482,-81.1578 371.589,-78.5115 380.512,-76.1349"/>
<polygon fill="midnightblue" stroke="midnightblue" points="381.653,-79.4551 390.463,-73.5701 379.906,-72.6766 381.653,-79.4551"/>
</g>
<!-- Node9 -->
<g id="node9" class="node"><title>Node9</title>
<g id="a_node9"><a xlink:href="../../da/da5/classapplication_1_1_drop_down_form_element.html#a4c3c66bc06516f9ff3466d4c08d37955" target="_top" xlink:title="application.DropDownForm\lElement.getSelectedValue">
<polygon fill="white" stroke="black" points="572,-98 572,-128 718,-128 718,-98 572,-98"/>
<text text-anchor="start" x="580" y="-116" font-family="Helvetica,sans-Serif" font-size="10.00">application.DropDownForm</text>
<text text-anchor="middle" x="645" y="-105" font-family="Helvetica,sans-Serif" font-size="10.00">Element.getSelectedValue</text>
</a>
</g>
</g>
<!-- Node8&#45;&gt;Node9 -->
<g id="edge8" class="edge"><title>Node8&#45;&gt;Node9</title>
<path fill="none" stroke="midnightblue" d="M476.598,-73.564C503.162,-79.8218 538.649,-88.1817 570.112,-95.5937"/>
<polygon fill="midnightblue" stroke="midnightblue" points="569.633,-99.0767 580.17,-97.963 571.239,-92.2632 569.633,-99.0767"/>
</g>
<!-- Node10 -->
<g id="node10" class="node"><title>Node10</title>
<g id="a_node10"><a xlink:href="../../d7/de6/classapplication_1_1_number_input_form_element.html#a4febe2c6736041a60d0515fad2036c52" target="_top" xlink:title="application.NumberInputForm\lElement.getSelectedValue">
<polygon fill="white" stroke="black" points="565.5,-49 565.5,-79 724.5,-79 724.5,-49 565.5,-49"/>
<text text-anchor="start" x="573.5" y="-67" font-family="Helvetica,sans-Serif" font-size="10.00">application.NumberInputForm</text>
<text text-anchor="middle" x="645" y="-56" font-family="Helvetica,sans-Serif" font-size="10.00">Element.getSelectedValue</text>
</a>
</g>
</g>
<!-- Node8&#45;&gt;Node10 -->
<g id="edge9" class="edge"><title>Node8&#45;&gt;Node10</title>
<path fill="none" stroke="midnightblue" d="M515.526,-64C528.504,-64 542.02,-64 555.203,-64"/>
<polygon fill="midnightblue" stroke="midnightblue" points="555.205,-67.5001 565.205,-64 555.205,-60.5001 555.205,-67.5001"/>
</g>
<!-- Node11 -->
<g id="node11" class="node"><title>Node11</title>
<g id="a_node11"><a xlink:href="../../df/d65/classapplication_1_1_toggle_form_element.html#a181fba0f0737bc4f22baf061a0c2a956" target="_top" xlink:title="application.ToggleFormElement.get\lSelectedValue">
<polygon fill="white" stroke="black" points="552.5,-0 552.5,-30 737.5,-30 737.5,-0 552.5,-0"/>
<text text-anchor="start" x="560.5" y="-18" font-family="Helvetica,sans-Serif" font-size="10.00">application.ToggleFormElement.get</text>
<text text-anchor="middle" x="645" y="-7" font-family="Helvetica,sans-Serif" font-size="10.00">SelectedValue</text>
</a>
</g>
</g>
<!-- Node8&#45;&gt;Node11 -->
<g id="edge10" class="edge"><title>Node8&#45;&gt;Node11</title>
<path fill="none" stroke="midnightblue" d="M476.598,-54.436C503.162,-48.1782 538.649,-39.8183 570.112,-32.4063"/>
<polygon fill="midnightblue" stroke="midnightblue" points="571.239,-35.7368 580.17,-30.037 569.633,-28.9233 571.239,-35.7368"/>
</g>
</g>
</svg>
