<?xml version="1.0" encoding="UTF-8" standalone="no"?>
<!DOCTYPE svg PUBLIC "-//W3C//DTD SVG 1.1//EN"
 "http://www.w3.org/Graphics/SVG/1.1/DTD/svg11.dtd">
<!-- Generated by graphviz version 2.36.0 (20140111.2315)
 -->
<!-- Title: viewcontroller.View.loadFile Pages: 1 -->
<svg width="1290pt" height="213pt"
 viewBox="0.00 0.00 1290.00 213.00" xmlns="http://www.w3.org/2000/svg" xmlns:xlink="http://www.w3.org/1999/xlink">
<g id="graph0" class="graph" transform="scale(1 1) rotate(0) translate(4 209)">
<title>viewcontroller.View.loadFile</title>
<polygon fill="white" stroke="none" points="-4,4 -4,-209 1286,-209 1286,4 -4,4"/>
<!-- Node1 -->
<g id="node1" class="node"><title>Node1</title>
<polygon fill="#bfbfbf" stroke="black" points="0.5,-82.5 0.5,-101.5 143.5,-101.5 143.5,-82.5 0.5,-82.5"/>
<text text-anchor="middle" x="72" y="-89.5" font-family="Helvetica,sans-Serif" font-size="10.00">viewcontroller.View.loadFile</text>
</g>
<!-- Node2 -->
<g id="node2" class="node"><title>Node2</title>
<g id="a_node2"><a xlink:href="../../d8/d3a/classviewcontroller_1_1_workspace.html#a27576951466201164923fcc7b190a42e" target="_top" xlink:title="viewcontroller.Workspace.get\lViewController">
<polygon fill="white" stroke="black" points="202,-175 202,-205 356,-205 356,-175 202,-175"/>
<text text-anchor="start" x="210" y="-193" font-family="Helvetica,sans-Serif" font-size="10.00">viewcontroller.Workspace.get</text>
<text text-anchor="middle" x="279" y="-182" font-family="Helvetica,sans-Serif" font-size="10.00">ViewController</text>
</a>
</g>
</g>
<!-- Node1&#45;&gt;Node2 -->
<g id="edge1" class="edge"><title>Node1&#45;&gt;Node2</title>
<path fill="none" stroke="midnightblue" d="M84.0751,-101.527C102.669,-117.048 141.881,-147.783 180,-165 185.433,-167.454 191.149,-169.697 196.977,-171.741"/>
<polygon fill="midnightblue" stroke="midnightblue" points="196.268,-175.193 206.861,-174.997 198.458,-168.544 196.268,-175.193"/>
</g>
<!-- Node3 -->
<g id="node3" class="node"><title>Node3</title>
<g id="a_node3"><a xlink:href="../../d3/d67/classviewcontroller_1_1_main_view_controller.html#a29ed3b9e1441359bc7ffb6eea450c7e9" target="_top" xlink:title="viewcontroller.MainViewController.load\lScript">
<polygon fill="white" stroke="black" points="180.5,-126 180.5,-156 377.5,-156 377.5,-126 180.5,-126"/>
<text text-anchor="start" x="188.5" y="-144" font-family="Helvetica,sans-Serif" font-size="10.00">viewcontroller.MainViewController.load</text>
<text text-anchor="middle" x="279" y="-133" font-family="Helvetica,sans-Serif" font-size="10.00">Script</text>
</a>
</g>
</g>
<!-- Node1&#45;&gt;Node3 -->
<g id="edge2" class="edge"><title>Node1&#45;&gt;Node3</title>
<path fill="none" stroke="midnightblue" d="M113.013,-101.564C139.193,-107.822 174.168,-116.182 205.178,-123.594"/>
<polygon fill="midnightblue" stroke="midnightblue" points="204.551,-127.042 215.09,-125.963 206.178,-120.234 204.551,-127.042"/>
</g>
<!-- Node6 -->
<g id="node6" class="node"><title>Node6</title>
<g id="a_node6"><a xlink:href="../../da/d4e/classviewcontroller_1_1_view.html#a9ad52fdebf34b834ab51d0a969833e75" target="_top" xlink:title="viewcontroller.View.noCurrent\lWorkspace">
<polygon fill="white" stroke="black" points="201,-77 201,-107 357,-107 357,-77 201,-77"/>
<text text-anchor="start" x="209" y="-95" font-family="Helvetica,sans-Serif" font-size="10.00">viewcontroller.View.noCurrent</text>
<text text-anchor="middle" x="279" y="-84" font-family="Helvetica,sans-Serif" font-size="10.00">Workspace</text>
</a>
</g>
</g>
<!-- Node1&#45;&gt;Node6 -->
<g id="edge5" class="edge"><title>Node1&#45;&gt;Node6</title>
<path fill="none" stroke="midnightblue" d="M143.549,-92C158.656,-92 174.791,-92 190.45,-92"/>
<polygon fill="midnightblue" stroke="midnightblue" points="190.656,-95.5001 200.656,-92 190.656,-88.5001 190.656,-95.5001"/>
</g>
<!-- Node7 -->
<g id="node7" class="node"><title>Node7</title>
<g id="a_node7"><a xlink:href="../../da/d4e/classviewcontroller_1_1_view.html#a98e7b6a5716e94a0052d7bb51dc3a404" target="_top" xlink:title="viewcontroller.View.show\lMessage">
<polygon fill="white" stroke="black" points="468,-53 468,-83 600,-83 600,-53 468,-53"/>
<text text-anchor="start" x="476" y="-71" font-family="Helvetica,sans-Serif" font-size="10.00">viewcontroller.View.show</text>
<text text-anchor="middle" x="534" y="-60" font-family="Helvetica,sans-Serif" font-size="10.00">Message</text>
</a>
</g>
</g>
<!-- Node1&#45;&gt;Node7 -->
<g id="edge12" class="edge"><title>Node1&#45;&gt;Node7</title>
<path fill="none" stroke="midnightblue" d="M105.439,-82.3727C126.479,-76.6397 154.605,-69.9272 180,-67 275.166,-56.0302 385.724,-58.8295 457.397,-62.673"/>
<polygon fill="midnightblue" stroke="midnightblue" points="457.504,-66.1842 467.683,-63.2461 457.893,-59.1951 457.504,-66.1842"/>
</g>
<!-- Node12 -->
<g id="node12" class="node"><title>Node12</title>
<g id="a_node12"><a xlink:href="../../da/d4e/classviewcontroller_1_1_view.html#a2cf38fe953a8a424eb5712b11ecbc57a" target="_top" xlink:title="viewcontroller.View.readFile">
<polygon fill="white" stroke="black" points="206.5,-0.5 206.5,-19.5 351.5,-19.5 351.5,-0.5 206.5,-0.5"/>
<text text-anchor="middle" x="279" y="-7.5" font-family="Helvetica,sans-Serif" font-size="10.00">viewcontroller.View.readFile</text>
</a>
</g>
</g>
<!-- Node1&#45;&gt;Node12 -->
<g id="edge11" class="edge"><title>Node1&#45;&gt;Node12</title>
<path fill="none" stroke="midnightblue" d="M87.6529,-82.4719C107.743,-69.7854 145.307,-47.3942 180,-34 192.24,-29.2742 205.708,-25.2592 218.637,-21.9436"/>
<polygon fill="midnightblue" stroke="midnightblue" points="219.515,-25.332 228.389,-19.5443 217.843,-18.5347 219.515,-25.332"/>
</g>
<!-- Node4 -->
<g id="node4" class="node"><title>Node4</title>
<g id="a_node4"><a xlink:href="../../d0/d7c/classviewcontroller_1_1commands_1_1_command_window_container_view_controller.html#a855fafa32d3167f000f659fc3ae8bede" target="_top" xlink:title="viewcontroller.commands.\lCommandWindowContainerViewController.load\lScript">
<polygon fill="white" stroke="black" points="414.5,-120.5 414.5,-161.5 653.5,-161.5 653.5,-120.5 414.5,-120.5"/>
<text text-anchor="start" x="422.5" y="-149.5" font-family="Helvetica,sans-Serif" font-size="10.00">viewcontroller.commands.</text>
<text text-anchor="start" x="422.5" y="-138.5" font-family="Helvetica,sans-Serif" font-size="10.00">CommandWindowContainerViewController.load</text>
<text text-anchor="middle" x="534" y="-127.5" font-family="Helvetica,sans-Serif" font-size="10.00">Script</text>
</a>
</g>
</g>
<!-- Node3&#45;&gt;Node4 -->
<g id="edge3" class="edge"><title>Node3&#45;&gt;Node4</title>
<path fill="none" stroke="midnightblue" d="M377.816,-141C386.505,-141 395.384,-141 404.278,-141"/>
<polygon fill="midnightblue" stroke="midnightblue" points="404.316,-144.5 414.316,-141 404.316,-137.5 404.316,-144.5"/>
</g>
<!-- Node5 -->
<g id="node5" class="node"><title>Node5</title>
<g id="a_node5"><a xlink:href="../../de/d8d/classviewcontroller_1_1commands_1_1_command_prompt_view_controller.html#ac5b8ed43553efe6667328fe2d2d7130a" target="_top" xlink:title="viewcontroller.commands.\lCommandPromptViewController.set\lCommandPromptText">
<polygon fill="white" stroke="black" points="690,-120.5 690,-161.5 878,-161.5 878,-120.5 690,-120.5"/>
<text text-anchor="start" x="698" y="-149.5" font-family="Helvetica,sans-Serif" font-size="10.00">viewcontroller.commands.</text>
<text text-anchor="start" x="698" y="-138.5" font-family="Helvetica,sans-Serif" font-size="10.00">CommandPromptViewController.set</text>
<text text-anchor="middle" x="784" y="-127.5" font-family="Helvetica,sans-Serif" font-size="10.00">CommandPromptText</text>
</a>
</g>
</g>
<!-- Node4&#45;&gt;Node5 -->
<g id="edge4" class="edge"><title>Node4&#45;&gt;Node5</title>
<path fill="none" stroke="midnightblue" d="M653.552,-141C662.324,-141 671.133,-141 679.801,-141"/>
<polygon fill="midnightblue" stroke="midnightblue" points="679.903,-144.5 689.903,-141 679.903,-137.5 679.903,-144.5"/>
</g>
<!-- Node6&#45;&gt;Node7 -->
<g id="edge6" class="edge"><title>Node6&#45;&gt;Node7</title>
<path fill="none" stroke="midnightblue" d="M357.283,-84.6688C389.147,-81.6462 425.946,-78.1553 457.61,-75.1516"/>
<polygon fill="midnightblue" stroke="midnightblue" points="458.072,-78.6236 467.697,-74.1947 457.411,-71.6548 458.072,-78.6236"/>
</g>
<!-- Node8 -->
<g id="node8" class="node"><title>Node8</title>
<g id="a_node8"><a xlink:href="../../d6/dd4/classapplication_1_1_message_box.html#a272fc424b595a91a6d2048981ac95e5b" target="_top" xlink:title="application.MessageBox.show">
<polygon fill="white" stroke="black" points="704.5,-58.5 704.5,-77.5 863.5,-77.5 863.5,-58.5 704.5,-58.5"/>
<text text-anchor="middle" x="784" y="-65.5" font-family="Helvetica,sans-Serif" font-size="10.00">application.MessageBox.show</text>
</a>
</g>
</g>
<!-- Node7&#45;&gt;Node8 -->
<g id="edge7" class="edge"><title>Node7&#45;&gt;Node8</title>
<path fill="none" stroke="midnightblue" d="M600.159,-68C628.783,-68 662.853,-68 693.781,-68"/>
<polygon fill="midnightblue" stroke="midnightblue" points="694.137,-71.5001 704.137,-68 694.137,-64.5001 694.137,-71.5001"/>
</g>
<!-- Node9 -->
<g id="node9" class="node"><title>Node9</title>
<g id="a_node9"><a xlink:href="../../d6/dd4/classapplication_1_1_message_box.html#a6c41f7d51b489df9b0a577d1a318c58d" target="_top" xlink:title="application.MessageBox.create\lMessageBox">
<polygon fill="white" stroke="black" points="914,-53 914,-83 1080,-83 1080,-53 914,-53"/>
<text text-anchor="start" x="922" y="-71" font-family="Helvetica,sans-Serif" font-size="10.00">application.MessageBox.create</text>
<text text-anchor="middle" x="997" y="-60" font-family="Helvetica,sans-Serif" font-size="10.00">MessageBox</text>
</a>
</g>
</g>
<!-- Node8&#45;&gt;Node9 -->
<g id="edge8" class="edge"><title>Node8&#45;&gt;Node9</title>
<path fill="none" stroke="midnightblue" d="M863.569,-68C876.64,-68 890.303,-68 903.679,-68"/>
<polygon fill="midnightblue" stroke="midnightblue" points="903.837,-71.5001 913.837,-68 903.837,-64.5001 903.837,-71.5001"/>
</g>
<!-- Node10 -->
<g id="node10" class="node"><title>Node10</title>
<g id="a_node10"><a xlink:href="../../d6/dd4/classapplication_1_1_message_box.html#ac3b708a4c65b8243168425667649c221" target="_top" xlink:title="application.MessageBox.create\lMessageText">
<polygon fill="white" stroke="black" points="1116,-78 1116,-108 1282,-108 1282,-78 1116,-78"/>
<text text-anchor="start" x="1124" y="-96" font-family="Helvetica,sans-Serif" font-size="10.00">application.MessageBox.create</text>
<text text-anchor="middle" x="1199" y="-85" font-family="Helvetica,sans-Serif" font-size="10.00">MessageText</text>
</a>
</g>
</g>
<!-- Node9&#45;&gt;Node10 -->
<g id="edge9" class="edge"><title>Node9&#45;&gt;Node10</title>
<path fill="none" stroke="midnightblue" d="M1080.21,-78.2767C1088.65,-79.3318 1097.27,-80.4087 1105.81,-81.4761"/>
<polygon fill="midnightblue" stroke="midnightblue" points="1105.43,-84.9554 1115.78,-82.7228 1106.29,-78.0094 1105.43,-84.9554"/>
</g>
<!-- Node11 -->
<g id="node11" class="node"><title>Node11</title>
<g id="a_node11"><a xlink:href="../../d6/dd4/classapplication_1_1_message_box.html#a8e5e69eeb3a25bd743a9b376002f875e" target="_top" xlink:title="application.MessageBox.create\lOkayButton">
<polygon fill="white" stroke="black" points="1116,-29 1116,-59 1282,-59 1282,-29 1116,-29"/>
<text text-anchor="start" x="1124" y="-47" font-family="Helvetica,sans-Serif" font-size="10.00">application.MessageBox.create</text>
<text text-anchor="middle" x="1199" y="-36" font-family="Helvetica,sans-Serif" font-size="10.00">OkayButton</text>
</a>
</g>
</g>
<!-- Node9&#45;&gt;Node11 -->
<g id="edge10" class="edge"><title>Node9&#45;&gt;Node11</title>
<path fill="none" stroke="midnightblue" d="M1080.21,-58.1344C1088.65,-57.1215 1097.27,-56.0876 1105.81,-55.063"/>
<polygon fill="midnightblue" stroke="midnightblue" points="1106.27,-58.5327 1115.78,-53.8661 1105.44,-51.5826 1106.27,-58.5327"/>
</g>
</g>
</svg>
