<?xml version="1.0" encoding="UTF-8" standalone="no"?>
<!DOCTYPE svg PUBLIC "-//W3C//DTD SVG 1.1//EN"
 "http://www.w3.org/Graphics/SVG/1.1/DTD/svg11.dtd">
<!-- Generated by graphviz version 2.36.0 (20140111.2315)
 -->
<!-- Title: viewcontroller.View.loadSerialisedWorkspace Pages: 1 -->
<svg width="1008pt" height="439pt"
 viewBox="0.00 0.00 1008.00 439.00" xmlns="http://www.w3.org/2000/svg" xmlns:xlink="http://www.w3.org/1999/xlink">
<g id="graph0" class="graph" transform="scale(1 1) rotate(0) translate(4 435)">
<title>viewcontroller.View.loadSerialisedWorkspace</title>
<polygon fill="white" stroke="none" points="-4,4 -4,-435 1004,-435 1004,4 -4,4"/>
<!-- Node1 -->
<g id="node1" class="node"><title>Node1</title>
<polygon fill="#bfbfbf" stroke="black" points="0,-166 0,-196 128,-196 128,-166 0,-166"/>
<text text-anchor="start" x="8" y="-184" font-family="Helvetica,sans-Serif" font-size="10.00">viewcontroller.View.load</text>
<text text-anchor="middle" x="64" y="-173" font-family="Helvetica,sans-Serif" font-size="10.00">SerialisedWorkspace</text>
</g>
<!-- Node2 -->
<g id="node2" class="node"><title>Node2</title>
<g id="a_node2"><a xlink:href="../../da/d4e/classviewcontroller_1_1_view.html#ad16a35ae1b446b10bc9cc74395e0aeab" target="_top" xlink:title="viewcontroller.View.addWorkspace">
<polygon fill="white" stroke="black" points="164.5,-342.5 164.5,-361.5 341.5,-361.5 341.5,-342.5 164.5,-342.5"/>
<text text-anchor="middle" x="253" y="-349.5" font-family="Helvetica,sans-Serif" font-size="10.00">viewcontroller.View.addWorkspace</text>
</a>
</g>
</g>
<!-- Node1&#45;&gt;Node2 -->
<g id="edge1" class="edge"><title>Node1&#45;&gt;Node2</title>
<path fill="none" stroke="midnightblue" d="M81.595,-196.175C116.664,-228.243 198.044,-302.661 234.171,-335.696"/>
<polygon fill="midnightblue" stroke="midnightblue" points="231.81,-338.28 241.552,-342.446 236.534,-333.114 231.81,-338.28"/>
</g>
<!-- Node6 -->
<g id="node6" class="node"><title>Node6</title>
<g id="a_node6"><a xlink:href="../../d2/d33/classmodel_1_1_deserialiser.html#a2fbfdc424927c111f445271967687f28" target="_top" xlink:title="model.Deserialiser.deserialise">
<polygon fill="white" stroke="black" points="173.5,-171.5 173.5,-190.5 332.5,-190.5 332.5,-171.5 173.5,-171.5"/>
<text text-anchor="middle" x="253" y="-178.5" font-family="Helvetica,sans-Serif" font-size="10.00">model.Deserialiser.deserialise</text>
</a>
</g>
</g>
<!-- Node1&#45;&gt;Node6 -->
<g id="edge5" class="edge"><title>Node1&#45;&gt;Node6</title>
<path fill="none" stroke="midnightblue" d="M128.049,-181C139.284,-181 151.178,-181 162.976,-181"/>
<polygon fill="midnightblue" stroke="midnightblue" points="163.301,-184.5 173.301,-181 163.301,-177.5 163.301,-184.5"/>
</g>
<!-- Node12 -->
<g id="node12" class="node"><title>Node12</title>
<g id="a_node12"><a xlink:href="../../da/d4e/classviewcontroller_1_1_view.html#a98e7b6a5716e94a0052d7bb51dc3a404" target="_top" xlink:title="viewcontroller.View.show\lMessage">
<polygon fill="white" stroke="black" points="187,-73 187,-103 319,-103 319,-73 187,-73"/>
<text text-anchor="start" x="195" y="-91" font-family="Helvetica,sans-Serif" font-size="10.00">viewcontroller.View.show</text>
<text text-anchor="middle" x="253" y="-80" font-family="Helvetica,sans-Serif" font-size="10.00">Message</text>
</a>
</g>
</g>
<!-- Node1&#45;&gt;Node12 -->
<g id="edge11" class="edge"><title>Node1&#45;&gt;Node12</title>
<path fill="none" stroke="midnightblue" d="M95.461,-165.851C127.382,-149.976 177.653,-124.975 212.58,-107.605"/>
<polygon fill="midnightblue" stroke="midnightblue" points="214.157,-110.729 221.552,-103.143 211.04,-104.462 214.157,-110.729"/>
</g>
<!-- Node3 -->
<g id="node3" class="node"><title>Node3</title>
<g id="a_node3"><a xlink:href="../../d3/d67/classviewcontroller_1_1_main_view_controller.html#ab2d2098053847d03306f31284a351b95" target="_top" xlink:title="viewcontroller.MainViewController.getNode">
<polygon fill="white" stroke="black" points="378,-411.5 378,-430.5 596,-430.5 596,-411.5 378,-411.5"/>
<text text-anchor="middle" x="487" y="-418.5" font-family="Helvetica,sans-Serif" font-size="10.00">viewcontroller.MainViewController.getNode</text>
</a>
</g>
</g>
<!-- Node2&#45;&gt;Node3 -->
<g id="edge2" class="edge"><title>Node2&#45;&gt;Node3</title>
<path fill="none" stroke="midnightblue" d="M274.634,-361.583C298.901,-372.516 340.623,-390.264 378,-401 389.24,-404.229 401.293,-407.058 413.124,-409.495"/>
<polygon fill="midnightblue" stroke="midnightblue" points="412.498,-412.938 422.987,-411.449 413.858,-406.072 412.498,-412.938"/>
</g>
<!-- Node4 -->
<g id="node4" class="node"><title>Node4</title>
<g id="a_node4"><a xlink:href="../../d9/dd7/classviewcontroller_1_1_g_u_i_reference_library.html#ac147f33c0bfa0252d247d7c0174ff688" target="_top" xlink:title="viewcontroller.GUIReference\lLibrary.getStringTranslation">
<polygon fill="white" stroke="black" points="412.5,-362 412.5,-392 561.5,-392 561.5,-362 412.5,-362"/>
<text text-anchor="start" x="420.5" y="-380" font-family="Helvetica,sans-Serif" font-size="10.00">viewcontroller.GUIReference</text>
<text text-anchor="middle" x="487" y="-369" font-family="Helvetica,sans-Serif" font-size="10.00">Library.getStringTranslation</text>
</a>
</g>
</g>
<!-- Node2&#45;&gt;Node4 -->
<g id="edge3" class="edge"><title>Node2&#45;&gt;Node4</title>
<path fill="none" stroke="midnightblue" d="M341.709,-361.451C361.487,-363.583 382.434,-365.84 402.053,-367.954"/>
<polygon fill="midnightblue" stroke="midnightblue" points="401.86,-371.453 412.178,-369.045 402.61,-364.494 401.86,-371.453"/>
</g>
<!-- Node5 -->
<g id="node5" class="node"><title>Node5</title>
<g id="a_node5"><a xlink:href="../../d8/d3a/classviewcontroller_1_1_workspace.html#a27576951466201164923fcc7b190a42e" target="_top" xlink:title="viewcontroller.Workspace.get\lViewController">
<polygon fill="white" stroke="black" points="410,-313 410,-343 564,-343 564,-313 410,-313"/>
<text text-anchor="start" x="418" y="-331" font-family="Helvetica,sans-Serif" font-size="10.00">viewcontroller.Workspace.get</text>
<text text-anchor="middle" x="487" y="-320" font-family="Helvetica,sans-Serif" font-size="10.00">ViewController</text>
</a>
</g>
</g>
<!-- Node2&#45;&gt;Node5 -->
<g id="edge4" class="edge"><title>Node2&#45;&gt;Node5</title>
<path fill="none" stroke="midnightblue" d="M341.709,-342.927C360.744,-340.958 380.861,-338.876 399.835,-336.914"/>
<polygon fill="midnightblue" stroke="midnightblue" points="400.355,-340.379 409.942,-335.868 399.635,-333.416 400.355,-340.379"/>
</g>
<!-- Node7 -->
<g id="node7" class="node"><title>Node7</title>
<g id="a_node7"><a xlink:href="../../d3/d5e/classmodel_1_1_serialisable_model.html#acd6f583bd4760c71758447d8da52b957" target="_top" xlink:title="model.SerialisableModel.get\lBackGroundColorName">
<polygon fill="white" stroke="black" points="411,-264 411,-294 563,-294 563,-264 411,-264"/>
<text text-anchor="start" x="419" y="-282" font-family="Helvetica,sans-Serif" font-size="10.00">model.SerialisableModel.get</text>
<text text-anchor="middle" x="487" y="-271" font-family="Helvetica,sans-Serif" font-size="10.00">BackGroundColorName</text>
</a>
</g>
</g>
<!-- Node6&#45;&gt;Node7 -->
<g id="edge6" class="edge"><title>Node6&#45;&gt;Node7</title>
<path fill="none" stroke="midnightblue" d="M267.064,-190.526C288.941,-206.044 334.846,-236.775 378,-254 385.37,-256.942 393.168,-259.585 401.065,-261.948"/>
<polygon fill="midnightblue" stroke="midnightblue" points="400.148,-265.326 410.724,-264.695 402.063,-258.593 400.148,-265.326"/>
</g>
<!-- Node8 -->
<g id="node8" class="node"><title>Node8</title>
<g id="a_node8"><a xlink:href="../../d3/d5e/classmodel_1_1_serialisable_model.html#a95d6c1f18e7a764d9bd0b47d1606b3f2" target="_top" xlink:title="model.SerialisableModel.get\lMyCommandHistoryModel">
<polygon fill="white" stroke="black" points="411,-215 411,-245 563,-245 563,-215 411,-215"/>
<text text-anchor="start" x="419" y="-233" font-family="Helvetica,sans-Serif" font-size="10.00">model.SerialisableModel.get</text>
<text text-anchor="middle" x="487" y="-222" font-family="Helvetica,sans-Serif" font-size="10.00">MyCommandHistoryModel</text>
</a>
</g>
</g>
<!-- Node6&#45;&gt;Node8 -->
<g id="edge7" class="edge"><title>Node6&#45;&gt;Node8</title>
<path fill="none" stroke="midnightblue" d="M299.007,-190.506C328.998,-196.84 369.277,-205.347 404.771,-212.844"/>
<polygon fill="midnightblue" stroke="midnightblue" points="404.135,-216.287 414.642,-214.929 405.581,-209.438 404.135,-216.287"/>
</g>
<!-- Node9 -->
<g id="node9" class="node"><title>Node9</title>
<g id="a_node9"><a xlink:href="../../d3/d5e/classmodel_1_1_serialisable_model.html#acbeaa1958664dae32fb55d92a504854a" target="_top" xlink:title="model.SerialisableModel.get\lMyLanguage">
<polygon fill="white" stroke="black" points="411,-166 411,-196 563,-196 563,-166 411,-166"/>
<text text-anchor="start" x="419" y="-184" font-family="Helvetica,sans-Serif" font-size="10.00">model.SerialisableModel.get</text>
<text text-anchor="middle" x="487" y="-173" font-family="Helvetica,sans-Serif" font-size="10.00">MyLanguage</text>
</a>
</g>
</g>
<!-- Node6&#45;&gt;Node9 -->
<g id="edge8" class="edge"><title>Node6&#45;&gt;Node9</title>
<path fill="none" stroke="midnightblue" d="M332.545,-181C354.432,-181 378.312,-181 400.574,-181"/>
<polygon fill="midnightblue" stroke="midnightblue" points="400.676,-184.5 410.676,-181 400.676,-177.5 400.676,-184.5"/>
</g>
<!-- Node10 -->
<g id="node10" class="node"><title>Node10</title>
<g id="a_node10"><a xlink:href="../../d3/d5e/classmodel_1_1_serialisable_model.html#a3acb5ea4d85b1a7be0d34861be86d796" target="_top" xlink:title="model.SerialisableModel.get\lMyUserDefinedMethodsModel">
<polygon fill="white" stroke="black" points="407.5,-117 407.5,-147 566.5,-147 566.5,-117 407.5,-117"/>
<text text-anchor="start" x="415.5" y="-135" font-family="Helvetica,sans-Serif" font-size="10.00">model.SerialisableModel.get</text>
<text text-anchor="middle" x="487" y="-124" font-family="Helvetica,sans-Serif" font-size="10.00">MyUserDefinedMethodsModel</text>
</a>
</g>
</g>
<!-- Node6&#45;&gt;Node10 -->
<g id="edge9" class="edge"><title>Node6&#45;&gt;Node10</title>
<path fill="none" stroke="midnightblue" d="M299.007,-171.494C328.998,-165.16 369.277,-156.653 404.771,-149.156"/>
<polygon fill="midnightblue" stroke="midnightblue" points="405.581,-152.562 414.642,-147.071 404.135,-145.713 405.581,-152.562"/>
</g>
<!-- Node11 -->
<g id="node11" class="node"><title>Node11</title>
<g id="a_node11"><a xlink:href="../../d3/d5e/classmodel_1_1_serialisable_model.html#a530afce46890f6bd3aa9fb22dad28df6" target="_top" xlink:title="model.SerialisableModel.get\lMyUserDefinedVariablesModel">
<polygon fill="white" stroke="black" points="406.5,-68 406.5,-98 567.5,-98 567.5,-68 406.5,-68"/>
<text text-anchor="start" x="414.5" y="-86" font-family="Helvetica,sans-Serif" font-size="10.00">model.SerialisableModel.get</text>
<text text-anchor="middle" x="487" y="-75" font-family="Helvetica,sans-Serif" font-size="10.00">MyUserDefinedVariablesModel</text>
</a>
</g>
</g>
<!-- Node6&#45;&gt;Node11 -->
<g id="edge10" class="edge"><title>Node6&#45;&gt;Node11</title>
<path fill="none" stroke="midnightblue" d="M267.064,-171.474C288.941,-155.956 334.846,-125.225 378,-108 384.574,-105.376 391.489,-102.99 398.511,-100.827"/>
<polygon fill="midnightblue" stroke="midnightblue" points="399.513,-104.181 408.13,-98.0158 397.549,-97.4618 399.513,-104.181"/>
</g>
<!-- Node13 -->
<g id="node13" class="node"><title>Node13</title>
<g id="a_node13"><a xlink:href="../../d6/dd4/classapplication_1_1_message_box.html#a272fc424b595a91a6d2048981ac95e5b" target="_top" xlink:title="application.MessageBox.show">
<polygon fill="white" stroke="black" points="407.5,-29.5 407.5,-48.5 566.5,-48.5 566.5,-29.5 407.5,-29.5"/>
<text text-anchor="middle" x="487" y="-36.5" font-family="Helvetica,sans-Serif" font-size="10.00">application.MessageBox.show</text>
</a>
</g>
</g>
<!-- Node12&#45;&gt;Node13 -->
<g id="edge12" class="edge"><title>Node12&#45;&gt;Node13</title>
<path fill="none" stroke="midnightblue" d="M312.803,-72.9678C333.364,-67.926 356.644,-62.4574 378,-58 390.846,-55.3189 404.604,-52.7041 417.852,-50.3143"/>
<polygon fill="midnightblue" stroke="midnightblue" points="418.628,-53.7314 427.86,-48.5333 417.401,-46.8396 418.628,-53.7314"/>
</g>
<!-- Node14 -->
<g id="node14" class="node"><title>Node14</title>
<g id="a_node14"><a xlink:href="../../d6/dd4/classapplication_1_1_message_box.html#a6c41f7d51b489df9b0a577d1a318c58d" target="_top" xlink:title="application.MessageBox.create\lMessageBox">
<polygon fill="white" stroke="black" points="632,-24 632,-54 798,-54 798,-24 632,-24"/>
<text text-anchor="start" x="640" y="-42" font-family="Helvetica,sans-Serif" font-size="10.00">application.MessageBox.create</text>
<text text-anchor="middle" x="715" y="-31" font-family="Helvetica,sans-Serif" font-size="10.00">MessageBox</text>
</a>
</g>
</g>
<!-- Node13&#45;&gt;Node14 -->
<g id="edge13" class="edge"><title>Node13&#45;&gt;Node14</title>
<path fill="none" stroke="midnightblue" d="M566.727,-39C584.462,-39 603.441,-39 621.676,-39"/>
<polygon fill="midnightblue" stroke="midnightblue" points="621.718,-42.5001 631.718,-39 621.718,-35.5001 621.718,-42.5001"/>
</g>
<!-- Node15 -->
<g id="node15" class="node"><title>Node15</title>
<g id="a_node15"><a xlink:href="../../d6/dd4/classapplication_1_1_message_box.html#ac3b708a4c65b8243168425667649c221" target="_top" xlink:title="application.MessageBox.create\lMessageText">
<polygon fill="white" stroke="black" points="834,-49 834,-79 1000,-79 1000,-49 834,-49"/>
<text text-anchor="start" x="842" y="-67" font-family="Helvetica,sans-Serif" font-size="10.00">application.MessageBox.create</text>
<text text-anchor="middle" x="917" y="-56" font-family="Helvetica,sans-Serif" font-size="10.00">MessageText</text>
</a>
</g>
</g>
<!-- Node14&#45;&gt;Node15 -->
<g id="edge14" class="edge"><title>Node14&#45;&gt;Node15</title>
<path fill="none" stroke="midnightblue" d="M798.213,-49.2767C806.654,-50.3318 815.27,-51.4087 823.809,-52.4761"/>
<polygon fill="midnightblue" stroke="midnightblue" points="823.426,-55.9554 833.783,-53.7228 824.294,-49.0094 823.426,-55.9554"/>
</g>
<!-- Node16 -->
<g id="node16" class="node"><title>Node16</title>
<g id="a_node16"><a xlink:href="../../d6/dd4/classapplication_1_1_message_box.html#a8e5e69eeb3a25bd743a9b376002f875e" target="_top" xlink:title="application.MessageBox.create\lOkayButton">
<polygon fill="white" stroke="black" points="834,-0 834,-30 1000,-30 1000,-0 834,-0"/>
<text text-anchor="start" x="842" y="-18" font-family="Helvetica,sans-Serif" font-size="10.00">application.MessageBox.create</text>
<text text-anchor="middle" x="917" y="-7" font-family="Helvetica,sans-Serif" font-size="10.00">OkayButton</text>
</a>
</g>
</g>
<!-- Node14&#45;&gt;Node16 -->
<g id="edge15" class="edge"><title>Node14&#45;&gt;Node16</title>
<path fill="none" stroke="midnightblue" d="M798.213,-29.1344C806.654,-28.1215 815.27,-27.0876 823.809,-26.063"/>
<polygon fill="midnightblue" stroke="midnightblue" points="824.271,-29.5327 833.783,-24.8661 823.437,-22.5826 824.271,-29.5327"/>
</g>
</g>
</svg>
