<?xml version="1.0" encoding="UTF-8" standalone="no"?>
<!DOCTYPE svg PUBLIC "-//W3C//DTD SVG 1.1//EN"
 "http://www.w3.org/Graphics/SVG/1.1/DTD/svg11.dtd">
<!-- Generated by graphviz version 2.36.0 (20140111.2315)
 -->
<!-- Title: viewcontroller.View.showMessage Pages: 1 -->
<svg width="872pt" height="371pt"
 viewBox="0.00 0.00 872.00 371.00" xmlns="http://www.w3.org/2000/svg" xmlns:xlink="http://www.w3.org/1999/xlink">
<g id="graph0" class="graph" transform="scale(1 1) rotate(0) translate(4 367)">
<title>viewcontroller.View.showMessage</title>
<polygon fill="white" stroke="none" points="-4,4 -4,-367 868,-367 868,4 -4,4"/>
<!-- Node1 -->
<g id="node1" class="node"><title>Node1</title>
<polygon fill="#bfbfbf" stroke="black" points="0,-289 0,-319 132,-319 132,-289 0,-289"/>
<text text-anchor="start" x="8" y="-307" font-family="Helvetica,sans-Serif" font-size="10.00">viewcontroller.View.show</text>
<text text-anchor="middle" x="66" y="-296" font-family="Helvetica,sans-Serif" font-size="10.00">Message</text>
</g>
<!-- Node2 -->
<g id="node2" class="node"><title>Node2</title>
<g id="a_node2"><a xlink:href="../../da/d4e/classviewcontroller_1_1_view.html#a1f7ce4457b38e302cf3a052c8d36a7a6" target="_top" xlink:title="viewcontroller.View.loadFile">
<polygon fill="white" stroke="black" points="364.5,-294.5 364.5,-313.5 507.5,-313.5 507.5,-294.5 364.5,-294.5"/>
<text text-anchor="middle" x="436" y="-301.5" font-family="Helvetica,sans-Serif" font-size="10.00">viewcontroller.View.loadFile</text>
</a>
</g>
</g>
<!-- Node1&#45;&gt;Node2 -->
<g id="edge1" class="edge"><title>Node1&#45;&gt;Node2</title>
<path fill="none" stroke="midnightblue" d="M142.553,-304C207.579,-304 300.701,-304 364.282,-304"/>
<polygon fill="midnightblue" stroke="midnightblue" points="142.367,-300.5 132.367,-304 142.367,-307.5 142.367,-300.5"/>
</g>
<!-- Node5 -->
<g id="node5" class="node"><title>Node5</title>
<g id="a_node5"><a xlink:href="../../da/d4e/classviewcontroller_1_1_view.html#a4b671855769c23246f5698d72dc12618" target="_top" xlink:title="viewcontroller.View.load\lSerialisedWorkspace">
<polygon fill="white" stroke="black" points="182,-333 182,-363 310,-363 310,-333 182,-333"/>
<text text-anchor="start" x="190" y="-351" font-family="Helvetica,sans-Serif" font-size="10.00">viewcontroller.View.load</text>
<text text-anchor="middle" x="246" y="-340" font-family="Helvetica,sans-Serif" font-size="10.00">SerialisedWorkspace</text>
</a>
</g>
</g>
<!-- Node1&#45;&gt;Node5 -->
<g id="edge4" class="edge"><title>Node1&#45;&gt;Node5</title>
<path fill="none" stroke="midnightblue" d="M137.737,-321.485C153.117,-325.287 169.257,-329.277 184.212,-332.974"/>
<polygon fill="midnightblue" stroke="midnightblue" points="138.307,-318.021 127.76,-319.019 136.628,-324.817 138.307,-318.021"/>
</g>
<!-- Node7 -->
<g id="node7" class="node"><title>Node7</title>
<g id="a_node7"><a xlink:href="../../da/d4e/classviewcontroller_1_1_view.html#a9ad52fdebf34b834ab51d0a969833e75" target="_top" xlink:title="viewcontroller.View.noCurrent\lWorkspace">
<polygon fill="white" stroke="black" points="168,-171 168,-201 324,-201 324,-171 168,-171"/>
<text text-anchor="start" x="176" y="-189" font-family="Helvetica,sans-Serif" font-size="10.00">viewcontroller.View.noCurrent</text>
<text text-anchor="middle" x="246" y="-178" font-family="Helvetica,sans-Serif" font-size="10.00">Workspace</text>
</a>
</g>
</g>
<!-- Node1&#45;&gt;Node7 -->
<g id="edge7" class="edge"><title>Node1&#45;&gt;Node7</title>
<path fill="none" stroke="midnightblue" d="M98.4336,-283.162C133.898,-259.652 190.721,-221.983 222.182,-201.127"/>
<polygon fill="midnightblue" stroke="midnightblue" points="96.307,-280.373 89.906,-288.815 100.175,-286.207 96.307,-280.373"/>
</g>
<!-- Node3 -->
<g id="node3" class="node"><title>Node3</title>
<g id="a_node3"><a xlink:href="../../df/df9/classviewcontroller_1_1_s_logo_menu_bar.html#aea535ae86d7ac7a2fffe549d7bdf2a1d" target="_top" xlink:title="viewcontroller.SLogoMenu\lBar.initializeFileMenu">
<polygon fill="white" stroke="black" points="548,-267 548,-297 688,-297 688,-267 548,-267"/>
<text text-anchor="start" x="556" y="-285" font-family="Helvetica,sans-Serif" font-size="10.00">viewcontroller.SLogoMenu</text>
<text text-anchor="middle" x="618" y="-274" font-family="Helvetica,sans-Serif" font-size="10.00">Bar.initializeFileMenu</text>
</a>
</g>
</g>
<!-- Node2&#45;&gt;Node3 -->
<g id="edge2" class="edge"><title>Node2&#45;&gt;Node3</title>
<path fill="none" stroke="midnightblue" d="M517.613,-294.147C527.674,-292.918 537.893,-291.669 547.759,-290.463"/>
<polygon fill="midnightblue" stroke="midnightblue" points="517.126,-290.681 507.624,-295.368 517.975,-297.629 517.126,-290.681"/>
</g>
<!-- Node4 -->
<g id="node4" class="node"><title>Node4</title>
<g id="a_node4"><a xlink:href="../../df/df9/classviewcontroller_1_1_s_logo_menu_bar.html#a75b45d0a4b08de5ff8588fc15b2f14fe" target="_top" xlink:title="viewcontroller.SLogoMenu\lBar.SLogoMenuBar">
<polygon fill="white" stroke="black" points="724,-159 724,-189 864,-189 864,-159 724,-159"/>
<text text-anchor="start" x="732" y="-177" font-family="Helvetica,sans-Serif" font-size="10.00">viewcontroller.SLogoMenu</text>
<text text-anchor="middle" x="794" y="-166" font-family="Helvetica,sans-Serif" font-size="10.00">Bar.SLogoMenuBar</text>
</a>
</g>
</g>
<!-- Node3&#45;&gt;Node4 -->
<g id="edge3" class="edge"><title>Node3&#45;&gt;Node4</title>
<path fill="none" stroke="midnightblue" d="M651.849,-261.611C685.881,-240.488 738.265,-207.973 768.732,-189.063"/>
<polygon fill="midnightblue" stroke="midnightblue" points="649.845,-258.736 643.194,-266.983 653.536,-264.683 649.845,-258.736"/>
</g>
<!-- Node6 -->
<g id="node6" class="node"><title>Node6</title>
<g id="a_node6"><a xlink:href="../../da/d4e/classviewcontroller_1_1_view.html#a3ce37900baf65c2a31c0a2a7d5349aae" target="_top" xlink:title="viewcontroller.View.load\lWorkspace">
<polygon fill="white" stroke="black" points="372,-333 372,-363 500,-363 500,-333 372,-333"/>
<text text-anchor="start" x="380" y="-351" font-family="Helvetica,sans-Serif" font-size="10.00">viewcontroller.View.load</text>
<text text-anchor="middle" x="436" y="-340" font-family="Helvetica,sans-Serif" font-size="10.00">Workspace</text>
</a>
</g>
</g>
<!-- Node5&#45;&gt;Node6 -->
<g id="edge5" class="edge"><title>Node5&#45;&gt;Node6</title>
<path fill="none" stroke="midnightblue" d="M320.517,-348C337.435,-348 355.283,-348 371.722,-348"/>
<polygon fill="midnightblue" stroke="midnightblue" points="320.124,-344.5 310.124,-348 320.124,-351.5 320.124,-344.5"/>
</g>
<!-- Node6&#45;&gt;Node3 -->
<g id="edge6" class="edge"><title>Node6&#45;&gt;Node3</title>
<path fill="none" stroke="midnightblue" d="M493.379,-329.549C499.677,-327.386 505.986,-325.175 512,-323 534.636,-314.814 559.759,-305.029 579.755,-297.072"/>
<polygon fill="midnightblue" stroke="midnightblue" points="491.877,-326.362 483.536,-332.895 494.13,-332.99 491.877,-326.362"/>
</g>
<!-- Node7&#45;&gt;Node2 -->
<g id="edge13" class="edge"><title>Node7&#45;&gt;Node2</title>
<path fill="none" stroke="midnightblue" d="M267.22,-208.746C288.275,-231.071 323.264,-264.522 360,-284 368.096,-288.293 377.183,-291.716 386.163,-294.429"/>
<polygon fill="midnightblue" stroke="midnightblue" points="269.736,-206.313 260.373,-201.355 264.601,-211.07 269.736,-206.313"/>
</g>
<!-- Node8 -->
<g id="node8" class="node"><title>Node8</title>
<g id="a_node8"><a xlink:href="../../da/d4e/classviewcontroller_1_1_view.html#ad56492108159c72ac56423b7fabe3b81" target="_top" xlink:title="viewcontroller.View.addTurtle\lClicked">
<polygon fill="white" stroke="black" points="360,-0 360,-30 512,-30 512,-0 360,-0"/>
<text text-anchor="start" x="368" y="-18" font-family="Helvetica,sans-Serif" font-size="10.00">viewcontroller.View.addTurtle</text>
<text text-anchor="middle" x="436" y="-7" font-family="Helvetica,sans-Serif" font-size="10.00">Clicked</text>
</a>
</g>
</g>
<!-- Node7&#45;&gt;Node8 -->
<g id="edge8" class="edge"><title>Node7&#45;&gt;Node8</title>
<path fill="none" stroke="midnightblue" d="M259.454,-161.765C277.386,-129.211 313.497,-71.6798 360,-39 364.922,-35.5414 370.367,-32.5626 376.011,-30.001"/>
<polygon fill="midnightblue" stroke="midnightblue" points="256.342,-160.164 254.683,-170.628 262.505,-163.482 256.342,-160.164"/>
</g>
<!-- Node10 -->
<g id="node10" class="node"><title>Node10</title>
<g id="a_node10"><a xlink:href="../../da/d4e/classviewcontroller_1_1_view.html#a89076f3aec0df7ef97f43fef2912e54f" target="_top" xlink:title="viewcontroller.View.change\lTurtleImages">
<polygon fill="white" stroke="black" points="364.5,-98 364.5,-128 507.5,-128 507.5,-98 364.5,-98"/>
<text text-anchor="start" x="372.5" y="-116" font-family="Helvetica,sans-Serif" font-size="10.00">viewcontroller.View.change</text>
<text text-anchor="middle" x="436" y="-105" font-family="Helvetica,sans-Serif" font-size="10.00">TurtleImages</text>
</a>
</g>
</g>
<!-- Node7&#45;&gt;Node10 -->
<g id="edge11" class="edge"><title>Node7&#45;&gt;Node10</title>
<path fill="none" stroke="midnightblue" d="M288.627,-166.77C309.794,-157.294 336.046,-146.001 360,-137 368.19,-133.922 376.973,-130.884 385.54,-128.057"/>
<polygon fill="midnightblue" stroke="midnightblue" points="286.964,-163.68 279.286,-170.981 289.841,-170.062 286.964,-163.68"/>
</g>
<!-- Node11 -->
<g id="node11" class="node"><title>Node11</title>
<g id="a_node11"><a xlink:href="../../da/d4e/classviewcontroller_1_1_view.html#a487061003bc9857296875d07d9b531cc" target="_top" xlink:title="viewcontroller.View.redo\lClicked">
<polygon fill="white" stroke="black" points="371,-196 371,-226 501,-226 501,-196 371,-196"/>
<text text-anchor="start" x="379" y="-214" font-family="Helvetica,sans-Serif" font-size="10.00">viewcontroller.View.redo</text>
<text text-anchor="middle" x="436" y="-203" font-family="Helvetica,sans-Serif" font-size="10.00">Clicked</text>
</a>
</g>
</g>
<!-- Node7&#45;&gt;Node11 -->
<g id="edge14" class="edge"><title>Node7&#45;&gt;Node11</title>
<path fill="none" stroke="midnightblue" d="M333.961,-197.564C346.435,-199.223 359.076,-200.904 370.997,-202.489"/>
<polygon fill="midnightblue" stroke="midnightblue" points="334.383,-194.089 324.009,-196.241 333.461,-201.028 334.383,-194.089"/>
</g>
<!-- Node13 -->
<g id="node13" class="node"><title>Node13</title>
<g id="a_node13"><a xlink:href="../../da/d4e/classviewcontroller_1_1_view.html#a6d302784ecfa68080791115cc18e308e" target="_top" xlink:title="viewcontroller.View.save\lWorkspace">
<polygon fill="white" stroke="black" points="370.5,-245 370.5,-275 501.5,-275 501.5,-245 370.5,-245"/>
<text text-anchor="start" x="378.5" y="-263" font-family="Helvetica,sans-Serif" font-size="10.00">viewcontroller.View.save</text>
<text text-anchor="middle" x="436" y="-252" font-family="Helvetica,sans-Serif" font-size="10.00">Workspace</text>
</a>
</g>
</g>
<!-- Node7&#45;&gt;Node13 -->
<g id="edge17" class="edge"><title>Node7&#45;&gt;Node13</title>
<path fill="none" stroke="midnightblue" d="M289.134,-205.313C310.232,-214.716 336.274,-225.921 360,-235 368.845,-238.384 378.37,-241.761 387.567,-244.887"/>
<polygon fill="midnightblue" stroke="midnightblue" points="290.372,-202.032 279.815,-201.134 287.507,-208.419 290.372,-202.032"/>
</g>
<!-- Node14 -->
<g id="node14" class="node"><title>Node14</title>
<g id="a_node14"><a xlink:href="../../da/d4e/classviewcontroller_1_1_view.html#a663f58ba5e84352186e4c332b407cd8e" target="_top" xlink:title="viewcontroller.View.toggle\lGridLines">
<polygon fill="white" stroke="black" points="367,-49 367,-79 505,-79 505,-49 367,-49"/>
<text text-anchor="start" x="375" y="-67" font-family="Helvetica,sans-Serif" font-size="10.00">viewcontroller.View.toggle</text>
<text text-anchor="middle" x="436" y="-56" font-family="Helvetica,sans-Serif" font-size="10.00">GridLines</text>
</a>
</g>
</g>
<!-- Node7&#45;&gt;Node14 -->
<g id="edge19" class="edge"><title>Node7&#45;&gt;Node14</title>
<path fill="none" stroke="midnightblue" d="M267.426,-163.631C288.642,-141.6 323.753,-108.373 360,-88 365.959,-84.6507 372.451,-81.6942 379.041,-79.1048"/>
<polygon fill="midnightblue" stroke="midnightblue" points="264.859,-161.251 260.522,-170.917 269.94,-166.065 264.859,-161.251"/>
</g>
<!-- Node15 -->
<g id="node15" class="node"><title>Node15</title>
<g id="a_node15"><a xlink:href="../../da/d4e/classviewcontroller_1_1_view.html#ab0cf08da4f357ee008acc7c294930637" target="_top" xlink:title="viewcontroller.View.undo\lClicked">
<polygon fill="white" stroke="black" points="370,-147 370,-177 502,-177 502,-147 370,-147"/>
<text text-anchor="start" x="378" y="-165" font-family="Helvetica,sans-Serif" font-size="10.00">viewcontroller.View.undo</text>
<text text-anchor="middle" x="436" y="-154" font-family="Helvetica,sans-Serif" font-size="10.00">Clicked</text>
</a>
</g>
</g>
<!-- Node7&#45;&gt;Node15 -->
<g id="edge21" class="edge"><title>Node7&#45;&gt;Node15</title>
<path fill="none" stroke="midnightblue" d="M334.062,-174.886C346.093,-173.35 358.276,-171.795 369.818,-170.321"/>
<polygon fill="midnightblue" stroke="midnightblue" points="333.485,-171.431 324.009,-176.169 334.372,-178.374 333.485,-171.431"/>
</g>
<!-- Node9 -->
<g id="node9" class="node"><title>Node9</title>
<g id="a_node9"><a xlink:href="../../df/df9/classviewcontroller_1_1_s_logo_menu_bar.html#a068f788551874f8c8862c10f8f0f6253" target="_top" xlink:title="viewcontroller.SLogoMenu\lBar.initializeGridMenu">
<polygon fill="white" stroke="black" points="548,-86 548,-116 688,-116 688,-86 548,-86"/>
<text text-anchor="start" x="556" y="-104" font-family="Helvetica,sans-Serif" font-size="10.00">viewcontroller.SLogoMenu</text>
<text text-anchor="middle" x="618" y="-93" font-family="Helvetica,sans-Serif" font-size="10.00">Bar.initializeGridMenu</text>
</a>
</g>
</g>
<!-- Node8&#45;&gt;Node9 -->
<g id="edge9" class="edge"><title>Node8&#45;&gt;Node9</title>
<path fill="none" stroke="midnightblue" d="M498.64,-33.485C503.207,-35.2312 507.704,-37.0736 512,-39 541.941,-52.4262 574.117,-72.3229 594.846,-85.9327"/>
<polygon fill="midnightblue" stroke="midnightblue" points="499.805,-30.1843 489.211,-30.0399 497.402,-36.7592 499.805,-30.1843"/>
</g>
<!-- Node9&#45;&gt;Node4 -->
<g id="edge10" class="edge"><title>Node9&#45;&gt;Node4</title>
<path fill="none" stroke="midnightblue" d="M664.508,-120.093C693.365,-132.199 730.175,-147.642 756.993,-158.894"/>
<polygon fill="midnightblue" stroke="midnightblue" points="665.628,-116.767 655.053,-116.126 662.92,-123.222 665.628,-116.767"/>
</g>
<!-- Node10&#45;&gt;Node9 -->
<g id="edge12" class="edge"><title>Node10&#45;&gt;Node9</title>
<path fill="none" stroke="midnightblue" d="M517.613,-107.626C527.674,-106.955 537.893,-106.274 547.759,-105.616"/>
<polygon fill="midnightblue" stroke="midnightblue" points="517.369,-104.134 507.624,-108.292 517.835,-111.119 517.369,-104.134"/>
</g>
<!-- Node12 -->
<g id="node12" class="node"><title>Node12</title>
<g id="a_node12"><a xlink:href="../../df/df9/classviewcontroller_1_1_s_logo_menu_bar.html#acdf079204224a9c0c24ce028f942e628" target="_top" xlink:title="viewcontroller.SLogoMenu\lBar.initializeEditMenu">
<polygon fill="white" stroke="black" points="548,-159 548,-189 688,-189 688,-159 548,-159"/>
<text text-anchor="start" x="556" y="-177" font-family="Helvetica,sans-Serif" font-size="10.00">viewcontroller.SLogoMenu</text>
<text text-anchor="middle" x="618" y="-166" font-family="Helvetica,sans-Serif" font-size="10.00">Bar.initializeEditMenu</text>
</a>
</g>
</g>
<!-- Node11&#45;&gt;Node12 -->
<g id="edge15" class="edge"><title>Node11&#45;&gt;Node12</title>
<path fill="none" stroke="midnightblue" d="M511.293,-195.729C523.416,-193.237 535.932,-190.664 547.923,-188.199"/>
<polygon fill="midnightblue" stroke="midnightblue" points="510.312,-192.357 501.222,-197.799 511.722,-199.214 510.312,-192.357"/>
</g>
<!-- Node12&#45;&gt;Node4 -->
<g id="edge16" class="edge"><title>Node12&#45;&gt;Node4</title>
<path fill="none" stroke="midnightblue" d="M698.035,-174C706.625,-174 715.319,-174 723.779,-174"/>
<polygon fill="midnightblue" stroke="midnightblue" points="698.019,-170.5 688.019,-174 698.019,-177.5 698.019,-170.5"/>
</g>
<!-- Node13&#45;&gt;Node3 -->
<g id="edge18" class="edge"><title>Node13&#45;&gt;Node3</title>
<path fill="none" stroke="midnightblue" d="M511.712,-269.131C523.724,-270.6 536.11,-272.113 547.981,-273.564"/>
<polygon fill="midnightblue" stroke="midnightblue" points="512.081,-265.651 501.73,-267.911 511.231,-272.599 512.081,-265.651"/>
</g>
<!-- Node14&#45;&gt;Node9 -->
<g id="edge20" class="edge"><title>Node14&#45;&gt;Node9</title>
<path fill="none" stroke="midnightblue" d="M515.026,-80.0387C525.984,-82.2911 537.182,-84.593 547.956,-86.8077"/>
<polygon fill="midnightblue" stroke="midnightblue" points="515.55,-76.5733 505.05,-77.9881 514.141,-83.43 515.55,-76.5733"/>
</g>
<!-- Node15&#45;&gt;Node12 -->
<g id="edge22" class="edge"><title>Node15&#45;&gt;Node12</title>
<path fill="none" stroke="midnightblue" d="M512.419,-167.028C524.127,-167.808 536.173,-168.612 547.736,-169.382"/>
<polygon fill="midnightblue" stroke="midnightblue" points="512.449,-163.522 502.239,-166.349 511.984,-170.507 512.449,-163.522"/>
</g>
</g>
</svg>
