<?xml version="1.0" encoding="UTF-8" standalone="no"?>
<!DOCTYPE svg PUBLIC "-//W3C//DTD SVG 1.1//EN"
 "http://www.w3.org/Graphics/SVG/1.1/DTD/svg11.dtd">
<!-- Generated by graphviz version 2.36.0 (20140111.2315)
 -->
<!-- Title: viewcontroller.View.showMessage Pages: 1 -->
<!--zoomable 87 -->
<svg id="main" version="1.1" xmlns="http://www.w3.org/2000/svg" xmlns:xlink="http://www.w3.org/1999/xlink" xml:space="preserve" onload="init(evt)">
<style type="text/css"><![CDATA[
.edge:hover path { stroke: red; }
.edge:hover polygon { stroke: red; fill: red; }
]]></style>
<script type="text/javascript"><![CDATA[
var edges = document.getElementsByTagName('g');
if (edges && edges.length) {
  for (var i=0;i<edges.length;i++) {
    if (edges[i].id.substr(0,4)=='edge') {
      edges[i].setAttribute('class','edge');
    }
  }
}
]]></script>
        <defs>
                <circle id="rim" cx="0" cy="0" r="7"/>
                <circle id="rim2" cx="0" cy="0" r="3.5"/>
                <g id="zoomPlus">
                        <use xlink:href="#rim" fill="#404040">
                                <set attributeName="fill" to="#808080" begin="zoomplus.mouseover" end="zoomplus.mouseout"/>
                        </use>
                        <path d="M-4,0h8M0,-4v8" fill="none" stroke="white" stroke-width="1.5" pointer-events="none"/>
                </g>
                <g id="zoomMin">
                        <use xlink:href="#rim" fill="#404040">
                                <set attributeName="fill" to="#808080" begin="zoomminus.mouseover" end="zoomminus.mouseout"/>
                        </use>
                        <path d="M-4,0h8" fill="none" stroke="white" stroke-width="1.5" pointer-events="none"/>
                </g>
                <g id="dirArrow">
                        <path fill="none" stroke="white" stroke-width="1.5" d="M0,-3.0v7 M-2.5,-0.5L0,-3.0L2.5,-0.5"/>
                </g>
               <g id="resetDef">
                       <use xlink:href="#rim2" fill="#404040">
                               <set attributeName="fill" to="#808080" begin="reset.mouseover" end="reset.mouseout"/>
                       </use>
               </g>
        </defs>

<script type="text/javascript">
var viewWidth = 740;
var viewHeight = 87;
var sectionId = 'dynsection-33';
</script>
<script xlink:href="../../svgpan.js"/>
<svg id="graph" class="graph">
<g id="viewport">
<title>viewcontroller.View.showMessage</title>
<polygon fill="white" stroke="none" points="-4,4 -4,-83 736,-83 736,4 -4,4"/>
<!-- Node1 -->
<g id="node1" class="node"><title>Node1</title>
<polygon fill="#bfbfbf" stroke="black" points="0,-24 0,-54 132,-54 132,-24 0,-24"/>
<text text-anchor="start" x="8" y="-42" font-family="Helvetica,sans-Serif" font-size="10.00">viewcontroller.View.show</text>
<text text-anchor="middle" x="66" y="-31" font-family="Helvetica,sans-Serif" font-size="10.00">Message</text>
</g>
<!-- Node2 -->
<g id="node2" class="node"><title>Node2</title>
<g id="a_node2"><a xlink:href="../../d6/dd4/classapplication_1_1_message_box.html#a272fc424b595a91a6d2048981ac95e5b" target="_top" xlink:title="application.MessageBox.show">
<polygon fill="white" stroke="black" points="168.5,-29.5 168.5,-48.5 327.5,-48.5 327.5,-29.5 168.5,-29.5"/>
<text text-anchor="middle" x="248" y="-36.5" font-family="Helvetica,sans-Serif" font-size="10.00">application.MessageBox.show</text>
</a>
</g>
</g>
<!-- Node1&#45;&gt;Node2 -->
<g id="edge1" class="edge"><title>Node1&#45;&gt;Node2</title>
<path fill="none" stroke="midnightblue" d="M132.239,-39C140.699,-39 149.477,-39 158.238,-39"/>
<polygon fill="midnightblue" stroke="midnightblue" points="158.497,-42.5001 168.497,-39 158.497,-35.5001 158.497,-42.5001"/>
</g>
<!-- Node3 -->
<g id="node3" class="node"><title>Node3</title>
<g id="a_node3"><a xlink:href="../../d6/dd4/classapplication_1_1_message_box.html#a6c41f7d51b489df9b0a577d1a318c58d" target="_top" xlink:title="application.MessageBox.create\lMessageBox">
<polygon fill="white" stroke="black" points="364,-24 364,-54 530,-54 530,-24 364,-24"/>
<text text-anchor="start" x="372" y="-42" font-family="Helvetica,sans-Serif" font-size="10.00">application.MessageBox.create</text>
<text text-anchor="middle" x="447" y="-31" font-family="Helvetica,sans-Serif" font-size="10.00">MessageBox</text>
</a>
</g>
</g>
<!-- Node2&#45;&gt;Node3 -->
<g id="edge2" class="edge"><title>Node2&#45;&gt;Node3</title>
<path fill="none" stroke="midnightblue" d="M327.709,-39C336.259,-39 345.017,-39 353.71,-39"/>
<polygon fill="midnightblue" stroke="midnightblue" points="353.869,-42.5001 363.869,-39 353.869,-35.5001 353.869,-42.5001"/>
</g>
<!-- Node4 -->
<g id="node4" class="node"><title>Node4</title>
<g id="a_node4"><a xlink:href="../../d6/dd4/classapplication_1_1_message_box.html#ac3b708a4c65b8243168425667649c221" target="_top" xlink:title="application.MessageBox.create\lMessageText">
<polygon fill="white" stroke="black" points="566,-49 566,-79 732,-79 732,-49 566,-49"/>
<text text-anchor="start" x="574" y="-67" font-family="Helvetica,sans-Serif" font-size="10.00">application.MessageBox.create</text>
<text text-anchor="middle" x="649" y="-56" font-family="Helvetica,sans-Serif" font-size="10.00">MessageText</text>
</a>
</g>
</g>
<!-- Node3&#45;&gt;Node4 -->
<g id="edge3" class="edge"><title>Node3&#45;&gt;Node4</title>
<path fill="none" stroke="midnightblue" d="M530.213,-49.2767C538.654,-50.3318 547.27,-51.4087 555.809,-52.4761"/>
<polygon fill="midnightblue" stroke="midnightblue" points="555.426,-55.9554 565.783,-53.7228 556.294,-49.0094 555.426,-55.9554"/>
</g>
<!-- Node5 -->
<g id="node5" class="node"><title>Node5</title>
<g id="a_node5"><a xlink:href="../../d6/dd4/classapplication_1_1_message_box.html#a8e5e69eeb3a25bd743a9b376002f875e" target="_top" xlink:title="application.MessageBox.create\lOkayButton">
<polygon fill="white" stroke="black" points="566,-0 566,-30 732,-30 732,-0 566,-0"/>
<text text-anchor="start" x="574" y="-18" font-family="Helvetica,sans-Serif" font-size="10.00">application.MessageBox.create</text>
<text text-anchor="middle" x="649" y="-7" font-family="Helvetica,sans-Serif" font-size="10.00">OkayButton</text>
</a>
</g>
</g>
<!-- Node3&#45;&gt;Node5 -->
<g id="edge4" class="edge"><title>Node3&#45;&gt;Node5</title>
<path fill="none" stroke="midnightblue" d="M530.213,-29.1344C538.654,-28.1215 547.27,-27.0876 555.809,-26.063"/>
<polygon fill="midnightblue" stroke="midnightblue" points="556.271,-29.5327 565.783,-24.8661 555.437,-22.5826 556.271,-29.5327"/>
</g>
</g>
</svg>
        <g id="navigator" transform="translate(0 0)" fill="#404254">
                <rect fill="#f2f5e9" fill-opacity="0.5" stroke="#606060" stroke-width=".5" x="0" y="0" width="60" height="60"/>
                <use id="zoomplus" xlink:href="#zoomPlus" x="17" y="9" onmousedown="handleZoom(evt,'in')"/>
                <use id="zoomminus" xlink:href="#zoomMin" x="42" y="9" onmousedown="handleZoom(evt,'out')"/>
                <use id="reset" xlink:href="#resetDef" x="30" y="36" onmousedown="handleReset()"/>
                <g id="arrowUp" xlink:href="#dirArrow" transform="translate(30 24)" onmousedown="handlePan(0,-1)">
                  <use xlink:href="#rim" fill="#404040">
                        <set attributeName="fill" to="#808080" begin="arrowUp.mouseover" end="arrowUp.mouseout"/>
                  </use>
                  <path fill="none" stroke="white" stroke-width="1.5" d="M0,-3.0v7 M-2.5,-0.5L0,-3.0L2.5,-0.5"/>
                </g>
                <g id="arrowRight" xlink:href="#dirArrow" transform="rotate(90) translate(36 -43)" onmousedown="handlePan(1,0)">
                  <use xlink:href="#rim" fill="#404040">
                        <set attributeName="fill" to="#808080" begin="arrowRight.mouseover" end="arrowRight.mouseout"/>
                  </use>
                  <path fill="none" stroke="white" stroke-width="1.5" d="M0,-3.0v7 M-2.5,-0.5L0,-3.0L2.5,-0.5"/>
                </g>
                <g id="arrowDown" xlink:href="#dirArrow" transform="rotate(180) translate(-30 -48)" onmousedown="handlePan(0,1)">
                  <use xlink:href="#rim" fill="#404040">
                        <set attributeName="fill" to="#808080" begin="arrowDown.mouseover" end="arrowDown.mouseout"/>
                  </use>
                  <path fill="none" stroke="white" stroke-width="1.5" d="M0,-3.0v7 M-2.5,-0.5L0,-3.0L2.5,-0.5"/>
                </g>
                <g id="arrowLeft" xlink:href="#dirArrow" transform="rotate(270) translate(-36 17)" onmousedown="handlePan(-1,0)">
                  <use xlink:href="#rim" fill="#404040">
                        <set attributeName="fill" to="#808080" begin="arrowLeft.mouseover" end="arrowLeft.mouseout"/>
                  </use>
                  <path fill="none" stroke="white" stroke-width="1.5" d="M0,-3.0v7 M-2.5,-0.5L0,-3.0L2.5,-0.5"/>
                </g>
        </g>
        <svg viewBox="0 0 15 15" width="100%" height="30px" preserveAspectRatio="xMaxYMin meet">
         <g id="arrow_out" transform="scale(0.3 0.3)">
          <a xlink:href="classviewcontroller_1_1_view_a98e7b6a5716e94a0052d7bb51dc3a404_cgraph_org.svg" target="_base">
           <rect id="button" ry="5" rx="5" y="6" x="6" height="38" width="38"
                fill="#f2f5e9" fill-opacity="0.5" stroke="#606060" stroke-width="1.0"/>
           <path id="arrow"
             d="M 11.500037,31.436501 C 11.940474,20.09759 22.043105,11.32322 32.158766,21.979434 L 37.068811,17.246167 C 37.068811,17.246167 37.088388,32 37.088388,32 L 22.160133,31.978069 C 22.160133,31.978069 26.997745,27.140456 26.997745,27.140456 C 18.528582,18.264221 13.291696,25.230495 11.500037,31.436501 z"
             style="fill:#404040;"/>
          </a>
         </g>
        </svg>
</svg>
