<?xml version="1.0" encoding="UTF-8" standalone="no"?>
<!DOCTYPE svg PUBLIC "-//W3C//DTD SVG 1.1//EN"
 "http://www.w3.org/Graphics/SVG/1.1/DTD/svg11.dtd">
<!-- Generated by graphviz version 2.36.0 (20140111.2315)
 -->
<!-- Title: viewcontroller.View.addTurtleClicked Pages: 1 -->
<svg width="1168pt" height="150pt"
 viewBox="0.00 0.00 1168.00 150.00" xmlns="http://www.w3.org/2000/svg" xmlns:xlink="http://www.w3.org/1999/xlink">
<g id="graph0" class="graph" transform="scale(1 1) rotate(0) translate(4 146)">
<title>viewcontroller.View.addTurtleClicked</title>
<polygon fill="white" stroke="none" points="-4,4 -4,-146 1164,-146 1164,4 -4,4"/>
<!-- Node1 -->
<g id="node1" class="node"><title>Node1</title>
<polygon fill="#bfbfbf" stroke="black" points="0,-73 0,-103 152,-103 152,-73 0,-73"/>
<text text-anchor="start" x="8" y="-91" font-family="Helvetica,sans-Serif" font-size="10.00">viewcontroller.View.addTurtle</text>
<text text-anchor="middle" x="76" y="-80" font-family="Helvetica,sans-Serif" font-size="10.00">Clicked</text>
</g>
<!-- Node2 -->
<g id="node2" class="node"><title>Node2</title>
<g id="a_node2"><a xlink:href="../../de/d21/classmodel_1_1_main_model.html#ad72fa580bd0a6764968613507bae2155" target="_top" xlink:title="model.MainModel.addTurtle">
<polygon fill="white" stroke="black" points="192.5,-122.5 192.5,-141.5 339.5,-141.5 339.5,-122.5 192.5,-122.5"/>
<text text-anchor="middle" x="266" y="-129.5" font-family="Helvetica,sans-Serif" font-size="10.00">model.MainModel.addTurtle</text>
</a>
</g>
</g>
<!-- Node1&#45;&gt;Node2 -->
<g id="edge1" class="edge"><title>Node1&#45;&gt;Node2</title>
<path fill="none" stroke="midnightblue" d="M141.173,-103.019C165.064,-108.611 191.823,-114.874 214.336,-120.143"/>
<polygon fill="midnightblue" stroke="midnightblue" points="213.822,-123.617 224.356,-122.488 215.417,-116.801 213.822,-123.617"/>
</g>
<!-- Node4 -->
<g id="node4" class="node"><title>Node4</title>
<g id="a_node4"><a xlink:href="../../d8/d3a/classviewcontroller_1_1_workspace.html#a1b461756646e982d8efbb5a286576c7a" target="_top" xlink:title="viewcontroller.Workspace.get\lMainModel">
<polygon fill="white" stroke="black" points="189,-73 189,-103 343,-103 343,-73 189,-73"/>
<text text-anchor="start" x="197" y="-91" font-family="Helvetica,sans-Serif" font-size="10.00">viewcontroller.Workspace.get</text>
<text text-anchor="middle" x="266" y="-80" font-family="Helvetica,sans-Serif" font-size="10.00">MainModel</text>
</a>
</g>
</g>
<!-- Node1&#45;&gt;Node4 -->
<g id="edge3" class="edge"><title>Node1&#45;&gt;Node4</title>
<path fill="none" stroke="midnightblue" d="M152.113,-88C160.787,-88 169.685,-88 178.495,-88"/>
<polygon fill="midnightblue" stroke="midnightblue" points="178.778,-91.5001 188.778,-88 178.778,-84.5001 178.778,-91.5001"/>
</g>
<!-- Node5 -->
<g id="node5" class="node"><title>Node5</title>
<g id="a_node5"><a xlink:href="../../da/d4e/classviewcontroller_1_1_view.html#a9ad52fdebf34b834ab51d0a969833e75" target="_top" xlink:title="viewcontroller.View.noCurrent\lWorkspace">
<polygon fill="white" stroke="black" points="188,-24 188,-54 344,-54 344,-24 188,-24"/>
<text text-anchor="start" x="196" y="-42" font-family="Helvetica,sans-Serif" font-size="10.00">viewcontroller.View.noCurrent</text>
<text text-anchor="middle" x="266" y="-31" font-family="Helvetica,sans-Serif" font-size="10.00">Workspace</text>
</a>
</g>
</g>
<!-- Node1&#45;&gt;Node5 -->
<g id="edge4" class="edge"><title>Node1&#45;&gt;Node5</title>
<path fill="none" stroke="midnightblue" d="M134.684,-72.9654C154.534,-67.7917 176.937,-61.9525 197.499,-56.5934"/>
<polygon fill="midnightblue" stroke="midnightblue" points="198.631,-59.9152 207.425,-54.0062 196.866,-53.1415 198.631,-59.9152"/>
</g>
<!-- Node3 -->
<g id="node3" class="node"><title>Node3</title>
<g id="a_node3"><a xlink:href="../../de/d21/classmodel_1_1_main_model.html#a81fd23aa152cf9311abb569fa3c656fb" target="_top" xlink:title="model.MainModel.notifyObservers">
<polygon fill="white" stroke="black" points="380.5,-122.5 380.5,-141.5 559.5,-141.5 559.5,-122.5 380.5,-122.5"/>
<text text-anchor="middle" x="470" y="-129.5" font-family="Helvetica,sans-Serif" font-size="10.00">model.MainModel.notifyObservers</text>
</a>
</g>
</g>
<!-- Node2&#45;&gt;Node3 -->
<g id="edge2" class="edge"><title>Node2&#45;&gt;Node3</title>
<path fill="none" stroke="midnightblue" d="M339.641,-132C349.566,-132 359.889,-132 370.182,-132"/>
<polygon fill="midnightblue" stroke="midnightblue" points="370.449,-135.5 380.449,-132 370.449,-128.5 370.449,-135.5"/>
</g>
<!-- Node6 -->
<g id="node6" class="node"><title>Node6</title>
<g id="a_node6"><a xlink:href="../../da/d4e/classviewcontroller_1_1_view.html#a98e7b6a5716e94a0052d7bb51dc3a404" target="_top" xlink:title="viewcontroller.View.show\lMessage">
<polygon fill="white" stroke="black" points="404,-24 404,-54 536,-54 536,-24 404,-24"/>
<text text-anchor="start" x="412" y="-42" font-family="Helvetica,sans-Serif" font-size="10.00">viewcontroller.View.show</text>
<text text-anchor="middle" x="470" y="-31" font-family="Helvetica,sans-Serif" font-size="10.00">Message</text>
</a>
</g>
</g>
<!-- Node5&#45;&gt;Node6 -->
<g id="edge5" class="edge"><title>Node5&#45;&gt;Node6</title>
<path fill="none" stroke="midnightblue" d="M344.232,-39C360.404,-39 377.437,-39 393.543,-39"/>
<polygon fill="midnightblue" stroke="midnightblue" points="393.975,-42.5001 403.975,-39 393.975,-35.5001 393.975,-42.5001"/>
</g>
<!-- Node7 -->
<g id="node7" class="node"><title>Node7</title>
<g id="a_node7"><a xlink:href="../../d6/dd4/classapplication_1_1_message_box.html#a272fc424b595a91a6d2048981ac95e5b" target="_top" xlink:title="application.MessageBox.show">
<polygon fill="white" stroke="black" points="596.5,-29.5 596.5,-48.5 755.5,-48.5 755.5,-29.5 596.5,-29.5"/>
<text text-anchor="middle" x="676" y="-36.5" font-family="Helvetica,sans-Serif" font-size="10.00">application.MessageBox.show</text>
</a>
</g>
</g>
<!-- Node6&#45;&gt;Node7 -->
<g id="edge6" class="edge"><title>Node6&#45;&gt;Node7</title>
<path fill="none" stroke="midnightblue" d="M536.108,-39C551.944,-39 569.152,-39 585.889,-39"/>
<polygon fill="midnightblue" stroke="midnightblue" points="586.233,-42.5001 596.233,-39 586.233,-35.5001 586.233,-42.5001"/>
</g>
<!-- Node8 -->
<g id="node8" class="node"><title>Node8</title>
<g id="a_node8"><a xlink:href="../../d6/dd4/classapplication_1_1_message_box.html#a6c41f7d51b489df9b0a577d1a318c58d" target="_top" xlink:title="application.MessageBox.create\lMessageBox">
<polygon fill="white" stroke="black" points="792,-24 792,-54 958,-54 958,-24 792,-24"/>
<text text-anchor="start" x="800" y="-42" font-family="Helvetica,sans-Serif" font-size="10.00">application.MessageBox.create</text>
<text text-anchor="middle" x="875" y="-31" font-family="Helvetica,sans-Serif" font-size="10.00">MessageBox</text>
</a>
</g>
</g>
<!-- Node7&#45;&gt;Node8 -->
<g id="edge7" class="edge"><title>Node7&#45;&gt;Node8</title>
<path fill="none" stroke="midnightblue" d="M755.709,-39C764.259,-39 773.017,-39 781.71,-39"/>
<polygon fill="midnightblue" stroke="midnightblue" points="781.869,-42.5001 791.869,-39 781.869,-35.5001 781.869,-42.5001"/>
</g>
<!-- Node9 -->
<g id="node9" class="node"><title>Node9</title>
<g id="a_node9"><a xlink:href="../../d6/dd4/classapplication_1_1_message_box.html#ac3b708a4c65b8243168425667649c221" target="_top" xlink:title="application.MessageBox.create\lMessageText">
<polygon fill="white" stroke="black" points="994,-49 994,-79 1160,-79 1160,-49 994,-49"/>
<text text-anchor="start" x="1002" y="-67" font-family="Helvetica,sans-Serif" font-size="10.00">application.MessageBox.create</text>
<text text-anchor="middle" x="1077" y="-56" font-family="Helvetica,sans-Serif" font-size="10.00">MessageText</text>
</a>
</g>
</g>
<!-- Node8&#45;&gt;Node9 -->
<g id="edge8" class="edge"><title>Node8&#45;&gt;Node9</title>
<path fill="none" stroke="midnightblue" d="M958.213,-49.2767C966.654,-50.3318 975.27,-51.4087 983.809,-52.4761"/>
<polygon fill="midnightblue" stroke="midnightblue" points="983.426,-55.9554 993.783,-53.7228 984.294,-49.0094 983.426,-55.9554"/>
</g>
<!-- Node10 -->
<g id="node10" class="node"><title>Node10</title>
<g id="a_node10"><a xlink:href="../../d6/dd4/classapplication_1_1_message_box.html#a8e5e69eeb3a25bd743a9b376002f875e" target="_top" xlink:title="application.MessageBox.create\lOkayButton">
<polygon fill="white" stroke="black" points="994,-0 994,-30 1160,-30 1160,-0 994,-0"/>
<text text-anchor="start" x="1002" y="-18" font-family="Helvetica,sans-Serif" font-size="10.00">application.MessageBox.create</text>
<text text-anchor="middle" x="1077" y="-7" font-family="Helvetica,sans-Serif" font-size="10.00">OkayButton</text>
</a>
</g>
</g>
<!-- Node8&#45;&gt;Node10 -->
<g id="edge9" class="edge"><title>Node8&#45;&gt;Node10</title>
<path fill="none" stroke="midnightblue" d="M958.213,-29.1344C966.654,-28.1215 975.27,-27.0876 983.809,-26.063"/>
<polygon fill="midnightblue" stroke="midnightblue" points="984.271,-29.5327 993.783,-24.8661 983.437,-22.5826 984.271,-29.5327"/>
</g>
</g>
</svg>
