<?xml version="1.0" encoding="UTF-8" standalone="no"?>
<!DOCTYPE svg PUBLIC "-//W3C//DTD SVG 1.1//EN"
 "http://www.w3.org/Graphics/SVG/1.1/DTD/svg11.dtd">
<!-- Generated by graphviz version 2.36.0 (20140111.2315)
 -->
<!-- Title: viewcontroller.View.showHelp Pages: 1 -->
<svg width="514pt" height="38pt"
 viewBox="0.00 0.00 514.00 38.00" xmlns="http://www.w3.org/2000/svg" xmlns:xlink="http://www.w3.org/1999/xlink">
<g id="graph0" class="graph" transform="scale(1 1) rotate(0) translate(4 34)">
<title>viewcontroller.View.showHelp</title>
<polygon fill="white" stroke="none" points="-4,4 -4,-34 510,-34 510,4 -4,4"/>
<!-- Node1 -->
<g id="node1" class="node"><title>Node1</title>
<polygon fill="#bfbfbf" stroke="black" points="0,-5.5 0,-24.5 154,-24.5 154,-5.5 0,-5.5"/>
<text text-anchor="middle" x="77" y="-12.5" font-family="Helvetica,sans-Serif" font-size="10.00">viewcontroller.View.showHelp</text>
</g>
<!-- Node2 -->
<g id="node2" class="node"><title>Node2</title>
<g id="a_node2"><a xlink:href="../../df/df9/classviewcontroller_1_1_s_logo_menu_bar.html#aea535ae86d7ac7a2fffe549d7bdf2a1d" target="_top" xlink:title="viewcontroller.SLogoMenu\lBar.initializeFileMenu">
<polygon fill="white" stroke="black" points="190,-0 190,-30 330,-30 330,-0 190,-0"/>
<text text-anchor="start" x="198" y="-18" font-family="Helvetica,sans-Serif" font-size="10.00">viewcontroller.SLogoMenu</text>
<text text-anchor="middle" x="260" y="-7" font-family="Helvetica,sans-Serif" font-size="10.00">Bar.initializeFileMenu</text>
</a>
</g>
</g>
<!-- Node1&#45;&gt;Node2 -->
<g id="edge1" class="edge"><title>Node1&#45;&gt;Node2</title>
<path fill="none" stroke="midnightblue" d="M164.241,-15C172.8,-15 181.409,-15 189.763,-15"/>
<polygon fill="midnightblue" stroke="midnightblue" points="164.236,-11.5001 154.236,-15 164.236,-18.5001 164.236,-11.5001"/>
</g>
<!-- Node3 -->
<g id="node3" class="node"><title>Node3</title>
<g id="a_node3"><a xlink:href="../../df/df9/classviewcontroller_1_1_s_logo_menu_bar.html#a75b45d0a4b08de5ff8588fc15b2f14fe" target="_top" xlink:title="viewcontroller.SLogoMenu\lBar.SLogoMenuBar">
<polygon fill="white" stroke="black" points="366,-0 366,-30 506,-30 506,-0 366,-0"/>
<text text-anchor="start" x="374" y="-18" font-family="Helvetica,sans-Serif" font-size="10.00">viewcontroller.SLogoMenu</text>
<text text-anchor="middle" x="436" y="-7" font-family="Helvetica,sans-Serif" font-size="10.00">Bar.SLogoMenuBar</text>
</a>
</g>
</g>
<!-- Node2&#45;&gt;Node3 -->
<g id="edge2" class="edge"><title>Node2&#45;&gt;Node3</title>
<path fill="none" stroke="midnightblue" d="M340.035,-15C348.625,-15 357.319,-15 365.779,-15"/>
<polygon fill="midnightblue" stroke="midnightblue" points="340.019,-11.5001 330.019,-15 340.019,-18.5001 340.019,-11.5001"/>
</g>
</g>
</svg>
