<?xml version="1.0" encoding="UTF-8" standalone="no"?>
<!DOCTYPE svg PUBLIC "-//W3C//DTD SVG 1.1//EN"
 "http://www.w3.org/Graphics/SVG/1.1/DTD/svg11.dtd">
<!-- Generated by graphviz version 2.36.0 (20140111.2315)
 -->
<!-- Title: viewcontroller.View.noCurrentWorkspace Pages: 1 -->
<!--zoomable 322 -->
<svg id="main" version="1.1" xmlns="http://www.w3.org/2000/svg" xmlns:xlink="http://www.w3.org/1999/xlink" xml:space="preserve" onload="init(evt)">
<style type="text/css"><![CDATA[
.edge:hover path { stroke: red; }
.edge:hover polygon { stroke: red; fill: red; }
]]></style>
<script type="text/javascript"><![CDATA[
var edges = document.getElementsByTagName('g');
if (edges && edges.length) {
  for (var i=0;i<edges.length;i++) {
    if (edges[i].id.substr(0,4)=='edge') {
      edges[i].setAttribute('class','edge');
    }
  }
}
]]></script>
        <defs>
                <circle id="rim" cx="0" cy="0" r="7"/>
                <circle id="rim2" cx="0" cy="0" r="3.5"/>
                <g id="zoomPlus">
                        <use xlink:href="#rim" fill="#404040">
                                <set attributeName="fill" to="#808080" begin="zoomplus.mouseover" end="zoomplus.mouseout"/>
                        </use>
                        <path d="M-4,0h8M0,-4v8" fill="none" stroke="white" stroke-width="1.5" pointer-events="none"/>
                </g>
                <g id="zoomMin">
                        <use xlink:href="#rim" fill="#404040">
                                <set attributeName="fill" to="#808080" begin="zoomminus.mouseover" end="zoomminus.mouseout"/>
                        </use>
                        <path d="M-4,0h8" fill="none" stroke="white" stroke-width="1.5" pointer-events="none"/>
                </g>
                <g id="dirArrow">
                        <path fill="none" stroke="white" stroke-width="1.5" d="M0,-3.0v7 M-2.5,-0.5L0,-3.0L2.5,-0.5"/>
                </g>
               <g id="resetDef">
                       <use xlink:href="#rim2" fill="#404040">
                               <set attributeName="fill" to="#808080" begin="reset.mouseover" end="reset.mouseout"/>
                       </use>
               </g>
        </defs>

<script type="text/javascript">
var viewWidth = 704;
var viewHeight = 322;
var sectionId = 'dynsection-22';
</script>
<script xlink:href="../../svgpan.js"/>
<svg id="graph" class="graph">
<g id="viewport">
<title>viewcontroller.View.noCurrentWorkspace</title>
<polygon fill="white" stroke="none" points="-4,4 -4,-318 700,-318 700,4 -4,4"/>
<!-- Node1 -->
<g id="node1" class="node"><title>Node1</title>
<polygon fill="#bfbfbf" stroke="black" points="0,-142 0,-172 156,-172 156,-142 0,-142"/>
<text text-anchor="start" x="8" y="-160" font-family="Helvetica,sans-Serif" font-size="10.00">viewcontroller.View.noCurrent</text>
<text text-anchor="middle" x="78" y="-149" font-family="Helvetica,sans-Serif" font-size="10.00">Workspace</text>
</g>
<!-- Node2 -->
<g id="node2" class="node"><title>Node2</title>
<g id="a_node2"><a xlink:href="../../da/d4e/classviewcontroller_1_1_view.html#ad56492108159c72ac56423b7fabe3b81" target="_top" xlink:title="viewcontroller.View.addTurtle\lClicked">
<polygon fill="white" stroke="black" points="192,-284 192,-314 344,-314 344,-284 192,-284"/>
<text text-anchor="start" x="200" y="-302" font-family="Helvetica,sans-Serif" font-size="10.00">viewcontroller.View.addTurtle</text>
<text text-anchor="middle" x="268" y="-291" font-family="Helvetica,sans-Serif" font-size="10.00">Clicked</text>
</a>
</g>
</g>
<!-- Node1&#45;&gt;Node2 -->
<g id="edge1" class="edge"><title>Node1&#45;&gt;Node2</title>
<path fill="none" stroke="midnightblue" d="M95.9699,-180.423C116.123,-206.674 152.074,-248.842 192,-274 198.038,-277.805 204.718,-281.095 211.529,-283.924"/>
<polygon fill="midnightblue" stroke="midnightblue" points="98.5711,-178.059 89.7581,-172.179 92.9803,-182.272 98.5711,-178.059"/>
</g>
<!-- Node5 -->
<g id="node5" class="node"><title>Node5</title>
<g id="a_node5"><a xlink:href="../../da/d4e/classviewcontroller_1_1_view.html#a89076f3aec0df7ef97f43fef2912e54f" target="_top" xlink:title="viewcontroller.View.change\lTurtleImages">
<polygon fill="white" stroke="black" points="196.5,-235 196.5,-265 339.5,-265 339.5,-235 196.5,-235"/>
<text text-anchor="start" x="204.5" y="-253" font-family="Helvetica,sans-Serif" font-size="10.00">viewcontroller.View.change</text>
<text text-anchor="middle" x="268" y="-242" font-family="Helvetica,sans-Serif" font-size="10.00">TurtleImages</text>
</a>
</g>
</g>
<!-- Node1&#45;&gt;Node5 -->
<g id="edge4" class="edge"><title>Node1&#45;&gt;Node5</title>
<path fill="none" stroke="midnightblue" d="M109.053,-177.582C131.266,-192.166 162.627,-211.467 192,-225 199.853,-228.618 208.384,-231.97 216.782,-234.967"/>
<polygon fill="midnightblue" stroke="midnightblue" points="110.984,-174.663 100.717,-172.049 107.113,-180.495 110.984,-174.663"/>
</g>
<!-- Node6 -->
<g id="node6" class="node"><title>Node6</title>
<g id="a_node6"><a xlink:href="../../da/d4e/classviewcontroller_1_1_view.html#a1f7ce4457b38e302cf3a052c8d36a7a6" target="_top" xlink:title="viewcontroller.View.loadFile">
<polygon fill="white" stroke="black" points="196.5,-147.5 196.5,-166.5 339.5,-166.5 339.5,-147.5 196.5,-147.5"/>
<text text-anchor="middle" x="268" y="-154.5" font-family="Helvetica,sans-Serif" font-size="10.00">viewcontroller.View.loadFile</text>
</a>
</g>
</g>
<!-- Node1&#45;&gt;Node6 -->
<g id="edge6" class="edge"><title>Node1&#45;&gt;Node6</title>
<path fill="none" stroke="midnightblue" d="M166.12,-157C176.284,-157 186.556,-157 196.457,-157"/>
<polygon fill="midnightblue" stroke="midnightblue" points="166.009,-153.5 156.009,-157 166.009,-160.5 166.009,-153.5"/>
</g>
<!-- Node8 -->
<g id="node8" class="node"><title>Node8</title>
<g id="a_node8"><a xlink:href="../../da/d4e/classviewcontroller_1_1_view.html#a487061003bc9857296875d07d9b531cc" target="_top" xlink:title="viewcontroller.View.redo\lClicked">
<polygon fill="white" stroke="black" points="203,-49 203,-79 333,-79 333,-49 203,-49"/>
<text text-anchor="start" x="211" y="-67" font-family="Helvetica,sans-Serif" font-size="10.00">viewcontroller.View.redo</text>
<text text-anchor="middle" x="268" y="-56" font-family="Helvetica,sans-Serif" font-size="10.00">Clicked</text>
</a>
</g>
</g>
<!-- Node1&#45;&gt;Node8 -->
<g id="edge9" class="edge"><title>Node1&#45;&gt;Node8</title>
<path fill="none" stroke="midnightblue" d="M108.546,-136.256C130.737,-121.358 162.289,-101.588 192,-88 199.087,-84.7589 206.736,-81.7714 214.345,-79.085"/>
<polygon fill="midnightblue" stroke="midnightblue" points="106.535,-133.39 100.23,-141.905 110.469,-139.181 106.535,-133.39"/>
</g>
<!-- Node10 -->
<g id="node10" class="node"><title>Node10</title>
<g id="a_node10"><a xlink:href="../../da/d4e/classviewcontroller_1_1_view.html#a6d302784ecfa68080791115cc18e308e" target="_top" xlink:title="viewcontroller.View.save\lWorkspace">
<polygon fill="white" stroke="black" points="202.5,-98 202.5,-128 333.5,-128 333.5,-98 202.5,-98"/>
<text text-anchor="start" x="210.5" y="-116" font-family="Helvetica,sans-Serif" font-size="10.00">viewcontroller.View.save</text>
<text text-anchor="middle" x="268" y="-105" font-family="Helvetica,sans-Serif" font-size="10.00">Workspace</text>
</a>
</g>
</g>
<!-- Node1&#45;&gt;Node10 -->
<g id="edge12" class="edge"><title>Node1&#45;&gt;Node10</title>
<path fill="none" stroke="midnightblue" d="M153.247,-139.623C169.63,-135.789 186.851,-131.758 202.797,-128.026"/>
<polygon fill="midnightblue" stroke="midnightblue" points="152.112,-136.294 143.173,-141.981 153.708,-143.11 152.112,-136.294"/>
</g>
<!-- Node11 -->
<g id="node11" class="node"><title>Node11</title>
<g id="a_node11"><a xlink:href="../../da/d4e/classviewcontroller_1_1_view.html#a663f58ba5e84352186e4c332b407cd8e" target="_top" xlink:title="viewcontroller.View.toggle\lGridLines">
<polygon fill="white" stroke="black" points="199,-186 199,-216 337,-216 337,-186 199,-186"/>
<text text-anchor="start" x="207" y="-204" font-family="Helvetica,sans-Serif" font-size="10.00">viewcontroller.View.toggle</text>
<text text-anchor="middle" x="268" y="-193" font-family="Helvetica,sans-Serif" font-size="10.00">GridLines</text>
</a>
</g>
</g>
<!-- Node1&#45;&gt;Node11 -->
<g id="edge14" class="edge"><title>Node1&#45;&gt;Node11</title>
<path fill="none" stroke="midnightblue" d="M153.247,-174.377C169.63,-178.211 186.851,-182.242 202.797,-185.974"/>
<polygon fill="midnightblue" stroke="midnightblue" points="153.708,-170.89 143.173,-172.019 152.112,-177.706 153.708,-170.89"/>
</g>
<!-- Node12 -->
<g id="node12" class="node"><title>Node12</title>
<g id="a_node12"><a xlink:href="../../da/d4e/classviewcontroller_1_1_view.html#ab0cf08da4f357ee008acc7c294930637" target="_top" xlink:title="viewcontroller.View.undo\lClicked">
<polygon fill="white" stroke="black" points="202,-0 202,-30 334,-30 334,-0 202,-0"/>
<text text-anchor="start" x="210" y="-18" font-family="Helvetica,sans-Serif" font-size="10.00">viewcontroller.View.undo</text>
<text text-anchor="middle" x="268" y="-7" font-family="Helvetica,sans-Serif" font-size="10.00">Clicked</text>
</a>
</g>
</g>
<!-- Node1&#45;&gt;Node12 -->
<g id="edge16" class="edge"><title>Node1&#45;&gt;Node12</title>
<path fill="none" stroke="midnightblue" d="M95.8704,-133.282C115.932,-106.721 151.799,-64.1127 192,-39 197.45,-35.5957 203.426,-32.6325 209.552,-30.0631"/>
<polygon fill="midnightblue" stroke="midnightblue" points="92.8293,-131.508 89.6894,-141.627 98.4542,-135.674 92.8293,-131.508"/>
</g>
<!-- Node3 -->
<g id="node3" class="node"><title>Node3</title>
<g id="a_node3"><a xlink:href="../../df/df9/classviewcontroller_1_1_s_logo_menu_bar.html#a068f788551874f8c8862c10f8f0f6253" target="_top" xlink:title="viewcontroller.SLogoMenu\lBar.initializeGridMenu">
<polygon fill="white" stroke="black" points="380,-210 380,-240 520,-240 520,-210 380,-210"/>
<text text-anchor="start" x="388" y="-228" font-family="Helvetica,sans-Serif" font-size="10.00">viewcontroller.SLogoMenu</text>
<text text-anchor="middle" x="450" y="-217" font-family="Helvetica,sans-Serif" font-size="10.00">Bar.initializeGridMenu</text>
</a>
</g>
</g>
<!-- Node2&#45;&gt;Node3 -->
<g id="edge2" class="edge"><title>Node2&#45;&gt;Node3</title>
<path fill="none" stroke="midnightblue" d="M326.749,-280.498C332.61,-278.397 338.446,-276.213 344,-274 369.789,-263.724 398.286,-250.288 419.077,-240.085"/>
<polygon fill="midnightblue" stroke="midnightblue" points="325.189,-277.335 316.908,-283.944 327.503,-283.942 325.189,-277.335"/>
</g>
<!-- Node4 -->
<g id="node4" class="node"><title>Node4</title>
<g id="a_node4"><a xlink:href="../../df/df9/classviewcontroller_1_1_s_logo_menu_bar.html#a75b45d0a4b08de5ff8588fc15b2f14fe" target="_top" xlink:title="viewcontroller.SLogoMenu\lBar.SLogoMenuBar">
<polygon fill="white" stroke="black" points="556,-120 556,-150 696,-150 696,-120 556,-120"/>
<text text-anchor="start" x="564" y="-138" font-family="Helvetica,sans-Serif" font-size="10.00">viewcontroller.SLogoMenu</text>
<text text-anchor="middle" x="626" y="-127" font-family="Helvetica,sans-Serif" font-size="10.00">Bar.SLogoMenuBar</text>
</a>
</g>
</g>
<!-- Node3&#45;&gt;Node4 -->
<g id="edge3" class="edge"><title>Node3&#45;&gt;Node4</title>
<path fill="none" stroke="midnightblue" d="M489.219,-205.231C521.32,-188.627 566.513,-165.252 595.781,-150.113"/>
<polygon fill="midnightblue" stroke="midnightblue" points="487.398,-202.233 480.124,-209.936 490.614,-208.451 487.398,-202.233"/>
</g>
<!-- Node5&#45;&gt;Node3 -->
<g id="edge5" class="edge"><title>Node5&#45;&gt;Node3</title>
<path fill="none" stroke="midnightblue" d="M349.613,-238.804C359.674,-237.406 369.893,-235.987 379.759,-234.617"/>
<polygon fill="midnightblue" stroke="midnightblue" points="349.048,-235.349 339.624,-240.191 350.011,-242.282 349.048,-235.349"/>
</g>
<!-- Node7 -->
<g id="node7" class="node"><title>Node7</title>
<g id="a_node7"><a xlink:href="../../df/df9/classviewcontroller_1_1_s_logo_menu_bar.html#aea535ae86d7ac7a2fffe549d7bdf2a1d" target="_top" xlink:title="viewcontroller.SLogoMenu\lBar.initializeFileMenu">
<polygon fill="white" stroke="black" points="380,-120 380,-150 520,-150 520,-120 380,-120"/>
<text text-anchor="start" x="388" y="-138" font-family="Helvetica,sans-Serif" font-size="10.00">viewcontroller.SLogoMenu</text>
<text text-anchor="middle" x="450" y="-127" font-family="Helvetica,sans-Serif" font-size="10.00">Bar.initializeFileMenu</text>
</a>
</g>
</g>
<!-- Node6&#45;&gt;Node7 -->
<g id="edge7" class="edge"><title>Node6&#45;&gt;Node7</title>
<path fill="none" stroke="midnightblue" d="M349.613,-147.147C359.674,-145.918 369.893,-144.669 379.759,-143.463"/>
<polygon fill="midnightblue" stroke="midnightblue" points="349.126,-143.681 339.624,-148.368 349.975,-150.629 349.126,-143.681"/>
</g>
<!-- Node7&#45;&gt;Node4 -->
<g id="edge8" class="edge"><title>Node7&#45;&gt;Node4</title>
<path fill="none" stroke="midnightblue" d="M530.035,-135C538.625,-135 547.319,-135 555.779,-135"/>
<polygon fill="midnightblue" stroke="midnightblue" points="530.019,-131.5 520.019,-135 530.019,-138.5 530.019,-131.5"/>
</g>
<!-- Node9 -->
<g id="node9" class="node"><title>Node9</title>
<g id="a_node9"><a xlink:href="../../df/df9/classviewcontroller_1_1_s_logo_menu_bar.html#acdf079204224a9c0c24ce028f942e628" target="_top" xlink:title="viewcontroller.SLogoMenu\lBar.initializeEditMenu">
<polygon fill="white" stroke="black" points="380,-49 380,-79 520,-79 520,-49 380,-49"/>
<text text-anchor="start" x="388" y="-67" font-family="Helvetica,sans-Serif" font-size="10.00">viewcontroller.SLogoMenu</text>
<text text-anchor="middle" x="450" y="-56" font-family="Helvetica,sans-Serif" font-size="10.00">Bar.initializeEditMenu</text>
</a>
</g>
</g>
<!-- Node8&#45;&gt;Node9 -->
<g id="edge10" class="edge"><title>Node8&#45;&gt;Node9</title>
<path fill="none" stroke="midnightblue" d="M343.293,-64C355.416,-64 367.932,-64 379.923,-64"/>
<polygon fill="midnightblue" stroke="midnightblue" points="343.222,-60.5001 333.222,-64 343.222,-67.5001 343.222,-60.5001"/>
</g>
<!-- Node9&#45;&gt;Node4 -->
<g id="edge11" class="edge"><title>Node9&#45;&gt;Node4</title>
<path fill="none" stroke="midnightblue" d="M497.235,-82.8659C525.679,-94.4725 561.635,-109.144 588.152,-119.964"/>
<polygon fill="midnightblue" stroke="midnightblue" points="498.482,-79.5948 487.901,-79.0573 495.837,-86.076 498.482,-79.5948"/>
</g>
<!-- Node10&#45;&gt;Node7 -->
<g id="edge13" class="edge"><title>Node10&#45;&gt;Node7</title>
<path fill="none" stroke="midnightblue" d="M343.712,-122.131C355.724,-123.6 368.11,-125.113 379.981,-126.564"/>
<polygon fill="midnightblue" stroke="midnightblue" points="344.081,-118.651 333.73,-120.911 343.231,-125.599 344.081,-118.651"/>
</g>
<!-- Node11&#45;&gt;Node3 -->
<g id="edge15" class="edge"><title>Node11&#45;&gt;Node3</title>
<path fill="none" stroke="midnightblue" d="M347.026,-211.404C357.984,-212.864 369.182,-214.358 379.956,-215.794"/>
<polygon fill="midnightblue" stroke="midnightblue" points="347.425,-207.926 337.05,-210.073 346.5,-214.864 347.425,-207.926"/>
</g>
<!-- Node12&#45;&gt;Node9 -->
<g id="edge17" class="edge"><title>Node12&#45;&gt;Node9</title>
<path fill="none" stroke="midnightblue" d="M334.198,-32.7485C353.707,-38.0591 374.902,-43.8288 393.708,-48.9484"/>
<polygon fill="midnightblue" stroke="midnightblue" points="335.043,-29.351 324.475,-30.1014 333.204,-36.1053 335.043,-29.351"/>
</g>
</g>
</svg>
        <g id="navigator" transform="translate(0 0)" fill="#404254">
                <rect fill="#f2f5e9" fill-opacity="0.5" stroke="#606060" stroke-width=".5" x="0" y="0" width="60" height="60"/>
                <use id="zoomplus" xlink:href="#zoomPlus" x="17" y="9" onmousedown="handleZoom(evt,'in')"/>
                <use id="zoomminus" xlink:href="#zoomMin" x="42" y="9" onmousedown="handleZoom(evt,'out')"/>
                <use id="reset" xlink:href="#resetDef" x="30" y="36" onmousedown="handleReset()"/>
                <g id="arrowUp" xlink:href="#dirArrow" transform="translate(30 24)" onmousedown="handlePan(0,-1)">
                  <use xlink:href="#rim" fill="#404040">
                        <set attributeName="fill" to="#808080" begin="arrowUp.mouseover" end="arrowUp.mouseout"/>
                  </use>
                  <path fill="none" stroke="white" stroke-width="1.5" d="M0,-3.0v7 M-2.5,-0.5L0,-3.0L2.5,-0.5"/>
                </g>
                <g id="arrowRight" xlink:href="#dirArrow" transform="rotate(90) translate(36 -43)" onmousedown="handlePan(1,0)">
                  <use xlink:href="#rim" fill="#404040">
                        <set attributeName="fill" to="#808080" begin="arrowRight.mouseover" end="arrowRight.mouseout"/>
                  </use>
                  <path fill="none" stroke="white" stroke-width="1.5" d="M0,-3.0v7 M-2.5,-0.5L0,-3.0L2.5,-0.5"/>
                </g>
                <g id="arrowDown" xlink:href="#dirArrow" transform="rotate(180) translate(-30 -48)" onmousedown="handlePan(0,1)">
                  <use xlink:href="#rim" fill="#404040">
                        <set attributeName="fill" to="#808080" begin="arrowDown.mouseover" end="arrowDown.mouseout"/>
                  </use>
                  <path fill="none" stroke="white" stroke-width="1.5" d="M0,-3.0v7 M-2.5,-0.5L0,-3.0L2.5,-0.5"/>
                </g>
                <g id="arrowLeft" xlink:href="#dirArrow" transform="rotate(270) translate(-36 17)" onmousedown="handlePan(-1,0)">
                  <use xlink:href="#rim" fill="#404040">
                        <set attributeName="fill" to="#808080" begin="arrowLeft.mouseover" end="arrowLeft.mouseout"/>
                  </use>
                  <path fill="none" stroke="white" stroke-width="1.5" d="M0,-3.0v7 M-2.5,-0.5L0,-3.0L2.5,-0.5"/>
                </g>
        </g>
        <svg viewBox="0 0 15 15" width="100%" height="30px" preserveAspectRatio="xMaxYMin meet">
         <g id="arrow_out" transform="scale(0.3 0.3)">
          <a xlink:href="classviewcontroller_1_1_view_a9ad52fdebf34b834ab51d0a969833e75_icgraph_org.svg" target="_base">
           <rect id="button" ry="5" rx="5" y="6" x="6" height="38" width="38"
                fill="#f2f5e9" fill-opacity="0.5" stroke="#606060" stroke-width="1.0"/>
           <path id="arrow"
             d="M 11.500037,31.436501 C 11.940474,20.09759 22.043105,11.32322 32.158766,21.979434 L 37.068811,17.246167 C 37.068811,17.246167 37.088388,32 37.088388,32 L 22.160133,31.978069 C 22.160133,31.978069 26.997745,27.140456 26.997745,27.140456 C 18.528582,18.264221 13.291696,25.230495 11.500037,31.436501 z"
             style="fill:#404040;"/>
          </a>
         </g>
        </svg>
</svg>
