<?xml version="1.0" encoding="UTF-8" standalone="no"?>
<!DOCTYPE svg PUBLIC "-//W3C//DTD SVG 1.1//EN"
 "http://www.w3.org/Graphics/SVG/1.1/DTD/svg11.dtd">
<!-- Generated by graphviz version 2.36.0 (20140111.2315)
 -->
<!-- Title: viewcontroller.View.View Pages: 1 -->
<!--zoomable 235 -->
<svg id="main" version="1.1" xmlns="http://www.w3.org/2000/svg" xmlns:xlink="http://www.w3.org/1999/xlink" xml:space="preserve" onload="init(evt)">
<style type="text/css"><![CDATA[
.edge:hover path { stroke: red; }
.edge:hover polygon { stroke: red; fill: red; }
]]></style>
<script type="text/javascript"><![CDATA[
var edges = document.getElementsByTagName('g');
if (edges && edges.length) {
  for (var i=0;i<edges.length;i++) {
    if (edges[i].id.substr(0,4)=='edge') {
      edges[i].setAttribute('class','edge');
    }
  }
}
]]></script>
        <defs>
                <circle id="rim" cx="0" cy="0" r="7"/>
                <circle id="rim2" cx="0" cy="0" r="3.5"/>
                <g id="zoomPlus">
                        <use xlink:href="#rim" fill="#404040">
                                <set attributeName="fill" to="#808080" begin="zoomplus.mouseover" end="zoomplus.mouseout"/>
                        </use>
                        <path d="M-4,0h8M0,-4v8" fill="none" stroke="white" stroke-width="1.5" pointer-events="none"/>
                </g>
                <g id="zoomMin">
                        <use xlink:href="#rim" fill="#404040">
                                <set attributeName="fill" to="#808080" begin="zoomminus.mouseover" end="zoomminus.mouseout"/>
                        </use>
                        <path d="M-4,0h8" fill="none" stroke="white" stroke-width="1.5" pointer-events="none"/>
                </g>
                <g id="dirArrow">
                        <path fill="none" stroke="white" stroke-width="1.5" d="M0,-3.0v7 M-2.5,-0.5L0,-3.0L2.5,-0.5"/>
                </g>
               <g id="resetDef">
                       <use xlink:href="#rim2" fill="#404040">
                               <set attributeName="fill" to="#808080" begin="reset.mouseover" end="reset.mouseout"/>
                       </use>
               </g>
        </defs>

<script type="text/javascript">
var viewWidth = 792;
var viewHeight = 235;
var sectionId = 'dynsection-1';
</script>
<script xlink:href="../../svgpan.js"/>
<svg id="graph" class="graph">
<g id="viewport">
<title>viewcontroller.View.View</title>
<polygon fill="white" stroke="none" points="-4,4 -4,-230.977 788,-230.977 788,4 -4,4"/>
<!-- Node1 -->
<g id="node1" class="node"><title>Node1</title>
<polygon fill="#bfbfbf" stroke="black" points="0,-103.5 0,-122.5 130,-122.5 130,-103.5 0,-103.5"/>
<text text-anchor="middle" x="65" y="-110.5" font-family="Helvetica,sans-Serif" font-size="10.00">viewcontroller.View.View</text>
</g>
<!-- Node2 -->
<g id="node2" class="node"><title>Node2</title>
<g id="a_node2"><a xlink:href="../../da/d4e/classviewcontroller_1_1_view.html#a64b659e383de6c070b48a80ddfa72668" target="_top" xlink:title="viewcontroller.View.addNew\lWorkspace">
<polygon fill="white" stroke="black" points="168,-147 168,-177 314,-177 314,-147 168,-147"/>
<text text-anchor="start" x="176" y="-165" font-family="Helvetica,sans-Serif" font-size="10.00">viewcontroller.View.addNew</text>
<text text-anchor="middle" x="241" y="-154" font-family="Helvetica,sans-Serif" font-size="10.00">Workspace</text>
</a>
</g>
</g>
<!-- Node1&#45;&gt;Node2 -->
<g id="edge1" class="edge"><title>Node1&#45;&gt;Node2</title>
<path fill="none" stroke="midnightblue" d="M99.962,-122.564C121.799,-128.713 150.844,-136.893 176.82,-144.208"/>
<polygon fill="midnightblue" stroke="midnightblue" points="176.029,-147.621 186.603,-146.963 177.927,-140.883 176.029,-147.621"/>
</g>
<!-- Node4 -->
<g id="node4" class="node"><title>Node4</title>
<g id="a_node4"><a xlink:href="../../d9/dd7/classviewcontroller_1_1_g_u_i_reference_library.html#ac147f33c0bfa0252d247d7c0174ff688" target="_top" xlink:title="viewcontroller.GUIReference\lLibrary.getStringTranslation">
<polygon fill="white" stroke="black" points="600.5,-194 600.5,-224 749.5,-224 749.5,-194 600.5,-194"/>
<text text-anchor="start" x="608.5" y="-212" font-family="Helvetica,sans-Serif" font-size="10.00">viewcontroller.GUIReference</text>
<text text-anchor="middle" x="675" y="-201" font-family="Helvetica,sans-Serif" font-size="10.00">Library.getStringTranslation</text>
</a>
</g>
</g>
<!-- Node1&#45;&gt;Node4 -->
<g id="edge6" class="edge"><title>Node1&#45;&gt;Node4</title>
<path fill="none" stroke="midnightblue" d="M75.0876,-122.616C91.4318,-139.161 127.672,-172.532 166,-186 308.475,-236.064 487.356,-229.493 590.381,-219.62"/>
<polygon fill="midnightblue" stroke="midnightblue" points="590.811,-223.095 600.417,-218.625 590.12,-216.129 590.811,-223.095"/>
</g>
<!-- Node7 -->
<g id="node7" class="node"><title>Node7</title>
<g id="a_node7"><a xlink:href="../../da/d4e/classviewcontroller_1_1_view.html#a87baca4ea0850b271ae95871aab914b5" target="_top" xlink:title="viewcontroller.View.initialize\lTabPane">
<polygon fill="white" stroke="black" points="168,-98 168,-128 314,-128 314,-98 168,-98"/>
<text text-anchor="start" x="176" y="-116" font-family="Helvetica,sans-Serif" font-size="10.00">viewcontroller.View.initialize</text>
<text text-anchor="middle" x="241" y="-105" font-family="Helvetica,sans-Serif" font-size="10.00">TabPane</text>
</a>
</g>
</g>
<!-- Node1&#45;&gt;Node7 -->
<g id="edge7" class="edge"><title>Node1&#45;&gt;Node7</title>
<path fill="none" stroke="midnightblue" d="M130.297,-113C139.159,-113 148.36,-113 157.494,-113"/>
<polygon fill="midnightblue" stroke="midnightblue" points="157.757,-116.5 167.757,-113 157.757,-109.5 157.757,-116.5"/>
</g>
<!-- Node9 -->
<g id="node9" class="node"><title>Node9</title>
<g id="a_node9"><a xlink:href="../../da/d4e/classviewcontroller_1_1_view.html#ad51060ca3f818b08d25a7d9afcb90062" target="_top" xlink:title="viewcontroller.View.place\lMenuBar">
<polygon fill="white" stroke="black" points="174,-49 174,-79 308,-79 308,-49 174,-49"/>
<text text-anchor="start" x="182" y="-67" font-family="Helvetica,sans-Serif" font-size="10.00">viewcontroller.View.place</text>
<text text-anchor="middle" x="241" y="-56" font-family="Helvetica,sans-Serif" font-size="10.00">MenuBar</text>
</a>
</g>
</g>
<!-- Node1&#45;&gt;Node9 -->
<g id="edge9" class="edge"><title>Node1&#45;&gt;Node9</title>
<path fill="none" stroke="midnightblue" d="M99.962,-103.436C121.799,-97.2866 150.844,-89.1072 176.82,-81.7922"/>
<polygon fill="midnightblue" stroke="midnightblue" points="177.927,-85.1167 186.603,-79.037 176.029,-78.3787 177.927,-85.1167"/>
</g>
<!-- Node10 -->
<g id="node10" class="node"><title>Node10</title>
<g id="a_node10"><a xlink:href="../../d9/dd7/classviewcontroller_1_1_g_u_i_reference_library.html#abd91c73bc84a1e09b9c69b190149c348" target="_top" xlink:title="viewcontroller.GUIReference\lLibrary.setGUIReference">
<polygon fill="white" stroke="black" points="166.5,-0 166.5,-30 315.5,-30 315.5,-0 166.5,-0"/>
<text text-anchor="start" x="174.5" y="-18" font-family="Helvetica,sans-Serif" font-size="10.00">viewcontroller.GUIReference</text>
<text text-anchor="middle" x="241" y="-7" font-family="Helvetica,sans-Serif" font-size="10.00">Library.setGUIReference</text>
</a>
</g>
</g>
<!-- Node1&#45;&gt;Node10 -->
<g id="edge10" class="edge"><title>Node1&#45;&gt;Node10</title>
<path fill="none" stroke="midnightblue" d="M76.6113,-103.301C94.071,-87.7879 130.474,-57.2855 166,-39 169.546,-37.1747 173.259,-35.4511 177.053,-33.8301"/>
<polygon fill="midnightblue" stroke="midnightblue" points="178.615,-36.9749 186.601,-30.0125 176.016,-30.4752 178.615,-36.9749"/>
</g>
<!-- Node3 -->
<g id="node3" class="node"><title>Node3</title>
<g id="a_node3"><a xlink:href="../../da/d4e/classviewcontroller_1_1_view.html#ad16a35ae1b446b10bc9cc74395e0aeab" target="_top" xlink:title="viewcontroller.View.addWorkspace">
<polygon fill="white" stroke="black" points="352.5,-151.5 352.5,-170.5 529.5,-170.5 529.5,-151.5 352.5,-151.5"/>
<text text-anchor="middle" x="441" y="-158.5" font-family="Helvetica,sans-Serif" font-size="10.00">viewcontroller.View.addWorkspace</text>
</a>
</g>
</g>
<!-- Node2&#45;&gt;Node3 -->
<g id="edge2" class="edge"><title>Node2&#45;&gt;Node3</title>
<path fill="none" stroke="midnightblue" d="M314.043,-161.636C323.137,-161.59 332.56,-161.543 341.972,-161.495"/>
<polygon fill="midnightblue" stroke="midnightblue" points="342.181,-164.994 352.163,-161.444 342.146,-157.994 342.181,-164.994"/>
</g>
<!-- Node3&#45;&gt;Node4 -->
<g id="edge3" class="edge"><title>Node3&#45;&gt;Node4</title>
<path fill="none" stroke="midnightblue" d="M488.113,-170.541C517.58,-176.637 556.639,-184.718 591.346,-191.899"/>
<polygon fill="midnightblue" stroke="midnightblue" points="590.981,-195.398 601.483,-193.996 592.399,-188.543 590.981,-195.398"/>
</g>
<!-- Node5 -->
<g id="node5" class="node"><title>Node5</title>
<g id="a_node5"><a xlink:href="../../d8/d3a/classviewcontroller_1_1_workspace.html#a27576951466201164923fcc7b190a42e" target="_top" xlink:title="viewcontroller.Workspace.get\lViewController">
<polygon fill="white" stroke="black" points="598,-145 598,-175 752,-175 752,-145 598,-145"/>
<text text-anchor="start" x="606" y="-163" font-family="Helvetica,sans-Serif" font-size="10.00">viewcontroller.Workspace.get</text>
<text text-anchor="middle" x="675" y="-152" font-family="Helvetica,sans-Serif" font-size="10.00">ViewController</text>
</a>
</g>
</g>
<!-- Node3&#45;&gt;Node5 -->
<g id="edge4" class="edge"><title>Node3&#45;&gt;Node5</title>
<path fill="none" stroke="midnightblue" d="M529.709,-160.622C548.744,-160.54 568.861,-160.453 587.835,-160.371"/>
<polygon fill="midnightblue" stroke="midnightblue" points="587.957,-163.871 597.942,-160.328 587.927,-156.871 587.957,-163.871"/>
</g>
<!-- Node6 -->
<g id="node6" class="node"><title>Node6</title>
<g id="a_node6"><a xlink:href="../../d3/d67/classviewcontroller_1_1_main_view_controller.html#ab2d2098053847d03306f31284a351b95" target="_top" xlink:title="viewcontroller.MainViewController.getNode">
<polygon fill="white" stroke="black" points="566,-106.5 566,-125.5 784,-125.5 784,-106.5 566,-106.5"/>
<text text-anchor="middle" x="675" y="-113.5" font-family="Helvetica,sans-Serif" font-size="10.00">viewcontroller.MainViewController.getNode</text>
</a>
</g>
</g>
<!-- Node3&#45;&gt;Node6 -->
<g id="edge5" class="edge"><title>Node3&#45;&gt;Node6</title>
<path fill="none" stroke="midnightblue" d="M488.483,-151.447C511.744,-146.713 540.342,-140.962 566,-136 580.679,-133.161 596.497,-130.185 611.38,-127.422"/>
<polygon fill="midnightblue" stroke="midnightblue" points="612.312,-130.809 621.509,-125.548 611.039,-123.926 612.312,-130.809"/>
</g>
<!-- Node8 -->
<g id="node8" class="node"><title>Node8</title>
<g id="a_node8"><a xlink:href="../../da/d4e/classviewcontroller_1_1_view.html#a379c3c43471d40115f1038fd1c6b0b02" target="_top" xlink:title="viewcontroller.View.tabChanged">
<polygon fill="white" stroke="black" points="357.5,-103.5 357.5,-122.5 524.5,-122.5 524.5,-103.5 357.5,-103.5"/>
<text text-anchor="middle" x="441" y="-110.5" font-family="Helvetica,sans-Serif" font-size="10.00">viewcontroller.View.tabChanged</text>
</a>
</g>
</g>
<!-- Node7&#45;&gt;Node8 -->
<g id="edge8" class="edge"><title>Node7&#45;&gt;Node8</title>
<path fill="none" stroke="midnightblue" d="M314.043,-113C324.794,-113 336.005,-113 347.112,-113"/>
<polygon fill="midnightblue" stroke="midnightblue" points="347.268,-116.5 357.268,-113 347.268,-109.5 347.268,-116.5"/>
</g>
<!-- Node11 -->
<g id="node11" class="node"><title>Node11</title>
<g id="a_node11"><a xlink:href="../../d9/dd7/classviewcontroller_1_1_g_u_i_reference_library.html#ac772486bc7bc5d85f1ca6c69cf6f17ce" target="_top" xlink:title="viewcontroller.GUIReference\lLibrary.setPathReference">
<polygon fill="white" stroke="black" points="366.5,-0 366.5,-30 515.5,-30 515.5,-0 366.5,-0"/>
<text text-anchor="start" x="374.5" y="-18" font-family="Helvetica,sans-Serif" font-size="10.00">viewcontroller.GUIReference</text>
<text text-anchor="middle" x="441" y="-7" font-family="Helvetica,sans-Serif" font-size="10.00">Library.setPathReference</text>
</a>
</g>
</g>
<!-- Node10&#45;&gt;Node11 -->
<g id="edge11" class="edge"><title>Node10&#45;&gt;Node11</title>
<path fill="none" stroke="midnightblue" d="M315.728,-15C328.87,-15 342.65,-15 356.052,-15"/>
<polygon fill="midnightblue" stroke="midnightblue" points="356.211,-18.5001 366.211,-15 356.21,-11.5001 356.211,-18.5001"/>
</g>
</g>
</svg>
        <g id="navigator" transform="translate(0 0)" fill="#404254">
                <rect fill="#f2f5e9" fill-opacity="0.5" stroke="#606060" stroke-width=".5" x="0" y="0" width="60" height="60"/>
                <use id="zoomplus" xlink:href="#zoomPlus" x="17" y="9" onmousedown="handleZoom(evt,'in')"/>
                <use id="zoomminus" xlink:href="#zoomMin" x="42" y="9" onmousedown="handleZoom(evt,'out')"/>
                <use id="reset" xlink:href="#resetDef" x="30" y="36" onmousedown="handleReset()"/>
                <g id="arrowUp" xlink:href="#dirArrow" transform="translate(30 24)" onmousedown="handlePan(0,-1)">
                  <use xlink:href="#rim" fill="#404040">
                        <set attributeName="fill" to="#808080" begin="arrowUp.mouseover" end="arrowUp.mouseout"/>
                  </use>
                  <path fill="none" stroke="white" stroke-width="1.5" d="M0,-3.0v7 M-2.5,-0.5L0,-3.0L2.5,-0.5"/>
                </g>
                <g id="arrowRight" xlink:href="#dirArrow" transform="rotate(90) translate(36 -43)" onmousedown="handlePan(1,0)">
                  <use xlink:href="#rim" fill="#404040">
                        <set attributeName="fill" to="#808080" begin="arrowRight.mouseover" end="arrowRight.mouseout"/>
                  </use>
                  <path fill="none" stroke="white" stroke-width="1.5" d="M0,-3.0v7 M-2.5,-0.5L0,-3.0L2.5,-0.5"/>
                </g>
                <g id="arrowDown" xlink:href="#dirArrow" transform="rotate(180) translate(-30 -48)" onmousedown="handlePan(0,1)">
                  <use xlink:href="#rim" fill="#404040">
                        <set attributeName="fill" to="#808080" begin="arrowDown.mouseover" end="arrowDown.mouseout"/>
                  </use>
                  <path fill="none" stroke="white" stroke-width="1.5" d="M0,-3.0v7 M-2.5,-0.5L0,-3.0L2.5,-0.5"/>
                </g>
                <g id="arrowLeft" xlink:href="#dirArrow" transform="rotate(270) translate(-36 17)" onmousedown="handlePan(-1,0)">
                  <use xlink:href="#rim" fill="#404040">
                        <set attributeName="fill" to="#808080" begin="arrowLeft.mouseover" end="arrowLeft.mouseout"/>
                  </use>
                  <path fill="none" stroke="white" stroke-width="1.5" d="M0,-3.0v7 M-2.5,-0.5L0,-3.0L2.5,-0.5"/>
                </g>
        </g>
        <svg viewBox="0 0 15 15" width="100%" height="30px" preserveAspectRatio="xMaxYMin meet">
         <g id="arrow_out" transform="scale(0.3 0.3)">
          <a xlink:href="classviewcontroller_1_1_view_ae0442fb812563b8647f9b9bdd32e0ee5_cgraph_org.svg" target="_base">
           <rect id="button" ry="5" rx="5" y="6" x="6" height="38" width="38"
                fill="#f2f5e9" fill-opacity="0.5" stroke="#606060" stroke-width="1.0"/>
           <path id="arrow"
             d="M 11.500037,31.436501 C 11.940474,20.09759 22.043105,11.32322 32.158766,21.979434 L 37.068811,17.246167 C 37.068811,17.246167 37.088388,32 37.088388,32 L 22.160133,31.978069 C 22.160133,31.978069 26.997745,27.140456 26.997745,27.140456 C 18.528582,18.264221 13.291696,25.230495 11.500037,31.436501 z"
             style="fill:#404040;"/>
          </a>
         </g>
        </svg>
</svg>
