<?xml version="1.0" encoding="UTF-8" standalone="no"?>
<!DOCTYPE svg PUBLIC "-//W3C//DTD SVG 1.1//EN"
 "http://www.w3.org/Graphics/SVG/1.1/DTD/svg11.dtd">
<!-- Generated by graphviz version 2.36.0 (20140111.2315)
 -->
<!-- Title: viewcontroller.View.readFile Pages: 1 -->
<svg width="686pt" height="38pt"
 viewBox="0.00 0.00 686.00 38.00" xmlns="http://www.w3.org/2000/svg" xmlns:xlink="http://www.w3.org/1999/xlink">
<g id="graph0" class="graph" transform="scale(1 1) rotate(0) translate(4 34)">
<title>viewcontroller.View.readFile</title>
<polygon fill="white" stroke="none" points="-4,4 -4,-34 682,-34 682,4 -4,4"/>
<!-- Node1 -->
<g id="node1" class="node"><title>Node1</title>
<polygon fill="#bfbfbf" stroke="black" points="0.5,-5.5 0.5,-24.5 145.5,-24.5 145.5,-5.5 0.5,-5.5"/>
<text text-anchor="middle" x="73" y="-12.5" font-family="Helvetica,sans-Serif" font-size="10.00">viewcontroller.View.readFile</text>
</g>
<!-- Node2 -->
<g id="node2" class="node"><title>Node2</title>
<g id="a_node2"><a xlink:href="../../da/d4e/classviewcontroller_1_1_view.html#a1f7ce4457b38e302cf3a052c8d36a7a6" target="_top" xlink:title="viewcontroller.View.loadFile">
<polygon fill="white" stroke="black" points="182.5,-5.5 182.5,-24.5 325.5,-24.5 325.5,-5.5 182.5,-5.5"/>
<text text-anchor="middle" x="254" y="-12.5" font-family="Helvetica,sans-Serif" font-size="10.00">viewcontroller.View.loadFile</text>
</a>
</g>
</g>
<!-- Node1&#45;&gt;Node2 -->
<g id="edge1" class="edge"><title>Node1&#45;&gt;Node2</title>
<path fill="none" stroke="midnightblue" d="M155.587,-15C164.563,-15 173.646,-15 182.472,-15"/>
<polygon fill="midnightblue" stroke="midnightblue" points="155.517,-11.5001 145.517,-15 155.517,-18.5001 155.517,-11.5001"/>
</g>
<!-- Node3 -->
<g id="node3" class="node"><title>Node3</title>
<g id="a_node3"><a xlink:href="../../df/df9/classviewcontroller_1_1_s_logo_menu_bar.html#aea535ae86d7ac7a2fffe549d7bdf2a1d" target="_top" xlink:title="viewcontroller.SLogoMenu\lBar.initializeFileMenu">
<polygon fill="white" stroke="black" points="362,-0 362,-30 502,-30 502,-0 362,-0"/>
<text text-anchor="start" x="370" y="-18" font-family="Helvetica,sans-Serif" font-size="10.00">viewcontroller.SLogoMenu</text>
<text text-anchor="middle" x="432" y="-7" font-family="Helvetica,sans-Serif" font-size="10.00">Bar.initializeFileMenu</text>
</a>
</g>
</g>
<!-- Node2&#45;&gt;Node3 -->
<g id="edge2" class="edge"><title>Node2&#45;&gt;Node3</title>
<path fill="none" stroke="midnightblue" d="M335.744,-15C344.463,-15 353.279,-15 361.845,-15"/>
<polygon fill="midnightblue" stroke="midnightblue" points="335.572,-11.5001 325.572,-15 335.572,-18.5001 335.572,-11.5001"/>
</g>
<!-- Node4 -->
<g id="node4" class="node"><title>Node4</title>
<g id="a_node4"><a xlink:href="../../df/df9/classviewcontroller_1_1_s_logo_menu_bar.html#a75b45d0a4b08de5ff8588fc15b2f14fe" target="_top" xlink:title="viewcontroller.SLogoMenu\lBar.SLogoMenuBar">
<polygon fill="white" stroke="black" points="538,-0 538,-30 678,-30 678,-0 538,-0"/>
<text text-anchor="start" x="546" y="-18" font-family="Helvetica,sans-Serif" font-size="10.00">viewcontroller.SLogoMenu</text>
<text text-anchor="middle" x="608" y="-7" font-family="Helvetica,sans-Serif" font-size="10.00">Bar.SLogoMenuBar</text>
</a>
</g>
</g>
<!-- Node3&#45;&gt;Node4 -->
<g id="edge3" class="edge"><title>Node3&#45;&gt;Node4</title>
<path fill="none" stroke="midnightblue" d="M512.035,-15C520.625,-15 529.319,-15 537.779,-15"/>
<polygon fill="midnightblue" stroke="midnightblue" points="512.019,-11.5001 502.019,-15 512.019,-18.5001 512.019,-11.5001"/>
</g>
</g>
</svg>
