<?xml version="1.0" encoding="UTF-8" standalone="no"?>
<!DOCTYPE svg PUBLIC "-//W3C//DTD SVG 1.1//EN"
 "http://www.w3.org/Graphics/SVG/1.1/DTD/svg11.dtd">
<!-- Generated by graphviz version 2.36.0 (20140111.2315)
 -->
<!-- Title: viewcontroller.View.saveWorkspace Pages: 1 -->
<svg width="1100pt" height="126pt"
 viewBox="0.00 0.00 1100.00 126.00" xmlns="http://www.w3.org/2000/svg" xmlns:xlink="http://www.w3.org/1999/xlink">
<g id="graph0" class="graph" transform="scale(1 1) rotate(0) translate(4 122)">
<title>viewcontroller.View.saveWorkspace</title>
<polygon fill="white" stroke="none" points="-4,4 -4,-122 1096,-122 1096,4 -4,4"/>
<!-- Node1 -->
<g id="node1" class="node"><title>Node1</title>
<polygon fill="#bfbfbf" stroke="black" points="0.5,-39 0.5,-69 131.5,-69 131.5,-39 0.5,-39"/>
<text text-anchor="start" x="8.5" y="-57" font-family="Helvetica,sans-Serif" font-size="10.00">viewcontroller.View.save</text>
<text text-anchor="middle" x="66" y="-46" font-family="Helvetica,sans-Serif" font-size="10.00">Workspace</text>
</g>
<!-- Node2 -->
<g id="node2" class="node"><title>Node2</title>
<g id="a_node2"><a xlink:href="../../d8/d3a/classviewcontroller_1_1_workspace.html#a1b461756646e982d8efbb5a286576c7a" target="_top" xlink:title="viewcontroller.Workspace.get\lMainModel">
<polygon fill="white" stroke="black" points="169,-88 169,-118 323,-118 323,-88 169,-88"/>
<text text-anchor="start" x="177" y="-106" font-family="Helvetica,sans-Serif" font-size="10.00">viewcontroller.Workspace.get</text>
<text text-anchor="middle" x="246" y="-95" font-family="Helvetica,sans-Serif" font-size="10.00">MainModel</text>
</a>
</g>
</g>
<!-- Node1&#45;&gt;Node2 -->
<g id="edge1" class="edge"><title>Node1&#45;&gt;Node2</title>
<path fill="none" stroke="midnightblue" d="M121.858,-69.1014C140.386,-74.2019 161.242,-79.9429 180.45,-85.2305"/>
<polygon fill="midnightblue" stroke="midnightblue" points="179.753,-88.6687 190.323,-87.9484 181.61,-81.9198 179.753,-88.6687"/>
</g>
<!-- Node3 -->
<g id="node3" class="node"><title>Node3</title>
<g id="a_node3"><a xlink:href="../../da/d4e/classviewcontroller_1_1_view.html#a9ad52fdebf34b834ab51d0a969833e75" target="_top" xlink:title="viewcontroller.View.noCurrent\lWorkspace">
<polygon fill="white" stroke="black" points="168,-39 168,-69 324,-69 324,-39 168,-39"/>
<text text-anchor="start" x="176" y="-57" font-family="Helvetica,sans-Serif" font-size="10.00">viewcontroller.View.noCurrent</text>
<text text-anchor="middle" x="246" y="-46" font-family="Helvetica,sans-Serif" font-size="10.00">Workspace</text>
</a>
</g>
</g>
<!-- Node1&#45;&gt;Node3 -->
<g id="edge2" class="edge"><title>Node1&#45;&gt;Node3</title>
<path fill="none" stroke="midnightblue" d="M131.514,-54C140.116,-54 149.049,-54 157.956,-54"/>
<polygon fill="midnightblue" stroke="midnightblue" points="157.983,-57.5001 167.983,-54 157.983,-50.5001 157.983,-57.5001"/>
</g>
<!-- Node9 -->
<g id="node9" class="node"><title>Node9</title>
<g id="a_node9"><a xlink:href="../../dc/d7f/classmodel_1_1_serialiser.html#a501c0afddf519054e7d84e8f452824a6" target="_top" xlink:title="model.Serialiser.serialise">
<polygon fill="white" stroke="black" points="178.5,-0.5 178.5,-19.5 313.5,-19.5 313.5,-0.5 178.5,-0.5"/>
<text text-anchor="middle" x="246" y="-7.5" font-family="Helvetica,sans-Serif" font-size="10.00">model.Serialiser.serialise</text>
</a>
</g>
</g>
<!-- Node1&#45;&gt;Node9 -->
<g id="edge8" class="edge"><title>Node1&#45;&gt;Node9</title>
<path fill="none" stroke="midnightblue" d="M127.76,-38.9808C150.278,-33.4144 175.487,-27.1829 196.743,-21.9287"/>
<polygon fill="midnightblue" stroke="midnightblue" points="197.65,-25.3099 206.518,-19.5124 195.97,-18.5144 197.65,-25.3099"/>
</g>
<!-- Node4 -->
<g id="node4" class="node"><title>Node4</title>
<g id="a_node4"><a xlink:href="../../da/d4e/classviewcontroller_1_1_view.html#a98e7b6a5716e94a0052d7bb51dc3a404" target="_top" xlink:title="viewcontroller.View.show\lMessage">
<polygon fill="white" stroke="black" points="360,-39 360,-69 492,-69 492,-39 360,-39"/>
<text text-anchor="start" x="368" y="-57" font-family="Helvetica,sans-Serif" font-size="10.00">viewcontroller.View.show</text>
<text text-anchor="middle" x="426" y="-46" font-family="Helvetica,sans-Serif" font-size="10.00">Message</text>
</a>
</g>
</g>
<!-- Node3&#45;&gt;Node4 -->
<g id="edge3" class="edge"><title>Node3&#45;&gt;Node4</title>
<path fill="none" stroke="midnightblue" d="M324.038,-54C332.522,-54 341.153,-54 349.615,-54"/>
<polygon fill="midnightblue" stroke="midnightblue" points="349.834,-57.5001 359.834,-54 349.834,-50.5001 349.834,-57.5001"/>
</g>
<!-- Node5 -->
<g id="node5" class="node"><title>Node5</title>
<g id="a_node5"><a xlink:href="../../d6/dd4/classapplication_1_1_message_box.html#a272fc424b595a91a6d2048981ac95e5b" target="_top" xlink:title="application.MessageBox.show">
<polygon fill="white" stroke="black" points="528.5,-44.5 528.5,-63.5 687.5,-63.5 687.5,-44.5 528.5,-44.5"/>
<text text-anchor="middle" x="608" y="-51.5" font-family="Helvetica,sans-Serif" font-size="10.00">application.MessageBox.show</text>
</a>
</g>
</g>
<!-- Node4&#45;&gt;Node5 -->
<g id="edge4" class="edge"><title>Node4&#45;&gt;Node5</title>
<path fill="none" stroke="midnightblue" d="M492.239,-54C500.699,-54 509.477,-54 518.238,-54"/>
<polygon fill="midnightblue" stroke="midnightblue" points="518.497,-57.5001 528.497,-54 518.497,-50.5001 518.497,-57.5001"/>
</g>
<!-- Node6 -->
<g id="node6" class="node"><title>Node6</title>
<g id="a_node6"><a xlink:href="../../d6/dd4/classapplication_1_1_message_box.html#a6c41f7d51b489df9b0a577d1a318c58d" target="_top" xlink:title="application.MessageBox.create\lMessageBox">
<polygon fill="white" stroke="black" points="724,-39 724,-69 890,-69 890,-39 724,-39"/>
<text text-anchor="start" x="732" y="-57" font-family="Helvetica,sans-Serif" font-size="10.00">application.MessageBox.create</text>
<text text-anchor="middle" x="807" y="-46" font-family="Helvetica,sans-Serif" font-size="10.00">MessageBox</text>
</a>
</g>
</g>
<!-- Node5&#45;&gt;Node6 -->
<g id="edge5" class="edge"><title>Node5&#45;&gt;Node6</title>
<path fill="none" stroke="midnightblue" d="M687.709,-54C696.259,-54 705.017,-54 713.71,-54"/>
<polygon fill="midnightblue" stroke="midnightblue" points="713.869,-57.5001 723.869,-54 713.869,-50.5001 713.869,-57.5001"/>
</g>
<!-- Node7 -->
<g id="node7" class="node"><title>Node7</title>
<g id="a_node7"><a xlink:href="../../d6/dd4/classapplication_1_1_message_box.html#ac3b708a4c65b8243168425667649c221" target="_top" xlink:title="application.MessageBox.create\lMessageText">
<polygon fill="white" stroke="black" points="926,-64 926,-94 1092,-94 1092,-64 926,-64"/>
<text text-anchor="start" x="934" y="-82" font-family="Helvetica,sans-Serif" font-size="10.00">application.MessageBox.create</text>
<text text-anchor="middle" x="1009" y="-71" font-family="Helvetica,sans-Serif" font-size="10.00">MessageText</text>
</a>
</g>
</g>
<!-- Node6&#45;&gt;Node7 -->
<g id="edge6" class="edge"><title>Node6&#45;&gt;Node7</title>
<path fill="none" stroke="midnightblue" d="M890.213,-64.2767C898.654,-65.3318 907.27,-66.4087 915.809,-67.4761"/>
<polygon fill="midnightblue" stroke="midnightblue" points="915.426,-70.9554 925.783,-68.7228 916.294,-64.0094 915.426,-70.9554"/>
</g>
<!-- Node8 -->
<g id="node8" class="node"><title>Node8</title>
<g id="a_node8"><a xlink:href="../../d6/dd4/classapplication_1_1_message_box.html#a8e5e69eeb3a25bd743a9b376002f875e" target="_top" xlink:title="application.MessageBox.create\lOkayButton">
<polygon fill="white" stroke="black" points="926,-15 926,-45 1092,-45 1092,-15 926,-15"/>
<text text-anchor="start" x="934" y="-33" font-family="Helvetica,sans-Serif" font-size="10.00">application.MessageBox.create</text>
<text text-anchor="middle" x="1009" y="-22" font-family="Helvetica,sans-Serif" font-size="10.00">OkayButton</text>
</a>
</g>
</g>
<!-- Node6&#45;&gt;Node8 -->
<g id="edge7" class="edge"><title>Node6&#45;&gt;Node8</title>
<path fill="none" stroke="midnightblue" d="M890.213,-44.1344C898.654,-43.1215 907.27,-42.0876 915.809,-41.063"/>
<polygon fill="midnightblue" stroke="midnightblue" points="916.271,-44.5327 925.783,-39.8661 915.437,-37.5826 916.271,-44.5327"/>
</g>
</g>
</svg>
