<?xml version="1.0" encoding="UTF-8" standalone="no"?>
<!DOCTYPE svg PUBLIC "-//W3C//DTD SVG 1.1//EN"
 "http://www.w3.org/Graphics/SVG/1.1/DTD/svg11.dtd">
<!-- Generated by graphviz version 2.36.0 (20140111.2315)
 -->
<!-- Title: viewcontroller.View.toggleGridLines Pages: 1 -->
<svg width="1226pt" height="145pt"
 viewBox="0.00 0.00 1226.00 145.00" xmlns="http://www.w3.org/2000/svg" xmlns:xlink="http://www.w3.org/1999/xlink">
<g id="graph0" class="graph" transform="scale(1 1) rotate(0) translate(4 141)">
<title>viewcontroller.View.toggleGridLines</title>
<polygon fill="white" stroke="none" points="-4,4 -4,-141 1222,-141 1222,4 -4,4"/>
<!-- Node1 -->
<g id="node1" class="node"><title>Node1</title>
<polygon fill="#bfbfbf" stroke="black" points="0,-58 0,-88 138,-88 138,-58 0,-58"/>
<text text-anchor="start" x="8" y="-76" font-family="Helvetica,sans-Serif" font-size="10.00">viewcontroller.View.toggle</text>
<text text-anchor="middle" x="69" y="-65" font-family="Helvetica,sans-Serif" font-size="10.00">GridLines</text>
</g>
<!-- Node2 -->
<g id="node2" class="node"><title>Node2</title>
<g id="a_node2"><a xlink:href="../../d8/d3a/classviewcontroller_1_1_workspace.html#a27576951466201164923fcc7b190a42e" target="_top" xlink:title="viewcontroller.Workspace.get\lViewController">
<polygon fill="white" stroke="black" points="201,-107 201,-137 355,-137 355,-107 201,-107"/>
<text text-anchor="start" x="209" y="-125" font-family="Helvetica,sans-Serif" font-size="10.00">viewcontroller.Workspace.get</text>
<text text-anchor="middle" x="278" y="-114" font-family="Helvetica,sans-Serif" font-size="10.00">ViewController</text>
</a>
</g>
</g>
<!-- Node1&#45;&gt;Node2 -->
<g id="edge1" class="edge"><title>Node1&#45;&gt;Node2</title>
<path fill="none" stroke="midnightblue" d="M133.514,-88.0346C155.668,-93.2789 180.711,-99.2069 203.602,-104.626"/>
<polygon fill="midnightblue" stroke="midnightblue" points="203.069,-108.096 213.607,-106.994 204.682,-101.284 203.069,-108.096"/>
</g>
<!-- Node3 -->
<g id="node3" class="node"><title>Node3</title>
<g id="a_node3"><a xlink:href="../../da/d4e/classviewcontroller_1_1_view.html#a9ad52fdebf34b834ab51d0a969833e75" target="_top" xlink:title="viewcontroller.View.noCurrent\lWorkspace">
<polygon fill="white" stroke="black" points="200,-58 200,-88 356,-88 356,-58 200,-58"/>
<text text-anchor="start" x="208" y="-76" font-family="Helvetica,sans-Serif" font-size="10.00">viewcontroller.View.noCurrent</text>
<text text-anchor="middle" x="278" y="-65" font-family="Helvetica,sans-Serif" font-size="10.00">Workspace</text>
</a>
</g>
</g>
<!-- Node1&#45;&gt;Node3 -->
<g id="edge2" class="edge"><title>Node1&#45;&gt;Node3</title>
<path fill="none" stroke="midnightblue" d="M138.066,-73C154.615,-73 172.538,-73 189.837,-73"/>
<polygon fill="midnightblue" stroke="midnightblue" points="189.935,-76.5001 199.935,-73 189.935,-69.5001 189.935,-76.5001"/>
</g>
<!-- Node9 -->
<g id="node9" class="node"><title>Node9</title>
<g id="a_node9"><a xlink:href="../../d3/d67/classviewcontroller_1_1_main_view_controller.html#add243b11d602448835e6422f377eb2f7" target="_top" xlink:title="viewcontroller.MainViewController.toggle\lGridLines">
<polygon fill="white" stroke="black" points="174.5,-8 174.5,-38 381.5,-38 381.5,-8 174.5,-8"/>
<text text-anchor="start" x="182.5" y="-26" font-family="Helvetica,sans-Serif" font-size="10.00">viewcontroller.MainViewController.toggle</text>
<text text-anchor="middle" x="278" y="-15" font-family="Helvetica,sans-Serif" font-size="10.00">GridLines</text>
</a>
</g>
</g>
<!-- Node1&#45;&gt;Node9 -->
<g id="edge8" class="edge"><title>Node1&#45;&gt;Node9</title>
<path fill="none" stroke="midnightblue" d="M132.107,-57.9984C154.927,-52.4862 180.962,-46.1977 204.608,-40.486"/>
<polygon fill="midnightblue" stroke="midnightblue" points="205.681,-43.8276 214.58,-38.0774 204.037,-37.0233 205.681,-43.8276"/>
</g>
<!-- Node4 -->
<g id="node4" class="node"><title>Node4</title>
<g id="a_node4"><a xlink:href="../../da/d4e/classviewcontroller_1_1_view.html#a98e7b6a5716e94a0052d7bb51dc3a404" target="_top" xlink:title="viewcontroller.View.show\lMessage">
<polygon fill="white" stroke="black" points="441,-60 441,-90 573,-90 573,-60 441,-60"/>
<text text-anchor="start" x="449" y="-78" font-family="Helvetica,sans-Serif" font-size="10.00">viewcontroller.View.show</text>
<text text-anchor="middle" x="507" y="-67" font-family="Helvetica,sans-Serif" font-size="10.00">Message</text>
</a>
</g>
</g>
<!-- Node3&#45;&gt;Node4 -->
<g id="edge3" class="edge"><title>Node3&#45;&gt;Node4</title>
<path fill="none" stroke="midnightblue" d="M356.169,-73.6799C380.236,-73.8919 406.74,-74.1255 430.679,-74.3364"/>
<polygon fill="midnightblue" stroke="midnightblue" points="430.736,-77.8369 440.767,-74.4253 430.798,-70.8372 430.736,-77.8369"/>
</g>
<!-- Node5 -->
<g id="node5" class="node"><title>Node5</title>
<g id="a_node5"><a xlink:href="../../d6/dd4/classapplication_1_1_message_box.html#a272fc424b595a91a6d2048981ac95e5b" target="_top" xlink:title="application.MessageBox.show">
<polygon fill="white" stroke="black" points="643.5,-65.5 643.5,-84.5 802.5,-84.5 802.5,-65.5 643.5,-65.5"/>
<text text-anchor="middle" x="723" y="-72.5" font-family="Helvetica,sans-Serif" font-size="10.00">application.MessageBox.show</text>
</a>
</g>
</g>
<!-- Node4&#45;&gt;Node5 -->
<g id="edge4" class="edge"><title>Node4&#45;&gt;Node5</title>
<path fill="none" stroke="midnightblue" d="M573.079,-75C592.014,-75 613.03,-75 633.162,-75"/>
<polygon fill="midnightblue" stroke="midnightblue" points="633.276,-78.5001 643.276,-75 633.276,-71.5001 633.276,-78.5001"/>
</g>
<!-- Node6 -->
<g id="node6" class="node"><title>Node6</title>
<g id="a_node6"><a xlink:href="../../d6/dd4/classapplication_1_1_message_box.html#a6c41f7d51b489df9b0a577d1a318c58d" target="_top" xlink:title="application.MessageBox.create\lMessageBox">
<polygon fill="white" stroke="black" points="850,-60 850,-90 1016,-90 1016,-60 850,-60"/>
<text text-anchor="start" x="858" y="-78" font-family="Helvetica,sans-Serif" font-size="10.00">application.MessageBox.create</text>
<text text-anchor="middle" x="933" y="-67" font-family="Helvetica,sans-Serif" font-size="10.00">MessageBox</text>
</a>
</g>
</g>
<!-- Node5&#45;&gt;Node6 -->
<g id="edge5" class="edge"><title>Node5&#45;&gt;Node6</title>
<path fill="none" stroke="midnightblue" d="M802.636,-75C814.679,-75 827.206,-75 839.515,-75"/>
<polygon fill="midnightblue" stroke="midnightblue" points="839.788,-78.5001 849.788,-75 839.788,-71.5001 839.788,-78.5001"/>
</g>
<!-- Node7 -->
<g id="node7" class="node"><title>Node7</title>
<g id="a_node7"><a xlink:href="../../d6/dd4/classapplication_1_1_message_box.html#ac3b708a4c65b8243168425667649c221" target="_top" xlink:title="application.MessageBox.create\lMessageText">
<polygon fill="white" stroke="black" points="1052,-85 1052,-115 1218,-115 1218,-85 1052,-85"/>
<text text-anchor="start" x="1060" y="-103" font-family="Helvetica,sans-Serif" font-size="10.00">application.MessageBox.create</text>
<text text-anchor="middle" x="1135" y="-92" font-family="Helvetica,sans-Serif" font-size="10.00">MessageText</text>
</a>
</g>
</g>
<!-- Node6&#45;&gt;Node7 -->
<g id="edge6" class="edge"><title>Node6&#45;&gt;Node7</title>
<path fill="none" stroke="midnightblue" d="M1016.21,-85.2767C1024.65,-86.3318 1033.27,-87.4087 1041.81,-88.4761"/>
<polygon fill="midnightblue" stroke="midnightblue" points="1041.43,-91.9554 1051.78,-89.7228 1042.29,-85.0094 1041.43,-91.9554"/>
</g>
<!-- Node8 -->
<g id="node8" class="node"><title>Node8</title>
<g id="a_node8"><a xlink:href="../../d6/dd4/classapplication_1_1_message_box.html#a8e5e69eeb3a25bd743a9b376002f875e" target="_top" xlink:title="application.MessageBox.create\lOkayButton">
<polygon fill="white" stroke="black" points="1052,-36 1052,-66 1218,-66 1218,-36 1052,-36"/>
<text text-anchor="start" x="1060" y="-54" font-family="Helvetica,sans-Serif" font-size="10.00">application.MessageBox.create</text>
<text text-anchor="middle" x="1135" y="-43" font-family="Helvetica,sans-Serif" font-size="10.00">OkayButton</text>
</a>
</g>
</g>
<!-- Node6&#45;&gt;Node8 -->
<g id="edge7" class="edge"><title>Node6&#45;&gt;Node8</title>
<path fill="none" stroke="midnightblue" d="M1016.21,-65.1344C1024.65,-64.1215 1033.27,-63.0876 1041.81,-62.063"/>
<polygon fill="midnightblue" stroke="midnightblue" points="1042.27,-65.5327 1051.78,-60.8661 1041.44,-58.5826 1042.27,-65.5327"/>
</g>
<!-- Node10 -->
<g id="node10" class="node"><title>Node10</title>
<g id="a_node10"><a xlink:href="../../d3/daf/classviewcontroller_1_1turtlegrid_1_1_turtle_window_view_controller.html#a5cb54632b9c42ee88e4e6d743fa0ea9f" target="_top" xlink:title="viewcontroller.turtlegrid.\lTurtleWindowViewController.toggle\lGridLines">
<polygon fill="white" stroke="black" points="418,-0.5 418,-41.5 596,-41.5 596,-0.5 418,-0.5"/>
<text text-anchor="start" x="426" y="-29.5" font-family="Helvetica,sans-Serif" font-size="10.00">viewcontroller.turtlegrid.</text>
<text text-anchor="start" x="426" y="-18.5" font-family="Helvetica,sans-Serif" font-size="10.00">TurtleWindowViewController.toggle</text>
<text text-anchor="middle" x="507" y="-7.5" font-family="Helvetica,sans-Serif" font-size="10.00">GridLines</text>
</a>
</g>
</g>
<!-- Node9&#45;&gt;Node10 -->
<g id="edge9" class="edge"><title>Node9&#45;&gt;Node10</title>
<path fill="none" stroke="midnightblue" d="M381.542,-22.0965C390.24,-22.0199 399.025,-21.9425 407.69,-21.8662"/>
<polygon fill="midnightblue" stroke="midnightblue" points="407.825,-25.3652 417.794,-21.7771 407.763,-18.3655 407.825,-25.3652"/>
</g>
<!-- Node11 -->
<g id="node11" class="node"><title>Node11</title>
<g id="a_node11"><a xlink:href="../../d5/dcc/classviewcontroller_1_1turtlegrid_1_1_grid_view_controller.html#a8edc5ad5113a176c219b079873081a11" target="_top" xlink:title="viewcontroller.turtlegrid.\lGridViewController.toggleGridLines">
<polygon fill="white" stroke="black" points="632.5,-6 632.5,-36 813.5,-36 813.5,-6 632.5,-6"/>
<text text-anchor="start" x="640.5" y="-24" font-family="Helvetica,sans-Serif" font-size="10.00">viewcontroller.turtlegrid.</text>
<text text-anchor="middle" x="723" y="-13" font-family="Helvetica,sans-Serif" font-size="10.00">GridViewController.toggleGridLines</text>
</a>
</g>
</g>
<!-- Node10&#45;&gt;Node11 -->
<g id="edge10" class="edge"><title>Node10&#45;&gt;Node11</title>
<path fill="none" stroke="midnightblue" d="M596.278,-21C604.801,-21 613.488,-21 622.113,-21"/>
<polygon fill="midnightblue" stroke="midnightblue" points="622.197,-24.5001 632.197,-21 622.197,-17.5001 622.197,-24.5001"/>
</g>
<!-- Node12 -->
<g id="node12" class="node"><title>Node12</title>
<g id="a_node12"><a xlink:href="../../d4/d4e/classviewcontroller_1_1turtlegrid_1_1_grid_lines.html#a99fb48a214249e995686c10cd4c13dd0" target="_top" xlink:title="viewcontroller.turtlegrid.\lGridLines.toggle">
<polygon fill="white" stroke="black" points="867.5,-6 867.5,-36 998.5,-36 998.5,-6 867.5,-6"/>
<text text-anchor="start" x="875.5" y="-24" font-family="Helvetica,sans-Serif" font-size="10.00">viewcontroller.turtlegrid.</text>
<text text-anchor="middle" x="933" y="-13" font-family="Helvetica,sans-Serif" font-size="10.00">GridLines.toggle</text>
</a>
</g>
</g>
<!-- Node11&#45;&gt;Node12 -->
<g id="edge11" class="edge"><title>Node11&#45;&gt;Node12</title>
<path fill="none" stroke="midnightblue" d="M813.72,-21C828.23,-21 843.118,-21 857.225,-21"/>
<polygon fill="midnightblue" stroke="midnightblue" points="857.343,-24.5001 867.343,-21 857.343,-17.5001 857.343,-24.5001"/>
</g>
</g>
</svg>
