<?xml version="1.0" encoding="UTF-8" standalone="no"?>
<!DOCTYPE svg PUBLIC "-//W3C//DTD SVG 1.1//EN"
 "http://www.w3.org/Graphics/SVG/1.1/DTD/svg11.dtd">
<!-- Generated by graphviz version 2.36.0 (20140111.2315)
 -->
<!-- Title: viewcontroller.View.redoClicked Pages: 1 -->
<svg width="1150pt" height="221pt"
 viewBox="0.00 0.00 1150.00 221.00" xmlns="http://www.w3.org/2000/svg" xmlns:xlink="http://www.w3.org/1999/xlink">
<g id="graph0" class="graph" transform="scale(1 1) rotate(0) translate(4 217)">
<title>viewcontroller.View.redoClicked</title>
<polygon fill="white" stroke="none" points="-4,4 -4,-217 1146,-217 1146,4 -4,4"/>
<!-- Node1 -->
<g id="node1" class="node"><title>Node1</title>
<polygon fill="#bfbfbf" stroke="black" points="0,-134 0,-164 130,-164 130,-134 0,-134"/>
<text text-anchor="start" x="8" y="-152" font-family="Helvetica,sans-Serif" font-size="10.00">viewcontroller.View.redo</text>
<text text-anchor="middle" x="65" y="-141" font-family="Helvetica,sans-Serif" font-size="10.00">Clicked</text>
</g>
<!-- Node2 -->
<g id="node2" class="node"><title>Node2</title>
<g id="a_node2"><a xlink:href="../../d8/d3a/classviewcontroller_1_1_workspace.html#a1b461756646e982d8efbb5a286576c7a" target="_top" xlink:title="viewcontroller.Workspace.get\lMainModel">
<polygon fill="white" stroke="black" points="169,-183 169,-213 323,-213 323,-183 169,-183"/>
<text text-anchor="start" x="177" y="-201" font-family="Helvetica,sans-Serif" font-size="10.00">viewcontroller.Workspace.get</text>
<text text-anchor="middle" x="246" y="-190" font-family="Helvetica,sans-Serif" font-size="10.00">MainModel</text>
</a>
</g>
</g>
<!-- Node1&#45;&gt;Node2 -->
<g id="edge1" class="edge"><title>Node1&#45;&gt;Node2</title>
<path fill="none" stroke="midnightblue" d="M121.166,-164.101C139.884,-169.225 160.963,-174.996 180.353,-180.303"/>
<polygon fill="midnightblue" stroke="midnightblue" points="179.446,-183.684 190.016,-182.948 181.295,-176.932 179.446,-183.684"/>
</g>
<!-- Node3 -->
<g id="node3" class="node"><title>Node3</title>
<g id="a_node3"><a xlink:href="../../da/d4e/classviewcontroller_1_1_view.html#a9ad52fdebf34b834ab51d0a969833e75" target="_top" xlink:title="viewcontroller.View.noCurrent\lWorkspace">
<polygon fill="white" stroke="black" points="168,-134 168,-164 324,-164 324,-134 168,-134"/>
<text text-anchor="start" x="176" y="-152" font-family="Helvetica,sans-Serif" font-size="10.00">viewcontroller.View.noCurrent</text>
<text text-anchor="middle" x="246" y="-141" font-family="Helvetica,sans-Serif" font-size="10.00">Workspace</text>
</a>
</g>
</g>
<!-- Node1&#45;&gt;Node3 -->
<g id="edge2" class="edge"><title>Node1&#45;&gt;Node3</title>
<path fill="none" stroke="midnightblue" d="M130.118,-149C139.105,-149 148.465,-149 157.792,-149"/>
<polygon fill="midnightblue" stroke="midnightblue" points="157.881,-152.5 167.881,-149 157.88,-145.5 157.881,-152.5"/>
</g>
<!-- Node9 -->
<g id="node9" class="node"><title>Node9</title>
<g id="a_node9"><a xlink:href="../../de/d21/classmodel_1_1_main_model.html#a431f63b1432be07294d7fcf9980d8c8f" target="_top" xlink:title="model.MainModel.redoClicked">
<polygon fill="white" stroke="black" points="166.5,-76.5 166.5,-95.5 325.5,-95.5 325.5,-76.5 166.5,-76.5"/>
<text text-anchor="middle" x="246" y="-83.5" font-family="Helvetica,sans-Serif" font-size="10.00">model.MainModel.redoClicked</text>
</a>
</g>
</g>
<!-- Node1&#45;&gt;Node9 -->
<g id="edge8" class="edge"><title>Node1&#45;&gt;Node9</title>
<path fill="none" stroke="midnightblue" d="M108.875,-133.91C139.129,-123.262 179.245,-109.143 208.079,-98.9944"/>
<polygon fill="midnightblue" stroke="midnightblue" points="209.503,-102.204 217.773,-95.5825 207.179,-95.601 209.503,-102.204"/>
</g>
<!-- Node4 -->
<g id="node4" class="node"><title>Node4</title>
<g id="a_node4"><a xlink:href="../../da/d4e/classviewcontroller_1_1_view.html#a98e7b6a5716e94a0052d7bb51dc3a404" target="_top" xlink:title="viewcontroller.View.show\lMessage">
<polygon fill="white" stroke="black" points="386,-153 386,-183 518,-183 518,-153 386,-153"/>
<text text-anchor="start" x="394" y="-171" font-family="Helvetica,sans-Serif" font-size="10.00">viewcontroller.View.show</text>
<text text-anchor="middle" x="452" y="-160" font-family="Helvetica,sans-Serif" font-size="10.00">Message</text>
</a>
</g>
</g>
<!-- Node3&#45;&gt;Node4 -->
<g id="edge3" class="edge"><title>Node3&#45;&gt;Node4</title>
<path fill="none" stroke="midnightblue" d="M324.124,-156.183C340.942,-157.75 358.722,-159.406 375.478,-160.966"/>
<polygon fill="midnightblue" stroke="midnightblue" points="375.479,-164.481 385.761,-161.924 376.128,-157.511 375.479,-164.481"/>
</g>
<!-- Node5 -->
<g id="node5" class="node"><title>Node5</title>
<g id="a_node5"><a xlink:href="../../d6/dd4/classapplication_1_1_message_box.html#a272fc424b595a91a6d2048981ac95e5b" target="_top" xlink:title="application.MessageBox.show">
<polygon fill="white" stroke="black" points="578.5,-158.5 578.5,-177.5 737.5,-177.5 737.5,-158.5 578.5,-158.5"/>
<text text-anchor="middle" x="658" y="-165.5" font-family="Helvetica,sans-Serif" font-size="10.00">application.MessageBox.show</text>
</a>
</g>
</g>
<!-- Node4&#45;&gt;Node5 -->
<g id="edge4" class="edge"><title>Node4&#45;&gt;Node5</title>
<path fill="none" stroke="midnightblue" d="M518.108,-168C533.944,-168 551.152,-168 567.889,-168"/>
<polygon fill="midnightblue" stroke="midnightblue" points="568.233,-171.5 578.233,-168 568.233,-164.5 568.233,-171.5"/>
</g>
<!-- Node6 -->
<g id="node6" class="node"><title>Node6</title>
<g id="a_node6"><a xlink:href="../../d6/dd4/classapplication_1_1_message_box.html#a6c41f7d51b489df9b0a577d1a318c58d" target="_top" xlink:title="application.MessageBox.create\lMessageBox">
<polygon fill="white" stroke="black" points="774,-153 774,-183 940,-183 940,-153 774,-153"/>
<text text-anchor="start" x="782" y="-171" font-family="Helvetica,sans-Serif" font-size="10.00">application.MessageBox.create</text>
<text text-anchor="middle" x="857" y="-160" font-family="Helvetica,sans-Serif" font-size="10.00">MessageBox</text>
</a>
</g>
</g>
<!-- Node5&#45;&gt;Node6 -->
<g id="edge5" class="edge"><title>Node5&#45;&gt;Node6</title>
<path fill="none" stroke="midnightblue" d="M737.709,-168C746.259,-168 755.017,-168 763.71,-168"/>
<polygon fill="midnightblue" stroke="midnightblue" points="763.869,-171.5 773.869,-168 763.869,-164.5 763.869,-171.5"/>
</g>
<!-- Node7 -->
<g id="node7" class="node"><title>Node7</title>
<g id="a_node7"><a xlink:href="../../d6/dd4/classapplication_1_1_message_box.html#ac3b708a4c65b8243168425667649c221" target="_top" xlink:title="application.MessageBox.create\lMessageText">
<polygon fill="white" stroke="black" points="976,-178 976,-208 1142,-208 1142,-178 976,-178"/>
<text text-anchor="start" x="984" y="-196" font-family="Helvetica,sans-Serif" font-size="10.00">application.MessageBox.create</text>
<text text-anchor="middle" x="1059" y="-185" font-family="Helvetica,sans-Serif" font-size="10.00">MessageText</text>
</a>
</g>
</g>
<!-- Node6&#45;&gt;Node7 -->
<g id="edge6" class="edge"><title>Node6&#45;&gt;Node7</title>
<path fill="none" stroke="midnightblue" d="M940.213,-178.277C948.654,-179.332 957.27,-180.409 965.809,-181.476"/>
<polygon fill="midnightblue" stroke="midnightblue" points="965.426,-184.955 975.783,-182.723 966.294,-178.009 965.426,-184.955"/>
</g>
<!-- Node8 -->
<g id="node8" class="node"><title>Node8</title>
<g id="a_node8"><a xlink:href="../../d6/dd4/classapplication_1_1_message_box.html#a8e5e69eeb3a25bd743a9b376002f875e" target="_top" xlink:title="application.MessageBox.create\lOkayButton">
<polygon fill="white" stroke="black" points="976,-129 976,-159 1142,-159 1142,-129 976,-129"/>
<text text-anchor="start" x="984" y="-147" font-family="Helvetica,sans-Serif" font-size="10.00">application.MessageBox.create</text>
<text text-anchor="middle" x="1059" y="-136" font-family="Helvetica,sans-Serif" font-size="10.00">OkayButton</text>
</a>
</g>
</g>
<!-- Node6&#45;&gt;Node8 -->
<g id="edge7" class="edge"><title>Node6&#45;&gt;Node8</title>
<path fill="none" stroke="midnightblue" d="M940.213,-158.134C948.654,-157.121 957.27,-156.088 965.809,-155.063"/>
<polygon fill="midnightblue" stroke="midnightblue" points="966.271,-158.533 975.783,-153.866 965.437,-151.583 966.271,-158.533"/>
</g>
<!-- Node10 -->
<g id="node10" class="node"><title>Node10</title>
<g id="a_node10"><a xlink:href="../../d5/d4b/classturtle_1_1_turtle_history_state.html#a819af201b267b72af77d41bc672d60b7" target="_top" xlink:title="turtle.TurtleHistoryState.get\lAnimation">
<polygon fill="white" stroke="black" points="583.5,-102 583.5,-132 732.5,-132 732.5,-102 583.5,-102"/>
<text text-anchor="start" x="591.5" y="-120" font-family="Helvetica,sans-Serif" font-size="10.00">turtle.TurtleHistoryState.get</text>
<text text-anchor="middle" x="658" y="-109" font-family="Helvetica,sans-Serif" font-size="10.00">Animation</text>
</a>
</g>
</g>
<!-- Node9&#45;&gt;Node10 -->
<g id="edge9" class="edge"><title>Node9&#45;&gt;Node10</title>
<path fill="none" stroke="midnightblue" d="M296.35,-95.5224C316.616,-99.0749 340.36,-102.781 362,-105 433.097,-112.291 514.261,-115.2 573.433,-116.337"/>
<polygon fill="midnightblue" stroke="midnightblue" points="573.414,-119.837 583.476,-116.517 573.54,-112.838 573.414,-119.837"/>
</g>
<!-- Node11 -->
<g id="node11" class="node"><title>Node11</title>
<g id="a_node11"><a xlink:href="../../d5/d4b/classturtle_1_1_turtle_history_state.html#a6ef2f21cc6638628e67e324582883428" target="_top" xlink:title="turtle.TurtleHistoryState.get\lLines">
<polygon fill="white" stroke="black" points="583.5,-40 583.5,-70 732.5,-70 732.5,-40 583.5,-40"/>
<text text-anchor="start" x="591.5" y="-58" font-family="Helvetica,sans-Serif" font-size="10.00">turtle.TurtleHistoryState.get</text>
<text text-anchor="middle" x="658" y="-47" font-family="Helvetica,sans-Serif" font-size="10.00">Lines</text>
</a>
</g>
</g>
<!-- Node9&#45;&gt;Node11 -->
<g id="edge10" class="edge"><title>Node9&#45;&gt;Node11</title>
<path fill="none" stroke="midnightblue" d="M296.35,-76.4776C316.616,-72.9251 340.36,-69.2193 362,-67 433.097,-59.7087 514.261,-56.8001 573.433,-55.663"/>
<polygon fill="midnightblue" stroke="midnightblue" points="573.54,-59.1618 583.476,-55.483 573.414,-52.1629 573.54,-59.1618"/>
</g>
<!-- Node12 -->
<g id="node12" class="node"><title>Node12</title>
<g id="a_node12"><a xlink:href="../../de/d21/classmodel_1_1_main_model.html#a81fd23aa152cf9311abb569fa3c656fb" target="_top" xlink:title="model.MainModel.notifyObservers">
<polygon fill="white" stroke="black" points="362.5,-0.5 362.5,-19.5 541.5,-19.5 541.5,-0.5 362.5,-0.5"/>
<text text-anchor="middle" x="452" y="-7.5" font-family="Helvetica,sans-Serif" font-size="10.00">model.MainModel.notifyObservers</text>
</a>
</g>
</g>
<!-- Node9&#45;&gt;Node12 -->
<g id="edge11" class="edge"><title>Node9&#45;&gt;Node12</title>
<path fill="none" stroke="midnightblue" d="M265.739,-76.3924C288.188,-65.151 327.139,-46.4897 362,-34 374.244,-29.6131 387.684,-25.5928 400.327,-22.1483"/>
<polygon fill="midnightblue" stroke="midnightblue" points="401.489,-25.4611 410.257,-19.5134 399.694,-18.6953 401.489,-25.4611"/>
</g>
<!-- Node13 -->
<g id="node13" class="node"><title>Node13</title>
<g id="a_node13"><a xlink:href="../../d4/d57/classturtle_1_1_turtle_list_history.html#a38bde8e8aef6a8454244e1014db8cb17" target="_top" xlink:title="turtle.TurtleListHistory.redo">
<polygon fill="white" stroke="black" points="380,-76.5 380,-95.5 524,-95.5 524,-76.5 380,-76.5"/>
<text text-anchor="middle" x="452" y="-83.5" font-family="Helvetica,sans-Serif" font-size="10.00">turtle.TurtleListHistory.redo</text>
</a>
</g>
</g>
<!-- Node9&#45;&gt;Node13 -->
<g id="edge12" class="edge"><title>Node9&#45;&gt;Node13</title>
<path fill="none" stroke="midnightblue" d="M325.58,-86C339.941,-86 354.956,-86 369.402,-86"/>
<polygon fill="midnightblue" stroke="midnightblue" points="369.803,-89.5001 379.803,-86 369.803,-82.5001 369.803,-89.5001"/>
</g>
<!-- Node13&#45;&gt;Node10 -->
<g id="edge13" class="edge"><title>Node13&#45;&gt;Node10</title>
<path fill="none" stroke="midnightblue" d="M515.593,-95.5117C533.845,-98.2853 554.086,-101.361 573.415,-104.298"/>
<polygon fill="midnightblue" stroke="midnightblue" points="573.012,-107.777 583.424,-105.819 574.063,-100.857 573.012,-107.777"/>
</g>
<!-- Node13&#45;&gt;Node11 -->
<g id="edge14" class="edge"><title>Node13&#45;&gt;Node11</title>
<path fill="none" stroke="midnightblue" d="M515.593,-76.4883C533.845,-73.7147 554.086,-70.6389 573.415,-67.7017"/>
<polygon fill="midnightblue" stroke="midnightblue" points="574.063,-71.1434 583.424,-66.1807 573.012,-64.2228 574.063,-71.1434"/>
</g>
</g>
</svg>
