<?xml version="1.0" encoding="UTF-8" standalone="no"?>
<!DOCTYPE svg PUBLIC "-//W3C//DTD SVG 1.1//EN"
 "http://www.w3.org/Graphics/SVG/1.1/DTD/svg11.dtd">
<!-- Generated by graphviz version 2.36.0 (20140111.2315)
 -->
<!-- Title: viewcontroller.View.tabChanged Pages: 1 -->
<svg width="524pt" height="38pt"
 viewBox="0.00 0.00 524.00 38.00" xmlns="http://www.w3.org/2000/svg" xmlns:xlink="http://www.w3.org/1999/xlink">
<g id="graph0" class="graph" transform="scale(1 1) rotate(0) translate(4 34)">
<title>viewcontroller.View.tabChanged</title>
<polygon fill="white" stroke="none" points="-4,4 -4,-34 520,-34 520,4 -4,4"/>
<!-- Node1 -->
<g id="node1" class="node"><title>Node1</title>
<polygon fill="#bfbfbf" stroke="black" points="0.5,-5.5 0.5,-24.5 167.5,-24.5 167.5,-5.5 0.5,-5.5"/>
<text text-anchor="middle" x="84" y="-12.5" font-family="Helvetica,sans-Serif" font-size="10.00">viewcontroller.View.tabChanged</text>
</g>
<!-- Node2 -->
<g id="node2" class="node"><title>Node2</title>
<g id="a_node2"><a xlink:href="../../da/d4e/classviewcontroller_1_1_view.html#a87baca4ea0850b271ae95871aab914b5" target="_top" xlink:title="viewcontroller.View.initialize\lTabPane">
<polygon fill="white" stroke="black" points="204,-0 204,-30 350,-30 350,-0 204,-0"/>
<text text-anchor="start" x="212" y="-18" font-family="Helvetica,sans-Serif" font-size="10.00">viewcontroller.View.initialize</text>
<text text-anchor="middle" x="277" y="-7" font-family="Helvetica,sans-Serif" font-size="10.00">TabPane</text>
</a>
</g>
</g>
<!-- Node1&#45;&gt;Node2 -->
<g id="edge1" class="edge"><title>Node1&#45;&gt;Node2</title>
<path fill="none" stroke="midnightblue" d="M177.836,-15C186.526,-15 195.246,-15 203.707,-15"/>
<polygon fill="midnightblue" stroke="midnightblue" points="177.665,-11.5001 167.665,-15 177.664,-18.5001 177.665,-11.5001"/>
</g>
<!-- Node3 -->
<g id="node3" class="node"><title>Node3</title>
<g id="a_node3"><a xlink:href="../../da/d4e/classviewcontroller_1_1_view.html#ae0442fb812563b8647f9b9bdd32e0ee5" target="_top" xlink:title="viewcontroller.View.View">
<polygon fill="white" stroke="black" points="386,-5.5 386,-24.5 516,-24.5 516,-5.5 386,-5.5"/>
<text text-anchor="middle" x="451" y="-12.5" font-family="Helvetica,sans-Serif" font-size="10.00">viewcontroller.View.View</text>
</a>
</g>
</g>
<!-- Node2&#45;&gt;Node3 -->
<g id="edge2" class="edge"><title>Node2&#45;&gt;Node3</title>
<path fill="none" stroke="midnightblue" d="M360.701,-15C369.144,-15 377.629,-15 385.831,-15"/>
<polygon fill="midnightblue" stroke="midnightblue" points="360.445,-11.5001 350.445,-15 360.445,-18.5001 360.445,-11.5001"/>
</g>
</g>
</svg>
