<?xml version="1.0" encoding="UTF-8" standalone="no"?>
<!DOCTYPE svg PUBLIC "-//W3C//DTD SVG 1.1//EN"
 "http://www.w3.org/Graphics/SVG/1.1/DTD/svg11.dtd">
<!-- Generated by graphviz version 2.36.0 (20140111.2315)
 -->
<!-- Title: viewcontroller.View.loadWorkspace Pages: 1 -->
<!--zoomable 439 -->
<svg id="main" version="1.1" xmlns="http://www.w3.org/2000/svg" xmlns:xlink="http://www.w3.org/1999/xlink" xml:space="preserve" onload="init(evt)">
<style type="text/css"><![CDATA[
.edge:hover path { stroke: red; }
.edge:hover polygon { stroke: red; fill: red; }
]]></style>
<script type="text/javascript"><![CDATA[
var edges = document.getElementsByTagName('g');
if (edges && edges.length) {
  for (var i=0;i<edges.length;i++) {
    if (edges[i].id.substr(0,4)=='edge') {
      edges[i].setAttribute('class','edge');
    }
  }
}
]]></script>
        <defs>
                <circle id="rim" cx="0" cy="0" r="7"/>
                <circle id="rim2" cx="0" cy="0" r="3.5"/>
                <g id="zoomPlus">
                        <use xlink:href="#rim" fill="#404040">
                                <set attributeName="fill" to="#808080" begin="zoomplus.mouseover" end="zoomplus.mouseout"/>
                        </use>
                        <path d="M-4,0h8M0,-4v8" fill="none" stroke="white" stroke-width="1.5" pointer-events="none"/>
                </g>
                <g id="zoomMin">
                        <use xlink:href="#rim" fill="#404040">
                                <set attributeName="fill" to="#808080" begin="zoomminus.mouseover" end="zoomminus.mouseout"/>
                        </use>
                        <path d="M-4,0h8" fill="none" stroke="white" stroke-width="1.5" pointer-events="none"/>
                </g>
                <g id="dirArrow">
                        <path fill="none" stroke="white" stroke-width="1.5" d="M0,-3.0v7 M-2.5,-0.5L0,-3.0L2.5,-0.5"/>
                </g>
               <g id="resetDef">
                       <use xlink:href="#rim2" fill="#404040">
                               <set attributeName="fill" to="#808080" begin="reset.mouseover" end="reset.mouseout"/>
                       </use>
               </g>
        </defs>

<script type="text/javascript">
var viewWidth = 1172;
var viewHeight = 439;
var sectionId = 'dynsection-19';
</script>
<script xlink:href="../../svgpan.js"/>
<svg id="graph" class="graph">
<g id="viewport">
<title>viewcontroller.View.loadWorkspace</title>
<polygon fill="white" stroke="none" points="-4,4 -4,-435 1168,-435 1168,4 -4,4"/>
<!-- Node1 -->
<g id="node1" class="node"><title>Node1</title>
<polygon fill="#bfbfbf" stroke="black" points="0,-166 0,-196 128,-196 128,-166 0,-166"/>
<text text-anchor="start" x="8" y="-184" font-family="Helvetica,sans-Serif" font-size="10.00">viewcontroller.View.load</text>
<text text-anchor="middle" x="64" y="-173" font-family="Helvetica,sans-Serif" font-size="10.00">Workspace</text>
</g>
<!-- Node2 -->
<g id="node2" class="node"><title>Node2</title>
<g id="a_node2"><a xlink:href="../../da/d4e/classviewcontroller_1_1_view.html#a4b671855769c23246f5698d72dc12618" target="_top" xlink:title="viewcontroller.View.load\lSerialisedWorkspace">
<polygon fill="white" stroke="black" points="164,-166 164,-196 292,-196 292,-166 164,-166"/>
<text text-anchor="start" x="172" y="-184" font-family="Helvetica,sans-Serif" font-size="10.00">viewcontroller.View.load</text>
<text text-anchor="middle" x="228" y="-173" font-family="Helvetica,sans-Serif" font-size="10.00">SerialisedWorkspace</text>
</a>
</g>
</g>
<!-- Node1&#45;&gt;Node2 -->
<g id="edge1" class="edge"><title>Node1&#45;&gt;Node2</title>
<path fill="none" stroke="midnightblue" d="M128.097,-181C136.435,-181 145.038,-181 153.53,-181"/>
<polygon fill="midnightblue" stroke="midnightblue" points="153.808,-184.5 163.808,-181 153.808,-177.5 153.808,-184.5"/>
</g>
<!-- Node3 -->
<g id="node3" class="node"><title>Node3</title>
<g id="a_node3"><a xlink:href="../../da/d4e/classviewcontroller_1_1_view.html#ad16a35ae1b446b10bc9cc74395e0aeab" target="_top" xlink:title="viewcontroller.View.addWorkspace">
<polygon fill="white" stroke="black" points="328.5,-342.5 328.5,-361.5 505.5,-361.5 505.5,-342.5 328.5,-342.5"/>
<text text-anchor="middle" x="417" y="-349.5" font-family="Helvetica,sans-Serif" font-size="10.00">viewcontroller.View.addWorkspace</text>
</a>
</g>
</g>
<!-- Node2&#45;&gt;Node3 -->
<g id="edge2" class="edge"><title>Node2&#45;&gt;Node3</title>
<path fill="none" stroke="midnightblue" d="M245.595,-196.175C280.664,-228.243 362.044,-302.661 398.171,-335.696"/>
<polygon fill="midnightblue" stroke="midnightblue" points="395.81,-338.28 405.552,-342.446 400.534,-333.114 395.81,-338.28"/>
</g>
<!-- Node7 -->
<g id="node7" class="node"><title>Node7</title>
<g id="a_node7"><a xlink:href="../../d2/d33/classmodel_1_1_deserialiser.html#a2fbfdc424927c111f445271967687f28" target="_top" xlink:title="model.Deserialiser.deserialise">
<polygon fill="white" stroke="black" points="337.5,-171.5 337.5,-190.5 496.5,-190.5 496.5,-171.5 337.5,-171.5"/>
<text text-anchor="middle" x="417" y="-178.5" font-family="Helvetica,sans-Serif" font-size="10.00">model.Deserialiser.deserialise</text>
</a>
</g>
</g>
<!-- Node2&#45;&gt;Node7 -->
<g id="edge6" class="edge"><title>Node2&#45;&gt;Node7</title>
<path fill="none" stroke="midnightblue" d="M292.049,-181C303.284,-181 315.178,-181 326.976,-181"/>
<polygon fill="midnightblue" stroke="midnightblue" points="327.301,-184.5 337.301,-181 327.301,-177.5 327.301,-184.5"/>
</g>
<!-- Node13 -->
<g id="node13" class="node"><title>Node13</title>
<g id="a_node13"><a xlink:href="../../da/d4e/classviewcontroller_1_1_view.html#a98e7b6a5716e94a0052d7bb51dc3a404" target="_top" xlink:title="viewcontroller.View.show\lMessage">
<polygon fill="white" stroke="black" points="351,-73 351,-103 483,-103 483,-73 351,-73"/>
<text text-anchor="start" x="359" y="-91" font-family="Helvetica,sans-Serif" font-size="10.00">viewcontroller.View.show</text>
<text text-anchor="middle" x="417" y="-80" font-family="Helvetica,sans-Serif" font-size="10.00">Message</text>
</a>
</g>
</g>
<!-- Node2&#45;&gt;Node13 -->
<g id="edge12" class="edge"><title>Node2&#45;&gt;Node13</title>
<path fill="none" stroke="midnightblue" d="M259.461,-165.851C291.382,-149.976 341.653,-124.975 376.58,-107.605"/>
<polygon fill="midnightblue" stroke="midnightblue" points="378.157,-110.729 385.552,-103.143 375.04,-104.462 378.157,-110.729"/>
</g>
<!-- Node4 -->
<g id="node4" class="node"><title>Node4</title>
<g id="a_node4"><a xlink:href="../../d3/d67/classviewcontroller_1_1_main_view_controller.html#ab2d2098053847d03306f31284a351b95" target="_top" xlink:title="viewcontroller.MainViewController.getNode">
<polygon fill="white" stroke="black" points="542,-411.5 542,-430.5 760,-430.5 760,-411.5 542,-411.5"/>
<text text-anchor="middle" x="651" y="-418.5" font-family="Helvetica,sans-Serif" font-size="10.00">viewcontroller.MainViewController.getNode</text>
</a>
</g>
</g>
<!-- Node3&#45;&gt;Node4 -->
<g id="edge3" class="edge"><title>Node3&#45;&gt;Node4</title>
<path fill="none" stroke="midnightblue" d="M438.634,-361.583C462.901,-372.516 504.623,-390.264 542,-401 553.24,-404.229 565.293,-407.058 577.124,-409.495"/>
<polygon fill="midnightblue" stroke="midnightblue" points="576.498,-412.938 586.987,-411.449 577.858,-406.072 576.498,-412.938"/>
</g>
<!-- Node5 -->
<g id="node5" class="node"><title>Node5</title>
<g id="a_node5"><a xlink:href="../../d9/dd7/classviewcontroller_1_1_g_u_i_reference_library.html#ac147f33c0bfa0252d247d7c0174ff688" target="_top" xlink:title="viewcontroller.GUIReference\lLibrary.getStringTranslation">
<polygon fill="white" stroke="black" points="576.5,-362 576.5,-392 725.5,-392 725.5,-362 576.5,-362"/>
<text text-anchor="start" x="584.5" y="-380" font-family="Helvetica,sans-Serif" font-size="10.00">viewcontroller.GUIReference</text>
<text text-anchor="middle" x="651" y="-369" font-family="Helvetica,sans-Serif" font-size="10.00">Library.getStringTranslation</text>
</a>
</g>
</g>
<!-- Node3&#45;&gt;Node5 -->
<g id="edge4" class="edge"><title>Node3&#45;&gt;Node5</title>
<path fill="none" stroke="midnightblue" d="M505.709,-361.451C525.487,-363.583 546.434,-365.84 566.053,-367.954"/>
<polygon fill="midnightblue" stroke="midnightblue" points="565.86,-371.453 576.178,-369.045 566.61,-364.494 565.86,-371.453"/>
</g>
<!-- Node6 -->
<g id="node6" class="node"><title>Node6</title>
<g id="a_node6"><a xlink:href="../../d8/d3a/classviewcontroller_1_1_workspace.html#a27576951466201164923fcc7b190a42e" target="_top" xlink:title="viewcontroller.Workspace.get\lViewController">
<polygon fill="white" stroke="black" points="574,-313 574,-343 728,-343 728,-313 574,-313"/>
<text text-anchor="start" x="582" y="-331" font-family="Helvetica,sans-Serif" font-size="10.00">viewcontroller.Workspace.get</text>
<text text-anchor="middle" x="651" y="-320" font-family="Helvetica,sans-Serif" font-size="10.00">ViewController</text>
</a>
</g>
</g>
<!-- Node3&#45;&gt;Node6 -->
<g id="edge5" class="edge"><title>Node3&#45;&gt;Node6</title>
<path fill="none" stroke="midnightblue" d="M505.709,-342.927C524.744,-340.958 544.861,-338.876 563.835,-336.914"/>
<polygon fill="midnightblue" stroke="midnightblue" points="564.355,-340.379 573.942,-335.868 563.635,-333.416 564.355,-340.379"/>
</g>
<!-- Node8 -->
<g id="node8" class="node"><title>Node8</title>
<g id="a_node8"><a xlink:href="../../d3/d5e/classmodel_1_1_serialisable_model.html#acd6f583bd4760c71758447d8da52b957" target="_top" xlink:title="model.SerialisableModel.get\lBackGroundColorName">
<polygon fill="white" stroke="black" points="575,-264 575,-294 727,-294 727,-264 575,-264"/>
<text text-anchor="start" x="583" y="-282" font-family="Helvetica,sans-Serif" font-size="10.00">model.SerialisableModel.get</text>
<text text-anchor="middle" x="651" y="-271" font-family="Helvetica,sans-Serif" font-size="10.00">BackGroundColorName</text>
</a>
</g>
</g>
<!-- Node7&#45;&gt;Node8 -->
<g id="edge7" class="edge"><title>Node7&#45;&gt;Node8</title>
<path fill="none" stroke="midnightblue" d="M431.064,-190.526C452.941,-206.044 498.846,-236.775 542,-254 549.37,-256.942 557.168,-259.585 565.065,-261.948"/>
<polygon fill="midnightblue" stroke="midnightblue" points="564.148,-265.326 574.724,-264.695 566.063,-258.593 564.148,-265.326"/>
</g>
<!-- Node9 -->
<g id="node9" class="node"><title>Node9</title>
<g id="a_node9"><a xlink:href="../../d3/d5e/classmodel_1_1_serialisable_model.html#a95d6c1f18e7a764d9bd0b47d1606b3f2" target="_top" xlink:title="model.SerialisableModel.get\lMyCommandHistoryModel">
<polygon fill="white" stroke="black" points="575,-215 575,-245 727,-245 727,-215 575,-215"/>
<text text-anchor="start" x="583" y="-233" font-family="Helvetica,sans-Serif" font-size="10.00">model.SerialisableModel.get</text>
<text text-anchor="middle" x="651" y="-222" font-family="Helvetica,sans-Serif" font-size="10.00">MyCommandHistoryModel</text>
</a>
</g>
</g>
<!-- Node7&#45;&gt;Node9 -->
<g id="edge8" class="edge"><title>Node7&#45;&gt;Node9</title>
<path fill="none" stroke="midnightblue" d="M463.007,-190.506C492.998,-196.84 533.277,-205.347 568.771,-212.844"/>
<polygon fill="midnightblue" stroke="midnightblue" points="568.135,-216.287 578.642,-214.929 569.581,-209.438 568.135,-216.287"/>
</g>
<!-- Node10 -->
<g id="node10" class="node"><title>Node10</title>
<g id="a_node10"><a xlink:href="../../d3/d5e/classmodel_1_1_serialisable_model.html#acbeaa1958664dae32fb55d92a504854a" target="_top" xlink:title="model.SerialisableModel.get\lMyLanguage">
<polygon fill="white" stroke="black" points="575,-166 575,-196 727,-196 727,-166 575,-166"/>
<text text-anchor="start" x="583" y="-184" font-family="Helvetica,sans-Serif" font-size="10.00">model.SerialisableModel.get</text>
<text text-anchor="middle" x="651" y="-173" font-family="Helvetica,sans-Serif" font-size="10.00">MyLanguage</text>
</a>
</g>
</g>
<!-- Node7&#45;&gt;Node10 -->
<g id="edge9" class="edge"><title>Node7&#45;&gt;Node10</title>
<path fill="none" stroke="midnightblue" d="M496.545,-181C518.432,-181 542.312,-181 564.574,-181"/>
<polygon fill="midnightblue" stroke="midnightblue" points="564.676,-184.5 574.676,-181 564.676,-177.5 564.676,-184.5"/>
</g>
<!-- Node11 -->
<g id="node11" class="node"><title>Node11</title>
<g id="a_node11"><a xlink:href="../../d3/d5e/classmodel_1_1_serialisable_model.html#a3acb5ea4d85b1a7be0d34861be86d796" target="_top" xlink:title="model.SerialisableModel.get\lMyUserDefinedMethodsModel">
<polygon fill="white" stroke="black" points="571.5,-117 571.5,-147 730.5,-147 730.5,-117 571.5,-117"/>
<text text-anchor="start" x="579.5" y="-135" font-family="Helvetica,sans-Serif" font-size="10.00">model.SerialisableModel.get</text>
<text text-anchor="middle" x="651" y="-124" font-family="Helvetica,sans-Serif" font-size="10.00">MyUserDefinedMethodsModel</text>
</a>
</g>
</g>
<!-- Node7&#45;&gt;Node11 -->
<g id="edge10" class="edge"><title>Node7&#45;&gt;Node11</title>
<path fill="none" stroke="midnightblue" d="M463.007,-171.494C492.998,-165.16 533.277,-156.653 568.771,-149.156"/>
<polygon fill="midnightblue" stroke="midnightblue" points="569.581,-152.562 578.642,-147.071 568.135,-145.713 569.581,-152.562"/>
</g>
<!-- Node12 -->
<g id="node12" class="node"><title>Node12</title>
<g id="a_node12"><a xlink:href="../../d3/d5e/classmodel_1_1_serialisable_model.html#a530afce46890f6bd3aa9fb22dad28df6" target="_top" xlink:title="model.SerialisableModel.get\lMyUserDefinedVariablesModel">
<polygon fill="white" stroke="black" points="570.5,-68 570.5,-98 731.5,-98 731.5,-68 570.5,-68"/>
<text text-anchor="start" x="578.5" y="-86" font-family="Helvetica,sans-Serif" font-size="10.00">model.SerialisableModel.get</text>
<text text-anchor="middle" x="651" y="-75" font-family="Helvetica,sans-Serif" font-size="10.00">MyUserDefinedVariablesModel</text>
</a>
</g>
</g>
<!-- Node7&#45;&gt;Node12 -->
<g id="edge11" class="edge"><title>Node7&#45;&gt;Node12</title>
<path fill="none" stroke="midnightblue" d="M431.064,-171.474C452.941,-155.956 498.846,-125.225 542,-108 548.574,-105.376 555.489,-102.99 562.511,-100.827"/>
<polygon fill="midnightblue" stroke="midnightblue" points="563.513,-104.181 572.13,-98.0158 561.549,-97.4618 563.513,-104.181"/>
</g>
<!-- Node14 -->
<g id="node14" class="node"><title>Node14</title>
<g id="a_node14"><a xlink:href="../../d6/dd4/classapplication_1_1_message_box.html#a272fc424b595a91a6d2048981ac95e5b" target="_top" xlink:title="application.MessageBox.show">
<polygon fill="white" stroke="black" points="571.5,-29.5 571.5,-48.5 730.5,-48.5 730.5,-29.5 571.5,-29.5"/>
<text text-anchor="middle" x="651" y="-36.5" font-family="Helvetica,sans-Serif" font-size="10.00">application.MessageBox.show</text>
</a>
</g>
</g>
<!-- Node13&#45;&gt;Node14 -->
<g id="edge13" class="edge"><title>Node13&#45;&gt;Node14</title>
<path fill="none" stroke="midnightblue" d="M476.803,-72.9678C497.364,-67.926 520.644,-62.4574 542,-58 554.846,-55.3189 568.604,-52.7041 581.852,-50.3143"/>
<polygon fill="midnightblue" stroke="midnightblue" points="582.628,-53.7314 591.86,-48.5333 581.401,-46.8396 582.628,-53.7314"/>
</g>
<!-- Node15 -->
<g id="node15" class="node"><title>Node15</title>
<g id="a_node15"><a xlink:href="../../d6/dd4/classapplication_1_1_message_box.html#a6c41f7d51b489df9b0a577d1a318c58d" target="_top" xlink:title="application.MessageBox.create\lMessageBox">
<polygon fill="white" stroke="black" points="796,-24 796,-54 962,-54 962,-24 796,-24"/>
<text text-anchor="start" x="804" y="-42" font-family="Helvetica,sans-Serif" font-size="10.00">application.MessageBox.create</text>
<text text-anchor="middle" x="879" y="-31" font-family="Helvetica,sans-Serif" font-size="10.00">MessageBox</text>
</a>
</g>
</g>
<!-- Node14&#45;&gt;Node15 -->
<g id="edge14" class="edge"><title>Node14&#45;&gt;Node15</title>
<path fill="none" stroke="midnightblue" d="M730.727,-39C748.462,-39 767.441,-39 785.676,-39"/>
<polygon fill="midnightblue" stroke="midnightblue" points="785.718,-42.5001 795.718,-39 785.718,-35.5001 785.718,-42.5001"/>
</g>
<!-- Node16 -->
<g id="node16" class="node"><title>Node16</title>
<g id="a_node16"><a xlink:href="../../d6/dd4/classapplication_1_1_message_box.html#ac3b708a4c65b8243168425667649c221" target="_top" xlink:title="application.MessageBox.create\lMessageText">
<polygon fill="white" stroke="black" points="998,-49 998,-79 1164,-79 1164,-49 998,-49"/>
<text text-anchor="start" x="1006" y="-67" font-family="Helvetica,sans-Serif" font-size="10.00">application.MessageBox.create</text>
<text text-anchor="middle" x="1081" y="-56" font-family="Helvetica,sans-Serif" font-size="10.00">MessageText</text>
</a>
</g>
</g>
<!-- Node15&#45;&gt;Node16 -->
<g id="edge15" class="edge"><title>Node15&#45;&gt;Node16</title>
<path fill="none" stroke="midnightblue" d="M962.213,-49.2767C970.654,-50.3318 979.27,-51.4087 987.809,-52.4761"/>
<polygon fill="midnightblue" stroke="midnightblue" points="987.426,-55.9554 997.783,-53.7228 988.294,-49.0094 987.426,-55.9554"/>
</g>
<!-- Node17 -->
<g id="node17" class="node"><title>Node17</title>
<g id="a_node17"><a xlink:href="../../d6/dd4/classapplication_1_1_message_box.html#a8e5e69eeb3a25bd743a9b376002f875e" target="_top" xlink:title="application.MessageBox.create\lOkayButton">
<polygon fill="white" stroke="black" points="998,-0 998,-30 1164,-30 1164,-0 998,-0"/>
<text text-anchor="start" x="1006" y="-18" font-family="Helvetica,sans-Serif" font-size="10.00">application.MessageBox.create</text>
<text text-anchor="middle" x="1081" y="-7" font-family="Helvetica,sans-Serif" font-size="10.00">OkayButton</text>
</a>
</g>
</g>
<!-- Node15&#45;&gt;Node17 -->
<g id="edge16" class="edge"><title>Node15&#45;&gt;Node17</title>
<path fill="none" stroke="midnightblue" d="M962.213,-29.1344C970.654,-28.1215 979.27,-27.0876 987.809,-26.063"/>
<polygon fill="midnightblue" stroke="midnightblue" points="988.271,-29.5327 997.783,-24.8661 987.437,-22.5826 988.271,-29.5327"/>
</g>
</g>
</svg>
        <g id="navigator" transform="translate(0 0)" fill="#404254">
                <rect fill="#f2f5e9" fill-opacity="0.5" stroke="#606060" stroke-width=".5" x="0" y="0" width="60" height="60"/>
                <use id="zoomplus" xlink:href="#zoomPlus" x="17" y="9" onmousedown="handleZoom(evt,'in')"/>
                <use id="zoomminus" xlink:href="#zoomMin" x="42" y="9" onmousedown="handleZoom(evt,'out')"/>
                <use id="reset" xlink:href="#resetDef" x="30" y="36" onmousedown="handleReset()"/>
                <g id="arrowUp" xlink:href="#dirArrow" transform="translate(30 24)" onmousedown="handlePan(0,-1)">
                  <use xlink:href="#rim" fill="#404040">
                        <set attributeName="fill" to="#808080" begin="arrowUp.mouseover" end="arrowUp.mouseout"/>
                  </use>
                  <path fill="none" stroke="white" stroke-width="1.5" d="M0,-3.0v7 M-2.5,-0.5L0,-3.0L2.5,-0.5"/>
                </g>
                <g id="arrowRight" xlink:href="#dirArrow" transform="rotate(90) translate(36 -43)" onmousedown="handlePan(1,0)">
                  <use xlink:href="#rim" fill="#404040">
                        <set attributeName="fill" to="#808080" begin="arrowRight.mouseover" end="arrowRight.mouseout"/>
                  </use>
                  <path fill="none" stroke="white" stroke-width="1.5" d="M0,-3.0v7 M-2.5,-0.5L0,-3.0L2.5,-0.5"/>
                </g>
                <g id="arrowDown" xlink:href="#dirArrow" transform="rotate(180) translate(-30 -48)" onmousedown="handlePan(0,1)">
                  <use xlink:href="#rim" fill="#404040">
                        <set attributeName="fill" to="#808080" begin="arrowDown.mouseover" end="arrowDown.mouseout"/>
                  </use>
                  <path fill="none" stroke="white" stroke-width="1.5" d="M0,-3.0v7 M-2.5,-0.5L0,-3.0L2.5,-0.5"/>
                </g>
                <g id="arrowLeft" xlink:href="#dirArrow" transform="rotate(270) translate(-36 17)" onmousedown="handlePan(-1,0)">
                  <use xlink:href="#rim" fill="#404040">
                        <set attributeName="fill" to="#808080" begin="arrowLeft.mouseover" end="arrowLeft.mouseout"/>
                  </use>
                  <path fill="none" stroke="white" stroke-width="1.5" d="M0,-3.0v7 M-2.5,-0.5L0,-3.0L2.5,-0.5"/>
                </g>
        </g>
        <svg viewBox="0 0 15 15" width="100%" height="30px" preserveAspectRatio="xMaxYMin meet">
         <g id="arrow_out" transform="scale(0.3 0.3)">
          <a xlink:href="classviewcontroller_1_1_view_a3ce37900baf65c2a31c0a2a7d5349aae_cgraph_org.svg" target="_base">
           <rect id="button" ry="5" rx="5" y="6" x="6" height="38" width="38"
                fill="#f2f5e9" fill-opacity="0.5" stroke="#606060" stroke-width="1.0"/>
           <path id="arrow"
             d="M 11.500037,31.436501 C 11.940474,20.09759 22.043105,11.32322 32.158766,21.979434 L 37.068811,17.246167 C 37.068811,17.246167 37.088388,32 37.088388,32 L 22.160133,31.978069 C 22.160133,31.978069 26.997745,27.140456 26.997745,27.140456 C 18.528582,18.264221 13.291696,25.230495 11.500037,31.436501 z"
             style="fill:#404040;"/>
          </a>
         </g>
        </svg>
</svg>
