<?xml version="1.0" encoding="UTF-8" standalone="no"?>
<!DOCTYPE svg PUBLIC "-//W3C//DTD SVG 1.1//EN"
 "http://www.w3.org/Graphics/SVG/1.1/DTD/svg11.dtd">
<!-- Generated by graphviz version 2.36.0 (20140111.2315)
 -->
<!-- Title: interpreter.ExpressionEvaluator Pages: 1 -->
<svg width="183pt" height="176pt"
 viewBox="0.00 0.00 183.00 176.00" xmlns="http://www.w3.org/2000/svg" xmlns:xlink="http://www.w3.org/1999/xlink">
<g id="graph0" class="graph" transform="scale(1 1) rotate(0) translate(4 172)">
<title>interpreter.ExpressionEvaluator</title>
<polygon fill="white" stroke="none" points="-4,4 -4,-172 179,-172 179,4 -4,4"/>
<!-- Node1 -->
<g id="node1" class="node"><title>Node1</title>
<polygon fill="#bfbfbf" stroke="black" points="-0.5,-0.5 -0.5,-19.5 166.5,-19.5 166.5,-0.5 -0.5,-0.5"/>
<text text-anchor="middle" x="83" y="-7.5" font-family="Helvetica,sans-Serif" font-size="10.00">interpreter.ExpressionEvaluator</text>
</g>
<!-- Node2 -->
<g id="node2" class="node"><title>Node2</title>
<g id="a_node2"><a xlink:href="../../d6/d76/classinterpreter_1_1_s_logo_result_merger.html" target="_top" xlink:title="interpreter.SLogoResultMerger">
<polygon fill="white" stroke="black" points="2,-68.5 2,-87.5 164,-87.5 164,-68.5 2,-68.5"/>
<text text-anchor="middle" x="83" y="-75.5" font-family="Helvetica,sans-Serif" font-size="10.00">interpreter.SLogoResultMerger</text>
</a>
</g>
</g>
<!-- Node2&#45;&gt;Node1 -->
<g id="edge1" class="edge"><title>Node2&#45;&gt;Node1</title>
<path fill="none" stroke="#9a32cd" stroke-dasharray="5,2" d="M83,-58.0413C83,-45.4724 83,-29.5631 83,-19.8411"/>
<polygon fill="#9a32cd" stroke="#9a32cd" points="79.5001,-58.3716 83,-68.3717 86.5001,-58.3717 79.5001,-58.3716"/>
<text text-anchor="middle" x="123.5" y="-41.5" font-family="Helvetica,sans-Serif" font-size="10.00"> myResultMerger</text>
</g>
<!-- Node3 -->
<g id="node3" class="node"><title>Node3</title>
<polygon fill="white" stroke="#bfbfbf" points="11.5,-137 11.5,-167 154.5,-167 154.5,-137 11.5,-137"/>
<text text-anchor="start" x="19.5" y="-155" font-family="Helvetica,sans-Serif" font-size="10.00">Deque&lt; interpreter.result.</text>
<text text-anchor="middle" x="83" y="-144" font-family="Helvetica,sans-Serif" font-size="10.00">SLogoResult &gt;</text>
</g>
<!-- Node3&#45;&gt;Node2 -->
<g id="edge2" class="edge"><title>Node3&#45;&gt;Node2</title>
<path fill="none" stroke="#9a32cd" stroke-dasharray="5,2" d="M83,-126.688C83,-113.253 83,-97.3805 83,-87.7589"/>
<polygon fill="#9a32cd" stroke="#9a32cd" points="79.5001,-126.775 83,-136.775 86.5001,-126.775 79.5001,-126.775"/>
<text text-anchor="middle" x="129" y="-109.5" font-family="Helvetica,sans-Serif" font-size="10.00"> myResultsToMerge</text>
</g>
</g>
</svg>
