<?xml version="1.0" encoding="UTF-8" standalone="no"?>
<!DOCTYPE svg PUBLIC "-//W3C//DTD SVG 1.1//EN"
 "http://www.w3.org/Graphics/SVG/1.1/DTD/svg11.dtd">
<!-- Generated by graphviz version 2.36.0 (20140111.2315)
 -->
<!-- Title: turtle.draw.MoveTransition.interpolateChanges Pages: 1 -->
<svg width="574pt" height="38pt"
 viewBox="0.00 0.00 574.00 38.00" xmlns="http://www.w3.org/2000/svg" xmlns:xlink="http://www.w3.org/1999/xlink">
<g id="graph0" class="graph" transform="scale(1 1) rotate(0) translate(4 34)">
<title>turtle.draw.MoveTransition.interpolateChanges</title>
<polygon fill="white" stroke="none" points="-4,4 -4,-34 570,-34 570,4 -4,4"/>
<!-- Node1 -->
<g id="node1" class="node"><title>Node1</title>
<polygon fill="#bfbfbf" stroke="black" points="0.5,-0 0.5,-30 195.5,-30 195.5,-0 0.5,-0"/>
<text text-anchor="start" x="8.5" y="-18" font-family="Helvetica,sans-Serif" font-size="10.00">turtle.draw.MoveTransition.interpolate</text>
<text text-anchor="middle" x="98" y="-7" font-family="Helvetica,sans-Serif" font-size="10.00">Changes</text>
</g>
<!-- Node2 -->
<g id="node2" class="node"><title>Node2</title>
<g id="a_node2"><a xlink:href="../../df/dcb/classturtle_1_1_turtle.html#a29ef6cfcd7794054df8ef83724022983" target="_top" xlink:title="turtle.Turtle.getTurtle">
<polygon fill="white" stroke="black" points="232.5,-5.5 232.5,-24.5 347.5,-24.5 347.5,-5.5 232.5,-5.5"/>
<text text-anchor="middle" x="290" y="-12.5" font-family="Helvetica,sans-Serif" font-size="10.00">turtle.Turtle.getTurtle</text>
</a>
</g>
</g>
<!-- Node1&#45;&gt;Node2 -->
<g id="edge1" class="edge"><title>Node1&#45;&gt;Node2</title>
<path fill="none" stroke="midnightblue" d="M195.67,-15C204.599,-15 213.508,-15 222.082,-15"/>
<polygon fill="midnightblue" stroke="midnightblue" points="222.353,-18.5001 232.353,-15 222.353,-11.5001 222.353,-18.5001"/>
</g>
<!-- Node3 -->
<g id="node3" class="node"><title>Node3</title>
<g id="a_node3"><a xlink:href="../../d4/de5/classturtle_1_1_turtle_view_controller.html#a24215ad9dea4b06da7652230ac822973" target="_top" xlink:title="turtle.TurtleViewController.getNode">
<polygon fill="white" stroke="black" points="384,-5.5 384,-24.5 566,-24.5 566,-5.5 384,-5.5"/>
<text text-anchor="middle" x="475" y="-12.5" font-family="Helvetica,sans-Serif" font-size="10.00">turtle.TurtleViewController.getNode</text>
</a>
</g>
</g>
<!-- Node2&#45;&gt;Node3 -->
<g id="edge2" class="edge"><title>Node2&#45;&gt;Node3</title>
<path fill="none" stroke="midnightblue" d="M347.899,-15C356.209,-15 364.964,-15 373.83,-15"/>
<polygon fill="midnightblue" stroke="midnightblue" points="373.868,-18.5001 383.868,-15 373.867,-11.5001 373.868,-18.5001"/>
</g>
</g>
</svg>
