<?xml version="1.0" encoding="UTF-8" standalone="no"?>
<!DOCTYPE svg PUBLIC "-//W3C//DTD SVG 1.1//EN"
 "http://www.w3.org/Graphics/SVG/1.1/DTD/svg11.dtd">
<!-- Generated by graphviz version 2.36.0 (20140111.2315)
 -->
<!-- Title: interpreter.Interpreter.Interpreter Pages: 1 -->
<svg width="348pt" height="126pt"
 viewBox="0.00 0.00 348.00 126.00" xmlns="http://www.w3.org/2000/svg" xmlns:xlink="http://www.w3.org/1999/xlink">
<g id="graph0" class="graph" transform="scale(1 1) rotate(0) translate(4 122)">
<title>interpreter.Interpreter.Interpreter</title>
<polygon fill="white" stroke="none" points="-4,4 -4,-122 344,-122 344,4 -4,4"/>
<!-- Node1 -->
<g id="node1" class="node"><title>Node1</title>
<polygon fill="#bfbfbf" stroke="black" points="0.5,-49 0.5,-79 123.5,-79 123.5,-49 0.5,-49"/>
<text text-anchor="start" x="8.5" y="-67" font-family="Helvetica,sans-Serif" font-size="10.00">interpreter.Interpreter.</text>
<text text-anchor="middle" x="62" y="-56" font-family="Helvetica,sans-Serif" font-size="10.00">Interpreter</text>
</g>
<!-- Node2 -->
<g id="node2" class="node"><title>Node2</title>
<g id="a_node2"><a xlink:href="../../de/d21/classmodel_1_1_main_model.html#ad956188c0d7384b45a1fc36e6f283f88" target="_top" xlink:title="model.MainModel.getLanguage">
<polygon fill="white" stroke="black" points="166.5,-98.5 166.5,-117.5 333.5,-117.5 333.5,-98.5 166.5,-98.5"/>
<text text-anchor="middle" x="250" y="-105.5" font-family="Helvetica,sans-Serif" font-size="10.00">model.MainModel.getLanguage</text>
</a>
</g>
</g>
<!-- Node1&#45;&gt;Node2 -->
<g id="edge1" class="edge"><title>Node1&#45;&gt;Node2</title>
<path fill="none" stroke="midnightblue" d="M122.974,-79.0527C135.213,-82.0643 148.012,-85.1704 160,-88 171.444,-90.7013 183.737,-93.5181 195.423,-96.1562"/>
<polygon fill="midnightblue" stroke="midnightblue" points="194.976,-99.6429 205.5,-98.421 196.511,-92.8133 194.976,-99.6429"/>
</g>
<!-- Node3 -->
<g id="node3" class="node"><title>Node3</title>
<g id="a_node3"><a xlink:href="../../de/d21/classmodel_1_1_main_model.html#ad7dab4717c031b1d8b2f88e671bb98cd" target="_top" xlink:title="model.MainModel.getUserDefined\lMethods">
<polygon fill="white" stroke="black" points="160.5,-49 160.5,-79 339.5,-79 339.5,-49 160.5,-49"/>
<text text-anchor="start" x="168.5" y="-67" font-family="Helvetica,sans-Serif" font-size="10.00">model.MainModel.getUserDefined</text>
<text text-anchor="middle" x="250" y="-56" font-family="Helvetica,sans-Serif" font-size="10.00">Methods</text>
</a>
</g>
</g>
<!-- Node1&#45;&gt;Node3 -->
<g id="edge2" class="edge"><title>Node1&#45;&gt;Node3</title>
<path fill="none" stroke="midnightblue" d="M123.646,-64C132.196,-64 141.162,-64 150.202,-64"/>
<polygon fill="midnightblue" stroke="midnightblue" points="150.421,-67.5001 160.421,-64 150.421,-60.5001 150.421,-67.5001"/>
</g>
<!-- Node4 -->
<g id="node4" class="node"><title>Node4</title>
<g id="a_node4"><a xlink:href="../../de/d21/classmodel_1_1_main_model.html#adbee6cf0e790fd4a478f969f14ef0dbd" target="_top" xlink:title="model.MainModel.getUserDefined\lVariables">
<polygon fill="white" stroke="black" points="160.5,-0 160.5,-30 339.5,-30 339.5,-0 160.5,-0"/>
<text text-anchor="start" x="168.5" y="-18" font-family="Helvetica,sans-Serif" font-size="10.00">model.MainModel.getUserDefined</text>
<text text-anchor="middle" x="250" y="-7" font-family="Helvetica,sans-Serif" font-size="10.00">Variables</text>
</a>
</g>
</g>
<!-- Node1&#45;&gt;Node4 -->
<g id="edge3" class="edge"><title>Node1&#45;&gt;Node4</title>
<path fill="none" stroke="midnightblue" d="M120.07,-48.9654C139.709,-43.7917 161.874,-37.9525 182.217,-32.5934"/>
<polygon fill="midnightblue" stroke="midnightblue" points="183.259,-35.9383 192.038,-30.0062 181.476,-29.1692 183.259,-35.9383"/>
</g>
</g>
</svg>
