<?xml version="1.0" encoding="UTF-8" standalone="no"?>
<!DOCTYPE svg PUBLIC "-//W3C//DTD SVG 1.1//EN"
 "http://www.w3.org/Graphics/SVG/1.1/DTD/svg11.dtd">
<!-- Generated by graphviz version 2.36.0 (20140111.2315)
 -->
<!-- Title: viewcontroller.commands.CommandWindowViewController.CommandWindowViewController Pages: 1 -->
<svg width="596pt" height="48pt"
 viewBox="0.00 0.00 596.00 48.00" xmlns="http://www.w3.org/2000/svg" xmlns:xlink="http://www.w3.org/1999/xlink">
<g id="graph0" class="graph" transform="scale(1 1) rotate(0) translate(4 44)">
<title>viewcontroller.commands.CommandWindowViewController.CommandWindowViewController</title>
<polygon fill="white" stroke="none" points="-4,4 -4,-44 592,-44 592,4 -4,4"/>
<!-- Node1 -->
<g id="node1" class="node"><title>Node1</title>
<polygon fill="#bfbfbf" stroke="black" points="0.5,0.5 0.5,-40.5 173.5,-40.5 173.5,0.5 0.5,0.5"/>
<text text-anchor="start" x="8.5" y="-28.5" font-family="Helvetica,sans-Serif" font-size="10.00">viewcontroller.commands.</text>
<text text-anchor="start" x="8.5" y="-17.5" font-family="Helvetica,sans-Serif" font-size="10.00">CommandWindowViewController.</text>
<text text-anchor="middle" x="87" y="-6.5" font-family="Helvetica,sans-Serif" font-size="10.00">CommandWindowViewController</text>
</g>
<!-- Node2 -->
<g id="node2" class="node"><title>Node2</title>
<g id="a_node2"><a xlink:href="../../d8/d68/classviewcontroller_1_1commands_1_1_command_window_view_controller.html#a8c3d3848cc68a50fc9e13b8a0e5cb679" target="_top" xlink:title="viewcontroller.commands.\lCommandWindowViewController.add\lStyleSheets">
<polygon fill="white" stroke="black" points="210.5,0.5 210.5,-40.5 401.5,-40.5 401.5,0.5 210.5,0.5"/>
<text text-anchor="start" x="218.5" y="-28.5" font-family="Helvetica,sans-Serif" font-size="10.00">viewcontroller.commands.</text>
<text text-anchor="start" x="218.5" y="-17.5" font-family="Helvetica,sans-Serif" font-size="10.00">CommandWindowViewController.add</text>
<text text-anchor="middle" x="306" y="-6.5" font-family="Helvetica,sans-Serif" font-size="10.00">StyleSheets</text>
</a>
</g>
</g>
<!-- Node1&#45;&gt;Node2 -->
<g id="edge1" class="edge"><title>Node1&#45;&gt;Node2</title>
<path fill="none" stroke="midnightblue" d="M173.764,-20C182.364,-20 191.164,-20 199.933,-20"/>
<polygon fill="midnightblue" stroke="midnightblue" points="200.2,-23.5001 210.2,-20 200.2,-16.5001 200.2,-23.5001"/>
</g>
<!-- Node3 -->
<g id="node3" class="node"><title>Node3</title>
<g id="a_node3"><a xlink:href="../../d9/dd7/classviewcontroller_1_1_g_u_i_reference_library.html#a9b2c4aa601b88bd828750feefddcc99c" target="_top" xlink:title="viewcontroller.GUIReference\lLibrary.getPath">
<polygon fill="white" stroke="black" points="438.5,-5 438.5,-35 587.5,-35 587.5,-5 438.5,-5"/>
<text text-anchor="start" x="446.5" y="-23" font-family="Helvetica,sans-Serif" font-size="10.00">viewcontroller.GUIReference</text>
<text text-anchor="middle" x="513" y="-12" font-family="Helvetica,sans-Serif" font-size="10.00">Library.getPath</text>
</a>
</g>
</g>
<!-- Node2&#45;&gt;Node3 -->
<g id="edge2" class="edge"><title>Node2&#45;&gt;Node3</title>
<path fill="none" stroke="midnightblue" d="M401.699,-20C410.521,-20 419.421,-20 428.135,-20"/>
<polygon fill="midnightblue" stroke="midnightblue" points="428.263,-23.5001 438.263,-20 428.263,-16.5001 428.263,-23.5001"/>
</g>
</g>
</svg>
