<?xml version="1.0" encoding="UTF-8" standalone="no"?>
<!DOCTYPE svg PUBLIC "-//W3C//DTD SVG 1.1//EN"
 "http://www.w3.org/Graphics/SVG/1.1/DTD/svg11.dtd">
<!-- Generated by graphviz version 2.36.0 (20140111.2315)
 -->
<!-- Title: viewcontroller.commands.CommandWindowViewController.setTitle Pages: 1 -->
<svg width="442pt" height="289pt"
 viewBox="0.00 0.00 442.00 289.00" xmlns="http://www.w3.org/2000/svg" xmlns:xlink="http://www.w3.org/1999/xlink">
<g id="graph0" class="graph" transform="scale(1 1) rotate(0) translate(4 285)">
<title>viewcontroller.commands.CommandWindowViewController.setTitle</title>
<polygon fill="white" stroke="none" points="-4,4 -4,-285 438,-285 438,4 -4,4"/>
<!-- Node1 -->
<g id="node1" class="node"><title>Node1</title>
<polygon fill="#bfbfbf" stroke="black" points="0.5,-125 0.5,-155 207.5,-155 207.5,-125 0.5,-125"/>
<text text-anchor="start" x="8.5" y="-143" font-family="Helvetica,sans-Serif" font-size="10.00">viewcontroller.commands.</text>
<text text-anchor="middle" x="104" y="-132" font-family="Helvetica,sans-Serif" font-size="10.00">CommandWindowViewController.setTitle</text>
</g>
<!-- Node2 -->
<g id="node2" class="node"><title>Node2</title>
<g id="a_node2"><a xlink:href="../../d3/d76/classviewcontroller_1_1commands_1_1_command_history_view_controller.html#a917d00668cf6b7386e39c033dac3ea85" target="_top" xlink:title="viewcontroller.commands.\lCommandHistoryViewController.\lCommandHistoryViewController">
<polygon fill="white" stroke="black" points="253.5,-239.5 253.5,-280.5 424.5,-280.5 424.5,-239.5 253.5,-239.5"/>
<text text-anchor="start" x="261.5" y="-268.5" font-family="Helvetica,sans-Serif" font-size="10.00">viewcontroller.commands.</text>
<text text-anchor="start" x="261.5" y="-257.5" font-family="Helvetica,sans-Serif" font-size="10.00">CommandHistoryViewController.</text>
<text text-anchor="middle" x="339" y="-246.5" font-family="Helvetica,sans-Serif" font-size="10.00">CommandHistoryViewController</text>
</a>
</g>
</g>
<!-- Node1&#45;&gt;Node2 -->
<g id="edge1" class="edge"><title>Node1&#45;&gt;Node2</title>
<path fill="none" stroke="midnightblue" d="M133.525,-161.301C160.79,-180.909 203.606,-209.784 244,-229 251.914,-232.765 260.405,-236.26 268.93,-239.443"/>
<polygon fill="midnightblue" stroke="midnightblue" points="135.39,-158.33 125.243,-155.284 131.276,-163.993 135.39,-158.33"/>
</g>
<!-- Node3 -->
<g id="node3" class="node"><title>Node3</title>
<g id="a_node3"><a xlink:href="../../de/d8d/classviewcontroller_1_1commands_1_1_command_prompt_view_controller.html#a7e92ce4136e77a153ee6ef862f99052a" target="_top" xlink:title="viewcontroller.commands.\lCommandPromptViewController.\lCommandPromptViewController">
<polygon fill="white" stroke="black" points="252.5,-179.5 252.5,-220.5 425.5,-220.5 425.5,-179.5 252.5,-179.5"/>
<text text-anchor="start" x="260.5" y="-208.5" font-family="Helvetica,sans-Serif" font-size="10.00">viewcontroller.commands.</text>
<text text-anchor="start" x="260.5" y="-197.5" font-family="Helvetica,sans-Serif" font-size="10.00">CommandPromptViewController.</text>
<text text-anchor="middle" x="339" y="-186.5" font-family="Helvetica,sans-Serif" font-size="10.00">CommandPromptViewController</text>
</a>
</g>
</g>
<!-- Node1&#45;&gt;Node3 -->
<g id="edge2" class="edge"><title>Node1&#45;&gt;Node3</title>
<path fill="none" stroke="midnightblue" d="M173.481,-157.635C200.093,-164.487 230.757,-172.384 258.347,-179.489"/>
<polygon fill="midnightblue" stroke="midnightblue" points="174.052,-154.167 163.495,-155.063 172.306,-160.946 174.052,-154.167"/>
</g>
<!-- Node4 -->
<g id="node4" class="node"><title>Node4</title>
<g id="a_node4"><a xlink:href="../../da/d40/classviewcontroller_1_1commands_1_1_command_status_view_controller.html#ab706eb7ec2c4d7d3fa785d655fa83c2f" target="_top" xlink:title="viewcontroller.commands.\lCommandStatusViewController.\lCommandStatusViewController">
<polygon fill="white" stroke="black" points="254.5,-119.5 254.5,-160.5 423.5,-160.5 423.5,-119.5 254.5,-119.5"/>
<text text-anchor="start" x="262.5" y="-148.5" font-family="Helvetica,sans-Serif" font-size="10.00">viewcontroller.commands.</text>
<text text-anchor="start" x="262.5" y="-137.5" font-family="Helvetica,sans-Serif" font-size="10.00">CommandStatusViewController.</text>
<text text-anchor="middle" x="339" y="-126.5" font-family="Helvetica,sans-Serif" font-size="10.00">CommandStatusViewController</text>
</a>
</g>
</g>
<!-- Node1&#45;&gt;Node4 -->
<g id="edge3" class="edge"><title>Node1&#45;&gt;Node4</title>
<path fill="none" stroke="midnightblue" d="M217.829,-140C230.111,-140 242.448,-140 254.293,-140"/>
<polygon fill="midnightblue" stroke="midnightblue" points="217.536,-136.5 207.536,-140 217.536,-143.5 217.536,-136.5"/>
</g>
<!-- Node5 -->
<g id="node5" class="node"><title>Node5</title>
<g id="a_node5"><a xlink:href="../../de/d01/classviewcontroller_1_1commands_1_1_user_defined_methods_view_controller.html#a6a921839af31a0929e156cbedb2c5133" target="_top" xlink:title="viewcontroller.commands.\lUserDefinedMethodsViewController.\lUserDefinedMethodsViewController">
<polygon fill="white" stroke="black" points="245,-59.5 245,-100.5 433,-100.5 433,-59.5 245,-59.5"/>
<text text-anchor="start" x="253" y="-88.5" font-family="Helvetica,sans-Serif" font-size="10.00">viewcontroller.commands.</text>
<text text-anchor="start" x="253" y="-77.5" font-family="Helvetica,sans-Serif" font-size="10.00">UserDefinedMethodsViewController.</text>
<text text-anchor="middle" x="339" y="-66.5" font-family="Helvetica,sans-Serif" font-size="10.00">UserDefinedMethodsViewController</text>
</a>
</g>
</g>
<!-- Node1&#45;&gt;Node5 -->
<g id="edge4" class="edge"><title>Node1&#45;&gt;Node5</title>
<path fill="none" stroke="midnightblue" d="M173.481,-122.365C200.093,-115.513 230.757,-107.616 258.347,-100.511"/>
<polygon fill="midnightblue" stroke="midnightblue" points="172.306,-119.054 163.495,-124.937 174.052,-125.833 172.306,-119.054"/>
</g>
<!-- Node6 -->
<g id="node6" class="node"><title>Node6</title>
<g id="a_node6"><a xlink:href="../../d4/dc8/classviewcontroller_1_1commands_1_1_user_defined_variables_view_controller.html#a2788ecdf0550c165712b8e2585bb1a0b" target="_top" xlink:title="viewcontroller.commands.\lUserDefinedVariablesViewController.\lUserDefinedVariablesViewController">
<polygon fill="white" stroke="black" points="244,0.5 244,-40.5 434,-40.5 434,0.5 244,0.5"/>
<text text-anchor="start" x="252" y="-28.5" font-family="Helvetica,sans-Serif" font-size="10.00">viewcontroller.commands.</text>
<text text-anchor="start" x="252" y="-17.5" font-family="Helvetica,sans-Serif" font-size="10.00">UserDefinedVariablesViewController.</text>
<text text-anchor="middle" x="339" y="-6.5" font-family="Helvetica,sans-Serif" font-size="10.00">UserDefinedVariablesViewController</text>
</a>
</g>
</g>
<!-- Node1&#45;&gt;Node6 -->
<g id="edge5" class="edge"><title>Node1&#45;&gt;Node6</title>
<path fill="none" stroke="midnightblue" d="M132.975,-118.692C160.158,-98.7783 203.196,-69.2981 244,-50 251.201,-46.5944 258.887,-43.4362 266.645,-40.5478"/>
<polygon fill="midnightblue" stroke="midnightblue" points="130.684,-116.033 124.729,-124.796 134.849,-121.659 130.684,-116.033"/>
</g>
</g>
</svg>
