<?xml version="1.0" encoding="UTF-8" standalone="no"?>
<!DOCTYPE svg PUBLIC "-//W3C//DTD SVG 1.1//EN"
 "http://www.w3.org/Graphics/SVG/1.1/DTD/svg11.dtd">
<!-- Generated by graphviz version 2.36.0 (20140111.2315)
 -->
<!-- Title: viewcontroller.turtlegrid.SLogoLabeledContainer.addNode Pages: 1 -->
<svg width="406pt" height="87pt"
 viewBox="0.00 0.00 406.00 87.00" xmlns="http://www.w3.org/2000/svg" xmlns:xlink="http://www.w3.org/1999/xlink">
<g id="graph0" class="graph" transform="scale(1 1) rotate(0) translate(4 83)">
<title>viewcontroller.turtlegrid.SLogoLabeledContainer.addNode</title>
<polygon fill="white" stroke="none" points="-4,4 -4,-83 402,-83 402,4 -4,4"/>
<!-- Node1 -->
<g id="node1" class="node"><title>Node1</title>
<polygon fill="#bfbfbf" stroke="black" points="0,-24 0,-54 176,-54 176,-24 0,-24"/>
<text text-anchor="start" x="8" y="-42" font-family="Helvetica,sans-Serif" font-size="10.00">viewcontroller.turtlegrid.</text>
<text text-anchor="middle" x="88" y="-31" font-family="Helvetica,sans-Serif" font-size="10.00">SLogoLabeledContainer.addNode</text>
</g>
<!-- Node2 -->
<g id="node2" class="node"><title>Node2</title>
<g id="a_node2"><a xlink:href="../../db/dbf/classviewcontroller_1_1turtlegrid_1_1_s_logo_color_picker.html#a8d9b14306737c53021d4435a49d009dc" target="_top" xlink:title="viewcontroller.turtlegrid.\lSLogoColorPicker.SLogoColorPicker">
<polygon fill="white" stroke="black" points="212.5,-49 212.5,-79 397.5,-79 397.5,-49 212.5,-49"/>
<text text-anchor="start" x="220.5" y="-67" font-family="Helvetica,sans-Serif" font-size="10.00">viewcontroller.turtlegrid.</text>
<text text-anchor="middle" x="305" y="-56" font-family="Helvetica,sans-Serif" font-size="10.00">SLogoColorPicker.SLogoColorPicker</text>
</a>
</g>
</g>
<!-- Node1&#45;&gt;Node2 -->
<g id="edge1" class="edge"><title>Node1&#45;&gt;Node2</title>
<path fill="none" stroke="midnightblue" d="M186.225,-50.3052C194.863,-51.3096 203.59,-52.3244 212.181,-53.3234"/>
<polygon fill="midnightblue" stroke="midnightblue" points="186.476,-46.8109 176.139,-49.1324 185.668,-53.7641 186.476,-46.8109"/>
</g>
<!-- Node3 -->
<g id="node3" class="node"><title>Node3</title>
<g id="a_node3"><a xlink:href="../../d4/d7d/classviewcontroller_1_1turtlegrid_1_1_s_logo_slider.html#afae1a7377caffc80353a8390f61f1850" target="_top" xlink:title="viewcontroller.turtlegrid.\lSLogoSlider.SLogoSlider">
<polygon fill="white" stroke="black" points="238.5,-0 238.5,-30 371.5,-30 371.5,-0 238.5,-0"/>
<text text-anchor="start" x="246.5" y="-18" font-family="Helvetica,sans-Serif" font-size="10.00">viewcontroller.turtlegrid.</text>
<text text-anchor="middle" x="305" y="-7" font-family="Helvetica,sans-Serif" font-size="10.00">SLogoSlider.SLogoSlider</text>
</a>
</g>
</g>
<!-- Node1&#45;&gt;Node3 -->
<g id="edge2" class="edge"><title>Node1&#45;&gt;Node3</title>
<path fill="none" stroke="midnightblue" d="M186.407,-28.1267C203.942,-26.1693 221.838,-24.1716 238.207,-22.3443"/>
<polygon fill="midnightblue" stroke="midnightblue" points="185.689,-24.685 176.139,-29.2729 186.465,-31.6418 185.689,-24.685"/>
</g>
</g>
</svg>
