<?xml version="1.0" encoding="UTF-8" standalone="no"?>
<!DOCTYPE svg PUBLIC "-//W3C//DTD SVG 1.1//EN"
 "http://www.w3.org/Graphics/SVG/1.1/DTD/svg11.dtd">
<!-- Generated by graphviz version 2.36.0 (20140111.2315)
 -->
<!-- Title: interpreter.expression.userdefined.MakeUserInstruction.evaluate Pages: 1 -->
<svg width="410pt" height="185pt"
 viewBox="0.00 0.00 410.00 185.00" xmlns="http://www.w3.org/2000/svg" xmlns:xlink="http://www.w3.org/1999/xlink">
<g id="graph0" class="graph" transform="scale(1 1) rotate(0) translate(4 181)">
<title>interpreter.expression.userdefined.MakeUserInstruction.evaluate</title>
<polygon fill="white" stroke="none" points="-4,4 -4,-181 406,-181 406,4 -4,4"/>
<!-- Node1 -->
<g id="node1" class="node"><title>Node1</title>
<polygon fill="#bfbfbf" stroke="black" points="0,-73 0,-103 184,-103 184,-73 0,-73"/>
<text text-anchor="start" x="8" y="-91" font-family="Helvetica,sans-Serif" font-size="10.00">interpreter.expression.userdefined.</text>
<text text-anchor="middle" x="92" y="-80" font-family="Helvetica,sans-Serif" font-size="10.00">MakeUserInstruction.evaluate</text>
</g>
<!-- Node2 -->
<g id="node2" class="node"><title>Node2</title>
<g id="a_node2"><a xlink:href="../../da/dee/classmodel_1_1_user_defined_commands_model.html#a1ad7aee8eccad4edf52ea5ce9640705e" target="_top" xlink:title="model.UserDefinedCommands\lModel.containsCommand">
<polygon fill="white" stroke="black" points="229,-147 229,-177 393,-177 393,-147 229,-147"/>
<text text-anchor="start" x="237" y="-165" font-family="Helvetica,sans-Serif" font-size="10.00">model.UserDefinedCommands</text>
<text text-anchor="middle" x="311" y="-154" font-family="Helvetica,sans-Serif" font-size="10.00">Model.containsCommand</text>
</a>
</g>
</g>
<!-- Node1&#45;&gt;Node2 -->
<g id="edge1" class="edge"><title>Node1&#45;&gt;Node2</title>
<path fill="none" stroke="midnightblue" d="M129.339,-103.104C154.552,-113.315 189.038,-126.754 220,-137 227.361,-139.436 235.112,-141.834 242.85,-144.124"/>
<polygon fill="midnightblue" stroke="midnightblue" points="242.035,-147.531 252.615,-146.96 243.988,-140.809 242.035,-147.531"/>
</g>
<!-- Node3 -->
<g id="node3" class="node"><title>Node3</title>
<g id="a_node3"><a xlink:href="../../d5/d09/classinterpreter_1_1_command_reference_library.html#afac47365ec3bd14554561b2ffa576aba" target="_top" xlink:title="interpreter.CommandReference\lLibrary.getUserDefinedCommands">
<polygon fill="white" stroke="black" points="220.5,-98 220.5,-128 401.5,-128 401.5,-98 220.5,-98"/>
<text text-anchor="start" x="228.5" y="-116" font-family="Helvetica,sans-Serif" font-size="10.00">interpreter.CommandReference</text>
<text text-anchor="middle" x="311" y="-105" font-family="Helvetica,sans-Serif" font-size="10.00">Library.getUserDefinedCommands</text>
</a>
</g>
</g>
<!-- Node1&#45;&gt;Node3 -->
<g id="edge2" class="edge"><title>Node1&#45;&gt;Node3</title>
<path fill="none" stroke="midnightblue" d="M184.084,-98.4936C192.671,-99.4828 201.407,-100.489 210.069,-101.487"/>
<polygon fill="midnightblue" stroke="midnightblue" points="209.857,-104.986 220.192,-102.653 210.658,-98.0318 209.857,-104.986"/>
</g>
<!-- Node4 -->
<g id="node4" class="node"><title>Node4</title>
<g id="a_node4"><a xlink:href="../../da/dee/classmodel_1_1_user_defined_commands_model.html#ae9f9c736f880fc78be4f2e2af4212fa5" target="_top" xlink:title="model.UserDefinedCommands\lModel.putCommand">
<polygon fill="white" stroke="black" points="229,-49 229,-79 393,-79 393,-49 229,-49"/>
<text text-anchor="start" x="237" y="-67" font-family="Helvetica,sans-Serif" font-size="10.00">model.UserDefinedCommands</text>
<text text-anchor="middle" x="311" y="-56" font-family="Helvetica,sans-Serif" font-size="10.00">Model.putCommand</text>
</a>
</g>
</g>
<!-- Node1&#45;&gt;Node4 -->
<g id="edge3" class="edge"><title>Node1&#45;&gt;Node4</title>
<path fill="none" stroke="midnightblue" d="M184.084,-77.9262C195.567,-76.6562 207.317,-75.3567 218.801,-74.0865"/>
<polygon fill="midnightblue" stroke="midnightblue" points="219.257,-77.5575 228.811,-72.9794 218.487,-70.6 219.257,-77.5575"/>
</g>
<!-- Node5 -->
<g id="node5" class="node"><title>Node5</title>
<g id="a_node5"><a xlink:href="../../da/dee/classmodel_1_1_user_defined_commands_model.html#a9e019495018c314dcbd2a3778d09bc34" target="_top" xlink:title="model.UserDefinedCommands\lModel.setVariablesForCommand">
<polygon fill="white" stroke="black" points="225,-0 225,-30 397,-30 397,-0 225,-0"/>
<text text-anchor="start" x="233" y="-18" font-family="Helvetica,sans-Serif" font-size="10.00">model.UserDefinedCommands</text>
<text text-anchor="middle" x="311" y="-7" font-family="Helvetica,sans-Serif" font-size="10.00">Model.setVariablesForCommand</text>
</a>
</g>
</g>
<!-- Node1&#45;&gt;Node5 -->
<g id="edge4" class="edge"><title>Node1&#45;&gt;Node5</title>
<path fill="none" stroke="midnightblue" d="M130.194,-72.9263C155.344,-62.9857 189.42,-50.0033 220,-40 227.369,-37.5893 235.125,-35.2071 242.866,-32.9267"/>
<polygon fill="midnightblue" stroke="midnightblue" points="244.002,-36.2417 252.634,-30.0983 242.055,-29.518 244.002,-36.2417"/>
</g>
</g>
</svg>
