<?xml version="1.0" encoding="UTF-8" standalone="no"?>
<!DOCTYPE svg PUBLIC "-//W3C//DTD SVG 1.1//EN"
 "http://www.w3.org/Graphics/SVG/1.1/DTD/svg11.dtd">
<!-- Generated by graphviz version 2.36.0 (20140111.2315)
 -->
<!-- Title: interpreter.SLogoExpressionFactory Pages: 1 -->
<svg width="2090pt" height="628pt"
 viewBox="0.00 0.00 2090.00 628.32" xmlns="http://www.w3.org/2000/svg" xmlns:xlink="http://www.w3.org/1999/xlink">
<g id="graph0" class="graph" transform="scale(1 1) rotate(0) translate(4 624.322)">
<title>interpreter.SLogoExpressionFactory</title>
<polygon fill="white" stroke="none" points="-4,4 -4,-624.322 2086,-624.322 2086,4 -4,4"/>
<!-- Node1 -->
<g id="node1" class="node"><title>Node1</title>
<polygon fill="#bfbfbf" stroke="black" points="1026,-458.322 1026,-488.322 1178,-488.322 1178,-458.322 1026,-458.322"/>
<text text-anchor="start" x="1034" y="-476.322" font-family="Helvetica,sans-Serif" font-size="10.00">interpreter.SLogoExpression</text>
<text text-anchor="middle" x="1102" y="-465.322" font-family="Helvetica,sans-Serif" font-size="10.00">Factory</text>
</g>
<!-- Node24 -->
<g id="node24" class="node"><title>Node24</title>
<g id="a_node24"><a xlink:href="../../d3/da2/classinterpreter_1_1_parser.html" target="_top" xlink:title="interpreter.Parser">
<polygon fill="white" stroke="black" points="1406,-411.822 1406,-430.822 1506,-430.822 1506,-411.822 1406,-411.822"/>
<text text-anchor="middle" x="1456" y="-418.822" font-family="Helvetica,sans-Serif" font-size="10.00">interpreter.Parser</text>
</a>
</g>
</g>
<!-- Node1&#45;&gt;Node24 -->
<g id="edge29" class="edge"><title>Node1&#45;&gt;Node24</title>
<path fill="none" stroke="#9a32cd" stroke-dasharray="5,2" d="M1188.45,-465.779C1237.14,-460.898 1299.2,-453.698 1354,-444.322 1375.09,-440.713 1398.4,-435.489 1417.31,-430.932"/>
<polygon fill="#9a32cd" stroke="#9a32cd" points="1187.87,-462.319 1178.26,-466.785 1188.56,-469.285 1187.87,-462.319"/>
<text text-anchor="middle" x="1279" y="-467.322" font-family="Helvetica,sans-Serif" font-size="10.00"> myFactory</text>
</g>
<!-- Node2 -->
<g id="node2" class="node"><title>Node2</title>
<g id="a_node2"><a xlink:href="../../de/d21/classmodel_1_1_main_model.html" target="_top" xlink:title="model.MainModel">
<polygon fill="white" stroke="black" points="1980.5,-244.822 1980.5,-263.822 2081.5,-263.822 2081.5,-244.822 1980.5,-244.822"/>
<text text-anchor="middle" x="2031" y="-251.822" font-family="Helvetica,sans-Serif" font-size="10.00">model.MainModel</text>
</a>
</g>
</g>
<!-- Node2&#45;&gt;Node1 -->
<g id="edge1" class="edge"><title>Node2&#45;&gt;Node1</title>
<path fill="none" stroke="#9a32cd" stroke-dasharray="5,2" d="M2026.67,-274.037C2020.24,-305.495 2002.94,-366.526 1962,-396.322 1717.76,-574.077 1324.98,-519.483 1169.47,-488.362"/>
<polygon fill="#9a32cd" stroke="#9a32cd" points="2030.17,-274.372 2028.57,-263.898 2023.29,-273.081 2030.17,-274.372"/>
<text text-anchor="middle" x="1616" y="-523.322" font-family="Helvetica,sans-Serif" font-size="10.00"> myModel</text>
</g>
<!-- Node20 -->
<g id="node20" class="node"><title>Node20</title>
<g id="a_node20"><a xlink:href="../../d2/dc7/classinterpreter_1_1_interpreter.html" target="_top" xlink:title="interpreter.Interpreter">
<polygon fill="white" stroke="black" points="1698.5,-364.822 1698.5,-383.822 1819.5,-383.822 1819.5,-364.822 1698.5,-364.822"/>
<text text-anchor="middle" x="1759" y="-371.822" font-family="Helvetica,sans-Serif" font-size="10.00">interpreter.Interpreter</text>
</a>
</g>
</g>
<!-- Node2&#45;&gt;Node20 -->
<g id="edge23" class="edge"><title>Node2&#45;&gt;Node20</title>
<path fill="none" stroke="#9a32cd" stroke-dasharray="5,2" d="M2016.39,-271.909C2003.9,-286.732 1984.04,-307.248 1962,-318.322 1914.4,-342.238 1895.11,-324.322 1844,-339.322 1821.26,-345.995 1796.33,-356.865 1779.58,-364.722"/>
<polygon fill="#9a32cd" stroke="#9a32cd" points="2019.26,-273.922 2022.85,-263.953 2013.83,-269.509 2019.26,-273.922"/>
<text text-anchor="middle" x="1903" y="-342.322" font-family="Helvetica,sans-Serif" font-size="10.00"> myModel</text>
</g>
<!-- Node3 -->
<g id="node3" class="node"><title>Node3</title>
<g id="a_node3"><a xlink:href="../../da/dee/classmodel_1_1_user_defined_commands_model.html" target="_top" xlink:title="model.UserDefinedCommands\lModel">
<polygon fill="white" stroke="black" points="378,-351.322 378,-381.322 542,-381.322 542,-351.322 378,-351.322"/>
<text text-anchor="start" x="386" y="-369.322" font-family="Helvetica,sans-Serif" font-size="10.00">model.UserDefinedCommands</text>
<text text-anchor="middle" x="460" y="-358.322" font-family="Helvetica,sans-Serif" font-size="10.00">Model</text>
</a>
</g>
</g>
<!-- Node3&#45;&gt;Node2 -->
<g id="edge2" class="edge"><title>Node3&#45;&gt;Node2</title>
<path fill="none" stroke="#9a32cd" stroke-dasharray="5,2" d="M484.734,-344.263C511.094,-319.997 551.122,-283.932 560,-280.322 661.035,-239.244 695.933,-266.322 805,-266.322 805,-266.322 805,-266.322 1280,-266.322 1583.13,-266.322 1659.14,-271.998 1962,-259.322 1967.91,-259.074 1974.11,-258.733 1980.26,-258.343"/>
<polygon fill="#9a32cd" stroke="#9a32cd" points="482.344,-341.706 477.37,-351.061 487.092,-346.849 482.344,-341.706"/>
<text text-anchor="middle" x="1279" y="-269.322" font-family="Helvetica,sans-Serif" font-size="10.00"> myUserDefinedMethodsModel</text>
</g>
<!-- Node26 -->
<g id="node26" class="node"><title>Node26</title>
<g id="a_node26"><a xlink:href="../../d5/d09/classinterpreter_1_1_command_reference_library.html" target="_top" xlink:title="interpreter.CommandReference\lLibrary">
<polygon fill="white" stroke="black" points="722.5,-396.322 722.5,-426.322 889.5,-426.322 889.5,-396.322 722.5,-396.322"/>
<text text-anchor="start" x="730.5" y="-414.322" font-family="Helvetica,sans-Serif" font-size="10.00">interpreter.CommandReference</text>
<text text-anchor="middle" x="806" y="-403.322" font-family="Helvetica,sans-Serif" font-size="10.00">Library</text>
</a>
</g>
</g>
<!-- Node3&#45;&gt;Node26 -->
<g id="edge31" class="edge"><title>Node3&#45;&gt;Node26</title>
<path fill="none" stroke="#9a32cd" stroke-dasharray="5,2" d="M552.471,-367.07C598.263,-368.682 654.374,-372.538 704,-381.322 723.453,-384.765 744.468,-390.643 762.265,-396.287"/>
<polygon fill="#9a32cd" stroke="#9a32cd" points="552.374,-363.565 542.266,-366.741 552.148,-370.561 552.374,-363.565"/>
<text text-anchor="middle" x="632" y="-384.322" font-family="Helvetica,sans-Serif" font-size="10.00"> myDefinedCommands</text>
</g>
<!-- Node4 -->
<g id="node4" class="node"><title>Node4</title>
<polygon fill="white" stroke="#bfbfbf" points="60.5,-312.822 60.5,-331.822 131.5,-331.822 131.5,-312.822 60.5,-312.822"/>
<text text-anchor="middle" x="96" y="-319.822" font-family="Helvetica,sans-Serif" font-size="10.00">Serializable</text>
</g>
<!-- Node4&#45;&gt;Node3 -->
<g id="edge3" class="edge"><title>Node4&#45;&gt;Node3</title>
<path fill="none" stroke="midnightblue" d="M141.798,-327.767C200.63,-334.918 304.987,-347.602 377.88,-356.462"/>
<polygon fill="midnightblue" stroke="midnightblue" points="142.059,-324.273 131.71,-326.541 141.215,-331.222 142.059,-324.273"/>
</g>
<!-- Node10 -->
<g id="node10" class="node"><title>Node10</title>
<g id="a_node10"><a xlink:href="../../db/d84/classmodel_1_1_command_history_model.html" target="_top" xlink:title="model.CommandHistoryModel">
<polygon fill="white" stroke="black" points="379,-109.822 379,-128.822 541,-128.822 541,-109.822 379,-109.822"/>
<text text-anchor="middle" x="460" y="-116.822" font-family="Helvetica,sans-Serif" font-size="10.00">model.CommandHistoryModel</text>
</a>
</g>
</g>
<!-- Node4&#45;&gt;Node10 -->
<g id="edge10" class="edge"><title>Node4&#45;&gt;Node10</title>
<path fill="none" stroke="midnightblue" d="M123.002,-307.741C192.832,-268.582 383.119,-161.874 441.641,-129.056"/>
<polygon fill="midnightblue" stroke="midnightblue" points="120.985,-304.859 113.974,-312.803 124.409,-310.965 120.985,-304.859"/>
</g>
<!-- Node13 -->
<g id="node13" class="node"><title>Node13</title>
<g id="a_node13"><a xlink:href="../../df/d55/classmodel_1_1_user_defined_variables_model.html" target="_top" xlink:title="model.UserDefinedVariables\lModel">
<polygon fill="white" stroke="black" points="384,-584.322 384,-614.322 536,-614.322 536,-584.322 384,-584.322"/>
<text text-anchor="start" x="392" y="-602.322" font-family="Helvetica,sans-Serif" font-size="10.00">model.UserDefinedVariables</text>
<text text-anchor="middle" x="460" y="-591.322" font-family="Helvetica,sans-Serif" font-size="10.00">Model</text>
</a>
</g>
</g>
<!-- Node4&#45;&gt;Node13 -->
<g id="edge14" class="edge"><title>Node4&#45;&gt;Node13</title>
<path fill="none" stroke="midnightblue" d="M142.092,-321.363C159.724,-323.308 178.831,-328.646 192,-341.322 216.697,-365.095 186.827,-391.06 210,-416.322 257.503,-468.107 314.139,-413.077 360,-466.322 390.328,-501.533 348.256,-533.616 378,-569.322 383.087,-575.429 389.539,-580.293 396.574,-584.167"/>
<polygon fill="midnightblue" stroke="midnightblue" points="142.178,-317.859 131.938,-320.579 141.639,-324.838 142.178,-317.859"/>
</g>
<!-- Node5 -->
<g id="node5" class="node"><title>Node5</title>
<polygon fill="white" stroke="#bfbfbf" points="42.5,-400.322 42.5,-430.322 149.5,-430.322 149.5,-400.322 42.5,-400.322"/>
<text text-anchor="start" x="50.5" y="-418.322" font-family="Helvetica,sans-Serif" font-size="10.00">Map&lt; String, List&lt;</text>
<text text-anchor="middle" x="96" y="-407.322" font-family="Helvetica,sans-Serif" font-size="10.00"> String &gt; &gt;</text>
</g>
<!-- Node5&#45;&gt;Node3 -->
<g id="edge4" class="edge"><title>Node5&#45;&gt;Node3</title>
<path fill="none" stroke="#9a32cd" stroke-dasharray="5,2" d="M159.673,-407.61C212.99,-400.956 291.576,-390.927 360,-381.322 365.853,-380.5 371.898,-379.632 377.98,-378.745"/>
<polygon fill="#9a32cd" stroke="#9a32cd" points="159.18,-404.144 149.689,-408.853 160.045,-411.091 159.18,-404.144"/>
<text text-anchor="middle" x="285" y="-404.322" font-family="Helvetica,sans-Serif" font-size="10.00"> myDefinedCommandVariables</text>
</g>
<!-- Node6 -->
<g id="node6" class="node"><title>Node6</title>
<polygon fill="white" stroke="#bfbfbf" points="54,-533.822 54,-552.822 138,-552.822 138,-533.822 54,-533.822"/>
<text text-anchor="middle" x="96" y="-540.822" font-family="Helvetica,sans-Serif" font-size="10.00">Set&lt; String &gt;</text>
</g>
<!-- Node6&#45;&gt;Node3 -->
<g id="edge5" class="edge"><title>Node6&#45;&gt;Node3</title>
<path fill="none" stroke="#9a32cd" stroke-dasharray="5,2" d="M126.502,-529.286C175.239,-506.053 275.575,-458.021 360,-416.322 383.479,-404.725 409.952,-391.339 429.612,-381.337"/>
<polygon fill="#9a32cd" stroke="#9a32cd" points="124.709,-526.264 117.186,-533.725 127.72,-532.583 124.709,-526.264"/>
<text text-anchor="middle" x="285" y="-492.322" font-family="Helvetica,sans-Serif" font-size="10.00"> myCommands</text>
</g>
<!-- Node6&#45;&gt;Node13 -->
<g id="edge15" class="edge"><title>Node6&#45;&gt;Node13</title>
<path fill="none" stroke="#9a32cd" stroke-dasharray="5,2" d="M148.414,-551.275C209.93,-560.792 313.431,-576.803 383.899,-587.704"/>
<polygon fill="#9a32cd" stroke="#9a32cd" points="148.591,-547.761 138.174,-549.691 147.521,-554.679 148.591,-547.761"/>
<text text-anchor="middle" x="285" y="-586.322" font-family="Helvetica,sans-Serif" font-size="10.00"> myVariables</text>
</g>
<!-- Node6&#45;&gt;Node26 -->
<g id="edge34" class="edge"><title>Node6&#45;&gt;Node26</title>
<path fill="none" stroke="#9a32cd" stroke-dasharray="5,2" d="M148.286,-546.356C277.246,-553.056 611.335,-564.372 704,-508.322 717.305,-500.274 711.793,-490.052 722,-478.322 739.747,-457.925 764.248,-439.001 782.026,-426.504"/>
<polygon fill="#9a32cd" stroke="#9a32cd" points="148.441,-542.86 138.269,-545.824 148.069,-549.85 148.441,-542.86"/>
<text text-anchor="middle" x="460" y="-566.322" font-family="Helvetica,sans-Serif" font-size="10.00"> myCommandSet</text>
<text text-anchor="middle" x="460" y="-555.322" font-family="Helvetica,sans-Serif" font-size="10.00">myDirectorySet</text>
</g>
<!-- Node7 -->
<g id="node7" class="node"><title>Node7</title>
<polygon fill="white" stroke="#bfbfbf" points="0.5,-351.322 0.5,-381.322 191.5,-381.322 191.5,-351.322 0.5,-351.322"/>
<text text-anchor="start" x="8.5" y="-369.322" font-family="Helvetica,sans-Serif" font-size="10.00">Map&lt; String, interpreter.expression.</text>
<text text-anchor="middle" x="96" y="-358.322" font-family="Helvetica,sans-Serif" font-size="10.00">SLogoExpression &gt;</text>
</g>
<!-- Node7&#45;&gt;Node3 -->
<g id="edge6" class="edge"><title>Node7&#45;&gt;Node3</title>
<path fill="none" stroke="#9a32cd" stroke-dasharray="5,2" d="M201.953,-366.322C257.97,-366.322 325.865,-366.322 377.806,-366.322"/>
<polygon fill="#9a32cd" stroke="#9a32cd" points="201.638,-362.822 191.638,-366.322 201.638,-369.822 201.638,-362.822"/>
<text text-anchor="middle" x="285" y="-369.322" font-family="Helvetica,sans-Serif" font-size="10.00"> myDefinedCommands</text>
</g>
<!-- Node8 -->
<g id="node8" class="node"><title>Node8</title>
<g id="a_node8"><a xlink:href="../../d4/d57/classturtle_1_1_turtle_list_history.html" target="_top" xlink:title="turtle.TurtleListHistory">
<polygon fill="white" stroke="black" points="1698.5,-301.822 1698.5,-320.822 1819.5,-320.822 1819.5,-301.822 1698.5,-301.822"/>
<text text-anchor="middle" x="1759" y="-308.822" font-family="Helvetica,sans-Serif" font-size="10.00">turtle.TurtleListHistory</text>
</a>
</g>
</g>
<!-- Node8&#45;&gt;Node2 -->
<g id="edge7" class="edge"><title>Node8&#45;&gt;Node2</title>
<path fill="none" stroke="#9a32cd" stroke-dasharray="5,2" d="M1829.71,-306.887C1869.09,-303.174 1918.92,-296.439 1962,-284.322 1979.64,-279.361 1998.63,-270.673 2012.05,-263.919"/>
<polygon fill="#9a32cd" stroke="#9a32cd" points="1829.32,-303.408 1819.67,-307.789 1829.95,-310.38 1829.32,-303.408"/>
<text text-anchor="middle" x="1903" y="-308.322" font-family="Helvetica,sans-Serif" font-size="10.00"> myTurtleListHistory</text>
</g>
<!-- Node9 -->
<g id="node9" class="node"><title>Node9</title>
<polygon fill="white" stroke="#bfbfbf" points="1381.5,-294.822 1381.5,-313.822 1530.5,-313.822 1530.5,-294.822 1381.5,-294.822"/>
<text text-anchor="middle" x="1456" y="-301.822" font-family="Helvetica,sans-Serif" font-size="10.00">List&lt; Set&lt; turtle.Turtle &gt; &gt;</text>
</g>
<!-- Node9&#45;&gt;Node8 -->
<g id="edge8" class="edge"><title>Node9&#45;&gt;Node8</title>
<path fill="none" stroke="#9a32cd" stroke-dasharray="5,2" d="M1540.79,-306.271C1590.83,-307.434 1653.2,-308.885 1698.25,-309.932"/>
<polygon fill="#9a32cd" stroke="#9a32cd" points="1540.71,-302.768 1530.63,-306.034 1540.55,-309.766 1540.71,-302.768"/>
<text text-anchor="middle" x="1616" y="-312.322" font-family="Helvetica,sans-Serif" font-size="10.00"> myMovedTurtlesHistory</text>
</g>
<!-- Node10&#45;&gt;Node2 -->
<g id="edge9" class="edge"><title>Node10&#45;&gt;Node2</title>
<path fill="none" stroke="#9a32cd" stroke-dasharray="5,2" d="M512.177,-107.66C579.105,-93.4526 700.181,-71.322 805,-71.322 805,-71.322 805,-71.322 1760,-71.322 1850.58,-71.322 1889.69,-43.7734 1962,-98.322 2011.53,-135.687 2025.56,-216.724 2029,-244.641"/>
<polygon fill="#9a32cd" stroke="#9a32cd" points="511.349,-104.258 502.308,-109.781 512.82,-111.102 511.349,-104.258"/>
<text text-anchor="middle" x="1279" y="-74.322" font-family="Helvetica,sans-Serif" font-size="10.00"> myCommandHistoryModel</text>
</g>
<!-- Node11 -->
<g id="node11" class="node"><title>Node11</title>
<polygon fill="white" stroke="#bfbfbf" points="54,-109.822 54,-128.822 138,-128.822 138,-109.822 54,-109.822"/>
<text text-anchor="middle" x="96" y="-116.822" font-family="Helvetica,sans-Serif" font-size="10.00">List&lt; String &gt;</text>
</g>
<!-- Node11&#45;&gt;Node10 -->
<g id="edge11" class="edge"><title>Node11&#45;&gt;Node10</title>
<path fill="none" stroke="#9a32cd" stroke-dasharray="5,2" d="M148.182,-119.322C208.257,-119.322 308.603,-119.322 378.986,-119.322"/>
<polygon fill="#9a32cd" stroke="#9a32cd" points="148.174,-115.822 138.174,-119.322 148.174,-122.822 148.174,-115.822"/>
<text text-anchor="middle" x="285" y="-122.322" font-family="Helvetica,sans-Serif" font-size="10.00"> commandHistory</text>
</g>
<!-- Node12 -->
<g id="node12" class="node"><title>Node12</title>
<polygon fill="white" stroke="#bfbfbf" points="1711.5,-225.822 1711.5,-244.822 1806.5,-244.822 1806.5,-225.822 1711.5,-225.822"/>
<text text-anchor="middle" x="1759" y="-232.822" font-family="Helvetica,sans-Serif" font-size="10.00">ParallelTransition</text>
</g>
<!-- Node12&#45;&gt;Node2 -->
<g id="edge12" class="edge"><title>Node12&#45;&gt;Node2</title>
<path fill="none" stroke="#9a32cd" stroke-dasharray="5,2" d="M1816.77,-238.614C1857.27,-241.051 1913,-244.584 1962,-248.322 1967.91,-248.773 1974.1,-249.276 1980.25,-249.795"/>
<polygon fill="#9a32cd" stroke="#9a32cd" points="1816.75,-235.107 1806.56,-238.004 1816.33,-242.094 1816.75,-235.107"/>
<text text-anchor="middle" x="1903" y="-251.322" font-family="Helvetica,sans-Serif" font-size="10.00"> myAnimation</text>
</g>
<!-- Node13&#45;&gt;Node2 -->
<g id="edge13" class="edge"><title>Node13&#45;&gt;Node2</title>
<path fill="none" stroke="#9a32cd" stroke-dasharray="5,2" d="M546.195,-600.478C615.808,-601.323 716.766,-602.322 805,-602.322 805,-602.322 805,-602.322 1760,-602.322 1874.53,-602.322 1895.08,-535.269 1962,-442.322 2004.79,-382.888 2023.24,-293.712 2028.4,-264.197"/>
<polygon fill="#9a32cd" stroke="#9a32cd" points="546.199,-596.978 536.157,-600.354 546.113,-603.977 546.199,-596.978"/>
<text text-anchor="middle" x="1279" y="-605.322" font-family="Helvetica,sans-Serif" font-size="10.00"> myUserDefinedVariablesModel</text>
</g>
<!-- Node13&#45;&gt;Node26 -->
<g id="edge35" class="edge"><title>Node13&#45;&gt;Node26</title>
<path fill="none" stroke="#9a32cd" stroke-dasharray="5,2" d="M535.959,-582.165C544.06,-580.46 552.192,-578.812 560,-577.322 591.831,-571.249 680.937,-577.087 704,-554.322 737.385,-521.368 693.557,-487.624 722,-450.322 729.916,-439.94 741.277,-432.208 753.063,-426.493"/>
<polygon fill="#9a32cd" stroke="#9a32cd" points="535.168,-578.755 526.119,-584.266 536.629,-585.601 535.168,-578.755"/>
<text text-anchor="middle" x="632" y="-580.322" font-family="Helvetica,sans-Serif" font-size="10.00"> myDefinedVariables</text>
</g>
<!-- Node14 -->
<g id="node14" class="node"><title>Node14</title>
<polygon fill="white" stroke="#bfbfbf" points="32,-600.822 32,-619.822 160,-619.822 160,-600.822 32,-600.822"/>
<text text-anchor="middle" x="96" y="-607.822" font-family="Helvetica,sans-Serif" font-size="10.00">Map&lt; String, Double &gt;</text>
</g>
<!-- Node14&#45;&gt;Node13 -->
<g id="edge16" class="edge"><title>Node14&#45;&gt;Node13</title>
<path fill="none" stroke="#9a32cd" stroke-dasharray="5,2" d="M170.176,-608.098C232.316,-606.21 321.135,-603.511 383.835,-601.606"/>
<polygon fill="#9a32cd" stroke="#9a32cd" points="169.945,-604.604 160.056,-608.406 170.157,-611.6 169.945,-604.604"/>
<text text-anchor="middle" x="285" y="-609.322" font-family="Helvetica,sans-Serif" font-size="10.00"> myDefinedVariables</text>
</g>
<!-- Node15 -->
<g id="node15" class="node"><title>Node15</title>
<polygon fill="white" stroke="#bfbfbf" points="1692,-138.322 1692,-168.322 1826,-168.322 1826,-138.322 1692,-138.322"/>
<text text-anchor="start" x="1700" y="-156.322" font-family="Helvetica,sans-Serif" font-size="10.00">List&lt; viewcontroller.Main</text>
<text text-anchor="middle" x="1759" y="-145.322" font-family="Helvetica,sans-Serif" font-size="10.00">ModelObserver &gt;</text>
</g>
<!-- Node15&#45;&gt;Node2 -->
<g id="edge17" class="edge"><title>Node15&#45;&gt;Node2</title>
<path fill="none" stroke="#9a32cd" stroke-dasharray="5,2" d="M1836.53,-146.987C1876.07,-146.958 1923.9,-152.187 1962,-172.322 1993.4,-188.912 2015.95,-226.742 2025.26,-244.62"/>
<polygon fill="#9a32cd" stroke="#9a32cd" points="1836.36,-143.488 1826.4,-147.107 1836.44,-150.488 1836.36,-143.488"/>
<text text-anchor="middle" x="1903" y="-175.322" font-family="Helvetica,sans-Serif" font-size="10.00"> myObservers</text>
</g>
<!-- Node16 -->
<g id="node16" class="node"><title>Node16</title>
<polygon fill="white" stroke="#bfbfbf" points="1704,-99.822 1704,-118.822 1814,-118.822 1814,-99.822 1704,-99.822"/>
<text text-anchor="middle" x="1759" y="-106.822" font-family="Helvetica,sans-Serif" font-size="10.00">List&lt; turtle.Turtle &gt;</text>
</g>
<!-- Node16&#45;&gt;Node2 -->
<g id="edge18" class="edge"><title>Node16&#45;&gt;Node2</title>
<path fill="none" stroke="#9a32cd" stroke-dasharray="5,2" d="M1824.54,-102.219C1866.96,-100.823 1921.84,-105.559 1962,-132.322 2003.16,-159.755 2021.9,-220.938 2027.82,-244.661"/>
<polygon fill="#9a32cd" stroke="#9a32cd" points="1824.14,-98.7333 1814.31,-102.681 1824.46,-105.726 1824.14,-98.7333"/>
<text text-anchor="middle" x="1903" y="-135.322" font-family="Helvetica,sans-Serif" font-size="10.00"> myTurtles</text>
</g>
<!-- Node17 -->
<g id="node17" class="node"><title>Node17</title>
<g id="a_node17"><a xlink:href="../../df/df6/classinterpreter_1_1result_1_1_s_logo_result.html" target="_top" xlink:title="interpreter.result.SLogo\lResult">
<polygon fill="white" stroke="black" points="741,-189.322 741,-219.322 871,-219.322 871,-189.322 741,-189.322"/>
<text text-anchor="start" x="749" y="-207.322" font-family="Helvetica,sans-Serif" font-size="10.00">interpreter.result.SLogo</text>
<text text-anchor="middle" x="806" y="-196.322" font-family="Helvetica,sans-Serif" font-size="10.00">Result</text>
</a>
</g>
</g>
<!-- Node17&#45;&gt;Node2 -->
<g id="edge19" class="edge"><title>Node17&#45;&gt;Node2</title>
<path fill="none" stroke="#9a32cd" stroke-dasharray="5,2" d="M881.27,-201.576C940.704,-199.615 1026.19,-197.322 1101,-197.322 1101,-197.322 1101,-197.322 1760,-197.322 1850.79,-197.322 1955.11,-228.555 2003.19,-244.781"/>
<polygon fill="#9a32cd" stroke="#9a32cd" points="881.101,-198.08 871.224,-201.913 881.336,-205.076 881.101,-198.08"/>
<text text-anchor="middle" x="1456" y="-200.322" font-family="Helvetica,sans-Serif" font-size="10.00"> mySLogoResult</text>
</g>
<!-- Node18 -->
<g id="node18" class="node"><title>Node18</title>
<polygon fill="white" stroke="#bfbfbf" points="413.5,-264.822 413.5,-283.822 506.5,-283.822 506.5,-264.822 413.5,-264.822"/>
<text text-anchor="middle" x="460" y="-271.822" font-family="Helvetica,sans-Serif" font-size="10.00">ResourceBundle</text>
</g>
<!-- Node18&#45;&gt;Node17 -->
<g id="edge20" class="edge"><title>Node18&#45;&gt;Node17</title>
<path fill="none" stroke="#9a32cd" stroke-dasharray="5,2" d="M495.507,-261.196C514.34,-254.446 538.199,-246.56 560,-241.322 593.304,-233.319 679.981,-220.955 740.74,-212.753"/>
<polygon fill="#9a32cd" stroke="#9a32cd" points="494.079,-257.991 485.882,-264.703 496.476,-264.568 494.079,-257.991"/>
<text text-anchor="middle" x="632" y="-244.322" font-family="Helvetica,sans-Serif" font-size="10.00"> myProperties</text>
</g>
<!-- Node18&#45;&gt;Node26 -->
<g id="edge32" class="edge"><title>Node18&#45;&gt;Node26</title>
<path fill="none" stroke="#9a32cd" stroke-dasharray="5,2" d="M516.829,-270.354C570.678,-269.569 651.531,-276.801 704,-320.322 720.898,-334.338 707.466,-349.867 722,-366.322 733.394,-379.222 749.404,-389.11 764.327,-396.287"/>
<polygon fill="#9a32cd" stroke="#9a32cd" points="516.68,-266.856 506.768,-270.598 516.85,-273.854 516.68,-266.856"/>
<text text-anchor="middle" x="632" y="-356.322" font-family="Helvetica,sans-Serif" font-size="10.00"> myCommandReference</text>
<text text-anchor="middle" x="632" y="-345.322" font-family="Helvetica,sans-Serif" font-size="10.00">myDirectoryListing</text>
<text text-anchor="middle" x="632" y="-334.322" font-family="Helvetica,sans-Serif" font-size="10.00">myNumberArguments</text>
<text text-anchor="middle" x="632" y="-323.322" font-family="Helvetica,sans-Serif" font-size="10.00">mySyntaxReference</text>
</g>
<!-- Node19 -->
<g id="node19" class="node"><title>Node19</title>
<polygon fill="white" stroke="#bfbfbf" points="379,-189.322 379,-219.322 541,-219.322 541,-189.322 379,-189.322"/>
<text text-anchor="start" x="387" y="-207.322" font-family="Helvetica,sans-Serif" font-size="10.00">List&lt; transitionstate.Transition</text>
<text text-anchor="middle" x="460" y="-196.322" font-family="Helvetica,sans-Serif" font-size="10.00">State &gt;</text>
</g>
<!-- Node19&#45;&gt;Node17 -->
<g id="edge21" class="edge"><title>Node19&#45;&gt;Node17</title>
<path fill="none" stroke="#9a32cd" stroke-dasharray="5,2" d="M551.372,-204.322C610.9,-204.322 687.412,-204.322 740.761,-204.322"/>
<polygon fill="#9a32cd" stroke="#9a32cd" points="551.219,-200.822 541.219,-204.322 551.219,-207.822 551.219,-200.822"/>
<text text-anchor="middle" x="632" y="-207.322" font-family="Helvetica,sans-Serif" font-size="10.00"> myTransitionStates</text>
</g>
<!-- Node20&#45;&gt;Node2 -->
<g id="edge22" class="edge"><title>Node20&#45;&gt;Node2</title>
<path fill="none" stroke="#9a32cd" stroke-dasharray="5,2" d="M1830,-380.61C1871.12,-381.062 1922.58,-375.753 1962,-352.322 1997.25,-331.37 2018.65,-284.204 2026.54,-263.907"/>
<polygon fill="#9a32cd" stroke="#9a32cd" points="1829.86,-377.106 1819.78,-380.379 1829.7,-384.105 1829.86,-377.106"/>
<text text-anchor="middle" x="1903" y="-384.322" font-family="Helvetica,sans-Serif" font-size="10.00"> myInterpreter</text>
</g>
<!-- Node21 -->
<g id="node21" class="node"><title>Node21</title>
<g id="a_node21"><a xlink:href="../../da/de4/classinterpreter_1_1_expression_evaluator.html" target="_top" xlink:title="interpreter.ExpressionEvaluator">
<polygon fill="white" stroke="black" points="1372.5,-332.822 1372.5,-351.822 1539.5,-351.822 1539.5,-332.822 1372.5,-332.822"/>
<text text-anchor="middle" x="1456" y="-339.822" font-family="Helvetica,sans-Serif" font-size="10.00">interpreter.ExpressionEvaluator</text>
</a>
</g>
</g>
<!-- Node21&#45;&gt;Node20 -->
<g id="edge24" class="edge"><title>Node21&#45;&gt;Node20</title>
<path fill="none" stroke="#9a32cd" stroke-dasharray="5,2" d="M1549.92,-344.568C1588.45,-346.359 1633.53,-349.571 1674,-355.322 1689.84,-357.572 1707.11,-361.261 1721.85,-364.792"/>
<polygon fill="#9a32cd" stroke="#9a32cd" points="1549.9,-341.063 1539.75,-344.121 1549.59,-348.057 1549.9,-341.063"/>
<text text-anchor="middle" x="1616" y="-358.322" font-family="Helvetica,sans-Serif" font-size="10.00"> myEvaluator</text>
</g>
<!-- Node22 -->
<g id="node22" class="node"><title>Node22</title>
<g id="a_node22"><a xlink:href="../../d6/d76/classinterpreter_1_1_s_logo_result_merger.html" target="_top" xlink:title="interpreter.SLogoResultMerger">
<polygon fill="white" stroke="black" points="1021,-332.822 1021,-351.822 1183,-351.822 1183,-332.822 1021,-332.822"/>
<text text-anchor="middle" x="1102" y="-339.822" font-family="Helvetica,sans-Serif" font-size="10.00">interpreter.SLogoResultMerger</text>
</a>
</g>
</g>
<!-- Node22&#45;&gt;Node21 -->
<g id="edge25" class="edge"><title>Node22&#45;&gt;Node21</title>
<path fill="none" stroke="#9a32cd" stroke-dasharray="5,2" d="M1193.44,-342.322C1248.6,-342.322 1318.59,-342.322 1372.28,-342.322"/>
<polygon fill="#9a32cd" stroke="#9a32cd" points="1193.31,-338.822 1183.31,-342.322 1193.31,-345.822 1193.31,-338.822"/>
<text text-anchor="middle" x="1279" y="-345.322" font-family="Helvetica,sans-Serif" font-size="10.00"> myResultMerger</text>
</g>
<!-- Node23 -->
<g id="node23" class="node"><title>Node23</title>
<polygon fill="white" stroke="#bfbfbf" points="734.5,-327.322 734.5,-357.322 877.5,-357.322 877.5,-327.322 734.5,-327.322"/>
<text text-anchor="start" x="742.5" y="-345.322" font-family="Helvetica,sans-Serif" font-size="10.00">Deque&lt; interpreter.result.</text>
<text text-anchor="middle" x="806" y="-334.322" font-family="Helvetica,sans-Serif" font-size="10.00">SLogoResult &gt;</text>
</g>
<!-- Node23&#45;&gt;Node22 -->
<g id="edge26" class="edge"><title>Node23&#45;&gt;Node22</title>
<path fill="none" stroke="#9a32cd" stroke-dasharray="5,2" d="M887.857,-342.322C929.311,-342.322 979.63,-342.322 1020.97,-342.322"/>
<polygon fill="#9a32cd" stroke="#9a32cd" points="887.794,-338.822 877.794,-342.322 887.794,-345.822 887.794,-338.822"/>
<text text-anchor="middle" x="954" y="-345.322" font-family="Helvetica,sans-Serif" font-size="10.00"> myResultsToMerge</text>
</g>
<!-- Node24&#45;&gt;Node20 -->
<g id="edge27" class="edge"><title>Node24&#45;&gt;Node20</title>
<path fill="none" stroke="#9a32cd" stroke-dasharray="5,2" d="M1516.54,-415.696C1560.29,-411.13 1621.08,-403.884 1674,-394.322 1689.78,-391.47 1707.05,-387.508 1721.8,-383.862"/>
<polygon fill="#9a32cd" stroke="#9a32cd" points="1515.95,-412.239 1506.36,-416.743 1516.66,-419.202 1515.95,-412.239"/>
<text text-anchor="middle" x="1616" y="-414.322" font-family="Helvetica,sans-Serif" font-size="10.00"> myParser</text>
</g>
<!-- Node25 -->
<g id="node25" class="node"><title>Node25</title>
<polygon fill="white" stroke="#bfbfbf" points="1018.5,-409.322 1018.5,-439.322 1185.5,-439.322 1185.5,-409.322 1018.5,-409.322"/>
<text text-anchor="start" x="1026.5" y="-427.322" font-family="Helvetica,sans-Serif" font-size="10.00">Deque&lt; interpreter.expression.</text>
<text text-anchor="middle" x="1102" y="-416.322" font-family="Helvetica,sans-Serif" font-size="10.00">SLogoExpression &gt;</text>
</g>
<!-- Node25&#45;&gt;Node24 -->
<g id="edge28" class="edge"><title>Node25&#45;&gt;Node24</title>
<path fill="none" stroke="#9a32cd" stroke-dasharray="5,2" d="M1195.79,-422.428C1198.56,-422.39 1201.3,-422.354 1204,-422.322 1274.15,-421.488 1355.34,-421.307 1405.94,-421.288"/>
<polygon fill="#9a32cd" stroke="#9a32cd" points="1195.62,-418.93 1185.68,-422.578 1195.73,-425.929 1195.62,-418.93"/>
<text text-anchor="middle" x="1279" y="-436.322" font-family="Helvetica,sans-Serif" font-size="10.00"> myLoadedExpressions</text>
<text text-anchor="middle" x="1279" y="-425.322" font-family="Helvetica,sans-Serif" font-size="10.00">myParameterStack</text>
</g>
<!-- Node26&#45;&gt;Node1 -->
<g id="edge40" class="edge"><title>Node26&#45;&gt;Node1</title>
<path fill="none" stroke="#9a32cd" stroke-dasharray="5,2" d="M900.073,-427.37C931.863,-433.199 967.571,-440.132 1000,-447.322 1014.76,-450.595 1030.64,-454.498 1045.33,-458.273"/>
<polygon fill="#9a32cd" stroke="#9a32cd" points="900.363,-423.865 889.898,-425.517 899.109,-430.752 900.363,-423.865"/>
<text text-anchor="middle" x="954" y="-450.322" font-family="Helvetica,sans-Serif" font-size="10.00"> myLibrary</text>
</g>
<!-- Node26&#45;&gt;Node20 -->
<g id="edge30" class="edge"><title>Node26&#45;&gt;Node20</title>
<path fill="none" stroke="#9a32cd" stroke-dasharray="5,2" d="M899.859,-405.578C936.638,-403.424 979.303,-401.076 1018,-399.322 1270.65,-387.871 1572.05,-379.255 1698.03,-375.879"/>
<polygon fill="#9a32cd" stroke="#9a32cd" points="899.426,-402.097 889.65,-406.18 899.838,-409.085 899.426,-402.097"/>
<text text-anchor="middle" x="1279" y="-395.322" font-family="Helvetica,sans-Serif" font-size="10.00"> myLibrary</text>
</g>
<!-- Node27 -->
<g id="node27" class="node"><title>Node27</title>
<polygon fill="white" stroke="#bfbfbf" points="396,-424.822 396,-443.822 524,-443.822 524,-424.822 396,-424.822"/>
<text text-anchor="middle" x="460" y="-431.822" font-family="Helvetica,sans-Serif" font-size="10.00">Map&lt; String, Integer &gt;</text>
</g>
<!-- Node27&#45;&gt;Node1 -->
<g id="edge38" class="edge"><title>Node27&#45;&gt;Node1</title>
<path fill="none" stroke="#9a32cd" stroke-dasharray="5,2" d="M499.892,-447.434C513.543,-452.619 528.766,-459.077 542,-466.322 550.656,-471.061 550.61,-476.286 560,-479.322 603.039,-493.239 887.606,-482.815 1025.86,-476.802"/>
<polygon fill="#9a32cd" stroke="#9a32cd" points="500.874,-444.066 490.28,-443.891 498.453,-450.634 500.874,-444.066"/>
<text text-anchor="middle" x="806" y="-489.322" font-family="Helvetica,sans-Serif" font-size="10.00"> myCommandToNumArgsMap</text>
</g>
<!-- Node27&#45;&gt;Node26 -->
<g id="edge33" class="edge"><title>Node27&#45;&gt;Node26</title>
<path fill="none" stroke="#9a32cd" stroke-dasharray="5,2" d="M492.317,-421C511.474,-413.583 536.7,-405.103 560,-401.322 613.576,-392.628 674.558,-395.074 722.279,-399.721"/>
<polygon fill="#9a32cd" stroke="#9a32cd" points="490.891,-417.8 482.895,-424.751 493.48,-424.304 490.891,-417.8"/>
<text text-anchor="middle" x="632" y="-404.322" font-family="Helvetica,sans-Serif" font-size="10.00"> myCommandToNumArgsMap</text>
</g>
<!-- Node28 -->
<g id="node28" class="node"><title>Node28</title>
<polygon fill="white" stroke="#bfbfbf" points="399,-475.822 399,-494.822 521,-494.822 521,-475.822 399,-475.822"/>
<text text-anchor="middle" x="460" y="-482.822" font-family="Helvetica,sans-Serif" font-size="10.00">Map&lt; String, String &gt;</text>
</g>
<!-- Node28&#45;&gt;Node1 -->
<g id="edge39" class="edge"><title>Node28&#45;&gt;Node1</title>
<path fill="none" stroke="#9a32cd" stroke-dasharray="5,2" d="M511.161,-496.86C526.724,-499.923 543.993,-502.8 560,-504.322 725.77,-520.085 920.932,-499.232 1025.6,-484.86"/>
<polygon fill="#9a32cd" stroke="#9a32cd" points="511.708,-493.4 501.211,-494.833 510.31,-500.259 511.708,-493.4"/>
<text text-anchor="middle" x="806" y="-535.322" font-family="Helvetica,sans-Serif" font-size="10.00"> myReverseSyntaxMap</text>
<text text-anchor="middle" x="806" y="-524.322" font-family="Helvetica,sans-Serif" font-size="10.00">myCommandToDirectoryMap</text>
<text text-anchor="middle" x="806" y="-513.322" font-family="Helvetica,sans-Serif" font-size="10.00">myReferenceToCommandMap</text>
</g>
<!-- Node28&#45;&gt;Node26 -->
<g id="edge36" class="edge"><title>Node28&#45;&gt;Node26</title>
<path fill="none" stroke="#9a32cd" stroke-dasharray="5,2" d="M507.12,-473.167C523.744,-468.92 542.674,-464.24 560,-460.322 614.684,-447.957 676.602,-435.587 724.511,-426.37"/>
<polygon fill="#9a32cd" stroke="#9a32cd" points="505.915,-469.863 497.102,-475.744 507.659,-476.642 505.915,-469.863"/>
<text text-anchor="middle" x="632" y="-496.322" font-family="Helvetica,sans-Serif" font-size="10.00"> myReverseSyntaxMap</text>
<text text-anchor="middle" x="632" y="-485.322" font-family="Helvetica,sans-Serif" font-size="10.00">myCommandToDirectoryMap</text>
<text text-anchor="middle" x="632" y="-474.322" font-family="Helvetica,sans-Serif" font-size="10.00">mySyntaxMap</text>
<text text-anchor="middle" x="632" y="-463.322" font-family="Helvetica,sans-Serif" font-size="10.00">myReferenceToCommandMap</text>
</g>
<!-- Node29 -->
<g id="node29" class="node"><title>Node29</title>
<polygon fill="white" stroke="#bfbfbf" points="1738.5,-13.822 1738.5,-32.822 1779.5,-32.822 1779.5,-13.822 1738.5,-13.822"/>
<text text-anchor="middle" x="1759" y="-20.822" font-family="Helvetica,sans-Serif" font-size="10.00">Color</text>
</g>
<!-- Node29&#45;&gt;Node2 -->
<g id="edge37" class="edge"><title>Node29&#45;&gt;Node2</title>
<path fill="none" stroke="#9a32cd" stroke-dasharray="5,2" d="M1789.39,-13.5408C1832.03,-1.3441 1911.48,13.6167 1962,-24.322 1998.96,-52.0773 2022.95,-204.658 2028.68,-244.697"/>
<polygon fill="#9a32cd" stroke="#9a32cd" points="1788.2,-10.2435 1779.63,-16.4702 1790.21,-16.9481 1788.2,-10.2435"/>
<text text-anchor="middle" x="1903" y="-49.322" font-family="Helvetica,sans-Serif" font-size="10.00"> myBackgroundColor</text>
<text text-anchor="start" x="1844.5" y="-38.322" font-family="Helvetica,sans-Serif" font-size="10.00">DEFAULT_BACKGROUND</text>
<text text-anchor="middle" x="1903" y="-27.322" font-family="Helvetica,sans-Serif" font-size="10.00">_COLOR</text>
</g>
</g>
</svg>
