<?xml version="1.0" encoding="UTF-8" standalone="no"?>
<!DOCTYPE svg PUBLIC "-//W3C//DTD SVG 1.1//EN"
 "http://www.w3.org/Graphics/SVG/1.1/DTD/svg11.dtd">
<!-- Generated by graphviz version 2.36.0 (20140111.2315)
 -->
<!-- Title: /tmp/git/duke&#45;compsci308&#45;fall2014/slogo_team04/repository/src/interpreter Pages: 1 -->
<svg width="282pt" height="111pt"
 viewBox="0.00 0.00 282.00 111.00" xmlns="http://www.w3.org/2000/svg" xmlns:xlink="http://www.w3.org/1999/xlink">
<g id="graph0" class="graph" transform="scale(1 1) rotate(0) translate(4 107)">
<title>/tmp/git/duke&#45;compsci308&#45;fall2014/slogo_team04/repository/src/interpreter</title>
<polygon fill="white" stroke="none" points="-4,4 -4,-107 278,-107 278,4 -4,4"/>
<g id="clust1" class="cluster"><title>clusterdir_133048b663ccfd21dbd269e7927aff38</title>
<g id="a_clust1"><a xlink:href="dir_133048b663ccfd21dbd269e7927aff38.html" target="_top" xlink:title="src">
<polygon fill="#ddddee" stroke="black" points="8,-8 8,-95 266,-95 266,-8 8,-8"/>
<text text-anchor="middle" x="137" y="-83" font-family="Helvetica,sans-Serif" font-size="10.00">src</text>
</a>
</g>
</g>
<g id="clust2" class="cluster"><title>clusterdir_7e06a0b2b861a80fd55d5b5c2e1edd60</title>
<g id="a_clust2"><a xlink:href="dir_7e06a0b2b861a80fd55d5b5c2e1edd60.html" target="_top">
<polygon fill="#eeeeff" stroke="black" points="16,-16 16,-68 258,-68 258,-16 16,-16"/>
</a>
</g>
</g>
<!-- dir_7e06a0b2b861a80fd55d5b5c2e1edd60 -->
<g id="node1" class="node"><title>dir_7e06a0b2b861a80fd55d5b5c2e1edd60</title>
<text text-anchor="middle" x="216" y="-39.5" font-family="Helvetica,sans-Serif" font-size="10.00">interpreter</text>
</g>
<!-- dir_73d4e0ebf2219f02f937fd811621561f -->
<g id="node2" class="node"><title>dir_73d4e0ebf2219f02f937fd811621561f</title>
<g id="a_node2"><a xlink:href="dir_73d4e0ebf2219f02f937fd811621561f.html" target="_top" xlink:title="expression">
<polygon fill="white" stroke="red" points="164,-60 96,-60 96,-24 164,-24 164,-60"/>
<text text-anchor="middle" x="130" y="-39.5" font-family="Helvetica,sans-Serif" font-size="10.00">expression</text>
</a>
</g>
</g>
<!-- dir_14705efba002a9a4cbed14d3803a43d3 -->
<g id="node3" class="node"><title>dir_14705efba002a9a4cbed14d3803a43d3</title>
<g id="a_node3"><a xlink:href="dir_14705efba002a9a4cbed14d3803a43d3.html" target="_top" xlink:title="result">
<polygon fill="white" stroke="black" points="78,-60 24,-60 24,-24 78,-24 78,-60"/>
<text text-anchor="middle" x="51" y="-39.5" font-family="Helvetica,sans-Serif" font-size="10.00">result</text>
</a>
</g>
</g>
</g>
</svg>
