<?xml version="1.0" encoding="UTF-8" standalone="no"?>
<!DOCTYPE svg PUBLIC "-//W3C//DTD SVG 1.1//EN"
 "http://www.w3.org/Graphics/SVG/1.1/DTD/svg11.dtd">
<!-- Generated by graphviz version 2.36.0 (20140111.2315)
 -->
<!-- Title: /tmp/git/duke&#45;compsci308&#45;fall2014/slogo_team04/repository/src Pages: 1 -->
<svg width="860pt" height="111pt"
 viewBox="0.00 0.00 860.00 111.00" xmlns="http://www.w3.org/2000/svg" xmlns:xlink="http://www.w3.org/1999/xlink">
<g id="graph0" class="graph" transform="scale(1 1) rotate(0) translate(4 107)">
<title>/tmp/git/duke&#45;compsci308&#45;fall2014/slogo_team04/repository/src</title>
<polygon fill="white" stroke="none" points="-4,4 -4,-107 856,-107 856,4 -4,4"/>
<g id="clust1" class="cluster"><title>clusterdir_0d0d7eda194e3afdabe5553e71c562a5</title>
<g id="a_clust1"><a xlink:href="dir_0d0d7eda194e3afdabe5553e71c562a5.html" target="_top" xlink:title="repository">
<polygon fill="#ddddee" stroke="black" points="8,-8 8,-95 844,-95 844,-8 8,-8"/>
<text text-anchor="middle" x="426" y="-83" font-family="Helvetica,sans-Serif" font-size="10.00">repository</text>
</a>
</g>
</g>
<g id="clust2" class="cluster"><title>clusterdir_133048b663ccfd21dbd269e7927aff38</title>
<g id="a_clust2"><a xlink:href="dir_133048b663ccfd21dbd269e7927aff38.html" target="_top">
<polygon fill="#eeeeff" stroke="black" points="16,-16 16,-68 836,-68 836,-16 16,-16"/>
</a>
</g>
</g>
<!-- dir_133048b663ccfd21dbd269e7927aff38 -->
<g id="node1" class="node"><title>dir_133048b663ccfd21dbd269e7927aff38</title>
<text text-anchor="middle" x="801" y="-39.5" font-family="Helvetica,sans-Serif" font-size="10.00">src</text>
</g>
<!-- dir_b6001c668dd708b6f2ba0a048e39a3c6 -->
<g id="node2" class="node"><title>dir_b6001c668dd708b6f2ba0a048e39a3c6</title>
<g id="a_node2"><a xlink:href="dir_b6001c668dd708b6f2ba0a048e39a3c6.html" target="_top" xlink:title="application">
<polygon fill="white" stroke="black" points="756,-60 688,-60 688,-24 756,-24 756,-60"/>
<text text-anchor="middle" x="722" y="-39.5" font-family="Helvetica,sans-Serif" font-size="10.00">application</text>
</a>
</g>
</g>
<!-- dir_fbe06ce78bbefe241efd37e4646c1793 -->
<g id="node3" class="node"><title>dir_fbe06ce78bbefe241efd37e4646c1793</title>
<g id="a_node3"><a xlink:href="dir_fbe06ce78bbefe241efd37e4646c1793.html" target="_top" xlink:title="exceptions">
<polygon fill="white" stroke="black" points="670,-60 602,-60 602,-24 670,-24 670,-60"/>
<text text-anchor="middle" x="636" y="-39.5" font-family="Helvetica,sans-Serif" font-size="10.00">exceptions</text>
</a>
</g>
</g>
<!-- dir_7e06a0b2b861a80fd55d5b5c2e1edd60 -->
<g id="node4" class="node"><title>dir_7e06a0b2b861a80fd55d5b5c2e1edd60</title>
<g id="a_node4"><a xlink:href="dir_7e06a0b2b861a80fd55d5b5c2e1edd60.html" target="_top" xlink:title="interpreter">
<polygon fill="white" stroke="red" points="584,-60 516,-60 516,-24 584,-24 584,-60"/>
<text text-anchor="middle" x="550" y="-39.5" font-family="Helvetica,sans-Serif" font-size="10.00">interpreter</text>
</a>
</g>
</g>
<!-- dir_f15e8af6c8da985556889b36770d9c7c -->
<g id="node5" class="node"><title>dir_f15e8af6c8da985556889b36770d9c7c</title>
<g id="a_node5"><a xlink:href="dir_f15e8af6c8da985556889b36770d9c7c.html" target="_top" xlink:title="model">
<polygon fill="white" stroke="black" points="498,-60 444,-60 444,-24 498,-24 498,-60"/>
<text text-anchor="middle" x="471" y="-39.5" font-family="Helvetica,sans-Serif" font-size="10.00">model</text>
</a>
</g>
</g>
<!-- dir_0adcee1af17a27cc67352122dc7bf616 -->
<g id="node6" class="node"><title>dir_0adcee1af17a27cc67352122dc7bf616</title>
<g id="a_node6"><a xlink:href="dir_0adcee1af17a27cc67352122dc7bf616.html" target="_top" xlink:title="test">
<polygon fill="white" stroke="black" points="426,-60 372,-60 372,-24 426,-24 426,-60"/>
<text text-anchor="middle" x="399" y="-39.5" font-family="Helvetica,sans-Serif" font-size="10.00">test</text>
</a>
</g>
</g>
<!-- dir_981a1b5b9236d4296a50a94172dd90fa -->
<g id="node7" class="node"><title>dir_981a1b5b9236d4296a50a94172dd90fa</title>
<g id="a_node7"><a xlink:href="dir_981a1b5b9236d4296a50a94172dd90fa.html" target="_top" xlink:title="transitionstate">
<polygon fill="white" stroke="black" points="354,-60 268,-60 268,-24 354,-24 354,-60"/>
<text text-anchor="middle" x="311" y="-39.5" font-family="Helvetica,sans-Serif" font-size="10.00">transitionstate</text>
</a>
</g>
</g>
<!-- dir_3146e53f601ca4e086cd452691523f4a -->
<g id="node8" class="node"><title>dir_3146e53f601ca4e086cd452691523f4a</title>
<g id="a_node8"><a xlink:href="dir_3146e53f601ca4e086cd452691523f4a.html" target="_top" xlink:title="turtle">
<polygon fill="white" stroke="red" points="250,-60 196,-60 196,-24 250,-24 250,-60"/>
<text text-anchor="middle" x="223" y="-39.5" font-family="Helvetica,sans-Serif" font-size="10.00">turtle</text>
</a>
</g>
</g>
<!-- dir_98b6d4fcab2200e8697a81050d34a82c -->
<g id="node9" class="node"><title>dir_98b6d4fcab2200e8697a81050d34a82c</title>
<g id="a_node9"><a xlink:href="dir_98b6d4fcab2200e8697a81050d34a82c.html" target="_top" xlink:title="unittest">
<polygon fill="white" stroke="black" points="178,-60 124,-60 124,-24 178,-24 178,-60"/>
<text text-anchor="middle" x="151" y="-39.5" font-family="Helvetica,sans-Serif" font-size="10.00">unittest</text>
</a>
</g>
</g>
<!-- dir_f5da1b6447d03afab31d3f413aba6fc6 -->
<g id="node10" class="node"><title>dir_f5da1b6447d03afab31d3f413aba6fc6</title>
<g id="a_node10"><a xlink:href="dir_f5da1b6447d03afab31d3f413aba6fc6.html" target="_top" xlink:title="viewcontroller">
<polygon fill="white" stroke="red" points="106,-60 24,-60 24,-24 106,-24 106,-60"/>
<text text-anchor="middle" x="65" y="-39.5" font-family="Helvetica,sans-Serif" font-size="10.00">viewcontroller</text>
</a>
</g>
</g>
</g>
</svg>
