<?xml version="1.0" encoding="UTF-8" standalone="no"?>
<!DOCTYPE svg PUBLIC "-//W3C//DTD SVG 1.1//EN"
 "http://www.w3.org/Graphics/SVG/1.1/DTD/svg11.dtd">
<!-- Generated by graphviz version 2.36.0 (20140111.2315)
 -->
<!-- Title: Graphical Class Hierarchy Pages: 1 -->
<svg width="1066pt" height="486pt"
 viewBox="0.00 0.00 1066.00 486.00" xmlns="http://www.w3.org/2000/svg" xmlns:xlink="http://www.w3.org/1999/xlink">
<g id="graph0" class="graph" transform="scale(1 1) rotate(0) translate(4 482)">
<title>Graphical Class Hierarchy</title>
<polygon fill="white" stroke="none" points="-4,4 -4,-482 1062,-482 1062,4 -4,4"/>
<!-- Node1 -->
<g id="node1" class="node"><title>Node1</title>
<g id="a_node1"><a xlink:href="d1/d41/interfaceviewcontroller_1_1_main_model_observer.html" target="_top" xlink:title="viewcontroller.MainModel\lObserver">
<polygon fill="white" stroke="black" points="205.5,-278 205.5,-308 340.5,-308 340.5,-278 205.5,-278"/>
<text text-anchor="start" x="213.5" y="-296" font-family="Helvetica,sans-Serif" font-size="10.00">viewcontroller.MainModel</text>
<text text-anchor="middle" x="273" y="-285" font-family="Helvetica,sans-Serif" font-size="10.00">Observer</text>
</a>
</g>
</g>
<!-- Node2 -->
<g id="node2" class="node"><title>Node2</title>
<g id="a_node2"><a xlink:href="d3/d76/classviewcontroller_1_1commands_1_1_command_history_view_controller.html" target="_top" xlink:title="viewcontroller.commands.\lCommandHistoryViewController">
<polygon fill="white" stroke="black" points="880.5,-223 880.5,-253 1049.5,-253 1049.5,-223 880.5,-223"/>
<text text-anchor="start" x="888.5" y="-241" font-family="Helvetica,sans-Serif" font-size="10.00">viewcontroller.commands.</text>
<text text-anchor="middle" x="965" y="-230" font-family="Helvetica,sans-Serif" font-size="10.00">CommandHistoryViewController</text>
</a>
</g>
</g>
<!-- Node1&#45;&gt;Node2 -->
<g id="edge1" class="edge"><title>Node1&#45;&gt;Node2</title>
<path fill="none" stroke="midnightblue" d="M350.865,-295.853C459.587,-298.625 664.193,-299.185 836,-273 864.013,-268.731 894.656,-260.484 918.935,-253.068"/>
<polygon fill="midnightblue" stroke="midnightblue" points="350.737,-292.349 340.647,-295.579 350.549,-299.346 350.737,-292.349"/>
</g>
<!-- Node3 -->
<g id="node3" class="node"><title>Node3</title>
<g id="a_node3"><a xlink:href="da/d40/classviewcontroller_1_1commands_1_1_command_status_view_controller.html" target="_top" xlink:title="viewcontroller.commands.\lCommandStatusViewController">
<polygon fill="white" stroke="black" points="419.5,-147 419.5,-177 586.5,-177 586.5,-147 419.5,-147"/>
<text text-anchor="start" x="427.5" y="-165" font-family="Helvetica,sans-Serif" font-size="10.00">viewcontroller.commands.</text>
<text text-anchor="middle" x="503" y="-154" font-family="Helvetica,sans-Serif" font-size="10.00">CommandStatusViewController</text>
</a>
</g>
</g>
<!-- Node1&#45;&gt;Node3 -->
<g id="edge2" class="edge"><title>Node1&#45;&gt;Node3</title>
<path fill="none" stroke="midnightblue" d="M293.047,-270.151C314.864,-245.524 352.932,-207.038 394,-186 401.949,-181.928 410.574,-178.543 419.366,-175.731"/>
<polygon fill="midnightblue" stroke="midnightblue" points="290.208,-268.082 286.29,-277.926 295.491,-272.674 290.208,-268.082"/>
</g>
<!-- Node4 -->
<g id="node4" class="node"><title>Node4</title>
<g id="a_node4"><a xlink:href="d0/d7c/classviewcontroller_1_1commands_1_1_command_window_container_view_controller.html" target="_top" xlink:title="viewcontroller.commands.\lCommandWindowContainerViewController">
<polygon fill="white" stroke="black" points="394.5,-448 394.5,-478 611.5,-478 611.5,-448 394.5,-448"/>
<text text-anchor="start" x="402.5" y="-466" font-family="Helvetica,sans-Serif" font-size="10.00">viewcontroller.commands.</text>
<text text-anchor="middle" x="503" y="-455" font-family="Helvetica,sans-Serif" font-size="10.00">CommandWindowContainerViewController</text>
</a>
</g>
</g>
<!-- Node1&#45;&gt;Node4 -->
<g id="edge3" class="edge"><title>Node1&#45;&gt;Node4</title>
<path fill="none" stroke="midnightblue" d="M287.018,-316.952C306.059,-349.607 344.664,-407.516 394,-438 400.303,-441.895 407.154,-445.184 414.243,-447.96"/>
<polygon fill="midnightblue" stroke="midnightblue" points="289.95,-315.027 281.96,-308.07 283.867,-318.492 289.95,-315.027"/>
</g>
<!-- Node5 -->
<g id="node5" class="node"><title>Node5</title>
<g id="a_node5"><a xlink:href="de/d01/classviewcontroller_1_1commands_1_1_user_defined_methods_view_controller.html" target="_top" xlink:title="viewcontroller.commands.\lUserDefinedMethodsViewController">
<polygon fill="white" stroke="black" points="872.5,-294 872.5,-324 1057.5,-324 1057.5,-294 872.5,-294"/>
<text text-anchor="start" x="880.5" y="-312" font-family="Helvetica,sans-Serif" font-size="10.00">viewcontroller.commands.</text>
<text text-anchor="middle" x="965" y="-301" font-family="Helvetica,sans-Serif" font-size="10.00">UserDefinedMethodsViewController</text>
</a>
</g>
</g>
<!-- Node1&#45;&gt;Node5 -->
<g id="edge4" class="edge"><title>Node1&#45;&gt;Node5</title>
<path fill="none" stroke="midnightblue" d="M350.841,-303.266C365.161,-304.809 380.016,-306.162 394,-307 562.423,-317.088 759.34,-314.626 872.088,-311.856"/>
<polygon fill="midnightblue" stroke="midnightblue" points="350.856,-299.746 340.529,-302.113 350.078,-306.702 350.856,-299.746"/>
</g>
<!-- Node6 -->
<g id="node6" class="node"><title>Node6</title>
<g id="a_node6"><a xlink:href="d4/dc8/classviewcontroller_1_1commands_1_1_user_defined_variables_view_controller.html" target="_top" xlink:title="viewcontroller.commands.\lUserDefinedVariablesViewController">
<polygon fill="white" stroke="black" points="648,-234 648,-264 836,-264 836,-234 648,-234"/>
<text text-anchor="start" x="656" y="-252" font-family="Helvetica,sans-Serif" font-size="10.00">viewcontroller.commands.</text>
<text text-anchor="middle" x="742" y="-241" font-family="Helvetica,sans-Serif" font-size="10.00">UserDefinedVariablesViewController</text>
</a>
</g>
</g>
<!-- Node1&#45;&gt;Node6 -->
<g id="edge5" class="edge"><title>Node1&#45;&gt;Node6</title>
<path fill="none" stroke="midnightblue" d="M350.918,-283.681C365.23,-282.045 380.063,-280.415 394,-279 479.876,-270.28 577.875,-261.957 647.776,-256.299"/>
<polygon fill="midnightblue" stroke="midnightblue" points="350.141,-280.247 340.608,-284.87 350.943,-287.201 350.141,-280.247"/>
</g>
<!-- Node7 -->
<g id="node7" class="node"><title>Node7</title>
<g id="a_node7"><a xlink:href="d3/d67/classviewcontroller_1_1_main_view_controller.html" target="_top" xlink:title="viewcontroller.MainViewController">
<polygon fill="white" stroke="black" points="415.5,-409.5 415.5,-428.5 590.5,-428.5 590.5,-409.5 415.5,-409.5"/>
<text text-anchor="middle" x="503" y="-416.5" font-family="Helvetica,sans-Serif" font-size="10.00">viewcontroller.MainViewController</text>
</a>
</g>
</g>
<!-- Node1&#45;&gt;Node7 -->
<g id="edge6" class="edge"><title>Node1&#45;&gt;Node7</title>
<path fill="none" stroke="midnightblue" d="M292.955,-315.905C314.692,-340.54 352.689,-378.875 394,-399 403,-403.384 412.851,-406.812 422.825,-409.49"/>
<polygon fill="midnightblue" stroke="midnightblue" points="295.414,-313.398 286.226,-308.122 290.119,-317.976 295.414,-313.398"/>
</g>
<!-- Node8 -->
<g id="node8" class="node"><title>Node8</title>
<g id="a_node8"><a xlink:href="d5/dcc/classviewcontroller_1_1turtlegrid_1_1_grid_view_controller.html" target="_top" xlink:title="viewcontroller.turtlegrid.\lGridViewController">
<polygon fill="white" stroke="black" points="437.5,-360 437.5,-390 568.5,-390 568.5,-360 437.5,-360"/>
<text text-anchor="start" x="445.5" y="-378" font-family="Helvetica,sans-Serif" font-size="10.00">viewcontroller.turtlegrid.</text>
<text text-anchor="middle" x="503" y="-367" font-family="Helvetica,sans-Serif" font-size="10.00">GridViewController</text>
</a>
</g>
</g>
<!-- Node1&#45;&gt;Node8 -->
<g id="edge7" class="edge"><title>Node1&#45;&gt;Node8</title>
<path fill="none" stroke="midnightblue" d="M314.473,-312.199C337.48,-322.69 367.002,-335.452 394,-345 409.411,-350.45 426.336,-355.554 442.123,-359.951"/>
<polygon fill="midnightblue" stroke="midnightblue" points="315.906,-309.006 305.358,-308.007 312.981,-315.365 315.906,-309.006"/>
</g>
<!-- Node9 -->
<g id="node9" class="node"><title>Node9</title>
<g id="a_node9"><a xlink:href="d5/d37/classviewcontroller_1_1turtlegrid_1_1_turtle_status_view_controller.html" target="_top" xlink:title="viewcontroller.turtlegrid.\lTurtleStatusViewController">
<polygon fill="white" stroke="black" points="432,-98 432,-128 574,-128 574,-98 432,-98"/>
<text text-anchor="start" x="440" y="-116" font-family="Helvetica,sans-Serif" font-size="10.00">viewcontroller.turtlegrid.</text>
<text text-anchor="middle" x="503" y="-105" font-family="Helvetica,sans-Serif" font-size="10.00">TurtleStatusViewController</text>
</a>
</g>
</g>
<!-- Node1&#45;&gt;Node9 -->
<g id="edge8" class="edge"><title>Node1&#45;&gt;Node9</title>
<path fill="none" stroke="midnightblue" d="M285.709,-268.69C303.838,-233.784 342.096,-170.041 394,-137 405.342,-129.78 418.556,-124.714 431.771,-121.164"/>
<polygon fill="midnightblue" stroke="midnightblue" points="282.531,-267.219 281.135,-277.721 288.776,-270.382 282.531,-267.219"/>
</g>
<!-- Node10 -->
<g id="node10" class="node"><title>Node10</title>
<g id="a_node10"><a xlink:href="d3/daf/classviewcontroller_1_1turtlegrid_1_1_turtle_window_view_controller.html" target="_top" xlink:title="viewcontroller.turtlegrid.\lTurtleWindowViewController">
<polygon fill="white" stroke="black" points="430,-196 430,-226 576,-226 576,-196 430,-196"/>
<text text-anchor="start" x="438" y="-214" font-family="Helvetica,sans-Serif" font-size="10.00">viewcontroller.turtlegrid.</text>
<text text-anchor="middle" x="503" y="-203" font-family="Helvetica,sans-Serif" font-size="10.00">TurtleWindowViewController</text>
</a>
</g>
</g>
<!-- Node1&#45;&gt;Node10 -->
<g id="edge9" class="edge"><title>Node1&#45;&gt;Node10</title>
<path fill="none" stroke="midnightblue" d="M314.473,-273.801C337.48,-263.31 367.002,-250.548 394,-241 409.411,-235.55 426.336,-230.446 442.123,-226.049"/>
<polygon fill="midnightblue" stroke="midnightblue" points="312.981,-270.635 305.358,-277.993 315.906,-276.994 312.981,-270.635"/>
</g>
<!-- Node11 -->
<g id="node11" class="node"><title>Node11</title>
<g id="a_node11"><a xlink:href="d4/deb/interfaceviewcontroller_1_1_view_controller.html" target="_top" xlink:title="viewcontroller.ViewController">
<polygon fill="white" stroke="black" points="0,-201.5 0,-220.5 152,-220.5 152,-201.5 0,-201.5"/>
<text text-anchor="middle" x="76" y="-208.5" font-family="Helvetica,sans-Serif" font-size="10.00">viewcontroller.ViewController</text>
</a>
</g>
</g>
<!-- Node11&#45;&gt;Node4 -->
<g id="edge12" class="edge"><title>Node11&#45;&gt;Node4</title>
<path fill="none" stroke="midnightblue" d="M82.781,-230.526C95.2307,-268.975 128.387,-354.445 188,-397 247.847,-439.722 329.459,-455.934 394.48,-461.616"/>
<polygon fill="midnightblue" stroke="midnightblue" points="86.0061,-229.11 79.6939,-220.601 79.3219,-231.189 86.0061,-229.11"/>
</g>
<!-- Node11&#45;&gt;Node7 -->
<g id="edge22" class="edge"><title>Node11&#45;&gt;Node7</title>
<path fill="none" stroke="midnightblue" d="M85.7351,-229.695C101.458,-261.149 137.637,-324.312 188,-356 256.472,-399.082 348.543,-413.543 415.269,-418"/>
<polygon fill="midnightblue" stroke="midnightblue" points="88.8731,-228.145 81.3571,-220.678 82.5759,-231.202 88.8731,-228.145"/>
</g>
<!-- Node11&#45;&gt;Node8 -->
<g id="edge23" class="edge"><title>Node11&#45;&gt;Node8</title>
<path fill="none" stroke="midnightblue" d="M90.0802,-228.78C108.874,-252.914 145.922,-295.493 188,-317 267.473,-357.62 371.178,-370.088 437.202,-373.748"/>
<polygon fill="midnightblue" stroke="midnightblue" points="92.6364,-226.359 83.7986,-220.516 87.0635,-230.595 92.6364,-226.359"/>
</g>
<!-- Node11&#45;&gt;Node10 -->
<g id="edge24" class="edge"><title>Node11&#45;&gt;Node10</title>
<path fill="none" stroke="midnightblue" d="M162.345,-211C240.819,-211 355.885,-211 429.873,-211"/>
<polygon fill="midnightblue" stroke="midnightblue" points="162.003,-207.5 152.003,-211 162.003,-214.5 162.003,-207.5"/>
</g>
<!-- Node12 -->
<g id="node12" class="node"><title>Node12</title>
<g id="a_node12"><a xlink:href="d4/de5/classturtle_1_1_turtle_view_controller.html" target="_top" xlink:title="turtle.TurtleViewController">
<polygon fill="white" stroke="black" points="203.5,-84.5 203.5,-103.5 342.5,-103.5 342.5,-84.5 203.5,-84.5"/>
<text text-anchor="middle" x="273" y="-91.5" font-family="Helvetica,sans-Serif" font-size="10.00">turtle.TurtleViewController</text>
</a>
</g>
</g>
<!-- Node11&#45;&gt;Node12 -->
<g id="edge10" class="edge"><title>Node11&#45;&gt;Node12</title>
<path fill="none" stroke="midnightblue" d="M91.3828,-193.808C110.92,-171.623 148.022,-133.452 188,-113 195.587,-109.119 203.96,-106.024 212.393,-103.557"/>
<polygon fill="midnightblue" stroke="midnightblue" points="88.6658,-191.6 84.7857,-201.459 93.967,-196.171 88.6658,-191.6"/>
</g>
<!-- Node13 -->
<g id="node13" class="node"><title>Node13</title>
<g id="a_node13"><a xlink:href="de/d8d/classviewcontroller_1_1commands_1_1_command_prompt_view_controller.html" target="_top" xlink:title="viewcontroller.commands.\lCommandPromptViewController">
<polygon fill="white" stroke="black" points="418,-0 418,-30 588,-30 588,-0 418,-0"/>
<text text-anchor="start" x="426" y="-18" font-family="Helvetica,sans-Serif" font-size="10.00">viewcontroller.commands.</text>
<text text-anchor="middle" x="503" y="-7" font-family="Helvetica,sans-Serif" font-size="10.00">CommandPromptViewController</text>
</a>
</g>
</g>
<!-- Node11&#45;&gt;Node13 -->
<g id="edge11" class="edge"><title>Node11&#45;&gt;Node13</title>
<path fill="none" stroke="midnightblue" d="M86.6815,-192.119C103.137,-162.086 139.549,-103.881 188,-75 258.079,-33.2265 351.211,-19.6436 417.814,-15.65"/>
<polygon fill="midnightblue" stroke="midnightblue" points="83.4881,-190.67 81.8773,-201.141 89.6668,-193.96 83.4881,-190.67"/>
</g>
<!-- Node14 -->
<g id="node14" class="node"><title>Node14</title>
<g id="a_node14"><a xlink:href="d8/d68/classviewcontroller_1_1commands_1_1_command_window_view_controller.html" target="_top" xlink:title="viewcontroller.commands.\lCommandWindowViewController">
<polygon fill="white" stroke="black" points="188,-123 188,-153 358,-153 358,-123 188,-123"/>
<text text-anchor="start" x="196" y="-141" font-family="Helvetica,sans-Serif" font-size="10.00">viewcontroller.commands.</text>
<text text-anchor="middle" x="273" y="-130" font-family="Helvetica,sans-Serif" font-size="10.00">CommandWindowViewController</text>
</a>
</g>
</g>
<!-- Node11&#45;&gt;Node14 -->
<g id="edge13" class="edge"><title>Node11&#45;&gt;Node14</title>
<path fill="none" stroke="midnightblue" d="M111.906,-197.933C145.493,-185.359 196.247,-166.359 231.574,-153.134"/>
<polygon fill="midnightblue" stroke="midnightblue" points="110.631,-194.673 102.493,-201.457 113.085,-201.228 110.631,-194.673"/>
</g>
<!-- Node14&#45;&gt;Node3 -->
<g id="edge20" class="edge"><title>Node14&#45;&gt;Node3</title>
<path fill="none" stroke="midnightblue" d="M368.622,-147.96C385.42,-149.728 402.797,-151.558 419.235,-153.288"/>
<polygon fill="midnightblue" stroke="midnightblue" points="368.562,-144.435 358.251,-146.869 367.83,-151.396 368.562,-144.435"/>
</g>
<!-- Node14&#45;&gt;Node9 -->
<g id="edge21" class="edge"><title>Node14&#45;&gt;Node9</title>
<path fill="none" stroke="midnightblue" d="M368.284,-127.662C389.578,-125.327 411.818,-122.888 431.911,-120.685"/>
<polygon fill="midnightblue" stroke="midnightblue" points="367.81,-124.193 358.251,-128.762 368.573,-131.151 367.81,-124.193"/>
</g>
<!-- Node14&#45;&gt;Node13 -->
<g id="edge19" class="edge"><title>Node14&#45;&gt;Node13</title>
<path fill="none" stroke="midnightblue" d="M351.757,-117.708C353.932,-116.247 356.02,-114.68 358,-113 385.888,-89.3364 365.295,-61.6646 394,-39 401.085,-33.4058 409.209,-29.0568 417.752,-25.6842"/>
<polygon fill="midnightblue" stroke="midnightblue" points="349.854,-114.767 342.992,-122.84 353.39,-120.808 349.854,-114.767"/>
</g>
<!-- Node15 -->
<g id="node15" class="node"><title>Node15</title>
<g id="a_node15"><a xlink:href="d4/d3f/classviewcontroller_1_1commands_1_1_command_list_window_view_controller.html" target="_top" xlink:title="viewcontroller.commands.\lCommandListWindowViewController">
<polygon fill="white" stroke="black" points="409.5,-49 409.5,-79 596.5,-79 596.5,-49 409.5,-49"/>
<text text-anchor="start" x="417.5" y="-67" font-family="Helvetica,sans-Serif" font-size="10.00">viewcontroller.commands.</text>
<text text-anchor="middle" x="503" y="-56" font-family="Helvetica,sans-Serif" font-size="10.00">CommandListWindowViewController</text>
</a>
</g>
</g>
<!-- Node14&#45;&gt;Node15 -->
<g id="edge14" class="edge"><title>Node14&#45;&gt;Node15</title>
<path fill="none" stroke="midnightblue" d="M342.712,-119.539C347.962,-117.528 353.115,-115.349 358,-113 375.556,-104.56 376.157,-95.8153 394,-88 401.829,-84.5708 410.2,-81.6086 418.687,-79.0547"/>
<polygon fill="midnightblue" stroke="midnightblue" points="341.408,-116.289 333.192,-122.978 343.786,-122.872 341.408,-116.289"/>
</g>
<!-- Node15&#45;&gt;Node6 -->
<g id="edge18" class="edge"><title>Node15&#45;&gt;Node6</title>
<path fill="none" stroke="midnightblue" d="M605.19,-82.2963C607.579,-84.0444 609.857,-85.9416 612,-88 657.09,-131.317 603.872,-179.703 648,-224 651.776,-227.79 656.061,-231.024 660.669,-233.78"/>
<polygon fill="midnightblue" stroke="midnightblue" points="606.996,-79.2972 596.674,-76.9102 603.254,-85.2134 606.996,-79.2972"/>
</g>
<!-- Node16 -->
<g id="node16" class="node"><title>Node16</title>
<g id="a_node16"><a xlink:href="d1/dfa/classviewcontroller_1_1commands_1_1_command_clickable_list_window_view_controller.html" target="_top" xlink:title="viewcontroller.commands.\lCommandClickableListWindowView\lController">
<polygon fill="white" stroke="black" points="651,-174.5 651,-215.5 833,-215.5 833,-174.5 651,-174.5"/>
<text text-anchor="start" x="659" y="-203.5" font-family="Helvetica,sans-Serif" font-size="10.00">viewcontroller.commands.</text>
<text text-anchor="start" x="659" y="-192.5" font-family="Helvetica,sans-Serif" font-size="10.00">CommandClickableListWindowView</text>
<text text-anchor="middle" x="742" y="-181.5" font-family="Helvetica,sans-Serif" font-size="10.00">Controller</text>
</a>
</g>
</g>
<!-- Node15&#45;&gt;Node16 -->
<g id="edge15" class="edge"><title>Node15&#45;&gt;Node16</title>
<path fill="none" stroke="midnightblue" d="M599.295,-82.473C603.654,-84.1591 607.912,-85.997 612,-88 656.421,-109.763 698.732,-149.807 722.146,-174.255"/>
<polygon fill="midnightblue" stroke="midnightblue" points="600.207,-79.0825 589.612,-79.019 597.855,-85.6756 600.207,-79.0825"/>
</g>
<!-- Node16&#45;&gt;Node2 -->
<g id="edge16" class="edge"><title>Node16&#45;&gt;Node2</title>
<path fill="none" stroke="midnightblue" d="M843.275,-214.511C857.89,-217.354 872.746,-220.245 886.809,-222.981"/>
<polygon fill="midnightblue" stroke="midnightblue" points="843.692,-211.026 833.208,-212.552 842.355,-217.897 843.692,-211.026"/>
</g>
<!-- Node16&#45;&gt;Node5 -->
<g id="edge17" class="edge"><title>Node16&#45;&gt;Node5</title>
<path fill="none" stroke="midnightblue" d="M829.213,-220.069C831.535,-221.32 833.802,-222.63 836,-224 855.744,-236.305 853.373,-248.063 872,-262 888.946,-274.679 909.816,-285.656 927.393,-293.805"/>
<polygon fill="midnightblue" stroke="midnightblue" points="830.544,-216.822 820.029,-215.522 827.438,-223.095 830.544,-216.822"/>
</g>
</g>
</svg>
