<?xml version="1.0" encoding="UTF-8" standalone="no"?>
<!DOCTYPE svg PUBLIC "-//W3C//DTD SVG 1.1//EN"
 "http://www.w3.org/Graphics/SVG/1.1/DTD/svg11.dtd">
<!-- Generated by graphviz version 2.36.0 (20140111.2315)
 -->
<!-- Title: Graphical Class Hierarchy Pages: 1 -->
<svg width="514pt" height="224pt"
 viewBox="0.00 0.00 514.00 224.00" xmlns="http://www.w3.org/2000/svg" xmlns:xlink="http://www.w3.org/1999/xlink">
<g id="graph0" class="graph" transform="scale(1 1) rotate(0) translate(4 220)">
<title>Graphical Class Hierarchy</title>
<polygon fill="white" stroke="none" points="-4,4 -4,-220 510,-220 510,4 -4,4"/>
<!-- Node1 -->
<g id="node1" class="node"><title>Node1</title>
<polygon fill="white" stroke="#bfbfbf" points="33.5,-191.5 33.5,-210.5 102.5,-210.5 102.5,-191.5 33.5,-191.5"/>
<text text-anchor="middle" x="68" y="-198.5" font-family="Helvetica,sans-Serif" font-size="10.00">ComboBox</text>
</g>
<!-- Node2 -->
<g id="node2" class="node"><title>Node2</title>
<g id="a_node2"><a xlink:href="da/da5/classapplication_1_1_drop_down_form_element.html" target="_top" xlink:title="application.DropDownForm\lElement">
<polygon fill="white" stroke="black" points="182,-186 182,-216 328,-216 328,-186 182,-186"/>
<text text-anchor="start" x="190" y="-204" font-family="Helvetica,sans-Serif" font-size="10.00">application.DropDownForm</text>
<text text-anchor="middle" x="255" y="-193" font-family="Helvetica,sans-Serif" font-size="10.00">Element</text>
</a>
</g>
</g>
<!-- Node1&#45;&gt;Node2 -->
<g id="edge1" class="edge"><title>Node1&#45;&gt;Node2</title>
<path fill="none" stroke="midnightblue" d="M112.525,-201C133.13,-201 158.291,-201 181.65,-201"/>
<polygon fill="midnightblue" stroke="midnightblue" points="112.502,-197.5 102.502,-201 112.502,-204.5 112.502,-197.5"/>
</g>
<!-- Node3 -->
<g id="node3" class="node"><title>Node3</title>
<polygon fill="white" stroke="#bfbfbf" points="47,-54.5 47,-73.5 89,-73.5 89,-54.5 47,-54.5"/>
<text text-anchor="middle" x="68" y="-61.5" font-family="Helvetica,sans-Serif" font-size="10.00">HBox</text>
</g>
<!-- Node4 -->
<g id="node4" class="node"><title>Node4</title>
<g id="a_node4"><a xlink:href="d7/de6/classapplication_1_1_number_input_form_element.html" target="_top" xlink:title="application.NumberInputForm\lElement">
<polygon fill="white" stroke="black" points="175.5,-98 175.5,-128 334.5,-128 334.5,-98 175.5,-98"/>
<text text-anchor="start" x="183.5" y="-116" font-family="Helvetica,sans-Serif" font-size="10.00">application.NumberInputForm</text>
<text text-anchor="middle" x="255" y="-105" font-family="Helvetica,sans-Serif" font-size="10.00">Element</text>
</a>
</g>
</g>
<!-- Node3&#45;&gt;Node4 -->
<g id="edge2" class="edge"><title>Node3&#45;&gt;Node4</title>
<path fill="none" stroke="midnightblue" d="M98.9775,-71.94C125.48,-78.9595 164.855,-89.3885 197.289,-97.9792"/>
<polygon fill="midnightblue" stroke="midnightblue" points="99.7132,-68.5142 89.1504,-69.3371 97.9209,-75.2809 99.7132,-68.5142"/>
</g>
<!-- Node5 -->
<g id="node5" class="node"><title>Node5</title>
<g id="a_node5"><a xlink:href="db/d5b/classviewcontroller_1_1turtlegrid_1_1_grid_button_bar.html" target="_top" xlink:title="viewcontroller.turtlegrid.\lGridButtonBar">
<polygon fill="white" stroke="black" points="189.5,-0 189.5,-30 320.5,-30 320.5,-0 189.5,-0"/>
<text text-anchor="start" x="197.5" y="-18" font-family="Helvetica,sans-Serif" font-size="10.00">viewcontroller.turtlegrid.</text>
<text text-anchor="middle" x="255" y="-7" font-family="Helvetica,sans-Serif" font-size="10.00">GridButtonBar</text>
</a>
</g>
</g>
<!-- Node3&#45;&gt;Node5 -->
<g id="edge3" class="edge"><title>Node3&#45;&gt;Node5</title>
<path fill="none" stroke="midnightblue" d="M98.9775,-56.06C125.48,-49.0405 164.855,-38.6115 197.289,-30.0208"/>
<polygon fill="midnightblue" stroke="midnightblue" points="97.9209,-52.7191 89.1504,-58.6629 99.7132,-59.4858 97.9209,-52.7191"/>
</g>
<!-- Node6 -->
<g id="node6" class="node"><title>Node6</title>
<g id="a_node6"><a xlink:href="d7/d11/classviewcontroller_1_1turtlegrid_1_1_s_logo_labeled_container.html" target="_top" xlink:title="viewcontroller.turtlegrid.\lSLogoLabeledContainer">
<polygon fill="white" stroke="black" points="189.5,-49 189.5,-79 320.5,-79 320.5,-49 189.5,-49"/>
<text text-anchor="start" x="197.5" y="-67" font-family="Helvetica,sans-Serif" font-size="10.00">viewcontroller.turtlegrid.</text>
<text text-anchor="middle" x="255" y="-56" font-family="Helvetica,sans-Serif" font-size="10.00">SLogoLabeledContainer</text>
</a>
</g>
</g>
<!-- Node3&#45;&gt;Node6 -->
<g id="edge4" class="edge"><title>Node3&#45;&gt;Node6</title>
<path fill="none" stroke="midnightblue" d="M99.1888,-64C123.5,-64 158.543,-64 189.143,-64"/>
<polygon fill="midnightblue" stroke="midnightblue" points="99.1504,-60.5001 89.1504,-64 99.1504,-67.5001 99.1504,-60.5001"/>
</g>
<!-- Node7 -->
<g id="node7" class="node"><title>Node7</title>
<g id="a_node7"><a xlink:href="db/dbf/classviewcontroller_1_1turtlegrid_1_1_s_logo_color_picker.html" target="_top" xlink:title="viewcontroller.turtlegrid.\lSLogoColorPicker">
<polygon fill="white" stroke="black" points="374.5,-74 374.5,-104 505.5,-104 505.5,-74 374.5,-74"/>
<text text-anchor="start" x="382.5" y="-92" font-family="Helvetica,sans-Serif" font-size="10.00">viewcontroller.turtlegrid.</text>
<text text-anchor="middle" x="440" y="-81" font-family="Helvetica,sans-Serif" font-size="10.00">SLogoColorPicker</text>
</a>
</g>
</g>
<!-- Node6&#45;&gt;Node7 -->
<g id="edge5" class="edge"><title>Node6&#45;&gt;Node7</title>
<path fill="none" stroke="midnightblue" d="M330.493,-74.1766C345.064,-76.1672 360.232,-78.2393 374.447,-80.1813"/>
<polygon fill="midnightblue" stroke="midnightblue" points="330.901,-70.6999 320.519,-72.8141 329.953,-77.6355 330.901,-70.6999"/>
</g>
<!-- Node8 -->
<g id="node8" class="node"><title>Node8</title>
<g id="a_node8"><a xlink:href="d4/d7d/classviewcontroller_1_1turtlegrid_1_1_s_logo_slider.html" target="_top" xlink:title="viewcontroller.turtlegrid.\lSLogoSlider">
<polygon fill="white" stroke="black" points="374.5,-25 374.5,-55 505.5,-55 505.5,-25 374.5,-25"/>
<text text-anchor="start" x="382.5" y="-43" font-family="Helvetica,sans-Serif" font-size="10.00">viewcontroller.turtlegrid.</text>
<text text-anchor="middle" x="440" y="-32" font-family="Helvetica,sans-Serif" font-size="10.00">SLogoSlider</text>
</a>
</g>
</g>
<!-- Node6&#45;&gt;Node8 -->
<g id="edge6" class="edge"><title>Node6&#45;&gt;Node8</title>
<path fill="none" stroke="midnightblue" d="M330.493,-54.2305C345.064,-52.3195 360.232,-50.3303 374.447,-48.466"/>
<polygon fill="midnightblue" stroke="midnightblue" points="329.979,-50.7678 320.519,-55.5385 330.889,-57.7084 329.979,-50.7678"/>
</g>
<!-- Node9 -->
<g id="node9" class="node"><title>Node9</title>
<polygon fill="white" stroke="#bfbfbf" points="28.5,-112.5 28.5,-131.5 107.5,-131.5 107.5,-112.5 28.5,-112.5"/>
<text text-anchor="middle" x="68" y="-119.5" font-family="Helvetica,sans-Serif" font-size="10.00">ToggleButton</text>
</g>
<!-- Node10 -->
<g id="node10" class="node"><title>Node10</title>
<g id="a_node10"><a xlink:href="df/d65/classapplication_1_1_toggle_form_element.html" target="_top" xlink:title="application.ToggleFormElement">
<polygon fill="white" stroke="black" points="172,-147.5 172,-166.5 338,-166.5 338,-147.5 172,-147.5"/>
<text text-anchor="middle" x="255" y="-154.5" font-family="Helvetica,sans-Serif" font-size="10.00">application.ToggleFormElement</text>
</a>
</g>
</g>
<!-- Node9&#45;&gt;Node10 -->
<g id="edge7" class="edge"><title>Node9&#45;&gt;Node10</title>
<path fill="none" stroke="midnightblue" d="M117.61,-131.196C144.118,-136.212 176.887,-142.411 203.661,-147.476"/>
<polygon fill="midnightblue" stroke="midnightblue" points="118.258,-127.757 107.782,-129.337 116.957,-134.635 118.258,-127.757"/>
</g>
<!-- Node11 -->
<g id="node11" class="node"><title>Node11</title>
<g id="a_node11"><a xlink:href="d0/d1b/interfaceapplication_1_1_form_element.html" target="_top" xlink:title="application.FormElement">
<polygon fill="white" stroke="black" points="0,-150.5 0,-169.5 136,-169.5 136,-150.5 0,-150.5"/>
<text text-anchor="middle" x="68" y="-157.5" font-family="Helvetica,sans-Serif" font-size="10.00">application.FormElement</text>
</a>
</g>
</g>
<!-- Node11&#45;&gt;Node2 -->
<g id="edge8" class="edge"><title>Node11&#45;&gt;Node2</title>
<path fill="none" stroke="midnightblue" d="M121.751,-171.691C141.734,-176.119 164.773,-181.225 185.967,-185.922"/>
<polygon fill="midnightblue" stroke="midnightblue" points="122.428,-168.256 111.908,-169.509 120.913,-175.09 122.428,-168.256"/>
</g>
<!-- Node11&#45;&gt;Node4 -->
<g id="edge9" class="edge"><title>Node11&#45;&gt;Node4</title>
<path fill="none" stroke="midnightblue" d="M116.319,-147.978C140.2,-141.911 169.407,-134.491 194.765,-128.049"/>
<polygon fill="midnightblue" stroke="midnightblue" points="115.268,-144.634 106.438,-150.489 116.991,-151.419 115.268,-144.634"/>
</g>
<!-- Node11&#45;&gt;Node10 -->
<g id="edge10" class="edge"><title>Node11&#45;&gt;Node10</title>
<path fill="none" stroke="midnightblue" d="M146.219,-158.748C154.642,-158.611 163.239,-158.472 171.72,-158.334"/>
<polygon fill="midnightblue" stroke="midnightblue" points="145.993,-155.251 136.051,-158.913 146.106,-162.25 145.993,-155.251"/>
</g>
</g>
</svg>
