<?xml version="1.0" encoding="UTF-8" standalone="no"?>
<!DOCTYPE svg PUBLIC "-//W3C//DTD SVG 1.1//EN"
 "http://www.w3.org/Graphics/SVG/1.1/DTD/svg11.dtd">
<!-- Generated by graphviz version 2.36.0 (20140111.2315)
 -->
<!-- Title: Graphical Class Hierarchy Pages: 1 -->
<svg width="354pt" height="381pt"
 viewBox="0.00 0.00 354.00 381.00" xmlns="http://www.w3.org/2000/svg" xmlns:xlink="http://www.w3.org/1999/xlink">
<g id="graph0" class="graph" transform="scale(1 1) rotate(0) translate(4 377)">
<title>Graphical Class Hierarchy</title>
<polygon fill="white" stroke="none" points="-4,4 -4,-377 350,-377 350,4 -4,4"/>
<!-- Node1 -->
<g id="node1" class="node"><title>Node1</title>
<g id="a_node1"><a xlink:href="df/df6/classinterpreter_1_1result_1_1_s_logo_result.html" target="_top" xlink:title="interpreter.result.SLogo\lResult">
<polygon fill="white" stroke="black" points="0,-171 0,-201 130,-201 130,-171 0,-171"/>
<text text-anchor="start" x="8" y="-189" font-family="Helvetica,sans-Serif" font-size="10.00">interpreter.result.SLogo</text>
<text text-anchor="middle" x="65" y="-178" font-family="Helvetica,sans-Serif" font-size="10.00">Result</text>
</a>
</g>
</g>
<!-- Node2 -->
<g id="node2" class="node"><title>Node2</title>
<g id="a_node2"><a xlink:href="db/d71/classinterpreter_1_1expression_1_1conditional_1_1_conditional_result.html" target="_top" xlink:title="interpreter.expression.conditional.\lConditionalResult">
<polygon fill="white" stroke="black" points="166.5,-343 166.5,-373 345.5,-373 345.5,-343 166.5,-343"/>
<text text-anchor="start" x="174.5" y="-361" font-family="Helvetica,sans-Serif" font-size="10.00">interpreter.expression.conditional.</text>
<text text-anchor="middle" x="256" y="-350" font-family="Helvetica,sans-Serif" font-size="10.00">ConditionalResult</text>
</a>
</g>
</g>
<!-- Node1&#45;&gt;Node2 -->
<g id="edge1" class="edge"><title>Node1&#45;&gt;Node2</title>
<path fill="none" stroke="midnightblue" d="M76.0922,-210.398C90.9221,-243.221 121.722,-301.145 166,-333 171.342,-336.843 177.255,-340.096 183.42,-342.85"/>
<polygon fill="midnightblue" stroke="midnightblue" points="79.2255,-208.828 72.0052,-201.074 72.8143,-211.638 79.2255,-208.828"/>
</g>
<!-- Node3 -->
<g id="node3" class="node"><title>Node3</title>
<g id="a_node3"><a xlink:href="d0/dcb/classinterpreter_1_1expression_1_1math_1_1_math_result.html" target="_top" xlink:title="interpreter.expression.math.\lMathResult">
<polygon fill="white" stroke="black" points="179.5,-294 179.5,-324 332.5,-324 332.5,-294 179.5,-294"/>
<text text-anchor="start" x="187.5" y="-312" font-family="Helvetica,sans-Serif" font-size="10.00">interpreter.expression.math.</text>
<text text-anchor="middle" x="256" y="-301" font-family="Helvetica,sans-Serif" font-size="10.00">MathResult</text>
</a>
</g>
</g>
<!-- Node1&#45;&gt;Node3 -->
<g id="edge2" class="edge"><title>Node1&#45;&gt;Node3</title>
<path fill="none" stroke="midnightblue" d="M83.8784,-209.327C102.18,-231.642 132.605,-264.676 166,-284 172.668,-287.858 179.964,-291.149 187.419,-293.948"/>
<polygon fill="midnightblue" stroke="midnightblue" points="86.4656,-206.959 77.4771,-201.35 81.0062,-211.34 86.4656,-206.959"/>
</g>
<!-- Node4 -->
<g id="node4" class="node"><title>Node4</title>
<g id="a_node4"><a xlink:href="d6/dd1/classinterpreter_1_1expression_1_1query_1_1_query_result.html" target="_top" xlink:title="interpreter.expression.query.\lQueryResult">
<polygon fill="white" stroke="black" points="179.5,-245 179.5,-275 332.5,-275 332.5,-245 179.5,-245"/>
<text text-anchor="start" x="187.5" y="-263" font-family="Helvetica,sans-Serif" font-size="10.00">interpreter.expression.query.</text>
<text text-anchor="middle" x="256" y="-252" font-family="Helvetica,sans-Serif" font-size="10.00">QueryResult</text>
</a>
</g>
</g>
<!-- Node1&#45;&gt;Node4 -->
<g id="edge3" class="edge"><title>Node1&#45;&gt;Node4</title>
<path fill="none" stroke="midnightblue" d="M102.44,-205.844C121.09,-215.485 144.368,-226.741 166,-235 175.446,-238.607 185.633,-241.952 195.624,-244.947"/>
<polygon fill="midnightblue" stroke="midnightblue" points="103.897,-202.656 93.4139,-201.118 100.649,-208.857 103.897,-202.656"/>
</g>
<!-- Node5 -->
<g id="node5" class="node"><title>Node5</title>
<g id="a_node5"><a xlink:href="db/dfa/classinterpreter_1_1result_1_1_control_structure_result.html" target="_top" xlink:title="interpreter.result.Control\lStructureResult">
<polygon fill="white" stroke="black" points="189,-196 189,-226 323,-226 323,-196 189,-196"/>
<text text-anchor="start" x="197" y="-214" font-family="Helvetica,sans-Serif" font-size="10.00">interpreter.result.Control</text>
<text text-anchor="middle" x="256" y="-203" font-family="Helvetica,sans-Serif" font-size="10.00">StructureResult</text>
</a>
</g>
</g>
<!-- Node1&#45;&gt;Node5 -->
<g id="edge4" class="edge"><title>Node1&#45;&gt;Node5</title>
<path fill="none" stroke="midnightblue" d="M140.616,-195.87C156.596,-197.984 173.369,-200.202 188.996,-202.269"/>
<polygon fill="midnightblue" stroke="midnightblue" points="140.623,-192.34 130.251,-194.499 139.705,-199.28 140.623,-192.34"/>
</g>
<!-- Node6 -->
<g id="node6" class="node"><title>Node6</title>
<g id="a_node6"><a xlink:href="d8/de3/classinterpreter_1_1result_1_1_error_result.html" target="_top" xlink:title="interpreter.result.Error\lResult">
<polygon fill="white" stroke="black" points="194.5,-147 194.5,-177 317.5,-177 317.5,-147 194.5,-147"/>
<text text-anchor="start" x="202.5" y="-165" font-family="Helvetica,sans-Serif" font-size="10.00">interpreter.result.Error</text>
<text text-anchor="middle" x="256" y="-154" font-family="Helvetica,sans-Serif" font-size="10.00">Result</text>
</a>
</g>
</g>
<!-- Node1&#45;&gt;Node6 -->
<g id="edge5" class="edge"><title>Node1&#45;&gt;Node6</title>
<path fill="none" stroke="midnightblue" d="M140.374,-176.556C158.296,-174.28 177.23,-171.876 194.435,-169.691"/>
<polygon fill="midnightblue" stroke="midnightblue" points="139.73,-173.109 130.251,-177.841 140.612,-180.054 139.73,-173.109"/>
</g>
<!-- Node7 -->
<g id="node7" class="node"><title>Node7</title>
<g id="a_node7"><a xlink:href="df/d00/classinterpreter_1_1result_1_1_syntax_result.html" target="_top" xlink:title="interpreter.result.Syntax\lResult">
<polygon fill="white" stroke="black" points="189.5,-98 189.5,-128 322.5,-128 322.5,-98 189.5,-98"/>
<text text-anchor="start" x="197.5" y="-116" font-family="Helvetica,sans-Serif" font-size="10.00">interpreter.result.Syntax</text>
<text text-anchor="middle" x="256" y="-105" font-family="Helvetica,sans-Serif" font-size="10.00">Result</text>
</a>
</g>
</g>
<!-- Node1&#45;&gt;Node7 -->
<g id="edge6" class="edge"><title>Node1&#45;&gt;Node7</title>
<path fill="none" stroke="midnightblue" d="M103.286,-166.197C121.81,-156.854 144.728,-146.023 166,-138 175.461,-134.432 185.655,-131.106 195.649,-128.119"/>
<polygon fill="midnightblue" stroke="midnightblue" points="101.618,-163.12 94.3036,-170.785 104.801,-169.354 101.618,-163.12"/>
</g>
<!-- Node8 -->
<g id="node8" class="node"><title>Node8</title>
<g id="a_node8"><a xlink:href="db/df1/classinterpreter_1_1result_1_1_turtle_command_result.html" target="_top" xlink:title="interpreter.result.Turtle\lCommandResult">
<polygon fill="white" stroke="black" points="193.5,-49 193.5,-79 318.5,-79 318.5,-49 193.5,-49"/>
<text text-anchor="start" x="201.5" y="-67" font-family="Helvetica,sans-Serif" font-size="10.00">interpreter.result.Turtle</text>
<text text-anchor="middle" x="256" y="-56" font-family="Helvetica,sans-Serif" font-size="10.00">CommandResult</text>
</a>
</g>
</g>
<!-- Node1&#45;&gt;Node8 -->
<g id="edge7" class="edge"><title>Node1&#45;&gt;Node8</title>
<path fill="none" stroke="midnightblue" d="M83.9292,-162.918C102.269,-140.836 132.723,-108.142 166,-89 174.347,-84.1985 183.671,-80.2744 193.054,-77.0801"/>
<polygon fill="midnightblue" stroke="midnightblue" points="81.1047,-160.844 77.513,-170.811 86.5366,-165.259 81.1047,-160.844"/>
</g>
<!-- Node9 -->
<g id="node9" class="node"><title>Node9</title>
<g id="a_node9"><a xlink:href="d9/d07/classinterpreter_1_1result_1_1_user_defined_result.html" target="_top" xlink:title="interpreter.result.UserDefined\lResult">
<polygon fill="white" stroke="black" points="176.5,-0 176.5,-30 335.5,-30 335.5,-0 176.5,-0"/>
<text text-anchor="start" x="184.5" y="-18" font-family="Helvetica,sans-Serif" font-size="10.00">interpreter.result.UserDefined</text>
<text text-anchor="middle" x="256" y="-7" font-family="Helvetica,sans-Serif" font-size="10.00">Result</text>
</a>
</g>
</g>
<!-- Node1&#45;&gt;Node9 -->
<g id="edge8" class="edge"><title>Node1&#45;&gt;Node9</title>
<path fill="none" stroke="midnightblue" d="M76.3671,-161.264C91.3352,-128.578 122.103,-71.4743 166,-40 171.348,-36.1657 177.265,-32.9183 183.433,-30.1682"/>
<polygon fill="midnightblue" stroke="midnightblue" points="73.0949,-160.009 72.232,-170.568 79.4916,-162.852 73.0949,-160.009"/>
</g>
</g>
</svg>
