<?xml version="1.0" encoding="UTF-8" standalone="no"?>
<!DOCTYPE svg PUBLIC "-//W3C//DTD SVG 1.1//EN"
 "http://www.w3.org/Graphics/SVG/1.1/DTD/svg11.dtd">
<!-- Generated by graphviz version 2.36.0 (20140111.2315)
 -->
<!-- Title: Graphical Class Hierarchy Pages: 1 -->
<svg width="280pt" height="203pt"
 viewBox="0.00 0.00 280.00 203.00" xmlns="http://www.w3.org/2000/svg" xmlns:xlink="http://www.w3.org/1999/xlink">
<g id="graph0" class="graph" transform="scale(1 1) rotate(0) translate(4 199)">
<title>Graphical Class Hierarchy</title>
<polygon fill="white" stroke="none" points="-4,4 -4,-199 276,-199 276,4 -4,4"/>
<!-- Node1 -->
<g id="node1" class="node"><title>Node1</title>
<polygon fill="white" stroke="#bfbfbf" points="0.5,-93.5 0.5,-112.5 71.5,-112.5 71.5,-93.5 0.5,-93.5"/>
<text text-anchor="middle" x="36" y="-100.5" font-family="Helvetica,sans-Serif" font-size="10.00">Serializable</text>
</g>
<!-- Node2 -->
<g id="node2" class="node"><title>Node2</title>
<g id="a_node2"><a xlink:href="db/d84/classmodel_1_1_command_history_model.html" target="_top" xlink:title="model.CommandHistoryModel">
<polygon fill="white" stroke="black" points="109,-175.5 109,-194.5 271,-194.5 271,-175.5 109,-175.5"/>
<text text-anchor="middle" x="190" y="-182.5" font-family="Helvetica,sans-Serif" font-size="10.00">model.CommandHistoryModel</text>
</a>
</g>
</g>
<!-- Node1&#45;&gt;Node2 -->
<g id="edge1" class="edge"><title>Node1&#45;&gt;Node2</title>
<path fill="none" stroke="midnightblue" d="M52.0248,-120.475C65.3201,-134.83 85.984,-154.592 108,-166 115.438,-169.854 123.664,-172.938 131.938,-175.401"/>
<polygon fill="midnightblue" stroke="midnightblue" points="54.3778,-117.857 45.0937,-112.752 49.1682,-122.532 54.3778,-117.857"/>
</g>
<!-- Node3 -->
<g id="node3" class="node"><title>Node3</title>
<g id="a_node3"><a xlink:href="d3/d5e/classmodel_1_1_serialisable_model.html" target="_top" xlink:title="model.SerialisableModel">
<polygon fill="white" stroke="black" points="123.5,-137.5 123.5,-156.5 256.5,-156.5 256.5,-137.5 123.5,-137.5"/>
<text text-anchor="middle" x="190" y="-144.5" font-family="Helvetica,sans-Serif" font-size="10.00">model.SerialisableModel</text>
</a>
</g>
</g>
<!-- Node1&#45;&gt;Node3 -->
<g id="edge2" class="edge"><title>Node1&#45;&gt;Node3</title>
<path fill="none" stroke="midnightblue" d="M73.2587,-115.91C84.3474,-119.681 96.6202,-123.678 108,-127 120.792,-130.734 134.851,-134.367 147.614,-137.49"/>
<polygon fill="midnightblue" stroke="midnightblue" points="74.0624,-112.485 63.4677,-112.536 71.7818,-119.103 74.0624,-112.485"/>
</g>
<!-- Node4 -->
<g id="node4" class="node"><title>Node4</title>
<g id="a_node4"><a xlink:href="da/dee/classmodel_1_1_user_defined_commands_model.html" target="_top" xlink:title="model.UserDefinedCommands\lModel">
<polygon fill="white" stroke="black" points="108,-88 108,-118 272,-118 272,-88 108,-88"/>
<text text-anchor="start" x="116" y="-106" font-family="Helvetica,sans-Serif" font-size="10.00">model.UserDefinedCommands</text>
<text text-anchor="middle" x="190" y="-95" font-family="Helvetica,sans-Serif" font-size="10.00">Model</text>
</a>
</g>
</g>
<!-- Node1&#45;&gt;Node4 -->
<g id="edge3" class="edge"><title>Node1&#45;&gt;Node4</title>
<path fill="none" stroke="midnightblue" d="M81.939,-103C90.1635,-103 98.9741,-103 107.879,-103"/>
<polygon fill="midnightblue" stroke="midnightblue" points="81.8719,-99.5001 71.8719,-103 81.8718,-106.5 81.8719,-99.5001"/>
</g>
<!-- Node5 -->
<g id="node5" class="node"><title>Node5</title>
<g id="a_node5"><a xlink:href="df/d55/classmodel_1_1_user_defined_variables_model.html" target="_top" xlink:title="model.UserDefinedVariables\lModel">
<polygon fill="white" stroke="black" points="114,-39 114,-69 266,-69 266,-39 114,-39"/>
<text text-anchor="start" x="122" y="-57" font-family="Helvetica,sans-Serif" font-size="10.00">model.UserDefinedVariables</text>
<text text-anchor="middle" x="190" y="-46" font-family="Helvetica,sans-Serif" font-size="10.00">Model</text>
</a>
</g>
</g>
<!-- Node1&#45;&gt;Node5 -->
<g id="edge4" class="edge"><title>Node1&#45;&gt;Node5</title>
<path fill="none" stroke="midnightblue" d="M74.2241,-90.2096C85.0927,-86.5314 97.0044,-82.5546 108,-79 118.083,-75.7406 128.901,-72.3371 139.244,-69.1283"/>
<polygon fill="midnightblue" stroke="midnightblue" points="72.934,-86.9513 64.5921,-93.483 75.1865,-93.5791 72.934,-86.9513"/>
</g>
<!-- Node6 -->
<g id="node6" class="node"><title>Node6</title>
<g id="a_node6"><a xlink:href="d1/ddd/classturtle_1_1_serialisable_turtle.html" target="_top" xlink:title="turtle.SerialisableTurtle">
<polygon fill="white" stroke="black" points="127.5,-0.5 127.5,-19.5 252.5,-19.5 252.5,-0.5 127.5,-0.5"/>
<text text-anchor="middle" x="190" y="-7.5" font-family="Helvetica,sans-Serif" font-size="10.00">turtle.SerialisableTurtle</text>
</a>
</g>
</g>
<!-- Node1&#45;&gt;Node6 -->
<g id="edge5" class="edge"><title>Node1&#45;&gt;Node6</title>
<path fill="none" stroke="midnightblue" d="M49.8544,-84.8671C62.6897,-68.1166 83.9312,-43.8026 108,-30 115.539,-25.6765 123.994,-22.2811 132.521,-19.6161"/>
<polygon fill="midnightblue" stroke="midnightblue" points="46.7628,-83.1608 43.624,-93.28 52.3882,-87.3268 46.7628,-83.1608"/>
</g>
</g>
</svg>
