<?xml version="1.0" encoding="UTF-8" standalone="no"?>
<!DOCTYPE svg PUBLIC "-//W3C//DTD SVG 1.1//EN"
 "http://www.w3.org/Graphics/SVG/1.1/DTD/svg11.dtd">
<!-- Generated by graphviz version 2.36.0 (20140111.2315)
 -->
<!-- Title: Graphical Class Hierarchy Pages: 1 -->
<svg width="418pt" height="96pt"
 viewBox="0.00 0.00 418.00 96.00" xmlns="http://www.w3.org/2000/svg" xmlns:xlink="http://www.w3.org/1999/xlink">
<g id="graph0" class="graph" transform="scale(1 1) rotate(0) translate(4 92)">
<title>Graphical Class Hierarchy</title>
<polygon fill="white" stroke="none" points="-4,4 -4,-92 414,-92 414,4 -4,4"/>
<!-- Node1 -->
<g id="node1" class="node"><title>Node1</title>
<polygon fill="white" stroke="#bfbfbf" points="0,-27.5 0,-46.5 46,-46.5 46,-27.5 0,-27.5"/>
<text text-anchor="middle" x="23" y="-34.5" font-family="Helvetica,sans-Serif" font-size="10.00">Group</text>
</g>
<!-- Node2 -->
<g id="node2" class="node"><title>Node2</title>
<g id="a_node2"><a xlink:href="d8/d9e/classturtle_1_1_turtle_image.html" target="_top" xlink:title="turtle.TurtleImage">
<polygon fill="white" stroke="black" points="97.5,-49.5 97.5,-68.5 198.5,-68.5 198.5,-49.5 97.5,-49.5"/>
<text text-anchor="middle" x="148" y="-56.5" font-family="Helvetica,sans-Serif" font-size="10.00">turtle.TurtleImage</text>
</a>
</g>
</g>
<!-- Node1&#45;&gt;Node2 -->
<g id="edge1" class="edge"><title>Node1&#45;&gt;Node2</title>
<path fill="none" stroke="midnightblue" d="M56.2617,-42.7704C68.8225,-45.017 83.5039,-47.643 97.352,-50.1199"/>
<polygon fill="midnightblue" stroke="midnightblue" points="56.7344,-39.2995 46.2744,-40.984 55.5019,-46.1901 56.7344,-39.2995"/>
</g>
<!-- Node5 -->
<g id="node5" class="node"><title>Node5</title>
<g id="a_node5"><a xlink:href="d4/d4e/classviewcontroller_1_1turtlegrid_1_1_grid_lines.html" target="_top" xlink:title="viewcontroller.turtlegrid.\lGridLines">
<polygon fill="white" stroke="black" points="82.5,-0 82.5,-30 213.5,-30 213.5,-0 82.5,-0"/>
<text text-anchor="start" x="90.5" y="-18" font-family="Helvetica,sans-Serif" font-size="10.00">viewcontroller.turtlegrid.</text>
<text text-anchor="middle" x="148" y="-7" font-family="Helvetica,sans-Serif" font-size="10.00">GridLines</text>
</a>
</g>
</g>
<!-- Node1&#45;&gt;Node5 -->
<g id="edge4" class="edge"><title>Node1&#45;&gt;Node5</title>
<path fill="none" stroke="midnightblue" d="M56.3404,-31.2155C64.4319,-29.7683 73.3997,-28.1643 82.4557,-26.5445"/>
<polygon fill="midnightblue" stroke="midnightblue" points="55.5019,-27.8099 46.2744,-33.016 56.7344,-34.7005 55.5019,-27.8099"/>
</g>
<!-- Node3 -->
<g id="node3" class="node"><title>Node3</title>
<g id="a_node3"><a xlink:href="d2/d10/classturtle_1_1_default_turtle_image.html" target="_top" xlink:title="turtle.DefaultTurtleImage">
<polygon fill="white" stroke="black" points="262.5,-68.5 262.5,-87.5 397.5,-87.5 397.5,-68.5 262.5,-68.5"/>
<text text-anchor="middle" x="330" y="-75.5" font-family="Helvetica,sans-Serif" font-size="10.00">turtle.DefaultTurtleImage</text>
</a>
</g>
</g>
<!-- Node2&#45;&gt;Node3 -->
<g id="edge2" class="edge"><title>Node2&#45;&gt;Node3</title>
<path fill="none" stroke="midnightblue" d="M209.065,-65.3402C226.15,-67.1436 244.86,-69.1185 262.313,-70.9609"/>
<polygon fill="midnightblue" stroke="midnightblue" points="208.974,-61.8113 198.662,-64.2421 208.24,-68.7726 208.974,-61.8113"/>
</g>
<!-- Node4 -->
<g id="node4" class="node"><title>Node4</title>
<g id="a_node4"><a xlink:href="d7/da7/classturtle_1_1_user_chosen_turtle_image.html" target="_top" xlink:title="turtle.UserChosenTurtleImage">
<polygon fill="white" stroke="black" points="250.5,-30.5 250.5,-49.5 409.5,-49.5 409.5,-30.5 250.5,-30.5"/>
<text text-anchor="middle" x="330" y="-37.5" font-family="Helvetica,sans-Serif" font-size="10.00">turtle.UserChosenTurtleImage</text>
</a>
</g>
</g>
<!-- Node2&#45;&gt;Node4 -->
<g id="edge3" class="edge"><title>Node2&#45;&gt;Node4</title>
<path fill="none" stroke="midnightblue" d="M208.671,-52.7014C222.047,-51.2894 236.436,-49.7706 250.448,-48.2916"/>
<polygon fill="midnightblue" stroke="midnightblue" points="208.24,-49.2274 198.662,-53.7579 208.974,-56.1887 208.24,-49.2274"/>
</g>
</g>
</svg>
