<?xml version="1.0" encoding="UTF-8" standalone="no"?>
<!DOCTYPE svg PUBLIC "-//W3C//DTD SVG 1.1//EN"
 "http://www.w3.org/Graphics/SVG/1.1/DTD/svg11.dtd">
<!-- Generated by graphviz version 2.36.0 (20140111.2315)
 -->
<!-- Title: Graphical Class Hierarchy Pages: 1 -->
<svg width="608pt" height="85pt"
 viewBox="0.00 0.00 608.00 85.00" xmlns="http://www.w3.org/2000/svg" xmlns:xlink="http://www.w3.org/1999/xlink">
<g id="graph0" class="graph" transform="scale(1 1) rotate(0) translate(4 81)">
<title>Graphical Class Hierarchy</title>
<polygon fill="white" stroke="none" points="-4,4 -4,-81 604,-81 604,4 -4,4"/>
<!-- Node1 -->
<g id="node1" class="node"><title>Node1</title>
<polygon fill="white" stroke="#bfbfbf" points="0,-19.5 0,-38.5 62,-38.5 62,-19.5 0,-19.5"/>
<text text-anchor="middle" x="31" y="-26.5" font-family="Helvetica,sans-Serif" font-size="10.00">Transition</text>
</g>
<!-- Node2 -->
<g id="node2" class="node"><title>Node2</title>
<g id="a_node2"><a xlink:href="dd/d1d/classturtle_1_1draw_1_1_s_logo_transition.html" target="_top" xlink:title="turtle.draw.SLogoTransition">
<polygon fill="white" stroke="black" points="98.5,-19.5 98.5,-38.5 243.5,-38.5 243.5,-19.5 98.5,-19.5"/>
<text text-anchor="middle" x="171" y="-26.5" font-family="Helvetica,sans-Serif" font-size="10.00">turtle.draw.SLogoTransition</text>
</a>
</g>
</g>
<!-- Node1&#45;&gt;Node2 -->
<g id="edge1" class="edge"><title>Node1&#45;&gt;Node2</title>
<path fill="none" stroke="midnightblue" d="M72.5392,-29C80.6558,-29 89.4094,-29 98.2235,-29"/>
<polygon fill="midnightblue" stroke="midnightblue" points="72.2847,-25.5001 62.2847,-29 72.2847,-32.5001 72.2847,-25.5001"/>
</g>
<!-- Node3 -->
<g id="node3" class="node"><title>Node3</title>
<g id="a_node3"><a xlink:href="de/de7/classturtle_1_1draw_1_1_linear_transition.html" target="_top" xlink:title="turtle.draw.LinearTransition">
<polygon fill="white" stroke="black" points="280,-38.5 280,-57.5 424,-57.5 424,-38.5 280,-38.5"/>
<text text-anchor="middle" x="352" y="-45.5" font-family="Helvetica,sans-Serif" font-size="10.00">turtle.draw.LinearTransition</text>
</a>
</g>
</g>
<!-- Node2&#45;&gt;Node3 -->
<g id="edge2" class="edge"><title>Node2&#45;&gt;Node3</title>
<path fill="none" stroke="midnightblue" d="M253.71,-37.6731C262.448,-38.6007 271.287,-39.5388 279.888,-40.4518"/>
<polygon fill="midnightblue" stroke="midnightblue" points="253.831,-34.1664 243.517,-36.5912 253.092,-41.1273 253.831,-34.1664"/>
</g>
<!-- Node6 -->
<g id="node6" class="node"><title>Node6</title>
<g id="a_node6"><a xlink:href="d3/d81/classturtle_1_1draw_1_1_turn_transition.html" target="_top" xlink:title="turtle.draw.TurnTransition">
<polygon fill="white" stroke="black" points="285,-0.5 285,-19.5 419,-19.5 419,-0.5 285,-0.5"/>
<text text-anchor="middle" x="352" y="-7.5" font-family="Helvetica,sans-Serif" font-size="10.00">turtle.draw.TurnTransition</text>
</a>
</g>
</g>
<!-- Node2&#45;&gt;Node6 -->
<g id="edge5" class="edge"><title>Node2&#45;&gt;Node6</title>
<path fill="none" stroke="midnightblue" d="M253.506,-20.3485C263.991,-19.2356 274.623,-18.107 284.822,-17.0245"/>
<polygon fill="midnightblue" stroke="midnightblue" points="253.092,-16.8727 243.517,-21.4088 253.831,-23.8336 253.092,-16.8727"/>
</g>
<!-- Node4 -->
<g id="node4" class="node"><title>Node4</title>
<g id="a_node4"><a xlink:href="de/d1a/classturtle_1_1draw_1_1_move_transition.html" target="_top" xlink:title="turtle.draw.MoveTransition">
<polygon fill="white" stroke="black" points="460,-57.5 460,-76.5 600,-76.5 600,-57.5 460,-57.5"/>
<text text-anchor="middle" x="530" y="-64.5" font-family="Helvetica,sans-Serif" font-size="10.00">turtle.draw.MoveTransition</text>
</a>
</g>
</g>
<!-- Node3&#45;&gt;Node4 -->
<g id="edge3" class="edge"><title>Node3&#45;&gt;Node4</title>
<path fill="none" stroke="midnightblue" d="M434.141,-56.7595C442.764,-57.6904 451.475,-58.6309 459.941,-59.5448"/>
<polygon fill="midnightblue" stroke="midnightblue" points="434.397,-53.2669 424.079,-55.6733 433.645,-60.2264 434.397,-53.2669"/>
</g>
<!-- Node5 -->
<g id="node5" class="node"><title>Node5</title>
<g id="a_node5"><a xlink:href="d8/dde/classturtle_1_1draw_1_1_pen_transition.html" target="_top" xlink:title="turtle.draw.PenTransition">
<polygon fill="white" stroke="black" points="463.5,-19.5 463.5,-38.5 596.5,-38.5 596.5,-19.5 463.5,-19.5"/>
<text text-anchor="middle" x="530" y="-26.5" font-family="Helvetica,sans-Serif" font-size="10.00">turtle.draw.PenTransition</text>
</a>
</g>
</g>
<!-- Node3&#45;&gt;Node5 -->
<g id="edge4" class="edge"><title>Node3&#45;&gt;Node5</title>
<path fill="none" stroke="midnightblue" d="M434.195,-39.2346C443.962,-38.1803 453.841,-37.1138 463.347,-36.0876"/>
<polygon fill="midnightblue" stroke="midnightblue" points="433.645,-35.7736 424.079,-40.3267 434.397,-42.7331 433.645,-35.7736"/>
</g>
</g>
</svg>
