<?xml version="1.0" encoding="UTF-8" standalone="no"?>
<!DOCTYPE svg PUBLIC "-//W3C//DTD SVG 1.1//EN"
 "http://www.w3.org/Graphics/SVG/1.1/DTD/svg11.dtd">
<!-- Generated by graphviz version 2.36.0 (20140111.2315)
 -->
<!-- Title: viewcontroller.HelpDialogBox.HelpDialogBox Pages: 1 -->
<svg width="502pt" height="87pt"
 viewBox="0.00 0.00 502.00 87.00" xmlns="http://www.w3.org/2000/svg" xmlns:xlink="http://www.w3.org/1999/xlink">
<g id="graph0" class="graph" transform="scale(1 1) rotate(0) translate(4 83)">
<title>viewcontroller.HelpDialogBox.HelpDialogBox</title>
<polygon fill="white" stroke="none" points="-4,4 -4,-83 498,-83 498,4 -4,4"/>
<!-- Node1 -->
<g id="node1" class="node"><title>Node1</title>
<polygon fill="#bfbfbf" stroke="black" points="0,-24 0,-54 136,-54 136,-24 0,-24"/>
<text text-anchor="start" x="8" y="-42" font-family="Helvetica,sans-Serif" font-size="10.00">viewcontroller.HelpDialog</text>
<text text-anchor="middle" x="68" y="-31" font-family="Helvetica,sans-Serif" font-size="10.00">Box.HelpDialogBox</text>
</g>
<!-- Node2 -->
<g id="node2" class="node"><title>Node2</title>
<g id="a_node2"><a xlink:href="../../d2/d70/classviewcontroller_1_1_help_dialog_box.html#a05b8ebf6c387efce51cc5accf51fbe92" target="_top" xlink:title="viewcontroller.HelpDialog\lBox.setUpGUIStrings">
<polygon fill="white" stroke="black" points="172,-24 172,-54 308,-54 308,-24 172,-24"/>
<text text-anchor="start" x="180" y="-42" font-family="Helvetica,sans-Serif" font-size="10.00">viewcontroller.HelpDialog</text>
<text text-anchor="middle" x="240" y="-31" font-family="Helvetica,sans-Serif" font-size="10.00">Box.setUpGUIStrings</text>
</a>
</g>
</g>
<!-- Node1&#45;&gt;Node2 -->
<g id="edge1" class="edge"><title>Node1&#45;&gt;Node2</title>
<path fill="none" stroke="midnightblue" d="M136.189,-39C144.502,-39 153.054,-39 161.506,-39"/>
<polygon fill="midnightblue" stroke="midnightblue" points="161.743,-42.5001 171.743,-39 161.743,-35.5001 161.743,-42.5001"/>
</g>
<!-- Node3 -->
<g id="node3" class="node"><title>Node3</title>
<g id="a_node3"><a xlink:href="../../d9/dd7/classviewcontroller_1_1_g_u_i_reference_library.html#a2d8ffb6288603b1a5fb456a23f5dcb70" target="_top" xlink:title="viewcontroller.GUIReference\lLibrary.setHelpReference">
<polygon fill="white" stroke="black" points="344.5,-49 344.5,-79 493.5,-79 493.5,-49 344.5,-49"/>
<text text-anchor="start" x="352.5" y="-67" font-family="Helvetica,sans-Serif" font-size="10.00">viewcontroller.GUIReference</text>
<text text-anchor="middle" x="419" y="-56" font-family="Helvetica,sans-Serif" font-size="10.00">Library.setHelpReference</text>
</a>
</g>
</g>
<!-- Node2&#45;&gt;Node3 -->
<g id="edge2" class="edge"><title>Node2&#45;&gt;Node3</title>
<path fill="none" stroke="midnightblue" d="M308.168,-48.4871C316.766,-49.7014 325.65,-50.9562 334.467,-52.2015"/>
<polygon fill="midnightblue" stroke="midnightblue" points="333.984,-55.668 344.375,-53.601 334.963,-48.7368 333.984,-55.668"/>
</g>
<!-- Node4 -->
<g id="node4" class="node"><title>Node4</title>
<g id="a_node4"><a xlink:href="../../d9/dd7/classviewcontroller_1_1_g_u_i_reference_library.html#acfd508a395e8074cf2a2bf485f57faf0" target="_top" xlink:title="viewcontroller.GUIReference\lLibrary.getURL">
<polygon fill="white" stroke="black" points="344.5,-0 344.5,-30 493.5,-30 493.5,-0 344.5,-0"/>
<text text-anchor="start" x="352.5" y="-18" font-family="Helvetica,sans-Serif" font-size="10.00">viewcontroller.GUIReference</text>
<text text-anchor="middle" x="419" y="-7" font-family="Helvetica,sans-Serif" font-size="10.00">Library.getURL</text>
</a>
</g>
</g>
<!-- Node2&#45;&gt;Node4 -->
<g id="edge3" class="edge"><title>Node2&#45;&gt;Node4</title>
<path fill="none" stroke="midnightblue" d="M308.168,-29.8924C316.674,-28.7392 325.459,-27.548 334.182,-26.3651"/>
<polygon fill="midnightblue" stroke="midnightblue" points="334.936,-29.795 344.375,-24.983 333.996,-22.8585 334.936,-29.795"/>
</g>
</g>
</svg>
