<?xml version="1.0" encoding="UTF-8" standalone="no"?>
<!DOCTYPE svg PUBLIC "-//W3C//DTD SVG 1.1//EN"
 "http://www.w3.org/Graphics/SVG/1.1/DTD/svg11.dtd">
<!-- Generated by graphviz version 2.36.0 (20140111.2315)
 -->
<!-- Title: viewcontroller.HelpDialogBox.setUpGUIStrings Pages: 1 -->
<svg width="330pt" height="87pt"
 viewBox="0.00 0.00 330.00 87.00" xmlns="http://www.w3.org/2000/svg" xmlns:xlink="http://www.w3.org/1999/xlink">
<g id="graph0" class="graph" transform="scale(1 1) rotate(0) translate(4 83)">
<title>viewcontroller.HelpDialogBox.setUpGUIStrings</title>
<polygon fill="white" stroke="none" points="-4,4 -4,-83 326,-83 326,4 -4,4"/>
<!-- Node1 -->
<g id="node1" class="node"><title>Node1</title>
<polygon fill="#bfbfbf" stroke="black" points="0,-24 0,-54 136,-54 136,-24 0,-24"/>
<text text-anchor="start" x="8" y="-42" font-family="Helvetica,sans-Serif" font-size="10.00">viewcontroller.HelpDialog</text>
<text text-anchor="middle" x="68" y="-31" font-family="Helvetica,sans-Serif" font-size="10.00">Box.setUpGUIStrings</text>
</g>
<!-- Node2 -->
<g id="node2" class="node"><title>Node2</title>
<g id="a_node2"><a xlink:href="../../d9/dd7/classviewcontroller_1_1_g_u_i_reference_library.html#acfd508a395e8074cf2a2bf485f57faf0" target="_top" xlink:title="viewcontroller.GUIReference\lLibrary.getURL">
<polygon fill="white" stroke="black" points="172.5,-49 172.5,-79 321.5,-79 321.5,-49 172.5,-49"/>
<text text-anchor="start" x="180.5" y="-67" font-family="Helvetica,sans-Serif" font-size="10.00">viewcontroller.GUIReference</text>
<text text-anchor="middle" x="247" y="-56" font-family="Helvetica,sans-Serif" font-size="10.00">Library.getURL</text>
</a>
</g>
</g>
<!-- Node1&#45;&gt;Node2 -->
<g id="edge1" class="edge"><title>Node1&#45;&gt;Node2</title>
<path fill="none" stroke="midnightblue" d="M136.168,-48.4871C144.766,-49.7014 153.65,-50.9562 162.467,-52.2015"/>
<polygon fill="midnightblue" stroke="midnightblue" points="161.984,-55.668 172.375,-53.601 162.963,-48.7368 161.984,-55.668"/>
</g>
<!-- Node3 -->
<g id="node3" class="node"><title>Node3</title>
<g id="a_node3"><a xlink:href="../../d9/dd7/classviewcontroller_1_1_g_u_i_reference_library.html#a2d8ffb6288603b1a5fb456a23f5dcb70" target="_top" xlink:title="viewcontroller.GUIReference\lLibrary.setHelpReference">
<polygon fill="white" stroke="black" points="172.5,-0 172.5,-30 321.5,-30 321.5,-0 172.5,-0"/>
<text text-anchor="start" x="180.5" y="-18" font-family="Helvetica,sans-Serif" font-size="10.00">viewcontroller.GUIReference</text>
<text text-anchor="middle" x="247" y="-7" font-family="Helvetica,sans-Serif" font-size="10.00">Library.setHelpReference</text>
</a>
</g>
</g>
<!-- Node1&#45;&gt;Node3 -->
<g id="edge2" class="edge"><title>Node1&#45;&gt;Node3</title>
<path fill="none" stroke="midnightblue" d="M136.168,-29.8924C144.674,-28.7392 153.459,-27.548 162.182,-26.3651"/>
<polygon fill="midnightblue" stroke="midnightblue" points="162.936,-29.795 172.375,-24.983 161.996,-22.8585 162.936,-29.795"/>
</g>
</g>
</svg>
