<?xml version="1.0" encoding="UTF-8" standalone="no"?>
<!DOCTYPE svg PUBLIC "-//W3C//DTD SVG 1.1//EN"
 "http://www.w3.org/Graphics/SVG/1.1/DTD/svg11.dtd">
<!-- Generated by graphviz version 2.36.0 (20140111.2315)
 -->
<!-- Title: model.MainModel.getTurtles Pages: 1 -->
<svg width="376pt" height="430pt"
 viewBox="0.00 0.00 376.00 430.00" xmlns="http://www.w3.org/2000/svg" xmlns:xlink="http://www.w3.org/1999/xlink">
<g id="graph0" class="graph" transform="scale(1 1) rotate(0) translate(4 426)">
<title>model.MainModel.getTurtles</title>
<polygon fill="white" stroke="none" points="-4,4 -4,-426 372,-426 372,4 -4,4"/>
<!-- Node1 -->
<g id="node1" class="node"><title>Node1</title>
<polygon fill="#bfbfbf" stroke="black" points="0,-201.5 0,-220.5 150,-220.5 150,-201.5 0,-201.5"/>
<text text-anchor="middle" x="75" y="-208.5" font-family="Helvetica,sans-Serif" font-size="10.00">model.MainModel.getTurtles</text>
</g>
<!-- Node2 -->
<g id="node2" class="node"><title>Node2</title>
<g id="a_node2"><a xlink:href="../../db/d56/classinterpreter_1_1expression_1_1query_1_1_y_coordinate.html#af2ff7c3f2cf195ad7d3d0cfe665e9b6d" target="_top" xlink:title="interpreter.expression.query.\lYCoordinate.getValueFromModel">
<polygon fill="white" stroke="black" points="191.5,-392 191.5,-422 362.5,-422 362.5,-392 191.5,-392"/>
<text text-anchor="start" x="199.5" y="-410" font-family="Helvetica,sans-Serif" font-size="10.00">interpreter.expression.query.</text>
<text text-anchor="middle" x="277" y="-399" font-family="Helvetica,sans-Serif" font-size="10.00">YCoordinate.getValueFromModel</text>
</a>
</g>
</g>
<!-- Node1&#45;&gt;Node2 -->
<g id="edge1" class="edge"><title>Node1&#45;&gt;Node2</title>
<path fill="none" stroke="midnightblue" d="M83.1278,-230.616C97.1261,-266.328 131.661,-341.958 186,-382 191.222,-385.848 197.009,-389.104 203.058,-391.859"/>
<polygon fill="midnightblue" stroke="midnightblue" points="86.2612,-229.008 79.4436,-220.898 79.7158,-231.489 86.2612,-229.008"/>
</g>
<!-- Node3 -->
<g id="node3" class="node"><title>Node3</title>
<g id="a_node3"><a xlink:href="../../d4/da7/classinterpreter_1_1expression_1_1query_1_1_x_coordinate.html#a72c6f55cac6a1b0b250186f08cfdff89" target="_top" xlink:title="interpreter.expression.query.\lXCoordinate.getValueFromModel">
<polygon fill="white" stroke="black" points="191,-343 191,-373 363,-373 363,-343 191,-343"/>
<text text-anchor="start" x="199" y="-361" font-family="Helvetica,sans-Serif" font-size="10.00">interpreter.expression.query.</text>
<text text-anchor="middle" x="277" y="-350" font-family="Helvetica,sans-Serif" font-size="10.00">XCoordinate.getValueFromModel</text>
</a>
</g>
</g>
<!-- Node1&#45;&gt;Node3 -->
<g id="edge2" class="edge"><title>Node1&#45;&gt;Node3</title>
<path fill="none" stroke="midnightblue" d="M87.3153,-229.024C105.051,-255.776 141.959,-305.755 186,-333 192.206,-336.839 199.011,-340.101 206.013,-342.87"/>
<polygon fill="midnightblue" stroke="midnightblue" points="90.2361,-227.096 81.8615,-220.606 84.3612,-230.902 90.2361,-227.096"/>
</g>
<!-- Node4 -->
<g id="node4" class="node"><title>Node4</title>
<g id="a_node4"><a xlink:href="../../da/d9f/classinterpreter_1_1expression_1_1query_1_1_heading.html#ab942ca0f973090af808a9e908041c2fe" target="_top" xlink:title="interpreter.expression.query.\lHeading.getValueFromModel">
<polygon fill="white" stroke="black" points="200,-294 200,-324 354,-324 354,-294 200,-294"/>
<text text-anchor="start" x="208" y="-312" font-family="Helvetica,sans-Serif" font-size="10.00">interpreter.expression.query.</text>
<text text-anchor="middle" x="277" y="-301" font-family="Helvetica,sans-Serif" font-size="10.00">Heading.getValueFromModel</text>
</a>
</g>
</g>
<!-- Node1&#45;&gt;Node4 -->
<g id="edge3" class="edge"><title>Node1&#45;&gt;Node4</title>
<path fill="none" stroke="midnightblue" d="M95.7061,-226.879C116.888,-243.253 152.101,-268.518 186,-284 194.261,-287.773 203.214,-291.091 212.161,-293.974"/>
<polygon fill="midnightblue" stroke="midnightblue" points="97.8173,-224.087 87.7899,-220.666 93.4954,-229.593 97.8173,-224.087"/>
</g>
<!-- Node5 -->
<g id="node5" class="node"><title>Node5</title>
<g id="a_node5"><a xlink:href="../../dc/d20/classinterpreter_1_1expression_1_1query_1_1_is_pen_down.html#a3d1074c1445e050262a52fe7c0a4bdcc" target="_top" xlink:title="interpreter.expression.query.\lIsPenDown.getValueFromModel">
<polygon fill="white" stroke="black" points="194,-245 194,-275 360,-275 360,-245 194,-245"/>
<text text-anchor="start" x="202" y="-263" font-family="Helvetica,sans-Serif" font-size="10.00">interpreter.expression.query.</text>
<text text-anchor="middle" x="277" y="-252" font-family="Helvetica,sans-Serif" font-size="10.00">IsPenDown.getValueFromModel</text>
</a>
</g>
</g>
<!-- Node1&#45;&gt;Node5 -->
<g id="edge4" class="edge"><title>Node1&#45;&gt;Node5</title>
<path fill="none" stroke="midnightblue" d="M125.038,-223.014C152.061,-229.635 185.862,-237.916 214.625,-244.963"/>
<polygon fill="midnightblue" stroke="midnightblue" points="125.582,-219.544 115.037,-220.564 123.917,-226.343 125.582,-219.544"/>
</g>
<!-- Node6 -->
<g id="node6" class="node"><title>Node6</title>
<g id="a_node6"><a xlink:href="../../da/dc0/classinterpreter_1_1expression_1_1query_1_1_is_showing.html#aa000ee16c00de7539e56f68484cfdbee" target="_top" xlink:title="interpreter.expression.query.\lIsShowing.getValueFromModel">
<polygon fill="white" stroke="black" points="196.5,-196 196.5,-226 357.5,-226 357.5,-196 196.5,-196"/>
<text text-anchor="start" x="204.5" y="-214" font-family="Helvetica,sans-Serif" font-size="10.00">interpreter.expression.query.</text>
<text text-anchor="middle" x="277" y="-203" font-family="Helvetica,sans-Serif" font-size="10.00">IsShowing.getValueFromModel</text>
</a>
</g>
</g>
<!-- Node1&#45;&gt;Node6 -->
<g id="edge5" class="edge"><title>Node1&#45;&gt;Node6</title>
<path fill="none" stroke="midnightblue" d="M160.5,-211C172.34,-211 184.478,-211 196.227,-211"/>
<polygon fill="midnightblue" stroke="midnightblue" points="160.188,-207.5 150.188,-211 160.188,-214.5 160.188,-207.5"/>
</g>
<!-- Node7 -->
<g id="node7" class="node"><title>Node7</title>
<g id="a_node7"><a xlink:href="../../d0/d8c/classinterpreter_1_1expression_1_1singleturtle_1_1_set_position.html#a4f3ed8fd9fe9f9e8ef1204cd22a970ae" target="_top" xlink:title="interpreter.expression.singleturtle.\lSetPosition.setNextTransition">
<polygon fill="white" stroke="black" points="186.5,-147 186.5,-177 367.5,-177 367.5,-147 186.5,-147"/>
<text text-anchor="start" x="194.5" y="-165" font-family="Helvetica,sans-Serif" font-size="10.00">interpreter.expression.singleturtle.</text>
<text text-anchor="middle" x="277" y="-154" font-family="Helvetica,sans-Serif" font-size="10.00">SetPosition.setNextTransition</text>
</a>
</g>
</g>
<!-- Node1&#45;&gt;Node7 -->
<g id="edge6" class="edge"><title>Node1&#45;&gt;Node7</title>
<path fill="none" stroke="midnightblue" d="M125.038,-198.986C152.061,-192.365 185.862,-184.084 214.625,-177.037"/>
<polygon fill="midnightblue" stroke="midnightblue" points="123.917,-195.657 115.037,-201.436 125.582,-202.456 123.917,-195.657"/>
</g>
<!-- Node8 -->
<g id="node8" class="node"><title>Node8</title>
<g id="a_node8"><a xlink:href="../../db/d39/classinterpreter_1_1expression_1_1singleturtle_1_1_set_heading.html#a207b372efc689ebd78913d8e9014942e" target="_top" xlink:title="interpreter.expression.singleturtle.\lSetHeading.setNextTransition">
<polygon fill="white" stroke="black" points="186.5,-98 186.5,-128 367.5,-128 367.5,-98 186.5,-98"/>
<text text-anchor="start" x="194.5" y="-116" font-family="Helvetica,sans-Serif" font-size="10.00">interpreter.expression.singleturtle.</text>
<text text-anchor="middle" x="277" y="-105" font-family="Helvetica,sans-Serif" font-size="10.00">SetHeading.setNextTransition</text>
</a>
</g>
</g>
<!-- Node1&#45;&gt;Node8 -->
<g id="edge7" class="edge"><title>Node1&#45;&gt;Node8</title>
<path fill="none" stroke="midnightblue" d="M95.7061,-195.121C116.888,-178.747 152.101,-153.482 186,-138 194.261,-134.227 203.214,-130.909 212.161,-128.026"/>
<polygon fill="midnightblue" stroke="midnightblue" points="93.4954,-192.407 87.7899,-201.334 97.8173,-197.913 93.4954,-192.407"/>
</g>
<!-- Node9 -->
<g id="node9" class="node"><title>Node9</title>
<g id="a_node9"><a xlink:href="../../d2/d0f/classinterpreter_1_1expression_1_1display_1_1_set_pen_size.html#a879ce3ecf7602c9c2615fa4d9e1209c3" target="_top" xlink:title="interpreter.expression.display.\lSetPenSize.setPenSize">
<polygon fill="white" stroke="black" points="197.5,-49 197.5,-79 356.5,-79 356.5,-49 197.5,-49"/>
<text text-anchor="start" x="205.5" y="-67" font-family="Helvetica,sans-Serif" font-size="10.00">interpreter.expression.display.</text>
<text text-anchor="middle" x="277" y="-56" font-family="Helvetica,sans-Serif" font-size="10.00">SetPenSize.setPenSize</text>
</a>
</g>
</g>
<!-- Node1&#45;&gt;Node9 -->
<g id="edge8" class="edge"><title>Node1&#45;&gt;Node9</title>
<path fill="none" stroke="midnightblue" d="M87.3153,-192.976C105.051,-166.224 141.959,-116.245 186,-89 192.206,-85.1608 199.011,-81.8988 206.013,-79.1298"/>
<polygon fill="midnightblue" stroke="midnightblue" points="84.3612,-191.098 81.8615,-201.394 90.2361,-194.904 84.3612,-191.098"/>
</g>
<!-- Node10 -->
<g id="node10" class="node"><title>Node10</title>
<g id="a_node10"><a xlink:href="../../d5/dcc/classviewcontroller_1_1turtlegrid_1_1_grid_view_controller.html#ac4cf56a8a55a4d56d47a946719dfbc8e" target="_top" xlink:title="viewcontroller.turtlegrid.\lGridViewController.update">
<polygon fill="white" stroke="black" points="207,-0 207,-30 347,-30 347,-0 207,-0"/>
<text text-anchor="start" x="215" y="-18" font-family="Helvetica,sans-Serif" font-size="10.00">viewcontroller.turtlegrid.</text>
<text text-anchor="middle" x="277" y="-7" font-family="Helvetica,sans-Serif" font-size="10.00">GridViewController.update</text>
</a>
</g>
</g>
<!-- Node1&#45;&gt;Node10 -->
<g id="edge9" class="edge"><title>Node1&#45;&gt;Node10</title>
<path fill="none" stroke="midnightblue" d="M83.1278,-191.384C97.1261,-155.672 131.661,-80.042 186,-40 192.266,-35.3824 199.347,-31.6175 206.716,-28.5478"/>
<polygon fill="midnightblue" stroke="midnightblue" points="79.7158,-190.511 79.4436,-201.102 86.2612,-192.992 79.7158,-190.511"/>
</g>
</g>
</svg>
