<?xml version="1.0" encoding="UTF-8" standalone="no"?>
<!DOCTYPE svg PUBLIC "-//W3C//DTD SVG 1.1//EN"
 "http://www.w3.org/Graphics/SVG/1.1/DTD/svg11.dtd">
<!-- Generated by graphviz version 2.36.0 (20140111.2315)
 -->
<!-- Title: model.MainModel.redoClicked Pages: 1 -->
<svg width="570pt" height="106pt"
 viewBox="0.00 0.00 570.00 105.70" xmlns="http://www.w3.org/2000/svg" xmlns:xlink="http://www.w3.org/1999/xlink">
<g id="graph0" class="graph" transform="scale(1 1) rotate(0) translate(4 101.701)">
<title>model.MainModel.redoClicked</title>
<polygon fill="white" stroke="none" points="-4,4 -4,-101.701 566,-101.701 566,4 -4,4"/>
<!-- Node1 -->
<g id="node1" class="node"><title>Node1</title>
<polygon fill="#bfbfbf" stroke="black" points="0.5,-35.2006 0.5,-54.2006 159.5,-54.2006 159.5,-35.2006 0.5,-35.2006"/>
<text text-anchor="middle" x="80" y="-42.2006" font-family="Helvetica,sans-Serif" font-size="10.00">model.MainModel.redoClicked</text>
</g>
<!-- Node2 -->
<g id="node2" class="node"><title>Node2</title>
<g id="a_node2"><a xlink:href="../../d5/d4b/classturtle_1_1_turtle_history_state.html#a819af201b267b72af77d41bc672d60b7" target="_top" xlink:title="turtle.TurtleHistoryState.get\lAnimation">
<polygon fill="white" stroke="black" points="412.5,-67.7006 412.5,-97.7006 561.5,-97.7006 561.5,-67.7006 412.5,-67.7006"/>
<text text-anchor="start" x="420.5" y="-85.7006" font-family="Helvetica,sans-Serif" font-size="10.00">turtle.TurtleHistoryState.get</text>
<text text-anchor="middle" x="487" y="-74.7006" font-family="Helvetica,sans-Serif" font-size="10.00">Animation</text>
</a>
</g>
</g>
<!-- Node1&#45;&gt;Node2 -->
<g id="edge1" class="edge"><title>Node1&#45;&gt;Node2</title>
<path fill="none" stroke="midnightblue" d="M102.948,-54.2935C125.708,-63.6784 162.577,-77.3215 196,-82.7006 264.814,-93.7754 344.009,-92.8723 402.234,-89.7073"/>
<polygon fill="midnightblue" stroke="midnightblue" points="402.706,-93.1859 412.488,-89.1148 402.302,-86.1976 402.706,-93.1859"/>
</g>
<!-- Node3 -->
<g id="node3" class="node"><title>Node3</title>
<g id="a_node3"><a xlink:href="../../d5/d4b/classturtle_1_1_turtle_history_state.html#a6ef2f21cc6638628e67e324582883428" target="_top" xlink:title="turtle.TurtleHistoryState.get\lLines">
<polygon fill="white" stroke="black" points="412.5,-5.70062 412.5,-35.7006 561.5,-35.7006 561.5,-5.70062 412.5,-5.70062"/>
<text text-anchor="start" x="420.5" y="-23.7006" font-family="Helvetica,sans-Serif" font-size="10.00">turtle.TurtleHistoryState.get</text>
<text text-anchor="middle" x="487" y="-12.7006" font-family="Helvetica,sans-Serif" font-size="10.00">Lines</text>
</a>
</g>
</g>
<!-- Node1&#45;&gt;Node3 -->
<g id="edge2" class="edge"><title>Node1&#45;&gt;Node3</title>
<path fill="none" stroke="midnightblue" d="M102.948,-35.1078C125.708,-25.7228 162.577,-12.0797 196,-6.70062 264.777,4.36821 343.813,-0.594183 401.987,-7.50473"/>
<polygon fill="midnightblue" stroke="midnightblue" points="401.88,-11.018 412.233,-8.76751 402.736,-4.07052 401.88,-11.018"/>
</g>
<!-- Node4 -->
<g id="node4" class="node"><title>Node4</title>
<g id="a_node4"><a xlink:href="../../de/d21/classmodel_1_1_main_model.html#a81fd23aa152cf9311abb569fa3c656fb" target="_top" xlink:title="model.MainModel.notifyObservers">
<polygon fill="white" stroke="black" points="196.5,-16.2006 196.5,-35.2006 375.5,-35.2006 375.5,-16.2006 196.5,-16.2006"/>
<text text-anchor="middle" x="286" y="-23.2006" font-family="Helvetica,sans-Serif" font-size="10.00">model.MainModel.notifyObservers</text>
</a>
</g>
</g>
<!-- Node1&#45;&gt;Node4 -->
<g id="edge3" class="edge"><title>Node1&#45;&gt;Node4</title>
<path fill="none" stroke="midnightblue" d="M159.58,-37.3819C168.306,-36.5692 177.273,-35.734 186.208,-34.9018"/>
<polygon fill="midnightblue" stroke="midnightblue" points="186.635,-38.3773 196.267,-33.9649 185.986,-31.4075 186.635,-38.3773"/>
</g>
<!-- Node5 -->
<g id="node5" class="node"><title>Node5</title>
<g id="a_node5"><a xlink:href="../../d4/d57/classturtle_1_1_turtle_list_history.html#a38bde8e8aef6a8454244e1014db8cb17" target="_top" xlink:title="turtle.TurtleListHistory.redo">
<polygon fill="white" stroke="black" points="214,-54.2006 214,-73.2006 358,-73.2006 358,-54.2006 214,-54.2006"/>
<text text-anchor="middle" x="286" y="-61.2006" font-family="Helvetica,sans-Serif" font-size="10.00">turtle.TurtleListHistory.redo</text>
</a>
</g>
</g>
<!-- Node1&#45;&gt;Node5 -->
<g id="edge4" class="edge"><title>Node1&#45;&gt;Node5</title>
<path fill="none" stroke="midnightblue" d="M159.58,-52.0193C174.08,-53.3698 189.248,-54.7825 203.823,-56.14"/>
<polygon fill="midnightblue" stroke="midnightblue" points="203.522,-59.627 213.803,-57.0696 204.171,-52.6572 203.522,-59.627"/>
</g>
<!-- Node5&#45;&gt;Node2 -->
<g id="edge5" class="edge"><title>Node5&#45;&gt;Node2</title>
<path fill="none" stroke="midnightblue" d="M358.001,-70.4796C372.33,-71.8477 387.521,-73.2981 402.24,-74.7034"/>
<polygon fill="midnightblue" stroke="midnightblue" points="402.051,-78.2012 412.338,-75.6676 402.716,-71.2329 402.051,-78.2012"/>
</g>
<!-- Node5&#45;&gt;Node3 -->
<g id="edge6" class="edge"><title>Node5&#45;&gt;Node3</title>
<path fill="none" stroke="midnightblue" d="M331.828,-54.1715C345.964,-51.1557 361.637,-47.8006 376,-44.7006 386.135,-42.5131 396.794,-40.2016 407.323,-37.9115"/>
<polygon fill="midnightblue" stroke="midnightblue" points="408.33,-41.2742 417.357,-35.7271 406.841,-34.4344 408.33,-41.2742"/>
</g>
</g>
</svg>
