<?xml version="1.0" encoding="UTF-8" standalone="no"?>
<!DOCTYPE svg PUBLIC "-//W3C//DTD SVG 1.1//EN"
 "http://www.w3.org/Graphics/SVG/1.1/DTD/svg11.dtd">
<!-- Generated by graphviz version 2.36.0 (20140111.2315)
 -->
<!-- Title: model.MainModel.updatePenColor Pages: 1 -->
<svg width="808pt" height="48pt"
 viewBox="0.00 0.00 808.00 48.00" xmlns="http://www.w3.org/2000/svg" xmlns:xlink="http://www.w3.org/1999/xlink">
<g id="graph0" class="graph" transform="scale(1 1) rotate(0) translate(4 44)">
<title>model.MainModel.updatePenColor</title>
<polygon fill="white" stroke="none" points="-4,4 -4,-44 804,-44 804,4 -4,4"/>
<!-- Node1 -->
<g id="node1" class="node"><title>Node1</title>
<polygon fill="#bfbfbf" stroke="black" points="0.5,-5 0.5,-35 155.5,-35 155.5,-5 0.5,-5"/>
<text text-anchor="start" x="8.5" y="-23" font-family="Helvetica,sans-Serif" font-size="10.00">model.MainModel.updatePen</text>
<text text-anchor="middle" x="78" y="-12" font-family="Helvetica,sans-Serif" font-size="10.00">Color</text>
</g>
<!-- Node2 -->
<g id="node2" class="node"><title>Node2</title>
<g id="a_node2"><a xlink:href="../../d3/d67/classviewcontroller_1_1_main_view_controller.html#acdf600eb8fbec8c663ae15d9d88e9882" target="_top" xlink:title="viewcontroller.MainViewController.pen\lColorChanged">
<polygon fill="white" stroke="black" points="192.5,-5 192.5,-35 387.5,-35 387.5,-5 192.5,-5"/>
<text text-anchor="start" x="200.5" y="-23" font-family="Helvetica,sans-Serif" font-size="10.00">viewcontroller.MainViewController.pen</text>
<text text-anchor="middle" x="290" y="-12" font-family="Helvetica,sans-Serif" font-size="10.00">ColorChanged</text>
</a>
</g>
</g>
<!-- Node1&#45;&gt;Node2 -->
<g id="edge1" class="edge"><title>Node1&#45;&gt;Node2</title>
<path fill="none" stroke="midnightblue" d="M165.9,-20C174.665,-20 183.603,-20 192.46,-20"/>
<polygon fill="midnightblue" stroke="midnightblue" points="165.706,-16.5001 155.706,-20 165.706,-23.5001 165.706,-16.5001"/>
</g>
<!-- Node3 -->
<g id="node3" class="node"><title>Node3</title>
<g id="a_node3"><a xlink:href="../../d3/daf/classviewcontroller_1_1turtlegrid_1_1_turtle_window_view_controller.html#a1b7bacbdd2f48f2b80c1ce40380b7602" target="_top" xlink:title="viewcontroller.turtlegrid.\lTurtleWindowViewController.pen\lColorChanged">
<polygon fill="white" stroke="black" points="424,0.5 424,-40.5 590,-40.5 590,0.5 424,0.5"/>
<text text-anchor="start" x="432" y="-28.5" font-family="Helvetica,sans-Serif" font-size="10.00">viewcontroller.turtlegrid.</text>
<text text-anchor="start" x="432" y="-17.5" font-family="Helvetica,sans-Serif" font-size="10.00">TurtleWindowViewController.pen</text>
<text text-anchor="middle" x="507" y="-6.5" font-family="Helvetica,sans-Serif" font-size="10.00">ColorChanged</text>
</a>
</g>
</g>
<!-- Node2&#45;&gt;Node3 -->
<g id="edge2" class="edge"><title>Node2&#45;&gt;Node3</title>
<path fill="none" stroke="midnightblue" d="M397.994,-20C406.684,-20 415.378,-20 423.85,-20"/>
<polygon fill="midnightblue" stroke="midnightblue" points="397.808,-16.5001 387.808,-20 397.808,-23.5001 397.808,-16.5001"/>
</g>
<!-- Node4 -->
<g id="node4" class="node"><title>Node4</title>
<g id="a_node4"><a xlink:href="../../d3/daf/classviewcontroller_1_1turtlegrid_1_1_turtle_window_view_controller.html#a732df23c6854ab63ebaac21d105c7072" target="_top" xlink:title="viewcontroller.turtlegrid.\lTurtleWindowViewController.Turtle\lWindowViewController">
<polygon fill="white" stroke="black" points="626.5,0.5 626.5,-40.5 799.5,-40.5 799.5,0.5 626.5,0.5"/>
<text text-anchor="start" x="634.5" y="-28.5" font-family="Helvetica,sans-Serif" font-size="10.00">viewcontroller.turtlegrid.</text>
<text text-anchor="start" x="634.5" y="-17.5" font-family="Helvetica,sans-Serif" font-size="10.00">TurtleWindowViewController.Turtle</text>
<text text-anchor="middle" x="713" y="-6.5" font-family="Helvetica,sans-Serif" font-size="10.00">WindowViewController</text>
</a>
</g>
</g>
<!-- Node3&#45;&gt;Node4 -->
<g id="edge3" class="edge"><title>Node3&#45;&gt;Node4</title>
<path fill="none" stroke="midnightblue" d="M600.256,-20C608.965,-20 617.769,-20 626.412,-20"/>
<polygon fill="midnightblue" stroke="midnightblue" points="600.093,-16.5001 590.093,-20 600.093,-23.5001 600.093,-16.5001"/>
</g>
</g>
</svg>
