<?xml version="1.0" encoding="UTF-8" standalone="no"?>
<!DOCTYPE svg PUBLIC "-//W3C//DTD SVG 1.1//EN"
 "http://www.w3.org/Graphics/SVG/1.1/DTD/svg11.dtd">
<!-- Generated by graphviz version 2.36.0 (20140111.2315)
 -->
<!-- Title: model.MainModel.interpretSLogoCommand Pages: 1 -->
<!--zoomable 398 -->
<svg id="main" version="1.1" xmlns="http://www.w3.org/2000/svg" xmlns:xlink="http://www.w3.org/1999/xlink" xml:space="preserve" onload="init(evt)">
<style type="text/css"><![CDATA[
.edge:hover path { stroke: red; }
.edge:hover polygon { stroke: red; fill: red; }
]]></style>
<script type="text/javascript"><![CDATA[
var edges = document.getElementsByTagName('g');
if (edges && edges.length) {
  for (var i=0;i<edges.length;i++) {
    if (edges[i].id.substr(0,4)=='edge') {
      edges[i].setAttribute('class','edge');
    }
  }
}
]]></script>
        <defs>
                <circle id="rim" cx="0" cy="0" r="7"/>
                <circle id="rim2" cx="0" cy="0" r="3.5"/>
                <g id="zoomPlus">
                        <use xlink:href="#rim" fill="#404040">
                                <set attributeName="fill" to="#808080" begin="zoomplus.mouseover" end="zoomplus.mouseout"/>
                        </use>
                        <path d="M-4,0h8M0,-4v8" fill="none" stroke="white" stroke-width="1.5" pointer-events="none"/>
                </g>
                <g id="zoomMin">
                        <use xlink:href="#rim" fill="#404040">
                                <set attributeName="fill" to="#808080" begin="zoomminus.mouseover" end="zoomminus.mouseout"/>
                        </use>
                        <path d="M-4,0h8" fill="none" stroke="white" stroke-width="1.5" pointer-events="none"/>
                </g>
                <g id="dirArrow">
                        <path fill="none" stroke="white" stroke-width="1.5" d="M0,-3.0v7 M-2.5,-0.5L0,-3.0L2.5,-0.5"/>
                </g>
               <g id="resetDef">
                       <use xlink:href="#rim2" fill="#404040">
                               <set attributeName="fill" to="#808080" begin="reset.mouseover" end="reset.mouseout"/>
                       </use>
               </g>
        </defs>

<script type="text/javascript">
var viewWidth = 1870;
var viewHeight = 398;
var sectionId = 'dynsection-18';
</script>
<script xlink:href="../../svgpan.js"/>
<svg id="graph" class="graph">
<g id="viewport">
<title>model.MainModel.interpretSLogoCommand</title>
<polygon fill="white" stroke="none" points="-4,4 -4,-394 1866,-394 1866,4 -4,4"/>
<!-- Node1 -->
<g id="node1" class="node"><title>Node1</title>
<polygon fill="#bfbfbf" stroke="black" points="0.5,-194 0.5,-224 145.5,-224 145.5,-194 0.5,-194"/>
<text text-anchor="start" x="8.5" y="-212" font-family="Helvetica,sans-Serif" font-size="10.00">model.MainModel.interpret</text>
<text text-anchor="middle" x="73" y="-201" font-family="Helvetica,sans-Serif" font-size="10.00">SLogoCommand</text>
</g>
<!-- Node2 -->
<g id="node2" class="node"><title>Node2</title>
<g id="a_node2"><a xlink:href="../../d2/dc7/classinterpreter_1_1_interpreter.html#a824883cfb425679ea2406ecf4d0b7262" target="_top" xlink:title="interpreter.Interpreter.get\lCommandReferenceLibrary">
<polygon fill="white" stroke="black" points="201,-243 201,-273 347,-273 347,-243 201,-243"/>
<text text-anchor="start" x="209" y="-261" font-family="Helvetica,sans-Serif" font-size="10.00">interpreter.Interpreter.get</text>
<text text-anchor="middle" x="274" y="-250" font-family="Helvetica,sans-Serif" font-size="10.00">CommandReferenceLibrary</text>
</a>
</g>
</g>
<!-- Node1&#45;&gt;Node2 -->
<g id="edge1" class="edge"><title>Node1&#45;&gt;Node2</title>
<path fill="none" stroke="midnightblue" d="M135.059,-224.035C156.262,-229.255 180.216,-235.154 202.142,-240.553"/>
<polygon fill="midnightblue" stroke="midnightblue" points="201.51,-244.001 212.057,-242.994 203.183,-237.204 201.51,-244.001"/>
</g>
<!-- Node3 -->
<g id="node3" class="node"><title>Node3</title>
<g id="a_node3"><a xlink:href="../../d5/d09/classinterpreter_1_1_command_reference_library.html#a552ef93cd8eca34ee35926f94e9fbb7e" target="_top" xlink:title="interpreter.CommandReference\lLibrary.getReferencesToCommands">
<polygon fill="white" stroke="black" points="182,-194 182,-224 366,-224 366,-194 182,-194"/>
<text text-anchor="start" x="190" y="-212" font-family="Helvetica,sans-Serif" font-size="10.00">interpreter.CommandReference</text>
<text text-anchor="middle" x="274" y="-201" font-family="Helvetica,sans-Serif" font-size="10.00">Library.getReferencesToCommands</text>
</a>
</g>
</g>
<!-- Node1&#45;&gt;Node3 -->
<g id="edge2" class="edge"><title>Node1&#45;&gt;Node3</title>
<path fill="none" stroke="midnightblue" d="M145.562,-209C154.144,-209 163.028,-209 171.928,-209"/>
<polygon fill="midnightblue" stroke="midnightblue" points="171.968,-212.5 181.968,-209 171.968,-205.5 171.968,-212.5"/>
</g>
<!-- Node4 -->
<g id="node4" class="node"><title>Node4</title>
<g id="a_node4"><a xlink:href="../../de/d21/classmodel_1_1_main_model.html#a96f4ff9f640f14d713c5d90ab5704884" target="_top" xlink:title="model.MainModel.interpret\lSLogoCommand">
<polygon fill="white" stroke="black" points="201.5,-145 201.5,-175 346.5,-175 346.5,-145 201.5,-145"/>
<text text-anchor="start" x="209.5" y="-163" font-family="Helvetica,sans-Serif" font-size="10.00">model.MainModel.interpret</text>
<text text-anchor="middle" x="274" y="-152" font-family="Helvetica,sans-Serif" font-size="10.00">SLogoCommand</text>
</a>
</g>
</g>
<!-- Node1&#45;&gt;Node4 -->
<g id="edge3" class="edge"><title>Node1&#45;&gt;Node4</title>
<path fill="none" stroke="midnightblue" d="M135.059,-193.965C156.262,-188.745 180.216,-182.846 202.142,-177.447"/>
<polygon fill="midnightblue" stroke="midnightblue" points="203.183,-180.796 212.057,-175.006 201.51,-173.999 203.183,-180.796"/>
</g>
<!-- Node5 -->
<g id="node5" class="node"><title>Node5</title>
<g id="a_node5"><a xlink:href="../../db/d84/classmodel_1_1_command_history_model.html#a4587f5bb0678f50bfc8bc918d2f28241" target="_top" xlink:title="model.CommandHistoryModel.add\lCommand">
<polygon fill="white" stroke="black" points="402.5,-238 402.5,-268 585.5,-268 585.5,-238 402.5,-238"/>
<text text-anchor="start" x="410.5" y="-256" font-family="Helvetica,sans-Serif" font-size="10.00">model.CommandHistoryModel.add</text>
<text text-anchor="middle" x="494" y="-245" font-family="Helvetica,sans-Serif" font-size="10.00">Command</text>
</a>
</g>
</g>
<!-- Node4&#45;&gt;Node5 -->
<g id="edge4" class="edge"><title>Node4&#45;&gt;Node5</title>
<path fill="none" stroke="midnightblue" d="M346.887,-174.304C353.599,-177 360.091,-180.2 366,-184 387.252,-197.666 380.818,-214.225 402,-228 405.138,-230.04 408.44,-231.916 411.852,-233.639"/>
<polygon fill="midnightblue" stroke="midnightblue" points="410.555,-236.894 421.106,-237.856 413.457,-230.524 410.555,-236.894"/>
</g>
<!-- Node6 -->
<g id="node6" class="node"><title>Node6</title>
<g id="a_node6"><a xlink:href="../../df/df6/classinterpreter_1_1result_1_1_s_logo_result.html#a6047e8ac53bae47b06b7f8daee701c43" target="_top" xlink:title="interpreter.result.SLogo\lResult.getHasError">
<polygon fill="white" stroke="black" points="429,-189 429,-219 559,-219 559,-189 429,-189"/>
<text text-anchor="start" x="437" y="-207" font-family="Helvetica,sans-Serif" font-size="10.00">interpreter.result.SLogo</text>
<text text-anchor="middle" x="494" y="-196" font-family="Helvetica,sans-Serif" font-size="10.00">Result.getHasError</text>
</a>
</g>
</g>
<!-- Node4&#45;&gt;Node6 -->
<g id="edge5" class="edge"><title>Node4&#45;&gt;Node6</title>
<path fill="none" stroke="midnightblue" d="M346.683,-174.468C369.921,-179.158 395.732,-184.368 419.126,-189.09"/>
<polygon fill="midnightblue" stroke="midnightblue" points="418.494,-192.533 428.989,-191.08 419.879,-185.671 418.494,-192.533"/>
</g>
<!-- Node7 -->
<g id="node7" class="node"><title>Node7</title>
<g id="a_node7"><a xlink:href="../../d2/dc7/classinterpreter_1_1_interpreter.html#a2398aed9ce5fd0631e4a61eb0ae7e3eb" target="_top" xlink:title="interpreter.Interpreter.interpret">
<polygon fill="white" stroke="black" points="412,-150.5 412,-169.5 576,-169.5 576,-150.5 412,-150.5"/>
<text text-anchor="middle" x="494" y="-157.5" font-family="Helvetica,sans-Serif" font-size="10.00">interpreter.Interpreter.interpret</text>
</a>
</g>
</g>
<!-- Node4&#45;&gt;Node7 -->
<g id="edge6" class="edge"><title>Node4&#45;&gt;Node7</title>
<path fill="none" stroke="midnightblue" d="M346.683,-160C364.274,-160 383.34,-160 401.716,-160"/>
<polygon fill="midnightblue" stroke="midnightblue" points="401.839,-163.5 411.839,-160 401.839,-156.5 401.839,-163.5"/>
</g>
<!-- Node28 -->
<g id="node28" class="node"><title>Node28</title>
<g id="a_node28"><a xlink:href="../../de/d21/classmodel_1_1_main_model.html#a81fd23aa152cf9311abb569fa3c656fb" target="_top" xlink:title="model.MainModel.notifyObservers">
<polygon fill="white" stroke="black" points="404.5,-112.5 404.5,-131.5 583.5,-131.5 583.5,-112.5 404.5,-112.5"/>
<text text-anchor="middle" x="494" y="-119.5" font-family="Helvetica,sans-Serif" font-size="10.00">model.MainModel.notifyObservers</text>
</a>
</g>
</g>
<!-- Node4&#45;&gt;Node28 -->
<g id="edge27" class="edge"><title>Node4&#45;&gt;Node28</title>
<path fill="none" stroke="midnightblue" d="M346.683,-147.505C372.977,-142.921 402.565,-137.764 428.218,-133.292"/>
<polygon fill="midnightblue" stroke="midnightblue" points="428.959,-136.716 438.209,-131.551 427.757,-129.82 428.959,-136.716"/>
</g>
<!-- Node29 -->
<g id="node29" class="node"><title>Node29</title>
<g id="a_node29"><a xlink:href="../../de/d21/classmodel_1_1_main_model.html#a1863b9ce1cc6b16b0e03dbfc73f51314" target="_top" xlink:title="model.MainModel.updateModel">
<polygon fill="white" stroke="black" points="411,-61.5 411,-80.5 577,-80.5 577,-61.5 411,-61.5"/>
<text text-anchor="middle" x="494" y="-68.5" font-family="Helvetica,sans-Serif" font-size="10.00">model.MainModel.updateModel</text>
</a>
</g>
</g>
<!-- Node4&#45;&gt;Node29 -->
<g id="edge28" class="edge"><title>Node4&#45;&gt;Node29</title>
<path fill="none" stroke="midnightblue" d="M306.522,-144.966C332.03,-133.016 369.008,-116.178 402,-103 418.872,-96.2611 437.786,-89.4871 453.981,-83.918"/>
<polygon fill="midnightblue" stroke="midnightblue" points="455.334,-87.1547 463.672,-80.6172 453.077,-80.5286 455.334,-87.1547"/>
</g>
<!-- Node8 -->
<g id="node8" class="node"><title>Node8</title>
<g id="a_node8"><a xlink:href="../../da/de4/classinterpreter_1_1_expression_evaluator.html#a349369ee222f83e4370c70b449844139" target="_top" xlink:title="interpreter.ExpressionEvaluator.evaluate\lExpressionsAndMerge">
<polygon fill="white" stroke="black" points="622,-145 622,-175 832,-175 832,-145 622,-145"/>
<text text-anchor="start" x="630" y="-163" font-family="Helvetica,sans-Serif" font-size="10.00">interpreter.ExpressionEvaluator.evaluate</text>
<text text-anchor="middle" x="727" y="-152" font-family="Helvetica,sans-Serif" font-size="10.00">ExpressionsAndMerge</text>
</a>
</g>
</g>
<!-- Node7&#45;&gt;Node8 -->
<g id="edge7" class="edge"><title>Node7&#45;&gt;Node8</title>
<path fill="none" stroke="midnightblue" d="M576.117,-160C587.695,-160 599.781,-160 611.847,-160"/>
<polygon fill="midnightblue" stroke="midnightblue" points="611.966,-163.5 621.966,-160 611.966,-156.5 611.966,-163.5"/>
</g>
<!-- Node14 -->
<g id="node14" class="node"><title>Node14</title>
<g id="a_node14"><a xlink:href="../../d3/da2/classinterpreter_1_1_parser.html#a27e67bfe24e33d6ac58aa3b482cd0f07" target="_top" xlink:title="interpreter.Parser.parse\lSLogoExpression">
<polygon fill="white" stroke="black" points="662.5,-262 662.5,-292 791.5,-292 791.5,-262 662.5,-262"/>
<text text-anchor="start" x="670.5" y="-280" font-family="Helvetica,sans-Serif" font-size="10.00">interpreter.Parser.parse</text>
<text text-anchor="middle" x="727" y="-269" font-family="Helvetica,sans-Serif" font-size="10.00">SLogoExpression</text>
</a>
</g>
</g>
<!-- Node7&#45;&gt;Node14 -->
<g id="edge13" class="edge"><title>Node7&#45;&gt;Node14</title>
<path fill="none" stroke="midnightblue" d="M557.718,-169.597C567.392,-172.069 577.112,-175.155 586,-179 630.419,-198.215 675.074,-232.733 701.629,-255.25"/>
<polygon fill="midnightblue" stroke="midnightblue" points="699.406,-257.954 709.269,-261.823 703.971,-252.648 699.406,-257.954"/>
</g>
<!-- Node9 -->
<g id="node9" class="node"><title>Node9</title>
<g id="a_node9"><a xlink:href="../../d6/d76/classinterpreter_1_1_s_logo_result_merger.html#a706aced67e4d219faa11f9821fef9000" target="_top" xlink:title="interpreter.SLogoResultMerger.append">
<polygon fill="white" stroke="black" points="868,-125.5 868,-144.5 1068,-144.5 1068,-125.5 868,-125.5"/>
<text text-anchor="middle" x="968" y="-132.5" font-family="Helvetica,sans-Serif" font-size="10.00">interpreter.SLogoResultMerger.append</text>
</a>
</g>
</g>
<!-- Node8&#45;&gt;Node9 -->
<g id="edge8" class="edge"><title>Node8&#45;&gt;Node9</title>
<path fill="none" stroke="midnightblue" d="M832.134,-149.107C843.306,-147.939 854.66,-146.751 865.797,-145.586"/>
<polygon fill="midnightblue" stroke="midnightblue" points="866.37,-149.045 875.952,-144.524 865.642,-142.083 866.37,-149.045"/>
</g>
<!-- Node10 -->
<g id="node10" class="node"><title>Node10</title>
<g id="a_node10"><a xlink:href="../../d6/d76/classinterpreter_1_1_s_logo_result_merger.html#a8c0879f8ab9d66e54b0317229ee6aa77" target="_top" xlink:title="interpreter.SLogoResultMerger.merge\lAndReturn">
<polygon fill="white" stroke="black" points="870,-164 870,-194 1066,-194 1066,-164 870,-164"/>
<text text-anchor="start" x="878" y="-182" font-family="Helvetica,sans-Serif" font-size="10.00">interpreter.SLogoResultMerger.merge</text>
<text text-anchor="middle" x="968" y="-171" font-family="Helvetica,sans-Serif" font-size="10.00">AndReturn</text>
</a>
</g>
</g>
<!-- Node8&#45;&gt;Node10 -->
<g id="edge9" class="edge"><title>Node8&#45;&gt;Node10</title>
<path fill="none" stroke="midnightblue" d="M832.134,-168.278C841.371,-169.013 850.734,-169.757 859.995,-170.493"/>
<polygon fill="midnightblue" stroke="midnightblue" points="859.748,-173.985 869.994,-171.288 860.303,-167.007 859.748,-173.985"/>
</g>
<!-- Node11 -->
<g id="node11" class="node"><title>Node11</title>
<g id="a_node11"><a xlink:href="../../df/df6/classinterpreter_1_1result_1_1_s_logo_result.html#a11062748597af4f6622d9cbc92d4d9c0" target="_top" xlink:title="interpreter.result.SLogo\lResult.getTransition">
<polygon fill="white" stroke="black" points="1129,-90 1129,-120 1259,-120 1259,-90 1129,-90"/>
<text text-anchor="start" x="1137" y="-108" font-family="Helvetica,sans-Serif" font-size="10.00">interpreter.result.SLogo</text>
<text text-anchor="middle" x="1194" y="-97" font-family="Helvetica,sans-Serif" font-size="10.00">Result.getTransition</text>
</a>
</g>
</g>
<!-- Node10&#45;&gt;Node11 -->
<g id="edge10" class="edge"><title>Node10&#45;&gt;Node11</title>
<path fill="none" stroke="midnightblue" d="M1033.51,-163.965C1045.06,-160.916 1056.94,-157.547 1068,-154 1095.21,-145.269 1125.03,-133.662 1148.72,-123.936"/>
<polygon fill="midnightblue" stroke="midnightblue" points="1150.24,-127.095 1158.14,-120.035 1147.56,-120.628 1150.24,-127.095"/>
</g>
<!-- Node12 -->
<g id="node12" class="node"><title>Node12</title>
<g id="a_node12"><a xlink:href="../../df/df6/classinterpreter_1_1result_1_1_s_logo_result.html#a7e050bbb65d7c7eb5e9b9970c6e2616f" target="_top" xlink:title="interpreter.result.SLogo\lResult.getValue">
<polygon fill="white" stroke="black" points="1129,-204 1129,-234 1259,-234 1259,-204 1129,-204"/>
<text text-anchor="start" x="1137" y="-222" font-family="Helvetica,sans-Serif" font-size="10.00">interpreter.result.SLogo</text>
<text text-anchor="middle" x="1194" y="-211" font-family="Helvetica,sans-Serif" font-size="10.00">Result.getValue</text>
</a>
</g>
</g>
<!-- Node10&#45;&gt;Node12 -->
<g id="edge11" class="edge"><title>Node10&#45;&gt;Node12</title>
<path fill="none" stroke="midnightblue" d="M1053.05,-194.008C1074.69,-197.874 1097.83,-202.006 1118.93,-205.774"/>
<polygon fill="midnightblue" stroke="midnightblue" points="1118.33,-209.221 1128.79,-207.534 1119.56,-202.33 1118.33,-209.221"/>
</g>
<!-- Node13 -->
<g id="node13" class="node"><title>Node13</title>
<g id="a_node13"><a xlink:href="../../df/df6/classinterpreter_1_1result_1_1_s_logo_result.html#ade0879b3224a3216bf17e17e25bfd4ca" target="_top" xlink:title="interpreter.result.SLogo\lResult.setValue">
<polygon fill="white" stroke="black" points="1129,-155 1129,-185 1259,-185 1259,-155 1129,-155"/>
<text text-anchor="start" x="1137" y="-173" font-family="Helvetica,sans-Serif" font-size="10.00">interpreter.result.SLogo</text>
<text text-anchor="middle" x="1194" y="-162" font-family="Helvetica,sans-Serif" font-size="10.00">Result.setValue</text>
</a>
</g>
</g>
<!-- Node10&#45;&gt;Node13 -->
<g id="edge12" class="edge"><title>Node10&#45;&gt;Node13</title>
<path fill="none" stroke="midnightblue" d="M1066.27,-175.092C1083.77,-174.389 1101.76,-173.666 1118.49,-172.994"/>
<polygon fill="midnightblue" stroke="midnightblue" points="1118.88,-176.481 1128.73,-172.582 1118.6,-169.487 1118.88,-176.481"/>
</g>
<!-- Node15 -->
<g id="node15" class="node"><title>Node15</title>
<g id="a_node15"><a xlink:href="../../d3/da2/classinterpreter_1_1_parser.html#aa6ccb9df4d2405de8b559ebf6fdf9c51" target="_top" xlink:title="interpreter.Parser.loadAll\lExpressionParameters">
<polygon fill="white" stroke="black" points="901,-311 901,-341 1035,-341 1035,-311 901,-311"/>
<text text-anchor="start" x="909" y="-329" font-family="Helvetica,sans-Serif" font-size="10.00">interpreter.Parser.loadAll</text>
<text text-anchor="middle" x="968" y="-318" font-family="Helvetica,sans-Serif" font-size="10.00">ExpressionParameters</text>
</a>
</g>
</g>
<!-- Node14&#45;&gt;Node15 -->
<g id="edge14" class="edge"><title>Node14&#45;&gt;Node15</title>
<path fill="none" stroke="midnightblue" d="M791.734,-290.067C822.179,-296.309 858.851,-303.827 890.763,-310.37"/>
<polygon fill="midnightblue" stroke="midnightblue" points="890.444,-313.877 900.943,-312.457 891.85,-307.02 890.444,-313.877"/>
</g>
<!-- Node17 -->
<g id="node17" class="node"><title>Node17</title>
<g id="a_node17"><a xlink:href="../../d3/da2/classinterpreter_1_1_parser.html#a6ec7d578c175a308702b323914b4cfd0" target="_top" xlink:title="interpreter.Parser.makeExpressions\lFromInput">
<polygon fill="white" stroke="black" points="875,-262 875,-292 1061,-292 1061,-262 875,-262"/>
<text text-anchor="start" x="883" y="-280" font-family="Helvetica,sans-Serif" font-size="10.00">interpreter.Parser.makeExpressions</text>
<text text-anchor="middle" x="968" y="-269" font-family="Helvetica,sans-Serif" font-size="10.00">FromInput</text>
</a>
</g>
</g>
<!-- Node14&#45;&gt;Node17 -->
<g id="edge16" class="edge"><title>Node14&#45;&gt;Node17</title>
<path fill="none" stroke="midnightblue" d="M791.734,-277C814.096,-277 839.818,-277 864.545,-277"/>
<polygon fill="midnightblue" stroke="midnightblue" points="864.698,-280.5 874.698,-277 864.698,-273.5 864.698,-280.5"/>
</g>
<!-- Node26 -->
<g id="node26" class="node"><title>Node26</title>
<g id="a_node26"><a xlink:href="../../d3/da2/classinterpreter_1_1_parser.html#ace7fbbc85fc2aad57bea2330b0476ef4" target="_top" xlink:title="interpreter.Parser.parse\lOutComments">
<polygon fill="white" stroke="black" points="903.5,-213 903.5,-243 1032.5,-243 1032.5,-213 903.5,-213"/>
<text text-anchor="start" x="911.5" y="-231" font-family="Helvetica,sans-Serif" font-size="10.00">interpreter.Parser.parse</text>
<text text-anchor="middle" x="968" y="-220" font-family="Helvetica,sans-Serif" font-size="10.00">OutComments</text>
</a>
</g>
</g>
<!-- Node14&#45;&gt;Node26 -->
<g id="edge25" class="edge"><title>Node14&#45;&gt;Node26</title>
<path fill="none" stroke="midnightblue" d="M791.734,-263.933C823.063,-257.51 860.985,-249.735 893.53,-243.063"/>
<polygon fill="midnightblue" stroke="midnightblue" points="894.351,-246.468 903.444,-241.03 892.945,-239.61 894.351,-246.468"/>
</g>
<!-- Node27 -->
<g id="node27" class="node"><title>Node27</title>
<g id="a_node27"><a xlink:href="../../d3/da2/classinterpreter_1_1_parser.html#a2c8ee0acf938cac9cd22ef8fe5c77866" target="_top" xlink:title="interpreter.Parser.process\lInput">
<polygon fill="white" stroke="black" points="898,-360 898,-390 1038,-390 1038,-360 898,-360"/>
<text text-anchor="start" x="906" y="-378" font-family="Helvetica,sans-Serif" font-size="10.00">interpreter.Parser.process</text>
<text text-anchor="middle" x="968" y="-367" font-family="Helvetica,sans-Serif" font-size="10.00">Input</text>
</a>
</g>
</g>
<!-- Node14&#45;&gt;Node27 -->
<g id="edge26" class="edge"><title>Node14&#45;&gt;Node27</title>
<path fill="none" stroke="midnightblue" d="M752.472,-292.011C779.793,-308.227 825.735,-333.898 868,-350 874.719,-352.56 881.795,-354.936 888.945,-357.123"/>
<polygon fill="midnightblue" stroke="midnightblue" points="888.134,-360.532 898.715,-359.987 890.103,-353.815 888.134,-360.532"/>
</g>
<!-- Node16 -->
<g id="node16" class="node"><title>Node16</title>
<g id="a_node16"><a xlink:href="../../db/d09/interfaceinterpreter_1_1expression_1_1_s_logo_expression.html#a8bb3a17e57258a80b5becf128afaa04c" target="_top" xlink:title="interpreter.expression.SLogo\lExpression.loadArguments">
<polygon fill="white" stroke="black" points="1116.5,-311 1116.5,-341 1271.5,-341 1271.5,-311 1116.5,-311"/>
<text text-anchor="start" x="1124.5" y="-329" font-family="Helvetica,sans-Serif" font-size="10.00">interpreter.expression.SLogo</text>
<text text-anchor="middle" x="1194" y="-318" font-family="Helvetica,sans-Serif" font-size="10.00">Expression.loadArguments</text>
</a>
</g>
</g>
<!-- Node15&#45;&gt;Node16 -->
<g id="edge15" class="edge"><title>Node15&#45;&gt;Node16</title>
<path fill="none" stroke="midnightblue" d="M1035.3,-326C1057.44,-326 1082.45,-326 1105.93,-326"/>
<polygon fill="midnightblue" stroke="midnightblue" points="1106.23,-329.5 1116.23,-326 1106.23,-322.5 1106.23,-329.5"/>
</g>
<!-- Node18 -->
<g id="node18" class="node"><title>Node18</title>
<g id="a_node18"><a xlink:href="../../d8/daa/classinterpreter_1_1_s_logo_expression_factory.html#a50eb077dd9b57f111e60eb7b297b6d29" target="_top" xlink:title="interpreter.SLogoExpression\lFactory.createExpression">
<polygon fill="white" stroke="black" points="1118,-262 1118,-292 1270,-292 1270,-262 1118,-262"/>
<text text-anchor="start" x="1126" y="-280" font-family="Helvetica,sans-Serif" font-size="10.00">interpreter.SLogoExpression</text>
<text text-anchor="middle" x="1194" y="-269" font-family="Helvetica,sans-Serif" font-size="10.00">Factory.createExpression</text>
</a>
</g>
</g>
<!-- Node17&#45;&gt;Node18 -->
<g id="edge17" class="edge"><title>Node17&#45;&gt;Node18</title>
<path fill="none" stroke="midnightblue" d="M1061.08,-277C1076.37,-277 1092.18,-277 1107.31,-277"/>
<polygon fill="midnightblue" stroke="midnightblue" points="1107.66,-280.5 1117.66,-277 1107.66,-273.5 1107.66,-280.5"/>
</g>
<!-- Node19 -->
<g id="node19" class="node"><title>Node19</title>
<g id="a_node19"><a xlink:href="../../d8/daa/classinterpreter_1_1_s_logo_expression_factory.html#af866a871782317ae912240ad2e383bd9" target="_top" xlink:title="interpreter.SLogoExpression\lFactory.checkTypeAndInitialize">
<polygon fill="white" stroke="black" points="1320,-262 1320,-292 1478,-292 1478,-262 1320,-262"/>
<text text-anchor="start" x="1328" y="-280" font-family="Helvetica,sans-Serif" font-size="10.00">interpreter.SLogoExpression</text>
<text text-anchor="middle" x="1399" y="-269" font-family="Helvetica,sans-Serif" font-size="10.00">Factory.checkTypeAndInitialize</text>
</a>
</g>
</g>
<!-- Node18&#45;&gt;Node19 -->
<g id="edge18" class="edge"><title>Node18&#45;&gt;Node19</title>
<path fill="none" stroke="midnightblue" d="M1270.01,-277C1282.97,-277 1296.55,-277 1309.82,-277"/>
<polygon fill="midnightblue" stroke="midnightblue" points="1309.9,-280.5 1319.9,-277 1309.9,-273.5 1309.9,-280.5"/>
</g>
<!-- Node20 -->
<g id="node20" class="node"><title>Node20</title>
<g id="a_node20"><a xlink:href="../../d8/daa/classinterpreter_1_1_s_logo_expression_factory.html#aed195cb1e071e9e87792f7a51242f824" target="_top" xlink:title="interpreter.SLogoExpression\lFactory.initializeExpression">
<polygon fill="white" stroke="black" points="1516,-311 1516,-341 1668,-341 1668,-311 1516,-311"/>
<text text-anchor="start" x="1524" y="-329" font-family="Helvetica,sans-Serif" font-size="10.00">interpreter.SLogoExpression</text>
<text text-anchor="middle" x="1592" y="-318" font-family="Helvetica,sans-Serif" font-size="10.00">Factory.initializeExpression</text>
</a>
</g>
</g>
<!-- Node19&#45;&gt;Node20 -->
<g id="edge19" class="edge"><title>Node19&#45;&gt;Node20</title>
<path fill="none" stroke="midnightblue" d="M1458.6,-292.035C1478.86,-297.232 1501.74,-303.101 1522.71,-308.48"/>
<polygon fill="midnightblue" stroke="midnightblue" points="1521.95,-311.899 1532.51,-310.994 1523.69,-305.119 1521.95,-311.899"/>
</g>
<!-- Node24 -->
<g id="node24" class="node"><title>Node24</title>
<g id="a_node24"><a xlink:href="../../d8/daa/classinterpreter_1_1_s_logo_expression_factory.html#a67c690097a981fbc2bf840c1f619639a" target="_top" xlink:title="interpreter.SLogoExpression\lFactory.isMatch">
<polygon fill="white" stroke="black" points="1516,-262 1516,-292 1668,-292 1668,-262 1516,-262"/>
<text text-anchor="start" x="1524" y="-280" font-family="Helvetica,sans-Serif" font-size="10.00">interpreter.SLogoExpression</text>
<text text-anchor="middle" x="1592" y="-269" font-family="Helvetica,sans-Serif" font-size="10.00">Factory.isMatch</text>
</a>
</g>
</g>
<!-- Node19&#45;&gt;Node24 -->
<g id="edge23" class="edge"><title>Node19&#45;&gt;Node24</title>
<path fill="none" stroke="midnightblue" d="M1478.24,-277C1487.3,-277 1496.57,-277 1505.71,-277"/>
<polygon fill="midnightblue" stroke="midnightblue" points="1505.96,-280.5 1515.96,-277 1505.96,-273.5 1505.96,-280.5"/>
</g>
<!-- Node25 -->
<g id="node25" class="node"><title>Node25</title>
<g id="a_node25"><a xlink:href="../../db/d09/interfaceinterpreter_1_1expression_1_1_s_logo_expression.html#a035636bae1b48baf5732f091a85ca9b1" target="_top" xlink:title="interpreter.expression.SLogo\lExpression.setValue">
<polygon fill="white" stroke="black" points="1514.5,-213 1514.5,-243 1669.5,-243 1669.5,-213 1514.5,-213"/>
<text text-anchor="start" x="1522.5" y="-231" font-family="Helvetica,sans-Serif" font-size="10.00">interpreter.expression.SLogo</text>
<text text-anchor="middle" x="1592" y="-220" font-family="Helvetica,sans-Serif" font-size="10.00">Expression.setValue</text>
</a>
</g>
</g>
<!-- Node19&#45;&gt;Node25 -->
<g id="edge24" class="edge"><title>Node19&#45;&gt;Node25</title>
<path fill="none" stroke="midnightblue" d="M1458.6,-261.965C1478.86,-256.768 1501.74,-250.899 1522.71,-245.52"/>
<polygon fill="midnightblue" stroke="midnightblue" points="1523.69,-248.881 1532.51,-243.006 1521.95,-242.101 1523.69,-248.881"/>
</g>
<!-- Node21 -->
<g id="node21" class="node"><title>Node21</title>
<g id="a_node21"><a xlink:href="../../db/d09/interfaceinterpreter_1_1expression_1_1_s_logo_expression.html#a8dbb9bf4dced75bf7e423cb614958a15" target="_top" xlink:title="interpreter.expression.SLogo\lExpression.loadLibrary">
<polygon fill="white" stroke="black" points="1706.5,-360 1706.5,-390 1861.5,-390 1861.5,-360 1706.5,-360"/>
<text text-anchor="start" x="1714.5" y="-378" font-family="Helvetica,sans-Serif" font-size="10.00">interpreter.expression.SLogo</text>
<text text-anchor="middle" x="1784" y="-367" font-family="Helvetica,sans-Serif" font-size="10.00">Expression.loadLibrary</text>
</a>
</g>
</g>
<!-- Node20&#45;&gt;Node21 -->
<g id="edge20" class="edge"><title>Node20&#45;&gt;Node21</title>
<path fill="none" stroke="midnightblue" d="M1651.3,-341.035C1671.45,-346.232 1694.21,-352.101 1715.06,-357.48"/>
<polygon fill="midnightblue" stroke="midnightblue" points="1714.26,-360.886 1724.81,-359.994 1716,-354.107 1714.26,-360.886"/>
</g>
<!-- Node22 -->
<g id="node22" class="node"><title>Node22</title>
<g id="a_node22"><a xlink:href="../../db/d09/interfaceinterpreter_1_1expression_1_1_s_logo_expression.html#a85984c7b01a9e06a1f4c8d73f7752a48" target="_top" xlink:title="interpreter.expression.SLogo\lExpression.loadModel">
<polygon fill="white" stroke="black" points="1706.5,-311 1706.5,-341 1861.5,-341 1861.5,-311 1706.5,-311"/>
<text text-anchor="start" x="1714.5" y="-329" font-family="Helvetica,sans-Serif" font-size="10.00">interpreter.expression.SLogo</text>
<text text-anchor="middle" x="1784" y="-318" font-family="Helvetica,sans-Serif" font-size="10.00">Expression.loadModel</text>
</a>
</g>
</g>
<!-- Node20&#45;&gt;Node22 -->
<g id="edge21" class="edge"><title>Node20&#45;&gt;Node22</title>
<path fill="none" stroke="midnightblue" d="M1668.09,-326C1677.31,-326 1686.79,-326 1696.16,-326"/>
<polygon fill="midnightblue" stroke="midnightblue" points="1696.27,-329.5 1706.27,-326 1696.27,-322.5 1696.27,-329.5"/>
</g>
<!-- Node23 -->
<g id="node23" class="node"><title>Node23</title>
<g id="a_node23"><a xlink:href="../../db/d09/interfaceinterpreter_1_1expression_1_1_s_logo_expression.html#ae5647ebedeb07edc2902d7cf478107f7" target="_top" xlink:title="interpreter.expression.SLogo\lExpression.setNumArgs">
<polygon fill="white" stroke="black" points="1706.5,-262 1706.5,-292 1861.5,-292 1861.5,-262 1706.5,-262"/>
<text text-anchor="start" x="1714.5" y="-280" font-family="Helvetica,sans-Serif" font-size="10.00">interpreter.expression.SLogo</text>
<text text-anchor="middle" x="1784" y="-269" font-family="Helvetica,sans-Serif" font-size="10.00">Expression.setNumArgs</text>
</a>
</g>
</g>
<!-- Node20&#45;&gt;Node23 -->
<g id="edge22" class="edge"><title>Node20&#45;&gt;Node23</title>
<path fill="none" stroke="midnightblue" d="M1651.3,-310.965C1671.45,-305.768 1694.21,-299.899 1715.06,-294.52"/>
<polygon fill="midnightblue" stroke="midnightblue" points="1716,-297.893 1724.81,-292.006 1714.26,-291.114 1716,-297.893"/>
</g>
<!-- Node29&#45;&gt;Node11 -->
<g id="edge32" class="edge"><title>Node29&#45;&gt;Node11</title>
<path fill="none" stroke="midnightblue" d="M577.316,-75.6311C592.188,-76.441 607.555,-77.2604 622,-78 800.109,-87.1194 1009.53,-96.7402 1118.54,-101.665"/>
<polygon fill="midnightblue" stroke="midnightblue" points="1118.62,-105.172 1128.77,-102.127 1118.94,-98.1792 1118.62,-105.172"/>
</g>
<!-- Node30 -->
<g id="node30" class="node"><title>Node30</title>
<g id="a_node30"><a xlink:href="../../dd/d63/classmodel_1_1_model_updater.html#a08dce6edfc21ceba207d7a534d2bd71c" target="_top" xlink:title="model.ModelUpdater.update\lModel">
<polygon fill="white" stroke="black" points="650.5,-0 650.5,-30 803.5,-30 803.5,-0 650.5,-0"/>
<text text-anchor="start" x="658.5" y="-18" font-family="Helvetica,sans-Serif" font-size="10.00">model.ModelUpdater.update</text>
<text text-anchor="middle" x="727" y="-7" font-family="Helvetica,sans-Serif" font-size="10.00">Model</text>
</a>
</g>
</g>
<!-- Node29&#45;&gt;Node30 -->
<g id="edge29" class="edge"><title>Node29&#45;&gt;Node30</title>
<path fill="none" stroke="midnightblue" d="M533.9,-61.4674C559.031,-55.318 592.442,-47.16 622,-40 632.121,-37.5483 642.798,-34.9711 653.303,-32.441"/>
<polygon fill="midnightblue" stroke="midnightblue" points="654.394,-35.7784 663.297,-30.0353 652.755,-28.9728 654.394,-35.7784"/>
</g>
<!-- Node33 -->
<g id="node33" class="node"><title>Node33</title>
<g id="a_node33"><a xlink:href="../../de/d21/classmodel_1_1_main_model.html#aad9f626d0b472cbc3d57e8af0c4326cc" target="_top" xlink:title="model.MainModel.setMyAnimation">
<polygon fill="white" stroke="black" points="636.5,-49.5 636.5,-68.5 817.5,-68.5 817.5,-49.5 636.5,-49.5"/>
<text text-anchor="middle" x="727" y="-56.5" font-family="Helvetica,sans-Serif" font-size="10.00">model.MainModel.setMyAnimation</text>
</a>
</g>
</g>
<!-- Node29&#45;&gt;Node33 -->
<g id="edge33" class="edge"><title>Node29&#45;&gt;Node33</title>
<path fill="none" stroke="midnightblue" d="M577.092,-66.7355C592.986,-65.9098 609.804,-65.0362 626.192,-64.1849"/>
<polygon fill="midnightblue" stroke="midnightblue" points="626.523,-67.6725 636.328,-63.6583 626.16,-60.6819 626.523,-67.6725"/>
</g>
<!-- Node31 -->
<g id="node31" class="node"><title>Node31</title>
<g id="a_node31"><a xlink:href="../../dd/d63/classmodel_1_1_model_updater.html#ad73b783b59545c68e1fb9123e44492d4" target="_top" xlink:title="model.ModelUpdater.create\lTurtleTransitionMapping">
<polygon fill="white" stroke="black" points="893,-0 893,-30 1043,-30 1043,-0 893,-0"/>
<text text-anchor="start" x="901" y="-18" font-family="Helvetica,sans-Serif" font-size="10.00">model.ModelUpdater.create</text>
<text text-anchor="middle" x="968" y="-7" font-family="Helvetica,sans-Serif" font-size="10.00">TurtleTransitionMapping</text>
</a>
</g>
</g>
<!-- Node30&#45;&gt;Node31 -->
<g id="edge30" class="edge"><title>Node30&#45;&gt;Node31</title>
<path fill="none" stroke="midnightblue" d="M803.621,-15C828.733,-15 856.847,-15 882.58,-15"/>
<polygon fill="midnightblue" stroke="midnightblue" points="882.689,-18.5001 892.689,-15 882.689,-11.5001 882.689,-18.5001"/>
</g>
<!-- Node32 -->
<g id="node32" class="node"><title>Node32</title>
<g id="a_node32"><a xlink:href="../../dd/d63/classmodel_1_1_model_updater.html#a44e91f3e31045ca0a067ffe9d270ab29" target="_top" xlink:title="model.ModelUpdater.findSelected\lTurtles">
<polygon fill="white" stroke="black" points="1104.5,-0 1104.5,-30 1283.5,-30 1283.5,-0 1104.5,-0"/>
<text text-anchor="start" x="1112.5" y="-18" font-family="Helvetica,sans-Serif" font-size="10.00">model.ModelUpdater.findSelected</text>
<text text-anchor="middle" x="1194" y="-7" font-family="Helvetica,sans-Serif" font-size="10.00">Turtles</text>
</a>
</g>
</g>
<!-- Node31&#45;&gt;Node32 -->
<g id="edge31" class="edge"><title>Node31&#45;&gt;Node32</title>
<path fill="none" stroke="midnightblue" d="M1043.28,-15C1059.41,-15 1076.73,-15 1093.66,-15"/>
<polygon fill="midnightblue" stroke="midnightblue" points="1094.14,-18.5001 1104.14,-15 1094.14,-11.5001 1094.14,-18.5001"/>
</g>
<!-- Node34 -->
<g id="node34" class="node"><title>Node34</title>
<g id="a_node34"><a xlink:href="../../d4/d57/classturtle_1_1_turtle_list_history.html#a1d6e950f470e133d79684a9c3baf54b4" target="_top" xlink:title="turtle.TurtleListHistory.updateList">
<polygon fill="white" stroke="black" points="881.5,-49.5 881.5,-68.5 1054.5,-68.5 1054.5,-49.5 881.5,-49.5"/>
<text text-anchor="middle" x="968" y="-56.5" font-family="Helvetica,sans-Serif" font-size="10.00">turtle.TurtleListHistory.updateList</text>
</a>
</g>
</g>
<!-- Node33&#45;&gt;Node34 -->
<g id="edge34" class="edge"><title>Node33&#45;&gt;Node34</title>
<path fill="none" stroke="midnightblue" d="M817.675,-59C835.059,-59 853.342,-59 870.921,-59"/>
<polygon fill="midnightblue" stroke="midnightblue" points="871.178,-62.5001 881.178,-59 871.178,-55.5001 871.178,-62.5001"/>
</g>
</g>
</svg>
        <g id="navigator" transform="translate(0 0)" fill="#404254">
                <rect fill="#f2f5e9" fill-opacity="0.5" stroke="#606060" stroke-width=".5" x="0" y="0" width="60" height="60"/>
                <use id="zoomplus" xlink:href="#zoomPlus" x="17" y="9" onmousedown="handleZoom(evt,'in')"/>
                <use id="zoomminus" xlink:href="#zoomMin" x="42" y="9" onmousedown="handleZoom(evt,'out')"/>
                <use id="reset" xlink:href="#resetDef" x="30" y="36" onmousedown="handleReset()"/>
                <g id="arrowUp" xlink:href="#dirArrow" transform="translate(30 24)" onmousedown="handlePan(0,-1)">
                  <use xlink:href="#rim" fill="#404040">
                        <set attributeName="fill" to="#808080" begin="arrowUp.mouseover" end="arrowUp.mouseout"/>
                  </use>
                  <path fill="none" stroke="white" stroke-width="1.5" d="M0,-3.0v7 M-2.5,-0.5L0,-3.0L2.5,-0.5"/>
                </g>
                <g id="arrowRight" xlink:href="#dirArrow" transform="rotate(90) translate(36 -43)" onmousedown="handlePan(1,0)">
                  <use xlink:href="#rim" fill="#404040">
                        <set attributeName="fill" to="#808080" begin="arrowRight.mouseover" end="arrowRight.mouseout"/>
                  </use>
                  <path fill="none" stroke="white" stroke-width="1.5" d="M0,-3.0v7 M-2.5,-0.5L0,-3.0L2.5,-0.5"/>
                </g>
                <g id="arrowDown" xlink:href="#dirArrow" transform="rotate(180) translate(-30 -48)" onmousedown="handlePan(0,1)">
                  <use xlink:href="#rim" fill="#404040">
                        <set attributeName="fill" to="#808080" begin="arrowDown.mouseover" end="arrowDown.mouseout"/>
                  </use>
                  <path fill="none" stroke="white" stroke-width="1.5" d="M0,-3.0v7 M-2.5,-0.5L0,-3.0L2.5,-0.5"/>
                </g>
                <g id="arrowLeft" xlink:href="#dirArrow" transform="rotate(270) translate(-36 17)" onmousedown="handlePan(-1,0)">
                  <use xlink:href="#rim" fill="#404040">
                        <set attributeName="fill" to="#808080" begin="arrowLeft.mouseover" end="arrowLeft.mouseout"/>
                  </use>
                  <path fill="none" stroke="white" stroke-width="1.5" d="M0,-3.0v7 M-2.5,-0.5L0,-3.0L2.5,-0.5"/>
                </g>
        </g>
        <svg viewBox="0 0 15 15" width="100%" height="30px" preserveAspectRatio="xMaxYMin meet">
         <g id="arrow_out" transform="scale(0.3 0.3)">
          <a xlink:href="classmodel_1_1_main_model_ab4985c9a187961a2d57a8a0a63ab3b18_cgraph_org.svg" target="_base">
           <rect id="button" ry="5" rx="5" y="6" x="6" height="38" width="38"
                fill="#f2f5e9" fill-opacity="0.5" stroke="#606060" stroke-width="1.0"/>
           <path id="arrow"
             d="M 11.500037,31.436501 C 11.940474,20.09759 22.043105,11.32322 32.158766,21.979434 L 37.068811,17.246167 C 37.068811,17.246167 37.088388,32 37.088388,32 L 22.160133,31.978069 C 22.160133,31.978069 26.997745,27.140456 26.997745,27.140456 C 18.528582,18.264221 13.291696,25.230495 11.500037,31.436501 z"
             style="fill:#404040;"/>
          </a>
         </g>
        </svg>
</svg>
