<?xml version="1.0" encoding="UTF-8" standalone="no"?>
<!DOCTYPE svg PUBLIC "-//W3C//DTD SVG 1.1//EN"
 "http://www.w3.org/Graphics/SVG/1.1/DTD/svg11.dtd">
<!-- Generated by graphviz version 2.36.0 (20140111.2315)
 -->
<!-- Title: model.MainModel.updatePen Pages: 1 -->
<!--zoomable 229 -->
<svg id="main" version="1.1" xmlns="http://www.w3.org/2000/svg" xmlns:xlink="http://www.w3.org/1999/xlink" xml:space="preserve" onload="init(evt)">
<style type="text/css"><![CDATA[
.edge:hover path { stroke: red; }
.edge:hover polygon { stroke: red; fill: red; }
]]></style>
<script type="text/javascript"><![CDATA[
var edges = document.getElementsByTagName('g');
if (edges && edges.length) {
  for (var i=0;i<edges.length;i++) {
    if (edges[i].id.substr(0,4)=='edge') {
      edges[i].setAttribute('class','edge');
    }
  }
}
]]></script>
        <defs>
                <circle id="rim" cx="0" cy="0" r="7"/>
                <circle id="rim2" cx="0" cy="0" r="3.5"/>
                <g id="zoomPlus">
                        <use xlink:href="#rim" fill="#404040">
                                <set attributeName="fill" to="#808080" begin="zoomplus.mouseover" end="zoomplus.mouseout"/>
                        </use>
                        <path d="M-4,0h8M0,-4v8" fill="none" stroke="white" stroke-width="1.5" pointer-events="none"/>
                </g>
                <g id="zoomMin">
                        <use xlink:href="#rim" fill="#404040">
                                <set attributeName="fill" to="#808080" begin="zoomminus.mouseover" end="zoomminus.mouseout"/>
                        </use>
                        <path d="M-4,0h8" fill="none" stroke="white" stroke-width="1.5" pointer-events="none"/>
                </g>
                <g id="dirArrow">
                        <path fill="none" stroke="white" stroke-width="1.5" d="M0,-3.0v7 M-2.5,-0.5L0,-3.0L2.5,-0.5"/>
                </g>
               <g id="resetDef">
                       <use xlink:href="#rim2" fill="#404040">
                               <set attributeName="fill" to="#808080" begin="reset.mouseover" end="reset.mouseout"/>
                       </use>
               </g>
        </defs>

<script type="text/javascript">
var viewWidth = 584;
var viewHeight = 229;
var sectionId = 'dynsection-34';
</script>
<script xlink:href="../../svgpan.js"/>
<svg id="graph" class="graph">
<g id="viewport">
<title>model.MainModel.updatePen</title>
<polygon fill="white" stroke="none" points="-4,4 -4,-225 580,-225 580,4 -4,4"/>
<!-- Node1 -->
<g id="node1" class="node"><title>Node1</title>
<polygon fill="#bfbfbf" stroke="black" points="0.5,-122.5 0.5,-141.5 155.5,-141.5 155.5,-122.5 0.5,-122.5"/>
<text text-anchor="middle" x="78" y="-129.5" font-family="Helvetica,sans-Serif" font-size="10.00">model.MainModel.updatePen</text>
</g>
<!-- Node2 -->
<g id="node2" class="node"><title>Node2</title>
<g id="a_node2"><a xlink:href="../../de/d68/classapplication_1_1_pen_form_result.html#af1076dbdfbf821685beb0fbe8c83d9f4" target="_top" xlink:title="application.PenFormResult.get\lPenDash">
<polygon fill="white" stroke="black" points="192.5,-191 192.5,-221 353.5,-221 353.5,-191 192.5,-191"/>
<text text-anchor="start" x="200.5" y="-209" font-family="Helvetica,sans-Serif" font-size="10.00">application.PenFormResult.get</text>
<text text-anchor="middle" x="273" y="-198" font-family="Helvetica,sans-Serif" font-size="10.00">PenDash</text>
</a>
</g>
</g>
<!-- Node1&#45;&gt;Node2 -->
<g id="edge1" class="edge"><title>Node1&#45;&gt;Node2</title>
<path fill="none" stroke="midnightblue" d="M99.1485,-141.511C121.547,-151.902 158.93,-168.703 192,-181 198.231,-183.317 204.786,-185.604 211.351,-187.796"/>
<polygon fill="midnightblue" stroke="midnightblue" points="210.347,-191.15 220.94,-190.935 212.525,-184.498 210.347,-191.15"/>
</g>
<!-- Node3 -->
<g id="node3" class="node"><title>Node3</title>
<g id="a_node3"><a xlink:href="../../de/d68/classapplication_1_1_pen_form_result.html#a7ebac34c61209dee90451ac962d16fd5" target="_top" xlink:title="application.PenFormResult.get\lPenUp">
<polygon fill="white" stroke="black" points="192.5,-142 192.5,-172 353.5,-172 353.5,-142 192.5,-142"/>
<text text-anchor="start" x="200.5" y="-160" font-family="Helvetica,sans-Serif" font-size="10.00">application.PenFormResult.get</text>
<text text-anchor="middle" x="273" y="-149" font-family="Helvetica,sans-Serif" font-size="10.00">PenUp</text>
</a>
</g>
</g>
<!-- Node1&#45;&gt;Node3 -->
<g id="edge2" class="edge"><title>Node1&#45;&gt;Node3</title>
<path fill="none" stroke="midnightblue" d="M152.516,-141.523C162.263,-142.785 172.342,-144.091 182.324,-145.384"/>
<polygon fill="midnightblue" stroke="midnightblue" points="181.89,-148.857 192.257,-146.671 182.789,-141.915 181.89,-148.857"/>
</g>
<!-- Node4 -->
<g id="node4" class="node"><title>Node4</title>
<g id="a_node4"><a xlink:href="../../de/d68/classapplication_1_1_pen_form_result.html#af6022e0a69d50a96ee78f27043646053" target="_top" xlink:title="application.PenFormResult.get\lPenWidth">
<polygon fill="white" stroke="black" points="192.5,-93 192.5,-123 353.5,-123 353.5,-93 192.5,-93"/>
<text text-anchor="start" x="200.5" y="-111" font-family="Helvetica,sans-Serif" font-size="10.00">application.PenFormResult.get</text>
<text text-anchor="middle" x="273" y="-100" font-family="Helvetica,sans-Serif" font-size="10.00">PenWidth</text>
</a>
</g>
</g>
<!-- Node1&#45;&gt;Node4 -->
<g id="edge3" class="edge"><title>Node1&#45;&gt;Node4</title>
<path fill="none" stroke="midnightblue" d="M155.556,-122.48C164.349,-121.387 173.374,-120.264 182.32,-119.152"/>
<polygon fill="midnightblue" stroke="midnightblue" points="182.879,-122.609 192.371,-117.902 182.015,-115.663 182.879,-122.609"/>
</g>
<!-- Node5 -->
<g id="node5" class="node"><title>Node5</title>
<g id="a_node5"><a xlink:href="../../db/df2/classapplication_1_1_pen_form.html#ac805fbb2e32beca643b8195164353c82" target="_top" xlink:title="application.PenForm.getResult">
<polygon fill="white" stroke="black" points="192.5,-54.5 192.5,-73.5 353.5,-73.5 353.5,-54.5 192.5,-54.5"/>
<text text-anchor="middle" x="273" y="-61.5" font-family="Helvetica,sans-Serif" font-size="10.00">application.PenForm.getResult</text>
</a>
</g>
</g>
<!-- Node1&#45;&gt;Node5 -->
<g id="edge4" class="edge"><title>Node1&#45;&gt;Node5</title>
<path fill="none" stroke="midnightblue" d="M99.0434,-122.352C121.35,-111.884 158.653,-95.1742 192,-84 200.482,-81.1578 209.589,-78.5115 218.512,-76.1349"/>
<polygon fill="midnightblue" stroke="midnightblue" points="219.653,-79.4551 228.463,-73.5701 217.906,-72.6766 219.653,-79.4551"/>
</g>
<!-- Node6 -->
<g id="node6" class="node"><title>Node6</title>
<g id="a_node6"><a xlink:href="../../da/da5/classapplication_1_1_drop_down_form_element.html#a4c3c66bc06516f9ff3466d4c08d37955" target="_top" xlink:title="application.DropDownForm\lElement.getSelectedValue">
<polygon fill="white" stroke="black" points="410,-98 410,-128 556,-128 556,-98 410,-98"/>
<text text-anchor="start" x="418" y="-116" font-family="Helvetica,sans-Serif" font-size="10.00">application.DropDownForm</text>
<text text-anchor="middle" x="483" y="-105" font-family="Helvetica,sans-Serif" font-size="10.00">Element.getSelectedValue</text>
</a>
</g>
</g>
<!-- Node5&#45;&gt;Node6 -->
<g id="edge5" class="edge"><title>Node5&#45;&gt;Node6</title>
<path fill="none" stroke="midnightblue" d="M314.598,-73.564C341.162,-79.8218 376.649,-88.1817 408.112,-95.5937"/>
<polygon fill="midnightblue" stroke="midnightblue" points="407.633,-99.0767 418.17,-97.963 409.239,-92.2632 407.633,-99.0767"/>
</g>
<!-- Node7 -->
<g id="node7" class="node"><title>Node7</title>
<g id="a_node7"><a xlink:href="../../d7/de6/classapplication_1_1_number_input_form_element.html#a4febe2c6736041a60d0515fad2036c52" target="_top" xlink:title="application.NumberInputForm\lElement.getSelectedValue">
<polygon fill="white" stroke="black" points="403.5,-49 403.5,-79 562.5,-79 562.5,-49 403.5,-49"/>
<text text-anchor="start" x="411.5" y="-67" font-family="Helvetica,sans-Serif" font-size="10.00">application.NumberInputForm</text>
<text text-anchor="middle" x="483" y="-56" font-family="Helvetica,sans-Serif" font-size="10.00">Element.getSelectedValue</text>
</a>
</g>
</g>
<!-- Node5&#45;&gt;Node7 -->
<g id="edge6" class="edge"><title>Node5&#45;&gt;Node7</title>
<path fill="none" stroke="midnightblue" d="M353.526,-64C366.504,-64 380.02,-64 393.203,-64"/>
<polygon fill="midnightblue" stroke="midnightblue" points="393.205,-67.5001 403.205,-64 393.205,-60.5001 393.205,-67.5001"/>
</g>
<!-- Node8 -->
<g id="node8" class="node"><title>Node8</title>
<g id="a_node8"><a xlink:href="../../df/d65/classapplication_1_1_toggle_form_element.html#a181fba0f0737bc4f22baf061a0c2a956" target="_top" xlink:title="application.ToggleFormElement.get\lSelectedValue">
<polygon fill="white" stroke="black" points="390.5,-0 390.5,-30 575.5,-30 575.5,-0 390.5,-0"/>
<text text-anchor="start" x="398.5" y="-18" font-family="Helvetica,sans-Serif" font-size="10.00">application.ToggleFormElement.get</text>
<text text-anchor="middle" x="483" y="-7" font-family="Helvetica,sans-Serif" font-size="10.00">SelectedValue</text>
</a>
</g>
</g>
<!-- Node5&#45;&gt;Node8 -->
<g id="edge7" class="edge"><title>Node5&#45;&gt;Node8</title>
<path fill="none" stroke="midnightblue" d="M314.598,-54.436C341.162,-48.1782 376.649,-39.8183 408.112,-32.4063"/>
<polygon fill="midnightblue" stroke="midnightblue" points="409.239,-35.7368 418.17,-30.037 407.633,-28.9233 409.239,-35.7368"/>
</g>
</g>
</svg>
        <g id="navigator" transform="translate(0 0)" fill="#404254">
                <rect fill="#f2f5e9" fill-opacity="0.5" stroke="#606060" stroke-width=".5" x="0" y="0" width="60" height="60"/>
                <use id="zoomplus" xlink:href="#zoomPlus" x="17" y="9" onmousedown="handleZoom(evt,'in')"/>
                <use id="zoomminus" xlink:href="#zoomMin" x="42" y="9" onmousedown="handleZoom(evt,'out')"/>
                <use id="reset" xlink:href="#resetDef" x="30" y="36" onmousedown="handleReset()"/>
                <g id="arrowUp" xlink:href="#dirArrow" transform="translate(30 24)" onmousedown="handlePan(0,-1)">
                  <use xlink:href="#rim" fill="#404040">
                        <set attributeName="fill" to="#808080" begin="arrowUp.mouseover" end="arrowUp.mouseout"/>
                  </use>
                  <path fill="none" stroke="white" stroke-width="1.5" d="M0,-3.0v7 M-2.5,-0.5L0,-3.0L2.5,-0.5"/>
                </g>
                <g id="arrowRight" xlink:href="#dirArrow" transform="rotate(90) translate(36 -43)" onmousedown="handlePan(1,0)">
                  <use xlink:href="#rim" fill="#404040">
                        <set attributeName="fill" to="#808080" begin="arrowRight.mouseover" end="arrowRight.mouseout"/>
                  </use>
                  <path fill="none" stroke="white" stroke-width="1.5" d="M0,-3.0v7 M-2.5,-0.5L0,-3.0L2.5,-0.5"/>
                </g>
                <g id="arrowDown" xlink:href="#dirArrow" transform="rotate(180) translate(-30 -48)" onmousedown="handlePan(0,1)">
                  <use xlink:href="#rim" fill="#404040">
                        <set attributeName="fill" to="#808080" begin="arrowDown.mouseover" end="arrowDown.mouseout"/>
                  </use>
                  <path fill="none" stroke="white" stroke-width="1.5" d="M0,-3.0v7 M-2.5,-0.5L0,-3.0L2.5,-0.5"/>
                </g>
                <g id="arrowLeft" xlink:href="#dirArrow" transform="rotate(270) translate(-36 17)" onmousedown="handlePan(-1,0)">
                  <use xlink:href="#rim" fill="#404040">
                        <set attributeName="fill" to="#808080" begin="arrowLeft.mouseover" end="arrowLeft.mouseout"/>
                  </use>
                  <path fill="none" stroke="white" stroke-width="1.5" d="M0,-3.0v7 M-2.5,-0.5L0,-3.0L2.5,-0.5"/>
                </g>
        </g>
        <svg viewBox="0 0 15 15" width="100%" height="30px" preserveAspectRatio="xMaxYMin meet">
         <g id="arrow_out" transform="scale(0.3 0.3)">
          <a xlink:href="classmodel_1_1_main_model_a204ebf190cf6e56575b5d7ebf5691ad7_cgraph_org.svg" target="_base">
           <rect id="button" ry="5" rx="5" y="6" x="6" height="38" width="38"
                fill="#f2f5e9" fill-opacity="0.5" stroke="#606060" stroke-width="1.0"/>
           <path id="arrow"
             d="M 11.500037,31.436501 C 11.940474,20.09759 22.043105,11.32322 32.158766,21.979434 L 37.068811,17.246167 C 37.068811,17.246167 37.088388,32 37.088388,32 L 22.160133,31.978069 C 22.160133,31.978069 26.997745,27.140456 26.997745,27.140456 C 18.528582,18.264221 13.291696,25.230495 11.500037,31.436501 z"
             style="fill:#404040;"/>
          </a>
         </g>
        </svg>
</svg>
