<?xml version="1.0" encoding="UTF-8" standalone="no"?>
<!DOCTYPE svg PUBLIC "-//W3C//DTD SVG 1.1//EN"
 "http://www.w3.org/Graphics/SVG/1.1/DTD/svg11.dtd">
<!-- Generated by graphviz version 2.36.0 (20140111.2315)
 -->
<!-- Title: model.MainModel.updateAnimationSpeed Pages: 1 -->
<svg width="898pt" height="48pt"
 viewBox="0.00 0.00 898.00 48.00" xmlns="http://www.w3.org/2000/svg" xmlns:xlink="http://www.w3.org/1999/xlink">
<g id="graph0" class="graph" transform="scale(1 1) rotate(0) translate(4 44)">
<title>model.MainModel.updateAnimationSpeed</title>
<polygon fill="white" stroke="none" points="-4,4 -4,-44 894,-44 894,4 -4,4"/>
<!-- Node1 -->
<g id="node1" class="node"><title>Node1</title>
<polygon fill="#bfbfbf" stroke="black" points="0,-5 0,-35 186,-35 186,-5 0,-5"/>
<text text-anchor="start" x="8" y="-23" font-family="Helvetica,sans-Serif" font-size="10.00">model.MainModel.updateAnimation</text>
<text text-anchor="middle" x="93" y="-12" font-family="Helvetica,sans-Serif" font-size="10.00">Speed</text>
</g>
<!-- Node2 -->
<g id="node2" class="node"><title>Node2</title>
<g id="a_node2"><a xlink:href="../../d3/d67/classviewcontroller_1_1_main_view_controller.html#a5cdd7f7ddd825dd463f57d193943fd58" target="_top" xlink:title="viewcontroller.MainViewController.animation\lSpeedChanged">
<polygon fill="white" stroke="black" points="222.5,-5 222.5,-35 447.5,-35 447.5,-5 222.5,-5"/>
<text text-anchor="start" x="230.5" y="-23" font-family="Helvetica,sans-Serif" font-size="10.00">viewcontroller.MainViewController.animation</text>
<text text-anchor="middle" x="335" y="-12" font-family="Helvetica,sans-Serif" font-size="10.00">SpeedChanged</text>
</a>
</g>
</g>
<!-- Node1&#45;&gt;Node2 -->
<g id="edge1" class="edge"><title>Node1&#45;&gt;Node2</title>
<path fill="none" stroke="midnightblue" d="M196.223,-20C204.902,-20 213.708,-20 222.453,-20"/>
<polygon fill="midnightblue" stroke="midnightblue" points="196.104,-16.5001 186.104,-20 196.104,-23.5001 196.104,-16.5001"/>
</g>
<!-- Node3 -->
<g id="node3" class="node"><title>Node3</title>
<g id="a_node3"><a xlink:href="../../d3/daf/classviewcontroller_1_1turtlegrid_1_1_turtle_window_view_controller.html#ad20747828f10e957b0439e77cf253dc6" target="_top" xlink:title="viewcontroller.turtlegrid.\lTurtleWindowViewController.animation\lSpeedChanged">
<polygon fill="white" stroke="black" points="484,0.5 484,-40.5 680,-40.5 680,0.5 484,0.5"/>
<text text-anchor="start" x="492" y="-28.5" font-family="Helvetica,sans-Serif" font-size="10.00">viewcontroller.turtlegrid.</text>
<text text-anchor="start" x="492" y="-17.5" font-family="Helvetica,sans-Serif" font-size="10.00">TurtleWindowViewController.animation</text>
<text text-anchor="middle" x="582" y="-6.5" font-family="Helvetica,sans-Serif" font-size="10.00">SpeedChanged</text>
</a>
</g>
</g>
<!-- Node2&#45;&gt;Node3 -->
<g id="edge2" class="edge"><title>Node2&#45;&gt;Node3</title>
<path fill="none" stroke="midnightblue" d="M457.884,-20C466.531,-20 475.182,-20 483.665,-20"/>
<polygon fill="midnightblue" stroke="midnightblue" points="457.746,-16.5001 447.746,-20 457.746,-23.5001 457.746,-16.5001"/>
</g>
<!-- Node4 -->
<g id="node4" class="node"><title>Node4</title>
<g id="a_node4"><a xlink:href="../../d3/daf/classviewcontroller_1_1turtlegrid_1_1_turtle_window_view_controller.html#a732df23c6854ab63ebaac21d105c7072" target="_top" xlink:title="viewcontroller.turtlegrid.\lTurtleWindowViewController.Turtle\lWindowViewController">
<polygon fill="white" stroke="black" points="716.5,0.5 716.5,-40.5 889.5,-40.5 889.5,0.5 716.5,0.5"/>
<text text-anchor="start" x="724.5" y="-28.5" font-family="Helvetica,sans-Serif" font-size="10.00">viewcontroller.turtlegrid.</text>
<text text-anchor="start" x="724.5" y="-17.5" font-family="Helvetica,sans-Serif" font-size="10.00">TurtleWindowViewController.Turtle</text>
<text text-anchor="middle" x="803" y="-6.5" font-family="Helvetica,sans-Serif" font-size="10.00">WindowViewController</text>
</a>
</g>
</g>
<!-- Node3&#45;&gt;Node4 -->
<g id="edge3" class="edge"><title>Node3&#45;&gt;Node4</title>
<path fill="none" stroke="midnightblue" d="M690.281,-20C699.047,-20 707.832,-20 716.411,-20"/>
<polygon fill="midnightblue" stroke="midnightblue" points="690.013,-16.5001 680.013,-20 690.013,-23.5001 690.013,-16.5001"/>
</g>
</g>
</svg>
