<?xml version="1.0" encoding="UTF-8" standalone="no"?>
<!DOCTYPE svg PUBLIC "-//W3C//DTD SVG 1.1//EN"
 "http://www.w3.org/Graphics/SVG/1.1/DTD/svg11.dtd">
<!-- Generated by graphviz version 2.36.0 (20140111.2315)
 -->
<!-- Title: model.MainModel.getUserDefinedVariables Pages: 1 -->
<svg width="448pt" height="136pt"
 viewBox="0.00 0.00 448.00 136.00" xmlns="http://www.w3.org/2000/svg" xmlns:xlink="http://www.w3.org/1999/xlink">
<g id="graph0" class="graph" transform="scale(1 1) rotate(0) translate(4 132)">
<title>model.MainModel.getUserDefinedVariables</title>
<polygon fill="white" stroke="none" points="-4,4 -4,-132 444,-132 444,4 -4,4"/>
<!-- Node1 -->
<g id="node1" class="node"><title>Node1</title>
<polygon fill="#bfbfbf" stroke="black" points="0.5,-49 0.5,-79 179.5,-79 179.5,-49 0.5,-49"/>
<text text-anchor="start" x="8.5" y="-67" font-family="Helvetica,sans-Serif" font-size="10.00">model.MainModel.getUserDefined</text>
<text text-anchor="middle" x="90" y="-56" font-family="Helvetica,sans-Serif" font-size="10.00">Variables</text>
</g>
<!-- Node2 -->
<g id="node2" class="node"><title>Node2</title>
<g id="a_node2"><a xlink:href="../../d2/dc7/classinterpreter_1_1_interpreter.html#a023a2012605ac5b6b043e61755c9b0c1" target="_top" xlink:title="interpreter.Interpreter.\lInterpreter">
<polygon fill="white" stroke="black" points="266.5,-98 266.5,-128 389.5,-128 389.5,-98 266.5,-98"/>
<text text-anchor="start" x="274.5" y="-116" font-family="Helvetica,sans-Serif" font-size="10.00">interpreter.Interpreter.</text>
<text text-anchor="middle" x="328" y="-105" font-family="Helvetica,sans-Serif" font-size="10.00">Interpreter</text>
</a>
</g>
</g>
<!-- Node1&#45;&gt;Node2 -->
<g id="edge1" class="edge"><title>Node1&#45;&gt;Node2</title>
<path fill="none" stroke="midnightblue" d="M173.206,-81.0682C203.792,-87.4188 237.923,-94.5052 266.246,-100.386"/>
<polygon fill="midnightblue" stroke="midnightblue" points="173.914,-77.6407 163.412,-79.0346 172.491,-84.4945 173.914,-77.6407"/>
</g>
<!-- Node3 -->
<g id="node3" class="node"><title>Node3</title>
<g id="a_node3"><a xlink:href="../../d3/d5e/classmodel_1_1_serialisable_model.html#afb3dd469985638173108801bbcd2d2e4" target="_top" xlink:title="model.SerialisableModel.\lSerialisableModel">
<polygon fill="white" stroke="black" points="260,-49 260,-79 396,-79 396,-49 260,-49"/>
<text text-anchor="start" x="268" y="-67" font-family="Helvetica,sans-Serif" font-size="10.00">model.SerialisableModel.</text>
<text text-anchor="middle" x="328" y="-56" font-family="Helvetica,sans-Serif" font-size="10.00">SerialisableModel</text>
</a>
</g>
</g>
<!-- Node1&#45;&gt;Node3 -->
<g id="edge2" class="edge"><title>Node1&#45;&gt;Node3</title>
<path fill="none" stroke="midnightblue" d="M189.594,-64C213.211,-64 237.894,-64 259.719,-64"/>
<polygon fill="midnightblue" stroke="midnightblue" points="189.549,-60.5001 179.549,-64 189.549,-67.5001 189.549,-60.5001"/>
</g>
<!-- Node4 -->
<g id="node4" class="node"><title>Node4</title>
<g id="a_node4"><a xlink:href="../../d4/dc8/classviewcontroller_1_1commands_1_1_user_defined_variables_view_controller.html#a1e84f755902379519ddf5438bc2d27ee" target="_top" xlink:title="viewcontroller.commands.\lUserDefinedVariablesViewController.update">
<polygon fill="white" stroke="black" points="216,-0 216,-30 440,-30 440,-0 216,-0"/>
<text text-anchor="start" x="224" y="-18" font-family="Helvetica,sans-Serif" font-size="10.00">viewcontroller.commands.</text>
<text text-anchor="middle" x="328" y="-7" font-family="Helvetica,sans-Serif" font-size="10.00">UserDefinedVariablesViewController.update</text>
</a>
</g>
</g>
<!-- Node1&#45;&gt;Node4 -->
<g id="edge3" class="edge"><title>Node1&#45;&gt;Node4</title>
<path fill="none" stroke="midnightblue" d="M173.42,-46.8873C199.904,-41.3885 229.026,-35.342 254.725,-30.0062"/>
<polygon fill="midnightblue" stroke="midnightblue" points="172.491,-43.5055 163.412,-48.9654 173.914,-50.3593 172.491,-43.5055"/>
</g>
</g>
</svg>
