<?xml version="1.0" encoding="UTF-8" standalone="no"?>
<!DOCTYPE svg PUBLIC "-//W3C//DTD SVG 1.1//EN"
 "http://www.w3.org/Graphics/SVG/1.1/DTD/svg11.dtd">
<!-- Generated by graphviz version 2.36.0 (20140111.2315)
 -->
<!-- Title: model.MainModel.addTurtle Pages: 1 -->
<svg width="696pt" height="87pt"
 viewBox="0.00 0.00 696.00 87.00" xmlns="http://www.w3.org/2000/svg" xmlns:xlink="http://www.w3.org/1999/xlink">
<g id="graph0" class="graph" transform="scale(1 1) rotate(0) translate(4 83)">
<title>model.MainModel.addTurtle</title>
<polygon fill="white" stroke="none" points="-4,4 -4,-83 692,-83 692,4 -4,4"/>
<!-- Node1 -->
<g id="node1" class="node"><title>Node1</title>
<polygon fill="#bfbfbf" stroke="black" points="0.5,-29.5 0.5,-48.5 147.5,-48.5 147.5,-29.5 0.5,-29.5"/>
<text text-anchor="middle" x="74" y="-36.5" font-family="Helvetica,sans-Serif" font-size="10.00">model.MainModel.addTurtle</text>
</g>
<!-- Node2 -->
<g id="node2" class="node"><title>Node2</title>
<g id="a_node2"><a xlink:href="../../da/d4e/classviewcontroller_1_1_view.html#ad56492108159c72ac56423b7fabe3b81" target="_top" xlink:title="viewcontroller.View.addTurtle\lClicked">
<polygon fill="white" stroke="black" points="184,-49 184,-79 336,-79 336,-49 184,-49"/>
<text text-anchor="start" x="192" y="-67" font-family="Helvetica,sans-Serif" font-size="10.00">viewcontroller.View.addTurtle</text>
<text text-anchor="middle" x="260" y="-56" font-family="Helvetica,sans-Serif" font-size="10.00">Clicked</text>
</a>
</g>
</g>
<!-- Node1&#45;&gt;Node2 -->
<g id="edge1" class="edge"><title>Node1&#45;&gt;Node2</title>
<path fill="none" stroke="midnightblue" d="M155.006,-49.8704C164.603,-51.1743 174.376,-52.5022 183.9,-53.7962"/>
<polygon fill="midnightblue" stroke="midnightblue" points="155.468,-46.401 145.087,-48.5227 154.525,-53.3373 155.468,-46.401"/>
</g>
<!-- Node5 -->
<g id="node5" class="node"><title>Node5</title>
<g id="a_node5"><a xlink:href="../../d8/d3a/classviewcontroller_1_1_workspace.html#a09031b0b2f3ebd09140e634cc2374079" target="_top" xlink:title="viewcontroller.Workspace.\lWorkspace">
<polygon fill="white" stroke="black" points="191,-0 191,-30 329,-30 329,-0 191,-0"/>
<text text-anchor="start" x="199" y="-18" font-family="Helvetica,sans-Serif" font-size="10.00">viewcontroller.Workspace.</text>
<text text-anchor="middle" x="260" y="-7" font-family="Helvetica,sans-Serif" font-size="10.00">Workspace</text>
</a>
</g>
</g>
<!-- Node1&#45;&gt;Node5 -->
<g id="edge4" class="edge"><title>Node1&#45;&gt;Node5</title>
<path fill="none" stroke="midnightblue" d="M157.839,-28.1949C168.931,-26.7481 180.203,-25.2779 191,-23.8696"/>
<polygon fill="midnightblue" stroke="midnightblue" points="157.185,-24.7505 147.722,-29.5146 158.09,-31.6917 157.185,-24.7505"/>
</g>
<!-- Node3 -->
<g id="node3" class="node"><title>Node3</title>
<g id="a_node3"><a xlink:href="../../df/df9/classviewcontroller_1_1_s_logo_menu_bar.html#a068f788551874f8c8862c10f8f0f6253" target="_top" xlink:title="viewcontroller.SLogoMenu\lBar.initializeGridMenu">
<polygon fill="white" stroke="black" points="372,-49 372,-79 512,-79 512,-49 372,-49"/>
<text text-anchor="start" x="380" y="-67" font-family="Helvetica,sans-Serif" font-size="10.00">viewcontroller.SLogoMenu</text>
<text text-anchor="middle" x="442" y="-56" font-family="Helvetica,sans-Serif" font-size="10.00">Bar.initializeGridMenu</text>
</a>
</g>
</g>
<!-- Node2&#45;&gt;Node3 -->
<g id="edge2" class="edge"><title>Node2&#45;&gt;Node3</title>
<path fill="none" stroke="midnightblue" d="M346.11,-64C354.733,-64 363.417,-64 371.843,-64"/>
<polygon fill="midnightblue" stroke="midnightblue" points="346.033,-60.5001 336.033,-64 346.033,-67.5001 346.033,-60.5001"/>
</g>
<!-- Node4 -->
<g id="node4" class="node"><title>Node4</title>
<g id="a_node4"><a xlink:href="../../df/df9/classviewcontroller_1_1_s_logo_menu_bar.html#a75b45d0a4b08de5ff8588fc15b2f14fe" target="_top" xlink:title="viewcontroller.SLogoMenu\lBar.SLogoMenuBar">
<polygon fill="white" stroke="black" points="548,-49 548,-79 688,-79 688,-49 548,-49"/>
<text text-anchor="start" x="556" y="-67" font-family="Helvetica,sans-Serif" font-size="10.00">viewcontroller.SLogoMenu</text>
<text text-anchor="middle" x="618" y="-56" font-family="Helvetica,sans-Serif" font-size="10.00">Bar.SLogoMenuBar</text>
</a>
</g>
</g>
<!-- Node3&#45;&gt;Node4 -->
<g id="edge3" class="edge"><title>Node3&#45;&gt;Node4</title>
<path fill="none" stroke="midnightblue" d="M522.035,-64C530.625,-64 539.319,-64 547.779,-64"/>
<polygon fill="midnightblue" stroke="midnightblue" points="522.019,-60.5001 512.019,-64 522.019,-67.5001 522.019,-60.5001"/>
</g>
</g>
</svg>
