<?xml version="1.0" encoding="UTF-8" standalone="no"?>
<!DOCTYPE svg PUBLIC "-//W3C//DTD SVG 1.1//EN"
 "http://www.w3.org/Graphics/SVG/1.1/DTD/svg11.dtd">
<!-- Generated by graphviz version 2.36.0 (20140111.2315)
 -->
<!-- Title: model.MainModel.undoClicked Pages: 1 -->
<!--zoomable 106 -->
<svg id="main" version="1.1" xmlns="http://www.w3.org/2000/svg" xmlns:xlink="http://www.w3.org/1999/xlink" xml:space="preserve" onload="init(evt)">
<style type="text/css"><![CDATA[
.edge:hover path { stroke: red; }
.edge:hover polygon { stroke: red; fill: red; }
]]></style>
<script type="text/javascript"><![CDATA[
var edges = document.getElementsByTagName('g');
if (edges && edges.length) {
  for (var i=0;i<edges.length;i++) {
    if (edges[i].id.substr(0,4)=='edge') {
      edges[i].setAttribute('class','edge');
    }
  }
}
]]></script>
        <defs>
                <circle id="rim" cx="0" cy="0" r="7"/>
                <circle id="rim2" cx="0" cy="0" r="3.5"/>
                <g id="zoomPlus">
                        <use xlink:href="#rim" fill="#404040">
                                <set attributeName="fill" to="#808080" begin="zoomplus.mouseover" end="zoomplus.mouseout"/>
                        </use>
                        <path d="M-4,0h8M0,-4v8" fill="none" stroke="white" stroke-width="1.5" pointer-events="none"/>
                </g>
                <g id="zoomMin">
                        <use xlink:href="#rim" fill="#404040">
                                <set attributeName="fill" to="#808080" begin="zoomminus.mouseover" end="zoomminus.mouseout"/>
                        </use>
                        <path d="M-4,0h8" fill="none" stroke="white" stroke-width="1.5" pointer-events="none"/>
                </g>
                <g id="dirArrow">
                        <path fill="none" stroke="white" stroke-width="1.5" d="M0,-3.0v7 M-2.5,-0.5L0,-3.0L2.5,-0.5"/>
                </g>
               <g id="resetDef">
                       <use xlink:href="#rim2" fill="#404040">
                               <set attributeName="fill" to="#808080" begin="reset.mouseover" end="reset.mouseout"/>
                       </use>
               </g>
        </defs>

<script type="text/javascript">
var viewWidth = 572;
var viewHeight = 106;
var sectionId = 'dynsection-29';
</script>
<script xlink:href="../../svgpan.js"/>
<svg id="graph" class="graph">
<g id="viewport">
<title>model.MainModel.undoClicked</title>
<polygon fill="white" stroke="none" points="-4,4 -4,-101.633 568,-101.633 568,4 -4,4"/>
<!-- Node1 -->
<g id="node1" class="node"><title>Node1</title>
<polygon fill="#bfbfbf" stroke="black" points="0.5,-35.133 0.5,-54.133 161.5,-54.133 161.5,-35.133 0.5,-35.133"/>
<text text-anchor="middle" x="81" y="-42.133" font-family="Helvetica,sans-Serif" font-size="10.00">model.MainModel.undoClicked</text>
</g>
<!-- Node2 -->
<g id="node2" class="node"><title>Node2</title>
<g id="a_node2"><a xlink:href="../../d5/d4b/classturtle_1_1_turtle_history_state.html#a819af201b267b72af77d41bc672d60b7" target="_top" xlink:title="turtle.TurtleHistoryState.get\lAnimation">
<polygon fill="white" stroke="black" points="414.5,-67.633 414.5,-97.633 563.5,-97.633 563.5,-67.633 414.5,-67.633"/>
<text text-anchor="start" x="422.5" y="-85.633" font-family="Helvetica,sans-Serif" font-size="10.00">turtle.TurtleHistoryState.get</text>
<text text-anchor="middle" x="489" y="-74.633" font-family="Helvetica,sans-Serif" font-size="10.00">Animation</text>
</a>
</g>
</g>
<!-- Node1&#45;&gt;Node2 -->
<g id="edge1" class="edge"><title>Node1&#45;&gt;Node2</title>
<path fill="none" stroke="midnightblue" d="M104.148,-54.2263C127.113,-63.6117 164.307,-77.255 198,-82.633 266.828,-93.6194 346.022,-92.7235 404.243,-89.5837"/>
<polygon fill="midnightblue" stroke="midnightblue" points="404.713,-93.0626 414.496,-88.996 404.312,-86.0741 404.713,-93.0626"/>
</g>
<!-- Node3 -->
<g id="node3" class="node"><title>Node3</title>
<g id="a_node3"><a xlink:href="../../d5/d4b/classturtle_1_1_turtle_history_state.html#a6ef2f21cc6638628e67e324582883428" target="_top" xlink:title="turtle.TurtleHistoryState.get\lLines">
<polygon fill="white" stroke="black" points="414.5,-5.63301 414.5,-35.633 563.5,-35.633 563.5,-5.63301 414.5,-5.63301"/>
<text text-anchor="start" x="422.5" y="-23.633" font-family="Helvetica,sans-Serif" font-size="10.00">turtle.TurtleHistoryState.get</text>
<text text-anchor="middle" x="489" y="-12.633" font-family="Helvetica,sans-Serif" font-size="10.00">Lines</text>
</a>
</g>
</g>
<!-- Node1&#45;&gt;Node3 -->
<g id="edge2" class="edge"><title>Node1&#45;&gt;Node3</title>
<path fill="none" stroke="midnightblue" d="M104.148,-35.0397C127.113,-25.6544 164.307,-12.011 198,-6.63301 266.791,4.34742 345.826,-0.60793 403.996,-7.49327"/>
<polygon fill="midnightblue" stroke="midnightblue" points="403.889,-11.0064 414.241,-8.75133 404.742,-4.05857 403.889,-11.0064"/>
</g>
<!-- Node4 -->
<g id="node4" class="node"><title>Node4</title>
<g id="a_node4"><a xlink:href="../../de/d21/classmodel_1_1_main_model.html#a81fd23aa152cf9311abb569fa3c656fb" target="_top" xlink:title="model.MainModel.notifyObservers">
<polygon fill="white" stroke="black" points="198.5,-16.133 198.5,-35.133 377.5,-35.133 377.5,-16.133 198.5,-16.133"/>
<text text-anchor="middle" x="288" y="-23.133" font-family="Helvetica,sans-Serif" font-size="10.00">model.MainModel.notifyObservers</text>
</a>
</g>
</g>
<!-- Node1&#45;&gt;Node4 -->
<g id="edge3" class="edge"><title>Node1&#45;&gt;Node4</title>
<path fill="none" stroke="midnightblue" d="M161.552,-37.2599C170.301,-36.449 179.286,-35.6162 188.233,-34.787"/>
<polygon fill="midnightblue" stroke="midnightblue" points="188.669,-38.2617 198.304,-33.8536 188.023,-31.2915 188.669,-38.2617"/>
</g>
<!-- Node5 -->
<g id="node5" class="node"><title>Node5</title>
<g id="a_node5"><a xlink:href="../../d4/d57/classturtle_1_1_turtle_list_history.html#ad3969f3a8332ac512ce944d50d946fe7" target="_top" xlink:title="turtle.TurtleListHistory.undo">
<polygon fill="white" stroke="black" points="215,-54.133 215,-73.133 361,-73.133 361,-54.133 215,-54.133"/>
<text text-anchor="middle" x="288" y="-61.133" font-family="Helvetica,sans-Serif" font-size="10.00">turtle.TurtleListHistory.undo</text>
</a>
</g>
</g>
<!-- Node1&#45;&gt;Node5 -->
<g id="edge4" class="edge"><title>Node1&#45;&gt;Node5</title>
<path fill="none" stroke="midnightblue" d="M161.552,-52.0061C175.68,-53.3155 190.421,-54.6818 204.626,-55.9983"/>
<polygon fill="midnightblue" stroke="midnightblue" points="204.577,-59.5087 214.858,-56.9466 205.223,-52.5386 204.577,-59.5087"/>
</g>
<!-- Node5&#45;&gt;Node2 -->
<g id="edge5" class="edge"><title>Node5&#45;&gt;Node2</title>
<path fill="none" stroke="midnightblue" d="M361.125,-70.5193C375.088,-71.8525 389.831,-73.2601 404.132,-74.6255"/>
<polygon fill="midnightblue" stroke="midnightblue" points="404.162,-78.1442 414.45,-75.6106 404.828,-71.1759 404.162,-78.1442"/>
</g>
<!-- Node5&#45;&gt;Node3 -->
<g id="edge6" class="edge"><title>Node5&#45;&gt;Node3</title>
<path fill="none" stroke="midnightblue" d="M333.828,-54.1039C347.964,-51.0881 363.637,-47.733 378,-44.633 388.135,-42.4455 398.794,-40.134 409.323,-37.8439"/>
<polygon fill="midnightblue" stroke="midnightblue" points="410.33,-41.2066 419.357,-35.6595 408.841,-34.3668 410.33,-41.2066"/>
</g>
</g>
</svg>
        <g id="navigator" transform="translate(0 0)" fill="#404254">
                <rect fill="#f2f5e9" fill-opacity="0.5" stroke="#606060" stroke-width=".5" x="0" y="0" width="60" height="60"/>
                <use id="zoomplus" xlink:href="#zoomPlus" x="17" y="9" onmousedown="handleZoom(evt,'in')"/>
                <use id="zoomminus" xlink:href="#zoomMin" x="42" y="9" onmousedown="handleZoom(evt,'out')"/>
                <use id="reset" xlink:href="#resetDef" x="30" y="36" onmousedown="handleReset()"/>
                <g id="arrowUp" xlink:href="#dirArrow" transform="translate(30 24)" onmousedown="handlePan(0,-1)">
                  <use xlink:href="#rim" fill="#404040">
                        <set attributeName="fill" to="#808080" begin="arrowUp.mouseover" end="arrowUp.mouseout"/>
                  </use>
                  <path fill="none" stroke="white" stroke-width="1.5" d="M0,-3.0v7 M-2.5,-0.5L0,-3.0L2.5,-0.5"/>
                </g>
                <g id="arrowRight" xlink:href="#dirArrow" transform="rotate(90) translate(36 -43)" onmousedown="handlePan(1,0)">
                  <use xlink:href="#rim" fill="#404040">
                        <set attributeName="fill" to="#808080" begin="arrowRight.mouseover" end="arrowRight.mouseout"/>
                  </use>
                  <path fill="none" stroke="white" stroke-width="1.5" d="M0,-3.0v7 M-2.5,-0.5L0,-3.0L2.5,-0.5"/>
                </g>
                <g id="arrowDown" xlink:href="#dirArrow" transform="rotate(180) translate(-30 -48)" onmousedown="handlePan(0,1)">
                  <use xlink:href="#rim" fill="#404040">
                        <set attributeName="fill" to="#808080" begin="arrowDown.mouseover" end="arrowDown.mouseout"/>
                  </use>
                  <path fill="none" stroke="white" stroke-width="1.5" d="M0,-3.0v7 M-2.5,-0.5L0,-3.0L2.5,-0.5"/>
                </g>
                <g id="arrowLeft" xlink:href="#dirArrow" transform="rotate(270) translate(-36 17)" onmousedown="handlePan(-1,0)">
                  <use xlink:href="#rim" fill="#404040">
                        <set attributeName="fill" to="#808080" begin="arrowLeft.mouseover" end="arrowLeft.mouseout"/>
                  </use>
                  <path fill="none" stroke="white" stroke-width="1.5" d="M0,-3.0v7 M-2.5,-0.5L0,-3.0L2.5,-0.5"/>
                </g>
        </g>
        <svg viewBox="0 0 15 15" width="100%" height="30px" preserveAspectRatio="xMaxYMin meet">
         <g id="arrow_out" transform="scale(0.3 0.3)">
          <a xlink:href="classmodel_1_1_main_model_a318dc67de322b0da955ea11eb79b843f_cgraph_org.svg" target="_base">
           <rect id="button" ry="5" rx="5" y="6" x="6" height="38" width="38"
                fill="#f2f5e9" fill-opacity="0.5" stroke="#606060" stroke-width="1.0"/>
           <path id="arrow"
             d="M 11.500037,31.436501 C 11.940474,20.09759 22.043105,11.32322 32.158766,21.979434 L 37.068811,17.246167 C 37.068811,17.246167 37.088388,32 37.088388,32 L 22.160133,31.978069 C 22.160133,31.978069 26.997745,27.140456 26.997745,27.140456 C 18.528582,18.264221 13.291696,25.230495 11.500037,31.436501 z"
             style="fill:#404040;"/>
          </a>
         </g>
        </svg>
</svg>
