<?xml version="1.0" encoding="UTF-8" standalone="no"?>
<!DOCTYPE svg PUBLIC "-//W3C//DTD SVG 1.1//EN"
 "http://www.w3.org/Graphics/SVG/1.1/DTD/svg11.dtd">
<!-- Generated by graphviz version 2.36.0 (20140111.2315)
 -->
<!-- Title: model.MainModel.notifyObservers Pages: 1 -->
<svg width="2184pt" height="415pt"
 viewBox="0.00 0.00 2184.00 415.00" xmlns="http://www.w3.org/2000/svg" xmlns:xlink="http://www.w3.org/1999/xlink">
<g id="graph0" class="graph" transform="scale(1 1) rotate(0) translate(4 411)">
<title>model.MainModel.notifyObservers</title>
<polygon fill="white" stroke="none" points="-4,4 -4,-411 2180,-411 2180,4 -4,4"/>
<!-- Node1 -->
<g id="node1" class="node"><title>Node1</title>
<polygon fill="#bfbfbf" stroke="black" points="0.5,-158.5 0.5,-177.5 179.5,-177.5 179.5,-158.5 0.5,-158.5"/>
<text text-anchor="middle" x="90" y="-165.5" font-family="Helvetica,sans-Serif" font-size="10.00">model.MainModel.notifyObservers</text>
</g>
<!-- Node2 -->
<g id="node2" class="node"><title>Node2</title>
<g id="a_node2"><a xlink:href="../../de/d21/classmodel_1_1_main_model.html#ad72fa580bd0a6764968613507bae2155" target="_top" xlink:title="model.MainModel.addTurtle">
<polygon fill="white" stroke="black" points="230.5,-109.5 230.5,-128.5 377.5,-128.5 377.5,-109.5 230.5,-109.5"/>
<text text-anchor="middle" x="304" y="-116.5" font-family="Helvetica,sans-Serif" font-size="10.00">model.MainModel.addTurtle</text>
</a>
</g>
</g>
<!-- Node1&#45;&gt;Node2 -->
<g id="edge1" class="edge"><title>Node1&#45;&gt;Node2</title>
<path fill="none" stroke="midnightblue" d="M142.115,-156.186C178.74,-147.721 227.436,-136.465 261.626,-128.563"/>
<polygon fill="midnightblue" stroke="midnightblue" points="141.082,-152.832 132.127,-158.494 142.658,-159.652 141.082,-152.832"/>
</g>
<!-- Node7 -->
<g id="node7" class="node"><title>Node7</title>
<g id="a_node7"><a xlink:href="../../de/d21/classmodel_1_1_main_model.html#a96f4ff9f640f14d713c5d90ab5704884" target="_top" xlink:title="model.MainModel.interpret\lSLogoCommand">
<polygon fill="white" stroke="black" points="231.5,-251 231.5,-281 376.5,-281 376.5,-251 231.5,-251"/>
<text text-anchor="start" x="239.5" y="-269" font-family="Helvetica,sans-Serif" font-size="10.00">model.MainModel.interpret</text>
<text text-anchor="middle" x="304" y="-258" font-family="Helvetica,sans-Serif" font-size="10.00">SLogoCommand</text>
</a>
</g>
</g>
<!-- Node1&#45;&gt;Node7 -->
<g id="edge6" class="edge"><title>Node1&#45;&gt;Node7</title>
<path fill="none" stroke="midnightblue" d="M117.905,-182.389C143.006,-195.614 181.639,-215.463 216,-231 231.28,-237.909 248.347,-244.924 263.291,-250.842"/>
<polygon fill="midnightblue" stroke="midnightblue" points="119.461,-179.252 108.985,-177.668 116.186,-185.439 119.461,-179.252"/>
</g>
<!-- Node24 -->
<g id="node24" class="node"><title>Node24</title>
<g id="a_node24"><a xlink:href="../../de/d21/classmodel_1_1_main_model.html#a431f63b1432be07294d7fcf9980d8c8f" target="_top" xlink:title="model.MainModel.redoClicked">
<polygon fill="white" stroke="black" points="224.5,-158.5 224.5,-177.5 383.5,-177.5 383.5,-158.5 224.5,-158.5"/>
<text text-anchor="middle" x="304" y="-165.5" font-family="Helvetica,sans-Serif" font-size="10.00">model.MainModel.redoClicked</text>
</a>
</g>
</g>
<!-- Node1&#45;&gt;Node24 -->
<g id="edge24" class="edge"><title>Node1&#45;&gt;Node24</title>
<path fill="none" stroke="midnightblue" d="M189.839,-168C201.451,-168 213.178,-168 224.459,-168"/>
<polygon fill="midnightblue" stroke="midnightblue" points="189.679,-164.5 179.679,-168 189.679,-171.5 189.679,-164.5"/>
</g>
<!-- Node27 -->
<g id="node27" class="node"><title>Node27</title>
<g id="a_node27"><a xlink:href="../../de/d21/classmodel_1_1_main_model.html#a4018fb674a6db15b5972b96ce05e2393" target="_top" xlink:title="model.MainModel.setBackground\lColor">
<polygon fill="white" stroke="black" points="216,-33 216,-63 392,-63 392,-33 216,-33"/>
<text text-anchor="start" x="224" y="-51" font-family="Helvetica,sans-Serif" font-size="10.00">model.MainModel.setBackground</text>
<text text-anchor="middle" x="304" y="-40" font-family="Helvetica,sans-Serif" font-size="10.00">Color</text>
</a>
</g>
</g>
<!-- Node1&#45;&gt;Node27 -->
<g id="edge28" class="edge"><title>Node1&#45;&gt;Node27</title>
<path fill="none" stroke="midnightblue" d="M116.736,-153.432C157.254,-130.498 235.513,-86.2004 276.499,-63.0004"/>
<polygon fill="midnightblue" stroke="midnightblue" points="114.969,-150.411 107.99,-158.383 118.417,-156.503 114.969,-150.411"/>
</g>
<!-- Node31 -->
<g id="node31" class="node"><title>Node31</title>
<g id="a_node31"><a xlink:href="../../de/d21/classmodel_1_1_main_model.html#a318dc67de322b0da955ea11eb79b843f" target="_top" xlink:title="model.MainModel.undoClicked">
<polygon fill="white" stroke="black" points="223.5,-202.5 223.5,-221.5 384.5,-221.5 384.5,-202.5 223.5,-202.5"/>
<text text-anchor="middle" x="304" y="-209.5" font-family="Helvetica,sans-Serif" font-size="10.00">model.MainModel.undoClicked</text>
</a>
</g>
</g>
<!-- Node1&#45;&gt;Node31 -->
<g id="edge32" class="edge"><title>Node1&#45;&gt;Node31</title>
<path fill="none" stroke="midnightblue" d="M146.891,-179.6C181.255,-186.732 224.745,-195.758 257.089,-202.471"/>
<polygon fill="midnightblue" stroke="midnightblue" points="147.503,-176.153 137.001,-177.547 146.081,-183.007 147.503,-176.153"/>
</g>
<!-- Node3 -->
<g id="node3" class="node"><title>Node3</title>
<g id="a_node3"><a xlink:href="../../da/d4e/classviewcontroller_1_1_view.html#ad56492108159c72ac56423b7fabe3b81" target="_top" xlink:title="viewcontroller.View.addTurtle\lClicked">
<polygon fill="white" stroke="black" points="452,-55 452,-85 604,-85 604,-55 452,-55"/>
<text text-anchor="start" x="460" y="-73" font-family="Helvetica,sans-Serif" font-size="10.00">viewcontroller.View.addTurtle</text>
<text text-anchor="middle" x="528" y="-62" font-family="Helvetica,sans-Serif" font-size="10.00">Clicked</text>
</a>
</g>
</g>
<!-- Node2&#45;&gt;Node3 -->
<g id="edge2" class="edge"><title>Node2&#45;&gt;Node3</title>
<path fill="none" stroke="midnightblue" d="M357.978,-107.307C388.161,-100.645 426.307,-92.2251 458.718,-85.0713"/>
<polygon fill="midnightblue" stroke="midnightblue" points="357.078,-103.921 348.067,-109.494 358.586,-110.757 357.078,-103.921"/>
</g>
<!-- Node6 -->
<g id="node6" class="node"><title>Node6</title>
<g id="a_node6"><a xlink:href="../../d8/d3a/classviewcontroller_1_1_workspace.html#a09031b0b2f3ebd09140e634cc2374079" target="_top" xlink:title="viewcontroller.Workspace.\lWorkspace">
<polygon fill="white" stroke="black" points="459,-104 459,-134 597,-134 597,-104 459,-104"/>
<text text-anchor="start" x="467" y="-122" font-family="Helvetica,sans-Serif" font-size="10.00">viewcontroller.Workspace.</text>
<text text-anchor="middle" x="528" y="-111" font-family="Helvetica,sans-Serif" font-size="10.00">Workspace</text>
</a>
</g>
</g>
<!-- Node2&#45;&gt;Node6 -->
<g id="edge5" class="edge"><title>Node2&#45;&gt;Node6</title>
<path fill="none" stroke="midnightblue" d="M387.91,-119C411.224,-119 436.307,-119 458.666,-119"/>
<polygon fill="midnightblue" stroke="midnightblue" points="387.691,-115.5 377.691,-119 387.691,-122.5 387.691,-115.5"/>
</g>
<!-- Node4 -->
<g id="node4" class="node"><title>Node4</title>
<g id="a_node4"><a xlink:href="../../df/df9/classviewcontroller_1_1_s_logo_menu_bar.html#a068f788551874f8c8862c10f8f0f6253" target="_top" xlink:title="viewcontroller.SLogoMenu\lBar.initializeGridMenu">
<polygon fill="white" stroke="black" points="715,-82 715,-112 855,-112 855,-82 715,-82"/>
<text text-anchor="start" x="723" y="-100" font-family="Helvetica,sans-Serif" font-size="10.00">viewcontroller.SLogoMenu</text>
<text text-anchor="middle" x="785" y="-89" font-family="Helvetica,sans-Serif" font-size="10.00">Bar.initializeGridMenu</text>
</a>
</g>
</g>
<!-- Node3&#45;&gt;Node4 -->
<g id="edge3" class="edge"><title>Node3&#45;&gt;Node4</title>
<path fill="none" stroke="midnightblue" d="M614.12,-79.0127C646.78,-82.4708 683.627,-86.3723 714.636,-89.6556"/>
<polygon fill="midnightblue" stroke="midnightblue" points="614.442,-75.5273 604.129,-77.9549 613.705,-82.4884 614.442,-75.5273"/>
</g>
<!-- Node5 -->
<g id="node5" class="node"><title>Node5</title>
<g id="a_node5"><a xlink:href="../../df/df9/classviewcontroller_1_1_s_logo_menu_bar.html#a75b45d0a4b08de5ff8588fc15b2f14fe" target="_top" xlink:title="viewcontroller.SLogoMenu\lBar.SLogoMenuBar">
<polygon fill="white" stroke="black" points="975,-117 975,-147 1115,-147 1115,-117 975,-117"/>
<text text-anchor="start" x="983" y="-135" font-family="Helvetica,sans-Serif" font-size="10.00">viewcontroller.SLogoMenu</text>
<text text-anchor="middle" x="1045" y="-124" font-family="Helvetica,sans-Serif" font-size="10.00">Bar.SLogoMenuBar</text>
</a>
</g>
</g>
<!-- Node4&#45;&gt;Node5 -->
<g id="edge4" class="edge"><title>Node4&#45;&gt;Node5</title>
<path fill="none" stroke="midnightblue" d="M865.309,-107.759C900.258,-112.5 940.952,-118.021 974.67,-122.595"/>
<polygon fill="midnightblue" stroke="midnightblue" points="865.519,-104.255 855.139,-106.379 864.578,-111.192 865.519,-104.255"/>
</g>
<!-- Node8 -->
<g id="node8" class="node"><title>Node8</title>
<g id="a_node8"><a xlink:href="../../de/d21/classmodel_1_1_main_model.html#ab4985c9a187961a2d57a8a0a63ab3b18" target="_top" xlink:title="model.MainModel.interpret\lSLogoCommand">
<polygon fill="white" stroke="black" points="455.5,-251 455.5,-281 600.5,-281 600.5,-251 455.5,-251"/>
<text text-anchor="start" x="463.5" y="-269" font-family="Helvetica,sans-Serif" font-size="10.00">model.MainModel.interpret</text>
<text text-anchor="middle" x="528" y="-258" font-family="Helvetica,sans-Serif" font-size="10.00">SLogoCommand</text>
</a>
</g>
</g>
<!-- Node7&#45;&gt;Node8 -->
<g id="edge7" class="edge"><title>Node7&#45;&gt;Node8</title>
<path fill="none" stroke="midnightblue" d="M386.964,-266C409.444,-266 433.633,-266 455.477,-266"/>
<polygon fill="midnightblue" stroke="midnightblue" points="386.77,-262.5 376.77,-266 386.77,-269.5 386.77,-262.5"/>
</g>
<!-- Node9 -->
<g id="node9" class="node"><title>Node9</title>
<g id="a_node9"><a xlink:href="../../d3/d67/classviewcontroller_1_1_main_view_controller.html#a1b77a34d9385ff9296a9dc1db8c322cb" target="_top" xlink:title="viewcontroller.MainViewController.pass\lSLogoCommand">
<polygon fill="white" stroke="black" points="428,-300 428,-330 628,-330 628,-300 428,-300"/>
<text text-anchor="start" x="436" y="-318" font-family="Helvetica,sans-Serif" font-size="10.00">viewcontroller.MainViewController.pass</text>
<text text-anchor="middle" x="528" y="-307" font-family="Helvetica,sans-Serif" font-size="10.00">SLogoCommand</text>
</a>
</g>
</g>
<!-- Node7&#45;&gt;Node9 -->
<g id="edge8" class="edge"><title>Node7&#45;&gt;Node9</title>
<path fill="none" stroke="midnightblue" d="M383.19,-283.258C407.926,-288.718 435.051,-294.705 459.013,-299.994"/>
<polygon fill="midnightblue" stroke="midnightblue" points="383.635,-279.772 373.116,-281.035 382.127,-286.608 383.635,-279.772"/>
</g>
<!-- Node10 -->
<g id="node10" class="node"><title>Node10</title>
<g id="a_node10"><a xlink:href="../../d0/d7c/classviewcontroller_1_1commands_1_1_command_window_container_view_controller.html#a0d7c2e3db2080741b7b01b42a0294695" target="_top" xlink:title="viewcontroller.commands.\lCommandWindowContainerViewController.pass\lSLogoCommand">
<polygon fill="white" stroke="black" points="664,-264.5 664,-305.5 906,-305.5 906,-264.5 664,-264.5"/>
<text text-anchor="start" x="672" y="-293.5" font-family="Helvetica,sans-Serif" font-size="10.00">viewcontroller.commands.</text>
<text text-anchor="start" x="672" y="-282.5" font-family="Helvetica,sans-Serif" font-size="10.00">CommandWindowContainerViewController.pass</text>
<text text-anchor="middle" x="785" y="-271.5" font-family="Helvetica,sans-Serif" font-size="10.00">SLogoCommand</text>
</a>
</g>
</g>
<!-- Node9&#45;&gt;Node10 -->
<g id="edge9" class="edge"><title>Node9&#45;&gt;Node10</title>
<path fill="none" stroke="midnightblue" d="M638.458,-302.123C646.82,-301.139 655.288,-300.143 663.713,-299.151"/>
<polygon fill="midnightblue" stroke="midnightblue" points="637.842,-298.671 628.32,-303.315 638.66,-305.623 637.842,-298.671"/>
</g>
<!-- Node20 -->
<g id="node20" class="node"><title>Node20</title>
<g id="a_node20"><a xlink:href="../../d3/daf/classviewcontroller_1_1turtlegrid_1_1_turtle_window_view_controller.html#a0a65ca6c84f3f3e7bffa675df02c9166" target="_top" xlink:title="viewcontroller.turtlegrid.\lTurtleWindowViewController.pass\lSLogoCommand">
<polygon fill="white" stroke="black" points="700,-324.5 700,-365.5 870,-365.5 870,-324.5 700,-324.5"/>
<text text-anchor="start" x="708" y="-353.5" font-family="Helvetica,sans-Serif" font-size="10.00">viewcontroller.turtlegrid.</text>
<text text-anchor="start" x="708" y="-342.5" font-family="Helvetica,sans-Serif" font-size="10.00">TurtleWindowViewController.pass</text>
<text text-anchor="middle" x="785" y="-331.5" font-family="Helvetica,sans-Serif" font-size="10.00">SLogoCommand</text>
</a>
</g>
</g>
<!-- Node9&#45;&gt;Node20 -->
<g id="edge19" class="edge"><title>Node9&#45;&gt;Node20</title>
<path fill="none" stroke="midnightblue" d="M638.361,-327.866C658.941,-330.287 680.164,-332.784 699.827,-335.097"/>
<polygon fill="midnightblue" stroke="midnightblue" points="638.66,-324.377 628.32,-326.685 637.842,-331.329 638.66,-324.377"/>
</g>
<!-- Node11 -->
<g id="node11" class="node"><title>Node11</title>
<g id="a_node11"><a xlink:href="../../de/d8d/classviewcontroller_1_1commands_1_1_command_prompt_view_controller.html#afc397f419037ca0ec30bdc6e93667e86" target="_top" xlink:title="viewcontroller.commands.\lCommandPromptViewController.pass\lCommandToModel">
<polygon fill="white" stroke="black" points="947.5,-207.5 947.5,-248.5 1142.5,-248.5 1142.5,-207.5 947.5,-207.5"/>
<text text-anchor="start" x="955.5" y="-236.5" font-family="Helvetica,sans-Serif" font-size="10.00">viewcontroller.commands.</text>
<text text-anchor="start" x="955.5" y="-225.5" font-family="Helvetica,sans-Serif" font-size="10.00">CommandPromptViewController.pass</text>
<text text-anchor="middle" x="1045" y="-214.5" font-family="Helvetica,sans-Serif" font-size="10.00">CommandToModel</text>
</a>
</g>
</g>
<!-- Node10&#45;&gt;Node11 -->
<g id="edge10" class="edge"><title>Node10&#45;&gt;Node11</title>
<path fill="none" stroke="midnightblue" d="M889.1,-262.222C909.549,-257.704 930.904,-252.986 950.993,-248.548"/>
<polygon fill="midnightblue" stroke="midnightblue" points="888.153,-258.847 879.144,-264.422 889.664,-265.682 888.153,-258.847"/>
</g>
<!-- Node15 -->
<g id="node15" class="node"><title>Node15</title>
<g id="a_node15"><a xlink:href="../../d4/dc8/classviewcontroller_1_1commands_1_1_user_defined_variables_view_controller.html#a14508efe9a049e27b8a7f4d0928b83cd" target="_top" xlink:title="viewcontroller.commands.\lUserDefinedVariablesViewController.key\lPressed">
<polygon fill="white" stroke="black" points="942,-267.5 942,-308.5 1148,-308.5 1148,-267.5 942,-267.5"/>
<text text-anchor="start" x="950" y="-296.5" font-family="Helvetica,sans-Serif" font-size="10.00">viewcontroller.commands.</text>
<text text-anchor="start" x="950" y="-285.5" font-family="Helvetica,sans-Serif" font-size="10.00">UserDefinedVariablesViewController.key</text>
<text text-anchor="middle" x="1045" y="-274.5" font-family="Helvetica,sans-Serif" font-size="10.00">Pressed</text>
</a>
</g>
</g>
<!-- Node10&#45;&gt;Node15 -->
<g id="edge14" class="edge"><title>Node10&#45;&gt;Node15</title>
<path fill="none" stroke="midnightblue" d="M916.581,-286.518C925.003,-286.616 933.416,-286.714 941.677,-286.81"/>
<polygon fill="midnightblue" stroke="midnightblue" points="916.354,-283.016 906.313,-286.399 916.272,-290.015 916.354,-283.016"/>
</g>
<!-- Node12 -->
<g id="node12" class="node"><title>Node12</title>
<g id="a_node12"><a xlink:href="../../de/d8d/classviewcontroller_1_1commands_1_1_command_prompt_view_controller.html#a02e953379b9b8de02a4e15d94fe1c559" target="_top" xlink:title="viewcontroller.commands.\lCommandPromptViewController.set\lUpSubmitButton">
<polygon fill="white" stroke="black" points="1204,-207.5 1204,-248.5 1392,-248.5 1392,-207.5 1204,-207.5"/>
<text text-anchor="start" x="1212" y="-236.5" font-family="Helvetica,sans-Serif" font-size="10.00">viewcontroller.commands.</text>
<text text-anchor="start" x="1212" y="-225.5" font-family="Helvetica,sans-Serif" font-size="10.00">CommandPromptViewController.set</text>
<text text-anchor="middle" x="1298" y="-214.5" font-family="Helvetica,sans-Serif" font-size="10.00">UpSubmitButton</text>
</a>
</g>
</g>
<!-- Node11&#45;&gt;Node12 -->
<g id="edge11" class="edge"><title>Node11&#45;&gt;Node12</title>
<path fill="none" stroke="midnightblue" d="M1153.09,-228C1169.91,-228 1187.19,-228 1203.67,-228"/>
<polygon fill="midnightblue" stroke="midnightblue" points="1152.68,-224.5 1142.68,-228 1152.68,-231.5 1152.68,-224.5"/>
</g>
<!-- Node13 -->
<g id="node13" class="node"><title>Node13</title>
<g id="a_node13"><a xlink:href="../../de/d8d/classviewcontroller_1_1commands_1_1_command_prompt_view_controller.html#a6931239ae66e9bb6ebfa794b7dada7b5" target="_top" xlink:title="viewcontroller.commands.\lCommandPromptViewController.set\lUpCommandPromptHorizontalBox">
<polygon fill="white" stroke="black" points="1458,-207.5 1458,-248.5 1646,-248.5 1646,-207.5 1458,-207.5"/>
<text text-anchor="start" x="1466" y="-236.5" font-family="Helvetica,sans-Serif" font-size="10.00">viewcontroller.commands.</text>
<text text-anchor="start" x="1466" y="-225.5" font-family="Helvetica,sans-Serif" font-size="10.00">CommandPromptViewController.set</text>
<text text-anchor="middle" x="1552" y="-214.5" font-family="Helvetica,sans-Serif" font-size="10.00">UpCommandPromptHorizontalBox</text>
</a>
</g>
</g>
<!-- Node12&#45;&gt;Node13 -->
<g id="edge12" class="edge"><title>Node12&#45;&gt;Node13</title>
<path fill="none" stroke="midnightblue" d="M1402.26,-228C1420.67,-228 1439.74,-228 1457.84,-228"/>
<polygon fill="midnightblue" stroke="midnightblue" points="1402.12,-224.5 1392.12,-228 1402.12,-231.5 1402.12,-224.5"/>
</g>
<!-- Node14 -->
<g id="node14" class="node"><title>Node14</title>
<g id="a_node14"><a xlink:href="../../de/d8d/classviewcontroller_1_1commands_1_1_command_prompt_view_controller.html#a7e92ce4136e77a153ee6ef862f99052a" target="_top" xlink:title="viewcontroller.commands.\lCommandPromptViewController.\lCommandPromptViewController">
<polygon fill="white" stroke="black" points="1717.5,-207.5 1717.5,-248.5 1890.5,-248.5 1890.5,-207.5 1717.5,-207.5"/>
<text text-anchor="start" x="1725.5" y="-236.5" font-family="Helvetica,sans-Serif" font-size="10.00">viewcontroller.commands.</text>
<text text-anchor="start" x="1725.5" y="-225.5" font-family="Helvetica,sans-Serif" font-size="10.00">CommandPromptViewController.</text>
<text text-anchor="middle" x="1804" y="-214.5" font-family="Helvetica,sans-Serif" font-size="10.00">CommandPromptViewController</text>
</a>
</g>
</g>
<!-- Node13&#45;&gt;Node14 -->
<g id="edge13" class="edge"><title>Node13&#45;&gt;Node14</title>
<path fill="none" stroke="midnightblue" d="M1656.29,-228C1676.57,-228 1697.64,-228 1717.27,-228"/>
<polygon fill="midnightblue" stroke="midnightblue" points="1656.09,-224.5 1646.09,-228 1656.09,-231.5 1656.09,-224.5"/>
</g>
<!-- Node16 -->
<g id="node16" class="node"><title>Node16</title>
<g id="a_node16"><a xlink:href="../../d4/dc8/classviewcontroller_1_1commands_1_1_user_defined_variables_view_controller.html#acac3eb9c8c5f87e3ef36c56477a0cecc" target="_top" xlink:title="viewcontroller.commands.\lUserDefinedVariablesViewController.variable\lClicked">
<polygon fill="white" stroke="black" points="1184.5,-267.5 1184.5,-308.5 1411.5,-308.5 1411.5,-267.5 1184.5,-267.5"/>
<text text-anchor="start" x="1192.5" y="-296.5" font-family="Helvetica,sans-Serif" font-size="10.00">viewcontroller.commands.</text>
<text text-anchor="start" x="1192.5" y="-285.5" font-family="Helvetica,sans-Serif" font-size="10.00">UserDefinedVariablesViewController.variable</text>
<text text-anchor="middle" x="1298" y="-274.5" font-family="Helvetica,sans-Serif" font-size="10.00">Clicked</text>
</a>
</g>
</g>
<!-- Node15&#45;&gt;Node16 -->
<g id="edge15" class="edge"><title>Node15&#45;&gt;Node16</title>
<path fill="none" stroke="midnightblue" d="M1158.23,-288C1166.91,-288 1175.67,-288 1184.35,-288"/>
<polygon fill="midnightblue" stroke="midnightblue" points="1158.09,-284.5 1148.09,-288 1158.09,-291.5 1158.09,-284.5"/>
</g>
<!-- Node17 -->
<g id="node17" class="node"><title>Node17</title>
<g id="a_node17"><a xlink:href="../../d4/dc8/classviewcontroller_1_1commands_1_1_user_defined_variables_view_controller.html#a027a582fe22eab9a05fb0d723fbac644" target="_top" xlink:title="viewcontroller.commands.\lUserDefinedVariablesViewController.add\lVariableToList">
<polygon fill="white" stroke="black" points="1448,-267.5 1448,-308.5 1656,-308.5 1656,-267.5 1448,-267.5"/>
<text text-anchor="start" x="1456" y="-296.5" font-family="Helvetica,sans-Serif" font-size="10.00">viewcontroller.commands.</text>
<text text-anchor="start" x="1456" y="-285.5" font-family="Helvetica,sans-Serif" font-size="10.00">UserDefinedVariablesViewController.add</text>
<text text-anchor="middle" x="1552" y="-274.5" font-family="Helvetica,sans-Serif" font-size="10.00">VariableToList</text>
</a>
</g>
</g>
<!-- Node16&#45;&gt;Node17 -->
<g id="edge16" class="edge"><title>Node16&#45;&gt;Node17</title>
<path fill="none" stroke="midnightblue" d="M1421.93,-288C1430.64,-288 1439.37,-288 1447.95,-288"/>
<polygon fill="midnightblue" stroke="midnightblue" points="1421.73,-284.5 1411.73,-288 1421.73,-291.5 1421.73,-284.5"/>
</g>
<!-- Node18 -->
<g id="node18" class="node"><title>Node18</title>
<g id="a_node18"><a xlink:href="../../d4/dc8/classviewcontroller_1_1commands_1_1_user_defined_variables_view_controller.html#a12bbbabdbb3032751fe57b25e835eafc" target="_top" xlink:title="viewcontroller.commands.\lUserDefinedVariablesViewController.update\lVariableList">
<polygon fill="white" stroke="black" points="1692,-267.5 1692,-308.5 1916,-308.5 1916,-267.5 1692,-267.5"/>
<text text-anchor="start" x="1700" y="-296.5" font-family="Helvetica,sans-Serif" font-size="10.00">viewcontroller.commands.</text>
<text text-anchor="start" x="1700" y="-285.5" font-family="Helvetica,sans-Serif" font-size="10.00">UserDefinedVariablesViewController.update</text>
<text text-anchor="middle" x="1804" y="-274.5" font-family="Helvetica,sans-Serif" font-size="10.00">VariableList</text>
</a>
</g>
</g>
<!-- Node17&#45;&gt;Node18 -->
<g id="edge17" class="edge"><title>Node17&#45;&gt;Node18</title>
<path fill="none" stroke="midnightblue" d="M1666.33,-288C1674.73,-288 1683.21,-288 1691.6,-288"/>
<polygon fill="midnightblue" stroke="midnightblue" points="1666.13,-284.5 1656.13,-288 1666.13,-291.5 1666.13,-284.5"/>
</g>
<!-- Node19 -->
<g id="node19" class="node"><title>Node19</title>
<g id="a_node19"><a xlink:href="../../d4/dc8/classviewcontroller_1_1commands_1_1_user_defined_variables_view_controller.html#a1e84f755902379519ddf5438bc2d27ee" target="_top" xlink:title="viewcontroller.commands.\lUserDefinedVariablesViewController.update">
<polygon fill="white" stroke="black" points="1952,-273 1952,-303 2176,-303 2176,-273 1952,-273"/>
<text text-anchor="start" x="1960" y="-291" font-family="Helvetica,sans-Serif" font-size="10.00">viewcontroller.commands.</text>
<text text-anchor="middle" x="2064" y="-280" font-family="Helvetica,sans-Serif" font-size="10.00">UserDefinedVariablesViewController.update</text>
</a>
</g>
</g>
<!-- Node18&#45;&gt;Node19 -->
<g id="edge18" class="edge"><title>Node18&#45;&gt;Node19</title>
<path fill="none" stroke="midnightblue" d="M1926.5,-288C1934.9,-288 1943.33,-288 1951.67,-288"/>
<polygon fill="midnightblue" stroke="midnightblue" points="1926.29,-284.5 1916.29,-288 1926.29,-291.5 1926.29,-284.5"/>
</g>
<!-- Node21 -->
<g id="node21" class="node"><title>Node21</title>
<g id="a_node21"><a xlink:href="../../d5/dcc/classviewcontroller_1_1turtlegrid_1_1_grid_view_controller.html#a9b87e85ea14f3882c2fefa36ceb159cb" target="_top" xlink:title="viewcontroller.turtlegrid.\lGridViewController.forwardKeyPressed">
<polygon fill="white" stroke="black" points="946.5,-377 946.5,-407 1143.5,-407 1143.5,-377 946.5,-377"/>
<text text-anchor="start" x="954.5" y="-395" font-family="Helvetica,sans-Serif" font-size="10.00">viewcontroller.turtlegrid.</text>
<text text-anchor="middle" x="1045" y="-384" font-family="Helvetica,sans-Serif" font-size="10.00">GridViewController.forwardKeyPressed</text>
</a>
</g>
</g>
<!-- Node20&#45;&gt;Node21 -->
<g id="edge20" class="edge"><title>Node20&#45;&gt;Node21</title>
<path fill="none" stroke="midnightblue" d="M880.192,-362.159C906.765,-367 935.469,-372.229 961.313,-376.937"/>
<polygon fill="midnightblue" stroke="midnightblue" points="880.587,-358.673 870.122,-360.325 879.333,-365.56 880.587,-358.673"/>
</g>
<!-- Node23 -->
<g id="node23" class="node"><title>Node23</title>
<g id="a_node23"><a xlink:href="../../d5/dcc/classviewcontroller_1_1turtlegrid_1_1_grid_view_controller.html#a7562be13e46d86a1d5f9058462a6d189" target="_top" xlink:title="viewcontroller.turtlegrid.\lGridViewController.rightKeyPressed">
<polygon fill="white" stroke="black" points="953.5,-328 953.5,-358 1136.5,-358 1136.5,-328 953.5,-328"/>
<text text-anchor="start" x="961.5" y="-346" font-family="Helvetica,sans-Serif" font-size="10.00">viewcontroller.turtlegrid.</text>
<text text-anchor="middle" x="1045" y="-335" font-family="Helvetica,sans-Serif" font-size="10.00">GridViewController.rightKeyPressed</text>
</a>
</g>
</g>
<!-- Node20&#45;&gt;Node23 -->
<g id="edge22" class="edge"><title>Node20&#45;&gt;Node23</title>
<path fill="none" stroke="midnightblue" d="M880.229,-344.27C904.081,-344.085 929.647,-343.886 953.32,-343.703"/>
<polygon fill="midnightblue" stroke="midnightblue" points="880.094,-340.77 870.122,-344.348 880.149,-347.77 880.094,-340.77"/>
</g>
<!-- Node22 -->
<g id="node22" class="node"><title>Node22</title>
<g id="a_node22"><a xlink:href="../../d5/dcc/classviewcontroller_1_1turtlegrid_1_1_grid_view_controller.html#aacd51569d82b44633f519cc19ef5d937" target="_top" xlink:title="viewcontroller.turtlegrid.\lGridViewController.listenKeys">
<polygon fill="white" stroke="black" points="1221,-328 1221,-358 1375,-358 1375,-328 1221,-328"/>
<text text-anchor="start" x="1229" y="-346" font-family="Helvetica,sans-Serif" font-size="10.00">viewcontroller.turtlegrid.</text>
<text text-anchor="middle" x="1298" y="-335" font-family="Helvetica,sans-Serif" font-size="10.00">GridViewController.listenKeys</text>
</a>
</g>
</g>
<!-- Node21&#45;&gt;Node22 -->
<g id="edge21" class="edge"><title>Node21&#45;&gt;Node22</title>
<path fill="none" stroke="midnightblue" d="M1133.01,-375.014C1161.65,-369.424 1193.24,-363.255 1220.99,-357.838"/>
<polygon fill="midnightblue" stroke="midnightblue" points="1132.16,-371.614 1123.01,-376.965 1133.5,-378.484 1132.16,-371.614"/>
</g>
<!-- Node23&#45;&gt;Node22 -->
<g id="edge23" class="edge"><title>Node23&#45;&gt;Node22</title>
<path fill="none" stroke="midnightblue" d="M1146.76,-343C1171.52,-343 1197.62,-343 1220.99,-343"/>
<polygon fill="midnightblue" stroke="midnightblue" points="1146.62,-339.5 1136.62,-343 1146.62,-346.5 1146.62,-339.5"/>
</g>
<!-- Node25 -->
<g id="node25" class="node"><title>Node25</title>
<g id="a_node25"><a xlink:href="../../da/d4e/classviewcontroller_1_1_view.html#a487061003bc9857296875d07d9b531cc" target="_top" xlink:title="viewcontroller.View.redo\lClicked">
<polygon fill="white" stroke="black" points="463,-153 463,-183 593,-183 593,-153 463,-153"/>
<text text-anchor="start" x="471" y="-171" font-family="Helvetica,sans-Serif" font-size="10.00">viewcontroller.View.redo</text>
<text text-anchor="middle" x="528" y="-160" font-family="Helvetica,sans-Serif" font-size="10.00">Clicked</text>
</a>
</g>
</g>
<!-- Node24&#45;&gt;Node25 -->
<g id="edge25" class="edge"><title>Node24&#45;&gt;Node25</title>
<path fill="none" stroke="midnightblue" d="M393.73,-168C416.819,-168 441.249,-168 462.798,-168"/>
<polygon fill="midnightblue" stroke="midnightblue" points="393.581,-164.5 383.581,-168 393.581,-171.5 393.581,-164.5"/>
</g>
<!-- Node26 -->
<g id="node26" class="node"><title>Node26</title>
<g id="a_node26"><a xlink:href="../../df/df9/classviewcontroller_1_1_s_logo_menu_bar.html#acdf079204224a9c0c24ce028f942e628" target="_top" xlink:title="viewcontroller.SLogoMenu\lBar.initializeEditMenu">
<polygon fill="white" stroke="black" points="715,-153 715,-183 855,-183 855,-153 715,-153"/>
<text text-anchor="start" x="723" y="-171" font-family="Helvetica,sans-Serif" font-size="10.00">viewcontroller.SLogoMenu</text>
<text text-anchor="middle" x="785" y="-160" font-family="Helvetica,sans-Serif" font-size="10.00">Bar.initializeEditMenu</text>
</a>
</g>
</g>
<!-- Node25&#45;&gt;Node26 -->
<g id="edge26" class="edge"><title>Node25&#45;&gt;Node26</title>
<path fill="none" stroke="midnightblue" d="M603.218,-168C638.355,-168 680.076,-168 714.58,-168"/>
<polygon fill="midnightblue" stroke="midnightblue" points="603.018,-164.5 593.018,-168 603.018,-171.5 603.018,-164.5"/>
</g>
<!-- Node26&#45;&gt;Node5 -->
<g id="edge27" class="edge"><title>Node26&#45;&gt;Node5</title>
<path fill="none" stroke="midnightblue" d="M865.309,-156.934C900.258,-152.057 940.952,-146.379 974.67,-141.674"/>
<polygon fill="midnightblue" stroke="midnightblue" points="864.56,-153.504 855.139,-158.353 865.527,-160.437 864.56,-153.504"/>
</g>
<!-- Node28 -->
<g id="node28" class="node"><title>Node28</title>
<g id="a_node28"><a xlink:href="../../d3/d67/classviewcontroller_1_1_main_view_controller.html#ad838f61ff54b140140b60dfe625a269a" target="_top" xlink:title="viewcontroller.MainViewController.grid\lColorChanged">
<polygon fill="white" stroke="black" points="430.5,-6 430.5,-36 625.5,-36 625.5,-6 430.5,-6"/>
<text text-anchor="start" x="438.5" y="-24" font-family="Helvetica,sans-Serif" font-size="10.00">viewcontroller.MainViewController.grid</text>
<text text-anchor="middle" x="528" y="-13" font-family="Helvetica,sans-Serif" font-size="10.00">ColorChanged</text>
</a>
</g>
</g>
<!-- Node27&#45;&gt;Node28 -->
<g id="edge29" class="edge"><title>Node27&#45;&gt;Node28</title>
<path fill="none" stroke="midnightblue" d="M402.151,-36.1844C411.47,-35.051 420.921,-33.9015 430.237,-32.7685"/>
<polygon fill="midnightblue" stroke="midnightblue" points="401.607,-32.7246 392.103,-37.4064 402.453,-39.6734 401.607,-32.7246"/>
</g>
<!-- Node29 -->
<g id="node29" class="node"><title>Node29</title>
<g id="a_node29"><a xlink:href="../../d3/daf/classviewcontroller_1_1turtlegrid_1_1_turtle_window_view_controller.html#ad20e08a23f6390736b1de5252cd2a514" target="_top" xlink:title="viewcontroller.turtlegrid.\lTurtleWindowViewController.grid\lColorChanged">
<polygon fill="white" stroke="black" points="702,-0.5 702,-41.5 868,-41.5 868,-0.5 702,-0.5"/>
<text text-anchor="start" x="710" y="-29.5" font-family="Helvetica,sans-Serif" font-size="10.00">viewcontroller.turtlegrid.</text>
<text text-anchor="start" x="710" y="-18.5" font-family="Helvetica,sans-Serif" font-size="10.00">TurtleWindowViewController.grid</text>
<text text-anchor="middle" x="785" y="-7.5" font-family="Helvetica,sans-Serif" font-size="10.00">ColorChanged</text>
</a>
</g>
</g>
<!-- Node28&#45;&gt;Node29 -->
<g id="edge30" class="edge"><title>Node28&#45;&gt;Node29</title>
<path fill="none" stroke="midnightblue" d="M635.84,-21C657.913,-21 680.834,-21 701.862,-21"/>
<polygon fill="midnightblue" stroke="midnightblue" points="635.768,-17.5001 625.768,-21 635.768,-24.5001 635.768,-17.5001"/>
</g>
<!-- Node30 -->
<g id="node30" class="node"><title>Node30</title>
<g id="a_node30"><a xlink:href="../../d3/daf/classviewcontroller_1_1turtlegrid_1_1_turtle_window_view_controller.html#a732df23c6854ab63ebaac21d105c7072" target="_top" xlink:title="viewcontroller.turtlegrid.\lTurtleWindowViewController.Turtle\lWindowViewController">
<polygon fill="white" stroke="black" points="958.5,-0.5 958.5,-41.5 1131.5,-41.5 1131.5,-0.5 958.5,-0.5"/>
<text text-anchor="start" x="966.5" y="-29.5" font-family="Helvetica,sans-Serif" font-size="10.00">viewcontroller.turtlegrid.</text>
<text text-anchor="start" x="966.5" y="-18.5" font-family="Helvetica,sans-Serif" font-size="10.00">TurtleWindowViewController.Turtle</text>
<text text-anchor="middle" x="1045" y="-7.5" font-family="Helvetica,sans-Serif" font-size="10.00">WindowViewController</text>
</a>
</g>
</g>
<!-- Node29&#45;&gt;Node30 -->
<g id="edge31" class="edge"><title>Node29&#45;&gt;Node30</title>
<path fill="none" stroke="midnightblue" d="M878.588,-21C904.631,-21 932.831,-21 958.444,-21"/>
<polygon fill="midnightblue" stroke="midnightblue" points="878.342,-17.5001 868.342,-21 878.342,-24.5001 878.342,-17.5001"/>
</g>
<!-- Node32 -->
<g id="node32" class="node"><title>Node32</title>
<g id="a_node32"><a xlink:href="../../da/d4e/classviewcontroller_1_1_view.html#ab0cf08da4f357ee008acc7c294930637" target="_top" xlink:title="viewcontroller.View.undo\lClicked">
<polygon fill="white" stroke="black" points="462,-202 462,-232 594,-232 594,-202 462,-202"/>
<text text-anchor="start" x="470" y="-220" font-family="Helvetica,sans-Serif" font-size="10.00">viewcontroller.View.undo</text>
<text text-anchor="middle" x="528" y="-209" font-family="Helvetica,sans-Serif" font-size="10.00">Clicked</text>
</a>
</g>
</g>
<!-- Node31&#45;&gt;Node32 -->
<g id="edge33" class="edge"><title>Node31&#45;&gt;Node32</title>
<path fill="none" stroke="midnightblue" d="M394.745,-214.021C417.216,-214.527 440.893,-215.061 461.907,-215.534"/>
<polygon fill="midnightblue" stroke="midnightblue" points="394.596,-210.517 384.52,-213.791 394.439,-217.515 394.596,-210.517"/>
</g>
<!-- Node32&#45;&gt;Node26 -->
<g id="edge34" class="edge"><title>Node32&#45;&gt;Node26</title>
<path fill="none" stroke="midnightblue" d="M604.162,-202.557C639.122,-195.839 680.436,-187.901 714.644,-181.327"/>
<polygon fill="midnightblue" stroke="midnightblue" points="603.167,-199.184 594.007,-204.508 604.488,-206.058 603.167,-199.184"/>
</g>
</g>
</svg>
