<?xml version="1.0" encoding="UTF-8" standalone="no"?>
<!DOCTYPE svg PUBLIC "-//W3C//DTD SVG 1.1//EN"
 "http://www.w3.org/Graphics/SVG/1.1/DTD/svg11.dtd">
<!-- Generated by graphviz version 2.36.0 (20140111.2315)
 -->
<!-- Title: model.MainModel.updateModel Pages: 1 -->
<svg width="818pt" height="126pt"
 viewBox="0.00 0.00 818.00 126.00" xmlns="http://www.w3.org/2000/svg" xmlns:xlink="http://www.w3.org/1999/xlink">
<g id="graph0" class="graph" transform="scale(1 1) rotate(0) translate(4 122)">
<title>model.MainModel.updateModel</title>
<polygon fill="white" stroke="none" points="-4,4 -4,-122 814,-122 814,4 -4,4"/>
<!-- Node1 -->
<g id="node1" class="node"><title>Node1</title>
<polygon fill="#bfbfbf" stroke="black" points="0,-49.5 0,-68.5 166,-68.5 166,-49.5 0,-49.5"/>
<text text-anchor="middle" x="83" y="-56.5" font-family="Helvetica,sans-Serif" font-size="10.00">model.MainModel.updateModel</text>
</g>
<!-- Node2 -->
<g id="node2" class="node"><title>Node2</title>
<g id="a_node2"><a xlink:href="../../df/df6/classinterpreter_1_1result_1_1_s_logo_result.html#a11062748597af4f6622d9cbc92d4d9c0" target="_top" xlink:title="interpreter.result.SLogo\lResult.getTransition">
<polygon fill="white" stroke="black" points="228,-88 228,-118 358,-118 358,-88 228,-88"/>
<text text-anchor="start" x="236" y="-106" font-family="Helvetica,sans-Serif" font-size="10.00">interpreter.result.SLogo</text>
<text text-anchor="middle" x="293" y="-95" font-family="Helvetica,sans-Serif" font-size="10.00">Result.getTransition</text>
</a>
</g>
</g>
<!-- Node1&#45;&gt;Node2 -->
<g id="edge1" class="edge"><title>Node1&#45;&gt;Node2</title>
<path fill="none" stroke="midnightblue" d="M129.133,-68.5473C155.003,-74.02 188.12,-81.0254 217.728,-87.2886"/>
<polygon fill="midnightblue" stroke="midnightblue" points="217.111,-90.7354 227.619,-89.3809 218.559,-83.887 217.111,-90.7354"/>
</g>
<!-- Node3 -->
<g id="node3" class="node"><title>Node3</title>
<g id="a_node3"><a xlink:href="../../de/d21/classmodel_1_1_main_model.html#aad9f626d0b472cbc3d57e8af0c4326cc" target="_top" xlink:title="model.MainModel.setMyAnimation">
<polygon fill="white" stroke="black" points="202.5,-49.5 202.5,-68.5 383.5,-68.5 383.5,-49.5 202.5,-49.5"/>
<text text-anchor="middle" x="293" y="-56.5" font-family="Helvetica,sans-Serif" font-size="10.00">model.MainModel.setMyAnimation</text>
</a>
</g>
</g>
<!-- Node1&#45;&gt;Node3 -->
<g id="edge2" class="edge"><title>Node1&#45;&gt;Node3</title>
<path fill="none" stroke="midnightblue" d="M166.207,-59C174.695,-59 183.386,-59 192.04,-59"/>
<polygon fill="midnightblue" stroke="midnightblue" points="192.167,-62.5001 202.167,-59 192.167,-55.5001 192.167,-62.5001"/>
</g>
<!-- Node5 -->
<g id="node5" class="node"><title>Node5</title>
<g id="a_node5"><a xlink:href="../../dd/d63/classmodel_1_1_model_updater.html#a08dce6edfc21ceba207d7a534d2bd71c" target="_top" xlink:title="model.ModelUpdater.update\lModel">
<polygon fill="white" stroke="black" points="216.5,-0 216.5,-30 369.5,-30 369.5,-0 216.5,-0"/>
<text text-anchor="start" x="224.5" y="-18" font-family="Helvetica,sans-Serif" font-size="10.00">model.ModelUpdater.update</text>
<text text-anchor="middle" x="293" y="-7" font-family="Helvetica,sans-Serif" font-size="10.00">Model</text>
</a>
</g>
</g>
<!-- Node1&#45;&gt;Node5 -->
<g id="edge4" class="edge"><title>Node1&#45;&gt;Node5</title>
<path fill="none" stroke="midnightblue" d="M129.133,-49.4527C152.969,-44.4103 182.958,-38.0666 210.685,-32.2013"/>
<polygon fill="midnightblue" stroke="midnightblue" points="211.723,-35.5593 220.782,-30.0654 210.274,-28.7108 211.723,-35.5593"/>
</g>
<!-- Node4 -->
<g id="node4" class="node"><title>Node4</title>
<g id="a_node4"><a xlink:href="../../d4/d57/classturtle_1_1_turtle_list_history.html#a1d6e950f470e133d79684a9c3baf54b4" target="_top" xlink:title="turtle.TurtleListHistory.updateList">
<polygon fill="white" stroke="black" points="420.5,-49.5 420.5,-68.5 593.5,-68.5 593.5,-49.5 420.5,-49.5"/>
<text text-anchor="middle" x="507" y="-56.5" font-family="Helvetica,sans-Serif" font-size="10.00">turtle.TurtleListHistory.updateList</text>
</a>
</g>
</g>
<!-- Node3&#45;&gt;Node4 -->
<g id="edge3" class="edge"><title>Node3&#45;&gt;Node4</title>
<path fill="none" stroke="midnightblue" d="M383.6,-59C392.467,-59 401.492,-59 410.417,-59"/>
<polygon fill="midnightblue" stroke="midnightblue" points="410.437,-62.5001 420.437,-59 410.437,-55.5001 410.437,-62.5001"/>
</g>
<!-- Node6 -->
<g id="node6" class="node"><title>Node6</title>
<g id="a_node6"><a xlink:href="../../dd/d63/classmodel_1_1_model_updater.html#ad73b783b59545c68e1fb9123e44492d4" target="_top" xlink:title="model.ModelUpdater.create\lTurtleTransitionMapping">
<polygon fill="white" stroke="black" points="432,-0 432,-30 582,-30 582,-0 432,-0"/>
<text text-anchor="start" x="440" y="-18" font-family="Helvetica,sans-Serif" font-size="10.00">model.ModelUpdater.create</text>
<text text-anchor="middle" x="507" y="-7" font-family="Helvetica,sans-Serif" font-size="10.00">TurtleTransitionMapping</text>
</a>
</g>
</g>
<!-- Node5&#45;&gt;Node6 -->
<g id="edge5" class="edge"><title>Node5&#45;&gt;Node6</title>
<path fill="none" stroke="midnightblue" d="M369.639,-15C386.538,-15 404.561,-15 421.782,-15"/>
<polygon fill="midnightblue" stroke="midnightblue" points="421.814,-18.5001 431.814,-15 421.814,-11.5001 421.814,-18.5001"/>
</g>
<!-- Node7 -->
<g id="node7" class="node"><title>Node7</title>
<g id="a_node7"><a xlink:href="../../dd/d63/classmodel_1_1_model_updater.html#a44e91f3e31045ca0a067ffe9d270ab29" target="_top" xlink:title="model.ModelUpdater.findSelected\lTurtles">
<polygon fill="white" stroke="black" points="630.5,-0 630.5,-30 809.5,-30 809.5,-0 630.5,-0"/>
<text text-anchor="start" x="638.5" y="-18" font-family="Helvetica,sans-Serif" font-size="10.00">model.ModelUpdater.findSelected</text>
<text text-anchor="middle" x="720" y="-7" font-family="Helvetica,sans-Serif" font-size="10.00">Turtles</text>
</a>
</g>
</g>
<!-- Node6&#45;&gt;Node7 -->
<g id="edge6" class="edge"><title>Node6&#45;&gt;Node7</title>
<path fill="none" stroke="midnightblue" d="M582.094,-15C594.368,-15 607.267,-15 620.037,-15"/>
<polygon fill="midnightblue" stroke="midnightblue" points="620.237,-18.5001 630.237,-15 620.237,-11.5001 620.237,-18.5001"/>
</g>
</g>
</svg>
