<?xml version="1.0" encoding="UTF-8" standalone="no"?>
<!DOCTYPE svg PUBLIC "-//W3C//DTD SVG 1.1//EN"
 "http://www.w3.org/Graphics/SVG/1.1/DTD/svg11.dtd">
<!-- Generated by graphviz version 2.36.0 (20140111.2315)
 -->
<!-- Title: model.MainModel.getUserDefinedMethods Pages: 1 -->
<svg width="446pt" height="185pt"
 viewBox="0.00 0.00 446.00 185.00" xmlns="http://www.w3.org/2000/svg" xmlns:xlink="http://www.w3.org/1999/xlink">
<g id="graph0" class="graph" transform="scale(1 1) rotate(0) translate(4 181)">
<title>model.MainModel.getUserDefinedMethods</title>
<polygon fill="white" stroke="none" points="-4,4 -4,-181 442,-181 442,4 -4,4"/>
<!-- Node1 -->
<g id="node1" class="node"><title>Node1</title>
<polygon fill="#bfbfbf" stroke="black" points="0.5,-73 0.5,-103 179.5,-103 179.5,-73 0.5,-73"/>
<text text-anchor="start" x="8.5" y="-91" font-family="Helvetica,sans-Serif" font-size="10.00">model.MainModel.getUserDefined</text>
<text text-anchor="middle" x="90" y="-80" font-family="Helvetica,sans-Serif" font-size="10.00">Methods</text>
</g>
<!-- Node2 -->
<g id="node2" class="node"><title>Node2</title>
<g id="a_node2"><a xlink:href="../../d2/dc7/classinterpreter_1_1_interpreter.html#a023a2012605ac5b6b043e61755c9b0c1" target="_top" xlink:title="interpreter.Interpreter.\lInterpreter">
<polygon fill="white" stroke="black" points="265.5,-147 265.5,-177 388.5,-177 388.5,-147 265.5,-147"/>
<text text-anchor="start" x="273.5" y="-165" font-family="Helvetica,sans-Serif" font-size="10.00">interpreter.Interpreter.</text>
<text text-anchor="middle" x="327" y="-154" font-family="Helvetica,sans-Serif" font-size="10.00">Interpreter</text>
</a>
</g>
</g>
<!-- Node1&#45;&gt;Node2 -->
<g id="edge1" class="edge"><title>Node1&#45;&gt;Node2</title>
<path fill="none" stroke="midnightblue" d="M134.691,-106.99C158.434,-116.834 188.489,-128.534 216,-137 231.817,-141.867 249.177,-146.245 265.338,-149.926"/>
<polygon fill="midnightblue" stroke="midnightblue" points="135.835,-103.675 125.259,-103.04 133.131,-110.132 135.835,-103.675"/>
</g>
<!-- Node3 -->
<g id="node3" class="node"><title>Node3</title>
<g id="a_node3"><a xlink:href="../../d3/de6/classinterpreter_1_1expression_1_1syntax_1_1_command.html#ad9a4da8f1b25c0de3e21d35e891053bc" target="_top" xlink:title="interpreter.expression.syntax.\lCommand.loadArguments">
<polygon fill="white" stroke="black" points="247.5,-98 247.5,-128 406.5,-128 406.5,-98 247.5,-98"/>
<text text-anchor="start" x="255.5" y="-116" font-family="Helvetica,sans-Serif" font-size="10.00">interpreter.expression.syntax.</text>
<text text-anchor="middle" x="327" y="-105" font-family="Helvetica,sans-Serif" font-size="10.00">Command.loadArguments</text>
</a>
</g>
</g>
<!-- Node1&#45;&gt;Node3 -->
<g id="edge2" class="edge"><title>Node1&#45;&gt;Node3</title>
<path fill="none" stroke="midnightblue" d="M189.503,-98.479C208.757,-100.527 228.711,-102.65 247.222,-104.619"/>
<polygon fill="midnightblue" stroke="midnightblue" points="189.823,-94.9934 179.509,-97.4158 189.082,-101.954 189.823,-94.9934"/>
</g>
<!-- Node4 -->
<g id="node4" class="node"><title>Node4</title>
<g id="a_node4"><a xlink:href="../../d3/d5e/classmodel_1_1_serialisable_model.html#afb3dd469985638173108801bbcd2d2e4" target="_top" xlink:title="model.SerialisableModel.\lSerialisableModel">
<polygon fill="white" stroke="black" points="259,-49 259,-79 395,-79 395,-49 259,-49"/>
<text text-anchor="start" x="267" y="-67" font-family="Helvetica,sans-Serif" font-size="10.00">model.SerialisableModel.</text>
<text text-anchor="middle" x="327" y="-56" font-family="Helvetica,sans-Serif" font-size="10.00">SerialisableModel</text>
</a>
</g>
</g>
<!-- Node1&#45;&gt;Node4 -->
<g id="edge3" class="edge"><title>Node1&#45;&gt;Node4</title>
<path fill="none" stroke="midnightblue" d="M189.763,-77.9136C213.038,-75.5366 237.319,-73.0568 258.827,-70.8602"/>
<polygon fill="midnightblue" stroke="midnightblue" points="189.101,-74.4629 179.509,-78.9608 189.812,-81.4266 189.101,-74.4629"/>
</g>
<!-- Node5 -->
<g id="node5" class="node"><title>Node5</title>
<g id="a_node5"><a xlink:href="../../de/d01/classviewcontroller_1_1commands_1_1_user_defined_methods_view_controller.html#a9bc55fe9c5120847c81fd12ec2182568" target="_top" xlink:title="viewcontroller.commands.\lUserDefinedMethodsViewController.update">
<polygon fill="white" stroke="black" points="216.5,-0 216.5,-30 437.5,-30 437.5,-0 216.5,-0"/>
<text text-anchor="start" x="224.5" y="-18" font-family="Helvetica,sans-Serif" font-size="10.00">viewcontroller.commands.</text>
<text text-anchor="middle" x="327" y="-7" font-family="Helvetica,sans-Serif" font-size="10.00">UserDefinedMethodsViewController.update</text>
</a>
</g>
</g>
<!-- Node1&#45;&gt;Node5 -->
<g id="edge4" class="edge"><title>Node1&#45;&gt;Node5</title>
<path fill="none" stroke="midnightblue" d="M135.49,-69.132C159.122,-59.5661 188.828,-48.2585 216,-40 227.899,-36.3837 240.662,-33.0232 253.13,-30.0142"/>
<polygon fill="midnightblue" stroke="midnightblue" points="134.022,-65.9507 126.09,-72.9742 136.671,-72.4303 134.022,-65.9507"/>
</g>
</g>
</svg>
