<?xml version="1.0" encoding="UTF-8" standalone="no"?>
<!DOCTYPE svg PUBLIC "-//W3C//DTD SVG 1.1//EN"
 "http://www.w3.org/Graphics/SVG/1.1/DTD/svg11.dtd">
<!-- Generated by graphviz version 2.36.0 (20140111.2315)
 -->
<!-- Title: model.MainModel.getLanguage Pages: 1 -->
<svg width="348pt" height="87pt"
 viewBox="0.00 0.00 348.00 87.00" xmlns="http://www.w3.org/2000/svg" xmlns:xlink="http://www.w3.org/1999/xlink">
<g id="graph0" class="graph" transform="scale(1 1) rotate(0) translate(4 83)">
<title>model.MainModel.getLanguage</title>
<polygon fill="white" stroke="none" points="-4,4 -4,-83 344,-83 344,4 -4,4"/>
<!-- Node1 -->
<g id="node1" class="node"><title>Node1</title>
<polygon fill="#bfbfbf" stroke="black" points="0.5,-29.5 0.5,-48.5 167.5,-48.5 167.5,-29.5 0.5,-29.5"/>
<text text-anchor="middle" x="84" y="-36.5" font-family="Helvetica,sans-Serif" font-size="10.00">model.MainModel.getLanguage</text>
</g>
<!-- Node2 -->
<g id="node2" class="node"><title>Node2</title>
<g id="a_node2"><a xlink:href="../../d2/dc7/classinterpreter_1_1_interpreter.html#a023a2012605ac5b6b043e61755c9b0c1" target="_top" xlink:title="interpreter.Interpreter.\lInterpreter">
<polygon fill="white" stroke="black" points="210.5,-49 210.5,-79 333.5,-79 333.5,-49 210.5,-49"/>
<text text-anchor="start" x="218.5" y="-67" font-family="Helvetica,sans-Serif" font-size="10.00">interpreter.Interpreter.</text>
<text text-anchor="middle" x="272" y="-56" font-family="Helvetica,sans-Serif" font-size="10.00">Interpreter</text>
</a>
</g>
</g>
<!-- Node1&#45;&gt;Node2 -->
<g id="edge1" class="edge"><title>Node1&#45;&gt;Node2</title>
<path fill="none" stroke="midnightblue" d="M166.06,-49.8951C180.931,-51.8939 196.216,-53.9485 210.361,-55.8496"/>
<polygon fill="midnightblue" stroke="midnightblue" points="166.226,-46.3861 155.849,-48.5227 165.294,-53.3237 166.226,-46.3861"/>
</g>
<!-- Node3 -->
<g id="node3" class="node"><title>Node3</title>
<g id="a_node3"><a xlink:href="../../d3/d5e/classmodel_1_1_serialisable_model.html#afb3dd469985638173108801bbcd2d2e4" target="_top" xlink:title="model.SerialisableModel.\lSerialisableModel">
<polygon fill="white" stroke="black" points="204,-0 204,-30 340,-30 340,-0 204,-0"/>
<text text-anchor="start" x="212" y="-18" font-family="Helvetica,sans-Serif" font-size="10.00">model.SerialisableModel.</text>
<text text-anchor="middle" x="272" y="-7" font-family="Helvetica,sans-Serif" font-size="10.00">SerialisableModel</text>
</a>
</g>
</g>
<!-- Node1&#45;&gt;Node3 -->
<g id="edge2" class="edge"><title>Node1&#45;&gt;Node3</title>
<path fill="none" stroke="midnightblue" d="M169,-28.1612C180.709,-26.6504 192.61,-25.1149 203.951,-23.6515"/>
<polygon fill="midnightblue" stroke="midnightblue" points="168.249,-24.7291 158.779,-29.4801 169.145,-31.6715 168.249,-24.7291"/>
</g>
</g>
</svg>
