<?xml version="1.0" encoding="UTF-8" standalone="no"?>
<!DOCTYPE svg PUBLIC "-//W3C//DTD SVG 1.1//EN"
 "http://www.w3.org/Graphics/SVG/1.1/DTD/svg11.dtd">
<!-- Generated by graphviz version 2.36.0 (20140111.2315)
 -->
<!-- Title: model.MainModel.setBackgroundColor Pages: 1 -->
<svg width="828pt" height="48pt"
 viewBox="0.00 0.00 828.00 48.00" xmlns="http://www.w3.org/2000/svg" xmlns:xlink="http://www.w3.org/1999/xlink">
<g id="graph0" class="graph" transform="scale(1 1) rotate(0) translate(4 44)">
<title>model.MainModel.setBackgroundColor</title>
<polygon fill="white" stroke="none" points="-4,4 -4,-44 824,-44 824,4 -4,4"/>
<!-- Node1 -->
<g id="node1" class="node"><title>Node1</title>
<polygon fill="#bfbfbf" stroke="black" points="0,-5 0,-35 176,-35 176,-5 0,-5"/>
<text text-anchor="start" x="8" y="-23" font-family="Helvetica,sans-Serif" font-size="10.00">model.MainModel.setBackground</text>
<text text-anchor="middle" x="88" y="-12" font-family="Helvetica,sans-Serif" font-size="10.00">Color</text>
</g>
<!-- Node2 -->
<g id="node2" class="node"><title>Node2</title>
<g id="a_node2"><a xlink:href="../../d3/d67/classviewcontroller_1_1_main_view_controller.html#ad838f61ff54b140140b60dfe625a269a" target="_top" xlink:title="viewcontroller.MainViewController.grid\lColorChanged">
<polygon fill="white" stroke="black" points="212.5,-5 212.5,-35 407.5,-35 407.5,-5 212.5,-5"/>
<text text-anchor="start" x="220.5" y="-23" font-family="Helvetica,sans-Serif" font-size="10.00">viewcontroller.MainViewController.grid</text>
<text text-anchor="middle" x="310" y="-12" font-family="Helvetica,sans-Serif" font-size="10.00">ColorChanged</text>
</a>
</g>
</g>
<!-- Node1&#45;&gt;Node2 -->
<g id="edge1" class="edge"><title>Node1&#45;&gt;Node2</title>
<path fill="none" stroke="midnightblue" d="M186.361,-20C195.014,-20 203.772,-20 212.418,-20"/>
<polygon fill="midnightblue" stroke="midnightblue" points="186.266,-16.5001 176.266,-20 186.266,-23.5001 186.266,-16.5001"/>
</g>
<!-- Node3 -->
<g id="node3" class="node"><title>Node3</title>
<g id="a_node3"><a xlink:href="../../d3/daf/classviewcontroller_1_1turtlegrid_1_1_turtle_window_view_controller.html#ad20e08a23f6390736b1de5252cd2a514" target="_top" xlink:title="viewcontroller.turtlegrid.\lTurtleWindowViewController.grid\lColorChanged">
<polygon fill="white" stroke="black" points="444,0.5 444,-40.5 610,-40.5 610,0.5 444,0.5"/>
<text text-anchor="start" x="452" y="-28.5" font-family="Helvetica,sans-Serif" font-size="10.00">viewcontroller.turtlegrid.</text>
<text text-anchor="start" x="452" y="-17.5" font-family="Helvetica,sans-Serif" font-size="10.00">TurtleWindowViewController.grid</text>
<text text-anchor="middle" x="527" y="-6.5" font-family="Helvetica,sans-Serif" font-size="10.00">ColorChanged</text>
</a>
</g>
</g>
<!-- Node2&#45;&gt;Node3 -->
<g id="edge2" class="edge"><title>Node2&#45;&gt;Node3</title>
<path fill="none" stroke="midnightblue" d="M417.994,-20C426.684,-20 435.378,-20 443.85,-20"/>
<polygon fill="midnightblue" stroke="midnightblue" points="417.808,-16.5001 407.808,-20 417.808,-23.5001 417.808,-16.5001"/>
</g>
<!-- Node4 -->
<g id="node4" class="node"><title>Node4</title>
<g id="a_node4"><a xlink:href="../../d3/daf/classviewcontroller_1_1turtlegrid_1_1_turtle_window_view_controller.html#a732df23c6854ab63ebaac21d105c7072" target="_top" xlink:title="viewcontroller.turtlegrid.\lTurtleWindowViewController.Turtle\lWindowViewController">
<polygon fill="white" stroke="black" points="646.5,0.5 646.5,-40.5 819.5,-40.5 819.5,0.5 646.5,0.5"/>
<text text-anchor="start" x="654.5" y="-28.5" font-family="Helvetica,sans-Serif" font-size="10.00">viewcontroller.turtlegrid.</text>
<text text-anchor="start" x="654.5" y="-17.5" font-family="Helvetica,sans-Serif" font-size="10.00">TurtleWindowViewController.Turtle</text>
<text text-anchor="middle" x="733" y="-6.5" font-family="Helvetica,sans-Serif" font-size="10.00">WindowViewController</text>
</a>
</g>
</g>
<!-- Node3&#45;&gt;Node4 -->
<g id="edge3" class="edge"><title>Node3&#45;&gt;Node4</title>
<path fill="none" stroke="midnightblue" d="M620.256,-20C628.965,-20 637.769,-20 646.412,-20"/>
<polygon fill="midnightblue" stroke="midnightblue" points="620.093,-16.5001 610.093,-20 620.093,-23.5001 620.093,-16.5001"/>
</g>
</g>
</svg>
