<?xml version="1.0" encoding="UTF-8" standalone="no"?>
<!DOCTYPE svg PUBLIC "-//W3C//DTD SVG 1.1//EN"
 "http://www.w3.org/Graphics/SVG/1.1/DTD/svg11.dtd">
<!-- Generated by graphviz version 2.36.0 (20140111.2315)
 -->
<!-- Title: model.MainModel.updateModel Pages: 1 -->
<svg width="2140pt" height="207pt"
 viewBox="0.00 0.00 2140.00 207.00" xmlns="http://www.w3.org/2000/svg" xmlns:xlink="http://www.w3.org/1999/xlink">
<g id="graph0" class="graph" transform="scale(1 1) rotate(0) translate(4 203)">
<title>model.MainModel.updateModel</title>
<polygon fill="white" stroke="none" points="-4,4 -4,-203 2136,-203 2136,4 -4,4"/>
<!-- Node1 -->
<g id="node1" class="node"><title>Node1</title>
<polygon fill="#bfbfbf" stroke="black" points="0,-105.5 0,-124.5 166,-124.5 166,-105.5 0,-105.5"/>
<text text-anchor="middle" x="83" y="-112.5" font-family="Helvetica,sans-Serif" font-size="10.00">model.MainModel.updateModel</text>
</g>
<!-- Node2 -->
<g id="node2" class="node"><title>Node2</title>
<g id="a_node2"><a xlink:href="../../de/d21/classmodel_1_1_main_model.html#a96f4ff9f640f14d713c5d90ab5704884" target="_top" xlink:title="model.MainModel.interpret\lSLogoCommand">
<polygon fill="white" stroke="black" points="202.5,-100 202.5,-130 347.5,-130 347.5,-100 202.5,-100"/>
<text text-anchor="start" x="210.5" y="-118" font-family="Helvetica,sans-Serif" font-size="10.00">model.MainModel.interpret</text>
<text text-anchor="middle" x="275" y="-107" font-family="Helvetica,sans-Serif" font-size="10.00">SLogoCommand</text>
</a>
</g>
</g>
<!-- Node1&#45;&gt;Node2 -->
<g id="edge1" class="edge"><title>Node1&#45;&gt;Node2</title>
<path fill="none" stroke="midnightblue" d="M176.435,-115C185.153,-115 193.899,-115 202.381,-115"/>
<polygon fill="midnightblue" stroke="midnightblue" points="176.232,-111.5 166.232,-115 176.232,-118.5 176.232,-111.5"/>
</g>
<!-- Node3 -->
<g id="node3" class="node"><title>Node3</title>
<g id="a_node3"><a xlink:href="../../de/d21/classmodel_1_1_main_model.html#ab4985c9a187961a2d57a8a0a63ab3b18" target="_top" xlink:title="model.MainModel.interpret\lSLogoCommand">
<polygon fill="white" stroke="black" points="411.5,-125 411.5,-155 556.5,-155 556.5,-125 411.5,-125"/>
<text text-anchor="start" x="419.5" y="-143" font-family="Helvetica,sans-Serif" font-size="10.00">model.MainModel.interpret</text>
<text text-anchor="middle" x="484" y="-132" font-family="Helvetica,sans-Serif" font-size="10.00">SLogoCommand</text>
</a>
</g>
</g>
<!-- Node2&#45;&gt;Node3 -->
<g id="edge2" class="edge"><title>Node2&#45;&gt;Node3</title>
<path fill="none" stroke="midnightblue" d="M357.844,-124.885C375.568,-127.025 394.179,-129.273 411.47,-131.361"/>
<polygon fill="midnightblue" stroke="midnightblue" points="357.875,-121.363 347.528,-123.639 357.036,-128.312 357.875,-121.363"/>
</g>
<!-- Node4 -->
<g id="node4" class="node"><title>Node4</title>
<g id="a_node4"><a xlink:href="../../d3/d67/classviewcontroller_1_1_main_view_controller.html#a1b77a34d9385ff9296a9dc1db8c322cb" target="_top" xlink:title="viewcontroller.MainViewController.pass\lSLogoCommand">
<polygon fill="white" stroke="black" points="384,-76 384,-106 584,-106 584,-76 384,-76"/>
<text text-anchor="start" x="392" y="-94" font-family="Helvetica,sans-Serif" font-size="10.00">viewcontroller.MainViewController.pass</text>
<text text-anchor="middle" x="484" y="-83" font-family="Helvetica,sans-Serif" font-size="10.00">SLogoCommand</text>
</a>
</g>
</g>
<!-- Node2&#45;&gt;Node4 -->
<g id="edge3" class="edge"><title>Node2&#45;&gt;Node4</title>
<path fill="none" stroke="midnightblue" d="M357.516,-105.549C366.12,-104.551 374.937,-103.529 383.713,-102.512"/>
<polygon fill="midnightblue" stroke="midnightblue" points="357.058,-102.078 347.528,-106.707 357.864,-109.032 357.058,-102.078"/>
</g>
<!-- Node5 -->
<g id="node5" class="node"><title>Node5</title>
<g id="a_node5"><a xlink:href="../../d0/d7c/classviewcontroller_1_1commands_1_1_command_window_container_view_controller.html#a0d7c2e3db2080741b7b01b42a0294695" target="_top" xlink:title="viewcontroller.commands.\lCommandWindowContainerViewController.pass\lSLogoCommand">
<polygon fill="white" stroke="black" points="620,-100.5 620,-141.5 862,-141.5 862,-100.5 620,-100.5"/>
<text text-anchor="start" x="628" y="-129.5" font-family="Helvetica,sans-Serif" font-size="10.00">viewcontroller.commands.</text>
<text text-anchor="start" x="628" y="-118.5" font-family="Helvetica,sans-Serif" font-size="10.00">CommandWindowContainerViewController.pass</text>
<text text-anchor="middle" x="741" y="-107.5" font-family="Helvetica,sans-Serif" font-size="10.00">SLogoCommand</text>
</a>
</g>
</g>
<!-- Node4&#45;&gt;Node5 -->
<g id="edge4" class="edge"><title>Node4&#45;&gt;Node5</title>
<path fill="none" stroke="midnightblue" d="M594.458,-103.877C602.82,-104.861 611.288,-105.857 619.713,-106.849"/>
<polygon fill="midnightblue" stroke="midnightblue" points="594.66,-100.377 584.32,-102.685 593.842,-107.329 594.66,-100.377"/>
</g>
<!-- Node15 -->
<g id="node15" class="node"><title>Node15</title>
<g id="a_node15"><a xlink:href="../../d3/daf/classviewcontroller_1_1turtlegrid_1_1_turtle_window_view_controller.html#a0a65ca6c84f3f3e7bffa675df02c9166" target="_top" xlink:title="viewcontroller.turtlegrid.\lTurtleWindowViewController.pass\lSLogoCommand">
<polygon fill="white" stroke="black" points="656,-40.5 656,-81.5 826,-81.5 826,-40.5 656,-40.5"/>
<text text-anchor="start" x="664" y="-69.5" font-family="Helvetica,sans-Serif" font-size="10.00">viewcontroller.turtlegrid.</text>
<text text-anchor="start" x="664" y="-58.5" font-family="Helvetica,sans-Serif" font-size="10.00">TurtleWindowViewController.pass</text>
<text text-anchor="middle" x="741" y="-47.5" font-family="Helvetica,sans-Serif" font-size="10.00">SLogoCommand</text>
</a>
</g>
</g>
<!-- Node4&#45;&gt;Node15 -->
<g id="edge14" class="edge"><title>Node4&#45;&gt;Node15</title>
<path fill="none" stroke="midnightblue" d="M594.361,-78.134C614.941,-75.7128 636.164,-73.216 655.827,-70.9027"/>
<polygon fill="midnightblue" stroke="midnightblue" points="593.842,-74.6708 584.32,-79.3153 594.66,-81.6228 593.842,-74.6708"/>
</g>
<!-- Node6 -->
<g id="node6" class="node"><title>Node6</title>
<g id="a_node6"><a xlink:href="../../de/d8d/classviewcontroller_1_1commands_1_1_command_prompt_view_controller.html#afc397f419037ca0ec30bdc6e93667e86" target="_top" xlink:title="viewcontroller.commands.\lCommandPromptViewController.pass\lCommandToModel">
<polygon fill="white" stroke="black" points="903.5,-157.5 903.5,-198.5 1098.5,-198.5 1098.5,-157.5 903.5,-157.5"/>
<text text-anchor="start" x="911.5" y="-186.5" font-family="Helvetica,sans-Serif" font-size="10.00">viewcontroller.commands.</text>
<text text-anchor="start" x="911.5" y="-175.5" font-family="Helvetica,sans-Serif" font-size="10.00">CommandPromptViewController.pass</text>
<text text-anchor="middle" x="1001" y="-164.5" font-family="Helvetica,sans-Serif" font-size="10.00">CommandToModel</text>
</a>
</g>
</g>
<!-- Node5&#45;&gt;Node6 -->
<g id="edge5" class="edge"><title>Node5&#45;&gt;Node6</title>
<path fill="none" stroke="midnightblue" d="M845.1,-143.778C865.549,-148.296 886.904,-153.014 906.993,-157.452"/>
<polygon fill="midnightblue" stroke="midnightblue" points="845.664,-140.318 835.144,-141.578 844.153,-147.153 845.664,-140.318"/>
</g>
<!-- Node10 -->
<g id="node10" class="node"><title>Node10</title>
<g id="a_node10"><a xlink:href="../../d4/dc8/classviewcontroller_1_1commands_1_1_user_defined_variables_view_controller.html#a14508efe9a049e27b8a7f4d0928b83cd" target="_top" xlink:title="viewcontroller.commands.\lUserDefinedVariablesViewController.key\lPressed">
<polygon fill="white" stroke="black" points="898,-97.5 898,-138.5 1104,-138.5 1104,-97.5 898,-97.5"/>
<text text-anchor="start" x="906" y="-126.5" font-family="Helvetica,sans-Serif" font-size="10.00">viewcontroller.commands.</text>
<text text-anchor="start" x="906" y="-115.5" font-family="Helvetica,sans-Serif" font-size="10.00">UserDefinedVariablesViewController.key</text>
<text text-anchor="middle" x="1001" y="-104.5" font-family="Helvetica,sans-Serif" font-size="10.00">Pressed</text>
</a>
</g>
</g>
<!-- Node5&#45;&gt;Node10 -->
<g id="edge9" class="edge"><title>Node5&#45;&gt;Node10</title>
<path fill="none" stroke="midnightblue" d="M872.581,-119.482C881.003,-119.384 889.416,-119.286 897.677,-119.19"/>
<polygon fill="midnightblue" stroke="midnightblue" points="872.272,-115.985 862.313,-119.601 872.354,-122.984 872.272,-115.985"/>
</g>
<!-- Node7 -->
<g id="node7" class="node"><title>Node7</title>
<g id="a_node7"><a xlink:href="../../de/d8d/classviewcontroller_1_1commands_1_1_command_prompt_view_controller.html#a02e953379b9b8de02a4e15d94fe1c559" target="_top" xlink:title="viewcontroller.commands.\lCommandPromptViewController.set\lUpSubmitButton">
<polygon fill="white" stroke="black" points="1160,-157.5 1160,-198.5 1348,-198.5 1348,-157.5 1160,-157.5"/>
<text text-anchor="start" x="1168" y="-186.5" font-family="Helvetica,sans-Serif" font-size="10.00">viewcontroller.commands.</text>
<text text-anchor="start" x="1168" y="-175.5" font-family="Helvetica,sans-Serif" font-size="10.00">CommandPromptViewController.set</text>
<text text-anchor="middle" x="1254" y="-164.5" font-family="Helvetica,sans-Serif" font-size="10.00">UpSubmitButton</text>
</a>
</g>
</g>
<!-- Node6&#45;&gt;Node7 -->
<g id="edge6" class="edge"><title>Node6&#45;&gt;Node7</title>
<path fill="none" stroke="midnightblue" d="M1109.09,-178C1125.91,-178 1143.19,-178 1159.67,-178"/>
<polygon fill="midnightblue" stroke="midnightblue" points="1108.68,-174.5 1098.68,-178 1108.68,-181.5 1108.68,-174.5"/>
</g>
<!-- Node8 -->
<g id="node8" class="node"><title>Node8</title>
<g id="a_node8"><a xlink:href="../../de/d8d/classviewcontroller_1_1commands_1_1_command_prompt_view_controller.html#a6931239ae66e9bb6ebfa794b7dada7b5" target="_top" xlink:title="viewcontroller.commands.\lCommandPromptViewController.set\lUpCommandPromptHorizontalBox">
<polygon fill="white" stroke="black" points="1414,-157.5 1414,-198.5 1602,-198.5 1602,-157.5 1414,-157.5"/>
<text text-anchor="start" x="1422" y="-186.5" font-family="Helvetica,sans-Serif" font-size="10.00">viewcontroller.commands.</text>
<text text-anchor="start" x="1422" y="-175.5" font-family="Helvetica,sans-Serif" font-size="10.00">CommandPromptViewController.set</text>
<text text-anchor="middle" x="1508" y="-164.5" font-family="Helvetica,sans-Serif" font-size="10.00">UpCommandPromptHorizontalBox</text>
</a>
</g>
</g>
<!-- Node7&#45;&gt;Node8 -->
<g id="edge7" class="edge"><title>Node7&#45;&gt;Node8</title>
<path fill="none" stroke="midnightblue" d="M1358.26,-178C1376.67,-178 1395.74,-178 1413.84,-178"/>
<polygon fill="midnightblue" stroke="midnightblue" points="1358.12,-174.5 1348.12,-178 1358.12,-181.5 1358.12,-174.5"/>
</g>
<!-- Node9 -->
<g id="node9" class="node"><title>Node9</title>
<g id="a_node9"><a xlink:href="../../de/d8d/classviewcontroller_1_1commands_1_1_command_prompt_view_controller.html#a7e92ce4136e77a153ee6ef862f99052a" target="_top" xlink:title="viewcontroller.commands.\lCommandPromptViewController.\lCommandPromptViewController">
<polygon fill="white" stroke="black" points="1673.5,-157.5 1673.5,-198.5 1846.5,-198.5 1846.5,-157.5 1673.5,-157.5"/>
<text text-anchor="start" x="1681.5" y="-186.5" font-family="Helvetica,sans-Serif" font-size="10.00">viewcontroller.commands.</text>
<text text-anchor="start" x="1681.5" y="-175.5" font-family="Helvetica,sans-Serif" font-size="10.00">CommandPromptViewController.</text>
<text text-anchor="middle" x="1760" y="-164.5" font-family="Helvetica,sans-Serif" font-size="10.00">CommandPromptViewController</text>
</a>
</g>
</g>
<!-- Node8&#45;&gt;Node9 -->
<g id="edge8" class="edge"><title>Node8&#45;&gt;Node9</title>
<path fill="none" stroke="midnightblue" d="M1612.29,-178C1632.57,-178 1653.64,-178 1673.27,-178"/>
<polygon fill="midnightblue" stroke="midnightblue" points="1612.09,-174.5 1602.09,-178 1612.09,-181.5 1612.09,-174.5"/>
</g>
<!-- Node11 -->
<g id="node11" class="node"><title>Node11</title>
<g id="a_node11"><a xlink:href="../../d4/dc8/classviewcontroller_1_1commands_1_1_user_defined_variables_view_controller.html#acac3eb9c8c5f87e3ef36c56477a0cecc" target="_top" xlink:title="viewcontroller.commands.\lUserDefinedVariablesViewController.variable\lClicked">
<polygon fill="white" stroke="black" points="1140.5,-97.5 1140.5,-138.5 1367.5,-138.5 1367.5,-97.5 1140.5,-97.5"/>
<text text-anchor="start" x="1148.5" y="-126.5" font-family="Helvetica,sans-Serif" font-size="10.00">viewcontroller.commands.</text>
<text text-anchor="start" x="1148.5" y="-115.5" font-family="Helvetica,sans-Serif" font-size="10.00">UserDefinedVariablesViewController.variable</text>
<text text-anchor="middle" x="1254" y="-104.5" font-family="Helvetica,sans-Serif" font-size="10.00">Clicked</text>
</a>
</g>
</g>
<!-- Node10&#45;&gt;Node11 -->
<g id="edge10" class="edge"><title>Node10&#45;&gt;Node11</title>
<path fill="none" stroke="midnightblue" d="M1114.23,-118C1122.91,-118 1131.67,-118 1140.35,-118"/>
<polygon fill="midnightblue" stroke="midnightblue" points="1114.09,-114.5 1104.09,-118 1114.09,-121.5 1114.09,-114.5"/>
</g>
<!-- Node12 -->
<g id="node12" class="node"><title>Node12</title>
<g id="a_node12"><a xlink:href="../../d4/dc8/classviewcontroller_1_1commands_1_1_user_defined_variables_view_controller.html#a027a582fe22eab9a05fb0d723fbac644" target="_top" xlink:title="viewcontroller.commands.\lUserDefinedVariablesViewController.add\lVariableToList">
<polygon fill="white" stroke="black" points="1404,-97.5 1404,-138.5 1612,-138.5 1612,-97.5 1404,-97.5"/>
<text text-anchor="start" x="1412" y="-126.5" font-family="Helvetica,sans-Serif" font-size="10.00">viewcontroller.commands.</text>
<text text-anchor="start" x="1412" y="-115.5" font-family="Helvetica,sans-Serif" font-size="10.00">UserDefinedVariablesViewController.add</text>
<text text-anchor="middle" x="1508" y="-104.5" font-family="Helvetica,sans-Serif" font-size="10.00">VariableToList</text>
</a>
</g>
</g>
<!-- Node11&#45;&gt;Node12 -->
<g id="edge11" class="edge"><title>Node11&#45;&gt;Node12</title>
<path fill="none" stroke="midnightblue" d="M1377.93,-118C1386.64,-118 1395.37,-118 1403.95,-118"/>
<polygon fill="midnightblue" stroke="midnightblue" points="1377.73,-114.5 1367.73,-118 1377.73,-121.5 1377.73,-114.5"/>
</g>
<!-- Node13 -->
<g id="node13" class="node"><title>Node13</title>
<g id="a_node13"><a xlink:href="../../d4/dc8/classviewcontroller_1_1commands_1_1_user_defined_variables_view_controller.html#a12bbbabdbb3032751fe57b25e835eafc" target="_top" xlink:title="viewcontroller.commands.\lUserDefinedVariablesViewController.update\lVariableList">
<polygon fill="white" stroke="black" points="1648,-97.5 1648,-138.5 1872,-138.5 1872,-97.5 1648,-97.5"/>
<text text-anchor="start" x="1656" y="-126.5" font-family="Helvetica,sans-Serif" font-size="10.00">viewcontroller.commands.</text>
<text text-anchor="start" x="1656" y="-115.5" font-family="Helvetica,sans-Serif" font-size="10.00">UserDefinedVariablesViewController.update</text>
<text text-anchor="middle" x="1760" y="-104.5" font-family="Helvetica,sans-Serif" font-size="10.00">VariableList</text>
</a>
</g>
</g>
<!-- Node12&#45;&gt;Node13 -->
<g id="edge12" class="edge"><title>Node12&#45;&gt;Node13</title>
<path fill="none" stroke="midnightblue" d="M1622.33,-118C1630.73,-118 1639.21,-118 1647.6,-118"/>
<polygon fill="midnightblue" stroke="midnightblue" points="1622.13,-114.5 1612.13,-118 1622.13,-121.5 1622.13,-114.5"/>
</g>
<!-- Node14 -->
<g id="node14" class="node"><title>Node14</title>
<g id="a_node14"><a xlink:href="../../d4/dc8/classviewcontroller_1_1commands_1_1_user_defined_variables_view_controller.html#a1e84f755902379519ddf5438bc2d27ee" target="_top" xlink:title="viewcontroller.commands.\lUserDefinedVariablesViewController.update">
<polygon fill="white" stroke="black" points="1908,-103 1908,-133 2132,-133 2132,-103 1908,-103"/>
<text text-anchor="start" x="1916" y="-121" font-family="Helvetica,sans-Serif" font-size="10.00">viewcontroller.commands.</text>
<text text-anchor="middle" x="2020" y="-110" font-family="Helvetica,sans-Serif" font-size="10.00">UserDefinedVariablesViewController.update</text>
</a>
</g>
</g>
<!-- Node13&#45;&gt;Node14 -->
<g id="edge13" class="edge"><title>Node13&#45;&gt;Node14</title>
<path fill="none" stroke="midnightblue" d="M1882.5,-118C1890.9,-118 1899.33,-118 1907.67,-118"/>
<polygon fill="midnightblue" stroke="midnightblue" points="1882.29,-114.5 1872.29,-118 1882.29,-121.5 1882.29,-114.5"/>
</g>
<!-- Node16 -->
<g id="node16" class="node"><title>Node16</title>
<g id="a_node16"><a xlink:href="../../d5/dcc/classviewcontroller_1_1turtlegrid_1_1_grid_view_controller.html#a9b87e85ea14f3882c2fefa36ceb159cb" target="_top" xlink:title="viewcontroller.turtlegrid.\lGridViewController.forwardKeyPressed">
<polygon fill="white" stroke="black" points="902.5,-49 902.5,-79 1099.5,-79 1099.5,-49 902.5,-49"/>
<text text-anchor="start" x="910.5" y="-67" font-family="Helvetica,sans-Serif" font-size="10.00">viewcontroller.turtlegrid.</text>
<text text-anchor="middle" x="1001" y="-56" font-family="Helvetica,sans-Serif" font-size="10.00">GridViewController.forwardKeyPressed</text>
</a>
</g>
</g>
<!-- Node15&#45;&gt;Node16 -->
<g id="edge15" class="edge"><title>Node15&#45;&gt;Node16</title>
<path fill="none" stroke="midnightblue" d="M836.199,-62.0953C857.65,-62.3448 880.489,-62.6103 902.091,-62.8615"/>
<polygon fill="midnightblue" stroke="midnightblue" points="836.162,-58.5948 826.122,-61.9782 836.08,-65.5943 836.162,-58.5948"/>
</g>
<!-- Node18 -->
<g id="node18" class="node"><title>Node18</title>
<g id="a_node18"><a xlink:href="../../d5/dcc/classviewcontroller_1_1turtlegrid_1_1_grid_view_controller.html#a7562be13e46d86a1d5f9058462a6d189" target="_top" xlink:title="viewcontroller.turtlegrid.\lGridViewController.rightKeyPressed">
<polygon fill="white" stroke="black" points="909.5,-0 909.5,-30 1092.5,-30 1092.5,-0 909.5,-0"/>
<text text-anchor="start" x="917.5" y="-18" font-family="Helvetica,sans-Serif" font-size="10.00">viewcontroller.turtlegrid.</text>
<text text-anchor="middle" x="1001" y="-7" font-family="Helvetica,sans-Serif" font-size="10.00">GridViewController.rightKeyPressed</text>
</a>
</g>
</g>
<!-- Node15&#45;&gt;Node18 -->
<g id="edge17" class="edge"><title>Node15&#45;&gt;Node18</title>
<path fill="none" stroke="midnightblue" d="M835.987,-44.2426C862.016,-39.6018 890.102,-34.5942 915.551,-30.0568"/>
<polygon fill="midnightblue" stroke="midnightblue" points="835.352,-40.8005 826.122,-46.0015 836.581,-47.6918 835.352,-40.8005"/>
</g>
<!-- Node17 -->
<g id="node17" class="node"><title>Node17</title>
<g id="a_node17"><a xlink:href="../../d5/dcc/classviewcontroller_1_1turtlegrid_1_1_grid_view_controller.html#aacd51569d82b44633f519cc19ef5d937" target="_top" xlink:title="viewcontroller.turtlegrid.\lGridViewController.listenKeys">
<polygon fill="white" stroke="black" points="1177,-25 1177,-55 1331,-55 1331,-25 1177,-25"/>
<text text-anchor="start" x="1185" y="-43" font-family="Helvetica,sans-Serif" font-size="10.00">viewcontroller.turtlegrid.</text>
<text text-anchor="middle" x="1254" y="-32" font-family="Helvetica,sans-Serif" font-size="10.00">GridViewController.listenKeys</text>
</a>
</g>
</g>
<!-- Node16&#45;&gt;Node17 -->
<g id="edge16" class="edge"><title>Node16&#45;&gt;Node17</title>
<path fill="none" stroke="midnightblue" d="M1109.73,-53.6987C1132.33,-51.5377 1155.72,-49.3017 1176.88,-47.2787"/>
<polygon fill="midnightblue" stroke="midnightblue" points="1109.38,-50.2162 1099.76,-54.6523 1110.05,-57.1844 1109.38,-50.2162"/>
</g>
<!-- Node18&#45;&gt;Node17 -->
<g id="edge18" class="edge"><title>Node18&#45;&gt;Node17</title>
<path fill="none" stroke="midnightblue" d="M1102.76,-25.0362C1127.52,-27.5023 1153.62,-30.1015 1176.99,-32.4292"/>
<polygon fill="midnightblue" stroke="midnightblue" points="1102.91,-21.534 1092.62,-24.0256 1102.22,-28.4995 1102.91,-21.534"/>
</g>
</g>
</svg>
