<?xml version="1.0" encoding="UTF-8" standalone="no"?>
<!DOCTYPE svg PUBLIC "-//W3C//DTD SVG 1.1//EN"
 "http://www.w3.org/Graphics/SVG/1.1/DTD/svg11.dtd">
<!-- Generated by graphviz version 2.36.0 (20140111.2315)
 -->
<!-- Title: interpreter.expression.syntax.Command Pages: 1 -->
<svg width="2014pt" height="838pt"
 viewBox="0.00 0.00 2014.00 838.00" xmlns="http://www.w3.org/2000/svg" xmlns:xlink="http://www.w3.org/1999/xlink">
<g id="graph0" class="graph" transform="scale(1 1) rotate(0) translate(4 834)">
<title>interpreter.expression.syntax.Command</title>
<polygon fill="white" stroke="none" points="-4,4 -4,-834 2010,-834 2010,4 -4,4"/>
<!-- Node1 -->
<g id="node1" class="node"><title>Node1</title>
<polygon fill="#bfbfbf" stroke="black" points="1846.5,-257 1846.5,-287 2005.5,-287 2005.5,-257 1846.5,-257"/>
<text text-anchor="start" x="1854.5" y="-275" font-family="Helvetica,sans-Serif" font-size="10.00">interpreter.expression.syntax.</text>
<text text-anchor="middle" x="1926" y="-264" font-family="Helvetica,sans-Serif" font-size="10.00">Command</text>
</g>
<!-- Node2 -->
<g id="node2" class="node"><title>Node2</title>
<g id="a_node2"><a xlink:href="../../db/de0/classinterpreter_1_1expression_1_1_syntax_expression.html" target="_top" xlink:title="interpreter.expression.Syntax\lExpression">
<polygon fill="white" stroke="black" points="1650,-642 1650,-672 1808,-672 1808,-642 1650,-642"/>
<text text-anchor="start" x="1658" y="-660" font-family="Helvetica,sans-Serif" font-size="10.00">interpreter.expression.Syntax</text>
<text text-anchor="middle" x="1729" y="-649" font-family="Helvetica,sans-Serif" font-size="10.00">Expression</text>
</a>
</g>
</g>
<!-- Node2&#45;&gt;Node1 -->
<g id="edge1" class="edge"><title>Node2&#45;&gt;Node1</title>
<path fill="none" stroke="midnightblue" d="M1742.34,-632.63C1779.11,-560.043 1887.19,-346.644 1917.2,-287.406"/>
<polygon fill="midnightblue" stroke="midnightblue" points="1739.04,-631.405 1737.64,-641.908 1745.29,-634.568 1739.04,-631.405"/>
</g>
<!-- Node3 -->
<g id="node3" class="node"><title>Node3</title>
<g id="a_node3"><a xlink:href="../../db/d09/interfaceinterpreter_1_1expression_1_1_s_logo_expression.html" target="_top" xlink:title="interpreter.expression.SLogo\lExpression">
<polygon fill="white" stroke="black" points="1410.5,-799 1410.5,-829 1565.5,-829 1565.5,-799 1410.5,-799"/>
<text text-anchor="start" x="1418.5" y="-817" font-family="Helvetica,sans-Serif" font-size="10.00">interpreter.expression.SLogo</text>
<text text-anchor="middle" x="1488" y="-806" font-family="Helvetica,sans-Serif" font-size="10.00">Expression</text>
</a>
</g>
</g>
<!-- Node3&#45;&gt;Node1 -->
<g id="edge48" class="edge"><title>Node3&#45;&gt;Node1</title>
<path fill="none" stroke="#9a32cd" stroke-dasharray="5,2" d="M1575.65,-814.69C1594.61,-812.828 1614.3,-809.29 1632,-803 1721.68,-771.129 1752.57,-758.372 1808,-681 1901.98,-549.816 1920.77,-344.615 1924.25,-287.313"/>
<polygon fill="#9a32cd" stroke="#9a32cd" points="1575.18,-811.217 1565.51,-815.538 1575.76,-818.192 1575.18,-811.217"/>
<text text-anchor="middle" x="1729" y="-800" font-family="Helvetica,sans-Serif" font-size="10.00"> myCommands</text>
</g>
<!-- Node3&#45;&gt;Node2 -->
<g id="edge2" class="edge"><title>Node3&#45;&gt;Node2</title>
<path fill="none" stroke="midnightblue" d="M1575.41,-801.843C1595.04,-796.542 1615.07,-788.93 1632,-778 1674.35,-750.653 1706.27,-698.216 1720.24,-672.288"/>
<polygon fill="midnightblue" stroke="midnightblue" points="1574.35,-798.5 1565.51,-804.337 1576.06,-805.288 1574.35,-798.5"/>
</g>
<!-- Node4 -->
<g id="node4" class="node"><title>Node4</title>
<polygon fill="white" stroke="#bfbfbf" points="378.5,-679 378.5,-709 545.5,-709 545.5,-679 378.5,-679"/>
<text text-anchor="start" x="386.5" y="-697" font-family="Helvetica,sans-Serif" font-size="10.00">Deque&lt; interpreter.expression.</text>
<text text-anchor="middle" x="462" y="-686" font-family="Helvetica,sans-Serif" font-size="10.00">SLogoExpression &gt;</text>
</g>
<!-- Node4&#45;&gt;Node2 -->
<g id="edge3" class="edge"><title>Node4&#45;&gt;Node2</title>
<path fill="none" stroke="#9a32cd" stroke-dasharray="5,2" d="M541.123,-714.343C542.807,-715.495 544.436,-716.713 546,-718 559.506,-729.116 549.334,-743.466 564,-753 655.443,-812.445 699.933,-767 809,-767 809,-767 809,-767 1489,-767 1557.09,-767 1581.33,-757.485 1632,-712 1645.02,-700.316 1636.33,-687.909 1650,-677 1652.19,-675.256 1654.51,-673.663 1656.93,-672.207"/>
<polygon fill="#9a32cd" stroke="#9a32cd" points="542.686,-711.2 532.3,-709.107 539.113,-717.22 542.686,-711.2"/>
<text text-anchor="middle" x="1161" y="-770" font-family="Helvetica,sans-Serif" font-size="10.00"> myArguments</text>
</g>
<!-- Node27 -->
<g id="node27" class="node"><title>Node27</title>
<g id="a_node27"><a xlink:href="../../d3/da2/classinterpreter_1_1_parser.html" target="_top" xlink:title="interpreter.Parser">
<polygon fill="white" stroke="black" points="760,-531.5 760,-550.5 860,-550.5 860,-531.5 760,-531.5"/>
<text text-anchor="middle" x="810" y="-538.5" font-family="Helvetica,sans-Serif" font-size="10.00">interpreter.Parser</text>
</a>
</g>
</g>
<!-- Node4&#45;&gt;Node27 -->
<g id="edge31" class="edge"><title>Node4&#45;&gt;Node27</title>
<path fill="none" stroke="#9a32cd" stroke-dasharray="5,2" d="M555.828,-690.301C620.361,-686.826 696.753,-680.543 708,-670 744.142,-636.119 692.088,-596.113 726,-560 734.804,-550.625 747.21,-545.428 759.753,-542.651"/>
<polygon fill="#9a32cd" stroke="#9a32cd" points="555.389,-686.819 545.584,-690.835 555.753,-693.81 555.389,-686.819"/>
<text text-anchor="middle" x="636" y="-704" font-family="Helvetica,sans-Serif" font-size="10.00"> myLoadedExpressions</text>
<text text-anchor="middle" x="636" y="-693" font-family="Helvetica,sans-Serif" font-size="10.00">myParameterStack</text>
</g>
<!-- Node5 -->
<g id="node5" class="node"><title>Node5</title>
<g id="a_node5"><a xlink:href="../../de/d21/classmodel_1_1_main_model.html" target="_top" xlink:title="model.MainModel">
<polygon fill="white" stroke="black" points="1437.5,-422.5 1437.5,-441.5 1538.5,-441.5 1538.5,-422.5 1437.5,-422.5"/>
<text text-anchor="middle" x="1488" y="-429.5" font-family="Helvetica,sans-Serif" font-size="10.00">model.MainModel</text>
</a>
</g>
</g>
<!-- Node5&#45;&gt;Node2 -->
<g id="edge4" class="edge"><title>Node5&#45;&gt;Node2</title>
<path fill="none" stroke="#9a32cd" stroke-dasharray="5,2" d="M1506.76,-448.721C1551.58,-490.912 1668.73,-601.206 1711.81,-641.756"/>
<polygon fill="#9a32cd" stroke="#9a32cd" points="1508.95,-445.974 1499.27,-441.668 1504.15,-451.071 1508.95,-445.974"/>
<text text-anchor="middle" x="1608" y="-568" font-family="Helvetica,sans-Serif" font-size="10.00"> myModel</text>
</g>
<!-- Node23 -->
<g id="node23" class="node"><title>Node23</title>
<g id="a_node23"><a xlink:href="../../d2/dc7/classinterpreter_1_1_interpreter.html" target="_top" xlink:title="interpreter.Interpreter">
<polygon fill="white" stroke="black" points="1100.5,-519.5 1100.5,-538.5 1221.5,-538.5 1221.5,-519.5 1100.5,-519.5"/>
<text text-anchor="middle" x="1161" y="-526.5" font-family="Helvetica,sans-Serif" font-size="10.00">interpreter.Interpreter</text>
</a>
</g>
</g>
<!-- Node5&#45;&gt;Node23 -->
<g id="edge26" class="edge"><title>Node5&#45;&gt;Node23</title>
<path fill="none" stroke="#9a32cd" stroke-dasharray="5,2" d="M1469.35,-448.829C1451.4,-464.86 1422.03,-488.239 1392,-500 1376.45,-506.092 1284.36,-516.477 1221.53,-523.026"/>
<polygon fill="#9a32cd" stroke="#9a32cd" points="1472.19,-450.971 1477.19,-441.632 1467.46,-445.812 1472.19,-450.971"/>
<text text-anchor="middle" x="1326" y="-522" font-family="Helvetica,sans-Serif" font-size="10.00"> myModel</text>
</g>
<!-- Node28 -->
<g id="node28" class="node"><title>Node28</title>
<g id="a_node28"><a xlink:href="../../d8/daa/classinterpreter_1_1_s_logo_expression_factory.html" target="_top" xlink:title="interpreter.SLogoExpression\lFactory">
<polygon fill="white" stroke="black" points="1653,-230 1653,-260 1805,-260 1805,-230 1653,-230"/>
<text text-anchor="start" x="1661" y="-248" font-family="Helvetica,sans-Serif" font-size="10.00">interpreter.SLogoExpression</text>
<text text-anchor="middle" x="1729" y="-237" font-family="Helvetica,sans-Serif" font-size="10.00">Factory</text>
</a>
</g>
</g>
<!-- Node5&#45;&gt;Node28 -->
<g id="edge33" class="edge"><title>Node5&#45;&gt;Node28</title>
<path fill="none" stroke="#9a32cd" stroke-dasharray="5,2" d="M1509.1,-416.274C1554.37,-380.85 1663.86,-295.186 1708.53,-260.234"/>
<polygon fill="#9a32cd" stroke="#9a32cd" points="1506.9,-413.551 1501.18,-422.47 1511.21,-419.064 1506.9,-413.551"/>
<text text-anchor="middle" x="1608" y="-359" font-family="Helvetica,sans-Serif" font-size="10.00"> myModel</text>
</g>
<!-- Node6 -->
<g id="node6" class="node"><title>Node6</title>
<g id="a_node6"><a xlink:href="../../da/dee/classmodel_1_1_user_defined_commands_model.html" target="_top" xlink:title="model.UserDefinedCommands\lModel">
<polygon fill="white" stroke="black" points="380,-165 380,-195 544,-195 544,-165 380,-165"/>
<text text-anchor="start" x="388" y="-183" font-family="Helvetica,sans-Serif" font-size="10.00">model.UserDefinedCommands</text>
<text text-anchor="middle" x="462" y="-172" font-family="Helvetica,sans-Serif" font-size="10.00">Model</text>
</a>
</g>
</g>
<!-- Node6&#45;&gt;Node1 -->
<g id="edge46" class="edge"><title>Node6&#45;&gt;Node1</title>
<path fill="none" stroke="#9a32cd" stroke-dasharray="5,2" d="M547.634,-163.167C617.451,-150.748 719.254,-136 809,-136 809,-136 809,-136 1730,-136 1813.79,-136 1887.31,-221.517 1914.16,-256.926"/>
<polygon fill="#9a32cd" stroke="#9a32cd" points="546.791,-159.763 537.571,-164.981 548.033,-166.652 546.791,-159.763"/>
<text text-anchor="middle" x="1326" y="-139" font-family="Helvetica,sans-Serif" font-size="10.00"> allDefinedCommands</text>
</g>
<!-- Node6&#45;&gt;Node5 -->
<g id="edge5" class="edge"><title>Node6&#45;&gt;Node5</title>
<path fill="none" stroke="#9a32cd" stroke-dasharray="5,2" d="M554.039,-172.756C600.268,-170.443 657.248,-169.68 708,-175 708,-175 1392,-320 1392,-320 1436.01,-346.266 1469.47,-400.331 1481.82,-422.35"/>
<polygon fill="#9a32cd" stroke="#9a32cd" points="553.843,-169.262 544.043,-173.289 554.216,-176.252 553.843,-169.262"/>
<text text-anchor="middle" x="987" y="-253" font-family="Helvetica,sans-Serif" font-size="10.00"> myUserDefinedMethodsModel</text>
</g>
<!-- Node31 -->
<g id="node31" class="node"><title>Node31</title>
<g id="a_node31"><a xlink:href="../../d5/d09/classinterpreter_1_1_command_reference_library.html" target="_top" xlink:title="interpreter.CommandReference\lLibrary">
<polygon fill="white" stroke="black" points="726.5,-247 726.5,-277 893.5,-277 893.5,-247 726.5,-247"/>
<text text-anchor="start" x="734.5" y="-265" font-family="Helvetica,sans-Serif" font-size="10.00">interpreter.CommandReference</text>
<text text-anchor="middle" x="810" y="-254" font-family="Helvetica,sans-Serif" font-size="10.00">Library</text>
</a>
</g>
</g>
<!-- Node6&#45;&gt;Node31 -->
<g id="edge37" class="edge"><title>Node6&#45;&gt;Node31</title>
<path fill="none" stroke="#9a32cd" stroke-dasharray="5,2" d="M527.556,-197.576C539.621,-200.588 552.159,-203.536 564,-206 627.452,-219.204 645.002,-213.777 708,-229 727.903,-233.809 749.535,-240.652 767.654,-246.861"/>
<polygon fill="#9a32cd" stroke="#9a32cd" points="528.112,-194.106 517.558,-195.04 526.391,-200.891 528.112,-194.106"/>
<text text-anchor="middle" x="636" y="-232" font-family="Helvetica,sans-Serif" font-size="10.00"> myDefinedCommands</text>
</g>
<!-- Node7 -->
<g id="node7" class="node"><title>Node7</title>
<polygon fill="white" stroke="#bfbfbf" points="60.5,-113.5 60.5,-132.5 131.5,-132.5 131.5,-113.5 60.5,-113.5"/>
<text text-anchor="middle" x="96" y="-120.5" font-family="Helvetica,sans-Serif" font-size="10.00">Serializable</text>
</g>
<!-- Node7&#45;&gt;Node6 -->
<g id="edge6" class="edge"><title>Node7&#45;&gt;Node6</title>
<path fill="none" stroke="midnightblue" d="M141.575,-116.022C195.764,-109.59 288.789,-105.26 360,-137 370.334,-141.606 368.29,-149.193 378,-155 384.458,-158.862 391.559,-162.169 398.807,-164.991"/>
<polygon fill="midnightblue" stroke="midnightblue" points="141.08,-112.557 131.598,-117.283 141.958,-119.502 141.08,-112.557"/>
</g>
<!-- Node13 -->
<g id="node13" class="node"><title>Node13</title>
<g id="a_node13"><a xlink:href="../../db/d84/classmodel_1_1_command_history_model.html" target="_top" xlink:title="model.CommandHistoryModel">
<polygon fill="white" stroke="black" points="1080,-88.5 1080,-107.5 1242,-107.5 1242,-88.5 1080,-88.5"/>
<text text-anchor="middle" x="1161" y="-95.5" font-family="Helvetica,sans-Serif" font-size="10.00">model.CommandHistoryModel</text>
</a>
</g>
</g>
<!-- Node7&#45;&gt;Node13 -->
<g id="edge13" class="edge"><title>Node7&#45;&gt;Node13</title>
<path fill="none" stroke="midnightblue" d="M141.68,-117.796C162.427,-115.6 187.44,-113.262 210,-112 531.971,-93.9871 916.216,-95.3214 1079.85,-96.958"/>
<polygon fill="midnightblue" stroke="midnightblue" points="141.128,-114.335 131.563,-118.892 141.881,-121.295 141.128,-114.335"/>
</g>
<!-- Node16 -->
<g id="node16" class="node"><title>Node16</title>
<g id="a_node16"><a xlink:href="../../df/d55/classmodel_1_1_user_defined_variables_model.html" target="_top" xlink:title="model.UserDefinedVariables\lModel">
<polygon fill="white" stroke="black" points="386,-221 386,-251 538,-251 538,-221 386,-221"/>
<text text-anchor="start" x="394" y="-239" font-family="Helvetica,sans-Serif" font-size="10.00">model.UserDefinedVariables</text>
<text text-anchor="middle" x="462" y="-228" font-family="Helvetica,sans-Serif" font-size="10.00">Model</text>
</a>
</g>
</g>
<!-- Node7&#45;&gt;Node16 -->
<g id="edge17" class="edge"><title>Node7&#45;&gt;Node16</title>
<path fill="none" stroke="midnightblue" d="M141.645,-128.018C207.022,-136.052 324.86,-153.337 360,-177 371.963,-185.056 366.744,-194.983 378,-204 386.678,-210.952 397.04,-216.525 407.453,-220.944"/>
<polygon fill="midnightblue" stroke="midnightblue" points="141.97,-124.532 131.623,-126.809 141.132,-131.482 141.97,-124.532"/>
</g>
<!-- Node8 -->
<g id="node8" class="node"><title>Node8</title>
<polygon fill="white" stroke="#bfbfbf" points="42.5,-166 42.5,-196 149.5,-196 149.5,-166 42.5,-166"/>
<text text-anchor="start" x="50.5" y="-184" font-family="Helvetica,sans-Serif" font-size="10.00">Map&lt; String, List&lt;</text>
<text text-anchor="middle" x="96" y="-173" font-family="Helvetica,sans-Serif" font-size="10.00"> String &gt; &gt;</text>
</g>
<!-- Node8&#45;&gt;Node6 -->
<g id="edge7" class="edge"><title>Node8&#45;&gt;Node6</title>
<path fill="none" stroke="#9a32cd" stroke-dasharray="5,2" d="M159.782,-180.828C220.702,-180.66 313.441,-180.405 379.916,-180.223"/>
<polygon fill="#9a32cd" stroke="#9a32cd" points="159.53,-177.328 149.54,-180.856 159.55,-184.328 159.53,-177.328"/>
<text text-anchor="middle" x="285" y="-184" font-family="Helvetica,sans-Serif" font-size="10.00"> myDefinedCommandVariables</text>
</g>
<!-- Node9 -->
<g id="node9" class="node"><title>Node9</title>
<polygon fill="white" stroke="#bfbfbf" points="54,-239.5 54,-258.5 138,-258.5 138,-239.5 54,-239.5"/>
<text text-anchor="middle" x="96" y="-246.5" font-family="Helvetica,sans-Serif" font-size="10.00">Set&lt; String &gt;</text>
</g>
<!-- Node9&#45;&gt;Node6 -->
<g id="edge8" class="edge"><title>Node9&#45;&gt;Node6</title>
<path fill="none" stroke="#9a32cd" stroke-dasharray="5,2" d="M148.097,-237.787C167.459,-233.633 189.72,-228.971 210,-225 266.589,-213.921 330.57,-202.467 379.771,-193.887"/>
<polygon fill="#9a32cd" stroke="#9a32cd" points="147.3,-234.378 138.262,-239.907 148.775,-241.221 147.3,-234.378"/>
<text text-anchor="middle" x="285" y="-228" font-family="Helvetica,sans-Serif" font-size="10.00"> myCommands</text>
</g>
<!-- Node9&#45;&gt;Node16 -->
<g id="edge18" class="edge"><title>Node9&#45;&gt;Node16</title>
<path fill="none" stroke="#9a32cd" stroke-dasharray="5,2" d="M148.343,-247.166C210.209,-244.957 314.673,-241.226 385.67,-238.69"/>
<polygon fill="#9a32cd" stroke="#9a32cd" points="147.917,-243.679 138.048,-247.534 148.166,-250.675 147.917,-243.679"/>
<text text-anchor="middle" x="285" y="-248" font-family="Helvetica,sans-Serif" font-size="10.00"> myVariables</text>
</g>
<!-- Node9&#45;&gt;Node31 -->
<g id="edge40" class="edge"><title>Node9&#45;&gt;Node31</title>
<path fill="none" stroke="#9a32cd" stroke-dasharray="5,2" d="M148.135,-254.73C167.492,-256.701 189.74,-258.729 210,-260 430.944,-273.858 486.795,-278.747 708,-270 713.976,-269.764 720.146,-269.449 726.353,-269.081"/>
<polygon fill="#9a32cd" stroke="#9a32cd" points="148.315,-251.229 138.007,-253.677 147.592,-258.192 148.315,-251.229"/>
<text text-anchor="middle" x="462" y="-289" font-family="Helvetica,sans-Serif" font-size="10.00"> myCommandSet</text>
<text text-anchor="middle" x="462" y="-278" font-family="Helvetica,sans-Serif" font-size="10.00">myDirectorySet</text>
</g>
<!-- Node10 -->
<g id="node10" class="node"><title>Node10</title>
<polygon fill="white" stroke="#bfbfbf" points="0.5,-57 0.5,-87 191.5,-87 191.5,-57 0.5,-57"/>
<text text-anchor="start" x="8.5" y="-75" font-family="Helvetica,sans-Serif" font-size="10.00">Map&lt; String, interpreter.expression.</text>
<text text-anchor="middle" x="96" y="-64" font-family="Helvetica,sans-Serif" font-size="10.00">SLogoExpression &gt;</text>
</g>
<!-- Node10&#45;&gt;Node6 -->
<g id="edge9" class="edge"><title>Node10&#45;&gt;Node6</title>
<path fill="none" stroke="#9a32cd" stroke-dasharray="5,2" d="M200.356,-56.4418C253.484,-54.229 316.108,-61.3373 360,-97 380.948,-114.02 358.835,-135.995 378,-155 381.847,-158.815 386.253,-162.051 390.985,-164.796"/>
<polygon fill="#9a32cd" stroke="#9a32cd" points="200.009,-52.9551 190.209,-56.9806 200.381,-59.9453 200.009,-52.9551"/>
<text text-anchor="middle" x="285" y="-100" font-family="Helvetica,sans-Serif" font-size="10.00"> myDefinedCommands</text>
</g>
<!-- Node11 -->
<g id="node11" class="node"><title>Node11</title>
<g id="a_node11"><a xlink:href="../../d4/d57/classturtle_1_1_turtle_list_history.html" target="_top" xlink:title="turtle.TurtleListHistory">
<polygon fill="white" stroke="black" points="1100.5,-557.5 1100.5,-576.5 1221.5,-576.5 1221.5,-557.5 1100.5,-557.5"/>
<text text-anchor="middle" x="1161" y="-564.5" font-family="Helvetica,sans-Serif" font-size="10.00">turtle.TurtleListHistory</text>
</a>
</g>
</g>
<!-- Node11&#45;&gt;Node5 -->
<g id="edge10" class="edge"><title>Node11&#45;&gt;Node5</title>
<path fill="none" stroke="#9a32cd" stroke-dasharray="5,2" d="M1208.22,-578.597C1256.88,-588.219 1334.28,-595.995 1392,-566 1444.38,-538.782 1474.17,-467.968 1483.65,-441.857"/>
<polygon fill="#9a32cd" stroke="#9a32cd" points="1208.79,-575.142 1198.29,-576.529 1207.37,-581.995 1208.79,-575.142"/>
<text text-anchor="middle" x="1326" y="-591" font-family="Helvetica,sans-Serif" font-size="10.00"> myTurtleListHistory</text>
</g>
<!-- Node12 -->
<g id="node12" class="node"><title>Node12</title>
<polygon fill="white" stroke="#bfbfbf" points="735.5,-569.5 735.5,-588.5 884.5,-588.5 884.5,-569.5 735.5,-569.5"/>
<text text-anchor="middle" x="810" y="-576.5" font-family="Helvetica,sans-Serif" font-size="10.00">List&lt; Set&lt; turtle.Turtle &gt; &gt;</text>
</g>
<!-- Node12&#45;&gt;Node11 -->
<g id="edge11" class="edge"><title>Node12&#45;&gt;Node11</title>
<path fill="none" stroke="#9a32cd" stroke-dasharray="5,2" d="M894.966,-576.113C958.392,-573.932 1043.89,-570.992 1100.41,-569.049"/>
<polygon fill="#9a32cd" stroke="#9a32cd" points="894.461,-572.628 884.587,-576.47 894.702,-579.624 894.461,-572.628"/>
<text text-anchor="middle" x="987" y="-579" font-family="Helvetica,sans-Serif" font-size="10.00"> myMovedTurtlesHistory</text>
</g>
<!-- Node13&#45;&gt;Node5 -->
<g id="edge12" class="edge"><title>Node13&#45;&gt;Node5</title>
<path fill="none" stroke="#9a32cd" stroke-dasharray="5,2" d="M1190.3,-112.782C1207.97,-123.506 1229.63,-139.674 1242,-160 1265.02,-197.833 1228.54,-226.83 1260,-258 1302.3,-299.916 1342.55,-247.825 1392,-281 1445.76,-317.061 1475.06,-394.885 1484.01,-422.246"/>
<polygon fill="#9a32cd" stroke="#9a32cd" points="1191.91,-109.666 1181.5,-107.678 1188.39,-115.722 1191.91,-109.666"/>
<text text-anchor="middle" x="1326" y="-284" font-family="Helvetica,sans-Serif" font-size="10.00"> myCommandHistoryModel</text>
</g>
<!-- Node14 -->
<g id="node14" class="node"><title>Node14</title>
<polygon fill="white" stroke="#bfbfbf" points="768,-0.5 768,-19.5 852,-19.5 852,-0.5 768,-0.5"/>
<text text-anchor="middle" x="810" y="-7.5" font-family="Helvetica,sans-Serif" font-size="10.00">List&lt; String &gt;</text>
</g>
<!-- Node14&#45;&gt;Node1 -->
<g id="edge47" class="edge"><title>Node14&#45;&gt;Node1</title>
<path fill="none" stroke="#9a32cd" stroke-dasharray="5,2" d="M862.108,-7.61887C930.101,-4.66115 1054.06,-0 1160,-0 1160,-0 1160,-0 1730,-0 1857.54,-0 1909.73,-199.967 1922.02,-256.989"/>
<polygon fill="#9a32cd" stroke="#9a32cd" points="861.926,-4.12341 852.09,-8.06004 862.234,-11.1166 861.926,-4.12341"/>
<text text-anchor="middle" x="1488" y="-3" font-family="Helvetica,sans-Serif" font-size="10.00"> myVariableReferences</text>
</g>
<!-- Node14&#45;&gt;Node13 -->
<g id="edge14" class="edge"><title>Node14&#45;&gt;Node13</title>
<path fill="none" stroke="#9a32cd" stroke-dasharray="5,2" d="M859.273,-22.0577C909.821,-34.6974 991.506,-55.1617 1062,-73 1082.09,-78.0828 1104.48,-83.7915 1122.78,-88.4691"/>
<polygon fill="#9a32cd" stroke="#9a32cd" points="859.833,-18.59 849.283,-19.5601 858.135,-25.381 859.833,-18.59"/>
<text text-anchor="middle" x="987" y="-76" font-family="Helvetica,sans-Serif" font-size="10.00"> commandHistory</text>
</g>
<!-- Node15 -->
<g id="node15" class="node"><title>Node15</title>
<polygon fill="white" stroke="#bfbfbf" points="1113.5,-443.5 1113.5,-462.5 1208.5,-462.5 1208.5,-443.5 1113.5,-443.5"/>
<text text-anchor="middle" x="1161" y="-450.5" font-family="Helvetica,sans-Serif" font-size="10.00">ParallelTransition</text>
</g>
<!-- Node15&#45;&gt;Node5 -->
<g id="edge15" class="edge"><title>Node15&#45;&gt;Node5</title>
<path fill="none" stroke="#9a32cd" stroke-dasharray="5,2" d="M1209.98,-441.245C1225.81,-437.895 1243.56,-434.697 1260,-433 1320.76,-426.728 1391.16,-427.684 1437.25,-429.415"/>
<polygon fill="#9a32cd" stroke="#9a32cd" points="1208.91,-437.896 1199.89,-443.454 1210.41,-444.734 1208.91,-437.896"/>
<text text-anchor="middle" x="1326" y="-436" font-family="Helvetica,sans-Serif" font-size="10.00"> myAnimation</text>
</g>
<!-- Node16&#45;&gt;Node5 -->
<g id="edge16" class="edge"><title>Node16&#45;&gt;Node5</title>
<path fill="none" stroke="#9a32cd" stroke-dasharray="5,2" d="M534.379,-256.421C538.687,-259.47 542.632,-262.974 546,-267 574.694,-301.303 529.838,-337.139 564,-366 569.284,-370.464 1055.09,-371.728 1062,-372 1142.12,-375.151 1162.22,-376.031 1242,-384 1308.92,-390.685 1326.22,-390.007 1392,-404 1414.7,-408.83 1439.88,-416.352 1458.61,-422.384"/>
<polygon fill="#9a32cd" stroke="#9a32cd" points="536.057,-253.345 525.703,-251.101 532.398,-259.312 536.057,-253.345"/>
<text text-anchor="middle" x="987" y="-375" font-family="Helvetica,sans-Serif" font-size="10.00"> myUserDefinedVariablesModel</text>
</g>
<!-- Node16&#45;&gt;Node31 -->
<g id="edge41" class="edge"><title>Node16&#45;&gt;Node31</title>
<path fill="none" stroke="#9a32cd" stroke-dasharray="5,2" d="M548.361,-242.414C602.6,-246.49 672.458,-251.74 726.197,-255.778"/>
<polygon fill="#9a32cd" stroke="#9a32cd" points="548.311,-238.901 538.077,-241.642 547.786,-245.881 548.311,-238.901"/>
<text text-anchor="middle" x="636" y="-258" font-family="Helvetica,sans-Serif" font-size="10.00"> myDefinedVariables</text>
</g>
<!-- Node17 -->
<g id="node17" class="node"><title>Node17</title>
<polygon fill="white" stroke="#bfbfbf" points="32,-311.5 32,-330.5 160,-330.5 160,-311.5 32,-311.5"/>
<text text-anchor="middle" x="96" y="-318.5" font-family="Helvetica,sans-Serif" font-size="10.00">Map&lt; String, Double &gt;</text>
</g>
<!-- Node17&#45;&gt;Node16 -->
<g id="edge19" class="edge"><title>Node17&#45;&gt;Node16</title>
<path fill="none" stroke="#9a32cd" stroke-dasharray="5,2" d="M148.307,-309.186C201.329,-296.957 286.481,-277.261 360,-260 372.282,-257.116 385.399,-254.015 397.976,-251.031"/>
<polygon fill="#9a32cd" stroke="#9a32cd" points="147.426,-305.797 138.468,-311.455 148.998,-312.618 147.426,-305.797"/>
<text text-anchor="middle" x="285" y="-298" font-family="Helvetica,sans-Serif" font-size="10.00"> myDefinedVariables</text>
</g>
<!-- Node18 -->
<g id="node18" class="node"><title>Node18</title>
<polygon fill="white" stroke="#bfbfbf" points="1094,-394 1094,-424 1228,-424 1228,-394 1094,-394"/>
<text text-anchor="start" x="1102" y="-412" font-family="Helvetica,sans-Serif" font-size="10.00">List&lt; viewcontroller.Main</text>
<text text-anchor="middle" x="1161" y="-401" font-family="Helvetica,sans-Serif" font-size="10.00">ModelObserver &gt;</text>
</g>
<!-- Node18&#45;&gt;Node5 -->
<g id="edge20" class="edge"><title>Node18&#45;&gt;Node5</title>
<path fill="none" stroke="#9a32cd" stroke-dasharray="5,2" d="M1238.35,-407.502C1283.21,-407.408 1340.96,-408.647 1392,-414 1409.36,-415.821 1428.3,-419.133 1444.66,-422.424"/>
<polygon fill="#9a32cd" stroke="#9a32cd" points="1238.1,-404.003 1228.11,-407.547 1238.13,-411.003 1238.1,-404.003"/>
<text text-anchor="middle" x="1326" y="-417" font-family="Helvetica,sans-Serif" font-size="10.00"> myObservers</text>
</g>
<!-- Node19 -->
<g id="node19" class="node"><title>Node19</title>
<polygon fill="white" stroke="#bfbfbf" points="1106,-317.5 1106,-336.5 1216,-336.5 1216,-317.5 1106,-317.5"/>
<text text-anchor="middle" x="1161" y="-324.5" font-family="Helvetica,sans-Serif" font-size="10.00">List&lt; turtle.Turtle &gt;</text>
</g>
<!-- Node19&#45;&gt;Node5 -->
<g id="edge21" class="edge"><title>Node19&#45;&gt;Node5</title>
<path fill="none" stroke="#9a32cd" stroke-dasharray="5,2" d="M1226.25,-318.949C1273.98,-315.683 1339.61,-317.049 1392,-340 1433.43,-358.15 1467.35,-402.846 1480.79,-422.485"/>
<polygon fill="#9a32cd" stroke="#9a32cd" points="1225.75,-315.477 1216.05,-319.735 1226.28,-322.456 1225.75,-315.477"/>
<text text-anchor="middle" x="1326" y="-343" font-family="Helvetica,sans-Serif" font-size="10.00"> myTurtles</text>
</g>
<!-- Node20 -->
<g id="node20" class="node"><title>Node20</title>
<g id="a_node20"><a xlink:href="../../df/df6/classinterpreter_1_1result_1_1_s_logo_result.html" target="_top" xlink:title="interpreter.result.SLogo\lResult">
<polygon fill="white" stroke="black" points="745,-646 745,-676 875,-676 875,-646 745,-646"/>
<text text-anchor="start" x="753" y="-664" font-family="Helvetica,sans-Serif" font-size="10.00">interpreter.result.SLogo</text>
<text text-anchor="middle" x="810" y="-653" font-family="Helvetica,sans-Serif" font-size="10.00">Result</text>
</a>
</g>
</g>
<!-- Node20&#45;&gt;Node5 -->
<g id="edge22" class="edge"><title>Node20&#45;&gt;Node5</title>
<path fill="none" stroke="#9a32cd" stroke-dasharray="5,2" d="M885.457,-662.197C1032.8,-663.952 1350.91,-664.455 1392,-637 1462.77,-589.708 1481.82,-475.294 1485.99,-441.531"/>
<polygon fill="#9a32cd" stroke="#9a32cd" points="885.192,-658.694 875.15,-662.069 885.105,-665.693 885.192,-658.694"/>
<text text-anchor="middle" x="1161" y="-666" font-family="Helvetica,sans-Serif" font-size="10.00"> mySLogoResult</text>
</g>
<!-- Node21 -->
<g id="node21" class="node"><title>Node21</title>
<polygon fill="white" stroke="#bfbfbf" points="415.5,-605.5 415.5,-624.5 508.5,-624.5 508.5,-605.5 415.5,-605.5"/>
<text text-anchor="middle" x="462" y="-612.5" font-family="Helvetica,sans-Serif" font-size="10.00">ResourceBundle</text>
</g>
<!-- Node21&#45;&gt;Node20 -->
<g id="edge23" class="edge"><title>Node21&#45;&gt;Node20</title>
<path fill="none" stroke="#9a32cd" stroke-dasharray="5,2" d="M507.724,-627.088C525.171,-631.419 545.412,-635.973 564,-639 625.013,-648.936 695.358,-654.669 744.975,-657.776"/>
<polygon fill="#9a32cd" stroke="#9a32cd" points="508.36,-623.639 497.807,-624.577 506.642,-630.425 508.36,-623.639"/>
<text text-anchor="middle" x="636" y="-658" font-family="Helvetica,sans-Serif" font-size="10.00"> myProperties</text>
</g>
<!-- Node21&#45;&gt;Node31 -->
<g id="edge38" class="edge"><title>Node21&#45;&gt;Node31</title>
<path fill="none" stroke="#9a32cd" stroke-dasharray="5,2" d="M506.305,-602.422C568.471,-583.624 678.754,-547.281 708,-518 717.18,-508.809 783.667,-330.446 803.457,-277.005"/>
<polygon fill="#9a32cd" stroke="#9a32cd" points="504.966,-599.169 496.392,-605.394 506.976,-605.874 504.966,-599.169"/>
<text text-anchor="middle" x="636" y="-619" font-family="Helvetica,sans-Serif" font-size="10.00"> myCommandReference</text>
<text text-anchor="middle" x="636" y="-608" font-family="Helvetica,sans-Serif" font-size="10.00">myDirectoryListing</text>
<text text-anchor="middle" x="636" y="-597" font-family="Helvetica,sans-Serif" font-size="10.00">myNumberArguments</text>
<text text-anchor="middle" x="636" y="-586" font-family="Helvetica,sans-Serif" font-size="10.00">mySyntaxReference</text>
</g>
<!-- Node22 -->
<g id="node22" class="node"><title>Node22</title>
<polygon fill="white" stroke="#bfbfbf" points="381,-728 381,-758 543,-758 543,-728 381,-728"/>
<text text-anchor="start" x="389" y="-746" font-family="Helvetica,sans-Serif" font-size="10.00">List&lt; transitionstate.Transition</text>
<text text-anchor="middle" x="462" y="-735" font-family="Helvetica,sans-Serif" font-size="10.00">State &gt;</text>
</g>
<!-- Node22&#45;&gt;Node20 -->
<g id="edge24" class="edge"><title>Node22&#45;&gt;Node20</title>
<path fill="none" stroke="#9a32cd" stroke-dasharray="5,2" d="M553.233,-743.211C600.323,-741.079 658.318,-734.885 708,-719 738.045,-709.394 768.978,-689.957 788.56,-676.239"/>
<polygon fill="#9a32cd" stroke="#9a32cd" points="552.904,-739.722 543.051,-743.617 553.183,-746.716 552.904,-739.722"/>
<text text-anchor="middle" x="636" y="-746" font-family="Helvetica,sans-Serif" font-size="10.00"> myTransitionStates</text>
</g>
<!-- Node23&#45;&gt;Node5 -->
<g id="edge25" class="edge"><title>Node23&#45;&gt;Node5</title>
<path fill="none" stroke="#9a32cd" stroke-dasharray="5,2" d="M1207.04,-540.715C1255.03,-550.805 1332.17,-560.038 1392,-534 1436.38,-514.688 1469.4,-463.295 1481.72,-441.735"/>
<polygon fill="#9a32cd" stroke="#9a32cd" points="1207.78,-537.294 1197.26,-538.561 1206.27,-544.13 1207.78,-537.294"/>
<text text-anchor="middle" x="1326" y="-554" font-family="Helvetica,sans-Serif" font-size="10.00"> myInterpreter</text>
</g>
<!-- Node24 -->
<g id="node24" class="node"><title>Node24</title>
<g id="a_node24"><a xlink:href="../../da/de4/classinterpreter_1_1_expression_evaluator.html" target="_top" xlink:title="interpreter.ExpressionEvaluator">
<polygon fill="white" stroke="black" points="726.5,-493.5 726.5,-512.5 893.5,-512.5 893.5,-493.5 726.5,-493.5"/>
<text text-anchor="middle" x="810" y="-500.5" font-family="Helvetica,sans-Serif" font-size="10.00">interpreter.ExpressionEvaluator</text>
</a>
</g>
</g>
<!-- Node24&#45;&gt;Node23 -->
<g id="edge27" class="edge"><title>Node24&#45;&gt;Node23</title>
<path fill="none" stroke="#9a32cd" stroke-dasharray="5,2" d="M903.845,-507.393C951.217,-509.927 1009.73,-513.508 1062,-518 1074.45,-519.07 1087.77,-520.425 1100.45,-521.814"/>
<polygon fill="#9a32cd" stroke="#9a32cd" points="903.775,-503.884 893.604,-506.852 903.405,-510.875 903.775,-503.884"/>
<text text-anchor="middle" x="987" y="-521" font-family="Helvetica,sans-Serif" font-size="10.00"> myEvaluator</text>
</g>
<!-- Node25 -->
<g id="node25" class="node"><title>Node25</title>
<g id="a_node25"><a xlink:href="../../d6/d76/classinterpreter_1_1_s_logo_result_merger.html" target="_top" xlink:title="interpreter.SLogoResultMerger">
<polygon fill="white" stroke="black" points="381,-493.5 381,-512.5 543,-512.5 543,-493.5 381,-493.5"/>
<text text-anchor="middle" x="462" y="-500.5" font-family="Helvetica,sans-Serif" font-size="10.00">interpreter.SLogoResultMerger</text>
</a>
</g>
</g>
<!-- Node25&#45;&gt;Node24 -->
<g id="edge28" class="edge"><title>Node25&#45;&gt;Node24</title>
<path fill="none" stroke="#9a32cd" stroke-dasharray="5,2" d="M553.427,-503C606.995,-503 674.362,-503 726.482,-503"/>
<polygon fill="#9a32cd" stroke="#9a32cd" points="553.249,-499.5 543.249,-503 553.249,-506.5 553.249,-499.5"/>
<text text-anchor="middle" x="636" y="-506" font-family="Helvetica,sans-Serif" font-size="10.00"> myResultMerger</text>
</g>
<!-- Node26 -->
<g id="node26" class="node"><title>Node26</title>
<polygon fill="white" stroke="#bfbfbf" points="24.5,-488 24.5,-518 167.5,-518 167.5,-488 24.5,-488"/>
<text text-anchor="start" x="32.5" y="-506" font-family="Helvetica,sans-Serif" font-size="10.00">Deque&lt; interpreter.result.</text>
<text text-anchor="middle" x="96" y="-495" font-family="Helvetica,sans-Serif" font-size="10.00">SLogoResult &gt;</text>
</g>
<!-- Node26&#45;&gt;Node25 -->
<g id="edge29" class="edge"><title>Node26&#45;&gt;Node25</title>
<path fill="none" stroke="#9a32cd" stroke-dasharray="5,2" d="M177.873,-503C238.292,-503 320.494,-503 380.76,-503"/>
<polygon fill="#9a32cd" stroke="#9a32cd" points="177.614,-499.5 167.614,-503 177.614,-506.5 177.614,-499.5"/>
<text text-anchor="middle" x="285" y="-506" font-family="Helvetica,sans-Serif" font-size="10.00"> myResultsToMerge</text>
</g>
<!-- Node27&#45;&gt;Node23 -->
<g id="edge30" class="edge"><title>Node27&#45;&gt;Node23</title>
<path fill="none" stroke="#9a32cd" stroke-dasharray="5,2" d="M870.623,-538.95C934.814,-536.743 1036.32,-533.252 1100.48,-531.047"/>
<polygon fill="#9a32cd" stroke="#9a32cd" points="870.137,-535.464 860.263,-539.306 870.377,-542.46 870.137,-535.464"/>
<text text-anchor="middle" x="987" y="-541" font-family="Helvetica,sans-Serif" font-size="10.00"> myParser</text>
</g>
<!-- Node28&#45;&gt;Node27 -->
<g id="edge32" class="edge"><title>Node28&#45;&gt;Node27</title>
<path fill="none" stroke="#9a32cd" stroke-dasharray="5,2" d="M1715.63,-269.264C1678.41,-339.077 1559.54,-539.44 1392,-602 1342.02,-620.662 957.807,-618.344 912,-591 898.32,-582.834 906.827,-569.449 894,-560 884.24,-552.811 872.217,-548.278 860.382,-545.437"/>
<polygon fill="#9a32cd" stroke="#9a32cd" points="1718.79,-270.788 1720.34,-260.308 1712.59,-267.531 1718.79,-270.788"/>
<text text-anchor="middle" x="1326" y="-617" font-family="Helvetica,sans-Serif" font-size="10.00"> myFactory</text>
</g>
<!-- Node29 -->
<g id="node29" class="node"><title>Node29</title>
<polygon fill="white" stroke="#bfbfbf" points="398,-126.5 398,-145.5 526,-145.5 526,-126.5 398,-126.5"/>
<text text-anchor="middle" x="462" y="-133.5" font-family="Helvetica,sans-Serif" font-size="10.00">Map&lt; String, Integer &gt;</text>
</g>
<!-- Node29&#45;&gt;Node28 -->
<g id="edge34" class="edge"><title>Node29&#45;&gt;Node28</title>
<path fill="none" stroke="#9a32cd" stroke-dasharray="5,2" d="M530.455,-124.831C709.563,-95.9058 1187.19,-23.7994 1242,-68 1271.38,-91.6941 1233.04,-124.577 1260,-151 1309.48,-199.508 1498.09,-197.216 1566,-211 1595.99,-217.088 1629.07,-223.995 1657.47,-229.986"/>
<polygon fill="#9a32cd" stroke="#9a32cd" points="529.678,-121.411 520.367,-126.466 530.798,-128.321 529.678,-121.411"/>
<text text-anchor="middle" x="1161" y="-71" font-family="Helvetica,sans-Serif" font-size="10.00"> myCommandToNumArgsMap</text>
</g>
<!-- Node29&#45;&gt;Node31 -->
<g id="edge39" class="edge"><title>Node29&#45;&gt;Node31</title>
<path fill="none" stroke="#9a32cd" stroke-dasharray="5,2" d="M536.281,-145.728C586.195,-154.094 652.943,-168.751 708,-193 739.678,-206.952 771.963,-231.11 791.239,-246.822"/>
<polygon fill="#9a32cd" stroke="#9a32cd" points="536.647,-142.241 526.214,-144.087 535.521,-149.15 536.647,-142.241"/>
<text text-anchor="middle" x="636" y="-196" font-family="Helvetica,sans-Serif" font-size="10.00"> myCommandToNumArgsMap</text>
</g>
<!-- Node30 -->
<g id="node30" class="node"><title>Node30</title>
<polygon fill="white" stroke="#bfbfbf" points="401,-541.5 401,-560.5 523,-560.5 523,-541.5 401,-541.5"/>
<text text-anchor="middle" x="462" y="-548.5" font-family="Helvetica,sans-Serif" font-size="10.00">Map&lt; String, String &gt;</text>
</g>
<!-- Node30&#45;&gt;Node28 -->
<g id="edge35" class="edge"><title>Node30&#45;&gt;Node28</title>
<path fill="none" stroke="#9a32cd" stroke-dasharray="5,2" d="M533.04,-543.693C584.522,-541.556 654.53,-545.636 708,-575 719.378,-581.248 715.015,-591.085 726,-598 730.261,-600.682 1074.99,-675.455 1080,-676 1151.58,-683.792 1170.52,-684.668 1242,-676 1419.21,-654.51 1503.42,-703.82 1632,-580 1726.13,-489.354 1729.76,-313.182 1728.6,-260.341"/>
<polygon fill="#9a32cd" stroke="#9a32cd" points="532.813,-540.2 523.001,-544.197 533.164,-547.191 532.813,-540.2"/>
<text text-anchor="middle" x="1161" y="-708" font-family="Helvetica,sans-Serif" font-size="10.00"> myReverseSyntaxMap</text>
<text text-anchor="middle" x="1161" y="-697" font-family="Helvetica,sans-Serif" font-size="10.00">myCommandToDirectoryMap</text>
<text text-anchor="middle" x="1161" y="-686" font-family="Helvetica,sans-Serif" font-size="10.00">myReferenceToCommandMap</text>
</g>
<!-- Node30&#45;&gt;Node31 -->
<g id="edge42" class="edge"><title>Node30&#45;&gt;Node31</title>
<path fill="none" stroke="#9a32cd" stroke-dasharray="5,2" d="M524.284,-537.457C532.387,-533.544 539.962,-528.5 546,-522 566.985,-499.409 547.025,-480.74 564,-455 620.341,-369.567 727.031,-305.085 779.017,-277.184"/>
<polygon fill="#9a32cd" stroke="#9a32cd" points="522.803,-534.283 514.965,-541.412 525.538,-540.727 522.803,-534.283"/>
<text text-anchor="middle" x="636" y="-491" font-family="Helvetica,sans-Serif" font-size="10.00"> myReverseSyntaxMap</text>
<text text-anchor="middle" x="636" y="-480" font-family="Helvetica,sans-Serif" font-size="10.00">myCommandToDirectoryMap</text>
<text text-anchor="middle" x="636" y="-469" font-family="Helvetica,sans-Serif" font-size="10.00">mySyntaxMap</text>
<text text-anchor="middle" x="636" y="-458" font-family="Helvetica,sans-Serif" font-size="10.00">myReferenceToCommandMap</text>
</g>
<!-- Node31&#45;&gt;Node2 -->
<g id="edge45" class="edge"><title>Node31&#45;&gt;Node2</title>
<path fill="none" stroke="#9a32cd" stroke-dasharray="5,2" d="M903.954,-255.205C1056.65,-244.65 1348.13,-227.276 1392,-245 1582.41,-321.922 1695.65,-576.359 1722.03,-641.633"/>
<polygon fill="#9a32cd" stroke="#9a32cd" points="903.385,-251.736 893.652,-255.922 903.871,-258.719 903.385,-251.736"/>
<text text-anchor="middle" x="1326" y="-248" font-family="Helvetica,sans-Serif" font-size="10.00"> myLibrary</text>
</g>
<!-- Node31&#45;&gt;Node23 -->
<g id="edge43" class="edge"><title>Node31&#45;&gt;Node23</title>
<path fill="none" stroke="#9a32cd" stroke-dasharray="5,2" d="M827.074,-285.639C845.694,-312.058 878.17,-355.282 912,-387 971.552,-442.834 998.834,-441.289 1062,-493 1070.51,-499.97 1070.32,-504.773 1080,-510 1087.16,-513.865 1095.1,-516.951 1103.11,-519.413"/>
<polygon fill="#9a32cd" stroke="#9a32cd" points="829.897,-283.569 821.308,-277.365 824.154,-287.571 829.897,-283.569"/>
<text text-anchor="middle" x="987" y="-496" font-family="Helvetica,sans-Serif" font-size="10.00"> myLibrary</text>
</g>
<!-- Node31&#45;&gt;Node28 -->
<g id="edge36" class="edge"><title>Node31&#45;&gt;Node28</title>
<path fill="none" stroke="#9a32cd" stroke-dasharray="5,2" d="M871.656,-244.439C884.859,-241.164 898.822,-238.113 912,-236 1122.88,-202.189 1178.66,-202.864 1392,-213 1481.85,-217.269 1584.75,-227.923 1652.75,-235.771"/>
<polygon fill="#9a32cd" stroke="#9a32cd" points="870.555,-241.108 861.733,-246.975 872.289,-247.89 870.555,-241.108"/>
<text text-anchor="middle" x="1326" y="-216" font-family="Helvetica,sans-Serif" font-size="10.00"> myLibrary</text>
</g>
<!-- Node32 -->
<g id="node32" class="node"><title>Node32</title>
<polygon fill="white" stroke="#bfbfbf" points="1140.5,-481.5 1140.5,-500.5 1181.5,-500.5 1181.5,-481.5 1140.5,-481.5"/>
<text text-anchor="middle" x="1161" y="-488.5" font-family="Helvetica,sans-Serif" font-size="10.00">Color</text>
</g>
<!-- Node32&#45;&gt;Node5 -->
<g id="edge44" class="edge"><title>Node32&#45;&gt;Node5</title>
<path fill="none" stroke="#9a32cd" stroke-dasharray="5,2" d="M1191.61,-484.25C1206.72,-480.733 1225.38,-476.281 1242,-472 1250.04,-469.929 1251.88,-468.747 1260,-467 1320.42,-453.997 1390.89,-443.909 1437.1,-437.973"/>
<polygon fill="#9a32cd" stroke="#9a32cd" points="1190.73,-480.859 1181.78,-486.522 1192.31,-487.679 1190.73,-480.859"/>
<text text-anchor="middle" x="1326" y="-492" font-family="Helvetica,sans-Serif" font-size="10.00"> myBackgroundColor</text>
<text text-anchor="start" x="1267.5" y="-481" font-family="Helvetica,sans-Serif" font-size="10.00">DEFAULT_BACKGROUND</text>
<text text-anchor="middle" x="1326" y="-470" font-family="Helvetica,sans-Serif" font-size="10.00">_COLOR</text>
</g>
</g>
</svg>
