<?xml version="1.0" encoding="UTF-8" standalone="no"?>
<!DOCTYPE svg PUBLIC "-//W3C//DTD SVG 1.1//EN"
 "http://www.w3.org/Graphics/SVG/1.1/DTD/svg11.dtd">
<!-- Generated by graphviz version 2.36.0 (20140111.2315)
 -->
<!-- Title: viewcontroller.Workspace.getMainModel Pages: 1 -->
<!--zoomable 252 -->
<svg id="main" version="1.1" xmlns="http://www.w3.org/2000/svg" xmlns:xlink="http://www.w3.org/1999/xlink" xml:space="preserve" onload="init(evt)">
<style type="text/css"><![CDATA[
.edge:hover path { stroke: red; }
.edge:hover polygon { stroke: red; fill: red; }
]]></style>
<script type="text/javascript"><![CDATA[
var edges = document.getElementsByTagName('g');
if (edges && edges.length) {
  for (var i=0;i<edges.length;i++) {
    if (edges[i].id.substr(0,4)=='edge') {
      edges[i].setAttribute('class','edge');
    }
  }
}
]]></script>
        <defs>
                <circle id="rim" cx="0" cy="0" r="7"/>
                <circle id="rim2" cx="0" cy="0" r="3.5"/>
                <g id="zoomPlus">
                        <use xlink:href="#rim" fill="#404040">
                                <set attributeName="fill" to="#808080" begin="zoomplus.mouseover" end="zoomplus.mouseout"/>
                        </use>
                        <path d="M-4,0h8M0,-4v8" fill="none" stroke="white" stroke-width="1.5" pointer-events="none"/>
                </g>
                <g id="zoomMin">
                        <use xlink:href="#rim" fill="#404040">
                                <set attributeName="fill" to="#808080" begin="zoomminus.mouseover" end="zoomminus.mouseout"/>
                        </use>
                        <path d="M-4,0h8" fill="none" stroke="white" stroke-width="1.5" pointer-events="none"/>
                </g>
                <g id="dirArrow">
                        <path fill="none" stroke="white" stroke-width="1.5" d="M0,-3.0v7 M-2.5,-0.5L0,-3.0L2.5,-0.5"/>
                </g>
               <g id="resetDef">
                       <use xlink:href="#rim2" fill="#404040">
                               <set attributeName="fill" to="#808080" begin="reset.mouseover" end="reset.mouseout"/>
                       </use>
               </g>
        </defs>

<script type="text/javascript">
var viewWidth = 882;
var viewHeight = 252;
var sectionId = 'dynsection-2';
</script>
<script xlink:href="../../svgpan.js"/>
<svg id="graph" class="graph">
<g id="viewport">
<title>viewcontroller.Workspace.getMainModel</title>
<polygon fill="white" stroke="none" points="-4,4 -4,-248 878,-248 878,4 -4,4"/>
<!-- Node1 -->
<g id="node1" class="node"><title>Node1</title>
<polygon fill="#bfbfbf" stroke="black" points="0,-110 0,-140 154,-140 154,-110 0,-110"/>
<text text-anchor="start" x="8" y="-128" font-family="Helvetica,sans-Serif" font-size="10.00">viewcontroller.Workspace.get</text>
<text text-anchor="middle" x="77" y="-117" font-family="Helvetica,sans-Serif" font-size="10.00">MainModel</text>
</g>
<!-- Node2 -->
<g id="node2" class="node"><title>Node2</title>
<g id="a_node2"><a xlink:href="../../da/d4e/classviewcontroller_1_1_view.html#ad56492108159c72ac56423b7fabe3b81" target="_top" xlink:title="viewcontroller.View.addTurtle\lClicked">
<polygon fill="white" stroke="black" points="370,-121 370,-151 522,-151 522,-121 370,-121"/>
<text text-anchor="start" x="378" y="-139" font-family="Helvetica,sans-Serif" font-size="10.00">viewcontroller.View.addTurtle</text>
<text text-anchor="middle" x="446" y="-128" font-family="Helvetica,sans-Serif" font-size="10.00">Clicked</text>
</a>
</g>
</g>
<!-- Node1&#45;&gt;Node2 -->
<g id="edge1" class="edge"><title>Node1&#45;&gt;Node2</title>
<path fill="none" stroke="midnightblue" d="M164.269,-127.586C226.724,-129.458 310.31,-131.963 369.997,-133.752"/>
<polygon fill="midnightblue" stroke="midnightblue" points="164.143,-124.08 154.043,-127.279 163.933,-131.077 164.143,-124.08"/>
</g>
<!-- Node5 -->
<g id="node5" class="node"><title>Node5</title>
<g id="a_node5"><a xlink:href="../../da/d4e/classviewcontroller_1_1_view.html#a89076f3aec0df7ef97f43fef2912e54f" target="_top" xlink:title="viewcontroller.View.change\lTurtleImages">
<polygon fill="white" stroke="black" points="190.5,-214 190.5,-244 333.5,-244 333.5,-214 190.5,-214"/>
<text text-anchor="start" x="198.5" y="-232" font-family="Helvetica,sans-Serif" font-size="10.00">viewcontroller.View.change</text>
<text text-anchor="middle" x="262" y="-221" font-family="Helvetica,sans-Serif" font-size="10.00">TurtleImages</text>
</a>
</g>
</g>
<!-- Node1&#45;&gt;Node5 -->
<g id="edge4" class="edge"><title>Node1&#45;&gt;Node5</title>
<path fill="none" stroke="midnightblue" d="M103.844,-146.356C125.736,-163.656 158.501,-187.744 190,-204 197.084,-207.656 204.823,-210.989 212.503,-213.945"/>
<polygon fill="midnightblue" stroke="midnightblue" points="106.006,-143.603 96.0117,-140.088 101.633,-149.069 106.006,-143.603"/>
</g>
<!-- Node6 -->
<g id="node6" class="node"><title>Node6</title>
<g id="a_node6"><a xlink:href="../../da/d4e/classviewcontroller_1_1_view.html#a487061003bc9857296875d07d9b531cc" target="_top" xlink:title="viewcontroller.View.redo\lClicked">
<polygon fill="white" stroke="black" points="197,-39 197,-69 327,-69 327,-39 197,-39"/>
<text text-anchor="start" x="205" y="-57" font-family="Helvetica,sans-Serif" font-size="10.00">viewcontroller.View.redo</text>
<text text-anchor="middle" x="262" y="-46" font-family="Helvetica,sans-Serif" font-size="10.00">Clicked</text>
</a>
</g>
</g>
<!-- Node1&#45;&gt;Node6 -->
<g id="edge6" class="edge"><title>Node1&#45;&gt;Node6</title>
<path fill="none" stroke="midnightblue" d="M121.496,-105.897C142.119,-97.0585 167.184,-86.6308 190,-78 198.032,-74.9616 206.642,-71.8946 214.998,-69.0158"/>
<polygon fill="midnightblue" stroke="midnightblue" points="119.857,-102.792 112.058,-109.963 122.627,-109.22 119.857,-102.792"/>
</g>
<!-- Node8 -->
<g id="node8" class="node"><title>Node8</title>
<g id="a_node8"><a xlink:href="../../da/d4e/classviewcontroller_1_1_view.html#a6d302784ecfa68080791115cc18e308e" target="_top" xlink:title="viewcontroller.View.save\lWorkspace">
<polygon fill="white" stroke="black" points="380.5,-0 380.5,-30 511.5,-30 511.5,-0 380.5,-0"/>
<text text-anchor="start" x="388.5" y="-18" font-family="Helvetica,sans-Serif" font-size="10.00">viewcontroller.View.save</text>
<text text-anchor="middle" x="446" y="-7" font-family="Helvetica,sans-Serif" font-size="10.00">Workspace</text>
</a>
</g>
</g>
<!-- Node1&#45;&gt;Node8 -->
<g id="edge9" class="edge"><title>Node1&#45;&gt;Node8</title>
<path fill="none" stroke="midnightblue" d="M96.3387,-102.271C116.531,-79.1352 151.307,-44.5324 190,-29 251.205,-4.43072 327.377,-3.68688 380.459,-7.37592"/>
<polygon fill="midnightblue" stroke="midnightblue" points="93.6392,-100.042 89.8221,-109.926 98.9694,-104.58 93.6392,-100.042"/>
</g>
<!-- Node10 -->
<g id="node10" class="node"><title>Node10</title>
<g id="a_node10"><a xlink:href="../../da/d4e/classviewcontroller_1_1_view.html#a1b997ccd3e893a7cab5228020c51b16e" target="_top" xlink:title="viewcontroller.View.shit">
<polygon fill="white" stroke="black" points="199.5,-175.5 199.5,-194.5 324.5,-194.5 324.5,-175.5 199.5,-175.5"/>
<text text-anchor="middle" x="262" y="-182.5" font-family="Helvetica,sans-Serif" font-size="10.00">viewcontroller.View.shit</text>
</a>
</g>
</g>
<!-- Node1&#45;&gt;Node10 -->
<g id="edge12" class="edge"><title>Node1&#45;&gt;Node10</title>
<path fill="none" stroke="midnightblue" d="M133.978,-143.354C166.353,-153.968 205.752,-166.886 232.003,-175.493"/>
<polygon fill="midnightblue" stroke="midnightblue" points="134.771,-139.93 124.179,-140.141 132.59,-146.582 134.771,-139.93"/>
</g>
<!-- Node12 -->
<g id="node12" class="node"><title>Node12</title>
<g id="a_node12"><a xlink:href="../../da/d4e/classviewcontroller_1_1_view.html#ab0cf08da4f357ee008acc7c294930637" target="_top" xlink:title="viewcontroller.View.undo\lClicked">
<polygon fill="white" stroke="black" points="196,-88 196,-118 328,-118 328,-88 196,-88"/>
<text text-anchor="start" x="204" y="-106" font-family="Helvetica,sans-Serif" font-size="10.00">viewcontroller.View.undo</text>
<text text-anchor="middle" x="262" y="-95" font-family="Helvetica,sans-Serif" font-size="10.00">Clicked</text>
</a>
</g>
</g>
<!-- Node1&#45;&gt;Node12 -->
<g id="edge15" class="edge"><title>Node1&#45;&gt;Node12</title>
<path fill="none" stroke="midnightblue" d="M164.218,-114.635C174.907,-113.35 185.692,-112.053 195.988,-110.816"/>
<polygon fill="midnightblue" stroke="midnightblue" points="163.529,-111.192 154.019,-115.861 164.365,-118.142 163.529,-111.192"/>
</g>
<!-- Node3 -->
<g id="node3" class="node"><title>Node3</title>
<g id="a_node3"><a xlink:href="../../df/df9/classviewcontroller_1_1_s_logo_menu_bar.html#a068f788551874f8c8862c10f8f0f6253" target="_top" xlink:title="viewcontroller.SLogoMenu\lBar.initializeGridMenu">
<polygon fill="white" stroke="black" points="558,-145 558,-175 698,-175 698,-145 558,-145"/>
<text text-anchor="start" x="566" y="-163" font-family="Helvetica,sans-Serif" font-size="10.00">viewcontroller.SLogoMenu</text>
<text text-anchor="middle" x="628" y="-152" font-family="Helvetica,sans-Serif" font-size="10.00">Bar.initializeGridMenu</text>
</a>
</g>
</g>
<!-- Node2&#45;&gt;Node3 -->
<g id="edge2" class="edge"><title>Node2&#45;&gt;Node3</title>
<path fill="none" stroke="midnightblue" d="M532.11,-147.348C540.733,-148.498 549.417,-149.656 557.843,-150.779"/>
<polygon fill="midnightblue" stroke="midnightblue" points="532.408,-143.857 522.033,-146.004 531.482,-150.795 532.408,-143.857"/>
</g>
<!-- Node4 -->
<g id="node4" class="node"><title>Node4</title>
<g id="a_node4"><a xlink:href="../../df/df9/classviewcontroller_1_1_s_logo_menu_bar.html#a75b45d0a4b08de5ff8588fc15b2f14fe" target="_top" xlink:title="viewcontroller.SLogoMenu\lBar.SLogoMenuBar">
<polygon fill="white" stroke="black" points="734,-58 734,-88 874,-88 874,-58 734,-58"/>
<text text-anchor="start" x="742" y="-76" font-family="Helvetica,sans-Serif" font-size="10.00">viewcontroller.SLogoMenu</text>
<text text-anchor="middle" x="804" y="-65" font-family="Helvetica,sans-Serif" font-size="10.00">Bar.SLogoMenuBar</text>
</a>
</g>
</g>
<!-- Node3&#45;&gt;Node4 -->
<g id="edge3" class="edge"><title>Node3&#45;&gt;Node4</title>
<path fill="none" stroke="midnightblue" d="M668.299,-140.351C699.948,-124.526 743.788,-102.606 772.747,-88.1263"/>
<polygon fill="midnightblue" stroke="midnightblue" points="666.688,-137.243 659.308,-144.846 669.818,-143.504 666.688,-137.243"/>
</g>
<!-- Node5&#45;&gt;Node3 -->
<g id="edge5" class="edge"><title>Node5&#45;&gt;Node3</title>
<path fill="none" stroke="midnightblue" d="M343.776,-230.158C395.502,-229.1 463.625,-224.332 522,-209 550.407,-201.539 580.564,-186.651 601.235,-175.234"/>
<polygon fill="midnightblue" stroke="midnightblue" points="343.599,-226.661 333.657,-230.323 343.713,-233.66 343.599,-226.661"/>
</g>
<!-- Node7 -->
<g id="node7" class="node"><title>Node7</title>
<g id="a_node7"><a xlink:href="../../df/df9/classviewcontroller_1_1_s_logo_menu_bar.html#acdf079204224a9c0c24ce028f942e628" target="_top" xlink:title="viewcontroller.SLogoMenu\lBar.initializeEditMenu">
<polygon fill="white" stroke="black" points="376,-58 376,-88 516,-88 516,-58 376,-58"/>
<text text-anchor="start" x="384" y="-76" font-family="Helvetica,sans-Serif" font-size="10.00">viewcontroller.SLogoMenu</text>
<text text-anchor="middle" x="446" y="-65" font-family="Helvetica,sans-Serif" font-size="10.00">Bar.initializeEditMenu</text>
</a>
</g>
</g>
<!-- Node6&#45;&gt;Node7 -->
<g id="edge7" class="edge"><title>Node6&#45;&gt;Node7</title>
<path fill="none" stroke="midnightblue" d="M337.277,-61.7542C350.031,-63.0857 363.239,-64.4645 375.851,-65.7811"/>
<polygon fill="midnightblue" stroke="midnightblue" points="337.476,-58.256 327.166,-60.6987 336.749,-65.2182 337.476,-58.256"/>
</g>
<!-- Node7&#45;&gt;Node4 -->
<g id="edge8" class="edge"><title>Node7&#45;&gt;Node4</title>
<path fill="none" stroke="midnightblue" d="M526.232,-73C588.484,-73 674.321,-73 733.826,-73"/>
<polygon fill="midnightblue" stroke="midnightblue" points="526.063,-69.5001 516.062,-73 526.062,-76.5001 526.063,-69.5001"/>
</g>
<!-- Node9 -->
<g id="node9" class="node"><title>Node9</title>
<g id="a_node9"><a xlink:href="../../df/df9/classviewcontroller_1_1_s_logo_menu_bar.html#aea535ae86d7ac7a2fffe549d7bdf2a1d" target="_top" xlink:title="viewcontroller.SLogoMenu\lBar.initializeFileMenu">
<polygon fill="white" stroke="black" points="558,-5 558,-35 698,-35 698,-5 558,-5"/>
<text text-anchor="start" x="566" y="-23" font-family="Helvetica,sans-Serif" font-size="10.00">viewcontroller.SLogoMenu</text>
<text text-anchor="middle" x="628" y="-12" font-family="Helvetica,sans-Serif" font-size="10.00">Bar.initializeFileMenu</text>
</a>
</g>
</g>
<!-- Node8&#45;&gt;Node9 -->
<g id="edge10" class="edge"><title>Node8&#45;&gt;Node9</title>
<path fill="none" stroke="midnightblue" d="M522.073,-17.0854C533.972,-17.4159 546.229,-17.7564 557.981,-18.0828"/>
<polygon fill="midnightblue" stroke="midnightblue" points="521.823,-13.5772 511.73,-16.7981 521.629,-20.5745 521.823,-13.5772"/>
</g>
<!-- Node9&#45;&gt;Node4 -->
<g id="edge11" class="edge"><title>Node9&#45;&gt;Node4</title>
<path fill="none" stroke="midnightblue" d="M687.982,-37.9659C709.277,-44.4522 733.079,-51.7021 753.48,-57.9165"/>
<polygon fill="midnightblue" stroke="midnightblue" points="688.982,-34.6117 678.396,-35.0459 686.942,-41.3079 688.982,-34.6117"/>
</g>
<!-- Node11 -->
<g id="node11" class="node"><title>Node11</title>
<g id="a_node11"><a xlink:href="../../da/d4e/classviewcontroller_1_1_view.html#ae793d73f0dfef360d4908529d4f824a9" target="_top" xlink:title="viewcontroller.View.edit\lPenSettings">
<polygon fill="white" stroke="black" points="383,-170 383,-200 509,-200 509,-170 383,-170"/>
<text text-anchor="start" x="391" y="-188" font-family="Helvetica,sans-Serif" font-size="10.00">viewcontroller.View.edit</text>
<text text-anchor="middle" x="446" y="-177" font-family="Helvetica,sans-Serif" font-size="10.00">PenSettings</text>
</a>
</g>
</g>
<!-- Node10&#45;&gt;Node11 -->
<g id="edge13" class="edge"><title>Node10&#45;&gt;Node11</title>
<path fill="none" stroke="midnightblue" d="M334.894,-185C350.743,-185 367.401,-185 382.827,-185"/>
<polygon fill="midnightblue" stroke="midnightblue" points="334.617,-181.5 324.617,-185 334.617,-188.5 334.617,-181.5"/>
</g>
<!-- Node11&#45;&gt;Node3 -->
<g id="edge14" class="edge"><title>Node11&#45;&gt;Node3</title>
<path fill="none" stroke="midnightblue" d="M519.246,-174.966C531.933,-173.204 545.109,-171.374 557.712,-169.623"/>
<polygon fill="midnightblue" stroke="midnightblue" points="518.621,-171.519 509.198,-176.361 519.584,-178.452 518.621,-171.519"/>
</g>
<!-- Node12&#45;&gt;Node7 -->
<g id="edge16" class="edge"><title>Node12&#45;&gt;Node7</title>
<path fill="none" stroke="midnightblue" d="M338.13,-90.616C350.655,-88.5514 363.594,-86.4185 375.958,-84.3805"/>
<polygon fill="midnightblue" stroke="midnightblue" points="337.49,-87.1742 328.192,-92.254 338.628,-94.081 337.49,-87.1742"/>
</g>
</g>
</svg>
        <g id="navigator" transform="translate(0 0)" fill="#404254">
                <rect fill="#f2f5e9" fill-opacity="0.5" stroke="#606060" stroke-width=".5" x="0" y="0" width="60" height="60"/>
                <use id="zoomplus" xlink:href="#zoomPlus" x="17" y="9" onmousedown="handleZoom(evt,'in')"/>
                <use id="zoomminus" xlink:href="#zoomMin" x="42" y="9" onmousedown="handleZoom(evt,'out')"/>
                <use id="reset" xlink:href="#resetDef" x="30" y="36" onmousedown="handleReset()"/>
                <g id="arrowUp" xlink:href="#dirArrow" transform="translate(30 24)" onmousedown="handlePan(0,-1)">
                  <use xlink:href="#rim" fill="#404040">
                        <set attributeName="fill" to="#808080" begin="arrowUp.mouseover" end="arrowUp.mouseout"/>
                  </use>
                  <path fill="none" stroke="white" stroke-width="1.5" d="M0,-3.0v7 M-2.5,-0.5L0,-3.0L2.5,-0.5"/>
                </g>
                <g id="arrowRight" xlink:href="#dirArrow" transform="rotate(90) translate(36 -43)" onmousedown="handlePan(1,0)">
                  <use xlink:href="#rim" fill="#404040">
                        <set attributeName="fill" to="#808080" begin="arrowRight.mouseover" end="arrowRight.mouseout"/>
                  </use>
                  <path fill="none" stroke="white" stroke-width="1.5" d="M0,-3.0v7 M-2.5,-0.5L0,-3.0L2.5,-0.5"/>
                </g>
                <g id="arrowDown" xlink:href="#dirArrow" transform="rotate(180) translate(-30 -48)" onmousedown="handlePan(0,1)">
                  <use xlink:href="#rim" fill="#404040">
                        <set attributeName="fill" to="#808080" begin="arrowDown.mouseover" end="arrowDown.mouseout"/>
                  </use>
                  <path fill="none" stroke="white" stroke-width="1.5" d="M0,-3.0v7 M-2.5,-0.5L0,-3.0L2.5,-0.5"/>
                </g>
                <g id="arrowLeft" xlink:href="#dirArrow" transform="rotate(270) translate(-36 17)" onmousedown="handlePan(-1,0)">
                  <use xlink:href="#rim" fill="#404040">
                        <set attributeName="fill" to="#808080" begin="arrowLeft.mouseover" end="arrowLeft.mouseout"/>
                  </use>
                  <path fill="none" stroke="white" stroke-width="1.5" d="M0,-3.0v7 M-2.5,-0.5L0,-3.0L2.5,-0.5"/>
                </g>
        </g>
        <svg viewBox="0 0 15 15" width="100%" height="30px" preserveAspectRatio="xMaxYMin meet">
         <g id="arrow_out" transform="scale(0.3 0.3)">
          <a xlink:href="classviewcontroller_1_1_workspace_a1b461756646e982d8efbb5a286576c7a_icgraph_org.svg" target="_base">
           <rect id="button" ry="5" rx="5" y="6" x="6" height="38" width="38"
                fill="#f2f5e9" fill-opacity="0.5" stroke="#606060" stroke-width="1.0"/>
           <path id="arrow"
             d="M 11.500037,31.436501 C 11.940474,20.09759 22.043105,11.32322 32.158766,21.979434 L 37.068811,17.246167 C 37.068811,17.246167 37.088388,32 37.088388,32 L 22.160133,31.978069 C 22.160133,31.978069 26.997745,27.140456 26.997745,27.140456 C 18.528582,18.264221 13.291696,25.230495 11.500037,31.436501 z"
             style="fill:#404040;"/>
          </a>
         </g>
        </svg>
</svg>
