<?xml version="1.0" encoding="UTF-8" standalone="no"?>
<!DOCTYPE svg PUBLIC "-//W3C//DTD SVG 1.1//EN"
 "http://www.w3.org/Graphics/SVG/1.1/DTD/svg11.dtd">
<!-- Generated by graphviz version 2.36.0 (20140111.2315)
 -->
<!-- Title: test.MathExpressionTester.arcTanTest Pages: 1 -->
<svg width="1620pt" height="332pt"
 viewBox="0.00 0.00 1620.00 332.00" xmlns="http://www.w3.org/2000/svg" xmlns:xlink="http://www.w3.org/1999/xlink">
<g id="graph0" class="graph" transform="scale(1 1) rotate(0) translate(4 328)">
<title>test.MathExpressionTester.arcTanTest</title>
<polygon fill="white" stroke="none" points="-4,4 -4,-328 1616,-328 1616,4 -4,4"/>
<!-- Node1 -->
<g id="node1" class="node"><title>Node1</title>
<polygon fill="#bfbfbf" stroke="black" points="0,-262 0,-292 160,-292 160,-262 0,-262"/>
<text text-anchor="start" x="8" y="-280" font-family="Helvetica,sans-Serif" font-size="10.00">test.MathExpressionTester.arc</text>
<text text-anchor="middle" x="80" y="-269" font-family="Helvetica,sans-Serif" font-size="10.00">TanTest</text>
</g>
<!-- Node2 -->
<g id="node2" class="node"><title>Node2</title>
<g id="a_node2"><a xlink:href="../../df/df6/classinterpreter_1_1result_1_1_s_logo_result.html#a7e050bbb65d7c7eb5e9b9970c6e2616f" target="_top" xlink:title="interpreter.result.SLogo\lResult.getValue">
<polygon fill="white" stroke="black" points="891,-294 891,-324 1021,-324 1021,-294 891,-294"/>
<text text-anchor="start" x="899" y="-312" font-family="Helvetica,sans-Serif" font-size="10.00">interpreter.result.SLogo</text>
<text text-anchor="middle" x="956" y="-301" font-family="Helvetica,sans-Serif" font-size="10.00">Result.getValue</text>
</a>
</g>
</g>
<!-- Node1&#45;&gt;Node2 -->
<g id="edge1" class="edge"><title>Node1&#45;&gt;Node2</title>
<path fill="none" stroke="midnightblue" d="M160.103,-279.896C327.759,-286.035 716.833,-300.28 880.421,-306.269"/>
<polygon fill="midnightblue" stroke="midnightblue" points="880.743,-309.783 890.865,-306.652 881,-302.788 880.743,-309.783"/>
</g>
<!-- Node3 -->
<g id="node3" class="node"><title>Node3</title>
<g id="a_node3"><a xlink:href="../../d2/dc7/classinterpreter_1_1_interpreter.html#a2398aed9ce5fd0631e4a61eb0ae7e3eb" target="_top" xlink:title="interpreter.Interpreter.interpret">
<polygon fill="white" stroke="black" points="196,-236.5 196,-255.5 360,-255.5 360,-236.5 196,-236.5"/>
<text text-anchor="middle" x="278" y="-243.5" font-family="Helvetica,sans-Serif" font-size="10.00">interpreter.Interpreter.interpret</text>
</a>
</g>
</g>
<!-- Node1&#45;&gt;Node3 -->
<g id="edge2" class="edge"><title>Node1&#45;&gt;Node3</title>
<path fill="none" stroke="midnightblue" d="M160.156,-264.48C175.521,-262.05 191.529,-259.518 206.591,-257.136"/>
<polygon fill="midnightblue" stroke="midnightblue" points="207.517,-260.533 216.847,-255.514 206.423,-253.619 207.517,-260.533"/>
</g>
<!-- Node4 -->
<g id="node4" class="node"><title>Node4</title>
<g id="a_node4"><a xlink:href="../../da/de4/classinterpreter_1_1_expression_evaluator.html#a349369ee222f83e4370c70b449844139" target="_top" xlink:title="interpreter.ExpressionEvaluator.evaluate\lExpressionsAndMerge">
<polygon fill="white" stroke="black" points="396,-231 396,-261 606,-261 606,-231 396,-231"/>
<text text-anchor="start" x="404" y="-249" font-family="Helvetica,sans-Serif" font-size="10.00">interpreter.ExpressionEvaluator.evaluate</text>
<text text-anchor="middle" x="501" y="-238" font-family="Helvetica,sans-Serif" font-size="10.00">ExpressionsAndMerge</text>
</a>
</g>
</g>
<!-- Node3&#45;&gt;Node4 -->
<g id="edge3" class="edge"><title>Node3&#45;&gt;Node4</title>
<path fill="none" stroke="midnightblue" d="M360.037,-246C368.449,-246 377.106,-246 385.794,-246"/>
<polygon fill="midnightblue" stroke="midnightblue" points="385.994,-249.5 395.994,-246 385.994,-242.5 385.994,-249.5"/>
</g>
<!-- Node9 -->
<g id="node9" class="node"><title>Node9</title>
<g id="a_node9"><a xlink:href="../../d3/da2/classinterpreter_1_1_parser.html#a27e67bfe24e33d6ac58aa3b482cd0f07" target="_top" xlink:title="interpreter.Parser.parse\lSLogoExpression">
<polygon fill="white" stroke="black" points="436.5,-98 436.5,-128 565.5,-128 565.5,-98 436.5,-98"/>
<text text-anchor="start" x="444.5" y="-116" font-family="Helvetica,sans-Serif" font-size="10.00">interpreter.Parser.parse</text>
<text text-anchor="middle" x="501" y="-105" font-family="Helvetica,sans-Serif" font-size="10.00">SLogoExpression</text>
</a>
</g>
</g>
<!-- Node3&#45;&gt;Node9 -->
<g id="edge9" class="edge"><title>Node3&#45;&gt;Node9</title>
<path fill="none" stroke="midnightblue" d="M294.894,-236.435C330.579,-214.959 417.72,-162.517 466.148,-133.372"/>
<polygon fill="midnightblue" stroke="midnightblue" points="467.956,-136.369 474.719,-128.214 464.346,-130.372 467.956,-136.369"/>
</g>
<!-- Node5 -->
<g id="node5" class="node"><title>Node5</title>
<g id="a_node5"><a xlink:href="../../d6/d76/classinterpreter_1_1_s_logo_result_merger.html#a706aced67e4d219faa11f9821fef9000" target="_top" xlink:title="interpreter.SLogoResultMerger.append">
<polygon fill="white" stroke="black" points="642,-261.5 642,-280.5 842,-280.5 842,-261.5 642,-261.5"/>
<text text-anchor="middle" x="742" y="-268.5" font-family="Helvetica,sans-Serif" font-size="10.00">interpreter.SLogoResultMerger.append</text>
</a>
</g>
</g>
<!-- Node4&#45;&gt;Node5 -->
<g id="edge4" class="edge"><title>Node4&#45;&gt;Node5</title>
<path fill="none" stroke="midnightblue" d="M606.134,-256.893C617.306,-258.061 628.66,-259.249 639.797,-260.414"/>
<polygon fill="midnightblue" stroke="midnightblue" points="639.642,-263.917 649.952,-261.476 640.37,-256.955 639.642,-263.917"/>
</g>
<!-- Node6 -->
<g id="node6" class="node"><title>Node6</title>
<g id="a_node6"><a xlink:href="../../d6/d76/classinterpreter_1_1_s_logo_result_merger.html#a8c0879f8ab9d66e54b0317229ee6aa77" target="_top" xlink:title="interpreter.SLogoResultMerger.merge\lAndReturn">
<polygon fill="white" stroke="black" points="644,-212 644,-242 840,-242 840,-212 644,-212"/>
<text text-anchor="start" x="652" y="-230" font-family="Helvetica,sans-Serif" font-size="10.00">interpreter.SLogoResultMerger.merge</text>
<text text-anchor="middle" x="742" y="-219" font-family="Helvetica,sans-Serif" font-size="10.00">AndReturn</text>
</a>
</g>
</g>
<!-- Node4&#45;&gt;Node6 -->
<g id="edge5" class="edge"><title>Node4&#45;&gt;Node6</title>
<path fill="none" stroke="midnightblue" d="M606.134,-237.722C615.371,-236.987 624.734,-236.243 633.995,-235.507"/>
<polygon fill="midnightblue" stroke="midnightblue" points="634.303,-238.993 643.994,-234.712 633.748,-232.015 634.303,-238.993"/>
</g>
<!-- Node6&#45;&gt;Node2 -->
<g id="edge7" class="edge"><title>Node6&#45;&gt;Node2</title>
<path fill="none" stroke="midnightblue" d="M818.752,-242.075C826.811,-244.861 834.715,-248.142 842,-252 860.919,-262.018 859.425,-273.358 878,-284 881.704,-286.122 885.614,-288.093 889.627,-289.918"/>
<polygon fill="midnightblue" stroke="midnightblue" points="888.559,-293.266 899.133,-293.915 891.272,-286.813 888.559,-293.266"/>
</g>
<!-- Node7 -->
<g id="node7" class="node"><title>Node7</title>
<g id="a_node7"><a xlink:href="../../df/df6/classinterpreter_1_1result_1_1_s_logo_result.html#a11062748597af4f6622d9cbc92d4d9c0" target="_top" xlink:title="interpreter.result.SLogo\lResult.getTransition">
<polygon fill="white" stroke="black" points="891,-245 891,-275 1021,-275 1021,-245 891,-245"/>
<text text-anchor="start" x="899" y="-263" font-family="Helvetica,sans-Serif" font-size="10.00">interpreter.result.SLogo</text>
<text text-anchor="middle" x="956" y="-252" font-family="Helvetica,sans-Serif" font-size="10.00">Result.getTransition</text>
</a>
</g>
</g>
<!-- Node6&#45;&gt;Node7 -->
<g id="edge6" class="edge"><title>Node6&#45;&gt;Node7</title>
<path fill="none" stroke="midnightblue" d="M839.385,-242.003C853.244,-244.161 867.324,-246.352 880.666,-248.429"/>
<polygon fill="midnightblue" stroke="midnightblue" points="880.291,-251.913 890.71,-249.993 881.368,-244.996 880.291,-251.913"/>
</g>
<!-- Node8 -->
<g id="node8" class="node"><title>Node8</title>
<g id="a_node8"><a xlink:href="../../df/df6/classinterpreter_1_1result_1_1_s_logo_result.html#ade0879b3224a3216bf17e17e25bfd4ca" target="_top" xlink:title="interpreter.result.SLogo\lResult.setValue">
<polygon fill="white" stroke="black" points="891,-196 891,-226 1021,-226 1021,-196 891,-196"/>
<text text-anchor="start" x="899" y="-214" font-family="Helvetica,sans-Serif" font-size="10.00">interpreter.result.SLogo</text>
<text text-anchor="middle" x="956" y="-203" font-family="Helvetica,sans-Serif" font-size="10.00">Result.setValue</text>
</a>
</g>
</g>
<!-- Node6&#45;&gt;Node8 -->
<g id="edge8" class="edge"><title>Node6&#45;&gt;Node8</title>
<path fill="none" stroke="midnightblue" d="M840.004,-219.679C853.596,-218.653 867.388,-217.612 880.475,-216.625"/>
<polygon fill="midnightblue" stroke="midnightblue" points="881.095,-220.088 890.803,-215.845 880.568,-213.108 881.095,-220.088"/>
</g>
<!-- Node10 -->
<g id="node10" class="node"><title>Node10</title>
<g id="a_node10"><a xlink:href="../../d3/da2/classinterpreter_1_1_parser.html#aa6ccb9df4d2405de8b559ebf6fdf9c51" target="_top" xlink:title="interpreter.Parser.loadAll\lExpressionParameters">
<polygon fill="white" stroke="black" points="675,-147 675,-177 809,-177 809,-147 675,-147"/>
<text text-anchor="start" x="683" y="-165" font-family="Helvetica,sans-Serif" font-size="10.00">interpreter.Parser.loadAll</text>
<text text-anchor="middle" x="742" y="-154" font-family="Helvetica,sans-Serif" font-size="10.00">ExpressionParameters</text>
</a>
</g>
</g>
<!-- Node9&#45;&gt;Node10 -->
<g id="edge10" class="edge"><title>Node9&#45;&gt;Node10</title>
<path fill="none" stroke="midnightblue" d="M565.734,-126.067C596.179,-132.309 632.851,-139.827 664.763,-146.37"/>
<polygon fill="midnightblue" stroke="midnightblue" points="664.444,-149.877 674.943,-148.457 665.85,-143.02 664.444,-149.877"/>
</g>
<!-- Node12 -->
<g id="node12" class="node"><title>Node12</title>
<g id="a_node12"><a xlink:href="../../d3/da2/classinterpreter_1_1_parser.html#a6ec7d578c175a308702b323914b4cfd0" target="_top" xlink:title="interpreter.Parser.makeExpressions\lFromInput">
<polygon fill="white" stroke="black" points="649,-98 649,-128 835,-128 835,-98 649,-98"/>
<text text-anchor="start" x="657" y="-116" font-family="Helvetica,sans-Serif" font-size="10.00">interpreter.Parser.makeExpressions</text>
<text text-anchor="middle" x="742" y="-105" font-family="Helvetica,sans-Serif" font-size="10.00">FromInput</text>
</a>
</g>
</g>
<!-- Node9&#45;&gt;Node12 -->
<g id="edge12" class="edge"><title>Node9&#45;&gt;Node12</title>
<path fill="none" stroke="midnightblue" d="M565.734,-113C588.096,-113 613.818,-113 638.545,-113"/>
<polygon fill="midnightblue" stroke="midnightblue" points="638.698,-116.5 648.698,-113 638.698,-109.5 638.698,-116.5"/>
</g>
<!-- Node21 -->
<g id="node21" class="node"><title>Node21</title>
<g id="a_node21"><a xlink:href="../../d3/da2/classinterpreter_1_1_parser.html#ace7fbbc85fc2aad57bea2330b0476ef4" target="_top" xlink:title="interpreter.Parser.parse\lOutComments">
<polygon fill="white" stroke="black" points="677.5,-49 677.5,-79 806.5,-79 806.5,-49 677.5,-49"/>
<text text-anchor="start" x="685.5" y="-67" font-family="Helvetica,sans-Serif" font-size="10.00">interpreter.Parser.parse</text>
<text text-anchor="middle" x="742" y="-56" font-family="Helvetica,sans-Serif" font-size="10.00">OutComments</text>
</a>
</g>
</g>
<!-- Node9&#45;&gt;Node21 -->
<g id="edge21" class="edge"><title>Node9&#45;&gt;Node21</title>
<path fill="none" stroke="midnightblue" d="M565.734,-99.9333C597.063,-93.5101 634.985,-85.7354 667.53,-79.063"/>
<polygon fill="midnightblue" stroke="midnightblue" points="668.351,-82.4675 677.444,-77.0303 666.945,-75.6101 668.351,-82.4675"/>
</g>
<!-- Node22 -->
<g id="node22" class="node"><title>Node22</title>
<g id="a_node22"><a xlink:href="../../d3/da2/classinterpreter_1_1_parser.html#a2c8ee0acf938cac9cd22ef8fe5c77866" target="_top" xlink:title="interpreter.Parser.process\lInput">
<polygon fill="white" stroke="black" points="672,-0 672,-30 812,-30 812,-0 672,-0"/>
<text text-anchor="start" x="680" y="-18" font-family="Helvetica,sans-Serif" font-size="10.00">interpreter.Parser.process</text>
<text text-anchor="middle" x="742" y="-7" font-family="Helvetica,sans-Serif" font-size="10.00">Input</text>
</a>
</g>
</g>
<!-- Node9&#45;&gt;Node22 -->
<g id="edge22" class="edge"><title>Node9&#45;&gt;Node22</title>
<path fill="none" stroke="midnightblue" d="M525.919,-97.9858C553.126,-81.48 599.322,-55.1637 642,-39 648.389,-36.5801 655.105,-34.344 661.903,-32.2914"/>
<polygon fill="midnightblue" stroke="midnightblue" points="663.251,-35.5453 671.893,-29.4152 661.315,-28.8186 663.251,-35.5453"/>
</g>
<!-- Node11 -->
<g id="node11" class="node"><title>Node11</title>
<g id="a_node11"><a xlink:href="../../db/d09/interfaceinterpreter_1_1expression_1_1_s_logo_expression.html#a8bb3a17e57258a80b5becf128afaa04c" target="_top" xlink:title="interpreter.expression.SLogo\lExpression.loadArguments">
<polygon fill="white" stroke="black" points="878.5,-147 878.5,-177 1033.5,-177 1033.5,-147 878.5,-147"/>
<text text-anchor="start" x="886.5" y="-165" font-family="Helvetica,sans-Serif" font-size="10.00">interpreter.expression.SLogo</text>
<text text-anchor="middle" x="956" y="-154" font-family="Helvetica,sans-Serif" font-size="10.00">Expression.loadArguments</text>
</a>
</g>
</g>
<!-- Node10&#45;&gt;Node11 -->
<g id="edge11" class="edge"><title>Node10&#45;&gt;Node11</title>
<path fill="none" stroke="midnightblue" d="M809.206,-162C827.828,-162 848.367,-162 868.007,-162"/>
<polygon fill="midnightblue" stroke="midnightblue" points="868.18,-165.5 878.18,-162 868.18,-158.5 868.18,-165.5"/>
</g>
<!-- Node13 -->
<g id="node13" class="node"><title>Node13</title>
<g id="a_node13"><a xlink:href="../../d8/daa/classinterpreter_1_1_s_logo_expression_factory.html#a50eb077dd9b57f111e60eb7b297b6d29" target="_top" xlink:title="interpreter.SLogoExpression\lFactory.createExpression">
<polygon fill="white" stroke="black" points="880,-98 880,-128 1032,-128 1032,-98 880,-98"/>
<text text-anchor="start" x="888" y="-116" font-family="Helvetica,sans-Serif" font-size="10.00">interpreter.SLogoExpression</text>
<text text-anchor="middle" x="956" y="-105" font-family="Helvetica,sans-Serif" font-size="10.00">Factory.createExpression</text>
</a>
</g>
</g>
<!-- Node12&#45;&gt;Node13 -->
<g id="edge13" class="edge"><title>Node12&#45;&gt;Node13</title>
<path fill="none" stroke="midnightblue" d="M835.061,-113C846.526,-113 858.211,-113 869.569,-113"/>
<polygon fill="midnightblue" stroke="midnightblue" points="869.892,-116.5 879.892,-113 869.892,-109.5 869.892,-116.5"/>
</g>
<!-- Node14 -->
<g id="node14" class="node"><title>Node14</title>
<g id="a_node14"><a xlink:href="../../d8/daa/classinterpreter_1_1_s_logo_expression_factory.html#af866a871782317ae912240ad2e383bd9" target="_top" xlink:title="interpreter.SLogoExpression\lFactory.checkTypeAndInitialize">
<polygon fill="white" stroke="black" points="1070,-98 1070,-128 1228,-128 1228,-98 1070,-98"/>
<text text-anchor="start" x="1078" y="-116" font-family="Helvetica,sans-Serif" font-size="10.00">interpreter.SLogoExpression</text>
<text text-anchor="middle" x="1149" y="-105" font-family="Helvetica,sans-Serif" font-size="10.00">Factory.checkTypeAndInitialize</text>
</a>
</g>
</g>
<!-- Node13&#45;&gt;Node14 -->
<g id="edge14" class="edge"><title>Node13&#45;&gt;Node14</title>
<path fill="none" stroke="midnightblue" d="M1032.21,-113C1041.16,-113 1050.36,-113 1059.48,-113"/>
<polygon fill="midnightblue" stroke="midnightblue" points="1059.71,-116.5 1069.71,-113 1059.71,-109.5 1059.71,-116.5"/>
</g>
<!-- Node15 -->
<g id="node15" class="node"><title>Node15</title>
<g id="a_node15"><a xlink:href="../../d8/daa/classinterpreter_1_1_s_logo_expression_factory.html#aed195cb1e071e9e87792f7a51242f824" target="_top" xlink:title="interpreter.SLogoExpression\lFactory.initializeExpression">
<polygon fill="white" stroke="black" points="1266,-147 1266,-177 1418,-177 1418,-147 1266,-147"/>
<text text-anchor="start" x="1274" y="-165" font-family="Helvetica,sans-Serif" font-size="10.00">interpreter.SLogoExpression</text>
<text text-anchor="middle" x="1342" y="-154" font-family="Helvetica,sans-Serif" font-size="10.00">Factory.initializeExpression</text>
</a>
</g>
</g>
<!-- Node14&#45;&gt;Node15 -->
<g id="edge15" class="edge"><title>Node14&#45;&gt;Node15</title>
<path fill="none" stroke="midnightblue" d="M1208.6,-128.035C1228.86,-133.232 1251.74,-139.101 1272.71,-144.48"/>
<polygon fill="midnightblue" stroke="midnightblue" points="1271.95,-147.899 1282.51,-146.994 1273.69,-141.119 1271.95,-147.899"/>
</g>
<!-- Node19 -->
<g id="node19" class="node"><title>Node19</title>
<g id="a_node19"><a xlink:href="../../d8/daa/classinterpreter_1_1_s_logo_expression_factory.html#a67c690097a981fbc2bf840c1f619639a" target="_top" xlink:title="interpreter.SLogoExpression\lFactory.isMatch">
<polygon fill="white" stroke="black" points="1266,-98 1266,-128 1418,-128 1418,-98 1266,-98"/>
<text text-anchor="start" x="1274" y="-116" font-family="Helvetica,sans-Serif" font-size="10.00">interpreter.SLogoExpression</text>
<text text-anchor="middle" x="1342" y="-105" font-family="Helvetica,sans-Serif" font-size="10.00">Factory.isMatch</text>
</a>
</g>
</g>
<!-- Node14&#45;&gt;Node19 -->
<g id="edge19" class="edge"><title>Node14&#45;&gt;Node19</title>
<path fill="none" stroke="midnightblue" d="M1228.24,-113C1237.3,-113 1246.57,-113 1255.71,-113"/>
<polygon fill="midnightblue" stroke="midnightblue" points="1255.96,-116.5 1265.96,-113 1255.96,-109.5 1255.96,-116.5"/>
</g>
<!-- Node20 -->
<g id="node20" class="node"><title>Node20</title>
<g id="a_node20"><a xlink:href="../../db/d09/interfaceinterpreter_1_1expression_1_1_s_logo_expression.html#a035636bae1b48baf5732f091a85ca9b1" target="_top" xlink:title="interpreter.expression.SLogo\lExpression.setValue">
<polygon fill="white" stroke="black" points="1264.5,-49 1264.5,-79 1419.5,-79 1419.5,-49 1264.5,-49"/>
<text text-anchor="start" x="1272.5" y="-67" font-family="Helvetica,sans-Serif" font-size="10.00">interpreter.expression.SLogo</text>
<text text-anchor="middle" x="1342" y="-56" font-family="Helvetica,sans-Serif" font-size="10.00">Expression.setValue</text>
</a>
</g>
</g>
<!-- Node14&#45;&gt;Node20 -->
<g id="edge20" class="edge"><title>Node14&#45;&gt;Node20</title>
<path fill="none" stroke="midnightblue" d="M1208.6,-97.9654C1228.86,-92.7682 1251.74,-86.8994 1272.71,-81.5204"/>
<polygon fill="midnightblue" stroke="midnightblue" points="1273.69,-84.8814 1282.51,-79.0062 1271.95,-78.101 1273.69,-84.8814"/>
</g>
<!-- Node16 -->
<g id="node16" class="node"><title>Node16</title>
<g id="a_node16"><a xlink:href="../../db/d09/interfaceinterpreter_1_1expression_1_1_s_logo_expression.html#a8dbb9bf4dced75bf7e423cb614958a15" target="_top" xlink:title="interpreter.expression.SLogo\lExpression.loadLibrary">
<polygon fill="white" stroke="black" points="1456.5,-196 1456.5,-226 1611.5,-226 1611.5,-196 1456.5,-196"/>
<text text-anchor="start" x="1464.5" y="-214" font-family="Helvetica,sans-Serif" font-size="10.00">interpreter.expression.SLogo</text>
<text text-anchor="middle" x="1534" y="-203" font-family="Helvetica,sans-Serif" font-size="10.00">Expression.loadLibrary</text>
</a>
</g>
</g>
<!-- Node15&#45;&gt;Node16 -->
<g id="edge16" class="edge"><title>Node15&#45;&gt;Node16</title>
<path fill="none" stroke="midnightblue" d="M1401.3,-177.035C1421.45,-182.232 1444.21,-188.101 1465.06,-193.48"/>
<polygon fill="midnightblue" stroke="midnightblue" points="1464.26,-196.886 1474.81,-195.994 1466,-190.107 1464.26,-196.886"/>
</g>
<!-- Node17 -->
<g id="node17" class="node"><title>Node17</title>
<g id="a_node17"><a xlink:href="../../db/d09/interfaceinterpreter_1_1expression_1_1_s_logo_expression.html#a85984c7b01a9e06a1f4c8d73f7752a48" target="_top" xlink:title="interpreter.expression.SLogo\lExpression.loadModel">
<polygon fill="white" stroke="black" points="1456.5,-147 1456.5,-177 1611.5,-177 1611.5,-147 1456.5,-147"/>
<text text-anchor="start" x="1464.5" y="-165" font-family="Helvetica,sans-Serif" font-size="10.00">interpreter.expression.SLogo</text>
<text text-anchor="middle" x="1534" y="-154" font-family="Helvetica,sans-Serif" font-size="10.00">Expression.loadModel</text>
</a>
</g>
</g>
<!-- Node15&#45;&gt;Node17 -->
<g id="edge17" class="edge"><title>Node15&#45;&gt;Node17</title>
<path fill="none" stroke="midnightblue" d="M1418.09,-162C1427.31,-162 1436.79,-162 1446.16,-162"/>
<polygon fill="midnightblue" stroke="midnightblue" points="1446.27,-165.5 1456.27,-162 1446.27,-158.5 1446.27,-165.5"/>
</g>
<!-- Node18 -->
<g id="node18" class="node"><title>Node18</title>
<g id="a_node18"><a xlink:href="../../db/d09/interfaceinterpreter_1_1expression_1_1_s_logo_expression.html#ae5647ebedeb07edc2902d7cf478107f7" target="_top" xlink:title="interpreter.expression.SLogo\lExpression.setNumArgs">
<polygon fill="white" stroke="black" points="1456.5,-98 1456.5,-128 1611.5,-128 1611.5,-98 1456.5,-98"/>
<text text-anchor="start" x="1464.5" y="-116" font-family="Helvetica,sans-Serif" font-size="10.00">interpreter.expression.SLogo</text>
<text text-anchor="middle" x="1534" y="-105" font-family="Helvetica,sans-Serif" font-size="10.00">Expression.setNumArgs</text>
</a>
</g>
</g>
<!-- Node15&#45;&gt;Node18 -->
<g id="edge18" class="edge"><title>Node15&#45;&gt;Node18</title>
<path fill="none" stroke="midnightblue" d="M1401.3,-146.965C1421.45,-141.768 1444.21,-135.899 1465.06,-130.52"/>
<polygon fill="midnightblue" stroke="midnightblue" points="1466,-133.893 1474.81,-128.006 1464.26,-127.114 1466,-133.893"/>
</g>
</g>
</svg>
