<?xml version="1.0" encoding="UTF-8" standalone="no"?>
<!DOCTYPE svg PUBLIC "-//W3C//DTD SVG 1.1//EN"
 "http://www.w3.org/Graphics/SVG/1.1/DTD/svg11.dtd">
<!-- Generated by graphviz version 2.36.0 (20140111.2315)
 -->
<!-- Title: interpreter.Parser.parseSLogoExpression Pages: 1 -->
<svg width="2344pt" height="207pt"
 viewBox="0.00 0.00 2344.00 207.00" xmlns="http://www.w3.org/2000/svg" xmlns:xlink="http://www.w3.org/1999/xlink">
<g id="graph0" class="graph" transform="scale(1 1) rotate(0) translate(4 203)">
<title>interpreter.Parser.parseSLogoExpression</title>
<polygon fill="white" stroke="none" points="-4,4 -4,-203 2340,-203 2340,4 -4,4"/>
<!-- Node1 -->
<g id="node1" class="node"><title>Node1</title>
<polygon fill="#bfbfbf" stroke="black" points="0.5,-100 0.5,-130 129.5,-130 129.5,-100 0.5,-100"/>
<text text-anchor="start" x="8.5" y="-118" font-family="Helvetica,sans-Serif" font-size="10.00">interpreter.Parser.parse</text>
<text text-anchor="middle" x="65" y="-107" font-family="Helvetica,sans-Serif" font-size="10.00">SLogoExpression</text>
</g>
<!-- Node2 -->
<g id="node2" class="node"><title>Node2</title>
<g id="a_node2"><a xlink:href="../../d2/dc7/classinterpreter_1_1_interpreter.html#a2398aed9ce5fd0631e4a61eb0ae7e3eb" target="_top" xlink:title="interpreter.Interpreter.interpret">
<polygon fill="white" stroke="black" points="166,-105.5 166,-124.5 330,-124.5 330,-105.5 166,-105.5"/>
<text text-anchor="middle" x="248" y="-112.5" font-family="Helvetica,sans-Serif" font-size="10.00">interpreter.Interpreter.interpret</text>
</a>
</g>
</g>
<!-- Node1&#45;&gt;Node2 -->
<g id="edge1" class="edge"><title>Node1&#45;&gt;Node2</title>
<path fill="none" stroke="midnightblue" d="M139.581,-115C148.217,-115 157.068,-115 165.801,-115"/>
<polygon fill="midnightblue" stroke="midnightblue" points="139.559,-111.5 129.559,-115 139.559,-118.5 139.559,-111.5"/>
</g>
<!-- Node3 -->
<g id="node3" class="node"><title>Node3</title>
<g id="a_node3"><a xlink:href="../../d7/d98/classtest_1_1_math_expression_tester.html#a74350214f5fc67a0e3bcfe4b17c60b32" target="_top" xlink:title="test.MathExpressionTester.arc\lTanTest">
<polygon fill="white" stroke="black" points="379,-149 379,-179 539,-179 539,-149 379,-149"/>
<text text-anchor="start" x="387" y="-167" font-family="Helvetica,sans-Serif" font-size="10.00">test.MathExpressionTester.arc</text>
<text text-anchor="middle" x="459" y="-156" font-family="Helvetica,sans-Serif" font-size="10.00">TanTest</text>
</a>
</g>
</g>
<!-- Node2&#45;&gt;Node3 -->
<g id="edge2" class="edge"><title>Node2&#45;&gt;Node3</title>
<path fill="none" stroke="midnightblue" d="M299.871,-126.927C328.173,-133.562 363.673,-141.885 393.863,-148.963"/>
<polygon fill="midnightblue" stroke="midnightblue" points="300.328,-123.439 289.793,-124.564 298.731,-130.254 300.328,-123.439"/>
</g>
<!-- Node4 -->
<g id="node4" class="node"><title>Node4</title>
<g id="a_node4"><a xlink:href="../../de/d21/classmodel_1_1_main_model.html#a96f4ff9f640f14d713c5d90ab5704884" target="_top" xlink:title="model.MainModel.interpret\lSLogoCommand">
<polygon fill="white" stroke="black" points="386.5,-100 386.5,-130 531.5,-130 531.5,-100 386.5,-100"/>
<text text-anchor="start" x="394.5" y="-118" font-family="Helvetica,sans-Serif" font-size="10.00">model.MainModel.interpret</text>
<text text-anchor="middle" x="459" y="-107" font-family="Helvetica,sans-Serif" font-size="10.00">SLogoCommand</text>
</a>
</g>
</g>
<!-- Node2&#45;&gt;Node4 -->
<g id="edge3" class="edge"><title>Node2&#45;&gt;Node4</title>
<path fill="none" stroke="midnightblue" d="M340.211,-115C355.699,-115 371.583,-115 386.473,-115"/>
<polygon fill="midnightblue" stroke="midnightblue" points="340.104,-111.5 330.104,-115 340.104,-118.5 340.104,-111.5"/>
</g>
<!-- Node21 -->
<g id="node21" class="node"><title>Node21</title>
<g id="a_node21"><a xlink:href="../../d7/d98/classtest_1_1_math_expression_tester.html#a782c9fa3f42b7a7ac8b5eb42794c4011" target="_top" xlink:title="test.MathExpressionTester.sumTest">
<polygon fill="white" stroke="black" points="366.5,-61.5 366.5,-80.5 551.5,-80.5 551.5,-61.5 366.5,-61.5"/>
<text text-anchor="middle" x="459" y="-68.5" font-family="Helvetica,sans-Serif" font-size="10.00">test.MathExpressionTester.sumTest</text>
</a>
</g>
</g>
<!-- Node2&#45;&gt;Node21 -->
<g id="edge21" class="edge"><title>Node2&#45;&gt;Node21</title>
<path fill="none" stroke="midnightblue" d="M302.937,-103.394C322.761,-99.1501 345.394,-94.3293 366,-90 380.844,-86.8814 397.044,-83.5212 411.656,-80.5065"/>
<polygon fill="midnightblue" stroke="midnightblue" points="302.198,-99.973 293.154,-105.491 303.665,-106.818 302.198,-99.973"/>
</g>
<!-- Node5 -->
<g id="node5" class="node"><title>Node5</title>
<g id="a_node5"><a xlink:href="../../de/d21/classmodel_1_1_main_model.html#ab4985c9a187961a2d57a8a0a63ab3b18" target="_top" xlink:title="model.MainModel.interpret\lSLogoCommand">
<polygon fill="white" stroke="black" points="615.5,-125 615.5,-155 760.5,-155 760.5,-125 615.5,-125"/>
<text text-anchor="start" x="623.5" y="-143" font-family="Helvetica,sans-Serif" font-size="10.00">model.MainModel.interpret</text>
<text text-anchor="middle" x="688" y="-132" font-family="Helvetica,sans-Serif" font-size="10.00">SLogoCommand</text>
</a>
</g>
</g>
<!-- Node4&#45;&gt;Node5 -->
<g id="edge4" class="edge"><title>Node4&#45;&gt;Node5</title>
<path fill="none" stroke="midnightblue" d="M541.708,-123.999C565.827,-126.655 592.03,-129.541 615.457,-132.121"/>
<polygon fill="midnightblue" stroke="midnightblue" points="541.836,-120.492 531.513,-122.876 541.069,-127.45 541.836,-120.492"/>
</g>
<!-- Node6 -->
<g id="node6" class="node"><title>Node6</title>
<g id="a_node6"><a xlink:href="../../d3/d67/classviewcontroller_1_1_main_view_controller.html#a1b77a34d9385ff9296a9dc1db8c322cb" target="_top" xlink:title="viewcontroller.MainViewController.pass\lSLogoCommand">
<polygon fill="white" stroke="black" points="588,-76 588,-106 788,-106 788,-76 588,-76"/>
<text text-anchor="start" x="596" y="-94" font-family="Helvetica,sans-Serif" font-size="10.00">viewcontroller.MainViewController.pass</text>
<text text-anchor="middle" x="688" y="-83" font-family="Helvetica,sans-Serif" font-size="10.00">SLogoCommand</text>
</a>
</g>
</g>
<!-- Node4&#45;&gt;Node6 -->
<g id="edge5" class="edge"><title>Node4&#45;&gt;Node6</title>
<path fill="none" stroke="midnightblue" d="M541.683,-106.364C556.576,-104.789 572.266,-103.131 587.605,-101.509"/>
<polygon fill="midnightblue" stroke="midnightblue" points="541.089,-102.907 531.513,-107.439 541.825,-109.868 541.089,-102.907"/>
</g>
<!-- Node7 -->
<g id="node7" class="node"><title>Node7</title>
<g id="a_node7"><a xlink:href="../../d0/d7c/classviewcontroller_1_1commands_1_1_command_window_container_view_controller.html#a0d7c2e3db2080741b7b01b42a0294695" target="_top" xlink:title="viewcontroller.commands.\lCommandWindowContainerViewController.pass\lSLogoCommand">
<polygon fill="white" stroke="black" points="824,-100.5 824,-141.5 1066,-141.5 1066,-100.5 824,-100.5"/>
<text text-anchor="start" x="832" y="-129.5" font-family="Helvetica,sans-Serif" font-size="10.00">viewcontroller.commands.</text>
<text text-anchor="start" x="832" y="-118.5" font-family="Helvetica,sans-Serif" font-size="10.00">CommandWindowContainerViewController.pass</text>
<text text-anchor="middle" x="945" y="-107.5" font-family="Helvetica,sans-Serif" font-size="10.00">SLogoCommand</text>
</a>
</g>
</g>
<!-- Node6&#45;&gt;Node7 -->
<g id="edge6" class="edge"><title>Node6&#45;&gt;Node7</title>
<path fill="none" stroke="midnightblue" d="M798.458,-103.877C806.82,-104.861 815.288,-105.857 823.713,-106.849"/>
<polygon fill="midnightblue" stroke="midnightblue" points="798.66,-100.377 788.32,-102.685 797.842,-107.329 798.66,-100.377"/>
</g>
<!-- Node17 -->
<g id="node17" class="node"><title>Node17</title>
<g id="a_node17"><a xlink:href="../../d3/daf/classviewcontroller_1_1turtlegrid_1_1_turtle_window_view_controller.html#a0a65ca6c84f3f3e7bffa675df02c9166" target="_top" xlink:title="viewcontroller.turtlegrid.\lTurtleWindowViewController.pass\lSLogoCommand">
<polygon fill="white" stroke="black" points="860,-40.5 860,-81.5 1030,-81.5 1030,-40.5 860,-40.5"/>
<text text-anchor="start" x="868" y="-69.5" font-family="Helvetica,sans-Serif" font-size="10.00">viewcontroller.turtlegrid.</text>
<text text-anchor="start" x="868" y="-58.5" font-family="Helvetica,sans-Serif" font-size="10.00">TurtleWindowViewController.pass</text>
<text text-anchor="middle" x="945" y="-47.5" font-family="Helvetica,sans-Serif" font-size="10.00">SLogoCommand</text>
</a>
</g>
</g>
<!-- Node6&#45;&gt;Node17 -->
<g id="edge16" class="edge"><title>Node6&#45;&gt;Node17</title>
<path fill="none" stroke="midnightblue" d="M798.361,-78.134C818.941,-75.7128 840.164,-73.216 859.827,-70.9027"/>
<polygon fill="midnightblue" stroke="midnightblue" points="797.842,-74.6708 788.32,-79.3153 798.66,-81.6228 797.842,-74.6708"/>
</g>
<!-- Node8 -->
<g id="node8" class="node"><title>Node8</title>
<g id="a_node8"><a xlink:href="../../de/d8d/classviewcontroller_1_1commands_1_1_command_prompt_view_controller.html#afc397f419037ca0ec30bdc6e93667e86" target="_top" xlink:title="viewcontroller.commands.\lCommandPromptViewController.pass\lCommandToModel">
<polygon fill="white" stroke="black" points="1107.5,-157.5 1107.5,-198.5 1302.5,-198.5 1302.5,-157.5 1107.5,-157.5"/>
<text text-anchor="start" x="1115.5" y="-186.5" font-family="Helvetica,sans-Serif" font-size="10.00">viewcontroller.commands.</text>
<text text-anchor="start" x="1115.5" y="-175.5" font-family="Helvetica,sans-Serif" font-size="10.00">CommandPromptViewController.pass</text>
<text text-anchor="middle" x="1205" y="-164.5" font-family="Helvetica,sans-Serif" font-size="10.00">CommandToModel</text>
</a>
</g>
</g>
<!-- Node7&#45;&gt;Node8 -->
<g id="edge7" class="edge"><title>Node7&#45;&gt;Node8</title>
<path fill="none" stroke="midnightblue" d="M1049.1,-143.778C1069.55,-148.296 1090.9,-153.014 1110.99,-157.452"/>
<polygon fill="midnightblue" stroke="midnightblue" points="1049.66,-140.318 1039.14,-141.578 1048.15,-147.153 1049.66,-140.318"/>
</g>
<!-- Node12 -->
<g id="node12" class="node"><title>Node12</title>
<g id="a_node12"><a xlink:href="../../d4/dc8/classviewcontroller_1_1commands_1_1_user_defined_variables_view_controller.html#a14508efe9a049e27b8a7f4d0928b83cd" target="_top" xlink:title="viewcontroller.commands.\lUserDefinedVariablesViewController.key\lPressed">
<polygon fill="white" stroke="black" points="1102,-97.5 1102,-138.5 1308,-138.5 1308,-97.5 1102,-97.5"/>
<text text-anchor="start" x="1110" y="-126.5" font-family="Helvetica,sans-Serif" font-size="10.00">viewcontroller.commands.</text>
<text text-anchor="start" x="1110" y="-115.5" font-family="Helvetica,sans-Serif" font-size="10.00">UserDefinedVariablesViewController.key</text>
<text text-anchor="middle" x="1205" y="-104.5" font-family="Helvetica,sans-Serif" font-size="10.00">Pressed</text>
</a>
</g>
</g>
<!-- Node7&#45;&gt;Node12 -->
<g id="edge11" class="edge"><title>Node7&#45;&gt;Node12</title>
<path fill="none" stroke="midnightblue" d="M1076.58,-119.482C1085,-119.384 1093.42,-119.286 1101.68,-119.19"/>
<polygon fill="midnightblue" stroke="midnightblue" points="1076.27,-115.985 1066.31,-119.601 1076.35,-122.984 1076.27,-115.985"/>
</g>
<!-- Node9 -->
<g id="node9" class="node"><title>Node9</title>
<g id="a_node9"><a xlink:href="../../de/d8d/classviewcontroller_1_1commands_1_1_command_prompt_view_controller.html#a02e953379b9b8de02a4e15d94fe1c559" target="_top" xlink:title="viewcontroller.commands.\lCommandPromptViewController.set\lUpSubmitButton">
<polygon fill="white" stroke="black" points="1364,-157.5 1364,-198.5 1552,-198.5 1552,-157.5 1364,-157.5"/>
<text text-anchor="start" x="1372" y="-186.5" font-family="Helvetica,sans-Serif" font-size="10.00">viewcontroller.commands.</text>
<text text-anchor="start" x="1372" y="-175.5" font-family="Helvetica,sans-Serif" font-size="10.00">CommandPromptViewController.set</text>
<text text-anchor="middle" x="1458" y="-164.5" font-family="Helvetica,sans-Serif" font-size="10.00">UpSubmitButton</text>
</a>
</g>
</g>
<!-- Node8&#45;&gt;Node9 -->
<g id="edge8" class="edge"><title>Node8&#45;&gt;Node9</title>
<path fill="none" stroke="midnightblue" d="M1313.09,-178C1329.91,-178 1347.19,-178 1363.67,-178"/>
<polygon fill="midnightblue" stroke="midnightblue" points="1312.68,-174.5 1302.68,-178 1312.68,-181.5 1312.68,-174.5"/>
</g>
<!-- Node10 -->
<g id="node10" class="node"><title>Node10</title>
<g id="a_node10"><a xlink:href="../../de/d8d/classviewcontroller_1_1commands_1_1_command_prompt_view_controller.html#a6931239ae66e9bb6ebfa794b7dada7b5" target="_top" xlink:title="viewcontroller.commands.\lCommandPromptViewController.set\lUpCommandPromptHorizontalBox">
<polygon fill="white" stroke="black" points="1618,-157.5 1618,-198.5 1806,-198.5 1806,-157.5 1618,-157.5"/>
<text text-anchor="start" x="1626" y="-186.5" font-family="Helvetica,sans-Serif" font-size="10.00">viewcontroller.commands.</text>
<text text-anchor="start" x="1626" y="-175.5" font-family="Helvetica,sans-Serif" font-size="10.00">CommandPromptViewController.set</text>
<text text-anchor="middle" x="1712" y="-164.5" font-family="Helvetica,sans-Serif" font-size="10.00">UpCommandPromptHorizontalBox</text>
</a>
</g>
</g>
<!-- Node9&#45;&gt;Node10 -->
<g id="edge9" class="edge"><title>Node9&#45;&gt;Node10</title>
<path fill="none" stroke="midnightblue" d="M1562.26,-178C1580.67,-178 1599.74,-178 1617.84,-178"/>
<polygon fill="midnightblue" stroke="midnightblue" points="1562.12,-174.5 1552.12,-178 1562.12,-181.5 1562.12,-174.5"/>
</g>
<!-- Node11 -->
<g id="node11" class="node"><title>Node11</title>
<g id="a_node11"><a xlink:href="../../de/d8d/classviewcontroller_1_1commands_1_1_command_prompt_view_controller.html#a7e92ce4136e77a153ee6ef862f99052a" target="_top" xlink:title="viewcontroller.commands.\lCommandPromptViewController.\lCommandPromptViewController">
<polygon fill="white" stroke="black" points="1877.5,-157.5 1877.5,-198.5 2050.5,-198.5 2050.5,-157.5 1877.5,-157.5"/>
<text text-anchor="start" x="1885.5" y="-186.5" font-family="Helvetica,sans-Serif" font-size="10.00">viewcontroller.commands.</text>
<text text-anchor="start" x="1885.5" y="-175.5" font-family="Helvetica,sans-Serif" font-size="10.00">CommandPromptViewController.</text>
<text text-anchor="middle" x="1964" y="-164.5" font-family="Helvetica,sans-Serif" font-size="10.00">CommandPromptViewController</text>
</a>
</g>
</g>
<!-- Node10&#45;&gt;Node11 -->
<g id="edge10" class="edge"><title>Node10&#45;&gt;Node11</title>
<path fill="none" stroke="midnightblue" d="M1816.29,-178C1836.57,-178 1857.64,-178 1877.27,-178"/>
<polygon fill="midnightblue" stroke="midnightblue" points="1816.09,-174.5 1806.09,-178 1816.09,-181.5 1816.09,-174.5"/>
</g>
<!-- Node13 -->
<g id="node13" class="node"><title>Node13</title>
<g id="a_node13"><a xlink:href="../../d4/dc8/classviewcontroller_1_1commands_1_1_user_defined_variables_view_controller.html#acac3eb9c8c5f87e3ef36c56477a0cecc" target="_top" xlink:title="viewcontroller.commands.\lUserDefinedVariablesViewController.variable\lClicked">
<polygon fill="white" stroke="black" points="1344.5,-97.5 1344.5,-138.5 1571.5,-138.5 1571.5,-97.5 1344.5,-97.5"/>
<text text-anchor="start" x="1352.5" y="-126.5" font-family="Helvetica,sans-Serif" font-size="10.00">viewcontroller.commands.</text>
<text text-anchor="start" x="1352.5" y="-115.5" font-family="Helvetica,sans-Serif" font-size="10.00">UserDefinedVariablesViewController.variable</text>
<text text-anchor="middle" x="1458" y="-104.5" font-family="Helvetica,sans-Serif" font-size="10.00">Clicked</text>
</a>
</g>
</g>
<!-- Node12&#45;&gt;Node13 -->
<g id="edge12" class="edge"><title>Node12&#45;&gt;Node13</title>
<path fill="none" stroke="midnightblue" d="M1318.23,-118C1326.91,-118 1335.67,-118 1344.35,-118"/>
<polygon fill="midnightblue" stroke="midnightblue" points="1318.09,-114.5 1308.09,-118 1318.09,-121.5 1318.09,-114.5"/>
</g>
<!-- Node14 -->
<g id="node14" class="node"><title>Node14</title>
<g id="a_node14"><a xlink:href="../../d4/dc8/classviewcontroller_1_1commands_1_1_user_defined_variables_view_controller.html#a027a582fe22eab9a05fb0d723fbac644" target="_top" xlink:title="viewcontroller.commands.\lUserDefinedVariablesViewController.add\lVariableToList">
<polygon fill="white" stroke="black" points="1608,-97.5 1608,-138.5 1816,-138.5 1816,-97.5 1608,-97.5"/>
<text text-anchor="start" x="1616" y="-126.5" font-family="Helvetica,sans-Serif" font-size="10.00">viewcontroller.commands.</text>
<text text-anchor="start" x="1616" y="-115.5" font-family="Helvetica,sans-Serif" font-size="10.00">UserDefinedVariablesViewController.add</text>
<text text-anchor="middle" x="1712" y="-104.5" font-family="Helvetica,sans-Serif" font-size="10.00">VariableToList</text>
</a>
</g>
</g>
<!-- Node13&#45;&gt;Node14 -->
<g id="edge13" class="edge"><title>Node13&#45;&gt;Node14</title>
<path fill="none" stroke="midnightblue" d="M1581.93,-118C1590.64,-118 1599.37,-118 1607.95,-118"/>
<polygon fill="midnightblue" stroke="midnightblue" points="1581.73,-114.5 1571.73,-118 1581.73,-121.5 1581.73,-114.5"/>
</g>
<!-- Node15 -->
<g id="node15" class="node"><title>Node15</title>
<g id="a_node15"><a xlink:href="../../d4/dc8/classviewcontroller_1_1commands_1_1_user_defined_variables_view_controller.html#a12bbbabdbb3032751fe57b25e835eafc" target="_top" xlink:title="viewcontroller.commands.\lUserDefinedVariablesViewController.update\lVariableList">
<polygon fill="white" stroke="black" points="1852,-97.5 1852,-138.5 2076,-138.5 2076,-97.5 1852,-97.5"/>
<text text-anchor="start" x="1860" y="-126.5" font-family="Helvetica,sans-Serif" font-size="10.00">viewcontroller.commands.</text>
<text text-anchor="start" x="1860" y="-115.5" font-family="Helvetica,sans-Serif" font-size="10.00">UserDefinedVariablesViewController.update</text>
<text text-anchor="middle" x="1964" y="-104.5" font-family="Helvetica,sans-Serif" font-size="10.00">VariableList</text>
</a>
</g>
</g>
<!-- Node14&#45;&gt;Node15 -->
<g id="edge14" class="edge"><title>Node14&#45;&gt;Node15</title>
<path fill="none" stroke="midnightblue" d="M1826.33,-118C1834.73,-118 1843.21,-118 1851.6,-118"/>
<polygon fill="midnightblue" stroke="midnightblue" points="1826.13,-114.5 1816.13,-118 1826.13,-121.5 1826.13,-114.5"/>
</g>
<!-- Node16 -->
<g id="node16" class="node"><title>Node16</title>
<g id="a_node16"><a xlink:href="../../d4/dc8/classviewcontroller_1_1commands_1_1_user_defined_variables_view_controller.html#a1e84f755902379519ddf5438bc2d27ee" target="_top" xlink:title="viewcontroller.commands.\lUserDefinedVariablesViewController.update">
<polygon fill="white" stroke="black" points="2112,-103 2112,-133 2336,-133 2336,-103 2112,-103"/>
<text text-anchor="start" x="2120" y="-121" font-family="Helvetica,sans-Serif" font-size="10.00">viewcontroller.commands.</text>
<text text-anchor="middle" x="2224" y="-110" font-family="Helvetica,sans-Serif" font-size="10.00">UserDefinedVariablesViewController.update</text>
</a>
</g>
</g>
<!-- Node15&#45;&gt;Node16 -->
<g id="edge15" class="edge"><title>Node15&#45;&gt;Node16</title>
<path fill="none" stroke="midnightblue" d="M2086.5,-118C2094.9,-118 2103.33,-118 2111.67,-118"/>
<polygon fill="midnightblue" stroke="midnightblue" points="2086.29,-114.5 2076.29,-118 2086.29,-121.5 2086.29,-114.5"/>
</g>
<!-- Node18 -->
<g id="node18" class="node"><title>Node18</title>
<g id="a_node18"><a xlink:href="../../d5/dcc/classviewcontroller_1_1turtlegrid_1_1_grid_view_controller.html#a9b87e85ea14f3882c2fefa36ceb159cb" target="_top" xlink:title="viewcontroller.turtlegrid.\lGridViewController.forwardKeyPressed">
<polygon fill="white" stroke="black" points="1106.5,-49 1106.5,-79 1303.5,-79 1303.5,-49 1106.5,-49"/>
<text text-anchor="start" x="1114.5" y="-67" font-family="Helvetica,sans-Serif" font-size="10.00">viewcontroller.turtlegrid.</text>
<text text-anchor="middle" x="1205" y="-56" font-family="Helvetica,sans-Serif" font-size="10.00">GridViewController.forwardKeyPressed</text>
</a>
</g>
</g>
<!-- Node17&#45;&gt;Node18 -->
<g id="edge17" class="edge"><title>Node17&#45;&gt;Node18</title>
<path fill="none" stroke="midnightblue" d="M1040.2,-62.0953C1061.65,-62.3448 1084.49,-62.6103 1106.09,-62.8615"/>
<polygon fill="midnightblue" stroke="midnightblue" points="1040.16,-58.5948 1030.12,-61.9782 1040.08,-65.5943 1040.16,-58.5948"/>
</g>
<!-- Node20 -->
<g id="node20" class="node"><title>Node20</title>
<g id="a_node20"><a xlink:href="../../d5/dcc/classviewcontroller_1_1turtlegrid_1_1_grid_view_controller.html#a7562be13e46d86a1d5f9058462a6d189" target="_top" xlink:title="viewcontroller.turtlegrid.\lGridViewController.rightKeyPressed">
<polygon fill="white" stroke="black" points="1113.5,-0 1113.5,-30 1296.5,-30 1296.5,-0 1113.5,-0"/>
<text text-anchor="start" x="1121.5" y="-18" font-family="Helvetica,sans-Serif" font-size="10.00">viewcontroller.turtlegrid.</text>
<text text-anchor="middle" x="1205" y="-7" font-family="Helvetica,sans-Serif" font-size="10.00">GridViewController.rightKeyPressed</text>
</a>
</g>
</g>
<!-- Node17&#45;&gt;Node20 -->
<g id="edge19" class="edge"><title>Node17&#45;&gt;Node20</title>
<path fill="none" stroke="midnightblue" d="M1039.99,-44.2426C1066.02,-39.6018 1094.1,-34.5942 1119.55,-30.0568"/>
<polygon fill="midnightblue" stroke="midnightblue" points="1039.35,-40.8005 1030.12,-46.0015 1040.58,-47.6918 1039.35,-40.8005"/>
</g>
<!-- Node19 -->
<g id="node19" class="node"><title>Node19</title>
<g id="a_node19"><a xlink:href="../../d5/dcc/classviewcontroller_1_1turtlegrid_1_1_grid_view_controller.html#aacd51569d82b44633f519cc19ef5d937" target="_top" xlink:title="viewcontroller.turtlegrid.\lGridViewController.listenKeys">
<polygon fill="white" stroke="black" points="1381,-25 1381,-55 1535,-55 1535,-25 1381,-25"/>
<text text-anchor="start" x="1389" y="-43" font-family="Helvetica,sans-Serif" font-size="10.00">viewcontroller.turtlegrid.</text>
<text text-anchor="middle" x="1458" y="-32" font-family="Helvetica,sans-Serif" font-size="10.00">GridViewController.listenKeys</text>
</a>
</g>
</g>
<!-- Node18&#45;&gt;Node19 -->
<g id="edge18" class="edge"><title>Node18&#45;&gt;Node19</title>
<path fill="none" stroke="midnightblue" d="M1313.73,-53.6987C1336.33,-51.5377 1359.72,-49.3017 1380.88,-47.2787"/>
<polygon fill="midnightblue" stroke="midnightblue" points="1313.38,-50.2162 1303.76,-54.6523 1314.05,-57.1844 1313.38,-50.2162"/>
</g>
<!-- Node20&#45;&gt;Node19 -->
<g id="edge20" class="edge"><title>Node20&#45;&gt;Node19</title>
<path fill="none" stroke="midnightblue" d="M1306.76,-25.0362C1331.52,-27.5023 1357.62,-30.1015 1380.99,-32.4292"/>
<polygon fill="midnightblue" stroke="midnightblue" points="1306.91,-21.534 1296.62,-24.0256 1306.22,-28.4995 1306.91,-21.534"/>
</g>
</g>
</svg>
