<?xml version="1.0" encoding="UTF-8" standalone="no"?>
<!DOCTYPE svg PUBLIC "-//W3C//DTD SVG 1.1//EN"
 "http://www.w3.org/Graphics/SVG/1.1/DTD/svg11.dtd">
<!-- Generated by graphviz version 2.36.0 (20140111.2315)
 -->
<!-- Title: interpreter.Parser.makeExpressionsFromInput Pages: 1 -->
<svg width="960pt" height="136pt"
 viewBox="0.00 0.00 960.00 136.00" xmlns="http://www.w3.org/2000/svg" xmlns:xlink="http://www.w3.org/1999/xlink">
<g id="graph0" class="graph" transform="scale(1 1) rotate(0) translate(4 132)">
<title>interpreter.Parser.makeExpressionsFromInput</title>
<polygon fill="white" stroke="none" points="-4,4 -4,-132 956,-132 956,4 -4,4"/>
<!-- Node1 -->
<g id="node1" class="node"><title>Node1</title>
<polygon fill="#bfbfbf" stroke="black" points="0,-49 0,-79 186,-79 186,-49 0,-49"/>
<text text-anchor="start" x="8" y="-67" font-family="Helvetica,sans-Serif" font-size="10.00">interpreter.Parser.makeExpressions</text>
<text text-anchor="middle" x="93" y="-56" font-family="Helvetica,sans-Serif" font-size="10.00">FromInput</text>
</g>
<!-- Node2 -->
<g id="node2" class="node"><title>Node2</title>
<g id="a_node2"><a xlink:href="../../d8/daa/classinterpreter_1_1_s_logo_expression_factory.html#a50eb077dd9b57f111e60eb7b297b6d29" target="_top" xlink:title="interpreter.SLogoExpression\lFactory.createExpression">
<polygon fill="white" stroke="black" points="222,-49 222,-79 374,-79 374,-49 222,-49"/>
<text text-anchor="start" x="230" y="-67" font-family="Helvetica,sans-Serif" font-size="10.00">interpreter.SLogoExpression</text>
<text text-anchor="middle" x="298" y="-56" font-family="Helvetica,sans-Serif" font-size="10.00">Factory.createExpression</text>
</a>
</g>
</g>
<!-- Node1&#45;&gt;Node2 -->
<g id="edge1" class="edge"><title>Node1&#45;&gt;Node2</title>
<path fill="none" stroke="midnightblue" d="M186.293,-64C194.782,-64 203.357,-64 211.779,-64"/>
<polygon fill="midnightblue" stroke="midnightblue" points="211.959,-67.5001 221.959,-64 211.959,-60.5001 211.959,-67.5001"/>
</g>
<!-- Node3 -->
<g id="node3" class="node"><title>Node3</title>
<g id="a_node3"><a xlink:href="../../d8/daa/classinterpreter_1_1_s_logo_expression_factory.html#af866a871782317ae912240ad2e383bd9" target="_top" xlink:title="interpreter.SLogoExpression\lFactory.checkTypeAndInitialize">
<polygon fill="white" stroke="black" points="410,-49 410,-79 568,-79 568,-49 410,-49"/>
<text text-anchor="start" x="418" y="-67" font-family="Helvetica,sans-Serif" font-size="10.00">interpreter.SLogoExpression</text>
<text text-anchor="middle" x="489" y="-56" font-family="Helvetica,sans-Serif" font-size="10.00">Factory.checkTypeAndInitialize</text>
</a>
</g>
</g>
<!-- Node2&#45;&gt;Node3 -->
<g id="edge2" class="edge"><title>Node2&#45;&gt;Node3</title>
<path fill="none" stroke="midnightblue" d="M374.241,-64C382.676,-64 391.324,-64 399.902,-64"/>
<polygon fill="midnightblue" stroke="midnightblue" points="399.922,-67.5001 409.922,-64 399.922,-60.5001 399.922,-67.5001"/>
</g>
<!-- Node4 -->
<g id="node4" class="node"><title>Node4</title>
<g id="a_node4"><a xlink:href="../../d8/daa/classinterpreter_1_1_s_logo_expression_factory.html#a67c690097a981fbc2bf840c1f619639a" target="_top" xlink:title="interpreter.SLogoExpression\lFactory.isMatch">
<polygon fill="white" stroke="black" points="606,-98 606,-128 758,-128 758,-98 606,-98"/>
<text text-anchor="start" x="614" y="-116" font-family="Helvetica,sans-Serif" font-size="10.00">interpreter.SLogoExpression</text>
<text text-anchor="middle" x="682" y="-105" font-family="Helvetica,sans-Serif" font-size="10.00">Factory.isMatch</text>
</a>
</g>
</g>
<!-- Node3&#45;&gt;Node4 -->
<g id="edge3" class="edge"><title>Node3&#45;&gt;Node4</title>
<path fill="none" stroke="midnightblue" d="M548.604,-79.0346C568.863,-84.2318 591.739,-90.1006 612.706,-95.4796"/>
<polygon fill="midnightblue" stroke="midnightblue" points="611.95,-98.899 622.506,-97.9938 613.69,-92.1186 611.95,-98.899"/>
</g>
<!-- Node5 -->
<g id="node5" class="node"><title>Node5</title>
<g id="a_node5"><a xlink:href="../../d8/daa/classinterpreter_1_1_s_logo_expression_factory.html#aed195cb1e071e9e87792f7a51242f824" target="_top" xlink:title="interpreter.SLogoExpression\lFactory.initializeExpression">
<polygon fill="white" stroke="black" points="606,-49 606,-79 758,-79 758,-49 606,-49"/>
<text text-anchor="start" x="614" y="-67" font-family="Helvetica,sans-Serif" font-size="10.00">interpreter.SLogoExpression</text>
<text text-anchor="middle" x="682" y="-56" font-family="Helvetica,sans-Serif" font-size="10.00">Factory.initializeExpression</text>
</a>
</g>
</g>
<!-- Node3&#45;&gt;Node5 -->
<g id="edge4" class="edge"><title>Node3&#45;&gt;Node5</title>
<path fill="none" stroke="midnightblue" d="M568.238,-64C577.295,-64 586.567,-64 595.712,-64"/>
<polygon fill="midnightblue" stroke="midnightblue" points="595.965,-67.5001 605.965,-64 595.965,-60.5001 595.965,-67.5001"/>
</g>
<!-- Node9 -->
<g id="node9" class="node"><title>Node9</title>
<g id="a_node9"><a xlink:href="../../db/d09/interfaceinterpreter_1_1expression_1_1_s_logo_expression.html#a035636bae1b48baf5732f091a85ca9b1" target="_top" xlink:title="interpreter.expression.SLogo\lExpression.setValue">
<polygon fill="white" stroke="black" points="604.5,-0 604.5,-30 759.5,-30 759.5,-0 604.5,-0"/>
<text text-anchor="start" x="612.5" y="-18" font-family="Helvetica,sans-Serif" font-size="10.00">interpreter.expression.SLogo</text>
<text text-anchor="middle" x="682" y="-7" font-family="Helvetica,sans-Serif" font-size="10.00">Expression.setValue</text>
</a>
</g>
</g>
<!-- Node3&#45;&gt;Node9 -->
<g id="edge8" class="edge"><title>Node3&#45;&gt;Node9</title>
<path fill="none" stroke="midnightblue" d="M548.604,-48.9654C568.863,-43.7682 591.739,-37.8994 612.706,-32.5204"/>
<polygon fill="midnightblue" stroke="midnightblue" points="613.69,-35.8814 622.506,-30.0062 611.95,-29.101 613.69,-35.8814"/>
</g>
<!-- Node6 -->
<g id="node6" class="node"><title>Node6</title>
<g id="a_node6"><a xlink:href="../../db/d09/interfaceinterpreter_1_1expression_1_1_s_logo_expression.html#ae5647ebedeb07edc2902d7cf478107f7" target="_top" xlink:title="interpreter.expression.SLogo\lExpression.setNumArgs">
<polygon fill="white" stroke="black" points="796.5,-98 796.5,-128 951.5,-128 951.5,-98 796.5,-98"/>
<text text-anchor="start" x="804.5" y="-116" font-family="Helvetica,sans-Serif" font-size="10.00">interpreter.expression.SLogo</text>
<text text-anchor="middle" x="874" y="-105" font-family="Helvetica,sans-Serif" font-size="10.00">Expression.setNumArgs</text>
</a>
</g>
</g>
<!-- Node5&#45;&gt;Node6 -->
<g id="edge5" class="edge"><title>Node5&#45;&gt;Node6</title>
<path fill="none" stroke="midnightblue" d="M741.297,-79.0346C761.45,-84.2318 784.206,-90.1006 805.064,-95.4796"/>
<polygon fill="midnightblue" stroke="midnightblue" points="804.256,-98.8856 814.813,-97.9938 806.004,-92.1074 804.256,-98.8856"/>
</g>
<!-- Node7 -->
<g id="node7" class="node"><title>Node7</title>
<g id="a_node7"><a xlink:href="../../db/d09/interfaceinterpreter_1_1expression_1_1_s_logo_expression.html#a8dbb9bf4dced75bf7e423cb614958a15" target="_top" xlink:title="interpreter.expression.SLogo\lExpression.loadLibrary">
<polygon fill="white" stroke="black" points="796.5,-49 796.5,-79 951.5,-79 951.5,-49 796.5,-49"/>
<text text-anchor="start" x="804.5" y="-67" font-family="Helvetica,sans-Serif" font-size="10.00">interpreter.expression.SLogo</text>
<text text-anchor="middle" x="874" y="-56" font-family="Helvetica,sans-Serif" font-size="10.00">Expression.loadLibrary</text>
</a>
</g>
</g>
<!-- Node5&#45;&gt;Node7 -->
<g id="edge6" class="edge"><title>Node5&#45;&gt;Node7</title>
<path fill="none" stroke="midnightblue" d="M758.093,-64C767.31,-64 776.789,-64 786.161,-64"/>
<polygon fill="midnightblue" stroke="midnightblue" points="786.272,-67.5001 796.272,-64 786.272,-60.5001 786.272,-67.5001"/>
</g>
<!-- Node8 -->
<g id="node8" class="node"><title>Node8</title>
<g id="a_node8"><a xlink:href="../../db/d09/interfaceinterpreter_1_1expression_1_1_s_logo_expression.html#a85984c7b01a9e06a1f4c8d73f7752a48" target="_top" xlink:title="interpreter.expression.SLogo\lExpression.loadModel">
<polygon fill="white" stroke="black" points="796.5,-0 796.5,-30 951.5,-30 951.5,-0 796.5,-0"/>
<text text-anchor="start" x="804.5" y="-18" font-family="Helvetica,sans-Serif" font-size="10.00">interpreter.expression.SLogo</text>
<text text-anchor="middle" x="874" y="-7" font-family="Helvetica,sans-Serif" font-size="10.00">Expression.loadModel</text>
</a>
</g>
</g>
<!-- Node5&#45;&gt;Node8 -->
<g id="edge7" class="edge"><title>Node5&#45;&gt;Node8</title>
<path fill="none" stroke="midnightblue" d="M741.297,-48.9654C761.45,-43.7682 784.206,-37.8994 805.064,-32.5204"/>
<polygon fill="midnightblue" stroke="midnightblue" points="806.004,-35.8926 814.813,-30.0062 804.256,-29.1144 806.004,-35.8926"/>
</g>
</g>
</svg>
