<?xml version="1.0" encoding="UTF-8" standalone="no"?>
<!DOCTYPE svg PUBLIC "-//W3C//DTD SVG 1.1//EN"
 "http://www.w3.org/Graphics/SVG/1.1/DTD/svg11.dtd">
<!-- Generated by graphviz version 2.36.0 (20140111.2315)
 -->
<!-- Title: interpreter.expression.userdefined.If.merge Pages: 1 -->
<svg width="358pt" height="87pt"
 viewBox="0.00 0.00 358.00 87.00" xmlns="http://www.w3.org/2000/svg" xmlns:xlink="http://www.w3.org/1999/xlink">
<g id="graph0" class="graph" transform="scale(1 1) rotate(0) translate(4 83)">
<title>interpreter.expression.userdefined.If.merge</title>
<polygon fill="white" stroke="none" points="-4,4 -4,-83 354,-83 354,4 -4,4"/>
<!-- Node1 -->
<g id="node1" class="node"><title>Node1</title>
<polygon fill="#bfbfbf" stroke="black" points="0,-24 0,-54 184,-54 184,-24 0,-24"/>
<text text-anchor="start" x="8" y="-42" font-family="Helvetica,sans-Serif" font-size="10.00">interpreter.expression.userdefined.</text>
<text text-anchor="middle" x="92" y="-31" font-family="Helvetica,sans-Serif" font-size="10.00">If.merge</text>
</g>
<!-- Node2 -->
<g id="node2" class="node"><title>Node2</title>
<g id="a_node2"><a xlink:href="../../df/df6/classinterpreter_1_1result_1_1_s_logo_result.html#a11062748597af4f6622d9cbc92d4d9c0" target="_top" xlink:title="interpreter.result.SLogo\lResult.getTransition">
<polygon fill="white" stroke="black" points="220,-49 220,-79 350,-79 350,-49 220,-49"/>
<text text-anchor="start" x="228" y="-67" font-family="Helvetica,sans-Serif" font-size="10.00">interpreter.result.SLogo</text>
<text text-anchor="middle" x="285" y="-56" font-family="Helvetica,sans-Serif" font-size="10.00">Result.getTransition</text>
</a>
</g>
</g>
<!-- Node1&#45;&gt;Node2 -->
<g id="edge1" class="edge"><title>Node1&#45;&gt;Node2</title>
<path fill="none" stroke="midnightblue" d="M184.025,-50.9143C192.632,-52.0408 201.287,-53.1737 209.711,-54.2763"/>
<polygon fill="midnightblue" stroke="midnightblue" points="209.482,-57.7761 219.852,-55.6036 210.391,-50.8353 209.482,-57.7761"/>
</g>
<!-- Node3 -->
<g id="node3" class="node"><title>Node3</title>
<g id="a_node3"><a xlink:href="../../df/df6/classinterpreter_1_1result_1_1_s_logo_result.html#ade0879b3224a3216bf17e17e25bfd4ca" target="_top" xlink:title="interpreter.result.SLogo\lResult.setValue">
<polygon fill="white" stroke="black" points="220,-0 220,-30 350,-30 350,-0 220,-0"/>
<text text-anchor="start" x="228" y="-18" font-family="Helvetica,sans-Serif" font-size="10.00">interpreter.result.SLogo</text>
<text text-anchor="middle" x="285" y="-7" font-family="Helvetica,sans-Serif" font-size="10.00">Result.setValue</text>
</a>
</g>
</g>
<!-- Node1&#45;&gt;Node3 -->
<g id="edge2" class="edge"><title>Node1&#45;&gt;Node3</title>
<path fill="none" stroke="midnightblue" d="M184.025,-27.5623C192.632,-26.4808 201.287,-25.3932 209.711,-24.3348"/>
<polygon fill="midnightblue" stroke="midnightblue" points="210.366,-27.78 219.852,-23.0605 209.493,-20.8346 210.366,-27.78"/>
</g>
</g>
</svg>
