<?xml version="1.0" encoding="UTF-8" standalone="no"?>
<!DOCTYPE svg PUBLIC "-//W3C//DTD SVG 1.1//EN"
 "http://www.w3.org/Graphics/SVG/1.1/DTD/svg11.dtd">
<!-- Generated by graphviz version 2.36.0 (20140111.2315)
 -->
<!-- Title: interpreter.expression.userdefined.If.merge Pages: 1 -->
<svg width="412pt" height="38pt"
 viewBox="0.00 0.00 412.00 38.00" xmlns="http://www.w3.org/2000/svg" xmlns:xlink="http://www.w3.org/1999/xlink">
<g id="graph0" class="graph" transform="scale(1 1) rotate(0) translate(4 34)">
<title>interpreter.expression.userdefined.If.merge</title>
<polygon fill="white" stroke="none" points="-4,4 -4,-34 408,-34 408,4 -4,4"/>
<!-- Node1 -->
<g id="node1" class="node"><title>Node1</title>
<polygon fill="#bfbfbf" stroke="black" points="0,-0 0,-30 184,-30 184,-0 0,-0"/>
<text text-anchor="start" x="8" y="-18" font-family="Helvetica,sans-Serif" font-size="10.00">interpreter.expression.userdefined.</text>
<text text-anchor="middle" x="92" y="-7" font-family="Helvetica,sans-Serif" font-size="10.00">If.merge</text>
</g>
<!-- Node2 -->
<g id="node2" class="node"><title>Node2</title>
<g id="a_node2"><a xlink:href="../../d3/d69/classinterpreter_1_1expression_1_1userdefined_1_1_if.html#a329260e33bd5e7e52f5a5603f6059775" target="_top" xlink:title="interpreter.expression.userdefined.\lIf.evaluate">
<polygon fill="white" stroke="black" points="220,-0 220,-30 404,-30 404,-0 220,-0"/>
<text text-anchor="start" x="228" y="-18" font-family="Helvetica,sans-Serif" font-size="10.00">interpreter.expression.userdefined.</text>
<text text-anchor="middle" x="312" y="-7" font-family="Helvetica,sans-Serif" font-size="10.00">If.evaluate</text>
</a>
</g>
</g>
<!-- Node1&#45;&gt;Node2 -->
<g id="edge1" class="edge"><title>Node1&#45;&gt;Node2</title>
<path fill="none" stroke="midnightblue" d="M194.465,-15C202.927,-15 211.449,-15 219.826,-15"/>
<polygon fill="midnightblue" stroke="midnightblue" points="194.189,-11.5001 184.188,-15 194.188,-18.5001 194.189,-11.5001"/>
</g>
</g>
</svg>
