<?xml version="1.0" encoding="UTF-8" standalone="no"?>
<!DOCTYPE svg PUBLIC "-//W3C//DTD SVG 1.1//EN"
 "http://www.w3.org/Graphics/SVG/1.1/DTD/svg11.dtd">
<!-- Generated by graphviz version 2.36.0 (20140111.2315)
 -->
<!-- Title: interpreter.SLogoExpressionFactory.createExpression Pages: 1 -->
<svg width="2754pt" height="207pt"
 viewBox="0.00 0.00 2754.00 207.00" xmlns="http://www.w3.org/2000/svg" xmlns:xlink="http://www.w3.org/1999/xlink">
<g id="graph0" class="graph" transform="scale(1 1) rotate(0) translate(4 203)">
<title>interpreter.SLogoExpressionFactory.createExpression</title>
<polygon fill="white" stroke="none" points="-4,4 -4,-203 2750,-203 2750,4 -4,4"/>
<!-- Node1 -->
<g id="node1" class="node"><title>Node1</title>
<polygon fill="#bfbfbf" stroke="black" points="0,-100 0,-130 152,-130 152,-100 0,-100"/>
<text text-anchor="start" x="8" y="-118" font-family="Helvetica,sans-Serif" font-size="10.00">interpreter.SLogoExpression</text>
<text text-anchor="middle" x="76" y="-107" font-family="Helvetica,sans-Serif" font-size="10.00">Factory.createExpression</text>
</g>
<!-- Node2 -->
<g id="node2" class="node"><title>Node2</title>
<g id="a_node2"><a xlink:href="../../d3/da2/classinterpreter_1_1_parser.html#a6ec7d578c175a308702b323914b4cfd0" target="_top" xlink:title="interpreter.Parser.makeExpressions\lFromInput">
<polygon fill="white" stroke="black" points="188,-100 188,-130 374,-130 374,-100 188,-100"/>
<text text-anchor="start" x="196" y="-118" font-family="Helvetica,sans-Serif" font-size="10.00">interpreter.Parser.makeExpressions</text>
<text text-anchor="middle" x="281" y="-107" font-family="Helvetica,sans-Serif" font-size="10.00">FromInput</text>
</a>
</g>
</g>
<!-- Node1&#45;&gt;Node2 -->
<g id="edge1" class="edge"><title>Node1&#45;&gt;Node2</title>
<path fill="none" stroke="midnightblue" d="M162.21,-115C170.646,-115 179.236,-115 187.738,-115"/>
<polygon fill="midnightblue" stroke="midnightblue" points="162.013,-111.5 152.013,-115 162.013,-118.5 162.013,-111.5"/>
</g>
<!-- Node3 -->
<g id="node3" class="node"><title>Node3</title>
<g id="a_node3"><a xlink:href="../../d3/da2/classinterpreter_1_1_parser.html#a27e67bfe24e33d6ac58aa3b482cd0f07" target="_top" xlink:title="interpreter.Parser.parse\lSLogoExpression">
<polygon fill="white" stroke="black" points="410.5,-100 410.5,-130 539.5,-130 539.5,-100 410.5,-100"/>
<text text-anchor="start" x="418.5" y="-118" font-family="Helvetica,sans-Serif" font-size="10.00">interpreter.Parser.parse</text>
<text text-anchor="middle" x="475" y="-107" font-family="Helvetica,sans-Serif" font-size="10.00">SLogoExpression</text>
</a>
</g>
</g>
<!-- Node2&#45;&gt;Node3 -->
<g id="edge2" class="edge"><title>Node2&#45;&gt;Node3</title>
<path fill="none" stroke="midnightblue" d="M384.172,-115C393.112,-115 401.981,-115 410.467,-115"/>
<polygon fill="midnightblue" stroke="midnightblue" points="384.064,-111.5 374.063,-115 384.063,-118.5 384.064,-111.5"/>
</g>
<!-- Node4 -->
<g id="node4" class="node"><title>Node4</title>
<g id="a_node4"><a xlink:href="../../d2/dc7/classinterpreter_1_1_interpreter.html#a2398aed9ce5fd0631e4a61eb0ae7e3eb" target="_top" xlink:title="interpreter.Interpreter.interpret">
<polygon fill="white" stroke="black" points="576,-105.5 576,-124.5 740,-124.5 740,-105.5 576,-105.5"/>
<text text-anchor="middle" x="658" y="-112.5" font-family="Helvetica,sans-Serif" font-size="10.00">interpreter.Interpreter.interpret</text>
</a>
</g>
</g>
<!-- Node3&#45;&gt;Node4 -->
<g id="edge3" class="edge"><title>Node3&#45;&gt;Node4</title>
<path fill="none" stroke="midnightblue" d="M549.581,-115C558.217,-115 567.068,-115 575.801,-115"/>
<polygon fill="midnightblue" stroke="midnightblue" points="549.559,-111.5 539.559,-115 549.559,-118.5 549.559,-111.5"/>
</g>
<!-- Node5 -->
<g id="node5" class="node"><title>Node5</title>
<g id="a_node5"><a xlink:href="../../d7/d98/classtest_1_1_math_expression_tester.html#a74350214f5fc67a0e3bcfe4b17c60b32" target="_top" xlink:title="test.MathExpressionTester.arc\lTanTest">
<polygon fill="white" stroke="black" points="789,-149 789,-179 949,-179 949,-149 789,-149"/>
<text text-anchor="start" x="797" y="-167" font-family="Helvetica,sans-Serif" font-size="10.00">test.MathExpressionTester.arc</text>
<text text-anchor="middle" x="869" y="-156" font-family="Helvetica,sans-Serif" font-size="10.00">TanTest</text>
</a>
</g>
</g>
<!-- Node4&#45;&gt;Node5 -->
<g id="edge4" class="edge"><title>Node4&#45;&gt;Node5</title>
<path fill="none" stroke="midnightblue" d="M709.871,-126.927C738.173,-133.562 773.673,-141.885 803.863,-148.963"/>
<polygon fill="midnightblue" stroke="midnightblue" points="710.328,-123.439 699.793,-124.564 708.731,-130.254 710.328,-123.439"/>
</g>
<!-- Node6 -->
<g id="node6" class="node"><title>Node6</title>
<g id="a_node6"><a xlink:href="../../de/d21/classmodel_1_1_main_model.html#a96f4ff9f640f14d713c5d90ab5704884" target="_top" xlink:title="model.MainModel.interpret\lSLogoCommand">
<polygon fill="white" stroke="black" points="796.5,-100 796.5,-130 941.5,-130 941.5,-100 796.5,-100"/>
<text text-anchor="start" x="804.5" y="-118" font-family="Helvetica,sans-Serif" font-size="10.00">model.MainModel.interpret</text>
<text text-anchor="middle" x="869" y="-107" font-family="Helvetica,sans-Serif" font-size="10.00">SLogoCommand</text>
</a>
</g>
</g>
<!-- Node4&#45;&gt;Node6 -->
<g id="edge5" class="edge"><title>Node4&#45;&gt;Node6</title>
<path fill="none" stroke="midnightblue" d="M750.211,-115C765.699,-115 781.583,-115 796.473,-115"/>
<polygon fill="midnightblue" stroke="midnightblue" points="750.104,-111.5 740.104,-115 750.104,-118.5 750.104,-111.5"/>
</g>
<!-- Node23 -->
<g id="node23" class="node"><title>Node23</title>
<g id="a_node23"><a xlink:href="../../d7/d98/classtest_1_1_math_expression_tester.html#a782c9fa3f42b7a7ac8b5eb42794c4011" target="_top" xlink:title="test.MathExpressionTester.sumTest">
<polygon fill="white" stroke="black" points="776.5,-61.5 776.5,-80.5 961.5,-80.5 961.5,-61.5 776.5,-61.5"/>
<text text-anchor="middle" x="869" y="-68.5" font-family="Helvetica,sans-Serif" font-size="10.00">test.MathExpressionTester.sumTest</text>
</a>
</g>
</g>
<!-- Node4&#45;&gt;Node23 -->
<g id="edge23" class="edge"><title>Node4&#45;&gt;Node23</title>
<path fill="none" stroke="midnightblue" d="M712.937,-103.394C732.761,-99.1501 755.394,-94.3293 776,-90 790.844,-86.8814 807.044,-83.5212 821.656,-80.5065"/>
<polygon fill="midnightblue" stroke="midnightblue" points="712.198,-99.973 703.154,-105.491 713.665,-106.818 712.198,-99.973"/>
</g>
<!-- Node7 -->
<g id="node7" class="node"><title>Node7</title>
<g id="a_node7"><a xlink:href="../../de/d21/classmodel_1_1_main_model.html#ab4985c9a187961a2d57a8a0a63ab3b18" target="_top" xlink:title="model.MainModel.interpret\lSLogoCommand">
<polygon fill="white" stroke="black" points="1025.5,-125 1025.5,-155 1170.5,-155 1170.5,-125 1025.5,-125"/>
<text text-anchor="start" x="1033.5" y="-143" font-family="Helvetica,sans-Serif" font-size="10.00">model.MainModel.interpret</text>
<text text-anchor="middle" x="1098" y="-132" font-family="Helvetica,sans-Serif" font-size="10.00">SLogoCommand</text>
</a>
</g>
</g>
<!-- Node6&#45;&gt;Node7 -->
<g id="edge6" class="edge"><title>Node6&#45;&gt;Node7</title>
<path fill="none" stroke="midnightblue" d="M951.708,-123.999C975.827,-126.655 1002.03,-129.541 1025.46,-132.121"/>
<polygon fill="midnightblue" stroke="midnightblue" points="951.836,-120.492 941.513,-122.876 951.069,-127.45 951.836,-120.492"/>
</g>
<!-- Node8 -->
<g id="node8" class="node"><title>Node8</title>
<g id="a_node8"><a xlink:href="../../d3/d67/classviewcontroller_1_1_main_view_controller.html#a1b77a34d9385ff9296a9dc1db8c322cb" target="_top" xlink:title="viewcontroller.MainViewController.pass\lSLogoCommand">
<polygon fill="white" stroke="black" points="998,-76 998,-106 1198,-106 1198,-76 998,-76"/>
<text text-anchor="start" x="1006" y="-94" font-family="Helvetica,sans-Serif" font-size="10.00">viewcontroller.MainViewController.pass</text>
<text text-anchor="middle" x="1098" y="-83" font-family="Helvetica,sans-Serif" font-size="10.00">SLogoCommand</text>
</a>
</g>
</g>
<!-- Node6&#45;&gt;Node8 -->
<g id="edge7" class="edge"><title>Node6&#45;&gt;Node8</title>
<path fill="none" stroke="midnightblue" d="M951.683,-106.364C966.576,-104.789 982.266,-103.131 997.605,-101.509"/>
<polygon fill="midnightblue" stroke="midnightblue" points="951.089,-102.907 941.513,-107.439 951.825,-109.868 951.089,-102.907"/>
</g>
<!-- Node9 -->
<g id="node9" class="node"><title>Node9</title>
<g id="a_node9"><a xlink:href="../../d0/d7c/classviewcontroller_1_1commands_1_1_command_window_container_view_controller.html#a0d7c2e3db2080741b7b01b42a0294695" target="_top" xlink:title="viewcontroller.commands.\lCommandWindowContainerViewController.pass\lSLogoCommand">
<polygon fill="white" stroke="black" points="1234,-100.5 1234,-141.5 1476,-141.5 1476,-100.5 1234,-100.5"/>
<text text-anchor="start" x="1242" y="-129.5" font-family="Helvetica,sans-Serif" font-size="10.00">viewcontroller.commands.</text>
<text text-anchor="start" x="1242" y="-118.5" font-family="Helvetica,sans-Serif" font-size="10.00">CommandWindowContainerViewController.pass</text>
<text text-anchor="middle" x="1355" y="-107.5" font-family="Helvetica,sans-Serif" font-size="10.00">SLogoCommand</text>
</a>
</g>
</g>
<!-- Node8&#45;&gt;Node9 -->
<g id="edge8" class="edge"><title>Node8&#45;&gt;Node9</title>
<path fill="none" stroke="midnightblue" d="M1208.46,-103.877C1216.82,-104.861 1225.29,-105.857 1233.71,-106.849"/>
<polygon fill="midnightblue" stroke="midnightblue" points="1208.66,-100.377 1198.32,-102.685 1207.84,-107.329 1208.66,-100.377"/>
</g>
<!-- Node19 -->
<g id="node19" class="node"><title>Node19</title>
<g id="a_node19"><a xlink:href="../../d3/daf/classviewcontroller_1_1turtlegrid_1_1_turtle_window_view_controller.html#a0a65ca6c84f3f3e7bffa675df02c9166" target="_top" xlink:title="viewcontroller.turtlegrid.\lTurtleWindowViewController.pass\lSLogoCommand">
<polygon fill="white" stroke="black" points="1270,-40.5 1270,-81.5 1440,-81.5 1440,-40.5 1270,-40.5"/>
<text text-anchor="start" x="1278" y="-69.5" font-family="Helvetica,sans-Serif" font-size="10.00">viewcontroller.turtlegrid.</text>
<text text-anchor="start" x="1278" y="-58.5" font-family="Helvetica,sans-Serif" font-size="10.00">TurtleWindowViewController.pass</text>
<text text-anchor="middle" x="1355" y="-47.5" font-family="Helvetica,sans-Serif" font-size="10.00">SLogoCommand</text>
</a>
</g>
</g>
<!-- Node8&#45;&gt;Node19 -->
<g id="edge18" class="edge"><title>Node8&#45;&gt;Node19</title>
<path fill="none" stroke="midnightblue" d="M1208.36,-78.134C1228.94,-75.7128 1250.16,-73.216 1269.83,-70.9027"/>
<polygon fill="midnightblue" stroke="midnightblue" points="1207.84,-74.6708 1198.32,-79.3153 1208.66,-81.6228 1207.84,-74.6708"/>
</g>
<!-- Node10 -->
<g id="node10" class="node"><title>Node10</title>
<g id="a_node10"><a xlink:href="../../de/d8d/classviewcontroller_1_1commands_1_1_command_prompt_view_controller.html#afc397f419037ca0ec30bdc6e93667e86" target="_top" xlink:title="viewcontroller.commands.\lCommandPromptViewController.pass\lCommandToModel">
<polygon fill="white" stroke="black" points="1517.5,-157.5 1517.5,-198.5 1712.5,-198.5 1712.5,-157.5 1517.5,-157.5"/>
<text text-anchor="start" x="1525.5" y="-186.5" font-family="Helvetica,sans-Serif" font-size="10.00">viewcontroller.commands.</text>
<text text-anchor="start" x="1525.5" y="-175.5" font-family="Helvetica,sans-Serif" font-size="10.00">CommandPromptViewController.pass</text>
<text text-anchor="middle" x="1615" y="-164.5" font-family="Helvetica,sans-Serif" font-size="10.00">CommandToModel</text>
</a>
</g>
</g>
<!-- Node9&#45;&gt;Node10 -->
<g id="edge9" class="edge"><title>Node9&#45;&gt;Node10</title>
<path fill="none" stroke="midnightblue" d="M1459.1,-143.778C1479.55,-148.296 1500.9,-153.014 1520.99,-157.452"/>
<polygon fill="midnightblue" stroke="midnightblue" points="1459.66,-140.318 1449.14,-141.578 1458.15,-147.153 1459.66,-140.318"/>
</g>
<!-- Node14 -->
<g id="node14" class="node"><title>Node14</title>
<g id="a_node14"><a xlink:href="../../d4/dc8/classviewcontroller_1_1commands_1_1_user_defined_variables_view_controller.html#a14508efe9a049e27b8a7f4d0928b83cd" target="_top" xlink:title="viewcontroller.commands.\lUserDefinedVariablesViewController.key\lPressed">
<polygon fill="white" stroke="black" points="1512,-97.5 1512,-138.5 1718,-138.5 1718,-97.5 1512,-97.5"/>
<text text-anchor="start" x="1520" y="-126.5" font-family="Helvetica,sans-Serif" font-size="10.00">viewcontroller.commands.</text>
<text text-anchor="start" x="1520" y="-115.5" font-family="Helvetica,sans-Serif" font-size="10.00">UserDefinedVariablesViewController.key</text>
<text text-anchor="middle" x="1615" y="-104.5" font-family="Helvetica,sans-Serif" font-size="10.00">Pressed</text>
</a>
</g>
</g>
<!-- Node9&#45;&gt;Node14 -->
<g id="edge13" class="edge"><title>Node9&#45;&gt;Node14</title>
<path fill="none" stroke="midnightblue" d="M1486.58,-119.482C1495,-119.384 1503.42,-119.286 1511.68,-119.19"/>
<polygon fill="midnightblue" stroke="midnightblue" points="1486.27,-115.985 1476.31,-119.601 1486.35,-122.984 1486.27,-115.985"/>
</g>
<!-- Node11 -->
<g id="node11" class="node"><title>Node11</title>
<g id="a_node11"><a xlink:href="../../de/d8d/classviewcontroller_1_1commands_1_1_command_prompt_view_controller.html#a02e953379b9b8de02a4e15d94fe1c559" target="_top" xlink:title="viewcontroller.commands.\lCommandPromptViewController.set\lUpSubmitButton">
<polygon fill="white" stroke="black" points="1774,-157.5 1774,-198.5 1962,-198.5 1962,-157.5 1774,-157.5"/>
<text text-anchor="start" x="1782" y="-186.5" font-family="Helvetica,sans-Serif" font-size="10.00">viewcontroller.commands.</text>
<text text-anchor="start" x="1782" y="-175.5" font-family="Helvetica,sans-Serif" font-size="10.00">CommandPromptViewController.set</text>
<text text-anchor="middle" x="1868" y="-164.5" font-family="Helvetica,sans-Serif" font-size="10.00">UpSubmitButton</text>
</a>
</g>
</g>
<!-- Node10&#45;&gt;Node11 -->
<g id="edge10" class="edge"><title>Node10&#45;&gt;Node11</title>
<path fill="none" stroke="midnightblue" d="M1723.09,-178C1739.91,-178 1757.19,-178 1773.67,-178"/>
<polygon fill="midnightblue" stroke="midnightblue" points="1722.68,-174.5 1712.68,-178 1722.68,-181.5 1722.68,-174.5"/>
</g>
<!-- Node12 -->
<g id="node12" class="node"><title>Node12</title>
<g id="a_node12"><a xlink:href="../../de/d8d/classviewcontroller_1_1commands_1_1_command_prompt_view_controller.html#a6931239ae66e9bb6ebfa794b7dada7b5" target="_top" xlink:title="viewcontroller.commands.\lCommandPromptViewController.set\lUpCommandPromptHorizontalBox">
<polygon fill="white" stroke="black" points="2028,-157.5 2028,-198.5 2216,-198.5 2216,-157.5 2028,-157.5"/>
<text text-anchor="start" x="2036" y="-186.5" font-family="Helvetica,sans-Serif" font-size="10.00">viewcontroller.commands.</text>
<text text-anchor="start" x="2036" y="-175.5" font-family="Helvetica,sans-Serif" font-size="10.00">CommandPromptViewController.set</text>
<text text-anchor="middle" x="2122" y="-164.5" font-family="Helvetica,sans-Serif" font-size="10.00">UpCommandPromptHorizontalBox</text>
</a>
</g>
</g>
<!-- Node11&#45;&gt;Node12 -->
<g id="edge11" class="edge"><title>Node11&#45;&gt;Node12</title>
<path fill="none" stroke="midnightblue" d="M1972.26,-178C1990.67,-178 2009.74,-178 2027.84,-178"/>
<polygon fill="midnightblue" stroke="midnightblue" points="1972.12,-174.5 1962.12,-178 1972.12,-181.5 1972.12,-174.5"/>
</g>
<!-- Node13 -->
<g id="node13" class="node"><title>Node13</title>
<g id="a_node13"><a xlink:href="../../de/d8d/classviewcontroller_1_1commands_1_1_command_prompt_view_controller.html#a7e92ce4136e77a153ee6ef862f99052a" target="_top" xlink:title="viewcontroller.commands.\lCommandPromptViewController.\lCommandPromptViewController">
<polygon fill="white" stroke="black" points="2287.5,-157.5 2287.5,-198.5 2460.5,-198.5 2460.5,-157.5 2287.5,-157.5"/>
<text text-anchor="start" x="2295.5" y="-186.5" font-family="Helvetica,sans-Serif" font-size="10.00">viewcontroller.commands.</text>
<text text-anchor="start" x="2295.5" y="-175.5" font-family="Helvetica,sans-Serif" font-size="10.00">CommandPromptViewController.</text>
<text text-anchor="middle" x="2374" y="-164.5" font-family="Helvetica,sans-Serif" font-size="10.00">CommandPromptViewController</text>
</a>
</g>
</g>
<!-- Node12&#45;&gt;Node13 -->
<g id="edge12" class="edge"><title>Node12&#45;&gt;Node13</title>
<path fill="none" stroke="midnightblue" d="M2226.29,-178C2246.57,-178 2267.64,-178 2287.27,-178"/>
<polygon fill="midnightblue" stroke="midnightblue" points="2226.09,-174.5 2216.09,-178 2226.09,-181.5 2226.09,-174.5"/>
</g>
<!-- Node15 -->
<g id="node15" class="node"><title>Node15</title>
<g id="a_node15"><a xlink:href="../../d4/dc8/classviewcontroller_1_1commands_1_1_user_defined_variables_view_controller.html#acac3eb9c8c5f87e3ef36c56477a0cecc" target="_top" xlink:title="viewcontroller.commands.\lUserDefinedVariablesViewController.variable\lClicked">
<polygon fill="white" stroke="black" points="1754.5,-97.5 1754.5,-138.5 1981.5,-138.5 1981.5,-97.5 1754.5,-97.5"/>
<text text-anchor="start" x="1762.5" y="-126.5" font-family="Helvetica,sans-Serif" font-size="10.00">viewcontroller.commands.</text>
<text text-anchor="start" x="1762.5" y="-115.5" font-family="Helvetica,sans-Serif" font-size="10.00">UserDefinedVariablesViewController.variable</text>
<text text-anchor="middle" x="1868" y="-104.5" font-family="Helvetica,sans-Serif" font-size="10.00">Clicked</text>
</a>
</g>
</g>
<!-- Node14&#45;&gt;Node15 -->
<g id="edge14" class="edge"><title>Node14&#45;&gt;Node15</title>
<path fill="none" stroke="midnightblue" d="M1728.23,-118C1736.91,-118 1745.67,-118 1754.35,-118"/>
<polygon fill="midnightblue" stroke="midnightblue" points="1728.09,-114.5 1718.09,-118 1728.09,-121.5 1728.09,-114.5"/>
</g>
<!-- Node16 -->
<g id="node16" class="node"><title>Node16</title>
<g id="a_node16"><a xlink:href="../../d4/dc8/classviewcontroller_1_1commands_1_1_user_defined_variables_view_controller.html#a027a582fe22eab9a05fb0d723fbac644" target="_top" xlink:title="viewcontroller.commands.\lUserDefinedVariablesViewController.add\lVariableToList">
<polygon fill="white" stroke="black" points="2018,-97.5 2018,-138.5 2226,-138.5 2226,-97.5 2018,-97.5"/>
<text text-anchor="start" x="2026" y="-126.5" font-family="Helvetica,sans-Serif" font-size="10.00">viewcontroller.commands.</text>
<text text-anchor="start" x="2026" y="-115.5" font-family="Helvetica,sans-Serif" font-size="10.00">UserDefinedVariablesViewController.add</text>
<text text-anchor="middle" x="2122" y="-104.5" font-family="Helvetica,sans-Serif" font-size="10.00">VariableToList</text>
</a>
</g>
</g>
<!-- Node15&#45;&gt;Node16 -->
<g id="edge15" class="edge"><title>Node15&#45;&gt;Node16</title>
<path fill="none" stroke="midnightblue" d="M1991.93,-118C2000.64,-118 2009.37,-118 2017.95,-118"/>
<polygon fill="midnightblue" stroke="midnightblue" points="1991.73,-114.5 1981.73,-118 1991.73,-121.5 1991.73,-114.5"/>
</g>
<!-- Node17 -->
<g id="node17" class="node"><title>Node17</title>
<g id="a_node17"><a xlink:href="../../d4/dc8/classviewcontroller_1_1commands_1_1_user_defined_variables_view_controller.html#a12bbbabdbb3032751fe57b25e835eafc" target="_top" xlink:title="viewcontroller.commands.\lUserDefinedVariablesViewController.update\lVariableList">
<polygon fill="white" stroke="black" points="2262,-97.5 2262,-138.5 2486,-138.5 2486,-97.5 2262,-97.5"/>
<text text-anchor="start" x="2270" y="-126.5" font-family="Helvetica,sans-Serif" font-size="10.00">viewcontroller.commands.</text>
<text text-anchor="start" x="2270" y="-115.5" font-family="Helvetica,sans-Serif" font-size="10.00">UserDefinedVariablesViewController.update</text>
<text text-anchor="middle" x="2374" y="-104.5" font-family="Helvetica,sans-Serif" font-size="10.00">VariableList</text>
</a>
</g>
</g>
<!-- Node16&#45;&gt;Node17 -->
<g id="edge16" class="edge"><title>Node16&#45;&gt;Node17</title>
<path fill="none" stroke="midnightblue" d="M2236.33,-118C2244.73,-118 2253.21,-118 2261.6,-118"/>
<polygon fill="midnightblue" stroke="midnightblue" points="2236.13,-114.5 2226.13,-118 2236.13,-121.5 2236.13,-114.5"/>
</g>
<!-- Node18 -->
<g id="node18" class="node"><title>Node18</title>
<g id="a_node18"><a xlink:href="../../d4/dc8/classviewcontroller_1_1commands_1_1_user_defined_variables_view_controller.html#a1e84f755902379519ddf5438bc2d27ee" target="_top" xlink:title="viewcontroller.commands.\lUserDefinedVariablesViewController.update">
<polygon fill="white" stroke="black" points="2522,-103 2522,-133 2746,-133 2746,-103 2522,-103"/>
<text text-anchor="start" x="2530" y="-121" font-family="Helvetica,sans-Serif" font-size="10.00">viewcontroller.commands.</text>
<text text-anchor="middle" x="2634" y="-110" font-family="Helvetica,sans-Serif" font-size="10.00">UserDefinedVariablesViewController.update</text>
</a>
</g>
</g>
<!-- Node17&#45;&gt;Node18 -->
<g id="edge17" class="edge"><title>Node17&#45;&gt;Node18</title>
<path fill="none" stroke="midnightblue" d="M2496.5,-118C2504.9,-118 2513.33,-118 2521.67,-118"/>
<polygon fill="midnightblue" stroke="midnightblue" points="2496.29,-114.5 2486.29,-118 2496.29,-121.5 2496.29,-114.5"/>
</g>
<!-- Node20 -->
<g id="node20" class="node"><title>Node20</title>
<g id="a_node20"><a xlink:href="../../d5/dcc/classviewcontroller_1_1turtlegrid_1_1_grid_view_controller.html#a9b87e85ea14f3882c2fefa36ceb159cb" target="_top" xlink:title="viewcontroller.turtlegrid.\lGridViewController.forwardKeyPressed">
<polygon fill="white" stroke="black" points="1516.5,-49 1516.5,-79 1713.5,-79 1713.5,-49 1516.5,-49"/>
<text text-anchor="start" x="1524.5" y="-67" font-family="Helvetica,sans-Serif" font-size="10.00">viewcontroller.turtlegrid.</text>
<text text-anchor="middle" x="1615" y="-56" font-family="Helvetica,sans-Serif" font-size="10.00">GridViewController.forwardKeyPressed</text>
</a>
</g>
</g>
<!-- Node19&#45;&gt;Node20 -->
<g id="edge19" class="edge"><title>Node19&#45;&gt;Node20</title>
<path fill="none" stroke="midnightblue" d="M1450.2,-62.0953C1471.65,-62.3448 1494.49,-62.6103 1516.09,-62.8615"/>
<polygon fill="midnightblue" stroke="midnightblue" points="1450.16,-58.5948 1440.12,-61.9782 1450.08,-65.5943 1450.16,-58.5948"/>
</g>
<!-- Node22 -->
<g id="node22" class="node"><title>Node22</title>
<g id="a_node22"><a xlink:href="../../d5/dcc/classviewcontroller_1_1turtlegrid_1_1_grid_view_controller.html#a7562be13e46d86a1d5f9058462a6d189" target="_top" xlink:title="viewcontroller.turtlegrid.\lGridViewController.rightKeyPressed">
<polygon fill="white" stroke="black" points="1523.5,-0 1523.5,-30 1706.5,-30 1706.5,-0 1523.5,-0"/>
<text text-anchor="start" x="1531.5" y="-18" font-family="Helvetica,sans-Serif" font-size="10.00">viewcontroller.turtlegrid.</text>
<text text-anchor="middle" x="1615" y="-7" font-family="Helvetica,sans-Serif" font-size="10.00">GridViewController.rightKeyPressed</text>
</a>
</g>
</g>
<!-- Node19&#45;&gt;Node22 -->
<g id="edge21" class="edge"><title>Node19&#45;&gt;Node22</title>
<path fill="none" stroke="midnightblue" d="M1449.99,-44.2426C1476.02,-39.6018 1504.1,-34.5942 1529.55,-30.0568"/>
<polygon fill="midnightblue" stroke="midnightblue" points="1449.35,-40.8005 1440.12,-46.0015 1450.58,-47.6918 1449.35,-40.8005"/>
</g>
<!-- Node21 -->
<g id="node21" class="node"><title>Node21</title>
<g id="a_node21"><a xlink:href="../../d5/dcc/classviewcontroller_1_1turtlegrid_1_1_grid_view_controller.html#aacd51569d82b44633f519cc19ef5d937" target="_top" xlink:title="viewcontroller.turtlegrid.\lGridViewController.listenKeys">
<polygon fill="white" stroke="black" points="1791,-25 1791,-55 1945,-55 1945,-25 1791,-25"/>
<text text-anchor="start" x="1799" y="-43" font-family="Helvetica,sans-Serif" font-size="10.00">viewcontroller.turtlegrid.</text>
<text text-anchor="middle" x="1868" y="-32" font-family="Helvetica,sans-Serif" font-size="10.00">GridViewController.listenKeys</text>
</a>
</g>
</g>
<!-- Node20&#45;&gt;Node21 -->
<g id="edge20" class="edge"><title>Node20&#45;&gt;Node21</title>
<path fill="none" stroke="midnightblue" d="M1723.73,-53.6987C1746.33,-51.5377 1769.72,-49.3017 1790.88,-47.2787"/>
<polygon fill="midnightblue" stroke="midnightblue" points="1723.38,-50.2162 1713.76,-54.6523 1724.05,-57.1844 1723.38,-50.2162"/>
</g>
<!-- Node22&#45;&gt;Node21 -->
<g id="edge22" class="edge"><title>Node22&#45;&gt;Node21</title>
<path fill="none" stroke="midnightblue" d="M1716.76,-25.0362C1741.52,-27.5023 1767.62,-30.1015 1790.99,-32.4292"/>
<polygon fill="midnightblue" stroke="midnightblue" points="1716.91,-21.534 1706.62,-24.0256 1716.22,-28.4995 1716.91,-21.534"/>
</g>
</g>
</svg>
