<?xml version="1.0" encoding="UTF-8" standalone="no"?>
<!DOCTYPE svg PUBLIC "-//W3C//DTD SVG 1.1//EN"
 "http://www.w3.org/Graphics/SVG/1.1/DTD/svg11.dtd">
<!-- Generated by graphviz version 2.36.0 (20140111.2315)
 -->
<!-- Title: interpreter.SLogoExpressionFactory.SLogoExpressionFactory Pages: 1 -->
<svg width="398pt" height="185pt"
 viewBox="0.00 0.00 398.00 185.00" xmlns="http://www.w3.org/2000/svg" xmlns:xlink="http://www.w3.org/1999/xlink">
<g id="graph0" class="graph" transform="scale(1 1) rotate(0) translate(4 181)">
<title>interpreter.SLogoExpressionFactory.SLogoExpressionFactory</title>
<polygon fill="white" stroke="none" points="-4,4 -4,-181 394,-181 394,4 -4,4"/>
<!-- Node1 -->
<g id="node1" class="node"><title>Node1</title>
<polygon fill="#bfbfbf" stroke="black" points="0.5,-73 0.5,-103 169.5,-103 169.5,-73 0.5,-73"/>
<text text-anchor="start" x="8.5" y="-91" font-family="Helvetica,sans-Serif" font-size="10.00">interpreter.SLogoExpression</text>
<text text-anchor="middle" x="85" y="-80" font-family="Helvetica,sans-Serif" font-size="10.00">Factory.SLogoExpressionFactory</text>
</g>
<!-- Node2 -->
<g id="node2" class="node"><title>Node2</title>
<g id="a_node2"><a xlink:href="../../d5/d09/classinterpreter_1_1_command_reference_library.html#a8b215d5ed08f259a2cf14b4d42feb425" target="_top" xlink:title="interpreter.CommandReference\lLibrary.getCommandsToDirectories">
<polygon fill="white" stroke="black" points="206.5,-147 206.5,-177 389.5,-177 389.5,-147 206.5,-147"/>
<text text-anchor="start" x="214.5" y="-165" font-family="Helvetica,sans-Serif" font-size="10.00">interpreter.CommandReference</text>
<text text-anchor="middle" x="298" y="-154" font-family="Helvetica,sans-Serif" font-size="10.00">Library.getCommandsToDirectories</text>
</a>
</g>
</g>
<!-- Node1&#45;&gt;Node2 -->
<g id="edge1" class="edge"><title>Node1&#45;&gt;Node2</title>
<path fill="none" stroke="midnightblue" d="M119.728,-103.037C143.554,-113.346 176.387,-126.927 206,-137 213.118,-139.421 220.608,-141.778 228.109,-144.015"/>
<polygon fill="midnightblue" stroke="midnightblue" points="227.364,-147.444 237.944,-146.883 229.324,-140.724 227.364,-147.444"/>
</g>
<!-- Node3 -->
<g id="node3" class="node"><title>Node3</title>
<g id="a_node3"><a xlink:href="../../d5/d09/classinterpreter_1_1_command_reference_library.html#a25d84bc91b913e6c853f53319a0bfcf7" target="_top" xlink:title="interpreter.CommandReference\lLibrary.getCommandsToNumArgs">
<polygon fill="white" stroke="black" points="210,-98 210,-128 386,-128 386,-98 210,-98"/>
<text text-anchor="start" x="218" y="-116" font-family="Helvetica,sans-Serif" font-size="10.00">interpreter.CommandReference</text>
<text text-anchor="middle" x="298" y="-105" font-family="Helvetica,sans-Serif" font-size="10.00">Library.getCommandsToNumArgs</text>
</a>
</g>
</g>
<!-- Node1&#45;&gt;Node3 -->
<g id="edge2" class="edge"><title>Node1&#45;&gt;Node3</title>
<path fill="none" stroke="midnightblue" d="M169.696,-97.9166C179.62,-99.0924 189.813,-100.3 199.902,-101.496"/>
<polygon fill="midnightblue" stroke="midnightblue" points="199.602,-104.984 209.944,-102.685 200.425,-98.0329 199.602,-104.984"/>
</g>
<!-- Node4 -->
<g id="node4" class="node"><title>Node4</title>
<g id="a_node4"><a xlink:href="../../d5/d09/classinterpreter_1_1_command_reference_library.html#a552ef93cd8eca34ee35926f94e9fbb7e" target="_top" xlink:title="interpreter.CommandReference\lLibrary.getReferencesToCommands">
<polygon fill="white" stroke="black" points="206,-49 206,-79 390,-79 390,-49 206,-49"/>
<text text-anchor="start" x="214" y="-67" font-family="Helvetica,sans-Serif" font-size="10.00">interpreter.CommandReference</text>
<text text-anchor="middle" x="298" y="-56" font-family="Helvetica,sans-Serif" font-size="10.00">Library.getReferencesToCommands</text>
</a>
</g>
</g>
<!-- Node1&#45;&gt;Node4 -->
<g id="edge3" class="edge"><title>Node1&#45;&gt;Node4</title>
<path fill="none" stroke="midnightblue" d="M169.696,-78.4801C178.214,-77.5112 186.93,-76.5198 195.609,-75.5326"/>
<polygon fill="midnightblue" stroke="midnightblue" points="196.226,-78.9851 205.766,-74.3773 195.435,-72.03 196.226,-78.9851"/>
</g>
<!-- Node5 -->
<g id="node5" class="node"><title>Node5</title>
<g id="a_node5"><a xlink:href="../../d5/d09/classinterpreter_1_1_command_reference_library.html#a3e31d80afd3a750a552b7d6e8be0ef73" target="_top" xlink:title="interpreter.CommandReference\lLibrary.getReverseSyntaxes">
<polygon fill="white" stroke="black" points="214.5,-0 214.5,-30 381.5,-30 381.5,-0 214.5,-0"/>
<text text-anchor="start" x="222.5" y="-18" font-family="Helvetica,sans-Serif" font-size="10.00">interpreter.CommandReference</text>
<text text-anchor="middle" x="298" y="-7" font-family="Helvetica,sans-Serif" font-size="10.00">Library.getReverseSyntaxes</text>
</a>
</g>
</g>
<!-- Node1&#45;&gt;Node5 -->
<g id="edge4" class="edge"><title>Node1&#45;&gt;Node5</title>
<path fill="none" stroke="midnightblue" d="M120.534,-72.9865C144.308,-62.9489 176.756,-49.8313 206,-40 213.316,-37.5405 221.021,-35.1396 228.724,-32.8591"/>
<polygon fill="midnightblue" stroke="midnightblue" points="229.821,-36.1853 238.451,-30.0393 227.872,-29.4621 229.821,-36.1853"/>
</g>
</g>
</svg>
