<?xml version="1.0" encoding="UTF-8" standalone="no"?>
<!DOCTYPE svg PUBLIC "-//W3C//DTD SVG 1.1//EN"
 "http://www.w3.org/Graphics/SVG/1.1/DTD/svg11.dtd">
<!-- Generated by graphviz version 2.36.0 (20140111.2315)
 -->
<!-- Title: viewcontroller.commands.CommandWindowContainerViewController.placeUserDefinedBoxes Pages: 1 -->
<svg width="522pt" height="87pt"
 viewBox="0.00 0.00 522.00 87.00" xmlns="http://www.w3.org/2000/svg" xmlns:xlink="http://www.w3.org/1999/xlink">
<g id="graph0" class="graph" transform="scale(1 1) rotate(0) translate(4 83)">
<title>viewcontroller.commands.CommandWindowContainerViewController.placeUserDefinedBoxes</title>
<polygon fill="white" stroke="none" points="-4,4 -4,-83 518,-83 518,4 -4,4"/>
<!-- Node1 -->
<g id="node1" class="node"><title>Node1</title>
<polygon fill="#bfbfbf" stroke="black" points="0.5,-18.5 0.5,-59.5 245.5,-59.5 245.5,-18.5 0.5,-18.5"/>
<text text-anchor="start" x="8.5" y="-47.5" font-family="Helvetica,sans-Serif" font-size="10.00">viewcontroller.commands.</text>
<text text-anchor="start" x="8.5" y="-36.5" font-family="Helvetica,sans-Serif" font-size="10.00">CommandWindowContainerViewController.place</text>
<text text-anchor="middle" x="123" y="-25.5" font-family="Helvetica,sans-Serif" font-size="10.00">UserDefinedBoxes</text>
</g>
<!-- Node2 -->
<g id="node2" class="node"><title>Node2</title>
<g id="a_node2"><a xlink:href="../../de/d01/classviewcontroller_1_1commands_1_1_user_defined_methods_view_controller.html#a8597919f3935f36ccded65d616a30181" target="_top" xlink:title="viewcontroller.commands.\lUserDefinedMethodsViewController.getNode">
<polygon fill="white" stroke="black" points="283.5,-49 283.5,-79 512.5,-79 512.5,-49 283.5,-49"/>
<text text-anchor="start" x="291.5" y="-67" font-family="Helvetica,sans-Serif" font-size="10.00">viewcontroller.commands.</text>
<text text-anchor="middle" x="398" y="-56" font-family="Helvetica,sans-Serif" font-size="10.00">UserDefinedMethodsViewController.getNode</text>
</a>
</g>
</g>
<!-- Node1&#45;&gt;Node2 -->
<g id="edge1" class="edge"><title>Node1&#45;&gt;Node2</title>
<path fill="none" stroke="midnightblue" d="M245.729,-50.1474C254.82,-50.9799 264,-51.8205 273.104,-52.6542"/>
<polygon fill="midnightblue" stroke="midnightblue" points="273.065,-56.1652 283.342,-53.5918 273.703,-49.1943 273.065,-56.1652"/>
</g>
<!-- Node3 -->
<g id="node3" class="node"><title>Node3</title>
<g id="a_node3"><a xlink:href="../../d4/dc8/classviewcontroller_1_1commands_1_1_user_defined_variables_view_controller.html#a9769f29846f76036d6195e8b5f05feaf" target="_top" xlink:title="viewcontroller.commands.\lUserDefinedVariablesViewController.getNode">
<polygon fill="white" stroke="black" points="282.5,-0 282.5,-30 513.5,-30 513.5,-0 282.5,-0"/>
<text text-anchor="start" x="290.5" y="-18" font-family="Helvetica,sans-Serif" font-size="10.00">viewcontroller.commands.</text>
<text text-anchor="middle" x="398" y="-7" font-family="Helvetica,sans-Serif" font-size="10.00">UserDefinedVariablesViewController.getNode</text>
</a>
</g>
</g>
<!-- Node1&#45;&gt;Node3 -->
<g id="edge2" class="edge"><title>Node1&#45;&gt;Node3</title>
<path fill="none" stroke="midnightblue" d="M245.729,-28.2985C254.614,-27.5175 263.583,-26.729 272.483,-25.9465"/>
<polygon fill="midnightblue" stroke="midnightblue" points="272.84,-29.4288 282.495,-25.0664 272.227,-22.4557 272.84,-29.4288"/>
</g>
</g>
</svg>
