<?xml version="1.0" encoding="UTF-8" standalone="no"?>
<!DOCTYPE svg PUBLIC "-//W3C//DTD SVG 1.1//EN"
 "http://www.w3.org/Graphics/SVG/1.1/DTD/svg11.dtd">
<!-- Generated by graphviz version 2.36.0 (20140111.2315)
 -->
<!-- Title: viewcontroller.commands.CommandWindowContainerViewController.getCommandPrompt Pages: 1 -->
<svg width="442pt" height="48pt"
 viewBox="0.00 0.00 442.00 48.00" xmlns="http://www.w3.org/2000/svg" xmlns:xlink="http://www.w3.org/1999/xlink">
<g id="graph0" class="graph" transform="scale(1 1) rotate(0) translate(4 44)">
<title>viewcontroller.commands.CommandWindowContainerViewController.getCommandPrompt</title>
<polygon fill="white" stroke="none" points="-4,4 -4,-44 438,-44 438,4 -4,4"/>
<!-- Node1 -->
<g id="node1" class="node"><title>Node1</title>
<polygon fill="#bfbfbf" stroke="black" points="0.5,0.5 0.5,-40.5 235.5,-40.5 235.5,0.5 0.5,0.5"/>
<text text-anchor="start" x="8.5" y="-28.5" font-family="Helvetica,sans-Serif" font-size="10.00">viewcontroller.commands.</text>
<text text-anchor="start" x="8.5" y="-17.5" font-family="Helvetica,sans-Serif" font-size="10.00">CommandWindowContainerViewController.get</text>
<text text-anchor="middle" x="118" y="-6.5" font-family="Helvetica,sans-Serif" font-size="10.00">CommandPrompt</text>
</g>
<!-- Node2 -->
<g id="node2" class="node"><title>Node2</title>
<g id="a_node2"><a xlink:href="../../d8/d97/classunittest_1_1_command_prompt_text_test.html#ab38f5219e36c87838ae14692e2aa01ac" target="_top" xlink:title="unittest.CommandPromptText\lTest.testTransferOfString">
<polygon fill="white" stroke="black" points="272.5,-5 272.5,-35 433.5,-35 433.5,-5 272.5,-5"/>
<text text-anchor="start" x="280.5" y="-23" font-family="Helvetica,sans-Serif" font-size="10.00">unittest.CommandPromptText</text>
<text text-anchor="middle" x="353" y="-12" font-family="Helvetica,sans-Serif" font-size="10.00">Test.testTransferOfString</text>
</a>
</g>
</g>
<!-- Node1&#45;&gt;Node2 -->
<g id="edge1" class="edge"><title>Node1&#45;&gt;Node2</title>
<path fill="none" stroke="midnightblue" d="M245.981,-20C254.941,-20 263.818,-20 272.397,-20"/>
<polygon fill="midnightblue" stroke="midnightblue" points="245.841,-16.5001 235.841,-20 245.841,-23.5001 245.841,-16.5001"/>
</g>
</g>
</svg>
