<?xml version="1.0" encoding="UTF-8" standalone="no"?>
<!DOCTYPE svg PUBLIC "-//W3C//DTD SVG 1.1//EN"
 "http://www.w3.org/Graphics/SVG/1.1/DTD/svg11.dtd">
<!-- Generated by graphviz version 2.36.0 (20140111.2315)
 -->
<!-- Title: viewcontroller.commands.CommandWindowContainerViewController.moveCommandTextToPromptWindow Pages: 1 -->
<svg width="478pt" height="48pt"
 viewBox="0.00 0.00 478.00 48.00" xmlns="http://www.w3.org/2000/svg" xmlns:xlink="http://www.w3.org/1999/xlink">
<g id="graph0" class="graph" transform="scale(1 1) rotate(0) translate(4 44)">
<title>viewcontroller.commands.CommandWindowContainerViewController.moveCommandTextToPromptWindow</title>
<polygon fill="white" stroke="none" points="-4,4 -4,-44 474,-44 474,4 -4,4"/>
<!-- Node1 -->
<g id="node1" class="node"><title>Node1</title>
<polygon fill="#bfbfbf" stroke="black" points="0,0.5 0,-40.5 246,-40.5 246,0.5 0,0.5"/>
<text text-anchor="start" x="8" y="-28.5" font-family="Helvetica,sans-Serif" font-size="10.00">viewcontroller.commands.</text>
<text text-anchor="start" x="8" y="-17.5" font-family="Helvetica,sans-Serif" font-size="10.00">CommandWindowContainerViewController.move</text>
<text text-anchor="middle" x="123" y="-6.5" font-family="Helvetica,sans-Serif" font-size="10.00">CommandTextToPromptWindow</text>
</g>
<!-- Node2 -->
<g id="node2" class="node"><title>Node2</title>
<g id="a_node2"><a xlink:href="../../de/d8d/classviewcontroller_1_1commands_1_1_command_prompt_view_controller.html#ac5b8ed43553efe6667328fe2d2d7130a" target="_top" xlink:title="viewcontroller.commands.\lCommandPromptViewController.set\lCommandPromptText">
<polygon fill="white" stroke="black" points="282,0.5 282,-40.5 470,-40.5 470,0.5 282,0.5"/>
<text text-anchor="start" x="290" y="-28.5" font-family="Helvetica,sans-Serif" font-size="10.00">viewcontroller.commands.</text>
<text text-anchor="start" x="290" y="-17.5" font-family="Helvetica,sans-Serif" font-size="10.00">CommandPromptViewController.set</text>
<text text-anchor="middle" x="376" y="-6.5" font-family="Helvetica,sans-Serif" font-size="10.00">CommandPromptText</text>
</a>
</g>
</g>
<!-- Node1&#45;&gt;Node2 -->
<g id="edge1" class="edge"><title>Node1&#45;&gt;Node2</title>
<path fill="none" stroke="midnightblue" d="M246.191,-20C254.7,-20 263.23,-20 271.623,-20"/>
<polygon fill="midnightblue" stroke="midnightblue" points="271.782,-23.5001 281.782,-20 271.782,-16.5001 271.782,-23.5001"/>
</g>
</g>
</svg>
