<?xml version="1.0" encoding="UTF-8" standalone="no"?>
<!DOCTYPE svg PUBLIC "-//W3C//DTD SVG 1.1//EN"
 "http://www.w3.org/Graphics/SVG/1.1/DTD/svg11.dtd">
<!-- Generated by graphviz version 2.36.0 (20140111.2315)
 -->
<!-- Title: viewcontroller.commands.CommandWindowContainerViewController.placeUserDefinedBoxes Pages: 1 -->
<svg width="792pt" height="48pt"
 viewBox="0.00 0.00 792.00 48.00" xmlns="http://www.w3.org/2000/svg" xmlns:xlink="http://www.w3.org/1999/xlink">
<g id="graph0" class="graph" transform="scale(1 1) rotate(0) translate(4 44)">
<title>viewcontroller.commands.CommandWindowContainerViewController.placeUserDefinedBoxes</title>
<polygon fill="white" stroke="none" points="-4,4 -4,-44 788,-44 788,4 -4,4"/>
<!-- Node1 -->
<g id="node1" class="node"><title>Node1</title>
<polygon fill="#bfbfbf" stroke="black" points="0.5,0.5 0.5,-40.5 245.5,-40.5 245.5,0.5 0.5,0.5"/>
<text text-anchor="start" x="8.5" y="-28.5" font-family="Helvetica,sans-Serif" font-size="10.00">viewcontroller.commands.</text>
<text text-anchor="start" x="8.5" y="-17.5" font-family="Helvetica,sans-Serif" font-size="10.00">CommandWindowContainerViewController.place</text>
<text text-anchor="middle" x="123" y="-6.5" font-family="Helvetica,sans-Serif" font-size="10.00">UserDefinedBoxes</text>
</g>
<!-- Node2 -->
<g id="node2" class="node"><title>Node2</title>
<g id="a_node2"><a xlink:href="../../d0/d7c/classviewcontroller_1_1commands_1_1_command_window_container_view_controller.html#a4b22dc9a991f9a307ce4331ebc288f7f" target="_top" xlink:title="viewcontroller.commands.\lCommandWindowContainerViewController.place\lCommandWindows">
<polygon fill="white" stroke="black" points="282.5,0.5 282.5,-40.5 527.5,-40.5 527.5,0.5 282.5,0.5"/>
<text text-anchor="start" x="290.5" y="-28.5" font-family="Helvetica,sans-Serif" font-size="10.00">viewcontroller.commands.</text>
<text text-anchor="start" x="290.5" y="-17.5" font-family="Helvetica,sans-Serif" font-size="10.00">CommandWindowContainerViewController.place</text>
<text text-anchor="middle" x="405" y="-6.5" font-family="Helvetica,sans-Serif" font-size="10.00">CommandWindows</text>
</a>
</g>
</g>
<!-- Node1&#45;&gt;Node2 -->
<g id="edge1" class="edge"><title>Node1&#45;&gt;Node2</title>
<path fill="none" stroke="midnightblue" d="M255.838,-20C264.591,-20 273.386,-20 282.087,-20"/>
<polygon fill="midnightblue" stroke="midnightblue" points="255.591,-16.5001 245.59,-20 255.59,-23.5001 255.591,-16.5001"/>
</g>
<!-- Node3 -->
<g id="node3" class="node"><title>Node3</title>
<g id="a_node3"><a xlink:href="../../d0/d7c/classviewcontroller_1_1commands_1_1_command_window_container_view_controller.html#a00c0cfff2fbbb87ce16e3fa7f125277f" target="_top" xlink:title="viewcontroller.commands.\lCommandWindowContainerViewController.\lCommandWindowContainerViewController">
<polygon fill="white" stroke="black" points="564.5,0.5 564.5,-40.5 783.5,-40.5 783.5,0.5 564.5,0.5"/>
<text text-anchor="start" x="572.5" y="-28.5" font-family="Helvetica,sans-Serif" font-size="10.00">viewcontroller.commands.</text>
<text text-anchor="start" x="572.5" y="-17.5" font-family="Helvetica,sans-Serif" font-size="10.00">CommandWindowContainerViewController.</text>
<text text-anchor="middle" x="674" y="-6.5" font-family="Helvetica,sans-Serif" font-size="10.00">CommandWindowContainerViewController</text>
</a>
</g>
</g>
<!-- Node2&#45;&gt;Node3 -->
<g id="edge2" class="edge"><title>Node2&#45;&gt;Node3</title>
<path fill="none" stroke="midnightblue" d="M537.842,-20C546.766,-20 555.7,-20 564.484,-20"/>
<polygon fill="midnightblue" stroke="midnightblue" points="537.78,-16.5001 527.78,-20 537.78,-23.5001 537.78,-16.5001"/>
</g>
</g>
</svg>
