<?xml version="1.0" encoding="UTF-8" standalone="no"?>
<!DOCTYPE svg PUBLIC "-//W3C//DTD SVG 1.1//EN"
 "http://www.w3.org/Graphics/SVG/1.1/DTD/svg11.dtd">
<!-- Generated by graphviz version 2.36.0 (20140111.2315)
 -->
<!-- Title: viewcontroller.commands.CommandWindowContainerViewController.CommandWindowContainerViewController Pages: 1 -->
<!--zoomable 214 -->
<svg id="main" version="1.1" xmlns="http://www.w3.org/2000/svg" xmlns:xlink="http://www.w3.org/1999/xlink" xml:space="preserve" onload="init(evt)">
<style type="text/css"><![CDATA[
.edge:hover path { stroke: red; }
.edge:hover polygon { stroke: red; fill: red; }
]]></style>
<script type="text/javascript"><![CDATA[
var edges = document.getElementsByTagName('g');
if (edges && edges.length) {
  for (var i=0;i<edges.length;i++) {
    if (edges[i].id.substr(0,4)=='edge') {
      edges[i].setAttribute('class','edge');
    }
  }
}
]]></script>
        <defs>
                <circle id="rim" cx="0" cy="0" r="7"/>
                <circle id="rim2" cx="0" cy="0" r="3.5"/>
                <g id="zoomPlus">
                        <use xlink:href="#rim" fill="#404040">
                                <set attributeName="fill" to="#808080" begin="zoomplus.mouseover" end="zoomplus.mouseout"/>
                        </use>
                        <path d="M-4,0h8M0,-4v8" fill="none" stroke="white" stroke-width="1.5" pointer-events="none"/>
                </g>
                <g id="zoomMin">
                        <use xlink:href="#rim" fill="#404040">
                                <set attributeName="fill" to="#808080" begin="zoomminus.mouseover" end="zoomminus.mouseout"/>
                        </use>
                        <path d="M-4,0h8" fill="none" stroke="white" stroke-width="1.5" pointer-events="none"/>
                </g>
                <g id="dirArrow">
                        <path fill="none" stroke="white" stroke-width="1.5" d="M0,-3.0v7 M-2.5,-0.5L0,-3.0L2.5,-0.5"/>
                </g>
               <g id="resetDef">
                       <use xlink:href="#rim2" fill="#404040">
                               <set attributeName="fill" to="#808080" begin="reset.mouseover" end="reset.mouseout"/>
                       </use>
               </g>
        </defs>

<script type="text/javascript">
var viewWidth = 1060;
var viewHeight = 214;
var sectionId = 'dynsection-2';
</script>
<script xlink:href="../../svgpan.js"/>
<svg id="graph" class="graph">
<g id="viewport">
<title>viewcontroller.commands.CommandWindowContainerViewController.CommandWindowContainerViewController</title>
<polygon fill="white" stroke="none" points="-4,4 -4,-210 1056,-210 1056,4 -4,4"/>
<!-- Node1 -->
<g id="node1" class="node"><title>Node1</title>
<polygon fill="#bfbfbf" stroke="black" points="0.5,-67.5 0.5,-108.5 219.5,-108.5 219.5,-67.5 0.5,-67.5"/>
<text text-anchor="start" x="8.5" y="-96.5" font-family="Helvetica,sans-Serif" font-size="10.00">viewcontroller.commands.</text>
<text text-anchor="start" x="8.5" y="-85.5" font-family="Helvetica,sans-Serif" font-size="10.00">CommandWindowContainerViewController.</text>
<text text-anchor="middle" x="110" y="-74.5" font-family="Helvetica,sans-Serif" font-size="10.00">CommandWindowContainerViewController</text>
</g>
<!-- Node2 -->
<g id="node2" class="node"><title>Node2</title>
<g id="a_node2"><a xlink:href="../../d0/d7c/classviewcontroller_1_1commands_1_1_command_window_container_view_controller.html#a4b22dc9a991f9a307ce4331ebc288f7f" target="_top" xlink:title="viewcontroller.commands.\lCommandWindowContainerViewController.place\lCommandWindows">
<polygon fill="white" stroke="black" points="256.5,-67.5 256.5,-108.5 501.5,-108.5 501.5,-67.5 256.5,-67.5"/>
<text text-anchor="start" x="264.5" y="-96.5" font-family="Helvetica,sans-Serif" font-size="10.00">viewcontroller.commands.</text>
<text text-anchor="start" x="264.5" y="-85.5" font-family="Helvetica,sans-Serif" font-size="10.00">CommandWindowContainerViewController.place</text>
<text text-anchor="middle" x="379" y="-74.5" font-family="Helvetica,sans-Serif" font-size="10.00">CommandWindows</text>
</a>
</g>
</g>
<!-- Node1&#45;&gt;Node2 -->
<g id="edge1" class="edge"><title>Node1&#45;&gt;Node2</title>
<path fill="none" stroke="midnightblue" d="M219.599,-88C228.411,-88 237.372,-88 246.323,-88"/>
<polygon fill="midnightblue" stroke="midnightblue" points="246.415,-91.5001 256.415,-88 246.415,-84.5001 246.415,-91.5001"/>
</g>
<!-- Node3 -->
<g id="node3" class="node"><title>Node3</title>
<g id="a_node3"><a xlink:href="../../d0/d7c/classviewcontroller_1_1commands_1_1_command_window_container_view_controller.html#a5e24d0ef1f59d052cb89152d23a6a1fe" target="_top" xlink:title="viewcontroller.commands.\lCommandWindowContainerViewController.place\lUserDefinedBoxes">
<polygon fill="white" stroke="black" points="538.5,-146.5 538.5,-187.5 783.5,-187.5 783.5,-146.5 538.5,-146.5"/>
<text text-anchor="start" x="546.5" y="-175.5" font-family="Helvetica,sans-Serif" font-size="10.00">viewcontroller.commands.</text>
<text text-anchor="start" x="546.5" y="-164.5" font-family="Helvetica,sans-Serif" font-size="10.00">CommandWindowContainerViewController.place</text>
<text text-anchor="middle" x="661" y="-153.5" font-family="Helvetica,sans-Serif" font-size="10.00">UserDefinedBoxes</text>
</a>
</g>
</g>
<!-- Node2&#45;&gt;Node3 -->
<g id="edge2" class="edge"><title>Node2&#45;&gt;Node3</title>
<path fill="none" stroke="midnightblue" d="M443.172,-108.536C471.977,-117.657 506.592,-128.277 538,-137 546.398,-139.333 555.147,-141.668 563.933,-143.948"/>
<polygon fill="midnightblue" stroke="midnightblue" points="563.295,-147.398 573.851,-146.497 565.037,-140.618 563.295,-147.398"/>
</g>
<!-- Node6 -->
<g id="node6" class="node"><title>Node6</title>
<g id="a_node6"><a xlink:href="../../d3/d76/classviewcontroller_1_1commands_1_1_command_history_view_controller.html#add9862041f323f6d5b5d7d065b566ec0" target="_top" xlink:title="viewcontroller.commands.\lCommandHistoryViewController.getNode">
<polygon fill="white" stroke="black" points="555,-98 555,-128 767,-128 767,-98 555,-98"/>
<text text-anchor="start" x="563" y="-116" font-family="Helvetica,sans-Serif" font-size="10.00">viewcontroller.commands.</text>
<text text-anchor="middle" x="661" y="-105" font-family="Helvetica,sans-Serif" font-size="10.00">CommandHistoryViewController.getNode</text>
</a>
</g>
</g>
<!-- Node2&#45;&gt;Node6 -->
<g id="edge5" class="edge"><title>Node2&#45;&gt;Node6</title>
<path fill="none" stroke="midnightblue" d="M501.59,-98.8563C515.842,-100.129 530.352,-101.424 544.517,-102.689"/>
<polygon fill="midnightblue" stroke="midnightblue" points="544.489,-106.2 554.761,-103.604 545.112,-99.2281 544.489,-106.2"/>
</g>
<!-- Node7 -->
<g id="node7" class="node"><title>Node7</title>
<g id="a_node7"><a xlink:href="../../de/d8d/classviewcontroller_1_1commands_1_1_command_prompt_view_controller.html#a2710c5ecda3803ed5a12949ee1acc0de" target="_top" xlink:title="viewcontroller.commands.\lCommandPromptViewController.getNode">
<polygon fill="white" stroke="black" points="554,-49 554,-79 768,-79 768,-49 554,-49"/>
<text text-anchor="start" x="562" y="-67" font-family="Helvetica,sans-Serif" font-size="10.00">viewcontroller.commands.</text>
<text text-anchor="middle" x="661" y="-56" font-family="Helvetica,sans-Serif" font-size="10.00">CommandPromptViewController.getNode</text>
</a>
</g>
</g>
<!-- Node2&#45;&gt;Node7 -->
<g id="edge6" class="edge"><title>Node2&#45;&gt;Node7</title>
<path fill="none" stroke="midnightblue" d="M501.59,-77.578C515.604,-76.3768 529.868,-75.1541 543.808,-73.9593"/>
<polygon fill="midnightblue" stroke="midnightblue" points="544.228,-77.4362 553.893,-73.0949 543.631,-70.4618 544.228,-77.4362"/>
</g>
<!-- Node8 -->
<g id="node8" class="node"><title>Node8</title>
<g id="a_node8"><a xlink:href="../../da/d40/classviewcontroller_1_1commands_1_1_command_status_view_controller.html#a045413862c75814121799424a3c456a9" target="_top" xlink:title="viewcontroller.commands.\lCommandStatusViewController.getNode">
<polygon fill="white" stroke="black" points="556,-0 556,-30 766,-30 766,-0 556,-0"/>
<text text-anchor="start" x="564" y="-18" font-family="Helvetica,sans-Serif" font-size="10.00">viewcontroller.commands.</text>
<text text-anchor="middle" x="661" y="-7" font-family="Helvetica,sans-Serif" font-size="10.00">CommandStatusViewController.getNode</text>
</a>
</g>
</g>
<!-- Node2&#45;&gt;Node8 -->
<g id="edge7" class="edge"><title>Node2&#45;&gt;Node8</title>
<path fill="none" stroke="midnightblue" d="M442.669,-67.4985C471.525,-58.4369 506.322,-48.0391 538,-40 548.779,-37.2647 560.151,-34.6193 571.443,-32.1382"/>
<polygon fill="midnightblue" stroke="midnightblue" points="572.294,-35.5352 581.329,-30.0019 570.815,-28.6931 572.294,-35.5352"/>
</g>
<!-- Node4 -->
<g id="node4" class="node"><title>Node4</title>
<g id="a_node4"><a xlink:href="../../de/d01/classviewcontroller_1_1commands_1_1_user_defined_methods_view_controller.html#a8597919f3935f36ccded65d616a30181" target="_top" xlink:title="viewcontroller.commands.\lUserDefinedMethodsViewController.getNode">
<polygon fill="white" stroke="black" points="821.5,-176 821.5,-206 1050.5,-206 1050.5,-176 821.5,-176"/>
<text text-anchor="start" x="829.5" y="-194" font-family="Helvetica,sans-Serif" font-size="10.00">viewcontroller.commands.</text>
<text text-anchor="middle" x="936" y="-183" font-family="Helvetica,sans-Serif" font-size="10.00">UserDefinedMethodsViewController.getNode</text>
</a>
</g>
</g>
<!-- Node3&#45;&gt;Node4 -->
<g id="edge3" class="edge"><title>Node3&#45;&gt;Node4</title>
<path fill="none" stroke="midnightblue" d="M783.729,-177.701C792.82,-178.501 802,-179.308 811.104,-180.108"/>
<polygon fill="midnightblue" stroke="midnightblue" points="811.074,-183.619 821.342,-181.008 811.687,-176.646 811.074,-183.619"/>
</g>
<!-- Node5 -->
<g id="node5" class="node"><title>Node5</title>
<g id="a_node5"><a xlink:href="../../d4/dc8/classviewcontroller_1_1commands_1_1_user_defined_variables_view_controller.html#a9769f29846f76036d6195e8b5f05feaf" target="_top" xlink:title="viewcontroller.commands.\lUserDefinedVariablesViewController.getNode">
<polygon fill="white" stroke="black" points="820.5,-127 820.5,-157 1051.5,-157 1051.5,-127 820.5,-127"/>
<text text-anchor="start" x="828.5" y="-145" font-family="Helvetica,sans-Serif" font-size="10.00">viewcontroller.commands.</text>
<text text-anchor="middle" x="936" y="-134" font-family="Helvetica,sans-Serif" font-size="10.00">UserDefinedVariablesViewController.getNode</text>
</a>
</g>
</g>
<!-- Node3&#45;&gt;Node5 -->
<g id="edge4" class="edge"><title>Node3&#45;&gt;Node5</title>
<path fill="none" stroke="midnightblue" d="M783.729,-155.853C792.614,-155.039 801.583,-154.218 810.483,-153.403"/>
<polygon fill="midnightblue" stroke="midnightblue" points="810.856,-156.883 820.495,-152.486 810.217,-149.912 810.856,-156.883"/>
</g>
</g>
</svg>
        <g id="navigator" transform="translate(0 0)" fill="#404254">
                <rect fill="#f2f5e9" fill-opacity="0.5" stroke="#606060" stroke-width=".5" x="0" y="0" width="60" height="60"/>
                <use id="zoomplus" xlink:href="#zoomPlus" x="17" y="9" onmousedown="handleZoom(evt,'in')"/>
                <use id="zoomminus" xlink:href="#zoomMin" x="42" y="9" onmousedown="handleZoom(evt,'out')"/>
                <use id="reset" xlink:href="#resetDef" x="30" y="36" onmousedown="handleReset()"/>
                <g id="arrowUp" xlink:href="#dirArrow" transform="translate(30 24)" onmousedown="handlePan(0,-1)">
                  <use xlink:href="#rim" fill="#404040">
                        <set attributeName="fill" to="#808080" begin="arrowUp.mouseover" end="arrowUp.mouseout"/>
                  </use>
                  <path fill="none" stroke="white" stroke-width="1.5" d="M0,-3.0v7 M-2.5,-0.5L0,-3.0L2.5,-0.5"/>
                </g>
                <g id="arrowRight" xlink:href="#dirArrow" transform="rotate(90) translate(36 -43)" onmousedown="handlePan(1,0)">
                  <use xlink:href="#rim" fill="#404040">
                        <set attributeName="fill" to="#808080" begin="arrowRight.mouseover" end="arrowRight.mouseout"/>
                  </use>
                  <path fill="none" stroke="white" stroke-width="1.5" d="M0,-3.0v7 M-2.5,-0.5L0,-3.0L2.5,-0.5"/>
                </g>
                <g id="arrowDown" xlink:href="#dirArrow" transform="rotate(180) translate(-30 -48)" onmousedown="handlePan(0,1)">
                  <use xlink:href="#rim" fill="#404040">
                        <set attributeName="fill" to="#808080" begin="arrowDown.mouseover" end="arrowDown.mouseout"/>
                  </use>
                  <path fill="none" stroke="white" stroke-width="1.5" d="M0,-3.0v7 M-2.5,-0.5L0,-3.0L2.5,-0.5"/>
                </g>
                <g id="arrowLeft" xlink:href="#dirArrow" transform="rotate(270) translate(-36 17)" onmousedown="handlePan(-1,0)">
                  <use xlink:href="#rim" fill="#404040">
                        <set attributeName="fill" to="#808080" begin="arrowLeft.mouseover" end="arrowLeft.mouseout"/>
                  </use>
                  <path fill="none" stroke="white" stroke-width="1.5" d="M0,-3.0v7 M-2.5,-0.5L0,-3.0L2.5,-0.5"/>
                </g>
        </g>
        <svg viewBox="0 0 15 15" width="100%" height="30px" preserveAspectRatio="xMaxYMin meet">
         <g id="arrow_out" transform="scale(0.3 0.3)">
          <a xlink:href="classviewcontroller_1_1commands_1_1_command_window_container_view_controller_a00c0cfff2fbbb87ce16e3fa7f125277f_cgraph_org.svg" target="_base">
           <rect id="button" ry="5" rx="5" y="6" x="6" height="38" width="38"
                fill="#f2f5e9" fill-opacity="0.5" stroke="#606060" stroke-width="1.0"/>
           <path id="arrow"
             d="M 11.500037,31.436501 C 11.940474,20.09759 22.043105,11.32322 32.158766,21.979434 L 37.068811,17.246167 C 37.068811,17.246167 37.088388,32 37.088388,32 L 22.160133,31.978069 C 22.160133,31.978069 26.997745,27.140456 26.997745,27.140456 C 18.528582,18.264221 13.291696,25.230495 11.500037,31.436501 z"
             style="fill:#404040;"/>
          </a>
         </g>
        </svg>
</svg>
