<?xml version="1.0" encoding="UTF-8" standalone="no"?>
<!DOCTYPE svg PUBLIC "-//W3C//DTD SVG 1.1//EN"
 "http://www.w3.org/Graphics/SVG/1.1/DTD/svg11.dtd">
<!-- Generated by graphviz version 2.36.0 (20140111.2315)
 -->
<!-- Title: viewcontroller.commands.CommandWindowContainerViewController.placeCommandWindows Pages: 1 -->
<svg width="804pt" height="214pt"
 viewBox="0.00 0.00 804.00 214.00" xmlns="http://www.w3.org/2000/svg" xmlns:xlink="http://www.w3.org/1999/xlink">
<g id="graph0" class="graph" transform="scale(1 1) rotate(0) translate(4 210)">
<title>viewcontroller.commands.CommandWindowContainerViewController.placeCommandWindows</title>
<polygon fill="white" stroke="none" points="-4,4 -4,-210 800,-210 800,4 -4,4"/>
<!-- Node1 -->
<g id="node1" class="node"><title>Node1</title>
<polygon fill="#bfbfbf" stroke="black" points="0.5,-96.5 0.5,-137.5 245.5,-137.5 245.5,-96.5 0.5,-96.5"/>
<text text-anchor="start" x="8.5" y="-125.5" font-family="Helvetica,sans-Serif" font-size="10.00">viewcontroller.commands.</text>
<text text-anchor="start" x="8.5" y="-114.5" font-family="Helvetica,sans-Serif" font-size="10.00">CommandWindowContainerViewController.place</text>
<text text-anchor="middle" x="123" y="-103.5" font-family="Helvetica,sans-Serif" font-size="10.00">CommandWindows</text>
</g>
<!-- Node2 -->
<g id="node2" class="node"><title>Node2</title>
<g id="a_node2"><a xlink:href="../../d3/d76/classviewcontroller_1_1commands_1_1_command_history_view_controller.html#add9862041f323f6d5b5d7d065b566ec0" target="_top" xlink:title="viewcontroller.commands.\lCommandHistoryViewController.getNode">
<polygon fill="white" stroke="black" points="299,-176 299,-206 511,-206 511,-176 299,-176"/>
<text text-anchor="start" x="307" y="-194" font-family="Helvetica,sans-Serif" font-size="10.00">viewcontroller.commands.</text>
<text text-anchor="middle" x="405" y="-183" font-family="Helvetica,sans-Serif" font-size="10.00">CommandHistoryViewController.getNode</text>
</a>
</g>
</g>
<!-- Node1&#45;&gt;Node2 -->
<g id="edge1" class="edge"><title>Node1&#45;&gt;Node2</title>
<path fill="none" stroke="midnightblue" d="M185.503,-137.62C214.573,-146.968 249.872,-157.748 282,-166 292.69,-168.746 303.967,-171.39 315.173,-173.865"/>
<polygon fill="midnightblue" stroke="midnightblue" points="314.471,-177.294 324.985,-175.995 315.955,-170.454 314.471,-177.294"/>
</g>
<!-- Node3 -->
<g id="node3" class="node"><title>Node3</title>
<g id="a_node3"><a xlink:href="../../da/d40/classviewcontroller_1_1commands_1_1_command_status_view_controller.html#a045413862c75814121799424a3c456a9" target="_top" xlink:title="viewcontroller.commands.\lCommandStatusViewController.getNode">
<polygon fill="white" stroke="black" points="300,-127 300,-157 510,-157 510,-127 300,-127"/>
<text text-anchor="start" x="308" y="-145" font-family="Helvetica,sans-Serif" font-size="10.00">viewcontroller.commands.</text>
<text text-anchor="middle" x="405" y="-134" font-family="Helvetica,sans-Serif" font-size="10.00">CommandStatusViewController.getNode</text>
</a>
</g>
</g>
<!-- Node1&#45;&gt;Node3 -->
<g id="edge2" class="edge"><title>Node1&#45;&gt;Node3</title>
<path fill="none" stroke="midnightblue" d="M245.59,-127.856C260.22,-129.162 275.122,-130.493 289.644,-131.79"/>
<polygon fill="midnightblue" stroke="midnightblue" points="289.356,-135.278 299.628,-132.681 289.979,-128.306 289.356,-135.278"/>
</g>
<!-- Node4 -->
<g id="node4" class="node"><title>Node4</title>
<g id="a_node4"><a xlink:href="../../de/d8d/classviewcontroller_1_1commands_1_1_command_prompt_view_controller.html#a2710c5ecda3803ed5a12949ee1acc0de" target="_top" xlink:title="viewcontroller.commands.\lCommandPromptViewController.getNode">
<polygon fill="white" stroke="black" points="298,-78 298,-108 512,-108 512,-78 298,-78"/>
<text text-anchor="start" x="306" y="-96" font-family="Helvetica,sans-Serif" font-size="10.00">viewcontroller.commands.</text>
<text text-anchor="middle" x="405" y="-85" font-family="Helvetica,sans-Serif" font-size="10.00">CommandPromptViewController.getNode</text>
</a>
</g>
</g>
<!-- Node1&#45;&gt;Node4 -->
<g id="edge3" class="edge"><title>Node1&#45;&gt;Node4</title>
<path fill="none" stroke="midnightblue" d="M245.59,-106.578C259.604,-105.377 273.868,-104.154 287.808,-102.959"/>
<polygon fill="midnightblue" stroke="midnightblue" points="288.228,-106.436 297.893,-102.095 287.631,-99.4618 288.228,-106.436"/>
</g>
<!-- Node5 -->
<g id="node5" class="node"><title>Node5</title>
<g id="a_node5"><a xlink:href="../../d0/d7c/classviewcontroller_1_1commands_1_1_command_window_container_view_controller.html#a5e24d0ef1f59d052cb89152d23a6a1fe" target="_top" xlink:title="viewcontroller.commands.\lCommandWindowContainerViewController.place\lUserDefinedBoxes">
<polygon fill="white" stroke="black" points="282.5,-18.5 282.5,-59.5 527.5,-59.5 527.5,-18.5 282.5,-18.5"/>
<text text-anchor="start" x="290.5" y="-47.5" font-family="Helvetica,sans-Serif" font-size="10.00">viewcontroller.commands.</text>
<text text-anchor="start" x="290.5" y="-36.5" font-family="Helvetica,sans-Serif" font-size="10.00">CommandWindowContainerViewController.place</text>
<text text-anchor="middle" x="405" y="-25.5" font-family="Helvetica,sans-Serif" font-size="10.00">UserDefinedBoxes</text>
</a>
</g>
</g>
<!-- Node1&#45;&gt;Node5 -->
<g id="edge4" class="edge"><title>Node1&#45;&gt;Node5</title>
<path fill="none" stroke="midnightblue" d="M188.729,-96.4765C217.23,-87.6623 251.176,-77.4654 282,-69 290.405,-66.6917 299.159,-64.3731 307.947,-62.1036"/>
<polygon fill="midnightblue" stroke="midnightblue" points="309.048,-65.4348 317.868,-59.5652 307.313,-58.6533 309.048,-65.4348"/>
</g>
<!-- Node6 -->
<g id="node6" class="node"><title>Node6</title>
<g id="a_node6"><a xlink:href="../../de/d01/classviewcontroller_1_1commands_1_1_user_defined_methods_view_controller.html#a8597919f3935f36ccded65d616a30181" target="_top" xlink:title="viewcontroller.commands.\lUserDefinedMethodsViewController.getNode">
<polygon fill="white" stroke="black" points="565.5,-49 565.5,-79 794.5,-79 794.5,-49 565.5,-49"/>
<text text-anchor="start" x="573.5" y="-67" font-family="Helvetica,sans-Serif" font-size="10.00">viewcontroller.commands.</text>
<text text-anchor="middle" x="680" y="-56" font-family="Helvetica,sans-Serif" font-size="10.00">UserDefinedMethodsViewController.getNode</text>
</a>
</g>
</g>
<!-- Node5&#45;&gt;Node6 -->
<g id="edge5" class="edge"><title>Node5&#45;&gt;Node6</title>
<path fill="none" stroke="midnightblue" d="M527.729,-50.1474C536.82,-50.9799 546,-51.8205 555.104,-52.6542"/>
<polygon fill="midnightblue" stroke="midnightblue" points="555.065,-56.1652 565.342,-53.5918 555.703,-49.1943 555.065,-56.1652"/>
</g>
<!-- Node7 -->
<g id="node7" class="node"><title>Node7</title>
<g id="a_node7"><a xlink:href="../../d4/dc8/classviewcontroller_1_1commands_1_1_user_defined_variables_view_controller.html#a9769f29846f76036d6195e8b5f05feaf" target="_top" xlink:title="viewcontroller.commands.\lUserDefinedVariablesViewController.getNode">
<polygon fill="white" stroke="black" points="564.5,-0 564.5,-30 795.5,-30 795.5,-0 564.5,-0"/>
<text text-anchor="start" x="572.5" y="-18" font-family="Helvetica,sans-Serif" font-size="10.00">viewcontroller.commands.</text>
<text text-anchor="middle" x="680" y="-7" font-family="Helvetica,sans-Serif" font-size="10.00">UserDefinedVariablesViewController.getNode</text>
</a>
</g>
</g>
<!-- Node5&#45;&gt;Node7 -->
<g id="edge6" class="edge"><title>Node5&#45;&gt;Node7</title>
<path fill="none" stroke="midnightblue" d="M527.729,-28.2985C536.614,-27.5175 545.583,-26.729 554.483,-25.9465"/>
<polygon fill="midnightblue" stroke="midnightblue" points="554.84,-29.4288 564.495,-25.0664 554.227,-22.4557 554.84,-29.4288"/>
</g>
</g>
</svg>
