<?xml version="1.0" encoding="UTF-8" standalone="no"?>
<!DOCTYPE svg PUBLIC "-//W3C//DTD SVG 1.1//EN"
 "http://www.w3.org/Graphics/SVG/1.1/DTD/svg11.dtd">
<!-- Generated by graphviz version 2.36.0 (20140111.2315)
 -->
<!-- Title: viewcontroller.commands.CommandWindowContainerViewController.loadScript Pages: 1 -->
<svg width="1014pt" height="48pt"
 viewBox="0.00 0.00 1014.00 48.00" xmlns="http://www.w3.org/2000/svg" xmlns:xlink="http://www.w3.org/1999/xlink">
<g id="graph0" class="graph" transform="scale(1 1) rotate(0) translate(4 44)">
<title>viewcontroller.commands.CommandWindowContainerViewController.loadScript</title>
<polygon fill="white" stroke="none" points="-4,4 -4,-44 1010,-44 1010,4 -4,4"/>
<!-- Node1 -->
<g id="node1" class="node"><title>Node1</title>
<polygon fill="#bfbfbf" stroke="black" points="0.5,0.5 0.5,-40.5 239.5,-40.5 239.5,0.5 0.5,0.5"/>
<text text-anchor="start" x="8.5" y="-28.5" font-family="Helvetica,sans-Serif" font-size="10.00">viewcontroller.commands.</text>
<text text-anchor="start" x="8.5" y="-17.5" font-family="Helvetica,sans-Serif" font-size="10.00">CommandWindowContainerViewController.load</text>
<text text-anchor="middle" x="120" y="-6.5" font-family="Helvetica,sans-Serif" font-size="10.00">Script</text>
</g>
<!-- Node2 -->
<g id="node2" class="node"><title>Node2</title>
<g id="a_node2"><a xlink:href="../../d3/d67/classviewcontroller_1_1_main_view_controller.html#a29ed3b9e1441359bc7ffb6eea450c7e9" target="_top" xlink:title="viewcontroller.MainViewController.load\lScript">
<polygon fill="white" stroke="black" points="276.5,-5 276.5,-35 473.5,-35 473.5,-5 276.5,-5"/>
<text text-anchor="start" x="284.5" y="-23" font-family="Helvetica,sans-Serif" font-size="10.00">viewcontroller.MainViewController.load</text>
<text text-anchor="middle" x="375" y="-12" font-family="Helvetica,sans-Serif" font-size="10.00">Script</text>
</a>
</g>
</g>
<!-- Node1&#45;&gt;Node2 -->
<g id="edge1" class="edge"><title>Node1&#45;&gt;Node2</title>
<path fill="none" stroke="midnightblue" d="M249.739,-20C258.614,-20 267.475,-20 276.146,-20"/>
<polygon fill="midnightblue" stroke="midnightblue" points="249.722,-16.5001 239.722,-20 249.722,-23.5001 249.722,-16.5001"/>
</g>
<!-- Node3 -->
<g id="node3" class="node"><title>Node3</title>
<g id="a_node3"><a xlink:href="../../da/d4e/classviewcontroller_1_1_view.html#a1f7ce4457b38e302cf3a052c8d36a7a6" target="_top" xlink:title="viewcontroller.View.loadFile">
<polygon fill="white" stroke="black" points="510.5,-10.5 510.5,-29.5 653.5,-29.5 653.5,-10.5 510.5,-10.5"/>
<text text-anchor="middle" x="582" y="-17.5" font-family="Helvetica,sans-Serif" font-size="10.00">viewcontroller.View.loadFile</text>
</a>
</g>
</g>
<!-- Node2&#45;&gt;Node3 -->
<g id="edge2" class="edge"><title>Node2&#45;&gt;Node3</title>
<path fill="none" stroke="midnightblue" d="M483.854,-20C492.843,-20 501.777,-20 510.379,-20"/>
<polygon fill="midnightblue" stroke="midnightblue" points="483.697,-16.5001 473.697,-20 483.697,-23.5001 483.697,-16.5001"/>
</g>
<!-- Node4 -->
<g id="node4" class="node"><title>Node4</title>
<g id="a_node4"><a xlink:href="../../df/df9/classviewcontroller_1_1_s_logo_menu_bar.html#aea535ae86d7ac7a2fffe549d7bdf2a1d" target="_top" xlink:title="viewcontroller.SLogoMenu\lBar.initializeFileMenu">
<polygon fill="white" stroke="black" points="690,-5 690,-35 830,-35 830,-5 690,-5"/>
<text text-anchor="start" x="698" y="-23" font-family="Helvetica,sans-Serif" font-size="10.00">viewcontroller.SLogoMenu</text>
<text text-anchor="middle" x="760" y="-12" font-family="Helvetica,sans-Serif" font-size="10.00">Bar.initializeFileMenu</text>
</a>
</g>
</g>
<!-- Node3&#45;&gt;Node4 -->
<g id="edge3" class="edge"><title>Node3&#45;&gt;Node4</title>
<path fill="none" stroke="midnightblue" d="M663.744,-20C672.463,-20 681.279,-20 689.845,-20"/>
<polygon fill="midnightblue" stroke="midnightblue" points="663.572,-16.5001 653.572,-20 663.572,-23.5001 663.572,-16.5001"/>
</g>
<!-- Node5 -->
<g id="node5" class="node"><title>Node5</title>
<g id="a_node5"><a xlink:href="../../df/df9/classviewcontroller_1_1_s_logo_menu_bar.html#a75b45d0a4b08de5ff8588fc15b2f14fe" target="_top" xlink:title="viewcontroller.SLogoMenu\lBar.SLogoMenuBar">
<polygon fill="white" stroke="black" points="866,-5 866,-35 1006,-35 1006,-5 866,-5"/>
<text text-anchor="start" x="874" y="-23" font-family="Helvetica,sans-Serif" font-size="10.00">viewcontroller.SLogoMenu</text>
<text text-anchor="middle" x="936" y="-12" font-family="Helvetica,sans-Serif" font-size="10.00">Bar.SLogoMenuBar</text>
</a>
</g>
</g>
<!-- Node4&#45;&gt;Node5 -->
<g id="edge4" class="edge"><title>Node4&#45;&gt;Node5</title>
<path fill="none" stroke="midnightblue" d="M840.035,-20C848.625,-20 857.319,-20 865.779,-20"/>
<polygon fill="midnightblue" stroke="midnightblue" points="840.019,-16.5001 830.019,-20 840.019,-23.5001 840.019,-16.5001"/>
</g>
</g>
</svg>
