<?xml version="1.0" encoding="UTF-8" standalone="no"?>
<!DOCTYPE svg PUBLIC "-//W3C//DTD SVG 1.1//EN"
 "http://www.w3.org/Graphics/SVG/1.1/DTD/svg11.dtd">
<!-- Generated by graphviz version 2.36.0 (20140111.2315)
 -->
<!-- Title: interpreter.CommandReferenceLibrary Pages: 1 -->
<!--zoomable 341 -->
<svg id="main" version="1.1" xmlns="http://www.w3.org/2000/svg" xmlns:xlink="http://www.w3.org/1999/xlink" xml:space="preserve" onload="init(evt)">
<style type="text/css"><![CDATA[
.edge:hover path { stroke: red; }
.edge:hover polygon { stroke: red; fill: red; }
]]></style>
<script type="text/javascript"><![CDATA[
var edges = document.getElementsByTagName('g');
if (edges && edges.length) {
  for (var i=0;i<edges.length;i++) {
    if (edges[i].id.substr(0,4)=='edge') {
      edges[i].setAttribute('class','edge');
    }
  }
}
]]></script>
        <defs>
                <circle id="rim" cx="0" cy="0" r="7"/>
                <circle id="rim2" cx="0" cy="0" r="3.5"/>
                <g id="zoomPlus">
                        <use xlink:href="#rim" fill="#404040">
                                <set attributeName="fill" to="#808080" begin="zoomplus.mouseover" end="zoomplus.mouseout"/>
                        </use>
                        <path d="M-4,0h8M0,-4v8" fill="none" stroke="white" stroke-width="1.5" pointer-events="none"/>
                </g>
                <g id="zoomMin">
                        <use xlink:href="#rim" fill="#404040">
                                <set attributeName="fill" to="#808080" begin="zoomminus.mouseover" end="zoomminus.mouseout"/>
                        </use>
                        <path d="M-4,0h8" fill="none" stroke="white" stroke-width="1.5" pointer-events="none"/>
                </g>
                <g id="dirArrow">
                        <path fill="none" stroke="white" stroke-width="1.5" d="M0,-3.0v7 M-2.5,-0.5L0,-3.0L2.5,-0.5"/>
                </g>
               <g id="resetDef">
                       <use xlink:href="#rim2" fill="#404040">
                               <set attributeName="fill" to="#808080" begin="reset.mouseover" end="reset.mouseout"/>
                       </use>
               </g>
        </defs>

<script type="text/javascript">
var viewWidth = 898;
var viewHeight = 341;
var sectionId = 'dynsection-0';
</script>
<script xlink:href="../../svgpan.js"/>
<svg id="graph" class="graph">
<g id="viewport">
<title>interpreter.CommandReferenceLibrary</title>
<polygon fill="white" stroke="none" points="-4,4 -4,-337.285 894,-337.285 894,4 -4,4"/>
<!-- Node1 -->
<g id="node1" class="node"><title>Node1</title>
<polygon fill="#bfbfbf" stroke="black" points="722.5,-131.285 722.5,-161.285 889.5,-161.285 889.5,-131.285 722.5,-131.285"/>
<text text-anchor="start" x="730.5" y="-149.285" font-family="Helvetica,sans-Serif" font-size="10.00">interpreter.CommandReference</text>
<text text-anchor="middle" x="806" y="-138.285" font-family="Helvetica,sans-Serif" font-size="10.00">Library</text>
</g>
<!-- Node2 -->
<g id="node2" class="node"><title>Node2</title>
<g id="a_node2"><a xlink:href="../../da/dee/classmodel_1_1_user_defined_commands_model.html" target="_top" xlink:title="model.UserDefinedCommands\lModel">
<polygon fill="white" stroke="black" points="378,-249.285 378,-279.285 542,-279.285 542,-249.285 378,-249.285"/>
<text text-anchor="start" x="386" y="-267.285" font-family="Helvetica,sans-Serif" font-size="10.00">model.UserDefinedCommands</text>
<text text-anchor="middle" x="460" y="-256.285" font-family="Helvetica,sans-Serif" font-size="10.00">Model</text>
</a>
</g>
</g>
<!-- Node2&#45;&gt;Node1 -->
<g id="edge1" class="edge"><title>Node2&#45;&gt;Node1</title>
<path fill="none" stroke="#9a32cd" stroke-dasharray="5,2" d="M552.453,-267.819C599.569,-266.398 656.866,-259.487 704,-238.285 742.72,-220.869 776.672,-182.829 793.593,-161.521"/>
<polygon fill="#9a32cd" stroke="#9a32cd" points="552.173,-264.324 542.254,-268.046 552.329,-271.323 552.173,-264.324"/>
<text text-anchor="middle" x="632" y="-270.285" font-family="Helvetica,sans-Serif" font-size="10.00"> myDefinedCommands</text>
</g>
<!-- Node3 -->
<g id="node3" class="node"><title>Node3</title>
<polygon fill="white" stroke="#bfbfbf" points="60.5,-208.785 60.5,-227.785 131.5,-227.785 131.5,-208.785 60.5,-208.785"/>
<text text-anchor="middle" x="96" y="-215.785" font-family="Helvetica,sans-Serif" font-size="10.00">Serializable</text>
</g>
<!-- Node3&#45;&gt;Node2 -->
<g id="edge2" class="edge"><title>Node3&#45;&gt;Node2</title>
<path fill="none" stroke="midnightblue" d="M141.798,-223.978C200.63,-231.454 304.987,-244.715 377.88,-253.977"/>
<polygon fill="midnightblue" stroke="midnightblue" points="142.072,-220.485 131.71,-222.696 141.189,-227.429 142.072,-220.485"/>
</g>
<!-- Node9 -->
<g id="node9" class="node"><title>Node9</title>
<g id="a_node9"><a xlink:href="../../df/d55/classmodel_1_1_user_defined_variables_model.html" target="_top" xlink:title="model.UserDefinedVariables\lModel">
<polygon fill="white" stroke="black" points="384,-196.285 384,-226.285 536,-226.285 536,-196.285 384,-196.285"/>
<text text-anchor="start" x="392" y="-214.285" font-family="Helvetica,sans-Serif" font-size="10.00">model.UserDefinedVariables</text>
<text text-anchor="middle" x="460" y="-203.285" font-family="Helvetica,sans-Serif" font-size="10.00">Model</text>
</a>
</g>
</g>
<!-- Node3&#45;&gt;Node9 -->
<g id="edge10" class="edge"><title>Node3&#45;&gt;Node9</title>
<path fill="none" stroke="midnightblue" d="M142.082,-217.414C202.636,-216.243 311.051,-214.146 383.999,-212.736"/>
<polygon fill="midnightblue" stroke="midnightblue" points="141.641,-213.921 131.71,-217.614 141.776,-220.92 141.641,-213.921"/>
</g>
<!-- Node4 -->
<g id="node4" class="node"><title>Node4</title>
<polygon fill="white" stroke="#bfbfbf" points="42.5,-303.285 42.5,-333.285 149.5,-333.285 149.5,-303.285 42.5,-303.285"/>
<text text-anchor="start" x="50.5" y="-321.285" font-family="Helvetica,sans-Serif" font-size="10.00">Map&lt; String, List&lt;</text>
<text text-anchor="middle" x="96" y="-310.285" font-family="Helvetica,sans-Serif" font-size="10.00"> String &gt; &gt;</text>
</g>
<!-- Node4&#45;&gt;Node2 -->
<g id="edge3" class="edge"><title>Node4&#45;&gt;Node2</title>
<path fill="none" stroke="#9a32cd" stroke-dasharray="5,2" d="M159.736,-310.483C213.091,-303.66 291.697,-293.164 360,-282.285 365.866,-281.351 371.919,-280.348 378.008,-279.31"/>
<polygon fill="#9a32cd" stroke="#9a32cd" points="159.221,-307.021 149.744,-311.756 160.106,-313.964 159.221,-307.021"/>
<text text-anchor="middle" x="285" y="-306.285" font-family="Helvetica,sans-Serif" font-size="10.00"> myDefinedCommandVariables</text>
</g>
<!-- Node5 -->
<g id="node5" class="node"><title>Node5</title>
<polygon fill="white" stroke="#bfbfbf" points="54,-141.785 54,-160.785 138,-160.785 138,-141.785 54,-141.785"/>
<text text-anchor="middle" x="96" y="-148.785" font-family="Helvetica,sans-Serif" font-size="10.00">Set&lt; String &gt;</text>
</g>
<!-- Node5&#45;&gt;Node1 -->
<g id="edge8" class="edge"><title>Node5&#45;&gt;Node1</title>
<path fill="none" stroke="#9a32cd" stroke-dasharray="5,2" d="M140.366,-139.06C161.322,-133.335 186.884,-126.618 210,-121.285 354.488,-87.9526 394.51,-72.9748 542,-88.2854 616.411,-96.0098 700.543,-116.735 753.177,-131.193"/>
<polygon fill="#9a32cd" stroke="#9a32cd" points="139.192,-135.753 130.479,-141.78 141.049,-142.502 139.192,-135.753"/>
<text text-anchor="middle" x="460" y="-102.285" font-family="Helvetica,sans-Serif" font-size="10.00"> myCommandSet</text>
<text text-anchor="middle" x="460" y="-91.2854" font-family="Helvetica,sans-Serif" font-size="10.00">myDirectorySet</text>
</g>
<!-- Node5&#45;&gt;Node2 -->
<g id="edge4" class="edge"><title>Node5&#45;&gt;Node2</title>
<path fill="none" stroke="#9a32cd" stroke-dasharray="5,2" d="M148.323,-156.598C203.478,-164.022 292.33,-181.041 360,-218.285 369.64,-223.591 368.621,-229.531 378,-235.285 386.912,-240.753 397.006,-245.399 406.97,-249.264"/>
<polygon fill="#9a32cd" stroke="#9a32cd" points="148.459,-153.086 138.093,-155.279 147.564,-160.029 148.459,-153.086"/>
<text text-anchor="middle" x="285" y="-221.285" font-family="Helvetica,sans-Serif" font-size="10.00"> myCommands</text>
</g>
<!-- Node5&#45;&gt;Node9 -->
<g id="edge11" class="edge"><title>Node5&#45;&gt;Node9</title>
<path fill="none" stroke="#9a32cd" stroke-dasharray="5,2" d="M138.253,-139.237C193.191,-125.751 291.4,-110.805 360,-152.285 374.631,-161.133 364.831,-175.38 378,-186.285 382.647,-190.134 387.884,-193.391 393.401,-196.147"/>
<polygon fill="#9a32cd" stroke="#9a32cd" points="137.338,-135.858 128.515,-141.724 139.07,-142.64 137.338,-135.858"/>
<text text-anchor="middle" x="285" y="-155.285" font-family="Helvetica,sans-Serif" font-size="10.00"> myVariables</text>
</g>
<!-- Node6 -->
<g id="node6" class="node"><title>Node6</title>
<polygon fill="white" stroke="#bfbfbf" points="0.5,-254.285 0.5,-284.285 191.5,-284.285 191.5,-254.285 0.5,-254.285"/>
<text text-anchor="start" x="8.5" y="-272.285" font-family="Helvetica,sans-Serif" font-size="10.00">Map&lt; String, interpreter.expression.</text>
<text text-anchor="middle" x="96" y="-261.285" font-family="Helvetica,sans-Serif" font-size="10.00">SLogoExpression &gt;</text>
</g>
<!-- Node6&#45;&gt;Node2 -->
<g id="edge5" class="edge"><title>Node6&#45;&gt;Node2</title>
<path fill="none" stroke="#9a32cd" stroke-dasharray="5,2" d="M201.953,-267.836C257.97,-267.062 325.865,-266.124 377.806,-265.407"/>
<polygon fill="#9a32cd" stroke="#9a32cd" points="201.589,-264.34 191.638,-267.978 201.686,-271.34 201.589,-264.34"/>
<text text-anchor="middle" x="285" y="-270.285" font-family="Helvetica,sans-Serif" font-size="10.00"> myDefinedCommands</text>
</g>
<!-- Node7 -->
<g id="node7" class="node"><title>Node7</title>
<polygon fill="white" stroke="#bfbfbf" points="413.5,-157.785 413.5,-176.785 506.5,-176.785 506.5,-157.785 413.5,-157.785"/>
<text text-anchor="middle" x="460" y="-164.785" font-family="Helvetica,sans-Serif" font-size="10.00">ResourceBundle</text>
</g>
<!-- Node7&#45;&gt;Node1 -->
<g id="edge6" class="edge"><title>Node7&#45;&gt;Node1</title>
<path fill="none" stroke="#9a32cd" stroke-dasharray="5,2" d="M516.716,-163.884C572.437,-160.483 658.779,-155.212 722.456,-151.324"/>
<polygon fill="#9a32cd" stroke="#9a32cd" points="516.449,-160.394 506.681,-164.497 516.875,-167.381 516.449,-160.394"/>
<text text-anchor="middle" x="632" y="-197.285" font-family="Helvetica,sans-Serif" font-size="10.00"> myCommandReference</text>
<text text-anchor="middle" x="632" y="-186.285" font-family="Helvetica,sans-Serif" font-size="10.00">myDirectoryListing</text>
<text text-anchor="middle" x="632" y="-175.285" font-family="Helvetica,sans-Serif" font-size="10.00">myNumberArguments</text>
<text text-anchor="middle" x="632" y="-164.285" font-family="Helvetica,sans-Serif" font-size="10.00">mySyntaxReference</text>
</g>
<!-- Node8 -->
<g id="node8" class="node"><title>Node8</title>
<polygon fill="white" stroke="#bfbfbf" points="396,-119.785 396,-138.785 524,-138.785 524,-119.785 396,-119.785"/>
<text text-anchor="middle" x="460" y="-126.785" font-family="Helvetica,sans-Serif" font-size="10.00">Map&lt; String, Integer &gt;</text>
</g>
<!-- Node8&#45;&gt;Node1 -->
<g id="edge7" class="edge"><title>Node8&#45;&gt;Node1</title>
<path fill="none" stroke="#9a32cd" stroke-dasharray="5,2" d="M534.098,-126.679C582.405,-125.672 647.075,-125.687 704,-130.285 710.017,-130.771 716.217,-131.411 722.445,-132.154"/>
<polygon fill="#9a32cd" stroke="#9a32cd" points="533.965,-123.181 524.047,-126.908 534.125,-130.179 533.965,-123.181"/>
<text text-anchor="middle" x="632" y="-133.285" font-family="Helvetica,sans-Serif" font-size="10.00"> myCommandToNumArgsMap</text>
</g>
<!-- Node9&#45;&gt;Node1 -->
<g id="edge9" class="edge"><title>Node9&#45;&gt;Node1</title>
<path fill="none" stroke="#9a32cd" stroke-dasharray="5,2" d="M546.361,-221.204C593.704,-224.001 653.118,-222.996 704,-208.285 736.02,-199.028 767.96,-176.659 787.099,-161.48"/>
<polygon fill="#9a32cd" stroke="#9a32cd" points="546.351,-217.696 536.143,-220.531 545.891,-224.681 546.351,-217.696"/>
<text text-anchor="middle" x="632" y="-226.285" font-family="Helvetica,sans-Serif" font-size="10.00"> myDefinedVariables</text>
</g>
<!-- Node10 -->
<g id="node10" class="node"><title>Node10</title>
<polygon fill="white" stroke="#bfbfbf" points="32,-43.7854 32,-62.7854 160,-62.7854 160,-43.7854 32,-43.7854"/>
<text text-anchor="middle" x="96" y="-50.7854" font-family="Helvetica,sans-Serif" font-size="10.00">Map&lt; String, Double &gt;</text>
</g>
<!-- Node10&#45;&gt;Node9 -->
<g id="edge12" class="edge"><title>Node10&#45;&gt;Node9</title>
<path fill="none" stroke="#9a32cd" stroke-dasharray="5,2" d="M170.24,-49.2826C229.233,-50.2051 310.267,-61.4947 360,-110.285 384.779,-134.595 354.288,-160.934 378,-186.285 381.619,-190.155 385.822,-193.43 390.373,-196.202"/>
<polygon fill="#9a32cd" stroke="#9a32cd" points="170.254,-45.7827 160.233,-49.2213 170.211,-52.7826 170.254,-45.7827"/>
<text text-anchor="middle" x="285" y="-113.285" font-family="Helvetica,sans-Serif" font-size="10.00"> myDefinedVariables</text>
</g>
<!-- Node11 -->
<g id="node11" class="node"><title>Node11</title>
<polygon fill="white" stroke="#bfbfbf" points="399,-10.7854 399,-29.7854 521,-29.7854 521,-10.7854 399,-10.7854"/>
<text text-anchor="middle" x="460" y="-17.7854" font-family="Helvetica,sans-Serif" font-size="10.00">Map&lt; String, String &gt;</text>
</g>
<!-- Node11&#45;&gt;Node1 -->
<g id="edge13" class="edge"><title>Node11&#45;&gt;Node1</title>
<path fill="none" stroke="#9a32cd" stroke-dasharray="5,2" d="M509.567,-8.76287C560.66,0.766963 642.091,8.44105 704,-21.2854 752.29,-44.4726 784.957,-103.192 798.273,-131.102"/>
<polygon fill="#9a32cd" stroke="#9a32cd" points="508.594,-5.38696 499.455,-10.7473 509.942,-12.2559 508.594,-5.38696"/>
<text text-anchor="middle" x="632" y="-57.2854" font-family="Helvetica,sans-Serif" font-size="10.00"> myReverseSyntaxMap</text>
<text text-anchor="middle" x="632" y="-46.2854" font-family="Helvetica,sans-Serif" font-size="10.00">myCommandToDirectoryMap</text>
<text text-anchor="middle" x="632" y="-35.2854" font-family="Helvetica,sans-Serif" font-size="10.00">mySyntaxMap</text>
<text text-anchor="middle" x="632" y="-24.2854" font-family="Helvetica,sans-Serif" font-size="10.00">myReferenceToCommandMap</text>
</g>
</g>
</svg>
        <g id="navigator" transform="translate(0 0)" fill="#404254">
                <rect fill="#f2f5e9" fill-opacity="0.5" stroke="#606060" stroke-width=".5" x="0" y="0" width="60" height="60"/>
                <use id="zoomplus" xlink:href="#zoomPlus" x="17" y="9" onmousedown="handleZoom(evt,'in')"/>
                <use id="zoomminus" xlink:href="#zoomMin" x="42" y="9" onmousedown="handleZoom(evt,'out')"/>
                <use id="reset" xlink:href="#resetDef" x="30" y="36" onmousedown="handleReset()"/>
                <g id="arrowUp" xlink:href="#dirArrow" transform="translate(30 24)" onmousedown="handlePan(0,-1)">
                  <use xlink:href="#rim" fill="#404040">
                        <set attributeName="fill" to="#808080" begin="arrowUp.mouseover" end="arrowUp.mouseout"/>
                  </use>
                  <path fill="none" stroke="white" stroke-width="1.5" d="M0,-3.0v7 M-2.5,-0.5L0,-3.0L2.5,-0.5"/>
                </g>
                <g id="arrowRight" xlink:href="#dirArrow" transform="rotate(90) translate(36 -43)" onmousedown="handlePan(1,0)">
                  <use xlink:href="#rim" fill="#404040">
                        <set attributeName="fill" to="#808080" begin="arrowRight.mouseover" end="arrowRight.mouseout"/>
                  </use>
                  <path fill="none" stroke="white" stroke-width="1.5" d="M0,-3.0v7 M-2.5,-0.5L0,-3.0L2.5,-0.5"/>
                </g>
                <g id="arrowDown" xlink:href="#dirArrow" transform="rotate(180) translate(-30 -48)" onmousedown="handlePan(0,1)">
                  <use xlink:href="#rim" fill="#404040">
                        <set attributeName="fill" to="#808080" begin="arrowDown.mouseover" end="arrowDown.mouseout"/>
                  </use>
                  <path fill="none" stroke="white" stroke-width="1.5" d="M0,-3.0v7 M-2.5,-0.5L0,-3.0L2.5,-0.5"/>
                </g>
                <g id="arrowLeft" xlink:href="#dirArrow" transform="rotate(270) translate(-36 17)" onmousedown="handlePan(-1,0)">
                  <use xlink:href="#rim" fill="#404040">
                        <set attributeName="fill" to="#808080" begin="arrowLeft.mouseover" end="arrowLeft.mouseout"/>
                  </use>
                  <path fill="none" stroke="white" stroke-width="1.5" d="M0,-3.0v7 M-2.5,-0.5L0,-3.0L2.5,-0.5"/>
                </g>
        </g>
        <svg viewBox="0 0 15 15" width="100%" height="30px" preserveAspectRatio="xMaxYMin meet">
         <g id="arrow_out" transform="scale(0.3 0.3)">
          <a xlink:href="classinterpreter_1_1_command_reference_library__coll__graph_org.svg" target="_base">
           <rect id="button" ry="5" rx="5" y="6" x="6" height="38" width="38"
                fill="#f2f5e9" fill-opacity="0.5" stroke="#606060" stroke-width="1.0"/>
           <path id="arrow"
             d="M 11.500037,31.436501 C 11.940474,20.09759 22.043105,11.32322 32.158766,21.979434 L 37.068811,17.246167 C 37.068811,17.246167 37.088388,32 37.088388,32 L 22.160133,31.978069 C 22.160133,31.978069 26.997745,27.140456 26.997745,27.140456 C 18.528582,18.264221 13.291696,25.230495 11.500037,31.436501 z"
             style="fill:#404040;"/>
          </a>
         </g>
        </svg>
</svg>
