<?xml version="1.0" encoding="UTF-8" standalone="no"?>
<!DOCTYPE svg PUBLIC "-//W3C//DTD SVG 1.1//EN"
 "http://www.w3.org/Graphics/SVG/1.1/DTD/svg11.dtd">
<!-- Generated by graphviz version 2.36.0 (20140111.2315)
 -->
<!-- Title: interpreter.expression.syntax.Command.evaluate Pages: 1 -->
<svg width="374pt" height="430pt"
 viewBox="0.00 0.00 374.00 430.00" xmlns="http://www.w3.org/2000/svg" xmlns:xlink="http://www.w3.org/1999/xlink">
<g id="graph0" class="graph" transform="scale(1 1) rotate(0) translate(4 426)">
<title>interpreter.expression.syntax.Command.evaluate</title>
<polygon fill="white" stroke="none" points="-4,4 -4,-426 370,-426 370,4 -4,4"/>
<!-- Node1 -->
<g id="node1" class="node"><title>Node1</title>
<polygon fill="#bfbfbf" stroke="black" points="0.5,-196 0.5,-226 159.5,-226 159.5,-196 0.5,-196"/>
<text text-anchor="start" x="8.5" y="-214" font-family="Helvetica,sans-Serif" font-size="10.00">interpreter.expression.syntax.</text>
<text text-anchor="middle" x="80" y="-203" font-family="Helvetica,sans-Serif" font-size="10.00">Command.evaluate</text>
</g>
<!-- Node2 -->
<g id="node2" class="node"><title>Node2</title>
<g id="a_node2"><a xlink:href="../../da/dee/classmodel_1_1_user_defined_commands_model.html#a1ad7aee8eccad4edf52ea5ce9640705e" target="_top" xlink:title="model.UserDefinedCommands\lModel.containsCommand">
<polygon fill="white" stroke="black" points="199,-392 199,-422 363,-422 363,-392 199,-392"/>
<text text-anchor="start" x="207" y="-410" font-family="Helvetica,sans-Serif" font-size="10.00">model.UserDefinedCommands</text>
<text text-anchor="middle" x="281" y="-399" font-family="Helvetica,sans-Serif" font-size="10.00">Model.containsCommand</text>
</a>
</g>
</g>
<!-- Node1&#45;&gt;Node2 -->
<g id="edge1" class="edge"><title>Node1&#45;&gt;Node2</title>
<path fill="none" stroke="midnightblue" d="M86.9294,-226.133C100.778,-259.488 138.497,-339.719 196,-382 198.636,-383.938 201.421,-385.727 204.312,-387.378"/>
<polygon fill="midnightblue" stroke="midnightblue" points="202.761,-390.515 213.261,-391.928 205.934,-384.276 202.761,-390.515"/>
</g>
<!-- Node3 -->
<g id="node3" class="node"><title>Node3</title>
<g id="a_node3"><a xlink:href="../../db/d09/interfaceinterpreter_1_1expression_1_1_s_logo_expression.html#a33b4dd877541ab4da1b4bbe087925a15" target="_top" xlink:title="interpreter.expression.SLogo\lExpression.evaluate">
<polygon fill="white" stroke="black" points="203.5,-343 203.5,-373 358.5,-373 358.5,-343 203.5,-343"/>
<text text-anchor="start" x="211.5" y="-361" font-family="Helvetica,sans-Serif" font-size="10.00">interpreter.expression.SLogo</text>
<text text-anchor="middle" x="281" y="-350" font-family="Helvetica,sans-Serif" font-size="10.00">Expression.evaluate</text>
</a>
</g>
</g>
<!-- Node1&#45;&gt;Node3 -->
<g id="edge2" class="edge"><title>Node1&#45;&gt;Node3</title>
<path fill="none" stroke="midnightblue" d="M91.1695,-226.176C109.228,-251.958 149.409,-304.3 196,-333 199.401,-335.095 202.987,-337.023 206.686,-338.796"/>
<polygon fill="midnightblue" stroke="midnightblue" points="205.502,-342.099 216.067,-342.893 208.304,-335.684 205.502,-342.099"/>
</g>
<!-- Node4 -->
<g id="node4" class="node"><title>Node4</title>
<g id="a_node4"><a xlink:href="../../da/dee/classmodel_1_1_user_defined_commands_model.html#aa6a9405fc5a57f113e533dc417ff793c" target="_top" xlink:title="model.UserDefinedCommands\lModel.getCommand">
<polygon fill="white" stroke="black" points="199,-294 199,-324 363,-324 363,-294 199,-294"/>
<text text-anchor="start" x="207" y="-312" font-family="Helvetica,sans-Serif" font-size="10.00">model.UserDefinedCommands</text>
<text text-anchor="middle" x="281" y="-301" font-family="Helvetica,sans-Serif" font-size="10.00">Model.getCommand</text>
</a>
</g>
</g>
<!-- Node1&#45;&gt;Node4 -->
<g id="edge3" class="edge"><title>Node1&#45;&gt;Node4</title>
<path fill="none" stroke="midnightblue" d="M101.207,-226.279C123.437,-242.485 160.706,-267.923 196,-284 201.234,-286.384 206.753,-288.609 212.359,-290.67"/>
<polygon fill="midnightblue" stroke="midnightblue" points="211.247,-293.989 221.842,-293.983 213.556,-287.381 211.247,-293.989"/>
</g>
<!-- Node5 -->
<g id="node5" class="node"><title>Node5</title>
<g id="a_node5"><a xlink:href="../../df/df6/classinterpreter_1_1result_1_1_s_logo_result.html#a11062748597af4f6622d9cbc92d4d9c0" target="_top" xlink:title="interpreter.result.SLogo\lResult.getTransition">
<polygon fill="white" stroke="black" points="216,-245 216,-275 346,-275 346,-245 216,-245"/>
<text text-anchor="start" x="224" y="-263" font-family="Helvetica,sans-Serif" font-size="10.00">interpreter.result.SLogo</text>
<text text-anchor="middle" x="281" y="-252" font-family="Helvetica,sans-Serif" font-size="10.00">Result.getTransition</text>
</a>
</g>
</g>
<!-- Node1&#45;&gt;Node5 -->
<g id="edge4" class="edge"><title>Node1&#45;&gt;Node5</title>
<path fill="none" stroke="midnightblue" d="M142.059,-226.035C163.262,-231.255 187.216,-237.154 209.142,-242.553"/>
<polygon fill="midnightblue" stroke="midnightblue" points="208.51,-246.001 219.057,-244.994 210.183,-239.204 208.51,-246.001"/>
</g>
<!-- Node6 -->
<g id="node6" class="node"><title>Node6</title>
<g id="a_node6"><a xlink:href="../../d5/d09/classinterpreter_1_1_command_reference_library.html#a342d174c5d09ce98ba6313d032030131" target="_top" xlink:title="interpreter.CommandReference\lLibrary.getUserDefinedVariables">
<polygon fill="white" stroke="black" points="196.5,-196 196.5,-226 365.5,-226 365.5,-196 196.5,-196"/>
<text text-anchor="start" x="204.5" y="-214" font-family="Helvetica,sans-Serif" font-size="10.00">interpreter.CommandReference</text>
<text text-anchor="middle" x="281" y="-203" font-family="Helvetica,sans-Serif" font-size="10.00">Library.getUserDefinedVariables</text>
</a>
</g>
</g>
<!-- Node1&#45;&gt;Node6 -->
<g id="edge5" class="edge"><title>Node1&#45;&gt;Node6</title>
<path fill="none" stroke="midnightblue" d="M159.65,-211C168.412,-211 177.399,-211 186.324,-211"/>
<polygon fill="midnightblue" stroke="midnightblue" points="186.359,-214.5 196.358,-211 186.358,-207.5 186.359,-214.5"/>
</g>
<!-- Node7 -->
<g id="node7" class="node"><title>Node7</title>
<g id="a_node7"><a xlink:href="../../df/df6/classinterpreter_1_1result_1_1_s_logo_result.html#a7e050bbb65d7c7eb5e9b9970c6e2616f" target="_top" xlink:title="interpreter.result.SLogo\lResult.getValue">
<polygon fill="white" stroke="black" points="216,-147 216,-177 346,-177 346,-147 216,-147"/>
<text text-anchor="start" x="224" y="-165" font-family="Helvetica,sans-Serif" font-size="10.00">interpreter.result.SLogo</text>
<text text-anchor="middle" x="281" y="-154" font-family="Helvetica,sans-Serif" font-size="10.00">Result.getValue</text>
</a>
</g>
</g>
<!-- Node1&#45;&gt;Node7 -->
<g id="edge6" class="edge"><title>Node1&#45;&gt;Node7</title>
<path fill="none" stroke="midnightblue" d="M142.059,-195.965C163.262,-190.745 187.216,-184.846 209.142,-179.447"/>
<polygon fill="midnightblue" stroke="midnightblue" points="210.183,-182.796 219.057,-177.006 208.51,-175.999 210.183,-182.796"/>
</g>
<!-- Node8 -->
<g id="node8" class="node"><title>Node8</title>
<g id="a_node8"><a xlink:href="../../df/d55/classmodel_1_1_user_defined_variables_model.html#aed273935a6c1c03e6904abf47febb3b9" target="_top" xlink:title="model.UserDefinedVariables\lModel.putVariable">
<polygon fill="white" stroke="black" points="205,-98 205,-128 357,-128 357,-98 205,-98"/>
<text text-anchor="start" x="213" y="-116" font-family="Helvetica,sans-Serif" font-size="10.00">model.UserDefinedVariables</text>
<text text-anchor="middle" x="281" y="-105" font-family="Helvetica,sans-Serif" font-size="10.00">Model.putVariable</text>
</a>
</g>
</g>
<!-- Node1&#45;&gt;Node8 -->
<g id="edge7" class="edge"><title>Node1&#45;&gt;Node8</title>
<path fill="none" stroke="midnightblue" d="M101.207,-195.721C123.437,-179.515 160.706,-154.077 196,-138 201.234,-135.616 206.753,-133.391 212.359,-131.33"/>
<polygon fill="midnightblue" stroke="midnightblue" points="213.556,-134.619 221.842,-128.017 211.247,-128.011 213.556,-134.619"/>
</g>
<!-- Node9 -->
<g id="node9" class="node"><title>Node9</title>
<g id="a_node9"><a xlink:href="../../df/d55/classmodel_1_1_user_defined_variables_model.html#aab223016325673e3b40cc589fe8a70d4" target="_top" xlink:title="model.UserDefinedVariables\lModel.remove">
<polygon fill="white" stroke="black" points="205,-49 205,-79 357,-79 357,-49 205,-49"/>
<text text-anchor="start" x="213" y="-67" font-family="Helvetica,sans-Serif" font-size="10.00">model.UserDefinedVariables</text>
<text text-anchor="middle" x="281" y="-56" font-family="Helvetica,sans-Serif" font-size="10.00">Model.remove</text>
</a>
</g>
</g>
<!-- Node1&#45;&gt;Node9 -->
<g id="edge8" class="edge"><title>Node1&#45;&gt;Node9</title>
<path fill="none" stroke="midnightblue" d="M91.1695,-195.824C109.228,-170.042 149.409,-117.7 196,-89 199.401,-86.9052 202.987,-84.9772 206.686,-83.2037"/>
<polygon fill="midnightblue" stroke="midnightblue" points="208.304,-86.3163 216.067,-79.1067 205.502,-79.9013 208.304,-86.3163"/>
</g>
<!-- Node10 -->
<g id="node10" class="node"><title>Node10</title>
<g id="a_node10"><a xlink:href="../../df/df6/classinterpreter_1_1result_1_1_s_logo_result.html#ade0879b3224a3216bf17e17e25bfd4ca" target="_top" xlink:title="interpreter.result.SLogo\lResult.setValue">
<polygon fill="white" stroke="black" points="216,-0 216,-30 346,-30 346,-0 216,-0"/>
<text text-anchor="start" x="224" y="-18" font-family="Helvetica,sans-Serif" font-size="10.00">interpreter.result.SLogo</text>
<text text-anchor="middle" x="281" y="-7" font-family="Helvetica,sans-Serif" font-size="10.00">Result.setValue</text>
</a>
</g>
</g>
<!-- Node1&#45;&gt;Node10 -->
<g id="edge9" class="edge"><title>Node1&#45;&gt;Node10</title>
<path fill="none" stroke="midnightblue" d="M86.9294,-195.867C100.778,-162.512 138.497,-82.2809 196,-40 199.379,-37.5157 203.004,-35.2765 206.783,-33.2585"/>
<polygon fill="midnightblue" stroke="midnightblue" points="208.317,-36.4043 215.836,-28.9399 205.304,-30.0863 208.317,-36.4043"/>
</g>
</g>
</svg>
