<?xml version="1.0" encoding="UTF-8" standalone="no"?>
<!DOCTYPE svg PUBLIC "-//W3C//DTD SVG 1.1//EN"
 "http://www.w3.org/Graphics/SVG/1.1/DTD/svg11.dtd">
<!-- Generated by graphviz version 2.36.0 (20140111.2315)
 -->
<!-- Title: application.NumberInputFormElement Pages: 1 -->
<svg width="285pt" height="108pt"
 viewBox="0.00 0.00 285.00 108.00" xmlns="http://www.w3.org/2000/svg" xmlns:xlink="http://www.w3.org/1999/xlink">
<g id="graph0" class="graph" transform="scale(1 1) rotate(0) translate(4 104)">
<title>application.NumberInputFormElement</title>
<polygon fill="white" stroke="none" points="-4,4 -4,-104 281,-104 281,4 -4,4"/>
<!-- Node1 -->
<g id="node1" class="node"><title>Node1</title>
<polygon fill="#bfbfbf" stroke="black" points="48.5,-1 48.5,-31 207.5,-31 207.5,-1 48.5,-1"/>
<text text-anchor="start" x="56.5" y="-19" font-family="Helvetica,sans-Serif" font-size="10.00">application.NumberInputForm</text>
<text text-anchor="middle" x="128" y="-8" font-family="Helvetica,sans-Serif" font-size="10.00">Element</text>
</g>
<!-- Node2 -->
<g id="node2" class="node"><title>Node2</title>
<polygon fill="white" stroke="#bfbfbf" points="0,-80.5 0,-99.5 42,-99.5 42,-80.5 0,-80.5"/>
<text text-anchor="middle" x="21" y="-87.5" font-family="Helvetica,sans-Serif" font-size="10.00">HBox</text>
</g>
<!-- Node2&#45;&gt;Node1 -->
<g id="edge1" class="edge"><title>Node2&#45;&gt;Node1</title>
<path fill="none" stroke="midnightblue" d="M42.1384,-74.7761C60.879,-62.1655 88.1062,-43.8444 106.85,-31.2316"/>
<polygon fill="midnightblue" stroke="midnightblue" points="40.0371,-71.9713 33.6945,-80.4579 43.945,-77.7789 40.0371,-71.9713"/>
</g>
<!-- Node3 -->
<g id="node3" class="node"><title>Node3</title>
<g id="a_node3"><a xlink:href="../../d0/d1b/interfaceapplication_1_1_form_element.html" target="_top" xlink:title="application.FormElement">
<polygon fill="white" stroke="black" points="60,-80.5 60,-99.5 196,-99.5 196,-80.5 60,-80.5"/>
<text text-anchor="middle" x="128" y="-87.5" font-family="Helvetica,sans-Serif" font-size="10.00">application.FormElement</text>
</a>
</g>
</g>
<!-- Node3&#45;&gt;Node1 -->
<g id="edge2" class="edge"><title>Node3&#45;&gt;Node1</title>
<path fill="none" stroke="midnightblue" d="M128,-70.0846C128,-57.9148 128,-42.3538 128,-31.2316"/>
<polygon fill="midnightblue" stroke="midnightblue" points="124.5,-70.4579 128,-80.4579 131.5,-70.4579 124.5,-70.4579"/>
</g>
<!-- Node4 -->
<g id="node4" class="node"><title>Node4</title>
<polygon fill="white" stroke="#bfbfbf" points="214,-80.5 214,-99.5 270,-99.5 270,-80.5 214,-80.5"/>
<text text-anchor="middle" x="242" y="-87.5" font-family="Helvetica,sans-Serif" font-size="10.00">TextField</text>
</g>
<!-- Node4&#45;&gt;Node1 -->
<g id="edge3" class="edge"><title>Node4&#45;&gt;Node1</title>
<path fill="none" stroke="#9a32cd" stroke-dasharray="5,2" d="M219.75,-74.9477C199.776,-62.3322 170.594,-43.9018 150.533,-31.2316"/>
<polygon fill="#9a32cd" stroke="#9a32cd" points="218.151,-78.0772 228.475,-80.4579 221.889,-72.1587 218.151,-78.0772"/>
<text text-anchor="middle" x="237.5" y="-53.5" font-family="Helvetica,sans-Serif" font-size="10.00"> myNumberField</text>
</g>
</g>
</svg>
