<?xml version="1.0" encoding="UTF-8" standalone="no"?>
<!DOCTYPE svg PUBLIC "-//W3C//DTD SVG 1.1//EN"
 "http://www.w3.org/Graphics/SVG/1.1/DTD/svg11.dtd">
<!-- Generated by graphviz version 2.36.0 (20140111.2315)
 -->
<!-- Title: interpreter.expression.UserDefinedExpression Pages: 1 -->
<!--zoomable 311 -->
<svg id="main" version="1.1" xmlns="http://www.w3.org/2000/svg" xmlns:xlink="http://www.w3.org/1999/xlink" xml:space="preserve" onload="init(evt)">
<style type="text/css"><![CDATA[
.edge:hover path { stroke: red; }
.edge:hover polygon { stroke: red; fill: red; }
]]></style>
<script type="text/javascript"><![CDATA[
var edges = document.getElementsByTagName('g');
if (edges && edges.length) {
  for (var i=0;i<edges.length;i++) {
    if (edges[i].id.substr(0,4)=='edge') {
      edges[i].setAttribute('class','edge');
    }
  }
}
]]></script>
        <defs>
                <circle id="rim" cx="0" cy="0" r="7"/>
                <circle id="rim2" cx="0" cy="0" r="3.5"/>
                <g id="zoomPlus">
                        <use xlink:href="#rim" fill="#404040">
                                <set attributeName="fill" to="#808080" begin="zoomplus.mouseover" end="zoomplus.mouseout"/>
                        </use>
                        <path d="M-4,0h8M0,-4v8" fill="none" stroke="white" stroke-width="1.5" pointer-events="none"/>
                </g>
                <g id="zoomMin">
                        <use xlink:href="#rim" fill="#404040">
                                <set attributeName="fill" to="#808080" begin="zoomminus.mouseover" end="zoomminus.mouseout"/>
                        </use>
                        <path d="M-4,0h8" fill="none" stroke="white" stroke-width="1.5" pointer-events="none"/>
                </g>
                <g id="dirArrow">
                        <path fill="none" stroke="white" stroke-width="1.5" d="M0,-3.0v7 M-2.5,-0.5L0,-3.0L2.5,-0.5"/>
                </g>
               <g id="resetDef">
                       <use xlink:href="#rim2" fill="#404040">
                               <set attributeName="fill" to="#808080" begin="reset.mouseover" end="reset.mouseout"/>
                       </use>
               </g>
        </defs>

<script type="text/javascript">
var viewWidth = 584;
var viewHeight = 311;
var sectionId = 'dynsection-0';
</script>
<script xlink:href="../../svgpan.js"/>
<svg id="graph" class="graph">
<g id="viewport">
<title>interpreter.expression.UserDefinedExpression</title>
<polygon fill="white" stroke="none" points="-4,4 -4,-307 580,-307 580,4 -4,4"/>
<!-- Node1 -->
<g id="node1" class="node"><title>Node1</title>
<polygon fill="#bfbfbf" stroke="black" points="192.5,-147 192.5,-177 339.5,-177 339.5,-147 192.5,-147"/>
<text text-anchor="start" x="200.5" y="-165" font-family="Helvetica,sans-Serif" font-size="10.00">interpreter.expression.User</text>
<text text-anchor="middle" x="266" y="-154" font-family="Helvetica,sans-Serif" font-size="10.00">DefinedExpression</text>
</g>
<!-- Node3 -->
<g id="node3" class="node"><title>Node3</title>
<g id="a_node3"><a xlink:href="../../da/d14/classinterpreter_1_1expression_1_1userdefined_1_1_do_times.html" target="_top" xlink:title="interpreter.expression.userdefined.\lDoTimes">
<polygon fill="white" stroke="black" points="384,-273 384,-303 568,-303 568,-273 384,-273"/>
<text text-anchor="start" x="392" y="-291" font-family="Helvetica,sans-Serif" font-size="10.00">interpreter.expression.userdefined.</text>
<text text-anchor="middle" x="476" y="-280" font-family="Helvetica,sans-Serif" font-size="10.00">DoTimes</text>
</a>
</g>
</g>
<!-- Node1&#45;&gt;Node3 -->
<g id="edge2" class="edge"><title>Node1&#45;&gt;Node3</title>
<path fill="none" stroke="midnightblue" d="M285.734,-185.129C305.71,-208.257 339.45,-243.159 376,-263 383.167,-266.89 390.954,-270.19 398.908,-272.985"/>
<polygon fill="midnightblue" stroke="midnightblue" points="288.149,-182.564 279.018,-177.191 282.805,-187.086 288.149,-182.564"/>
</g>
<!-- Node4 -->
<g id="node4" class="node"><title>Node4</title>
<g id="a_node4"><a xlink:href="../../dc/dd5/classinterpreter_1_1expression_1_1userdefined_1_1_for.html" target="_top" xlink:title="interpreter.expression.userdefined.For">
<polygon fill="white" stroke="black" points="376.5,-234.5 376.5,-253.5 575.5,-253.5 575.5,-234.5 376.5,-234.5"/>
<text text-anchor="middle" x="476" y="-241.5" font-family="Helvetica,sans-Serif" font-size="10.00">interpreter.expression.userdefined.For</text>
</a>
</g>
</g>
<!-- Node1&#45;&gt;Node4 -->
<g id="edge3" class="edge"><title>Node1&#45;&gt;Node4</title>
<path fill="none" stroke="midnightblue" d="M296.596,-182.762C317.791,-196.694 347.507,-214.378 376,-225 386.331,-228.851 397.573,-231.958 408.652,-234.453"/>
<polygon fill="midnightblue" stroke="midnightblue" points="298.32,-179.704 288.063,-177.052 294.427,-185.522 298.32,-179.704"/>
</g>
<!-- Node5 -->
<g id="node5" class="node"><title>Node5</title>
<g id="a_node5"><a xlink:href="../../d3/d69/classinterpreter_1_1expression_1_1userdefined_1_1_if.html" target="_top" xlink:title="interpreter.expression.userdefined.If">
<polygon fill="white" stroke="black" points="381.5,-196.5 381.5,-215.5 570.5,-215.5 570.5,-196.5 381.5,-196.5"/>
<text text-anchor="middle" x="476" y="-203.5" font-family="Helvetica,sans-Serif" font-size="10.00">interpreter.expression.userdefined.If</text>
</a>
</g>
</g>
<!-- Node1&#45;&gt;Node5 -->
<g id="edge4" class="edge"><title>Node1&#45;&gt;Node5</title>
<path fill="none" stroke="midnightblue" d="M344.489,-179.235C355.071,-181.538 365.799,-183.847 376,-186 392.556,-189.495 410.698,-193.197 426.877,-196.453"/>
<polygon fill="midnightblue" stroke="midnightblue" points="344.925,-175.748 334.409,-177.034 343.432,-182.587 344.925,-175.748"/>
</g>
<!-- Node6 -->
<g id="node6" class="node"><title>Node6</title>
<g id="a_node6"><a xlink:href="../../d9/dba/classinterpreter_1_1expression_1_1userdefined_1_1_if_else.html" target="_top" xlink:title="interpreter.expression.userdefined.\lIfElse">
<polygon fill="white" stroke="black" points="384,-147 384,-177 568,-177 568,-147 384,-147"/>
<text text-anchor="start" x="392" y="-165" font-family="Helvetica,sans-Serif" font-size="10.00">interpreter.expression.userdefined.</text>
<text text-anchor="middle" x="476" y="-154" font-family="Helvetica,sans-Serif" font-size="10.00">IfElse</text>
</a>
</g>
</g>
<!-- Node1&#45;&gt;Node6 -->
<g id="edge5" class="edge"><title>Node1&#45;&gt;Node6</title>
<path fill="none" stroke="midnightblue" d="M349.841,-162C360.95,-162 372.395,-162 383.64,-162"/>
<polygon fill="midnightblue" stroke="midnightblue" points="349.748,-158.5 339.748,-162 349.748,-165.5 349.748,-158.5"/>
</g>
<!-- Node7 -->
<g id="node7" class="node"><title>Node7</title>
<g id="a_node7"><a xlink:href="../../d4/d9c/classinterpreter_1_1expression_1_1userdefined_1_1_make_user_instruction.html" target="_top" xlink:title="interpreter.expression.userdefined.\lMakeUserInstruction">
<polygon fill="white" stroke="black" points="384,-98 384,-128 568,-128 568,-98 384,-98"/>
<text text-anchor="start" x="392" y="-116" font-family="Helvetica,sans-Serif" font-size="10.00">interpreter.expression.userdefined.</text>
<text text-anchor="middle" x="476" y="-105" font-family="Helvetica,sans-Serif" font-size="10.00">MakeUserInstruction</text>
</a>
</g>
</g>
<!-- Node1&#45;&gt;Node7 -->
<g id="edge6" class="edge"><title>Node1&#45;&gt;Node7</title>
<path fill="none" stroke="midnightblue" d="M340.568,-144.669C363.661,-139.229 388.95,-133.271 411.3,-128.006"/>
<polygon fill="midnightblue" stroke="midnightblue" points="339.751,-141.266 330.82,-146.965 341.357,-148.079 339.751,-141.266"/>
</g>
<!-- Node8 -->
<g id="node8" class="node"><title>Node8</title>
<g id="a_node8"><a xlink:href="../../dd/d6e/classinterpreter_1_1expression_1_1userdefined_1_1_make_variable.html" target="_top" xlink:title="interpreter.expression.userdefined.\lMakeVariable">
<polygon fill="white" stroke="black" points="384,-49 384,-79 568,-79 568,-49 384,-49"/>
<text text-anchor="start" x="392" y="-67" font-family="Helvetica,sans-Serif" font-size="10.00">interpreter.expression.userdefined.</text>
<text text-anchor="middle" x="476" y="-56" font-family="Helvetica,sans-Serif" font-size="10.00">MakeVariable</text>
</a>
</g>
</g>
<!-- Node1&#45;&gt;Node8 -->
<g id="edge7" class="edge"><title>Node1&#45;&gt;Node8</title>
<path fill="none" stroke="midnightblue" d="M292.551,-140.732C313.7,-124.131 345.17,-101.662 376,-88 383.68,-84.5966 391.919,-81.63 400.244,-79.0551"/>
<polygon fill="midnightblue" stroke="midnightblue" points="290.332,-138.024 284.7,-146.998 294.699,-143.495 290.332,-138.024"/>
</g>
<!-- Node9 -->
<g id="node9" class="node"><title>Node9</title>
<g id="a_node9"><a xlink:href="../../dc/d40/classinterpreter_1_1expression_1_1userdefined_1_1_repeat.html" target="_top" xlink:title="interpreter.expression.userdefined.\lRepeat">
<polygon fill="white" stroke="black" points="384,-0 384,-30 568,-30 568,-0 384,-0"/>
<text text-anchor="start" x="392" y="-18" font-family="Helvetica,sans-Serif" font-size="10.00">interpreter.expression.userdefined.</text>
<text text-anchor="middle" x="476" y="-7" font-family="Helvetica,sans-Serif" font-size="10.00">Repeat</text>
</a>
</g>
</g>
<!-- Node1&#45;&gt;Node9 -->
<g id="edge8" class="edge"><title>Node1&#45;&gt;Node9</title>
<path fill="none" stroke="midnightblue" d="M281.392,-138.42C299.791,-110.339 334.308,-64.0911 376,-39 381.758,-35.5347 387.988,-32.5693 394.423,-30.0319"/>
<polygon fill="midnightblue" stroke="midnightblue" points="278.44,-136.54 275.996,-146.849 284.335,-140.314 278.44,-136.54"/>
</g>
<!-- Node2 -->
<g id="node2" class="node"><title>Node2</title>
<g id="a_node2"><a xlink:href="../../db/d09/interfaceinterpreter_1_1expression_1_1_s_logo_expression.html" target="_top" xlink:title="interpreter.expression.SLogo\lExpression">
<polygon fill="white" stroke="black" points="0.5,-147 0.5,-177 155.5,-177 155.5,-147 0.5,-147"/>
<text text-anchor="start" x="8.5" y="-165" font-family="Helvetica,sans-Serif" font-size="10.00">interpreter.expression.SLogo</text>
<text text-anchor="middle" x="78" y="-154" font-family="Helvetica,sans-Serif" font-size="10.00">Expression</text>
</a>
</g>
</g>
<!-- Node2&#45;&gt;Node1 -->
<g id="edge1" class="edge"><title>Node2&#45;&gt;Node1</title>
<path fill="none" stroke="midnightblue" d="M165.728,-162C174.63,-162 183.609,-162 192.336,-162"/>
<polygon fill="midnightblue" stroke="midnightblue" points="165.727,-158.5 155.727,-162 165.727,-165.5 165.727,-158.5"/>
</g>
</g>
</svg>
        <g id="navigator" transform="translate(0 0)" fill="#404254">
                <rect fill="#f2f5e9" fill-opacity="0.5" stroke="#606060" stroke-width=".5" x="0" y="0" width="60" height="60"/>
                <use id="zoomplus" xlink:href="#zoomPlus" x="17" y="9" onmousedown="handleZoom(evt,'in')"/>
                <use id="zoomminus" xlink:href="#zoomMin" x="42" y="9" onmousedown="handleZoom(evt,'out')"/>
                <use id="reset" xlink:href="#resetDef" x="30" y="36" onmousedown="handleReset()"/>
                <g id="arrowUp" xlink:href="#dirArrow" transform="translate(30 24)" onmousedown="handlePan(0,-1)">
                  <use xlink:href="#rim" fill="#404040">
                        <set attributeName="fill" to="#808080" begin="arrowUp.mouseover" end="arrowUp.mouseout"/>
                  </use>
                  <path fill="none" stroke="white" stroke-width="1.5" d="M0,-3.0v7 M-2.5,-0.5L0,-3.0L2.5,-0.5"/>
                </g>
                <g id="arrowRight" xlink:href="#dirArrow" transform="rotate(90) translate(36 -43)" onmousedown="handlePan(1,0)">
                  <use xlink:href="#rim" fill="#404040">
                        <set attributeName="fill" to="#808080" begin="arrowRight.mouseover" end="arrowRight.mouseout"/>
                  </use>
                  <path fill="none" stroke="white" stroke-width="1.5" d="M0,-3.0v7 M-2.5,-0.5L0,-3.0L2.5,-0.5"/>
                </g>
                <g id="arrowDown" xlink:href="#dirArrow" transform="rotate(180) translate(-30 -48)" onmousedown="handlePan(0,1)">
                  <use xlink:href="#rim" fill="#404040">
                        <set attributeName="fill" to="#808080" begin="arrowDown.mouseover" end="arrowDown.mouseout"/>
                  </use>
                  <path fill="none" stroke="white" stroke-width="1.5" d="M0,-3.0v7 M-2.5,-0.5L0,-3.0L2.5,-0.5"/>
                </g>
                <g id="arrowLeft" xlink:href="#dirArrow" transform="rotate(270) translate(-36 17)" onmousedown="handlePan(-1,0)">
                  <use xlink:href="#rim" fill="#404040">
                        <set attributeName="fill" to="#808080" begin="arrowLeft.mouseover" end="arrowLeft.mouseout"/>
                  </use>
                  <path fill="none" stroke="white" stroke-width="1.5" d="M0,-3.0v7 M-2.5,-0.5L0,-3.0L2.5,-0.5"/>
                </g>
        </g>
        <svg viewBox="0 0 15 15" width="100%" height="30px" preserveAspectRatio="xMaxYMin meet">
         <g id="arrow_out" transform="scale(0.3 0.3)">
          <a xlink:href="classinterpreter_1_1expression_1_1_user_defined_expression__inherit__graph_org.svg" target="_base">
           <rect id="button" ry="5" rx="5" y="6" x="6" height="38" width="38"
                fill="#f2f5e9" fill-opacity="0.5" stroke="#606060" stroke-width="1.0"/>
           <path id="arrow"
             d="M 11.500037,31.436501 C 11.940474,20.09759 22.043105,11.32322 32.158766,21.979434 L 37.068811,17.246167 C 37.068811,17.246167 37.088388,32 37.088388,32 L 22.160133,31.978069 C 22.160133,31.978069 26.997745,27.140456 26.997745,27.140456 C 18.528582,18.264221 13.291696,25.230495 11.500037,31.436501 z"
             style="fill:#404040;"/>
          </a>
         </g>
        </svg>
</svg>
