<?xml version="1.0" encoding="UTF-8" standalone="no"?>
<!DOCTYPE svg PUBLIC "-//W3C//DTD SVG 1.1//EN"
 "http://www.w3.org/Graphics/SVG/1.1/DTD/svg11.dtd">
<!-- Generated by graphviz version 2.36.0 (20140111.2315)
 -->
<!-- Title: application.StartMenu.StartMenu Pages: 1 -->
<svg width="534pt" height="136pt"
 viewBox="0.00 0.00 534.00 136.00" xmlns="http://www.w3.org/2000/svg" xmlns:xlink="http://www.w3.org/1999/xlink">
<g id="graph0" class="graph" transform="scale(1 1) rotate(0) translate(4 132)">
<title>application.StartMenu.StartMenu</title>
<polygon fill="white" stroke="none" points="-4,4 -4,-132 530,-132 530,4 -4,4"/>
<!-- Node1 -->
<g id="node1" class="node"><title>Node1</title>
<polygon fill="#bfbfbf" stroke="black" points="0.5,-54.5 0.5,-73.5 175.5,-73.5 175.5,-54.5 0.5,-54.5"/>
<text text-anchor="middle" x="88" y="-61.5" font-family="Helvetica,sans-Serif" font-size="10.00">application.StartMenu.StartMenu</text>
</g>
<!-- Node2 -->
<g id="node2" class="node"><title>Node2</title>
<g id="a_node2"><a xlink:href="../../d2/d5b/classapplication_1_1_start_menu.html#aa14bd89e876cd7cb01cf96aac602204b" target="_top" xlink:title="application.StartMenu.create\lLanguageChooser">
<polygon fill="white" stroke="black" points="212.5,-98 212.5,-128 367.5,-128 367.5,-98 212.5,-98"/>
<text text-anchor="start" x="220.5" y="-116" font-family="Helvetica,sans-Serif" font-size="10.00">application.StartMenu.create</text>
<text text-anchor="middle" x="290" y="-105" font-family="Helvetica,sans-Serif" font-size="10.00">LanguageChooser</text>
</a>
</g>
</g>
<!-- Node1&#45;&gt;Node2 -->
<g id="edge1" class="edge"><title>Node1&#45;&gt;Node2</title>
<path fill="none" stroke="midnightblue" d="M128.037,-73.564C153.468,-79.7947 187.406,-88.1094 217.561,-95.4974"/>
<polygon fill="midnightblue" stroke="midnightblue" points="217.079,-98.9828 227.625,-97.963 218.745,-92.1839 217.079,-98.9828"/>
</g>
<!-- Node3 -->
<g id="node3" class="node"><title>Node3</title>
<g id="a_node3"><a xlink:href="../../d2/d5b/classapplication_1_1_start_menu.html#a087587d7e5be9ed034756043019f7291" target="_top" xlink:title="application.StartMenu.create\lOkayButton">
<polygon fill="white" stroke="black" points="212.5,-49 212.5,-79 367.5,-79 367.5,-49 212.5,-49"/>
<text text-anchor="start" x="220.5" y="-67" font-family="Helvetica,sans-Serif" font-size="10.00">application.StartMenu.create</text>
<text text-anchor="middle" x="290" y="-56" font-family="Helvetica,sans-Serif" font-size="10.00">OkayButton</text>
</a>
</g>
</g>
<!-- Node1&#45;&gt;Node3 -->
<g id="edge2" class="edge"><title>Node1&#45;&gt;Node3</title>
<path fill="none" stroke="midnightblue" d="M175.56,-64C184.362,-64 193.305,-64 202.111,-64"/>
<polygon fill="midnightblue" stroke="midnightblue" points="202.367,-67.5001 212.367,-64 202.367,-60.5001 202.367,-67.5001"/>
</g>
<!-- Node5 -->
<g id="node5" class="node"><title>Node5</title>
<g id="a_node5"><a xlink:href="../../d2/d5b/classapplication_1_1_start_menu.html#a971dc828afa4260d7e0ff7423cd69b81" target="_top" xlink:title="application.StartMenu.create\lTitleBox">
<polygon fill="white" stroke="black" points="212.5,-0 212.5,-30 367.5,-30 367.5,-0 212.5,-0"/>
<text text-anchor="start" x="220.5" y="-18" font-family="Helvetica,sans-Serif" font-size="10.00">application.StartMenu.create</text>
<text text-anchor="middle" x="290" y="-7" font-family="Helvetica,sans-Serif" font-size="10.00">TitleBox</text>
</a>
</g>
</g>
<!-- Node1&#45;&gt;Node5 -->
<g id="edge4" class="edge"><title>Node1&#45;&gt;Node5</title>
<path fill="none" stroke="midnightblue" d="M128.037,-54.436C153.468,-48.2053 187.406,-39.8906 217.561,-32.5026"/>
<polygon fill="midnightblue" stroke="midnightblue" points="218.745,-35.8161 227.625,-30.037 217.079,-29.0172 218.745,-35.8161"/>
</g>
<!-- Node4 -->
<g id="node4" class="node"><title>Node4</title>
<g id="a_node4"><a xlink:href="../../da/d4e/classviewcontroller_1_1_view.html#a89203d50fd0c92cfa4518ac9506bb6cd" target="_top" xlink:title="viewcontroller.View.init">
<polygon fill="white" stroke="black" points="404,-54.5 404,-73.5 526,-73.5 526,-54.5 404,-54.5"/>
<text text-anchor="middle" x="465" y="-61.5" font-family="Helvetica,sans-Serif" font-size="10.00">viewcontroller.View.init</text>
</a>
</g>
</g>
<!-- Node3&#45;&gt;Node4 -->
<g id="edge3" class="edge"><title>Node3&#45;&gt;Node4</title>
<path fill="none" stroke="midnightblue" d="M367.636,-64C376.246,-64 384.988,-64 393.515,-64"/>
<polygon fill="midnightblue" stroke="midnightblue" points="393.786,-67.5001 403.786,-64 393.786,-60.5001 393.786,-67.5001"/>
</g>
</g>
</svg>
