<?xml version="1.0" encoding="UTF-8" standalone="no"?>
<!DOCTYPE svg PUBLIC "-//W3C//DTD SVG 1.1//EN"
 "http://www.w3.org/Graphics/SVG/1.1/DTD/svg11.dtd">
<!-- Generated by graphviz version 2.36.0 (20140111.2315)
 -->
<!-- Title: interpreter.expression.syntax.Variable.evaluate Pages: 1 -->
<svg width="374pt" height="185pt"
 viewBox="0.00 0.00 374.00 185.00" xmlns="http://www.w3.org/2000/svg" xmlns:xlink="http://www.w3.org/1999/xlink">
<g id="graph0" class="graph" transform="scale(1 1) rotate(0) translate(4 181)">
<title>interpreter.expression.syntax.Variable.evaluate</title>
<polygon fill="white" stroke="none" points="-4,4 -4,-181 370,-181 370,4 -4,4"/>
<!-- Node1 -->
<g id="node1" class="node"><title>Node1</title>
<polygon fill="#bfbfbf" stroke="black" points="0.5,-73 0.5,-103 159.5,-103 159.5,-73 0.5,-73"/>
<text text-anchor="start" x="8.5" y="-91" font-family="Helvetica,sans-Serif" font-size="10.00">interpreter.expression.syntax.</text>
<text text-anchor="middle" x="80" y="-80" font-family="Helvetica,sans-Serif" font-size="10.00">Variable.evaluate</text>
</g>
<!-- Node2 -->
<g id="node2" class="node"><title>Node2</title>
<g id="a_node2"><a xlink:href="../../df/d55/classmodel_1_1_user_defined_variables_model.html#a3f3d210517fa38ec2bd42d8757986065" target="_top" xlink:title="model.UserDefinedVariables\lModel.containsVariable">
<polygon fill="white" stroke="black" points="205,-147 205,-177 357,-177 357,-147 205,-147"/>
<text text-anchor="start" x="213" y="-165" font-family="Helvetica,sans-Serif" font-size="10.00">model.UserDefinedVariables</text>
<text text-anchor="middle" x="281" y="-154" font-family="Helvetica,sans-Serif" font-size="10.00">Model.containsVariable</text>
</a>
</g>
</g>
<!-- Node1&#45;&gt;Node2 -->
<g id="edge1" class="edge"><title>Node1&#45;&gt;Node2</title>
<path fill="none" stroke="midnightblue" d="M113.818,-103.16C136.61,-113.397 167.826,-126.842 196,-137 202.443,-139.323 209.218,-141.602 216.008,-143.781"/>
<polygon fill="midnightblue" stroke="midnightblue" points="215.342,-147.24 225.931,-146.895 217.438,-140.561 215.342,-147.24"/>
</g>
<!-- Node3 -->
<g id="node3" class="node"><title>Node3</title>
<g id="a_node3"><a xlink:href="../../d5/d09/classinterpreter_1_1_command_reference_library.html#a342d174c5d09ce98ba6313d032030131" target="_top" xlink:title="interpreter.CommandReference\lLibrary.getUserDefinedVariables">
<polygon fill="white" stroke="black" points="196.5,-98 196.5,-128 365.5,-128 365.5,-98 196.5,-98"/>
<text text-anchor="start" x="204.5" y="-116" font-family="Helvetica,sans-Serif" font-size="10.00">interpreter.CommandReference</text>
<text text-anchor="middle" x="281" y="-105" font-family="Helvetica,sans-Serif" font-size="10.00">Library.getUserDefinedVariables</text>
</a>
</g>
</g>
<!-- Node1&#45;&gt;Node3 -->
<g id="edge2" class="edge"><title>Node1&#45;&gt;Node3</title>
<path fill="none" stroke="midnightblue" d="M159.65,-97.8807C168.412,-98.9814 177.399,-100.11 186.324,-101.232"/>
<polygon fill="midnightblue" stroke="midnightblue" points="186,-104.718 196.358,-102.492 186.873,-97.773 186,-104.718"/>
</g>
<!-- Node4 -->
<g id="node4" class="node"><title>Node4</title>
<g id="a_node4"><a xlink:href="../../df/d55/classmodel_1_1_user_defined_variables_model.html#a52c66fac10d3da60be8d6b1b7d1afbfa" target="_top" xlink:title="model.UserDefinedVariables\lModel.getVariable">
<polygon fill="white" stroke="black" points="205,-49 205,-79 357,-79 357,-49 205,-49"/>
<text text-anchor="start" x="213" y="-67" font-family="Helvetica,sans-Serif" font-size="10.00">model.UserDefinedVariables</text>
<text text-anchor="middle" x="281" y="-56" font-family="Helvetica,sans-Serif" font-size="10.00">Model.getVariable</text>
</a>
</g>
</g>
<!-- Node1&#45;&gt;Node4 -->
<g id="edge3" class="edge"><title>Node1&#45;&gt;Node4</title>
<path fill="none" stroke="midnightblue" d="M159.65,-78.5146C171.162,-77.1262 183.063,-75.6909 194.7,-74.2874"/>
<polygon fill="midnightblue" stroke="midnightblue" points="195.333,-77.7365 204.842,-73.0643 194.495,-70.7869 195.333,-77.7365"/>
</g>
<!-- Node5 -->
<g id="node5" class="node"><title>Node5</title>
<g id="a_node5"><a xlink:href="../../df/df6/classinterpreter_1_1result_1_1_s_logo_result.html#ade0879b3224a3216bf17e17e25bfd4ca" target="_top" xlink:title="interpreter.result.SLogo\lResult.setValue">
<polygon fill="white" stroke="black" points="216,-0 216,-30 346,-30 346,-0 216,-0"/>
<text text-anchor="start" x="224" y="-18" font-family="Helvetica,sans-Serif" font-size="10.00">interpreter.result.SLogo</text>
<text text-anchor="middle" x="281" y="-7" font-family="Helvetica,sans-Serif" font-size="10.00">Result.setValue</text>
</a>
</g>
</g>
<!-- Node1&#45;&gt;Node5 -->
<g id="edge4" class="edge"><title>Node1&#45;&gt;Node5</title>
<path fill="none" stroke="midnightblue" d="M114.347,-72.9769C137.108,-62.997 168.08,-49.9497 196,-40 202.7,-37.6121 209.755,-35.2627 216.811,-33.0172"/>
<polygon fill="midnightblue" stroke="midnightblue" points="217.896,-36.3451 226.4,-30.0259 215.812,-29.6627 217.896,-36.3451"/>
</g>
</g>
</svg>
