<?xml version="1.0" encoding="UTF-8" standalone="no"?>
<!DOCTYPE svg PUBLIC "-//W3C//DTD SVG 1.1//EN"
 "http://www.w3.org/Graphics/SVG/1.1/DTD/svg11.dtd">
<!-- Generated by graphviz version 2.36.0 (20140111.2315)
 -->
<!-- Title: interpreter.expression.userdefined.For Pages: 1 -->
<svg width="206pt" height="164pt"
 viewBox="0.00 0.00 206.00 164.00" xmlns="http://www.w3.org/2000/svg" xmlns:xlink="http://www.w3.org/1999/xlink">
<g id="graph0" class="graph" transform="scale(1 1) rotate(0) translate(4 160)">
<title>interpreter.expression.userdefined.For</title>
<polygon fill="white" stroke="none" points="-4,4 -4,-160 202,-160 202,4 -4,4"/>
<!-- Node1 -->
<g id="node1" class="node"><title>Node1</title>
<polygon fill="#bfbfbf" stroke="black" points="-0.5,-0.5 -0.5,-19.5 198.5,-19.5 198.5,-0.5 -0.5,-0.5"/>
<text text-anchor="middle" x="99" y="-7.5" font-family="Helvetica,sans-Serif" font-size="10.00">interpreter.expression.userdefined.For</text>
</g>
<!-- Node2 -->
<g id="node2" class="node"><title>Node2</title>
<g id="a_node2"><a xlink:href="../../da/d94/classinterpreter_1_1expression_1_1_user_defined_expression.html" target="_top" xlink:title="interpreter.expression.User\lDefinedExpression">
<polygon fill="white" stroke="black" points="25.5,-57 25.5,-87 172.5,-87 172.5,-57 25.5,-57"/>
<text text-anchor="start" x="33.5" y="-75" font-family="Helvetica,sans-Serif" font-size="10.00">interpreter.expression.User</text>
<text text-anchor="middle" x="99" y="-64" font-family="Helvetica,sans-Serif" font-size="10.00">DefinedExpression</text>
</a>
</g>
</g>
<!-- Node2&#45;&gt;Node1 -->
<g id="edge1" class="edge"><title>Node2&#45;&gt;Node1</title>
<path fill="none" stroke="midnightblue" d="M99,-46.5858C99,-37.0743 99,-26.7864 99,-19.7305"/>
<polygon fill="midnightblue" stroke="midnightblue" points="95.5001,-46.7808 99,-56.7808 102.5,-46.7809 95.5001,-46.7808"/>
</g>
<!-- Node3 -->
<g id="node3" class="node"><title>Node3</title>
<g id="a_node3"><a xlink:href="../../db/d09/interfaceinterpreter_1_1expression_1_1_s_logo_expression.html" target="_top" xlink:title="interpreter.expression.SLogo\lExpression">
<polygon fill="white" stroke="black" points="21.5,-125 21.5,-155 176.5,-155 176.5,-125 21.5,-125"/>
<text text-anchor="start" x="29.5" y="-143" font-family="Helvetica,sans-Serif" font-size="10.00">interpreter.expression.SLogo</text>
<text text-anchor="middle" x="99" y="-132" font-family="Helvetica,sans-Serif" font-size="10.00">Expression</text>
</a>
</g>
</g>
<!-- Node3&#45;&gt;Node2 -->
<g id="edge2" class="edge"><title>Node3&#45;&gt;Node2</title>
<path fill="none" stroke="midnightblue" d="M99,-114.532C99,-105.361 99,-95.2449 99,-87.2931"/>
<polygon fill="midnightblue" stroke="midnightblue" points="95.5001,-114.679 99,-124.679 102.5,-114.679 95.5001,-114.679"/>
</g>
</g>
</svg>
