<?xml version="1.0" encoding="UTF-8" standalone="no"?>
<!DOCTYPE svg PUBLIC "-//W3C//DTD SVG 1.1//EN"
 "http://www.w3.org/Graphics/SVG/1.1/DTD/svg11.dtd">
<!-- Generated by graphviz version 2.36.0 (20140111.2315)
 -->
<!-- Title: interpreter.result.SyntaxResult Pages: 1 -->
<svg width="393pt" height="200pt"
 viewBox="0.00 0.00 393.00 200.00" xmlns="http://www.w3.org/2000/svg" xmlns:xlink="http://www.w3.org/1999/xlink">
<g id="graph0" class="graph" transform="scale(1 1) rotate(0) translate(4 196)">
<title>interpreter.result.SyntaxResult</title>
<polygon fill="white" stroke="none" points="-4,4 -4,-196 389,-196 389,4 -4,4"/>
<!-- Node1 -->
<g id="node1" class="node"><title>Node1</title>
<polygon fill="#bfbfbf" stroke="black" points="177.5,-1 177.5,-31 310.5,-31 310.5,-1 177.5,-1"/>
<text text-anchor="start" x="185.5" y="-19" font-family="Helvetica,sans-Serif" font-size="10.00">interpreter.result.Syntax</text>
<text text-anchor="middle" x="244" y="-8" font-family="Helvetica,sans-Serif" font-size="10.00">Result</text>
</g>
<!-- Node2 -->
<g id="node2" class="node"><title>Node2</title>
<g id="a_node2"><a xlink:href="../../df/df6/classinterpreter_1_1result_1_1_s_logo_result.html" target="_top" xlink:title="interpreter.result.SLogo\lResult">
<polygon fill="white" stroke="black" points="54,-81 54,-111 184,-111 184,-81 54,-81"/>
<text text-anchor="start" x="62" y="-99" font-family="Helvetica,sans-Serif" font-size="10.00">interpreter.result.SLogo</text>
<text text-anchor="middle" x="119" y="-88" font-family="Helvetica,sans-Serif" font-size="10.00">Result</text>
</a>
</g>
</g>
<!-- Node2&#45;&gt;Node1 -->
<g id="edge1" class="edge"><title>Node2&#45;&gt;Node1</title>
<path fill="none" stroke="midnightblue" d="M150.351,-75.4368C172.505,-61.6129 201.673,-43.4118 221.532,-31.0201"/>
<polygon fill="midnightblue" stroke="midnightblue" points="148.267,-72.6115 141.637,-80.8748 151.973,-78.5502 148.267,-72.6115"/>
</g>
<!-- Node3 -->
<g id="node3" class="node"><title>Node3</title>
<polygon fill="white" stroke="#bfbfbf" points="-0.5,-166.5 -0.5,-185.5 92.5,-185.5 92.5,-166.5 -0.5,-166.5"/>
<text text-anchor="middle" x="46" y="-173.5" font-family="Helvetica,sans-Serif" font-size="10.00">ResourceBundle</text>
</g>
<!-- Node3&#45;&gt;Node2 -->
<g id="edge2" class="edge"><title>Node3&#45;&gt;Node2</title>
<path fill="none" stroke="#9a32cd" stroke-dasharray="5,2" d="M61.0747,-158.893C74.2156,-144.852 93.0918,-124.683 105.685,-111.227"/>
<polygon fill="#9a32cd" stroke="#9a32cd" points="58.369,-156.662 54.0912,-166.355 63.4798,-161.445 58.369,-156.662"/>
<text text-anchor="middle" x="120.5" y="-133.5" font-family="Helvetica,sans-Serif" font-size="10.00"> myProperties</text>
</g>
<!-- Node4 -->
<g id="node4" class="node"><title>Node4</title>
<polygon fill="white" stroke="#bfbfbf" points="111,-161 111,-191 273,-191 273,-161 111,-161"/>
<text text-anchor="start" x="119" y="-179" font-family="Helvetica,sans-Serif" font-size="10.00">List&lt; transitionstate.Transition</text>
<text text-anchor="middle" x="192" y="-168" font-family="Helvetica,sans-Serif" font-size="10.00">State &gt;</text>
</g>
<!-- Node4&#45;&gt;Node2 -->
<g id="edge3" class="edge"><title>Node4&#45;&gt;Node2</title>
<path fill="none" stroke="#9a32cd" stroke-dasharray="5,2" d="M176.627,-152.642C171.09,-145.156 164.579,-136.952 158,-130 151.66,-123.3 144.035,-116.597 137.215,-111"/>
<polygon fill="#9a32cd" stroke="#9a32cd" points="173.945,-154.907 182.625,-160.983 179.628,-150.82 173.945,-154.907"/>
<text text-anchor="middle" x="216.5" y="-133.5" font-family="Helvetica,sans-Serif" font-size="10.00"> myTransitionStates</text>
</g>
<!-- Node5 -->
<g id="node5" class="node"><title>Node5</title>
<polygon fill="white" stroke="#bfbfbf" points="202.5,-81 202.5,-111 369.5,-111 369.5,-81 202.5,-81"/>
<text text-anchor="start" x="210.5" y="-99" font-family="Helvetica,sans-Serif" font-size="10.00">Deque&lt; interpreter.expression.</text>
<text text-anchor="middle" x="286" y="-88" font-family="Helvetica,sans-Serif" font-size="10.00">SLogoExpression &gt;</text>
</g>
<!-- Node5&#45;&gt;Node1 -->
<g id="edge4" class="edge"><title>Node5&#45;&gt;Node1</title>
<path fill="none" stroke="#9a32cd" stroke-dasharray="5,2" d="M273.466,-71.7221C266.376,-58.5546 257.739,-42.5154 251.655,-31.2157"/>
<polygon fill="#9a32cd" stroke="#9a32cd" points="270.474,-73.5482 278.297,-80.6936 276.637,-70.2295 270.474,-73.5482"/>
<text text-anchor="middle" x="326.5" y="-53.5" font-family="Helvetica,sans-Serif" font-size="10.00"> myGroupedExpressions</text>
</g>
</g>
</svg>
