<?xml version="1.0" encoding="UTF-8" standalone="no"?>
<!DOCTYPE svg PUBLIC "-//W3C//DTD SVG 1.1//EN"
 "http://www.w3.org/Graphics/SVG/1.1/DTD/svg11.dtd">
<!-- Generated by graphviz version 2.36.0 (20140111.2315)
 -->
<!-- Title: application.FormElement.getNode Pages: 1 -->
<svg width="562pt" height="38pt"
 viewBox="0.00 0.00 562.00 38.00" xmlns="http://www.w3.org/2000/svg" xmlns:xlink="http://www.w3.org/1999/xlink">
<g id="graph0" class="graph" transform="scale(1 1) rotate(0) translate(4 34)">
<title>application.FormElement.getNode</title>
<polygon fill="white" stroke="none" points="-4,4 -4,-34 558,-34 558,4 -4,4"/>
<!-- Node1 -->
<g id="node1" class="node"><title>Node1</title>
<polygon fill="#bfbfbf" stroke="black" points="0,-5.5 0,-24.5 180,-24.5 180,-5.5 0,-5.5"/>
<text text-anchor="middle" x="90" y="-12.5" font-family="Helvetica,sans-Serif" font-size="10.00">application.FormElement.getNode</text>
</g>
<!-- Node2 -->
<g id="node2" class="node"><title>Node2</title>
<g id="a_node2"><a xlink:href="../../d8/d90/classapplication_1_1_form.html#a1d01c2e77c80067edf5247f5858e3100" target="_top" xlink:title="application.Form.addForm\lElement">
<polygon fill="white" stroke="black" points="216,-0 216,-30 358,-30 358,-0 216,-0"/>
<text text-anchor="start" x="224" y="-18" font-family="Helvetica,sans-Serif" font-size="10.00">application.Form.addForm</text>
<text text-anchor="middle" x="287" y="-7" font-family="Helvetica,sans-Serif" font-size="10.00">Element</text>
</a>
</g>
</g>
<!-- Node1&#45;&gt;Node2 -->
<g id="edge1" class="edge"><title>Node1&#45;&gt;Node2</title>
<path fill="none" stroke="midnightblue" d="M190.318,-15C198.922,-15 207.507,-15 215.804,-15"/>
<polygon fill="midnightblue" stroke="midnightblue" points="190.225,-11.5001 180.225,-15 190.225,-18.5001 190.225,-11.5001"/>
</g>
<!-- Node3 -->
<g id="node3" class="node"><title>Node3</title>
<g id="a_node3"><a xlink:href="../../db/df2/classapplication_1_1_pen_form.html#aeba613e21bc0ca960ebd31adfa466160" target="_top" xlink:title="application.PenForm.PenForm">
<polygon fill="white" stroke="black" points="394,-5.5 394,-24.5 554,-24.5 554,-5.5 394,-5.5"/>
<text text-anchor="middle" x="474" y="-12.5" font-family="Helvetica,sans-Serif" font-size="10.00">application.PenForm.PenForm</text>
</a>
</g>
</g>
<!-- Node2&#45;&gt;Node3 -->
<g id="edge2" class="edge"><title>Node2&#45;&gt;Node3</title>
<path fill="none" stroke="midnightblue" d="M368.416,-15C376.859,-15 385.439,-15 393.867,-15"/>
<polygon fill="midnightblue" stroke="midnightblue" points="368.204,-11.5001 358.204,-15 368.204,-18.5001 368.204,-11.5001"/>
</g>
</g>
</svg>
