<?xml version="1.0" encoding="UTF-8" standalone="no"?>
<!DOCTYPE svg PUBLIC "-//W3C//DTD SVG 1.1//EN"
 "http://www.w3.org/Graphics/SVG/1.1/DTD/svg11.dtd">
<!-- Generated by graphviz version 2.36.0 (20140111.2315)
 -->
<!-- Title: interpreter.result.SLogoResult.setLabel Pages: 1 -->
<svg width="530pt" height="38pt"
 viewBox="0.00 0.00 530.00 38.00" xmlns="http://www.w3.org/2000/svg" xmlns:xlink="http://www.w3.org/1999/xlink">
<g id="graph0" class="graph" transform="scale(1 1) rotate(0) translate(4 34)">
<title>interpreter.result.SLogoResult.setLabel</title>
<polygon fill="white" stroke="none" points="-4,4 -4,-34 526,-34 526,4 -4,4"/>
<!-- Node1 -->
<g id="node1" class="node"><title>Node1</title>
<polygon fill="#bfbfbf" stroke="black" points="0,-0 0,-30 130,-30 130,-0 0,-0"/>
<text text-anchor="start" x="8" y="-18" font-family="Helvetica,sans-Serif" font-size="10.00">interpreter.result.SLogo</text>
<text text-anchor="middle" x="65" y="-7" font-family="Helvetica,sans-Serif" font-size="10.00">Result.setLabel</text>
</g>
<!-- Node2 -->
<g id="node2" class="node"><title>Node2</title>
<g id="a_node2"><a xlink:href="../../d2/db8/classinterpreter_1_1expression_1_1syntax_1_1_list_start.html#a2f9bda199353dd1db201371d2b4d3265" target="_top" xlink:title="interpreter.expression.syntax.\lListStart.merge">
<polygon fill="white" stroke="black" points="166.5,-0 166.5,-30 325.5,-30 325.5,-0 166.5,-0"/>
<text text-anchor="start" x="174.5" y="-18" font-family="Helvetica,sans-Serif" font-size="10.00">interpreter.expression.syntax.</text>
<text text-anchor="middle" x="246" y="-7" font-family="Helvetica,sans-Serif" font-size="10.00">ListStart.merge</text>
</a>
</g>
</g>
<!-- Node1&#45;&gt;Node2 -->
<g id="edge1" class="edge"><title>Node1&#45;&gt;Node2</title>
<path fill="none" stroke="midnightblue" d="M140.151,-15C148.793,-15 157.631,-15 166.33,-15"/>
<polygon fill="midnightblue" stroke="midnightblue" points="140.118,-11.5001 130.118,-15 140.117,-18.5001 140.118,-11.5001"/>
</g>
<!-- Node3 -->
<g id="node3" class="node"><title>Node3</title>
<g id="a_node3"><a xlink:href="../../d2/db8/classinterpreter_1_1expression_1_1syntax_1_1_list_start.html#afb7f9c7e9eb3bbd7edaad2131ed1039a" target="_top" xlink:title="interpreter.expression.syntax.\lListStart.evaluate">
<polygon fill="white" stroke="black" points="362.5,-0 362.5,-30 521.5,-30 521.5,-0 362.5,-0"/>
<text text-anchor="start" x="370.5" y="-18" font-family="Helvetica,sans-Serif" font-size="10.00">interpreter.expression.syntax.</text>
<text text-anchor="middle" x="442" y="-7" font-family="Helvetica,sans-Serif" font-size="10.00">ListStart.evaluate</text>
</a>
</g>
</g>
<!-- Node2&#45;&gt;Node3 -->
<g id="edge2" class="edge"><title>Node2&#45;&gt;Node3</title>
<path fill="none" stroke="midnightblue" d="M335.895,-15C344.691,-15 353.577,-15 362.26,-15"/>
<polygon fill="midnightblue" stroke="midnightblue" points="335.628,-11.5001 325.628,-15 335.628,-18.5001 335.628,-11.5001"/>
</g>
</g>
</svg>
