<?xml version="1.0" encoding="UTF-8" standalone="no"?>
<!DOCTYPE svg PUBLIC "-//W3C//DTD SVG 1.1//EN"
 "http://www.w3.org/Graphics/SVG/1.1/DTD/svg11.dtd">
<!-- Generated by graphviz version 2.36.0 (20140111.2315)
 -->
<!-- Title: interpreter.result.SLogoResult.getValue Pages: 1 -->
<!--zoomable 667 -->
<svg id="main" version="1.1" xmlns="http://www.w3.org/2000/svg" xmlns:xlink="http://www.w3.org/1999/xlink" xml:space="preserve" onload="init(evt)">
<style type="text/css"><![CDATA[
.edge:hover path { stroke: red; }
.edge:hover polygon { stroke: red; fill: red; }
]]></style>
<script type="text/javascript"><![CDATA[
var edges = document.getElementsByTagName('g');
if (edges && edges.length) {
  for (var i=0;i<edges.length;i++) {
    if (edges[i].id.substr(0,4)=='edge') {
      edges[i].setAttribute('class','edge');
    }
  }
}
]]></script>
        <defs>
                <circle id="rim" cx="0" cy="0" r="7"/>
                <circle id="rim2" cx="0" cy="0" r="3.5"/>
                <g id="zoomPlus">
                        <use xlink:href="#rim" fill="#404040">
                                <set attributeName="fill" to="#808080" begin="zoomplus.mouseover" end="zoomplus.mouseout"/>
                        </use>
                        <path d="M-4,0h8M0,-4v8" fill="none" stroke="white" stroke-width="1.5" pointer-events="none"/>
                </g>
                <g id="zoomMin">
                        <use xlink:href="#rim" fill="#404040">
                                <set attributeName="fill" to="#808080" begin="zoomminus.mouseover" end="zoomminus.mouseout"/>
                        </use>
                        <path d="M-4,0h8" fill="none" stroke="white" stroke-width="1.5" pointer-events="none"/>
                </g>
                <g id="dirArrow">
                        <path fill="none" stroke="white" stroke-width="1.5" d="M0,-3.0v7 M-2.5,-0.5L0,-3.0L2.5,-0.5"/>
                </g>
               <g id="resetDef">
                       <use xlink:href="#rim2" fill="#404040">
                               <set attributeName="fill" to="#808080" begin="reset.mouseover" end="reset.mouseout"/>
                       </use>
               </g>
        </defs>

<script type="text/javascript">
var viewWidth = 2866;
var viewHeight = 667;
var sectionId = 'dynsection-4';
</script>
<script xlink:href="../../svgpan.js"/>
<svg id="graph" class="graph">
<g id="viewport">
<title>interpreter.result.SLogoResult.getValue</title>
<polygon fill="white" stroke="none" points="-4,4 -4,-663 2862,-663 2862,4 -4,4"/>
<!-- Node1 -->
<g id="node1" class="node"><title>Node1</title>
<polygon fill="#bfbfbf" stroke="black" points="0,-320 0,-350 130,-350 130,-320 0,-320"/>
<text text-anchor="start" x="8" y="-338" font-family="Helvetica,sans-Serif" font-size="10.00">interpreter.result.SLogo</text>
<text text-anchor="middle" x="65" y="-327" font-family="Helvetica,sans-Serif" font-size="10.00">Result.getValue</text>
</g>
<!-- Node2 -->
<g id="node2" class="node"><title>Node2</title>
<g id="a_node2"><a xlink:href="../../d8/ddb/classinterpreter_1_1expression_1_1_turtle_command_expression.html#adc14302ac16501f333187b0733a0e5fb" target="_top" xlink:title="interpreter.expression.Turtle\lCommandExpression.applyOperatorAndMerge">
<polygon fill="white" stroke="black" points="166.5,-629 166.5,-659 405.5,-659 405.5,-629 166.5,-629"/>
<text text-anchor="start" x="174.5" y="-647" font-family="Helvetica,sans-Serif" font-size="10.00">interpreter.expression.Turtle</text>
<text text-anchor="middle" x="286" y="-636" font-family="Helvetica,sans-Serif" font-size="10.00">CommandExpression.applyOperatorAndMerge</text>
</a>
</g>
</g>
<!-- Node1&#45;&gt;Node2 -->
<g id="edge1" class="edge"><title>Node1&#45;&gt;Node2</title>
<path fill="none" stroke="midnightblue" d="M67.3992,-360.265C71.8391,-415.03 90.2384,-545.267 166,-614 172.706,-620.084 180.466,-624.975 188.744,-628.901"/>
<polygon fill="midnightblue" stroke="midnightblue" points="70.8741,-359.789 66.6662,-350.066 63.8921,-360.291 70.8741,-359.789"/>
</g>
<!-- Node4 -->
<g id="node4" class="node"><title>Node4</title>
<g id="a_node4"><a xlink:href="../../d7/d98/classtest_1_1_math_expression_tester.html#a74350214f5fc67a0e3bcfe4b17c60b32" target="_top" xlink:title="test.MathExpressionTester.arc\lTanTest">
<polygon fill="white" stroke="black" points="901,-367 901,-397 1061,-397 1061,-367 901,-367"/>
<text text-anchor="start" x="909" y="-385" font-family="Helvetica,sans-Serif" font-size="10.00">test.MathExpressionTester.arc</text>
<text text-anchor="middle" x="981" y="-374" font-family="Helvetica,sans-Serif" font-size="10.00">TanTest</text>
</a>
</g>
</g>
<!-- Node1&#45;&gt;Node4 -->
<g id="edge3" class="edge"><title>Node1&#45;&gt;Node4</title>
<path fill="none" stroke="midnightblue" d="M67.5169,-360.008C72.1581,-411.664 90.8831,-529.527 166,-580 299.395,-669.632 809.112,-456.948 945.995,-397.117"/>
<polygon fill="midnightblue" stroke="midnightblue" points="71.0059,-359.729 66.725,-350.038 64.0278,-360.284 71.0059,-359.729"/>
</g>
<!-- Node5 -->
<g id="node5" class="node"><title>Node5</title>
<g id="a_node5"><a xlink:href="../../dd/d6e/classinterpreter_1_1expression_1_1userdefined_1_1_make_variable.html#a05ab4c4c6723d3be6a9184b384c3c706" target="_top" xlink:title="interpreter.expression.userdefined.\lMakeVariable.evaluate">
<polygon fill="white" stroke="black" points="194,-541 194,-571 378,-571 378,-541 194,-541"/>
<text text-anchor="start" x="202" y="-559" font-family="Helvetica,sans-Serif" font-size="10.00">interpreter.expression.userdefined.</text>
<text text-anchor="middle" x="286" y="-548" font-family="Helvetica,sans-Serif" font-size="10.00">MakeVariable.evaluate</text>
</a>
</g>
</g>
<!-- Node1&#45;&gt;Node5 -->
<g id="edge4" class="edge"><title>Node1&#45;&gt;Node5</title>
<path fill="none" stroke="midnightblue" d="M71.3346,-359.862C81.7487,-402.057 108.941,-487.349 166,-531 174.3,-537.349 183.839,-542.178 193.828,-545.837"/>
<polygon fill="midnightblue" stroke="midnightblue" points="74.7384,-359.047 69.0405,-350.114 67.9246,-360.65 74.7384,-359.047"/>
</g>
<!-- Node6 -->
<g id="node6" class="node"><title>Node6</title>
<g id="a_node6"><a xlink:href="../../dc/d40/classinterpreter_1_1expression_1_1userdefined_1_1_repeat.html#a55261bb238b3c2859d7e18e949d55a4d" target="_top" xlink:title="interpreter.expression.userdefined.\lRepeat.evaluate">
<polygon fill="white" stroke="black" points="194,-492 194,-522 378,-522 378,-492 194,-492"/>
<text text-anchor="start" x="202" y="-510" font-family="Helvetica,sans-Serif" font-size="10.00">interpreter.expression.userdefined.</text>
<text text-anchor="middle" x="286" y="-499" font-family="Helvetica,sans-Serif" font-size="10.00">Repeat.evaluate</text>
</a>
</g>
</g>
<!-- Node1&#45;&gt;Node6 -->
<g id="edge5" class="edge"><title>Node1&#45;&gt;Node6</title>
<path fill="none" stroke="midnightblue" d="M75.7933,-359.828C90.2788,-393.147 120.683,-451.641 166,-482 174.506,-487.699 184.061,-492.135 193.961,-495.584"/>
<polygon fill="midnightblue" stroke="midnightblue" points="78.9126,-358.217 71.81,-350.355 72.4599,-360.93 78.9126,-358.217"/>
</g>
<!-- Node7 -->
<g id="node7" class="node"><title>Node7</title>
<g id="a_node7"><a xlink:href="../../d3/de6/classinterpreter_1_1expression_1_1syntax_1_1_command.html#a6122e37c1c79a41ce734d9ecc07d51ba" target="_top" xlink:title="interpreter.expression.syntax.\lCommand.evaluate">
<polygon fill="white" stroke="black" points="206.5,-443 206.5,-473 365.5,-473 365.5,-443 206.5,-443"/>
<text text-anchor="start" x="214.5" y="-461" font-family="Helvetica,sans-Serif" font-size="10.00">interpreter.expression.syntax.</text>
<text text-anchor="middle" x="286" y="-450" font-family="Helvetica,sans-Serif" font-size="10.00">Command.evaluate</text>
</a>
</g>
</g>
<!-- Node1&#45;&gt;Node7 -->
<g id="edge6" class="edge"><title>Node1&#45;&gt;Node7</title>
<path fill="none" stroke="midnightblue" d="M83.3049,-358.435C101.365,-381.125 131.789,-414.7 166,-433 178.379,-439.622 192.356,-444.49 206.267,-448.069"/>
<polygon fill="midnightblue" stroke="midnightblue" points="85.905,-356.077 77.0063,-350.327 80.3768,-360.371 85.905,-356.077"/>
</g>
<!-- Node8 -->
<g id="node8" class="node"><title>Node8</title>
<g id="a_node8"><a xlink:href="../../d9/d0d/classinterpreter_1_1expression_1_1conditional_1_1_and.html#aa327964e760ab5457ad3048e77c9af23" target="_top" xlink:title="interpreter.expression.conditional.\lAnd.hasSatisfiedCondition">
<polygon fill="white" stroke="black" points="196.5,-394 196.5,-424 375.5,-424 375.5,-394 196.5,-394"/>
<text text-anchor="start" x="204.5" y="-412" font-family="Helvetica,sans-Serif" font-size="10.00">interpreter.expression.conditional.</text>
<text text-anchor="middle" x="286" y="-401" font-family="Helvetica,sans-Serif" font-size="10.00">And.hasSatisfiedCondition</text>
</a>
</g>
</g>
<!-- Node1&#45;&gt;Node8 -->
<g id="edge7" class="edge"><title>Node1&#45;&gt;Node8</title>
<path fill="none" stroke="midnightblue" d="M101.422,-355.042C120.144,-364.937 143.792,-376.36 166,-384 176.979,-387.777 188.734,-391.085 200.423,-393.952"/>
<polygon fill="midnightblue" stroke="midnightblue" points="102.851,-351.837 92.3857,-350.183 99.5357,-358.002 102.851,-351.837"/>
</g>
<!-- Node9 -->
<g id="node9" class="node"><title>Node9</title>
<g id="a_node9"><a xlink:href="../../d2/d2c/classinterpreter_1_1expression_1_1conditional_1_1_not.html#aaade1cc4302cf64f4067c66d761fb87a" target="_top" xlink:title="interpreter.expression.conditional.\lNot.hasSatisfiedCondition">
<polygon fill="white" stroke="black" points="196.5,-345 196.5,-375 375.5,-375 375.5,-345 196.5,-345"/>
<text text-anchor="start" x="204.5" y="-363" font-family="Helvetica,sans-Serif" font-size="10.00">interpreter.expression.conditional.</text>
<text text-anchor="middle" x="286" y="-352" font-family="Helvetica,sans-Serif" font-size="10.00">Not.hasSatisfiedCondition</text>
</a>
</g>
</g>
<!-- Node1&#45;&gt;Node9 -->
<g id="edge8" class="edge"><title>Node1&#45;&gt;Node9</title>
<path fill="none" stroke="midnightblue" d="M140.359,-343.488C158.365,-345.544 177.79,-347.761 196.381,-349.884"/>
<polygon fill="midnightblue" stroke="midnightblue" points="140.56,-339.989 130.227,-342.332 139.766,-346.944 140.56,-339.989"/>
</g>
<!-- Node10 -->
<g id="node10" class="node"><title>Node10</title>
<g id="a_node10"><a xlink:href="../../d2/db2/classinterpreter_1_1expression_1_1conditional_1_1_less_than.html#a61ed427aa1d1fb73fb3a8dfff8eab539" target="_top" xlink:title="interpreter.expression.conditional.\lLessThan.hasSatisfiedCondition">
<polygon fill="white" stroke="black" points="196.5,-296 196.5,-326 375.5,-326 375.5,-296 196.5,-296"/>
<text text-anchor="start" x="204.5" y="-314" font-family="Helvetica,sans-Serif" font-size="10.00">interpreter.expression.conditional.</text>
<text text-anchor="middle" x="286" y="-303" font-family="Helvetica,sans-Serif" font-size="10.00">LessThan.hasSatisfiedCondition</text>
</a>
</g>
</g>
<!-- Node1&#45;&gt;Node10 -->
<g id="edge9" class="edge"><title>Node1&#45;&gt;Node10</title>
<path fill="none" stroke="midnightblue" d="M140.359,-326.851C158.365,-324.878 177.79,-322.749 196.381,-320.712"/>
<polygon fill="midnightblue" stroke="midnightblue" points="139.787,-323.393 130.227,-327.961 140.549,-330.351 139.787,-323.393"/>
</g>
<!-- Node11 -->
<g id="node11" class="node"><title>Node11</title>
<g id="a_node11"><a xlink:href="../../d1/d9b/classinterpreter_1_1expression_1_1conditional_1_1_equal.html#a525a6a681276c5d73c54e136f9251964" target="_top" xlink:title="interpreter.expression.conditional.\lEqual.hasSatisfiedCondition">
<polygon fill="white" stroke="black" points="196.5,-247 196.5,-277 375.5,-277 375.5,-247 196.5,-247"/>
<text text-anchor="start" x="204.5" y="-265" font-family="Helvetica,sans-Serif" font-size="10.00">interpreter.expression.conditional.</text>
<text text-anchor="middle" x="286" y="-254" font-family="Helvetica,sans-Serif" font-size="10.00">Equal.hasSatisfiedCondition</text>
</a>
</g>
</g>
<!-- Node1&#45;&gt;Node11 -->
<g id="edge10" class="edge"><title>Node1&#45;&gt;Node11</title>
<path fill="none" stroke="midnightblue" d="M101.865,-315.192C120.536,-305.554 144.004,-294.468 166,-287 177.094,-283.233 188.972,-279.925 200.77,-277.053"/>
<polygon fill="midnightblue" stroke="midnightblue" points="100.071,-312.181 92.8433,-319.928 103.324,-318.379 100.071,-312.181"/>
</g>
<!-- Node12 -->
<g id="node12" class="node"><title>Node12</title>
<g id="a_node12"><a xlink:href="../../d4/d41/classinterpreter_1_1expression_1_1conditional_1_1_greater_than.html#a60ca905f9651ea46835623db4fc8e64c" target="_top" xlink:title="interpreter.expression.conditional.\lGreaterThan.hasSatisfiedCondition">
<polygon fill="white" stroke="black" points="194.5,-198 194.5,-228 377.5,-228 377.5,-198 194.5,-198"/>
<text text-anchor="start" x="202.5" y="-216" font-family="Helvetica,sans-Serif" font-size="10.00">interpreter.expression.conditional.</text>
<text text-anchor="middle" x="286" y="-205" font-family="Helvetica,sans-Serif" font-size="10.00">GreaterThan.hasSatisfiedCondition</text>
</a>
</g>
</g>
<!-- Node1&#45;&gt;Node12 -->
<g id="edge11" class="edge"><title>Node1&#45;&gt;Node12</title>
<path fill="none" stroke="midnightblue" d="M83.3577,-311.808C101.459,-289.352 131.913,-256.121 166,-238 174.854,-233.293 184.519,-229.472 194.39,-226.37"/>
<polygon fill="midnightblue" stroke="midnightblue" points="80.4766,-309.809 77.0433,-319.832 85.9777,-314.138 80.4766,-309.809"/>
</g>
<!-- Node13 -->
<g id="node13" class="node"><title>Node13</title>
<g id="a_node13"><a xlink:href="../../dd/d30/classinterpreter_1_1expression_1_1conditional_1_1_not_equal.html#aaddd0a2b75453f9bc3960ba9d110df79" target="_top" xlink:title="interpreter.expression.conditional.\lNotEqual.hasSatisfiedCondition">
<polygon fill="white" stroke="black" points="196.5,-149 196.5,-179 375.5,-179 375.5,-149 196.5,-149"/>
<text text-anchor="start" x="204.5" y="-167" font-family="Helvetica,sans-Serif" font-size="10.00">interpreter.expression.conditional.</text>
<text text-anchor="middle" x="286" y="-156" font-family="Helvetica,sans-Serif" font-size="10.00">NotEqual.hasSatisfiedCondition</text>
</a>
</g>
</g>
<!-- Node1&#45;&gt;Node13 -->
<g id="edge12" class="edge"><title>Node1&#45;&gt;Node13</title>
<path fill="none" stroke="midnightblue" d="M75.8401,-310.339C90.3795,-277.245 120.845,-219.146 166,-189 175.218,-182.846 185.659,-178.165 196.436,-174.611"/>
<polygon fill="midnightblue" stroke="midnightblue" points="72.5315,-309.176 71.8406,-319.748 78.9736,-311.914 72.5315,-309.176"/>
</g>
<!-- Node14 -->
<g id="node14" class="node"><title>Node14</title>
<g id="a_node14"><a xlink:href="../../d6/d76/classinterpreter_1_1_s_logo_result_merger.html#a8c0879f8ab9d66e54b0317229ee6aa77" target="_top" xlink:title="interpreter.SLogoResultMerger.merge\lAndReturn">
<polygon fill="white" stroke="black" points="188,-100 188,-130 384,-130 384,-100 188,-100"/>
<text text-anchor="start" x="196" y="-118" font-family="Helvetica,sans-Serif" font-size="10.00">interpreter.SLogoResultMerger.merge</text>
<text text-anchor="middle" x="286" y="-107" font-family="Helvetica,sans-Serif" font-size="10.00">AndReturn</text>
</a>
</g>
</g>
<!-- Node1&#45;&gt;Node14 -->
<g id="edge13" class="edge"><title>Node1&#45;&gt;Node14</title>
<path fill="none" stroke="midnightblue" d="M71.4407,-309.995C81.9631,-267.919 109.247,-183.324 166,-140 172.628,-134.94 180.044,-130.847 187.847,-127.542"/>
<polygon fill="midnightblue" stroke="midnightblue" points="67.9792,-309.422 69.0654,-319.961 74.7885,-311.045 67.9792,-309.422"/>
</g>
<!-- Node34 -->
<g id="node34" class="node"><title>Node34</title>
<g id="a_node34"><a xlink:href="../../d7/d98/classtest_1_1_math_expression_tester.html#a782c9fa3f42b7a7ac8b5eb42794c4011" target="_top" xlink:title="test.MathExpressionTester.sumTest">
<polygon fill="white" stroke="black" points="888.5,-61.5 888.5,-80.5 1073.5,-80.5 1073.5,-61.5 888.5,-61.5"/>
<text text-anchor="middle" x="981" y="-68.5" font-family="Helvetica,sans-Serif" font-size="10.00">test.MathExpressionTester.sumTest</text>
</a>
</g>
</g>
<!-- Node1&#45;&gt;Node34 -->
<g id="edge36" class="edge"><title>Node1&#45;&gt;Node34</title>
<path fill="none" stroke="midnightblue" d="M67.7186,-309.548C72.7218,-258.019 92.0635,-141.931 166,-91 224.171,-50.9289 687.712,-61.238 888.168,-67.6843"/>
<polygon fill="midnightblue" stroke="midnightblue" points="64.207,-309.533 66.833,-319.797 71.181,-310.136 64.207,-309.533"/>
</g>
<!-- Node35 -->
<g id="node35" class="node"><title>Node35</title>
<g id="a_node35"><a xlink:href="../../da/d40/classviewcontroller_1_1commands_1_1_command_status_view_controller.html#a835257890babe2edf8841916c5b689aa" target="_top" xlink:title="viewcontroller.commands.\lCommandStatusViewController.update">
<polygon fill="white" stroke="black" points="184.5,-12 184.5,-42 387.5,-42 387.5,-12 184.5,-12"/>
<text text-anchor="start" x="192.5" y="-30" font-family="Helvetica,sans-Serif" font-size="10.00">viewcontroller.commands.</text>
<text text-anchor="middle" x="286" y="-19" font-family="Helvetica,sans-Serif" font-size="10.00">CommandStatusViewController.update</text>
</a>
</g>
</g>
<!-- Node1&#45;&gt;Node35 -->
<g id="edge37" class="edge"><title>Node1&#45;&gt;Node35</title>
<path fill="none" stroke="midnightblue" d="M67.4294,-309.823C71.9291,-255.25 90.4399,-125.472 166,-57 172.71,-50.9195 180.472,-46.0311 188.751,-42.1066"/>
<polygon fill="midnightblue" stroke="midnightblue" points="63.9249,-309.758 66.6848,-319.987 70.9062,-310.27 63.9249,-309.758"/>
</g>
<!-- Node3 -->
<g id="node3" class="node"><title>Node3</title>
<g id="a_node3"><a xlink:href="../../d8/ddb/classinterpreter_1_1expression_1_1_turtle_command_expression.html#aa4cb09181231e13694f151cd14e01313" target="_top" xlink:title="interpreter.expression.Turtle\lCommandExpression.evaluate">
<polygon fill="white" stroke="black" points="465.5,-629 465.5,-659 628.5,-659 628.5,-629 465.5,-629"/>
<text text-anchor="start" x="473.5" y="-647" font-family="Helvetica,sans-Serif" font-size="10.00">interpreter.expression.Turtle</text>
<text text-anchor="middle" x="547" y="-636" font-family="Helvetica,sans-Serif" font-size="10.00">CommandExpression.evaluate</text>
</a>
</g>
</g>
<!-- Node2&#45;&gt;Node3 -->
<g id="edge2" class="edge"><title>Node2&#45;&gt;Node3</title>
<path fill="none" stroke="midnightblue" d="M415.971,-644C432.791,-644 449.623,-644 465.332,-644"/>
<polygon fill="midnightblue" stroke="midnightblue" points="415.509,-640.5 405.509,-644 415.509,-647.5 415.509,-640.5"/>
</g>
<!-- Node15 -->
<g id="node15" class="node"><title>Node15</title>
<g id="a_node15"><a xlink:href="../../da/de4/classinterpreter_1_1_expression_evaluator.html#a349369ee222f83e4370c70b449844139" target="_top" xlink:title="interpreter.ExpressionEvaluator.evaluate\lExpressionsAndMerge">
<polygon fill="white" stroke="black" points="442,-100 442,-130 652,-130 652,-100 442,-100"/>
<text text-anchor="start" x="450" y="-118" font-family="Helvetica,sans-Serif" font-size="10.00">interpreter.ExpressionEvaluator.evaluate</text>
<text text-anchor="middle" x="547" y="-107" font-family="Helvetica,sans-Serif" font-size="10.00">ExpressionsAndMerge</text>
</a>
</g>
</g>
<!-- Node14&#45;&gt;Node15 -->
<g id="edge14" class="edge"><title>Node14&#45;&gt;Node15</title>
<path fill="none" stroke="midnightblue" d="M394.399,-115C410.065,-115 426.175,-115 441.776,-115"/>
<polygon fill="midnightblue" stroke="midnightblue" points="394.179,-111.5 384.179,-115 394.179,-118.5 394.179,-111.5"/>
</g>
<!-- Node16 -->
<g id="node16" class="node"><title>Node16</title>
<g id="a_node16"><a xlink:href="../../d2/dc7/classinterpreter_1_1_interpreter.html#a2398aed9ce5fd0631e4a61eb0ae7e3eb" target="_top" xlink:title="interpreter.Interpreter.interpret">
<polygon fill="white" stroke="black" points="688,-105.5 688,-124.5 852,-124.5 852,-105.5 688,-105.5"/>
<text text-anchor="middle" x="770" y="-112.5" font-family="Helvetica,sans-Serif" font-size="10.00">interpreter.Interpreter.interpret</text>
</a>
</g>
</g>
<!-- Node15&#45;&gt;Node16 -->
<g id="edge15" class="edge"><title>Node15&#45;&gt;Node16</title>
<path fill="none" stroke="midnightblue" d="M662.148,-115C670.767,-115 679.356,-115 687.706,-115"/>
<polygon fill="midnightblue" stroke="midnightblue" points="662.029,-111.5 652.029,-115 662.029,-118.5 662.029,-111.5"/>
</g>
<!-- Node16&#45;&gt;Node4 -->
<g id="edge16" class="edge"><title>Node16&#45;&gt;Node4</title>
<path fill="none" stroke="midnightblue" d="M784.79,-132.617C823.337,-181.861 931.757,-320.369 968.017,-366.692"/>
<polygon fill="midnightblue" stroke="midnightblue" points="787.358,-130.22 778.438,-124.503 781.846,-134.534 787.358,-130.22"/>
</g>
<!-- Node17 -->
<g id="node17" class="node"><title>Node17</title>
<g id="a_node17"><a xlink:href="../../de/d21/classmodel_1_1_main_model.html#a96f4ff9f640f14d713c5d90ab5704884" target="_top" xlink:title="model.MainModel.interpret\lSLogoCommand">
<polygon fill="white" stroke="black" points="908.5,-100 908.5,-130 1053.5,-130 1053.5,-100 908.5,-100"/>
<text text-anchor="start" x="916.5" y="-118" font-family="Helvetica,sans-Serif" font-size="10.00">model.MainModel.interpret</text>
<text text-anchor="middle" x="981" y="-107" font-family="Helvetica,sans-Serif" font-size="10.00">SLogoCommand</text>
</a>
</g>
</g>
<!-- Node16&#45;&gt;Node17 -->
<g id="edge17" class="edge"><title>Node16&#45;&gt;Node17</title>
<path fill="none" stroke="midnightblue" d="M862.211,-115C877.699,-115 893.583,-115 908.473,-115"/>
<polygon fill="midnightblue" stroke="midnightblue" points="862.104,-111.5 852.104,-115 862.104,-118.5 862.104,-111.5"/>
</g>
<!-- Node16&#45;&gt;Node34 -->
<g id="edge35" class="edge"><title>Node16&#45;&gt;Node34</title>
<path fill="none" stroke="midnightblue" d="M826.537,-103.308C860.346,-96.1904 902.989,-87.2128 934.739,-80.5287"/>
<polygon fill="midnightblue" stroke="midnightblue" points="825.414,-99.9675 816.35,-105.453 826.856,-106.817 825.414,-99.9675"/>
</g>
<!-- Node18 -->
<g id="node18" class="node"><title>Node18</title>
<g id="a_node18"><a xlink:href="../../de/d21/classmodel_1_1_main_model.html#ab4985c9a187961a2d57a8a0a63ab3b18" target="_top" xlink:title="model.MainModel.interpret\lSLogoCommand">
<polygon fill="white" stroke="black" points="1137.5,-125 1137.5,-155 1282.5,-155 1282.5,-125 1137.5,-125"/>
<text text-anchor="start" x="1145.5" y="-143" font-family="Helvetica,sans-Serif" font-size="10.00">model.MainModel.interpret</text>
<text text-anchor="middle" x="1210" y="-132" font-family="Helvetica,sans-Serif" font-size="10.00">SLogoCommand</text>
</a>
</g>
</g>
<!-- Node17&#45;&gt;Node18 -->
<g id="edge18" class="edge"><title>Node17&#45;&gt;Node18</title>
<path fill="none" stroke="midnightblue" d="M1063.71,-123.999C1087.83,-126.655 1114.03,-129.541 1137.46,-132.121"/>
<polygon fill="midnightblue" stroke="midnightblue" points="1063.84,-120.492 1053.51,-122.876 1063.07,-127.45 1063.84,-120.492"/>
</g>
<!-- Node19 -->
<g id="node19" class="node"><title>Node19</title>
<g id="a_node19"><a xlink:href="../../d3/d67/classviewcontroller_1_1_main_view_controller.html#a1b77a34d9385ff9296a9dc1db8c322cb" target="_top" xlink:title="viewcontroller.MainViewController.pass\lSLogoCommand">
<polygon fill="white" stroke="black" points="1110,-76 1110,-106 1310,-106 1310,-76 1110,-76"/>
<text text-anchor="start" x="1118" y="-94" font-family="Helvetica,sans-Serif" font-size="10.00">viewcontroller.MainViewController.pass</text>
<text text-anchor="middle" x="1210" y="-83" font-family="Helvetica,sans-Serif" font-size="10.00">SLogoCommand</text>
</a>
</g>
</g>
<!-- Node17&#45;&gt;Node19 -->
<g id="edge19" class="edge"><title>Node17&#45;&gt;Node19</title>
<path fill="none" stroke="midnightblue" d="M1063.68,-106.364C1078.58,-104.789 1094.27,-103.131 1109.61,-101.509"/>
<polygon fill="midnightblue" stroke="midnightblue" points="1063.09,-102.907 1053.51,-107.439 1063.83,-109.868 1063.09,-102.907"/>
</g>
<!-- Node20 -->
<g id="node20" class="node"><title>Node20</title>
<g id="a_node20"><a xlink:href="../../d0/d7c/classviewcontroller_1_1commands_1_1_command_window_container_view_controller.html#a0d7c2e3db2080741b7b01b42a0294695" target="_top" xlink:title="viewcontroller.commands.\lCommandWindowContainerViewController.pass\lSLogoCommand">
<polygon fill="white" stroke="black" points="1346,-100.5 1346,-141.5 1588,-141.5 1588,-100.5 1346,-100.5"/>
<text text-anchor="start" x="1354" y="-129.5" font-family="Helvetica,sans-Serif" font-size="10.00">viewcontroller.commands.</text>
<text text-anchor="start" x="1354" y="-118.5" font-family="Helvetica,sans-Serif" font-size="10.00">CommandWindowContainerViewController.pass</text>
<text text-anchor="middle" x="1467" y="-107.5" font-family="Helvetica,sans-Serif" font-size="10.00">SLogoCommand</text>
</a>
</g>
</g>
<!-- Node19&#45;&gt;Node20 -->
<g id="edge20" class="edge"><title>Node19&#45;&gt;Node20</title>
<path fill="none" stroke="midnightblue" d="M1320.46,-103.877C1328.82,-104.861 1337.29,-105.857 1345.71,-106.849"/>
<polygon fill="midnightblue" stroke="midnightblue" points="1320.66,-100.377 1310.32,-102.685 1319.84,-107.329 1320.66,-100.377"/>
</g>
<!-- Node30 -->
<g id="node30" class="node"><title>Node30</title>
<g id="a_node30"><a xlink:href="../../d3/daf/classviewcontroller_1_1turtlegrid_1_1_turtle_window_view_controller.html#a0a65ca6c84f3f3e7bffa675df02c9166" target="_top" xlink:title="viewcontroller.turtlegrid.\lTurtleWindowViewController.pass\lSLogoCommand">
<polygon fill="white" stroke="black" points="1382,-40.5 1382,-81.5 1552,-81.5 1552,-40.5 1382,-40.5"/>
<text text-anchor="start" x="1390" y="-69.5" font-family="Helvetica,sans-Serif" font-size="10.00">viewcontroller.turtlegrid.</text>
<text text-anchor="start" x="1390" y="-58.5" font-family="Helvetica,sans-Serif" font-size="10.00">TurtleWindowViewController.pass</text>
<text text-anchor="middle" x="1467" y="-47.5" font-family="Helvetica,sans-Serif" font-size="10.00">SLogoCommand</text>
</a>
</g>
</g>
<!-- Node19&#45;&gt;Node30 -->
<g id="edge30" class="edge"><title>Node19&#45;&gt;Node30</title>
<path fill="none" stroke="midnightblue" d="M1320.36,-78.134C1340.94,-75.7128 1362.16,-73.216 1381.83,-70.9027"/>
<polygon fill="midnightblue" stroke="midnightblue" points="1319.84,-74.6708 1310.32,-79.3153 1320.66,-81.6228 1319.84,-74.6708"/>
</g>
<!-- Node21 -->
<g id="node21" class="node"><title>Node21</title>
<g id="a_node21"><a xlink:href="../../de/d8d/classviewcontroller_1_1commands_1_1_command_prompt_view_controller.html#afc397f419037ca0ec30bdc6e93667e86" target="_top" xlink:title="viewcontroller.commands.\lCommandPromptViewController.pass\lCommandToModel">
<polygon fill="white" stroke="black" points="1629.5,-157.5 1629.5,-198.5 1824.5,-198.5 1824.5,-157.5 1629.5,-157.5"/>
<text text-anchor="start" x="1637.5" y="-186.5" font-family="Helvetica,sans-Serif" font-size="10.00">viewcontroller.commands.</text>
<text text-anchor="start" x="1637.5" y="-175.5" font-family="Helvetica,sans-Serif" font-size="10.00">CommandPromptViewController.pass</text>
<text text-anchor="middle" x="1727" y="-164.5" font-family="Helvetica,sans-Serif" font-size="10.00">CommandToModel</text>
</a>
</g>
</g>
<!-- Node20&#45;&gt;Node21 -->
<g id="edge21" class="edge"><title>Node20&#45;&gt;Node21</title>
<path fill="none" stroke="midnightblue" d="M1571.1,-143.778C1591.55,-148.296 1612.9,-153.014 1632.99,-157.452"/>
<polygon fill="midnightblue" stroke="midnightblue" points="1571.66,-140.318 1561.14,-141.578 1570.15,-147.153 1571.66,-140.318"/>
</g>
<!-- Node25 -->
<g id="node25" class="node"><title>Node25</title>
<g id="a_node25"><a xlink:href="../../d4/dc8/classviewcontroller_1_1commands_1_1_user_defined_variables_view_controller.html#a14508efe9a049e27b8a7f4d0928b83cd" target="_top" xlink:title="viewcontroller.commands.\lUserDefinedVariablesViewController.key\lPressed">
<polygon fill="white" stroke="black" points="1624,-97.5 1624,-138.5 1830,-138.5 1830,-97.5 1624,-97.5"/>
<text text-anchor="start" x="1632" y="-126.5" font-family="Helvetica,sans-Serif" font-size="10.00">viewcontroller.commands.</text>
<text text-anchor="start" x="1632" y="-115.5" font-family="Helvetica,sans-Serif" font-size="10.00">UserDefinedVariablesViewController.key</text>
<text text-anchor="middle" x="1727" y="-104.5" font-family="Helvetica,sans-Serif" font-size="10.00">Pressed</text>
</a>
</g>
</g>
<!-- Node20&#45;&gt;Node25 -->
<g id="edge25" class="edge"><title>Node20&#45;&gt;Node25</title>
<path fill="none" stroke="midnightblue" d="M1598.58,-119.482C1607,-119.384 1615.42,-119.286 1623.68,-119.19"/>
<polygon fill="midnightblue" stroke="midnightblue" points="1598.27,-115.985 1588.31,-119.601 1598.35,-122.984 1598.27,-115.985"/>
</g>
<!-- Node22 -->
<g id="node22" class="node"><title>Node22</title>
<g id="a_node22"><a xlink:href="../../de/d8d/classviewcontroller_1_1commands_1_1_command_prompt_view_controller.html#a02e953379b9b8de02a4e15d94fe1c559" target="_top" xlink:title="viewcontroller.commands.\lCommandPromptViewController.set\lUpSubmitButton">
<polygon fill="white" stroke="black" points="1886,-157.5 1886,-198.5 2074,-198.5 2074,-157.5 1886,-157.5"/>
<text text-anchor="start" x="1894" y="-186.5" font-family="Helvetica,sans-Serif" font-size="10.00">viewcontroller.commands.</text>
<text text-anchor="start" x="1894" y="-175.5" font-family="Helvetica,sans-Serif" font-size="10.00">CommandPromptViewController.set</text>
<text text-anchor="middle" x="1980" y="-164.5" font-family="Helvetica,sans-Serif" font-size="10.00">UpSubmitButton</text>
</a>
</g>
</g>
<!-- Node21&#45;&gt;Node22 -->
<g id="edge22" class="edge"><title>Node21&#45;&gt;Node22</title>
<path fill="none" stroke="midnightblue" d="M1835.09,-178C1851.91,-178 1869.19,-178 1885.67,-178"/>
<polygon fill="midnightblue" stroke="midnightblue" points="1834.68,-174.5 1824.68,-178 1834.68,-181.5 1834.68,-174.5"/>
</g>
<!-- Node23 -->
<g id="node23" class="node"><title>Node23</title>
<g id="a_node23"><a xlink:href="../../de/d8d/classviewcontroller_1_1commands_1_1_command_prompt_view_controller.html#a6931239ae66e9bb6ebfa794b7dada7b5" target="_top" xlink:title="viewcontroller.commands.\lCommandPromptViewController.set\lUpCommandPromptHorizontalBox">
<polygon fill="white" stroke="black" points="2140,-157.5 2140,-198.5 2328,-198.5 2328,-157.5 2140,-157.5"/>
<text text-anchor="start" x="2148" y="-186.5" font-family="Helvetica,sans-Serif" font-size="10.00">viewcontroller.commands.</text>
<text text-anchor="start" x="2148" y="-175.5" font-family="Helvetica,sans-Serif" font-size="10.00">CommandPromptViewController.set</text>
<text text-anchor="middle" x="2234" y="-164.5" font-family="Helvetica,sans-Serif" font-size="10.00">UpCommandPromptHorizontalBox</text>
</a>
</g>
</g>
<!-- Node22&#45;&gt;Node23 -->
<g id="edge23" class="edge"><title>Node22&#45;&gt;Node23</title>
<path fill="none" stroke="midnightblue" d="M2084.26,-178C2102.67,-178 2121.74,-178 2139.84,-178"/>
<polygon fill="midnightblue" stroke="midnightblue" points="2084.12,-174.5 2074.12,-178 2084.12,-181.5 2084.12,-174.5"/>
</g>
<!-- Node24 -->
<g id="node24" class="node"><title>Node24</title>
<g id="a_node24"><a xlink:href="../../de/d8d/classviewcontroller_1_1commands_1_1_command_prompt_view_controller.html#a7e92ce4136e77a153ee6ef862f99052a" target="_top" xlink:title="viewcontroller.commands.\lCommandPromptViewController.\lCommandPromptViewController">
<polygon fill="white" stroke="black" points="2399.5,-157.5 2399.5,-198.5 2572.5,-198.5 2572.5,-157.5 2399.5,-157.5"/>
<text text-anchor="start" x="2407.5" y="-186.5" font-family="Helvetica,sans-Serif" font-size="10.00">viewcontroller.commands.</text>
<text text-anchor="start" x="2407.5" y="-175.5" font-family="Helvetica,sans-Serif" font-size="10.00">CommandPromptViewController.</text>
<text text-anchor="middle" x="2486" y="-164.5" font-family="Helvetica,sans-Serif" font-size="10.00">CommandPromptViewController</text>
</a>
</g>
</g>
<!-- Node23&#45;&gt;Node24 -->
<g id="edge24" class="edge"><title>Node23&#45;&gt;Node24</title>
<path fill="none" stroke="midnightblue" d="M2338.29,-178C2358.57,-178 2379.64,-178 2399.27,-178"/>
<polygon fill="midnightblue" stroke="midnightblue" points="2338.09,-174.5 2328.09,-178 2338.09,-181.5 2338.09,-174.5"/>
</g>
<!-- Node26 -->
<g id="node26" class="node"><title>Node26</title>
<g id="a_node26"><a xlink:href="../../d4/dc8/classviewcontroller_1_1commands_1_1_user_defined_variables_view_controller.html#acac3eb9c8c5f87e3ef36c56477a0cecc" target="_top" xlink:title="viewcontroller.commands.\lUserDefinedVariablesViewController.variable\lClicked">
<polygon fill="white" stroke="black" points="1866.5,-97.5 1866.5,-138.5 2093.5,-138.5 2093.5,-97.5 1866.5,-97.5"/>
<text text-anchor="start" x="1874.5" y="-126.5" font-family="Helvetica,sans-Serif" font-size="10.00">viewcontroller.commands.</text>
<text text-anchor="start" x="1874.5" y="-115.5" font-family="Helvetica,sans-Serif" font-size="10.00">UserDefinedVariablesViewController.variable</text>
<text text-anchor="middle" x="1980" y="-104.5" font-family="Helvetica,sans-Serif" font-size="10.00">Clicked</text>
</a>
</g>
</g>
<!-- Node25&#45;&gt;Node26 -->
<g id="edge26" class="edge"><title>Node25&#45;&gt;Node26</title>
<path fill="none" stroke="midnightblue" d="M1840.23,-118C1848.91,-118 1857.67,-118 1866.35,-118"/>
<polygon fill="midnightblue" stroke="midnightblue" points="1840.09,-114.5 1830.09,-118 1840.09,-121.5 1840.09,-114.5"/>
</g>
<!-- Node27 -->
<g id="node27" class="node"><title>Node27</title>
<g id="a_node27"><a xlink:href="../../d4/dc8/classviewcontroller_1_1commands_1_1_user_defined_variables_view_controller.html#a027a582fe22eab9a05fb0d723fbac644" target="_top" xlink:title="viewcontroller.commands.\lUserDefinedVariablesViewController.add\lVariableToList">
<polygon fill="white" stroke="black" points="2130,-97.5 2130,-138.5 2338,-138.5 2338,-97.5 2130,-97.5"/>
<text text-anchor="start" x="2138" y="-126.5" font-family="Helvetica,sans-Serif" font-size="10.00">viewcontroller.commands.</text>
<text text-anchor="start" x="2138" y="-115.5" font-family="Helvetica,sans-Serif" font-size="10.00">UserDefinedVariablesViewController.add</text>
<text text-anchor="middle" x="2234" y="-104.5" font-family="Helvetica,sans-Serif" font-size="10.00">VariableToList</text>
</a>
</g>
</g>
<!-- Node26&#45;&gt;Node27 -->
<g id="edge27" class="edge"><title>Node26&#45;&gt;Node27</title>
<path fill="none" stroke="midnightblue" d="M2103.93,-118C2112.64,-118 2121.37,-118 2129.95,-118"/>
<polygon fill="midnightblue" stroke="midnightblue" points="2103.73,-114.5 2093.73,-118 2103.73,-121.5 2103.73,-114.5"/>
</g>
<!-- Node28 -->
<g id="node28" class="node"><title>Node28</title>
<g id="a_node28"><a xlink:href="../../d4/dc8/classviewcontroller_1_1commands_1_1_user_defined_variables_view_controller.html#a12bbbabdbb3032751fe57b25e835eafc" target="_top" xlink:title="viewcontroller.commands.\lUserDefinedVariablesViewController.update\lVariableList">
<polygon fill="white" stroke="black" points="2374,-97.5 2374,-138.5 2598,-138.5 2598,-97.5 2374,-97.5"/>
<text text-anchor="start" x="2382" y="-126.5" font-family="Helvetica,sans-Serif" font-size="10.00">viewcontroller.commands.</text>
<text text-anchor="start" x="2382" y="-115.5" font-family="Helvetica,sans-Serif" font-size="10.00">UserDefinedVariablesViewController.update</text>
<text text-anchor="middle" x="2486" y="-104.5" font-family="Helvetica,sans-Serif" font-size="10.00">VariableList</text>
</a>
</g>
</g>
<!-- Node27&#45;&gt;Node28 -->
<g id="edge28" class="edge"><title>Node27&#45;&gt;Node28</title>
<path fill="none" stroke="midnightblue" d="M2348.33,-118C2356.73,-118 2365.21,-118 2373.6,-118"/>
<polygon fill="midnightblue" stroke="midnightblue" points="2348.13,-114.5 2338.13,-118 2348.13,-121.5 2348.13,-114.5"/>
</g>
<!-- Node29 -->
<g id="node29" class="node"><title>Node29</title>
<g id="a_node29"><a xlink:href="../../d4/dc8/classviewcontroller_1_1commands_1_1_user_defined_variables_view_controller.html#a1e84f755902379519ddf5438bc2d27ee" target="_top" xlink:title="viewcontroller.commands.\lUserDefinedVariablesViewController.update">
<polygon fill="white" stroke="black" points="2634,-103 2634,-133 2858,-133 2858,-103 2634,-103"/>
<text text-anchor="start" x="2642" y="-121" font-family="Helvetica,sans-Serif" font-size="10.00">viewcontroller.commands.</text>
<text text-anchor="middle" x="2746" y="-110" font-family="Helvetica,sans-Serif" font-size="10.00">UserDefinedVariablesViewController.update</text>
</a>
</g>
</g>
<!-- Node28&#45;&gt;Node29 -->
<g id="edge29" class="edge"><title>Node28&#45;&gt;Node29</title>
<path fill="none" stroke="midnightblue" d="M2608.5,-118C2616.9,-118 2625.33,-118 2633.67,-118"/>
<polygon fill="midnightblue" stroke="midnightblue" points="2608.29,-114.5 2598.29,-118 2608.29,-121.5 2608.29,-114.5"/>
</g>
<!-- Node31 -->
<g id="node31" class="node"><title>Node31</title>
<g id="a_node31"><a xlink:href="../../d5/dcc/classviewcontroller_1_1turtlegrid_1_1_grid_view_controller.html#a9b87e85ea14f3882c2fefa36ceb159cb" target="_top" xlink:title="viewcontroller.turtlegrid.\lGridViewController.forwardKeyPressed">
<polygon fill="white" stroke="black" points="1628.5,-49 1628.5,-79 1825.5,-79 1825.5,-49 1628.5,-49"/>
<text text-anchor="start" x="1636.5" y="-67" font-family="Helvetica,sans-Serif" font-size="10.00">viewcontroller.turtlegrid.</text>
<text text-anchor="middle" x="1727" y="-56" font-family="Helvetica,sans-Serif" font-size="10.00">GridViewController.forwardKeyPressed</text>
</a>
</g>
</g>
<!-- Node30&#45;&gt;Node31 -->
<g id="edge31" class="edge"><title>Node30&#45;&gt;Node31</title>
<path fill="none" stroke="midnightblue" d="M1562.2,-62.0953C1583.65,-62.3448 1606.49,-62.6103 1628.09,-62.8615"/>
<polygon fill="midnightblue" stroke="midnightblue" points="1562.16,-58.5948 1552.12,-61.9782 1562.08,-65.5943 1562.16,-58.5948"/>
</g>
<!-- Node33 -->
<g id="node33" class="node"><title>Node33</title>
<g id="a_node33"><a xlink:href="../../d5/dcc/classviewcontroller_1_1turtlegrid_1_1_grid_view_controller.html#a7562be13e46d86a1d5f9058462a6d189" target="_top" xlink:title="viewcontroller.turtlegrid.\lGridViewController.rightKeyPressed">
<polygon fill="white" stroke="black" points="1635.5,-0 1635.5,-30 1818.5,-30 1818.5,-0 1635.5,-0"/>
<text text-anchor="start" x="1643.5" y="-18" font-family="Helvetica,sans-Serif" font-size="10.00">viewcontroller.turtlegrid.</text>
<text text-anchor="middle" x="1727" y="-7" font-family="Helvetica,sans-Serif" font-size="10.00">GridViewController.rightKeyPressed</text>
</a>
</g>
</g>
<!-- Node30&#45;&gt;Node33 -->
<g id="edge33" class="edge"><title>Node30&#45;&gt;Node33</title>
<path fill="none" stroke="midnightblue" d="M1561.99,-44.2426C1588.02,-39.6018 1616.1,-34.5942 1641.55,-30.0568"/>
<polygon fill="midnightblue" stroke="midnightblue" points="1561.35,-40.8005 1552.12,-46.0015 1562.58,-47.6918 1561.35,-40.8005"/>
</g>
<!-- Node32 -->
<g id="node32" class="node"><title>Node32</title>
<g id="a_node32"><a xlink:href="../../d5/dcc/classviewcontroller_1_1turtlegrid_1_1_grid_view_controller.html#aacd51569d82b44633f519cc19ef5d937" target="_top" xlink:title="viewcontroller.turtlegrid.\lGridViewController.listenKeys">
<polygon fill="white" stroke="black" points="1903,-25 1903,-55 2057,-55 2057,-25 1903,-25"/>
<text text-anchor="start" x="1911" y="-43" font-family="Helvetica,sans-Serif" font-size="10.00">viewcontroller.turtlegrid.</text>
<text text-anchor="middle" x="1980" y="-32" font-family="Helvetica,sans-Serif" font-size="10.00">GridViewController.listenKeys</text>
</a>
</g>
</g>
<!-- Node31&#45;&gt;Node32 -->
<g id="edge32" class="edge"><title>Node31&#45;&gt;Node32</title>
<path fill="none" stroke="midnightblue" d="M1835.73,-53.6987C1858.33,-51.5377 1881.72,-49.3017 1902.88,-47.2787"/>
<polygon fill="midnightblue" stroke="midnightblue" points="1835.38,-50.2162 1825.76,-54.6523 1836.05,-57.1844 1835.38,-50.2162"/>
</g>
<!-- Node33&#45;&gt;Node32 -->
<g id="edge34" class="edge"><title>Node33&#45;&gt;Node32</title>
<path fill="none" stroke="midnightblue" d="M1828.76,-25.0362C1853.52,-27.5023 1879.62,-30.1015 1902.99,-32.4292"/>
<polygon fill="midnightblue" stroke="midnightblue" points="1828.91,-21.534 1818.62,-24.0256 1828.22,-28.4995 1828.91,-21.534"/>
</g>
</g>
</svg>
        <g id="navigator" transform="translate(0 0)" fill="#404254">
                <rect fill="#f2f5e9" fill-opacity="0.5" stroke="#606060" stroke-width=".5" x="0" y="0" width="60" height="60"/>
                <use id="zoomplus" xlink:href="#zoomPlus" x="17" y="9" onmousedown="handleZoom(evt,'in')"/>
                <use id="zoomminus" xlink:href="#zoomMin" x="42" y="9" onmousedown="handleZoom(evt,'out')"/>
                <use id="reset" xlink:href="#resetDef" x="30" y="36" onmousedown="handleReset()"/>
                <g id="arrowUp" xlink:href="#dirArrow" transform="translate(30 24)" onmousedown="handlePan(0,-1)">
                  <use xlink:href="#rim" fill="#404040">
                        <set attributeName="fill" to="#808080" begin="arrowUp.mouseover" end="arrowUp.mouseout"/>
                  </use>
                  <path fill="none" stroke="white" stroke-width="1.5" d="M0,-3.0v7 M-2.5,-0.5L0,-3.0L2.5,-0.5"/>
                </g>
                <g id="arrowRight" xlink:href="#dirArrow" transform="rotate(90) translate(36 -43)" onmousedown="handlePan(1,0)">
                  <use xlink:href="#rim" fill="#404040">
                        <set attributeName="fill" to="#808080" begin="arrowRight.mouseover" end="arrowRight.mouseout"/>
                  </use>
                  <path fill="none" stroke="white" stroke-width="1.5" d="M0,-3.0v7 M-2.5,-0.5L0,-3.0L2.5,-0.5"/>
                </g>
                <g id="arrowDown" xlink:href="#dirArrow" transform="rotate(180) translate(-30 -48)" onmousedown="handlePan(0,1)">
                  <use xlink:href="#rim" fill="#404040">
                        <set attributeName="fill" to="#808080" begin="arrowDown.mouseover" end="arrowDown.mouseout"/>
                  </use>
                  <path fill="none" stroke="white" stroke-width="1.5" d="M0,-3.0v7 M-2.5,-0.5L0,-3.0L2.5,-0.5"/>
                </g>
                <g id="arrowLeft" xlink:href="#dirArrow" transform="rotate(270) translate(-36 17)" onmousedown="handlePan(-1,0)">
                  <use xlink:href="#rim" fill="#404040">
                        <set attributeName="fill" to="#808080" begin="arrowLeft.mouseover" end="arrowLeft.mouseout"/>
                  </use>
                  <path fill="none" stroke="white" stroke-width="1.5" d="M0,-3.0v7 M-2.5,-0.5L0,-3.0L2.5,-0.5"/>
                </g>
        </g>
        <svg viewBox="0 0 15 15" width="100%" height="30px" preserveAspectRatio="xMaxYMin meet">
         <g id="arrow_out" transform="scale(0.3 0.3)">
          <a xlink:href="classinterpreter_1_1result_1_1_s_logo_result_a7e050bbb65d7c7eb5e9b9970c6e2616f_icgraph_org.svg" target="_base">
           <rect id="button" ry="5" rx="5" y="6" x="6" height="38" width="38"
                fill="#f2f5e9" fill-opacity="0.5" stroke="#606060" stroke-width="1.0"/>
           <path id="arrow"
             d="M 11.500037,31.436501 C 11.940474,20.09759 22.043105,11.32322 32.158766,21.979434 L 37.068811,17.246167 C 37.068811,17.246167 37.088388,32 37.088388,32 L 22.160133,31.978069 C 22.160133,31.978069 26.997745,27.140456 26.997745,27.140456 C 18.528582,18.264221 13.291696,25.230495 11.500037,31.436501 z"
             style="fill:#404040;"/>
          </a>
         </g>
        </svg>
</svg>
