<?xml version="1.0" encoding="UTF-8" standalone="no"?>
<!DOCTYPE svg PUBLIC "-//W3C//DTD SVG 1.1//EN"
 "http://www.w3.org/Graphics/SVG/1.1/DTD/svg11.dtd">
<!-- Generated by graphviz version 2.36.0 (20140111.2315)
 -->
<!-- Title: viewcontroller.commands.CommandStatusViewController.setStatusLabel Pages: 1 -->
<svg width="398pt" height="48pt"
 viewBox="0.00 0.00 398.00 48.00" xmlns="http://www.w3.org/2000/svg" xmlns:xlink="http://www.w3.org/1999/xlink">
<g id="graph0" class="graph" transform="scale(1 1) rotate(0) translate(4 44)">
<title>viewcontroller.commands.CommandStatusViewController.setStatusLabel</title>
<polygon fill="white" stroke="none" points="-4,4 -4,-44 394,-44 394,4 -4,4"/>
<!-- Node1 -->
<g id="node1" class="node"><title>Node1</title>
<polygon fill="#bfbfbf" stroke="black" points="0,0.5 0,-40.5 184,-40.5 184,0.5 0,0.5"/>
<text text-anchor="start" x="8" y="-28.5" font-family="Helvetica,sans-Serif" font-size="10.00">viewcontroller.commands.</text>
<text text-anchor="start" x="8" y="-17.5" font-family="Helvetica,sans-Serif" font-size="10.00">CommandStatusViewController.set</text>
<text text-anchor="middle" x="92" y="-6.5" font-family="Helvetica,sans-Serif" font-size="10.00">StatusLabel</text>
</g>
<!-- Node2 -->
<g id="node2" class="node"><title>Node2</title>
<g id="a_node2"><a xlink:href="../../da/d40/classviewcontroller_1_1commands_1_1_command_status_view_controller.html#ab706eb7ec2c4d7d3fa785d655fa83c2f" target="_top" xlink:title="viewcontroller.commands.\lCommandStatusViewController.\lCommandStatusViewController">
<polygon fill="white" stroke="black" points="220.5,0.5 220.5,-40.5 389.5,-40.5 389.5,0.5 220.5,0.5"/>
<text text-anchor="start" x="228.5" y="-28.5" font-family="Helvetica,sans-Serif" font-size="10.00">viewcontroller.commands.</text>
<text text-anchor="start" x="228.5" y="-17.5" font-family="Helvetica,sans-Serif" font-size="10.00">CommandStatusViewController.</text>
<text text-anchor="middle" x="305" y="-6.5" font-family="Helvetica,sans-Serif" font-size="10.00">CommandStatusViewController</text>
</a>
</g>
</g>
<!-- Node1&#45;&gt;Node2 -->
<g id="edge1" class="edge"><title>Node1&#45;&gt;Node2</title>
<path fill="none" stroke="midnightblue" d="M194.224,-20C202.95,-20 211.714,-20 220.278,-20"/>
<polygon fill="midnightblue" stroke="midnightblue" points="194.014,-16.5001 184.014,-20 194.014,-23.5001 194.014,-16.5001"/>
</g>
</g>
</svg>
