<?xml version="1.0" encoding="UTF-8" standalone="no"?>
<!DOCTYPE svg PUBLIC "-//W3C//DTD SVG 1.1//EN"
 "http://www.w3.org/Graphics/SVG/1.1/DTD/svg11.dtd">
<!-- Generated by graphviz version 2.36.0 (20140111.2315)
 -->
<!-- Title: turtle.draw.PenTransition Pages: 1 -->
<!--zoomable 378 -->
<svg id="main" version="1.1" xmlns="http://www.w3.org/2000/svg" xmlns:xlink="http://www.w3.org/1999/xlink" xml:space="preserve" onload="init(evt)">
<style type="text/css"><![CDATA[
.edge:hover path { stroke: red; }
.edge:hover polygon { stroke: red; fill: red; }
]]></style>
<script type="text/javascript"><![CDATA[
var edges = document.getElementsByTagName('g');
if (edges && edges.length) {
  for (var i=0;i<edges.length;i++) {
    if (edges[i].id.substr(0,4)=='edge') {
      edges[i].setAttribute('class','edge');
    }
  }
}
]]></script>
        <defs>
                <circle id="rim" cx="0" cy="0" r="7"/>
                <circle id="rim2" cx="0" cy="0" r="3.5"/>
                <g id="zoomPlus">
                        <use xlink:href="#rim" fill="#404040">
                                <set attributeName="fill" to="#808080" begin="zoomplus.mouseover" end="zoomplus.mouseout"/>
                        </use>
                        <path d="M-4,0h8M0,-4v8" fill="none" stroke="white" stroke-width="1.5" pointer-events="none"/>
                </g>
                <g id="zoomMin">
                        <use xlink:href="#rim" fill="#404040">
                                <set attributeName="fill" to="#808080" begin="zoomminus.mouseover" end="zoomminus.mouseout"/>
                        </use>
                        <path d="M-4,0h8" fill="none" stroke="white" stroke-width="1.5" pointer-events="none"/>
                </g>
                <g id="dirArrow">
                        <path fill="none" stroke="white" stroke-width="1.5" d="M0,-3.0v7 M-2.5,-0.5L0,-3.0L2.5,-0.5"/>
                </g>
               <g id="resetDef">
                       <use xlink:href="#rim2" fill="#404040">
                               <set attributeName="fill" to="#808080" begin="reset.mouseover" end="reset.mouseout"/>
                       </use>
               </g>
        </defs>

<script type="text/javascript">
var viewWidth = 1458;
var viewHeight = 378;
var sectionId = 'dynsection-1';
</script>
<script xlink:href="../../svgpan.js"/>
<svg id="graph" class="graph">
<g id="viewport">
<title>turtle.draw.PenTransition</title>
<polygon fill="white" stroke="none" points="-4,4 -4,-374 1454,-374 1454,4 -4,4"/>
<!-- Node1 -->
<g id="node1" class="node"><title>Node1</title>
<polygon fill="#bfbfbf" stroke="black" points="1316.5,-265.5 1316.5,-284.5 1449.5,-284.5 1449.5,-265.5 1316.5,-265.5"/>
<text text-anchor="middle" x="1383" y="-272.5" font-family="Helvetica,sans-Serif" font-size="10.00">turtle.draw.PenTransition</text>
</g>
<!-- Node2 -->
<g id="node2" class="node"><title>Node2</title>
<g id="a_node2"><a xlink:href="../../de/de7/classturtle_1_1draw_1_1_linear_transition.html" target="_top" xlink:title="turtle.draw.LinearTransition">
<polygon fill="white" stroke="black" points="1098,-287.5 1098,-306.5 1242,-306.5 1242,-287.5 1098,-287.5"/>
<text text-anchor="middle" x="1170" y="-294.5" font-family="Helvetica,sans-Serif" font-size="10.00">turtle.draw.LinearTransition</text>
</a>
</g>
</g>
<!-- Node2&#45;&gt;Node1 -->
<g id="edge1" class="edge"><title>Node2&#45;&gt;Node1</title>
<path fill="none" stroke="midnightblue" d="M1252.14,-288.54C1273.44,-286.319 1296.13,-283.953 1316.5,-281.829"/>
<polygon fill="midnightblue" stroke="midnightblue" points="1251.72,-285.064 1242.14,-289.582 1252.45,-292.026 1251.72,-285.064"/>
</g>
<!-- Node3 -->
<g id="node3" class="node"><title>Node3</title>
<g id="a_node3"><a xlink:href="../../dd/d1d/classturtle_1_1draw_1_1_s_logo_transition.html" target="_top" xlink:title="turtle.draw.SLogoTransition">
<polygon fill="white" stroke="black" points="914.5,-287.5 914.5,-306.5 1059.5,-306.5 1059.5,-287.5 914.5,-287.5"/>
<text text-anchor="middle" x="987" y="-294.5" font-family="Helvetica,sans-Serif" font-size="10.00">turtle.draw.SLogoTransition</text>
</a>
</g>
</g>
<!-- Node3&#45;&gt;Node2 -->
<g id="edge2" class="edge"><title>Node3&#45;&gt;Node2</title>
<path fill="none" stroke="midnightblue" d="M1069.7,-297C1079.14,-297 1088.71,-297 1097.98,-297"/>
<polygon fill="midnightblue" stroke="midnightblue" points="1069.54,-293.5 1059.54,-297 1069.54,-300.5 1069.54,-293.5"/>
</g>
<!-- Node4 -->
<g id="node4" class="node"><title>Node4</title>
<polygon fill="white" stroke="#bfbfbf" points="767,-300.5 767,-319.5 829,-319.5 829,-300.5 767,-300.5"/>
<text text-anchor="middle" x="798" y="-307.5" font-family="Helvetica,sans-Serif" font-size="10.00">Transition</text>
</g>
<!-- Node4&#45;&gt;Node3 -->
<g id="edge3" class="edge"><title>Node4&#45;&gt;Node3</title>
<path fill="none" stroke="midnightblue" d="M839.299,-307.198C861.215,-305.675 888.977,-303.745 914.438,-301.975"/>
<polygon fill="midnightblue" stroke="midnightblue" points="838.778,-303.726 829.045,-307.911 839.263,-310.709 838.778,-303.726"/>
</g>
<!-- Node5 -->
<g id="node5" class="node"><title>Node5</title>
<g id="a_node5"><a xlink:href="../../df/dcb/classturtle_1_1_turtle.html" target="_top" xlink:title="turtle.Turtle">
<polygon fill="white" stroke="black" points="762.5,-262.5 762.5,-281.5 833.5,-281.5 833.5,-262.5 762.5,-262.5"/>
<text text-anchor="middle" x="798" y="-269.5" font-family="Helvetica,sans-Serif" font-size="10.00">turtle.Turtle</text>
</a>
</g>
</g>
<!-- Node5&#45;&gt;Node3 -->
<g id="edge4" class="edge"><title>Node5&#45;&gt;Node3</title>
<path fill="none" stroke="#9a32cd" stroke-dasharray="5,2" d="M843.747,-277.982C864.964,-280.819 890.83,-284.277 914.658,-287.462"/>
<polygon fill="#9a32cd" stroke="#9a32cd" points="844.111,-274.5 833.735,-276.644 843.183,-281.438 844.111,-274.5"/>
<text text-anchor="middle" x="874" y="-288" font-family="Helvetica,sans-Serif" font-size="10.00"> myTurtle</text>
</g>
<!-- Node6 -->
<g id="node6" class="node"><title>Node6</title>
<g id="a_node6"><a xlink:href="../../dd/d47/classturtle_1_1_turtle_history.html" target="_top" xlink:title="turtle.TurtleHistory">
<polygon fill="white" stroke="black" points="492,-304.5 492,-323.5 596,-323.5 596,-304.5 492,-304.5"/>
<text text-anchor="middle" x="544" y="-311.5" font-family="Helvetica,sans-Serif" font-size="10.00">turtle.TurtleHistory</text>
</a>
</g>
</g>
<!-- Node6&#45;&gt;Node5 -->
<g id="edge5" class="edge"><title>Node6&#45;&gt;Node5</title>
<path fill="none" stroke="#9a32cd" stroke-dasharray="5,2" d="M606.419,-307.265C645.915,-302.465 698.223,-295.233 744,-286 750.251,-284.739 756.86,-283.18 763.211,-281.564"/>
<polygon fill="#9a32cd" stroke="#9a32cd" points="605.921,-303.799 596.408,-308.463 606.753,-310.75 605.921,-303.799"/>
<text text-anchor="middle" x="688" y="-307" font-family="Helvetica,sans-Serif" font-size="10.00"> myTurtleHistory</text>
</g>
<!-- Node7 -->
<g id="node7" class="node"><title>Node7</title>
<polygon fill="white" stroke="#bfbfbf" points="222,-301 222,-331 354,-331 354,-301 222,-301"/>
<text text-anchor="start" x="230" y="-319" font-family="Helvetica,sans-Serif" font-size="10.00">List&lt; turtle.TurtleHistory</text>
<text text-anchor="middle" x="288" y="-308" font-family="Helvetica,sans-Serif" font-size="10.00">State &gt;</text>
</g>
<!-- Node7&#45;&gt;Node6 -->
<g id="edge6" class="edge"><title>Node7&#45;&gt;Node6</title>
<path fill="none" stroke="#9a32cd" stroke-dasharray="5,2" d="M364.32,-315.407C405.381,-315.084 455.132,-314.692 491.699,-314.404"/>
<polygon fill="#9a32cd" stroke="#9a32cd" points="364.054,-311.909 354.081,-315.488 364.109,-318.909 364.054,-311.909"/>
<text text-anchor="middle" x="419" y="-319" font-family="Helvetica,sans-Serif" font-size="10.00"> myStates</text>
</g>
<!-- Node8 -->
<g id="node8" class="node"><title>Node8</title>
<g id="a_node8"><a xlink:href="../../dd/da0/classturtle_1_1draw_1_1_pen.html" target="_top" xlink:title="turtle.draw.Pen">
<polygon fill="white" stroke="black" points="244,-262.5 244,-281.5 332,-281.5 332,-262.5 244,-262.5"/>
<text text-anchor="middle" x="288" y="-269.5" font-family="Helvetica,sans-Serif" font-size="10.00">turtle.draw.Pen</text>
</a>
</g>
</g>
<!-- Node8&#45;&gt;Node5 -->
<g id="edge7" class="edge"><title>Node8&#45;&gt;Node5</title>
<path fill="none" stroke="#9a32cd" stroke-dasharray="5,2" d="M342.314,-272C446.671,-272 675.307,-272 762.386,-272"/>
<polygon fill="#9a32cd" stroke="#9a32cd" points="342.312,-268.5 332.312,-272 342.312,-275.5 342.312,-268.5"/>
<text text-anchor="middle" x="544" y="-275" font-family="Helvetica,sans-Serif" font-size="10.00"> myPen</text>
</g>
<!-- Node9 -->
<g id="node9" class="node"><title>Node9</title>
<polygon fill="white" stroke="#bfbfbf" points="0.5,-350.5 0.5,-369.5 89.5,-369.5 89.5,-350.5 0.5,-350.5"/>
<text text-anchor="middle" x="45" y="-357.5" font-family="Helvetica,sans-Serif" font-size="10.00">List&lt; Double &gt;</text>
</g>
<!-- Node9&#45;&gt;Node8 -->
<g id="edge8" class="edge"><title>Node9&#45;&gt;Node8</title>
<path fill="none" stroke="#9a32cd" stroke-dasharray="5,2" d="M99.8092,-359.613C130.255,-356.835 167.433,-348.853 194,-328 208.385,-316.709 197.816,-302.542 212,-291 221.064,-283.624 232.63,-279.067 243.949,-276.265"/>
<polygon fill="#9a32cd" stroke="#9a32cd" points="99.4771,-356.128 89.7671,-360.367 100.001,-363.108 99.4771,-356.128"/>
<text text-anchor="middle" x="151" y="-362" font-family="Helvetica,sans-Serif" font-size="10.00"> myDash</text>
</g>
<!-- Node10 -->
<g id="node10" class="node"><title>Node10</title>
<polygon fill="white" stroke="#bfbfbf" points="7.5,-312.5 7.5,-331.5 82.5,-331.5 82.5,-312.5 7.5,-312.5"/>
<text text-anchor="middle" x="45" y="-319.5" font-family="Helvetica,sans-Serif" font-size="10.00">List&lt; Line &gt;</text>
</g>
<!-- Node10&#45;&gt;Node8 -->
<g id="edge9" class="edge"><title>Node10&#45;&gt;Node8</title>
<path fill="none" stroke="#9a32cd" stroke-dasharray="5,2" d="M92.6322,-314.997C121.887,-310.311 160.313,-303.619 194,-296 202.098,-294.168 203.975,-293.131 212,-291 223.814,-287.863 236.706,-284.556 248.416,-281.595"/>
<polygon fill="#9a32cd" stroke="#9a32cd" points="92.0205,-311.551 82.6899,-316.57 93.1139,-318.465 92.0205,-311.551"/>
<text text-anchor="middle" x="151" y="-316" font-family="Helvetica,sans-Serif" font-size="10.00"> myDrawnLines</text>
</g>
<!-- Node11 -->
<g id="node11" class="node"><title>Node11</title>
<polygon fill="white" stroke="#bfbfbf" points="24,-274.5 24,-293.5 66,-293.5 66,-274.5 24,-274.5"/>
<text text-anchor="middle" x="45" y="-281.5" font-family="Helvetica,sans-Serif" font-size="10.00">Node</text>
</g>
<!-- Node11&#45;&gt;Node8 -->
<g id="edge10" class="edge"><title>Node11&#45;&gt;Node8</title>
<path fill="none" stroke="#9a32cd" stroke-dasharray="5,2" d="M76.3523,-282.489C118.658,-280.382 195.576,-276.552 243.836,-274.149"/>
<polygon fill="#9a32cd" stroke="#9a32cd" points="75.9465,-279.004 66.133,-282.998 76.2947,-285.996 75.9465,-279.004"/>
<text text-anchor="middle" x="151" y="-284" font-family="Helvetica,sans-Serif" font-size="10.00"> myTurtleNode</text>
</g>
<!-- Node12 -->
<g id="node12" class="node"><title>Node12</title>
<polygon fill="white" stroke="#bfbfbf" points="22,-209.5 22,-228.5 68,-228.5 68,-209.5 22,-209.5"/>
<text text-anchor="middle" x="45" y="-216.5" font-family="Helvetica,sans-Serif" font-size="10.00">Group</text>
</g>
<!-- Node12&#45;&gt;Node8 -->
<g id="edge11" class="edge"><title>Node12&#45;&gt;Node8</title>
<path fill="none" stroke="#9a32cd" stroke-dasharray="5,2" d="M78.0858,-226.056C120.733,-235.435 196.237,-252.04 243.845,-262.509"/>
<polygon fill="#9a32cd" stroke="#9a32cd" points="78.7591,-222.621 68.2407,-223.891 77.2556,-229.457 78.7591,-222.621"/>
<text text-anchor="middle" x="151" y="-254" font-family="Helvetica,sans-Serif" font-size="10.00"> myGrid</text>
</g>
<!-- Node14 -->
<g id="node14" class="node"><title>Node14</title>
<g id="a_node14"><a xlink:href="../../d4/de5/classturtle_1_1_turtle_view_controller.html" target="_top" xlink:title="turtle.TurtleViewController">
<polygon fill="white" stroke="black" points="474.5,-113.5 474.5,-132.5 613.5,-132.5 613.5,-113.5 474.5,-113.5"/>
<text text-anchor="middle" x="544" y="-120.5" font-family="Helvetica,sans-Serif" font-size="10.00">turtle.TurtleViewController</text>
</a>
</g>
</g>
<!-- Node12&#45;&gt;Node14 -->
<g id="edge20" class="edge"><title>Node12&#45;&gt;Node14</title>
<path fill="none" stroke="#9a32cd" stroke-dasharray="5,2" d="M78.5171,-217.204C108.613,-215.239 154.531,-211.472 194,-205 311.005,-185.812 447.131,-149.774 509.129,-132.589"/>
<polygon fill="#9a32cd" stroke="#9a32cd" points="77.949,-213.732 68.1862,-217.848 78.3846,-220.719 77.949,-213.732"/>
<text text-anchor="middle" x="288" y="-205" font-family="Helvetica,sans-Serif" font-size="10.00"> myGroup</text>
</g>
<!-- Node16 -->
<g id="node16" class="node"><title>Node16</title>
<g id="a_node16"><a xlink:href="../../d8/d9e/classturtle_1_1_turtle_image.html" target="_top" xlink:title="turtle.TurtleImage">
<polygon fill="white" stroke="black" points="237.5,-113.5 237.5,-132.5 338.5,-132.5 338.5,-113.5 237.5,-113.5"/>
<text text-anchor="middle" x="288" y="-120.5" font-family="Helvetica,sans-Serif" font-size="10.00">turtle.TurtleImage</text>
</a>
</g>
</g>
<!-- Node12&#45;&gt;Node16 -->
<g id="edge16" class="edge"><title>Node12&#45;&gt;Node16</title>
<path fill="none" stroke="midnightblue" d="M60.4739,-201.83C72.0588,-189.199 89.3987,-172.618 108,-163 130.204,-151.519 192.498,-139.075 237.357,-131.168"/>
<polygon fill="midnightblue" stroke="midnightblue" points="57.7403,-199.638 53.7365,-209.447 62.9835,-204.275 57.7403,-199.638"/>
</g>
<!-- Node13 -->
<g id="node13" class="node"><title>Node13</title>
<polygon fill="white" stroke="#bfbfbf" points="24.5,-122.5 24.5,-141.5 65.5,-141.5 65.5,-122.5 24.5,-122.5"/>
<text text-anchor="middle" x="45" y="-129.5" font-family="Helvetica,sans-Serif" font-size="10.00">Color</text>
</g>
<!-- Node13&#45;&gt;Node8 -->
<g id="edge12" class="edge"><title>Node13&#45;&gt;Node8</title>
<path fill="none" stroke="#9a32cd" stroke-dasharray="5,2" d="M75.1488,-142.044C106.961,-154.056 158.136,-176.556 194,-208 204.568,-217.266 201.407,-224.763 212,-234 226.192,-246.375 245.125,-255.927 260.418,-262.36"/>
<polygon fill="#9a32cd" stroke="#9a32cd" points="76.1381,-138.679 65.5445,-138.515 73.7235,-145.249 76.1381,-138.679"/>
<text text-anchor="middle" x="151" y="-222" font-family="Helvetica,sans-Serif" font-size="10.00"> ourDefaultColor</text>
<text text-anchor="middle" x="151" y="-211" font-family="Helvetica,sans-Serif" font-size="10.00">myColor</text>
</g>
<!-- Node13&#45;&gt;Node16 -->
<g id="edge18" class="edge"><title>Node13&#45;&gt;Node16</title>
<path fill="none" stroke="#9a32cd" stroke-dasharray="5,2" d="M75.8144,-127.4C85.9973,-126.03 97.4715,-124.706 108,-124 151.565,-121.079 201.228,-121.063 237.173,-121.643"/>
<polygon fill="#9a32cd" stroke="#9a32cd" points="75.1754,-123.955 65.7639,-128.821 76.1555,-130.886 75.1754,-123.955"/>
<text text-anchor="middle" x="151" y="-127" font-family="Helvetica,sans-Serif" font-size="10.00"> ourSelectedColor</text>
</g>
<!-- Node14&#45;&gt;Node5 -->
<g id="edge13" class="edge"><title>Node14&#45;&gt;Node5</title>
<path fill="none" stroke="#9a32cd" stroke-dasharray="5,2" d="M569.951,-137.753C621.325,-168.129 737.695,-236.935 780.661,-262.339"/>
<polygon fill="#9a32cd" stroke="#9a32cd" points="571.536,-134.624 561.147,-132.547 567.974,-140.65 571.536,-134.624"/>
<text text-anchor="middle" x="688" y="-243" font-family="Helvetica,sans-Serif" font-size="10.00"> myTurtleViewController</text>
</g>
<!-- Node15 -->
<g id="node15" class="node"><title>Node15</title>
<g id="a_node15"><a xlink:href="../../d4/deb/interfaceviewcontroller_1_1_view_controller.html" target="_top" xlink:title="viewcontroller.ViewController">
<polygon fill="white" stroke="black" points="212,-0.5 212,-19.5 364,-19.5 364,-0.5 212,-0.5"/>
<text text-anchor="middle" x="288" y="-7.5" font-family="Helvetica,sans-Serif" font-size="10.00">viewcontroller.ViewController</text>
</a>
</g>
</g>
<!-- Node15&#45;&gt;Node14 -->
<g id="edge14" class="edge"><title>Node15&#45;&gt;Node14</title>
<path fill="none" stroke="midnightblue" d="M374.145,-16.951C401.361,-21.5853 430.912,-29.2716 456,-42 491.152,-59.8341 522.279,-96.1455 535.82,-113.435"/>
<polygon fill="midnightblue" stroke="midnightblue" points="374.662,-13.4892 364.237,-15.378 373.564,-20.4027 374.662,-13.4892"/>
</g>
<!-- Node16&#45;&gt;Node14 -->
<g id="edge15" class="edge"><title>Node16&#45;&gt;Node14</title>
<path fill="none" stroke="#9a32cd" stroke-dasharray="5,2" d="M348.878,-123C386.5,-123 435.148,-123 474.332,-123"/>
<polygon fill="#9a32cd" stroke="#9a32cd" points="348.577,-119.5 338.577,-123 348.577,-126.5 348.577,-119.5"/>
<text text-anchor="middle" x="419" y="-126" font-family="Helvetica,sans-Serif" font-size="10.00"> myTurtleImage</text>
</g>
<!-- Node17 -->
<g id="node17" class="node"><title>Node17</title>
<polygon fill="white" stroke="#bfbfbf" points="11,-70.5 11,-89.5 79,-89.5 79,-70.5 11,-70.5"/>
<text text-anchor="middle" x="45" y="-77.5" font-family="Helvetica,sans-Serif" font-size="10.00">Dimension</text>
</g>
<!-- Node17&#45;&gt;Node14 -->
<g id="edge19" class="edge"><title>Node17&#45;&gt;Node14</title>
<path fill="none" stroke="#9a32cd" stroke-dasharray="5,2" d="M89.1317,-80.0548C150.398,-80.5206 266.068,-82.832 364,-93 409.132,-97.6859 460.127,-106.592 496.109,-113.489"/>
<polygon fill="#9a32cd" stroke="#9a32cd" points="89.0808,-76.5545 79.0589,-79.9914 89.0366,-83.5544 89.0808,-76.5545"/>
<text text-anchor="middle" x="288" y="-96" font-family="Helvetica,sans-Serif" font-size="10.00"> mySize</text>
</g>
<!-- Node17&#45;&gt;Node16 -->
<g id="edge17" class="edge"><title>Node17&#45;&gt;Node16</title>
<path fill="none" stroke="#9a32cd" stroke-dasharray="5,2" d="M89.0913,-87.6885C130.669,-95.1069 193.567,-106.329 237.253,-114.124"/>
<polygon fill="#9a32cd" stroke="#9a32cd" points="89.464,-84.1998 79.0047,-85.8888 88.2344,-91.091 89.464,-84.1998"/>
<text text-anchor="middle" x="151" y="-109" font-family="Helvetica,sans-Serif" font-size="10.00"> ourSize</text>
</g>
<!-- Node18 -->
<g id="node18" class="node"><title>Node18</title>
<polygon fill="white" stroke="#bfbfbf" points="1152,-249.5 1152,-268.5 1188,-268.5 1188,-249.5 1152,-249.5"/>
<text text-anchor="middle" x="1170" y="-256.5" font-family="Helvetica,sans-Serif" font-size="10.00">Line</text>
</g>
<!-- Node18&#45;&gt;Node1 -->
<g id="edge21" class="edge"><title>Node18&#45;&gt;Node1</title>
<path fill="none" stroke="#9a32cd" stroke-dasharray="5,2" d="M1198.4,-260.101C1224.14,-261.232 1263.72,-263.221 1298,-266 1303.99,-266.486 1310.22,-267.047 1316.46,-267.647"/>
<polygon fill="#9a32cd" stroke="#9a32cd" points="1198.41,-256.598 1188.27,-259.669 1198.12,-263.592 1198.41,-256.598"/>
<text text-anchor="middle" x="1279" y="-269" font-family="Helvetica,sans-Serif" font-size="10.00"> myLine</text>
</g>
</g>
</svg>
        <g id="navigator" transform="translate(0 0)" fill="#404254">
                <rect fill="#f2f5e9" fill-opacity="0.5" stroke="#606060" stroke-width=".5" x="0" y="0" width="60" height="60"/>
                <use id="zoomplus" xlink:href="#zoomPlus" x="17" y="9" onmousedown="handleZoom(evt,'in')"/>
                <use id="zoomminus" xlink:href="#zoomMin" x="42" y="9" onmousedown="handleZoom(evt,'out')"/>
                <use id="reset" xlink:href="#resetDef" x="30" y="36" onmousedown="handleReset()"/>
                <g id="arrowUp" xlink:href="#dirArrow" transform="translate(30 24)" onmousedown="handlePan(0,-1)">
                  <use xlink:href="#rim" fill="#404040">
                        <set attributeName="fill" to="#808080" begin="arrowUp.mouseover" end="arrowUp.mouseout"/>
                  </use>
                  <path fill="none" stroke="white" stroke-width="1.5" d="M0,-3.0v7 M-2.5,-0.5L0,-3.0L2.5,-0.5"/>
                </g>
                <g id="arrowRight" xlink:href="#dirArrow" transform="rotate(90) translate(36 -43)" onmousedown="handlePan(1,0)">
                  <use xlink:href="#rim" fill="#404040">
                        <set attributeName="fill" to="#808080" begin="arrowRight.mouseover" end="arrowRight.mouseout"/>
                  </use>
                  <path fill="none" stroke="white" stroke-width="1.5" d="M0,-3.0v7 M-2.5,-0.5L0,-3.0L2.5,-0.5"/>
                </g>
                <g id="arrowDown" xlink:href="#dirArrow" transform="rotate(180) translate(-30 -48)" onmousedown="handlePan(0,1)">
                  <use xlink:href="#rim" fill="#404040">
                        <set attributeName="fill" to="#808080" begin="arrowDown.mouseover" end="arrowDown.mouseout"/>
                  </use>
                  <path fill="none" stroke="white" stroke-width="1.5" d="M0,-3.0v7 M-2.5,-0.5L0,-3.0L2.5,-0.5"/>
                </g>
                <g id="arrowLeft" xlink:href="#dirArrow" transform="rotate(270) translate(-36 17)" onmousedown="handlePan(-1,0)">
                  <use xlink:href="#rim" fill="#404040">
                        <set attributeName="fill" to="#808080" begin="arrowLeft.mouseover" end="arrowLeft.mouseout"/>
                  </use>
                  <path fill="none" stroke="white" stroke-width="1.5" d="M0,-3.0v7 M-2.5,-0.5L0,-3.0L2.5,-0.5"/>
                </g>
        </g>
        <svg viewBox="0 0 15 15" width="100%" height="30px" preserveAspectRatio="xMaxYMin meet">
         <g id="arrow_out" transform="scale(0.3 0.3)">
          <a xlink:href="classturtle_1_1draw_1_1_pen_transition__coll__graph_org.svg" target="_base">
           <rect id="button" ry="5" rx="5" y="6" x="6" height="38" width="38"
                fill="#f2f5e9" fill-opacity="0.5" stroke="#606060" stroke-width="1.0"/>
           <path id="arrow"
             d="M 11.500037,31.436501 C 11.940474,20.09759 22.043105,11.32322 32.158766,21.979434 L 37.068811,17.246167 C 37.068811,17.246167 37.088388,32 37.088388,32 L 22.160133,31.978069 C 22.160133,31.978069 26.997745,27.140456 26.997745,27.140456 C 18.528582,18.264221 13.291696,25.230495 11.500037,31.436501 z"
             style="fill:#404040;"/>
          </a>
         </g>
        </svg>
</svg>
