<?xml version="1.0" encoding="UTF-8" standalone="no"?>
<!DOCTYPE svg PUBLIC "-//W3C//DTD SVG 1.1//EN"
 "http://www.w3.org/Graphics/SVG/1.1/DTD/svg11.dtd">
<!-- Generated by graphviz version 2.36.0 (20140111.2315)
 -->
<!-- Title: interpreter.expression.conditional.ConditionalResult Pages: 1 -->
<svg width="281pt" height="190pt"
 viewBox="0.00 0.00 281.00 190.00" xmlns="http://www.w3.org/2000/svg" xmlns:xlink="http://www.w3.org/1999/xlink">
<g id="graph0" class="graph" transform="scale(1 1) rotate(0) translate(4 186)">
<title>interpreter.expression.conditional.ConditionalResult</title>
<polygon fill="white" stroke="none" points="-4,4 -4,-186 277,-186 277,4 -4,4"/>
<!-- Node1 -->
<g id="node1" class="node"><title>Node1</title>
<polygon fill="#bfbfbf" stroke="black" points="29.5,-1 29.5,-31 208.5,-31 208.5,-1 29.5,-1"/>
<text text-anchor="start" x="37.5" y="-19" font-family="Helvetica,sans-Serif" font-size="10.00">interpreter.expression.conditional.</text>
<text text-anchor="middle" x="119" y="-8" font-family="Helvetica,sans-Serif" font-size="10.00">ConditionalResult</text>
</g>
<!-- Node2 -->
<g id="node2" class="node"><title>Node2</title>
<g id="a_node2"><a xlink:href="../../df/df6/classinterpreter_1_1result_1_1_s_logo_result.html" target="_top" xlink:title="interpreter.result.SLogo\lResult">
<polygon fill="white" stroke="black" points="54,-71 54,-101 184,-101 184,-71 54,-71"/>
<text text-anchor="start" x="62" y="-89" font-family="Helvetica,sans-Serif" font-size="10.00">interpreter.result.SLogo</text>
<text text-anchor="middle" x="119" y="-78" font-family="Helvetica,sans-Serif" font-size="10.00">Result</text>
</a>
</g>
</g>
<!-- Node2&#45;&gt;Node1 -->
<g id="edge1" class="edge"><title>Node2&#45;&gt;Node1</title>
<path fill="none" stroke="midnightblue" d="M119,-60.7688C119,-50.8141 119,-39.6384 119,-31.0716"/>
<polygon fill="midnightblue" stroke="midnightblue" points="115.5,-60.9103 119,-70.9104 122.5,-60.9104 115.5,-60.9103"/>
</g>
<!-- Node3 -->
<g id="node3" class="node"><title>Node3</title>
<polygon fill="white" stroke="#bfbfbf" points="-0.5,-156.5 -0.5,-175.5 92.5,-175.5 92.5,-156.5 -0.5,-156.5"/>
<text text-anchor="middle" x="46" y="-163.5" font-family="Helvetica,sans-Serif" font-size="10.00">ResourceBundle</text>
</g>
<!-- Node3&#45;&gt;Node2 -->
<g id="edge2" class="edge"><title>Node3&#45;&gt;Node2</title>
<path fill="none" stroke="#9a32cd" stroke-dasharray="5,2" d="M61.0747,-148.893C74.2156,-134.852 93.0918,-114.683 105.685,-101.227"/>
<polygon fill="#9a32cd" stroke="#9a32cd" points="58.369,-146.662 54.0912,-156.355 63.4798,-151.445 58.369,-146.662"/>
<text text-anchor="middle" x="120.5" y="-123.5" font-family="Helvetica,sans-Serif" font-size="10.00"> myProperties</text>
</g>
<!-- Node4 -->
<g id="node4" class="node"><title>Node4</title>
<polygon fill="white" stroke="#bfbfbf" points="111,-151 111,-181 273,-181 273,-151 111,-151"/>
<text text-anchor="start" x="119" y="-169" font-family="Helvetica,sans-Serif" font-size="10.00">List&lt; transitionstate.Transition</text>
<text text-anchor="middle" x="192" y="-158" font-family="Helvetica,sans-Serif" font-size="10.00">State &gt;</text>
</g>
<!-- Node4&#45;&gt;Node2 -->
<g id="edge3" class="edge"><title>Node4&#45;&gt;Node2</title>
<path fill="none" stroke="#9a32cd" stroke-dasharray="5,2" d="M176.627,-142.642C171.09,-135.156 164.579,-126.952 158,-120 151.66,-113.3 144.035,-106.597 137.215,-101"/>
<polygon fill="#9a32cd" stroke="#9a32cd" points="173.945,-144.907 182.625,-150.983 179.628,-140.82 173.945,-144.907"/>
<text text-anchor="middle" x="216.5" y="-123.5" font-family="Helvetica,sans-Serif" font-size="10.00"> myTransitionStates</text>
</g>
</g>
</svg>
