<?xml version="1.0" encoding="UTF-8" standalone="no"?>
<!DOCTYPE svg PUBLIC "-//W3C//DTD SVG 1.1//EN"
 "http://www.w3.org/Graphics/SVG/1.1/DTD/svg11.dtd">
<!-- Generated by graphviz version 2.36.0 (20140111.2315)
 -->
<!-- Title: turtle.draw.PenTransition.setEndPoint Pages: 1 -->
<!--zoomable 136 -->
<svg id="main" version="1.1" xmlns="http://www.w3.org/2000/svg" xmlns:xlink="http://www.w3.org/1999/xlink" xml:space="preserve" onload="init(evt)">
<style type="text/css"><![CDATA[
.edge:hover path { stroke: red; }
.edge:hover polygon { stroke: red; fill: red; }
]]></style>
<script type="text/javascript"><![CDATA[
var edges = document.getElementsByTagName('g');
if (edges && edges.length) {
  for (var i=0;i<edges.length;i++) {
    if (edges[i].id.substr(0,4)=='edge') {
      edges[i].setAttribute('class','edge');
    }
  }
}
]]></script>
        <defs>
                <circle id="rim" cx="0" cy="0" r="7"/>
                <circle id="rim2" cx="0" cy="0" r="3.5"/>
                <g id="zoomPlus">
                        <use xlink:href="#rim" fill="#404040">
                                <set attributeName="fill" to="#808080" begin="zoomplus.mouseover" end="zoomplus.mouseout"/>
                        </use>
                        <path d="M-4,0h8M0,-4v8" fill="none" stroke="white" stroke-width="1.5" pointer-events="none"/>
                </g>
                <g id="zoomMin">
                        <use xlink:href="#rim" fill="#404040">
                                <set attributeName="fill" to="#808080" begin="zoomminus.mouseover" end="zoomminus.mouseout"/>
                        </use>
                        <path d="M-4,0h8" fill="none" stroke="white" stroke-width="1.5" pointer-events="none"/>
                </g>
                <g id="dirArrow">
                        <path fill="none" stroke="white" stroke-width="1.5" d="M0,-3.0v7 M-2.5,-0.5L0,-3.0L2.5,-0.5"/>
                </g>
               <g id="resetDef">
                       <use xlink:href="#rim2" fill="#404040">
                               <set attributeName="fill" to="#808080" begin="reset.mouseover" end="reset.mouseout"/>
                       </use>
               </g>
        </defs>

<script type="text/javascript">
var viewWidth = 1228;
var viewHeight = 136;
var sectionId = 'dynsection-12';
</script>
<script xlink:href="../../svgpan.js"/>
<svg id="graph" class="graph">
<g id="viewport">
<title>turtle.draw.PenTransition.setEndPoint</title>
<polygon fill="white" stroke="none" points="-4,4 -4,-132 1224,-132 1224,4 -4,4"/>
<!-- Node1 -->
<g id="node1" class="node"><title>Node1</title>
<polygon fill="#bfbfbf" stroke="black" points="0.5,-49 0.5,-79 151.5,-79 151.5,-49 0.5,-49"/>
<text text-anchor="start" x="8.5" y="-67" font-family="Helvetica,sans-Serif" font-size="10.00">turtle.draw.PenTransition.set</text>
<text text-anchor="middle" x="76" y="-56" font-family="Helvetica,sans-Serif" font-size="10.00">EndPoint</text>
</g>
<!-- Node2 -->
<g id="node2" class="node"><title>Node2</title>
<g id="a_node2"><a xlink:href="../../d8/dde/classturtle_1_1draw_1_1_pen_transition.html#a2f62d2a4cd27a83158b09c0d4357efb9" target="_top" xlink:title="turtle.draw.PenTransition.interpolate\lChanges">
<polygon fill="white" stroke="black" points="188,-98 188,-128 376,-128 376,-98 188,-98"/>
<text text-anchor="start" x="196" y="-116" font-family="Helvetica,sans-Serif" font-size="10.00">turtle.draw.PenTransition.interpolate</text>
<text text-anchor="middle" x="282" y="-105" font-family="Helvetica,sans-Serif" font-size="10.00">Changes</text>
</a>
</g>
</g>
<!-- Node1&#45;&gt;Node2 -->
<g id="edge1" class="edge"><title>Node1&#45;&gt;Node2</title>
<path fill="none" stroke="midnightblue" d="M149.457,-81.4038C172.024,-86.8243 196.702,-92.752 218.525,-97.9938"/>
<polygon fill="midnightblue" stroke="midnightblue" points="150.134,-77.967 139.593,-79.0346 148.499,-84.7734 150.134,-77.967"/>
</g>
<!-- Node3 -->
<g id="node3" class="node"><title>Node3</title>
<g id="a_node3"><a xlink:href="../../d8/dde/classturtle_1_1draw_1_1_pen_transition.html#a7eaf834f0b2189acc2f53ca8f561b07d" target="_top" xlink:title="turtle.draw.PenTransition.perform\lWrappingChanges">
<polygon fill="white" stroke="black" points="195,-49 195,-79 369,-79 369,-49 195,-49"/>
<text text-anchor="start" x="203" y="-67" font-family="Helvetica,sans-Serif" font-size="10.00">turtle.draw.PenTransition.perform</text>
<text text-anchor="middle" x="282" y="-56" font-family="Helvetica,sans-Serif" font-size="10.00">WrappingChanges</text>
</a>
</g>
</g>
<!-- Node1&#45;&gt;Node3 -->
<g id="edge2" class="edge"><title>Node1&#45;&gt;Node3</title>
<path fill="none" stroke="midnightblue" d="M161.548,-64C172.576,-64 183.884,-64 194.936,-64"/>
<polygon fill="midnightblue" stroke="midnightblue" points="161.515,-60.5001 151.515,-64 161.515,-67.5001 161.515,-60.5001"/>
</g>
<!-- Node4 -->
<g id="node4" class="node"><title>Node4</title>
<g id="a_node4"><a xlink:href="../../d8/dde/classturtle_1_1draw_1_1_pen_transition.html#aa0a682d77c6f7e56adb8a7cad589a140" target="_top" xlink:title="turtle.draw.PenTransition.set\lDistance">
<polygon fill="white" stroke="black" points="206.5,-0 206.5,-30 357.5,-30 357.5,-0 206.5,-0"/>
<text text-anchor="start" x="214.5" y="-18" font-family="Helvetica,sans-Serif" font-size="10.00">turtle.draw.PenTransition.set</text>
<text text-anchor="middle" x="282" y="-7" font-family="Helvetica,sans-Serif" font-size="10.00">Distance</text>
</a>
</g>
</g>
<!-- Node1&#45;&gt;Node4 -->
<g id="edge3" class="edge"><title>Node1&#45;&gt;Node4</title>
<path fill="none" stroke="midnightblue" d="M149.457,-46.5962C172.024,-41.1757 196.702,-35.248 218.525,-30.0062"/>
<polygon fill="midnightblue" stroke="midnightblue" points="148.499,-43.2266 139.593,-48.9654 150.134,-50.033 148.499,-43.2266"/>
</g>
<!-- Node5 -->
<g id="node5" class="node"><title>Node5</title>
<g id="a_node5"><a xlink:href="../../dc/d3e/classturtle_1_1draw_1_1_transition_factory.html#a6ff1cfc7cfe2396040ddb55408ee854e" target="_top" xlink:title="turtle.draw.TransitionFactory.create\lForwardTransition">
<polygon fill="white" stroke="black" points="412,-0 412,-30 594,-30 594,-0 412,-0"/>
<text text-anchor="start" x="420" y="-18" font-family="Helvetica,sans-Serif" font-size="10.00">turtle.draw.TransitionFactory.create</text>
<text text-anchor="middle" x="503" y="-7" font-family="Helvetica,sans-Serif" font-size="10.00">ForwardTransition</text>
</a>
</g>
</g>
<!-- Node4&#45;&gt;Node5 -->
<g id="edge4" class="edge"><title>Node4&#45;&gt;Node5</title>
<path fill="none" stroke="midnightblue" d="M368.053,-15C382.359,-15 397.251,-15 411.685,-15"/>
<polygon fill="midnightblue" stroke="midnightblue" points="367.755,-11.5001 357.755,-15 367.755,-18.5001 367.755,-11.5001"/>
</g>
<!-- Node6 -->
<g id="node6" class="node"><title>Node6</title>
<g id="a_node6"><a xlink:href="../../dc/d3e/classturtle_1_1draw_1_1_transition_factory.html#adb38be68a00bde2421dbdf0d55a93e54" target="_top" xlink:title="turtle.draw.TransitionFactory.create\lTurtleTransition">
<polygon fill="white" stroke="black" points="630,-0 630,-30 812,-30 812,-0 630,-0"/>
<text text-anchor="start" x="638" y="-18" font-family="Helvetica,sans-Serif" font-size="10.00">turtle.draw.TransitionFactory.create</text>
<text text-anchor="middle" x="721" y="-7" font-family="Helvetica,sans-Serif" font-size="10.00">TurtleTransition</text>
</a>
</g>
</g>
<!-- Node5&#45;&gt;Node6 -->
<g id="edge5" class="edge"><title>Node5&#45;&gt;Node6</title>
<path fill="none" stroke="midnightblue" d="M604.059,-15C612.631,-15 621.27,-15 629.759,-15"/>
<polygon fill="midnightblue" stroke="midnightblue" points="604.039,-11.5001 594.039,-15 604.039,-18.5001 604.039,-11.5001"/>
</g>
<!-- Node7 -->
<g id="node7" class="node"><title>Node7</title>
<g id="a_node7"><a xlink:href="../../dc/d3e/classturtle_1_1draw_1_1_transition_factory.html#a31b362130278174931595c1ce68c7ff5" target="_top" xlink:title="turtle.draw.TransitionFactory.create\lAnimation">
<polygon fill="white" stroke="black" points="848,-0 848,-30 1030,-30 1030,-0 848,-0"/>
<text text-anchor="start" x="856" y="-18" font-family="Helvetica,sans-Serif" font-size="10.00">turtle.draw.TransitionFactory.create</text>
<text text-anchor="middle" x="939" y="-7" font-family="Helvetica,sans-Serif" font-size="10.00">Animation</text>
</a>
</g>
</g>
<!-- Node6&#45;&gt;Node7 -->
<g id="edge6" class="edge"><title>Node6&#45;&gt;Node7</title>
<path fill="none" stroke="midnightblue" d="M822.059,-15C830.631,-15 839.27,-15 847.759,-15"/>
<polygon fill="midnightblue" stroke="midnightblue" points="822.039,-11.5001 812.039,-15 822.039,-18.5001 822.039,-11.5001"/>
</g>
<!-- Node8 -->
<g id="node8" class="node"><title>Node8</title>
<g id="a_node8"><a xlink:href="../../df/dcb/classturtle_1_1_turtle.html#a72a5d11b319fe2819a646569d5034557" target="_top" xlink:title="turtle.Turtle.createAnimation">
<polygon fill="white" stroke="black" points="1066.5,-5.5 1066.5,-24.5 1219.5,-24.5 1219.5,-5.5 1066.5,-5.5"/>
<text text-anchor="middle" x="1143" y="-12.5" font-family="Helvetica,sans-Serif" font-size="10.00">turtle.Turtle.createAnimation</text>
</a>
</g>
</g>
<!-- Node7&#45;&gt;Node8 -->
<g id="edge7" class="edge"><title>Node7&#45;&gt;Node8</title>
<path fill="none" stroke="midnightblue" d="M1040.31,-15C1049.06,-15 1057.8,-15 1066.3,-15"/>
<polygon fill="midnightblue" stroke="midnightblue" points="1040.07,-11.5001 1030.07,-15 1040.07,-18.5001 1040.07,-11.5001"/>
</g>
</g>
</svg>
        <g id="navigator" transform="translate(0 0)" fill="#404254">
                <rect fill="#f2f5e9" fill-opacity="0.5" stroke="#606060" stroke-width=".5" x="0" y="0" width="60" height="60"/>
                <use id="zoomplus" xlink:href="#zoomPlus" x="17" y="9" onmousedown="handleZoom(evt,'in')"/>
                <use id="zoomminus" xlink:href="#zoomMin" x="42" y="9" onmousedown="handleZoom(evt,'out')"/>
                <use id="reset" xlink:href="#resetDef" x="30" y="36" onmousedown="handleReset()"/>
                <g id="arrowUp" xlink:href="#dirArrow" transform="translate(30 24)" onmousedown="handlePan(0,-1)">
                  <use xlink:href="#rim" fill="#404040">
                        <set attributeName="fill" to="#808080" begin="arrowUp.mouseover" end="arrowUp.mouseout"/>
                  </use>
                  <path fill="none" stroke="white" stroke-width="1.5" d="M0,-3.0v7 M-2.5,-0.5L0,-3.0L2.5,-0.5"/>
                </g>
                <g id="arrowRight" xlink:href="#dirArrow" transform="rotate(90) translate(36 -43)" onmousedown="handlePan(1,0)">
                  <use xlink:href="#rim" fill="#404040">
                        <set attributeName="fill" to="#808080" begin="arrowRight.mouseover" end="arrowRight.mouseout"/>
                  </use>
                  <path fill="none" stroke="white" stroke-width="1.5" d="M0,-3.0v7 M-2.5,-0.5L0,-3.0L2.5,-0.5"/>
                </g>
                <g id="arrowDown" xlink:href="#dirArrow" transform="rotate(180) translate(-30 -48)" onmousedown="handlePan(0,1)">
                  <use xlink:href="#rim" fill="#404040">
                        <set attributeName="fill" to="#808080" begin="arrowDown.mouseover" end="arrowDown.mouseout"/>
                  </use>
                  <path fill="none" stroke="white" stroke-width="1.5" d="M0,-3.0v7 M-2.5,-0.5L0,-3.0L2.5,-0.5"/>
                </g>
                <g id="arrowLeft" xlink:href="#dirArrow" transform="rotate(270) translate(-36 17)" onmousedown="handlePan(-1,0)">
                  <use xlink:href="#rim" fill="#404040">
                        <set attributeName="fill" to="#808080" begin="arrowLeft.mouseover" end="arrowLeft.mouseout"/>
                  </use>
                  <path fill="none" stroke="white" stroke-width="1.5" d="M0,-3.0v7 M-2.5,-0.5L0,-3.0L2.5,-0.5"/>
                </g>
        </g>
        <svg viewBox="0 0 15 15" width="100%" height="30px" preserveAspectRatio="xMaxYMin meet">
         <g id="arrow_out" transform="scale(0.3 0.3)">
          <a xlink:href="classturtle_1_1draw_1_1_pen_transition_a5c823b5721d6767fb73c7f690ddff65a_icgraph_org.svg" target="_base">
           <rect id="button" ry="5" rx="5" y="6" x="6" height="38" width="38"
                fill="#f2f5e9" fill-opacity="0.5" stroke="#606060" stroke-width="1.0"/>
           <path id="arrow"
             d="M 11.500037,31.436501 C 11.940474,20.09759 22.043105,11.32322 32.158766,21.979434 L 37.068811,17.246167 C 37.068811,17.246167 37.088388,32 37.088388,32 L 22.160133,31.978069 C 22.160133,31.978069 26.997745,27.140456 26.997745,27.140456 C 18.528582,18.264221 13.291696,25.230495 11.500037,31.436501 z"
             style="fill:#404040;"/>
          </a>
         </g>
        </svg>
</svg>
