<?xml version="1.0" encoding="UTF-8" standalone="no"?>
<!DOCTYPE svg PUBLIC "-//W3C//DTD SVG 1.1//EN"
 "http://www.w3.org/Graphics/SVG/1.1/DTD/svg11.dtd">
<!-- Generated by graphviz version 2.36.0 (20140111.2315)
 -->
<!-- Title: turtle.draw.PenTransition.drawLine Pages: 1 -->
<svg width="1462pt" height="87pt"
 viewBox="0.00 0.00 1462.00 87.00" xmlns="http://www.w3.org/2000/svg" xmlns:xlink="http://www.w3.org/1999/xlink">
<g id="graph0" class="graph" transform="scale(1 1) rotate(0) translate(4 83)">
<title>turtle.draw.PenTransition.drawLine</title>
<polygon fill="white" stroke="none" points="-4,4 -4,-83 1458,-83 1458,4 -4,4"/>
<!-- Node1 -->
<g id="node1" class="node"><title>Node1</title>
<polygon fill="#bfbfbf" stroke="black" points="0,-29.5 0,-48.5 178,-48.5 178,-29.5 0,-29.5"/>
<text text-anchor="middle" x="89" y="-36.5" font-family="Helvetica,sans-Serif" font-size="10.00">turtle.draw.PenTransition.drawLine</text>
</g>
<!-- Node2 -->
<g id="node2" class="node"><title>Node2</title>
<g id="a_node2"><a xlink:href="../../d8/dde/classturtle_1_1draw_1_1_pen_transition.html#ae8155506993774930ffd88f222ee7398" target="_top" xlink:title="turtle.draw.PenTransition.createLine">
<polygon fill="white" stroke="black" points="214,-29.5 214,-48.5 400,-48.5 400,-29.5 214,-29.5"/>
<text text-anchor="middle" x="307" y="-36.5" font-family="Helvetica,sans-Serif" font-size="10.00">turtle.draw.PenTransition.createLine</text>
</a>
</g>
</g>
<!-- Node1&#45;&gt;Node2 -->
<g id="edge1" class="edge"><title>Node1&#45;&gt;Node2</title>
<path fill="none" stroke="midnightblue" d="M188.172,-39C196.739,-39 205.389,-39 213.904,-39"/>
<polygon fill="midnightblue" stroke="midnightblue" points="188.167,-35.5001 178.167,-39 188.167,-42.5001 188.167,-35.5001"/>
</g>
<!-- Node3 -->
<g id="node3" class="node"><title>Node3</title>
<g id="a_node3"><a xlink:href="../../d8/dde/classturtle_1_1draw_1_1_pen_transition.html#a7eaf834f0b2189acc2f53ca8f561b07d" target="_top" xlink:title="turtle.draw.PenTransition.perform\lWrappingChanges">
<polygon fill="white" stroke="black" points="436,-49 436,-79 610,-79 610,-49 436,-49"/>
<text text-anchor="start" x="444" y="-67" font-family="Helvetica,sans-Serif" font-size="10.00">turtle.draw.PenTransition.perform</text>
<text text-anchor="middle" x="523" y="-56" font-family="Helvetica,sans-Serif" font-size="10.00">WrappingChanges</text>
</a>
</g>
</g>
<!-- Node2&#45;&gt;Node3 -->
<g id="edge2" class="edge"><title>Node2&#45;&gt;Node3</title>
<path fill="none" stroke="midnightblue" d="M399.526,-49.6923C411.536,-51.0953 423.811,-52.5293 435.729,-53.9216"/>
<polygon fill="midnightblue" stroke="midnightblue" points="399.853,-46.2068 389.515,-48.5227 399.041,-53.1595 399.853,-46.2068"/>
</g>
<!-- Node4 -->
<g id="node4" class="node"><title>Node4</title>
<g id="a_node4"><a xlink:href="../../d8/dde/classturtle_1_1draw_1_1_pen_transition.html#aa0a682d77c6f7e56adb8a7cad589a140" target="_top" xlink:title="turtle.draw.PenTransition.set\lDistance">
<polygon fill="white" stroke="black" points="447.5,-0 447.5,-30 598.5,-30 598.5,-0 447.5,-0"/>
<text text-anchor="start" x="455.5" y="-18" font-family="Helvetica,sans-Serif" font-size="10.00">turtle.draw.PenTransition.set</text>
<text text-anchor="middle" x="523" y="-7" font-family="Helvetica,sans-Serif" font-size="10.00">Distance</text>
</a>
</g>
</g>
<!-- Node2&#45;&gt;Node4 -->
<g id="edge3" class="edge"><title>Node2&#45;&gt;Node4</title>
<path fill="none" stroke="midnightblue" d="M403.072,-28.3377C417.877,-26.6773 432.991,-24.9823 447.26,-23.3821"/>
<polygon fill="midnightblue" stroke="midnightblue" points="402.433,-24.8873 392.886,-29.4801 403.214,-31.8437 402.433,-24.8873"/>
</g>
<!-- Node5 -->
<g id="node5" class="node"><title>Node5</title>
<g id="a_node5"><a xlink:href="../../dc/d3e/classturtle_1_1draw_1_1_transition_factory.html#a6ff1cfc7cfe2396040ddb55408ee854e" target="_top" xlink:title="turtle.draw.TransitionFactory.create\lForwardTransition">
<polygon fill="white" stroke="black" points="646,-0 646,-30 828,-30 828,-0 646,-0"/>
<text text-anchor="start" x="654" y="-18" font-family="Helvetica,sans-Serif" font-size="10.00">turtle.draw.TransitionFactory.create</text>
<text text-anchor="middle" x="737" y="-7" font-family="Helvetica,sans-Serif" font-size="10.00">ForwardTransition</text>
</a>
</g>
</g>
<!-- Node4&#45;&gt;Node5 -->
<g id="edge4" class="edge"><title>Node4&#45;&gt;Node5</title>
<path fill="none" stroke="midnightblue" d="M608.878,-15C621.07,-15 633.651,-15 645.939,-15"/>
<polygon fill="midnightblue" stroke="midnightblue" points="608.743,-11.5001 598.743,-15 608.743,-18.5001 608.743,-11.5001"/>
</g>
<!-- Node6 -->
<g id="node6" class="node"><title>Node6</title>
<g id="a_node6"><a xlink:href="../../dc/d3e/classturtle_1_1draw_1_1_transition_factory.html#adb38be68a00bde2421dbdf0d55a93e54" target="_top" xlink:title="turtle.draw.TransitionFactory.create\lTurtleTransition">
<polygon fill="white" stroke="black" points="864,-0 864,-30 1046,-30 1046,-0 864,-0"/>
<text text-anchor="start" x="872" y="-18" font-family="Helvetica,sans-Serif" font-size="10.00">turtle.draw.TransitionFactory.create</text>
<text text-anchor="middle" x="955" y="-7" font-family="Helvetica,sans-Serif" font-size="10.00">TurtleTransition</text>
</a>
</g>
</g>
<!-- Node5&#45;&gt;Node6 -->
<g id="edge5" class="edge"><title>Node5&#45;&gt;Node6</title>
<path fill="none" stroke="midnightblue" d="M838.059,-15C846.631,-15 855.27,-15 863.759,-15"/>
<polygon fill="midnightblue" stroke="midnightblue" points="838.039,-11.5001 828.039,-15 838.039,-18.5001 838.039,-11.5001"/>
</g>
<!-- Node7 -->
<g id="node7" class="node"><title>Node7</title>
<g id="a_node7"><a xlink:href="../../dc/d3e/classturtle_1_1draw_1_1_transition_factory.html#a31b362130278174931595c1ce68c7ff5" target="_top" xlink:title="turtle.draw.TransitionFactory.create\lAnimation">
<polygon fill="white" stroke="black" points="1082,-0 1082,-30 1264,-30 1264,-0 1082,-0"/>
<text text-anchor="start" x="1090" y="-18" font-family="Helvetica,sans-Serif" font-size="10.00">turtle.draw.TransitionFactory.create</text>
<text text-anchor="middle" x="1173" y="-7" font-family="Helvetica,sans-Serif" font-size="10.00">Animation</text>
</a>
</g>
</g>
<!-- Node6&#45;&gt;Node7 -->
<g id="edge6" class="edge"><title>Node6&#45;&gt;Node7</title>
<path fill="none" stroke="midnightblue" d="M1056.06,-15C1064.63,-15 1073.27,-15 1081.76,-15"/>
<polygon fill="midnightblue" stroke="midnightblue" points="1056.04,-11.5001 1046.04,-15 1056.04,-18.5001 1056.04,-11.5001"/>
</g>
<!-- Node8 -->
<g id="node8" class="node"><title>Node8</title>
<g id="a_node8"><a xlink:href="../../df/dcb/classturtle_1_1_turtle.html#a72a5d11b319fe2819a646569d5034557" target="_top" xlink:title="turtle.Turtle.createAnimation">
<polygon fill="white" stroke="black" points="1300.5,-5.5 1300.5,-24.5 1453.5,-24.5 1453.5,-5.5 1300.5,-5.5"/>
<text text-anchor="middle" x="1377" y="-12.5" font-family="Helvetica,sans-Serif" font-size="10.00">turtle.Turtle.createAnimation</text>
</a>
</g>
</g>
<!-- Node7&#45;&gt;Node8 -->
<g id="edge7" class="edge"><title>Node7&#45;&gt;Node8</title>
<path fill="none" stroke="midnightblue" d="M1274.31,-15C1283.06,-15 1291.8,-15 1300.3,-15"/>
<polygon fill="midnightblue" stroke="midnightblue" points="1274.07,-11.5001 1264.07,-15 1274.07,-18.5001 1274.07,-11.5001"/>
</g>
</g>
</svg>
