<?xml version="1.0" encoding="UTF-8" standalone="no"?>
<!DOCTYPE svg PUBLIC "-//W3C//DTD SVG 1.1//EN"
 "http://www.w3.org/Graphics/SVG/1.1/DTD/svg11.dtd">
<!-- Generated by graphviz version 2.36.0 (20140111.2315)
 -->
<!-- Title: turtle.draw.PenTransition.setStartPoint Pages: 1 -->
<svg width="1436pt" height="87pt"
 viewBox="0.00 0.00 1436.00 87.00" xmlns="http://www.w3.org/2000/svg" xmlns:xlink="http://www.w3.org/1999/xlink">
<g id="graph0" class="graph" transform="scale(1 1) rotate(0) translate(4 83)">
<title>turtle.draw.PenTransition.setStartPoint</title>
<polygon fill="white" stroke="none" points="-4,4 -4,-83 1432,-83 1432,4 -4,4"/>
<!-- Node1 -->
<g id="node1" class="node"><title>Node1</title>
<polygon fill="#bfbfbf" stroke="black" points="0.5,-30 0.5,-60 151.5,-60 151.5,-30 0.5,-30"/>
<text text-anchor="start" x="8.5" y="-48" font-family="Helvetica,sans-Serif" font-size="10.00">turtle.draw.PenTransition.set</text>
<text text-anchor="middle" x="76" y="-37" font-family="Helvetica,sans-Serif" font-size="10.00">StartPoint</text>
</g>
<!-- Node2 -->
<g id="node2" class="node"><title>Node2</title>
<g id="a_node2"><a xlink:href="../../d8/dde/classturtle_1_1draw_1_1_pen_transition.html#ae8155506993774930ffd88f222ee7398" target="_top" xlink:title="turtle.draw.PenTransition.createLine">
<polygon fill="white" stroke="black" points="188,-16.5 188,-35.5 374,-35.5 374,-16.5 188,-16.5"/>
<text text-anchor="middle" x="281" y="-23.5" font-family="Helvetica,sans-Serif" font-size="10.00">turtle.draw.PenTransition.createLine</text>
</a>
</g>
</g>
<!-- Node1&#45;&gt;Node2 -->
<g id="edge1" class="edge"><title>Node1&#45;&gt;Node2</title>
<path fill="none" stroke="midnightblue" d="M161.752,-37.0675C170.372,-36.2608 179.157,-35.4385 187.85,-34.6248"/>
<polygon fill="midnightblue" stroke="midnightblue" points="161.355,-33.5893 151.725,-38.006 162.008,-40.5588 161.355,-33.5893"/>
</g>
<!-- Node3 -->
<g id="node3" class="node"><title>Node3</title>
<g id="a_node3"><a xlink:href="../../d8/dde/classturtle_1_1draw_1_1_pen_transition.html#a7eaf834f0b2189acc2f53ca8f561b07d" target="_top" xlink:title="turtle.draw.PenTransition.perform\lWrappingChanges">
<polygon fill="white" stroke="black" points="410,-49 410,-79 584,-79 584,-49 410,-49"/>
<text text-anchor="start" x="418" y="-67" font-family="Helvetica,sans-Serif" font-size="10.00">turtle.draw.PenTransition.perform</text>
<text text-anchor="middle" x="497" y="-56" font-family="Helvetica,sans-Serif" font-size="10.00">WrappingChanges</text>
</a>
</g>
</g>
<!-- Node1&#45;&gt;Node3 -->
<g id="edge8" class="edge"><title>Node1&#45;&gt;Node3</title>
<path fill="none" stroke="midnightblue" d="M162.325,-48.8692C234.488,-52.1415 337.406,-56.8084 409.812,-60.0917"/>
<polygon fill="midnightblue" stroke="midnightblue" points="162.057,-45.3535 151.909,-48.3968 161.74,-52.3463 162.057,-45.3535"/>
</g>
<!-- Node2&#45;&gt;Node3 -->
<g id="edge2" class="edge"><title>Node2&#45;&gt;Node3</title>
<path fill="none" stroke="midnightblue" d="M345.63,-37.2988C366.267,-40.9632 389.494,-45.0877 411.408,-48.9789"/>
<polygon fill="midnightblue" stroke="midnightblue" points="346.183,-33.8423 335.725,-35.54 344.959,-40.7345 346.183,-33.8423"/>
</g>
<!-- Node4 -->
<g id="node4" class="node"><title>Node4</title>
<g id="a_node4"><a xlink:href="../../d8/dde/classturtle_1_1draw_1_1_pen_transition.html#aa0a682d77c6f7e56adb8a7cad589a140" target="_top" xlink:title="turtle.draw.PenTransition.set\lDistance">
<polygon fill="white" stroke="black" points="421.5,-0 421.5,-30 572.5,-30 572.5,-0 421.5,-0"/>
<text text-anchor="start" x="429.5" y="-18" font-family="Helvetica,sans-Serif" font-size="10.00">turtle.draw.PenTransition.set</text>
<text text-anchor="middle" x="497" y="-7" font-family="Helvetica,sans-Serif" font-size="10.00">Distance</text>
</a>
</g>
</g>
<!-- Node2&#45;&gt;Node4 -->
<g id="edge3" class="edge"><title>Node2&#45;&gt;Node4</title>
<path fill="none" stroke="midnightblue" d="M384.303,-20.7414C396.805,-20.0988 409.393,-19.4518 421.381,-18.8355"/>
<polygon fill="midnightblue" stroke="midnightblue" points="384.115,-17.2464 374.308,-21.2552 384.475,-24.2371 384.115,-17.2464"/>
</g>
<!-- Node5 -->
<g id="node5" class="node"><title>Node5</title>
<g id="a_node5"><a xlink:href="../../dc/d3e/classturtle_1_1draw_1_1_transition_factory.html#a6ff1cfc7cfe2396040ddb55408ee854e" target="_top" xlink:title="turtle.draw.TransitionFactory.create\lForwardTransition">
<polygon fill="white" stroke="black" points="620,-0 620,-30 802,-30 802,-0 620,-0"/>
<text text-anchor="start" x="628" y="-18" font-family="Helvetica,sans-Serif" font-size="10.00">turtle.draw.TransitionFactory.create</text>
<text text-anchor="middle" x="711" y="-7" font-family="Helvetica,sans-Serif" font-size="10.00">ForwardTransition</text>
</a>
</g>
</g>
<!-- Node4&#45;&gt;Node5 -->
<g id="edge4" class="edge"><title>Node4&#45;&gt;Node5</title>
<path fill="none" stroke="midnightblue" d="M582.878,-15C595.07,-15 607.651,-15 619.939,-15"/>
<polygon fill="midnightblue" stroke="midnightblue" points="582.743,-11.5001 572.743,-15 582.743,-18.5001 582.743,-11.5001"/>
</g>
<!-- Node6 -->
<g id="node6" class="node"><title>Node6</title>
<g id="a_node6"><a xlink:href="../../dc/d3e/classturtle_1_1draw_1_1_transition_factory.html#adb38be68a00bde2421dbdf0d55a93e54" target="_top" xlink:title="turtle.draw.TransitionFactory.create\lTurtleTransition">
<polygon fill="white" stroke="black" points="838,-0 838,-30 1020,-30 1020,-0 838,-0"/>
<text text-anchor="start" x="846" y="-18" font-family="Helvetica,sans-Serif" font-size="10.00">turtle.draw.TransitionFactory.create</text>
<text text-anchor="middle" x="929" y="-7" font-family="Helvetica,sans-Serif" font-size="10.00">TurtleTransition</text>
</a>
</g>
</g>
<!-- Node5&#45;&gt;Node6 -->
<g id="edge5" class="edge"><title>Node5&#45;&gt;Node6</title>
<path fill="none" stroke="midnightblue" d="M812.059,-15C820.631,-15 829.27,-15 837.759,-15"/>
<polygon fill="midnightblue" stroke="midnightblue" points="812.039,-11.5001 802.039,-15 812.039,-18.5001 812.039,-11.5001"/>
</g>
<!-- Node7 -->
<g id="node7" class="node"><title>Node7</title>
<g id="a_node7"><a xlink:href="../../dc/d3e/classturtle_1_1draw_1_1_transition_factory.html#a31b362130278174931595c1ce68c7ff5" target="_top" xlink:title="turtle.draw.TransitionFactory.create\lAnimation">
<polygon fill="white" stroke="black" points="1056,-0 1056,-30 1238,-30 1238,-0 1056,-0"/>
<text text-anchor="start" x="1064" y="-18" font-family="Helvetica,sans-Serif" font-size="10.00">turtle.draw.TransitionFactory.create</text>
<text text-anchor="middle" x="1147" y="-7" font-family="Helvetica,sans-Serif" font-size="10.00">Animation</text>
</a>
</g>
</g>
<!-- Node6&#45;&gt;Node7 -->
<g id="edge6" class="edge"><title>Node6&#45;&gt;Node7</title>
<path fill="none" stroke="midnightblue" d="M1030.06,-15C1038.63,-15 1047.27,-15 1055.76,-15"/>
<polygon fill="midnightblue" stroke="midnightblue" points="1030.04,-11.5001 1020.04,-15 1030.04,-18.5001 1030.04,-11.5001"/>
</g>
<!-- Node8 -->
<g id="node8" class="node"><title>Node8</title>
<g id="a_node8"><a xlink:href="../../df/dcb/classturtle_1_1_turtle.html#a72a5d11b319fe2819a646569d5034557" target="_top" xlink:title="turtle.Turtle.createAnimation">
<polygon fill="white" stroke="black" points="1274.5,-5.5 1274.5,-24.5 1427.5,-24.5 1427.5,-5.5 1274.5,-5.5"/>
<text text-anchor="middle" x="1351" y="-12.5" font-family="Helvetica,sans-Serif" font-size="10.00">turtle.Turtle.createAnimation</text>
</a>
</g>
</g>
<!-- Node7&#45;&gt;Node8 -->
<g id="edge7" class="edge"><title>Node7&#45;&gt;Node8</title>
<path fill="none" stroke="midnightblue" d="M1248.31,-15C1257.06,-15 1265.8,-15 1274.3,-15"/>
<polygon fill="midnightblue" stroke="midnightblue" points="1248.07,-11.5001 1238.07,-15 1248.07,-18.5001 1248.07,-11.5001"/>
</g>
</g>
</svg>
