<?xml version="1.0" encoding="UTF-8" standalone="no"?>
<!DOCTYPE svg PUBLIC "-//W3C//DTD SVG 1.1//EN"
 "http://www.w3.org/Graphics/SVG/1.1/DTD/svg11.dtd">
<!-- Generated by graphviz version 2.36.0 (20140111.2315)
 -->
<!-- Title: turtle.draw.PenTransition.createLine Pages: 1 -->
<svg width="806pt" height="218pt"
 viewBox="0.00 0.00 806.00 218.00" xmlns="http://www.w3.org/2000/svg" xmlns:xlink="http://www.w3.org/1999/xlink">
<g id="graph0" class="graph" transform="scale(1 1) rotate(0) translate(4 214)">
<title>turtle.draw.PenTransition.createLine</title>
<polygon fill="white" stroke="none" points="-4,4 -4,-214 802,-214 802,4 -4,4"/>
<!-- Node1 -->
<g id="node1" class="node"><title>Node1</title>
<polygon fill="#bfbfbf" stroke="black" points="0,-95.5 0,-114.5 186,-114.5 186,-95.5 0,-95.5"/>
<text text-anchor="middle" x="93" y="-102.5" font-family="Helvetica,sans-Serif" font-size="10.00">turtle.draw.PenTransition.createLine</text>
</g>
<!-- Node2 -->
<g id="node2" class="node"><title>Node2</title>
<g id="a_node2"><a xlink:href="../../d8/dde/classturtle_1_1draw_1_1_pen_transition.html#a431676c45414059317fdf53c2e5d539f" target="_top" xlink:title="turtle.draw.PenTransition.drawLine">
<polygon fill="white" stroke="black" points="227,-152.5 227,-171.5 405,-171.5 405,-152.5 227,-152.5"/>
<text text-anchor="middle" x="316" y="-159.5" font-family="Helvetica,sans-Serif" font-size="10.00">turtle.draw.PenTransition.drawLine</text>
</a>
</g>
</g>
<!-- Node1&#45;&gt;Node2 -->
<g id="edge1" class="edge"><title>Node1&#45;&gt;Node2</title>
<path fill="none" stroke="midnightblue" d="M130.99,-114.541C168.678,-124.261 227.245,-139.366 268.152,-149.917"/>
<polygon fill="midnightblue" stroke="midnightblue" points="267.332,-153.32 277.889,-152.428 269.08,-146.542 267.332,-153.32"/>
</g>
<!-- Node5 -->
<g id="node5" class="node"><title>Node5</title>
<g id="a_node5"><a xlink:href="../../d8/dde/classturtle_1_1draw_1_1_pen_transition.html#a819420d27f897da865421a925d845f0d" target="_top" xlink:title="turtle.draw.PenTransition.formatLine">
<polygon fill="white" stroke="black" points="222,-95.5 222,-114.5 410,-114.5 410,-95.5 222,-95.5"/>
<text text-anchor="middle" x="316" y="-102.5" font-family="Helvetica,sans-Serif" font-size="10.00">turtle.draw.PenTransition.formatLine</text>
</a>
</g>
</g>
<!-- Node1&#45;&gt;Node5 -->
<g id="edge4" class="edge"><title>Node1&#45;&gt;Node5</title>
<path fill="none" stroke="midnightblue" d="M186.124,-105C194.636,-105 203.299,-105 211.901,-105"/>
<polygon fill="midnightblue" stroke="midnightblue" points="211.959,-108.5 221.959,-105 211.959,-101.5 211.959,-108.5"/>
</g>
<!-- Node9 -->
<g id="node9" class="node"><title>Node9</title>
<g id="a_node9"><a xlink:href="../../d8/dde/classturtle_1_1draw_1_1_pen_transition.html#ae64d711ec6faa3b5411bbfe70b68d365" target="_top" xlink:title="turtle.draw.PenTransition.set\lStartPoint">
<polygon fill="white" stroke="black" points="240.5,-30 240.5,-60 391.5,-60 391.5,-30 240.5,-30"/>
<text text-anchor="start" x="248.5" y="-48" font-family="Helvetica,sans-Serif" font-size="10.00">turtle.draw.PenTransition.set</text>
<text text-anchor="middle" x="316" y="-37" font-family="Helvetica,sans-Serif" font-size="10.00">StartPoint</text>
</a>
</g>
</g>
<!-- Node1&#45;&gt;Node9 -->
<g id="edge9" class="edge"><title>Node1&#45;&gt;Node9</title>
<path fill="none" stroke="midnightblue" d="M129.018,-95.4928C161.332,-86.7197 210.144,-73.4678 249.653,-62.7412"/>
<polygon fill="midnightblue" stroke="midnightblue" points="250.748,-66.0707 259.482,-60.0728 248.914,-59.3152 250.748,-66.0707"/>
</g>
<!-- Node3 -->
<g id="node3" class="node"><title>Node3</title>
<g id="a_node3"><a xlink:href="../../df/dcb/classturtle_1_1_turtle.html#a0b8bdf8fc097cab5bf51d46567c2d749" target="_top" xlink:title="turtle.Turtle.getPen">
<polygon fill="white" stroke="black" points="459.5,-152.5 459.5,-171.5 566.5,-171.5 566.5,-152.5 459.5,-152.5"/>
<text text-anchor="middle" x="513" y="-159.5" font-family="Helvetica,sans-Serif" font-size="10.00">turtle.Turtle.getPen</text>
</a>
</g>
</g>
<!-- Node2&#45;&gt;Node3 -->
<g id="edge2" class="edge"><title>Node2&#45;&gt;Node3</title>
<path fill="none" stroke="midnightblue" d="M405.087,-162C420.031,-162 435.273,-162 449.39,-162"/>
<polygon fill="midnightblue" stroke="midnightblue" points="449.451,-165.5 459.451,-162 449.451,-158.5 449.451,-165.5"/>
</g>
<!-- Node4 -->
<g id="node4" class="node"><title>Node4</title>
<g id="a_node4"><a xlink:href="../../dd/da0/classturtle_1_1draw_1_1_pen.html#aef480a23bb1a70267119d54c79d1f31c" target="_top" xlink:title="turtle.draw.Pen.drawLine">
<polygon fill="white" stroke="black" points="446.5,-190.5 446.5,-209.5 579.5,-209.5 579.5,-190.5 446.5,-190.5"/>
<text text-anchor="middle" x="513" y="-197.5" font-family="Helvetica,sans-Serif" font-size="10.00">turtle.draw.Pen.drawLine</text>
</a>
</g>
</g>
<!-- Node2&#45;&gt;Node4 -->
<g id="edge3" class="edge"><title>Node2&#45;&gt;Node4</title>
<path fill="none" stroke="midnightblue" d="M365.955,-171.54C392.381,-176.69 425.194,-183.084 453.02,-188.506"/>
<polygon fill="midnightblue" stroke="midnightblue" points="452.54,-191.979 463.025,-190.456 453.879,-185.108 452.54,-191.979"/>
</g>
<!-- Node5&#45;&gt;Node3 -->
<g id="edge5" class="edge"><title>Node5&#45;&gt;Node3</title>
<path fill="none" stroke="midnightblue" d="M349.057,-114.503C375.149,-122.223 412.936,-133.371 446,-143 453.403,-145.156 461.277,-147.435 468.912,-149.637"/>
<polygon fill="midnightblue" stroke="midnightblue" points="468.173,-153.067 478.751,-152.472 470.111,-146.34 468.173,-153.067"/>
</g>
<!-- Node6 -->
<g id="node6" class="node"><title>Node6</title>
<g id="a_node6"><a xlink:href="../../dd/da0/classturtle_1_1draw_1_1_pen.html#aa1cfa7c148b990a796edcdce0c1ef4dc" target="_top" xlink:title="turtle.draw.Pen.getColor">
<polygon fill="white" stroke="black" points="447.5,-114.5 447.5,-133.5 578.5,-133.5 578.5,-114.5 447.5,-114.5"/>
<text text-anchor="middle" x="513" y="-121.5" font-family="Helvetica,sans-Serif" font-size="10.00">turtle.draw.Pen.getColor</text>
</a>
</g>
</g>
<!-- Node5&#45;&gt;Node6 -->
<g id="edge6" class="edge"><title>Node5&#45;&gt;Node6</title>
<path fill="none" stroke="midnightblue" d="M410.217,-114.083C419.225,-114.96 428.283,-115.843 437.081,-116.7"/>
<polygon fill="midnightblue" stroke="midnightblue" points="436.979,-120.207 447.271,-117.693 437.658,-113.24 436.979,-120.207"/>
</g>
<!-- Node7 -->
<g id="node7" class="node"><title>Node7</title>
<g id="a_node7"><a xlink:href="../../dd/da0/classturtle_1_1draw_1_1_pen.html#a94bdbfaa93c36af4f16c5f43364abb07" target="_top" xlink:title="turtle.draw.Pen.getWidth">
<polygon fill="white" stroke="black" points="446.5,-76.5 446.5,-95.5 579.5,-95.5 579.5,-76.5 446.5,-76.5"/>
<text text-anchor="middle" x="513" y="-83.5" font-family="Helvetica,sans-Serif" font-size="10.00">turtle.draw.Pen.getWidth</text>
</a>
</g>
</g>
<!-- Node5&#45;&gt;Node7 -->
<g id="edge7" class="edge"><title>Node5&#45;&gt;Node7</title>
<path fill="none" stroke="midnightblue" d="M410.217,-95.9174C419.014,-95.0602 427.858,-94.1984 436.462,-93.3601"/>
<polygon fill="midnightblue" stroke="midnightblue" points="436.82,-96.8419 446.434,-92.3885 436.141,-89.8749 436.82,-96.8419"/>
</g>
<!-- Node8 -->
<g id="node8" class="node"><title>Node8</title>
<g id="a_node8"><a xlink:href="../../dd/da0/classturtle_1_1draw_1_1_pen.html#acd8614ebe09681bbd4ac2ac5e4108d17" target="_top" xlink:title="turtle.draw.Pen.getDash">
<polygon fill="white" stroke="black" points="447.5,-38.5 447.5,-57.5 578.5,-57.5 578.5,-38.5 447.5,-38.5"/>
<text text-anchor="middle" x="513" y="-45.5" font-family="Helvetica,sans-Serif" font-size="10.00">turtle.draw.Pen.getDash</text>
</a>
</g>
</g>
<!-- Node5&#45;&gt;Node8 -->
<g id="edge8" class="edge"><title>Node5&#45;&gt;Node8</title>
<path fill="none" stroke="midnightblue" d="M349.057,-95.4971C375.149,-87.777 412.936,-76.6289 446,-67 453.403,-64.8441 461.277,-62.5651 468.912,-60.3627"/>
<polygon fill="midnightblue" stroke="midnightblue" points="470.111,-63.6597 478.751,-57.5284 468.173,-56.9333 470.111,-63.6597"/>
</g>
<!-- Node10 -->
<g id="node10" class="node"><title>Node10</title>
<g id="a_node10"><a xlink:href="../../df/dcb/classturtle_1_1_turtle.html#a29ef6cfcd7794054df8ef83724022983" target="_top" xlink:title="turtle.Turtle.getTurtle">
<polygon fill="white" stroke="black" points="455.5,-0.5 455.5,-19.5 570.5,-19.5 570.5,-0.5 455.5,-0.5"/>
<text text-anchor="middle" x="513" y="-7.5" font-family="Helvetica,sans-Serif" font-size="10.00">turtle.Turtle.getTurtle</text>
</a>
</g>
</g>
<!-- Node9&#45;&gt;Node10 -->
<g id="edge10" class="edge"><title>Node9&#45;&gt;Node10</title>
<path fill="none" stroke="midnightblue" d="M391.556,-31.6182C410.516,-28.2151 430.703,-24.5917 449.023,-21.3035"/>
<polygon fill="midnightblue" stroke="midnightblue" points="449.765,-24.7264 458.99,-19.5147 448.528,-17.8365 449.765,-24.7264"/>
</g>
<!-- Node11 -->
<g id="node11" class="node"><title>Node11</title>
<g id="a_node11"><a xlink:href="../../d4/de5/classturtle_1_1_turtle_view_controller.html#a24215ad9dea4b06da7652230ac822973" target="_top" xlink:title="turtle.TurtleViewController.getNode">
<polygon fill="white" stroke="black" points="616,-0.5 616,-19.5 798,-19.5 798,-0.5 616,-0.5"/>
<text text-anchor="middle" x="707" y="-7.5" font-family="Helvetica,sans-Serif" font-size="10.00">turtle.TurtleViewController.getNode</text>
</a>
</g>
</g>
<!-- Node10&#45;&gt;Node11 -->
<g id="edge11" class="edge"><title>Node10&#45;&gt;Node11</title>
<path fill="none" stroke="midnightblue" d="M570.568,-10C581.716,-10 593.723,-10 605.818,-10"/>
<polygon fill="midnightblue" stroke="midnightblue" points="605.982,-13.5001 615.982,-10 605.982,-6.5001 605.982,-13.5001"/>
</g>
</g>
</svg>
