<?xml version="1.0" encoding="UTF-8" standalone="no"?>
<!DOCTYPE svg PUBLIC "-//W3C//DTD SVG 1.1//EN"
 "http://www.w3.org/Graphics/SVG/1.1/DTD/svg11.dtd">
<!-- Generated by graphviz version 2.36.0 (20140111.2315)
 -->
<!-- Title: turtle.draw.PenTransition.performWrappingChanges Pages: 1 -->
<svg width="1016pt" height="218pt"
 viewBox="0.00 0.00 1016.00 218.00" xmlns="http://www.w3.org/2000/svg" xmlns:xlink="http://www.w3.org/1999/xlink">
<g id="graph0" class="graph" transform="scale(1 1) rotate(0) translate(4 214)">
<title>turtle.draw.PenTransition.performWrappingChanges</title>
<polygon fill="white" stroke="none" points="-4,4 -4,-214 1012,-214 1012,4 -4,4"/>
<!-- Node1 -->
<g id="node1" class="node"><title>Node1</title>
<polygon fill="#bfbfbf" stroke="black" points="0,-48 0,-78 174,-78 174,-48 0,-48"/>
<text text-anchor="start" x="8" y="-66" font-family="Helvetica,sans-Serif" font-size="10.00">turtle.draw.PenTransition.perform</text>
<text text-anchor="middle" x="87" y="-55" font-family="Helvetica,sans-Serif" font-size="10.00">WrappingChanges</text>
</g>
<!-- Node2 -->
<g id="node2" class="node"><title>Node2</title>
<g id="a_node2"><a xlink:href="../../d8/dde/classturtle_1_1draw_1_1_pen_transition.html#ae8155506993774930ffd88f222ee7398" target="_top" xlink:title="turtle.draw.PenTransition.createLine">
<polygon fill="white" stroke="black" points="210,-94.5 210,-113.5 396,-113.5 396,-94.5 210,-94.5"/>
<text text-anchor="middle" x="303" y="-101.5" font-family="Helvetica,sans-Serif" font-size="10.00">turtle.draw.PenTransition.createLine</text>
</a>
</g>
</g>
<!-- Node1&#45;&gt;Node2 -->
<g id="edge1" class="edge"><title>Node1&#45;&gt;Node2</title>
<path fill="none" stroke="midnightblue" d="M166.471,-78.0341C191.409,-82.812 218.578,-88.0174 241.999,-92.5044"/>
<polygon fill="midnightblue" stroke="midnightblue" points="241.65,-96.0013 252.13,-94.4455 242.968,-89.1263 241.65,-96.0013"/>
</g>
<!-- Node10 -->
<g id="node10" class="node"><title>Node10</title>
<g id="a_node10"><a xlink:href="../../d8/dde/classturtle_1_1draw_1_1_pen_transition.html#ae64d711ec6faa3b5411bbfe70b68d365" target="_top" xlink:title="turtle.draw.PenTransition.set\lStartPoint">
<polygon fill="white" stroke="black" points="450.5,-46 450.5,-76 601.5,-76 601.5,-46 450.5,-46"/>
<text text-anchor="start" x="458.5" y="-64" font-family="Helvetica,sans-Serif" font-size="10.00">turtle.draw.PenTransition.set</text>
<text text-anchor="middle" x="526" y="-53" font-family="Helvetica,sans-Serif" font-size="10.00">StartPoint</text>
</a>
</g>
</g>
<!-- Node1&#45;&gt;Node10 -->
<g id="edge14" class="edge"><title>Node1&#45;&gt;Node10</title>
<path fill="none" stroke="midnightblue" d="M174.076,-62.6061C251.178,-62.2532 363.602,-61.7387 440.285,-61.3877"/>
<polygon fill="midnightblue" stroke="midnightblue" points="440.407,-64.8873 450.391,-61.3415 440.375,-57.8874 440.407,-64.8873"/>
</g>
<!-- Node13 -->
<g id="node13" class="node"><title>Node13</title>
<g id="a_node13"><a xlink:href="../../d8/dde/classturtle_1_1draw_1_1_pen_transition.html#a5c823b5721d6767fb73c7f690ddff65a" target="_top" xlink:title="turtle.draw.PenTransition.set\lEndPoint">
<polygon fill="white" stroke="black" points="227.5,-4 227.5,-34 378.5,-34 378.5,-4 227.5,-4"/>
<text text-anchor="start" x="235.5" y="-22" font-family="Helvetica,sans-Serif" font-size="10.00">turtle.draw.PenTransition.set</text>
<text text-anchor="middle" x="303" y="-11" font-family="Helvetica,sans-Serif" font-size="10.00">EndPoint</text>
</a>
</g>
</g>
<!-- Node1&#45;&gt;Node13 -->
<g id="edge13" class="edge"><title>Node1&#45;&gt;Node13</title>
<path fill="none" stroke="midnightblue" d="M161.048,-47.9808C179.711,-44.1436 199.911,-39.9903 219.031,-36.0589"/>
<polygon fill="midnightblue" stroke="midnightblue" points="219.828,-39.4685 228.918,-34.0262 218.418,-32.6119 219.828,-39.4685"/>
</g>
<!-- Node3 -->
<g id="node3" class="node"><title>Node3</title>
<g id="a_node3"><a xlink:href="../../d8/dde/classturtle_1_1draw_1_1_pen_transition.html#a431676c45414059317fdf53c2e5d539f" target="_top" xlink:title="turtle.draw.PenTransition.drawLine">
<polygon fill="white" stroke="black" points="437,-152.5 437,-171.5 615,-171.5 615,-152.5 437,-152.5"/>
<text text-anchor="middle" x="526" y="-159.5" font-family="Helvetica,sans-Serif" font-size="10.00">turtle.draw.PenTransition.drawLine</text>
</a>
</g>
</g>
<!-- Node2&#45;&gt;Node3 -->
<g id="edge2" class="edge"><title>Node2&#45;&gt;Node3</title>
<path fill="none" stroke="midnightblue" d="M340.494,-113.578C378.322,-123.505 437.567,-139.054 478.676,-149.842"/>
<polygon fill="midnightblue" stroke="midnightblue" points="477.891,-153.255 488.452,-152.408 479.668,-146.484 477.891,-153.255"/>
</g>
<!-- Node6 -->
<g id="node6" class="node"><title>Node6</title>
<g id="a_node6"><a xlink:href="../../d8/dde/classturtle_1_1draw_1_1_pen_transition.html#a819420d27f897da865421a925d845f0d" target="_top" xlink:title="turtle.draw.PenTransition.formatLine">
<polygon fill="white" stroke="black" points="432,-95.5 432,-114.5 620,-114.5 620,-95.5 432,-95.5"/>
<text text-anchor="middle" x="526" y="-102.5" font-family="Helvetica,sans-Serif" font-size="10.00">turtle.draw.PenTransition.formatLine</text>
</a>
</g>
</g>
<!-- Node2&#45;&gt;Node6 -->
<g id="edge5" class="edge"><title>Node2&#45;&gt;Node6</title>
<path fill="none" stroke="midnightblue" d="M396.124,-104.417C404.636,-104.455 413.299,-104.495 421.901,-104.533"/>
<polygon fill="midnightblue" stroke="midnightblue" points="421.943,-108.034 431.959,-104.579 421.975,-101.034 421.943,-108.034"/>
</g>
<!-- Node2&#45;&gt;Node10 -->
<g id="edge10" class="edge"><title>Node2&#45;&gt;Node10</title>
<path fill="none" stroke="midnightblue" d="M353.047,-94.4569C378.753,-89.4553 410.965,-83.1877 440.539,-77.4336"/>
<polygon fill="midnightblue" stroke="midnightblue" points="441.306,-80.85 450.454,-75.5044 439.969,-73.9788 441.306,-80.85"/>
</g>
<!-- Node4 -->
<g id="node4" class="node"><title>Node4</title>
<g id="a_node4"><a xlink:href="../../dd/da0/classturtle_1_1draw_1_1_pen.html#aef480a23bb1a70267119d54c79d1f31c" target="_top" xlink:title="turtle.draw.Pen.drawLine">
<polygon fill="white" stroke="black" points="656.5,-190.5 656.5,-209.5 789.5,-209.5 789.5,-190.5 656.5,-190.5"/>
<text text-anchor="middle" x="723" y="-197.5" font-family="Helvetica,sans-Serif" font-size="10.00">turtle.draw.Pen.drawLine</text>
</a>
</g>
</g>
<!-- Node3&#45;&gt;Node4 -->
<g id="edge3" class="edge"><title>Node3&#45;&gt;Node4</title>
<path fill="none" stroke="midnightblue" d="M575.955,-171.54C602.381,-176.69 635.194,-183.084 663.02,-188.506"/>
<polygon fill="midnightblue" stroke="midnightblue" points="662.54,-191.979 673.025,-190.456 663.879,-185.108 662.54,-191.979"/>
</g>
<!-- Node5 -->
<g id="node5" class="node"><title>Node5</title>
<g id="a_node5"><a xlink:href="../../df/dcb/classturtle_1_1_turtle.html#a0b8bdf8fc097cab5bf51d46567c2d749" target="_top" xlink:title="turtle.Turtle.getPen">
<polygon fill="white" stroke="black" points="669.5,-152.5 669.5,-171.5 776.5,-171.5 776.5,-152.5 669.5,-152.5"/>
<text text-anchor="middle" x="723" y="-159.5" font-family="Helvetica,sans-Serif" font-size="10.00">turtle.Turtle.getPen</text>
</a>
</g>
</g>
<!-- Node3&#45;&gt;Node5 -->
<g id="edge4" class="edge"><title>Node3&#45;&gt;Node5</title>
<path fill="none" stroke="midnightblue" d="M615.087,-162C630.031,-162 645.273,-162 659.39,-162"/>
<polygon fill="midnightblue" stroke="midnightblue" points="659.451,-165.5 669.451,-162 659.451,-158.5 659.451,-165.5"/>
</g>
<!-- Node6&#45;&gt;Node5 -->
<g id="edge8" class="edge"><title>Node6&#45;&gt;Node5</title>
<path fill="none" stroke="midnightblue" d="M559.057,-114.503C585.149,-122.223 622.936,-133.371 656,-143 663.403,-145.156 671.277,-147.435 678.912,-149.637"/>
<polygon fill="midnightblue" stroke="midnightblue" points="678.173,-153.067 688.751,-152.472 680.111,-146.34 678.173,-153.067"/>
</g>
<!-- Node7 -->
<g id="node7" class="node"><title>Node7</title>
<g id="a_node7"><a xlink:href="../../dd/da0/classturtle_1_1draw_1_1_pen.html#aa1cfa7c148b990a796edcdce0c1ef4dc" target="_top" xlink:title="turtle.draw.Pen.getColor">
<polygon fill="white" stroke="black" points="657.5,-114.5 657.5,-133.5 788.5,-133.5 788.5,-114.5 657.5,-114.5"/>
<text text-anchor="middle" x="723" y="-121.5" font-family="Helvetica,sans-Serif" font-size="10.00">turtle.draw.Pen.getColor</text>
</a>
</g>
</g>
<!-- Node6&#45;&gt;Node7 -->
<g id="edge6" class="edge"><title>Node6&#45;&gt;Node7</title>
<path fill="none" stroke="midnightblue" d="M620.217,-114.083C629.225,-114.96 638.283,-115.843 647.081,-116.7"/>
<polygon fill="midnightblue" stroke="midnightblue" points="646.979,-120.207 657.271,-117.693 647.658,-113.24 646.979,-120.207"/>
</g>
<!-- Node8 -->
<g id="node8" class="node"><title>Node8</title>
<g id="a_node8"><a xlink:href="../../dd/da0/classturtle_1_1draw_1_1_pen.html#acd8614ebe09681bbd4ac2ac5e4108d17" target="_top" xlink:title="turtle.draw.Pen.getDash">
<polygon fill="white" stroke="black" points="657.5,-76.5 657.5,-95.5 788.5,-95.5 788.5,-76.5 657.5,-76.5"/>
<text text-anchor="middle" x="723" y="-83.5" font-family="Helvetica,sans-Serif" font-size="10.00">turtle.draw.Pen.getDash</text>
</a>
</g>
</g>
<!-- Node6&#45;&gt;Node8 -->
<g id="edge7" class="edge"><title>Node6&#45;&gt;Node8</title>
<path fill="none" stroke="midnightblue" d="M620.217,-95.9174C629.225,-95.0396 638.283,-94.1571 647.081,-93.2998"/>
<polygon fill="midnightblue" stroke="midnightblue" points="647.658,-96.7603 657.271,-92.3069 646.979,-89.7933 647.658,-96.7603"/>
</g>
<!-- Node9 -->
<g id="node9" class="node"><title>Node9</title>
<g id="a_node9"><a xlink:href="../../dd/da0/classturtle_1_1draw_1_1_pen.html#a94bdbfaa93c36af4f16c5f43364abb07" target="_top" xlink:title="turtle.draw.Pen.getWidth">
<polygon fill="white" stroke="black" points="656.5,-38.5 656.5,-57.5 789.5,-57.5 789.5,-38.5 656.5,-38.5"/>
<text text-anchor="middle" x="723" y="-45.5" font-family="Helvetica,sans-Serif" font-size="10.00">turtle.draw.Pen.getWidth</text>
</a>
</g>
</g>
<!-- Node6&#45;&gt;Node9 -->
<g id="edge9" class="edge"><title>Node6&#45;&gt;Node9</title>
<path fill="none" stroke="midnightblue" d="M582.713,-95.4098C595.15,-92.6112 608.158,-89.1589 620,-85 636.878,-79.0726 639.335,-73.5017 656,-67 661.905,-64.6964 668.203,-62.5302 674.477,-60.5437"/>
<polygon fill="midnightblue" stroke="midnightblue" points="675.702,-63.8294 684.255,-57.5762 673.669,-57.1311 675.702,-63.8294"/>
</g>
<!-- Node11 -->
<g id="node11" class="node"><title>Node11</title>
<g id="a_node11"><a xlink:href="../../df/dcb/classturtle_1_1_turtle.html#a29ef6cfcd7794054df8ef83724022983" target="_top" xlink:title="turtle.Turtle.getTurtle">
<polygon fill="white" stroke="black" points="665.5,-0.5 665.5,-19.5 780.5,-19.5 780.5,-0.5 665.5,-0.5"/>
<text text-anchor="middle" x="723" y="-7.5" font-family="Helvetica,sans-Serif" font-size="10.00">turtle.Turtle.getTurtle</text>
</a>
</g>
</g>
<!-- Node10&#45;&gt;Node11 -->
<g id="edge11" class="edge"><title>Node10&#45;&gt;Node11</title>
<path fill="none" stroke="midnightblue" d="M584.452,-45.9742C613.568,-38.3591 648.452,-29.2357 675.804,-22.0822"/>
<polygon fill="midnightblue" stroke="midnightblue" points="676.726,-25.4587 685.515,-19.5422 674.955,-18.6865 676.726,-25.4587"/>
</g>
<!-- Node12 -->
<g id="node12" class="node"><title>Node12</title>
<g id="a_node12"><a xlink:href="../../d4/de5/classturtle_1_1_turtle_view_controller.html#a24215ad9dea4b06da7652230ac822973" target="_top" xlink:title="turtle.TurtleViewController.getNode">
<polygon fill="white" stroke="black" points="826,-0.5 826,-19.5 1008,-19.5 1008,-0.5 826,-0.5"/>
<text text-anchor="middle" x="917" y="-7.5" font-family="Helvetica,sans-Serif" font-size="10.00">turtle.TurtleViewController.getNode</text>
</a>
</g>
</g>
<!-- Node11&#45;&gt;Node12 -->
<g id="edge12" class="edge"><title>Node11&#45;&gt;Node12</title>
<path fill="none" stroke="midnightblue" d="M780.568,-10C791.716,-10 803.723,-10 815.818,-10"/>
<polygon fill="midnightblue" stroke="midnightblue" points="815.982,-13.5001 825.982,-10 815.982,-6.5001 815.982,-13.5001"/>
</g>
</g>
</svg>
