<?xml version="1.0" encoding="UTF-8" standalone="no"?>
<!DOCTYPE svg PUBLIC "-//W3C//DTD SVG 1.1//EN"
 "http://www.w3.org/Graphics/SVG/1.1/DTD/svg11.dtd">
<!-- Generated by graphviz version 2.36.0 (20140111.2315)
 -->
<!-- Title: turtle.draw.PenTransition.setDistance Pages: 1 -->
<svg width="994pt" height="218pt"
 viewBox="0.00 0.00 994.00 218.00" xmlns="http://www.w3.org/2000/svg" xmlns:xlink="http://www.w3.org/1999/xlink">
<g id="graph0" class="graph" transform="scale(1 1) rotate(0) translate(4 214)">
<title>turtle.draw.PenTransition.setDistance</title>
<polygon fill="white" stroke="none" points="-4,4 -4,-214 990,-214 990,4 -4,4"/>
<!-- Node1 -->
<g id="node1" class="node"><title>Node1</title>
<polygon fill="#bfbfbf" stroke="black" points="0.5,-68 0.5,-98 151.5,-98 151.5,-68 0.5,-68"/>
<text text-anchor="start" x="8.5" y="-86" font-family="Helvetica,sans-Serif" font-size="10.00">turtle.draw.PenTransition.set</text>
<text text-anchor="middle" x="76" y="-75" font-family="Helvetica,sans-Serif" font-size="10.00">Distance</text>
</g>
<!-- Node2 -->
<g id="node2" class="node"><title>Node2</title>
<g id="a_node2"><a xlink:href="../../d8/dde/classturtle_1_1draw_1_1_pen_transition.html#ae8155506993774930ffd88f222ee7398" target="_top" xlink:title="turtle.draw.PenTransition.createLine">
<polygon fill="white" stroke="black" points="188,-95.5 188,-114.5 374,-114.5 374,-95.5 188,-95.5"/>
<text text-anchor="middle" x="281" y="-102.5" font-family="Helvetica,sans-Serif" font-size="10.00">turtle.draw.PenTransition.createLine</text>
</a>
</g>
</g>
<!-- Node1&#45;&gt;Node2 -->
<g id="edge1" class="edge"><title>Node1&#45;&gt;Node2</title>
<path fill="none" stroke="midnightblue" d="M151.725,-91.0983C161.56,-92.1642 171.757,-93.2692 181.908,-94.3693"/>
<polygon fill="midnightblue" stroke="midnightblue" points="181.71,-97.8683 192.029,-95.4662 182.464,-90.909 181.71,-97.8683"/>
</g>
<!-- Node13 -->
<g id="node13" class="node"><title>Node13</title>
<g id="a_node13"><a xlink:href="../../d8/dde/classturtle_1_1draw_1_1_pen_transition.html#a5c823b5721d6767fb73c7f690ddff65a" target="_top" xlink:title="turtle.draw.PenTransition.set\lEndPoint">
<polygon fill="white" stroke="black" points="205.5,-46 205.5,-76 356.5,-76 356.5,-46 205.5,-46"/>
<text text-anchor="start" x="213.5" y="-64" font-family="Helvetica,sans-Serif" font-size="10.00">turtle.draw.PenTransition.set</text>
<text text-anchor="middle" x="281" y="-53" font-family="Helvetica,sans-Serif" font-size="10.00">EndPoint</text>
</a>
</g>
</g>
<!-- Node1&#45;&gt;Node13 -->
<g id="edge13" class="edge"><title>Node1&#45;&gt;Node13</title>
<path fill="none" stroke="midnightblue" d="M151.725,-74.9017C165.962,-73.3588 180.956,-71.7338 195.474,-70.1605"/>
<polygon fill="midnightblue" stroke="midnightblue" points="195.868,-73.6383 205.433,-69.0811 195.114,-66.679 195.868,-73.6383"/>
</g>
<!-- Node3 -->
<g id="node3" class="node"><title>Node3</title>
<g id="a_node3"><a xlink:href="../../d8/dde/classturtle_1_1draw_1_1_pen_transition.html#a431676c45414059317fdf53c2e5d539f" target="_top" xlink:title="turtle.draw.PenTransition.drawLine">
<polygon fill="white" stroke="black" points="415,-152.5 415,-171.5 593,-171.5 593,-152.5 415,-152.5"/>
<text text-anchor="middle" x="504" y="-159.5" font-family="Helvetica,sans-Serif" font-size="10.00">turtle.draw.PenTransition.drawLine</text>
</a>
</g>
</g>
<!-- Node2&#45;&gt;Node3 -->
<g id="edge2" class="edge"><title>Node2&#45;&gt;Node3</title>
<path fill="none" stroke="midnightblue" d="M318.99,-114.541C356.678,-124.261 415.245,-139.366 456.152,-149.917"/>
<polygon fill="midnightblue" stroke="midnightblue" points="455.332,-153.32 465.889,-152.428 457.08,-146.542 455.332,-153.32"/>
</g>
<!-- Node6 -->
<g id="node6" class="node"><title>Node6</title>
<g id="a_node6"><a xlink:href="../../d8/dde/classturtle_1_1draw_1_1_pen_transition.html#a819420d27f897da865421a925d845f0d" target="_top" xlink:title="turtle.draw.PenTransition.formatLine">
<polygon fill="white" stroke="black" points="410,-95.5 410,-114.5 598,-114.5 598,-95.5 410,-95.5"/>
<text text-anchor="middle" x="504" y="-102.5" font-family="Helvetica,sans-Serif" font-size="10.00">turtle.draw.PenTransition.formatLine</text>
</a>
</g>
</g>
<!-- Node2&#45;&gt;Node6 -->
<g id="edge5" class="edge"><title>Node2&#45;&gt;Node6</title>
<path fill="none" stroke="midnightblue" d="M374.124,-105C382.636,-105 391.299,-105 399.901,-105"/>
<polygon fill="midnightblue" stroke="midnightblue" points="399.959,-108.5 409.959,-105 399.959,-101.5 399.959,-108.5"/>
</g>
<!-- Node10 -->
<g id="node10" class="node"><title>Node10</title>
<g id="a_node10"><a xlink:href="../../d8/dde/classturtle_1_1draw_1_1_pen_transition.html#ae64d711ec6faa3b5411bbfe70b68d365" target="_top" xlink:title="turtle.draw.PenTransition.set\lStartPoint">
<polygon fill="white" stroke="black" points="428.5,-30 428.5,-60 579.5,-60 579.5,-30 428.5,-30"/>
<text text-anchor="start" x="436.5" y="-48" font-family="Helvetica,sans-Serif" font-size="10.00">turtle.draw.PenTransition.set</text>
<text text-anchor="middle" x="504" y="-37" font-family="Helvetica,sans-Serif" font-size="10.00">StartPoint</text>
</a>
</g>
</g>
<!-- Node2&#45;&gt;Node10 -->
<g id="edge10" class="edge"><title>Node2&#45;&gt;Node10</title>
<path fill="none" stroke="midnightblue" d="M329.937,-95.401C344.18,-92.328 359.774,-88.7444 374,-85 398.603,-78.5244 425.523,-70.3526 448.377,-63.0857"/>
<polygon fill="midnightblue" stroke="midnightblue" points="449.449,-66.4179 457.904,-60.0343 447.313,-59.7515 449.449,-66.4179"/>
</g>
<!-- Node4 -->
<g id="node4" class="node"><title>Node4</title>
<g id="a_node4"><a xlink:href="../../dd/da0/classturtle_1_1draw_1_1_pen.html#aef480a23bb1a70267119d54c79d1f31c" target="_top" xlink:title="turtle.draw.Pen.drawLine">
<polygon fill="white" stroke="black" points="634.5,-190.5 634.5,-209.5 767.5,-209.5 767.5,-190.5 634.5,-190.5"/>
<text text-anchor="middle" x="701" y="-197.5" font-family="Helvetica,sans-Serif" font-size="10.00">turtle.draw.Pen.drawLine</text>
</a>
</g>
</g>
<!-- Node3&#45;&gt;Node4 -->
<g id="edge3" class="edge"><title>Node3&#45;&gt;Node4</title>
<path fill="none" stroke="midnightblue" d="M553.955,-171.54C580.381,-176.69 613.194,-183.084 641.02,-188.506"/>
<polygon fill="midnightblue" stroke="midnightblue" points="640.54,-191.979 651.025,-190.456 641.879,-185.108 640.54,-191.979"/>
</g>
<!-- Node5 -->
<g id="node5" class="node"><title>Node5</title>
<g id="a_node5"><a xlink:href="../../df/dcb/classturtle_1_1_turtle.html#a0b8bdf8fc097cab5bf51d46567c2d749" target="_top" xlink:title="turtle.Turtle.getPen">
<polygon fill="white" stroke="black" points="647.5,-152.5 647.5,-171.5 754.5,-171.5 754.5,-152.5 647.5,-152.5"/>
<text text-anchor="middle" x="701" y="-159.5" font-family="Helvetica,sans-Serif" font-size="10.00">turtle.Turtle.getPen</text>
</a>
</g>
</g>
<!-- Node3&#45;&gt;Node5 -->
<g id="edge4" class="edge"><title>Node3&#45;&gt;Node5</title>
<path fill="none" stroke="midnightblue" d="M593.087,-162C608.031,-162 623.273,-162 637.39,-162"/>
<polygon fill="midnightblue" stroke="midnightblue" points="637.451,-165.5 647.451,-162 637.451,-158.5 637.451,-165.5"/>
</g>
<!-- Node6&#45;&gt;Node5 -->
<g id="edge8" class="edge"><title>Node6&#45;&gt;Node5</title>
<path fill="none" stroke="midnightblue" d="M537.057,-114.503C563.149,-122.223 600.936,-133.371 634,-143 641.403,-145.156 649.277,-147.435 656.912,-149.637"/>
<polygon fill="midnightblue" stroke="midnightblue" points="656.173,-153.067 666.751,-152.472 658.111,-146.34 656.173,-153.067"/>
</g>
<!-- Node7 -->
<g id="node7" class="node"><title>Node7</title>
<g id="a_node7"><a xlink:href="../../dd/da0/classturtle_1_1draw_1_1_pen.html#aa1cfa7c148b990a796edcdce0c1ef4dc" target="_top" xlink:title="turtle.draw.Pen.getColor">
<polygon fill="white" stroke="black" points="635.5,-114.5 635.5,-133.5 766.5,-133.5 766.5,-114.5 635.5,-114.5"/>
<text text-anchor="middle" x="701" y="-121.5" font-family="Helvetica,sans-Serif" font-size="10.00">turtle.draw.Pen.getColor</text>
</a>
</g>
</g>
<!-- Node6&#45;&gt;Node7 -->
<g id="edge6" class="edge"><title>Node6&#45;&gt;Node7</title>
<path fill="none" stroke="midnightblue" d="M598.217,-114.083C607.225,-114.96 616.283,-115.843 625.081,-116.7"/>
<polygon fill="midnightblue" stroke="midnightblue" points="624.979,-120.207 635.271,-117.693 625.658,-113.24 624.979,-120.207"/>
</g>
<!-- Node8 -->
<g id="node8" class="node"><title>Node8</title>
<g id="a_node8"><a xlink:href="../../dd/da0/classturtle_1_1draw_1_1_pen.html#acd8614ebe09681bbd4ac2ac5e4108d17" target="_top" xlink:title="turtle.draw.Pen.getDash">
<polygon fill="white" stroke="black" points="635.5,-76.5 635.5,-95.5 766.5,-95.5 766.5,-76.5 635.5,-76.5"/>
<text text-anchor="middle" x="701" y="-83.5" font-family="Helvetica,sans-Serif" font-size="10.00">turtle.draw.Pen.getDash</text>
</a>
</g>
</g>
<!-- Node6&#45;&gt;Node8 -->
<g id="edge7" class="edge"><title>Node6&#45;&gt;Node8</title>
<path fill="none" stroke="midnightblue" d="M598.217,-95.9174C607.225,-95.0396 616.283,-94.1571 625.081,-93.2998"/>
<polygon fill="midnightblue" stroke="midnightblue" points="625.658,-96.7603 635.271,-92.3069 624.979,-89.7933 625.658,-96.7603"/>
</g>
<!-- Node9 -->
<g id="node9" class="node"><title>Node9</title>
<g id="a_node9"><a xlink:href="../../dd/da0/classturtle_1_1draw_1_1_pen.html#a94bdbfaa93c36af4f16c5f43364abb07" target="_top" xlink:title="turtle.draw.Pen.getWidth">
<polygon fill="white" stroke="black" points="634.5,-38.5 634.5,-57.5 767.5,-57.5 767.5,-38.5 634.5,-38.5"/>
<text text-anchor="middle" x="701" y="-45.5" font-family="Helvetica,sans-Serif" font-size="10.00">turtle.draw.Pen.getWidth</text>
</a>
</g>
</g>
<!-- Node6&#45;&gt;Node9 -->
<g id="edge9" class="edge"><title>Node6&#45;&gt;Node9</title>
<path fill="none" stroke="midnightblue" d="M537.057,-95.4971C563.149,-87.777 600.936,-76.6289 634,-67 641.403,-64.8441 649.277,-62.5651 656.912,-60.3627"/>
<polygon fill="midnightblue" stroke="midnightblue" points="658.111,-63.6597 666.751,-57.5284 656.173,-56.9333 658.111,-63.6597"/>
</g>
<!-- Node11 -->
<g id="node11" class="node"><title>Node11</title>
<g id="a_node11"><a xlink:href="../../df/dcb/classturtle_1_1_turtle.html#a29ef6cfcd7794054df8ef83724022983" target="_top" xlink:title="turtle.Turtle.getTurtle">
<polygon fill="white" stroke="black" points="643.5,-0.5 643.5,-19.5 758.5,-19.5 758.5,-0.5 643.5,-0.5"/>
<text text-anchor="middle" x="701" y="-7.5" font-family="Helvetica,sans-Serif" font-size="10.00">turtle.Turtle.getTurtle</text>
</a>
</g>
</g>
<!-- Node10&#45;&gt;Node11 -->
<g id="edge11" class="edge"><title>Node10&#45;&gt;Node11</title>
<path fill="none" stroke="midnightblue" d="M579.556,-31.6182C598.516,-28.2151 618.703,-24.5917 637.023,-21.3035"/>
<polygon fill="midnightblue" stroke="midnightblue" points="637.765,-24.7264 646.99,-19.5147 636.528,-17.8365 637.765,-24.7264"/>
</g>
<!-- Node12 -->
<g id="node12" class="node"><title>Node12</title>
<g id="a_node12"><a xlink:href="../../d4/de5/classturtle_1_1_turtle_view_controller.html#a24215ad9dea4b06da7652230ac822973" target="_top" xlink:title="turtle.TurtleViewController.getNode">
<polygon fill="white" stroke="black" points="804,-0.5 804,-19.5 986,-19.5 986,-0.5 804,-0.5"/>
<text text-anchor="middle" x="895" y="-7.5" font-family="Helvetica,sans-Serif" font-size="10.00">turtle.TurtleViewController.getNode</text>
</a>
</g>
</g>
<!-- Node11&#45;&gt;Node12 -->
<g id="edge12" class="edge"><title>Node11&#45;&gt;Node12</title>
<path fill="none" stroke="midnightblue" d="M758.568,-10C769.716,-10 781.723,-10 793.818,-10"/>
<polygon fill="midnightblue" stroke="midnightblue" points="793.982,-13.5001 803.982,-10 793.982,-6.5001 793.982,-13.5001"/>
</g>
</g>
</svg>
