<?xml version="1.0" encoding="UTF-8" standalone="no"?>
<!DOCTYPE svg PUBLIC "-//W3C//DTD SVG 1.1//EN"
 "http://www.w3.org/Graphics/SVG/1.1/DTD/svg11.dtd">
<!-- Generated by graphviz version 2.36.0 (20140111.2315)
 -->
<!-- Title: turtle.draw.PenTransition.setTurtle Pages: 1 -->
<svg width="1004pt" height="38pt"
 viewBox="0.00 0.00 1004.00 38.00" xmlns="http://www.w3.org/2000/svg" xmlns:xlink="http://www.w3.org/1999/xlink">
<g id="graph0" class="graph" transform="scale(1 1) rotate(0) translate(4 34)">
<title>turtle.draw.PenTransition.setTurtle</title>
<polygon fill="white" stroke="none" points="-4,4 -4,-34 1000,-34 1000,4 -4,4"/>
<!-- Node1 -->
<g id="node1" class="node"><title>Node1</title>
<polygon fill="#bfbfbf" stroke="black" points="0.5,-0 0.5,-30 151.5,-30 151.5,-0 0.5,-0"/>
<text text-anchor="start" x="8.5" y="-18" font-family="Helvetica,sans-Serif" font-size="10.00">turtle.draw.PenTransition.set</text>
<text text-anchor="middle" x="76" y="-7" font-family="Helvetica,sans-Serif" font-size="10.00">Turtle</text>
</g>
<!-- Node2 -->
<g id="node2" class="node"><title>Node2</title>
<g id="a_node2"><a xlink:href="../../dc/d3e/classturtle_1_1draw_1_1_transition_factory.html#a6ff1cfc7cfe2396040ddb55408ee854e" target="_top" xlink:title="turtle.draw.TransitionFactory.create\lForwardTransition">
<polygon fill="white" stroke="black" points="188,-0 188,-30 370,-30 370,-0 188,-0"/>
<text text-anchor="start" x="196" y="-18" font-family="Helvetica,sans-Serif" font-size="10.00">turtle.draw.TransitionFactory.create</text>
<text text-anchor="middle" x="279" y="-7" font-family="Helvetica,sans-Serif" font-size="10.00">ForwardTransition</text>
</a>
</g>
</g>
<!-- Node1&#45;&gt;Node2 -->
<g id="edge1" class="edge"><title>Node1&#45;&gt;Node2</title>
<path fill="none" stroke="midnightblue" d="M161.658,-15C170.338,-15 179.179,-15 187.914,-15"/>
<polygon fill="midnightblue" stroke="midnightblue" points="161.559,-11.5001 151.559,-15 161.559,-18.5001 161.559,-11.5001"/>
</g>
<!-- Node3 -->
<g id="node3" class="node"><title>Node3</title>
<g id="a_node3"><a xlink:href="../../dc/d3e/classturtle_1_1draw_1_1_transition_factory.html#adb38be68a00bde2421dbdf0d55a93e54" target="_top" xlink:title="turtle.draw.TransitionFactory.create\lTurtleTransition">
<polygon fill="white" stroke="black" points="406,-0 406,-30 588,-30 588,-0 406,-0"/>
<text text-anchor="start" x="414" y="-18" font-family="Helvetica,sans-Serif" font-size="10.00">turtle.draw.TransitionFactory.create</text>
<text text-anchor="middle" x="497" y="-7" font-family="Helvetica,sans-Serif" font-size="10.00">TurtleTransition</text>
</a>
</g>
</g>
<!-- Node2&#45;&gt;Node3 -->
<g id="edge2" class="edge"><title>Node2&#45;&gt;Node3</title>
<path fill="none" stroke="midnightblue" d="M380.059,-15C388.631,-15 397.27,-15 405.759,-15"/>
<polygon fill="midnightblue" stroke="midnightblue" points="380.039,-11.5001 370.039,-15 380.039,-18.5001 380.039,-11.5001"/>
</g>
<!-- Node4 -->
<g id="node4" class="node"><title>Node4</title>
<g id="a_node4"><a xlink:href="../../dc/d3e/classturtle_1_1draw_1_1_transition_factory.html#a31b362130278174931595c1ce68c7ff5" target="_top" xlink:title="turtle.draw.TransitionFactory.create\lAnimation">
<polygon fill="white" stroke="black" points="624,-0 624,-30 806,-30 806,-0 624,-0"/>
<text text-anchor="start" x="632" y="-18" font-family="Helvetica,sans-Serif" font-size="10.00">turtle.draw.TransitionFactory.create</text>
<text text-anchor="middle" x="715" y="-7" font-family="Helvetica,sans-Serif" font-size="10.00">Animation</text>
</a>
</g>
</g>
<!-- Node3&#45;&gt;Node4 -->
<g id="edge3" class="edge"><title>Node3&#45;&gt;Node4</title>
<path fill="none" stroke="midnightblue" d="M598.059,-15C606.631,-15 615.27,-15 623.759,-15"/>
<polygon fill="midnightblue" stroke="midnightblue" points="598.039,-11.5001 588.039,-15 598.039,-18.5001 598.039,-11.5001"/>
</g>
<!-- Node5 -->
<g id="node5" class="node"><title>Node5</title>
<g id="a_node5"><a xlink:href="../../df/dcb/classturtle_1_1_turtle.html#a72a5d11b319fe2819a646569d5034557" target="_top" xlink:title="turtle.Turtle.createAnimation">
<polygon fill="white" stroke="black" points="842.5,-5.5 842.5,-24.5 995.5,-24.5 995.5,-5.5 842.5,-5.5"/>
<text text-anchor="middle" x="919" y="-12.5" font-family="Helvetica,sans-Serif" font-size="10.00">turtle.Turtle.createAnimation</text>
</a>
</g>
</g>
<!-- Node4&#45;&gt;Node5 -->
<g id="edge4" class="edge"><title>Node4&#45;&gt;Node5</title>
<path fill="none" stroke="midnightblue" d="M816.314,-15C825.055,-15 833.804,-15 842.297,-15"/>
<polygon fill="midnightblue" stroke="midnightblue" points="816.071,-11.5001 806.071,-15 816.071,-18.5001 816.071,-11.5001"/>
</g>
</g>
</svg>
