<?xml version="1.0" encoding="UTF-8" standalone="no"?>
<!DOCTYPE svg PUBLIC "-//W3C//DTD SVG 1.1//EN"
 "http://www.w3.org/Graphics/SVG/1.1/DTD/svg11.dtd">
<!-- Generated by graphviz version 2.36.0 (20140111.2315)
 -->
<!-- Title: viewcontroller.commands.UserDefinedMethodsViewController.getNode Pages: 1 -->
<svg width="1058pt" height="48pt"
 viewBox="0.00 0.00 1058.00 48.00" xmlns="http://www.w3.org/2000/svg" xmlns:xlink="http://www.w3.org/1999/xlink">
<g id="graph0" class="graph" transform="scale(1 1) rotate(0) translate(4 44)">
<title>viewcontroller.commands.UserDefinedMethodsViewController.getNode</title>
<polygon fill="white" stroke="none" points="-4,4 -4,-44 1054,-44 1054,4 -4,4"/>
<!-- Node1 -->
<g id="node1" class="node"><title>Node1</title>
<polygon fill="#bfbfbf" stroke="black" points="0.5,-5 0.5,-35 229.5,-35 229.5,-5 0.5,-5"/>
<text text-anchor="start" x="8.5" y="-23" font-family="Helvetica,sans-Serif" font-size="10.00">viewcontroller.commands.</text>
<text text-anchor="middle" x="115" y="-12" font-family="Helvetica,sans-Serif" font-size="10.00">UserDefinedMethodsViewController.getNode</text>
</g>
<!-- Node2 -->
<g id="node2" class="node"><title>Node2</title>
<g id="a_node2"><a xlink:href="../../d0/d7c/classviewcontroller_1_1commands_1_1_command_window_container_view_controller.html#a5e24d0ef1f59d052cb89152d23a6a1fe" target="_top" xlink:title="viewcontroller.commands.\lCommandWindowContainerViewController.place\lUserDefinedBoxes">
<polygon fill="white" stroke="black" points="266.5,0.5 266.5,-40.5 511.5,-40.5 511.5,0.5 266.5,0.5"/>
<text text-anchor="start" x="274.5" y="-28.5" font-family="Helvetica,sans-Serif" font-size="10.00">viewcontroller.commands.</text>
<text text-anchor="start" x="274.5" y="-17.5" font-family="Helvetica,sans-Serif" font-size="10.00">CommandWindowContainerViewController.place</text>
<text text-anchor="middle" x="389" y="-6.5" font-family="Helvetica,sans-Serif" font-size="10.00">UserDefinedBoxes</text>
</a>
</g>
</g>
<!-- Node1&#45;&gt;Node2 -->
<g id="edge1" class="edge"><title>Node1&#45;&gt;Node2</title>
<path fill="none" stroke="midnightblue" d="M240.02,-20C248.779,-20 257.605,-20 266.351,-20"/>
<polygon fill="midnightblue" stroke="midnightblue" points="239.777,-16.5001 229.776,-20 239.776,-23.5001 239.777,-16.5001"/>
</g>
<!-- Node3 -->
<g id="node3" class="node"><title>Node3</title>
<g id="a_node3"><a xlink:href="../../d0/d7c/classviewcontroller_1_1commands_1_1_command_window_container_view_controller.html#a4b22dc9a991f9a307ce4331ebc288f7f" target="_top" xlink:title="viewcontroller.commands.\lCommandWindowContainerViewController.place\lCommandWindows">
<polygon fill="white" stroke="black" points="548.5,0.5 548.5,-40.5 793.5,-40.5 793.5,0.5 548.5,0.5"/>
<text text-anchor="start" x="556.5" y="-28.5" font-family="Helvetica,sans-Serif" font-size="10.00">viewcontroller.commands.</text>
<text text-anchor="start" x="556.5" y="-17.5" font-family="Helvetica,sans-Serif" font-size="10.00">CommandWindowContainerViewController.place</text>
<text text-anchor="middle" x="671" y="-6.5" font-family="Helvetica,sans-Serif" font-size="10.00">CommandWindows</text>
</a>
</g>
</g>
<!-- Node2&#45;&gt;Node3 -->
<g id="edge2" class="edge"><title>Node2&#45;&gt;Node3</title>
<path fill="none" stroke="midnightblue" d="M521.838,-20C530.591,-20 539.386,-20 548.087,-20"/>
<polygon fill="midnightblue" stroke="midnightblue" points="521.591,-16.5001 511.59,-20 521.59,-23.5001 521.591,-16.5001"/>
</g>
<!-- Node4 -->
<g id="node4" class="node"><title>Node4</title>
<g id="a_node4"><a xlink:href="../../d0/d7c/classviewcontroller_1_1commands_1_1_command_window_container_view_controller.html#a00c0cfff2fbbb87ce16e3fa7f125277f" target="_top" xlink:title="viewcontroller.commands.\lCommandWindowContainerViewController.\lCommandWindowContainerViewController">
<polygon fill="white" stroke="black" points="830.5,0.5 830.5,-40.5 1049.5,-40.5 1049.5,0.5 830.5,0.5"/>
<text text-anchor="start" x="838.5" y="-28.5" font-family="Helvetica,sans-Serif" font-size="10.00">viewcontroller.commands.</text>
<text text-anchor="start" x="838.5" y="-17.5" font-family="Helvetica,sans-Serif" font-size="10.00">CommandWindowContainerViewController.</text>
<text text-anchor="middle" x="940" y="-6.5" font-family="Helvetica,sans-Serif" font-size="10.00">CommandWindowContainerViewController</text>
</a>
</g>
</g>
<!-- Node3&#45;&gt;Node4 -->
<g id="edge3" class="edge"><title>Node3&#45;&gt;Node4</title>
<path fill="none" stroke="midnightblue" d="M803.842,-20C812.766,-20 821.7,-20 830.484,-20"/>
<polygon fill="midnightblue" stroke="midnightblue" points="803.78,-16.5001 793.78,-20 803.78,-23.5001 803.78,-16.5001"/>
</g>
</g>
</svg>
