<?xml version="1.0" encoding="UTF-8" standalone="no"?>
<!DOCTYPE svg PUBLIC "-//W3C//DTD SVG 1.1//EN"
 "http://www.w3.org/Graphics/SVG/1.1/DTD/svg11.dtd">
<!-- Generated by graphviz version 2.36.0 (20140111.2315)
 -->
<!-- Title: viewcontroller.commands.UserDefinedMethodsViewController.UserDefinedMethodsViewController Pages: 1 -->
<svg width="632pt" height="98pt"
 viewBox="0.00 0.00 632.00 98.00" xmlns="http://www.w3.org/2000/svg" xmlns:xlink="http://www.w3.org/1999/xlink">
<g id="graph0" class="graph" transform="scale(1 1) rotate(0) translate(4 94)">
<title>viewcontroller.commands.UserDefinedMethodsViewController.UserDefinedMethodsViewController</title>
<polygon fill="white" stroke="none" points="-4,4 -4,-94 628,-94 628,4 -4,4"/>
<!-- Node1 -->
<g id="node1" class="node"><title>Node1</title>
<polygon fill="#bfbfbf" stroke="black" points="0,-21.5 0,-62.5 188,-62.5 188,-21.5 0,-21.5"/>
<text text-anchor="start" x="8" y="-50.5" font-family="Helvetica,sans-Serif" font-size="10.00">viewcontroller.commands.</text>
<text text-anchor="start" x="8" y="-39.5" font-family="Helvetica,sans-Serif" font-size="10.00">UserDefinedMethodsViewController.</text>
<text text-anchor="middle" x="94" y="-28.5" font-family="Helvetica,sans-Serif" font-size="10.00">UserDefinedMethodsViewController</text>
</g>
<!-- Node2 -->
<g id="node2" class="node"><title>Node2</title>
<g id="a_node2"><a xlink:href="../../de/d01/classviewcontroller_1_1commands_1_1_user_defined_methods_view_controller.html#abb8bc5686a6e6ed6cb588bf9cae9acc9" target="_top" xlink:title="viewcontroller.commands.\lUserDefinedMethodsViewController.apply\lTranslations">
<polygon fill="white" stroke="black" points="224.5,-48.5 224.5,-89.5 437.5,-89.5 437.5,-48.5 224.5,-48.5"/>
<text text-anchor="start" x="232.5" y="-77.5" font-family="Helvetica,sans-Serif" font-size="10.00">viewcontroller.commands.</text>
<text text-anchor="start" x="232.5" y="-66.5" font-family="Helvetica,sans-Serif" font-size="10.00">UserDefinedMethodsViewController.apply</text>
<text text-anchor="middle" x="331" y="-55.5" font-family="Helvetica,sans-Serif" font-size="10.00">Translations</text>
</a>
</g>
</g>
<!-- Node1&#45;&gt;Node2 -->
<g id="edge1" class="edge"><title>Node1&#45;&gt;Node2</title>
<path fill="none" stroke="midnightblue" d="M188.216,-52.7099C196.875,-53.7047 205.717,-54.7207 214.545,-55.7349"/>
<polygon fill="midnightblue" stroke="midnightblue" points="214.16,-59.2137 224.494,-56.878 214.959,-52.2594 214.16,-59.2137"/>
</g>
<!-- Node4 -->
<g id="node4" class="node"><title>Node4</title>
<g id="a_node4"><a xlink:href="../../d8/d68/classviewcontroller_1_1commands_1_1_command_window_view_controller.html#a62c54d52ea3c2f55be0a741a1c5fb240" target="_top" xlink:title="viewcontroller.commands.\lCommandWindowViewController.setTitle">
<polygon fill="white" stroke="black" points="227.5,-0 227.5,-30 434.5,-30 434.5,-0 227.5,-0"/>
<text text-anchor="start" x="235.5" y="-18" font-family="Helvetica,sans-Serif" font-size="10.00">viewcontroller.commands.</text>
<text text-anchor="middle" x="331" y="-7" font-family="Helvetica,sans-Serif" font-size="10.00">CommandWindowViewController.setTitle</text>
</a>
</g>
</g>
<!-- Node1&#45;&gt;Node4 -->
<g id="edge3" class="edge"><title>Node1&#45;&gt;Node4</title>
<path fill="none" stroke="midnightblue" d="M188.216,-31.2901C197.727,-30.1974 207.459,-29.0791 217.15,-27.9658"/>
<polygon fill="midnightblue" stroke="midnightblue" points="217.687,-31.4272 227.222,-26.8085 216.888,-24.4729 217.687,-31.4272"/>
</g>
<!-- Node3 -->
<g id="node3" class="node"><title>Node3</title>
<g id="a_node3"><a xlink:href="../../d9/dd7/classviewcontroller_1_1_g_u_i_reference_library.html#ac147f33c0bfa0252d247d7c0174ff688" target="_top" xlink:title="viewcontroller.GUIReference\lLibrary.getStringTranslation">
<polygon fill="white" stroke="black" points="474.5,-54 474.5,-84 623.5,-84 623.5,-54 474.5,-54"/>
<text text-anchor="start" x="482.5" y="-72" font-family="Helvetica,sans-Serif" font-size="10.00">viewcontroller.GUIReference</text>
<text text-anchor="middle" x="549" y="-61" font-family="Helvetica,sans-Serif" font-size="10.00">Library.getStringTranslation</text>
</a>
</g>
</g>
<!-- Node2&#45;&gt;Node3 -->
<g id="edge2" class="edge"><title>Node2&#45;&gt;Node3</title>
<path fill="none" stroke="midnightblue" d="M437.785,-69C446.697,-69 455.629,-69 464.339,-69"/>
<polygon fill="midnightblue" stroke="midnightblue" points="464.446,-72.5001 474.446,-69 464.446,-65.5001 464.446,-72.5001"/>
</g>
</g>
</svg>
