<?xml version="1.0" encoding="UTF-8" standalone="no"?>
<!DOCTYPE svg PUBLIC "-//W3C//DTD SVG 1.1//EN"
 "http://www.w3.org/Graphics/SVG/1.1/DTD/svg11.dtd">
<!-- Generated by graphviz version 2.36.0 (20140111.2315)
 -->
<!-- Title: viewcontroller.commands.UserDefinedMethodsViewController.applyTranslations Pages: 1 -->
<svg width="408pt" height="48pt"
 viewBox="0.00 0.00 408.00 48.00" xmlns="http://www.w3.org/2000/svg" xmlns:xlink="http://www.w3.org/1999/xlink">
<g id="graph0" class="graph" transform="scale(1 1) rotate(0) translate(4 44)">
<title>viewcontroller.commands.UserDefinedMethodsViewController.applyTranslations</title>
<polygon fill="white" stroke="none" points="-4,4 -4,-44 404,-44 404,4 -4,4"/>
<!-- Node1 -->
<g id="node1" class="node"><title>Node1</title>
<polygon fill="#bfbfbf" stroke="black" points="0.5,0.5 0.5,-40.5 213.5,-40.5 213.5,0.5 0.5,0.5"/>
<text text-anchor="start" x="8.5" y="-28.5" font-family="Helvetica,sans-Serif" font-size="10.00">viewcontroller.commands.</text>
<text text-anchor="start" x="8.5" y="-17.5" font-family="Helvetica,sans-Serif" font-size="10.00">UserDefinedMethodsViewController.apply</text>
<text text-anchor="middle" x="107" y="-6.5" font-family="Helvetica,sans-Serif" font-size="10.00">Translations</text>
</g>
<!-- Node2 -->
<g id="node2" class="node"><title>Node2</title>
<g id="a_node2"><a xlink:href="../../d9/dd7/classviewcontroller_1_1_g_u_i_reference_library.html#ac147f33c0bfa0252d247d7c0174ff688" target="_top" xlink:title="viewcontroller.GUIReference\lLibrary.getStringTranslation">
<polygon fill="white" stroke="black" points="250.5,-5 250.5,-35 399.5,-35 399.5,-5 250.5,-5"/>
<text text-anchor="start" x="258.5" y="-23" font-family="Helvetica,sans-Serif" font-size="10.00">viewcontroller.GUIReference</text>
<text text-anchor="middle" x="325" y="-12" font-family="Helvetica,sans-Serif" font-size="10.00">Library.getStringTranslation</text>
</a>
</g>
</g>
<!-- Node1&#45;&gt;Node2 -->
<g id="edge1" class="edge"><title>Node1&#45;&gt;Node2</title>
<path fill="none" stroke="midnightblue" d="M213.785,-20C222.697,-20 231.629,-20 240.339,-20"/>
<polygon fill="midnightblue" stroke="midnightblue" points="240.446,-23.5001 250.446,-20 240.446,-16.5001 240.446,-23.5001"/>
</g>
</g>
</svg>
