<?xml version="1.0" encoding="UTF-8" standalone="no"?>
<!DOCTYPE svg PUBLIC "-//W3C//DTD SVG 1.1//EN"
 "http://www.w3.org/Graphics/SVG/1.1/DTD/svg11.dtd">
<!-- Generated by graphviz version 2.36.0 (20140111.2315)
 -->
<!-- Title: viewcontroller.commands.UserDefinedMethodsViewController.update Pages: 1 -->
<svg width="954pt" height="177pt"
 viewBox="0.00 0.00 954.00 177.00" xmlns="http://www.w3.org/2000/svg" xmlns:xlink="http://www.w3.org/1999/xlink">
<g id="graph0" class="graph" transform="scale(1 1) rotate(0) translate(4 173)">
<title>viewcontroller.commands.UserDefinedMethodsViewController.update</title>
<polygon fill="white" stroke="none" points="-4,4 -4,-173 950,-173 950,4 -4,4"/>
<!-- Node1 -->
<g id="node1" class="node"><title>Node1</title>
<polygon fill="#bfbfbf" stroke="black" points="0.5,-49 0.5,-79 221.5,-79 221.5,-49 0.5,-49"/>
<text text-anchor="start" x="8.5" y="-67" font-family="Helvetica,sans-Serif" font-size="10.00">viewcontroller.commands.</text>
<text text-anchor="middle" x="111" y="-56" font-family="Helvetica,sans-Serif" font-size="10.00">UserDefinedMethodsViewController.update</text>
</g>
<!-- Node2 -->
<g id="node2" class="node"><title>Node2</title>
<g id="a_node2"><a xlink:href="../../d1/dfa/classviewcontroller_1_1commands_1_1_command_clickable_list_window_view_controller.html#a2ed6fe1ba70171aa8c3bbf512c6d3f14" target="_top" xlink:title="viewcontroller.commands.\lCommandClickableListWindowView\lController.addCommand">
<polygon fill="white" stroke="black" points="258,-97.5 258,-138.5 440,-138.5 440,-97.5 258,-97.5"/>
<text text-anchor="start" x="266" y="-126.5" font-family="Helvetica,sans-Serif" font-size="10.00">viewcontroller.commands.</text>
<text text-anchor="start" x="266" y="-115.5" font-family="Helvetica,sans-Serif" font-size="10.00">CommandClickableListWindowView</text>
<text text-anchor="middle" x="349" y="-104.5" font-family="Helvetica,sans-Serif" font-size="10.00">Controller.addCommand</text>
</a>
</g>
</g>
<!-- Node1&#45;&gt;Node2 -->
<g id="edge1" class="edge"><title>Node1&#45;&gt;Node2</title>
<path fill="none" stroke="midnightblue" d="M177.739,-79.042C199.676,-84.0614 224.632,-89.7717 248.546,-95.2436"/>
<polygon fill="midnightblue" stroke="midnightblue" points="247.832,-98.6705 258.36,-97.4893 249.393,-91.8469 247.832,-98.6705"/>
</g>
<!-- Node6 -->
<g id="node6" class="node"><title>Node6</title>
<g id="a_node6"><a xlink:href="../../da/dee/classmodel_1_1_user_defined_commands_model.html#af2a852a2d5a0fd3728e6cc714088ebe4" target="_top" xlink:title="model.UserDefinedCommands\lModel.getAllDefinedCommands">
<polygon fill="white" stroke="black" points="265.5,-49 265.5,-79 432.5,-79 432.5,-49 265.5,-49"/>
<text text-anchor="start" x="273.5" y="-67" font-family="Helvetica,sans-Serif" font-size="10.00">model.UserDefinedCommands</text>
<text text-anchor="middle" x="349" y="-56" font-family="Helvetica,sans-Serif" font-size="10.00">Model.getAllDefinedCommands</text>
</a>
</g>
</g>
<!-- Node1&#45;&gt;Node6 -->
<g id="edge5" class="edge"><title>Node1&#45;&gt;Node6</title>
<path fill="none" stroke="midnightblue" d="M221.709,-64C232.953,-64 244.297,-64 255.331,-64"/>
<polygon fill="midnightblue" stroke="midnightblue" points="255.365,-67.5001 265.365,-64 255.365,-60.5001 255.365,-67.5001"/>
</g>
<!-- Node7 -->
<g id="node7" class="node"><title>Node7</title>
<g id="a_node7"><a xlink:href="../../de/d21/classmodel_1_1_main_model.html#ad7dab4717c031b1d8b2f88e671bb98cd" target="_top" xlink:title="model.MainModel.getUserDefined\lMethods">
<polygon fill="white" stroke="black" points="259.5,-0 259.5,-30 438.5,-30 438.5,-0 259.5,-0"/>
<text text-anchor="start" x="267.5" y="-18" font-family="Helvetica,sans-Serif" font-size="10.00">model.MainModel.getUserDefined</text>
<text text-anchor="middle" x="349" y="-7" font-family="Helvetica,sans-Serif" font-size="10.00">Methods</text>
</a>
</g>
</g>
<!-- Node1&#45;&gt;Node7 -->
<g id="edge6" class="edge"><title>Node1&#45;&gt;Node7</title>
<path fill="none" stroke="midnightblue" d="M184.412,-48.9654C210.123,-43.627 239.246,-37.5802 265.721,-32.0834"/>
<polygon fill="midnightblue" stroke="midnightblue" points="266.646,-35.4661 275.725,-30.0062 265.223,-28.6123 266.646,-35.4661"/>
</g>
<!-- Node3 -->
<g id="node3" class="node"><title>Node3</title>
<g id="a_node3"><a xlink:href="../../d0/d7c/classviewcontroller_1_1commands_1_1_command_window_container_view_controller.html#ae3ec4d2b2cfd7d931ed2da8328e13f31" target="_top" xlink:title="viewcontroller.commands.\lCommandWindowContainerViewController.move\lCommandTextToPromptWindow">
<polygon fill="white" stroke="black" points="476,-127.5 476,-168.5 722,-168.5 722,-127.5 476,-127.5"/>
<text text-anchor="start" x="484" y="-156.5" font-family="Helvetica,sans-Serif" font-size="10.00">viewcontroller.commands.</text>
<text text-anchor="start" x="484" y="-145.5" font-family="Helvetica,sans-Serif" font-size="10.00">CommandWindowContainerViewController.move</text>
<text text-anchor="middle" x="599" y="-134.5" font-family="Helvetica,sans-Serif" font-size="10.00">CommandTextToPromptWindow</text>
</a>
</g>
</g>
<!-- Node2&#45;&gt;Node3 -->
<g id="edge2" class="edge"><title>Node2&#45;&gt;Node3</title>
<path fill="none" stroke="midnightblue" d="M440.235,-128.916C448.597,-129.927 457.18,-130.965 465.817,-132.01"/>
<polygon fill="midnightblue" stroke="midnightblue" points="465.622,-135.512 475.97,-133.238 466.462,-128.563 465.622,-135.512"/>
</g>
<!-- Node5 -->
<g id="node5" class="node"><title>Node5</title>
<g id="a_node5"><a xlink:href="../../d4/d3f/classviewcontroller_1_1commands_1_1_command_list_window_view_controller.html#a606e37bfe6fc9ce9500c9a705e5f10ee" target="_top" xlink:title="viewcontroller.commands.\lCommandListWindowViewController.update\lScroller">
<polygon fill="white" stroke="black" points="487.5,-67.5 487.5,-108.5 710.5,-108.5 710.5,-67.5 487.5,-67.5"/>
<text text-anchor="start" x="495.5" y="-96.5" font-family="Helvetica,sans-Serif" font-size="10.00">viewcontroller.commands.</text>
<text text-anchor="start" x="495.5" y="-85.5" font-family="Helvetica,sans-Serif" font-size="10.00">CommandListWindowViewController.update</text>
<text text-anchor="middle" x="599" y="-74.5" font-family="Helvetica,sans-Serif" font-size="10.00">Scroller</text>
</a>
</g>
</g>
<!-- Node2&#45;&gt;Node5 -->
<g id="edge4" class="edge"><title>Node2&#45;&gt;Node5</title>
<path fill="none" stroke="midnightblue" d="M440.235,-107.084C452.256,-105.63 464.735,-104.121 477.172,-102.616"/>
<polygon fill="midnightblue" stroke="midnightblue" points="477.62,-106.088 487.127,-101.412 476.779,-99.1384 477.62,-106.088"/>
</g>
<!-- Node4 -->
<g id="node4" class="node"><title>Node4</title>
<g id="a_node4"><a xlink:href="../../de/d8d/classviewcontroller_1_1commands_1_1_command_prompt_view_controller.html#ac5b8ed43553efe6667328fe2d2d7130a" target="_top" xlink:title="viewcontroller.commands.\lCommandPromptViewController.set\lCommandPromptText">
<polygon fill="white" stroke="black" points="758,-127.5 758,-168.5 946,-168.5 946,-127.5 758,-127.5"/>
<text text-anchor="start" x="766" y="-156.5" font-family="Helvetica,sans-Serif" font-size="10.00">viewcontroller.commands.</text>
<text text-anchor="start" x="766" y="-145.5" font-family="Helvetica,sans-Serif" font-size="10.00">CommandPromptViewController.set</text>
<text text-anchor="middle" x="852" y="-134.5" font-family="Helvetica,sans-Serif" font-size="10.00">CommandPromptText</text>
</a>
</g>
</g>
<!-- Node3&#45;&gt;Node4 -->
<g id="edge3" class="edge"><title>Node3&#45;&gt;Node4</title>
<path fill="none" stroke="midnightblue" d="M722.191,-148C730.7,-148 739.23,-148 747.623,-148"/>
<polygon fill="midnightblue" stroke="midnightblue" points="747.782,-151.5 757.782,-148 747.782,-144.5 747.782,-151.5"/>
</g>
</g>
</svg>
