<?xml version="1.0" encoding="UTF-8" standalone="no"?>
<!DOCTYPE svg PUBLIC "-//W3C//DTD SVG 1.1//EN"
 "http://www.w3.org/Graphics/SVG/1.1/DTD/svg11.dtd">
<!-- Generated by graphviz version 2.36.0 (20140111.2315)
 -->
<!-- Title: interpreter.expression.math.Quotient Pages: 1 -->
<svg width="1970pt" height="766pt"
 viewBox="0.00 0.00 1970.00 766.00" xmlns="http://www.w3.org/2000/svg" xmlns:xlink="http://www.w3.org/1999/xlink">
<g id="graph0" class="graph" transform="scale(1 1) rotate(0) translate(4 762)">
<title>interpreter.expression.math.Quotient</title>
<polygon fill="white" stroke="none" points="-4,4 -4,-762 1966,-762 1966,4 -4,4"/>
<!-- Node1 -->
<g id="node1" class="node"><title>Node1</title>
<polygon fill="#bfbfbf" stroke="black" points="1808.5,-570 1808.5,-600 1961.5,-600 1961.5,-570 1808.5,-570"/>
<text text-anchor="start" x="1816.5" y="-588" font-family="Helvetica,sans-Serif" font-size="10.00">interpreter.expression.math.</text>
<text text-anchor="middle" x="1885" y="-577" font-family="Helvetica,sans-Serif" font-size="10.00">Quotient</text>
</g>
<!-- Node2 -->
<g id="node2" class="node"><title>Node2</title>
<g id="a_node2"><a xlink:href="../../da/da4/classinterpreter_1_1expression_1_1_math_expression.html" target="_top" xlink:title="interpreter.expression.Math\lExpression">
<polygon fill="white" stroke="black" points="1619.5,-570 1619.5,-600 1768.5,-600 1768.5,-570 1619.5,-570"/>
<text text-anchor="start" x="1627.5" y="-588" font-family="Helvetica,sans-Serif" font-size="10.00">interpreter.expression.Math</text>
<text text-anchor="middle" x="1694" y="-577" font-family="Helvetica,sans-Serif" font-size="10.00">Expression</text>
</a>
</g>
</g>
<!-- Node2&#45;&gt;Node1 -->
<g id="edge1" class="edge"><title>Node2&#45;&gt;Node1</title>
<path fill="none" stroke="midnightblue" d="M1778.81,-585C1788.66,-585 1798.67,-585 1808.41,-585"/>
<polygon fill="midnightblue" stroke="midnightblue" points="1778.61,-581.5 1768.61,-585 1778.61,-588.5 1778.61,-581.5"/>
</g>
<!-- Node3 -->
<g id="node3" class="node"><title>Node3</title>
<g id="a_node3"><a xlink:href="../../db/d09/interfaceinterpreter_1_1expression_1_1_s_logo_expression.html" target="_top" xlink:title="interpreter.expression.SLogo\lExpression">
<polygon fill="white" stroke="black" points="1378.5,-727 1378.5,-757 1533.5,-757 1533.5,-727 1378.5,-727"/>
<text text-anchor="start" x="1386.5" y="-745" font-family="Helvetica,sans-Serif" font-size="10.00">interpreter.expression.SLogo</text>
<text text-anchor="middle" x="1456" y="-734" font-family="Helvetica,sans-Serif" font-size="10.00">Expression</text>
</a>
</g>
</g>
<!-- Node3&#45;&gt;Node2 -->
<g id="edge2" class="edge"><title>Node3&#45;&gt;Node2</title>
<path fill="none" stroke="midnightblue" d="M1543.62,-734.332C1563.24,-729.822 1583.22,-722.82 1600,-712 1643.64,-683.86 1673.73,-627.533 1686.34,-600.36"/>
<polygon fill="midnightblue" stroke="midnightblue" points="1542.79,-730.93 1533.72,-736.411 1544.23,-737.781 1542.79,-730.93"/>
</g>
<!-- Node4 -->
<g id="node4" class="node"><title>Node4</title>
<polygon fill="white" stroke="#bfbfbf" points="378.5,-672 378.5,-702 545.5,-702 545.5,-672 378.5,-672"/>
<text text-anchor="start" x="386.5" y="-690" font-family="Helvetica,sans-Serif" font-size="10.00">Deque&lt; interpreter.expression.</text>
<text text-anchor="middle" x="462" y="-679" font-family="Helvetica,sans-Serif" font-size="10.00">SLogoExpression &gt;</text>
</g>
<!-- Node4&#45;&gt;Node2 -->
<g id="edge3" class="edge"><title>Node4&#45;&gt;Node2</title>
<path fill="none" stroke="#9a32cd" stroke-dasharray="5,2" d="M555.888,-691.555C625.536,-694.581 723.219,-698 809,-698 809,-698 809,-698 1457,-698 1546.72,-698 1638.47,-630.744 1675.72,-600.006"/>
<polygon fill="#9a32cd" stroke="#9a32cd" points="555.965,-688.055 545.82,-691.112 555.657,-695.048 555.965,-688.055"/>
<text text-anchor="middle" x="1152" y="-701" font-family="Helvetica,sans-Serif" font-size="10.00"> myArguments</text>
</g>
<!-- Node27 -->
<g id="node27" class="node"><title>Node27</title>
<g id="a_node27"><a xlink:href="../../d3/da2/classinterpreter_1_1_parser.html" target="_top" xlink:title="interpreter.Parser">
<polygon fill="white" stroke="black" points="760,-642.5 760,-661.5 860,-661.5 860,-642.5 760,-642.5"/>
<text text-anchor="middle" x="810" y="-649.5" font-family="Helvetica,sans-Serif" font-size="10.00">interpreter.Parser</text>
</a>
</g>
</g>
<!-- Node4&#45;&gt;Node27 -->
<g id="edge31" class="edge"><title>Node4&#45;&gt;Node27</title>
<path fill="none" stroke="#9a32cd" stroke-dasharray="5,2" d="M525.102,-669.542C537.874,-666.542 551.3,-663.812 564,-662 631.429,-652.379 710.275,-650.878 759.927,-651.105"/>
<polygon fill="#9a32cd" stroke="#9a32cd" points="523.915,-666.229 515.026,-671.994 525.57,-673.031 523.915,-666.229"/>
<text text-anchor="middle" x="636" y="-676" font-family="Helvetica,sans-Serif" font-size="10.00"> myLoadedExpressions</text>
<text text-anchor="middle" x="636" y="-665" font-family="Helvetica,sans-Serif" font-size="10.00">myParameterStack</text>
</g>
<!-- Node5 -->
<g id="node5" class="node"><title>Node5</title>
<g id="a_node5"><a xlink:href="../../de/d21/classmodel_1_1_main_model.html" target="_top" xlink:title="model.MainModel">
<polygon fill="white" stroke="black" points="1405.5,-434.5 1405.5,-453.5 1506.5,-453.5 1506.5,-434.5 1405.5,-434.5"/>
<text text-anchor="middle" x="1456" y="-441.5" font-family="Helvetica,sans-Serif" font-size="10.00">model.MainModel</text>
</a>
</g>
</g>
<!-- Node5&#45;&gt;Node2 -->
<g id="edge4" class="edge"><title>Node5&#45;&gt;Node2</title>
<path fill="none" stroke="#9a32cd" stroke-dasharray="5,2" d="M1481.81,-458.824C1526.98,-485.808 1622.14,-542.667 1667.68,-569.873"/>
<polygon fill="#9a32cd" stroke="#9a32cd" points="1483.6,-455.816 1473.22,-453.692 1480.01,-461.825 1483.6,-455.816"/>
<text text-anchor="middle" x="1576" y="-531" font-family="Helvetica,sans-Serif" font-size="10.00"> myModel</text>
</g>
<!-- Node23 -->
<g id="node23" class="node"><title>Node23</title>
<g id="a_node23"><a xlink:href="../../d2/dc7/classinterpreter_1_1_interpreter.html" target="_top" xlink:title="interpreter.Interpreter">
<polygon fill="white" stroke="black" points="1091.5,-586.5 1091.5,-605.5 1212.5,-605.5 1212.5,-586.5 1091.5,-586.5"/>
<text text-anchor="middle" x="1152" y="-593.5" font-family="Helvetica,sans-Serif" font-size="10.00">interpreter.Interpreter</text>
</a>
</g>
</g>
<!-- Node5&#45;&gt;Node23 -->
<g id="edge26" class="edge"><title>Node5&#45;&gt;Node23</title>
<path fill="none" stroke="#9a32cd" stroke-dasharray="5,2" d="M1449.54,-463.659C1438.85,-497.866 1411.58,-567.414 1360,-596 1305.62,-626.139 1230.21,-615.543 1187.02,-605.504"/>
<polygon fill="#9a32cd" stroke="#9a32cd" points="1452.95,-464.473 1452.44,-453.891 1446.24,-462.482 1452.95,-464.473"/>
<text text-anchor="middle" x="1301" y="-619" font-family="Helvetica,sans-Serif" font-size="10.00"> myModel</text>
</g>
<!-- Node28 -->
<g id="node28" class="node"><title>Node28</title>
<g id="a_node28"><a xlink:href="../../d8/daa/classinterpreter_1_1_s_logo_expression_factory.html" target="_top" xlink:title="interpreter.SLogoExpression\lFactory">
<polygon fill="white" stroke="black" points="1618,-227 1618,-257 1770,-257 1770,-227 1618,-227"/>
<text text-anchor="start" x="1626" y="-245" font-family="Helvetica,sans-Serif" font-size="10.00">interpreter.SLogoExpression</text>
<text text-anchor="middle" x="1694" y="-234" font-family="Helvetica,sans-Serif" font-size="10.00">Factory</text>
</a>
</g>
</g>
<!-- Node5&#45;&gt;Node28 -->
<g id="edge33" class="edge"><title>Node5&#45;&gt;Node28</title>
<path fill="none" stroke="#9a32cd" stroke-dasharray="5,2" d="M1476.19,-427.577C1521,-389.219 1632.03,-294.186 1675.32,-257.134"/>
<polygon fill="#9a32cd" stroke="#9a32cd" points="1473.7,-425.095 1468.38,-434.257 1478.26,-430.413 1473.7,-425.095"/>
<text text-anchor="middle" x="1576" y="-365" font-family="Helvetica,sans-Serif" font-size="10.00"> myModel</text>
</g>
<!-- Node6 -->
<g id="node6" class="node"><title>Node6</title>
<g id="a_node6"><a xlink:href="../../da/dee/classmodel_1_1_user_defined_commands_model.html" target="_top" xlink:title="model.UserDefinedCommands\lModel">
<polygon fill="white" stroke="black" points="380,-526 380,-556 544,-556 544,-526 380,-526"/>
<text text-anchor="start" x="388" y="-544" font-family="Helvetica,sans-Serif" font-size="10.00">model.UserDefinedCommands</text>
<text text-anchor="middle" x="462" y="-533" font-family="Helvetica,sans-Serif" font-size="10.00">Model</text>
</a>
</g>
</g>
<!-- Node6&#45;&gt;Node5 -->
<g id="edge5" class="edge"><title>Node6&#45;&gt;Node5</title>
<path fill="none" stroke="#9a32cd" stroke-dasharray="5,2" d="M554.115,-543.831C557.452,-543.895 560.755,-543.952 564,-544 627.993,-544.95 644.02,-545.611 708,-544 998.103,-536.696 1085.75,-603.877 1360,-509 1394.75,-496.978 1428.62,-468.659 1444.93,-453.68"/>
<polygon fill="#9a32cd" stroke="#9a32cd" points="554.103,-540.33 544.032,-543.619 553.956,-547.328 554.103,-540.33"/>
<text text-anchor="middle" x="987" y="-564" font-family="Helvetica,sans-Serif" font-size="10.00"> myUserDefinedMethodsModel</text>
</g>
<!-- Node31 -->
<g id="node31" class="node"><title>Node31</title>
<g id="a_node31"><a xlink:href="../../d5/d09/classinterpreter_1_1_command_reference_library.html" target="_top" xlink:title="interpreter.CommandReference\lLibrary">
<polygon fill="white" stroke="black" points="726.5,-303 726.5,-333 893.5,-333 893.5,-303 726.5,-303"/>
<text text-anchor="start" x="734.5" y="-321" font-family="Helvetica,sans-Serif" font-size="10.00">interpreter.CommandReference</text>
<text text-anchor="middle" x="810" y="-310" font-family="Helvetica,sans-Serif" font-size="10.00">Library</text>
</a>
</g>
</g>
<!-- Node6&#45;&gt;Node31 -->
<g id="edge37" class="edge"><title>Node6&#45;&gt;Node31</title>
<path fill="none" stroke="#9a32cd" stroke-dasharray="5,2" d="M554.51,-533.58C614.527,-526.861 685.848,-514.744 708,-494 731.134,-472.337 712.002,-453.434 726,-425 743.86,-388.721 775.188,-352.89 793.824,-333.282"/>
<polygon fill="#9a32cd" stroke="#9a32cd" points="553.784,-530.138 544.219,-534.692 554.537,-537.097 553.784,-530.138"/>
<text text-anchor="middle" x="636" y="-535" font-family="Helvetica,sans-Serif" font-size="10.00"> myDefinedCommands</text>
</g>
<!-- Node7 -->
<g id="node7" class="node"><title>Node7</title>
<polygon fill="white" stroke="#bfbfbf" points="60.5,-386.5 60.5,-405.5 131.5,-405.5 131.5,-386.5 60.5,-386.5"/>
<text text-anchor="middle" x="96" y="-393.5" font-family="Helvetica,sans-Serif" font-size="10.00">Serializable</text>
</g>
<!-- Node7&#45;&gt;Node6 -->
<g id="edge6" class="edge"><title>Node7&#45;&gt;Node6</title>
<path fill="none" stroke="midnightblue" d="M141.936,-401.355C214.929,-410.236 351.983,-427.755 360,-435 384.152,-456.827 356.78,-481.313 378,-506 385.34,-514.539 395.116,-521.043 405.378,-525.982"/>
<polygon fill="midnightblue" stroke="midnightblue" points="142.003,-397.837 131.654,-400.109 141.161,-404.786 142.003,-397.837"/>
</g>
<!-- Node13 -->
<g id="node13" class="node"><title>Node13</title>
<g id="a_node13"><a xlink:href="../../db/d84/classmodel_1_1_command_history_model.html" target="_top" xlink:title="model.CommandHistoryModel">
<polygon fill="white" stroke="black" points="381,-55.5 381,-74.5 543,-74.5 543,-55.5 381,-55.5"/>
<text text-anchor="middle" x="462" y="-62.5" font-family="Helvetica,sans-Serif" font-size="10.00">model.CommandHistoryModel</text>
</a>
</g>
</g>
<!-- Node7&#45;&gt;Node13 -->
<g id="edge13" class="edge"><title>Node7&#45;&gt;Node13</title>
<path fill="none" stroke="midnightblue" d="M141.579,-392.41C212.705,-386.243 345.379,-372.767 360,-357 397.874,-316.159 347.145,-153.372 378,-107 388.556,-91.1346 407.016,-80.9717 423.849,-74.625"/>
<polygon fill="midnightblue" stroke="midnightblue" points="141.219,-388.928 131.553,-393.267 141.815,-395.903 141.219,-388.928"/>
</g>
<!-- Node16 -->
<g id="node16" class="node"><title>Node16</title>
<g id="a_node16"><a xlink:href="../../df/d55/classmodel_1_1_user_defined_variables_model.html" target="_top" xlink:title="model.UserDefinedVariables\lModel">
<polygon fill="white" stroke="black" points="386,-381 386,-411 538,-411 538,-381 386,-381"/>
<text text-anchor="start" x="394" y="-399" font-family="Helvetica,sans-Serif" font-size="10.00">model.UserDefinedVariables</text>
<text text-anchor="middle" x="462" y="-388" font-family="Helvetica,sans-Serif" font-size="10.00">Model</text>
</a>
</g>
</g>
<!-- Node7&#45;&gt;Node16 -->
<g id="edge17" class="edge"><title>Node7&#45;&gt;Node16</title>
<path fill="none" stroke="midnightblue" d="M141.617,-396C202.419,-396 312.142,-396 385.782,-396"/>
<polygon fill="midnightblue" stroke="midnightblue" points="141.572,-392.5 131.572,-396 141.572,-399.5 141.572,-392.5"/>
</g>
<!-- Node8 -->
<g id="node8" class="node"><title>Node8</title>
<polygon fill="white" stroke="#bfbfbf" points="42.5,-573 42.5,-603 149.5,-603 149.5,-573 42.5,-573"/>
<text text-anchor="start" x="50.5" y="-591" font-family="Helvetica,sans-Serif" font-size="10.00">Map&lt; String, List&lt;</text>
<text text-anchor="middle" x="96" y="-580" font-family="Helvetica,sans-Serif" font-size="10.00"> String &gt; &gt;</text>
</g>
<!-- Node8&#45;&gt;Node6 -->
<g id="edge7" class="edge"><title>Node8&#45;&gt;Node6</title>
<path fill="none" stroke="#9a32cd" stroke-dasharray="5,2" d="M159.681,-580.844C213.003,-574.644 291.591,-565.24 360,-556 366.5,-555.122 373.231,-554.185 379.99,-553.223"/>
<polygon fill="#9a32cd" stroke="#9a32cd" points="159.226,-577.373 149.696,-582.002 160.032,-584.327 159.226,-577.373"/>
<text text-anchor="middle" x="285" y="-578" font-family="Helvetica,sans-Serif" font-size="10.00"> myDefinedCommandVariables</text>
</g>
<!-- Node9 -->
<g id="node9" class="node"><title>Node9</title>
<polygon fill="white" stroke="#bfbfbf" points="54,-470.5 54,-489.5 138,-489.5 138,-470.5 54,-470.5"/>
<text text-anchor="middle" x="96" y="-477.5" font-family="Helvetica,sans-Serif" font-size="10.00">Set&lt; String &gt;</text>
</g>
<!-- Node9&#45;&gt;Node6 -->
<g id="edge8" class="edge"><title>Node9&#45;&gt;Node6</title>
<path fill="none" stroke="#9a32cd" stroke-dasharray="5,2" d="M148.06,-488.557C208.169,-498.63 308.77,-515.489 379.655,-527.368"/>
<polygon fill="#9a32cd" stroke="#9a32cd" points="148.489,-485.08 138.048,-486.879 147.332,-491.984 148.489,-485.08"/>
<text text-anchor="middle" x="285" y="-526" font-family="Helvetica,sans-Serif" font-size="10.00"> myCommands</text>
</g>
<!-- Node9&#45;&gt;Node16 -->
<g id="edge18" class="edge"><title>Node9&#45;&gt;Node16</title>
<path fill="none" stroke="#9a32cd" stroke-dasharray="5,2" d="M148.04,-468.222C212.904,-453.253 324.946,-427.397 395.897,-411.024"/>
<polygon fill="#9a32cd" stroke="#9a32cd" points="147.005,-464.868 138.048,-470.527 148.579,-471.689 147.005,-464.868"/>
<text text-anchor="middle" x="285" y="-456" font-family="Helvetica,sans-Serif" font-size="10.00"> myVariables</text>
</g>
<!-- Node9&#45;&gt;Node31 -->
<g id="edge40" class="edge"><title>Node9&#45;&gt;Node31</title>
<path fill="none" stroke="#9a32cd" stroke-dasharray="5,2" d="M148.364,-483.68C257.227,-489.351 516.833,-491.489 708,-402 743.94,-385.176 777.684,-352.416 795.613,-333.155"/>
<polygon fill="#9a32cd" stroke="#9a32cd" points="148.485,-480.181 138.307,-483.123 148.098,-487.171 148.485,-480.181"/>
<text text-anchor="middle" x="462" y="-494" font-family="Helvetica,sans-Serif" font-size="10.00"> myCommandSet</text>
<text text-anchor="middle" x="462" y="-483" font-family="Helvetica,sans-Serif" font-size="10.00">myDirectorySet</text>
</g>
<!-- Node10 -->
<g id="node10" class="node"><title>Node10</title>
<polygon fill="white" stroke="#bfbfbf" points="0.5,-524 0.5,-554 191.5,-554 191.5,-524 0.5,-524"/>
<text text-anchor="start" x="8.5" y="-542" font-family="Helvetica,sans-Serif" font-size="10.00">Map&lt; String, interpreter.expression.</text>
<text text-anchor="middle" x="96" y="-531" font-family="Helvetica,sans-Serif" font-size="10.00">SLogoExpression &gt;</text>
</g>
<!-- Node10&#45;&gt;Node6 -->
<g id="edge9" class="edge"><title>Node10&#45;&gt;Node6</title>
<path fill="none" stroke="#9a32cd" stroke-dasharray="5,2" d="M201.746,-539.576C258.364,-539.887 327.23,-540.265 379.752,-540.554"/>
<polygon fill="#9a32cd" stroke="#9a32cd" points="201.706,-536.075 191.686,-539.52 201.667,-543.075 201.706,-536.075"/>
<text text-anchor="middle" x="285" y="-544" font-family="Helvetica,sans-Serif" font-size="10.00"> myDefinedCommands</text>
</g>
<!-- Node11 -->
<g id="node11" class="node"><title>Node11</title>
<g id="a_node11"><a xlink:href="../../d4/d57/classturtle_1_1_turtle_list_history.html" target="_top" xlink:title="turtle.TurtleListHistory">
<polygon fill="white" stroke="black" points="1091.5,-434.5 1091.5,-453.5 1212.5,-453.5 1212.5,-434.5 1091.5,-434.5"/>
<text text-anchor="middle" x="1152" y="-441.5" font-family="Helvetica,sans-Serif" font-size="10.00">turtle.TurtleListHistory</text>
</a>
</g>
</g>
<!-- Node11&#45;&gt;Node5 -->
<g id="edge10" class="edge"><title>Node11&#45;&gt;Node5</title>
<path fill="none" stroke="#9a32cd" stroke-dasharray="5,2" d="M1222.85,-444C1278.74,-444 1355.74,-444 1405.45,-444"/>
<polygon fill="#9a32cd" stroke="#9a32cd" points="1222.67,-440.5 1212.67,-444 1222.67,-447.5 1222.67,-440.5"/>
<text text-anchor="middle" x="1301" y="-447" font-family="Helvetica,sans-Serif" font-size="10.00"> myTurtleListHistory</text>
</g>
<!-- Node12 -->
<g id="node12" class="node"><title>Node12</title>
<polygon fill="white" stroke="#bfbfbf" points="735.5,-434.5 735.5,-453.5 884.5,-453.5 884.5,-434.5 735.5,-434.5"/>
<text text-anchor="middle" x="810" y="-441.5" font-family="Helvetica,sans-Serif" font-size="10.00">List&lt; Set&lt; turtle.Turtle &gt; &gt;</text>
</g>
<!-- Node12&#45;&gt;Node11 -->
<g id="edge11" class="edge"><title>Node12&#45;&gt;Node11</title>
<path fill="none" stroke="#9a32cd" stroke-dasharray="5,2" d="M895.134,-444C956.03,-444 1036.86,-444 1091.23,-444"/>
<polygon fill="#9a32cd" stroke="#9a32cd" points="894.775,-440.5 884.775,-444 894.775,-447.5 894.775,-440.5"/>
<text text-anchor="middle" x="987" y="-447" font-family="Helvetica,sans-Serif" font-size="10.00"> myMovedTurtlesHistory</text>
</g>
<!-- Node13&#45;&gt;Node5 -->
<g id="edge12" class="edge"><title>Node13&#45;&gt;Node5</title>
<path fill="none" stroke="#9a32cd" stroke-dasharray="5,2" d="M553.326,-57.574C727.423,-44.4741 1102.94,-22.4487 1224,-65 1296.04,-90.3216 1315.41,-108.007 1360,-170 1424.53,-259.716 1448.24,-397.02 1453.69,-434.35"/>
<polygon fill="#9a32cd" stroke="#9a32cd" points="552.871,-54.0984 543.165,-58.3457 553.401,-61.0783 552.871,-54.0984"/>
<text text-anchor="middle" x="987" y="-46" font-family="Helvetica,sans-Serif" font-size="10.00"> myCommandHistoryModel</text>
</g>
<!-- Node14 -->
<g id="node14" class="node"><title>Node14</title>
<polygon fill="white" stroke="#bfbfbf" points="54,-55.5 54,-74.5 138,-74.5 138,-55.5 54,-55.5"/>
<text text-anchor="middle" x="96" y="-62.5" font-family="Helvetica,sans-Serif" font-size="10.00">List&lt; String &gt;</text>
</g>
<!-- Node14&#45;&gt;Node13 -->
<g id="edge14" class="edge"><title>Node14&#45;&gt;Node13</title>
<path fill="none" stroke="#9a32cd" stroke-dasharray="5,2" d="M148.11,-65C208.528,-65 309.807,-65 380.727,-65"/>
<polygon fill="#9a32cd" stroke="#9a32cd" points="148.048,-61.5001 138.048,-65 148.048,-68.5001 148.048,-61.5001"/>
<text text-anchor="middle" x="285" y="-68" font-family="Helvetica,sans-Serif" font-size="10.00"> commandHistory</text>
</g>
<!-- Node15 -->
<g id="node15" class="node"><title>Node15</title>
<polygon fill="white" stroke="#bfbfbf" points="1104.5,-472.5 1104.5,-491.5 1199.5,-491.5 1199.5,-472.5 1104.5,-472.5"/>
<text text-anchor="middle" x="1152" y="-479.5" font-family="Helvetica,sans-Serif" font-size="10.00">ParallelTransition</text>
</g>
<!-- Node15&#45;&gt;Node5 -->
<g id="edge15" class="edge"><title>Node15&#45;&gt;Node5</title>
<path fill="none" stroke="#9a32cd" stroke-dasharray="5,2" d="M1209.48,-476.431C1251.15,-472.152 1309.18,-465.832 1360,-459 1374.73,-457.02 1390.7,-454.604 1405.27,-452.294"/>
<polygon fill="#9a32cd" stroke="#9a32cd" points="1209.12,-472.951 1199.52,-477.448 1209.83,-479.914 1209.12,-472.951"/>
<text text-anchor="middle" x="1301" y="-476" font-family="Helvetica,sans-Serif" font-size="10.00"> myAnimation</text>
</g>
<!-- Node16&#45;&gt;Node5 -->
<g id="edge16" class="edge"><title>Node16&#45;&gt;Node5</title>
<path fill="none" stroke="#9a32cd" stroke-dasharray="5,2" d="M523.342,-413.987C576.304,-429.143 655.644,-450.329 726,-463 944.462,-502.345 1002.28,-511.573 1224,-501 1284.65,-498.108 1301.39,-503.875 1360,-488 1389.12,-480.112 1420.42,-463.953 1438.83,-453.566"/>
<polygon fill="#9a32cd" stroke="#9a32cd" points="524.018,-410.539 513.44,-411.135 522.081,-417.266 524.018,-410.539"/>
<text text-anchor="middle" x="987" y="-508" font-family="Helvetica,sans-Serif" font-size="10.00"> myUserDefinedVariablesModel</text>
</g>
<!-- Node16&#45;&gt;Node31 -->
<g id="edge41" class="edge"><title>Node16&#45;&gt;Node31</title>
<path fill="none" stroke="#9a32cd" stroke-dasharray="5,2" d="M547.991,-389.354C595.656,-384.266 655.841,-375.559 708,-361 732.781,-354.083 759.513,-342.503 779.247,-333.102"/>
<polygon fill="#9a32cd" stroke="#9a32cd" points="547.604,-385.875 538.017,-390.386 548.324,-392.838 547.604,-385.875"/>
<text text-anchor="middle" x="636" y="-390" font-family="Helvetica,sans-Serif" font-size="10.00"> myDefinedVariables</text>
</g>
<!-- Node17 -->
<g id="node17" class="node"><title>Node17</title>
<polygon fill="white" stroke="#bfbfbf" points="32,-335.5 32,-354.5 160,-354.5 160,-335.5 32,-335.5"/>
<text text-anchor="middle" x="96" y="-342.5" font-family="Helvetica,sans-Serif" font-size="10.00">Map&lt; String, Double &gt;</text>
</g>
<!-- Node17&#45;&gt;Node16 -->
<g id="edge19" class="edge"><title>Node17&#45;&gt;Node16</title>
<path fill="none" stroke="#9a32cd" stroke-dasharray="5,2" d="M170.213,-354.794C222.994,-361.91 295.923,-371.857 360,-381 368.336,-382.189 377.056,-383.454 385.73,-384.725"/>
<polygon fill="#9a32cd" stroke="#9a32cd" points="170.644,-351.32 160.266,-353.454 169.71,-358.258 170.644,-351.32"/>
<text text-anchor="middle" x="285" y="-384" font-family="Helvetica,sans-Serif" font-size="10.00"> myDefinedVariables</text>
</g>
<!-- Node18 -->
<g id="node18" class="node"><title>Node18</title>
<polygon fill="white" stroke="#bfbfbf" points="1085,-385 1085,-415 1219,-415 1219,-385 1085,-385"/>
<text text-anchor="start" x="1093" y="-403" font-family="Helvetica,sans-Serif" font-size="10.00">List&lt; viewcontroller.Main</text>
<text text-anchor="middle" x="1152" y="-392" font-family="Helvetica,sans-Serif" font-size="10.00">ModelObserver &gt;</text>
</g>
<!-- Node18&#45;&gt;Node5 -->
<g id="edge20" class="edge"><title>Node18&#45;&gt;Node5</title>
<path fill="none" stroke="#9a32cd" stroke-dasharray="5,2" d="M1229.48,-410.39C1268.55,-415.781 1316.84,-422.57 1360,-429 1374.7,-431.19 1390.66,-433.67 1405.23,-435.974"/>
<polygon fill="#9a32cd" stroke="#9a32cd" points="1229.62,-406.877 1219.23,-408.98 1228.66,-413.811 1229.62,-406.877"/>
<text text-anchor="middle" x="1301" y="-432" font-family="Helvetica,sans-Serif" font-size="10.00"> myObservers</text>
</g>
<!-- Node19 -->
<g id="node19" class="node"><title>Node19</title>
<polygon fill="white" stroke="#bfbfbf" points="1097,-346.5 1097,-365.5 1207,-365.5 1207,-346.5 1097,-346.5"/>
<text text-anchor="middle" x="1152" y="-353.5" font-family="Helvetica,sans-Serif" font-size="10.00">List&lt; turtle.Turtle &gt;</text>
</g>
<!-- Node19&#45;&gt;Node5 -->
<g id="edge21" class="edge"><title>Node19&#45;&gt;Node5</title>
<path fill="none" stroke="#9a32cd" stroke-dasharray="5,2" d="M1217.12,-364.754C1258.57,-371.446 1313.3,-382.235 1360,-398 1388.65,-407.671 1419.83,-423.985 1438.38,-434.361"/>
<polygon fill="#9a32cd" stroke="#9a32cd" points="1217.57,-361.282 1207.15,-363.182 1216.48,-368.197 1217.57,-361.282"/>
<text text-anchor="middle" x="1301" y="-401" font-family="Helvetica,sans-Serif" font-size="10.00"> myTurtles</text>
</g>
<!-- Node20 -->
<g id="node20" class="node"><title>Node20</title>
<g id="a_node20"><a xlink:href="../../df/df6/classinterpreter_1_1result_1_1_s_logo_result.html" target="_top" xlink:title="interpreter.result.SLogo\lResult">
<polygon fill="white" stroke="black" points="745,-141 745,-171 875,-171 875,-141 745,-141"/>
<text text-anchor="start" x="753" y="-159" font-family="Helvetica,sans-Serif" font-size="10.00">interpreter.result.SLogo</text>
<text text-anchor="middle" x="810" y="-148" font-family="Helvetica,sans-Serif" font-size="10.00">Result</text>
</a>
</g>
</g>
<!-- Node20&#45;&gt;Node5 -->
<g id="edge22" class="edge"><title>Node20&#45;&gt;Node5</title>
<path fill="none" stroke="#9a32cd" stroke-dasharray="5,2" d="M885.158,-151.49C968.444,-148.043 1107.24,-147.169 1224,-170 1287.2,-182.358 1313.36,-175.587 1360,-220 1426.38,-283.216 1448.48,-400.21 1453.68,-434.389"/>
<polygon fill="#9a32cd" stroke="#9a32cd" points="884.869,-147.999 875.032,-151.933 885.176,-154.993 884.869,-147.999"/>
<text text-anchor="middle" x="1152" y="-173" font-family="Helvetica,sans-Serif" font-size="10.00"> mySLogoResult</text>
</g>
<!-- Node21 -->
<g id="node21" class="node"><title>Node21</title>
<polygon fill="white" stroke="#bfbfbf" points="415.5,-288.5 415.5,-307.5 508.5,-307.5 508.5,-288.5 415.5,-288.5"/>
<text text-anchor="middle" x="462" y="-295.5" font-family="Helvetica,sans-Serif" font-size="10.00">ResourceBundle</text>
</g>
<!-- Node21&#45;&gt;Node20 -->
<g id="edge23" class="edge"><title>Node21&#45;&gt;Node20</title>
<path fill="none" stroke="#9a32cd" stroke-dasharray="5,2" d="M518.648,-292.94C580.476,-286.619 675.842,-274.582 708,-258 748.534,-237.099 782.728,-193.958 798.934,-171.053"/>
<polygon fill="#9a32cd" stroke="#9a32cd" points="518.252,-289.463 508.651,-293.943 518.95,-296.428 518.252,-289.463"/>
<text text-anchor="middle" x="636" y="-291" font-family="Helvetica,sans-Serif" font-size="10.00"> myProperties</text>
</g>
<!-- Node21&#45;&gt;Node31 -->
<g id="edge38" class="edge"><title>Node21&#45;&gt;Node31</title>
<path fill="none" stroke="#9a32cd" stroke-dasharray="5,2" d="M518.703,-301.22C574.881,-304.467 662.251,-309.517 726.473,-313.23"/>
<polygon fill="#9a32cd" stroke="#9a32cd" points="518.775,-297.718 508.589,-300.635 518.371,-304.707 518.775,-297.718"/>
<text text-anchor="middle" x="636" y="-349" font-family="Helvetica,sans-Serif" font-size="10.00"> myCommandReference</text>
<text text-anchor="middle" x="636" y="-338" font-family="Helvetica,sans-Serif" font-size="10.00">myDirectoryListing</text>
<text text-anchor="middle" x="636" y="-327" font-family="Helvetica,sans-Serif" font-size="10.00">myNumberArguments</text>
<text text-anchor="middle" x="636" y="-316" font-family="Helvetica,sans-Serif" font-size="10.00">mySyntaxReference</text>
</g>
<!-- Node22 -->
<g id="node22" class="node"><title>Node22</title>
<polygon fill="white" stroke="#bfbfbf" points="381,-0 381,-30 543,-30 543,-0 381,-0"/>
<text text-anchor="start" x="389" y="-18" font-family="Helvetica,sans-Serif" font-size="10.00">List&lt; transitionstate.Transition</text>
<text text-anchor="middle" x="462" y="-7" font-family="Helvetica,sans-Serif" font-size="10.00">State &gt;</text>
</g>
<!-- Node22&#45;&gt;Node20 -->
<g id="edge24" class="edge"><title>Node22&#45;&gt;Node20</title>
<path fill="none" stroke="#9a32cd" stroke-dasharray="5,2" d="M518.451,-33.3184C568.582,-50.3614 644.099,-77.2402 708,-105 733.223,-115.958 761.065,-130.183 781.118,-140.825"/>
<polygon fill="#9a32cd" stroke="#9a32cd" points="519.368,-29.934 508.774,-30.0436 517.124,-36.5646 519.368,-29.934"/>
<text text-anchor="middle" x="636" y="-108" font-family="Helvetica,sans-Serif" font-size="10.00"> myTransitionStates</text>
</g>
<!-- Node23&#45;&gt;Node5 -->
<g id="edge25" class="edge"><title>Node23&#45;&gt;Node5</title>
<path fill="none" stroke="#9a32cd" stroke-dasharray="5,2" d="M1222.8,-587.042C1278.15,-579.523 1348.12,-568.929 1360,-562 1406.12,-535.108 1438.83,-476.667 1450.4,-453.621"/>
<polygon fill="#9a32cd" stroke="#9a32cd" points="1222.1,-583.605 1212.66,-588.408 1223.04,-590.542 1222.1,-583.605"/>
<text text-anchor="middle" x="1301" y="-588" font-family="Helvetica,sans-Serif" font-size="10.00"> myInterpreter</text>
</g>
<!-- Node24 -->
<g id="node24" class="node"><title>Node24</title>
<g id="a_node24"><a xlink:href="../../da/de4/classinterpreter_1_1_expression_evaluator.html" target="_top" xlink:title="interpreter.ExpressionEvaluator">
<polygon fill="white" stroke="black" points="726.5,-595.5 726.5,-614.5 893.5,-614.5 893.5,-595.5 726.5,-595.5"/>
<text text-anchor="middle" x="810" y="-602.5" font-family="Helvetica,sans-Serif" font-size="10.00">interpreter.ExpressionEvaluator</text>
</a>
</g>
</g>
<!-- Node24&#45;&gt;Node23 -->
<g id="edge27" class="edge"><title>Node24&#45;&gt;Node23</title>
<path fill="none" stroke="#9a32cd" stroke-dasharray="5,2" d="M892.459,-594.482C899.062,-593.886 905.638,-593.377 912,-593 978.55,-589.06 995.343,-591.877 1062,-593 1071.43,-593.159 1081.42,-593.412 1091.16,-593.706"/>
<polygon fill="#9a32cd" stroke="#9a32cd" points="891.704,-591.039 882.087,-595.485 892.378,-598.006 891.704,-591.039"/>
<text text-anchor="middle" x="987" y="-596" font-family="Helvetica,sans-Serif" font-size="10.00"> myEvaluator</text>
</g>
<!-- Node25 -->
<g id="node25" class="node"><title>Node25</title>
<g id="a_node25"><a xlink:href="../../d6/d76/classinterpreter_1_1_s_logo_result_merger.html" target="_top" xlink:title="interpreter.SLogoResultMerger">
<polygon fill="white" stroke="black" points="381,-615.5 381,-634.5 543,-634.5 543,-615.5 381,-615.5"/>
<text text-anchor="middle" x="462" y="-622.5" font-family="Helvetica,sans-Serif" font-size="10.00">interpreter.SLogoResultMerger</text>
</a>
</g>
</g>
<!-- Node25&#45;&gt;Node24 -->
<g id="edge28" class="edge"><title>Node25&#45;&gt;Node24</title>
<path fill="none" stroke="#9a32cd" stroke-dasharray="5,2" d="M553.427,-619.773C606.995,-616.677 674.362,-612.783 726.482,-609.77"/>
<polygon fill="#9a32cd" stroke="#9a32cd" points="553.03,-616.29 543.249,-620.361 553.434,-623.278 553.03,-616.29"/>
<text text-anchor="middle" x="636" y="-623" font-family="Helvetica,sans-Serif" font-size="10.00"> myResultMerger</text>
</g>
<!-- Node26 -->
<g id="node26" class="node"><title>Node26</title>
<polygon fill="white" stroke="#bfbfbf" points="24.5,-622 24.5,-652 167.5,-652 167.5,-622 24.5,-622"/>
<text text-anchor="start" x="32.5" y="-640" font-family="Helvetica,sans-Serif" font-size="10.00">Deque&lt; interpreter.result.</text>
<text text-anchor="middle" x="96" y="-629" font-family="Helvetica,sans-Serif" font-size="10.00">SLogoResult &gt;</text>
</g>
<!-- Node26&#45;&gt;Node25 -->
<g id="edge29" class="edge"><title>Node26&#45;&gt;Node25</title>
<path fill="none" stroke="#9a32cd" stroke-dasharray="5,2" d="M177.873,-634.334C238.292,-632.342 320.494,-629.632 380.76,-627.645"/>
<polygon fill="#9a32cd" stroke="#9a32cd" points="177.494,-630.844 167.614,-634.672 177.724,-637.841 177.494,-630.844"/>
<text text-anchor="middle" x="285" y="-637" font-family="Helvetica,sans-Serif" font-size="10.00"> myResultsToMerge</text>
</g>
<!-- Node27&#45;&gt;Node23 -->
<g id="edge30" class="edge"><title>Node27&#45;&gt;Node23</title>
<path fill="none" stroke="#9a32cd" stroke-dasharray="5,2" d="M855.345,-639.867C872.892,-635.37 893.301,-630.515 912,-627 972.653,-615.598 1042.75,-607.044 1091.28,-601.841"/>
<polygon fill="#9a32cd" stroke="#9a32cd" points="854.175,-636.554 845.379,-642.46 855.938,-643.329 854.175,-636.554"/>
<text text-anchor="middle" x="987" y="-630" font-family="Helvetica,sans-Serif" font-size="10.00"> myParser</text>
</g>
<!-- Node28&#45;&gt;Node27 -->
<g id="edge32" class="edge"><title>Node28&#45;&gt;Node27</title>
<path fill="none" stroke="#9a32cd" stroke-dasharray="5,2" d="M1692.44,-267.407C1689.8,-324.422 1675.53,-463.751 1600,-543 1521.73,-625.134 1471.33,-608.137 1360,-630 1178.41,-665.659 956.764,-659.907 860.054,-655.029"/>
<polygon fill="#9a32cd" stroke="#9a32cd" points="1695.94,-267.268 1692.82,-257.144 1688.95,-267.005 1695.94,-267.268"/>
<text text-anchor="middle" x="1301" y="-650" font-family="Helvetica,sans-Serif" font-size="10.00"> myFactory</text>
</g>
<!-- Node29 -->
<g id="node29" class="node"><title>Node29</title>
<polygon fill="white" stroke="#bfbfbf" points="398,-217.5 398,-236.5 526,-236.5 526,-217.5 398,-217.5"/>
<text text-anchor="middle" x="462" y="-224.5" font-family="Helvetica,sans-Serif" font-size="10.00">Map&lt; String, Integer &gt;</text>
</g>
<!-- Node29&#45;&gt;Node28 -->
<g id="edge34" class="edge"><title>Node29&#45;&gt;Node28</title>
<path fill="none" stroke="#9a32cd" stroke-dasharray="5,2" d="M536.081,-218.98C606.039,-212.002 714.591,-203 809,-203 809,-203 809,-203 1457,-203 1518.25,-203 1587.27,-215.947 1634.77,-226.922"/>
<polygon fill="#9a32cd" stroke="#9a32cd" points="535.644,-215.507 526.046,-219.994 536.347,-222.471 535.644,-215.507"/>
<text text-anchor="middle" x="1152" y="-206" font-family="Helvetica,sans-Serif" font-size="10.00"> myCommandToNumArgsMap</text>
</g>
<!-- Node29&#45;&gt;Node31 -->
<g id="edge39" class="edge"><title>Node29&#45;&gt;Node31</title>
<path fill="none" stroke="#9a32cd" stroke-dasharray="5,2" d="M536.135,-223.06C585.984,-222.735 652.715,-227.002 708,-247 741.861,-259.249 774.777,-285.998 793.405,-302.941"/>
<polygon fill="#9a32cd" stroke="#9a32cd" points="536.037,-219.561 526.082,-223.189 536.126,-226.56 536.037,-219.561"/>
<text text-anchor="middle" x="636" y="-250" font-family="Helvetica,sans-Serif" font-size="10.00"> myCommandToNumArgsMap</text>
</g>
<!-- Node30 -->
<g id="node30" class="node"><title>Node30</title>
<polygon fill="white" stroke="#bfbfbf" points="401,-116.5 401,-135.5 523,-135.5 523,-116.5 401,-116.5"/>
<text text-anchor="middle" x="462" y="-123.5" font-family="Helvetica,sans-Serif" font-size="10.00">Map&lt; String, String &gt;</text>
</g>
<!-- Node30&#45;&gt;Node28 -->
<g id="edge35" class="edge"><title>Node30&#45;&gt;Node28</title>
<path fill="none" stroke="#9a32cd" stroke-dasharray="5,2" d="M525.232,-114.726C594.315,-103.207 709.241,-87 809,-87 809,-87 809,-87 1457,-87 1558.22,-87 1649.7,-187.854 1681.3,-226.856"/>
<polygon fill="#9a32cd" stroke="#9a32cd" points="524.242,-111.343 514.964,-116.46 525.407,-118.245 524.242,-111.343"/>
<text text-anchor="middle" x="1152" y="-112" font-family="Helvetica,sans-Serif" font-size="10.00"> myReverseSyntaxMap</text>
<text text-anchor="middle" x="1152" y="-101" font-family="Helvetica,sans-Serif" font-size="10.00">myCommandToDirectoryMap</text>
<text text-anchor="middle" x="1152" y="-90" font-family="Helvetica,sans-Serif" font-size="10.00">myReferenceToCommandMap</text>
</g>
<!-- Node30&#45;&gt;Node31 -->
<g id="edge42" class="edge"><title>Node30&#45;&gt;Node31</title>
<path fill="none" stroke="#9a32cd" stroke-dasharray="5,2" d="M533.176,-126.8C585.19,-130.435 655.81,-142.035 708,-176 757.191,-208.013 789.829,-273.054 802.753,-302.681"/>
<polygon fill="#9a32cd" stroke="#9a32cd" points="533.229,-123.296 523.033,-126.175 532.798,-130.283 533.229,-123.296"/>
<text text-anchor="middle" x="636" y="-212" font-family="Helvetica,sans-Serif" font-size="10.00"> myReverseSyntaxMap</text>
<text text-anchor="middle" x="636" y="-201" font-family="Helvetica,sans-Serif" font-size="10.00">myCommandToDirectoryMap</text>
<text text-anchor="middle" x="636" y="-190" font-family="Helvetica,sans-Serif" font-size="10.00">mySyntaxMap</text>
<text text-anchor="middle" x="636" y="-179" font-family="Helvetica,sans-Serif" font-size="10.00">myReferenceToCommandMap</text>
</g>
<!-- Node31&#45;&gt;Node2 -->
<g id="edge45" class="edge"><title>Node31&#45;&gt;Node2</title>
<path fill="none" stroke="#9a32cd" stroke-dasharray="5,2" d="M903.633,-315.653C1099.95,-311.48 1544.5,-306.579 1600,-346 1676.23,-400.143 1689.98,-526.284 1692.45,-569.867"/>
<polygon fill="#9a32cd" stroke="#9a32cd" points="903.543,-312.154 893.621,-315.869 903.695,-319.152 903.543,-312.154"/>
<text text-anchor="middle" x="1301" y="-319" font-family="Helvetica,sans-Serif" font-size="10.00"> myLibrary</text>
</g>
<!-- Node31&#45;&gt;Node23 -->
<g id="edge43" class="edge"><title>Node31&#45;&gt;Node23</title>
<path fill="none" stroke="#9a32cd" stroke-dasharray="5,2" d="M897.431,-335.679C952.195,-351.262 1020.32,-379.482 1062,-429 1083.24,-454.235 1065.85,-471.205 1080,-501 1096.43,-535.595 1126.47,-570.069 1141.66,-586.335"/>
<polygon fill="#9a32cd" stroke="#9a32cd" points="898.289,-332.285 887.719,-333.007 896.432,-339.034 898.289,-332.285"/>
<text text-anchor="middle" x="987" y="-432" font-family="Helvetica,sans-Serif" font-size="10.00"> myLibrary</text>
</g>
<!-- Node31&#45;&gt;Node28 -->
<g id="edge36" class="edge"><title>Node31&#45;&gt;Node28</title>
<path fill="none" stroke="#9a32cd" stroke-dasharray="5,2" d="M883.266,-300.673C937.217,-288.23 1012.89,-271.811 1080,-261 1271.84,-230.093 1501.69,-233.597 1617.87,-238.156"/>
<polygon fill="#9a32cd" stroke="#9a32cd" points="882.403,-297.28 873.452,-302.948 883.984,-304.099 882.403,-297.28"/>
<text text-anchor="middle" x="1301" y="-246" font-family="Helvetica,sans-Serif" font-size="10.00"> myLibrary</text>
</g>
<!-- Node32 -->
<g id="node32" class="node"><title>Node32</title>
<polygon fill="white" stroke="#bfbfbf" points="1131.5,-270.5 1131.5,-289.5 1172.5,-289.5 1172.5,-270.5 1131.5,-270.5"/>
<text text-anchor="middle" x="1152" y="-277.5" font-family="Helvetica,sans-Serif" font-size="10.00">Color</text>
</g>
<!-- Node32&#45;&gt;Node5 -->
<g id="edge44" class="edge"><title>Node32&#45;&gt;Node5</title>
<path fill="none" stroke="#9a32cd" stroke-dasharray="5,2" d="M1182.34,-270.703C1224.74,-259.119 1304.17,-244.531 1360,-277 1421.42,-312.72 1446.4,-404.61 1453.06,-434.471"/>
<polygon fill="#9a32cd" stroke="#9a32cd" points="1181.29,-267.362 1172.64,-273.479 1183.21,-274.092 1181.29,-267.362"/>
<text text-anchor="middle" x="1301" y="-302" font-family="Helvetica,sans-Serif" font-size="10.00"> myBackgroundColor</text>
<text text-anchor="start" x="1242.5" y="-291" font-family="Helvetica,sans-Serif" font-size="10.00">DEFAULT_BACKGROUND</text>
<text text-anchor="middle" x="1301" y="-280" font-family="Helvetica,sans-Serif" font-size="10.00">_COLOR</text>
</g>
</g>
</svg>
