<?xml version="1.0" encoding="UTF-8" standalone="no"?>
<!DOCTYPE svg PUBLIC "-//W3C//DTD SVG 1.1//EN"
 "http://www.w3.org/Graphics/SVG/1.1/DTD/svg11.dtd">
<!-- Generated by graphviz version 2.36.0 (20140111.2315)
 -->
<!-- Title: turtle.draw.TransitionFactory.createTurtleTransition Pages: 1 -->
<svg width="1454pt" height="712pt"
 viewBox="0.00 0.00 1454.00 712.00" xmlns="http://www.w3.org/2000/svg" xmlns:xlink="http://www.w3.org/1999/xlink">
<g id="graph0" class="graph" transform="scale(1 1) rotate(0) translate(4 708)">
<title>turtle.draw.TransitionFactory.createTurtleTransition</title>
<polygon fill="white" stroke="none" points="-4,4 -4,-708 1450,-708 1450,4 -4,4"/>
<!-- Node1 -->
<g id="node1" class="node"><title>Node1</title>
<polygon fill="#bfbfbf" stroke="black" points="0,-291 0,-321 182,-321 182,-291 0,-291"/>
<text text-anchor="start" x="8" y="-309" font-family="Helvetica,sans-Serif" font-size="10.00">turtle.draw.TransitionFactory.create</text>
<text text-anchor="middle" x="91" y="-298" font-family="Helvetica,sans-Serif" font-size="10.00">TurtleTransition</text>
</g>
<!-- Node2 -->
<g id="node2" class="node"><title>Node2</title>
<g id="a_node2"><a xlink:href="../../dc/d3e/classturtle_1_1draw_1_1_transition_factory.html#a6ff1cfc7cfe2396040ddb55408ee854e" target="_top" xlink:title="turtle.draw.TransitionFactory.create\lForwardTransition">
<polygon fill="white" stroke="black" points="218,-510 218,-540 400,-540 400,-510 218,-510"/>
<text text-anchor="start" x="226" y="-528" font-family="Helvetica,sans-Serif" font-size="10.00">turtle.draw.TransitionFactory.create</text>
<text text-anchor="middle" x="309" y="-517" font-family="Helvetica,sans-Serif" font-size="10.00">ForwardTransition</text>
</a>
</g>
</g>
<!-- Node1&#45;&gt;Node2 -->
<g id="edge1" class="edge"><title>Node1&#45;&gt;Node2</title>
<path fill="none" stroke="midnightblue" d="M106.847,-321.053C144.148,-358.873 241.953,-458.035 285.972,-502.666"/>
<polygon fill="midnightblue" stroke="midnightblue" points="283.535,-505.18 293.05,-509.842 288.519,-500.264 283.535,-505.18"/>
</g>
<!-- Node22 -->
<g id="node22" class="node"><title>Node22</title>
<g id="a_node22"><a xlink:href="../../dc/d3e/classturtle_1_1draw_1_1_transition_factory.html#ac71cc2cb5d25b3db756926c69b2da8a6" target="_top" xlink:title="turtle.draw.TransitionFactory.create\lTurnTransition">
<polygon fill="white" stroke="black" points="218,-291 218,-321 400,-321 400,-291 218,-291"/>
<text text-anchor="start" x="226" y="-309" font-family="Helvetica,sans-Serif" font-size="10.00">turtle.draw.TransitionFactory.create</text>
<text text-anchor="middle" x="309" y="-298" font-family="Helvetica,sans-Serif" font-size="10.00">TurnTransition</text>
</a>
</g>
</g>
<!-- Node1&#45;&gt;Node22 -->
<g id="edge24" class="edge"><title>Node1&#45;&gt;Node22</title>
<path fill="none" stroke="midnightblue" d="M182.039,-306C190.526,-306 199.165,-306 207.738,-306"/>
<polygon fill="midnightblue" stroke="midnightblue" points="207.759,-309.5 217.759,-306 207.759,-302.5 207.759,-309.5"/>
</g>
<!-- Node27 -->
<g id="node27" class="node"><title>Node27</title>
<g id="a_node27"><a xlink:href="../../df/dcb/classturtle_1_1_turtle.html#a19d13fd5d60f50cdbcea2a4e4b4a533d" target="_top" xlink:title="turtle.Turtle.updateVisual\lState">
<polygon fill="white" stroke="black" points="241,-113 241,-143 377,-143 377,-113 241,-113"/>
<text text-anchor="start" x="249" y="-131" font-family="Helvetica,sans-Serif" font-size="10.00">turtle.Turtle.updateVisual</text>
<text text-anchor="middle" x="309" y="-120" font-family="Helvetica,sans-Serif" font-size="10.00">State</text>
</a>
</g>
</g>
<!-- Node1&#45;&gt;Node27 -->
<g id="edge29" class="edge"><title>Node1&#45;&gt;Node27</title>
<path fill="none" stroke="midnightblue" d="M110.416,-290.824C148.833,-259.165 237.618,-186 281.902,-149.507"/>
<polygon fill="midnightblue" stroke="midnightblue" points="284.139,-152.198 289.631,-143.138 279.687,-146.796 284.139,-152.198"/>
</g>
<!-- Node3 -->
<g id="node3" class="node"><title>Node3</title>
<g id="a_node3"><a xlink:href="../../d0/dce/classtransitionstate_1_1_transition_state.html#ad269e6af5090eaf593a366df31d9cc58" target="_top" xlink:title="transitionstate.Transition\lState.getMove">
<polygon fill="white" stroke="black" points="457,-576 457,-606 591,-606 591,-576 457,-576"/>
<text text-anchor="start" x="465" y="-594" font-family="Helvetica,sans-Serif" font-size="10.00">transitionstate.Transition</text>
<text text-anchor="middle" x="524" y="-583" font-family="Helvetica,sans-Serif" font-size="10.00">State.getMove</text>
</a>
</g>
</g>
<!-- Node2&#45;&gt;Node3 -->
<g id="edge2" class="edge"><title>Node2&#45;&gt;Node3</title>
<path fill="none" stroke="midnightblue" d="M358.6,-540.059C390.113,-549.824 431.345,-562.6 464.633,-572.914"/>
<polygon fill="midnightblue" stroke="midnightblue" points="463.653,-576.275 474.241,-575.892 465.725,-569.589 463.653,-576.275"/>
</g>
<!-- Node4 -->
<g id="node4" class="node"><title>Node4</title>
<g id="a_node4"><a xlink:href="../../df/dcb/classturtle_1_1_turtle.html#a0b8bdf8fc097cab5bf51d46567c2d749" target="_top" xlink:title="turtle.Turtle.getPen">
<polygon fill="white" stroke="black" points="1107.5,-536.5 1107.5,-555.5 1214.5,-555.5 1214.5,-536.5 1107.5,-536.5"/>
<text text-anchor="middle" x="1161" y="-543.5" font-family="Helvetica,sans-Serif" font-size="10.00">turtle.Turtle.getPen</text>
</a>
</g>
</g>
<!-- Node2&#45;&gt;Node4 -->
<g id="edge3" class="edge"><title>Node2&#45;&gt;Node4</title>
<path fill="none" stroke="midnightblue" d="M400.16,-527.227C573.214,-531.503 947.976,-540.762 1097.02,-544.444"/>
<polygon fill="midnightblue" stroke="midnightblue" points="1097.27,-547.951 1107.35,-544.699 1097.44,-540.953 1097.27,-547.951"/>
</g>
<!-- Node5 -->
<g id="node5" class="node"><title>Node5</title>
<g id="a_node5"><a xlink:href="../../dd/da0/classturtle_1_1draw_1_1_pen.html#aeb5df1ca76663eb6043d2c885063aeb6" target="_top" xlink:title="turtle.draw.Pen.getPenDown">
<polygon fill="white" stroke="black" points="448.5,-411.5 448.5,-430.5 599.5,-430.5 599.5,-411.5 448.5,-411.5"/>
<text text-anchor="middle" x="524" y="-418.5" font-family="Helvetica,sans-Serif" font-size="10.00">turtle.draw.Pen.getPenDown</text>
</a>
</g>
</g>
<!-- Node2&#45;&gt;Node5 -->
<g id="edge4" class="edge"><title>Node2&#45;&gt;Node5</title>
<path fill="none" stroke="midnightblue" d="M329.896,-509.713C353.88,-491.931 395.969,-462.754 436,-445 446.198,-440.477 457.454,-436.613 468.39,-433.392"/>
<polygon fill="midnightblue" stroke="midnightblue" points="469.619,-436.683 478.303,-430.614 467.73,-429.942 469.619,-436.683"/>
</g>
<!-- Node6 -->
<g id="node6" class="node"><title>Node6</title>
<g id="a_node6"><a xlink:href="../../d8/dde/classturtle_1_1draw_1_1_pen_transition.html#aa0a682d77c6f7e56adb8a7cad589a140" target="_top" xlink:title="turtle.draw.PenTransition.set\lDistance">
<polygon fill="white" stroke="black" points="448.5,-488 448.5,-518 599.5,-518 599.5,-488 448.5,-488"/>
<text text-anchor="start" x="456.5" y="-506" font-family="Helvetica,sans-Serif" font-size="10.00">turtle.draw.PenTransition.set</text>
<text text-anchor="middle" x="524" y="-495" font-family="Helvetica,sans-Serif" font-size="10.00">Distance</text>
</a>
</g>
</g>
<!-- Node2&#45;&gt;Node6 -->
<g id="edge5" class="edge"><title>Node2&#45;&gt;Node6</title>
<path fill="none" stroke="midnightblue" d="M400.022,-515.702C412.744,-514.388 425.788,-513.041 438.402,-511.738"/>
<polygon fill="midnightblue" stroke="midnightblue" points="438.825,-515.213 448.413,-510.704 438.106,-508.25 438.825,-515.213"/>
</g>
<!-- Node18 -->
<g id="node18" class="node"><title>Node18</title>
<g id="a_node18"><a xlink:href="../../de/de7/classturtle_1_1draw_1_1_linear_transition.html#ac957ebacdb11c8535b6f67ea19c310cd" target="_top" xlink:title="turtle.draw.LinearTransition.set\lDistance">
<polygon fill="white" stroke="black" points="443,-674 443,-704 605,-704 605,-674 443,-674"/>
<text text-anchor="start" x="451" y="-692" font-family="Helvetica,sans-Serif" font-size="10.00">turtle.draw.LinearTransition.set</text>
<text text-anchor="middle" x="524" y="-681" font-family="Helvetica,sans-Serif" font-size="10.00">Distance</text>
</a>
</g>
</g>
<!-- Node2&#45;&gt;Node18 -->
<g id="edge19" class="edge"><title>Node2&#45;&gt;Node18</title>
<path fill="none" stroke="midnightblue" d="M319.443,-540.072C338.124,-568.637 382.644,-630.762 436,-664 439.356,-666.09 442.892,-668.011 446.541,-669.776"/>
<polygon fill="midnightblue" stroke="midnightblue" points="445.241,-673.028 455.804,-673.848 448.058,-666.62 445.241,-673.028"/>
</g>
<!-- Node19 -->
<g id="node19" class="node"><title>Node19</title>
<g id="a_node19"><a xlink:href="../../de/d1a/classturtle_1_1draw_1_1_move_transition.html#ad82006c1e8db96a8b9f1c68cdac07b88" target="_top" xlink:title="turtle.draw.MoveTransition.set\lTurtle">
<polygon fill="white" stroke="black" points="662,-398 662,-428 820,-428 820,-398 662,-398"/>
<text text-anchor="start" x="670" y="-416" font-family="Helvetica,sans-Serif" font-size="10.00">turtle.draw.MoveTransition.set</text>
<text text-anchor="middle" x="741" y="-405" font-family="Helvetica,sans-Serif" font-size="10.00">Turtle</text>
</a>
</g>
</g>
<!-- Node2&#45;&gt;Node19 -->
<g id="edge20" class="edge"><title>Node2&#45;&gt;Node19</title>
<path fill="none" stroke="midnightblue" d="M347.049,-509.961C371.92,-500.242 405.58,-487.811 436,-479 446.849,-475.858 573.354,-448.634 659.714,-430.147"/>
<polygon fill="midnightblue" stroke="midnightblue" points="660.465,-433.566 669.511,-428.05 659,-426.721 660.465,-433.566"/>
</g>
<!-- Node21 -->
<g id="node21" class="node"><title>Node21</title>
<g id="a_node21"><a xlink:href="../../d8/dde/classturtle_1_1draw_1_1_pen_transition.html#a8f10c259f449c09a922a2c26d9712c8d" target="_top" xlink:title="turtle.draw.PenTransition.set\lTurtle">
<polygon fill="white" stroke="black" points="448.5,-625 448.5,-655 599.5,-655 599.5,-625 448.5,-625"/>
<text text-anchor="start" x="456.5" y="-643" font-family="Helvetica,sans-Serif" font-size="10.00">turtle.draw.PenTransition.set</text>
<text text-anchor="middle" x="524" y="-632" font-family="Helvetica,sans-Serif" font-size="10.00">Turtle</text>
</a>
</g>
</g>
<!-- Node2&#45;&gt;Node21 -->
<g id="edge23" class="edge"><title>Node2&#45;&gt;Node21</title>
<path fill="none" stroke="midnightblue" d="M327.138,-540.183C350.314,-559.993 393.64,-594.536 436,-615 440.864,-617.35 445.991,-619.52 451.222,-621.515"/>
<polygon fill="midnightblue" stroke="midnightblue" points="450.121,-624.838 460.715,-624.92 452.484,-618.249 450.121,-624.838"/>
</g>
<!-- Node7 -->
<g id="node7" class="node"><title>Node7</title>
<g id="a_node7"><a xlink:href="../../d8/dde/classturtle_1_1draw_1_1_pen_transition.html#ae8155506993774930ffd88f222ee7398" target="_top" xlink:title="turtle.draw.PenTransition.createLine">
<polygon fill="white" stroke="black" points="648,-449.5 648,-468.5 834,-468.5 834,-449.5 648,-449.5"/>
<text text-anchor="middle" x="741" y="-456.5" font-family="Helvetica,sans-Serif" font-size="10.00">turtle.draw.PenTransition.createLine</text>
</a>
</g>
</g>
<!-- Node6&#45;&gt;Node7 -->
<g id="edge6" class="edge"><title>Node6&#45;&gt;Node7</title>
<path fill="none" stroke="midnightblue" d="M598.389,-487.981C626.204,-482.288 657.418,-475.901 683.447,-470.574"/>
<polygon fill="midnightblue" stroke="midnightblue" points="684.424,-473.946 693.519,-468.512 683.02,-467.089 684.424,-473.946"/>
</g>
<!-- Node17 -->
<g id="node17" class="node"><title>Node17</title>
<g id="a_node17"><a xlink:href="../../d8/dde/classturtle_1_1draw_1_1_pen_transition.html#a5c823b5721d6767fb73c7f690ddff65a" target="_top" xlink:title="turtle.draw.PenTransition.set\lEndPoint">
<polygon fill="white" stroke="black" points="665.5,-488 665.5,-518 816.5,-518 816.5,-488 665.5,-488"/>
<text text-anchor="start" x="673.5" y="-506" font-family="Helvetica,sans-Serif" font-size="10.00">turtle.draw.PenTransition.set</text>
<text text-anchor="middle" x="741" y="-495" font-family="Helvetica,sans-Serif" font-size="10.00">EndPoint</text>
</a>
</g>
</g>
<!-- Node6&#45;&gt;Node17 -->
<g id="edge18" class="edge"><title>Node6&#45;&gt;Node17</title>
<path fill="none" stroke="midnightblue" d="M599.593,-503C617.501,-503 636.758,-503 655.096,-503"/>
<polygon fill="midnightblue" stroke="midnightblue" points="655.175,-506.5 665.175,-503 655.175,-499.5 655.175,-506.5"/>
</g>
<!-- Node8 -->
<g id="node8" class="node"><title>Node8</title>
<g id="a_node8"><a xlink:href="../../d8/dde/classturtle_1_1draw_1_1_pen_transition.html#a431676c45414059317fdf53c2e5d539f" target="_top" xlink:title="turtle.draw.PenTransition.drawLine">
<polygon fill="white" stroke="black" points="875,-497.5 875,-516.5 1053,-516.5 1053,-497.5 875,-497.5"/>
<text text-anchor="middle" x="964" y="-504.5" font-family="Helvetica,sans-Serif" font-size="10.00">turtle.draw.PenTransition.drawLine</text>
</a>
</g>
</g>
<!-- Node7&#45;&gt;Node8 -->
<g id="edge7" class="edge"><title>Node7&#45;&gt;Node8</title>
<path fill="none" stroke="midnightblue" d="M785.927,-468.541C821.402,-476.246 871.471,-487.12 909.321,-495.341"/>
<polygon fill="midnightblue" stroke="midnightblue" points="908.641,-498.775 919.156,-497.477 910.127,-491.935 908.641,-498.775"/>
</g>
<!-- Node10 -->
<g id="node10" class="node"><title>Node10</title>
<g id="a_node10"><a xlink:href="../../d8/dde/classturtle_1_1draw_1_1_pen_transition.html#a819420d27f897da865421a925d845f0d" target="_top" xlink:title="turtle.draw.PenTransition.formatLine">
<polygon fill="white" stroke="black" points="870,-575.5 870,-594.5 1058,-594.5 1058,-575.5 870,-575.5"/>
<text text-anchor="middle" x="964" y="-582.5" font-family="Helvetica,sans-Serif" font-size="10.00">turtle.draw.PenTransition.formatLine</text>
</a>
</g>
</g>
<!-- Node7&#45;&gt;Node10 -->
<g id="edge10" class="edge"><title>Node7&#45;&gt;Node10</title>
<path fill="none" stroke="midnightblue" d="M811.439,-468.501C819.386,-471.188 827.1,-474.62 834,-479 856.215,-493.102 850.591,-508.234 870,-526 889.636,-543.974 915.419,-559.847 934.856,-570.589"/>
<polygon fill="midnightblue" stroke="midnightblue" points="933.371,-573.765 943.833,-575.437 936.697,-567.606 933.371,-573.765"/>
</g>
<!-- Node14 -->
<g id="node14" class="node"><title>Node14</title>
<g id="a_node14"><a xlink:href="../../d8/dde/classturtle_1_1draw_1_1_pen_transition.html#ae64d711ec6faa3b5411bbfe70b68d365" target="_top" xlink:title="turtle.draw.PenTransition.set\lStartPoint">
<polygon fill="white" stroke="black" points="888.5,-446 888.5,-476 1039.5,-476 1039.5,-446 888.5,-446"/>
<text text-anchor="start" x="896.5" y="-464" font-family="Helvetica,sans-Serif" font-size="10.00">turtle.draw.PenTransition.set</text>
<text text-anchor="middle" x="964" y="-453" font-family="Helvetica,sans-Serif" font-size="10.00">StartPoint</text>
</a>
</g>
</g>
<!-- Node7&#45;&gt;Node14 -->
<g id="edge15" class="edge"><title>Node7&#45;&gt;Node14</title>
<path fill="none" stroke="midnightblue" d="M834.124,-459.834C848.705,-459.966 863.726,-460.102 878.132,-460.232"/>
<polygon fill="midnightblue" stroke="midnightblue" points="878.467,-463.735 888.498,-460.326 878.53,-456.735 878.467,-463.735"/>
</g>
<!-- Node8&#45;&gt;Node4 -->
<g id="edge9" class="edge"><title>Node8&#45;&gt;Node4</title>
<path fill="none" stroke="midnightblue" d="M1012.7,-516.54C1039.83,-521.967 1074,-528.8 1102.59,-534.518"/>
<polygon fill="midnightblue" stroke="midnightblue" points="1101.96,-537.961 1112.45,-536.491 1103.33,-531.097 1101.96,-537.961"/>
</g>
<!-- Node9 -->
<g id="node9" class="node"><title>Node9</title>
<g id="a_node9"><a xlink:href="../../dd/da0/classturtle_1_1draw_1_1_pen.html#aef480a23bb1a70267119d54c79d1f31c" target="_top" xlink:title="turtle.draw.Pen.drawLine">
<polygon fill="white" stroke="black" points="1094.5,-497.5 1094.5,-516.5 1227.5,-516.5 1227.5,-497.5 1094.5,-497.5"/>
<text text-anchor="middle" x="1161" y="-504.5" font-family="Helvetica,sans-Serif" font-size="10.00">turtle.draw.Pen.drawLine</text>
</a>
</g>
</g>
<!-- Node8&#45;&gt;Node9 -->
<g id="edge8" class="edge"><title>Node8&#45;&gt;Node9</title>
<path fill="none" stroke="midnightblue" d="M1053.09,-507C1063.53,-507 1074.12,-507 1084.38,-507"/>
<polygon fill="midnightblue" stroke="midnightblue" points="1084.5,-510.5 1094.5,-507 1084.5,-503.5 1084.5,-510.5"/>
</g>
<!-- Node10&#45;&gt;Node4 -->
<g id="edge13" class="edge"><title>Node10&#45;&gt;Node4</title>
<path fill="none" stroke="midnightblue" d="M1012.7,-575.46C1039.83,-570.033 1074,-563.2 1102.59,-557.482"/>
<polygon fill="midnightblue" stroke="midnightblue" points="1103.33,-560.903 1112.45,-555.509 1101.96,-554.039 1103.33,-560.903"/>
</g>
<!-- Node11 -->
<g id="node11" class="node"><title>Node11</title>
<g id="a_node11"><a xlink:href="../../dd/da0/classturtle_1_1draw_1_1_pen.html#aa1cfa7c148b990a796edcdce0c1ef4dc" target="_top" xlink:title="turtle.draw.Pen.getColor">
<polygon fill="white" stroke="black" points="1095.5,-574.5 1095.5,-593.5 1226.5,-593.5 1226.5,-574.5 1095.5,-574.5"/>
<text text-anchor="middle" x="1161" y="-581.5" font-family="Helvetica,sans-Serif" font-size="10.00">turtle.draw.Pen.getColor</text>
</a>
</g>
</g>
<!-- Node10&#45;&gt;Node11 -->
<g id="edge11" class="edge"><title>Node10&#45;&gt;Node11</title>
<path fill="none" stroke="midnightblue" d="M1058.22,-584.522C1067.23,-584.476 1076.28,-584.429 1085.08,-584.384"/>
<polygon fill="midnightblue" stroke="midnightblue" points="1085.29,-587.883 1095.27,-584.332 1085.25,-580.883 1085.29,-587.883"/>
</g>
<!-- Node12 -->
<g id="node12" class="node"><title>Node12</title>
<g id="a_node12"><a xlink:href="../../dd/da0/classturtle_1_1draw_1_1_pen.html#acd8614ebe09681bbd4ac2ac5e4108d17" target="_top" xlink:title="turtle.draw.Pen.getDash">
<polygon fill="white" stroke="black" points="1095.5,-650.5 1095.5,-669.5 1226.5,-669.5 1226.5,-650.5 1095.5,-650.5"/>
<text text-anchor="middle" x="1161" y="-657.5" font-family="Helvetica,sans-Serif" font-size="10.00">turtle.draw.Pen.getDash</text>
</a>
</g>
</g>
<!-- Node10&#45;&gt;Node12 -->
<g id="edge12" class="edge"><title>Node10&#45;&gt;Node12</title>
<path fill="none" stroke="midnightblue" d="M984.787,-594.545C1009.83,-606.402 1054.48,-626.801 1094,-641 1100.41,-643.303 1107.24,-645.523 1113.99,-647.584"/>
<polygon fill="midnightblue" stroke="midnightblue" points="1113.18,-650.994 1123.76,-650.48 1115.17,-644.283 1113.18,-650.994"/>
</g>
<!-- Node13 -->
<g id="node13" class="node"><title>Node13</title>
<g id="a_node13"><a xlink:href="../../dd/da0/classturtle_1_1draw_1_1_pen.html#a94bdbfaa93c36af4f16c5f43364abb07" target="_top" xlink:title="turtle.draw.Pen.getWidth">
<polygon fill="white" stroke="black" points="1094.5,-612.5 1094.5,-631.5 1227.5,-631.5 1227.5,-612.5 1094.5,-612.5"/>
<text text-anchor="middle" x="1161" y="-619.5" font-family="Helvetica,sans-Serif" font-size="10.00">turtle.draw.Pen.getWidth</text>
</a>
</g>
</g>
<!-- Node10&#45;&gt;Node13 -->
<g id="edge14" class="edge"><title>Node10&#45;&gt;Node13</title>
<path fill="none" stroke="midnightblue" d="M1015.22,-594.528C1040.93,-599.408 1072.44,-605.386 1099.49,-610.518"/>
<polygon fill="midnightblue" stroke="midnightblue" points="1099.14,-614.014 1109.61,-612.44 1100.44,-607.137 1099.14,-614.014"/>
</g>
<!-- Node15 -->
<g id="node15" class="node"><title>Node15</title>
<g id="a_node15"><a xlink:href="../../df/dcb/classturtle_1_1_turtle.html#a29ef6cfcd7794054df8ef83724022983" target="_top" xlink:title="turtle.Turtle.getTurtle">
<polygon fill="white" stroke="black" points="1103.5,-427.5 1103.5,-446.5 1218.5,-446.5 1218.5,-427.5 1103.5,-427.5"/>
<text text-anchor="middle" x="1161" y="-434.5" font-family="Helvetica,sans-Serif" font-size="10.00">turtle.Turtle.getTurtle</text>
</a>
</g>
</g>
<!-- Node14&#45;&gt;Node15 -->
<g id="edge16" class="edge"><title>Node14&#45;&gt;Node15</title>
<path fill="none" stroke="midnightblue" d="M1039.56,-451.824C1057.26,-449.645 1076.04,-447.334 1093.36,-445.201"/>
<polygon fill="midnightblue" stroke="midnightblue" points="1093.88,-448.664 1103.38,-443.969 1093.03,-441.717 1093.88,-448.664"/>
</g>
<!-- Node16 -->
<g id="node16" class="node"><title>Node16</title>
<g id="a_node16"><a xlink:href="../../d4/de5/classturtle_1_1_turtle_view_controller.html#a24215ad9dea4b06da7652230ac822973" target="_top" xlink:title="turtle.TurtleViewController.getNode">
<polygon fill="white" stroke="black" points="1264,-427.5 1264,-446.5 1446,-446.5 1446,-427.5 1264,-427.5"/>
<text text-anchor="middle" x="1355" y="-434.5" font-family="Helvetica,sans-Serif" font-size="10.00">turtle.TurtleViewController.getNode</text>
</a>
</g>
</g>
<!-- Node15&#45;&gt;Node16 -->
<g id="edge17" class="edge"><title>Node15&#45;&gt;Node16</title>
<path fill="none" stroke="midnightblue" d="M1218.57,-437C1229.72,-437 1241.72,-437 1253.82,-437"/>
<polygon fill="midnightblue" stroke="midnightblue" points="1253.98,-440.5 1263.98,-437 1253.98,-433.5 1253.98,-440.5"/>
</g>
<!-- Node20 -->
<g id="node20" class="node"><title>Node20</title>
<g id="a_node20"><a xlink:href="../../de/d1a/classturtle_1_1draw_1_1_move_transition.html#ac05b146ef3b464435449fd413e8468af" target="_top" xlink:title="turtle.draw.MoveTransition.set\lStartPoint">
<polygon fill="white" stroke="black" points="885,-397 885,-427 1043,-427 1043,-397 885,-397"/>
<text text-anchor="start" x="893" y="-415" font-family="Helvetica,sans-Serif" font-size="10.00">turtle.draw.MoveTransition.set</text>
<text text-anchor="middle" x="964" y="-404" font-family="Helvetica,sans-Serif" font-size="10.00">StartPoint</text>
</a>
</g>
</g>
<!-- Node19&#45;&gt;Node20 -->
<g id="edge21" class="edge"><title>Node19&#45;&gt;Node20</title>
<path fill="none" stroke="midnightblue" d="M820.227,-412.646C837.851,-412.566 856.676,-412.481 874.681,-412.4"/>
<polygon fill="midnightblue" stroke="midnightblue" points="874.894,-415.899 884.878,-412.353 874.862,-408.899 874.894,-415.899"/>
</g>
<!-- Node20&#45;&gt;Node15 -->
<g id="edge22" class="edge"><title>Node20&#45;&gt;Node15</title>
<path fill="none" stroke="midnightblue" d="M1043.19,-422.024C1059.7,-424.142 1076.99,-426.358 1093.04,-428.416"/>
<polygon fill="midnightblue" stroke="midnightblue" points="1093.03,-431.943 1103.4,-429.743 1093.92,-425 1093.03,-431.943"/>
</g>
<!-- Node23 -->
<g id="node23" class="node"><title>Node23</title>
<g id="a_node23"><a xlink:href="../../d0/dce/classtransitionstate_1_1_transition_state.html#a9fc8106774dd937fd3e8cb2e920d7560" target="_top" xlink:title="transitionstate.Transition\lState.getRotateClockwise">
<polygon fill="white" stroke="black" points="455,-362 455,-392 593,-392 593,-362 455,-362"/>
<text text-anchor="start" x="463" y="-380" font-family="Helvetica,sans-Serif" font-size="10.00">transitionstate.Transition</text>
<text text-anchor="middle" x="524" y="-369" font-family="Helvetica,sans-Serif" font-size="10.00">State.getRotateClockwise</text>
</a>
</g>
</g>
<!-- Node22&#45;&gt;Node23 -->
<g id="edge25" class="edge"><title>Node22&#45;&gt;Node23</title>
<path fill="none" stroke="midnightblue" d="M348.916,-321.009C373.693,-330.365 406.551,-342.406 436,-352 443.355,-354.396 451.097,-356.795 458.806,-359.107"/>
<polygon fill="midnightblue" stroke="midnightblue" points="457.94,-362.5 468.522,-361.982 459.926,-355.788 457.94,-362.5"/>
</g>
<!-- Node24 -->
<g id="node24" class="node"><title>Node24</title>
<g id="a_node24"><a xlink:href="../../d0/dce/classtransitionstate_1_1_transition_state.html#af00a0805dcd030e8b847cfcafef1ba57" target="_top" xlink:title="transitionstate.Transition\lState.getRotateCounterClockwise">
<polygon fill="white" stroke="black" points="436,-313 436,-343 612,-343 612,-313 436,-313"/>
<text text-anchor="start" x="444" y="-331" font-family="Helvetica,sans-Serif" font-size="10.00">transitionstate.Transition</text>
<text text-anchor="middle" x="524" y="-320" font-family="Helvetica,sans-Serif" font-size="10.00">State.getRotateCounterClockwise</text>
</a>
</g>
</g>
<!-- Node22&#45;&gt;Node24 -->
<g id="edge26" class="edge"><title>Node22&#45;&gt;Node24</title>
<path fill="none" stroke="midnightblue" d="M400.022,-315.298C408.51,-316.175 417.14,-317.066 425.69,-317.949"/>
<polygon fill="midnightblue" stroke="midnightblue" points="425.371,-321.435 435.678,-318.981 426.091,-314.472 425.371,-321.435"/>
</g>
<!-- Node25 -->
<g id="node25" class="node"><title>Node25</title>
<g id="a_node25"><a xlink:href="../../d3/d81/classturtle_1_1draw_1_1_turn_transition.html#a014d4a0a31bc28434424963bb2da76a8" target="_top" xlink:title="turtle.draw.TurnTransition.setTurn">
<polygon fill="white" stroke="black" points="438,-274.5 438,-293.5 610,-293.5 610,-274.5 438,-274.5"/>
<text text-anchor="middle" x="524" y="-281.5" font-family="Helvetica,sans-Serif" font-size="10.00">turtle.draw.TurnTransition.setTurn</text>
</a>
</g>
</g>
<!-- Node22&#45;&gt;Node25 -->
<g id="edge27" class="edge"><title>Node22&#45;&gt;Node25</title>
<path fill="none" stroke="midnightblue" d="M400.022,-296.702C409.194,-295.755 418.533,-294.79 427.758,-293.837"/>
<polygon fill="midnightblue" stroke="midnightblue" points="428.123,-297.318 437.711,-292.809 427.404,-290.355 428.123,-297.318"/>
</g>
<!-- Node26 -->
<g id="node26" class="node"><title>Node26</title>
<g id="a_node26"><a xlink:href="../../dd/d1d/classturtle_1_1draw_1_1_s_logo_transition.html#a81120dd28c65f306eb2d0b39006acfa9" target="_top" xlink:title="turtle.draw.SLogoTransition.set\lTurtle">
<polygon fill="white" stroke="black" points="442.5,-225 442.5,-255 605.5,-255 605.5,-225 442.5,-225"/>
<text text-anchor="start" x="450.5" y="-243" font-family="Helvetica,sans-Serif" font-size="10.00">turtle.draw.SLogoTransition.set</text>
<text text-anchor="middle" x="524" y="-232" font-family="Helvetica,sans-Serif" font-size="10.00">Turtle</text>
</a>
</g>
</g>
<!-- Node22&#45;&gt;Node26 -->
<g id="edge28" class="edge"><title>Node22&#45;&gt;Node26</title>
<path fill="none" stroke="midnightblue" d="M355.076,-290.912C379.047,-282.995 409.056,-273.252 436,-265 443.692,-262.644 451.786,-260.231 459.814,-257.878"/>
<polygon fill="midnightblue" stroke="midnightblue" points="460.919,-261.201 469.542,-255.044 458.962,-254.48 460.919,-261.201"/>
</g>
<!-- Node28 -->
<g id="node28" class="node"><title>Node28</title>
<g id="a_node28"><a xlink:href="../../d0/dce/classtransitionstate_1_1_transition_state.html#ab51672ddfecc15b6a4abf25362625c53" target="_top" xlink:title="transitionstate.Transition\lState.getPenChange">
<polygon fill="white" stroke="black" points="457,-137 457,-167 591,-167 591,-137 457,-137"/>
<text text-anchor="start" x="465" y="-155" font-family="Helvetica,sans-Serif" font-size="10.00">transitionstate.Transition</text>
<text text-anchor="middle" x="524" y="-144" font-family="Helvetica,sans-Serif" font-size="10.00">State.getPenChange</text>
</a>
</g>
</g>
<!-- Node27&#45;&gt;Node28 -->
<g id="edge30" class="edge"><title>Node27&#45;&gt;Node28</title>
<path fill="none" stroke="midnightblue" d="M377.102,-135.561C399.303,-138.062 424.162,-140.863 446.983,-143.435"/>
<polygon fill="midnightblue" stroke="midnightblue" points="446.636,-146.918 456.965,-144.559 447.419,-139.962 446.636,-146.918"/>
</g>
<!-- Node29 -->
<g id="node29" class="node"><title>Node29</title>
<g id="a_node29"><a xlink:href="../../d0/dce/classtransitionstate_1_1_transition_state.html#aa7fbf8e1c635fcfab8abdc3944db35af" target="_top" xlink:title="transitionstate.Transition\lState.getVisibleChange">
<polygon fill="white" stroke="black" points="457,-88 457,-118 591,-118 591,-88 457,-88"/>
<text text-anchor="start" x="465" y="-106" font-family="Helvetica,sans-Serif" font-size="10.00">transitionstate.Transition</text>
<text text-anchor="middle" x="524" y="-95" font-family="Helvetica,sans-Serif" font-size="10.00">State.getVisibleChange</text>
</a>
</g>
</g>
<!-- Node27&#45;&gt;Node29 -->
<g id="edge31" class="edge"><title>Node27&#45;&gt;Node29</title>
<path fill="none" stroke="midnightblue" d="M377.102,-120.124C399.303,-117.518 424.162,-114.601 446.983,-111.922"/>
<polygon fill="midnightblue" stroke="midnightblue" points="447.441,-115.393 456.965,-110.751 446.625,-108.44 447.441,-115.393"/>
</g>
<!-- Node30 -->
<g id="node30" class="node"><title>Node30</title>
<g id="a_node30"><a xlink:href="../../dd/da0/classturtle_1_1draw_1_1_pen.html#adaf88ea81215149c382ba56b9c4894eb" target="_top" xlink:title="turtle.draw.Pen.update">
<polygon fill="white" stroke="black" points="461.5,-49.5 461.5,-68.5 586.5,-68.5 586.5,-49.5 461.5,-49.5"/>
<text text-anchor="middle" x="524" y="-56.5" font-family="Helvetica,sans-Serif" font-size="10.00">turtle.draw.Pen.update</text>
</a>
</g>
</g>
<!-- Node27&#45;&gt;Node30 -->
<g id="edge32" class="edge"><title>Node27&#45;&gt;Node30</title>
<path fill="none" stroke="midnightblue" d="M343.691,-112.892C368.767,-102.077 404.038,-87.7606 436,-78 444.487,-75.4082 453.542,-73.0235 462.483,-70.8833"/>
<polygon fill="midnightblue" stroke="midnightblue" points="463.537,-74.2321 472.494,-68.5728 461.963,-67.4114 463.537,-74.2321"/>
</g>
<!-- Node31 -->
<g id="node31" class="node"><title>Node31</title>
<g id="a_node31"><a xlink:href="../../d4/de5/classturtle_1_1_turtle_view_controller.html#a27ab1368e9369b701b2d49ede5b2aaab" target="_top" xlink:title="turtle.TurtleViewController.update\lVisible">
<polygon fill="white" stroke="black" points="436.5,-0 436.5,-30 611.5,-30 611.5,-0 436.5,-0"/>
<text text-anchor="start" x="444.5" y="-18" font-family="Helvetica,sans-Serif" font-size="10.00">turtle.TurtleViewController.update</text>
<text text-anchor="middle" x="524" y="-7" font-family="Helvetica,sans-Serif" font-size="10.00">Visible</text>
</a>
</g>
</g>
<!-- Node27&#45;&gt;Node31 -->
<g id="edge33" class="edge"><title>Node27&#45;&gt;Node31</title>
<path fill="none" stroke="midnightblue" d="M327.601,-112.846C350.942,-93.4495 394.09,-59.9737 436,-40 440.965,-37.6336 446.199,-35.447 451.535,-33.4352"/>
<polygon fill="midnightblue" stroke="midnightblue" points="452.96,-36.6435 461.215,-30.0017 450.62,-30.0462 452.96,-36.6435"/>
</g>
<!-- Node33 -->
<g id="node33" class="node"><title>Node33</title>
<g id="a_node33"><a xlink:href="../../df/dcb/classturtle_1_1_turtle.html#ae874771e2fd28fce250e1de7f9d9647d" target="_top" xlink:title="turtle.Turtle.updateVisible">
<polygon fill="white" stroke="black" points="455,-186.5 455,-205.5 593,-205.5 593,-186.5 455,-186.5"/>
<text text-anchor="middle" x="524" y="-193.5" font-family="Helvetica,sans-Serif" font-size="10.00">turtle.Turtle.updateVisible</text>
</a>
</g>
</g>
<!-- Node27&#45;&gt;Node33 -->
<g id="edge35" class="edge"><title>Node27&#45;&gt;Node33</title>
<path fill="none" stroke="midnightblue" d="M345.66,-143.097C370.644,-153.299 404.979,-166.575 436,-176 445.676,-178.94 456.071,-181.68 466.191,-184.132"/>
<polygon fill="midnightblue" stroke="midnightblue" points="465.645,-187.599 476.181,-186.484 467.25,-180.786 465.645,-187.599"/>
</g>
<!-- Node32 -->
<g id="node32" class="node"><title>Node32</title>
<g id="a_node32"><a xlink:href="../../d8/d9e/classturtle_1_1_turtle_image.html#a003d507b71fbc99ec5a1cb53aef1b2ab" target="_top" xlink:title="turtle.TurtleImage.update\lVisible">
<polygon fill="white" stroke="black" points="672.5,-0 672.5,-30 809.5,-30 809.5,-0 672.5,-0"/>
<text text-anchor="start" x="680.5" y="-18" font-family="Helvetica,sans-Serif" font-size="10.00">turtle.TurtleImage.update</text>
<text text-anchor="middle" x="741" y="-7" font-family="Helvetica,sans-Serif" font-size="10.00">Visible</text>
</a>
</g>
</g>
<!-- Node31&#45;&gt;Node32 -->
<g id="edge34" class="edge"><title>Node31&#45;&gt;Node32</title>
<path fill="none" stroke="midnightblue" d="M611.519,-15C628.333,-15 645.859,-15 662.365,-15"/>
<polygon fill="midnightblue" stroke="midnightblue" points="662.495,-18.5001 672.495,-15 662.495,-11.5001 662.495,-18.5001"/>
</g>
</g>
</svg>
