<?xml version="1.0" encoding="UTF-8" standalone="no"?>
<!DOCTYPE svg PUBLIC "-//W3C//DTD SVG 1.1//EN"
 "http://www.w3.org/Graphics/SVG/1.1/DTD/svg11.dtd">
<!-- Generated by graphviz version 2.36.0 (20140111.2315)
 -->
<!-- Title: turtle.draw.TransitionFactory.createForwardTransition Pages: 1 -->
<svg width="1222pt" height="377pt"
 viewBox="0.00 0.00 1222.00 377.00" xmlns="http://www.w3.org/2000/svg" xmlns:xlink="http://www.w3.org/1999/xlink">
<g id="graph0" class="graph" transform="scale(1 1) rotate(0) translate(4 373)">
<title>turtle.draw.TransitionFactory.createForwardTransition</title>
<polygon fill="white" stroke="none" points="-4,4 -4,-373 1218,-373 1218,4 -4,4"/>
<!-- Node1 -->
<g id="node1" class="node"><title>Node1</title>
<polygon fill="#bfbfbf" stroke="black" points="0,-137 0,-167 182,-167 182,-137 0,-137"/>
<text text-anchor="start" x="8" y="-155" font-family="Helvetica,sans-Serif" font-size="10.00">turtle.draw.TransitionFactory.create</text>
<text text-anchor="middle" x="91" y="-144" font-family="Helvetica,sans-Serif" font-size="10.00">ForwardTransition</text>
</g>
<!-- Node2 -->
<g id="node2" class="node"><title>Node2</title>
<g id="a_node2"><a xlink:href="../../d0/dce/classtransitionstate_1_1_transition_state.html#ad269e6af5090eaf593a366df31d9cc58" target="_top" xlink:title="transitionstate.Transition\lState.getMove">
<polygon fill="white" stroke="black" points="232,-274 232,-304 366,-304 366,-274 232,-274"/>
<text text-anchor="start" x="240" y="-292" font-family="Helvetica,sans-Serif" font-size="10.00">transitionstate.Transition</text>
<text text-anchor="middle" x="299" y="-281" font-family="Helvetica,sans-Serif" font-size="10.00">State.getMove</text>
</a>
</g>
</g>
<!-- Node1&#45;&gt;Node2 -->
<g id="edge1" class="edge"><title>Node1&#45;&gt;Node2</title>
<path fill="none" stroke="midnightblue" d="M106.211,-167.018C128.284,-189.617 172.972,-232.532 218,-259 225,-263.115 232.665,-266.842 240.389,-270.158"/>
<polygon fill="midnightblue" stroke="midnightblue" points="239.22,-273.461 249.801,-273.999 241.865,-266.98 239.22,-273.461"/>
</g>
<!-- Node3 -->
<g id="node3" class="node"><title>Node3</title>
<g id="a_node3"><a xlink:href="../../df/dcb/classturtle_1_1_turtle.html#a0b8bdf8fc097cab5bf51d46567c2d749" target="_top" xlink:title="turtle.Turtle.getPen">
<polygon fill="white" stroke="black" points="875.5,-235.5 875.5,-254.5 982.5,-254.5 982.5,-235.5 875.5,-235.5"/>
<text text-anchor="middle" x="929" y="-242.5" font-family="Helvetica,sans-Serif" font-size="10.00">turtle.Turtle.getPen</text>
</a>
</g>
</g>
<!-- Node1&#45;&gt;Node3 -->
<g id="edge2" class="edge"><title>Node1&#45;&gt;Node3</title>
<path fill="none" stroke="midnightblue" d="M111.108,-167.206C134.659,-184.922 176.656,-213.262 218,-225 338.478,-259.205 714.765,-251.721 865.065,-247.17"/>
<polygon fill="midnightblue" stroke="midnightblue" points="865.602,-250.656 875.489,-246.848 865.386,-243.659 865.602,-250.656"/>
</g>
<!-- Node4 -->
<g id="node4" class="node"><title>Node4</title>
<g id="a_node4"><a xlink:href="../../dd/da0/classturtle_1_1draw_1_1_pen.html#aeb5df1ca76663eb6043d2c885063aeb6" target="_top" xlink:title="turtle.draw.Pen.getPenDown">
<polygon fill="white" stroke="black" points="223.5,-98.5 223.5,-117.5 374.5,-117.5 374.5,-98.5 223.5,-98.5"/>
<text text-anchor="middle" x="299" y="-105.5" font-family="Helvetica,sans-Serif" font-size="10.00">turtle.draw.Pen.getPenDown</text>
</a>
</g>
</g>
<!-- Node1&#45;&gt;Node4 -->
<g id="edge3" class="edge"><title>Node1&#45;&gt;Node4</title>
<path fill="none" stroke="midnightblue" d="M162.317,-136.981C188.85,-131.314 218.61,-124.957 243.483,-119.644"/>
<polygon fill="midnightblue" stroke="midnightblue" points="244.416,-123.024 253.465,-117.512 242.954,-116.179 244.416,-123.024"/>
</g>
<!-- Node5 -->
<g id="node5" class="node"><title>Node5</title>
<g id="a_node5"><a xlink:href="../../d8/dde/classturtle_1_1draw_1_1_pen_transition.html#aa0a682d77c6f7e56adb8a7cad589a140" target="_top" xlink:title="turtle.draw.PenTransition.set\lDistance">
<polygon fill="white" stroke="black" points="223.5,-186 223.5,-216 374.5,-216 374.5,-186 223.5,-186"/>
<text text-anchor="start" x="231.5" y="-204" font-family="Helvetica,sans-Serif" font-size="10.00">turtle.draw.PenTransition.set</text>
<text text-anchor="middle" x="299" y="-193" font-family="Helvetica,sans-Serif" font-size="10.00">Distance</text>
</a>
</g>
</g>
<!-- Node1&#45;&gt;Node5 -->
<g id="edge4" class="edge"><title>Node1&#45;&gt;Node5</title>
<path fill="none" stroke="midnightblue" d="M155.207,-167.035C177.254,-172.279 202.176,-178.207 224.956,-183.626"/>
<polygon fill="midnightblue" stroke="midnightblue" points="224.374,-187.085 234.913,-185.994 225.994,-180.275 224.374,-187.085"/>
</g>
<!-- Node17 -->
<g id="node17" class="node"><title>Node17</title>
<g id="a_node17"><a xlink:href="../../de/de7/classturtle_1_1draw_1_1_linear_transition.html#ac957ebacdb11c8535b6f67ea19c310cd" target="_top" xlink:title="turtle.draw.LinearTransition.set\lDistance">
<polygon fill="white" stroke="black" points="218,-49 218,-79 380,-79 380,-49 218,-49"/>
<text text-anchor="start" x="226" y="-67" font-family="Helvetica,sans-Serif" font-size="10.00">turtle.draw.LinearTransition.set</text>
<text text-anchor="middle" x="299" y="-56" font-family="Helvetica,sans-Serif" font-size="10.00">Distance</text>
</a>
</g>
</g>
<!-- Node1&#45;&gt;Node17 -->
<g id="edge18" class="edge"><title>Node1&#45;&gt;Node17</title>
<path fill="none" stroke="midnightblue" d="M118.944,-136.939C144.067,-123.281 182.842,-103.176 218,-89 223.757,-86.6789 229.816,-84.4372 235.917,-82.3128"/>
<polygon fill="midnightblue" stroke="midnightblue" points="237.148,-85.5917 245.503,-79.0767 234.908,-78.9595 237.148,-85.5917"/>
</g>
<!-- Node18 -->
<g id="node18" class="node"><title>Node18</title>
<g id="a_node18"><a xlink:href="../../de/d1a/classturtle_1_1draw_1_1_move_transition.html#ad82006c1e8db96a8b9f1c68cdac07b88" target="_top" xlink:title="turtle.draw.MoveTransition.set\lTurtle">
<polygon fill="white" stroke="black" points="220,-137 220,-167 378,-167 378,-137 220,-137"/>
<text text-anchor="start" x="228" y="-155" font-family="Helvetica,sans-Serif" font-size="10.00">turtle.draw.MoveTransition.set</text>
<text text-anchor="middle" x="299" y="-144" font-family="Helvetica,sans-Serif" font-size="10.00">Turtle</text>
</a>
</g>
</g>
<!-- Node1&#45;&gt;Node18 -->
<g id="edge19" class="edge"><title>Node1&#45;&gt;Node18</title>
<path fill="none" stroke="midnightblue" d="M182.055,-152C191.18,-152 200.442,-152 209.549,-152"/>
<polygon fill="midnightblue" stroke="midnightblue" points="209.751,-155.5 219.751,-152 209.751,-148.5 209.751,-155.5"/>
</g>
<!-- Node20 -->
<g id="node20" class="node"><title>Node20</title>
<g id="a_node20"><a xlink:href="../../d8/dde/classturtle_1_1draw_1_1_pen_transition.html#a8f10c259f449c09a922a2c26d9712c8d" target="_top" xlink:title="turtle.draw.PenTransition.set\lTurtle">
<polygon fill="white" stroke="black" points="223.5,-0 223.5,-30 374.5,-30 374.5,-0 223.5,-0"/>
<text text-anchor="start" x="231.5" y="-18" font-family="Helvetica,sans-Serif" font-size="10.00">turtle.draw.PenTransition.set</text>
<text text-anchor="middle" x="299" y="-7" font-family="Helvetica,sans-Serif" font-size="10.00">Turtle</text>
</a>
</g>
</g>
<!-- Node1&#45;&gt;Node20 -->
<g id="edge22" class="edge"><title>Node1&#45;&gt;Node20</title>
<path fill="none" stroke="midnightblue" d="M105.171,-136.697C126.542,-112.773 171.126,-66.5132 218,-40 221.881,-37.8049 225.979,-35.7771 230.186,-33.9081"/>
<polygon fill="midnightblue" stroke="midnightblue" points="231.612,-37.1061 239.53,-30.0665 228.95,-30.6319 231.612,-37.1061"/>
</g>
<!-- Node6 -->
<g id="node6" class="node"><title>Node6</title>
<g id="a_node6"><a xlink:href="../../d8/dde/classturtle_1_1draw_1_1_pen_transition.html#ae8155506993774930ffd88f222ee7398" target="_top" xlink:title="turtle.draw.PenTransition.createLine">
<polygon fill="white" stroke="black" points="416,-197.5 416,-216.5 602,-216.5 602,-197.5 416,-197.5"/>
<text text-anchor="middle" x="509" y="-204.5" font-family="Helvetica,sans-Serif" font-size="10.00">turtle.draw.PenTransition.createLine</text>
</a>
</g>
</g>
<!-- Node5&#45;&gt;Node6 -->
<g id="edge5" class="edge"><title>Node5&#45;&gt;Node6</title>
<path fill="none" stroke="midnightblue" d="M374.505,-203.149C384.664,-203.442 395.232,-203.747 405.776,-204.051"/>
<polygon fill="midnightblue" stroke="midnightblue" points="405.767,-207.552 415.863,-204.342 405.968,-200.555 405.767,-207.552"/>
</g>
<!-- Node16 -->
<g id="node16" class="node"><title>Node16</title>
<g id="a_node16"><a xlink:href="../../d8/dde/classturtle_1_1draw_1_1_pen_transition.html#a5c823b5721d6767fb73c7f690ddff65a" target="_top" xlink:title="turtle.draw.PenTransition.set\lEndPoint">
<polygon fill="white" stroke="black" points="433.5,-148 433.5,-178 584.5,-178 584.5,-148 433.5,-148"/>
<text text-anchor="start" x="441.5" y="-166" font-family="Helvetica,sans-Serif" font-size="10.00">turtle.draw.PenTransition.set</text>
<text text-anchor="middle" x="509" y="-155" font-family="Helvetica,sans-Serif" font-size="10.00">EndPoint</text>
</a>
</g>
</g>
<!-- Node5&#45;&gt;Node16 -->
<g id="edge17" class="edge"><title>Node5&#45;&gt;Node16</title>
<path fill="none" stroke="midnightblue" d="M374.505,-187.388C390.337,-184.496 407.162,-181.422 423.341,-178.467"/>
<polygon fill="midnightblue" stroke="midnightblue" points="424.108,-181.884 433.316,-176.644 422.85,-174.998 424.108,-181.884"/>
</g>
<!-- Node7 -->
<g id="node7" class="node"><title>Node7</title>
<g id="a_node7"><a xlink:href="../../d8/dde/classturtle_1_1draw_1_1_pen_transition.html#a431676c45414059317fdf53c2e5d539f" target="_top" xlink:title="turtle.draw.PenTransition.drawLine">
<polygon fill="white" stroke="black" points="643,-197.5 643,-216.5 821,-216.5 821,-197.5 643,-197.5"/>
<text text-anchor="middle" x="732" y="-204.5" font-family="Helvetica,sans-Serif" font-size="10.00">turtle.draw.PenTransition.drawLine</text>
</a>
</g>
</g>
<!-- Node6&#45;&gt;Node7 -->
<g id="edge6" class="edge"><title>Node6&#45;&gt;Node7</title>
<path fill="none" stroke="midnightblue" d="M602.124,-207C612.25,-207 622.588,-207 632.785,-207"/>
<polygon fill="midnightblue" stroke="midnightblue" points="632.922,-210.5 642.922,-207 632.922,-203.5 632.922,-210.5"/>
</g>
<!-- Node9 -->
<g id="node9" class="node"><title>Node9</title>
<g id="a_node9"><a xlink:href="../../d8/dde/classturtle_1_1draw_1_1_pen_transition.html#a819420d27f897da865421a925d845f0d" target="_top" xlink:title="turtle.draw.PenTransition.formatLine">
<polygon fill="white" stroke="black" points="638,-273.5 638,-292.5 826,-292.5 826,-273.5 638,-273.5"/>
<text text-anchor="middle" x="732" y="-280.5" font-family="Helvetica,sans-Serif" font-size="10.00">turtle.draw.PenTransition.formatLine</text>
</a>
</g>
</g>
<!-- Node6&#45;&gt;Node9 -->
<g id="edge9" class="edge"><title>Node6&#45;&gt;Node9</title>
<path fill="none" stroke="midnightblue" d="M537.99,-216.625C577.511,-230.216 649.749,-255.058 693.762,-270.194"/>
<polygon fill="midnightblue" stroke="midnightblue" points="692.643,-273.51 703.237,-273.453 694.919,-266.891 692.643,-273.51"/>
</g>
<!-- Node13 -->
<g id="node13" class="node"><title>Node13</title>
<g id="a_node13"><a xlink:href="../../d8/dde/classturtle_1_1draw_1_1_pen_transition.html#ae64d711ec6faa3b5411bbfe70b68d365" target="_top" xlink:title="turtle.draw.PenTransition.set\lStartPoint">
<polygon fill="white" stroke="black" points="656.5,-147 656.5,-177 807.5,-177 807.5,-147 656.5,-147"/>
<text text-anchor="start" x="664.5" y="-165" font-family="Helvetica,sans-Serif" font-size="10.00">turtle.draw.PenTransition.set</text>
<text text-anchor="middle" x="732" y="-154" font-family="Helvetica,sans-Serif" font-size="10.00">StartPoint</text>
</a>
</g>
</g>
<!-- Node6&#45;&gt;Node13 -->
<g id="edge14" class="edge"><title>Node6&#45;&gt;Node13</title>
<path fill="none" stroke="midnightblue" d="M556.868,-197.457C583.164,-192.102 616.754,-185.263 647.403,-179.022"/>
<polygon fill="midnightblue" stroke="midnightblue" points="648.137,-182.444 657.237,-177.02 646.74,-175.585 648.137,-182.444"/>
</g>
<!-- Node7&#45;&gt;Node3 -->
<g id="edge8" class="edge"><title>Node7&#45;&gt;Node3</title>
<path fill="none" stroke="midnightblue" d="M781.955,-216.54C808.381,-221.69 841.194,-228.084 869.02,-233.506"/>
<polygon fill="midnightblue" stroke="midnightblue" points="868.54,-236.979 879.025,-235.456 869.879,-230.108 868.54,-236.979"/>
</g>
<!-- Node8 -->
<g id="node8" class="node"><title>Node8</title>
<g id="a_node8"><a xlink:href="../../dd/da0/classturtle_1_1draw_1_1_pen.html#aef480a23bb1a70267119d54c79d1f31c" target="_top" xlink:title="turtle.draw.Pen.drawLine">
<polygon fill="white" stroke="black" points="862.5,-197.5 862.5,-216.5 995.5,-216.5 995.5,-197.5 862.5,-197.5"/>
<text text-anchor="middle" x="929" y="-204.5" font-family="Helvetica,sans-Serif" font-size="10.00">turtle.draw.Pen.drawLine</text>
</a>
</g>
</g>
<!-- Node7&#45;&gt;Node8 -->
<g id="edge7" class="edge"><title>Node7&#45;&gt;Node8</title>
<path fill="none" stroke="midnightblue" d="M821.087,-207C831.533,-207 842.125,-207 852.377,-207"/>
<polygon fill="midnightblue" stroke="midnightblue" points="852.497,-210.5 862.497,-207 852.497,-203.5 852.497,-210.5"/>
</g>
<!-- Node9&#45;&gt;Node3 -->
<g id="edge12" class="edge"><title>Node9&#45;&gt;Node3</title>
<path fill="none" stroke="midnightblue" d="M781.955,-273.46C808.381,-268.31 841.194,-261.916 869.02,-256.494"/>
<polygon fill="midnightblue" stroke="midnightblue" points="869.879,-259.892 879.025,-254.544 868.54,-253.021 869.879,-259.892"/>
</g>
<!-- Node10 -->
<g id="node10" class="node"><title>Node10</title>
<g id="a_node10"><a xlink:href="../../dd/da0/classturtle_1_1draw_1_1_pen.html#aa1cfa7c148b990a796edcdce0c1ef4dc" target="_top" xlink:title="turtle.draw.Pen.getColor">
<polygon fill="white" stroke="black" points="863.5,-273.5 863.5,-292.5 994.5,-292.5 994.5,-273.5 863.5,-273.5"/>
<text text-anchor="middle" x="929" y="-280.5" font-family="Helvetica,sans-Serif" font-size="10.00">turtle.draw.Pen.getColor</text>
</a>
</g>
</g>
<!-- Node9&#45;&gt;Node10 -->
<g id="edge10" class="edge"><title>Node9&#45;&gt;Node10</title>
<path fill="none" stroke="midnightblue" d="M826.217,-283C835.225,-283 844.283,-283 853.081,-283"/>
<polygon fill="midnightblue" stroke="midnightblue" points="853.271,-286.5 863.271,-283 853.271,-279.5 853.271,-286.5"/>
</g>
<!-- Node11 -->
<g id="node11" class="node"><title>Node11</title>
<g id="a_node11"><a xlink:href="../../dd/da0/classturtle_1_1draw_1_1_pen.html#acd8614ebe09681bbd4ac2ac5e4108d17" target="_top" xlink:title="turtle.draw.Pen.getDash">
<polygon fill="white" stroke="black" points="863.5,-349.5 863.5,-368.5 994.5,-368.5 994.5,-349.5 863.5,-349.5"/>
<text text-anchor="middle" x="929" y="-356.5" font-family="Helvetica,sans-Serif" font-size="10.00">turtle.draw.Pen.getDash</text>
</a>
</g>
</g>
<!-- Node9&#45;&gt;Node11 -->
<g id="edge11" class="edge"><title>Node9&#45;&gt;Node11</title>
<path fill="none" stroke="midnightblue" d="M752.331,-292.532C777.27,-304.598 822.183,-325.548 862,-340 868.326,-342.296 875.07,-344.503 881.741,-346.549"/>
<polygon fill="midnightblue" stroke="midnightblue" points="880.822,-349.927 891.405,-349.422 882.817,-343.217 880.822,-349.927"/>
</g>
<!-- Node12 -->
<g id="node12" class="node"><title>Node12</title>
<g id="a_node12"><a xlink:href="../../dd/da0/classturtle_1_1draw_1_1_pen.html#a94bdbfaa93c36af4f16c5f43364abb07" target="_top" xlink:title="turtle.draw.Pen.getWidth">
<polygon fill="white" stroke="black" points="862.5,-311.5 862.5,-330.5 995.5,-330.5 995.5,-311.5 862.5,-311.5"/>
<text text-anchor="middle" x="929" y="-318.5" font-family="Helvetica,sans-Serif" font-size="10.00">turtle.draw.Pen.getWidth</text>
</a>
</g>
</g>
<!-- Node9&#45;&gt;Node12 -->
<g id="edge13" class="edge"><title>Node9&#45;&gt;Node12</title>
<path fill="none" stroke="midnightblue" d="M781.955,-292.54C808.381,-297.69 841.194,-304.084 869.02,-309.506"/>
<polygon fill="midnightblue" stroke="midnightblue" points="868.54,-312.979 879.025,-311.456 869.879,-306.108 868.54,-312.979"/>
</g>
<!-- Node14 -->
<g id="node14" class="node"><title>Node14</title>
<g id="a_node14"><a xlink:href="../../df/dcb/classturtle_1_1_turtle.html#a29ef6cfcd7794054df8ef83724022983" target="_top" xlink:title="turtle.Turtle.getTurtle">
<polygon fill="white" stroke="black" points="871.5,-129.5 871.5,-148.5 986.5,-148.5 986.5,-129.5 871.5,-129.5"/>
<text text-anchor="middle" x="929" y="-136.5" font-family="Helvetica,sans-Serif" font-size="10.00">turtle.Turtle.getTurtle</text>
</a>
</g>
</g>
<!-- Node13&#45;&gt;Node14 -->
<g id="edge15" class="edge"><title>Node13&#45;&gt;Node14</title>
<path fill="none" stroke="midnightblue" d="M807.556,-153.206C825.262,-151.118 844.038,-148.903 861.365,-146.86"/>
<polygon fill="midnightblue" stroke="midnightblue" points="861.858,-150.326 871.379,-145.678 861.038,-143.374 861.858,-150.326"/>
</g>
<!-- Node15 -->
<g id="node15" class="node"><title>Node15</title>
<g id="a_node15"><a xlink:href="../../d4/de5/classturtle_1_1_turtle_view_controller.html#a24215ad9dea4b06da7652230ac822973" target="_top" xlink:title="turtle.TurtleViewController.getNode">
<polygon fill="white" stroke="black" points="1032,-129.5 1032,-148.5 1214,-148.5 1214,-129.5 1032,-129.5"/>
<text text-anchor="middle" x="1123" y="-136.5" font-family="Helvetica,sans-Serif" font-size="10.00">turtle.TurtleViewController.getNode</text>
</a>
</g>
</g>
<!-- Node14&#45;&gt;Node15 -->
<g id="edge16" class="edge"><title>Node14&#45;&gt;Node15</title>
<path fill="none" stroke="midnightblue" d="M986.568,-139C997.716,-139 1009.72,-139 1021.82,-139"/>
<polygon fill="midnightblue" stroke="midnightblue" points="1021.98,-142.5 1031.98,-139 1021.98,-135.5 1021.98,-142.5"/>
</g>
<!-- Node19 -->
<g id="node19" class="node"><title>Node19</title>
<g id="a_node19"><a xlink:href="../../de/d1a/classturtle_1_1draw_1_1_move_transition.html#ac05b146ef3b464435449fd413e8468af" target="_top" xlink:title="turtle.draw.MoveTransition.set\lStartPoint">
<polygon fill="white" stroke="black" points="430,-99 430,-129 588,-129 588,-99 430,-99"/>
<text text-anchor="start" x="438" y="-117" font-family="Helvetica,sans-Serif" font-size="10.00">turtle.draw.MoveTransition.set</text>
<text text-anchor="middle" x="509" y="-106" font-family="Helvetica,sans-Serif" font-size="10.00">StartPoint</text>
</a>
</g>
</g>
<!-- Node18&#45;&gt;Node19 -->
<g id="edge20" class="edge"><title>Node18&#45;&gt;Node19</title>
<path fill="none" stroke="midnightblue" d="M378.043,-137.742C391.679,-135.251 405.951,-132.644 419.837,-130.107"/>
<polygon fill="midnightblue" stroke="midnightblue" points="420.657,-133.515 429.865,-128.275 419.399,-126.629 420.657,-133.515"/>
</g>
<!-- Node19&#45;&gt;Node14 -->
<g id="edge21" class="edge"><title>Node19&#45;&gt;Node14</title>
<path fill="none" stroke="midnightblue" d="M588.132,-118.673C666.783,-123.377 786.807,-130.555 861.172,-135.003"/>
<polygon fill="midnightblue" stroke="midnightblue" points="861.162,-138.509 871.354,-135.612 861.58,-131.521 861.162,-138.509"/>
</g>
</g>
</svg>
