<?xml version="1.0" encoding="UTF-8" standalone="no"?>
<!DOCTYPE svg PUBLIC "-//W3C//DTD SVG 1.1//EN"
 "http://www.w3.org/Graphics/SVG/1.1/DTD/svg11.dtd">
<!-- Generated by graphviz version 2.36.0 (20140111.2315)
 -->
<!-- Title: turtle.draw.TransitionFactory.createTurnTransition Pages: 1 -->
<svg width="402pt" height="175pt"
 viewBox="0.00 0.00 402.00 175.00" xmlns="http://www.w3.org/2000/svg" xmlns:xlink="http://www.w3.org/1999/xlink">
<g id="graph0" class="graph" transform="scale(1 1) rotate(0) translate(4 171)">
<title>turtle.draw.TransitionFactory.createTurnTransition</title>
<polygon fill="white" stroke="none" points="-4,4 -4,-171 398,-171 398,4 -4,4"/>
<!-- Node1 -->
<g id="node1" class="node"><title>Node1</title>
<polygon fill="#bfbfbf" stroke="black" points="0,-66 0,-96 182,-96 182,-66 0,-66"/>
<text text-anchor="start" x="8" y="-84" font-family="Helvetica,sans-Serif" font-size="10.00">turtle.draw.TransitionFactory.create</text>
<text text-anchor="middle" x="91" y="-73" font-family="Helvetica,sans-Serif" font-size="10.00">TurnTransition</text>
</g>
<!-- Node2 -->
<g id="node2" class="node"><title>Node2</title>
<g id="a_node2"><a xlink:href="../../d0/dce/classtransitionstate_1_1_transition_state.html#a9fc8106774dd937fd3e8cb2e920d7560" target="_top" xlink:title="transitionstate.Transition\lState.getRotateClockwise">
<polygon fill="white" stroke="black" points="237,-137 237,-167 375,-167 375,-137 237,-137"/>
<text text-anchor="start" x="245" y="-155" font-family="Helvetica,sans-Serif" font-size="10.00">transitionstate.Transition</text>
<text text-anchor="middle" x="306" y="-144" font-family="Helvetica,sans-Serif" font-size="10.00">State.getRotateClockwise</text>
</a>
</g>
</g>
<!-- Node1&#45;&gt;Node2 -->
<g id="edge1" class="edge"><title>Node1&#45;&gt;Node2</title>
<path fill="none" stroke="midnightblue" d="M130.916,-96.009C155.693,-105.365 188.551,-117.406 218,-127 225.355,-129.396 233.097,-131.795 240.806,-134.107"/>
<polygon fill="midnightblue" stroke="midnightblue" points="239.94,-137.5 250.522,-136.982 241.926,-130.788 239.94,-137.5"/>
</g>
<!-- Node3 -->
<g id="node3" class="node"><title>Node3</title>
<g id="a_node3"><a xlink:href="../../d0/dce/classtransitionstate_1_1_transition_state.html#af00a0805dcd030e8b847cfcafef1ba57" target="_top" xlink:title="transitionstate.Transition\lState.getRotateCounterClockwise">
<polygon fill="white" stroke="black" points="218,-88 218,-118 394,-118 394,-88 218,-88"/>
<text text-anchor="start" x="226" y="-106" font-family="Helvetica,sans-Serif" font-size="10.00">transitionstate.Transition</text>
<text text-anchor="middle" x="306" y="-95" font-family="Helvetica,sans-Serif" font-size="10.00">State.getRotateCounterClockwise</text>
</a>
</g>
</g>
<!-- Node1&#45;&gt;Node3 -->
<g id="edge2" class="edge"><title>Node1&#45;&gt;Node3</title>
<path fill="none" stroke="midnightblue" d="M182.022,-90.2981C190.51,-91.1747 199.14,-92.0661 207.69,-92.9492"/>
<polygon fill="midnightblue" stroke="midnightblue" points="207.371,-96.4348 217.678,-93.9808 208.091,-89.4719 207.371,-96.4348"/>
</g>
<!-- Node4 -->
<g id="node4" class="node"><title>Node4</title>
<g id="a_node4"><a xlink:href="../../d3/d81/classturtle_1_1draw_1_1_turn_transition.html#a014d4a0a31bc28434424963bb2da76a8" target="_top" xlink:title="turtle.draw.TurnTransition.setTurn">
<polygon fill="white" stroke="black" points="220,-49.5 220,-68.5 392,-68.5 392,-49.5 220,-49.5"/>
<text text-anchor="middle" x="306" y="-56.5" font-family="Helvetica,sans-Serif" font-size="10.00">turtle.draw.TurnTransition.setTurn</text>
</a>
</g>
</g>
<!-- Node1&#45;&gt;Node4 -->
<g id="edge3" class="edge"><title>Node1&#45;&gt;Node4</title>
<path fill="none" stroke="midnightblue" d="M182.022,-71.7019C191.194,-70.7546 200.533,-69.79 209.758,-68.8372"/>
<polygon fill="midnightblue" stroke="midnightblue" points="210.123,-72.3182 219.711,-67.8092 209.404,-65.3552 210.123,-72.3182"/>
</g>
<!-- Node5 -->
<g id="node5" class="node"><title>Node5</title>
<g id="a_node5"><a xlink:href="../../dd/d1d/classturtle_1_1draw_1_1_s_logo_transition.html#a81120dd28c65f306eb2d0b39006acfa9" target="_top" xlink:title="turtle.draw.SLogoTransition.set\lTurtle">
<polygon fill="white" stroke="black" points="224.5,-0 224.5,-30 387.5,-30 387.5,-0 224.5,-0"/>
<text text-anchor="start" x="232.5" y="-18" font-family="Helvetica,sans-Serif" font-size="10.00">turtle.draw.SLogoTransition.set</text>
<text text-anchor="middle" x="306" y="-7" font-family="Helvetica,sans-Serif" font-size="10.00">Turtle</text>
</a>
</g>
</g>
<!-- Node1&#45;&gt;Node5 -->
<g id="edge4" class="edge"><title>Node1&#45;&gt;Node5</title>
<path fill="none" stroke="midnightblue" d="M137.076,-65.9122C161.047,-57.9951 191.056,-48.2524 218,-40 225.692,-37.6442 233.786,-35.231 241.814,-32.8776"/>
<polygon fill="midnightblue" stroke="midnightblue" points="242.919,-36.201 251.542,-30.0443 240.962,-29.4802 242.919,-36.201"/>
</g>
</g>
</svg>
