<?xml version="1.0" encoding="UTF-8" standalone="no"?>
<!DOCTYPE svg PUBLIC "-//W3C//DTD SVG 1.1//EN"
 "http://www.w3.org/Graphics/SVG/1.1/DTD/svg11.dtd">
<!-- Generated by graphviz version 2.36.0 (20140111.2315)
 -->
<!-- Title: interpreter.expression.SLogoExpression.loadArguments Pages: 1 -->
<svg width="2706pt" height="207pt"
 viewBox="0.00 0.00 2706.00 207.00" xmlns="http://www.w3.org/2000/svg" xmlns:xlink="http://www.w3.org/1999/xlink">
<g id="graph0" class="graph" transform="scale(1 1) rotate(0) translate(4 203)">
<title>interpreter.expression.SLogoExpression.loadArguments</title>
<polygon fill="white" stroke="none" points="-4,4 -4,-203 2702,-203 2702,4 -4,4"/>
<!-- Node1 -->
<g id="node1" class="node"><title>Node1</title>
<polygon fill="#bfbfbf" stroke="black" points="0.5,-100 0.5,-130 155.5,-130 155.5,-100 0.5,-100"/>
<text text-anchor="start" x="8.5" y="-118" font-family="Helvetica,sans-Serif" font-size="10.00">interpreter.expression.SLogo</text>
<text text-anchor="middle" x="78" y="-107" font-family="Helvetica,sans-Serif" font-size="10.00">Expression.loadArguments</text>
</g>
<!-- Node2 -->
<g id="node2" class="node"><title>Node2</title>
<g id="a_node2"><a xlink:href="../../d3/da2/classinterpreter_1_1_parser.html#aa6ccb9df4d2405de8b559ebf6fdf9c51" target="_top" xlink:title="interpreter.Parser.loadAll\lExpressionParameters">
<polygon fill="white" stroke="black" points="192,-100 192,-130 326,-130 326,-100 192,-100"/>
<text text-anchor="start" x="200" y="-118" font-family="Helvetica,sans-Serif" font-size="10.00">interpreter.Parser.loadAll</text>
<text text-anchor="middle" x="259" y="-107" font-family="Helvetica,sans-Serif" font-size="10.00">ExpressionParameters</text>
</a>
</g>
</g>
<!-- Node1&#45;&gt;Node2 -->
<g id="edge1" class="edge"><title>Node1&#45;&gt;Node2</title>
<path fill="none" stroke="midnightblue" d="M165.914,-115C174.653,-115 183.424,-115 191.895,-115"/>
<polygon fill="midnightblue" stroke="midnightblue" points="165.691,-111.5 155.691,-115 165.691,-118.5 165.691,-111.5"/>
</g>
<!-- Node3 -->
<g id="node3" class="node"><title>Node3</title>
<g id="a_node3"><a xlink:href="../../d3/da2/classinterpreter_1_1_parser.html#a27e67bfe24e33d6ac58aa3b482cd0f07" target="_top" xlink:title="interpreter.Parser.parse\lSLogoExpression">
<polygon fill="white" stroke="black" points="362.5,-100 362.5,-130 491.5,-130 491.5,-100 362.5,-100"/>
<text text-anchor="start" x="370.5" y="-118" font-family="Helvetica,sans-Serif" font-size="10.00">interpreter.Parser.parse</text>
<text text-anchor="middle" x="427" y="-107" font-family="Helvetica,sans-Serif" font-size="10.00">SLogoExpression</text>
</a>
</g>
</g>
<!-- Node2&#45;&gt;Node3 -->
<g id="edge2" class="edge"><title>Node2&#45;&gt;Node3</title>
<path fill="none" stroke="midnightblue" d="M336.247,-115C344.963,-115 353.778,-115 362.306,-115"/>
<polygon fill="midnightblue" stroke="midnightblue" points="336.085,-111.5 326.085,-115 336.085,-118.5 336.085,-111.5"/>
</g>
<!-- Node4 -->
<g id="node4" class="node"><title>Node4</title>
<g id="a_node4"><a xlink:href="../../d2/dc7/classinterpreter_1_1_interpreter.html#a2398aed9ce5fd0631e4a61eb0ae7e3eb" target="_top" xlink:title="interpreter.Interpreter.interpret">
<polygon fill="white" stroke="black" points="528,-105.5 528,-124.5 692,-124.5 692,-105.5 528,-105.5"/>
<text text-anchor="middle" x="610" y="-112.5" font-family="Helvetica,sans-Serif" font-size="10.00">interpreter.Interpreter.interpret</text>
</a>
</g>
</g>
<!-- Node3&#45;&gt;Node4 -->
<g id="edge3" class="edge"><title>Node3&#45;&gt;Node4</title>
<path fill="none" stroke="midnightblue" d="M501.581,-115C510.217,-115 519.068,-115 527.801,-115"/>
<polygon fill="midnightblue" stroke="midnightblue" points="501.559,-111.5 491.559,-115 501.559,-118.5 501.559,-111.5"/>
</g>
<!-- Node5 -->
<g id="node5" class="node"><title>Node5</title>
<g id="a_node5"><a xlink:href="../../d7/d98/classtest_1_1_math_expression_tester.html#a74350214f5fc67a0e3bcfe4b17c60b32" target="_top" xlink:title="test.MathExpressionTester.arc\lTanTest">
<polygon fill="white" stroke="black" points="741,-149 741,-179 901,-179 901,-149 741,-149"/>
<text text-anchor="start" x="749" y="-167" font-family="Helvetica,sans-Serif" font-size="10.00">test.MathExpressionTester.arc</text>
<text text-anchor="middle" x="821" y="-156" font-family="Helvetica,sans-Serif" font-size="10.00">TanTest</text>
</a>
</g>
</g>
<!-- Node4&#45;&gt;Node5 -->
<g id="edge4" class="edge"><title>Node4&#45;&gt;Node5</title>
<path fill="none" stroke="midnightblue" d="M661.871,-126.927C690.173,-133.562 725.673,-141.885 755.863,-148.963"/>
<polygon fill="midnightblue" stroke="midnightblue" points="662.328,-123.439 651.793,-124.564 660.731,-130.254 662.328,-123.439"/>
</g>
<!-- Node6 -->
<g id="node6" class="node"><title>Node6</title>
<g id="a_node6"><a xlink:href="../../de/d21/classmodel_1_1_main_model.html#a96f4ff9f640f14d713c5d90ab5704884" target="_top" xlink:title="model.MainModel.interpret\lSLogoCommand">
<polygon fill="white" stroke="black" points="748.5,-100 748.5,-130 893.5,-130 893.5,-100 748.5,-100"/>
<text text-anchor="start" x="756.5" y="-118" font-family="Helvetica,sans-Serif" font-size="10.00">model.MainModel.interpret</text>
<text text-anchor="middle" x="821" y="-107" font-family="Helvetica,sans-Serif" font-size="10.00">SLogoCommand</text>
</a>
</g>
</g>
<!-- Node4&#45;&gt;Node6 -->
<g id="edge5" class="edge"><title>Node4&#45;&gt;Node6</title>
<path fill="none" stroke="midnightblue" d="M702.211,-115C717.699,-115 733.583,-115 748.473,-115"/>
<polygon fill="midnightblue" stroke="midnightblue" points="702.104,-111.5 692.104,-115 702.104,-118.5 702.104,-111.5"/>
</g>
<!-- Node23 -->
<g id="node23" class="node"><title>Node23</title>
<g id="a_node23"><a xlink:href="../../d7/d98/classtest_1_1_math_expression_tester.html#a782c9fa3f42b7a7ac8b5eb42794c4011" target="_top" xlink:title="test.MathExpressionTester.sumTest">
<polygon fill="white" stroke="black" points="728.5,-61.5 728.5,-80.5 913.5,-80.5 913.5,-61.5 728.5,-61.5"/>
<text text-anchor="middle" x="821" y="-68.5" font-family="Helvetica,sans-Serif" font-size="10.00">test.MathExpressionTester.sumTest</text>
</a>
</g>
</g>
<!-- Node4&#45;&gt;Node23 -->
<g id="edge23" class="edge"><title>Node4&#45;&gt;Node23</title>
<path fill="none" stroke="midnightblue" d="M664.937,-103.394C684.761,-99.1501 707.394,-94.3293 728,-90 742.844,-86.8814 759.044,-83.5212 773.656,-80.5065"/>
<polygon fill="midnightblue" stroke="midnightblue" points="664.198,-99.973 655.154,-105.491 665.665,-106.818 664.198,-99.973"/>
</g>
<!-- Node7 -->
<g id="node7" class="node"><title>Node7</title>
<g id="a_node7"><a xlink:href="../../de/d21/classmodel_1_1_main_model.html#ab4985c9a187961a2d57a8a0a63ab3b18" target="_top" xlink:title="model.MainModel.interpret\lSLogoCommand">
<polygon fill="white" stroke="black" points="977.5,-125 977.5,-155 1122.5,-155 1122.5,-125 977.5,-125"/>
<text text-anchor="start" x="985.5" y="-143" font-family="Helvetica,sans-Serif" font-size="10.00">model.MainModel.interpret</text>
<text text-anchor="middle" x="1050" y="-132" font-family="Helvetica,sans-Serif" font-size="10.00">SLogoCommand</text>
</a>
</g>
</g>
<!-- Node6&#45;&gt;Node7 -->
<g id="edge6" class="edge"><title>Node6&#45;&gt;Node7</title>
<path fill="none" stroke="midnightblue" d="M903.708,-123.999C927.827,-126.655 954.03,-129.541 977.457,-132.121"/>
<polygon fill="midnightblue" stroke="midnightblue" points="903.836,-120.492 893.513,-122.876 903.069,-127.45 903.836,-120.492"/>
</g>
<!-- Node8 -->
<g id="node8" class="node"><title>Node8</title>
<g id="a_node8"><a xlink:href="../../d3/d67/classviewcontroller_1_1_main_view_controller.html#a1b77a34d9385ff9296a9dc1db8c322cb" target="_top" xlink:title="viewcontroller.MainViewController.pass\lSLogoCommand">
<polygon fill="white" stroke="black" points="950,-76 950,-106 1150,-106 1150,-76 950,-76"/>
<text text-anchor="start" x="958" y="-94" font-family="Helvetica,sans-Serif" font-size="10.00">viewcontroller.MainViewController.pass</text>
<text text-anchor="middle" x="1050" y="-83" font-family="Helvetica,sans-Serif" font-size="10.00">SLogoCommand</text>
</a>
</g>
</g>
<!-- Node6&#45;&gt;Node8 -->
<g id="edge7" class="edge"><title>Node6&#45;&gt;Node8</title>
<path fill="none" stroke="midnightblue" d="M903.683,-106.364C918.576,-104.789 934.266,-103.131 949.605,-101.509"/>
<polygon fill="midnightblue" stroke="midnightblue" points="903.089,-102.907 893.513,-107.439 903.825,-109.868 903.089,-102.907"/>
</g>
<!-- Node9 -->
<g id="node9" class="node"><title>Node9</title>
<g id="a_node9"><a xlink:href="../../d0/d7c/classviewcontroller_1_1commands_1_1_command_window_container_view_controller.html#a0d7c2e3db2080741b7b01b42a0294695" target="_top" xlink:title="viewcontroller.commands.\lCommandWindowContainerViewController.pass\lSLogoCommand">
<polygon fill="white" stroke="black" points="1186,-100.5 1186,-141.5 1428,-141.5 1428,-100.5 1186,-100.5"/>
<text text-anchor="start" x="1194" y="-129.5" font-family="Helvetica,sans-Serif" font-size="10.00">viewcontroller.commands.</text>
<text text-anchor="start" x="1194" y="-118.5" font-family="Helvetica,sans-Serif" font-size="10.00">CommandWindowContainerViewController.pass</text>
<text text-anchor="middle" x="1307" y="-107.5" font-family="Helvetica,sans-Serif" font-size="10.00">SLogoCommand</text>
</a>
</g>
</g>
<!-- Node8&#45;&gt;Node9 -->
<g id="edge8" class="edge"><title>Node8&#45;&gt;Node9</title>
<path fill="none" stroke="midnightblue" d="M1160.46,-103.877C1168.82,-104.861 1177.29,-105.857 1185.71,-106.849"/>
<polygon fill="midnightblue" stroke="midnightblue" points="1160.66,-100.377 1150.32,-102.685 1159.84,-107.329 1160.66,-100.377"/>
</g>
<!-- Node19 -->
<g id="node19" class="node"><title>Node19</title>
<g id="a_node19"><a xlink:href="../../d3/daf/classviewcontroller_1_1turtlegrid_1_1_turtle_window_view_controller.html#a0a65ca6c84f3f3e7bffa675df02c9166" target="_top" xlink:title="viewcontroller.turtlegrid.\lTurtleWindowViewController.pass\lSLogoCommand">
<polygon fill="white" stroke="black" points="1222,-40.5 1222,-81.5 1392,-81.5 1392,-40.5 1222,-40.5"/>
<text text-anchor="start" x="1230" y="-69.5" font-family="Helvetica,sans-Serif" font-size="10.00">viewcontroller.turtlegrid.</text>
<text text-anchor="start" x="1230" y="-58.5" font-family="Helvetica,sans-Serif" font-size="10.00">TurtleWindowViewController.pass</text>
<text text-anchor="middle" x="1307" y="-47.5" font-family="Helvetica,sans-Serif" font-size="10.00">SLogoCommand</text>
</a>
</g>
</g>
<!-- Node8&#45;&gt;Node19 -->
<g id="edge18" class="edge"><title>Node8&#45;&gt;Node19</title>
<path fill="none" stroke="midnightblue" d="M1160.36,-78.134C1180.94,-75.7128 1202.16,-73.216 1221.83,-70.9027"/>
<polygon fill="midnightblue" stroke="midnightblue" points="1159.84,-74.6708 1150.32,-79.3153 1160.66,-81.6228 1159.84,-74.6708"/>
</g>
<!-- Node10 -->
<g id="node10" class="node"><title>Node10</title>
<g id="a_node10"><a xlink:href="../../de/d8d/classviewcontroller_1_1commands_1_1_command_prompt_view_controller.html#afc397f419037ca0ec30bdc6e93667e86" target="_top" xlink:title="viewcontroller.commands.\lCommandPromptViewController.pass\lCommandToModel">
<polygon fill="white" stroke="black" points="1469.5,-157.5 1469.5,-198.5 1664.5,-198.5 1664.5,-157.5 1469.5,-157.5"/>
<text text-anchor="start" x="1477.5" y="-186.5" font-family="Helvetica,sans-Serif" font-size="10.00">viewcontroller.commands.</text>
<text text-anchor="start" x="1477.5" y="-175.5" font-family="Helvetica,sans-Serif" font-size="10.00">CommandPromptViewController.pass</text>
<text text-anchor="middle" x="1567" y="-164.5" font-family="Helvetica,sans-Serif" font-size="10.00">CommandToModel</text>
</a>
</g>
</g>
<!-- Node9&#45;&gt;Node10 -->
<g id="edge9" class="edge"><title>Node9&#45;&gt;Node10</title>
<path fill="none" stroke="midnightblue" d="M1411.1,-143.778C1431.55,-148.296 1452.9,-153.014 1472.99,-157.452"/>
<polygon fill="midnightblue" stroke="midnightblue" points="1411.66,-140.318 1401.14,-141.578 1410.15,-147.153 1411.66,-140.318"/>
</g>
<!-- Node14 -->
<g id="node14" class="node"><title>Node14</title>
<g id="a_node14"><a xlink:href="../../d4/dc8/classviewcontroller_1_1commands_1_1_user_defined_variables_view_controller.html#a14508efe9a049e27b8a7f4d0928b83cd" target="_top" xlink:title="viewcontroller.commands.\lUserDefinedVariablesViewController.key\lPressed">
<polygon fill="white" stroke="black" points="1464,-97.5 1464,-138.5 1670,-138.5 1670,-97.5 1464,-97.5"/>
<text text-anchor="start" x="1472" y="-126.5" font-family="Helvetica,sans-Serif" font-size="10.00">viewcontroller.commands.</text>
<text text-anchor="start" x="1472" y="-115.5" font-family="Helvetica,sans-Serif" font-size="10.00">UserDefinedVariablesViewController.key</text>
<text text-anchor="middle" x="1567" y="-104.5" font-family="Helvetica,sans-Serif" font-size="10.00">Pressed</text>
</a>
</g>
</g>
<!-- Node9&#45;&gt;Node14 -->
<g id="edge13" class="edge"><title>Node9&#45;&gt;Node14</title>
<path fill="none" stroke="midnightblue" d="M1438.58,-119.482C1447,-119.384 1455.42,-119.286 1463.68,-119.19"/>
<polygon fill="midnightblue" stroke="midnightblue" points="1438.27,-115.985 1428.31,-119.601 1438.35,-122.984 1438.27,-115.985"/>
</g>
<!-- Node11 -->
<g id="node11" class="node"><title>Node11</title>
<g id="a_node11"><a xlink:href="../../de/d8d/classviewcontroller_1_1commands_1_1_command_prompt_view_controller.html#a02e953379b9b8de02a4e15d94fe1c559" target="_top" xlink:title="viewcontroller.commands.\lCommandPromptViewController.set\lUpSubmitButton">
<polygon fill="white" stroke="black" points="1726,-157.5 1726,-198.5 1914,-198.5 1914,-157.5 1726,-157.5"/>
<text text-anchor="start" x="1734" y="-186.5" font-family="Helvetica,sans-Serif" font-size="10.00">viewcontroller.commands.</text>
<text text-anchor="start" x="1734" y="-175.5" font-family="Helvetica,sans-Serif" font-size="10.00">CommandPromptViewController.set</text>
<text text-anchor="middle" x="1820" y="-164.5" font-family="Helvetica,sans-Serif" font-size="10.00">UpSubmitButton</text>
</a>
</g>
</g>
<!-- Node10&#45;&gt;Node11 -->
<g id="edge10" class="edge"><title>Node10&#45;&gt;Node11</title>
<path fill="none" stroke="midnightblue" d="M1675.09,-178C1691.91,-178 1709.19,-178 1725.67,-178"/>
<polygon fill="midnightblue" stroke="midnightblue" points="1674.68,-174.5 1664.68,-178 1674.68,-181.5 1674.68,-174.5"/>
</g>
<!-- Node12 -->
<g id="node12" class="node"><title>Node12</title>
<g id="a_node12"><a xlink:href="../../de/d8d/classviewcontroller_1_1commands_1_1_command_prompt_view_controller.html#a6931239ae66e9bb6ebfa794b7dada7b5" target="_top" xlink:title="viewcontroller.commands.\lCommandPromptViewController.set\lUpCommandPromptHorizontalBox">
<polygon fill="white" stroke="black" points="1980,-157.5 1980,-198.5 2168,-198.5 2168,-157.5 1980,-157.5"/>
<text text-anchor="start" x="1988" y="-186.5" font-family="Helvetica,sans-Serif" font-size="10.00">viewcontroller.commands.</text>
<text text-anchor="start" x="1988" y="-175.5" font-family="Helvetica,sans-Serif" font-size="10.00">CommandPromptViewController.set</text>
<text text-anchor="middle" x="2074" y="-164.5" font-family="Helvetica,sans-Serif" font-size="10.00">UpCommandPromptHorizontalBox</text>
</a>
</g>
</g>
<!-- Node11&#45;&gt;Node12 -->
<g id="edge11" class="edge"><title>Node11&#45;&gt;Node12</title>
<path fill="none" stroke="midnightblue" d="M1924.26,-178C1942.67,-178 1961.74,-178 1979.84,-178"/>
<polygon fill="midnightblue" stroke="midnightblue" points="1924.12,-174.5 1914.12,-178 1924.12,-181.5 1924.12,-174.5"/>
</g>
<!-- Node13 -->
<g id="node13" class="node"><title>Node13</title>
<g id="a_node13"><a xlink:href="../../de/d8d/classviewcontroller_1_1commands_1_1_command_prompt_view_controller.html#a7e92ce4136e77a153ee6ef862f99052a" target="_top" xlink:title="viewcontroller.commands.\lCommandPromptViewController.\lCommandPromptViewController">
<polygon fill="white" stroke="black" points="2239.5,-157.5 2239.5,-198.5 2412.5,-198.5 2412.5,-157.5 2239.5,-157.5"/>
<text text-anchor="start" x="2247.5" y="-186.5" font-family="Helvetica,sans-Serif" font-size="10.00">viewcontroller.commands.</text>
<text text-anchor="start" x="2247.5" y="-175.5" font-family="Helvetica,sans-Serif" font-size="10.00">CommandPromptViewController.</text>
<text text-anchor="middle" x="2326" y="-164.5" font-family="Helvetica,sans-Serif" font-size="10.00">CommandPromptViewController</text>
</a>
</g>
</g>
<!-- Node12&#45;&gt;Node13 -->
<g id="edge12" class="edge"><title>Node12&#45;&gt;Node13</title>
<path fill="none" stroke="midnightblue" d="M2178.29,-178C2198.57,-178 2219.64,-178 2239.27,-178"/>
<polygon fill="midnightblue" stroke="midnightblue" points="2178.09,-174.5 2168.09,-178 2178.09,-181.5 2178.09,-174.5"/>
</g>
<!-- Node15 -->
<g id="node15" class="node"><title>Node15</title>
<g id="a_node15"><a xlink:href="../../d4/dc8/classviewcontroller_1_1commands_1_1_user_defined_variables_view_controller.html#acac3eb9c8c5f87e3ef36c56477a0cecc" target="_top" xlink:title="viewcontroller.commands.\lUserDefinedVariablesViewController.variable\lClicked">
<polygon fill="white" stroke="black" points="1706.5,-97.5 1706.5,-138.5 1933.5,-138.5 1933.5,-97.5 1706.5,-97.5"/>
<text text-anchor="start" x="1714.5" y="-126.5" font-family="Helvetica,sans-Serif" font-size="10.00">viewcontroller.commands.</text>
<text text-anchor="start" x="1714.5" y="-115.5" font-family="Helvetica,sans-Serif" font-size="10.00">UserDefinedVariablesViewController.variable</text>
<text text-anchor="middle" x="1820" y="-104.5" font-family="Helvetica,sans-Serif" font-size="10.00">Clicked</text>
</a>
</g>
</g>
<!-- Node14&#45;&gt;Node15 -->
<g id="edge14" class="edge"><title>Node14&#45;&gt;Node15</title>
<path fill="none" stroke="midnightblue" d="M1680.23,-118C1688.91,-118 1697.67,-118 1706.35,-118"/>
<polygon fill="midnightblue" stroke="midnightblue" points="1680.09,-114.5 1670.09,-118 1680.09,-121.5 1680.09,-114.5"/>
</g>
<!-- Node16 -->
<g id="node16" class="node"><title>Node16</title>
<g id="a_node16"><a xlink:href="../../d4/dc8/classviewcontroller_1_1commands_1_1_user_defined_variables_view_controller.html#a027a582fe22eab9a05fb0d723fbac644" target="_top" xlink:title="viewcontroller.commands.\lUserDefinedVariablesViewController.add\lVariableToList">
<polygon fill="white" stroke="black" points="1970,-97.5 1970,-138.5 2178,-138.5 2178,-97.5 1970,-97.5"/>
<text text-anchor="start" x="1978" y="-126.5" font-family="Helvetica,sans-Serif" font-size="10.00">viewcontroller.commands.</text>
<text text-anchor="start" x="1978" y="-115.5" font-family="Helvetica,sans-Serif" font-size="10.00">UserDefinedVariablesViewController.add</text>
<text text-anchor="middle" x="2074" y="-104.5" font-family="Helvetica,sans-Serif" font-size="10.00">VariableToList</text>
</a>
</g>
</g>
<!-- Node15&#45;&gt;Node16 -->
<g id="edge15" class="edge"><title>Node15&#45;&gt;Node16</title>
<path fill="none" stroke="midnightblue" d="M1943.93,-118C1952.64,-118 1961.37,-118 1969.95,-118"/>
<polygon fill="midnightblue" stroke="midnightblue" points="1943.73,-114.5 1933.73,-118 1943.73,-121.5 1943.73,-114.5"/>
</g>
<!-- Node17 -->
<g id="node17" class="node"><title>Node17</title>
<g id="a_node17"><a xlink:href="../../d4/dc8/classviewcontroller_1_1commands_1_1_user_defined_variables_view_controller.html#a12bbbabdbb3032751fe57b25e835eafc" target="_top" xlink:title="viewcontroller.commands.\lUserDefinedVariablesViewController.update\lVariableList">
<polygon fill="white" stroke="black" points="2214,-97.5 2214,-138.5 2438,-138.5 2438,-97.5 2214,-97.5"/>
<text text-anchor="start" x="2222" y="-126.5" font-family="Helvetica,sans-Serif" font-size="10.00">viewcontroller.commands.</text>
<text text-anchor="start" x="2222" y="-115.5" font-family="Helvetica,sans-Serif" font-size="10.00">UserDefinedVariablesViewController.update</text>
<text text-anchor="middle" x="2326" y="-104.5" font-family="Helvetica,sans-Serif" font-size="10.00">VariableList</text>
</a>
</g>
</g>
<!-- Node16&#45;&gt;Node17 -->
<g id="edge16" class="edge"><title>Node16&#45;&gt;Node17</title>
<path fill="none" stroke="midnightblue" d="M2188.33,-118C2196.73,-118 2205.21,-118 2213.6,-118"/>
<polygon fill="midnightblue" stroke="midnightblue" points="2188.13,-114.5 2178.13,-118 2188.13,-121.5 2188.13,-114.5"/>
</g>
<!-- Node18 -->
<g id="node18" class="node"><title>Node18</title>
<g id="a_node18"><a xlink:href="../../d4/dc8/classviewcontroller_1_1commands_1_1_user_defined_variables_view_controller.html#a1e84f755902379519ddf5438bc2d27ee" target="_top" xlink:title="viewcontroller.commands.\lUserDefinedVariablesViewController.update">
<polygon fill="white" stroke="black" points="2474,-103 2474,-133 2698,-133 2698,-103 2474,-103"/>
<text text-anchor="start" x="2482" y="-121" font-family="Helvetica,sans-Serif" font-size="10.00">viewcontroller.commands.</text>
<text text-anchor="middle" x="2586" y="-110" font-family="Helvetica,sans-Serif" font-size="10.00">UserDefinedVariablesViewController.update</text>
</a>
</g>
</g>
<!-- Node17&#45;&gt;Node18 -->
<g id="edge17" class="edge"><title>Node17&#45;&gt;Node18</title>
<path fill="none" stroke="midnightblue" d="M2448.5,-118C2456.9,-118 2465.33,-118 2473.67,-118"/>
<polygon fill="midnightblue" stroke="midnightblue" points="2448.29,-114.5 2438.29,-118 2448.29,-121.5 2448.29,-114.5"/>
</g>
<!-- Node20 -->
<g id="node20" class="node"><title>Node20</title>
<g id="a_node20"><a xlink:href="../../d5/dcc/classviewcontroller_1_1turtlegrid_1_1_grid_view_controller.html#a9b87e85ea14f3882c2fefa36ceb159cb" target="_top" xlink:title="viewcontroller.turtlegrid.\lGridViewController.forwardKeyPressed">
<polygon fill="white" stroke="black" points="1468.5,-49 1468.5,-79 1665.5,-79 1665.5,-49 1468.5,-49"/>
<text text-anchor="start" x="1476.5" y="-67" font-family="Helvetica,sans-Serif" font-size="10.00">viewcontroller.turtlegrid.</text>
<text text-anchor="middle" x="1567" y="-56" font-family="Helvetica,sans-Serif" font-size="10.00">GridViewController.forwardKeyPressed</text>
</a>
</g>
</g>
<!-- Node19&#45;&gt;Node20 -->
<g id="edge19" class="edge"><title>Node19&#45;&gt;Node20</title>
<path fill="none" stroke="midnightblue" d="M1402.2,-62.0953C1423.65,-62.3448 1446.49,-62.6103 1468.09,-62.8615"/>
<polygon fill="midnightblue" stroke="midnightblue" points="1402.16,-58.5948 1392.12,-61.9782 1402.08,-65.5943 1402.16,-58.5948"/>
</g>
<!-- Node22 -->
<g id="node22" class="node"><title>Node22</title>
<g id="a_node22"><a xlink:href="../../d5/dcc/classviewcontroller_1_1turtlegrid_1_1_grid_view_controller.html#a7562be13e46d86a1d5f9058462a6d189" target="_top" xlink:title="viewcontroller.turtlegrid.\lGridViewController.rightKeyPressed">
<polygon fill="white" stroke="black" points="1475.5,-0 1475.5,-30 1658.5,-30 1658.5,-0 1475.5,-0"/>
<text text-anchor="start" x="1483.5" y="-18" font-family="Helvetica,sans-Serif" font-size="10.00">viewcontroller.turtlegrid.</text>
<text text-anchor="middle" x="1567" y="-7" font-family="Helvetica,sans-Serif" font-size="10.00">GridViewController.rightKeyPressed</text>
</a>
</g>
</g>
<!-- Node19&#45;&gt;Node22 -->
<g id="edge21" class="edge"><title>Node19&#45;&gt;Node22</title>
<path fill="none" stroke="midnightblue" d="M1401.99,-44.2426C1428.02,-39.6018 1456.1,-34.5942 1481.55,-30.0568"/>
<polygon fill="midnightblue" stroke="midnightblue" points="1401.35,-40.8005 1392.12,-46.0015 1402.58,-47.6918 1401.35,-40.8005"/>
</g>
<!-- Node21 -->
<g id="node21" class="node"><title>Node21</title>
<g id="a_node21"><a xlink:href="../../d5/dcc/classviewcontroller_1_1turtlegrid_1_1_grid_view_controller.html#aacd51569d82b44633f519cc19ef5d937" target="_top" xlink:title="viewcontroller.turtlegrid.\lGridViewController.listenKeys">
<polygon fill="white" stroke="black" points="1743,-25 1743,-55 1897,-55 1897,-25 1743,-25"/>
<text text-anchor="start" x="1751" y="-43" font-family="Helvetica,sans-Serif" font-size="10.00">viewcontroller.turtlegrid.</text>
<text text-anchor="middle" x="1820" y="-32" font-family="Helvetica,sans-Serif" font-size="10.00">GridViewController.listenKeys</text>
</a>
</g>
</g>
<!-- Node20&#45;&gt;Node21 -->
<g id="edge20" class="edge"><title>Node20&#45;&gt;Node21</title>
<path fill="none" stroke="midnightblue" d="M1675.73,-53.6987C1698.33,-51.5377 1721.72,-49.3017 1742.88,-47.2787"/>
<polygon fill="midnightblue" stroke="midnightblue" points="1675.38,-50.2162 1665.76,-54.6523 1676.05,-57.1844 1675.38,-50.2162"/>
</g>
<!-- Node22&#45;&gt;Node21 -->
<g id="edge22" class="edge"><title>Node22&#45;&gt;Node21</title>
<path fill="none" stroke="midnightblue" d="M1668.76,-25.0362C1693.52,-27.5023 1719.62,-30.1015 1742.99,-32.4292"/>
<polygon fill="midnightblue" stroke="midnightblue" points="1668.91,-21.534 1658.62,-24.0256 1668.22,-28.4995 1668.91,-21.534"/>
</g>
</g>
</svg>
