<?xml version="1.0" encoding="UTF-8" standalone="no"?>
<!DOCTYPE svg PUBLIC "-//W3C//DTD SVG 1.1//EN"
 "http://www.w3.org/Graphics/SVG/1.1/DTD/svg11.dtd">
<!-- Generated by graphviz version 2.36.0 (20140111.2315)
 -->
<!-- Title: interpreter.expression.SLogoExpression.evaluate Pages: 1 -->
<svg width="384pt" height="234pt"
 viewBox="0.00 0.00 384.00 234.00" xmlns="http://www.w3.org/2000/svg" xmlns:xlink="http://www.w3.org/1999/xlink">
<g id="graph0" class="graph" transform="scale(1 1) rotate(0) translate(4 230)">
<title>interpreter.expression.SLogoExpression.evaluate</title>
<polygon fill="white" stroke="none" points="-4,4 -4,-230 380,-230 380,4 -4,4"/>
<!-- Node1 -->
<g id="node1" class="node"><title>Node1</title>
<polygon fill="#bfbfbf" stroke="black" points="0.5,-98 0.5,-128 155.5,-128 155.5,-98 0.5,-98"/>
<text text-anchor="start" x="8.5" y="-116" font-family="Helvetica,sans-Serif" font-size="10.00">interpreter.expression.SLogo</text>
<text text-anchor="middle" x="78" y="-105" font-family="Helvetica,sans-Serif" font-size="10.00">Expression.evaluate</text>
</g>
<!-- Node2 -->
<g id="node2" class="node"><title>Node2</title>
<g id="a_node2"><a xlink:href="../../d9/dba/classinterpreter_1_1expression_1_1userdefined_1_1_if_else.html#ac2fc4278e816165e08ce4338a9b0aa37" target="_top" xlink:title="interpreter.expression.userdefined.\lIfElse.evaluate">
<polygon fill="white" stroke="black" points="192,-196 192,-226 376,-226 376,-196 192,-196"/>
<text text-anchor="start" x="200" y="-214" font-family="Helvetica,sans-Serif" font-size="10.00">interpreter.expression.userdefined.</text>
<text text-anchor="middle" x="284" y="-203" font-family="Helvetica,sans-Serif" font-size="10.00">IfElse.evaluate</text>
</a>
</g>
</g>
<!-- Node1&#45;&gt;Node2 -->
<g id="edge1" class="edge"><title>Node1&#45;&gt;Node2</title>
<path fill="none" stroke="midnightblue" d="M106.574,-134.247C128.648,-150.385 160.948,-172.102 192,-186 200.374,-189.748 209.44,-193.053 218.492,-195.929"/>
<polygon fill="midnightblue" stroke="midnightblue" points="108.467,-131.294 98.3506,-128.147 104.297,-136.916 108.467,-131.294"/>
</g>
<!-- Node3 -->
<g id="node3" class="node"><title>Node3</title>
<g id="a_node3"><a xlink:href="../../dc/dd5/classinterpreter_1_1expression_1_1userdefined_1_1_for.html#a444b89591573f1c973391bdc56df7942" target="_top" xlink:title="interpreter.expression.userdefined.\lFor.evaluate">
<polygon fill="white" stroke="black" points="192,-147 192,-177 376,-177 376,-147 192,-147"/>
<text text-anchor="start" x="200" y="-165" font-family="Helvetica,sans-Serif" font-size="10.00">interpreter.expression.userdefined.</text>
<text text-anchor="middle" x="284" y="-154" font-family="Helvetica,sans-Serif" font-size="10.00">For.evaluate</text>
</a>
</g>
</g>
<!-- Node1&#45;&gt;Node3 -->
<g id="edge2" class="edge"><title>Node1&#45;&gt;Node3</title>
<path fill="none" stroke="midnightblue" d="M151.457,-130.404C174.024,-135.824 198.702,-141.752 220.525,-146.994"/>
<polygon fill="midnightblue" stroke="midnightblue" points="152.134,-126.967 141.593,-128.035 150.499,-133.773 152.134,-126.967"/>
</g>
<!-- Node4 -->
<g id="node4" class="node"><title>Node4</title>
<g id="a_node4"><a xlink:href="../../dc/d40/classinterpreter_1_1expression_1_1userdefined_1_1_repeat.html#a55261bb238b3c2859d7e18e949d55a4d" target="_top" xlink:title="interpreter.expression.userdefined.\lRepeat.evaluate">
<polygon fill="white" stroke="black" points="192,-98 192,-128 376,-128 376,-98 192,-98"/>
<text text-anchor="start" x="200" y="-116" font-family="Helvetica,sans-Serif" font-size="10.00">interpreter.expression.userdefined.</text>
<text text-anchor="middle" x="284" y="-105" font-family="Helvetica,sans-Serif" font-size="10.00">Repeat.evaluate</text>
</a>
</g>
</g>
<!-- Node1&#45;&gt;Node4 -->
<g id="edge3" class="edge"><title>Node1&#45;&gt;Node4</title>
<path fill="none" stroke="midnightblue" d="M165.66,-113C174.351,-113 183.194,-113 191.929,-113"/>
<polygon fill="midnightblue" stroke="midnightblue" points="165.543,-109.5 155.542,-113 165.542,-116.5 165.543,-109.5"/>
</g>
<!-- Node5 -->
<g id="node5" class="node"><title>Node5</title>
<g id="a_node5"><a xlink:href="../../da/d14/classinterpreter_1_1expression_1_1userdefined_1_1_do_times.html#a1fd64298ca7355566866a11ddd23c043" target="_top" xlink:title="interpreter.expression.userdefined.\lDoTimes.evaluate">
<polygon fill="white" stroke="black" points="192,-49 192,-79 376,-79 376,-49 192,-49"/>
<text text-anchor="start" x="200" y="-67" font-family="Helvetica,sans-Serif" font-size="10.00">interpreter.expression.userdefined.</text>
<text text-anchor="middle" x="284" y="-56" font-family="Helvetica,sans-Serif" font-size="10.00">DoTimes.evaluate</text>
</a>
</g>
</g>
<!-- Node1&#45;&gt;Node5 -->
<g id="edge4" class="edge"><title>Node1&#45;&gt;Node5</title>
<path fill="none" stroke="midnightblue" d="M151.457,-95.5962C174.024,-90.1757 198.702,-84.248 220.525,-79.0062"/>
<polygon fill="midnightblue" stroke="midnightblue" points="150.499,-92.2266 141.593,-97.9654 152.134,-99.033 150.499,-92.2266"/>
</g>
<!-- Node6 -->
<g id="node6" class="node"><title>Node6</title>
<g id="a_node6"><a xlink:href="../../d3/de6/classinterpreter_1_1expression_1_1syntax_1_1_command.html#a6122e37c1c79a41ce734d9ecc07d51ba" target="_top" xlink:title="interpreter.expression.syntax.\lCommand.evaluate">
<polygon fill="white" stroke="black" points="204.5,-0 204.5,-30 363.5,-30 363.5,-0 204.5,-0"/>
<text text-anchor="start" x="212.5" y="-18" font-family="Helvetica,sans-Serif" font-size="10.00">interpreter.expression.syntax.</text>
<text text-anchor="middle" x="284" y="-7" font-family="Helvetica,sans-Serif" font-size="10.00">Command.evaluate</text>
</a>
</g>
</g>
<!-- Node1&#45;&gt;Node6 -->
<g id="edge5" class="edge"><title>Node1&#45;&gt;Node6</title>
<path fill="none" stroke="midnightblue" d="M106.574,-91.7529C128.648,-75.615 160.948,-53.8985 192,-40 200.374,-36.2517 209.44,-32.9471 218.492,-30.0713"/>
<polygon fill="midnightblue" stroke="midnightblue" points="104.297,-89.0843 98.3506,-97.8533 108.467,-94.7062 104.297,-89.0843"/>
</g>
</g>
</svg>
