<?xml version="1.0" encoding="UTF-8" standalone="no"?>
<!DOCTYPE svg PUBLIC "-//W3C//DTD SVG 1.1//EN"
 "http://www.w3.org/Graphics/SVG/1.1/DTD/svg11.dtd">
<!-- Generated by graphviz version 2.36.0 (20140111.2315)
 -->
<!-- Title: model.Serialiser Pages: 1 -->
<!--zoomable 392 -->
<svg id="main" version="1.1" xmlns="http://www.w3.org/2000/svg" xmlns:xlink="http://www.w3.org/1999/xlink" xml:space="preserve" onload="init(evt)">
<style type="text/css"><![CDATA[
.edge:hover path { stroke: red; }
.edge:hover polygon { stroke: red; fill: red; }
]]></style>
<script type="text/javascript"><![CDATA[
var edges = document.getElementsByTagName('g');
if (edges && edges.length) {
  for (var i=0;i<edges.length;i++) {
    if (edges[i].id.substr(0,4)=='edge') {
      edges[i].setAttribute('class','edge');
    }
  }
}
]]></script>
        <defs>
                <circle id="rim" cx="0" cy="0" r="7"/>
                <circle id="rim2" cx="0" cy="0" r="3.5"/>
                <g id="zoomPlus">
                        <use xlink:href="#rim" fill="#404040">
                                <set attributeName="fill" to="#808080" begin="zoomplus.mouseover" end="zoomplus.mouseout"/>
                        </use>
                        <path d="M-4,0h8M0,-4v8" fill="none" stroke="white" stroke-width="1.5" pointer-events="none"/>
                </g>
                <g id="zoomMin">
                        <use xlink:href="#rim" fill="#404040">
                                <set attributeName="fill" to="#808080" begin="zoomminus.mouseover" end="zoomminus.mouseout"/>
                        </use>
                        <path d="M-4,0h8" fill="none" stroke="white" stroke-width="1.5" pointer-events="none"/>
                </g>
                <g id="dirArrow">
                        <path fill="none" stroke="white" stroke-width="1.5" d="M0,-3.0v7 M-2.5,-0.5L0,-3.0L2.5,-0.5"/>
                </g>
               <g id="resetDef">
                       <use xlink:href="#rim2" fill="#404040">
                               <set attributeName="fill" to="#808080" begin="reset.mouseover" end="reset.mouseout"/>
                       </use>
               </g>
        </defs>

<script type="text/javascript">
var viewWidth = 1038;
var viewHeight = 392;
var sectionId = 'dynsection-0';
</script>
<script xlink:href="../../svgpan.js"/>
<svg id="graph" class="graph">
<g id="viewport">
<title>model.Serialiser</title>
<polygon fill="white" stroke="none" points="-4,4 -4,-388 1034,-388 1034,4 -4,4"/>
<!-- Node1 -->
<g id="node1" class="node"><title>Node1</title>
<polygon fill="#bfbfbf" stroke="black" points="936,-196.5 936,-215.5 1030,-215.5 1030,-196.5 936,-196.5"/>
<text text-anchor="middle" x="983" y="-203.5" font-family="Helvetica,sans-Serif" font-size="10.00">model.Serialiser</text>
</g>
<!-- Node2 -->
<g id="node2" class="node"><title>Node2</title>
<g id="a_node2"><a xlink:href="../../d3/d5e/classmodel_1_1_serialisable_model.html" target="_top" xlink:title="model.SerialisableModel">
<polygon fill="white" stroke="black" points="728.5,-196.5 728.5,-215.5 861.5,-215.5 861.5,-196.5 728.5,-196.5"/>
<text text-anchor="middle" x="795" y="-203.5" font-family="Helvetica,sans-Serif" font-size="10.00">model.SerialisableModel</text>
</a>
</g>
</g>
<!-- Node2&#45;&gt;Node1 -->
<g id="edge1" class="edge"><title>Node2&#45;&gt;Node1</title>
<path fill="none" stroke="#9a32cd" stroke-dasharray="5,2" d="M871.795,-206C893.551,-206 916.609,-206 935.979,-206"/>
<polygon fill="#9a32cd" stroke="#9a32cd" points="871.577,-202.5 861.577,-206 871.577,-209.5 871.577,-202.5"/>
<text text-anchor="middle" x="899" y="-209" font-family="Helvetica,sans-Serif" font-size="10.00"> sModel</text>
</g>
<!-- Node3 -->
<g id="node3" class="node"><title>Node3</title>
<polygon fill="white" stroke="#bfbfbf" points="60.5,-298.5 60.5,-317.5 131.5,-317.5 131.5,-298.5 60.5,-298.5"/>
<text text-anchor="middle" x="96" y="-305.5" font-family="Helvetica,sans-Serif" font-size="10.00">Serializable</text>
</g>
<!-- Node3&#45;&gt;Node2 -->
<g id="edge2" class="edge"><title>Node3&#45;&gt;Node2</title>
<path fill="none" stroke="midnightblue" d="M141.685,-312.869C162.432,-314.895 187.445,-317.004 210,-318 433.495,-327.87 501.248,-340.435 710,-260 738.311,-249.092 767.168,-227.863 782.596,-215.521"/>
<polygon fill="midnightblue" stroke="midnightblue" points="141.866,-309.37 131.567,-311.855 141.168,-316.335 141.866,-309.37"/>
</g>
<!-- Node4 -->
<g id="node4" class="node"><title>Node4</title>
<g id="a_node4"><a xlink:href="../../da/dee/classmodel_1_1_user_defined_commands_model.html" target="_top" xlink:title="model.UserDefinedCommands\lModel">
<polygon fill="white" stroke="black" points="378,-245 378,-275 542,-275 542,-245 378,-245"/>
<text text-anchor="start" x="386" y="-263" font-family="Helvetica,sans-Serif" font-size="10.00">model.UserDefinedCommands</text>
<text text-anchor="middle" x="460" y="-252" font-family="Helvetica,sans-Serif" font-size="10.00">Model</text>
</a>
</g>
</g>
<!-- Node3&#45;&gt;Node4 -->
<g id="edge4" class="edge"><title>Node3&#45;&gt;Node4</title>
<path fill="none" stroke="midnightblue" d="M141.926,-310.385C194.701,-312.21 284.625,-312.258 360,-297 383.019,-292.34 407.769,-283.09 426.765,-275.005"/>
<polygon fill="midnightblue" stroke="midnightblue" points="142.008,-306.886 131.881,-310 141.74,-313.881 142.008,-306.886"/>
</g>
<!-- Node8 -->
<g id="node8" class="node"><title>Node8</title>
<g id="a_node8"><a xlink:href="../../db/d84/classmodel_1_1_command_history_model.html" target="_top" xlink:title="model.CommandHistoryModel">
<polygon fill="white" stroke="black" points="379,-196.5 379,-215.5 541,-215.5 541,-196.5 379,-196.5"/>
<text text-anchor="middle" x="460" y="-203.5" font-family="Helvetica,sans-Serif" font-size="10.00">model.CommandHistoryModel</text>
</a>
</g>
</g>
<!-- Node3&#45;&gt;Node8 -->
<g id="edge9" class="edge"><title>Node3&#45;&gt;Node8</title>
<path fill="none" stroke="midnightblue" d="M141.939,-304.164C212.408,-297.806 342.695,-284.538 360,-272 374.808,-261.27 364.384,-247.208 378,-235 387.898,-226.126 400.704,-219.917 413.199,-215.593"/>
<polygon fill="midnightblue" stroke="midnightblue" points="141.232,-300.713 131.583,-305.087 141.854,-307.685 141.232,-300.713"/>
</g>
<!-- Node10 -->
<g id="node10" class="node"><title>Node10</title>
<g id="a_node10"><a xlink:href="../../df/d55/classmodel_1_1_user_defined_variables_model.html" target="_top" xlink:title="model.UserDefinedVariables\lModel">
<polygon fill="white" stroke="black" points="384,-128 384,-158 536,-158 536,-128 384,-128"/>
<text text-anchor="start" x="392" y="-146" font-family="Helvetica,sans-Serif" font-size="10.00">model.UserDefinedVariables</text>
<text text-anchor="middle" x="460" y="-135" font-family="Helvetica,sans-Serif" font-size="10.00">Model</text>
</a>
</g>
</g>
<!-- Node3&#45;&gt;Node10 -->
<g id="edge12" class="edge"><title>Node3&#45;&gt;Node10</title>
<path fill="none" stroke="midnightblue" d="M141.898,-306.472C159.676,-303.601 178.945,-297.289 192,-284 216.629,-258.929 184.595,-231.285 210,-207 259.024,-160.139 294.579,-196.871 360,-179 380.818,-173.313 403.478,-165.22 421.859,-158.148"/>
<polygon fill="midnightblue" stroke="midnightblue" points="141.131,-303.042 131.66,-307.792 142.026,-309.985 141.131,-303.042"/>
</g>
<!-- Node4&#45;&gt;Node2 -->
<g id="edge3" class="edge"><title>Node4&#45;&gt;Node2</title>
<path fill="none" stroke="#9a32cd" stroke-dasharray="5,2" d="M551.983,-246.226C599.171,-238.962 657.725,-229.76 710,-221 720.227,-219.286 731.142,-217.388 741.604,-215.535"/>
<polygon fill="#9a32cd" stroke="#9a32cd" points="551.445,-242.768 542.093,-247.746 552.508,-249.687 551.445,-242.768"/>
<text text-anchor="middle" x="635" y="-248" font-family="Helvetica,sans-Serif" font-size="10.00"> myUserDefinedMethodsModel</text>
</g>
<!-- Node5 -->
<g id="node5" class="node"><title>Node5</title>
<polygon fill="white" stroke="#bfbfbf" points="42.5,-354 42.5,-384 149.5,-384 149.5,-354 42.5,-354"/>
<text text-anchor="start" x="50.5" y="-372" font-family="Helvetica,sans-Serif" font-size="10.00">Map&lt; String, List&lt;</text>
<text text-anchor="middle" x="96" y="-361" font-family="Helvetica,sans-Serif" font-size="10.00"> String &gt; &gt;</text>
</g>
<!-- Node5&#45;&gt;Node4 -->
<g id="edge5" class="edge"><title>Node5&#45;&gt;Node4</title>
<path fill="none" stroke="#9a32cd" stroke-dasharray="5,2" d="M159.751,-362.875C214.081,-356.164 294.078,-342.869 360,-318 388.702,-307.172 418.698,-288.382 438.044,-275.129"/>
<polygon fill="#9a32cd" stroke="#9a32cd" points="159.09,-359.429 149.576,-364.092 159.921,-366.379 159.09,-359.429"/>
<text text-anchor="middle" x="285" y="-358" font-family="Helvetica,sans-Serif" font-size="10.00"> myDefinedCommandVariables</text>
</g>
<!-- Node6 -->
<g id="node6" class="node"><title>Node6</title>
<polygon fill="white" stroke="#bfbfbf" points="54,-125.5 54,-144.5 138,-144.5 138,-125.5 54,-125.5"/>
<text text-anchor="middle" x="96" y="-132.5" font-family="Helvetica,sans-Serif" font-size="10.00">Set&lt; String &gt;</text>
</g>
<!-- Node6&#45;&gt;Node4 -->
<g id="edge6" class="edge"><title>Node6&#45;&gt;Node4</title>
<path fill="none" stroke="#9a32cd" stroke-dasharray="5,2" d="M148.427,-135.769C163.919,-138.337 179.981,-143.641 192,-154 209.891,-169.419 192.294,-188.369 210,-204 222.768,-215.271 310.014,-233.203 377.673,-245.73"/>
<polygon fill="#9a32cd" stroke="#9a32cd" points="148.747,-132.281 138.377,-134.45 147.837,-139.221 148.747,-132.281"/>
<text text-anchor="middle" x="285" y="-245" font-family="Helvetica,sans-Serif" font-size="10.00"> myCommands</text>
</g>
<!-- Node6&#45;&gt;Node10 -->
<g id="edge13" class="edge"><title>Node6&#45;&gt;Node10</title>
<path fill="none" stroke="#9a32cd" stroke-dasharray="5,2" d="M148.187,-133.319C201.209,-131.927 286.449,-130.664 360,-134 367.758,-134.352 375.848,-134.858 383.913,-135.454"/>
<polygon fill="#9a32cd" stroke="#9a32cd" points="147.926,-129.825 138.025,-133.598 148.118,-136.822 147.926,-129.825"/>
<text text-anchor="middle" x="285" y="-137" font-family="Helvetica,sans-Serif" font-size="10.00"> myVariables</text>
</g>
<!-- Node7 -->
<g id="node7" class="node"><title>Node7</title>
<polygon fill="white" stroke="#bfbfbf" points="0.5,-245 0.5,-275 191.5,-275 191.5,-245 0.5,-245"/>
<text text-anchor="start" x="8.5" y="-263" font-family="Helvetica,sans-Serif" font-size="10.00">Map&lt; String, interpreter.expression.</text>
<text text-anchor="middle" x="96" y="-252" font-family="Helvetica,sans-Serif" font-size="10.00">SLogoExpression &gt;</text>
</g>
<!-- Node7&#45;&gt;Node4 -->
<g id="edge7" class="edge"><title>Node7&#45;&gt;Node4</title>
<path fill="none" stroke="#9a32cd" stroke-dasharray="5,2" d="M201.953,-260C257.97,-260 325.865,-260 377.806,-260"/>
<polygon fill="#9a32cd" stroke="#9a32cd" points="201.638,-256.5 191.638,-260 201.638,-263.5 201.638,-256.5"/>
<text text-anchor="middle" x="285" y="-263" font-family="Helvetica,sans-Serif" font-size="10.00"> myDefinedCommands</text>
</g>
<!-- Node8&#45;&gt;Node2 -->
<g id="edge8" class="edge"><title>Node8&#45;&gt;Node2</title>
<path fill="none" stroke="#9a32cd" stroke-dasharray="5,2" d="M551.453,-206C607.392,-206 677.917,-206 728.479,-206"/>
<polygon fill="#9a32cd" stroke="#9a32cd" points="551.186,-202.5 541.186,-206 551.186,-209.5 551.186,-202.5"/>
<text text-anchor="middle" x="635" y="-209" font-family="Helvetica,sans-Serif" font-size="10.00"> myCommandHistoryModel</text>
</g>
<!-- Node9 -->
<g id="node9" class="node"><title>Node9</title>
<polygon fill="white" stroke="#bfbfbf" points="54,-163.5 54,-182.5 138,-182.5 138,-163.5 54,-163.5"/>
<text text-anchor="middle" x="96" y="-170.5" font-family="Helvetica,sans-Serif" font-size="10.00">List&lt; String &gt;</text>
</g>
<!-- Node9&#45;&gt;Node8 -->
<g id="edge10" class="edge"><title>Node9&#45;&gt;Node8</title>
<path fill="none" stroke="#9a32cd" stroke-dasharray="5,2" d="M148.23,-176.064C201.287,-179.432 286.554,-185.391 360,-193 369.828,-194.018 380.188,-195.228 390.355,-196.492"/>
<polygon fill="#9a32cd" stroke="#9a32cd" points="148.261,-172.559 138.062,-175.425 147.822,-179.545 148.261,-172.559"/>
<text text-anchor="middle" x="285" y="-196" font-family="Helvetica,sans-Serif" font-size="10.00"> commandHistory</text>
</g>
<!-- Node10&#45;&gt;Node2 -->
<g id="edge11" class="edge"><title>Node10&#45;&gt;Node2</title>
<path fill="none" stroke="#9a32cd" stroke-dasharray="5,2" d="M545.995,-159.08C608.496,-170.905 691.337,-186.577 743.665,-196.477"/>
<polygon fill="#9a32cd" stroke="#9a32cd" points="546.623,-155.637 536.147,-157.217 545.322,-162.515 546.623,-155.637"/>
<text text-anchor="middle" x="635" y="-193" font-family="Helvetica,sans-Serif" font-size="10.00"> myUserDefinedVariablesModel</text>
</g>
<!-- Node11 -->
<g id="node11" class="node"><title>Node11</title>
<polygon fill="white" stroke="#bfbfbf" points="32,-87.5 32,-106.5 160,-106.5 160,-87.5 32,-87.5"/>
<text text-anchor="middle" x="96" y="-94.5" font-family="Helvetica,sans-Serif" font-size="10.00">Map&lt; String, Double &gt;</text>
</g>
<!-- Node11&#45;&gt;Node10 -->
<g id="edge14" class="edge"><title>Node11&#45;&gt;Node10</title>
<path fill="none" stroke="#9a32cd" stroke-dasharray="5,2" d="M170.411,-99.0275C223.399,-101.353 296.495,-106.337 360,-117 376.123,-119.707 393.443,-123.827 409.018,-127.993"/>
<polygon fill="#9a32cd" stroke="#9a32cd" points="170.228,-95.5169 160.09,-98.5969 169.936,-102.511 170.228,-95.5169"/>
<text text-anchor="middle" x="285" y="-120" font-family="Helvetica,sans-Serif" font-size="10.00"> myDefinedVariables</text>
</g>
<!-- Node12 -->
<g id="node12" class="node"><title>Node12</title>
<g id="a_node12"><a xlink:href="../../df/df6/classinterpreter_1_1result_1_1_s_logo_result.html" target="_top" xlink:title="interpreter.result.SLogo\lResult">
<polygon fill="white" stroke="black" points="395,-44 395,-74 525,-74 525,-44 395,-44"/>
<text text-anchor="start" x="403" y="-62" font-family="Helvetica,sans-Serif" font-size="10.00">interpreter.result.SLogo</text>
<text text-anchor="middle" x="460" y="-51" font-family="Helvetica,sans-Serif" font-size="10.00">Result</text>
</a>
</g>
</g>
<!-- Node12&#45;&gt;Node2 -->
<g id="edge15" class="edge"><title>Node12&#45;&gt;Node2</title>
<path fill="none" stroke="#9a32cd" stroke-dasharray="5,2" d="M524.235,-77.0509C575.676,-92.8583 649.408,-118.106 710,-149 737.319,-162.929 766.307,-184.256 782.075,-196.489"/>
<polygon fill="#9a32cd" stroke="#9a32cd" points="525.162,-73.6746 514.577,-74.1133 523.126,-80.3717 525.162,-73.6746"/>
<text text-anchor="middle" x="635" y="-152" font-family="Helvetica,sans-Serif" font-size="10.00"> mySLogoResult</text>
</g>
<!-- Node13 -->
<g id="node13" class="node"><title>Node13</title>
<polygon fill="white" stroke="#bfbfbf" points="49.5,-49.5 49.5,-68.5 142.5,-68.5 142.5,-49.5 49.5,-49.5"/>
<text text-anchor="middle" x="96" y="-56.5" font-family="Helvetica,sans-Serif" font-size="10.00">ResourceBundle</text>
</g>
<!-- Node13&#45;&gt;Node12 -->
<g id="edge16" class="edge"><title>Node13&#45;&gt;Node12</title>
<path fill="none" stroke="#9a32cd" stroke-dasharray="5,2" d="M152.962,-59C218.339,-59 326.279,-59 394.948,-59"/>
<polygon fill="#9a32cd" stroke="#9a32cd" points="152.848,-55.5001 142.848,-59 152.848,-62.5001 152.848,-55.5001"/>
<text text-anchor="middle" x="285" y="-62" font-family="Helvetica,sans-Serif" font-size="10.00"> myProperties</text>
</g>
<!-- Node14 -->
<g id="node14" class="node"><title>Node14</title>
<polygon fill="white" stroke="#bfbfbf" points="15,-0 15,-30 177,-30 177,-0 15,-0"/>
<text text-anchor="start" x="23" y="-18" font-family="Helvetica,sans-Serif" font-size="10.00">List&lt; transitionstate.Transition</text>
<text text-anchor="middle" x="96" y="-7" font-family="Helvetica,sans-Serif" font-size="10.00">State &gt;</text>
</g>
<!-- Node14&#45;&gt;Node12 -->
<g id="edge17" class="edge"><title>Node14&#45;&gt;Node12</title>
<path fill="none" stroke="#9a32cd" stroke-dasharray="5,2" d="M187.07,-24.019C237.905,-29.3381 302.566,-36.4856 360,-44 371.29,-45.4771 383.284,-47.1804 394.882,-48.8973"/>
<polygon fill="#9a32cd" stroke="#9a32cd" points="187.402,-20.5348 177.093,-22.98 186.677,-27.4971 187.402,-20.5348"/>
<text text-anchor="middle" x="285" y="-47" font-family="Helvetica,sans-Serif" font-size="10.00"> myTransitionStates</text>
</g>
</g>
</svg>
        <g id="navigator" transform="translate(0 0)" fill="#404254">
                <rect fill="#f2f5e9" fill-opacity="0.5" stroke="#606060" stroke-width=".5" x="0" y="0" width="60" height="60"/>
                <use id="zoomplus" xlink:href="#zoomPlus" x="17" y="9" onmousedown="handleZoom(evt,'in')"/>
                <use id="zoomminus" xlink:href="#zoomMin" x="42" y="9" onmousedown="handleZoom(evt,'out')"/>
                <use id="reset" xlink:href="#resetDef" x="30" y="36" onmousedown="handleReset()"/>
                <g id="arrowUp" xlink:href="#dirArrow" transform="translate(30 24)" onmousedown="handlePan(0,-1)">
                  <use xlink:href="#rim" fill="#404040">
                        <set attributeName="fill" to="#808080" begin="arrowUp.mouseover" end="arrowUp.mouseout"/>
                  </use>
                  <path fill="none" stroke="white" stroke-width="1.5" d="M0,-3.0v7 M-2.5,-0.5L0,-3.0L2.5,-0.5"/>
                </g>
                <g id="arrowRight" xlink:href="#dirArrow" transform="rotate(90) translate(36 -43)" onmousedown="handlePan(1,0)">
                  <use xlink:href="#rim" fill="#404040">
                        <set attributeName="fill" to="#808080" begin="arrowRight.mouseover" end="arrowRight.mouseout"/>
                  </use>
                  <path fill="none" stroke="white" stroke-width="1.5" d="M0,-3.0v7 M-2.5,-0.5L0,-3.0L2.5,-0.5"/>
                </g>
                <g id="arrowDown" xlink:href="#dirArrow" transform="rotate(180) translate(-30 -48)" onmousedown="handlePan(0,1)">
                  <use xlink:href="#rim" fill="#404040">
                        <set attributeName="fill" to="#808080" begin="arrowDown.mouseover" end="arrowDown.mouseout"/>
                  </use>
                  <path fill="none" stroke="white" stroke-width="1.5" d="M0,-3.0v7 M-2.5,-0.5L0,-3.0L2.5,-0.5"/>
                </g>
                <g id="arrowLeft" xlink:href="#dirArrow" transform="rotate(270) translate(-36 17)" onmousedown="handlePan(-1,0)">
                  <use xlink:href="#rim" fill="#404040">
                        <set attributeName="fill" to="#808080" begin="arrowLeft.mouseover" end="arrowLeft.mouseout"/>
                  </use>
                  <path fill="none" stroke="white" stroke-width="1.5" d="M0,-3.0v7 M-2.5,-0.5L0,-3.0L2.5,-0.5"/>
                </g>
        </g>
        <svg viewBox="0 0 15 15" width="100%" height="30px" preserveAspectRatio="xMaxYMin meet">
         <g id="arrow_out" transform="scale(0.3 0.3)">
          <a xlink:href="classmodel_1_1_serialiser__coll__graph_org.svg" target="_base">
           <rect id="button" ry="5" rx="5" y="6" x="6" height="38" width="38"
                fill="#f2f5e9" fill-opacity="0.5" stroke="#606060" stroke-width="1.0"/>
           <path id="arrow"
             d="M 11.500037,31.436501 C 11.940474,20.09759 22.043105,11.32322 32.158766,21.979434 L 37.068811,17.246167 C 37.068811,17.246167 37.088388,32 37.088388,32 L 22.160133,31.978069 C 22.160133,31.978069 26.997745,27.140456 26.997745,27.140456 C 18.528582,18.264221 13.291696,25.230495 11.500037,31.436501 z"
             style="fill:#404040;"/>
          </a>
         </g>
        </svg>
</svg>
