<?xml version="1.0" encoding="UTF-8" standalone="no"?>
<!DOCTYPE svg PUBLIC "-//W3C//DTD SVG 1.1//EN"
 "http://www.w3.org/Graphics/SVG/1.1/DTD/svg11.dtd">
<!-- Generated by graphviz version 2.36.0 (20140111.2315)
 -->
<!-- Title: turtle.TurtleImage Pages: 1 -->
<svg width="247pt" height="96pt"
 viewBox="0.00 0.00 247.00 96.00" xmlns="http://www.w3.org/2000/svg" xmlns:xlink="http://www.w3.org/1999/xlink">
<g id="graph0" class="graph" transform="scale(1 1) rotate(0) translate(4 92)">
<title>turtle.TurtleImage</title>
<polygon fill="white" stroke="none" points="-4,4 -4,-92 243,-92 243,4 -4,4"/>
<!-- Node1 -->
<g id="node1" class="node"><title>Node1</title>
<polygon fill="#bfbfbf" stroke="black" points="47.5,-0.5 47.5,-19.5 148.5,-19.5 148.5,-0.5 47.5,-0.5"/>
<text text-anchor="middle" x="98" y="-7.5" font-family="Helvetica,sans-Serif" font-size="10.00">turtle.TurtleImage</text>
</g>
<!-- Node2 -->
<g id="node2" class="node"><title>Node2</title>
<polygon fill="white" stroke="#bfbfbf" points="0,-68.5 0,-87.5 46,-87.5 46,-68.5 0,-68.5"/>
<text text-anchor="middle" x="23" y="-75.5" font-family="Helvetica,sans-Serif" font-size="10.00">Group</text>
</g>
<!-- Node2&#45;&gt;Node1 -->
<g id="edge1" class="edge"><title>Node2&#45;&gt;Node1</title>
<path fill="none" stroke="midnightblue" d="M40.7134,-61.4122C55.4469,-48.4468 75.891,-30.4559 87.9533,-19.8411"/>
<polygon fill="midnightblue" stroke="midnightblue" points="37.9999,-59.1378 32.8049,-68.3717 42.6243,-64.3928 37.9999,-59.1378"/>
</g>
<!-- Node3 -->
<g id="node3" class="node"><title>Node3</title>
<polygon fill="white" stroke="#bfbfbf" points="64,-68.5 64,-87.5 132,-87.5 132,-68.5 64,-68.5"/>
<text text-anchor="middle" x="98" y="-75.5" font-family="Helvetica,sans-Serif" font-size="10.00">Dimension</text>
</g>
<!-- Node3&#45;&gt;Node1 -->
<g id="edge2" class="edge"><title>Node3&#45;&gt;Node1</title>
<path fill="none" stroke="#9a32cd" stroke-dasharray="5,2" d="M98,-58.0413C98,-45.4724 98,-29.5631 98,-19.8411"/>
<polygon fill="#9a32cd" stroke="#9a32cd" points="94.5001,-58.3716 98,-68.3717 101.5,-58.3717 94.5001,-58.3716"/>
<text text-anchor="middle" x="118" y="-41.5" font-family="Helvetica,sans-Serif" font-size="10.00"> ourSize</text>
</g>
<!-- Node4 -->
<g id="node4" class="node"><title>Node4</title>
<polygon fill="white" stroke="#bfbfbf" points="150.5,-68.5 150.5,-87.5 191.5,-87.5 191.5,-68.5 150.5,-68.5"/>
<text text-anchor="middle" x="171" y="-75.5" font-family="Helvetica,sans-Serif" font-size="10.00">Color</text>
</g>
<!-- Node4&#45;&gt;Node1 -->
<g id="edge3" class="edge"><title>Node4&#45;&gt;Node1</title>
<path fill="none" stroke="#9a32cd" stroke-dasharray="5,2" d="M160.292,-59.7404C155.291,-52.5069 148.916,-44.3267 142,-38 134.064,-30.741 123.9,-24.3546 115.341,-19.6179"/>
<polygon fill="#9a32cd" stroke="#9a32cd" points="157.419,-61.7418 165.829,-68.1858 163.273,-57.9038 157.419,-61.7418"/>
<text text-anchor="middle" x="196" y="-41.5" font-family="Helvetica,sans-Serif" font-size="10.00"> ourSelectedColor</text>
</g>
</g>
</svg>
