<?xml version="1.0" encoding="UTF-8" standalone="no"?>
<!DOCTYPE svg PUBLIC "-//W3C//DTD SVG 1.1//EN"
 "http://www.w3.org/Graphics/SVG/1.1/DTD/svg11.dtd">
<!-- Generated by graphviz version 2.36.0 (20140111.2315)
 -->
<!-- Title: viewcontroller.turtlegrid.SLogoLabeledContainer Pages: 1 -->
<svg width="287pt" height="164pt"
 viewBox="0.00 0.00 287.00 164.00" xmlns="http://www.w3.org/2000/svg" xmlns:xlink="http://www.w3.org/1999/xlink">
<g id="graph0" class="graph" transform="scale(1 1) rotate(0) translate(4 160)">
<title>viewcontroller.turtlegrid.SLogoLabeledContainer</title>
<polygon fill="white" stroke="none" points="-4,4 -4,-160 283,-160 283,4 -4,4"/>
<!-- Node1 -->
<g id="node1" class="node"><title>Node1</title>
<polygon fill="#bfbfbf" stroke="black" points="73.5,-69 73.5,-99 204.5,-99 204.5,-69 73.5,-69"/>
<text text-anchor="start" x="81.5" y="-87" font-family="Helvetica,sans-Serif" font-size="10.00">viewcontroller.turtlegrid.</text>
<text text-anchor="middle" x="139" y="-76" font-family="Helvetica,sans-Serif" font-size="10.00">SLogoLabeledContainer</text>
</g>
<!-- Node3 -->
<g id="node3" class="node"><title>Node3</title>
<g id="a_node3"><a xlink:href="../../db/dbf/classviewcontroller_1_1turtlegrid_1_1_s_logo_color_picker.html" target="_top" xlink:title="viewcontroller.turtlegrid.\lSLogoColorPicker">
<polygon fill="white" stroke="black" points="-0.5,-1 -0.5,-31 130.5,-31 130.5,-1 -0.5,-1"/>
<text text-anchor="start" x="7.5" y="-19" font-family="Helvetica,sans-Serif" font-size="10.00">viewcontroller.turtlegrid.</text>
<text text-anchor="middle" x="65" y="-8" font-family="Helvetica,sans-Serif" font-size="10.00">SLogoColorPicker</text>
</a>
</g>
</g>
<!-- Node1&#45;&gt;Node3 -->
<g id="edge2" class="edge"><title>Node1&#45;&gt;Node3</title>
<path fill="none" stroke="midnightblue" d="M115.475,-62.0184C104.147,-51.9145 90.8659,-40.0696 80.7713,-31.0663"/>
<polygon fill="midnightblue" stroke="midnightblue" points="113.15,-64.6348 122.943,-68.679 117.81,-59.4108 113.15,-64.6348"/>
</g>
<!-- Node4 -->
<g id="node4" class="node"><title>Node4</title>
<g id="a_node4"><a xlink:href="../../d4/d7d/classviewcontroller_1_1turtlegrid_1_1_s_logo_slider.html" target="_top" xlink:title="viewcontroller.turtlegrid.\lSLogoSlider">
<polygon fill="white" stroke="black" points="148.5,-1 148.5,-31 279.5,-31 279.5,-1 148.5,-1"/>
<text text-anchor="start" x="156.5" y="-19" font-family="Helvetica,sans-Serif" font-size="10.00">viewcontroller.turtlegrid.</text>
<text text-anchor="middle" x="214" y="-8" font-family="Helvetica,sans-Serif" font-size="10.00">SLogoSlider</text>
</a>
</g>
</g>
<!-- Node1&#45;&gt;Node4 -->
<g id="edge3" class="edge"><title>Node1&#45;&gt;Node4</title>
<path fill="none" stroke="midnightblue" d="M162.843,-62.0184C174.324,-51.9145 187.785,-40.0696 198.016,-31.0663"/>
<polygon fill="midnightblue" stroke="midnightblue" points="160.469,-59.4452 155.274,-68.679 165.093,-64.7002 160.469,-59.4452"/>
</g>
<!-- Node2 -->
<g id="node2" class="node"><title>Node2</title>
<polygon fill="white" stroke="#bfbfbf" points="118,-136.5 118,-155.5 160,-155.5 160,-136.5 118,-136.5"/>
<text text-anchor="middle" x="139" y="-143.5" font-family="Helvetica,sans-Serif" font-size="10.00">HBox</text>
</g>
<!-- Node2&#45;&gt;Node1 -->
<g id="edge1" class="edge"><title>Node2&#45;&gt;Node1</title>
<path fill="none" stroke="midnightblue" d="M139,-126.371C139,-117.585 139,-107.272 139,-99.1408"/>
<polygon fill="midnightblue" stroke="midnightblue" points="135.5,-126.403 139,-136.403 142.5,-126.403 135.5,-126.403"/>
</g>
</g>
</svg>
