<?xml version="1.0" encoding="UTF-8" standalone="no"?>
<!DOCTYPE svg PUBLIC "-//W3C//DTD SVG 1.1//EN"
 "http://www.w3.org/Graphics/SVG/1.1/DTD/svg11.dtd">
<!-- Generated by graphviz version 2.36.0 (20140111.2315)
 -->
<!-- Title: application.MessageBox.createOkayButton Pages: 1 -->
<svg width="1472pt" height="371pt"
 viewBox="0.00 0.00 1472.00 371.00" xmlns="http://www.w3.org/2000/svg" xmlns:xlink="http://www.w3.org/1999/xlink">
<g id="graph0" class="graph" transform="scale(1 1) rotate(0) translate(4 367)">
<title>application.MessageBox.createOkayButton</title>
<polygon fill="white" stroke="none" points="-4,4 -4,-367 1468,-367 1468,4 -4,4"/>
<!-- Node1 -->
<g id="node1" class="node"><title>Node1</title>
<polygon fill="#bfbfbf" stroke="black" points="0,-44 0,-74 166,-74 166,-44 0,-44"/>
<text text-anchor="start" x="8" y="-62" font-family="Helvetica,sans-Serif" font-size="10.00">application.MessageBox.create</text>
<text text-anchor="middle" x="83" y="-51" font-family="Helvetica,sans-Serif" font-size="10.00">OkayButton</text>
</g>
<!-- Node2 -->
<g id="node2" class="node"><title>Node2</title>
<g id="a_node2"><a xlink:href="../../d6/dd4/classapplication_1_1_message_box.html#a6c41f7d51b489df9b0a577d1a318c58d" target="_top" xlink:title="application.MessageBox.create\lMessageBox">
<polygon fill="white" stroke="black" points="202,-44 202,-74 368,-74 368,-44 202,-44"/>
<text text-anchor="start" x="210" y="-62" font-family="Helvetica,sans-Serif" font-size="10.00">application.MessageBox.create</text>
<text text-anchor="middle" x="285" y="-51" font-family="Helvetica,sans-Serif" font-size="10.00">MessageBox</text>
</a>
</g>
</g>
<!-- Node1&#45;&gt;Node2 -->
<g id="edge1" class="edge"><title>Node1&#45;&gt;Node2</title>
<path fill="none" stroke="midnightblue" d="M176.466,-59C184.914,-59 193.434,-59 201.783,-59"/>
<polygon fill="midnightblue" stroke="midnightblue" points="176.213,-55.5001 166.213,-59 176.213,-62.5001 176.213,-55.5001"/>
</g>
<!-- Node3 -->
<g id="node3" class="node"><title>Node3</title>
<g id="a_node3"><a xlink:href="../../d6/dd4/classapplication_1_1_message_box.html#a272fc424b595a91a6d2048981ac95e5b" target="_top" xlink:title="application.MessageBox.show">
<polygon fill="white" stroke="black" points="404.5,-49.5 404.5,-68.5 563.5,-68.5 563.5,-49.5 404.5,-49.5"/>
<text text-anchor="middle" x="484" y="-56.5" font-family="Helvetica,sans-Serif" font-size="10.00">application.MessageBox.show</text>
</a>
</g>
</g>
<!-- Node2&#45;&gt;Node3 -->
<g id="edge2" class="edge"><title>Node2&#45;&gt;Node3</title>
<path fill="none" stroke="midnightblue" d="M378.337,-59C387.081,-59 395.89,-59 404.487,-59"/>
<polygon fill="midnightblue" stroke="midnightblue" points="378.119,-55.5001 368.119,-59 378.119,-62.5001 378.119,-55.5001"/>
</g>
<!-- Node4 -->
<g id="node4" class="node"><title>Node4</title>
<g id="a_node4"><a xlink:href="../../da/d4e/classviewcontroller_1_1_view.html#a98e7b6a5716e94a0052d7bb51dc3a404" target="_top" xlink:title="viewcontroller.View.show\lMessage">
<polygon fill="white" stroke="black" points="600,-44 600,-74 732,-74 732,-44 600,-44"/>
<text text-anchor="start" x="608" y="-62" font-family="Helvetica,sans-Serif" font-size="10.00">viewcontroller.View.show</text>
<text text-anchor="middle" x="666" y="-51" font-family="Helvetica,sans-Serif" font-size="10.00">Message</text>
</a>
</g>
</g>
<!-- Node3&#45;&gt;Node4 -->
<g id="edge3" class="edge"><title>Node3&#45;&gt;Node4</title>
<path fill="none" stroke="midnightblue" d="M573.952,-59C582.716,-59 591.494,-59 599.952,-59"/>
<polygon fill="midnightblue" stroke="midnightblue" points="573.689,-55.5001 563.689,-59 573.689,-62.5001 573.689,-55.5001"/>
</g>
<!-- Node5 -->
<g id="node5" class="node"><title>Node5</title>
<g id="a_node5"><a xlink:href="../../da/d4e/classviewcontroller_1_1_view.html#a9ad52fdebf34b834ab51d0a969833e75" target="_top" xlink:title="viewcontroller.View.noCurrent\lWorkspace">
<polygon fill="white" stroke="black" points="768,-161 768,-191 924,-191 924,-161 768,-161"/>
<text text-anchor="start" x="776" y="-179" font-family="Helvetica,sans-Serif" font-size="10.00">viewcontroller.View.noCurrent</text>
<text text-anchor="middle" x="846" y="-168" font-family="Helvetica,sans-Serif" font-size="10.00">Workspace</text>
</a>
</g>
</g>
<!-- Node4&#45;&gt;Node5 -->
<g id="edge4" class="edge"><title>Node4&#45;&gt;Node5</title>
<path fill="none" stroke="midnightblue" d="M698.409,-79.6451C733.765,-102.885 790.375,-140.095 821.9,-160.816"/>
<polygon fill="midnightblue" stroke="midnightblue" points="700.185,-76.6242 689.906,-74.0562 696.34,-82.4737 700.185,-76.6242"/>
</g>
<!-- Node16 -->
<g id="node16" class="node"><title>Node16</title>
<g id="a_node16"><a xlink:href="../../da/d4e/classviewcontroller_1_1_view.html#a1f7ce4457b38e302cf3a052c8d36a7a6" target="_top" xlink:title="viewcontroller.View.loadFile">
<polygon fill="white" stroke="black" points="964.5,-49.5 964.5,-68.5 1107.5,-68.5 1107.5,-49.5 964.5,-49.5"/>
<text text-anchor="middle" x="1036" y="-56.5" font-family="Helvetica,sans-Serif" font-size="10.00">viewcontroller.View.loadFile</text>
</a>
</g>
</g>
<!-- Node4&#45;&gt;Node16 -->
<g id="edge25" class="edge"><title>Node4&#45;&gt;Node16</title>
<path fill="none" stroke="midnightblue" d="M742.553,-59C807.579,-59 900.701,-59 964.282,-59"/>
<polygon fill="midnightblue" stroke="midnightblue" points="742.367,-55.5001 732.367,-59 742.367,-62.5001 742.367,-55.5001"/>
</g>
<!-- Node17 -->
<g id="node17" class="node"><title>Node17</title>
<g id="a_node17"><a xlink:href="../../da/d4e/classviewcontroller_1_1_view.html#a4b671855769c23246f5698d72dc12618" target="_top" xlink:title="viewcontroller.View.load\lSerialisedWorkspace">
<polygon fill="white" stroke="black" points="782,-0 782,-30 910,-30 910,-0 782,-0"/>
<text text-anchor="start" x="790" y="-18" font-family="Helvetica,sans-Serif" font-size="10.00">viewcontroller.View.load</text>
<text text-anchor="middle" x="846" y="-7" font-family="Helvetica,sans-Serif" font-size="10.00">SerialisedWorkspace</text>
</a>
</g>
</g>
<!-- Node4&#45;&gt;Node17 -->
<g id="edge22" class="edge"><title>Node4&#45;&gt;Node17</title>
<path fill="none" stroke="midnightblue" d="M737.737,-41.5145C753.117,-37.7127 769.257,-33.723 784.212,-30.0262"/>
<polygon fill="midnightblue" stroke="midnightblue" points="736.628,-38.1833 727.76,-43.9808 738.307,-44.9787 736.628,-38.1833"/>
</g>
<!-- Node6 -->
<g id="node6" class="node"><title>Node6</title>
<g id="a_node6"><a xlink:href="../../da/d4e/classviewcontroller_1_1_view.html#a6d302784ecfa68080791115cc18e308e" target="_top" xlink:title="viewcontroller.View.save\lWorkspace">
<polygon fill="white" stroke="black" points="970.5,-88 970.5,-118 1101.5,-118 1101.5,-88 970.5,-88"/>
<text text-anchor="start" x="978.5" y="-106" font-family="Helvetica,sans-Serif" font-size="10.00">viewcontroller.View.save</text>
<text text-anchor="middle" x="1036" y="-95" font-family="Helvetica,sans-Serif" font-size="10.00">Workspace</text>
</a>
</g>
</g>
<!-- Node5&#45;&gt;Node6 -->
<g id="edge5" class="edge"><title>Node5&#45;&gt;Node6</title>
<path fill="none" stroke="midnightblue" d="M890.098,-156.736C911.037,-147.623 936.662,-136.83 960,-128 968.986,-124.6 978.665,-121.19 987.987,-118.03"/>
<polygon fill="midnightblue" stroke="midnightblue" points="888.59,-153.575 880.833,-160.791 891.397,-159.988 888.59,-153.575"/>
</g>
<!-- Node9 -->
<g id="node9" class="node"><title>Node9</title>
<g id="a_node9"><a xlink:href="../../da/d4e/classviewcontroller_1_1_view.html#a663f58ba5e84352186e4c332b407cd8e" target="_top" xlink:title="viewcontroller.View.toggle\lGridLines">
<polygon fill="white" stroke="black" points="967,-333 967,-363 1105,-363 1105,-333 967,-333"/>
<text text-anchor="start" x="975" y="-351" font-family="Helvetica,sans-Serif" font-size="10.00">viewcontroller.View.toggle</text>
<text text-anchor="middle" x="1036" y="-340" font-family="Helvetica,sans-Serif" font-size="10.00">GridLines</text>
</a>
</g>
</g>
<!-- Node5&#45;&gt;Node9 -->
<g id="edge8" class="edge"><title>Node5&#45;&gt;Node9</title>
<path fill="none" stroke="midnightblue" d="M859.511,-200.154C877.509,-232.616 913.695,-290.041 960,-323 965.367,-326.82 971.359,-330.087 977.551,-332.873"/>
<polygon fill="midnightblue" stroke="midnightblue" points="862.564,-198.441 854.721,-191.318 856.41,-201.778 862.564,-198.441"/>
</g>
<!-- Node11 -->
<g id="node11" class="node"><title>Node11</title>
<g id="a_node11"><a xlink:href="../../da/d4e/classviewcontroller_1_1_view.html#ab0cf08da4f357ee008acc7c294930637" target="_top" xlink:title="viewcontroller.View.undo\lClicked">
<polygon fill="white" stroke="black" points="970,-186 970,-216 1102,-216 1102,-186 970,-186"/>
<text text-anchor="start" x="978" y="-204" font-family="Helvetica,sans-Serif" font-size="10.00">viewcontroller.View.undo</text>
<text text-anchor="middle" x="1036" y="-193" font-family="Helvetica,sans-Serif" font-size="10.00">Clicked</text>
</a>
</g>
</g>
<!-- Node5&#45;&gt;Node11 -->
<g id="edge11" class="edge"><title>Node5&#45;&gt;Node11</title>
<path fill="none" stroke="midnightblue" d="M934.062,-187.577C946.093,-189.177 958.276,-190.797 969.818,-192.332"/>
<polygon fill="midnightblue" stroke="midnightblue" points="934.383,-184.089 924.009,-186.241 933.461,-191.028 934.383,-184.089"/>
</g>
<!-- Node13 -->
<g id="node13" class="node"><title>Node13</title>
<g id="a_node13"><a xlink:href="../../da/d4e/classviewcontroller_1_1_view.html#a487061003bc9857296875d07d9b531cc" target="_top" xlink:title="viewcontroller.View.redo\lClicked">
<polygon fill="white" stroke="black" points="971,-137 971,-167 1101,-167 1101,-137 971,-137"/>
<text text-anchor="start" x="979" y="-155" font-family="Helvetica,sans-Serif" font-size="10.00">viewcontroller.View.redo</text>
<text text-anchor="middle" x="1036" y="-144" font-family="Helvetica,sans-Serif" font-size="10.00">Clicked</text>
</a>
</g>
</g>
<!-- Node5&#45;&gt;Node13 -->
<g id="edge14" class="edge"><title>Node5&#45;&gt;Node13</title>
<path fill="none" stroke="midnightblue" d="M933.961,-164.899C946.435,-163.306 959.076,-161.692 970.997,-160.171"/>
<polygon fill="midnightblue" stroke="midnightblue" points="933.485,-161.431 924.009,-166.169 934.372,-168.374 933.485,-161.431"/>
</g>
<!-- Node14 -->
<g id="node14" class="node"><title>Node14</title>
<g id="a_node14"><a xlink:href="../../da/d4e/classviewcontroller_1_1_view.html#ad56492108159c72ac56423b7fabe3b81" target="_top" xlink:title="viewcontroller.View.addTurtle\lClicked">
<polygon fill="white" stroke="black" points="960,-284 960,-314 1112,-314 1112,-284 960,-284"/>
<text text-anchor="start" x="968" y="-302" font-family="Helvetica,sans-Serif" font-size="10.00">viewcontroller.View.addTurtle</text>
<text text-anchor="middle" x="1036" y="-291" font-family="Helvetica,sans-Serif" font-size="10.00">Clicked</text>
</a>
</g>
</g>
<!-- Node5&#45;&gt;Node14 -->
<g id="edge16" class="edge"><title>Node5&#45;&gt;Node14</title>
<path fill="none" stroke="midnightblue" d="M867.478,-198.278C888.734,-220.237 923.876,-253.409 960,-274 966.558,-277.738 973.76,-281.024 981.027,-283.88"/>
<polygon fill="midnightblue" stroke="midnightblue" points="869.991,-195.842 860.559,-191.017 864.924,-200.671 869.991,-195.842"/>
</g>
<!-- Node15 -->
<g id="node15" class="node"><title>Node15</title>
<g id="a_node15"><a xlink:href="../../da/d4e/classviewcontroller_1_1_view.html#a89076f3aec0df7ef97f43fef2912e54f" target="_top" xlink:title="viewcontroller.View.change\lTurtleImages">
<polygon fill="white" stroke="black" points="964.5,-235 964.5,-265 1107.5,-265 1107.5,-235 964.5,-235"/>
<text text-anchor="start" x="972.5" y="-253" font-family="Helvetica,sans-Serif" font-size="10.00">viewcontroller.View.change</text>
<text text-anchor="middle" x="1036" y="-242" font-family="Helvetica,sans-Serif" font-size="10.00">TurtleImages</text>
</a>
</g>
</g>
<!-- Node5&#45;&gt;Node15 -->
<g id="edge18" class="edge"><title>Node5&#45;&gt;Node15</title>
<path fill="none" stroke="midnightblue" d="M889.134,-195.313C910.232,-204.716 936.274,-215.921 960,-225 968.845,-228.384 978.37,-231.761 987.567,-234.887"/>
<polygon fill="midnightblue" stroke="midnightblue" points="890.372,-192.032 879.815,-191.134 887.507,-198.419 890.372,-192.032"/>
</g>
<!-- Node5&#45;&gt;Node16 -->
<g id="edge20" class="edge"><title>Node5&#45;&gt;Node16</title>
<path fill="none" stroke="midnightblue" d="M866.818,-153.531C887.794,-131.132 922.937,-97.3553 960,-78 967.382,-74.1449 975.587,-71.0427 983.784,-68.5549"/>
<polygon fill="midnightblue" stroke="midnightblue" points="864.2,-151.207 860.009,-160.938 869.354,-155.945 864.2,-151.207"/>
</g>
<!-- Node7 -->
<g id="node7" class="node"><title>Node7</title>
<g id="a_node7"><a xlink:href="../../df/df9/classviewcontroller_1_1_s_logo_menu_bar.html#aea535ae86d7ac7a2fffe549d7bdf2a1d" target="_top" xlink:title="viewcontroller.SLogoMenu\lBar.initializeFileMenu">
<polygon fill="white" stroke="black" points="1148,-77 1148,-107 1288,-107 1288,-77 1148,-77"/>
<text text-anchor="start" x="1156" y="-95" font-family="Helvetica,sans-Serif" font-size="10.00">viewcontroller.SLogoMenu</text>
<text text-anchor="middle" x="1218" y="-84" font-family="Helvetica,sans-Serif" font-size="10.00">Bar.initializeFileMenu</text>
</a>
</g>
</g>
<!-- Node6&#45;&gt;Node7 -->
<g id="edge6" class="edge"><title>Node6&#45;&gt;Node7</title>
<path fill="none" stroke="midnightblue" d="M1111.71,-98.4343C1123.72,-97.7002 1136.11,-96.9433 1147.98,-96.2178"/>
<polygon fill="midnightblue" stroke="midnightblue" points="1111.5,-94.9407 1101.73,-99.0443 1111.92,-101.928 1111.5,-94.9407"/>
</g>
<!-- Node8 -->
<g id="node8" class="node"><title>Node8</title>
<g id="a_node8"><a xlink:href="../../df/df9/classviewcontroller_1_1_s_logo_menu_bar.html#a75b45d0a4b08de5ff8588fc15b2f14fe" target="_top" xlink:title="viewcontroller.SLogoMenu\lBar.SLogoMenuBar">
<polygon fill="white" stroke="black" points="1324,-148 1324,-178 1464,-178 1464,-148 1324,-148"/>
<text text-anchor="start" x="1332" y="-166" font-family="Helvetica,sans-Serif" font-size="10.00">viewcontroller.SLogoMenu</text>
<text text-anchor="middle" x="1394" y="-155" font-family="Helvetica,sans-Serif" font-size="10.00">Bar.SLogoMenuBar</text>
</a>
</g>
</g>
<!-- Node7&#45;&gt;Node8 -->
<g id="edge7" class="edge"><title>Node7&#45;&gt;Node8</title>
<path fill="none" stroke="midnightblue" d="M1265.23,-110.866C1293.68,-122.473 1329.64,-137.144 1356.15,-147.964"/>
<polygon fill="midnightblue" stroke="midnightblue" points="1266.48,-107.595 1255.9,-107.057 1263.84,-114.076 1266.48,-107.595"/>
</g>
<!-- Node10 -->
<g id="node10" class="node"><title>Node10</title>
<g id="a_node10"><a xlink:href="../../df/df9/classviewcontroller_1_1_s_logo_menu_bar.html#a068f788551874f8c8862c10f8f0f6253" target="_top" xlink:title="viewcontroller.SLogoMenu\lBar.initializeGridMenu">
<polygon fill="white" stroke="black" points="1148,-259 1148,-289 1288,-289 1288,-259 1148,-259"/>
<text text-anchor="start" x="1156" y="-277" font-family="Helvetica,sans-Serif" font-size="10.00">viewcontroller.SLogoMenu</text>
<text text-anchor="middle" x="1218" y="-266" font-family="Helvetica,sans-Serif" font-size="10.00">Bar.initializeGridMenu</text>
</a>
</g>
</g>
<!-- Node9&#45;&gt;Node10 -->
<g id="edge9" class="edge"><title>Node9&#45;&gt;Node10</title>
<path fill="none" stroke="midnightblue" d="M1094.75,-329.498C1100.61,-327.397 1106.45,-325.213 1112,-323 1137.79,-312.724 1166.29,-299.288 1187.08,-289.085"/>
<polygon fill="midnightblue" stroke="midnightblue" points="1093.19,-326.335 1084.91,-332.944 1095.5,-332.942 1093.19,-326.335"/>
</g>
<!-- Node10&#45;&gt;Node8 -->
<g id="edge10" class="edge"><title>Node10&#45;&gt;Node8</title>
<path fill="none" stroke="midnightblue" d="M1251.54,-253.241C1285.84,-231.364 1339.01,-197.439 1369.46,-178.018"/>
<polygon fill="midnightblue" stroke="midnightblue" points="1249.38,-250.47 1242.83,-258.799 1253.14,-256.371 1249.38,-250.47"/>
</g>
<!-- Node12 -->
<g id="node12" class="node"><title>Node12</title>
<g id="a_node12"><a xlink:href="../../df/df9/classviewcontroller_1_1_s_logo_menu_bar.html#acdf079204224a9c0c24ce028f942e628" target="_top" xlink:title="viewcontroller.SLogoMenu\lBar.initializeEditMenu">
<polygon fill="white" stroke="black" points="1148,-148 1148,-178 1288,-178 1288,-148 1148,-148"/>
<text text-anchor="start" x="1156" y="-166" font-family="Helvetica,sans-Serif" font-size="10.00">viewcontroller.SLogoMenu</text>
<text text-anchor="middle" x="1218" y="-155" font-family="Helvetica,sans-Serif" font-size="10.00">Bar.initializeEditMenu</text>
</a>
</g>
</g>
<!-- Node11&#45;&gt;Node12 -->
<g id="edge12" class="edge"><title>Node11&#45;&gt;Node12</title>
<path fill="none" stroke="midnightblue" d="M1112.06,-185.153C1123.88,-182.658 1136.06,-180.088 1147.74,-177.622"/>
<polygon fill="midnightblue" stroke="midnightblue" points="1111.3,-181.737 1102.24,-187.227 1112.75,-188.586 1111.3,-181.737"/>
</g>
<!-- Node12&#45;&gt;Node8 -->
<g id="edge13" class="edge"><title>Node12&#45;&gt;Node8</title>
<path fill="none" stroke="midnightblue" d="M1298.03,-163C1306.62,-163 1315.32,-163 1323.78,-163"/>
<polygon fill="midnightblue" stroke="midnightblue" points="1298.02,-159.5 1288.02,-163 1298.02,-166.5 1298.02,-159.5"/>
</g>
<!-- Node13&#45;&gt;Node12 -->
<g id="edge15" class="edge"><title>Node13&#45;&gt;Node12</title>
<path fill="none" stroke="midnightblue" d="M1111.29,-156.54C1123.42,-157.281 1135.93,-158.046 1147.92,-158.779"/>
<polygon fill="midnightblue" stroke="midnightblue" points="1111.42,-153.041 1101.22,-155.925 1110.99,-160.028 1111.42,-153.041"/>
</g>
<!-- Node14&#45;&gt;Node10 -->
<g id="edge17" class="edge"><title>Node14&#45;&gt;Node10</title>
<path fill="none" stroke="midnightblue" d="M1122.11,-287.179C1130.73,-285.981 1139.42,-284.775 1147.84,-283.605"/>
<polygon fill="midnightblue" stroke="midnightblue" points="1121.46,-283.736 1112.03,-288.579 1122.42,-290.67 1121.46,-283.736"/>
</g>
<!-- Node15&#45;&gt;Node10 -->
<g id="edge19" class="edge"><title>Node15&#45;&gt;Node10</title>
<path fill="none" stroke="midnightblue" d="M1117.61,-260.748C1127.67,-262.09 1137.89,-263.452 1147.76,-264.768"/>
<polygon fill="midnightblue" stroke="midnightblue" points="1118,-257.269 1107.62,-259.417 1117.07,-264.208 1118,-257.269"/>
</g>
<!-- Node16&#45;&gt;Node7 -->
<g id="edge21" class="edge"><title>Node16&#45;&gt;Node7</title>
<path fill="none" stroke="midnightblue" d="M1099.2,-70.4029C1114.93,-73.287 1131.92,-76.4015 1147.96,-79.3435"/>
<polygon fill="midnightblue" stroke="midnightblue" points="1099.53,-66.9057 1089.06,-68.545 1098.27,-73.7909 1099.53,-66.9057"/>
</g>
<!-- Node18 -->
<g id="node18" class="node"><title>Node18</title>
<g id="a_node18"><a xlink:href="../../da/d4e/classviewcontroller_1_1_view.html#a3ce37900baf65c2a31c0a2a7d5349aae" target="_top" xlink:title="viewcontroller.View.load\lWorkspace">
<polygon fill="white" stroke="black" points="972,-0 972,-30 1100,-30 1100,-0 972,-0"/>
<text text-anchor="start" x="980" y="-18" font-family="Helvetica,sans-Serif" font-size="10.00">viewcontroller.View.load</text>
<text text-anchor="middle" x="1036" y="-7" font-family="Helvetica,sans-Serif" font-size="10.00">Workspace</text>
</a>
</g>
</g>
<!-- Node17&#45;&gt;Node18 -->
<g id="edge23" class="edge"><title>Node17&#45;&gt;Node18</title>
<path fill="none" stroke="midnightblue" d="M920.517,-15C937.435,-15 955.283,-15 971.722,-15"/>
<polygon fill="midnightblue" stroke="midnightblue" points="920.124,-11.5001 910.124,-15 920.124,-18.5001 920.124,-11.5001"/>
</g>
<!-- Node18&#45;&gt;Node7 -->
<g id="edge24" class="edge"><title>Node18&#45;&gt;Node7</title>
<path fill="none" stroke="midnightblue" d="M1095.06,-33.4634C1100.82,-35.5616 1106.55,-37.756 1112,-40 1138.71,-51.0032 1168.09,-65.799 1188.97,-76.7945"/>
<polygon fill="midnightblue" stroke="midnightblue" points="1095.97,-30.0718 1085.37,-30.0313 1093.63,-36.67 1095.97,-30.0718"/>
</g>
</g>
</svg>
