<?xml version="1.0" encoding="UTF-8" standalone="no"?>
<!DOCTYPE svg PUBLIC "-//W3C//DTD SVG 1.1//EN"
 "http://www.w3.org/Graphics/SVG/1.1/DTD/svg11.dtd">
<!-- Generated by graphviz version 2.36.0 (20140111.2315)
 -->
<!-- Title: application.MessageBox.createMessageBox Pages: 1 -->
<svg width="1270pt" height="371pt"
 viewBox="0.00 0.00 1270.00 371.00" xmlns="http://www.w3.org/2000/svg" xmlns:xlink="http://www.w3.org/1999/xlink">
<g id="graph0" class="graph" transform="scale(1 1) rotate(0) translate(4 367)">
<title>application.MessageBox.createMessageBox</title>
<polygon fill="white" stroke="none" points="-4,4 -4,-367 1266,-367 1266,4 -4,4"/>
<!-- Node1 -->
<g id="node1" class="node"><title>Node1</title>
<polygon fill="#bfbfbf" stroke="black" points="0,-44 0,-74 166,-74 166,-44 0,-44"/>
<text text-anchor="start" x="8" y="-62" font-family="Helvetica,sans-Serif" font-size="10.00">application.MessageBox.create</text>
<text text-anchor="middle" x="83" y="-51" font-family="Helvetica,sans-Serif" font-size="10.00">MessageBox</text>
</g>
<!-- Node2 -->
<g id="node2" class="node"><title>Node2</title>
<g id="a_node2"><a xlink:href="../../d6/dd4/classapplication_1_1_message_box.html#a272fc424b595a91a6d2048981ac95e5b" target="_top" xlink:title="application.MessageBox.show">
<polygon fill="white" stroke="black" points="202.5,-49.5 202.5,-68.5 361.5,-68.5 361.5,-49.5 202.5,-49.5"/>
<text text-anchor="middle" x="282" y="-56.5" font-family="Helvetica,sans-Serif" font-size="10.00">application.MessageBox.show</text>
</a>
</g>
</g>
<!-- Node1&#45;&gt;Node2 -->
<g id="edge1" class="edge"><title>Node1&#45;&gt;Node2</title>
<path fill="none" stroke="midnightblue" d="M176.337,-59C185.081,-59 193.89,-59 202.487,-59"/>
<polygon fill="midnightblue" stroke="midnightblue" points="176.119,-55.5001 166.119,-59 176.119,-62.5001 176.119,-55.5001"/>
</g>
<!-- Node3 -->
<g id="node3" class="node"><title>Node3</title>
<g id="a_node3"><a xlink:href="../../da/d4e/classviewcontroller_1_1_view.html#a98e7b6a5716e94a0052d7bb51dc3a404" target="_top" xlink:title="viewcontroller.View.show\lMessage">
<polygon fill="white" stroke="black" points="398,-44 398,-74 530,-74 530,-44 398,-44"/>
<text text-anchor="start" x="406" y="-62" font-family="Helvetica,sans-Serif" font-size="10.00">viewcontroller.View.show</text>
<text text-anchor="middle" x="464" y="-51" font-family="Helvetica,sans-Serif" font-size="10.00">Message</text>
</a>
</g>
</g>
<!-- Node2&#45;&gt;Node3 -->
<g id="edge2" class="edge"><title>Node2&#45;&gt;Node3</title>
<path fill="none" stroke="midnightblue" d="M371.952,-59C380.716,-59 389.494,-59 397.952,-59"/>
<polygon fill="midnightblue" stroke="midnightblue" points="371.689,-55.5001 361.689,-59 371.689,-62.5001 371.689,-55.5001"/>
</g>
<!-- Node4 -->
<g id="node4" class="node"><title>Node4</title>
<g id="a_node4"><a xlink:href="../../da/d4e/classviewcontroller_1_1_view.html#a9ad52fdebf34b834ab51d0a969833e75" target="_top" xlink:title="viewcontroller.View.noCurrent\lWorkspace">
<polygon fill="white" stroke="black" points="566,-161 566,-191 722,-191 722,-161 566,-161"/>
<text text-anchor="start" x="574" y="-179" font-family="Helvetica,sans-Serif" font-size="10.00">viewcontroller.View.noCurrent</text>
<text text-anchor="middle" x="644" y="-168" font-family="Helvetica,sans-Serif" font-size="10.00">Workspace</text>
</a>
</g>
</g>
<!-- Node3&#45;&gt;Node4 -->
<g id="edge3" class="edge"><title>Node3&#45;&gt;Node4</title>
<path fill="none" stroke="midnightblue" d="M496.409,-79.6451C531.765,-102.885 588.375,-140.095 619.9,-160.816"/>
<polygon fill="midnightblue" stroke="midnightblue" points="498.185,-76.6242 487.906,-74.0562 494.34,-82.4737 498.185,-76.6242"/>
</g>
<!-- Node15 -->
<g id="node15" class="node"><title>Node15</title>
<g id="a_node15"><a xlink:href="../../da/d4e/classviewcontroller_1_1_view.html#a1f7ce4457b38e302cf3a052c8d36a7a6" target="_top" xlink:title="viewcontroller.View.loadFile">
<polygon fill="white" stroke="black" points="762.5,-49.5 762.5,-68.5 905.5,-68.5 905.5,-49.5 762.5,-49.5"/>
<text text-anchor="middle" x="834" y="-56.5" font-family="Helvetica,sans-Serif" font-size="10.00">viewcontroller.View.loadFile</text>
</a>
</g>
</g>
<!-- Node3&#45;&gt;Node15 -->
<g id="edge24" class="edge"><title>Node3&#45;&gt;Node15</title>
<path fill="none" stroke="midnightblue" d="M540.553,-59C605.579,-59 698.701,-59 762.282,-59"/>
<polygon fill="midnightblue" stroke="midnightblue" points="540.367,-55.5001 530.367,-59 540.367,-62.5001 540.367,-55.5001"/>
</g>
<!-- Node16 -->
<g id="node16" class="node"><title>Node16</title>
<g id="a_node16"><a xlink:href="../../da/d4e/classviewcontroller_1_1_view.html#a4b671855769c23246f5698d72dc12618" target="_top" xlink:title="viewcontroller.View.load\lSerialisedWorkspace">
<polygon fill="white" stroke="black" points="580,-0 580,-30 708,-30 708,-0 580,-0"/>
<text text-anchor="start" x="588" y="-18" font-family="Helvetica,sans-Serif" font-size="10.00">viewcontroller.View.load</text>
<text text-anchor="middle" x="644" y="-7" font-family="Helvetica,sans-Serif" font-size="10.00">SerialisedWorkspace</text>
</a>
</g>
</g>
<!-- Node3&#45;&gt;Node16 -->
<g id="edge21" class="edge"><title>Node3&#45;&gt;Node16</title>
<path fill="none" stroke="midnightblue" d="M535.737,-41.5145C551.117,-37.7127 567.257,-33.723 582.212,-30.0262"/>
<polygon fill="midnightblue" stroke="midnightblue" points="534.628,-38.1833 525.76,-43.9808 536.307,-44.9787 534.628,-38.1833"/>
</g>
<!-- Node5 -->
<g id="node5" class="node"><title>Node5</title>
<g id="a_node5"><a xlink:href="../../da/d4e/classviewcontroller_1_1_view.html#a6d302784ecfa68080791115cc18e308e" target="_top" xlink:title="viewcontroller.View.save\lWorkspace">
<polygon fill="white" stroke="black" points="768.5,-88 768.5,-118 899.5,-118 899.5,-88 768.5,-88"/>
<text text-anchor="start" x="776.5" y="-106" font-family="Helvetica,sans-Serif" font-size="10.00">viewcontroller.View.save</text>
<text text-anchor="middle" x="834" y="-95" font-family="Helvetica,sans-Serif" font-size="10.00">Workspace</text>
</a>
</g>
</g>
<!-- Node4&#45;&gt;Node5 -->
<g id="edge4" class="edge"><title>Node4&#45;&gt;Node5</title>
<path fill="none" stroke="midnightblue" d="M688.098,-156.736C709.037,-147.623 734.662,-136.83 758,-128 766.986,-124.6 776.665,-121.19 785.987,-118.03"/>
<polygon fill="midnightblue" stroke="midnightblue" points="686.59,-153.575 678.833,-160.791 689.397,-159.988 686.59,-153.575"/>
</g>
<!-- Node8 -->
<g id="node8" class="node"><title>Node8</title>
<g id="a_node8"><a xlink:href="../../da/d4e/classviewcontroller_1_1_view.html#a663f58ba5e84352186e4c332b407cd8e" target="_top" xlink:title="viewcontroller.View.toggle\lGridLines">
<polygon fill="white" stroke="black" points="765,-333 765,-363 903,-363 903,-333 765,-333"/>
<text text-anchor="start" x="773" y="-351" font-family="Helvetica,sans-Serif" font-size="10.00">viewcontroller.View.toggle</text>
<text text-anchor="middle" x="834" y="-340" font-family="Helvetica,sans-Serif" font-size="10.00">GridLines</text>
</a>
</g>
</g>
<!-- Node4&#45;&gt;Node8 -->
<g id="edge7" class="edge"><title>Node4&#45;&gt;Node8</title>
<path fill="none" stroke="midnightblue" d="M657.511,-200.154C675.509,-232.616 711.695,-290.041 758,-323 763.367,-326.82 769.359,-330.087 775.551,-332.873"/>
<polygon fill="midnightblue" stroke="midnightblue" points="660.564,-198.441 652.721,-191.318 654.41,-201.778 660.564,-198.441"/>
</g>
<!-- Node10 -->
<g id="node10" class="node"><title>Node10</title>
<g id="a_node10"><a xlink:href="../../da/d4e/classviewcontroller_1_1_view.html#ab0cf08da4f357ee008acc7c294930637" target="_top" xlink:title="viewcontroller.View.undo\lClicked">
<polygon fill="white" stroke="black" points="768,-186 768,-216 900,-216 900,-186 768,-186"/>
<text text-anchor="start" x="776" y="-204" font-family="Helvetica,sans-Serif" font-size="10.00">viewcontroller.View.undo</text>
<text text-anchor="middle" x="834" y="-193" font-family="Helvetica,sans-Serif" font-size="10.00">Clicked</text>
</a>
</g>
</g>
<!-- Node4&#45;&gt;Node10 -->
<g id="edge10" class="edge"><title>Node4&#45;&gt;Node10</title>
<path fill="none" stroke="midnightblue" d="M732.062,-187.577C744.093,-189.177 756.276,-190.797 767.818,-192.332"/>
<polygon fill="midnightblue" stroke="midnightblue" points="732.383,-184.089 722.009,-186.241 731.461,-191.028 732.383,-184.089"/>
</g>
<!-- Node12 -->
<g id="node12" class="node"><title>Node12</title>
<g id="a_node12"><a xlink:href="../../da/d4e/classviewcontroller_1_1_view.html#a487061003bc9857296875d07d9b531cc" target="_top" xlink:title="viewcontroller.View.redo\lClicked">
<polygon fill="white" stroke="black" points="769,-137 769,-167 899,-167 899,-137 769,-137"/>
<text text-anchor="start" x="777" y="-155" font-family="Helvetica,sans-Serif" font-size="10.00">viewcontroller.View.redo</text>
<text text-anchor="middle" x="834" y="-144" font-family="Helvetica,sans-Serif" font-size="10.00">Clicked</text>
</a>
</g>
</g>
<!-- Node4&#45;&gt;Node12 -->
<g id="edge13" class="edge"><title>Node4&#45;&gt;Node12</title>
<path fill="none" stroke="midnightblue" d="M731.961,-164.899C744.435,-163.306 757.076,-161.692 768.997,-160.171"/>
<polygon fill="midnightblue" stroke="midnightblue" points="731.485,-161.431 722.009,-166.169 732.372,-168.374 731.485,-161.431"/>
</g>
<!-- Node13 -->
<g id="node13" class="node"><title>Node13</title>
<g id="a_node13"><a xlink:href="../../da/d4e/classviewcontroller_1_1_view.html#ad56492108159c72ac56423b7fabe3b81" target="_top" xlink:title="viewcontroller.View.addTurtle\lClicked">
<polygon fill="white" stroke="black" points="758,-284 758,-314 910,-314 910,-284 758,-284"/>
<text text-anchor="start" x="766" y="-302" font-family="Helvetica,sans-Serif" font-size="10.00">viewcontroller.View.addTurtle</text>
<text text-anchor="middle" x="834" y="-291" font-family="Helvetica,sans-Serif" font-size="10.00">Clicked</text>
</a>
</g>
</g>
<!-- Node4&#45;&gt;Node13 -->
<g id="edge15" class="edge"><title>Node4&#45;&gt;Node13</title>
<path fill="none" stroke="midnightblue" d="M665.478,-198.278C686.734,-220.237 721.876,-253.409 758,-274 764.558,-277.738 771.76,-281.024 779.027,-283.88"/>
<polygon fill="midnightblue" stroke="midnightblue" points="667.991,-195.842 658.559,-191.017 662.924,-200.671 667.991,-195.842"/>
</g>
<!-- Node14 -->
<g id="node14" class="node"><title>Node14</title>
<g id="a_node14"><a xlink:href="../../da/d4e/classviewcontroller_1_1_view.html#a89076f3aec0df7ef97f43fef2912e54f" target="_top" xlink:title="viewcontroller.View.change\lTurtleImages">
<polygon fill="white" stroke="black" points="762.5,-235 762.5,-265 905.5,-265 905.5,-235 762.5,-235"/>
<text text-anchor="start" x="770.5" y="-253" font-family="Helvetica,sans-Serif" font-size="10.00">viewcontroller.View.change</text>
<text text-anchor="middle" x="834" y="-242" font-family="Helvetica,sans-Serif" font-size="10.00">TurtleImages</text>
</a>
</g>
</g>
<!-- Node4&#45;&gt;Node14 -->
<g id="edge17" class="edge"><title>Node4&#45;&gt;Node14</title>
<path fill="none" stroke="midnightblue" d="M687.134,-195.313C708.232,-204.716 734.274,-215.921 758,-225 766.845,-228.384 776.37,-231.761 785.567,-234.887"/>
<polygon fill="midnightblue" stroke="midnightblue" points="688.372,-192.032 677.815,-191.134 685.507,-198.419 688.372,-192.032"/>
</g>
<!-- Node4&#45;&gt;Node15 -->
<g id="edge19" class="edge"><title>Node4&#45;&gt;Node15</title>
<path fill="none" stroke="midnightblue" d="M664.818,-153.531C685.794,-131.132 720.937,-97.3553 758,-78 765.382,-74.1449 773.587,-71.0427 781.784,-68.5549"/>
<polygon fill="midnightblue" stroke="midnightblue" points="662.2,-151.207 658.009,-160.938 667.354,-155.945 662.2,-151.207"/>
</g>
<!-- Node6 -->
<g id="node6" class="node"><title>Node6</title>
<g id="a_node6"><a xlink:href="../../df/df9/classviewcontroller_1_1_s_logo_menu_bar.html#aea535ae86d7ac7a2fffe549d7bdf2a1d" target="_top" xlink:title="viewcontroller.SLogoMenu\lBar.initializeFileMenu">
<polygon fill="white" stroke="black" points="946,-77 946,-107 1086,-107 1086,-77 946,-77"/>
<text text-anchor="start" x="954" y="-95" font-family="Helvetica,sans-Serif" font-size="10.00">viewcontroller.SLogoMenu</text>
<text text-anchor="middle" x="1016" y="-84" font-family="Helvetica,sans-Serif" font-size="10.00">Bar.initializeFileMenu</text>
</a>
</g>
</g>
<!-- Node5&#45;&gt;Node6 -->
<g id="edge5" class="edge"><title>Node5&#45;&gt;Node6</title>
<path fill="none" stroke="midnightblue" d="M909.712,-98.4343C921.724,-97.7002 934.11,-96.9433 945.981,-96.2178"/>
<polygon fill="midnightblue" stroke="midnightblue" points="909.498,-94.9407 899.73,-99.0443 909.925,-101.928 909.498,-94.9407"/>
</g>
<!-- Node7 -->
<g id="node7" class="node"><title>Node7</title>
<g id="a_node7"><a xlink:href="../../df/df9/classviewcontroller_1_1_s_logo_menu_bar.html#a75b45d0a4b08de5ff8588fc15b2f14fe" target="_top" xlink:title="viewcontroller.SLogoMenu\lBar.SLogoMenuBar">
<polygon fill="white" stroke="black" points="1122,-148 1122,-178 1262,-178 1262,-148 1122,-148"/>
<text text-anchor="start" x="1130" y="-166" font-family="Helvetica,sans-Serif" font-size="10.00">viewcontroller.SLogoMenu</text>
<text text-anchor="middle" x="1192" y="-155" font-family="Helvetica,sans-Serif" font-size="10.00">Bar.SLogoMenuBar</text>
</a>
</g>
</g>
<!-- Node6&#45;&gt;Node7 -->
<g id="edge6" class="edge"><title>Node6&#45;&gt;Node7</title>
<path fill="none" stroke="midnightblue" d="M1063.23,-110.866C1091.68,-122.473 1127.64,-137.144 1154.15,-147.964"/>
<polygon fill="midnightblue" stroke="midnightblue" points="1064.48,-107.595 1053.9,-107.057 1061.84,-114.076 1064.48,-107.595"/>
</g>
<!-- Node9 -->
<g id="node9" class="node"><title>Node9</title>
<g id="a_node9"><a xlink:href="../../df/df9/classviewcontroller_1_1_s_logo_menu_bar.html#a068f788551874f8c8862c10f8f0f6253" target="_top" xlink:title="viewcontroller.SLogoMenu\lBar.initializeGridMenu">
<polygon fill="white" stroke="black" points="946,-259 946,-289 1086,-289 1086,-259 946,-259"/>
<text text-anchor="start" x="954" y="-277" font-family="Helvetica,sans-Serif" font-size="10.00">viewcontroller.SLogoMenu</text>
<text text-anchor="middle" x="1016" y="-266" font-family="Helvetica,sans-Serif" font-size="10.00">Bar.initializeGridMenu</text>
</a>
</g>
</g>
<!-- Node8&#45;&gt;Node9 -->
<g id="edge8" class="edge"><title>Node8&#45;&gt;Node9</title>
<path fill="none" stroke="midnightblue" d="M892.749,-329.498C898.61,-327.397 904.446,-325.213 910,-323 935.789,-312.724 964.286,-299.288 985.077,-289.085"/>
<polygon fill="midnightblue" stroke="midnightblue" points="891.189,-326.335 882.908,-332.944 893.503,-332.942 891.189,-326.335"/>
</g>
<!-- Node9&#45;&gt;Node7 -->
<g id="edge9" class="edge"><title>Node9&#45;&gt;Node7</title>
<path fill="none" stroke="midnightblue" d="M1049.54,-253.241C1083.84,-231.364 1137.01,-197.439 1167.46,-178.018"/>
<polygon fill="midnightblue" stroke="midnightblue" points="1047.38,-250.47 1040.83,-258.799 1051.14,-256.371 1047.38,-250.47"/>
</g>
<!-- Node11 -->
<g id="node11" class="node"><title>Node11</title>
<g id="a_node11"><a xlink:href="../../df/df9/classviewcontroller_1_1_s_logo_menu_bar.html#acdf079204224a9c0c24ce028f942e628" target="_top" xlink:title="viewcontroller.SLogoMenu\lBar.initializeEditMenu">
<polygon fill="white" stroke="black" points="946,-148 946,-178 1086,-178 1086,-148 946,-148"/>
<text text-anchor="start" x="954" y="-166" font-family="Helvetica,sans-Serif" font-size="10.00">viewcontroller.SLogoMenu</text>
<text text-anchor="middle" x="1016" y="-155" font-family="Helvetica,sans-Serif" font-size="10.00">Bar.initializeEditMenu</text>
</a>
</g>
</g>
<!-- Node10&#45;&gt;Node11 -->
<g id="edge11" class="edge"><title>Node10&#45;&gt;Node11</title>
<path fill="none" stroke="midnightblue" d="M910.065,-185.153C921.884,-182.658 934.056,-180.088 945.736,-177.622"/>
<polygon fill="midnightblue" stroke="midnightblue" points="909.3,-181.737 900.239,-187.227 910.746,-188.586 909.3,-181.737"/>
</g>
<!-- Node11&#45;&gt;Node7 -->
<g id="edge12" class="edge"><title>Node11&#45;&gt;Node7</title>
<path fill="none" stroke="midnightblue" d="M1096.03,-163C1104.62,-163 1113.32,-163 1121.78,-163"/>
<polygon fill="midnightblue" stroke="midnightblue" points="1096.02,-159.5 1086.02,-163 1096.02,-166.5 1096.02,-159.5"/>
</g>
<!-- Node12&#45;&gt;Node11 -->
<g id="edge14" class="edge"><title>Node12&#45;&gt;Node11</title>
<path fill="none" stroke="midnightblue" d="M909.293,-156.54C921.416,-157.281 933.932,-158.046 945.923,-158.779"/>
<polygon fill="midnightblue" stroke="midnightblue" points="909.417,-153.041 899.222,-155.925 908.99,-160.028 909.417,-153.041"/>
</g>
<!-- Node13&#45;&gt;Node9 -->
<g id="edge16" class="edge"><title>Node13&#45;&gt;Node9</title>
<path fill="none" stroke="midnightblue" d="M920.11,-287.179C928.733,-285.981 937.417,-284.775 945.843,-283.605"/>
<polygon fill="midnightblue" stroke="midnightblue" points="919.456,-283.736 910.033,-288.579 920.419,-290.67 919.456,-283.736"/>
</g>
<!-- Node14&#45;&gt;Node9 -->
<g id="edge18" class="edge"><title>Node14&#45;&gt;Node9</title>
<path fill="none" stroke="midnightblue" d="M915.613,-260.748C925.674,-262.09 935.893,-263.452 945.759,-264.768"/>
<polygon fill="midnightblue" stroke="midnightblue" points="915.999,-257.269 905.624,-259.417 915.074,-264.208 915.999,-257.269"/>
</g>
<!-- Node15&#45;&gt;Node6 -->
<g id="edge20" class="edge"><title>Node15&#45;&gt;Node6</title>
<path fill="none" stroke="midnightblue" d="M897.197,-70.4029C912.929,-73.287 929.917,-76.4015 945.964,-79.3435"/>
<polygon fill="midnightblue" stroke="midnightblue" points="897.531,-66.9057 887.063,-68.545 896.268,-73.7909 897.531,-66.9057"/>
</g>
<!-- Node17 -->
<g id="node17" class="node"><title>Node17</title>
<g id="a_node17"><a xlink:href="../../da/d4e/classviewcontroller_1_1_view.html#a3ce37900baf65c2a31c0a2a7d5349aae" target="_top" xlink:title="viewcontroller.View.load\lWorkspace">
<polygon fill="white" stroke="black" points="770,-0 770,-30 898,-30 898,-0 770,-0"/>
<text text-anchor="start" x="778" y="-18" font-family="Helvetica,sans-Serif" font-size="10.00">viewcontroller.View.load</text>
<text text-anchor="middle" x="834" y="-7" font-family="Helvetica,sans-Serif" font-size="10.00">Workspace</text>
</a>
</g>
</g>
<!-- Node16&#45;&gt;Node17 -->
<g id="edge22" class="edge"><title>Node16&#45;&gt;Node17</title>
<path fill="none" stroke="midnightblue" d="M718.517,-15C735.435,-15 753.283,-15 769.722,-15"/>
<polygon fill="midnightblue" stroke="midnightblue" points="718.124,-11.5001 708.124,-15 718.124,-18.5001 718.124,-11.5001"/>
</g>
<!-- Node17&#45;&gt;Node6 -->
<g id="edge23" class="edge"><title>Node17&#45;&gt;Node6</title>
<path fill="none" stroke="midnightblue" d="M893.061,-33.4634C898.824,-35.5616 904.553,-37.756 910,-40 936.708,-51.0032 966.093,-65.799 986.968,-76.7945"/>
<polygon fill="midnightblue" stroke="midnightblue" points="893.969,-30.0718 883.374,-30.0313 891.631,-36.67 893.969,-30.0718"/>
</g>
</g>
</svg>
