<?xml version="1.0" encoding="UTF-8" standalone="no"?>
<!DOCTYPE svg PUBLIC "-//W3C//DTD SVG 1.1//EN"
 "http://www.w3.org/Graphics/SVG/1.1/DTD/svg11.dtd">
<!-- Generated by graphviz version 2.36.0 (20140111.2315)
 -->
<!-- Title: viewcontroller.turtlegrid.GridViewController.fixGridBackground Pages: 1 -->
<svg width="586pt" height="38pt"
 viewBox="0.00 0.00 586.00 38.00" xmlns="http://www.w3.org/2000/svg" xmlns:xlink="http://www.w3.org/1999/xlink">
<g id="graph0" class="graph" transform="scale(1 1) rotate(0) translate(4 34)">
<title>viewcontroller.turtlegrid.GridViewController.fixGridBackground</title>
<polygon fill="white" stroke="none" points="-4,4 -4,-34 582,-34 582,4 -4,4"/>
<!-- Node1 -->
<g id="node1" class="node"><title>Node1</title>
<polygon fill="#bfbfbf" stroke="black" points="0,-0 0,-30 194,-30 194,-0 0,-0"/>
<text text-anchor="start" x="8" y="-18" font-family="Helvetica,sans-Serif" font-size="10.00">viewcontroller.turtlegrid.</text>
<text text-anchor="middle" x="97" y="-7" font-family="Helvetica,sans-Serif" font-size="10.00">GridViewController.fixGridBackground</text>
</g>
<!-- Node2 -->
<g id="node2" class="node"><title>Node2</title>
<g id="a_node2"><a xlink:href="../../d5/dcc/classviewcontroller_1_1turtlegrid_1_1_grid_view_controller.html#a58f23297f6cf137808ab6d7196416e06" target="_top" xlink:title="viewcontroller.turtlegrid.\lGridViewController.updateTurtles">
<polygon fill="white" stroke="black" points="230.5,-0 230.5,-30 401.5,-30 401.5,-0 230.5,-0"/>
<text text-anchor="start" x="238.5" y="-18" font-family="Helvetica,sans-Serif" font-size="10.00">viewcontroller.turtlegrid.</text>
<text text-anchor="middle" x="316" y="-7" font-family="Helvetica,sans-Serif" font-size="10.00">GridViewController.updateTurtles</text>
</a>
</g>
</g>
<!-- Node1&#45;&gt;Node2 -->
<g id="edge1" class="edge"><title>Node1&#45;&gt;Node2</title>
<path fill="none" stroke="midnightblue" d="M204.302,-15C212.987,-15 221.692,-15 230.193,-15"/>
<polygon fill="midnightblue" stroke="midnightblue" points="204.127,-11.5001 194.127,-15 204.127,-18.5001 204.127,-11.5001"/>
</g>
<!-- Node3 -->
<g id="node3" class="node"><title>Node3</title>
<g id="a_node3"><a xlink:href="../../d5/dcc/classviewcontroller_1_1turtlegrid_1_1_grid_view_controller.html#ac4cf56a8a55a4d56d47a946719dfbc8e" target="_top" xlink:title="viewcontroller.turtlegrid.\lGridViewController.update">
<polygon fill="white" stroke="black" points="438,-0 438,-30 578,-30 578,-0 438,-0"/>
<text text-anchor="start" x="446" y="-18" font-family="Helvetica,sans-Serif" font-size="10.00">viewcontroller.turtlegrid.</text>
<text text-anchor="middle" x="508" y="-7" font-family="Helvetica,sans-Serif" font-size="10.00">GridViewController.update</text>
</a>
</g>
</g>
<!-- Node2&#45;&gt;Node3 -->
<g id="edge2" class="edge"><title>Node2&#45;&gt;Node3</title>
<path fill="none" stroke="midnightblue" d="M411.942,-15C420.665,-15 429.389,-15 437.819,-15"/>
<polygon fill="midnightblue" stroke="midnightblue" points="411.72,-11.5001 401.72,-15 411.72,-18.5001 411.72,-11.5001"/>
</g>
</g>
</svg>
