<?xml version="1.0" encoding="UTF-8" standalone="no"?>
<!DOCTYPE svg PUBLIC "-//W3C//DTD SVG 1.1//EN"
 "http://www.w3.org/Graphics/SVG/1.1/DTD/svg11.dtd">
<!-- Generated by graphviz version 2.36.0 (20140111.2315)
 -->
<!-- Title: viewcontroller.turtlegrid.GridViewController.updateTurtles Pages: 1 -->
<svg width="1096pt" height="111pt"
 viewBox="0.00 0.00 1096.00 111.00" xmlns="http://www.w3.org/2000/svg" xmlns:xlink="http://www.w3.org/1999/xlink">
<g id="graph0" class="graph" transform="scale(1 1) rotate(0) translate(4 107)">
<title>viewcontroller.turtlegrid.GridViewController.updateTurtles</title>
<polygon fill="white" stroke="none" points="-4,4 -4,-107 1092,-107 1092,4 -4,4"/>
<!-- Node1 -->
<g id="node1" class="node"><title>Node1</title>
<polygon fill="#bfbfbf" stroke="black" points="0.5,-24 0.5,-54 171.5,-54 171.5,-24 0.5,-24"/>
<text text-anchor="start" x="8.5" y="-42" font-family="Helvetica,sans-Serif" font-size="10.00">viewcontroller.turtlegrid.</text>
<text text-anchor="middle" x="86" y="-31" font-family="Helvetica,sans-Serif" font-size="10.00">GridViewController.updateTurtles</text>
</g>
<!-- Node2 -->
<g id="node2" class="node"><title>Node2</title>
<g id="a_node2"><a xlink:href="../../d5/dcc/classviewcontroller_1_1turtlegrid_1_1_grid_view_controller.html#ad47f1eb64161a940fffabaa00b1e19f0" target="_top" xlink:title="viewcontroller.turtlegrid.\lGridViewController.fixGridBackground">
<polygon fill="white" stroke="black" points="208,-24 208,-54 402,-54 402,-24 208,-24"/>
<text text-anchor="start" x="216" y="-42" font-family="Helvetica,sans-Serif" font-size="10.00">viewcontroller.turtlegrid.</text>
<text text-anchor="middle" x="305" y="-31" font-family="Helvetica,sans-Serif" font-size="10.00">GridViewController.fixGridBackground</text>
</a>
</g>
</g>
<!-- Node1&#45;&gt;Node2 -->
<g id="edge1" class="edge"><title>Node1&#45;&gt;Node2</title>
<path fill="none" stroke="midnightblue" d="M171.519,-39C180.073,-39 188.835,-39 197.58,-39"/>
<polygon fill="midnightblue" stroke="midnightblue" points="197.824,-42.5001 207.824,-39 197.824,-35.5001 197.824,-42.5001"/>
</g>
<!-- Node3 -->
<g id="node3" class="node"><title>Node3</title>
<g id="a_node3"><a xlink:href="../../d4/d4e/classviewcontroller_1_1turtlegrid_1_1_grid_lines.html#a1cb8b04bbce74da615655b6f87d560e8" target="_top" xlink:title="viewcontroller.turtlegrid.\lGridLines.changeSize">
<polygon fill="white" stroke="black" points="438.5,-24 438.5,-54 569.5,-54 569.5,-24 438.5,-24"/>
<text text-anchor="start" x="446.5" y="-42" font-family="Helvetica,sans-Serif" font-size="10.00">viewcontroller.turtlegrid.</text>
<text text-anchor="middle" x="504" y="-31" font-family="Helvetica,sans-Serif" font-size="10.00">GridLines.changeSize</text>
</a>
</g>
</g>
<!-- Node2&#45;&gt;Node3 -->
<g id="edge2" class="edge"><title>Node2&#45;&gt;Node3</title>
<path fill="none" stroke="midnightblue" d="M402.192,-39C410.941,-39 419.714,-39 428.236,-39"/>
<polygon fill="midnightblue" stroke="midnightblue" points="428.486,-42.5001 438.486,-39 428.486,-35.5001 428.486,-42.5001"/>
</g>
<!-- Node4 -->
<g id="node4" class="node"><title>Node4</title>
<g id="a_node4"><a xlink:href="../../d4/d4e/classviewcontroller_1_1turtlegrid_1_1_grid_lines.html#af24232825b9201fa4f5e911db2402cff" target="_top" xlink:title="viewcontroller.turtlegrid.\lGridLines.createGridLines">
<polygon fill="white" stroke="black" points="606.5,-49 606.5,-79 745.5,-79 745.5,-49 606.5,-49"/>
<text text-anchor="start" x="614.5" y="-67" font-family="Helvetica,sans-Serif" font-size="10.00">viewcontroller.turtlegrid.</text>
<text text-anchor="middle" x="676" y="-56" font-family="Helvetica,sans-Serif" font-size="10.00">GridLines.createGridLines</text>
</a>
</g>
</g>
<!-- Node3&#45;&gt;Node4 -->
<g id="edge3" class="edge"><title>Node3&#45;&gt;Node4</title>
<path fill="none" stroke="midnightblue" d="M569.755,-48.5227C578.481,-49.806 587.51,-51.1338 596.443,-52.4475"/>
<polygon fill="midnightblue" stroke="midnightblue" points="596.064,-55.9293 606.467,-53.9216 597.083,-49.0038 596.064,-55.9293"/>
</g>
<!-- Node9 -->
<g id="node9" class="node"><title>Node9</title>
<g id="a_node9"><a xlink:href="../../d4/d4e/classviewcontroller_1_1turtlegrid_1_1_grid_lines.html#abd846b3ddf23c1d45ed8fd2ba3775ee4" target="_top" xlink:title="viewcontroller.turtlegrid.\lGridLines.styleLines">
<polygon fill="white" stroke="black" points="610.5,-0 610.5,-30 741.5,-30 741.5,-0 610.5,-0"/>
<text text-anchor="start" x="618.5" y="-18" font-family="Helvetica,sans-Serif" font-size="10.00">viewcontroller.turtlegrid.</text>
<text text-anchor="middle" x="676" y="-7" font-family="Helvetica,sans-Serif" font-size="10.00">GridLines.styleLines</text>
</a>
</g>
</g>
<!-- Node3&#45;&gt;Node9 -->
<g id="edge8" class="edge"><title>Node3&#45;&gt;Node9</title>
<path fill="none" stroke="midnightblue" d="M569.755,-29.8582C579.748,-28.4474 590.137,-26.9806 600.326,-25.5422"/>
<polygon fill="midnightblue" stroke="midnightblue" points="601.013,-28.98 610.425,-24.1164 600.034,-22.0488 601.013,-28.98"/>
</g>
<!-- Node5 -->
<g id="node5" class="node"><title>Node5</title>
<g id="a_node5"><a xlink:href="../../d4/d4e/classviewcontroller_1_1turtlegrid_1_1_grid_lines.html#a6bd666dc845cbc177abc1ef9628d0af6" target="_top" xlink:title="viewcontroller.turtlegrid.\lGridLines.createColumns">
<polygon fill="white" stroke="black" points="782.5,-73 782.5,-103 919.5,-103 919.5,-73 782.5,-73"/>
<text text-anchor="start" x="790.5" y="-91" font-family="Helvetica,sans-Serif" font-size="10.00">viewcontroller.turtlegrid.</text>
<text text-anchor="middle" x="851" y="-80" font-family="Helvetica,sans-Serif" font-size="10.00">GridLines.createColumns</text>
</a>
</g>
</g>
<!-- Node4&#45;&gt;Node5 -->
<g id="edge4" class="edge"><title>Node4&#45;&gt;Node5</title>
<path fill="none" stroke="midnightblue" d="M745.871,-73.5544C754.634,-74.7701 763.65,-76.0207 772.536,-77.2536"/>
<polygon fill="midnightblue" stroke="midnightblue" points="772.108,-80.7276 782.494,-78.6351 773.07,-73.794 772.108,-80.7276"/>
</g>
<!-- Node7 -->
<g id="node7" class="node"><title>Node7</title>
<g id="a_node7"><a xlink:href="../../d4/d4e/classviewcontroller_1_1turtlegrid_1_1_grid_lines.html#a64fd5bd88db3100f4a4308b270438158" target="_top" xlink:title="viewcontroller.turtlegrid.\lGridLines.createRows">
<polygon fill="white" stroke="black" points="785.5,-24 785.5,-54 916.5,-54 916.5,-24 785.5,-24"/>
<text text-anchor="start" x="793.5" y="-42" font-family="Helvetica,sans-Serif" font-size="10.00">viewcontroller.turtlegrid.</text>
<text text-anchor="middle" x="851" y="-31" font-family="Helvetica,sans-Serif" font-size="10.00">GridLines.createRows</text>
</a>
</g>
</g>
<!-- Node4&#45;&gt;Node7 -->
<g id="edge6" class="edge"><title>Node4&#45;&gt;Node7</title>
<path fill="none" stroke="midnightblue" d="M745.871,-54.0475C755.522,-52.6529 765.479,-51.214 775.233,-49.8045"/>
<polygon fill="midnightblue" stroke="midnightblue" points="775.906,-53.2437 785.302,-48.3494 774.905,-46.3156 775.906,-53.2437"/>
</g>
<!-- Node6 -->
<g id="node6" class="node"><title>Node6</title>
<g id="a_node6"><a xlink:href="../../d4/d4e/classviewcontroller_1_1turtlegrid_1_1_grid_lines.html#ab69813081e93a5ca22a6f5de2542f90c" target="_top" xlink:title="viewcontroller.turtlegrid.\lGridLines.createColumn">
<polygon fill="white" stroke="black" points="956.5,-73 956.5,-103 1087.5,-103 1087.5,-73 956.5,-73"/>
<text text-anchor="start" x="964.5" y="-91" font-family="Helvetica,sans-Serif" font-size="10.00">viewcontroller.turtlegrid.</text>
<text text-anchor="middle" x="1022" y="-80" font-family="Helvetica,sans-Serif" font-size="10.00">GridLines.createColumn</text>
</a>
</g>
</g>
<!-- Node5&#45;&gt;Node6 -->
<g id="edge5" class="edge"><title>Node5&#45;&gt;Node6</title>
<path fill="none" stroke="midnightblue" d="M919.765,-88C928.411,-88 937.301,-88 946.053,-88"/>
<polygon fill="midnightblue" stroke="midnightblue" points="946.24,-91.5001 956.24,-88 946.24,-84.5001 946.24,-91.5001"/>
</g>
<!-- Node8 -->
<g id="node8" class="node"><title>Node8</title>
<g id="a_node8"><a xlink:href="../../d4/d4e/classviewcontroller_1_1turtlegrid_1_1_grid_lines.html#a27dc0c3932d0ee505524b2570b9b563a" target="_top" xlink:title="viewcontroller.turtlegrid.\lGridLines.createRow">
<polygon fill="white" stroke="black" points="956.5,-24 956.5,-54 1087.5,-54 1087.5,-24 956.5,-24"/>
<text text-anchor="start" x="964.5" y="-42" font-family="Helvetica,sans-Serif" font-size="10.00">viewcontroller.turtlegrid.</text>
<text text-anchor="middle" x="1022" y="-31" font-family="Helvetica,sans-Serif" font-size="10.00">GridLines.createRow</text>
</a>
</g>
</g>
<!-- Node7&#45;&gt;Node8 -->
<g id="edge7" class="edge"><title>Node7&#45;&gt;Node8</title>
<path fill="none" stroke="midnightblue" d="M916.856,-39C926.459,-39 936.421,-39 946.206,-39"/>
<polygon fill="midnightblue" stroke="midnightblue" points="946.317,-42.5001 956.317,-39 946.317,-35.5001 946.317,-42.5001"/>
</g>
</g>
</svg>
