<?xml version="1.0" encoding="UTF-8" standalone="no"?>
<!DOCTYPE svg PUBLIC "-//W3C//DTD SVG 1.1//EN"
 "http://www.w3.org/Graphics/SVG/1.1/DTD/svg11.dtd">
<!-- Generated by graphviz version 2.36.0 (20140111.2315)
 -->
<!-- Title: viewcontroller.turtlegrid.GridViewController.listenKeys Pages: 1 -->
<svg width="2516pt" height="399pt"
 viewBox="0.00 0.00 2516.00 399.00" xmlns="http://www.w3.org/2000/svg" xmlns:xlink="http://www.w3.org/1999/xlink">
<g id="graph0" class="graph" transform="scale(1 1) rotate(0) translate(4 395)">
<title>viewcontroller.turtlegrid.GridViewController.listenKeys</title>
<polygon fill="white" stroke="none" points="-4,4 -4,-395 2512,-395 2512,4 -4,4"/>
<!-- Node1 -->
<g id="node1" class="node"><title>Node1</title>
<polygon fill="#bfbfbf" stroke="black" points="0,-145 0,-175 154,-175 154,-145 0,-145"/>
<text text-anchor="start" x="8" y="-163" font-family="Helvetica,sans-Serif" font-size="10.00">viewcontroller.turtlegrid.</text>
<text text-anchor="middle" x="77" y="-152" font-family="Helvetica,sans-Serif" font-size="10.00">GridViewController.listenKeys</text>
</g>
<!-- Node2 -->
<g id="node2" class="node"><title>Node2</title>
<g id="a_node2"><a xlink:href="../../d5/dcc/classviewcontroller_1_1turtlegrid_1_1_grid_view_controller.html#a9b87e85ea14f3882c2fefa36ceb159cb" target="_top" xlink:title="viewcontroller.turtlegrid.\lGridViewController.forwardKeyPressed">
<polygon fill="white" stroke="black" points="190.5,-170 190.5,-200 387.5,-200 387.5,-170 190.5,-170"/>
<text text-anchor="start" x="198.5" y="-188" font-family="Helvetica,sans-Serif" font-size="10.00">viewcontroller.turtlegrid.</text>
<text text-anchor="middle" x="289" y="-177" font-family="Helvetica,sans-Serif" font-size="10.00">GridViewController.forwardKeyPressed</text>
</a>
</g>
</g>
<!-- Node1&#45;&gt;Node2 -->
<g id="edge1" class="edge"><title>Node1&#45;&gt;Node2</title>
<path fill="none" stroke="midnightblue" d="M154.112,-169.061C162.64,-170.076 171.444,-171.124 180.274,-172.175"/>
<polygon fill="midnightblue" stroke="midnightblue" points="179.897,-175.655 190.241,-173.362 180.725,-168.704 179.897,-175.655"/>
</g>
<!-- Node36 -->
<g id="node36" class="node"><title>Node36</title>
<g id="a_node36"><a xlink:href="../../d5/dcc/classviewcontroller_1_1turtlegrid_1_1_grid_view_controller.html#a7562be13e46d86a1d5f9058462a6d189" target="_top" xlink:title="viewcontroller.turtlegrid.\lGridViewController.rightKeyPressed">
<polygon fill="white" stroke="black" points="197.5,-121 197.5,-151 380.5,-151 380.5,-121 197.5,-121"/>
<text text-anchor="start" x="205.5" y="-139" font-family="Helvetica,sans-Serif" font-size="10.00">viewcontroller.turtlegrid.</text>
<text text-anchor="middle" x="289" y="-128" font-family="Helvetica,sans-Serif" font-size="10.00">GridViewController.rightKeyPressed</text>
</a>
</g>
</g>
<!-- Node1&#45;&gt;Node36 -->
<g id="edge36" class="edge"><title>Node1&#45;&gt;Node36</title>
<path fill="none" stroke="midnightblue" d="M154.112,-151.302C164.896,-150.069 176.121,-148.786 187.282,-147.511"/>
<polygon fill="midnightblue" stroke="midnightblue" points="187.961,-150.956 197.498,-146.343 187.166,-144.001 187.961,-150.956"/>
</g>
<!-- Node3 -->
<g id="node3" class="node"><title>Node3</title>
<g id="a_node3"><a xlink:href="../../d3/daf/classviewcontroller_1_1turtlegrid_1_1_turtle_window_view_controller.html#a0a65ca6c84f3f3e7bffa675df02c9166" target="_top" xlink:title="viewcontroller.turtlegrid.\lTurtleWindowViewController.pass\lSLogoCommand">
<polygon fill="white" stroke="black" points="424,-139.5 424,-180.5 594,-180.5 594,-139.5 424,-139.5"/>
<text text-anchor="start" x="432" y="-168.5" font-family="Helvetica,sans-Serif" font-size="10.00">viewcontroller.turtlegrid.</text>
<text text-anchor="start" x="432" y="-157.5" font-family="Helvetica,sans-Serif" font-size="10.00">TurtleWindowViewController.pass</text>
<text text-anchor="middle" x="509" y="-146.5" font-family="Helvetica,sans-Serif" font-size="10.00">SLogoCommand</text>
</a>
</g>
</g>
<!-- Node2&#45;&gt;Node3 -->
<g id="edge2" class="edge"><title>Node2&#45;&gt;Node3</title>
<path fill="none" stroke="midnightblue" d="M387.523,-173.816C396.241,-172.816 405.059,-171.805 413.749,-170.809"/>
<polygon fill="midnightblue" stroke="midnightblue" points="414.343,-174.264 423.879,-169.647 413.545,-167.309 414.343,-174.264"/>
</g>
<!-- Node4 -->
<g id="node4" class="node"><title>Node4</title>
<g id="a_node4"><a xlink:href="../../d3/d67/classviewcontroller_1_1_main_view_controller.html#a1b77a34d9385ff9296a9dc1db8c322cb" target="_top" xlink:title="viewcontroller.MainViewController.pass\lSLogoCommand">
<polygon fill="white" stroke="black" points="630,-145 630,-175 830,-175 830,-145 630,-145"/>
<text text-anchor="start" x="638" y="-163" font-family="Helvetica,sans-Serif" font-size="10.00">viewcontroller.MainViewController.pass</text>
<text text-anchor="middle" x="730" y="-152" font-family="Helvetica,sans-Serif" font-size="10.00">SLogoCommand</text>
</a>
</g>
</g>
<!-- Node3&#45;&gt;Node4 -->
<g id="edge3" class="edge"><title>Node3&#45;&gt;Node4</title>
<path fill="none" stroke="midnightblue" d="M594.045,-160C602.455,-160 611.076,-160 619.696,-160"/>
<polygon fill="midnightblue" stroke="midnightblue" points="619.802,-163.5 629.802,-160 619.802,-156.5 619.802,-163.5"/>
</g>
<!-- Node5 -->
<g id="node5" class="node"><title>Node5</title>
<g id="a_node5"><a xlink:href="../../de/d21/classmodel_1_1_main_model.html#a96f4ff9f640f14d713c5d90ab5704884" target="_top" xlink:title="model.MainModel.interpret\lSLogoCommand">
<polygon fill="white" stroke="black" points="866.5,-145 866.5,-175 1011.5,-175 1011.5,-145 866.5,-145"/>
<text text-anchor="start" x="874.5" y="-163" font-family="Helvetica,sans-Serif" font-size="10.00">model.MainModel.interpret</text>
<text text-anchor="middle" x="939" y="-152" font-family="Helvetica,sans-Serif" font-size="10.00">SLogoCommand</text>
</a>
</g>
</g>
<!-- Node4&#45;&gt;Node5 -->
<g id="edge4" class="edge"><title>Node4&#45;&gt;Node5</title>
<path fill="none" stroke="midnightblue" d="M830.256,-160C838.887,-160 847.557,-160 856.026,-160"/>
<polygon fill="midnightblue" stroke="midnightblue" points="856.24,-163.5 866.24,-160 856.24,-156.5 856.24,-163.5"/>
</g>
<!-- Node6 -->
<g id="node6" class="node"><title>Node6</title>
<g id="a_node6"><a xlink:href="../../db/d84/classmodel_1_1_command_history_model.html#a4587f5bb0678f50bfc8bc918d2f28241" target="_top" xlink:title="model.CommandHistoryModel.add\lCommand">
<polygon fill="white" stroke="black" points="1048.5,-238 1048.5,-268 1231.5,-268 1231.5,-238 1048.5,-238"/>
<text text-anchor="start" x="1056.5" y="-256" font-family="Helvetica,sans-Serif" font-size="10.00">model.CommandHistoryModel.add</text>
<text text-anchor="middle" x="1140" y="-245" font-family="Helvetica,sans-Serif" font-size="10.00">Command</text>
</a>
</g>
</g>
<!-- Node5&#45;&gt;Node6 -->
<g id="edge5" class="edge"><title>Node5&#45;&gt;Node6</title>
<path fill="none" stroke="midnightblue" d="M960.093,-175.201C981.055,-190.429 1015.36,-213.617 1048,-228 1053.47,-230.412 1059.24,-232.645 1065.1,-234.7"/>
<polygon fill="midnightblue" stroke="midnightblue" points="1064.42,-238.164 1075.02,-237.992 1066.63,-231.52 1064.42,-238.164"/>
</g>
<!-- Node7 -->
<g id="node7" class="node"><title>Node7</title>
<g id="a_node7"><a xlink:href="../../df/df6/classinterpreter_1_1result_1_1_s_logo_result.html#a6047e8ac53bae47b06b7f8daee701c43" target="_top" xlink:title="interpreter.result.SLogo\lResult.getHasError">
<polygon fill="white" stroke="black" points="1075,-189 1075,-219 1205,-219 1205,-189 1075,-189"/>
<text text-anchor="start" x="1083" y="-207" font-family="Helvetica,sans-Serif" font-size="10.00">interpreter.result.SLogo</text>
<text text-anchor="middle" x="1140" y="-196" font-family="Helvetica,sans-Serif" font-size="10.00">Result.getHasError</text>
</a>
</g>
</g>
<!-- Node5&#45;&gt;Node7 -->
<g id="edge6" class="edge"><title>Node5&#45;&gt;Node7</title>
<path fill="none" stroke="midnightblue" d="M1007.93,-175.019C1026.25,-179.071 1046.17,-183.475 1064.82,-187.598"/>
<polygon fill="midnightblue" stroke="midnightblue" points="1064.21,-191.049 1074.73,-189.79 1065.73,-184.214 1064.21,-191.049"/>
</g>
<!-- Node8 -->
<g id="node8" class="node"><title>Node8</title>
<g id="a_node8"><a xlink:href="../../d2/dc7/classinterpreter_1_1_interpreter.html#a2398aed9ce5fd0631e4a61eb0ae7e3eb" target="_top" xlink:title="interpreter.Interpreter.interpret">
<polygon fill="white" stroke="black" points="1058,-150.5 1058,-169.5 1222,-169.5 1222,-150.5 1058,-150.5"/>
<text text-anchor="middle" x="1140" y="-157.5" font-family="Helvetica,sans-Serif" font-size="10.00">interpreter.Interpreter.interpret</text>
</a>
</g>
</g>
<!-- Node5&#45;&gt;Node8 -->
<g id="edge7" class="edge"><title>Node5&#45;&gt;Node8</title>
<path fill="none" stroke="midnightblue" d="M1011.56,-160C1023.31,-160 1035.63,-160 1047.78,-160"/>
<polygon fill="midnightblue" stroke="midnightblue" points="1047.94,-163.5 1057.94,-160 1047.94,-156.5 1047.94,-163.5"/>
</g>
<!-- Node29 -->
<g id="node29" class="node"><title>Node29</title>
<g id="a_node29"><a xlink:href="../../de/d21/classmodel_1_1_main_model.html#a81fd23aa152cf9311abb569fa3c656fb" target="_top" xlink:title="model.MainModel.notifyObservers">
<polygon fill="white" stroke="black" points="1050.5,-112.5 1050.5,-131.5 1229.5,-131.5 1229.5,-112.5 1050.5,-112.5"/>
<text text-anchor="middle" x="1140" y="-119.5" font-family="Helvetica,sans-Serif" font-size="10.00">model.MainModel.notifyObservers</text>
</a>
</g>
</g>
<!-- Node5&#45;&gt;Node29 -->
<g id="edge28" class="edge"><title>Node5&#45;&gt;Node29</title>
<path fill="none" stroke="midnightblue" d="M1011.56,-146.335C1033.78,-142.092 1058.03,-137.462 1079.35,-133.391"/>
<polygon fill="midnightblue" stroke="midnightblue" points="1080.07,-136.816 1089.24,-131.503 1078.76,-129.94 1080.07,-136.816"/>
</g>
<!-- Node30 -->
<g id="node30" class="node"><title>Node30</title>
<g id="a_node30"><a xlink:href="../../de/d21/classmodel_1_1_main_model.html#a1863b9ce1cc6b16b0e03dbfc73f51314" target="_top" xlink:title="model.MainModel.updateModel">
<polygon fill="white" stroke="black" points="1057,-52.5 1057,-71.5 1223,-71.5 1223,-52.5 1057,-52.5"/>
<text text-anchor="middle" x="1140" y="-59.5" font-family="Helvetica,sans-Serif" font-size="10.00">model.MainModel.updateModel</text>
</a>
</g>
</g>
<!-- Node5&#45;&gt;Node30 -->
<g id="edge29" class="edge"><title>Node5&#45;&gt;Node30</title>
<path fill="none" stroke="midnightblue" d="M967.28,-144.998C988.972,-133.217 1020.19,-116.588 1048,-103 1067.57,-93.4369 1089.87,-83.3786 1107.49,-75.6177"/>
<polygon fill="midnightblue" stroke="midnightblue" points="1109,-78.7785 1116.75,-71.5602 1106.19,-72.3666 1109,-78.7785"/>
</g>
<!-- Node9 -->
<g id="node9" class="node"><title>Node9</title>
<g id="a_node9"><a xlink:href="../../da/de4/classinterpreter_1_1_expression_evaluator.html#a349369ee222f83e4370c70b449844139" target="_top" xlink:title="interpreter.ExpressionEvaluator.evaluate\lExpressionsAndMerge">
<polygon fill="white" stroke="black" points="1268,-145 1268,-175 1478,-175 1478,-145 1268,-145"/>
<text text-anchor="start" x="1276" y="-163" font-family="Helvetica,sans-Serif" font-size="10.00">interpreter.ExpressionEvaluator.evaluate</text>
<text text-anchor="middle" x="1373" y="-152" font-family="Helvetica,sans-Serif" font-size="10.00">ExpressionsAndMerge</text>
</a>
</g>
</g>
<!-- Node8&#45;&gt;Node9 -->
<g id="edge8" class="edge"><title>Node8&#45;&gt;Node9</title>
<path fill="none" stroke="midnightblue" d="M1222.12,-160C1233.7,-160 1245.78,-160 1257.85,-160"/>
<polygon fill="midnightblue" stroke="midnightblue" points="1257.97,-163.5 1267.97,-160 1257.97,-156.5 1257.97,-163.5"/>
</g>
<!-- Node15 -->
<g id="node15" class="node"><title>Node15</title>
<g id="a_node15"><a xlink:href="../../d3/da2/classinterpreter_1_1_parser.html#a27e67bfe24e33d6ac58aa3b482cd0f07" target="_top" xlink:title="interpreter.Parser.parse\lSLogoExpression">
<polygon fill="white" stroke="black" points="1308.5,-262 1308.5,-292 1437.5,-292 1437.5,-262 1308.5,-262"/>
<text text-anchor="start" x="1316.5" y="-280" font-family="Helvetica,sans-Serif" font-size="10.00">interpreter.Parser.parse</text>
<text text-anchor="middle" x="1373" y="-269" font-family="Helvetica,sans-Serif" font-size="10.00">SLogoExpression</text>
</a>
</g>
</g>
<!-- Node8&#45;&gt;Node15 -->
<g id="edge14" class="edge"><title>Node8&#45;&gt;Node15</title>
<path fill="none" stroke="midnightblue" d="M1203.72,-169.597C1213.39,-172.069 1223.11,-175.155 1232,-179 1276.42,-198.215 1321.07,-232.733 1347.63,-255.25"/>
<polygon fill="midnightblue" stroke="midnightblue" points="1345.41,-257.954 1355.27,-261.823 1349.97,-252.648 1345.41,-257.954"/>
</g>
<!-- Node10 -->
<g id="node10" class="node"><title>Node10</title>
<g id="a_node10"><a xlink:href="../../d6/d76/classinterpreter_1_1_s_logo_result_merger.html#a706aced67e4d219faa11f9821fef9000" target="_top" xlink:title="interpreter.SLogoResultMerger.append">
<polygon fill="white" stroke="black" points="1514,-125.5 1514,-144.5 1714,-144.5 1714,-125.5 1514,-125.5"/>
<text text-anchor="middle" x="1614" y="-132.5" font-family="Helvetica,sans-Serif" font-size="10.00">interpreter.SLogoResultMerger.append</text>
</a>
</g>
</g>
<!-- Node9&#45;&gt;Node10 -->
<g id="edge9" class="edge"><title>Node9&#45;&gt;Node10</title>
<path fill="none" stroke="midnightblue" d="M1478.13,-149.107C1489.31,-147.939 1500.66,-146.751 1511.8,-145.586"/>
<polygon fill="midnightblue" stroke="midnightblue" points="1512.37,-149.045 1521.95,-144.524 1511.64,-142.083 1512.37,-149.045"/>
</g>
<!-- Node11 -->
<g id="node11" class="node"><title>Node11</title>
<g id="a_node11"><a xlink:href="../../d6/d76/classinterpreter_1_1_s_logo_result_merger.html#a8c0879f8ab9d66e54b0317229ee6aa77" target="_top" xlink:title="interpreter.SLogoResultMerger.merge\lAndReturn">
<polygon fill="white" stroke="black" points="1516,-164 1516,-194 1712,-194 1712,-164 1516,-164"/>
<text text-anchor="start" x="1524" y="-182" font-family="Helvetica,sans-Serif" font-size="10.00">interpreter.SLogoResultMerger.merge</text>
<text text-anchor="middle" x="1614" y="-171" font-family="Helvetica,sans-Serif" font-size="10.00">AndReturn</text>
</a>
</g>
</g>
<!-- Node9&#45;&gt;Node11 -->
<g id="edge10" class="edge"><title>Node9&#45;&gt;Node11</title>
<path fill="none" stroke="midnightblue" d="M1478.13,-168.278C1487.37,-169.013 1496.73,-169.757 1506,-170.493"/>
<polygon fill="midnightblue" stroke="midnightblue" points="1505.75,-173.985 1515.99,-171.288 1506.3,-167.007 1505.75,-173.985"/>
</g>
<!-- Node12 -->
<g id="node12" class="node"><title>Node12</title>
<g id="a_node12"><a xlink:href="../../df/df6/classinterpreter_1_1result_1_1_s_logo_result.html#a11062748597af4f6622d9cbc92d4d9c0" target="_top" xlink:title="interpreter.result.SLogo\lResult.getTransition">
<polygon fill="white" stroke="black" points="1775,-82 1775,-112 1905,-112 1905,-82 1775,-82"/>
<text text-anchor="start" x="1783" y="-100" font-family="Helvetica,sans-Serif" font-size="10.00">interpreter.result.SLogo</text>
<text text-anchor="middle" x="1840" y="-89" font-family="Helvetica,sans-Serif" font-size="10.00">Result.getTransition</text>
</a>
</g>
</g>
<!-- Node11&#45;&gt;Node12 -->
<g id="edge11" class="edge"><title>Node11&#45;&gt;Node12</title>
<path fill="none" stroke="midnightblue" d="M1687.42,-163.951C1696.54,-161.118 1705.61,-157.819 1714,-154 1731.73,-145.93 1732.69,-137.927 1750,-129 1759.61,-124.045 1770.16,-119.522 1780.54,-115.537"/>
<polygon fill="midnightblue" stroke="midnightblue" points="1781.83,-118.791 1789.99,-112.031 1779.39,-112.229 1781.83,-118.791"/>
</g>
<!-- Node13 -->
<g id="node13" class="node"><title>Node13</title>
<g id="a_node13"><a xlink:href="../../df/df6/classinterpreter_1_1result_1_1_s_logo_result.html#a7e050bbb65d7c7eb5e9b9970c6e2616f" target="_top" xlink:title="interpreter.result.SLogo\lResult.getValue">
<polygon fill="white" stroke="black" points="1775,-188 1775,-218 1905,-218 1905,-188 1775,-188"/>
<text text-anchor="start" x="1783" y="-206" font-family="Helvetica,sans-Serif" font-size="10.00">interpreter.result.SLogo</text>
<text text-anchor="middle" x="1840" y="-195" font-family="Helvetica,sans-Serif" font-size="10.00">Result.getValue</text>
</a>
</g>
</g>
<!-- Node11&#45;&gt;Node13 -->
<g id="edge12" class="edge"><title>Node11&#45;&gt;Node13</title>
<path fill="none" stroke="midnightblue" d="M1712.27,-189.422C1729.77,-191.297 1747.76,-193.225 1764.49,-195.017"/>
<polygon fill="midnightblue" stroke="midnightblue" points="1764.41,-198.529 1774.73,-196.114 1765.16,-191.568 1764.41,-198.529"/>
</g>
<!-- Node14 -->
<g id="node14" class="node"><title>Node14</title>
<g id="a_node14"><a xlink:href="../../df/df6/classinterpreter_1_1result_1_1_s_logo_result.html#ade0879b3224a3216bf17e17e25bfd4ca" target="_top" xlink:title="interpreter.result.SLogo\lResult.setValue">
<polygon fill="white" stroke="black" points="1775,-139 1775,-169 1905,-169 1905,-139 1775,-139"/>
<text text-anchor="start" x="1783" y="-157" font-family="Helvetica,sans-Serif" font-size="10.00">interpreter.result.SLogo</text>
<text text-anchor="middle" x="1840" y="-146" font-family="Helvetica,sans-Serif" font-size="10.00">Result.setValue</text>
</a>
</g>
</g>
<!-- Node11&#45;&gt;Node14 -->
<g id="edge13" class="edge"><title>Node11&#45;&gt;Node14</title>
<path fill="none" stroke="midnightblue" d="M1712.27,-168.144C1729.77,-166.19 1747.76,-164.183 1764.49,-162.316"/>
<polygon fill="midnightblue" stroke="midnightblue" points="1765.18,-165.761 1774.73,-161.173 1764.4,-158.804 1765.18,-165.761"/>
</g>
<!-- Node16 -->
<g id="node16" class="node"><title>Node16</title>
<g id="a_node16"><a xlink:href="../../d3/da2/classinterpreter_1_1_parser.html#aa6ccb9df4d2405de8b559ebf6fdf9c51" target="_top" xlink:title="interpreter.Parser.loadAll\lExpressionParameters">
<polygon fill="white" stroke="black" points="1547,-311 1547,-341 1681,-341 1681,-311 1547,-311"/>
<text text-anchor="start" x="1555" y="-329" font-family="Helvetica,sans-Serif" font-size="10.00">interpreter.Parser.loadAll</text>
<text text-anchor="middle" x="1614" y="-318" font-family="Helvetica,sans-Serif" font-size="10.00">ExpressionParameters</text>
</a>
</g>
</g>
<!-- Node15&#45;&gt;Node16 -->
<g id="edge15" class="edge"><title>Node15&#45;&gt;Node16</title>
<path fill="none" stroke="midnightblue" d="M1437.73,-290.067C1468.18,-296.309 1504.85,-303.827 1536.76,-310.37"/>
<polygon fill="midnightblue" stroke="midnightblue" points="1536.44,-313.877 1546.94,-312.457 1537.85,-307.02 1536.44,-313.877"/>
</g>
<!-- Node18 -->
<g id="node18" class="node"><title>Node18</title>
<g id="a_node18"><a xlink:href="../../d3/da2/classinterpreter_1_1_parser.html#a6ec7d578c175a308702b323914b4cfd0" target="_top" xlink:title="interpreter.Parser.makeExpressions\lFromInput">
<polygon fill="white" stroke="black" points="1521,-262 1521,-292 1707,-292 1707,-262 1521,-262"/>
<text text-anchor="start" x="1529" y="-280" font-family="Helvetica,sans-Serif" font-size="10.00">interpreter.Parser.makeExpressions</text>
<text text-anchor="middle" x="1614" y="-269" font-family="Helvetica,sans-Serif" font-size="10.00">FromInput</text>
</a>
</g>
</g>
<!-- Node15&#45;&gt;Node18 -->
<g id="edge17" class="edge"><title>Node15&#45;&gt;Node18</title>
<path fill="none" stroke="midnightblue" d="M1437.73,-277C1460.1,-277 1485.82,-277 1510.55,-277"/>
<polygon fill="midnightblue" stroke="midnightblue" points="1510.7,-280.5 1520.7,-277 1510.7,-273.5 1510.7,-280.5"/>
</g>
<!-- Node27 -->
<g id="node27" class="node"><title>Node27</title>
<g id="a_node27"><a xlink:href="../../d3/da2/classinterpreter_1_1_parser.html#ace7fbbc85fc2aad57bea2330b0476ef4" target="_top" xlink:title="interpreter.Parser.parse\lOutComments">
<polygon fill="white" stroke="black" points="1549.5,-213 1549.5,-243 1678.5,-243 1678.5,-213 1549.5,-213"/>
<text text-anchor="start" x="1557.5" y="-231" font-family="Helvetica,sans-Serif" font-size="10.00">interpreter.Parser.parse</text>
<text text-anchor="middle" x="1614" y="-220" font-family="Helvetica,sans-Serif" font-size="10.00">OutComments</text>
</a>
</g>
</g>
<!-- Node15&#45;&gt;Node27 -->
<g id="edge26" class="edge"><title>Node15&#45;&gt;Node27</title>
<path fill="none" stroke="midnightblue" d="M1437.73,-263.933C1469.06,-257.51 1506.98,-249.735 1539.53,-243.063"/>
<polygon fill="midnightblue" stroke="midnightblue" points="1540.35,-246.468 1549.44,-241.03 1538.94,-239.61 1540.35,-246.468"/>
</g>
<!-- Node28 -->
<g id="node28" class="node"><title>Node28</title>
<g id="a_node28"><a xlink:href="../../d3/da2/classinterpreter_1_1_parser.html#a2c8ee0acf938cac9cd22ef8fe5c77866" target="_top" xlink:title="interpreter.Parser.process\lInput">
<polygon fill="white" stroke="black" points="1544,-360 1544,-390 1684,-390 1684,-360 1544,-360"/>
<text text-anchor="start" x="1552" y="-378" font-family="Helvetica,sans-Serif" font-size="10.00">interpreter.Parser.process</text>
<text text-anchor="middle" x="1614" y="-367" font-family="Helvetica,sans-Serif" font-size="10.00">Input</text>
</a>
</g>
</g>
<!-- Node15&#45;&gt;Node28 -->
<g id="edge27" class="edge"><title>Node15&#45;&gt;Node28</title>
<path fill="none" stroke="midnightblue" d="M1398.47,-292.011C1425.79,-308.227 1471.73,-333.898 1514,-350 1520.72,-352.56 1527.79,-354.936 1534.95,-357.123"/>
<polygon fill="midnightblue" stroke="midnightblue" points="1534.13,-360.532 1544.71,-359.987 1536.1,-353.815 1534.13,-360.532"/>
</g>
<!-- Node17 -->
<g id="node17" class="node"><title>Node17</title>
<g id="a_node17"><a xlink:href="../../db/d09/interfaceinterpreter_1_1expression_1_1_s_logo_expression.html#a8bb3a17e57258a80b5becf128afaa04c" target="_top" xlink:title="interpreter.expression.SLogo\lExpression.loadArguments">
<polygon fill="white" stroke="black" points="1762.5,-311 1762.5,-341 1917.5,-341 1917.5,-311 1762.5,-311"/>
<text text-anchor="start" x="1770.5" y="-329" font-family="Helvetica,sans-Serif" font-size="10.00">interpreter.expression.SLogo</text>
<text text-anchor="middle" x="1840" y="-318" font-family="Helvetica,sans-Serif" font-size="10.00">Expression.loadArguments</text>
</a>
</g>
</g>
<!-- Node16&#45;&gt;Node17 -->
<g id="edge16" class="edge"><title>Node16&#45;&gt;Node17</title>
<path fill="none" stroke="midnightblue" d="M1681.3,-326C1703.44,-326 1728.45,-326 1751.93,-326"/>
<polygon fill="midnightblue" stroke="midnightblue" points="1752.23,-329.5 1762.23,-326 1752.23,-322.5 1752.23,-329.5"/>
</g>
<!-- Node19 -->
<g id="node19" class="node"><title>Node19</title>
<g id="a_node19"><a xlink:href="../../d8/daa/classinterpreter_1_1_s_logo_expression_factory.html#a50eb077dd9b57f111e60eb7b297b6d29" target="_top" xlink:title="interpreter.SLogoExpression\lFactory.createExpression">
<polygon fill="white" stroke="black" points="1764,-262 1764,-292 1916,-292 1916,-262 1764,-262"/>
<text text-anchor="start" x="1772" y="-280" font-family="Helvetica,sans-Serif" font-size="10.00">interpreter.SLogoExpression</text>
<text text-anchor="middle" x="1840" y="-269" font-family="Helvetica,sans-Serif" font-size="10.00">Factory.createExpression</text>
</a>
</g>
</g>
<!-- Node18&#45;&gt;Node19 -->
<g id="edge18" class="edge"><title>Node18&#45;&gt;Node19</title>
<path fill="none" stroke="midnightblue" d="M1707.08,-277C1722.37,-277 1738.18,-277 1753.31,-277"/>
<polygon fill="midnightblue" stroke="midnightblue" points="1753.66,-280.5 1763.66,-277 1753.66,-273.5 1753.66,-280.5"/>
</g>
<!-- Node20 -->
<g id="node20" class="node"><title>Node20</title>
<g id="a_node20"><a xlink:href="../../d8/daa/classinterpreter_1_1_s_logo_expression_factory.html#af866a871782317ae912240ad2e383bd9" target="_top" xlink:title="interpreter.SLogoExpression\lFactory.checkTypeAndInitialize">
<polygon fill="white" stroke="black" points="1966,-262 1966,-292 2124,-292 2124,-262 1966,-262"/>
<text text-anchor="start" x="1974" y="-280" font-family="Helvetica,sans-Serif" font-size="10.00">interpreter.SLogoExpression</text>
<text text-anchor="middle" x="2045" y="-269" font-family="Helvetica,sans-Serif" font-size="10.00">Factory.checkTypeAndInitialize</text>
</a>
</g>
</g>
<!-- Node19&#45;&gt;Node20 -->
<g id="edge19" class="edge"><title>Node19&#45;&gt;Node20</title>
<path fill="none" stroke="midnightblue" d="M1916.01,-277C1928.97,-277 1942.55,-277 1955.82,-277"/>
<polygon fill="midnightblue" stroke="midnightblue" points="1955.9,-280.5 1965.9,-277 1955.9,-273.5 1955.9,-280.5"/>
</g>
<!-- Node21 -->
<g id="node21" class="node"><title>Node21</title>
<g id="a_node21"><a xlink:href="../../d8/daa/classinterpreter_1_1_s_logo_expression_factory.html#aed195cb1e071e9e87792f7a51242f824" target="_top" xlink:title="interpreter.SLogoExpression\lFactory.initializeExpression">
<polygon fill="white" stroke="black" points="2162,-311 2162,-341 2314,-341 2314,-311 2162,-311"/>
<text text-anchor="start" x="2170" y="-329" font-family="Helvetica,sans-Serif" font-size="10.00">interpreter.SLogoExpression</text>
<text text-anchor="middle" x="2238" y="-318" font-family="Helvetica,sans-Serif" font-size="10.00">Factory.initializeExpression</text>
</a>
</g>
</g>
<!-- Node20&#45;&gt;Node21 -->
<g id="edge20" class="edge"><title>Node20&#45;&gt;Node21</title>
<path fill="none" stroke="midnightblue" d="M2104.6,-292.035C2124.86,-297.232 2147.74,-303.101 2168.71,-308.48"/>
<polygon fill="midnightblue" stroke="midnightblue" points="2167.95,-311.899 2178.51,-310.994 2169.69,-305.119 2167.95,-311.899"/>
</g>
<!-- Node25 -->
<g id="node25" class="node"><title>Node25</title>
<g id="a_node25"><a xlink:href="../../d8/daa/classinterpreter_1_1_s_logo_expression_factory.html#a67c690097a981fbc2bf840c1f619639a" target="_top" xlink:title="interpreter.SLogoExpression\lFactory.isMatch">
<polygon fill="white" stroke="black" points="2162,-262 2162,-292 2314,-292 2314,-262 2162,-262"/>
<text text-anchor="start" x="2170" y="-280" font-family="Helvetica,sans-Serif" font-size="10.00">interpreter.SLogoExpression</text>
<text text-anchor="middle" x="2238" y="-269" font-family="Helvetica,sans-Serif" font-size="10.00">Factory.isMatch</text>
</a>
</g>
</g>
<!-- Node20&#45;&gt;Node25 -->
<g id="edge24" class="edge"><title>Node20&#45;&gt;Node25</title>
<path fill="none" stroke="midnightblue" d="M2124.24,-277C2133.3,-277 2142.57,-277 2151.71,-277"/>
<polygon fill="midnightblue" stroke="midnightblue" points="2151.96,-280.5 2161.96,-277 2151.96,-273.5 2151.96,-280.5"/>
</g>
<!-- Node26 -->
<g id="node26" class="node"><title>Node26</title>
<g id="a_node26"><a xlink:href="../../db/d09/interfaceinterpreter_1_1expression_1_1_s_logo_expression.html#a035636bae1b48baf5732f091a85ca9b1" target="_top" xlink:title="interpreter.expression.SLogo\lExpression.setValue">
<polygon fill="white" stroke="black" points="2160.5,-213 2160.5,-243 2315.5,-243 2315.5,-213 2160.5,-213"/>
<text text-anchor="start" x="2168.5" y="-231" font-family="Helvetica,sans-Serif" font-size="10.00">interpreter.expression.SLogo</text>
<text text-anchor="middle" x="2238" y="-220" font-family="Helvetica,sans-Serif" font-size="10.00">Expression.setValue</text>
</a>
</g>
</g>
<!-- Node20&#45;&gt;Node26 -->
<g id="edge25" class="edge"><title>Node20&#45;&gt;Node26</title>
<path fill="none" stroke="midnightblue" d="M2104.6,-261.965C2124.86,-256.768 2147.74,-250.899 2168.71,-245.52"/>
<polygon fill="midnightblue" stroke="midnightblue" points="2169.69,-248.881 2178.51,-243.006 2167.95,-242.101 2169.69,-248.881"/>
</g>
<!-- Node22 -->
<g id="node22" class="node"><title>Node22</title>
<g id="a_node22"><a xlink:href="../../db/d09/interfaceinterpreter_1_1expression_1_1_s_logo_expression.html#a8dbb9bf4dced75bf7e423cb614958a15" target="_top" xlink:title="interpreter.expression.SLogo\lExpression.loadLibrary">
<polygon fill="white" stroke="black" points="2352.5,-360 2352.5,-390 2507.5,-390 2507.5,-360 2352.5,-360"/>
<text text-anchor="start" x="2360.5" y="-378" font-family="Helvetica,sans-Serif" font-size="10.00">interpreter.expression.SLogo</text>
<text text-anchor="middle" x="2430" y="-367" font-family="Helvetica,sans-Serif" font-size="10.00">Expression.loadLibrary</text>
</a>
</g>
</g>
<!-- Node21&#45;&gt;Node22 -->
<g id="edge21" class="edge"><title>Node21&#45;&gt;Node22</title>
<path fill="none" stroke="midnightblue" d="M2297.3,-341.035C2317.45,-346.232 2340.21,-352.101 2361.06,-357.48"/>
<polygon fill="midnightblue" stroke="midnightblue" points="2360.26,-360.886 2370.81,-359.994 2362,-354.107 2360.26,-360.886"/>
</g>
<!-- Node23 -->
<g id="node23" class="node"><title>Node23</title>
<g id="a_node23"><a xlink:href="../../db/d09/interfaceinterpreter_1_1expression_1_1_s_logo_expression.html#a85984c7b01a9e06a1f4c8d73f7752a48" target="_top" xlink:title="interpreter.expression.SLogo\lExpression.loadModel">
<polygon fill="white" stroke="black" points="2352.5,-311 2352.5,-341 2507.5,-341 2507.5,-311 2352.5,-311"/>
<text text-anchor="start" x="2360.5" y="-329" font-family="Helvetica,sans-Serif" font-size="10.00">interpreter.expression.SLogo</text>
<text text-anchor="middle" x="2430" y="-318" font-family="Helvetica,sans-Serif" font-size="10.00">Expression.loadModel</text>
</a>
</g>
</g>
<!-- Node21&#45;&gt;Node23 -->
<g id="edge22" class="edge"><title>Node21&#45;&gt;Node23</title>
<path fill="none" stroke="midnightblue" d="M2314.09,-326C2323.31,-326 2332.79,-326 2342.16,-326"/>
<polygon fill="midnightblue" stroke="midnightblue" points="2342.27,-329.5 2352.27,-326 2342.27,-322.5 2342.27,-329.5"/>
</g>
<!-- Node24 -->
<g id="node24" class="node"><title>Node24</title>
<g id="a_node24"><a xlink:href="../../db/d09/interfaceinterpreter_1_1expression_1_1_s_logo_expression.html#ae5647ebedeb07edc2902d7cf478107f7" target="_top" xlink:title="interpreter.expression.SLogo\lExpression.setNumArgs">
<polygon fill="white" stroke="black" points="2352.5,-262 2352.5,-292 2507.5,-292 2507.5,-262 2352.5,-262"/>
<text text-anchor="start" x="2360.5" y="-280" font-family="Helvetica,sans-Serif" font-size="10.00">interpreter.expression.SLogo</text>
<text text-anchor="middle" x="2430" y="-269" font-family="Helvetica,sans-Serif" font-size="10.00">Expression.setNumArgs</text>
</a>
</g>
</g>
<!-- Node21&#45;&gt;Node24 -->
<g id="edge23" class="edge"><title>Node21&#45;&gt;Node24</title>
<path fill="none" stroke="midnightblue" d="M2297.3,-310.965C2317.45,-305.768 2340.21,-299.899 2361.06,-294.52"/>
<polygon fill="midnightblue" stroke="midnightblue" points="2362,-297.893 2370.81,-292.006 2360.26,-291.114 2362,-297.893"/>
</g>
<!-- Node30&#45;&gt;Node12 -->
<g id="edge30" class="edge"><title>Node30&#45;&gt;Node12</title>
<path fill="none" stroke="midnightblue" d="M1223.26,-61.1286C1334.72,-60.6709 1539.8,-62.3879 1714,-78 1730.48,-79.4766 1748.08,-81.7302 1764.73,-84.1756"/>
<polygon fill="midnightblue" stroke="midnightblue" points="1764.54,-87.6866 1774.95,-85.7177 1765.58,-80.7649 1764.54,-87.6866"/>
</g>
<!-- Node31 -->
<g id="node31" class="node"><title>Node31</title>
<g id="a_node31"><a xlink:href="../../de/d21/classmodel_1_1_main_model.html#aad9f626d0b472cbc3d57e8af0c4326cc" target="_top" xlink:title="model.MainModel.setMyAnimation">
<polygon fill="white" stroke="black" points="1282.5,-87.5 1282.5,-106.5 1463.5,-106.5 1463.5,-87.5 1282.5,-87.5"/>
<text text-anchor="middle" x="1373" y="-94.5" font-family="Helvetica,sans-Serif" font-size="10.00">model.MainModel.setMyAnimation</text>
</a>
</g>
</g>
<!-- Node30&#45;&gt;Node31 -->
<g id="edge31" class="edge"><title>Node30&#45;&gt;Node31</title>
<path fill="none" stroke="midnightblue" d="M1203.82,-71.5177C1233.22,-75.9734 1268.43,-81.3078 1299.02,-85.9418"/>
<polygon fill="midnightblue" stroke="midnightblue" points="1298.78,-89.4466 1309.2,-87.4842 1299.83,-82.5256 1298.78,-89.4466"/>
</g>
<!-- Node33 -->
<g id="node33" class="node"><title>Node33</title>
<g id="a_node33"><a xlink:href="../../dd/d63/classmodel_1_1_model_updater.html#a08dce6edfc21ceba207d7a534d2bd71c" target="_top" xlink:title="model.ModelUpdater.update\lModel">
<polygon fill="white" stroke="black" points="1296.5,-0 1296.5,-30 1449.5,-30 1449.5,-0 1296.5,-0"/>
<text text-anchor="start" x="1304.5" y="-18" font-family="Helvetica,sans-Serif" font-size="10.00">model.ModelUpdater.update</text>
<text text-anchor="middle" x="1373" y="-7" font-family="Helvetica,sans-Serif" font-size="10.00">Model</text>
</a>
</g>
</g>
<!-- Node30&#45;&gt;Node33 -->
<g id="edge33" class="edge"><title>Node30&#45;&gt;Node33</title>
<path fill="none" stroke="midnightblue" d="M1187.75,-52.4888C1216.54,-46.6296 1254.31,-38.9463 1288.14,-32.0617"/>
<polygon fill="midnightblue" stroke="midnightblue" points="1288.94,-35.4724 1298.04,-30.0488 1287.54,-28.613 1288.94,-35.4724"/>
</g>
<!-- Node32 -->
<g id="node32" class="node"><title>Node32</title>
<g id="a_node32"><a xlink:href="../../d4/d57/classturtle_1_1_turtle_list_history.html#a1d6e950f470e133d79684a9c3baf54b4" target="_top" xlink:title="turtle.TurtleListHistory.updateList">
<polygon fill="white" stroke="black" points="1527.5,-87.5 1527.5,-106.5 1700.5,-106.5 1700.5,-87.5 1527.5,-87.5"/>
<text text-anchor="middle" x="1614" y="-94.5" font-family="Helvetica,sans-Serif" font-size="10.00">turtle.TurtleListHistory.updateList</text>
</a>
</g>
</g>
<!-- Node31&#45;&gt;Node32 -->
<g id="edge32" class="edge"><title>Node31&#45;&gt;Node32</title>
<path fill="none" stroke="midnightblue" d="M1463.67,-97C1481.06,-97 1499.34,-97 1516.92,-97"/>
<polygon fill="midnightblue" stroke="midnightblue" points="1517.18,-100.5 1527.18,-97 1517.18,-93.5001 1517.18,-100.5"/>
</g>
<!-- Node34 -->
<g id="node34" class="node"><title>Node34</title>
<g id="a_node34"><a xlink:href="../../dd/d63/classmodel_1_1_model_updater.html#ad73b783b59545c68e1fb9123e44492d4" target="_top" xlink:title="model.ModelUpdater.create\lTurtleTransitionMapping">
<polygon fill="white" stroke="black" points="1539,-0 1539,-30 1689,-30 1689,-0 1539,-0"/>
<text text-anchor="start" x="1547" y="-18" font-family="Helvetica,sans-Serif" font-size="10.00">model.ModelUpdater.create</text>
<text text-anchor="middle" x="1614" y="-7" font-family="Helvetica,sans-Serif" font-size="10.00">TurtleTransitionMapping</text>
</a>
</g>
</g>
<!-- Node33&#45;&gt;Node34 -->
<g id="edge34" class="edge"><title>Node33&#45;&gt;Node34</title>
<path fill="none" stroke="midnightblue" d="M1449.62,-15C1474.73,-15 1502.85,-15 1528.58,-15"/>
<polygon fill="midnightblue" stroke="midnightblue" points="1528.69,-18.5001 1538.69,-15 1528.69,-11.5001 1528.69,-18.5001"/>
</g>
<!-- Node35 -->
<g id="node35" class="node"><title>Node35</title>
<g id="a_node35"><a xlink:href="../../dd/d63/classmodel_1_1_model_updater.html#a44e91f3e31045ca0a067ffe9d270ab29" target="_top" xlink:title="model.ModelUpdater.findSelected\lTurtles">
<polygon fill="white" stroke="black" points="1750.5,-0 1750.5,-30 1929.5,-30 1929.5,-0 1750.5,-0"/>
<text text-anchor="start" x="1758.5" y="-18" font-family="Helvetica,sans-Serif" font-size="10.00">model.ModelUpdater.findSelected</text>
<text text-anchor="middle" x="1840" y="-7" font-family="Helvetica,sans-Serif" font-size="10.00">Turtles</text>
</a>
</g>
</g>
<!-- Node34&#45;&gt;Node35 -->
<g id="edge35" class="edge"><title>Node34&#45;&gt;Node35</title>
<path fill="none" stroke="midnightblue" d="M1689.28,-15C1705.41,-15 1722.73,-15 1739.66,-15"/>
<polygon fill="midnightblue" stroke="midnightblue" points="1740.14,-18.5001 1750.14,-15 1740.14,-11.5001 1740.14,-18.5001"/>
</g>
<!-- Node36&#45;&gt;Node3 -->
<g id="edge37" class="edge"><title>Node36&#45;&gt;Node3</title>
<path fill="none" stroke="midnightblue" d="M380.558,-145.97C391.485,-147.173 402.666,-148.404 413.646,-149.612"/>
<polygon fill="midnightblue" stroke="midnightblue" points="413.336,-153.099 423.659,-150.715 414.103,-146.141 413.336,-153.099"/>
</g>
</g>
</svg>
