<?xml version="1.0" encoding="UTF-8" standalone="no"?>
<!DOCTYPE svg PUBLIC "-//W3C//DTD SVG 1.1//EN"
 "http://www.w3.org/Graphics/SVG/1.1/DTD/svg11.dtd">
<!-- Generated by graphviz version 2.36.0 (20140111.2315)
 -->
<!-- Title: viewcontroller.turtlegrid.GridViewController.GridViewController Pages: 1 -->
<svg width="432pt" height="97pt"
 viewBox="0.00 0.00 432.00 97.00" xmlns="http://www.w3.org/2000/svg" xmlns:xlink="http://www.w3.org/1999/xlink">
<g id="graph0" class="graph" transform="scale(1 1) rotate(0) translate(4 93)">
<title>viewcontroller.turtlegrid.GridViewController.GridViewController</title>
<polygon fill="white" stroke="none" points="-4,4 -4,-93 428,-93 428,4 -4,4"/>
<!-- Node1 -->
<g id="node1" class="node"><title>Node1</title>
<polygon fill="#bfbfbf" stroke="black" points="0,-32 0,-62 194,-62 194,-32 0,-32"/>
<text text-anchor="start" x="8" y="-50" font-family="Helvetica,sans-Serif" font-size="10.00">viewcontroller.turtlegrid.</text>
<text text-anchor="middle" x="97" y="-39" font-family="Helvetica,sans-Serif" font-size="10.00">GridViewController.GridViewController</text>
</g>
<!-- Node2 -->
<g id="node2" class="node"><title>Node2</title>
<g id="a_node2"><a xlink:href="../../d5/dcc/classviewcontroller_1_1turtlegrid_1_1_grid_view_controller.html#a2687b08f8ca6f44b97adcbcb36a5ea5b" target="_top" xlink:title="viewcontroller.turtlegrid.\lGridViewController.createBackground">
<polygon fill="white" stroke="black" points="230,-59 230,-89 424,-89 424,-59 230,-59"/>
<text text-anchor="start" x="238" y="-77" font-family="Helvetica,sans-Serif" font-size="10.00">viewcontroller.turtlegrid.</text>
<text text-anchor="middle" x="327" y="-66" font-family="Helvetica,sans-Serif" font-size="10.00">GridViewController.createBackground</text>
</a>
</g>
</g>
<!-- Node1&#45;&gt;Node2 -->
<g id="edge1" class="edge"><title>Node1&#45;&gt;Node2</title>
<path fill="none" stroke="midnightblue" d="M194.032,-58.3722C202.517,-59.377 211.138,-60.3979 219.7,-61.4119"/>
<polygon fill="midnightblue" stroke="midnightblue" points="219.372,-64.8974 229.714,-62.5977 220.195,-57.9459 219.372,-64.8974"/>
</g>
<!-- Node3 -->
<g id="node3" class="node"><title>Node3</title>
<g id="a_node3"><a xlink:href="../../d5/dcc/classviewcontroller_1_1turtlegrid_1_1_grid_view_controller.html#a45999c67912f1f320516a163bb7bd416" target="_top" xlink:title="viewcontroller.turtlegrid.\lGridViewController.setUpGridKey\lListeners">
<polygon fill="white" stroke="black" points="241.5,0.5 241.5,-40.5 412.5,-40.5 412.5,0.5 241.5,0.5"/>
<text text-anchor="start" x="249.5" y="-28.5" font-family="Helvetica,sans-Serif" font-size="10.00">viewcontroller.turtlegrid.</text>
<text text-anchor="start" x="249.5" y="-17.5" font-family="Helvetica,sans-Serif" font-size="10.00">GridViewController.setUpGridKey</text>
<text text-anchor="middle" x="327" y="-6.5" font-family="Helvetica,sans-Serif" font-size="10.00">Listeners</text>
</a>
</g>
</g>
<!-- Node1&#45;&gt;Node3 -->
<g id="edge2" class="edge"><title>Node1&#45;&gt;Node3</title>
<path fill="none" stroke="midnightblue" d="M194.032,-35.6278C206.297,-34.1754 218.847,-32.6892 231.094,-31.2389"/>
<polygon fill="midnightblue" stroke="midnightblue" points="231.778,-34.6824 241.297,-30.0306 230.955,-27.7309 231.778,-34.6824"/>
</g>
</g>
</svg>
