<?xml version="1.0" encoding="UTF-8" standalone="no"?>
<!DOCTYPE svg PUBLIC "-//W3C//DTD SVG 1.1//EN"
 "http://www.w3.org/Graphics/SVG/1.1/DTD/svg11.dtd">
<!-- Generated by graphviz version 2.36.0 (20140111.2315)
 -->
<!-- Title: viewcontroller.commands.CommandPromptViewController Pages: 1 -->
<svg width="235pt" height="164pt"
 viewBox="0.00 0.00 235.00 164.00" xmlns="http://www.w3.org/2000/svg" xmlns:xlink="http://www.w3.org/1999/xlink">
<g id="graph0" class="graph" transform="scale(1 1) rotate(0) translate(4 160)">
<title>viewcontroller.commands.CommandPromptViewController</title>
<polygon fill="white" stroke="none" points="-4,4 -4,-160 231,-160 231,4 -4,4"/>
<!-- Node1 -->
<g id="node1" class="node"><title>Node1</title>
<polygon fill="#bfbfbf" stroke="black" points="0,-1 0,-31 170,-31 170,-1 0,-1"/>
<text text-anchor="start" x="8" y="-19" font-family="Helvetica,sans-Serif" font-size="10.00">viewcontroller.commands.</text>
<text text-anchor="middle" x="85" y="-8" font-family="Helvetica,sans-Serif" font-size="10.00">CommandPromptViewController</text>
</g>
<!-- Node2 -->
<g id="node2" class="node"><title>Node2</title>
<g id="a_node2"><a xlink:href="../../d8/d68/classviewcontroller_1_1commands_1_1_command_window_view_controller.html" target="_top" xlink:title="viewcontroller.commands.\lCommandWindowViewController">
<polygon fill="white" stroke="black" points="57,-69 57,-99 227,-99 227,-69 57,-69"/>
<text text-anchor="start" x="65" y="-87" font-family="Helvetica,sans-Serif" font-size="10.00">viewcontroller.commands.</text>
<text text-anchor="middle" x="142" y="-76" font-family="Helvetica,sans-Serif" font-size="10.00">CommandWindowViewController</text>
</a>
</g>
</g>
<!-- Node2&#45;&gt;Node1 -->
<g id="edge1" class="edge"><title>Node2&#45;&gt;Node1</title>
<path fill="none" stroke="midnightblue" d="M122.915,-60.9013C114.481,-51.1362 104.809,-39.9363 97.344,-31.2931"/>
<polygon fill="midnightblue" stroke="midnightblue" points="120.447,-63.3984 129.632,-68.679 125.745,-58.823 120.447,-63.3984"/>
</g>
<!-- Node3 -->
<g id="node3" class="node"><title>Node3</title>
<g id="a_node3"><a xlink:href="../../d4/deb/interfaceviewcontroller_1_1_view_controller.html" target="_top" xlink:title="viewcontroller.ViewController">
<polygon fill="white" stroke="black" points="9,-136.5 9,-155.5 161,-155.5 161,-136.5 9,-136.5"/>
<text text-anchor="middle" x="85" y="-143.5" font-family="Helvetica,sans-Serif" font-size="10.00">viewcontroller.ViewController</text>
</a>
</g>
</g>
<!-- Node3&#45;&gt;Node1 -->
<g id="edge3" class="edge"><title>Node3&#45;&gt;Node1</title>
<path fill="none" stroke="midnightblue" d="M67.3595,-129.152C59.857,-121.231 51.9406,-110.997 48,-100 43.2025,-86.6114 43.6098,-81.5277 48,-68 52.5248,-54.0578 62.4502,-40.738 70.8827,-31.209"/>
<polygon fill="midnightblue" stroke="midnightblue" points="64.9806,-131.722 74.5615,-136.245 69.8923,-126.734 64.9806,-131.722"/>
</g>
<!-- Node3&#45;&gt;Node2 -->
<g id="edge2" class="edge"><title>Node3&#45;&gt;Node2</title>
<path fill="none" stroke="midnightblue" d="M100.241,-128.957C109.064,-119.669 120.069,-108.085 128.566,-99.1408"/>
<polygon fill="midnightblue" stroke="midnightblue" points="97.5167,-126.743 93.1667,-136.403 102.592,-131.564 97.5167,-126.743"/>
</g>
</g>
</svg>
