<?xml version="1.0" encoding="UTF-8" standalone="no"?>
<!DOCTYPE svg PUBLIC "-//W3C//DTD SVG 1.1//EN"
 "http://www.w3.org/Graphics/SVG/1.1/DTD/svg11.dtd">
<!-- Generated by graphviz version 2.36.0 (20140111.2315)
 -->
<!-- Title: viewcontroller.ViewController Pages: 1 -->
<!--zoomable 301 -->
<svg id="main" version="1.1" xmlns="http://www.w3.org/2000/svg" xmlns:xlink="http://www.w3.org/1999/xlink" xml:space="preserve" onload="init(evt)">
<style type="text/css"><![CDATA[
.edge:hover path { stroke: red; }
.edge:hover polygon { stroke: red; fill: red; }
]]></style>
<script type="text/javascript"><![CDATA[
var edges = document.getElementsByTagName('g');
if (edges && edges.length) {
  for (var i=0;i<edges.length;i++) {
    if (edges[i].id.substr(0,4)=='edge') {
      edges[i].setAttribute('class','edge');
    }
  }
}
]]></script>
        <defs>
                <circle id="rim" cx="0" cy="0" r="7"/>
                <circle id="rim2" cx="0" cy="0" r="3.5"/>
                <g id="zoomPlus">
                        <use xlink:href="#rim" fill="#404040">
                                <set attributeName="fill" to="#808080" begin="zoomplus.mouseover" end="zoomplus.mouseout"/>
                        </use>
                        <path d="M-4,0h8M0,-4v8" fill="none" stroke="white" stroke-width="1.5" pointer-events="none"/>
                </g>
                <g id="zoomMin">
                        <use xlink:href="#rim" fill="#404040">
                                <set attributeName="fill" to="#808080" begin="zoomminus.mouseover" end="zoomminus.mouseout"/>
                        </use>
                        <path d="M-4,0h8" fill="none" stroke="white" stroke-width="1.5" pointer-events="none"/>
                </g>
                <g id="dirArrow">
                        <path fill="none" stroke="white" stroke-width="1.5" d="M0,-3.0v7 M-2.5,-0.5L0,-3.0L2.5,-0.5"/>
                </g>
               <g id="resetDef">
                       <use xlink:href="#rim2" fill="#404040">
                               <set attributeName="fill" to="#808080" begin="reset.mouseover" end="reset.mouseout"/>
                       </use>
               </g>
        </defs>

<script type="text/javascript">
var viewWidth = 1084;
var viewHeight = 301;
var sectionId = 'dynsection-0';
</script>
<script xlink:href="../../svgpan.js"/>
<svg id="graph" class="graph">
<g id="viewport">
<title>viewcontroller.ViewController</title>
<polygon fill="white" stroke="none" points="-4,4 -4,-297 1080,-297 1080,4 -4,4"/>
<!-- Node1 -->
<g id="node1" class="node"><title>Node1</title>
<polygon fill="#bfbfbf" stroke="black" points="0,-142.5 0,-161.5 152,-161.5 152,-142.5 0,-142.5"/>
<text text-anchor="middle" x="76" y="-149.5" font-family="Helvetica,sans-Serif" font-size="10.00">viewcontroller.ViewController</text>
</g>
<!-- Node2 -->
<g id="node2" class="node"><title>Node2</title>
<g id="a_node2"><a xlink:href="../../d4/de5/classturtle_1_1_turtle_view_controller.html" target="_top" xlink:title="turtle.TurtleViewController">
<polygon fill="white" stroke="black" points="227.5,-273.5 227.5,-292.5 366.5,-292.5 366.5,-273.5 227.5,-273.5"/>
<text text-anchor="middle" x="297" y="-280.5" font-family="Helvetica,sans-Serif" font-size="10.00">turtle.TurtleViewController</text>
</a>
</g>
</g>
<!-- Node1&#45;&gt;Node2 -->
<g id="edge1" class="edge"><title>Node1&#45;&gt;Node2</title>
<path fill="none" stroke="midnightblue" d="M90.1884,-169.78C109.079,-193.902 146.207,-236.554 188,-259 200.099,-265.498 213.864,-270.238 227.421,-273.696"/>
<polygon fill="midnightblue" stroke="midnightblue" points="92.9382,-167.614 84.0791,-161.803 87.3809,-171.871 92.9382,-167.614"/>
</g>
<!-- Node3 -->
<g id="node3" class="node"><title>Node3</title>
<g id="a_node3"><a xlink:href="../../de/d8d/classviewcontroller_1_1commands_1_1_command_prompt_view_controller.html" target="_top" xlink:title="viewcontroller.commands.\lCommandPromptViewController">
<polygon fill="white" stroke="black" points="451,-230 451,-260 621,-260 621,-230 451,-230"/>
<text text-anchor="start" x="459" y="-248" font-family="Helvetica,sans-Serif" font-size="10.00">viewcontroller.commands.</text>
<text text-anchor="middle" x="536" y="-237" font-family="Helvetica,sans-Serif" font-size="10.00">CommandPromptViewController</text>
</a>
</g>
</g>
<!-- Node1&#45;&gt;Node3 -->
<g id="edge2" class="edge"><title>Node1&#45;&gt;Node3</title>
<path fill="none" stroke="midnightblue" d="M94.9914,-168.226C115.721,-185.809 151.627,-212.96 188,-225 274.216,-253.538 378.989,-255.434 450.703,-252.15"/>
<polygon fill="midnightblue" stroke="midnightblue" points="97.1706,-165.483 87.3256,-161.569 92.5805,-170.768 97.1706,-165.483"/>
</g>
<!-- Node4 -->
<g id="node4" class="node"><title>Node4</title>
<g id="a_node4"><a xlink:href="../../d0/d7c/classviewcontroller_1_1commands_1_1_command_window_container_view_controller.html" target="_top" xlink:title="viewcontroller.commands.\lCommandWindowContainerViewController">
<polygon fill="white" stroke="black" points="188.5,-186 188.5,-216 405.5,-216 405.5,-186 188.5,-186"/>
<text text-anchor="start" x="196.5" y="-204" font-family="Helvetica,sans-Serif" font-size="10.00">viewcontroller.commands.</text>
<text text-anchor="middle" x="297" y="-193" font-family="Helvetica,sans-Serif" font-size="10.00">CommandWindowContainerViewController</text>
</a>
</g>
</g>
<!-- Node1&#45;&gt;Node4 -->
<g id="edge3" class="edge"><title>Node1&#45;&gt;Node4</title>
<path fill="none" stroke="midnightblue" d="M129.262,-163.693C159.037,-170.355 196.667,-178.775 228.641,-185.929"/>
<polygon fill="midnightblue" stroke="midnightblue" points="130.008,-160.274 119.485,-161.506 128.48,-167.105 130.008,-160.274"/>
</g>
<!-- Node5 -->
<g id="node5" class="node"><title>Node5</title>
<g id="a_node5"><a xlink:href="../../d8/d68/classviewcontroller_1_1commands_1_1_command_window_view_controller.html" target="_top" xlink:title="viewcontroller.commands.\lCommandWindowViewController">
<polygon fill="white" stroke="black" points="212,-137 212,-167 382,-167 382,-137 212,-137"/>
<text text-anchor="start" x="220" y="-155" font-family="Helvetica,sans-Serif" font-size="10.00">viewcontroller.commands.</text>
<text text-anchor="middle" x="297" y="-144" font-family="Helvetica,sans-Serif" font-size="10.00">CommandWindowViewController</text>
</a>
</g>
</g>
<!-- Node1&#45;&gt;Node5 -->
<g id="edge4" class="edge"><title>Node1&#45;&gt;Node5</title>
<path fill="none" stroke="midnightblue" d="M162.082,-152C178.357,-152 195.39,-152 211.642,-152"/>
<polygon fill="midnightblue" stroke="midnightblue" points="162.061,-148.5 152.061,-152 162.061,-155.5 162.061,-148.5"/>
</g>
<!-- Node13 -->
<g id="node13" class="node"><title>Node13</title>
<g id="a_node13"><a xlink:href="../../d3/d67/classviewcontroller_1_1_main_view_controller.html" target="_top" xlink:title="viewcontroller.MainViewController">
<polygon fill="white" stroke="black" points="209.5,-98.5 209.5,-117.5 384.5,-117.5 384.5,-98.5 209.5,-98.5"/>
<text text-anchor="middle" x="297" y="-105.5" font-family="Helvetica,sans-Serif" font-size="10.00">viewcontroller.MainViewController</text>
</a>
</g>
</g>
<!-- Node1&#45;&gt;Node13 -->
<g id="edge13" class="edge"><title>Node1&#45;&gt;Node13</title>
<path fill="none" stroke="midnightblue" d="M127.181,-140.168C146.19,-135.826 168.053,-130.999 188,-127 204.52,-123.688 222.525,-120.396 239.014,-117.505"/>
<polygon fill="midnightblue" stroke="midnightblue" points="126.198,-136.803 117.237,-142.455 127.767,-143.625 126.198,-136.803"/>
</g>
<!-- Node14 -->
<g id="node14" class="node"><title>Node14</title>
<g id="a_node14"><a xlink:href="../../d5/dcc/classviewcontroller_1_1turtlegrid_1_1_grid_view_controller.html" target="_top" xlink:title="viewcontroller.turtlegrid.\lGridViewController">
<polygon fill="white" stroke="black" points="231.5,-49 231.5,-79 362.5,-79 362.5,-49 231.5,-49"/>
<text text-anchor="start" x="239.5" y="-67" font-family="Helvetica,sans-Serif" font-size="10.00">viewcontroller.turtlegrid.</text>
<text text-anchor="middle" x="297" y="-56" font-family="Helvetica,sans-Serif" font-size="10.00">GridViewController</text>
</a>
</g>
</g>
<!-- Node1&#45;&gt;Node14 -->
<g id="edge14" class="edge"><title>Node1&#45;&gt;Node14</title>
<path fill="none" stroke="midnightblue" d="M99.2125,-136.829C120.964,-122.604 155.486,-101.68 188,-89 201.717,-83.6505 216.88,-79.2657 231.4,-75.7468"/>
<polygon fill="midnightblue" stroke="midnightblue" points="97.1097,-134.024 90.7152,-142.471 100.982,-139.855 97.1097,-134.024"/>
</g>
<!-- Node15 -->
<g id="node15" class="node"><title>Node15</title>
<g id="a_node15"><a xlink:href="../../d3/daf/classviewcontroller_1_1turtlegrid_1_1_turtle_window_view_controller.html" target="_top" xlink:title="viewcontroller.turtlegrid.\lTurtleWindowViewController">
<polygon fill="white" stroke="black" points="224,-0 224,-30 370,-30 370,-0 224,-0"/>
<text text-anchor="start" x="232" y="-18" font-family="Helvetica,sans-Serif" font-size="10.00">viewcontroller.turtlegrid.</text>
<text text-anchor="middle" x="297" y="-7" font-family="Helvetica,sans-Serif" font-size="10.00">TurtleWindowViewController</text>
</a>
</g>
</g>
<!-- Node1&#45;&gt;Node15 -->
<g id="edge15" class="edge"><title>Node1&#45;&gt;Node15</title>
<path fill="none" stroke="midnightblue" d="M89.398,-133.968C107.831,-108.62 144.952,-62.8817 188,-39 199.001,-32.8968 211.443,-28.3456 223.868,-24.9517"/>
<polygon fill="midnightblue" stroke="midnightblue" points="86.4128,-132.127 83.476,-142.307 92.1199,-136.18 86.4128,-132.127"/>
</g>
<!-- Node5&#45;&gt;Node3 -->
<g id="edge10" class="edge"><title>Node5&#45;&gt;Node3</title>
<path fill="none" stroke="midnightblue" d="M391.411,-169.429C396.484,-171.656 401.387,-174.168 406,-177 427.241,-190.041 420.992,-206.588 442,-220 448.06,-223.869 454.707,-227.143 461.575,-229.913"/>
<polygon fill="midnightblue" stroke="midnightblue" points="392.705,-166.177 382.12,-165.719 390.109,-172.678 392.705,-166.177"/>
</g>
<!-- Node6 -->
<g id="node6" class="node"><title>Node6</title>
<g id="a_node6"><a xlink:href="../../d4/d3f/classviewcontroller_1_1commands_1_1_command_list_window_view_controller.html" target="_top" xlink:title="viewcontroller.commands.\lCommandListWindowViewController">
<polygon fill="white" stroke="black" points="442.5,-181 442.5,-211 629.5,-211 629.5,-181 442.5,-181"/>
<text text-anchor="start" x="450.5" y="-199" font-family="Helvetica,sans-Serif" font-size="10.00">viewcontroller.commands.</text>
<text text-anchor="middle" x="536" y="-188" font-family="Helvetica,sans-Serif" font-size="10.00">CommandListWindowViewController</text>
</a>
</g>
</g>
<!-- Node5&#45;&gt;Node6 -->
<g id="edge5" class="edge"><title>Node5&#45;&gt;Node6</title>
<path fill="none" stroke="midnightblue" d="M388.974,-168.89C410.405,-172.868 433.108,-177.083 454.063,-180.974"/>
<polygon fill="midnightblue" stroke="midnightblue" points="389.37,-165.403 378.899,-167.019 388.092,-172.286 389.37,-165.403"/>
</g>
<!-- Node11 -->
<g id="node11" class="node"><title>Node11</title>
<g id="a_node11"><a xlink:href="../../da/d40/classviewcontroller_1_1commands_1_1_command_status_view_controller.html" target="_top" xlink:title="viewcontroller.commands.\lCommandStatusViewController">
<polygon fill="white" stroke="black" points="452.5,-132 452.5,-162 619.5,-162 619.5,-132 452.5,-132"/>
<text text-anchor="start" x="460.5" y="-150" font-family="Helvetica,sans-Serif" font-size="10.00">viewcontroller.commands.</text>
<text text-anchor="middle" x="536" y="-139" font-family="Helvetica,sans-Serif" font-size="10.00">CommandStatusViewController</text>
</a>
</g>
</g>
<!-- Node5&#45;&gt;Node11 -->
<g id="edge11" class="edge"><title>Node5&#45;&gt;Node11</title>
<path fill="none" stroke="midnightblue" d="M392.466,-150.007C412.235,-149.59 432.936,-149.153 452.241,-148.746"/>
<polygon fill="midnightblue" stroke="midnightblue" points="392.149,-146.513 382.225,-150.223 392.296,-153.511 392.149,-146.513"/>
</g>
<!-- Node12 -->
<g id="node12" class="node"><title>Node12</title>
<g id="a_node12"><a xlink:href="../../d5/d37/classviewcontroller_1_1turtlegrid_1_1_turtle_status_view_controller.html" target="_top" xlink:title="viewcontroller.turtlegrid.\lTurtleStatusViewController">
<polygon fill="white" stroke="black" points="465,-83 465,-113 607,-113 607,-83 465,-83"/>
<text text-anchor="start" x="473" y="-101" font-family="Helvetica,sans-Serif" font-size="10.00">viewcontroller.turtlegrid.</text>
<text text-anchor="middle" x="536" y="-90" font-family="Helvetica,sans-Serif" font-size="10.00">TurtleStatusViewController</text>
</a>
</g>
</g>
<!-- Node5&#45;&gt;Node12 -->
<g id="edge12" class="edge"><title>Node5&#45;&gt;Node12</title>
<path fill="none" stroke="midnightblue" d="M373.787,-134.732C404.39,-127.759 439.381,-119.787 468.926,-113.055"/>
<polygon fill="midnightblue" stroke="midnightblue" points="372.99,-131.324 364.018,-136.958 374.545,-138.149 372.99,-131.324"/>
</g>
<!-- Node7 -->
<g id="node7" class="node"><title>Node7</title>
<g id="a_node7"><a xlink:href="../../d1/dfa/classviewcontroller_1_1commands_1_1_command_clickable_list_window_view_controller.html" target="_top" xlink:title="viewcontroller.commands.\lCommandClickableListWindowView\lController">
<polygon fill="white" stroke="black" points="669,-202.5 669,-243.5 851,-243.5 851,-202.5 669,-202.5"/>
<text text-anchor="start" x="677" y="-231.5" font-family="Helvetica,sans-Serif" font-size="10.00">viewcontroller.commands.</text>
<text text-anchor="start" x="677" y="-220.5" font-family="Helvetica,sans-Serif" font-size="10.00">CommandClickableListWindowView</text>
<text text-anchor="middle" x="760" y="-209.5" font-family="Helvetica,sans-Serif" font-size="10.00">Controller</text>
</a>
</g>
</g>
<!-- Node6&#45;&gt;Node7 -->
<g id="edge6" class="edge"><title>Node6&#45;&gt;Node7</title>
<path fill="none" stroke="midnightblue" d="M639.627,-208.482C649.348,-209.664 659.155,-210.857 668.747,-212.023"/>
<polygon fill="midnightblue" stroke="midnightblue" points="639.89,-204.988 629.54,-207.255 639.045,-211.937 639.89,-204.988"/>
</g>
<!-- Node10 -->
<g id="node10" class="node"><title>Node10</title>
<g id="a_node10"><a xlink:href="../../d4/dc8/classviewcontroller_1_1commands_1_1_user_defined_variables_view_controller.html" target="_top" xlink:title="viewcontroller.commands.\lUserDefinedVariablesViewController">
<polygon fill="white" stroke="black" points="666,-154 666,-184 854,-184 854,-154 666,-154"/>
<text text-anchor="start" x="674" y="-172" font-family="Helvetica,sans-Serif" font-size="10.00">viewcontroller.commands.</text>
<text text-anchor="middle" x="760" y="-161" font-family="Helvetica,sans-Serif" font-size="10.00">UserDefinedVariablesViewController</text>
</a>
</g>
</g>
<!-- Node6&#45;&gt;Node10 -->
<g id="edge9" class="edge"><title>Node6&#45;&gt;Node10</title>
<path fill="none" stroke="midnightblue" d="M639.737,-183.505C648.46,-182.444 657.252,-181.375 665.895,-180.324"/>
<polygon fill="midnightblue" stroke="midnightblue" points="639.045,-180.063 629.54,-184.745 639.89,-187.012 639.045,-180.063"/>
</g>
<!-- Node8 -->
<g id="node8" class="node"><title>Node8</title>
<g id="a_node8"><a xlink:href="../../d3/d76/classviewcontroller_1_1commands_1_1_command_history_view_controller.html" target="_top" xlink:title="viewcontroller.commands.\lCommandHistoryViewController">
<polygon fill="white" stroke="black" points="898.5,-232 898.5,-262 1067.5,-262 1067.5,-232 898.5,-232"/>
<text text-anchor="start" x="906.5" y="-250" font-family="Helvetica,sans-Serif" font-size="10.00">viewcontroller.commands.</text>
<text text-anchor="middle" x="983" y="-239" font-family="Helvetica,sans-Serif" font-size="10.00">CommandHistoryViewController</text>
</a>
</g>
</g>
<!-- Node7&#45;&gt;Node8 -->
<g id="edge7" class="edge"><title>Node7&#45;&gt;Node8</title>
<path fill="none" stroke="midnightblue" d="M861.165,-233.878C873.643,-235.233 886.298,-236.607 898.487,-237.931"/>
<polygon fill="midnightblue" stroke="midnightblue" points="861.527,-230.397 851.208,-232.796 860.772,-237.356 861.527,-230.397"/>
</g>
<!-- Node9 -->
<g id="node9" class="node"><title>Node9</title>
<g id="a_node9"><a xlink:href="../../de/d01/classviewcontroller_1_1commands_1_1_user_defined_methods_view_controller.html" target="_top" xlink:title="viewcontroller.commands.\lUserDefinedMethodsViewController">
<polygon fill="white" stroke="black" points="890.5,-183 890.5,-213 1075.5,-213 1075.5,-183 890.5,-183"/>
<text text-anchor="start" x="898.5" y="-201" font-family="Helvetica,sans-Serif" font-size="10.00">viewcontroller.commands.</text>
<text text-anchor="middle" x="983" y="-190" font-family="Helvetica,sans-Serif" font-size="10.00">UserDefinedMethodsViewController</text>
</a>
</g>
</g>
<!-- Node7&#45;&gt;Node9 -->
<g id="edge8" class="edge"><title>Node7&#45;&gt;Node9</title>
<path fill="none" stroke="midnightblue" d="M861.241,-211.661C870.918,-210.566 880.7,-209.459 890.288,-208.375"/>
<polygon fill="midnightblue" stroke="midnightblue" points="860.751,-208.194 851.208,-212.795 861.538,-215.149 860.751,-208.194"/>
</g>
</g>
</svg>
        <g id="navigator" transform="translate(0 0)" fill="#404254">
                <rect fill="#f2f5e9" fill-opacity="0.5" stroke="#606060" stroke-width=".5" x="0" y="0" width="60" height="60"/>
                <use id="zoomplus" xlink:href="#zoomPlus" x="17" y="9" onmousedown="handleZoom(evt,'in')"/>
                <use id="zoomminus" xlink:href="#zoomMin" x="42" y="9" onmousedown="handleZoom(evt,'out')"/>
                <use id="reset" xlink:href="#resetDef" x="30" y="36" onmousedown="handleReset()"/>
                <g id="arrowUp" xlink:href="#dirArrow" transform="translate(30 24)" onmousedown="handlePan(0,-1)">
                  <use xlink:href="#rim" fill="#404040">
                        <set attributeName="fill" to="#808080" begin="arrowUp.mouseover" end="arrowUp.mouseout"/>
                  </use>
                  <path fill="none" stroke="white" stroke-width="1.5" d="M0,-3.0v7 M-2.5,-0.5L0,-3.0L2.5,-0.5"/>
                </g>
                <g id="arrowRight" xlink:href="#dirArrow" transform="rotate(90) translate(36 -43)" onmousedown="handlePan(1,0)">
                  <use xlink:href="#rim" fill="#404040">
                        <set attributeName="fill" to="#808080" begin="arrowRight.mouseover" end="arrowRight.mouseout"/>
                  </use>
                  <path fill="none" stroke="white" stroke-width="1.5" d="M0,-3.0v7 M-2.5,-0.5L0,-3.0L2.5,-0.5"/>
                </g>
                <g id="arrowDown" xlink:href="#dirArrow" transform="rotate(180) translate(-30 -48)" onmousedown="handlePan(0,1)">
                  <use xlink:href="#rim" fill="#404040">
                        <set attributeName="fill" to="#808080" begin="arrowDown.mouseover" end="arrowDown.mouseout"/>
                  </use>
                  <path fill="none" stroke="white" stroke-width="1.5" d="M0,-3.0v7 M-2.5,-0.5L0,-3.0L2.5,-0.5"/>
                </g>
                <g id="arrowLeft" xlink:href="#dirArrow" transform="rotate(270) translate(-36 17)" onmousedown="handlePan(-1,0)">
                  <use xlink:href="#rim" fill="#404040">
                        <set attributeName="fill" to="#808080" begin="arrowLeft.mouseover" end="arrowLeft.mouseout"/>
                  </use>
                  <path fill="none" stroke="white" stroke-width="1.5" d="M0,-3.0v7 M-2.5,-0.5L0,-3.0L2.5,-0.5"/>
                </g>
        </g>
        <svg viewBox="0 0 15 15" width="100%" height="30px" preserveAspectRatio="xMaxYMin meet">
         <g id="arrow_out" transform="scale(0.3 0.3)">
          <a xlink:href="interfaceviewcontroller_1_1_view_controller__inherit__graph_org.svg" target="_base">
           <rect id="button" ry="5" rx="5" y="6" x="6" height="38" width="38"
                fill="#f2f5e9" fill-opacity="0.5" stroke="#606060" stroke-width="1.0"/>
           <path id="arrow"
             d="M 11.500037,31.436501 C 11.940474,20.09759 22.043105,11.32322 32.158766,21.979434 L 37.068811,17.246167 C 37.068811,17.246167 37.088388,32 37.088388,32 L 22.160133,31.978069 C 22.160133,31.978069 26.997745,27.140456 26.997745,27.140456 C 18.528582,18.264221 13.291696,25.230495 11.500037,31.436501 z"
             style="fill:#404040;"/>
          </a>
         </g>
        </svg>
</svg>
