<?xml version="1.0" encoding="UTF-8" standalone="no"?>
<!DOCTYPE svg PUBLIC "-//W3C//DTD SVG 1.1//EN"
 "http://www.w3.org/Graphics/SVG/1.1/DTD/svg11.dtd">
<!-- Generated by graphviz version 2.36.0 (20140111.2315)
 -->
<!-- Title: interpreter.expression.query.Heading Pages: 1 -->
<svg width="1738pt" height="683pt"
 viewBox="0.00 0.00 1738.00 683.00" xmlns="http://www.w3.org/2000/svg" xmlns:xlink="http://www.w3.org/1999/xlink">
<g id="graph0" class="graph" transform="scale(1 1) rotate(0) translate(4 679)">
<title>interpreter.expression.query.Heading</title>
<polygon fill="white" stroke="none" points="-4,4 -4,-679 1734,-679 1734,4 -4,4"/>
<!-- Node1 -->
<g id="node1" class="node"><title>Node1</title>
<polygon fill="#bfbfbf" stroke="black" points="1347.5,-388 1347.5,-418 1500.5,-418 1500.5,-388 1347.5,-388"/>
<text text-anchor="start" x="1355.5" y="-406" font-family="Helvetica,sans-Serif" font-size="10.00">interpreter.expression.query.</text>
<text text-anchor="middle" x="1424" y="-395" font-family="Helvetica,sans-Serif" font-size="10.00">Heading</text>
</g>
<!-- Node2 -->
<g id="node2" class="node"><title>Node2</title>
<g id="a_node2"><a xlink:href="../../db/dfc/classinterpreter_1_1expression_1_1_turtle_query_expression.html" target="_top" xlink:title="interpreter.expression.Turtle\lQueryExpression">
<polygon fill="white" stroke="black" points="1033,-388 1033,-418 1183,-418 1183,-388 1033,-388"/>
<text text-anchor="start" x="1041" y="-406" font-family="Helvetica,sans-Serif" font-size="10.00">interpreter.expression.Turtle</text>
<text text-anchor="middle" x="1108" y="-395" font-family="Helvetica,sans-Serif" font-size="10.00">QueryExpression</text>
</a>
</g>
</g>
<!-- Node2&#45;&gt;Node1 -->
<g id="edge1" class="edge"><title>Node2&#45;&gt;Node1</title>
<path fill="none" stroke="midnightblue" d="M1193.07,-403C1241.07,-403 1300.77,-403 1347.3,-403"/>
<polygon fill="midnightblue" stroke="midnightblue" points="1193.02,-399.5 1183.02,-403 1193.02,-406.5 1193.02,-399.5"/>
</g>
<!-- Node3 -->
<g id="node3" class="node"><title>Node3</title>
<g id="a_node3"><a xlink:href="../../db/d09/interfaceinterpreter_1_1expression_1_1_s_logo_expression.html" target="_top" xlink:title="interpreter.expression.SLogo\lExpression">
<polygon fill="white" stroke="black" points="734.5,-396 734.5,-426 889.5,-426 889.5,-396 734.5,-396"/>
<text text-anchor="start" x="742.5" y="-414" font-family="Helvetica,sans-Serif" font-size="10.00">interpreter.expression.SLogo</text>
<text text-anchor="middle" x="812" y="-403" font-family="Helvetica,sans-Serif" font-size="10.00">Expression</text>
</a>
</g>
</g>
<!-- Node3&#45;&gt;Node2 -->
<g id="edge2" class="edge"><title>Node3&#45;&gt;Node2</title>
<path fill="none" stroke="midnightblue" d="M899.864,-408.636C942.138,-407.486 992.429,-406.118 1032.87,-405.017"/>
<polygon fill="midnightblue" stroke="midnightblue" points="899.762,-405.138 889.861,-408.909 899.953,-412.135 899.762,-405.138"/>
</g>
<!-- Node4 -->
<g id="node4" class="node"><title>Node4</title>
<g id="a_node4"><a xlink:href="../../de/d21/classmodel_1_1_main_model.html" target="_top" xlink:title="model.MainModel">
<polygon fill="white" stroke="black" points="761.5,-350.5 761.5,-369.5 862.5,-369.5 862.5,-350.5 761.5,-350.5"/>
<text text-anchor="middle" x="812" y="-357.5" font-family="Helvetica,sans-Serif" font-size="10.00">model.MainModel</text>
</a>
</g>
</g>
<!-- Node4&#45;&gt;Node2 -->
<g id="edge3" class="edge"><title>Node4&#45;&gt;Node2</title>
<path fill="none" stroke="#9a32cd" stroke-dasharray="5,2" d="M872.718,-368.734C919.004,-375.504 983.391,-384.921 1032.95,-392.17"/>
<polygon fill="#9a32cd" stroke="#9a32cd" points="872.942,-365.23 862.541,-367.246 871.929,-372.156 872.942,-365.23"/>
<text text-anchor="middle" x="960" y="-390" font-family="Helvetica,sans-Serif" font-size="10.00"> myModel</text>
</g>
<!-- Node22 -->
<g id="node22" class="node"><title>Node22</title>
<g id="a_node22"><a xlink:href="../../d2/dc7/classinterpreter_1_1_interpreter.html" target="_top" xlink:title="interpreter.Interpreter">
<polygon fill="white" stroke="black" points="1608.5,-266.5 1608.5,-285.5 1729.5,-285.5 1729.5,-266.5 1608.5,-266.5"/>
<text text-anchor="middle" x="1669" y="-273.5" font-family="Helvetica,sans-Serif" font-size="10.00">interpreter.Interpreter</text>
</a>
</g>
</g>
<!-- Node4&#45;&gt;Node22 -->
<g id="edge25" class="edge"><title>Node4&#45;&gt;Node22</title>
<path fill="none" stroke="#9a32cd" stroke-dasharray="5,2" d="M872.938,-356.755C1003.65,-349.224 1323.95,-328.297 1590,-291 1600.65,-289.507 1612.05,-287.531 1622.76,-285.505"/>
<polygon fill="#9a32cd" stroke="#9a32cd" points="872.525,-353.273 862.741,-357.338 872.924,-360.262 872.525,-353.273"/>
<text text-anchor="middle" x="1266" y="-335" font-family="Helvetica,sans-Serif" font-size="10.00"> myModel</text>
</g>
<!-- Node28 -->
<g id="node28" class="node"><title>Node28</title>
<g id="a_node28"><a xlink:href="../../d8/daa/classinterpreter_1_1_s_logo_expression_factory.html" target="_top" xlink:title="interpreter.SLogoExpression\lFactory">
<polygon fill="white" stroke="black" points="1032,-163 1032,-193 1184,-193 1184,-163 1032,-163"/>
<text text-anchor="start" x="1040" y="-181" font-family="Helvetica,sans-Serif" font-size="10.00">interpreter.SLogoExpression</text>
<text text-anchor="middle" x="1108" y="-170" font-family="Helvetica,sans-Serif" font-size="10.00">Factory</text>
</a>
</g>
</g>
<!-- Node4&#45;&gt;Node28 -->
<g id="edge32" class="edge"><title>Node4&#45;&gt;Node28</title>
<path fill="none" stroke="#9a32cd" stroke-dasharray="5,2" d="M840.056,-345.375C857.804,-334.693 880.508,-318.822 896,-300 908.132,-285.26 900.325,-274.321 914,-261 949.272,-226.642 1001.01,-205.44 1042.05,-193.072"/>
<polygon fill="#9a32cd" stroke="#9a32cd" points="838.173,-342.421 831.291,-350.476 841.694,-348.471 838.173,-342.421"/>
<text text-anchor="middle" x="960" y="-264" font-family="Helvetica,sans-Serif" font-size="10.00"> myModel</text>
</g>
<!-- Node5 -->
<g id="node5" class="node"><title>Node5</title>
<g id="a_node5"><a xlink:href="../../da/dee/classmodel_1_1_user_defined_commands_model.html" target="_top" xlink:title="model.UserDefinedCommands\lModel">
<polygon fill="white" stroke="black" points="378,-138 378,-168 542,-168 542,-138 378,-138"/>
<text text-anchor="start" x="386" y="-156" font-family="Helvetica,sans-Serif" font-size="10.00">model.UserDefinedCommands</text>
<text text-anchor="middle" x="460" y="-145" font-family="Helvetica,sans-Serif" font-size="10.00">Model</text>
</a>
</g>
</g>
<!-- Node5&#45;&gt;Node4 -->
<g id="edge4" class="edge"><title>Node5&#45;&gt;Node4</title>
<path fill="none" stroke="#9a32cd" stroke-dasharray="5,2" d="M552.286,-163.84C613.988,-173.051 688.067,-188.415 710,-211 738.115,-239.951 706.147,-266.072 728,-300 743.02,-323.319 770.555,-340.498 789.775,-350.361"/>
<polygon fill="#9a32cd" stroke="#9a32cd" points="552.507,-160.335 542.107,-162.359 551.499,-167.262 552.507,-160.335"/>
<text text-anchor="middle" x="635" y="-214" font-family="Helvetica,sans-Serif" font-size="10.00"> myUserDefinedMethodsModel</text>
</g>
<!-- Node31 -->
<g id="node31" class="node"><title>Node31</title>
<g id="a_node31"><a xlink:href="../../d5/d09/classinterpreter_1_1_command_reference_library.html" target="_top" xlink:title="interpreter.CommandReference\lLibrary">
<polygon fill="white" stroke="black" points="728.5,-180 728.5,-210 895.5,-210 895.5,-180 728.5,-180"/>
<text text-anchor="start" x="736.5" y="-198" font-family="Helvetica,sans-Serif" font-size="10.00">interpreter.CommandReference</text>
<text text-anchor="middle" x="812" y="-187" font-family="Helvetica,sans-Serif" font-size="10.00">Library</text>
</a>
</g>
</g>
<!-- Node5&#45;&gt;Node31 -->
<g id="edge36" class="edge"><title>Node5&#45;&gt;Node31</title>
<path fill="none" stroke="#9a32cd" stroke-dasharray="5,2" d="M552.483,-145.11C599.913,-143.092 658.535,-143.845 710,-154 735.436,-159.019 762.573,-170.408 782.306,-179.912"/>
<polygon fill="#9a32cd" stroke="#9a32cd" points="552.053,-141.627 542.23,-145.597 552.385,-148.619 552.053,-141.627"/>
<text text-anchor="middle" x="635" y="-157" font-family="Helvetica,sans-Serif" font-size="10.00"> myDefinedCommands</text>
</g>
<!-- Node6 -->
<g id="node6" class="node"><title>Node6</title>
<polygon fill="white" stroke="#bfbfbf" points="60.5,-248.5 60.5,-267.5 131.5,-267.5 131.5,-248.5 60.5,-248.5"/>
<text text-anchor="middle" x="96" y="-255.5" font-family="Helvetica,sans-Serif" font-size="10.00">Serializable</text>
</g>
<!-- Node6&#45;&gt;Node5 -->
<g id="edge5" class="edge"><title>Node6&#45;&gt;Node5</title>
<path fill="none" stroke="midnightblue" d="M142.031,-257.37C207.911,-255.599 326.393,-248.931 360,-224 375.657,-212.385 363.826,-197.384 378,-184 384.897,-177.487 393.305,-172.303 402.063,-168.187"/>
<polygon fill="midnightblue" stroke="midnightblue" points="141.843,-253.874 131.931,-257.614 142.012,-260.872 141.843,-253.874"/>
</g>
<!-- Node12 -->
<g id="node12" class="node"><title>Node12</title>
<g id="a_node12"><a xlink:href="../../db/d84/classmodel_1_1_command_history_model.html" target="_top" xlink:title="model.CommandHistoryModel">
<polygon fill="white" stroke="black" points="379,-312.5 379,-331.5 541,-331.5 541,-312.5 379,-312.5"/>
<text text-anchor="middle" x="460" y="-319.5" font-family="Helvetica,sans-Serif" font-size="10.00">model.CommandHistoryModel</text>
</a>
</g>
</g>
<!-- Node6&#45;&gt;Node12 -->
<g id="edge12" class="edge"><title>Node6&#45;&gt;Node12</title>
<path fill="none" stroke="midnightblue" d="M142.076,-259.957C158.839,-262.425 177.333,-267.363 192,-277 203.746,-284.718 197.808,-296.008 210,-303 266.601,-335.461 342.71,-336.322 395.828,-331.518"/>
<polygon fill="midnightblue" stroke="midnightblue" points="142.261,-256.454 131.911,-258.72 141.415,-263.402 142.261,-256.454"/>
</g>
<!-- Node15 -->
<g id="node15" class="node"><title>Node15</title>
<g id="a_node15"><a xlink:href="../../df/d55/classmodel_1_1_user_defined_variables_model.html" target="_top" xlink:title="model.UserDefinedVariables\lModel">
<polygon fill="white" stroke="black" points="384,-248 384,-278 536,-278 536,-248 384,-248"/>
<text text-anchor="start" x="392" y="-266" font-family="Helvetica,sans-Serif" font-size="10.00">model.UserDefinedVariables</text>
<text text-anchor="middle" x="460" y="-255" font-family="Helvetica,sans-Serif" font-size="10.00">Model</text>
</a>
</g>
</g>
<!-- Node6&#45;&gt;Node15 -->
<g id="edge16" class="edge"><title>Node6&#45;&gt;Node15</title>
<path fill="none" stroke="midnightblue" d="M142.082,-258.623C202.636,-259.459 311.051,-260.957 383.999,-261.964"/>
<polygon fill="midnightblue" stroke="midnightblue" points="141.757,-255.118 131.71,-258.479 141.661,-262.117 141.757,-255.118"/>
</g>
<!-- Node7 -->
<g id="node7" class="node"><title>Node7</title>
<polygon fill="white" stroke="#bfbfbf" points="42.5,-104 42.5,-134 149.5,-134 149.5,-104 42.5,-104"/>
<text text-anchor="start" x="50.5" y="-122" font-family="Helvetica,sans-Serif" font-size="10.00">Map&lt; String, List&lt;</text>
<text text-anchor="middle" x="96" y="-111" font-family="Helvetica,sans-Serif" font-size="10.00"> String &gt; &gt;</text>
</g>
<!-- Node7&#45;&gt;Node5 -->
<g id="edge6" class="edge"><title>Node7&#45;&gt;Node5</title>
<path fill="none" stroke="#9a32cd" stroke-dasharray="5,2" d="M159.581,-120.236C213,-121.848 291.778,-125.546 360,-134 368.684,-135.076 377.753,-136.457 386.724,-137.982"/>
<polygon fill="#9a32cd" stroke="#9a32cd" points="159.675,-116.737 149.579,-119.95 159.474,-123.735 159.675,-116.737"/>
<text text-anchor="middle" x="285" y="-137" font-family="Helvetica,sans-Serif" font-size="10.00"> myDefinedCommandVariables</text>
</g>
<!-- Node8 -->
<g id="node8" class="node"><title>Node8</title>
<polygon fill="white" stroke="#bfbfbf" points="54,-169.5 54,-188.5 138,-188.5 138,-169.5 54,-169.5"/>
<text text-anchor="middle" x="96" y="-176.5" font-family="Helvetica,sans-Serif" font-size="10.00">Set&lt; String &gt;</text>
</g>
<!-- Node8&#45;&gt;Node5 -->
<g id="edge7" class="edge"><title>Node8&#45;&gt;Node5</title>
<path fill="none" stroke="#9a32cd" stroke-dasharray="5,2" d="M141.094,-166.95C161.832,-161.876 187.004,-156.56 210,-154 265.746,-147.794 328.948,-147.622 377.727,-148.961"/>
<polygon fill="#9a32cd" stroke="#9a32cd" points="140.146,-163.579 131.299,-169.408 141.85,-170.368 140.146,-163.579"/>
<text text-anchor="middle" x="285" y="-157" font-family="Helvetica,sans-Serif" font-size="10.00"> myCommands</text>
</g>
<!-- Node8&#45;&gt;Node15 -->
<g id="edge17" class="edge"><title>Node8&#45;&gt;Node15</title>
<path fill="none" stroke="#9a32cd" stroke-dasharray="5,2" d="M148.113,-190.861C212.617,-205.828 323.625,-231.587 394.067,-247.933"/>
<polygon fill="#9a32cd" stroke="#9a32cd" points="148.706,-187.405 138.174,-188.554 147.124,-194.224 148.706,-187.405"/>
<text text-anchor="middle" x="285" y="-242" font-family="Helvetica,sans-Serif" font-size="10.00"> myVariables</text>
</g>
<!-- Node8&#45;&gt;Node31 -->
<g id="edge39" class="edge"><title>Node8&#45;&gt;Node31</title>
<path fill="none" stroke="#9a32cd" stroke-dasharray="5,2" d="M148.28,-182.489C253.54,-189.25 501.625,-203.125 710,-199 715.965,-198.882 722.128,-198.725 728.329,-198.541"/>
<polygon fill="#9a32cd" stroke="#9a32cd" points="148.452,-178.993 138.247,-181.838 147.999,-185.978 148.452,-178.993"/>
<text text-anchor="middle" x="460" y="-213" font-family="Helvetica,sans-Serif" font-size="10.00"> myCommandSet</text>
<text text-anchor="middle" x="460" y="-202" font-family="Helvetica,sans-Serif" font-size="10.00">myDirectorySet</text>
</g>
<!-- Node9 -->
<g id="node9" class="node"><title>Node9</title>
<polygon fill="white" stroke="#bfbfbf" points="0.5,-55 0.5,-85 191.5,-85 191.5,-55 0.5,-55"/>
<text text-anchor="start" x="8.5" y="-73" font-family="Helvetica,sans-Serif" font-size="10.00">Map&lt; String, interpreter.expression.</text>
<text text-anchor="middle" x="96" y="-62" font-family="Helvetica,sans-Serif" font-size="10.00">SLogoExpression &gt;</text>
</g>
<!-- Node9&#45;&gt;Node5 -->
<g id="edge8" class="edge"><title>Node9&#45;&gt;Node5</title>
<path fill="none" stroke="#9a32cd" stroke-dasharray="5,2" d="M201.702,-77.3753C250.61,-82.7746 309.134,-92.0661 360,-108 368.535,-110.674 369.911,-113.183 378,-117 393.03,-124.093 409.795,-131.609 424.156,-137.928"/>
<polygon fill="#9a32cd" stroke="#9a32cd" points="202.051,-73.8927 191.737,-76.3139 201.31,-80.8534 202.051,-73.8927"/>
<text text-anchor="middle" x="285" y="-111" font-family="Helvetica,sans-Serif" font-size="10.00"> myDefinedCommands</text>
</g>
<!-- Node10 -->
<g id="node10" class="node"><title>Node10</title>
<g id="a_node10"><a xlink:href="../../d4/d57/classturtle_1_1_turtle_list_history.html" target="_top" xlink:title="turtle.TurtleListHistory">
<polygon fill="white" stroke="black" points="399.5,-350.5 399.5,-369.5 520.5,-369.5 520.5,-350.5 399.5,-350.5"/>
<text text-anchor="middle" x="460" y="-357.5" font-family="Helvetica,sans-Serif" font-size="10.00">turtle.TurtleListHistory</text>
</a>
</g>
</g>
<!-- Node10&#45;&gt;Node4 -->
<g id="edge9" class="edge"><title>Node10&#45;&gt;Node4</title>
<path fill="none" stroke="#9a32cd" stroke-dasharray="5,2" d="M530.995,-360C599.194,-360 701.153,-360 761.384,-360"/>
<polygon fill="#9a32cd" stroke="#9a32cd" points="530.769,-356.5 520.769,-360 530.769,-363.5 530.769,-356.5"/>
<text text-anchor="middle" x="635" y="-363" font-family="Helvetica,sans-Serif" font-size="10.00"> myTurtleListHistory</text>
</g>
<!-- Node11 -->
<g id="node11" class="node"><title>Node11</title>
<polygon fill="white" stroke="#bfbfbf" points="21.5,-381.5 21.5,-400.5 170.5,-400.5 170.5,-381.5 21.5,-381.5"/>
<text text-anchor="middle" x="96" y="-388.5" font-family="Helvetica,sans-Serif" font-size="10.00">List&lt; Set&lt; turtle.Turtle &gt; &gt;</text>
</g>
<!-- Node11&#45;&gt;Node10 -->
<g id="edge10" class="edge"><title>Node11&#45;&gt;Node10</title>
<path fill="none" stroke="#9a32cd" stroke-dasharray="5,2" d="M180.795,-383.824C247.737,-378.092 339.9,-370.199 399.468,-365.098"/>
<polygon fill="#9a32cd" stroke="#9a32cd" points="180.357,-380.349 170.692,-384.689 180.955,-387.323 180.357,-380.349"/>
<text text-anchor="middle" x="285" y="-383" font-family="Helvetica,sans-Serif" font-size="10.00"> myMovedTurtlesHistory</text>
</g>
<!-- Node12&#45;&gt;Node4 -->
<g id="edge11" class="edge"><title>Node12&#45;&gt;Node4</title>
<path fill="none" stroke="#9a32cd" stroke-dasharray="5,2" d="M551.244,-329.125C598.581,-333.168 657.496,-338.681 710,-345 726.72,-347.012 744.939,-349.597 761.243,-352.052"/>
<polygon fill="#9a32cd" stroke="#9a32cd" points="551.278,-325.615 541.018,-328.259 550.687,-332.59 551.278,-325.615"/>
<text text-anchor="middle" x="635" y="-348" font-family="Helvetica,sans-Serif" font-size="10.00"> myCommandHistoryModel</text>
</g>
<!-- Node13 -->
<g id="node13" class="node"><title>Node13</title>
<polygon fill="white" stroke="#bfbfbf" points="54,-343.5 54,-362.5 138,-362.5 138,-343.5 54,-343.5"/>
<text text-anchor="middle" x="96" y="-350.5" font-family="Helvetica,sans-Serif" font-size="10.00">List&lt; String &gt;</text>
</g>
<!-- Node13&#45;&gt;Node12 -->
<g id="edge13" class="edge"><title>Node13&#45;&gt;Node12</title>
<path fill="none" stroke="#9a32cd" stroke-dasharray="5,2" d="M148.201,-349.635C201.234,-346.026 286.482,-339.878 360,-333 366.112,-332.428 372.433,-331.803 378.787,-331.151"/>
<polygon fill="#9a32cd" stroke="#9a32cd" points="147.778,-346.156 138.037,-350.323 148.25,-353.14 147.778,-346.156"/>
<text text-anchor="middle" x="285" y="-348" font-family="Helvetica,sans-Serif" font-size="10.00"> commandHistory</text>
</g>
<!-- Node14 -->
<g id="node14" class="node"><title>Node14</title>
<polygon fill="white" stroke="#bfbfbf" points="412.5,-594.5 412.5,-613.5 507.5,-613.5 507.5,-594.5 412.5,-594.5"/>
<text text-anchor="middle" x="460" y="-601.5" font-family="Helvetica,sans-Serif" font-size="10.00">ParallelTransition</text>
</g>
<!-- Node14&#45;&gt;Node4 -->
<g id="edge14" class="edge"><title>Node14&#45;&gt;Node4</title>
<path fill="none" stroke="#9a32cd" stroke-dasharray="5,2" d="M517.749,-605.571C582.886,-606.059 684.091,-602.354 710,-576 739.578,-545.914 701.615,-419.922 728,-387 736.339,-376.595 748.753,-370.153 761.454,-366.179"/>
<polygon fill="#9a32cd" stroke="#9a32cd" points="517.659,-602.07 507.621,-605.46 517.582,-609.07 517.659,-602.07"/>
<text text-anchor="middle" x="635" y="-608" font-family="Helvetica,sans-Serif" font-size="10.00"> myAnimation</text>
</g>
<!-- Node15&#45;&gt;Node4 -->
<g id="edge15" class="edge"><title>Node15&#45;&gt;Node4</title>
<path fill="none" stroke="#9a32cd" stroke-dasharray="5,2" d="M546.035,-276.121C594.705,-284.777 656.533,-297.725 710,-315 739.957,-324.679 772.982,-340.425 792.85,-350.492"/>
<polygon fill="#9a32cd" stroke="#9a32cd" points="546.624,-272.671 536.171,-274.394 545.417,-279.566 546.624,-272.671"/>
<text text-anchor="middle" x="635" y="-318" font-family="Helvetica,sans-Serif" font-size="10.00"> myUserDefinedVariablesModel</text>
</g>
<!-- Node15&#45;&gt;Node31 -->
<g id="edge40" class="edge"><title>Node15&#45;&gt;Node31</title>
<path fill="none" stroke="#9a32cd" stroke-dasharray="5,2" d="M546.223,-251.726C605.667,-243.598 679.578,-232.888 710,-226 728.963,-221.707 749.538,-215.654 767.14,-210.035"/>
<polygon fill="#9a32cd" stroke="#9a32cd" points="545.499,-248.293 536.063,-253.11 546.444,-255.229 545.499,-248.293"/>
<text text-anchor="middle" x="635" y="-253" font-family="Helvetica,sans-Serif" font-size="10.00"> myDefinedVariables</text>
</g>
<!-- Node16 -->
<g id="node16" class="node"><title>Node16</title>
<polygon fill="white" stroke="#bfbfbf" points="32,-286.5 32,-305.5 160,-305.5 160,-286.5 32,-286.5"/>
<text text-anchor="middle" x="96" y="-293.5" font-family="Helvetica,sans-Serif" font-size="10.00">Map&lt; String, Double &gt;</text>
</g>
<!-- Node16&#45;&gt;Node15 -->
<g id="edge18" class="edge"><title>Node16&#45;&gt;Node15</title>
<path fill="none" stroke="#9a32cd" stroke-dasharray="5,2" d="M170.295,-290.406C223.079,-286.246 295.977,-280.233 360,-274 367.745,-273.246 375.827,-272.417 383.887,-271.563"/>
<polygon fill="#9a32cd" stroke="#9a32cd" points="169.71,-286.941 160.014,-291.213 170.258,-293.92 169.71,-286.941"/>
<text text-anchor="middle" x="285" y="-291" font-family="Helvetica,sans-Serif" font-size="10.00"> myDefinedVariables</text>
</g>
<!-- Node17 -->
<g id="node17" class="node"><title>Node17</title>
<polygon fill="white" stroke="#bfbfbf" points="393,-545 393,-575 527,-575 527,-545 393,-545"/>
<text text-anchor="start" x="401" y="-563" font-family="Helvetica,sans-Serif" font-size="10.00">List&lt; viewcontroller.Main</text>
<text text-anchor="middle" x="460" y="-552" font-family="Helvetica,sans-Serif" font-size="10.00">ModelObserver &gt;</text>
</g>
<!-- Node17&#45;&gt;Node4 -->
<g id="edge19" class="edge"><title>Node17&#45;&gt;Node4</title>
<path fill="none" stroke="#9a32cd" stroke-dasharray="5,2" d="M537.298,-562.076C601.38,-562.07 686.197,-557.383 710,-534 756.955,-487.873 686.15,-437.803 728,-387 736.382,-376.825 748.653,-370.447 761.201,-366.461"/>
<polygon fill="#9a32cd" stroke="#9a32cd" points="537.216,-558.576 527.204,-562.039 537.191,-565.576 537.216,-558.576"/>
<text text-anchor="middle" x="635" y="-564" font-family="Helvetica,sans-Serif" font-size="10.00"> myObservers</text>
</g>
<!-- Node18 -->
<g id="node18" class="node"><title>Node18</title>
<polygon fill="white" stroke="#bfbfbf" points="405,-506.5 405,-525.5 515,-525.5 515,-506.5 405,-506.5"/>
<text text-anchor="middle" x="460" y="-513.5" font-family="Helvetica,sans-Serif" font-size="10.00">List&lt; turtle.Turtle &gt;</text>
</g>
<!-- Node18&#45;&gt;Node4 -->
<g id="edge20" class="edge"><title>Node18&#45;&gt;Node4</title>
<path fill="none" stroke="#9a32cd" stroke-dasharray="5,2" d="M525.392,-518.904C590.15,-520.364 684.023,-518.013 710,-494 745.412,-461.266 696.512,-423.525 728,-387 736.608,-377.015 748.951,-370.699 761.497,-366.71"/>
<polygon fill="#9a32cd" stroke="#9a32cd" points="525.351,-515.402 515.263,-518.64 525.168,-522.399 525.351,-515.402"/>
<text text-anchor="middle" x="635" y="-522" font-family="Helvetica,sans-Serif" font-size="10.00"> myTurtles</text>
</g>
<!-- Node19 -->
<g id="node19" class="node"><title>Node19</title>
<g id="a_node19"><a xlink:href="../../df/df6/classinterpreter_1_1result_1_1_s_logo_result.html" target="_top" xlink:title="interpreter.result.SLogo\lResult">
<polygon fill="white" stroke="black" points="395,-633 395,-663 525,-663 525,-633 395,-633"/>
<text text-anchor="start" x="403" y="-651" font-family="Helvetica,sans-Serif" font-size="10.00">interpreter.result.SLogo</text>
<text text-anchor="middle" x="460" y="-640" font-family="Helvetica,sans-Serif" font-size="10.00">Result</text>
</a>
</g>
</g>
<!-- Node19&#45;&gt;Node4 -->
<g id="edge21" class="edge"><title>Node19&#45;&gt;Node4</title>
<path fill="none" stroke="#9a32cd" stroke-dasharray="5,2" d="M535.34,-662.279C591.421,-668.357 665.976,-665.587 710,-620 746.076,-582.644 695.886,-427.812 728,-387 736.246,-376.521 748.631,-370.056 761.334,-366.083"/>
<polygon fill="#9a32cd" stroke="#9a32cd" points="535.441,-658.766 525.095,-661.049 534.607,-665.716 535.441,-658.766"/>
<text text-anchor="middle" x="635" y="-667" font-family="Helvetica,sans-Serif" font-size="10.00"> mySLogoResult</text>
</g>
<!-- Node20 -->
<g id="node20" class="node"><title>Node20</title>
<polygon fill="white" stroke="#bfbfbf" points="49.5,-506.5 49.5,-525.5 142.5,-525.5 142.5,-506.5 49.5,-506.5"/>
<text text-anchor="middle" x="96" y="-513.5" font-family="Helvetica,sans-Serif" font-size="10.00">ResourceBundle</text>
</g>
<!-- Node20&#45;&gt;Node19 -->
<g id="edge22" class="edge"><title>Node20&#45;&gt;Node19</title>
<path fill="none" stroke="#9a32cd" stroke-dasharray="5,2" d="M129.915,-529.325C182.135,-550.287 287.348,-591.787 378,-623 387.741,-626.354 398.211,-629.743 408.283,-632.897"/>
<polygon fill="#9a32cd" stroke="#9a32cd" points="131.08,-526.022 120.496,-525.537 128.468,-532.516 131.08,-526.022"/>
<text text-anchor="middle" x="285" y="-617" font-family="Helvetica,sans-Serif" font-size="10.00"> myProperties</text>
</g>
<!-- Node20&#45;&gt;Node31 -->
<g id="edge37" class="edge"><title>Node20&#45;&gt;Node31</title>
<path fill="none" stroke="#9a32cd" stroke-dasharray="5,2" d="M127.802,-502.325C178.776,-480.292 284.36,-437.17 378,-415 450.312,-397.879 656.821,-426.905 710,-375 749.852,-336.102 698.386,-298.162 728,-251 739.278,-233.04 758.656,-219.48 775.854,-210.205"/>
<polygon fill="#9a32cd" stroke="#9a32cd" points="126.126,-499.237 118.355,-506.438 128.921,-505.655 126.126,-499.237"/>
<text text-anchor="middle" x="460" y="-451" font-family="Helvetica,sans-Serif" font-size="10.00"> myCommandReference</text>
<text text-anchor="middle" x="460" y="-440" font-family="Helvetica,sans-Serif" font-size="10.00">myDirectoryListing</text>
<text text-anchor="middle" x="460" y="-429" font-family="Helvetica,sans-Serif" font-size="10.00">myNumberArguments</text>
<text text-anchor="middle" x="460" y="-418" font-family="Helvetica,sans-Serif" font-size="10.00">mySyntaxReference</text>
</g>
<!-- Node21 -->
<g id="node21" class="node"><title>Node21</title>
<polygon fill="white" stroke="#bfbfbf" points="15,-633 15,-663 177,-663 177,-633 15,-633"/>
<text text-anchor="start" x="23" y="-651" font-family="Helvetica,sans-Serif" font-size="10.00">List&lt; transitionstate.Transition</text>
<text text-anchor="middle" x="96" y="-640" font-family="Helvetica,sans-Serif" font-size="10.00">State &gt;</text>
</g>
<!-- Node21&#45;&gt;Node19 -->
<g id="edge23" class="edge"><title>Node21&#45;&gt;Node19</title>
<path fill="none" stroke="#9a32cd" stroke-dasharray="5,2" d="M187.512,-648C252.043,-648 337.235,-648 394.845,-648"/>
<polygon fill="#9a32cd" stroke="#9a32cd" points="187.34,-644.5 177.34,-648 187.339,-651.5 187.34,-644.5"/>
<text text-anchor="middle" x="285" y="-651" font-family="Helvetica,sans-Serif" font-size="10.00"> myTransitionStates</text>
</g>
<!-- Node22&#45;&gt;Node4 -->
<g id="edge24" class="edge"><title>Node22&#45;&gt;Node4</title>
<path fill="none" stroke="#9a32cd" stroke-dasharray="5,2" d="M1649.52,-292.618C1634.62,-304.887 1612.51,-320.675 1590,-328 1454.15,-372.203 1011.93,-365.192 862.7,-361.433"/>
<polygon fill="#9a32cd" stroke="#9a32cd" points="1652.07,-295.043 1657.41,-285.891 1647.53,-289.717 1652.07,-295.043"/>
<text text-anchor="middle" x="1266" y="-366" font-family="Helvetica,sans-Serif" font-size="10.00"> myInterpreter</text>
</g>
<!-- Node23 -->
<g id="node23" class="node"><title>Node23</title>
<g id="a_node23"><a xlink:href="../../da/de4/classinterpreter_1_1_expression_evaluator.html" target="_top" xlink:title="interpreter.ExpressionEvaluator">
<polygon fill="white" stroke="black" points="1340.5,-266.5 1340.5,-285.5 1507.5,-285.5 1507.5,-266.5 1340.5,-266.5"/>
<text text-anchor="middle" x="1424" y="-273.5" font-family="Helvetica,sans-Serif" font-size="10.00">interpreter.ExpressionEvaluator</text>
</a>
</g>
</g>
<!-- Node23&#45;&gt;Node22 -->
<g id="edge26" class="edge"><title>Node23&#45;&gt;Node22</title>
<path fill="none" stroke="#9a32cd" stroke-dasharray="5,2" d="M1517.79,-276C1548.14,-276 1581.01,-276 1608.25,-276"/>
<polygon fill="#9a32cd" stroke="#9a32cd" points="1517.61,-272.5 1507.61,-276 1517.61,-279.5 1517.61,-272.5"/>
<text text-anchor="middle" x="1558" y="-279" font-family="Helvetica,sans-Serif" font-size="10.00"> myEvaluator</text>
</g>
<!-- Node24 -->
<g id="node24" class="node"><title>Node24</title>
<g id="a_node24"><a xlink:href="../../d6/d76/classinterpreter_1_1_s_logo_result_merger.html" target="_top" xlink:title="interpreter.SLogoResultMerger">
<polygon fill="white" stroke="black" points="1027,-266.5 1027,-285.5 1189,-285.5 1189,-266.5 1027,-266.5"/>
<text text-anchor="middle" x="1108" y="-273.5" font-family="Helvetica,sans-Serif" font-size="10.00">interpreter.SLogoResultMerger</text>
</a>
</g>
</g>
<!-- Node24&#45;&gt;Node23 -->
<g id="edge27" class="edge"><title>Node24&#45;&gt;Node23</title>
<path fill="none" stroke="#9a32cd" stroke-dasharray="5,2" d="M1199.27,-276C1243.74,-276 1296.97,-276 1340.36,-276"/>
<polygon fill="#9a32cd" stroke="#9a32cd" points="1199.05,-272.5 1189.05,-276 1199.05,-279.5 1199.05,-272.5"/>
<text text-anchor="middle" x="1266" y="-279" font-family="Helvetica,sans-Serif" font-size="10.00"> myResultMerger</text>
</g>
<!-- Node25 -->
<g id="node25" class="node"><title>Node25</title>
<polygon fill="white" stroke="#bfbfbf" points="740.5,-261 740.5,-291 883.5,-291 883.5,-261 740.5,-261"/>
<text text-anchor="start" x="748.5" y="-279" font-family="Helvetica,sans-Serif" font-size="10.00">Deque&lt; interpreter.result.</text>
<text text-anchor="middle" x="812" y="-268" font-family="Helvetica,sans-Serif" font-size="10.00">SLogoResult &gt;</text>
</g>
<!-- Node25&#45;&gt;Node24 -->
<g id="edge28" class="edge"><title>Node25&#45;&gt;Node24</title>
<path fill="none" stroke="#9a32cd" stroke-dasharray="5,2" d="M893.857,-276C935.311,-276 985.63,-276 1026.97,-276"/>
<polygon fill="#9a32cd" stroke="#9a32cd" points="893.794,-272.5 883.794,-276 893.794,-279.5 893.794,-272.5"/>
<text text-anchor="middle" x="960" y="-279" font-family="Helvetica,sans-Serif" font-size="10.00"> myResultsToMerge</text>
</g>
<!-- Node26 -->
<g id="node26" class="node"><title>Node26</title>
<g id="a_node26"><a xlink:href="../../d3/da2/classinterpreter_1_1_parser.html" target="_top" xlink:title="interpreter.Parser">
<polygon fill="white" stroke="black" points="1374,-168.5 1374,-187.5 1474,-187.5 1474,-168.5 1374,-168.5"/>
<text text-anchor="middle" x="1424" y="-175.5" font-family="Helvetica,sans-Serif" font-size="10.00">interpreter.Parser</text>
</a>
</g>
</g>
<!-- Node26&#45;&gt;Node22 -->
<g id="edge29" class="edge"><title>Node26&#45;&gt;Node22</title>
<path fill="none" stroke="#9a32cd" stroke-dasharray="5,2" d="M1484.46,-183.761C1516.85,-188.56 1556.96,-197.273 1590,-213 1618.29,-226.465 1645.36,-252.141 1658.94,-266.2"/>
<polygon fill="#9a32cd" stroke="#9a32cd" points="1484.61,-180.249 1474.23,-182.336 1483.65,-187.182 1484.61,-180.249"/>
<text text-anchor="middle" x="1558" y="-216" font-family="Helvetica,sans-Serif" font-size="10.00"> myParser</text>
</g>
<!-- Node27 -->
<g id="node27" class="node"><title>Node27</title>
<polygon fill="white" stroke="#bfbfbf" points="1024.5,-114 1024.5,-144 1191.5,-144 1191.5,-114 1024.5,-114"/>
<text text-anchor="start" x="1032.5" y="-132" font-family="Helvetica,sans-Serif" font-size="10.00">Deque&lt; interpreter.expression.</text>
<text text-anchor="middle" x="1108" y="-121" font-family="Helvetica,sans-Serif" font-size="10.00">SLogoExpression &gt;</text>
</g>
<!-- Node27&#45;&gt;Node26 -->
<g id="edge30" class="edge"><title>Node27&#45;&gt;Node26</title>
<path fill="none" stroke="#9a32cd" stroke-dasharray="5,2" d="M1201.98,-136.102C1239.44,-139.726 1282.95,-144.903 1322,-152 1345.34,-156.241 1371.24,-162.95 1390.97,-168.49"/>
<polygon fill="#9a32cd" stroke="#9a32cd" points="1201.87,-132.576 1191.58,-135.121 1201.21,-139.545 1201.87,-132.576"/>
<text text-anchor="middle" x="1266" y="-166" font-family="Helvetica,sans-Serif" font-size="10.00"> myLoadedExpressions</text>
<text text-anchor="middle" x="1266" y="-155" font-family="Helvetica,sans-Serif" font-size="10.00">myParameterStack</text>
</g>
<!-- Node28&#45;&gt;Node26 -->
<g id="edge31" class="edge"><title>Node28&#45;&gt;Node26</title>
<path fill="none" stroke="#9a32cd" stroke-dasharray="5,2" d="M1194.39,-178C1251.97,-178 1325.88,-178 1373.84,-178"/>
<polygon fill="#9a32cd" stroke="#9a32cd" points="1194.21,-174.5 1184.21,-178 1194.21,-181.5 1194.21,-174.5"/>
<text text-anchor="middle" x="1266" y="-181" font-family="Helvetica,sans-Serif" font-size="10.00"> myFactory</text>
</g>
<!-- Node29 -->
<g id="node29" class="node"><title>Node29</title>
<polygon fill="white" stroke="#bfbfbf" points="396,-88.5 396,-107.5 524,-107.5 524,-88.5 396,-88.5"/>
<text text-anchor="middle" x="460" y="-95.5" font-family="Helvetica,sans-Serif" font-size="10.00">Map&lt; String, Integer &gt;</text>
</g>
<!-- Node29&#45;&gt;Node28 -->
<g id="edge33" class="edge"><title>Node29&#45;&gt;Node28</title>
<path fill="none" stroke="#9a32cd" stroke-dasharray="5,2" d="M534.131,-95.0244C583.851,-93.8744 651.051,-94.0248 710,-100 831.772,-112.343 971.704,-144.021 1048.66,-162.994"/>
<polygon fill="#9a32cd" stroke="#9a32cd" points="534.02,-91.526 524.112,-95.2792 534.198,-98.5238 534.02,-91.526"/>
<text text-anchor="middle" x="812" y="-132" font-family="Helvetica,sans-Serif" font-size="10.00"> myCommandToNumArgsMap</text>
</g>
<!-- Node29&#45;&gt;Node31 -->
<g id="edge38" class="edge"><title>Node29&#45;&gt;Node31</title>
<path fill="none" stroke="#9a32cd" stroke-dasharray="5,2" d="M534.418,-98.9624C585.1,-101.646 653.307,-109.317 710,-130 741.734,-141.578 773.751,-164.532 792.984,-179.828"/>
<polygon fill="#9a32cd" stroke="#9a32cd" points="534.357,-95.4557 524.202,-98.4762 534.024,-102.448 534.357,-95.4557"/>
<text text-anchor="middle" x="635" y="-133" font-family="Helvetica,sans-Serif" font-size="10.00"> myCommandToNumArgsMap</text>
</g>
<!-- Node30 -->
<g id="node30" class="node"><title>Node30</title>
<polygon fill="white" stroke="#bfbfbf" points="399,-0.5 399,-19.5 521,-19.5 521,-0.5 399,-0.5"/>
<text text-anchor="middle" x="460" y="-7.5" font-family="Helvetica,sans-Serif" font-size="10.00">Map&lt; String, String &gt;</text>
</g>
<!-- Node30&#45;&gt;Node28 -->
<g id="edge34" class="edge"><title>Node30&#45;&gt;Node28</title>
<path fill="none" stroke="#9a32cd" stroke-dasharray="5,2" d="M531.321,-3.60858C581.421,-0.470321 650.203,0.956872 710,-8 795.507,-20.808 816.779,-30.365 896,-65 947.825,-87.6577 963.743,-91.4024 1006,-129 1015.96,-137.863 1013.07,-145.363 1024,-153 1029.55,-156.879 1035.72,-160.167 1042.11,-162.952"/>
<polygon fill="#9a32cd" stroke="#9a32cd" points="530.987,-0.122961 521.241,-4.27873 531.451,-7.10754 530.987,-0.122961"/>
<text text-anchor="middle" x="812" y="-90" font-family="Helvetica,sans-Serif" font-size="10.00"> myReverseSyntaxMap</text>
<text text-anchor="middle" x="812" y="-79" font-family="Helvetica,sans-Serif" font-size="10.00">myCommandToDirectoryMap</text>
<text text-anchor="middle" x="812" y="-68" font-family="Helvetica,sans-Serif" font-size="10.00">myReferenceToCommandMap</text>
</g>
<!-- Node30&#45;&gt;Node31 -->
<g id="edge41" class="edge"><title>Node30&#45;&gt;Node31</title>
<path fill="none" stroke="#9a32cd" stroke-dasharray="5,2" d="M531.411,-4.79557C585.968,-4.565 660.38,-13.049 710,-54 727.252,-68.2379 716.413,-81.8668 728,-101 746.721,-131.912 776.062,-162.26 794.379,-179.777"/>
<polygon fill="#9a32cd" stroke="#9a32cd" points="531.071,-1.29996 521.122,-4.94238 531.171,-8.29925 531.071,-1.29996"/>
<text text-anchor="middle" x="635" y="-90" font-family="Helvetica,sans-Serif" font-size="10.00"> myReverseSyntaxMap</text>
<text text-anchor="middle" x="635" y="-79" font-family="Helvetica,sans-Serif" font-size="10.00">myCommandToDirectoryMap</text>
<text text-anchor="middle" x="635" y="-68" font-family="Helvetica,sans-Serif" font-size="10.00">mySyntaxMap</text>
<text text-anchor="middle" x="635" y="-57" font-family="Helvetica,sans-Serif" font-size="10.00">myReferenceToCommandMap</text>
</g>
<!-- Node31&#45;&gt;Node22 -->
<g id="edge42" class="edge"><title>Node31&#45;&gt;Node22</title>
<path fill="none" stroke="#9a32cd" stroke-dasharray="5,2" d="M866.929,-212.899C882.005,-217.239 898.507,-221.379 914,-224 1174.7,-268.095 1244.59,-234.066 1508,-257 1541.3,-259.899 1578.38,-264.232 1608.45,-268.028"/>
<polygon fill="#9a32cd" stroke="#9a32cd" points="867.834,-209.517 857.251,-210.032 865.845,-216.229 867.834,-209.517"/>
<text text-anchor="middle" x="1266" y="-252" font-family="Helvetica,sans-Serif" font-size="10.00"> myLibrary</text>
</g>
<!-- Node31&#45;&gt;Node28 -->
<g id="edge35" class="edge"><title>Node31&#45;&gt;Node28</title>
<path fill="none" stroke="#9a32cd" stroke-dasharray="5,2" d="M905.723,-179.754C908.51,-179.475 911.274,-179.222 914,-179 952.741,-175.849 996,-175.349 1031.73,-175.743"/>
<polygon fill="#9a32cd" stroke="#9a32cd" points="905.112,-176.3 895.556,-180.876 905.879,-183.258 905.112,-176.3"/>
<text text-anchor="middle" x="960" y="-182" font-family="Helvetica,sans-Serif" font-size="10.00"> myLibrary</text>
</g>
<!-- Node32 -->
<g id="node32" class="node"><title>Node32</title>
<polygon fill="white" stroke="#bfbfbf" points="439.5,-468.5 439.5,-487.5 480.5,-487.5 480.5,-468.5 439.5,-468.5"/>
<text text-anchor="middle" x="460" y="-475.5" font-family="Helvetica,sans-Serif" font-size="10.00">Color</text>
</g>
<!-- Node32&#45;&gt;Node4 -->
<g id="edge43" class="edge"><title>Node32&#45;&gt;Node4</title>
<path fill="none" stroke="#9a32cd" stroke-dasharray="5,2" d="M490.819,-472.473C553.062,-460.734 692.507,-433.302 710,-420 723.298,-409.887 715.147,-397.673 728,-387 737.559,-379.062 749.511,-373.439 761.341,-369.463"/>
<polygon fill="#9a32cd" stroke="#9a32cd" points="490.013,-469.063 480.83,-474.347 491.304,-475.943 490.013,-469.063"/>
<text text-anchor="middle" x="635" y="-483" font-family="Helvetica,sans-Serif" font-size="10.00"> myBackgroundColor</text>
<text text-anchor="start" x="576.5" y="-472" font-family="Helvetica,sans-Serif" font-size="10.00">DEFAULT_BACKGROUND</text>
<text text-anchor="middle" x="635" y="-461" font-family="Helvetica,sans-Serif" font-size="10.00">_COLOR</text>
</g>
</g>
</svg>
