<?xml version="1.0" encoding="UTF-8" standalone="no"?>
<!DOCTYPE svg PUBLIC "-//W3C//DTD SVG 1.1//EN"
 "http://www.w3.org/Graphics/SVG/1.1/DTD/svg11.dtd">
<!-- Generated by graphviz version 2.36.0 (20140111.2315)
 -->
<!-- Title: viewcontroller.turtlegrid.GridButtonBar Pages: 1 -->
<svg width="720pt" height="127pt"
 viewBox="0.00 0.00 720.00 127.07" xmlns="http://www.w3.org/2000/svg" xmlns:xlink="http://www.w3.org/1999/xlink">
<g id="graph0" class="graph" transform="scale(1 1) rotate(0) translate(4 123.07)">
<title>viewcontroller.turtlegrid.GridButtonBar</title>
<polygon fill="white" stroke="none" points="-4,4 -4,-123.07 716,-123.07 716,4 -4,4"/>
<!-- Node1 -->
<g id="node1" class="node"><title>Node1</title>
<polygon fill="#bfbfbf" stroke="black" points="580.5,-76 580.5,-106 711.5,-106 711.5,-76 580.5,-76"/>
<text text-anchor="start" x="588.5" y="-94" font-family="Helvetica,sans-Serif" font-size="10.00">viewcontroller.turtlegrid.</text>
<text text-anchor="middle" x="646" y="-83" font-family="Helvetica,sans-Serif" font-size="10.00">GridButtonBar</text>
</g>
<!-- Node2 -->
<g id="node2" class="node"><title>Node2</title>
<polygon fill="white" stroke="#bfbfbf" points="0,-99.5 0,-118.5 42,-118.5 42,-99.5 0,-99.5"/>
<text text-anchor="middle" x="21" y="-106.5" font-family="Helvetica,sans-Serif" font-size="10.00">HBox</text>
</g>
<!-- Node2&#45;&gt;Node1 -->
<g id="edge1" class="edge"><title>Node2&#45;&gt;Node1</title>
<path fill="none" stroke="midnightblue" d="M52.0687,-113.945C61.0294,-115.203 70.889,-116.375 80,-117 138.529,-121.017 153.334,-117.244 212,-117 367.631,-116.352 407.685,-126.208 562,-106 567.953,-105.22 574.128,-104.306 580.301,-103.319"/>
<polygon fill="midnightblue" stroke="midnightblue" points="52.4674,-110.466 42.0614,-112.457 51.4378,-117.39 52.4674,-110.466"/>
</g>
<!-- Node4 -->
<g id="node4" class="node"><title>Node4</title>
<g id="a_node4"><a xlink:href="../../d7/d11/classviewcontroller_1_1turtlegrid_1_1_s_logo_labeled_container.html" target="_top" xlink:title="viewcontroller.turtlegrid.\lSLogoLabeledContainer">
<polygon fill="white" stroke="black" points="80.5,-39 80.5,-69 211.5,-69 211.5,-39 80.5,-39"/>
<text text-anchor="start" x="88.5" y="-57" font-family="Helvetica,sans-Serif" font-size="10.00">viewcontroller.turtlegrid.</text>
<text text-anchor="middle" x="146" y="-46" font-family="Helvetica,sans-Serif" font-size="10.00">SLogoLabeledContainer</text>
</a>
</g>
</g>
<!-- Node2&#45;&gt;Node4 -->
<g id="edge4" class="edge"><title>Node2&#45;&gt;Node4</title>
<path fill="none" stroke="midnightblue" d="M48.1753,-94.6836C58.0343,-89.4983 69.4207,-83.7531 80,-79 87.6098,-75.581 95.8394,-72.1889 103.802,-69.0576"/>
<polygon fill="midnightblue" stroke="midnightblue" points="46.4448,-91.6398 39.2671,-99.4329 49.738,-97.8168 46.4448,-91.6398"/>
</g>
<!-- Node3 -->
<g id="node3" class="node"><title>Node3</title>
<g id="a_node3"><a xlink:href="../../db/dbf/classviewcontroller_1_1turtlegrid_1_1_s_logo_color_picker.html" target="_top" xlink:title="viewcontroller.turtlegrid.\lSLogoColorPicker">
<polygon fill="white" stroke="black" points="320.5,-25 320.5,-55 451.5,-55 451.5,-25 320.5,-25"/>
<text text-anchor="start" x="328.5" y="-43" font-family="Helvetica,sans-Serif" font-size="10.00">viewcontroller.turtlegrid.</text>
<text text-anchor="middle" x="386" y="-32" font-family="Helvetica,sans-Serif" font-size="10.00">SLogoColorPicker</text>
</a>
</g>
</g>
<!-- Node3&#45;&gt;Node1 -->
<g id="edge2" class="edge"><title>Node3&#45;&gt;Node1</title>
<path fill="none" stroke="#9a32cd" stroke-dasharray="5,2" d="M461.796,-47.9828C492.985,-52.009 529.454,-57.6286 562,-65 574.96,-67.9353 588.817,-71.9249 601.424,-75.897"/>
<polygon fill="#9a32cd" stroke="#9a32cd" points="462.227,-44.5095 451.867,-46.7315 461.351,-51.4545 462.227,-44.5095"/>
<text text-anchor="middle" x="516" y="-79" font-family="Helvetica,sans-Serif" font-size="10.00"> myGridColorPicker</text>
<text text-anchor="middle" x="516" y="-68" font-family="Helvetica,sans-Serif" font-size="10.00">myPenColorPicker</text>
</g>
<!-- Node4&#45;&gt;Node3 -->
<g id="edge3" class="edge"><title>Node4&#45;&gt;Node3</title>
<path fill="none" stroke="midnightblue" d="M221.798,-49.6001C253.406,-47.7408 289.864,-45.5963 320.293,-43.8063"/>
<polygon fill="midnightblue" stroke="midnightblue" points="221.497,-46.1117 211.72,-50.1929 221.908,-53.0996 221.497,-46.1117"/>
</g>
<!-- Node6 -->
<g id="node6" class="node"><title>Node6</title>
<g id="a_node6"><a xlink:href="../../d4/d7d/classviewcontroller_1_1turtlegrid_1_1_s_logo_slider.html" target="_top" xlink:title="viewcontroller.turtlegrid.\lSLogoSlider">
<polygon fill="white" stroke="black" points="320.5,-76 320.5,-106 451.5,-106 451.5,-76 320.5,-76"/>
<text text-anchor="start" x="328.5" y="-94" font-family="Helvetica,sans-Serif" font-size="10.00">viewcontroller.turtlegrid.</text>
<text text-anchor="middle" x="386" y="-83" font-family="Helvetica,sans-Serif" font-size="10.00">SLogoSlider</text>
</a>
</g>
</g>
<!-- Node4&#45;&gt;Node6 -->
<g id="edge7" class="edge"><title>Node4&#45;&gt;Node6</title>
<path fill="none" stroke="midnightblue" d="M221.798,-65.6283C253.406,-70.5421 289.864,-76.2099 320.293,-80.9405"/>
<polygon fill="midnightblue" stroke="midnightblue" points="222.139,-62.1393 211.72,-64.0615 221.064,-69.0562 222.139,-62.1393"/>
</g>
<!-- Node5 -->
<g id="node5" class="node"><title>Node5</title>
<polygon fill="white" stroke="#bfbfbf" points="111,-0.5 111,-19.5 181,-19.5 181,-0.5 111,-0.5"/>
<text text-anchor="middle" x="146" y="-7.5" font-family="Helvetica,sans-Serif" font-size="10.00">ColorPicker</text>
</g>
<!-- Node5&#45;&gt;Node3 -->
<g id="edge5" class="edge"><title>Node5&#45;&gt;Node3</title>
<path fill="none" stroke="#9a32cd" stroke-dasharray="5,2" d="M191.375,-15.5934C227.692,-20.1713 279.559,-26.7091 320.471,-31.8661"/>
<polygon fill="#9a32cd" stroke="#9a32cd" points="191.459,-12.0764 181.1,-14.2983 190.583,-19.0215 191.459,-12.0764"/>
<text text-anchor="middle" x="266" y="-33" font-family="Helvetica,sans-Serif" font-size="10.00"> myColorPicker</text>
</g>
<!-- Node6&#45;&gt;Node1 -->
<g id="edge6" class="edge"><title>Node6&#45;&gt;Node1</title>
<path fill="none" stroke="#9a32cd" stroke-dasharray="5,2" d="M462.115,-91C499.528,-91 544.314,-91 580.202,-91"/>
<polygon fill="#9a32cd" stroke="#9a32cd" points="461.771,-87.5001 451.771,-91 461.771,-94.5001 461.771,-87.5001"/>
<text text-anchor="middle" x="516" y="-94" font-family="Helvetica,sans-Serif" font-size="10.00"> mySpeedSlider</text>
</g>
<!-- Node7 -->
<g id="node7" class="node"><title>Node7</title>
<polygon fill="white" stroke="#bfbfbf" points="124,-88.5 124,-107.5 168,-107.5 168,-88.5 124,-88.5"/>
<text text-anchor="middle" x="146" y="-95.5" font-family="Helvetica,sans-Serif" font-size="10.00">Slider</text>
</g>
<!-- Node7&#45;&gt;Node6 -->
<g id="edge8" class="edge"><title>Node7&#45;&gt;Node6</title>
<path fill="none" stroke="#9a32cd" stroke-dasharray="5,2" d="M178.473,-97.0743C214.43,-96.0168 274.237,-94.2577 320.263,-92.904"/>
<polygon fill="#9a32cd" stroke="#9a32cd" points="178.014,-93.5862 168.121,-97.3788 178.22,-100.583 178.014,-93.5862"/>
<text text-anchor="middle" x="266" y="-99" font-family="Helvetica,sans-Serif" font-size="10.00"> mySlider</text>
</g>
</g>
</svg>
