<?xml version="1.0" encoding="UTF-8" standalone="no"?>
<!DOCTYPE svg PUBLIC "-//W3C//DTD SVG 1.1//EN"
 "http://www.w3.org/Graphics/SVG/1.1/DTD/svg11.dtd">
<!-- Generated by graphviz version 2.36.0 (20140111.2315)
 -->
<!-- Title: interpreter.expression.TurtleQueryExpression Pages: 1 -->
<svg width="540pt" height="234pt"
 viewBox="0.00 0.00 540.00 234.00" xmlns="http://www.w3.org/2000/svg" xmlns:xlink="http://www.w3.org/1999/xlink">
<g id="graph0" class="graph" transform="scale(1 1) rotate(0) translate(4 230)">
<title>interpreter.expression.TurtleQueryExpression</title>
<polygon fill="white" stroke="none" points="-4,4 -4,-230 536,-230 536,4 -4,4"/>
<!-- Node1 -->
<g id="node1" class="node"><title>Node1</title>
<polygon fill="#bfbfbf" stroke="black" points="192,-98 192,-128 342,-128 342,-98 192,-98"/>
<text text-anchor="start" x="200" y="-116" font-family="Helvetica,sans-Serif" font-size="10.00">interpreter.expression.Turtle</text>
<text text-anchor="middle" x="267" y="-105" font-family="Helvetica,sans-Serif" font-size="10.00">QueryExpression</text>
</g>
<!-- Node3 -->
<g id="node3" class="node"><title>Node3</title>
<g id="a_node3"><a xlink:href="../../da/d9f/classinterpreter_1_1expression_1_1query_1_1_heading.html" target="_top" xlink:title="interpreter.expression.query.\lHeading">
<polygon fill="white" stroke="black" points="378.5,-196 378.5,-226 531.5,-226 531.5,-196 378.5,-196"/>
<text text-anchor="start" x="386.5" y="-214" font-family="Helvetica,sans-Serif" font-size="10.00">interpreter.expression.query.</text>
<text text-anchor="middle" x="455" y="-203" font-family="Helvetica,sans-Serif" font-size="10.00">Heading</text>
</a>
</g>
</g>
<!-- Node1&#45;&gt;Node3 -->
<g id="edge2" class="edge"><title>Node1&#45;&gt;Node3</title>
<path fill="none" stroke="midnightblue" d="M295.342,-134.159C316.877,-150.062 348.146,-171.511 378,-186 385.498,-189.639 393.655,-192.945 401.752,-195.875"/>
<polygon fill="midnightblue" stroke="midnightblue" points="297.411,-131.336 287.306,-128.149 293.218,-136.941 297.411,-131.336"/>
</g>
<!-- Node4 -->
<g id="node4" class="node"><title>Node4</title>
<g id="a_node4"><a xlink:href="../../dc/d20/classinterpreter_1_1expression_1_1query_1_1_is_pen_down.html" target="_top" xlink:title="interpreter.expression.query.\lIsPenDown">
<polygon fill="white" stroke="black" points="378.5,-147 378.5,-177 531.5,-177 531.5,-147 378.5,-147"/>
<text text-anchor="start" x="386.5" y="-165" font-family="Helvetica,sans-Serif" font-size="10.00">interpreter.expression.query.</text>
<text text-anchor="middle" x="455" y="-154" font-family="Helvetica,sans-Serif" font-size="10.00">IsPenDown</text>
</a>
</g>
</g>
<!-- Node1&#45;&gt;Node4 -->
<g id="edge3" class="edge"><title>Node1&#45;&gt;Node4</title>
<path fill="none" stroke="midnightblue" d="M334.895,-130.623C355.244,-135.984 377.408,-141.823 397.038,-146.994"/>
<polygon fill="midnightblue" stroke="midnightblue" points="335.632,-127.198 325.07,-128.035 333.849,-133.967 335.632,-127.198"/>
</g>
<!-- Node5 -->
<g id="node5" class="node"><title>Node5</title>
<g id="a_node5"><a xlink:href="../../da/dc0/classinterpreter_1_1expression_1_1query_1_1_is_showing.html" target="_top" xlink:title="interpreter.expression.query.\lIsShowing">
<polygon fill="white" stroke="black" points="378.5,-98 378.5,-128 531.5,-128 531.5,-98 378.5,-98"/>
<text text-anchor="start" x="386.5" y="-116" font-family="Helvetica,sans-Serif" font-size="10.00">interpreter.expression.query.</text>
<text text-anchor="middle" x="455" y="-105" font-family="Helvetica,sans-Serif" font-size="10.00">IsShowing</text>
</a>
</g>
</g>
<!-- Node1&#45;&gt;Node5 -->
<g id="edge4" class="edge"><title>Node1&#45;&gt;Node5</title>
<path fill="none" stroke="midnightblue" d="M352.218,-113C360.939,-113 369.764,-113 378.382,-113"/>
<polygon fill="midnightblue" stroke="midnightblue" points="352.047,-109.5 342.047,-113 352.047,-116.5 352.047,-109.5"/>
</g>
<!-- Node6 -->
<g id="node6" class="node"><title>Node6</title>
<g id="a_node6"><a xlink:href="../../d4/da7/classinterpreter_1_1expression_1_1query_1_1_x_coordinate.html" target="_top" xlink:title="interpreter.expression.query.\lXCoordinate">
<polygon fill="white" stroke="black" points="378.5,-49 378.5,-79 531.5,-79 531.5,-49 378.5,-49"/>
<text text-anchor="start" x="386.5" y="-67" font-family="Helvetica,sans-Serif" font-size="10.00">interpreter.expression.query.</text>
<text text-anchor="middle" x="455" y="-56" font-family="Helvetica,sans-Serif" font-size="10.00">XCoordinate</text>
</a>
</g>
</g>
<!-- Node1&#45;&gt;Node6 -->
<g id="edge5" class="edge"><title>Node1&#45;&gt;Node6</title>
<path fill="none" stroke="midnightblue" d="M334.895,-95.3771C355.244,-90.0163 377.408,-84.1775 397.038,-79.0062"/>
<polygon fill="midnightblue" stroke="midnightblue" points="333.849,-92.0333 325.07,-97.9654 335.632,-98.8023 333.849,-92.0333"/>
</g>
<!-- Node7 -->
<g id="node7" class="node"><title>Node7</title>
<g id="a_node7"><a xlink:href="../../db/d56/classinterpreter_1_1expression_1_1query_1_1_y_coordinate.html" target="_top" xlink:title="interpreter.expression.query.\lYCoordinate">
<polygon fill="white" stroke="black" points="378.5,-0 378.5,-30 531.5,-30 531.5,-0 378.5,-0"/>
<text text-anchor="start" x="386.5" y="-18" font-family="Helvetica,sans-Serif" font-size="10.00">interpreter.expression.query.</text>
<text text-anchor="middle" x="455" y="-7" font-family="Helvetica,sans-Serif" font-size="10.00">YCoordinate</text>
</a>
</g>
</g>
<!-- Node1&#45;&gt;Node7 -->
<g id="edge6" class="edge"><title>Node1&#45;&gt;Node7</title>
<path fill="none" stroke="midnightblue" d="M294.856,-91.7209C316.351,-75.5036 347.797,-53.5537 378,-39 384.856,-35.6965 392.274,-32.7046 399.696,-30.043"/>
<polygon fill="midnightblue" stroke="midnightblue" points="292.665,-88.9903 286.848,-97.8454 296.917,-94.5506 292.665,-88.9903"/>
</g>
<!-- Node2 -->
<g id="node2" class="node"><title>Node2</title>
<g id="a_node2"><a xlink:href="../../db/d09/interfaceinterpreter_1_1expression_1_1_s_logo_expression.html" target="_top" xlink:title="interpreter.expression.SLogo\lExpression">
<polygon fill="white" stroke="black" points="0.5,-98 0.5,-128 155.5,-128 155.5,-98 0.5,-98"/>
<text text-anchor="start" x="8.5" y="-116" font-family="Helvetica,sans-Serif" font-size="10.00">interpreter.expression.SLogo</text>
<text text-anchor="middle" x="78" y="-105" font-family="Helvetica,sans-Serif" font-size="10.00">Expression</text>
</a>
</g>
</g>
<!-- Node2&#45;&gt;Node1 -->
<g id="edge1" class="edge"><title>Node2&#45;&gt;Node1</title>
<path fill="none" stroke="midnightblue" d="M165.8,-113C174.535,-113 183.349,-113 191.934,-113"/>
<polygon fill="midnightblue" stroke="midnightblue" points="165.6,-109.5 155.6,-113 165.6,-116.5 165.6,-109.5"/>
</g>
</g>
</svg>
