<?xml version="1.0" encoding="UTF-8" standalone="no"?>
<!DOCTYPE svg PUBLIC "-//W3C//DTD SVG 1.1//EN"
 "http://www.w3.org/Graphics/SVG/1.1/DTD/svg11.dtd">
<!-- Generated by graphviz version 2.36.0 (20140111.2315)
 -->
<!-- Title: interpreter.expression.TurtleQueryExpression Pages: 1 -->
<!--zoomable 234 -->
<svg id="main" version="1.1" xmlns="http://www.w3.org/2000/svg" xmlns:xlink="http://www.w3.org/1999/xlink" xml:space="preserve" onload="init(evt)">
<style type="text/css"><![CDATA[
.edge:hover path { stroke: red; }
.edge:hover polygon { stroke: red; fill: red; }
]]></style>
<script type="text/javascript"><![CDATA[
var edges = document.getElementsByTagName('g');
if (edges && edges.length) {
  for (var i=0;i<edges.length;i++) {
    if (edges[i].id.substr(0,4)=='edge') {
      edges[i].setAttribute('class','edge');
    }
  }
}
]]></script>
        <defs>
                <circle id="rim" cx="0" cy="0" r="7"/>
                <circle id="rim2" cx="0" cy="0" r="3.5"/>
                <g id="zoomPlus">
                        <use xlink:href="#rim" fill="#404040">
                                <set attributeName="fill" to="#808080" begin="zoomplus.mouseover" end="zoomplus.mouseout"/>
                        </use>
                        <path d="M-4,0h8M0,-4v8" fill="none" stroke="white" stroke-width="1.5" pointer-events="none"/>
                </g>
                <g id="zoomMin">
                        <use xlink:href="#rim" fill="#404040">
                                <set attributeName="fill" to="#808080" begin="zoomminus.mouseover" end="zoomminus.mouseout"/>
                        </use>
                        <path d="M-4,0h8" fill="none" stroke="white" stroke-width="1.5" pointer-events="none"/>
                </g>
                <g id="dirArrow">
                        <path fill="none" stroke="white" stroke-width="1.5" d="M0,-3.0v7 M-2.5,-0.5L0,-3.0L2.5,-0.5"/>
                </g>
               <g id="resetDef">
                       <use xlink:href="#rim2" fill="#404040">
                               <set attributeName="fill" to="#808080" begin="reset.mouseover" end="reset.mouseout"/>
                       </use>
               </g>
        </defs>

<script type="text/javascript">
var viewWidth = 540;
var viewHeight = 234;
var sectionId = 'dynsection-0';
</script>
<script xlink:href="../../svgpan.js"/>
<svg id="graph" class="graph">
<g id="viewport">
<title>interpreter.expression.TurtleQueryExpression</title>
<polygon fill="white" stroke="none" points="-4,4 -4,-230 536,-230 536,4 -4,4"/>
<!-- Node1 -->
<g id="node1" class="node"><title>Node1</title>
<polygon fill="#bfbfbf" stroke="black" points="192,-98 192,-128 342,-128 342,-98 192,-98"/>
<text text-anchor="start" x="200" y="-116" font-family="Helvetica,sans-Serif" font-size="10.00">interpreter.expression.Turtle</text>
<text text-anchor="middle" x="267" y="-105" font-family="Helvetica,sans-Serif" font-size="10.00">QueryExpression</text>
</g>
<!-- Node3 -->
<g id="node3" class="node"><title>Node3</title>
<g id="a_node3"><a xlink:href="../../da/d9f/classinterpreter_1_1expression_1_1query_1_1_heading.html" target="_top" xlink:title="interpreter.expression.query.\lHeading">
<polygon fill="white" stroke="black" points="378.5,-196 378.5,-226 531.5,-226 531.5,-196 378.5,-196"/>
<text text-anchor="start" x="386.5" y="-214" font-family="Helvetica,sans-Serif" font-size="10.00">interpreter.expression.query.</text>
<text text-anchor="middle" x="455" y="-203" font-family="Helvetica,sans-Serif" font-size="10.00">Heading</text>
</a>
</g>
</g>
<!-- Node1&#45;&gt;Node3 -->
<g id="edge2" class="edge"><title>Node1&#45;&gt;Node3</title>
<path fill="none" stroke="midnightblue" d="M295.342,-134.159C316.877,-150.062 348.146,-171.511 378,-186 385.498,-189.639 393.655,-192.945 401.752,-195.875"/>
<polygon fill="midnightblue" stroke="midnightblue" points="297.411,-131.336 287.306,-128.149 293.218,-136.941 297.411,-131.336"/>
</g>
<!-- Node4 -->
<g id="node4" class="node"><title>Node4</title>
<g id="a_node4"><a xlink:href="../../dc/d20/classinterpreter_1_1expression_1_1query_1_1_is_pen_down.html" target="_top" xlink:title="interpreter.expression.query.\lIsPenDown">
<polygon fill="white" stroke="black" points="378.5,-147 378.5,-177 531.5,-177 531.5,-147 378.5,-147"/>
<text text-anchor="start" x="386.5" y="-165" font-family="Helvetica,sans-Serif" font-size="10.00">interpreter.expression.query.</text>
<text text-anchor="middle" x="455" y="-154" font-family="Helvetica,sans-Serif" font-size="10.00">IsPenDown</text>
</a>
</g>
</g>
<!-- Node1&#45;&gt;Node4 -->
<g id="edge3" class="edge"><title>Node1&#45;&gt;Node4</title>
<path fill="none" stroke="midnightblue" d="M334.895,-130.623C355.244,-135.984 377.408,-141.823 397.038,-146.994"/>
<polygon fill="midnightblue" stroke="midnightblue" points="335.632,-127.198 325.07,-128.035 333.849,-133.967 335.632,-127.198"/>
</g>
<!-- Node5 -->
<g id="node5" class="node"><title>Node5</title>
<g id="a_node5"><a xlink:href="../../da/dc0/classinterpreter_1_1expression_1_1query_1_1_is_showing.html" target="_top" xlink:title="interpreter.expression.query.\lIsShowing">
<polygon fill="white" stroke="black" points="378.5,-98 378.5,-128 531.5,-128 531.5,-98 378.5,-98"/>
<text text-anchor="start" x="386.5" y="-116" font-family="Helvetica,sans-Serif" font-size="10.00">interpreter.expression.query.</text>
<text text-anchor="middle" x="455" y="-105" font-family="Helvetica,sans-Serif" font-size="10.00">IsShowing</text>
</a>
</g>
</g>
<!-- Node1&#45;&gt;Node5 -->
<g id="edge4" class="edge"><title>Node1&#45;&gt;Node5</title>
<path fill="none" stroke="midnightblue" d="M352.218,-113C360.939,-113 369.764,-113 378.382,-113"/>
<polygon fill="midnightblue" stroke="midnightblue" points="352.047,-109.5 342.047,-113 352.047,-116.5 352.047,-109.5"/>
</g>
<!-- Node6 -->
<g id="node6" class="node"><title>Node6</title>
<g id="a_node6"><a xlink:href="../../d4/da7/classinterpreter_1_1expression_1_1query_1_1_x_coordinate.html" target="_top" xlink:title="interpreter.expression.query.\lXCoordinate">
<polygon fill="white" stroke="black" points="378.5,-49 378.5,-79 531.5,-79 531.5,-49 378.5,-49"/>
<text text-anchor="start" x="386.5" y="-67" font-family="Helvetica,sans-Serif" font-size="10.00">interpreter.expression.query.</text>
<text text-anchor="middle" x="455" y="-56" font-family="Helvetica,sans-Serif" font-size="10.00">XCoordinate</text>
</a>
</g>
</g>
<!-- Node1&#45;&gt;Node6 -->
<g id="edge5" class="edge"><title>Node1&#45;&gt;Node6</title>
<path fill="none" stroke="midnightblue" d="M334.895,-95.3771C355.244,-90.0163 377.408,-84.1775 397.038,-79.0062"/>
<polygon fill="midnightblue" stroke="midnightblue" points="333.849,-92.0333 325.07,-97.9654 335.632,-98.8023 333.849,-92.0333"/>
</g>
<!-- Node7 -->
<g id="node7" class="node"><title>Node7</title>
<g id="a_node7"><a xlink:href="../../db/d56/classinterpreter_1_1expression_1_1query_1_1_y_coordinate.html" target="_top" xlink:title="interpreter.expression.query.\lYCoordinate">
<polygon fill="white" stroke="black" points="378.5,-0 378.5,-30 531.5,-30 531.5,-0 378.5,-0"/>
<text text-anchor="start" x="386.5" y="-18" font-family="Helvetica,sans-Serif" font-size="10.00">interpreter.expression.query.</text>
<text text-anchor="middle" x="455" y="-7" font-family="Helvetica,sans-Serif" font-size="10.00">YCoordinate</text>
</a>
</g>
</g>
<!-- Node1&#45;&gt;Node7 -->
<g id="edge6" class="edge"><title>Node1&#45;&gt;Node7</title>
<path fill="none" stroke="midnightblue" d="M294.856,-91.7209C316.351,-75.5036 347.797,-53.5537 378,-39 384.856,-35.6965 392.274,-32.7046 399.696,-30.043"/>
<polygon fill="midnightblue" stroke="midnightblue" points="292.665,-88.9903 286.848,-97.8454 296.917,-94.5506 292.665,-88.9903"/>
</g>
<!-- Node2 -->
<g id="node2" class="node"><title>Node2</title>
<g id="a_node2"><a xlink:href="../../db/d09/interfaceinterpreter_1_1expression_1_1_s_logo_expression.html" target="_top" xlink:title="interpreter.expression.SLogo\lExpression">
<polygon fill="white" stroke="black" points="0.5,-98 0.5,-128 155.5,-128 155.5,-98 0.5,-98"/>
<text text-anchor="start" x="8.5" y="-116" font-family="Helvetica,sans-Serif" font-size="10.00">interpreter.expression.SLogo</text>
<text text-anchor="middle" x="78" y="-105" font-family="Helvetica,sans-Serif" font-size="10.00">Expression</text>
</a>
</g>
</g>
<!-- Node2&#45;&gt;Node1 -->
<g id="edge1" class="edge"><title>Node2&#45;&gt;Node1</title>
<path fill="none" stroke="midnightblue" d="M165.8,-113C174.535,-113 183.349,-113 191.934,-113"/>
<polygon fill="midnightblue" stroke="midnightblue" points="165.6,-109.5 155.6,-113 165.6,-116.5 165.6,-109.5"/>
</g>
</g>
</svg>
        <g id="navigator" transform="translate(0 0)" fill="#404254">
                <rect fill="#f2f5e9" fill-opacity="0.5" stroke="#606060" stroke-width=".5" x="0" y="0" width="60" height="60"/>
                <use id="zoomplus" xlink:href="#zoomPlus" x="17" y="9" onmousedown="handleZoom(evt,'in')"/>
                <use id="zoomminus" xlink:href="#zoomMin" x="42" y="9" onmousedown="handleZoom(evt,'out')"/>
                <use id="reset" xlink:href="#resetDef" x="30" y="36" onmousedown="handleReset()"/>
                <g id="arrowUp" xlink:href="#dirArrow" transform="translate(30 24)" onmousedown="handlePan(0,-1)">
                  <use xlink:href="#rim" fill="#404040">
                        <set attributeName="fill" to="#808080" begin="arrowUp.mouseover" end="arrowUp.mouseout"/>
                  </use>
                  <path fill="none" stroke="white" stroke-width="1.5" d="M0,-3.0v7 M-2.5,-0.5L0,-3.0L2.5,-0.5"/>
                </g>
                <g id="arrowRight" xlink:href="#dirArrow" transform="rotate(90) translate(36 -43)" onmousedown="handlePan(1,0)">
                  <use xlink:href="#rim" fill="#404040">
                        <set attributeName="fill" to="#808080" begin="arrowRight.mouseover" end="arrowRight.mouseout"/>
                  </use>
                  <path fill="none" stroke="white" stroke-width="1.5" d="M0,-3.0v7 M-2.5,-0.5L0,-3.0L2.5,-0.5"/>
                </g>
                <g id="arrowDown" xlink:href="#dirArrow" transform="rotate(180) translate(-30 -48)" onmousedown="handlePan(0,1)">
                  <use xlink:href="#rim" fill="#404040">
                        <set attributeName="fill" to="#808080" begin="arrowDown.mouseover" end="arrowDown.mouseout"/>
                  </use>
                  <path fill="none" stroke="white" stroke-width="1.5" d="M0,-3.0v7 M-2.5,-0.5L0,-3.0L2.5,-0.5"/>
                </g>
                <g id="arrowLeft" xlink:href="#dirArrow" transform="rotate(270) translate(-36 17)" onmousedown="handlePan(-1,0)">
                  <use xlink:href="#rim" fill="#404040">
                        <set attributeName="fill" to="#808080" begin="arrowLeft.mouseover" end="arrowLeft.mouseout"/>
                  </use>
                  <path fill="none" stroke="white" stroke-width="1.5" d="M0,-3.0v7 M-2.5,-0.5L0,-3.0L2.5,-0.5"/>
                </g>
        </g>
        <svg viewBox="0 0 15 15" width="100%" height="30px" preserveAspectRatio="xMaxYMin meet">
         <g id="arrow_out" transform="scale(0.3 0.3)">
          <a xlink:href="classinterpreter_1_1expression_1_1_turtle_query_expression__inherit__graph_org.svg" target="_base">
           <rect id="button" ry="5" rx="5" y="6" x="6" height="38" width="38"
                fill="#f2f5e9" fill-opacity="0.5" stroke="#606060" stroke-width="1.0"/>
           <path id="arrow"
             d="M 11.500037,31.436501 C 11.940474,20.09759 22.043105,11.32322 32.158766,21.979434 L 37.068811,17.246167 C 37.068811,17.246167 37.088388,32 37.088388,32 L 22.160133,31.978069 C 22.160133,31.978069 26.997745,27.140456 26.997745,27.140456 C 18.528582,18.264221 13.291696,25.230495 11.500037,31.436501 z"
             style="fill:#404040;"/>
          </a>
         </g>
        </svg>
</svg>
