<?xml version="1.0" encoding="UTF-8" standalone="no"?>
<!DOCTYPE svg PUBLIC "-//W3C//DTD SVG 1.1//EN"
 "http://www.w3.org/Graphics/SVG/1.1/DTD/svg11.dtd">
<!-- Generated by graphviz version 2.36.0 (20140111.2315)
 -->
<!-- Title: viewcontroller.commands.UserDefinedMethodsViewController Pages: 1 -->
<svg width="1030pt" height="97pt"
 viewBox="0.00 0.00 1030.00 97.00" xmlns="http://www.w3.org/2000/svg" xmlns:xlink="http://www.w3.org/1999/xlink">
<g id="graph0" class="graph" transform="scale(1 1) rotate(0) translate(4 93)">
<title>viewcontroller.commands.UserDefinedMethodsViewController</title>
<polygon fill="white" stroke="none" points="-4,4 -4,-93 1026,-93 1026,4 -4,4"/>
<!-- Node1 -->
<g id="node1" class="node"><title>Node1</title>
<polygon fill="#bfbfbf" stroke="black" points="836.5,-27 836.5,-57 1021.5,-57 1021.5,-27 836.5,-27"/>
<text text-anchor="start" x="844.5" y="-45" font-family="Helvetica,sans-Serif" font-size="10.00">viewcontroller.commands.</text>
<text text-anchor="middle" x="929" y="-34" font-family="Helvetica,sans-Serif" font-size="10.00">UserDefinedMethodsViewController</text>
</g>
<!-- Node2 -->
<g id="node2" class="node"><title>Node2</title>
<g id="a_node2"><a xlink:href="../../d1/dfa/classviewcontroller_1_1commands_1_1_command_clickable_list_window_view_controller.html" target="_top" xlink:title="viewcontroller.commands.\lCommandClickableListWindowView\lController">
<polygon fill="white" stroke="black" points="618,-48.5 618,-89.5 800,-89.5 800,-48.5 618,-48.5"/>
<text text-anchor="start" x="626" y="-77.5" font-family="Helvetica,sans-Serif" font-size="10.00">viewcontroller.commands.</text>
<text text-anchor="start" x="626" y="-66.5" font-family="Helvetica,sans-Serif" font-size="10.00">CommandClickableListWindowView</text>
<text text-anchor="middle" x="709" y="-55.5" font-family="Helvetica,sans-Serif" font-size="10.00">Controller</text>
</a>
</g>
</g>
<!-- Node2&#45;&gt;Node1 -->
<g id="edge1" class="edge"><title>Node2&#45;&gt;Node1</title>
<path fill="none" stroke="midnightblue" d="M810.384,-56.5671C819.063,-55.4922 827.815,-54.4083 836.418,-53.3427"/>
<polygon fill="midnightblue" stroke="midnightblue" points="809.737,-53.1205 800.243,-57.8232 810.597,-60.0674 809.737,-53.1205"/>
</g>
<!-- Node3 -->
<g id="node3" class="node"><title>Node3</title>
<g id="a_node3"><a xlink:href="../../d4/d3f/classviewcontroller_1_1commands_1_1_command_list_window_view_controller.html" target="_top" xlink:title="viewcontroller.commands.\lCommandListWindowViewController">
<polygon fill="white" stroke="black" points="394.5,-54 394.5,-84 581.5,-84 581.5,-54 394.5,-54"/>
<text text-anchor="start" x="402.5" y="-72" font-family="Helvetica,sans-Serif" font-size="10.00">viewcontroller.commands.</text>
<text text-anchor="middle" x="488" y="-61" font-family="Helvetica,sans-Serif" font-size="10.00">CommandListWindowViewController</text>
</a>
</g>
</g>
<!-- Node3&#45;&gt;Node2 -->
<g id="edge2" class="edge"><title>Node3&#45;&gt;Node2</title>
<path fill="none" stroke="midnightblue" d="M591.757,-69C600.478,-69 609.256,-69 617.869,-69"/>
<polygon fill="midnightblue" stroke="midnightblue" points="591.558,-65.5001 581.558,-69 591.558,-72.5001 591.558,-65.5001"/>
</g>
<!-- Node4 -->
<g id="node4" class="node"><title>Node4</title>
<g id="a_node4"><a xlink:href="../../d8/d68/classviewcontroller_1_1commands_1_1_command_window_view_controller.html" target="_top" xlink:title="viewcontroller.commands.\lCommandWindowViewController">
<polygon fill="white" stroke="black" points="188,-54 188,-84 358,-84 358,-54 188,-54"/>
<text text-anchor="start" x="196" y="-72" font-family="Helvetica,sans-Serif" font-size="10.00">viewcontroller.commands.</text>
<text text-anchor="middle" x="273" y="-61" font-family="Helvetica,sans-Serif" font-size="10.00">CommandWindowViewController</text>
</a>
</g>
</g>
<!-- Node4&#45;&gt;Node3 -->
<g id="edge3" class="edge"><title>Node4&#45;&gt;Node3</title>
<path fill="none" stroke="midnightblue" d="M368.269,-69C376.915,-69 385.669,-69 394.301,-69"/>
<polygon fill="midnightblue" stroke="midnightblue" points="368.183,-65.5001 358.183,-69 368.183,-72.5001 368.183,-65.5001"/>
</g>
<!-- Node5 -->
<g id="node5" class="node"><title>Node5</title>
<g id="a_node5"><a xlink:href="../../d4/deb/interfaceviewcontroller_1_1_view_controller.html" target="_top" xlink:title="viewcontroller.ViewController">
<polygon fill="white" stroke="black" points="0,-59.5 0,-78.5 152,-78.5 152,-59.5 0,-59.5"/>
<text text-anchor="middle" x="76" y="-66.5" font-family="Helvetica,sans-Serif" font-size="10.00">viewcontroller.ViewController</text>
</a>
</g>
</g>
<!-- Node5&#45;&gt;Node4 -->
<g id="edge4" class="edge"><title>Node5&#45;&gt;Node4</title>
<path fill="none" stroke="midnightblue" d="M162.351,-69C170.809,-69 179.39,-69 187.836,-69"/>
<polygon fill="midnightblue" stroke="midnightblue" points="162.113,-65.5001 152.113,-69 162.113,-72.5001 162.113,-65.5001"/>
</g>
<!-- Node6 -->
<g id="node6" class="node"><title>Node6</title>
<g id="a_node6"><a xlink:href="../../d1/d41/interfaceviewcontroller_1_1_main_model_observer.html" target="_top" xlink:title="viewcontroller.MainModel\lObserver">
<polygon fill="white" stroke="black" points="641.5,-0 641.5,-30 776.5,-30 776.5,-0 641.5,-0"/>
<text text-anchor="start" x="649.5" y="-18" font-family="Helvetica,sans-Serif" font-size="10.00">viewcontroller.MainModel</text>
<text text-anchor="middle" x="709" y="-7" font-family="Helvetica,sans-Serif" font-size="10.00">Observer</text>
</a>
</g>
</g>
<!-- Node6&#45;&gt;Node1 -->
<g id="edge5" class="edge"><title>Node6&#45;&gt;Node1</title>
<path fill="none" stroke="midnightblue" d="M786.893,-24.5235C802.814,-26.4953 819.737,-28.5913 836.131,-30.6217"/>
<polygon fill="midnightblue" stroke="midnightblue" points="786.946,-21.0034 776.592,-23.2476 786.086,-27.9503 786.946,-21.0034"/>
</g>
</g>
</svg>
