<?xml version="1.0" encoding="UTF-8" standalone="no"?>
<!DOCTYPE svg PUBLIC "-//W3C//DTD SVG 1.1//EN"
 "http://www.w3.org/Graphics/SVG/1.1/DTD/svg11.dtd">
<!-- Generated by graphviz version 2.36.0 (20140111.2315)
 -->
<!-- Title: application.Main Pages: 1 -->
<svg width="163pt" height="96pt"
 viewBox="0.00 0.00 163.00 96.00" xmlns="http://www.w3.org/2000/svg" xmlns:xlink="http://www.w3.org/1999/xlink">
<g id="graph0" class="graph" transform="scale(1 1) rotate(0) translate(4 92)">
<title>application.Main</title>
<polygon fill="white" stroke="none" points="-4,4 -4,-92 159,-92 159,4 -4,4"/>
<!-- Node1 -->
<g id="node1" class="node"><title>Node1</title>
<polygon fill="#bfbfbf" stroke="black" points="30,-0.5 30,-19.5 124,-19.5 124,-0.5 30,-0.5"/>
<text text-anchor="middle" x="77" y="-7.5" font-family="Helvetica,sans-Serif" font-size="10.00">application.Main</text>
</g>
<!-- Node2 -->
<g id="node2" class="node"><title>Node2</title>
<polygon fill="white" stroke="#bfbfbf" points="-0.5,-68.5 -0.5,-87.5 68.5,-87.5 68.5,-68.5 -0.5,-68.5"/>
<text text-anchor="middle" x="34" y="-75.5" font-family="Helvetica,sans-Serif" font-size="10.00">Application</text>
</g>
<!-- Node2&#45;&gt;Node1 -->
<g id="edge1" class="edge"><title>Node2&#45;&gt;Node1</title>
<path fill="none" stroke="midnightblue" d="M45.1163,-59.9377C53.4725,-47.112 64.5827,-30.0591 71.2399,-19.8411"/>
<polygon fill="midnightblue" stroke="midnightblue" points="42.1478,-58.0824 39.6215,-68.3717 48.0129,-61.9036 42.1478,-58.0824"/>
</g>
<!-- Node3 -->
<g id="node3" class="node"><title>Node3</title>
<polygon fill="white" stroke="#bfbfbf" points="87,-68.5 87,-87.5 155,-87.5 155,-68.5 87,-68.5"/>
<text text-anchor="middle" x="121" y="-75.5" font-family="Helvetica,sans-Serif" font-size="10.00">Dimension</text>
</g>
<!-- Node3&#45;&gt;Node1 -->
<g id="edge2" class="edge"><title>Node3&#45;&gt;Node1</title>
<path fill="none" stroke="#9a32cd" stroke-dasharray="5,2" d="M109.625,-59.9377C101.075,-47.112 89.7061,-30.0591 82.8941,-19.8411"/>
<polygon fill="#9a32cd" stroke="#9a32cd" points="106.789,-61.9926 115.248,-68.3717 112.613,-58.1097 106.789,-61.9926"/>
<text text-anchor="middle" x="116" y="-41.5" font-family="Helvetica,sans-Serif" font-size="10.00"> SIZE</text>
</g>
</g>
</svg>
