<?xml version="1.0" encoding="UTF-8" standalone="no"?>
<!DOCTYPE svg PUBLIC "-//W3C//DTD SVG 1.1//EN"
 "http://www.w3.org/Graphics/SVG/1.1/DTD/svg11.dtd">
<!-- Generated by graphviz version 2.36.0 (20140111.2315)
 -->
<!-- Title: viewcontroller.commands.CommandStatusViewController Pages: 1 -->
<svg width="730pt" height="262pt"
 viewBox="0.00 0.00 730.00 262.00" xmlns="http://www.w3.org/2000/svg" xmlns:xlink="http://www.w3.org/1999/xlink">
<g id="graph0" class="graph" transform="scale(1 1) rotate(0) translate(4 258)">
<title>viewcontroller.commands.CommandStatusViewController</title>
<polygon fill="white" stroke="none" points="-4,4 -4,-258 726,-258 726,4 -4,4"/>
<!-- Node1 -->
<g id="node1" class="node"><title>Node1</title>
<polygon fill="#bfbfbf" stroke="black" points="554.5,-52 554.5,-82 721.5,-82 721.5,-52 554.5,-52"/>
<text text-anchor="start" x="562.5" y="-70" font-family="Helvetica,sans-Serif" font-size="10.00">viewcontroller.commands.</text>
<text text-anchor="middle" x="638" y="-59" font-family="Helvetica,sans-Serif" font-size="10.00">CommandStatusViewController</text>
</g>
<!-- Node2 -->
<g id="node2" class="node"><title>Node2</title>
<g id="a_node2"><a xlink:href="../../d8/d68/classviewcontroller_1_1commands_1_1_command_window_view_controller.html" target="_top" xlink:title="viewcontroller.commands.\lCommandWindowViewController">
<polygon fill="white" stroke="black" points="346,-136 346,-166 516,-166 516,-136 346,-136"/>
<text text-anchor="start" x="354" y="-154" font-family="Helvetica,sans-Serif" font-size="10.00">viewcontroller.commands.</text>
<text text-anchor="middle" x="431" y="-143" font-family="Helvetica,sans-Serif" font-size="10.00">CommandWindowViewController</text>
</a>
</g>
</g>
<!-- Node2&#45;&gt;Node1 -->
<g id="edge1" class="edge"><title>Node2&#45;&gt;Node1</title>
<path fill="none" stroke="midnightblue" d="M478.187,-132.075C515.109,-116.946 566.166,-96.0247 600.322,-82.0289"/>
<polygon fill="midnightblue" stroke="midnightblue" points="476.576,-128.952 468.65,-135.982 479.23,-135.429 476.576,-128.952"/>
</g>
<!-- Node3 -->
<g id="node3" class="node"><title>Node3</title>
<g id="a_node3"><a xlink:href="../../d4/deb/interfaceviewcontroller_1_1_view_controller.html" target="_top" xlink:title="viewcontroller.ViewController">
<polygon fill="white" stroke="black" points="0,-196.5 0,-215.5 152,-215.5 152,-196.5 0,-196.5"/>
<text text-anchor="middle" x="76" y="-203.5" font-family="Helvetica,sans-Serif" font-size="10.00">viewcontroller.ViewController</text>
</a>
</g>
</g>
<!-- Node3&#45;&gt;Node2 -->
<g id="edge2" class="edge"><title>Node3&#45;&gt;Node2</title>
<path fill="none" stroke="midnightblue" d="M162.349,-200.244C211.145,-196.1 273.328,-189.375 328,-179 345.59,-175.662 364.577,-170.805 381.346,-166.07"/>
<polygon fill="midnightblue" stroke="midnightblue" points="161.824,-196.775 152.148,-201.089 162.403,-203.751 161.824,-196.775"/>
</g>
<!-- Node4 -->
<g id="node4" class="node"><title>Node4</title>
<polygon fill="white" stroke="#bfbfbf" points="55.5,-158.5 55.5,-177.5 96.5,-177.5 96.5,-158.5 55.5,-158.5"/>
<text text-anchor="middle" x="76" y="-165.5" font-family="Helvetica,sans-Serif" font-size="10.00">VBox</text>
</g>
<!-- Node4&#45;&gt;Node2 -->
<g id="edge3" class="edge"><title>Node4&#45;&gt;Node2</title>
<path fill="none" stroke="#9a32cd" stroke-dasharray="5,2" d="M106.983,-166.556C159.229,-164.04 268.723,-158.767 345.695,-155.06"/>
<polygon fill="#9a32cd" stroke="#9a32cd" points="106.555,-163.073 96.7352,-167.05 106.892,-170.064 106.555,-163.073"/>
<text text-anchor="middle" x="249" y="-167" font-family="Helvetica,sans-Serif" font-size="10.00"> myCommandWindowVerticalBox</text>
</g>
<!-- Node5 -->
<g id="node5" class="node"><title>Node5</title>
<polygon fill="white" stroke="#bfbfbf" points="55,-70.5 55,-89.5 97,-89.5 97,-70.5 55,-70.5"/>
<text text-anchor="middle" x="76" y="-77.5" font-family="Helvetica,sans-Serif" font-size="10.00">Label</text>
</g>
<!-- Node5&#45;&gt;Node1 -->
<g id="edge8" class="edge"><title>Node5&#45;&gt;Node1</title>
<path fill="none" stroke="#9a32cd" stroke-dasharray="5,2" d="M107.375,-79.2949C191.148,-77.3501 427.632,-71.8603 554.365,-68.9183"/>
<polygon fill="#9a32cd" stroke="#9a32cd" points="107.178,-75.7984 97.2615,-79.5296 107.34,-82.7965 107.178,-75.7984"/>
<text text-anchor="middle" x="431" y="-77" font-family="Helvetica,sans-Serif" font-size="10.00"> myStatusLabel</text>
</g>
<!-- Node5&#45;&gt;Node2 -->
<g id="edge4" class="edge"><title>Node5&#45;&gt;Node2</title>
<path fill="none" stroke="#9a32cd" stroke-dasharray="5,2" d="M107.24,-83.2148C154.681,-88.5898 249.309,-100.652 328,-119 347.52,-123.552 368.724,-129.958 386.717,-135.844"/>
<polygon fill="#9a32cd" stroke="#9a32cd" points="107.369,-79.7075 97.043,-82.0806 106.595,-86.6646 107.369,-79.7075"/>
<text text-anchor="middle" x="249" y="-122" font-family="Helvetica,sans-Serif" font-size="10.00"> myTitleLabel</text>
</g>
<!-- Node6 -->
<g id="node6" class="node"><title>Node6</title>
<polygon fill="white" stroke="#bfbfbf" points="42,-120.5 42,-139.5 110,-139.5 110,-120.5 42,-120.5"/>
<text text-anchor="middle" x="76" y="-127.5" font-family="Helvetica,sans-Serif" font-size="10.00">Dimension</text>
</g>
<!-- Node6&#45;&gt;Node2 -->
<g id="edge5" class="edge"><title>Node6&#45;&gt;Node2</title>
<path fill="none" stroke="#9a32cd" stroke-dasharray="5,2" d="M120.459,-131.547C170.531,-133.452 255.263,-137.054 328,-142 333.853,-142.398 339.892,-142.843 345.971,-143.316"/>
<polygon fill="#9a32cd" stroke="#9a32cd" points="120.442,-128.044 110.318,-131.166 120.179,-135.039 120.442,-128.044"/>
<text text-anchor="middle" x="249" y="-145" font-family="Helvetica,sans-Serif" font-size="10.00"> SIZE</text>
</g>
<!-- Node7 -->
<g id="node7" class="node"><title>Node7</title>
<polygon fill="white" stroke="#bfbfbf" points="40,-234.5 40,-253.5 112,-253.5 112,-234.5 40,-234.5"/>
<text text-anchor="middle" x="76" y="-241.5" font-family="Helvetica,sans-Serif" font-size="10.00">BorderPane</text>
</g>
<!-- Node7&#45;&gt;Node2 -->
<g id="edge6" class="edge"><title>Node7&#45;&gt;Node2</title>
<path fill="none" stroke="#9a32cd" stroke-dasharray="5,2" d="M122.407,-241.157C173.489,-236.96 258.412,-226.954 328,-204 356.238,-194.685 386.159,-178.259 406.238,-166.155"/>
<polygon fill="#9a32cd" stroke="#9a32cd" points="122.044,-237.675 112.347,-241.944 122.59,-244.654 122.044,-237.675"/>
<text text-anchor="middle" x="249" y="-238" font-family="Helvetica,sans-Serif" font-size="10.00"> myPane</text>
</g>
<!-- Node8 -->
<g id="node8" class="node"><title>Node8</title>
<g id="a_node8"><a xlink:href="../../d1/d41/interfaceviewcontroller_1_1_main_model_observer.html" target="_top" xlink:title="viewcontroller.MainModel\lObserver">
<polygon fill="white" stroke="black" points="363.5,-0 363.5,-30 498.5,-30 498.5,-0 363.5,-0"/>
<text text-anchor="start" x="371.5" y="-18" font-family="Helvetica,sans-Serif" font-size="10.00">viewcontroller.MainModel</text>
<text text-anchor="middle" x="431" y="-7" font-family="Helvetica,sans-Serif" font-size="10.00">Observer</text>
</a>
</g>
</g>
<!-- Node8&#45;&gt;Node1 -->
<g id="edge7" class="edge"><title>Node8&#45;&gt;Node1</title>
<path fill="none" stroke="midnightblue" d="M501.045,-32.5138C525.962,-38.8344 553.843,-45.9064 577.839,-51.9932"/>
<polygon fill="midnightblue" stroke="midnightblue" points="501.848,-29.1068 491.294,-30.0406 500.127,-35.8919 501.848,-29.1068"/>
</g>
</g>
</svg>
