<?xml version="1.0" encoding="UTF-8" standalone="no"?>
<!DOCTYPE svg PUBLIC "-//W3C//DTD SVG 1.1//EN"
 "http://www.w3.org/Graphics/SVG/1.1/DTD/svg11.dtd">
<!-- Generated by graphviz version 2.36.0 (20140111.2315)
 -->
<!-- Title: viewcontroller.commands.CommandListWindowViewController Pages: 1 -->
<svg width="1036pt" height="116pt"
 viewBox="0.00 0.00 1036.00 116.00" xmlns="http://www.w3.org/2000/svg" xmlns:xlink="http://www.w3.org/1999/xlink">
<g id="graph0" class="graph" transform="scale(1 1) rotate(0) translate(4 112)">
<title>viewcontroller.commands.CommandListWindowViewController</title>
<polygon fill="white" stroke="none" points="-4,4 -4,-112 1032,-112 1032,4 -4,4"/>
<!-- Node1 -->
<g id="node1" class="node"><title>Node1</title>
<polygon fill="#bfbfbf" stroke="black" points="394.5,-27 394.5,-57 581.5,-57 581.5,-27 394.5,-27"/>
<text text-anchor="start" x="402.5" y="-45" font-family="Helvetica,sans-Serif" font-size="10.00">viewcontroller.commands.</text>
<text text-anchor="middle" x="488" y="-34" font-family="Helvetica,sans-Serif" font-size="10.00">CommandListWindowViewController</text>
</g>
<!-- Node4 -->
<g id="node4" class="node"><title>Node4</title>
<g id="a_node4"><a xlink:href="../../d1/dfa/classviewcontroller_1_1commands_1_1_command_clickable_list_window_view_controller.html" target="_top" xlink:title="viewcontroller.commands.\lCommandClickableListWindowView\lController">
<polygon fill="white" stroke="black" points="621,-48.5 621,-89.5 803,-89.5 803,-48.5 621,-48.5"/>
<text text-anchor="start" x="629" y="-77.5" font-family="Helvetica,sans-Serif" font-size="10.00">viewcontroller.commands.</text>
<text text-anchor="start" x="629" y="-66.5" font-family="Helvetica,sans-Serif" font-size="10.00">CommandClickableListWindowView</text>
<text text-anchor="middle" x="712" y="-55.5" font-family="Helvetica,sans-Serif" font-size="10.00">Controller</text>
</a>
</g>
</g>
<!-- Node1&#45;&gt;Node4 -->
<g id="edge3" class="edge"><title>Node1&#45;&gt;Node4</title>
<path fill="none" stroke="midnightblue" d="M591.627,-54.4816C601.348,-55.6639 611.155,-56.8566 620.747,-58.0233"/>
<polygon fill="midnightblue" stroke="midnightblue" points="591.89,-50.9879 581.54,-53.2549 591.045,-57.9367 591.89,-50.9879"/>
</g>
<!-- Node7 -->
<g id="node7" class="node"><title>Node7</title>
<g id="a_node7"><a xlink:href="../../d4/dc8/classviewcontroller_1_1commands_1_1_user_defined_variables_view_controller.html" target="_top" xlink:title="viewcontroller.commands.\lUserDefinedVariablesViewController">
<polygon fill="white" stroke="black" points="618,-0 618,-30 806,-30 806,-0 618,-0"/>
<text text-anchor="start" x="626" y="-18" font-family="Helvetica,sans-Serif" font-size="10.00">viewcontroller.commands.</text>
<text text-anchor="middle" x="712" y="-7" font-family="Helvetica,sans-Serif" font-size="10.00">UserDefinedVariablesViewController</text>
</a>
</g>
</g>
<!-- Node1&#45;&gt;Node7 -->
<g id="edge6" class="edge"><title>Node1&#45;&gt;Node7</title>
<path fill="none" stroke="midnightblue" d="M591.737,-29.505C600.46,-28.444 609.252,-27.3747 617.895,-26.3235"/>
<polygon fill="midnightblue" stroke="midnightblue" points="591.045,-26.0633 581.54,-30.7451 591.89,-33.0121 591.045,-26.0633"/>
</g>
<!-- Node2 -->
<g id="node2" class="node"><title>Node2</title>
<g id="a_node2"><a xlink:href="../../d8/d68/classviewcontroller_1_1commands_1_1_command_window_view_controller.html" target="_top" xlink:title="viewcontroller.commands.\lCommandWindowViewController">
<polygon fill="white" stroke="black" points="188,-27 188,-57 358,-57 358,-27 188,-27"/>
<text text-anchor="start" x="196" y="-45" font-family="Helvetica,sans-Serif" font-size="10.00">viewcontroller.commands.</text>
<text text-anchor="middle" x="273" y="-34" font-family="Helvetica,sans-Serif" font-size="10.00">CommandWindowViewController</text>
</a>
</g>
</g>
<!-- Node2&#45;&gt;Node1 -->
<g id="edge1" class="edge"><title>Node2&#45;&gt;Node1</title>
<path fill="none" stroke="midnightblue" d="M368.269,-42C376.915,-42 385.669,-42 394.301,-42"/>
<polygon fill="midnightblue" stroke="midnightblue" points="368.183,-38.5001 358.183,-42 368.183,-45.5001 368.183,-38.5001"/>
</g>
<!-- Node3 -->
<g id="node3" class="node"><title>Node3</title>
<g id="a_node3"><a xlink:href="../../d4/deb/interfaceviewcontroller_1_1_view_controller.html" target="_top" xlink:title="viewcontroller.ViewController">
<polygon fill="white" stroke="black" points="0,-32.5 0,-51.5 152,-51.5 152,-32.5 0,-32.5"/>
<text text-anchor="middle" x="76" y="-39.5" font-family="Helvetica,sans-Serif" font-size="10.00">viewcontroller.ViewController</text>
</a>
</g>
</g>
<!-- Node3&#45;&gt;Node2 -->
<g id="edge2" class="edge"><title>Node3&#45;&gt;Node2</title>
<path fill="none" stroke="midnightblue" d="M162.351,-42C170.809,-42 179.39,-42 187.836,-42"/>
<polygon fill="midnightblue" stroke="midnightblue" points="162.113,-38.5001 152.113,-42 162.113,-45.5001 162.113,-38.5001"/>
</g>
<!-- Node5 -->
<g id="node5" class="node"><title>Node5</title>
<g id="a_node5"><a xlink:href="../../d3/d76/classviewcontroller_1_1commands_1_1_command_history_view_controller.html" target="_top" xlink:title="viewcontroller.commands.\lCommandHistoryViewController">
<polygon fill="white" stroke="black" points="850.5,-78 850.5,-108 1019.5,-108 1019.5,-78 850.5,-78"/>
<text text-anchor="start" x="858.5" y="-96" font-family="Helvetica,sans-Serif" font-size="10.00">viewcontroller.commands.</text>
<text text-anchor="middle" x="935" y="-85" font-family="Helvetica,sans-Serif" font-size="10.00">CommandHistoryViewController</text>
</a>
</g>
</g>
<!-- Node4&#45;&gt;Node5 -->
<g id="edge4" class="edge"><title>Node4&#45;&gt;Node5</title>
<path fill="none" stroke="midnightblue" d="M813.165,-79.8776C825.643,-81.2327 838.298,-82.607 850.487,-83.9307"/>
<polygon fill="midnightblue" stroke="midnightblue" points="813.527,-76.3965 803.208,-78.7963 812.772,-83.3556 813.527,-76.3965"/>
</g>
<!-- Node6 -->
<g id="node6" class="node"><title>Node6</title>
<g id="a_node6"><a xlink:href="../../de/d01/classviewcontroller_1_1commands_1_1_user_defined_methods_view_controller.html" target="_top" xlink:title="viewcontroller.commands.\lUserDefinedMethodsViewController">
<polygon fill="white" stroke="black" points="842.5,-29 842.5,-59 1027.5,-59 1027.5,-29 842.5,-29"/>
<text text-anchor="start" x="850.5" y="-47" font-family="Helvetica,sans-Serif" font-size="10.00">viewcontroller.commands.</text>
<text text-anchor="middle" x="935" y="-36" font-family="Helvetica,sans-Serif" font-size="10.00">UserDefinedMethodsViewController</text>
</a>
</g>
</g>
<!-- Node4&#45;&gt;Node6 -->
<g id="edge5" class="edge"><title>Node4&#45;&gt;Node6</title>
<path fill="none" stroke="midnightblue" d="M813.241,-57.6605C822.918,-56.5659 832.7,-55.4592 842.288,-54.3746"/>
<polygon fill="midnightblue" stroke="midnightblue" points="812.751,-54.1935 803.208,-58.7955 813.538,-61.1492 812.751,-54.1935"/>
</g>
</g>
</svg>
