<?xml version="1.0" encoding="UTF-8" standalone="no"?>
<!DOCTYPE svg PUBLIC "-//W3C//DTD SVG 1.1//EN"
 "http://www.w3.org/Graphics/SVG/1.1/DTD/svg11.dtd">
<!-- Generated by graphviz version 2.36.0 (20140111.2315)
 -->
<!-- Title: interpreter.expression.syntax.ListStart.merge Pages: 1 -->
<svg width="366pt" height="185pt"
 viewBox="0.00 0.00 366.00 185.00" xmlns="http://www.w3.org/2000/svg" xmlns:xlink="http://www.w3.org/1999/xlink">
<g id="graph0" class="graph" transform="scale(1 1) rotate(0) translate(4 181)">
<title>interpreter.expression.syntax.ListStart.merge</title>
<polygon fill="white" stroke="none" points="-4,4 -4,-181 362,-181 362,4 -4,4"/>
<!-- Node1 -->
<g id="node1" class="node"><title>Node1</title>
<polygon fill="#bfbfbf" stroke="black" points="0.5,-73 0.5,-103 159.5,-103 159.5,-73 0.5,-73"/>
<text text-anchor="start" x="8.5" y="-91" font-family="Helvetica,sans-Serif" font-size="10.00">interpreter.expression.syntax.</text>
<text text-anchor="middle" x="80" y="-80" font-family="Helvetica,sans-Serif" font-size="10.00">ListStart.merge</text>
</g>
<!-- Node2 -->
<g id="node2" class="node"><title>Node2</title>
<g id="a_node2"><a xlink:href="../../df/d00/classinterpreter_1_1result_1_1_syntax_result.html#a6ea30c83efb9f0d271dda9d7ff48c1f9" target="_top" xlink:title="interpreter.result.Syntax\lResult.getTransition">
<polygon fill="white" stroke="black" points="210.5,-147 210.5,-177 343.5,-177 343.5,-147 210.5,-147"/>
<text text-anchor="start" x="218.5" y="-165" font-family="Helvetica,sans-Serif" font-size="10.00">interpreter.result.Syntax</text>
<text text-anchor="middle" x="277" y="-154" font-family="Helvetica,sans-Serif" font-size="10.00">Result.getTransition</text>
</a>
</g>
</g>
<!-- Node1&#45;&gt;Node2 -->
<g id="edge1" class="edge"><title>Node1&#45;&gt;Node2</title>
<path fill="none" stroke="midnightblue" d="M113.862,-103.038C136.674,-113.22 167.896,-126.651 196,-137 202.239,-139.297 208.798,-141.571 215.366,-143.756"/>
<polygon fill="midnightblue" stroke="midnightblue" points="214.365,-147.111 224.958,-146.887 216.537,-140.457 214.365,-147.111"/>
</g>
<!-- Node3 -->
<g id="node3" class="node"><title>Node3</title>
<g id="a_node3"><a xlink:href="../../df/d00/classinterpreter_1_1result_1_1_syntax_result.html#a7f43ac314fc0bc696a686ff01ee17d28" target="_top" xlink:title="interpreter.result.Syntax\lResult.setGroupedExpressions">
<polygon fill="white" stroke="black" points="196.5,-98 196.5,-128 357.5,-128 357.5,-98 196.5,-98"/>
<text text-anchor="start" x="204.5" y="-116" font-family="Helvetica,sans-Serif" font-size="10.00">interpreter.result.Syntax</text>
<text text-anchor="middle" x="277" y="-105" font-family="Helvetica,sans-Serif" font-size="10.00">Result.setGroupedExpressions</text>
</a>
</g>
</g>
<!-- Node1&#45;&gt;Node3 -->
<g id="edge2" class="edge"><title>Node1&#45;&gt;Node3</title>
<path fill="none" stroke="midnightblue" d="M159.752,-98.0964C168.507,-99.2188 177.472,-100.368 186.349,-101.506"/>
<polygon fill="midnightblue" stroke="midnightblue" points="185.955,-104.984 196.319,-102.784 186.845,-98.0412 185.955,-104.984"/>
</g>
<!-- Node4 -->
<g id="node4" class="node"><title>Node4</title>
<g id="a_node4"><a xlink:href="../../df/df6/classinterpreter_1_1result_1_1_s_logo_result.html#a7a0d7e3a7189f99d802cdf1c38e78378" target="_top" xlink:title="interpreter.result.SLogo\lResult.setLabel">
<polygon fill="white" stroke="black" points="212,-49 212,-79 342,-79 342,-49 212,-49"/>
<text text-anchor="start" x="220" y="-67" font-family="Helvetica,sans-Serif" font-size="10.00">interpreter.result.SLogo</text>
<text text-anchor="middle" x="277" y="-56" font-family="Helvetica,sans-Serif" font-size="10.00">Result.setLabel</text>
</a>
</g>
</g>
<!-- Node1&#45;&gt;Node4 -->
<g id="edge3" class="edge"><title>Node1&#45;&gt;Node4</title>
<path fill="none" stroke="midnightblue" d="M159.752,-78.3075C173.566,-76.6073 187.902,-74.8429 201.593,-73.1578"/>
<polygon fill="midnightblue" stroke="midnightblue" points="202.42,-76.5825 211.918,-71.8871 201.565,-69.6349 202.42,-76.5825"/>
</g>
<!-- Node5 -->
<g id="node5" class="node"><title>Node5</title>
<g id="a_node5"><a xlink:href="../../df/df6/classinterpreter_1_1result_1_1_s_logo_result.html#ade0879b3224a3216bf17e17e25bfd4ca" target="_top" xlink:title="interpreter.result.SLogo\lResult.setValue">
<polygon fill="white" stroke="black" points="212,-0 212,-30 342,-30 342,-0 212,-0"/>
<text text-anchor="start" x="220" y="-18" font-family="Helvetica,sans-Serif" font-size="10.00">interpreter.result.SLogo</text>
<text text-anchor="middle" x="277" y="-7" font-family="Helvetica,sans-Serif" font-size="10.00">Result.setValue</text>
</a>
</g>
</g>
<!-- Node1&#45;&gt;Node5 -->
<g id="edge4" class="edge"><title>Node1&#45;&gt;Node5</title>
<path fill="none" stroke="midnightblue" d="M114.891,-72.8821C137.624,-62.9833 168.352,-50.0655 196,-40 202.339,-37.6923 209.005,-35.4005 215.673,-33.1946"/>
<polygon fill="midnightblue" stroke="midnightblue" points="216.976,-36.4514 225.405,-30.0323 214.813,-29.7941 216.976,-36.4514"/>
</g>
</g>
</svg>
