<?xml version="1.0" encoding="UTF-8" standalone="no"?>
<!DOCTYPE svg PUBLIC "-//W3C//DTD SVG 1.1//EN"
 "http://www.w3.org/Graphics/SVG/1.1/DTD/svg11.dtd">
<!-- Generated by graphviz version 2.36.0 (20140111.2315)
 -->
<!-- Title: interpreter.expression.TurtleCommandExpression.evaluate Pages: 1 -->
<svg width="688pt" height="136pt"
 viewBox="0.00 0.00 688.00 136.00" xmlns="http://www.w3.org/2000/svg" xmlns:xlink="http://www.w3.org/1999/xlink">
<g id="graph0" class="graph" transform="scale(1 1) rotate(0) translate(4 132)">
<title>interpreter.expression.TurtleCommandExpression.evaluate</title>
<polygon fill="white" stroke="none" points="-4,4 -4,-132 684,-132 684,4 -4,4"/>
<!-- Node1 -->
<g id="node1" class="node"><title>Node1</title>
<polygon fill="#bfbfbf" stroke="black" points="0.5,-49 0.5,-79 163.5,-79 163.5,-49 0.5,-49"/>
<text text-anchor="start" x="8.5" y="-67" font-family="Helvetica,sans-Serif" font-size="10.00">interpreter.expression.Turtle</text>
<text text-anchor="middle" x="82" y="-56" font-family="Helvetica,sans-Serif" font-size="10.00">CommandExpression.evaluate</text>
</g>
<!-- Node2 -->
<g id="node2" class="node"><title>Node2</title>
<g id="a_node2"><a xlink:href="../../d8/ddb/classinterpreter_1_1expression_1_1_turtle_command_expression.html#adc14302ac16501f333187b0733a0e5fb" target="_top" xlink:title="interpreter.expression.Turtle\lCommandExpression.applyOperatorAndMerge">
<polygon fill="white" stroke="black" points="200.5,-49 200.5,-79 439.5,-79 439.5,-49 200.5,-49"/>
<text text-anchor="start" x="208.5" y="-67" font-family="Helvetica,sans-Serif" font-size="10.00">interpreter.expression.Turtle</text>
<text text-anchor="middle" x="320" y="-56" font-family="Helvetica,sans-Serif" font-size="10.00">CommandExpression.applyOperatorAndMerge</text>
</a>
</g>
</g>
<!-- Node1&#45;&gt;Node2 -->
<g id="edge1" class="edge"><title>Node1&#45;&gt;Node2</title>
<path fill="none" stroke="midnightblue" d="M163.558,-64C172.192,-64 181.125,-64 190.144,-64"/>
<polygon fill="midnightblue" stroke="midnightblue" points="190.35,-67.5001 200.35,-64 190.35,-60.5001 190.35,-67.5001"/>
</g>
<!-- Node3 -->
<g id="node3" class="node"><title>Node3</title>
<g id="a_node3"><a xlink:href="../../df/df6/classinterpreter_1_1result_1_1_s_logo_result.html#a11062748597af4f6622d9cbc92d4d9c0" target="_top" xlink:title="interpreter.result.SLogo\lResult.getTransition">
<polygon fill="white" stroke="black" points="513,-98 513,-128 643,-128 643,-98 513,-98"/>
<text text-anchor="start" x="521" y="-116" font-family="Helvetica,sans-Serif" font-size="10.00">interpreter.result.SLogo</text>
<text text-anchor="middle" x="578" y="-105" font-family="Helvetica,sans-Serif" font-size="10.00">Result.getTransition</text>
</a>
</g>
</g>
<!-- Node2&#45;&gt;Node3 -->
<g id="edge2" class="edge"><title>Node2&#45;&gt;Node3</title>
<path fill="none" stroke="midnightblue" d="M399.548,-79.0346C432.448,-85.3319 470.499,-92.615 502.908,-98.8183"/>
<polygon fill="midnightblue" stroke="midnightblue" points="502.293,-102.264 512.773,-100.707 503.609,-95.3889 502.293,-102.264"/>
</g>
<!-- Node4 -->
<g id="node4" class="node"><title>Node4</title>
<g id="a_node4"><a xlink:href="../../df/df6/classinterpreter_1_1result_1_1_s_logo_result.html#a7e050bbb65d7c7eb5e9b9970c6e2616f" target="_top" xlink:title="interpreter.result.SLogo\lResult.getValue">
<polygon fill="white" stroke="black" points="513,-49 513,-79 643,-79 643,-49 513,-49"/>
<text text-anchor="start" x="521" y="-67" font-family="Helvetica,sans-Serif" font-size="10.00">interpreter.result.SLogo</text>
<text text-anchor="middle" x="578" y="-56" font-family="Helvetica,sans-Serif" font-size="10.00">Result.getValue</text>
</a>
</g>
</g>
<!-- Node2&#45;&gt;Node4 -->
<g id="edge3" class="edge"><title>Node2&#45;&gt;Node4</title>
<path fill="none" stroke="midnightblue" d="M439.632,-64C461.128,-64 482.978,-64 502.74,-64"/>
<polygon fill="midnightblue" stroke="midnightblue" points="502.871,-67.5001 512.871,-64 502.871,-60.5001 502.871,-67.5001"/>
</g>
<!-- Node5 -->
<g id="node5" class="node"><title>Node5</title>
<g id="a_node5"><a xlink:href="../../d8/ddb/classinterpreter_1_1expression_1_1_turtle_command_expression.html#a9d36572c76e57f5de7351a3419292612" target="_top" xlink:title="interpreter.expression.Turtle\lCommandExpression.setNextTransition">
<polygon fill="white" stroke="black" points="476,-0 476,-30 680,-30 680,-0 476,-0"/>
<text text-anchor="start" x="484" y="-18" font-family="Helvetica,sans-Serif" font-size="10.00">interpreter.expression.Turtle</text>
<text text-anchor="middle" x="578" y="-7" font-family="Helvetica,sans-Serif" font-size="10.00">CommandExpression.setNextTransition</text>
</a>
</g>
</g>
<!-- Node2&#45;&gt;Node5 -->
<g id="edge4" class="edge"><title>Node2&#45;&gt;Node5</title>
<path fill="none" stroke="midnightblue" d="M399.548,-48.9654C427.684,-43.58 459.587,-37.4736 488.507,-31.9382"/>
<polygon fill="midnightblue" stroke="midnightblue" points="489.437,-35.3238 498.6,-30.0062 488.121,-28.4486 489.437,-35.3238"/>
</g>
</g>
</svg>
