<?xml version="1.0" encoding="UTF-8" standalone="no"?>
<!DOCTYPE svg PUBLIC "-//W3C//DTD SVG 1.1//EN"
 "http://www.w3.org/Graphics/SVG/1.1/DTD/svg11.dtd">
<!-- Generated by graphviz version 2.36.0 (20140111.2315)
 -->
<!-- Title: interpreter.expression.TurtleCommandExpression.setNextTransition Pages: 1 -->
<svg width="688pt" height="38pt"
 viewBox="0.00 0.00 688.00 38.00" xmlns="http://www.w3.org/2000/svg" xmlns:xlink="http://www.w3.org/1999/xlink">
<g id="graph0" class="graph" transform="scale(1 1) rotate(0) translate(4 34)">
<title>interpreter.expression.TurtleCommandExpression.setNextTransition</title>
<polygon fill="white" stroke="none" points="-4,4 -4,-34 684,-34 684,4 -4,4"/>
<!-- Node1 -->
<g id="node1" class="node"><title>Node1</title>
<polygon fill="#bfbfbf" stroke="black" points="0,-0 0,-30 204,-30 204,-0 0,-0"/>
<text text-anchor="start" x="8" y="-18" font-family="Helvetica,sans-Serif" font-size="10.00">interpreter.expression.Turtle</text>
<text text-anchor="middle" x="102" y="-7" font-family="Helvetica,sans-Serif" font-size="10.00">CommandExpression.setNextTransition</text>
</g>
<!-- Node2 -->
<g id="node2" class="node"><title>Node2</title>
<g id="a_node2"><a xlink:href="../../d8/ddb/classinterpreter_1_1expression_1_1_turtle_command_expression.html#adc14302ac16501f333187b0733a0e5fb" target="_top" xlink:title="interpreter.expression.Turtle\lCommandExpression.applyOperatorAndMerge">
<polygon fill="white" stroke="black" points="240.5,-0 240.5,-30 479.5,-30 479.5,-0 240.5,-0"/>
<text text-anchor="start" x="248.5" y="-18" font-family="Helvetica,sans-Serif" font-size="10.00">interpreter.expression.Turtle</text>
<text text-anchor="middle" x="360" y="-7" font-family="Helvetica,sans-Serif" font-size="10.00">CommandExpression.applyOperatorAndMerge</text>
</a>
</g>
</g>
<!-- Node1&#45;&gt;Node2 -->
<g id="edge1" class="edge"><title>Node1&#45;&gt;Node2</title>
<path fill="none" stroke="midnightblue" d="M214.268,-15C222.912,-15 231.66,-15 240.35,-15"/>
<polygon fill="midnightblue" stroke="midnightblue" points="214.178,-11.5001 204.178,-15 214.178,-18.5001 214.178,-11.5001"/>
</g>
<!-- Node3 -->
<g id="node3" class="node"><title>Node3</title>
<g id="a_node3"><a xlink:href="../../d8/ddb/classinterpreter_1_1expression_1_1_turtle_command_expression.html#aa4cb09181231e13694f151cd14e01313" target="_top" xlink:title="interpreter.expression.Turtle\lCommandExpression.evaluate">
<polygon fill="white" stroke="black" points="516.5,-0 516.5,-30 679.5,-30 679.5,-0 516.5,-0"/>
<text text-anchor="start" x="524.5" y="-18" font-family="Helvetica,sans-Serif" font-size="10.00">interpreter.expression.Turtle</text>
<text text-anchor="middle" x="598" y="-7" font-family="Helvetica,sans-Serif" font-size="10.00">CommandExpression.evaluate</text>
</a>
</g>
</g>
<!-- Node2&#45;&gt;Node3 -->
<g id="edge2" class="edge"><title>Node2&#45;&gt;Node3</title>
<path fill="none" stroke="midnightblue" d="M489.847,-15C498.82,-15 507.709,-15 516.303,-15"/>
<polygon fill="midnightblue" stroke="midnightblue" points="489.691,-11.5001 479.691,-15 489.691,-18.5001 489.691,-11.5001"/>
</g>
</g>
</svg>
