<?xml version="1.0" encoding="UTF-8" standalone="no"?>
<!DOCTYPE svg PUBLIC "-//W3C//DTD SVG 1.1//EN"
 "http://www.w3.org/Graphics/SVG/1.1/DTD/svg11.dtd">
<!-- Generated by graphviz version 2.36.0 (20140111.2315)
 -->
<!-- Title: interpreter.expression.math.Tangent Pages: 1 -->
<svg width="162pt" height="176pt"
 viewBox="0.00 0.00 162.00 176.00" xmlns="http://www.w3.org/2000/svg" xmlns:xlink="http://www.w3.org/1999/xlink">
<g id="graph0" class="graph" transform="scale(1 1) rotate(0) translate(4 172)">
<title>interpreter.expression.math.Tangent</title>
<polygon fill="white" stroke="none" points="-4,4 -4,-172 158,-172 158,4 -4,4"/>
<!-- Node1 -->
<g id="node1" class="node"><title>Node1</title>
<polygon fill="#bfbfbf" stroke="black" points="0.5,-1 0.5,-31 153.5,-31 153.5,-1 0.5,-1"/>
<text text-anchor="start" x="8.5" y="-19" font-family="Helvetica,sans-Serif" font-size="10.00">interpreter.expression.math.</text>
<text text-anchor="middle" x="77" y="-8" font-family="Helvetica,sans-Serif" font-size="10.00">Tangent</text>
</g>
<!-- Node2 -->
<g id="node2" class="node"><title>Node2</title>
<g id="a_node2"><a xlink:href="../../da/da4/classinterpreter_1_1expression_1_1_math_expression.html" target="_top" xlink:title="interpreter.expression.Math\lExpression">
<polygon fill="white" stroke="black" points="2.5,-69 2.5,-99 151.5,-99 151.5,-69 2.5,-69"/>
<text text-anchor="start" x="10.5" y="-87" font-family="Helvetica,sans-Serif" font-size="10.00">interpreter.expression.Math</text>
<text text-anchor="middle" x="77" y="-76" font-family="Helvetica,sans-Serif" font-size="10.00">Expression</text>
</a>
</g>
</g>
<!-- Node2&#45;&gt;Node1 -->
<g id="edge1" class="edge"><title>Node2&#45;&gt;Node1</title>
<path fill="none" stroke="midnightblue" d="M77,-58.5322C77,-49.3606 77,-39.2449 77,-31.2931"/>
<polygon fill="midnightblue" stroke="midnightblue" points="73.5001,-58.6789 77,-68.679 80.5001,-58.679 73.5001,-58.6789"/>
</g>
<!-- Node3 -->
<g id="node3" class="node"><title>Node3</title>
<g id="a_node3"><a xlink:href="../../db/d09/interfaceinterpreter_1_1expression_1_1_s_logo_expression.html" target="_top" xlink:title="interpreter.expression.SLogo\lExpression">
<polygon fill="white" stroke="black" points="-0.5,-137 -0.5,-167 154.5,-167 154.5,-137 -0.5,-137"/>
<text text-anchor="start" x="7.5" y="-155" font-family="Helvetica,sans-Serif" font-size="10.00">interpreter.expression.SLogo</text>
<text text-anchor="middle" x="77" y="-144" font-family="Helvetica,sans-Serif" font-size="10.00">Expression</text>
</a>
</g>
</g>
<!-- Node3&#45;&gt;Node2 -->
<g id="edge2" class="edge"><title>Node3&#45;&gt;Node2</title>
<path fill="none" stroke="midnightblue" d="M77,-126.532C77,-117.361 77,-107.245 77,-99.2931"/>
<polygon fill="midnightblue" stroke="midnightblue" points="73.5001,-126.679 77,-136.679 80.5001,-126.679 73.5001,-126.679"/>
</g>
</g>
</svg>
