<?xml version="1.0" encoding="UTF-8" standalone="no"?>
<!DOCTYPE svg PUBLIC "-//W3C//DTD SVG 1.1//EN"
 "http://www.w3.org/Graphics/SVG/1.1/DTD/svg11.dtd">
<!-- Generated by graphviz version 2.36.0 (20140111.2315)
 -->
<!-- Title: interpreter.expression.TurtleCommandExpression.applyOperatorAndMerge Pages: 1 -->
<svg width="488pt" height="136pt"
 viewBox="0.00 0.00 488.00 136.00" xmlns="http://www.w3.org/2000/svg" xmlns:xlink="http://www.w3.org/1999/xlink">
<g id="graph0" class="graph" transform="scale(1 1) rotate(0) translate(4 132)">
<title>interpreter.expression.TurtleCommandExpression.applyOperatorAndMerge</title>
<polygon fill="white" stroke="none" points="-4,4 -4,-132 484,-132 484,4 -4,4"/>
<!-- Node1 -->
<g id="node1" class="node"><title>Node1</title>
<polygon fill="#bfbfbf" stroke="black" points="0.5,-49 0.5,-79 239.5,-79 239.5,-49 0.5,-49"/>
<text text-anchor="start" x="8.5" y="-67" font-family="Helvetica,sans-Serif" font-size="10.00">interpreter.expression.Turtle</text>
<text text-anchor="middle" x="120" y="-56" font-family="Helvetica,sans-Serif" font-size="10.00">CommandExpression.applyOperatorAndMerge</text>
</g>
<!-- Node2 -->
<g id="node2" class="node"><title>Node2</title>
<g id="a_node2"><a xlink:href="../../df/df6/classinterpreter_1_1result_1_1_s_logo_result.html#a11062748597af4f6622d9cbc92d4d9c0" target="_top" xlink:title="interpreter.result.SLogo\lResult.getTransition">
<polygon fill="white" stroke="black" points="313,-98 313,-128 443,-128 443,-98 313,-98"/>
<text text-anchor="start" x="321" y="-116" font-family="Helvetica,sans-Serif" font-size="10.00">interpreter.result.SLogo</text>
<text text-anchor="middle" x="378" y="-105" font-family="Helvetica,sans-Serif" font-size="10.00">Result.getTransition</text>
</a>
</g>
</g>
<!-- Node1&#45;&gt;Node2 -->
<g id="edge1" class="edge"><title>Node1&#45;&gt;Node2</title>
<path fill="none" stroke="midnightblue" d="M199.548,-79.0346C232.448,-85.3319 270.499,-92.615 302.908,-98.8183"/>
<polygon fill="midnightblue" stroke="midnightblue" points="302.293,-102.264 312.773,-100.707 303.609,-95.3889 302.293,-102.264"/>
</g>
<!-- Node3 -->
<g id="node3" class="node"><title>Node3</title>
<g id="a_node3"><a xlink:href="../../df/df6/classinterpreter_1_1result_1_1_s_logo_result.html#a7e050bbb65d7c7eb5e9b9970c6e2616f" target="_top" xlink:title="interpreter.result.SLogo\lResult.getValue">
<polygon fill="white" stroke="black" points="313,-49 313,-79 443,-79 443,-49 313,-49"/>
<text text-anchor="start" x="321" y="-67" font-family="Helvetica,sans-Serif" font-size="10.00">interpreter.result.SLogo</text>
<text text-anchor="middle" x="378" y="-56" font-family="Helvetica,sans-Serif" font-size="10.00">Result.getValue</text>
</a>
</g>
</g>
<!-- Node1&#45;&gt;Node3 -->
<g id="edge2" class="edge"><title>Node1&#45;&gt;Node3</title>
<path fill="none" stroke="midnightblue" d="M239.632,-64C261.128,-64 282.978,-64 302.74,-64"/>
<polygon fill="midnightblue" stroke="midnightblue" points="302.871,-67.5001 312.871,-64 302.871,-60.5001 302.871,-67.5001"/>
</g>
<!-- Node4 -->
<g id="node4" class="node"><title>Node4</title>
<g id="a_node4"><a xlink:href="../../d8/ddb/classinterpreter_1_1expression_1_1_turtle_command_expression.html#a9d36572c76e57f5de7351a3419292612" target="_top" xlink:title="interpreter.expression.Turtle\lCommandExpression.setNextTransition">
<polygon fill="white" stroke="black" points="276,-0 276,-30 480,-30 480,-0 276,-0"/>
<text text-anchor="start" x="284" y="-18" font-family="Helvetica,sans-Serif" font-size="10.00">interpreter.expression.Turtle</text>
<text text-anchor="middle" x="378" y="-7" font-family="Helvetica,sans-Serif" font-size="10.00">CommandExpression.setNextTransition</text>
</a>
</g>
</g>
<!-- Node1&#45;&gt;Node4 -->
<g id="edge3" class="edge"><title>Node1&#45;&gt;Node4</title>
<path fill="none" stroke="midnightblue" d="M199.548,-48.9654C227.684,-43.58 259.587,-37.4736 288.507,-31.9382"/>
<polygon fill="midnightblue" stroke="midnightblue" points="289.437,-35.3238 298.6,-30.0062 288.121,-28.4486 289.437,-35.3238"/>
</g>
</g>
</svg>
