<?xml version="1.0" encoding="UTF-8" standalone="no"?>
<!DOCTYPE svg PUBLIC "-//W3C//DTD SVG 1.1//EN"
 "http://www.w3.org/Graphics/SVG/1.1/DTD/svg11.dtd">
<!-- Generated by graphviz version 2.36.0 (20140111.2315)
 -->
<!-- Title: turtle.UserChosenTurtleImage.createBorder Pages: 1 -->
<svg width="630pt" height="38pt"
 viewBox="0.00 0.00 630.00 38.00" xmlns="http://www.w3.org/2000/svg" xmlns:xlink="http://www.w3.org/1999/xlink">
<g id="graph0" class="graph" transform="scale(1 1) rotate(0) translate(4 34)">
<title>turtle.UserChosenTurtleImage.createBorder</title>
<polygon fill="white" stroke="none" points="-4,4 -4,-34 626,-34 626,4 -4,4"/>
<!-- Node1 -->
<g id="node1" class="node"><title>Node1</title>
<polygon fill="#bfbfbf" stroke="black" points="0.5,-0 0.5,-30 193.5,-30 193.5,-0 0.5,-0"/>
<text text-anchor="start" x="8.5" y="-18" font-family="Helvetica,sans-Serif" font-size="10.00">turtle.UserChosenTurtleImage.create</text>
<text text-anchor="middle" x="97" y="-7" font-family="Helvetica,sans-Serif" font-size="10.00">Border</text>
</g>
<!-- Node2 -->
<g id="node2" class="node"><title>Node2</title>
<g id="a_node2"><a xlink:href="../../d7/da7/classturtle_1_1_user_chosen_turtle_image.html#a106ff1e4edb373502e388ff694fd0f19" target="_top" xlink:title="turtle.UserChosenTurtleImage.create\lImageView">
<polygon fill="white" stroke="black" points="230.5,-0 230.5,-30 423.5,-30 423.5,-0 230.5,-0"/>
<text text-anchor="start" x="238.5" y="-18" font-family="Helvetica,sans-Serif" font-size="10.00">turtle.UserChosenTurtleImage.create</text>
<text text-anchor="middle" x="327" y="-7" font-family="Helvetica,sans-Serif" font-size="10.00">ImageView</text>
</a>
</g>
</g>
<!-- Node1&#45;&gt;Node2 -->
<g id="edge1" class="edge"><title>Node1&#45;&gt;Node2</title>
<path fill="none" stroke="midnightblue" d="M203.935,-15C212.688,-15 221.505,-15 230.178,-15"/>
<polygon fill="midnightblue" stroke="midnightblue" points="203.702,-11.5001 193.702,-15 203.701,-18.5001 203.702,-11.5001"/>
</g>
<!-- Node3 -->
<g id="node3" class="node"><title>Node3</title>
<g id="a_node3"><a xlink:href="../../d7/da7/classturtle_1_1_user_chosen_turtle_image.html#adef54801350965cef86bca686f4a062c" target="_top" xlink:title="turtle.UserChosenTurtleImage.\lUserChosenTurtleImage">
<polygon fill="white" stroke="black" points="460,-0 460,-30 622,-30 622,-0 460,-0"/>
<text text-anchor="start" x="468" y="-18" font-family="Helvetica,sans-Serif" font-size="10.00">turtle.UserChosenTurtleImage.</text>
<text text-anchor="middle" x="541" y="-7" font-family="Helvetica,sans-Serif" font-size="10.00">UserChosenTurtleImage</text>
</a>
</g>
</g>
<!-- Node2&#45;&gt;Node3 -->
<g id="edge2" class="edge"><title>Node2&#45;&gt;Node3</title>
<path fill="none" stroke="midnightblue" d="M433.979,-15C442.69,-15 451.402,-15 459.879,-15"/>
<polygon fill="midnightblue" stroke="midnightblue" points="433.766,-11.5001 423.766,-15 433.766,-18.5001 433.766,-11.5001"/>
</g>
</g>
</svg>
