<?xml version="1.0" encoding="UTF-8" standalone="no"?>
<!DOCTYPE svg PUBLIC "-//W3C//DTD SVG 1.1//EN"
 "http://www.w3.org/Graphics/SVG/1.1/DTD/svg11.dtd">
<!-- Generated by graphviz version 2.36.0 (20140111.2315)
 -->
<!-- Title: turtle.UserChosenTurtleImage.UserChosenTurtleImage Pages: 1 -->
<svg width="630pt" height="38pt"
 viewBox="0.00 0.00 630.00 38.00" xmlns="http://www.w3.org/2000/svg" xmlns:xlink="http://www.w3.org/1999/xlink">
<g id="graph0" class="graph" transform="scale(1 1) rotate(0) translate(4 34)">
<title>turtle.UserChosenTurtleImage.UserChosenTurtleImage</title>
<polygon fill="white" stroke="none" points="-4,4 -4,-34 626,-34 626,4 -4,4"/>
<!-- Node1 -->
<g id="node1" class="node"><title>Node1</title>
<polygon fill="#bfbfbf" stroke="black" points="0,-0 0,-30 162,-30 162,-0 0,-0"/>
<text text-anchor="start" x="8" y="-18" font-family="Helvetica,sans-Serif" font-size="10.00">turtle.UserChosenTurtleImage.</text>
<text text-anchor="middle" x="81" y="-7" font-family="Helvetica,sans-Serif" font-size="10.00">UserChosenTurtleImage</text>
</g>
<!-- Node2 -->
<g id="node2" class="node"><title>Node2</title>
<g id="a_node2"><a xlink:href="../../d7/da7/classturtle_1_1_user_chosen_turtle_image.html#a106ff1e4edb373502e388ff694fd0f19" target="_top" xlink:title="turtle.UserChosenTurtleImage.create\lImageView">
<polygon fill="white" stroke="black" points="198.5,-0 198.5,-30 391.5,-30 391.5,-0 198.5,-0"/>
<text text-anchor="start" x="206.5" y="-18" font-family="Helvetica,sans-Serif" font-size="10.00">turtle.UserChosenTurtleImage.create</text>
<text text-anchor="middle" x="295" y="-7" font-family="Helvetica,sans-Serif" font-size="10.00">ImageView</text>
</a>
</g>
</g>
<!-- Node1&#45;&gt;Node2 -->
<g id="edge1" class="edge"><title>Node1&#45;&gt;Node2</title>
<path fill="none" stroke="midnightblue" d="M162.148,-15C170.66,-15 179.409,-15 188.156,-15"/>
<polygon fill="midnightblue" stroke="midnightblue" points="188.41,-18.5001 198.41,-15 188.41,-11.5001 188.41,-18.5001"/>
</g>
<!-- Node3 -->
<g id="node3" class="node"><title>Node3</title>
<g id="a_node3"><a xlink:href="../../d7/da7/classturtle_1_1_user_chosen_turtle_image.html#a68b55c2bc607c95dc37413bd4f9b23f3" target="_top" xlink:title="turtle.UserChosenTurtleImage.create\lBorder">
<polygon fill="white" stroke="black" points="428.5,-0 428.5,-30 621.5,-30 621.5,-0 428.5,-0"/>
<text text-anchor="start" x="436.5" y="-18" font-family="Helvetica,sans-Serif" font-size="10.00">turtle.UserChosenTurtleImage.create</text>
<text text-anchor="middle" x="525" y="-7" font-family="Helvetica,sans-Serif" font-size="10.00">Border</text>
</a>
</g>
</g>
<!-- Node2&#45;&gt;Node3 -->
<g id="edge2" class="edge"><title>Node2&#45;&gt;Node3</title>
<path fill="none" stroke="midnightblue" d="M391.702,-15C400.373,-15 409.189,-15 417.943,-15"/>
<polygon fill="midnightblue" stroke="midnightblue" points="418.178,-18.5001 428.178,-15 418.178,-11.5001 418.178,-18.5001"/>
</g>
</g>
</svg>
