<?xml version="1.0" encoding="UTF-8" standalone="no"?>
<!DOCTYPE svg PUBLIC "-//W3C//DTD SVG 1.1//EN"
 "http://www.w3.org/Graphics/SVG/1.1/DTD/svg11.dtd">
<!-- Generated by graphviz version 2.36.0 (20140111.2315)
 -->
<!-- Title: turtle.draw.Pen.getColor Pages: 1 -->
<!--zoomable 108 -->
<svg id="main" version="1.1" xmlns="http://www.w3.org/2000/svg" xmlns:xlink="http://www.w3.org/1999/xlink" xml:space="preserve" onload="init(evt)">
<style type="text/css"><![CDATA[
.edge:hover path { stroke: red; }
.edge:hover polygon { stroke: red; fill: red; }
]]></style>
<script type="text/javascript"><![CDATA[
var edges = document.getElementsByTagName('g');
if (edges && edges.length) {
  for (var i=0;i<edges.length;i++) {
    if (edges[i].id.substr(0,4)=='edge') {
      edges[i].setAttribute('class','edge');
    }
  }
}
]]></script>
        <defs>
                <circle id="rim" cx="0" cy="0" r="7"/>
                <circle id="rim2" cx="0" cy="0" r="3.5"/>
                <g id="zoomPlus">
                        <use xlink:href="#rim" fill="#404040">
                                <set attributeName="fill" to="#808080" begin="zoomplus.mouseover" end="zoomplus.mouseout"/>
                        </use>
                        <path d="M-4,0h8M0,-4v8" fill="none" stroke="white" stroke-width="1.5" pointer-events="none"/>
                </g>
                <g id="zoomMin">
                        <use xlink:href="#rim" fill="#404040">
                                <set attributeName="fill" to="#808080" begin="zoomminus.mouseover" end="zoomminus.mouseout"/>
                        </use>
                        <path d="M-4,0h8" fill="none" stroke="white" stroke-width="1.5" pointer-events="none"/>
                </g>
                <g id="dirArrow">
                        <path fill="none" stroke="white" stroke-width="1.5" d="M0,-3.0v7 M-2.5,-0.5L0,-3.0L2.5,-0.5"/>
                </g>
               <g id="resetDef">
                       <use xlink:href="#rim2" fill="#404040">
                               <set attributeName="fill" to="#808080" begin="reset.mouseover" end="reset.mouseout"/>
                       </use>
               </g>
        </defs>

<script type="text/javascript">
var viewWidth = 1640;
var viewHeight = 108;
var sectionId = 'dynsection-2';
</script>
<script xlink:href="../../svgpan.js"/>
<svg id="graph" class="graph">
<g id="viewport">
<title>turtle.draw.Pen.getColor</title>
<polygon fill="white" stroke="none" points="-4,4 -4,-104 1636,-104 1636,4 -4,4"/>
<!-- Node1 -->
<g id="node1" class="node"><title>Node1</title>
<polygon fill="#bfbfbf" stroke="black" points="0.5,-28.5 0.5,-47.5 131.5,-47.5 131.5,-28.5 0.5,-28.5"/>
<text text-anchor="middle" x="66" y="-35.5" font-family="Helvetica,sans-Serif" font-size="10.00">turtle.draw.Pen.getColor</text>
</g>
<!-- Node2 -->
<g id="node2" class="node"><title>Node2</title>
<g id="a_node2"><a xlink:href="../../d8/dde/classturtle_1_1draw_1_1_pen_transition.html#a819420d27f897da865421a925d845f0d" target="_top" xlink:title="turtle.draw.PenTransition.formatLine">
<polygon fill="white" stroke="black" points="168,-50.5 168,-69.5 356,-69.5 356,-50.5 168,-50.5"/>
<text text-anchor="middle" x="262" y="-57.5" font-family="Helvetica,sans-Serif" font-size="10.00">turtle.draw.PenTransition.formatLine</text>
</a>
</g>
</g>
<!-- Node1&#45;&gt;Node2 -->
<g id="edge1" class="edge"><title>Node1&#45;&gt;Node2</title>
<path fill="none" stroke="midnightblue" d="M141.64,-46.4643C153.217,-47.7772 165.244,-49.1411 177.011,-50.4754"/>
<polygon fill="midnightblue" stroke="midnightblue" points="141.93,-42.9749 131.599,-45.3257 141.141,-49.9303 141.93,-42.9749"/>
</g>
<!-- Node10 -->
<g id="node10" class="node"><title>Node10</title>
<g id="a_node10"><a xlink:href="../../d1/ddd/classturtle_1_1_serialisable_turtle.html#a22aa2985b386b16ea3ef89aa09363551" target="_top" xlink:title="turtle.SerialisableTurtle.\lSerialisableTurtle">
<polygon fill="white" stroke="black" points="198,-1 198,-31 326,-31 326,-1 198,-1"/>
<text text-anchor="start" x="206" y="-19" font-family="Helvetica,sans-Serif" font-size="10.00">turtle.SerialisableTurtle.</text>
<text text-anchor="middle" x="262" y="-8" font-family="Helvetica,sans-Serif" font-size="10.00">SerialisableTurtle</text>
</a>
</g>
</g>
<!-- Node1&#45;&gt;Node10 -->
<g id="edge9" class="edge"><title>Node1&#45;&gt;Node10</title>
<path fill="none" stroke="midnightblue" d="M141.725,-29.5261C160.195,-27.4315 179.804,-25.2078 197.672,-23.1815"/>
<polygon fill="midnightblue" stroke="midnightblue" points="141.141,-26.0697 131.599,-30.6743 141.93,-33.0251 141.141,-26.0697"/>
</g>
<!-- Node3 -->
<g id="node3" class="node"><title>Node3</title>
<g id="a_node3"><a xlink:href="../../d8/dde/classturtle_1_1draw_1_1_pen_transition.html#ae8155506993774930ffd88f222ee7398" target="_top" xlink:title="turtle.draw.PenTransition.createLine">
<polygon fill="white" stroke="black" points="392,-50.5 392,-69.5 578,-69.5 578,-50.5 392,-50.5"/>
<text text-anchor="middle" x="485" y="-57.5" font-family="Helvetica,sans-Serif" font-size="10.00">turtle.draw.PenTransition.createLine</text>
</a>
</g>
</g>
<!-- Node2&#45;&gt;Node3 -->
<g id="edge2" class="edge"><title>Node2&#45;&gt;Node3</title>
<path fill="none" stroke="midnightblue" d="M366.089,-60C374.646,-60 383.262,-60 391.732,-60"/>
<polygon fill="midnightblue" stroke="midnightblue" points="366.083,-56.5001 356.083,-60 366.083,-63.5001 366.083,-56.5001"/>
</g>
<!-- Node4 -->
<g id="node4" class="node"><title>Node4</title>
<g id="a_node4"><a xlink:href="../../d8/dde/classturtle_1_1draw_1_1_pen_transition.html#aa0a682d77c6f7e56adb8a7cad589a140" target="_top" xlink:title="turtle.draw.PenTransition.set\lDistance">
<polygon fill="white" stroke="black" points="625.5,-70 625.5,-100 776.5,-100 776.5,-70 625.5,-70"/>
<text text-anchor="start" x="633.5" y="-88" font-family="Helvetica,sans-Serif" font-size="10.00">turtle.draw.PenTransition.set</text>
<text text-anchor="middle" x="701" y="-77" font-family="Helvetica,sans-Serif" font-size="10.00">Distance</text>
</a>
</g>
</g>
<!-- Node3&#45;&gt;Node4 -->
<g id="edge3" class="edge"><title>Node3&#45;&gt;Node4</title>
<path fill="none" stroke="midnightblue" d="M577.861,-70.7315C593.729,-72.5851 610.049,-74.4917 625.389,-76.2838"/>
<polygon fill="midnightblue" stroke="midnightblue" points="577.853,-67.2068 567.515,-69.5227 577.041,-74.1595 577.853,-67.2068"/>
</g>
<!-- Node9 -->
<g id="node9" class="node"><title>Node9</title>
<g id="a_node9"><a xlink:href="../../d8/dde/classturtle_1_1draw_1_1_pen_transition.html#a7eaf834f0b2189acc2f53ca8f561b07d" target="_top" xlink:title="turtle.draw.PenTransition.perform\lWrappingChanges">
<polygon fill="white" stroke="black" points="614,-21 614,-51 788,-51 788,-21 614,-21"/>
<text text-anchor="start" x="622" y="-39" font-family="Helvetica,sans-Serif" font-size="10.00">turtle.draw.PenTransition.perform</text>
<text text-anchor="middle" x="701" y="-28" font-family="Helvetica,sans-Serif" font-size="10.00">WrappingChanges</text>
</a>
</g>
</g>
<!-- Node3&#45;&gt;Node9 -->
<g id="edge8" class="edge"><title>Node3&#45;&gt;Node9</title>
<path fill="none" stroke="midnightblue" d="M580.889,-49.3582C591.849,-48.1291 602.98,-46.8808 613.815,-45.6656"/>
<polygon fill="midnightblue" stroke="midnightblue" points="580.433,-45.8873 570.886,-50.4801 581.214,-52.8437 580.433,-45.8873"/>
</g>
<!-- Node5 -->
<g id="node5" class="node"><title>Node5</title>
<g id="a_node5"><a xlink:href="../../dc/d3e/classturtle_1_1draw_1_1_transition_factory.html#a6ff1cfc7cfe2396040ddb55408ee854e" target="_top" xlink:title="turtle.draw.TransitionFactory.create\lForwardTransition">
<polygon fill="white" stroke="black" points="824,-70 824,-100 1006,-100 1006,-70 824,-70"/>
<text text-anchor="start" x="832" y="-88" font-family="Helvetica,sans-Serif" font-size="10.00">turtle.draw.TransitionFactory.create</text>
<text text-anchor="middle" x="915" y="-77" font-family="Helvetica,sans-Serif" font-size="10.00">ForwardTransition</text>
</a>
</g>
</g>
<!-- Node4&#45;&gt;Node5 -->
<g id="edge4" class="edge"><title>Node4&#45;&gt;Node5</title>
<path fill="none" stroke="midnightblue" d="M786.878,-85C799.07,-85 811.651,-85 823.939,-85"/>
<polygon fill="midnightblue" stroke="midnightblue" points="786.743,-81.5001 776.743,-85 786.743,-88.5001 786.743,-81.5001"/>
</g>
<!-- Node6 -->
<g id="node6" class="node"><title>Node6</title>
<g id="a_node6"><a xlink:href="../../dc/d3e/classturtle_1_1draw_1_1_transition_factory.html#adb38be68a00bde2421dbdf0d55a93e54" target="_top" xlink:title="turtle.draw.TransitionFactory.create\lTurtleTransition">
<polygon fill="white" stroke="black" points="1042,-70 1042,-100 1224,-100 1224,-70 1042,-70"/>
<text text-anchor="start" x="1050" y="-88" font-family="Helvetica,sans-Serif" font-size="10.00">turtle.draw.TransitionFactory.create</text>
<text text-anchor="middle" x="1133" y="-77" font-family="Helvetica,sans-Serif" font-size="10.00">TurtleTransition</text>
</a>
</g>
</g>
<!-- Node5&#45;&gt;Node6 -->
<g id="edge5" class="edge"><title>Node5&#45;&gt;Node6</title>
<path fill="none" stroke="midnightblue" d="M1016.06,-85C1024.63,-85 1033.27,-85 1041.76,-85"/>
<polygon fill="midnightblue" stroke="midnightblue" points="1016.04,-81.5001 1006.04,-85 1016.04,-88.5001 1016.04,-81.5001"/>
</g>
<!-- Node7 -->
<g id="node7" class="node"><title>Node7</title>
<g id="a_node7"><a xlink:href="../../dc/d3e/classturtle_1_1draw_1_1_transition_factory.html#a31b362130278174931595c1ce68c7ff5" target="_top" xlink:title="turtle.draw.TransitionFactory.create\lAnimation">
<polygon fill="white" stroke="black" points="1260,-70 1260,-100 1442,-100 1442,-70 1260,-70"/>
<text text-anchor="start" x="1268" y="-88" font-family="Helvetica,sans-Serif" font-size="10.00">turtle.draw.TransitionFactory.create</text>
<text text-anchor="middle" x="1351" y="-77" font-family="Helvetica,sans-Serif" font-size="10.00">Animation</text>
</a>
</g>
</g>
<!-- Node6&#45;&gt;Node7 -->
<g id="edge6" class="edge"><title>Node6&#45;&gt;Node7</title>
<path fill="none" stroke="midnightblue" d="M1234.06,-85C1242.63,-85 1251.27,-85 1259.76,-85"/>
<polygon fill="midnightblue" stroke="midnightblue" points="1234.04,-81.5001 1224.04,-85 1234.04,-88.5001 1234.04,-81.5001"/>
</g>
<!-- Node8 -->
<g id="node8" class="node"><title>Node8</title>
<g id="a_node8"><a xlink:href="../../df/dcb/classturtle_1_1_turtle.html#a72a5d11b319fe2819a646569d5034557" target="_top" xlink:title="turtle.Turtle.createAnimation">
<polygon fill="white" stroke="black" points="1478.5,-75.5 1478.5,-94.5 1631.5,-94.5 1631.5,-75.5 1478.5,-75.5"/>
<text text-anchor="middle" x="1555" y="-82.5" font-family="Helvetica,sans-Serif" font-size="10.00">turtle.Turtle.createAnimation</text>
</a>
</g>
</g>
<!-- Node7&#45;&gt;Node8 -->
<g id="edge7" class="edge"><title>Node7&#45;&gt;Node8</title>
<path fill="none" stroke="midnightblue" d="M1452.31,-85C1461.06,-85 1469.8,-85 1478.3,-85"/>
<polygon fill="midnightblue" stroke="midnightblue" points="1452.07,-81.5001 1442.07,-85 1452.07,-88.5001 1452.07,-81.5001"/>
</g>
</g>
</svg>
        <g id="navigator" transform="translate(0 0)" fill="#404254">
                <rect fill="#f2f5e9" fill-opacity="0.5" stroke="#606060" stroke-width=".5" x="0" y="0" width="60" height="60"/>
                <use id="zoomplus" xlink:href="#zoomPlus" x="17" y="9" onmousedown="handleZoom(evt,'in')"/>
                <use id="zoomminus" xlink:href="#zoomMin" x="42" y="9" onmousedown="handleZoom(evt,'out')"/>
                <use id="reset" xlink:href="#resetDef" x="30" y="36" onmousedown="handleReset()"/>
                <g id="arrowUp" xlink:href="#dirArrow" transform="translate(30 24)" onmousedown="handlePan(0,-1)">
                  <use xlink:href="#rim" fill="#404040">
                        <set attributeName="fill" to="#808080" begin="arrowUp.mouseover" end="arrowUp.mouseout"/>
                  </use>
                  <path fill="none" stroke="white" stroke-width="1.5" d="M0,-3.0v7 M-2.5,-0.5L0,-3.0L2.5,-0.5"/>
                </g>
                <g id="arrowRight" xlink:href="#dirArrow" transform="rotate(90) translate(36 -43)" onmousedown="handlePan(1,0)">
                  <use xlink:href="#rim" fill="#404040">
                        <set attributeName="fill" to="#808080" begin="arrowRight.mouseover" end="arrowRight.mouseout"/>
                  </use>
                  <path fill="none" stroke="white" stroke-width="1.5" d="M0,-3.0v7 M-2.5,-0.5L0,-3.0L2.5,-0.5"/>
                </g>
                <g id="arrowDown" xlink:href="#dirArrow" transform="rotate(180) translate(-30 -48)" onmousedown="handlePan(0,1)">
                  <use xlink:href="#rim" fill="#404040">
                        <set attributeName="fill" to="#808080" begin="arrowDown.mouseover" end="arrowDown.mouseout"/>
                  </use>
                  <path fill="none" stroke="white" stroke-width="1.5" d="M0,-3.0v7 M-2.5,-0.5L0,-3.0L2.5,-0.5"/>
                </g>
                <g id="arrowLeft" xlink:href="#dirArrow" transform="rotate(270) translate(-36 17)" onmousedown="handlePan(-1,0)">
                  <use xlink:href="#rim" fill="#404040">
                        <set attributeName="fill" to="#808080" begin="arrowLeft.mouseover" end="arrowLeft.mouseout"/>
                  </use>
                  <path fill="none" stroke="white" stroke-width="1.5" d="M0,-3.0v7 M-2.5,-0.5L0,-3.0L2.5,-0.5"/>
                </g>
        </g>
        <svg viewBox="0 0 15 15" width="100%" height="30px" preserveAspectRatio="xMaxYMin meet">
         <g id="arrow_out" transform="scale(0.3 0.3)">
          <a xlink:href="classturtle_1_1draw_1_1_pen_aa1cfa7c148b990a796edcdce0c1ef4dc_icgraph_org.svg" target="_base">
           <rect id="button" ry="5" rx="5" y="6" x="6" height="38" width="38"
                fill="#f2f5e9" fill-opacity="0.5" stroke="#606060" stroke-width="1.0"/>
           <path id="arrow"
             d="M 11.500037,31.436501 C 11.940474,20.09759 22.043105,11.32322 32.158766,21.979434 L 37.068811,17.246167 C 37.068811,17.246167 37.088388,32 37.088388,32 L 22.160133,31.978069 C 22.160133,31.978069 26.997745,27.140456 26.997745,27.140456 C 18.528582,18.264221 13.291696,25.230495 11.500037,31.436501 z"
             style="fill:#404040;"/>
          </a>
         </g>
        </svg>
</svg>
