<?xml version="1.0" encoding="UTF-8" standalone="no"?>
<!DOCTYPE svg PUBLIC "-//W3C//DTD SVG 1.1//EN"
 "http://www.w3.org/Graphics/SVG/1.1/DTD/svg11.dtd">
<!-- Generated by graphviz version 2.36.0 (20140111.2315)
 -->
<!-- Title: turtle.draw.Pen.getWidth Pages: 1 -->
<svg width="1642pt" height="87pt"
 viewBox="0.00 0.00 1642.00 87.00" xmlns="http://www.w3.org/2000/svg" xmlns:xlink="http://www.w3.org/1999/xlink">
<g id="graph0" class="graph" transform="scale(1 1) rotate(0) translate(4 83)">
<title>turtle.draw.Pen.getWidth</title>
<polygon fill="white" stroke="none" points="-4,4 -4,-83 1638,-83 1638,4 -4,4"/>
<!-- Node1 -->
<g id="node1" class="node"><title>Node1</title>
<polygon fill="#bfbfbf" stroke="black" points="0.5,-29.5 0.5,-48.5 133.5,-48.5 133.5,-29.5 0.5,-29.5"/>
<text text-anchor="middle" x="67" y="-36.5" font-family="Helvetica,sans-Serif" font-size="10.00">turtle.draw.Pen.getWidth</text>
</g>
<!-- Node2 -->
<g id="node2" class="node"><title>Node2</title>
<g id="a_node2"><a xlink:href="../../d8/dde/classturtle_1_1draw_1_1_pen_transition.html#a819420d27f897da865421a925d845f0d" target="_top" xlink:title="turtle.draw.PenTransition.formatLine">
<polygon fill="white" stroke="black" points="170,-29.5 170,-48.5 358,-48.5 358,-29.5 170,-29.5"/>
<text text-anchor="middle" x="264" y="-36.5" font-family="Helvetica,sans-Serif" font-size="10.00">turtle.draw.PenTransition.formatLine</text>
</a>
</g>
</g>
<!-- Node1&#45;&gt;Node2 -->
<g id="edge1" class="edge"><title>Node1&#45;&gt;Node2</title>
<path fill="none" stroke="midnightblue" d="M143.964,-39C152.45,-39 161.164,-39 169.833,-39"/>
<polygon fill="midnightblue" stroke="midnightblue" points="143.746,-35.5001 133.746,-39 143.746,-42.5001 143.746,-35.5001"/>
</g>
<!-- Node3 -->
<g id="node3" class="node"><title>Node3</title>
<g id="a_node3"><a xlink:href="../../d8/dde/classturtle_1_1draw_1_1_pen_transition.html#ae8155506993774930ffd88f222ee7398" target="_top" xlink:title="turtle.draw.PenTransition.createLine">
<polygon fill="white" stroke="black" points="394,-29.5 394,-48.5 580,-48.5 580,-29.5 394,-29.5"/>
<text text-anchor="middle" x="487" y="-36.5" font-family="Helvetica,sans-Serif" font-size="10.00">turtle.draw.PenTransition.createLine</text>
</a>
</g>
</g>
<!-- Node2&#45;&gt;Node3 -->
<g id="edge2" class="edge"><title>Node2&#45;&gt;Node3</title>
<path fill="none" stroke="midnightblue" d="M368.089,-39C376.646,-39 385.262,-39 393.732,-39"/>
<polygon fill="midnightblue" stroke="midnightblue" points="368.083,-35.5001 358.083,-39 368.083,-42.5001 368.083,-35.5001"/>
</g>
<!-- Node4 -->
<g id="node4" class="node"><title>Node4</title>
<g id="a_node4"><a xlink:href="../../d8/dde/classturtle_1_1draw_1_1_pen_transition.html#aa0a682d77c6f7e56adb8a7cad589a140" target="_top" xlink:title="turtle.draw.PenTransition.set\lDistance">
<polygon fill="white" stroke="black" points="627.5,-49 627.5,-79 778.5,-79 778.5,-49 627.5,-49"/>
<text text-anchor="start" x="635.5" y="-67" font-family="Helvetica,sans-Serif" font-size="10.00">turtle.draw.PenTransition.set</text>
<text text-anchor="middle" x="703" y="-56" font-family="Helvetica,sans-Serif" font-size="10.00">Distance</text>
</a>
</g>
</g>
<!-- Node3&#45;&gt;Node4 -->
<g id="edge3" class="edge"><title>Node3&#45;&gt;Node4</title>
<path fill="none" stroke="midnightblue" d="M579.861,-49.7315C595.729,-51.5851 612.049,-53.4917 627.389,-55.2838"/>
<polygon fill="midnightblue" stroke="midnightblue" points="579.853,-46.2068 569.515,-48.5227 579.041,-53.1595 579.853,-46.2068"/>
</g>
<!-- Node9 -->
<g id="node9" class="node"><title>Node9</title>
<g id="a_node9"><a xlink:href="../../d8/dde/classturtle_1_1draw_1_1_pen_transition.html#a7eaf834f0b2189acc2f53ca8f561b07d" target="_top" xlink:title="turtle.draw.PenTransition.perform\lWrappingChanges">
<polygon fill="white" stroke="black" points="616,-0 616,-30 790,-30 790,-0 616,-0"/>
<text text-anchor="start" x="624" y="-18" font-family="Helvetica,sans-Serif" font-size="10.00">turtle.draw.PenTransition.perform</text>
<text text-anchor="middle" x="703" y="-7" font-family="Helvetica,sans-Serif" font-size="10.00">WrappingChanges</text>
</a>
</g>
</g>
<!-- Node3&#45;&gt;Node9 -->
<g id="edge8" class="edge"><title>Node3&#45;&gt;Node9</title>
<path fill="none" stroke="midnightblue" d="M582.889,-28.3582C593.849,-27.1291 604.98,-25.8808 615.815,-24.6656"/>
<polygon fill="midnightblue" stroke="midnightblue" points="582.433,-24.8873 572.886,-29.4801 583.214,-31.8437 582.433,-24.8873"/>
</g>
<!-- Node5 -->
<g id="node5" class="node"><title>Node5</title>
<g id="a_node5"><a xlink:href="../../dc/d3e/classturtle_1_1draw_1_1_transition_factory.html#a6ff1cfc7cfe2396040ddb55408ee854e" target="_top" xlink:title="turtle.draw.TransitionFactory.create\lForwardTransition">
<polygon fill="white" stroke="black" points="826,-49 826,-79 1008,-79 1008,-49 826,-49"/>
<text text-anchor="start" x="834" y="-67" font-family="Helvetica,sans-Serif" font-size="10.00">turtle.draw.TransitionFactory.create</text>
<text text-anchor="middle" x="917" y="-56" font-family="Helvetica,sans-Serif" font-size="10.00">ForwardTransition</text>
</a>
</g>
</g>
<!-- Node4&#45;&gt;Node5 -->
<g id="edge4" class="edge"><title>Node4&#45;&gt;Node5</title>
<path fill="none" stroke="midnightblue" d="M788.878,-64C801.07,-64 813.651,-64 825.939,-64"/>
<polygon fill="midnightblue" stroke="midnightblue" points="788.743,-60.5001 778.743,-64 788.743,-67.5001 788.743,-60.5001"/>
</g>
<!-- Node6 -->
<g id="node6" class="node"><title>Node6</title>
<g id="a_node6"><a xlink:href="../../dc/d3e/classturtle_1_1draw_1_1_transition_factory.html#adb38be68a00bde2421dbdf0d55a93e54" target="_top" xlink:title="turtle.draw.TransitionFactory.create\lTurtleTransition">
<polygon fill="white" stroke="black" points="1044,-49 1044,-79 1226,-79 1226,-49 1044,-49"/>
<text text-anchor="start" x="1052" y="-67" font-family="Helvetica,sans-Serif" font-size="10.00">turtle.draw.TransitionFactory.create</text>
<text text-anchor="middle" x="1135" y="-56" font-family="Helvetica,sans-Serif" font-size="10.00">TurtleTransition</text>
</a>
</g>
</g>
<!-- Node5&#45;&gt;Node6 -->
<g id="edge5" class="edge"><title>Node5&#45;&gt;Node6</title>
<path fill="none" stroke="midnightblue" d="M1018.06,-64C1026.63,-64 1035.27,-64 1043.76,-64"/>
<polygon fill="midnightblue" stroke="midnightblue" points="1018.04,-60.5001 1008.04,-64 1018.04,-67.5001 1018.04,-60.5001"/>
</g>
<!-- Node7 -->
<g id="node7" class="node"><title>Node7</title>
<g id="a_node7"><a xlink:href="../../dc/d3e/classturtle_1_1draw_1_1_transition_factory.html#a31b362130278174931595c1ce68c7ff5" target="_top" xlink:title="turtle.draw.TransitionFactory.create\lAnimation">
<polygon fill="white" stroke="black" points="1262,-49 1262,-79 1444,-79 1444,-49 1262,-49"/>
<text text-anchor="start" x="1270" y="-67" font-family="Helvetica,sans-Serif" font-size="10.00">turtle.draw.TransitionFactory.create</text>
<text text-anchor="middle" x="1353" y="-56" font-family="Helvetica,sans-Serif" font-size="10.00">Animation</text>
</a>
</g>
</g>
<!-- Node6&#45;&gt;Node7 -->
<g id="edge6" class="edge"><title>Node6&#45;&gt;Node7</title>
<path fill="none" stroke="midnightblue" d="M1236.06,-64C1244.63,-64 1253.27,-64 1261.76,-64"/>
<polygon fill="midnightblue" stroke="midnightblue" points="1236.04,-60.5001 1226.04,-64 1236.04,-67.5001 1236.04,-60.5001"/>
</g>
<!-- Node8 -->
<g id="node8" class="node"><title>Node8</title>
<g id="a_node8"><a xlink:href="../../df/dcb/classturtle_1_1_turtle.html#a72a5d11b319fe2819a646569d5034557" target="_top" xlink:title="turtle.Turtle.createAnimation">
<polygon fill="white" stroke="black" points="1480.5,-54.5 1480.5,-73.5 1633.5,-73.5 1633.5,-54.5 1480.5,-54.5"/>
<text text-anchor="middle" x="1557" y="-61.5" font-family="Helvetica,sans-Serif" font-size="10.00">turtle.Turtle.createAnimation</text>
</a>
</g>
</g>
<!-- Node7&#45;&gt;Node8 -->
<g id="edge7" class="edge"><title>Node7&#45;&gt;Node8</title>
<path fill="none" stroke="midnightblue" d="M1454.31,-64C1463.06,-64 1471.8,-64 1480.3,-64"/>
<polygon fill="midnightblue" stroke="midnightblue" points="1454.07,-60.5001 1444.07,-64 1454.07,-67.5001 1454.07,-60.5001"/>
</g>
</g>
</svg>
