<?xml version="1.0" encoding="UTF-8" standalone="no"?>
<!DOCTYPE svg PUBLIC "-//W3C//DTD SVG 1.1//EN"
 "http://www.w3.org/Graphics/SVG/1.1/DTD/svg11.dtd">
<!-- Generated by graphviz version 2.36.0 (20140111.2315)
 -->
<!-- Title: turtle.draw.Pen.drawLine Pages: 1 -->
<svg width="1632pt" height="87pt"
 viewBox="0.00 0.00 1632.00 87.00" xmlns="http://www.w3.org/2000/svg" xmlns:xlink="http://www.w3.org/1999/xlink">
<g id="graph0" class="graph" transform="scale(1 1) rotate(0) translate(4 83)">
<title>turtle.draw.Pen.drawLine</title>
<polygon fill="white" stroke="none" points="-4,4 -4,-83 1628,-83 1628,4 -4,4"/>
<!-- Node1 -->
<g id="node1" class="node"><title>Node1</title>
<polygon fill="#bfbfbf" stroke="black" points="0.5,-29.5 0.5,-48.5 133.5,-48.5 133.5,-29.5 0.5,-29.5"/>
<text text-anchor="middle" x="67" y="-36.5" font-family="Helvetica,sans-Serif" font-size="10.00">turtle.draw.Pen.drawLine</text>
</g>
<!-- Node2 -->
<g id="node2" class="node"><title>Node2</title>
<g id="a_node2"><a xlink:href="../../d8/dde/classturtle_1_1draw_1_1_pen_transition.html#a431676c45414059317fdf53c2e5d539f" target="_top" xlink:title="turtle.draw.PenTransition.drawLine">
<polygon fill="white" stroke="black" points="170,-29.5 170,-48.5 348,-48.5 348,-29.5 170,-29.5"/>
<text text-anchor="middle" x="259" y="-36.5" font-family="Helvetica,sans-Serif" font-size="10.00">turtle.draw.PenTransition.drawLine</text>
</a>
</g>
</g>
<!-- Node1&#45;&gt;Node2 -->
<g id="edge1" class="edge"><title>Node1&#45;&gt;Node2</title>
<path fill="none" stroke="midnightblue" d="M143.656,-39C152.279,-39 161.125,-39 169.891,-39"/>
<polygon fill="midnightblue" stroke="midnightblue" points="143.653,-35.5001 133.653,-39 143.653,-42.5001 143.653,-35.5001"/>
</g>
<!-- Node3 -->
<g id="node3" class="node"><title>Node3</title>
<g id="a_node3"><a xlink:href="../../d8/dde/classturtle_1_1draw_1_1_pen_transition.html#ae8155506993774930ffd88f222ee7398" target="_top" xlink:title="turtle.draw.PenTransition.createLine">
<polygon fill="white" stroke="black" points="384,-29.5 384,-48.5 570,-48.5 570,-29.5 384,-29.5"/>
<text text-anchor="middle" x="477" y="-36.5" font-family="Helvetica,sans-Serif" font-size="10.00">turtle.draw.PenTransition.createLine</text>
</a>
</g>
</g>
<!-- Node2&#45;&gt;Node3 -->
<g id="edge2" class="edge"><title>Node2&#45;&gt;Node3</title>
<path fill="none" stroke="midnightblue" d="M358.172,-39C366.739,-39 375.389,-39 383.904,-39"/>
<polygon fill="midnightblue" stroke="midnightblue" points="358.167,-35.5001 348.167,-39 358.167,-42.5001 358.167,-35.5001"/>
</g>
<!-- Node4 -->
<g id="node4" class="node"><title>Node4</title>
<g id="a_node4"><a xlink:href="../../d8/dde/classturtle_1_1draw_1_1_pen_transition.html#aa0a682d77c6f7e56adb8a7cad589a140" target="_top" xlink:title="turtle.draw.PenTransition.set\lDistance">
<polygon fill="white" stroke="black" points="617.5,-49 617.5,-79 768.5,-79 768.5,-49 617.5,-49"/>
<text text-anchor="start" x="625.5" y="-67" font-family="Helvetica,sans-Serif" font-size="10.00">turtle.draw.PenTransition.set</text>
<text text-anchor="middle" x="693" y="-56" font-family="Helvetica,sans-Serif" font-size="10.00">Distance</text>
</a>
</g>
</g>
<!-- Node3&#45;&gt;Node4 -->
<g id="edge3" class="edge"><title>Node3&#45;&gt;Node4</title>
<path fill="none" stroke="midnightblue" d="M569.861,-49.7315C585.729,-51.5851 602.049,-53.4917 617.389,-55.2838"/>
<polygon fill="midnightblue" stroke="midnightblue" points="569.853,-46.2068 559.515,-48.5227 569.041,-53.1595 569.853,-46.2068"/>
</g>
<!-- Node9 -->
<g id="node9" class="node"><title>Node9</title>
<g id="a_node9"><a xlink:href="../../d8/dde/classturtle_1_1draw_1_1_pen_transition.html#a7eaf834f0b2189acc2f53ca8f561b07d" target="_top" xlink:title="turtle.draw.PenTransition.perform\lWrappingChanges">
<polygon fill="white" stroke="black" points="606,-0 606,-30 780,-30 780,-0 606,-0"/>
<text text-anchor="start" x="614" y="-18" font-family="Helvetica,sans-Serif" font-size="10.00">turtle.draw.PenTransition.perform</text>
<text text-anchor="middle" x="693" y="-7" font-family="Helvetica,sans-Serif" font-size="10.00">WrappingChanges</text>
</a>
</g>
</g>
<!-- Node3&#45;&gt;Node9 -->
<g id="edge8" class="edge"><title>Node3&#45;&gt;Node9</title>
<path fill="none" stroke="midnightblue" d="M572.889,-28.3582C583.849,-27.1291 594.98,-25.8808 605.815,-24.6656"/>
<polygon fill="midnightblue" stroke="midnightblue" points="572.433,-24.8873 562.886,-29.4801 573.214,-31.8437 572.433,-24.8873"/>
</g>
<!-- Node5 -->
<g id="node5" class="node"><title>Node5</title>
<g id="a_node5"><a xlink:href="../../dc/d3e/classturtle_1_1draw_1_1_transition_factory.html#a6ff1cfc7cfe2396040ddb55408ee854e" target="_top" xlink:title="turtle.draw.TransitionFactory.create\lForwardTransition">
<polygon fill="white" stroke="black" points="816,-49 816,-79 998,-79 998,-49 816,-49"/>
<text text-anchor="start" x="824" y="-67" font-family="Helvetica,sans-Serif" font-size="10.00">turtle.draw.TransitionFactory.create</text>
<text text-anchor="middle" x="907" y="-56" font-family="Helvetica,sans-Serif" font-size="10.00">ForwardTransition</text>
</a>
</g>
</g>
<!-- Node4&#45;&gt;Node5 -->
<g id="edge4" class="edge"><title>Node4&#45;&gt;Node5</title>
<path fill="none" stroke="midnightblue" d="M778.878,-64C791.07,-64 803.651,-64 815.939,-64"/>
<polygon fill="midnightblue" stroke="midnightblue" points="778.743,-60.5001 768.743,-64 778.743,-67.5001 778.743,-60.5001"/>
</g>
<!-- Node6 -->
<g id="node6" class="node"><title>Node6</title>
<g id="a_node6"><a xlink:href="../../dc/d3e/classturtle_1_1draw_1_1_transition_factory.html#adb38be68a00bde2421dbdf0d55a93e54" target="_top" xlink:title="turtle.draw.TransitionFactory.create\lTurtleTransition">
<polygon fill="white" stroke="black" points="1034,-49 1034,-79 1216,-79 1216,-49 1034,-49"/>
<text text-anchor="start" x="1042" y="-67" font-family="Helvetica,sans-Serif" font-size="10.00">turtle.draw.TransitionFactory.create</text>
<text text-anchor="middle" x="1125" y="-56" font-family="Helvetica,sans-Serif" font-size="10.00">TurtleTransition</text>
</a>
</g>
</g>
<!-- Node5&#45;&gt;Node6 -->
<g id="edge5" class="edge"><title>Node5&#45;&gt;Node6</title>
<path fill="none" stroke="midnightblue" d="M1008.06,-64C1016.63,-64 1025.27,-64 1033.76,-64"/>
<polygon fill="midnightblue" stroke="midnightblue" points="1008.04,-60.5001 998.039,-64 1008.04,-67.5001 1008.04,-60.5001"/>
</g>
<!-- Node7 -->
<g id="node7" class="node"><title>Node7</title>
<g id="a_node7"><a xlink:href="../../dc/d3e/classturtle_1_1draw_1_1_transition_factory.html#a31b362130278174931595c1ce68c7ff5" target="_top" xlink:title="turtle.draw.TransitionFactory.create\lAnimation">
<polygon fill="white" stroke="black" points="1252,-49 1252,-79 1434,-79 1434,-49 1252,-49"/>
<text text-anchor="start" x="1260" y="-67" font-family="Helvetica,sans-Serif" font-size="10.00">turtle.draw.TransitionFactory.create</text>
<text text-anchor="middle" x="1343" y="-56" font-family="Helvetica,sans-Serif" font-size="10.00">Animation</text>
</a>
</g>
</g>
<!-- Node6&#45;&gt;Node7 -->
<g id="edge6" class="edge"><title>Node6&#45;&gt;Node7</title>
<path fill="none" stroke="midnightblue" d="M1226.06,-64C1234.63,-64 1243.27,-64 1251.76,-64"/>
<polygon fill="midnightblue" stroke="midnightblue" points="1226.04,-60.5001 1216.04,-64 1226.04,-67.5001 1226.04,-60.5001"/>
</g>
<!-- Node8 -->
<g id="node8" class="node"><title>Node8</title>
<g id="a_node8"><a xlink:href="../../df/dcb/classturtle_1_1_turtle.html#a72a5d11b319fe2819a646569d5034557" target="_top" xlink:title="turtle.Turtle.createAnimation">
<polygon fill="white" stroke="black" points="1470.5,-54.5 1470.5,-73.5 1623.5,-73.5 1623.5,-54.5 1470.5,-54.5"/>
<text text-anchor="middle" x="1547" y="-61.5" font-family="Helvetica,sans-Serif" font-size="10.00">turtle.Turtle.createAnimation</text>
</a>
</g>
</g>
<!-- Node7&#45;&gt;Node8 -->
<g id="edge7" class="edge"><title>Node7&#45;&gt;Node8</title>
<path fill="none" stroke="midnightblue" d="M1444.31,-64C1453.06,-64 1461.8,-64 1470.3,-64"/>
<polygon fill="midnightblue" stroke="midnightblue" points="1444.07,-60.5001 1434.07,-64 1444.07,-67.5001 1444.07,-60.5001"/>
</g>
</g>
</svg>
